<?xml version="1.0" encoding="UTF-8"?>
<svg id="Layer_1" data-name="Layer 1" xmlns="http://www.w3.org/2000/svg" viewBox="0 0 812.98 212.37">
  <defs>
    <style>
      .cls-1 {
        fill: #fff;
      }
    </style>
  </defs>
  <path class="cls-1" d="M46.55,174.79L163.47,42.07c2.56-2.9,3.97-6.62,3.97-10.48V3.28H6.11v34.29h115.58L4,170.29c-2.58,2.9-4,6.65-4,10.52v28.28h173.15v-34.3H46.55Z"/>
  <path class="cls-1" d="M335.4,142.13c-5.98,24.23-24.5,36.34-55.54,36.34-17.97,0-32.81-5.98-44.51-17.97-11.71-11.98-18.38-27.78-20.01-47.37,0,0-1.08-13.84,1.23-29,6.25-34.84,25.99-52.26,59.2-52.26,16.89,0,30.36,4.76,40.44,14.28,10.06,9.54,15.79,22.19,17.14,37.98h-95.08c-1.52,13.19-.69,23.37.11,29h134.18c.55-4.9.81-10.07.81-15.52,0-27.5-8.65-50.64-25.92-69.42C330.16,9.4,306.26,0,275.77,0s-54.99,10-72.68,30.03c-17.7,20.01-26.55,44.99-26.55,74.93s9.52,54.99,28.59,75.96c19.05,20.97,43.96,31.45,74.73,31.45,25.32,0,46.56-6.39,63.72-19.2,17.14-12.8,27.63-29.81,31.44-51.05h-39.62Z"/>
  <path class="cls-1" d="M558.02,22.87c-14.03-15.25-32.61-22.87-55.75-22.87-15.52,0-29.07,3.41-40.63,10.22-11.58,6.81-20.09,16.6-25.52,29.4V3.28h-39.62v205.82h39.62v-111.49c0-17.97,5.17-32.8,15.52-44.51,10.35-11.71,23.54-17.57,39.62-17.57,14.43,0,26.06,5.05,34.92,15.12,8.85,10.07,13.27,23.27,13.27,39.61v118.84h39.62v-126.6c0-24.5-7.02-44.37-21.03-59.63Z"/>
  <path class="cls-1" d="M783.18,30.03c-19.88-20.02-45.2-30.03-75.96-30.03s-56.16,10-76.17,30.03c-20.01,20.01-30.01,45.39-30.01,76.16s10,56.15,30.01,76.16c20.01,20.02,45.4,30.03,76.17,30.03s56.08-10,75.96-30.03c19.86-20.01,29.8-45.39,29.8-76.16s-9.94-56.15-29.8-76.16ZM754.39,157.63c-12.12,13.35-27.86,20.02-47.17,20.02s-35.48-6.67-47.58-20.02c-12.11-13.33-18.17-30.48-18.17-51.45s6.06-38.11,18.17-51.46c12.11-13.33,27.98-20.01,47.58-20.01s35.05,6.67,47.17,20.01c12.11,13.35,18.17,30.49,18.17,51.46s-6.06,38.11-18.17,51.45Z"/>
</svg>