<svg xmlns="http://www.w3.org/2000/svg" width="64" height="64" fill="none" viewBox="0 0 64 64"><circle cx="32" cy="32" r="32" fill="#eaeaea"/><path fill="#26272b" fill-rule="evenodd" d="M27.275 20.207q-2.444-1.7-5.843-1.7t-5.843 1.7q-2.444 1.665-3.683 4.603-1.24 2.94-1.24 6.728 0 3.79 1.24 6.728 1.24 2.94 3.683 4.64 2.443 1.663 5.843 1.663t5.843-1.664q2.443-1.7 3.682-4.639 1.24-2.94 1.24-6.728 0-3.79-1.24-6.728-1.239-2.94-3.682-4.603m-2.776 4.364q-1.187-1.248-3.067-1.248-2.514 0-3.825 2.23-1.274 2.232-1.274 5.985 0 2.356.502 4.113zm-6.157 13.932q1.207 1.25 3.09 1.25 2.514 0 3.789-2.23 1.31-2.232 1.31-5.985 0-2.364-.52-4.123z" clip-rule="evenodd"/><path fill="#26272b" d="m38.921 34.23-6.657 9.773h6.374l3.116-5.524q.354-.567.425-1.488.035-.354.142-.53.105-.213.425-.213.495 0 .566.637v.106q.072.921.425 1.488l3.116 5.524h6.374l-6.657-9.774 6.09-8.923h-6.373l-2.55 4.639q-.425.743-.425 1.487 0 .319-.141.531-.107.212-.425.212-.32 0-.46-.212a1.2 1.2 0 0 1-.107-.531q0-.744-.425-1.487l-2.55-4.64h-6.373z"/></svg>