<svg width="187" height="24" viewBox="0 0 187 24" fill="none" xmlns="http://www.w3.org/2000/svg">
<path fill-rule="evenodd" clip-rule="evenodd" d="M18.1522 12C18.1522 15.2117 15.4228 17.8153 12.0559 17.8153C10.8754 17.8153 9.77329 17.4952 8.8397 16.9411L17.2358 8.93212C17.8167 9.82266 18.1522 10.874 18.1522 12ZM7.15814 15.4634L15.6867 7.32809C14.6724 6.60972 13.4162 6.18473 12.0559 6.18473C8.68895 6.18473 5.95951 8.78831 5.95951 12C5.95951 13.2976 6.40504 14.4959 7.15814 15.4634ZM24.1117 12C24.1117 18.3513 18.7141 23.5 12.0559 23.5C5.3976 23.5 0 18.3513 0 12C0 5.64873 5.3976 0.5 12.0559 0.5C18.7141 0.5 24.1117 5.64873 24.1117 12Z" fill="#FFFFFF"/>
<path fill-rule="evenodd" clip-rule="evenodd" d="M43.5743 12.0403L51.4399 4.51115L47.2495 0.5L39.384 8.02914L31.5185 0.500054L27.3281 4.51121L35.1936 12.0403L27.4123 19.4888L31.6027 23.4999L39.384 16.0515L47.1653 23.5L51.3557 19.4888L43.5743 12.0403Z" fill="#FFFFFF"/>
<path d="M70.4881 7.58359C68.9231 7.58359 67.8235 8.24967 67.3679 9.46763H67.1698V7.75487H64.832V21.6663H67.2094V16.4709H67.4075C67.8136 17.6699 68.9231 18.355 70.4881 18.355C72.9844 18.355 74.5296 16.6708 74.5296 13.8923V12.0368C74.5296 9.26781 72.9844 7.58359 70.4881 7.58359ZM69.666 9.52473C71.2212 9.52473 72.182 10.5429 72.182 12.1795V13.8162C72.182 15.4433 71.2212 16.4709 69.666 16.4709C68.1207 16.4709 67.1599 15.4528 67.1599 13.8162V12.1795C67.1599 10.5429 68.1207 9.52473 69.666 9.52473Z" fill="#FFFFFF"/>
<path d="M81.7409 10.4192V7.75487H77.1943V9.41054H79.5122V16.5185H77.4023V18.1742H84.9603V16.5185H81.731V13.5307C81.731 11.1233 83.0485 9.81019 85.5546 9.81019C86.149 9.81019 86.8622 9.92437 87.3475 10.1052V7.69778C86.9711 7.55505 86.4065 7.47892 85.7924 7.47892C83.732 7.47892 82.5235 8.41143 82.0777 10.4192H81.7409Z" fill="#FFFFFF"/>
<path d="M94.5687 18.3835C97.5602 18.3835 99.4522 16.5946 99.4522 13.7591V12.17C99.4522 9.33442 97.5602 7.54553 94.5687 7.54553C91.5772 7.54553 89.6853 9.33442 89.6853 12.17V13.7591C89.6853 16.5946 91.5772 18.3835 94.5687 18.3835ZM94.5687 9.382C96.1735 9.382 97.1739 10.4953 97.1739 12.2937V13.6354C97.1739 15.4338 96.1735 16.5471 94.5687 16.5471C92.964 16.5471 91.9636 15.4338 91.9636 13.6354V12.2937C91.9636 10.4953 92.964 9.382 94.5687 9.382Z" fill="#FFFFFF"/>
<path d="M111.864 11.228C111.606 8.83962 109.972 7.51698 107.317 7.51698C104.217 7.51698 102.464 9.2583 102.464 12.3508V13.5497C102.464 16.6517 104.217 18.3835 107.317 18.3835C109.962 18.3835 111.616 17.0704 111.864 14.7391H109.605C109.407 15.8905 108.565 16.5185 107.297 16.5185C105.673 16.5185 104.781 15.3957 104.781 13.3499V12.5506C104.781 10.5048 105.673 9.382 107.297 9.382C108.556 9.382 109.417 10.0386 109.605 11.228H111.864Z" fill="#FFFFFF"/>
<path d="M119.769 9.29636C121.284 9.29636 122.196 10.324 122.196 12.0178H117.282C117.282 10.3145 118.213 9.29636 119.769 9.29636ZM122.225 15.3481C121.997 16.1189 121.076 16.6232 119.878 16.6232C118.303 16.6232 117.282 15.5955 117.282 14.0065V13.5021H124.434V12.2366C124.434 9.34393 122.661 7.54553 119.808 7.54553C116.926 7.54553 115.014 9.35345 115.014 12.0844V13.7115C115.014 16.6803 116.797 18.3835 119.888 18.3835C122.314 18.3835 124.157 17.137 124.414 15.3481H122.225Z" fill="#FFFFFF"/>
<path d="M127.971 10.7046C127.971 12.2556 128.981 13.2452 130.982 13.6734L132.606 14.016C133.845 14.2729 134.3 14.625 134.3 15.3101C134.3 16.1189 133.508 16.6517 132.25 16.6517C131.021 16.6517 130.199 16.1855 130.001 15.3672H127.713C127.871 17.2512 129.555 18.3835 132.21 18.3835C134.934 18.3835 136.668 17.0799 136.668 15.0532C136.668 13.4926 135.707 12.6077 133.538 12.1605L131.923 11.8274C130.744 11.58 130.249 11.1994 130.249 10.5334C130.249 9.7531 131.012 9.23926 132.171 9.23926C133.29 9.23926 134.072 9.72455 134.231 10.5048H136.41C136.262 8.63028 134.687 7.5265 132.2 7.5265C129.635 7.5265 127.971 8.7635 127.971 10.7046Z" fill="#FFFFFF"/>
<path d="M140.511 10.7046C140.511 12.2556 141.521 13.2452 143.522 13.6734L145.147 14.016C146.385 14.2729 146.841 14.625 146.841 15.3101C146.841 16.1189 146.048 16.6517 144.79 16.6517C143.562 16.6517 142.74 16.1855 142.542 15.3672H140.254C140.412 17.2512 142.096 18.3835 144.751 18.3835C147.475 18.3835 149.208 17.0799 149.208 15.0532C149.208 13.4926 148.247 12.6077 146.078 12.1605L144.463 11.8274C143.285 11.58 142.789 11.1994 142.789 10.5334C142.789 9.7531 143.552 9.23926 144.711 9.23926C145.83 9.23926 146.613 9.72455 146.771 10.5048H148.951C148.802 8.63028 147.227 7.5265 144.741 7.5265C142.175 7.5265 140.511 8.7635 140.511 10.7046Z" fill="#FFFFFF"/>
<path d="M157.44 5.44263C158.43 5.44263 159.124 4.82414 159.124 3.92969C159.124 3.03525 158.43 2.41675 157.44 2.41675C156.459 2.41675 155.766 3.03525 155.766 3.92969C155.766 4.82414 156.459 5.44263 157.44 5.44263ZM162.046 18.1742V16.4043H158.638V7.75487H152.933V9.52473H156.39V16.4043H152.814V18.1742H162.046Z" fill="#FFFFFF"/>
<path d="M165.127 18.1742H167.435V12.1034C167.435 10.5238 168.445 9.48666 169.99 9.48666C171.476 9.48666 172.189 10.286 172.189 11.9607V18.1742H174.497V11.4183C174.497 8.89671 173.219 7.54553 170.862 7.54553C169.267 7.54553 168.069 8.25918 167.514 9.53424H167.355V7.75487H165.127V18.1742Z" fill="#FFFFFF"/>
<path d="M179.549 13.5878V12.1224C179.549 10.4953 180.55 9.45812 182.115 9.45812C183.67 9.45812 184.67 10.4953 184.67 12.1224V13.5878C184.67 15.2149 183.67 16.2521 182.115 16.2521C180.55 16.2521 179.549 15.2149 179.549 13.5878ZM182.045 22.0945C185.126 22.0945 186.998 20.6101 186.998 18.1647V7.75487H184.73V9.45812H184.532C184.135 8.29724 182.927 7.57408 181.352 7.57408C178.777 7.57408 177.202 9.2583 177.202 12.0273V13.7305C177.202 16.4805 178.757 18.1837 181.263 18.1837C182.858 18.1837 184.106 17.451 184.492 16.2997H184.69V18.1837C184.69 19.6396 183.769 20.4198 182.075 20.4198C180.787 20.4198 179.827 19.9345 179.628 19.1828H177.37C177.568 20.9812 179.351 22.0945 182.045 22.0945Z" fill="#FFFFFF"/>
</svg>
