<svg width="1280" height="512" viewBox="0 0 1280 512" fill="none" xmlns="http://www.w3.org/2000/svg">
<path d="M1148.87 202.226V129.496H1185.51V202.226H1148.87ZM1084.6 202.226V129.496H1121.25V202.226L1084.6 202.226ZM902.431 384.319L947.576 384.319V291.946C947.576 252.754 969.408 235.141 989.002 235.141C1008.6 235.141 1021.4 247.325 1021.4 277.081V384.319L1066.54 384.319V268.056C1066.54 225.599 1043.2 198.776 1005.47 198.776C978.978 198.776 958.824 212.454 947.576 242.574V129.496H902.431V384.319ZM212.518 384.396L385.129 384.319V347.688L321.396 347.688V129.496H283.687C282.235 159.978 273.367 167.719 231.638 167.719L212.518 167.719V202.226L276.251 202.226V347.688L212.518 347.688V384.396ZM786.649 235.141C809.146 235.141 827.226 252.741 829.403 278.143L876.141 278.143C869.61 229.879 833.821 198.776 786.649 198.776C735.486 198.776 695.298 238.212 695.298 293.007C695.298 347.803 735.486 387.504 786.649 387.504C833.821 387.504 869.61 356.666 876.141 308.403H829.403C827.226 333.805 809.146 351.404 786.649 351.404C764.152 351.404 741.505 331.11 741.505 293.007C741.505 254.905 763.426 235.141 786.649 235.141ZM503.036 384.319L548.18 384.319L548.163 292.067C548.163 252.875 570.012 235.141 589.607 235.141C609.201 235.141 622.004 247.325 622.004 277.081V384.319L667.181 384.319V268.056C667.181 225.599 643.809 198.776 606.071 198.776C579.582 198.776 559.429 212.454 548.18 242.574V202.226L503.036 202.226V384.319ZM412.216 129.496V174.621L457.36 174.621V129.496H412.216ZM412.216 202.226V384.319L457.36 384.319V202.226L412.216 202.226Z" fill="black"/>
</svg>
