<svg xmlns="http://www.w3.org/2000/svg" width="1280" height="512" fill="none" viewBox="0 0 1280 512"><path fill="#000" d="M1148.87 202.226v-72.73h36.64v72.73zm-64.27 0v-72.73h36.65v72.73zM902.431 384.319h45.145v-92.373c0-39.192 21.832-56.805 41.426-56.805 19.598 0 32.398 12.184 32.398 41.94v107.238h45.14V268.056c0-42.457-23.34-69.28-61.07-69.28-26.492 0-46.646 13.678-57.894 43.798V129.496h-45.145zm-689.913.077 172.611-.077v-36.631h-63.733V129.496h-37.709c-1.452 30.482-10.32 38.223-52.049 38.223h-19.12v34.507h63.733v145.462h-63.733zm574.131-149.255c22.497 0 40.577 17.6 42.754 43.002h46.738c-6.531-48.264-42.32-79.367-89.492-79.367-51.163 0-91.351 39.436-91.351 94.231 0 54.796 40.188 94.497 91.351 94.497 47.172 0 82.961-30.838 89.492-79.101h-46.738c-2.177 25.402-20.257 43.001-42.754 43.001s-45.144-20.294-45.144-58.397 21.921-57.866 45.144-57.866M503.036 384.319h45.144l-.017-92.252c0-39.192 21.849-56.926 41.444-56.926 19.594 0 32.397 12.184 32.397 41.94v107.238h45.177V268.056c0-42.457-23.372-69.28-61.11-69.28-26.489 0-46.642 13.678-57.891 43.798v-40.348h-45.144zm-90.82-254.823v45.125h45.144v-45.125zm0 72.73v182.093h45.144V202.226z"/></svg>