<svg xmlns="http://www.w3.org/2000/svg" id="Layer_2" data-name="Layer 2" viewBox="0 0 1003 183"><defs><style>.cls-1{fill:#f3f5f0}</style></defs><g id="Layer_1-2" data-name="Layer 1"><path d="M660.562 26c18.054 25.102 31.867 54.257 49.257 79.696.616.9-.17 1.831 2.234 1.304V27.5l1.5-1.5h32.494v137h-33.494c-15.968-23.686-29.522-48.983-45.076-72.916-1.793-2.758-3.592-6.305-6.415-8.084v81h-33.994V26h33.494Zm-44.62 68.635c0 38.48-31.19 69.675-69.662 69.675s-69.663-31.195-69.663-69.675 31.19-69.675 69.663-69.675 69.662 31.195 69.662 69.675Zm-30.434.022c0-21.685-17.576-39.264-39.257-39.264s-39.257 17.58-39.257 39.264 17.576 39.264 39.257 39.264 39.257-17.58 39.257-39.264ZM859.026 26v28h-65.488l-1.5 1.5V80h51.99v25.5l-1.499 1.5h-50.49v27l66.987 1v28h-99.482l-1.5-1.5V26h100.982zm45.492 0 30.005 55.01L965.507 26H1003l-50.99 92.5V163h-32.495l-1.5-1.5v-44l-50.562-89.462L868.524 26h35.994zm-555.9 0 38.983 91.006L425.605 26h39.492v137h-32.494l-1.5-1.5V88c-6.78 7.456-27.401 74.58-31.455 75.074-4.529.552-18.61.576-23.08-.028-1.372-.185-2.641-.184-3.516-1.484l-26.896-70.099L343.119 88v75h-32.494l-1.5-1.5v-134l1.5-1.5h37.993Zm-53.49 0v137h-32.494l-1.5-1.5V78H234.64l-1.5-1.5v-19c5.742-2.637 11.34-3.86 17.014-6.983 10.757-5.92 16.49-14.134 22.48-24.517h22.495ZM85.166 183c-23.427-4.717-40.816-25.094-38.973-49.488.712-9.411 11.652-34.307 22.443-34.574 1.58-.04 11.065 3.057 12.028 4.065 1.513 1.583 1.898 6.485 3.014 8.985 9.706 21.737 27.065 35.88 51.486 37.012-2.032 17.991-19.552 29.894-36 34H85.166Z" class="cls-1"/><path d="M.181 95c-.22-2.089-.261-5.955 0-8 1.885-14.714 11.468-29.04 24.64-35.857 21.118-10.929 48.08-4.452 59.956 16.34l-4.113 12.515c-18.258 5.483-34.11 16.159-41.67 34.322-2.934 7.05-2.94 14.367-6.4 20.588C21.071 131.776 9.491 121.93 4.681 111 3.126 107.467.57 98.669.18 95Z" class="cls-1"/><path d="M99.164 0c29.913 6.428 47.573 37.073 34.185 65.692-2.466 5.273-11.716 17.875-17.744 18.29-1.575.107-10.924-2.949-11.935-3.99-1.594-1.643-5.84-15.821-8.683-20.314C85.303 44.38 67.16 34.164 49.17 32.996 51.781 15.34 68.702 3.733 85.166 0h13.998Z" class="cls-1"/><path d="M150.204 48.03c13.069 2.162 25.4 14.278 29.966 26.449 14.89 39.696-24.804 76.269-62.883 57.894-5.732-2.766-18.843-12.25-17.726-19.384 1.899-12.126 5.759-9.873 14.28-13.809 21.918-10.124 33.644-26.947 36.363-51.15Z" class="cls-1"/></g></svg>