<svg xmlns="http://www.w3.org/2000/svg" width="209" height="209" fill="none" viewBox="0 0 209 209"><path fill="#073387" fill-rule="evenodd" d="M125.299 114.152c25.33-8.606 43.7-32.274 44.443-60.334 22.204 5.945 38.555 26.205 38.555 50.284 0 28.748-23.304 52.052-52.052 52.052-18.936 0-35.51-10.111-44.618-25.23a65 65 0 0 0 4.762-14.434 65.262 65.262 0 0 0 8.91-2.338m-33.51 2.299c5.69 29.746 31.471 52.358 62.678 53.174-5.936 22.218-26.203 38.582-50.292 38.582-28.748 0-52.052-23.304-52.052-52.052 0-18.794 9.961-35.262 24.892-44.412a65 65 0 0 0 14.775 4.708m0-24.706c-29.736 5.682-52.344 31.447-53.17 62.639C16.418 148.438.07 128.179.07 104.101c0-28.748 23.304-52.052 52.051-52.052 18.776 0 35.229 9.94 44.385 24.846a65 65 0 0 0-4.716 14.85m24.963.037c-5.327-30.104-31.19-53.116-62.596-54.048C60.376 15.95 80.432 0 104.214 0c28.747 0 52.052 23.304 52.052 52.052 0 18.793-9.96 35.26-24.889 44.41a65 65 0 0 0-14.625-4.68" clip-rule="evenodd"/></svg>