<svg xmlns="http://www.w3.org/2000/svg" xmlns:xlink="http://www.w3.org/1999/xlink" xml:space="preserve" width="1377.6" height="140.667" viewBox="0 0 1377.6 140.667"><symbol id="a" viewBox="-232.749 -69.757 465.499 139.514"><g fill="#fa402b" opacity=".5"><path d="M94.515 23.744c-1.173.455-1.417.551-22.642.551-.589 0-2.536.146-4.253.271-2.252.161-4.38.314-5.358.314-3.055 0-5.48-.464-7.642-1.459-3.258-1.502-5.349-4.199-6.215-8.02a21 21 0 0 1-.254-1.455c-.153-1.029-.286-1.609-.384-1.938a130 130 0 0 1-2.864-.228c-2.386-.199-5.654-.476-6.928-.476-2.606 0-3.795.354-4.291.581-.053.69-.035 1.843.025 2.254.389 2.341.874 5.248-1.058 7.526-1.792 2.117-4.585 2.361-6.528 2.361-1.723.002-8.706.286-14.867.536-5.337.22-9.946.404-10.968.404-2.799 0-11.319 0-14.575-8.562l-6.936-27.127-.052-.267c-.275-1.865-.56-3.802-.481-5.876.182-4.844 3.749-10.438 13.249-11.613.199-.021.199-.021 12.927-.021l32.396.001c-2.415-8.312-7.333-25.229-7.373-25.365-1.275-4.39-.12-7.205 1.074-8.797 2.874-3.828 8.485-4.271 12.456-4.271.148 0 1.779.022 4.055.062 3.989.064 9.983.164 13.374.206 0 0 6.97.074 8.294.083q.408-.046.804-.047c4.127 0 7.533 3.716 9.111 9.939.192.771 4.072 15.062 5.479 20.058.06.208 5.731 20.841 7.836 28.754.171.646.701 2.108 1.314 3.812C97.234 7 102.205 20.759 94.515 23.744m-51.99-69.666c.482 1.226.898 2.282 1.149 3.104l.315 1.025c.961 3.117 3.513 11.398 4.403 14.812.777 2.98-.066 4.938-.91 6.06-2.121 2.811-5.993 2.896-8.306 2.948-1.732.039-44.361.049-44.787.049h-.02c-.854 0-3.456 0-4.697.854-.802.558-1.074 1.404-.438 4.727.36 1.397 5.387 20.964 5.521 21.667.256 1.354.686 3.619 1.235 4.282.004.005.471.345 2.297.345 2.844 0 18.88-.062 24.965-.192a20 20 0 0 1-.31-1.742c-.354-2.843.26-5.312 1.774-7.144.734-.889 1.265-1.531 11.681-2.274 4.908-.354 10.056-.567 11.586-.567q.25 0 .39.007c7.233.323 8.781 5.909 9.707 9.253.234.842.474 1.707.768 2.484l1.694-.02c2.881-.021 8.526-.075 11.091-.075 6.165 0 11.499-.033 14.968-.063a6438 6438 0 0 0-5.275-19.406C79.923-10.893 78.59-16.09 77.3-21.116a2152 2152 0 0 0-3.182-12.122c-2.302-8.709-3.713-14.065-3.899-15.067-.445-2.427-.911-4.932-1.894-6.896a10 10 0 0 0-.209-.396c-.323-.58-.373-.669-2.843-.746l-.348-.016c-4.845-.155-16.285-.553-17.874-.758-1.559-.202-3.17-.41-4.594-.41-1.146 0-2.033.137-2.66.361-.499.698-.435 3.213 2.728 11.244M-18.221 57.725l-.055.131c.038.172.083.365.126.562.207.925.325 1.476.334 1.944.04 2.094-.627 3.902-1.93 5.242-2.422 2.481-6.169 2.531-8.905 2.563-.499.008-29.607.05-29.97.05h-.001c-.712-.009-4.354-.064-6.125-.593-4.554-1.351-7.09-5.319-9.126-8.513-.234-.366-7.139-11.359-7.98-12.702-3.979-6.336-3.227-10.562-1.893-12.986 1.934-3.512 6.787-5.752 8.684-5.752h37.647c1.043 0 2.133.122 3.239.361l1.614.438.148.046c1.792.614 3.4 1.518 4.778 2.675 1.286 1.08 3.338 3.727 6.295 14.195l.098.35c.945 3.226 2.757 10.868 2.834 11.188zm-10.738-.002a282 282 0 0 1-1.116-4.461c-.911-3.852-3.681-12.339-4.997-13.958-.841-.321-2.824-.487-3.812-.569-.35-.028-.684-.062-.991-.086-1.226-.011-13.471.012-22.693.022-4.988.009-9.115.02-10.203.02l-.301-.001q-.474-.01-.947-.012c.343.881 1.184 2.587 3.252 5.724.166.25.275.421.316.487 2.739 4.614 7.169 11.127 8.688 12.567 3.559.248 24.225.36 29.536.36.968 0 2.103-.011 3.268-.093M61.504 30.216c1.438-.618 3.126-.907 5.325-.907.844 0 1.696.041 2.531.085.643.03 1.261.062 1.822.062h3.112c7.678 0 14.615.017 21.771.204 7.767.205 9.302 6.495 9.805 8.556l.115.465c.046.19.082.386.11.564l4.581 16.854.188.564v.047c.798 2.917.349 5.742-1.28 7.994-1.738 2.4-4.705 3.904-8.033 4.104l-.163.096-4.783.023c-6.278.029-12.561.062-18.835.07-.65.002-1.34.042-2.089.084-.872.052-1.771.104-2.712.104-2.038 0-3.653-.261-5.094-.812-4.479-1.724-5.628-6.513-6.39-9.688-.118-.49-.23-.965-.354-1.403-.479-1.755-1.052-3.55-1.615-5.318-.896-2.822-1.821-5.741-2.48-8.771-1.817-8.345 1.427-11.664 4.468-12.977m28.984 9.916c-1.93-.06-3.854-.117-5.781-.143-5.576-.071-11.112-.025-16.797.021l-.47.004q.055.269.179.646l.033.104c2.089 7.472 3.192 11.427 3.792 13.57l.023-.008.652 2.42c.256.948.417 1.315.5 1.459.146.039.526.104 1.464.117 5.334.069 10.669.022 16.006-.021h.135c3.325-.027 6.65-.06 9.977-.062-.07-.5-.227-1.236-.534-2.317-1.041-3.634-1.97-7.523-2.924-12.259a10.5 10.5 0 0 0-.419-1.545c-.482-1.305-1.024-1.858-3.134-1.916-.899-.014-1.801-.043-2.702-.07M-190.918 27.347h82.279c2.121 0 8.699 1.379 11.133 5.821 2.41 4.406 2.506 7.431 1.906 10.609-.646 3.438-1.693 6.354-3.291 9.146-4.907 8.901-11.959 13.42-20.957 13.42h-44.129c-10.039 0-18.463-2.908-25.748-8.89l-1.243-1.019c-3.396-2.771-6.329-5.156-8.89-8.743-3.974-5.564-4.391-10.664-1.242-15.156 2.771-3.944 8.741-5.188 10.182-5.188m6.857 20.906 1.074.879c5.163 4.238 11.207 6.216 19.012 6.216h44.127c5.158 0 8.646-2.341 11.688-7.854 1.803-3.15 2.778-7.381 2.014-8.703-.226-.385-1.104-.44-1.61-.44-.757 0-48.817.022-52.873.03h-.698c-1.148 0-2.811-.004-4.758-.008-2.51-.006-5.413-.014-8.044-.014-3.737 0-6.05.014-7.067.041-.97.025-1.929.012-2.891-.012a83 83 0 0 0-1.65-.021c-.714 0-1.299.019-1.843.058-.745.059-1.463.059-2.04.061-2.066.006-2.082.027-2.456.695-.159.285-.298.53.873 2.178 1.807 2.535 4.16 4.456 7.142 6.894M222.353 27.315c-1.12.207-2.435.309-4.01.309-.307 0-33.442-.443-35.227-.729-5.703-.916-7.142-5.697-7.757-7.758l-.128-.438s-9.28-34.993-9.343-35.218c-.91-3.44-5.151-5.568-8.561-5.568-1.372 0-2.473.364-2.947.977-.626.81-.426 2.28-.146 3.386.127.501.57 1.975.84 2.854.125.411.226.743.281.938l3.68 13.335c3.858 13.983 4.22 15.289 4.29 15.553 1.101 4.143-.045 6.806-1.201 8.31-2.746 3.575-7.84 4.034-11.972 4.034-.739 0-8.654-.036-15.989-.065-6.321-.027-12.21-.057-12.687-.057-2.589 0-4.482-.354-5.969-1.117-3.521-1.812-4.465-5.285-4.973-7.162l-8.249-30.818c-1.906-6.943-2.833-13.415-2.833-19.783 0-5.661.817-10.541 2.419-14.477 3.592-9.135 10.691-15.6 21.089-19.207 2.696-.948 6.004-2.011 10.097-2.654l1.271-.203c4.657-.744 9.473-1.513 14.935-1.513 2.934 0 18.235.312 31.704 6.516a77.2 77.2 0 0 1 15.955 9.854c5.395 4.312 9.784 9.133 13.06 14.312 3.512 5.563 5.784 11.478 8.137 18.688.028.091.061.181.108.321l.075.221c.229.646.446 1.296.63 2.023.626 2.521 1.928 7.366 3.942 14.846l.065.23c.062.257 2.391 9.729 3.714 15.109l.886 3.6c1.035 4.044 1.038 6.158.008 8.087-.907 1.692-2.656 2.794-5.194 3.264M149.276-58.25c-8.539 0-24.163 1.317-32.87 10.14-6.29 6.372-7.353 17.562-3.151 33.247.754 2.818 1.521 5.64 2.282 8.451l.054.199c1.812 6.675 3.683 13.575 5.403 20.403.304 1.2.335 1.325 3.951 1.36.126.002 12.754.186 18.482.186 3.713 0 6.39-.024 8.309-.062A2415 2415 0 0 1 147.39-.055a3623 3623 0 0 0-2.974-10.812c-1.252-4.521-2.967-10.712.669-16.184 2.917-4.386 7.412-6.799 12.658-6.799 8.604 0 17.008 6.271 19.129 14.28l1.934 7.306c5.179 19.552 6.791 25.647 7.259 27.75l.081-.023.109.362.033.106c2.84.229 8.545.368 13.166.368 1.242 0 2.23-.013 2.778-.032 1.56-.062 4.729-.146 9.427-.231l.403-.008c.294-.007 2.314-.104 4.276-.222-.539-2.599-1.544-5.387-2.521-8.104-.987-2.741-3.294-11.399-3.642-12.963-.737-3.354-2.425-10.297-2.593-10.868-.081-.231-.162-.485-.238-.721l-.039-.124c-2.082-6.387-4.056-11.565-6.92-16.1-6.354-10.061-17.015-18.086-29.238-22.021-6.428-2.06-13.993-3.155-21.871-3.155M-37.939 23.083c-.456.123-.626.168-20.157.168-7.135 0-13.728-.008-14.75-.012-5.651-.02-10.863-12.076-10.899-12.199-1.61-5.562-4.847-17.114-9.612-34.334-3.996-14.438-7.619-27.102-7.651-27.221l-.081-.273c-.652-2.188-1.532-5.321-1.637-7.221-.434-7.918 7.275-9.02 9.651-9.164.587-.035 30.158-.166 30.437-.166h.06l.05.002c3.875.154 6.538.765 7.92 1.812 2.256 1.709 4.028 5.521 5.583 11.981 1.821 6.402 17.123 60.229 17.599 62.924 1.333 7.562-.857 12.174-6.513 13.703m-31.405-10.199c1.434.014 14.549.024 17.191.004 3.159-.021 9.343.004 10.354.012-.07-.654-.224-1.488-.289-1.842-.396-2.019-10.677-38.479-17.485-62.493l-.027-.107c-1.073-4.541-1.275-4.811-3.604-4.811h-.172c-.46-.005-21.312-.082-26.1-.104l-1.654 1.654q.075.26.162.541c1.945 6.395 16.109 57.895 17.73 63.79.871 3.071 1.429 3.342 3.894 3.356M-120.025-10.689c6.787 4.549 12.396 11.134 17.143 20.133.869 1.646 2.777 5.938 1.68 10.104-.752 2.854-2.949 4.749-6.189 5.345-.881.161-1.836.235-3.006.235-.603 0-1.195-.02-1.806-.041a40 40 0 0 0-.924-.028l-.388.01c-7.848.139-15.168.216-20.609.216-8.852 0-11.165-.188-12.189-.354-2.354-.375-4.127-1.809-5.567-2.976a27 27 0 0 0-.815-.646c-3.251-2.429-13.65-9.601-16.312-10.841-19.173-8.938-32.271-16.462-40.025-22.975-10.46-8.655-18.173-19.409-22.305-31.102-.636-1.794-2.542-8.087-.47-13.759 1.69-4.622 6.219-7.433 12.746-7.91 2.013-.146 4.168-.218 6.783-.218 1.782 0 3.568.031 5.363.064 1.729.026 3.453.062 5.165.062l3.181-.002c4.607 0 9.217.014 13.826.025l2.641.008q5.968.017 11.936.021l11.052.021c5.023.009 10.046.019 15.082.021 1.109 0 2.397-.098 3.806-.198 1.601-.12 3.254-.244 4.953-.244 2.129 0 8.609 0 12.394 5.134 1.674 2.271 2.473 4.871 3.205 7.548.062.229.983 3.421 1.831 6.361a1177 1177 0 0 1 1.445 5.017c1.021 3.646-.055 7.718-2.668 10.134-2.547 2.354-5.795 2.654-8.341 2.654-.573 0-1.147-.015-1.78-.032a30 30 0 0 0-1.832-.019c-.74.021-2.701.031-6.17.031-5.572 0-13.81-.027-20.514-.055 3.734 2.12 8.579 4.49 14.742 6.877 6.043 2.343 15.005 6.07 22.936 11.379m-60.077-23.448c-.426-2.188.24-3.562.875-4.331a4.12 4.12 0 0 1 3.188-1.507l48.869.001q.128 0 .269.005a32 32 0 0 0-.596-1.88 36 36 0 0 1-.562-1.77l-.493-1.768a508 508 0 0 0-1.615-5.688l-.052-.181c-.329-1.126-.729-2.496-1.277-3.146-.451-.101-1.505-.271-3.365-.271-.426 0-.727.014-.912.021l-.054.002-80.642-.137c-.555 0-.824.021-.948.032-4.058.496-4.546 1.027-4.757 2.212-.629 3.529 1.789 8.226 3.736 12.007l.664 1.296c2.08 4.104 5.069 8.262 8.891 12.353 1.85 1.979 4.021 4.014 6.643 6.213 6.95 5.835 19.645 13.072 37.731 21.516 8.694 4.09 13.707 8.284 16.7 10.792l.27.229c.502.42 2.214 1.708 3.368 2.506l.239-.009c1.595-.062 4.562-.181 10.341-.181 6.383 0 15.935.086 21.226.141-3.463-7.136-8.025-12.627-13.574-16.347-6.688-4.479-14.549-7.521-20.862-9.965-11.091-4.293-20.726-9.592-27.14-14.926-3.693-2.777-5.764-5.206-6.161-7.219M-.801 28.595c.574-.136 1.644-.388 28.789-.47l1.032-.004c.413-.008.831-.016 1.25-.016 1.866 0 4.053.143 6.123 1.188 3.39 1.728 5.098 7.521 5.4 8.646.403 1.443 1.517 5.51 2.505 9.109.801 2.92 1.519 5.541 1.71 6.226 1.377 4.996 1.08 8.688-.907 11.302-1.72 2.258-4.467 3.401-8.165 3.401-5.897 0-25.737.03-25.742.03-6.958 0-10.747-2.502-13.076-8.634L-6.37 44.23c-.57-1.764-2.3-7.766-.604-11.094 1.176-2.297 3.311-3.869 6.173-4.541m31.936 10.593a10 10 0 0 0-1.24-.066c-.471 0-2.332.07-3.467.117l-.072.004-.072-.002c-1.361-.023-3.986-.104-6.968-.188-4.836-.144-10.855-.316-13.548-.316-.527 0-.909.004-1.101.021-.678.07-1.093.168-1.334.246.035.328.153.939.521 1.972l.043.137C6.881 51.182 7.87 54.52 8.193 55.66l.012.029c.32.836.595 1 1.153 1.106.316.019 1.535.045 6.209.045 4.586 0 11.375-.024 20.198-.079-1.752-7.258-3.798-15.151-4.63-17.573M232.743 39.231l-.006.469c0 20.226-9.561 30.057-29.221 30.057h-48.322c-10.411 0-18.536-3.297-25.57-10.37-4.635-4.652-8.277-8.806-10.978-13.937-.943-1.789-3.812-7.23-.422-12.372 2.495-3.794 8.021-4.396 10.373-4.479l90.658-.019.114-.16 2.023.104c4.027.194 6.814 1.124 8.524 2.833 2.913 2.919 2.857 6.147 2.827 7.874m-104.036-.158q-.139 0-.256.004c.777 2.193 4.144 7.2 9.126 12.19 4.769 4.801 10.036 6.851 17.612 6.851h48.324c10.448 0 16.206-4.027 17.604-12.324l.118-.682c.624-3.549.617-5.15.469-5.826-.734-.161-2.516-.422-6.37-.422-.832.002-83.198.209-86.278.209z"/></g></symbol><path fill="#fa402b" d="m202.636 49.23.003.263q-.085-.074-.174-.149c.059-.041.112-.072.171-.114M199.636 43.23l.003.263q-.085-.074-.174-.149c.059-.041.112-.072.171-.114M215.636 51.23l.003.263q-.085-.074-.174-.149c.059-.041.112-.072.171-.114" opacity=".3"/><g fill="#fa402b"><path d="M328.044 49.722c-.459-.178-.822-.313-21.376-.313-.148 0-14.806.012-15.312.065-.713.072-1.506.289-2.093.71-1.542 1.107-2.102 3.207-2.512 4.966-.481 2.07-.549 6.516-3.561 6.516h-17.062c-.537 0-1.362-.6-1.428-1.164-.112-.922-.052-2.042.049-2.961.112-1.023.782-1.948 1.01-2.95.618-2.721-.635-3.82-1.437-4.342-1.082-.704-2.334-.583-3.324-.583h-.083c-.28 0-28.514-.345-28.857-.345-1.158 0-2.531.003-3.942.53-2.552.954-3.644 3.22-4.309 5.112l-.026.069-6.681 25.866-.023.156c-.281 1.941-.614 3.9-.539 5.869.133 3.535 2.979 7.379 10.131 8.268l12.548.001 35.805-.001 1.26-.027-8.681 29.869c-.255.779-1.274 4.307.435 6.44 1.406 1.753 4.616 2.192 5.931 2.192h.058c.292 0 29.271-.416 29.527-.418l.271.037c1.056 0 2.354-.435 3.573-1.367 1.271-.981 1.794-2.562 2.155-4.146L328.95 56.23c1.15-3.652.842-5.832-.906-6.508m-54.077 80.945c-1.429 0-2.823-.879-3.103-1.147-.062-.077-.102-.237-.13-.438a4 4 0 0 1-.041-.551c-.009-.785.117-1.849.357-2.58l8.67-29.729c.034-.1.089-.271.146-.473a5 5 0 0 0 .188-1.172c.025-.771-.148-1.688-.863-2.521-.318-.367-1.115-.479-1.956-.52a19 19 0 0 0-.886-.018c-.846 0-1.574.139-1.697.139h-47.689c-3.145 0-7.062-2.109-6.827-5.729.09-1.394.22-2.812.486-4.185l6.63-25.635c.601-1.681 1.241-2.499 2.134-2.832.618-.231 1.267-.269 1.906-.269.258 0 .514.004.767.004 1.111 0 8.406-.053 10.941-.088 2.929-.04 5.862.012 8.791-.057 2.301-.054 4.605.009 6.904-.028.583-.01 1.213.027 1.776.009 2.969-.095.836 3.489.617 5.02-.193 1.346-.202 2.867.302 4.15.694 1.768 2.371 2.5 4.17 2.618q.291.02.569.019h17.062c1.248 0 2.606-.114 3.617-.924 1.021-.818 1.625-2.021 2.17-3.178.891-1.891 1.108-4.115 1.73-6.109l.015-.044c.345-1.233.518-1.299.945-1.344.696-.018 7.024-.042 14.761-.042 11.081 0 19.253.113 19.253.113-.084 1-.263 1.99-.263 1.99l-19.396 71.737-.002.133c-.146.604-.279 1.121-.42 1.5-.146.359-.282.614-.434.729-.291.229-.415.531-1.142.531l-.485.184c-.082.004-24.619.737-29.573.737m30.935-1.153q-.03.028-.062.053c.022-.019.043-.034.062-.053M211.642 9.597c-.587-.787-1.064-1.179-7.827-1.453-3.498-.142-8.323-.22-13.602-.22-4.871 0-9.838.067-13.627.185-6.682.206-7.143.46-7.588.705-1.611.886-3.981 3.8-4.44 4.375l-.107.153c-3.386 4.84-6.394 9.949-9.534 14.949-.906 1.443-3.661 6.032-1.789 9.439 1.277 2.322 4.927 3.938 5.615 3.938h37.649c2.058 0 5.895-.915 8.479-3.457 1.676-1.648 2.474-4.831 3.113-6.992.103-.346.201-.697.298-1.005l-.199-.102c3.118-12.135 3.402-13.863 3.402-14.128 1-.215.346-.437.41-.661.461-1.592 1.205-3.768-.253-5.726m-6.832 19.661c-.098.312-.196.751-.299 1.099-.521 1.761-1.172 4.089-2.181 5.082-1.727 1.697-4.728 2.229-5.938 2.229h-37.325c-1.116 0-2.49-1.152-2.763-1.644-1.565-2.826 2.717-7.625 4.04-9.856 2.135-3.599 4.239-7.245 6.868-10.514.637-.792 2.329-3.395 3.389-3.576 2.61-.446 5.4-.337 8.036-.399a485 485 0 0 1 16.886-.1c7.44.081 11.952.329 13.488.582q.032.186.018.414c-.027.457-.183 1.04-.389 1.748-.074.256-.147.521-.211.766l-.008.058c-.141.546-3.389 13.245-3.611 14.111M339.852 16.606c.273-1.24.396-2.389.354-3.42-.038-.934-.185-2.128-.998-3.09-.854-1.009-1.971-1.105-2.711-1.278-1.079-.251-2.116-.151-3.012-.151h-.146c-.087 0-.175-.165-.262-.163-.062.001-.129-.081-.188-.081l-25.359-.127c-.067 0-1.65-.013-3.042.038-1.452.052-3.268.107-4.457 1.385-1.212 1.298-2.156 4.521-2.413 5.465l-4.422 15.813a21 21 0 0 0-.588 2.205l-.071.331c-.254 1.16-.602 2.749.125 4.168.7 1.372 2.476 2.958 4.122 3.131.124.013.414.043 6.888.043 2.66 0 26.038-.009 27.621-.331 1.801-.366 2.509-2.22 2.89-3.216q.056-.15.108-.279c.287-.711.489-1.539.667-2.268.037-.153.073-.3.113-.457.035-.145.059-.29.079-.418q.013-.08.021-.149l4.651-17.062zm-3.391-3.293c.022.691-.062 1.519-.258 2.417l-4.646 17.056c-.048.179-.067.368-.102.523q-.011.074-.023.137a5 5 0 0 1-.104.445c-.148.608-.317 1.296-.502 1.756-.042.105-.087.221-.144.344-.087.228-.24.65-.388.898-2.417.149-15.293.24-26.624.24-4.325 0-6.049-.015-6.476-.025-.325-.123-.995-.708-1.196-1.099a.9.9 0 0 1-.029-.319c.017-.405.15-1.016.224-1.353q.044-.197.08-.372c.13-.625.296-1.243.492-1.838l4.458-15.951c.438-1.631 1.155-3.462 1.521-3.888.301-.174 1.438-.215 1.874-.23 1.332-.049 2.907-.056 2.908-.056l25.354.086c.085 0 .171-.208.258-.21.064-.001.139-.209.195-.209h.062c.729 0 1.512.256 2.233.426.195.045.604.243.696.313.031.062.103.314.123.875.016.012.014.025.014.034M132.513 21.274C128.1 13.272 122.246 9.667 114.62 9.667H70.492c-9.017 0-16.713 2.499-23.532 8.095-3.81 3.129-6.928 5.48-9.5 9.087-2.205 3.088-4.075 7.045-1.223 11.115 1.834 2.619 6.416 3.703 7.311 3.703h82.28c1.357 0 6.468-1.092 8.061-4.002 1.835-3.354 2.052-5.555 1.538-8.286-.583-3.117-1.51-5.644-2.914-8.105m-5.806 16.393h-83.11c-1.447 0-3.828-.781-4.391-1.584-.493-.704-.758-1.418-.783-2.199-.042-1.312.596-2.811 1.988-4.76 2.314-3.245 5.251-5.492 8.849-8.448 6.143-5.042 13.088-7.008 21.232-7.008h44.128c6.275 0 10.955 2.774 14.725 9.617 2.561 4.481 5.584 14.382-2.638 14.382M450.189 49.223c-.579-.014-1.433-.026-2.52-.036a1026 1026 0 0 0-8.189-.026c-3.72 0-24.115.038-25.184.207-3.232.519-3.982 3.032-4.538 4.867l-.095.318-8.839 33.286c-1.326 4.949-4.364 7.479-9.551 7.699-.312.012-.617.129-.911.129h-.002c-3.036 0-5.188-.724-6.396-1.922-1.603-1.599-1.459-4.494-.941-6.52.307-1.211.722-2.418 1.064-3.615l.018-.044c6.729-24.351 7.45-26.978 7.528-27.272.479-1.654.853-3.813-.433-5.817-.645-1.006-1.611-1.07-5.625-1.171-2.303-.058-5.465-.086-9.398-.086-4.935 0-10.854.05-15.854.132-8.319.136-8.479.22-8.956.465-1.957 1.004-2.521 3.065-2.924 4.567-.043.158-.085.322-.128.474l-7.688 28.674c-1.72 6.256-2.556 12.09-2.556 17.771 0 4.854.688 9.065 2.046 12.399 2.97 7.541 8.979 13.053 17.86 16.133 2.418.854 5.345 1.787 8.939 2.354 4.591.727 9.428 1.578 14.784 1.578 3.105 0 16.619-.355 28.539-5.838a69.5 69.5 0 0 0 14.373-8.861c4.797-3.836 8.692-8.098 11.583-12.667 3.134-4.958 5.188-10.31 7.312-16.812.065-.213.146-.428.225-.646.179-.511.356-1.037.504-1.605.625-2.508 1.96-7.479 3.771-14.18l.018-.041c.042-.178 4.267-17.333 4.36-17.736.915-3.568.652-4.487.312-5.122-.511-.987-1.348-1.007-2.508-1.036m-1.412 5.927c-.102.581-.646 2.251-4.369 17.396-1.815 6.709-3.154 11.324-3.786 13.854-.101.402-.25.854-.407 1.309-.083.24-.167.504-.244.742-2.035 6.235-3.98 11.367-6.917 16-2.665 4.217-6.284 8.223-10.755 11.797-4.373 3.496-8.933 6.42-13.555 8.479a52 52 0 0 1-5.247 2.004c-6.88 2.213-14.555 3.159-21.771 3.159-5.155 0-9.811-.771-14.195-1.47-3.375-.526-6.097-1.604-8.306-2.375-7.809-2.709-13.062-7.371-15.604-13.854l-.009-.021c-1.187-2.883-1.774-6.562-1.774-10.938 0-5.34.792-10.814 2.426-16.758 0 0 7.765-28.952 7.812-29.12.216-.795.457-1.682.832-2.069 2.184-.133 12.895-.326 23.292-.326 7.773 0 10.887.115 12.104.198q.031.197.03.426c-.002.455-.1 1.007-.295 1.697l-7.535 27.253c-.07.237-.138.479-.208.715-.424 1.44-1.009 2.938-1.195 4.422-.098.787-.106 1.607-.104 2.398l.001.029c.02 2.297.686 4.77 2.344 6.42 1.938 1.926 4.979 3.141 9.037 3.141h.001c.342 0 .696-.24 1.062-.254 6.877-.301 11.261-3.896 13.021-10.479l8.812-33.245.094-.304c.532-1.799.727-2.282 1.479-2.415.897-.06 8.239-.303 16.354-.303h8.289a79 79 0 0 1 3.126.061c3.097.123 5.202.386 6.511.405-.087.42-.199 1.638-.351 2.026M194.652 49.665c-.707-.043-1.409-.172-2.122-.188-2.577-.058-5.158-.022-7.736-.022-6.08 0-13.839.146-18.474.172-1.84.011-3.23.203-3.902.204-4.693.013-6.964 7.695-7.371 9.052-.091.388-.953 3.034-9.779 34.916a3739 3739 0 0 1-7.656 27.232c-.141.5-.3 1.018-.455 1.512-.508 1.623-1.032 3.312-1.136 5.229-.276 5.049 4.727 5.376 6.371 5.479.396.021.799.041 1.2.041.563 0 25.568.254 25.568.254q.04.004.106.004c.502 0 2.037-.139 3.318-.139 0 0 4.739-.188 5.943-1.104 2.273-1.726 3.867-8.229 4.316-10.104l16.112-56.771c.092-.3.9-2.908 1.421-5.853.852-4.805.467-7.621-1.208-8.978-1.141-.924-2.671-.927-4.066-.924q-.225.002-.45-.012m-55.167 78.6c0 .631.451 1.082 3.016 1.248.105.007.751.01 1.679.01a53 53 0 0 1-1.579-.012c-2.564-.166-2.856-.616-2.865-1.246 0-.086.012-.186.017-.275.079-1.451.516-2.848.974-4.314.162-.518.332-1.059.488-1.604.006-.021 2.34-8.44 7.661-27.669 4.639-16.77 9.686-34.988 9.774-35.308.875-3.094 2.675-5.914 3.776-5.917.673-.002 2.067-.009 3.913-.02 4.631-.025 12.384.034 18.453.034 6.267 0 9.69.014 9.69.014 1 .007 1.848.021 2.255.209.031.054.098.193.16.457.159.671.288 2.169-.288 5.288-.501 2.711-1.246 5.167-1.253 5.192l-16.133 56.878-.017.067c-.825 3.451-2.199 6.979-2.941 7.533-.032.023-.825.596-4.216.596-1.222 0-20.903.105-27.383.105 6.48 0 26.07-.105 27.292-.105-1.222 0-20.476.18-27.476.18v.062h-.237c-.928 0-1.641-.074-1.746-.082-2.579-.166-3.017-.647-3.017-1.293q.004-.014.003-.028m55.129-76.261-.002.479h-.001zM128.905 49.737a85 85 0 0 0-5.161-.098c-.527-.006-11.41-.134-20.401-.134-12.137 0-12.526.199-13.07.479-1.401.726-4.885 3.414-5.448 3.885l-.272.228c-2.733 2.287-7.308 6.115-15.155 9.805-18.892 8.812-31.741 16.174-39.274 22.499-9.514 7.873-16.34 17.065-20.287 27.323l-.098.253c-1.028 2.66-2.192 5.675-2.131 8.815.067 3.473 1.212 6.295 3.224 7.951 1.973 1.623 4.7 1.92 6.892 2.149.317.034.627.062.924.104.595.073 1.226.082 1.818.082l80.519-.129c.131.004.531.021 1.086.021 3.626 0 6.124-.496 7.426-1.479 2.685-2.035 3.623-5.449 4.376-8.199.113-.406.223-.797.336-1.186a659 659 0 0 0 2.002-7.021l.6-2.084c.114-.402.228-.688.342-1.096.637-2.255.149-4.438-1.305-6.252-1.108-1.389-2.633-1.83-4.083-1.83-.704 0-1.39-.166-2.002-.166H67.859c3.505-3 11.129-8.361 24.84-13.67 7.079-2.738 15.102-6.229 22.257-11.021 6.937-4.645 12.513-11.417 16.576-20.242 1.206-2.619 1.386-5.015.52-6.984-.561-1.266-1.619-1.925-3.147-2.003m-.665 7.558c-3.779 8.21-8.927 14.564-15.3 18.832-6.821 4.568-14.646 7.649-21.549 10.32-10.924 4.229-20.247 9.42-26.25 14.422 0 0-4.537 3.408-4.875 5.133-.347 1.776.663 1.666.663 1.666h48.835c1.335 0 3.567-.722 3.933 1.146.235 1.193-.23 2.57-.549 3.723a739 739 0 0 1-2.419 8.545c-.119.402-.234.824-.353 1.262-.672 2.451-1.366 4.98-3.07 6.271-.343.264-1.878.75-5.237.75-.582 0-.966-.021-.969-.021l-.042-.002-80.594.139c-.477 0-.972-.014-1.372-.062a50 50 0 0 0-.978-.109c-1.802-.189-3.845-.418-4.982-1.354-1.593-1.312-1.876-3.836-1.903-5.228-.047-2.431.937-4.978 1.889-7.438l.099-.263c3.721-9.671 10.186-18.356 19.225-25.843 7.196-6.042 20.145-13.438 38.492-22.001 8.277-3.893 13.077-7.908 15.944-10.308l.271-.227c.752-.629 3.521-2.701 4.59-3.335q.098-.01.258-.01.175 0 .441.009c1.251.04 4.16.2 10.904.2 9.149 0 24.479-.173 25.252-.173.043 0 .086.012.129.015.023.001.044.015.063.016.122.326.175.678.179 1.036.014 1.073-.41 2.206-.725 2.889M233.742 41.118c.904.09 10.37.129 18.06.129 4.402 0 8.224-.013 9.521-.036 6.886-.124 7.144-.66 7.66-.965 1.787-1.062 2.335-3.028 3.245-6.287.73-2.62 1.646-5.969 2.454-8.924.688-2.519 1.338-4.897 1.742-6.341l.017-.062c.678-2.429 1.702-6.1-.053-8.418-.943-1.247-2.789-1.854-5.645-1.854-.546 0-26.101-.076-26.101-.076a27 27 0 0 0-.614-.006c-4.199 0-5.361.868-5.744 1.153-1.374 1.024-2.604 3.996-3.07 5.223l-.025.077-4.42 14.95c-.085.269-.938 3.06-1.259 5.133-.177 1.135.102 3.059 1.131 4.39.775 1.001 1.845 1.787 3.101 1.914m6.781-28.579c.155-.082 1.143-.102 2.101-.102.971 0 1.91.046 1.917.046l25.115.184h.082s3.105.053 3.302.181c.217.335.283.942.267 1.626-.028 1.146-.29 2.506-.474 3.165l-.017.054c-.407 1.453-1.058 3.834-1.749 6.358-.806 2.95-1.72 6.292-2.448 8.902-.523 1.875-.949 3.4-1.383 3.923-1.654.157-8.448.306-19.2.306-7.059 0-12.915-.073-13.922-.173-.075-.008-.131-.033-.19-.055a.68.68 0 0 1-.318-.23c-.266-.345-.373-.857-.396-1.181a1.2 1.2 0 0 1 .002-.249c.287-1.852 1.126-4.521 1.135-4.547l4.395-14.839c.566-1.48 1.397-2.993 1.781-3.369M457.194 34.07q-.006-.248-.007-.496c0-17.15-7.682-24.908-24.148-24.908H387.31c-8.695 0-15.604 2.632-21.719 8.777-4.528 4.539-7.542 8.102-9.771 12.329-.784 1.487-2.621 5.029-.569 8.135 1.487 2.258 5.652 2.612 6.894 2.658l87.6.016.044.062c1.272-.063 4.397-.295 5.761-1.651 1.703-1.716 1.669-3.519 1.644-4.922m-4.199 2.568c-.4.281-1.979 1.028-3.354 1.028h-87.394c-1.672 0-3.634-.792-3.973-1.228q-.353-.532-.354-1.309.01-.838.479-1.992a12 12 0 0 1 .625-1.353c2.052-3.892 4.858-7.34 9.133-11.614 5.39-5.418 11.475-7.504 19.146-7.504h45.729c7.191 0 12.271 1.23 15.517 4.514 1.367 1.383 2.468 3.105 3.208 4.896.911 2.203 1.381 4.567 1.597 6.934.151 1.693.188 3.39.219 5.088.011.849.063 1.882-.578 2.54"/></g><g fill="#fff"><path d="m498.628 58.206 18.869 38.297 13.197.054 33.739-36.543-14.513 71.756 29.479.116 24.476-119.874-26.737-.107-47.85 50.539L503.1 11.607l-24.68-.098-24.476 119.875 29.651.117zM703.696 35.294l4.721-23.289-80.379-.323-24.477 119.874 82.437.33 4.721-23.633-53.13-.212 5.247-25.688 46.789.189 4.718-22.776-46.962-.19 5.07-24.487zM704.679 131.555l82.437.331 4.719-23.633-53.127-.212 5.246-25.69 46.786.188 4.72-22.775-46.96-.188 5.067-24.49 51.247.206 4.721-23.289-80.38-.323zM816.107 38.812l34.281.139-19.055 92.818 29.649.117 19.055-92.816 34.106.136 5.419-27.057-97.859-.394z"/></g><path fill="#fff" d="m1005.492 11.799-14.336 70.212c-1.746 8.107-4.896 14.266-9.415 18.471q-6.799 6.316-17.25 6.273-16.452-.067-16.388-16.004c.01-2.744.355-5.713 1.062-8.91L963.33 11.63l-29.822-.122-14.514 71.583a62 62 0 0 0-1.248 12.164c-.047 11.884 3.797 21.24 11.542 28.068 7.741 6.82 18.697 10.27 32.866 10.321 15.424.062 28.179-4.062 38.268-12.354 10.086-8.299 16.707-20.213 19.854-35.74l15.034-73.635zM1133.564 21.323q-10.501-9.556-28.85-9.629l-46.103-.185-24.479 119.875 29.822.119 6.99-33.907 18.51.073q21.42.085 35.434-10.481c9.35-7.045 15.354-16.963 18.03-29.751.7-3.653 1.062-7.134 1.07-10.45.057-10.738-3.424-19.294-10.424-25.664m-19.76 33.77q-1.75 8.736-7.938 13.509c-4.127 3.185-9.396 4.761-15.786 4.733l-14.568-.062 7.346-36.649 14.738.06q8.053.033 12.412 3.564 4.357 3.532 4.329 10.043-.006 2.236-.533 4.802"/><circle cx="1315.287" cy="72.944" r="60.966" fill="#f90"/><path fill="#fff" d="M1335.807 75.184c.688.325 3.479-1.244 4.026-1.621 1.263-.86 2.123-1.871 2.876-3.19.605-1.059.953-1.844 1.307-3.006.368-1.208.562-2.631.575-3.896.021-1.845-.447-3.397-1.149-5.02-1.272-2.954-6.271-6.17-9.977-7.602-.591-.229-1.183-.46-1.779-.679-.089-.032-.729-.337-.729-.379l2.669-10.923-6.661-1.78-2.751 10.815-5.26-1.268 2.607-10.761-6.688-1.7-2.683 10.963-4.437-1.088-9.229-2.242-1.729 7.201 3.176.708c2.089.529 3.643 1.229 4.271 2.097.854 1.18.341 3.078.341 3.078l-6.957 27.95c-.194 1.312-.622 2.228-1.25 2.672-1.457 1.029-3.602.129-3.602.129l-3.488-.947-3.313 7.701 13.473 3.482-2.734 11.07 6.666 1.688 2.963-10.963 5.155 1.334-2.757 10.933 6.812 1.776 2.844-11.168c5.428 1.361 19.162 3.447 23.353-8.396-.006-.001 5.406-11.583-5.941-16.968m-4.609-10.947c-.138.589-.372 3.968-3.777 4.98-3.938 1.172-10.013-.206-11.947-.716-.045-.013-1.628-.583-1.627-.586.144-.566 3.354-13.314 3.354-13.314s15.682 2.419 13.997 9.636m-12.524 27.483c-3.592-.277-10.335-2.326-10.335-2.326l3.672-14.553s19.874 2.839 17.11 12.291c0 0-.712 5.336-10.447 4.588M1140.306 118.333l15.653-21.158c10.148 8.429 21.502 12.557 34.404 12.557 11.697 0 18.578-3.439 19.781-9.805 1.377-7.225-3.955-11.697-19.953-16.342-24.604-7.053-34.748-20.125-30.791-39.735 4.128-20.986 21.33-32.339 47.133-32.339 18.062 0 32.684 4.989 44.38 14.45l-15.825 20.298c-7.053-6.021-18.922-9.977-30.271-9.977-9.638 0-15.653 3.097-16.857 8.945-1.204 6.708 2.924 10.149 18.922 14.965 25.811 7.741 36.646 21.158 32.513 41.284-4.302 21.502-22.526 33.543-50.229 33.543-19.789-.001-36.819-5.85-48.86-16.686"/><path fill="none" d="m194.606 53.162.01-.679h-.006zM190.212 11.55c-10.094 0-18.089.267-19.612.527-.706.487-2.126 2.018-3.155 3.296q-.668 1.037-1.338 2.072c-.783 1.212-1.565 2.421-2.342 3.637-.753 1.181-1.515 2.355-2.275 3.533-1.158 1.792-2.354 3.638-3.504 5.471-2.283 3.638-1.938 5.472-1.683 5.935.271.491 1.647 1.646 2.764 1.646h37.325c1.21 0 4.212-.531 5.938-2.229 1.008-.992 1.659-3.341 2.181-5.103.103-.348.202-.776.299-1.088l3.611-14.107.008-.055c.064-.246.137-.509.211-.765.274-.944.46-1.664.371-2.161-1.873-.308-8.168-.609-18.799-.609M194.606 53.667h-.003c-.347 0-.674-.246-.969-.266-.573-.039-2.572-.205-8.839-.205-6.069 0-13.822-.016-18.453.01-1.845.01-3.24-.011-3.913-.01-1.102.003-2.901 2.808-3.776 5.902-.089.32-5.135 18.539-9.774 35.299l-7.66 27.664c-.157.556-.324 1.088-.486 1.606-.458 1.467-.892 2.854-.97 4.306-.042.784-.073 1.349 2.873 1.54.12.008.86.01 2.033.01 6.48 0 26.162-.1 27.384-.1 3.392 0 4.185-.571 4.217-.596.742-.562 2.117-4.082 2.943-7.533l.02-.076 16.142-56.879c.007-.024.767-2.481 1.268-5.192.802-4.341.268-5.316.159-5.508-.409-.184-1.651.028-2.196.028M336.34 12.51c-.099-.07-.5-.372-.696-.417-.729-.17-1.508-.426-2.232-.426h-.062c-.062 0-.131.208-.188.209-.092.002-.18.106-.267.106l-25.354-.034c-.001 0-1.576.033-2.908.082-.435.015-1.573.069-1.874.243-.355.426-1.078 2.264-1.521 3.895l-4.462 15.954a17 17 0 0 0-.492 1.84q-.036.175-.08.372c-.098.449-.303 1.385-.194 1.672.201.392.871.977 1.196 1.1.426.01 2.146.025 6.476.025 11.33 0 24.206-.091 26.624-.24.146-.248.305-.67.396-.898q.07-.186.134-.344c.187-.459.354-1.148.502-1.756l.108-.445a4.974 4.974 0 0 1 .125-.647l4.646-17.043c.198-.912.285-1.727.259-2.424-.036-.562-.105-.762-.136-.824M129.345 23.284c-3.771-6.843-8.45-9.617-14.725-9.617H70.492c-8.144 0-15.089 1.977-21.232 7.019-3.598 2.956-6.535 5.25-8.849 8.496-2.221 3.11-2.525 5.036-1.205 6.92.563.803 2.944 1.566 4.391 1.566h83.11c1.814 0 4.033-.859 4.443-1.608 1.295-2.365 1.137-3.768.717-5.998-.51-2.716-1.32-4.675-2.522-6.778M431.192 52.667c-8.107 0-15.449.229-16.354.289-.762.132-.953.491-1.479 2.29l-.1.33-8.812 33.214c-1.767 6.58-6.146 10.31-13.021 10.604-.358.02-.722.271-1.062.271h-.001c-4.063 0-7.104-1.215-9.037-3.146-1.665-1.65-2.331-4.021-2.346-6.331-.009-.792.014-1.671.104-2.453.188-1.491.771-3.015 1.195-4.448.067-.24.137-.494.208-.729l7.535-27.263c.261-.921.349-1.602.265-2.127-1.227-.083-4.33-.2-12.109-.2-10.396 0-21.104.191-23.293.325-.375.388-.609 1.273-.83 2.069q-.074.252-.142.494l-7.669 28.625c-1.633 5.938-2.426 11.417-2.426 16.759 0 4.371.597 8.053 1.771 10.936l.017.021c2.55 6.479 7.803 11.146 15.604 13.854 2.21.771 4.922 1.85 8.3 2.375 4.396.693 9.038 1.474 14.201 1.474 7.22 0 14.896-.946 21.771-3.162a52 52 0 0 0 5.244-2.004c4.621-2.06 9.185-4.979 13.558-8.479 4.476-3.572 8.09-7.58 10.755-11.797 2.93-4.629 4.881-9.762 6.917-16 .078-.237.161-.49.244-.729.158-.452.311-.889.407-1.29.632-2.534 1.97-7.121 3.781-13.83 3.729-15.146 4.272-16.76 4.368-17.341.147-.388.269-1.717.347-2.128-1.709-.024-4.776-.466-9.646-.466-2.68-.007-5.516-.007-8.265-.007M234.114 37.008c1.007.1 6.863.173 13.922.173 10.751 0 17.545-.149 19.2-.307.435-.523.86-2.05 1.383-3.925.728-2.61 1.642-5.956 2.448-8.907.69-2.524 1.342-4.912 1.749-6.365l.017-.069c.293-1.051.788-3.864.207-4.761-.197-.127-3.302-.181-3.302-.181h-.082l-25.115-.184c-.007 0-.946-.017-1.917-.017-.958 0-1.946.006-2.101.087-.384.377-1.216 1.883-1.782 3.361l-4.396 14.835c-.009.027-.848 2.694-1.135 4.546-.033.212.039.969.394 1.429a.67.67 0 0 0 .51.285M111.036 122.518l.009-.009v-.002l-.657-.172z"/><path fill="none" d="M113.32 111.91q.172-.62.345-1.236c.32-1.133.079-1.924-.646-2.83-.238-.295-.61-.314-1.096-.314-.573 0-1.305.146-2.16.146H60.928s-1.01.109-.663-1.666c.338-1.729 4.875-5.1 4.875-5.1 6.004-5.005 15.326-10.214 26.25-14.439 6.903-2.67 14.728-5.76 21.549-10.324 6.373-4.271 11.521-10.625 15.3-18.835.42-.912 1.034-2.625.547-3.927-.02-.001-.041-.016-.063-.017-.043-.002-.086-.015-.129-.015-.773 0-16.103.173-25.252.173-7.708 0-10.405-.209-11.346-.209q-.16 0-.258.01c-1.069.634-3.838 2.707-4.59 3.335l-.271.227C84.01 59.284 79.21 63.3 70.933 67.193c-18.347 8.561-31.296 15.958-38.492 22-9.039 7.479-15.503 16.172-19.225 25.846l-.099.254c-.952 2.465-1.936 5.015-1.889 7.438.027 1.392.311 3.913 1.903 5.228 1.137.938 3.18 1.156 4.982 1.354q.505.051.978.108c.4.05.896.058 1.372.058l80.594-.133.042.002c.003 0 .387.021.969.021 3.359 0 4.894-.488 5.237-.75 1.704-1.291 2.398-3.822 3.07-6.271q.176-.65.353-1.262c.68-2.328 1.346-4.711 1.991-7.018zM291.67 53.071c-.427.045-.601.114-.945 1.347l-.015.05q-.26.83-.519 1.66c-.281.904-.285 1.83-.531 2.732a11 11 0 0 1-.755 1.961c-.59 1.204-1.219 2.347-2.373 3.115-.962.64-2.189.729-3.34.729H266.13c-1.479 0-3.336-.373-4.156-1.665-.724-1.14-.988-2.52-.968-3.851.012-.812.142-1.58.318-2.371.257-1.161.968-2.216.959-3.432-.003-.514-.518-.561-.977-.561-.14 0-.275.013-.388.013-.245 0-28.538.217-28.857.217-.252 0-.509-.006-.767-.006-.639 0-1.288.032-1.906.263-.893.334-1.534 1.137-2.134 2.818l-6.63 25.607c-.266 1.369-.396 2.848-.486 4.239-.235 3.618 3.682 5.729 6.827 5.729h47.689c.123 0 .851-.146 1.697-.146 1.105 0 2.411.083 2.841.579 1.427 1.646.7 3.614.529 4.112l-8.67 29.684c-.386 1.176-.479 3.266-.186 3.629.28.27 1.674 1.143 3.103 1.143h.025c4.928 0 29.465-.729 29.559-.729l.485-.107c.728 0 .852-.34 1.142-.562.292-.228.579-1.022.859-2.233l.017-.104 19.425-71.674.02-.043c.213-.682.388-1.47.47-2.059-2.312-.062-8.211-.118-19.292-.118-7.746-.009-14.312.016-15.008.034M453.562 33.433c0-7.783-1.646-12.842-5.018-16.253-3.245-3.283-8.312-4.514-15.517-4.514h-45.721c-7.677 0-13.762 2.097-19.146 7.515-4.271 4.273-7.081 7.713-9.133 11.605-1.167 2.212-1.376 3.694-.75 4.643.338.436 2.3 1.237 3.973 1.237h87.396c1.377 0 2.947-.743 3.354-1.023.581-.596.597-1.363.576-2.556a16 16 0 0 1-.014-.654"/><g fill="#fff"><path d="M327.537 50.981c-.689-.153-6.748-.217-20.869-.217-1.195 0-14.306.014-15.191.059-.576.062-1.104.229-1.421.459-1.146.822-1.607 2.457-1.982 4.065-.075.324-.145.737-.218 1.184-.189 1.144-.424 2.508-.981 3.688-.984 2.085-2.546 2.445-3.683 2.445H266.13c-1.488 0-2.67-1.11-2.822-2.562a10.2 10.2 0 0 1 .304-3.653c.271-.986.897-1.873.958-2.916.052-.902-.185-1.824-.984-2.343-1.092-.709-2.467-.518-3.698-.509-2.505.019-5.01-.052-7.515-.048-1.594.003-3.189-.018-4.784-.029-7.183-.05-15.324-.089-15.527-.089-1.031 0-2.25.069-3.466.524-1.999.747-2.889 2.59-3.493 4.298l-.009.032-6.66 25.784-.013.091-.091.623c-.255 1.73-.496 3.366-.434 5.002.041 1.094.422 2.625 2.003 4.104a10.06 10.06 0 0 0 6.859 2.69h12.461c14.109 0 35.154.082 35.791.082l1.245.019 1.849-.021-.516 1.778s-8.681 29.874-8.695 29.912c-.334 1.021-.948 3.933.204 5.358 1.014 1.271 3.711 1.863 4.873 1.863h.058c.284 0 8.999-.123 16.688-.297 7.756-.177 11.696-.203 12.62-.225l.089-.232.196-.246h.205c.794 0 1.812-.229 2.742-.951.938-.729 1.354-1.998 1.675-3.338 0 0 .006.035.012.041 0 0 19.397-71.542 19.411-71.58.632-2.025.663-3.175.578-3.785-.107-.732-.394-.938-.707-1.06m-.233 2.352a16 16 0 0 1-.514 2.266l-19.409 71.611-.006.033-.006.034-.009.029c-.396 1.702-.773 2.541-1.354 2.979-.008.012-.041.037-.062.062-.396.375-.894.723-1.786.748l-.396.305-.104.254h-.104c-.062 0-.43-.309-1.017-.291-20.008.503-26.572.291-28.58.291-1.806 0-3.524-.854-4.042-1.35l-.064-.007-.056-.059c-.857-1.068-.336-3.873-.052-4.768l8.665-29.688.009-.025.01-.026.01-.03c.517-1.496.143-2.271-.223-2.723-.129-.057-.606-.216-1.874-.216-.572 0-1.101-.054-1.385-.031-.158.013-.238-.085-.312-.085h-47.689c-2.503 0-5.018-.93-6.564-2.572-1.165-1.24-1.724-2.604-1.617-4.25.077-1.188.205-3.178.512-4.178.037 0 .118-.59.299-1.285l.751-2.955 2.279-8.833 3.315-12.82.015-.066.021-.061c.928-2.597 2.057-3.31 2.938-3.638.823-.308 2.65-.35 2.783-.349.122.001 8.888-.061 16.225-.116 2.446-.018 4.893-.031 7.338-.054 1.501-.014 3.001-.017 4.502-.03 1.333-.012 3.349-.285 3.807 1.402.296 1.091-.212 2.178-.551 3.194-.364 1.094-.653 2.232-.662 3.391-.008 1.035.201 2.122.763 3.005.525.828 1.943 1.213 3.011 1.213h17.062c.922 0 1.89-.216 2.588-.681.793-.527 1.315-1.549 1.82-2.583l.086-.168a10 10 0 0 0 .665-1.726 10 10 0 0 0 .206-1.114c.077-.533.157-1.082.339-1.666l.303-.971.212-.679.009-.032c.332-1.186.721-2.202 2.107-2.349l.054-.031h.054c.769 0 7.647-.021 15.034-.021 12.979 0 17.681.085 19.328.129l1.519.047zM450.156 50.58c-.566-.014-7.287-.062-10.675-.062-6.623 0-23.741.057-24.979.191-2.215.36-2.822 1.849-3.437 3.912l-.099.299-8.834 33.266c-1.479 5.532-5.016 8.343-10.804 8.595q-.494.02-.97.02c-3.41 0-5.887-.733-7.354-2.207-.774-.771-2.479-3.098-1.308-7.754.204-.812 1.165-3.646 1.165-3.646 6.479-23.452 7.604-26.939 7.604-27.259v-.005l-.065-.005c.416-1.467.672-3.175-.312-4.715-.086-.135-.157-.224-.67-.319-.725-.135-1.951-.174-3.872-.222-2.267-.057-5.422-.086-9.367-.086-4.884 0-10.807.049-15.841.132-4.812.079-7.888.155-8.309.29-.018.006-.031.016-.055.026-1.426.729-1.854 2.315-2.23 3.713l-.131.482-7.676 28.658c-1.688 6.146-2.517 11.845-2.517 17.425 0 4.72.653 8.719 1.944 11.888l.003.012.003.01c2.854 7.252 8.592 12.416 17.044 15.35 2.485.869 5.261 1.753 8.711 2.297.403.061.812.129 1.217.189 4.224.674 8.575 1.369 13.358 1.369 2.598 0 16.146-.273 27.975-5.715a68.5 68.5 0 0 0 14.099-8.689c4.68-3.736 8.476-7.891 11.276-12.331 3.062-4.841 5.076-10.101 7.17-16.511.067-.217.146-.438.226-.646l.008-.021c.168-.479.341-.979.47-1.489.625-2.513 1.964-7.485 3.777-14.19l.204-.025c.114-.463 4.562-17.333 4.562-17.729v-.008l-.188-.005c.854-3.352.451-3.924.334-4.139-.114-.254-.246-.316-1.457-.346m-.403 6.38c-.458 1.74-1.529 5.815-4.027 15.965l-.004.016-.004.016c-.83 3.064-1.571 5.73-2.167 7.873-.711 2.553-1.271 4.569-1.604 5.93-.112.447-.271.902-.443 1.408-.085.246-.17.504-.235.703-2.073 6.371-4.064 11.582-7.06 16.305-2.792 4.418-6.512 8.5-11.055 12.142-4.667 3.729-9.327 6.646-13.854 8.646a53 53 0 0 1-5.382 2.062c-6.562 2.104-14.233 3.229-22.188 3.229-5.036 0-9.51-.707-13.818-1.394l-.597-.094c-3.062-.479-5.604-1.396-7.646-2.122-.304-.104-.599-.219-.885-.312-8.196-2.849-13.729-7.771-16.436-14.642l-.006-.021c-1.23-3.032-1.871-6.891-1.871-11.438 0-5.462.812-11.062 2.479-17.114l7.667-28.62.003-.01.002-.01c.044-.156.681-2.499 1.298-3.137l.366-.379.521-.032c2.162-.132 12.938-.328 23.375-.328 7.646 0 10.854.11 12.205.202l1.078.073.17 1.067c.116.729.024 1.562-.298 2.701-.116.422-4.132 14.948-6.297 22.773l-1.236 4.479-.003.016-.003.01c-.035.119-.456 1.522-.581 1.912-.337 1.055-.647 2.043-.771 3.016-.104.771-.104 1.595-.104 2.223.02 1.522.355 3.678 1.946 5.262 1.671 1.666 4.389 2.508 8.079 2.508.391 0 .712-.004 1.014-.02 6.297-.271 10.146-3.334 11.761-9.354l8.812-33.18.01-.037.018-.036.088-.258c.53-1.797.924-2.829 2.552-3.111l.064-.012.067-.047c.879-.059 6.941-.113 16.438-.113h8.287c3.312 0 5.774.144 7.588.217.854.035 1.525.084 2.062.092l1.621.034c.009-.008-.788 4.15-.996 4.941M455.911 34.096c.009-1.042-.104-2.097-.16-3.046-.179-3.068-.596-6.135-1.688-9.024-1.964-5.181-4.73-8.422-9.925-10.078-4.059-1.295-9.799-1.336-14.015-1.304-3.568.027-7.139.057-10.707.029a1131 1131 0 0 0-13.782-.005c-4.074.018-8.146.005-12.225-.004-2.004-.004-4.01.025-6.018.006l-.09-.003c-8.75 0-15.146 2.426-20.757 8.06-4.384 4.394-7.349 7.721-9.533 11.864-.729 1.383-2.237 4.237-.637 6.673.897 1.361 3.671 2.122 5.786 2.204l87.564.2s3.27.072 4.846-1.54c1.061-1.076 1.326-2.54 1.341-4.032m-2.221 3.722c-.403.283-2.2.849-4.058.849h-87.386c-1.83 0-4.328-.653-5.044-1.575l-.032.101-.028.01c-.938-1.428-.721-3.391.688-6.049 1.979-3.756 4.696-7.195 9.373-11.881 2.791-2.806 5.801-4.661 9.202-5.939 3.188-1.198 6.757-1.667 10.901-1.667h45.729c8.088 0 13.171 1.387 16.479 4.737 3.688 3.729 5.401 9.142 5.401 17.114 0 .179.003.424.006.604.207 3.024-1.231 3.696-1.231 3.696M158.891 39.667h37.5c1.555 0 5.129-.386 7.528-2.746 1.274-1.253 2.033-3.724 2.587-5.626.061-.209.12-.36.181-.54.102-.343.198-.654.295-.963l.017-.052 3.623-14.105c.059-.224.124-.449.195-.693.424-1.461.905-3.117-.151-4.534-.129-.174-.194-.261-.849-.403-1.018-.22-2.883-.376-6.05-.504-3.475-.141-8.289-.219-13.554-.219-4.845 0-9.796.067-13.585.185-5.632.173-6.687.378-6.977.538-2.504 1.378-4.461 4.487-6.004 6.797-2.63 3.938-4.988 8.074-7.504 12.086l-.077.119c-.345.549-1.261 2-1.796 3.634-.58 1.767-.563 3.006.047 4.117.913 1.658 3.758 2.909 4.574 2.909m-2.055-10.285a480 480 0 0 1 3.486-5.451l.028-.043c1.723-2.614 3.396-5.26 5.085-7.896 1.172-1.828 2.583-3.782 4.395-5.032l.247-.17.295-.05c1.794-.307 10.509-.547 19.84-.547 11.211 0 17.175.324 19.018.627l.946.156.169.944c.204 1.134-.285 2.401-.566 3.491q-1.832 7.09-3.656 14.182l-.009.033-.01.032c-.666 2.196-1.117 4.888-2.824 6.567-1.995 1.962-5.285 2.44-6.89 2.44h-37.442l-.115.233c-1.469-.255-3.236-1.38-3.72-2.26-.317-.577-1.131-2.707 1.723-7.256M139.105 131.153c1.171.599 2.606.69 3.376.74.367.022.741.032 1.112.032.564 0 24.561.24 25.582.25l.05-.25s.032-.258.042-.258c.152 0 .508.24.885.217.669-.039 1.584.047 2.405.046 2.269-.093 4.673-.418 5.154-.767.578-.438 2.108-2.193 3.829-9.334 0 0 16.111-56.771 16.12-56.795.088-.287.879-2.889 1.383-5.737.734-4.147.49-6.833-.727-7.817-1.088-.879-2.719-.932-4.041-.747-2.007.282-4.137.057-6.162.059-.984.001-2.09.006-3.32.006-3.658 0-7.962.057-11.76.106-3.029.039-6.099-.067-9.119.204-1.79.161-3.279.426-4.523 1.848-1.216 1.389-1.957 3.194-2.561 4.917-1.266 3.614-2.191 7.385-3.221 11.071-1.37 4.903-2.753 9.804-4.112 14.709-.973 3.513-1.95 7.024-2.922 10.537-3.322 12-6.42 22.892-7.598 27.017l-.059.207c-.149.525-.318 1.063-.466 1.541-.482 1.543-.981 3.139-1.076 4.889-.086 1.611.463 2.661 1.729 3.309m-.697-3.255c.087-1.622.545-3.087 1.03-4.639l.003-.01c.158-.504.321-1.025.471-1.562l1.398-5.049 6.261-22.616 9.774-35.307c.454-1.604 1.17-3.236 1.967-4.485 1.04-1.629 2.058-2.423 3.113-2.426.672-.002 2.066-.009 3.909-.02 4.636-.025 12.389-.069 18.461-.069 5.06 0 8.064.03 8.931.089.256.018.563.098.888.103l-.004.754h.006l.009-.754c1.312.018 2.181.041 2.739.294l.399.163.217.371c.423.742.766 2.497-.003 6.66a53 53 0 0 1-1.301 5.328l-16.134 56.853-.013.049c-.466 1.938-1.983 7.186-3.44 8.285-.431.32-1.656.871-5.036.871-.367 0-2.438.008-5.303.02-6.568.029-17.561.078-22.081.078-1.906 0-2.041-.008-2.121-.014-2.259-.145-4.276-.483-4.14-2.967M43.569 39.667h82.261c1.232 0 5.641-.731 6.87-2.978 1.736-3.171 1.832-4.796 1.395-7.117-.523-2.79-1.349-4.988-2.76-7.461l-.005.008-.005.128c-4.026-7.3-9.334-10.581-16.705-10.581H70.492c-9.173 0-16.376 2.297-22.671 7.462-.587.482-1.158.906-1.71 1.352-3.059 2.473-5.475 4.386-7.545 7.289-.802 1.123-1.911 2.796-2.284 4.584-.355 1.698-.005 3.04 1.068 4.572 1.459 2.084 5.468 2.742 6.219 2.742m-4.262-11.299c2.26-3.168 5.087-5.49 8.361-8.172.24-.197.484-.405.731-.608 3.162-2.595 6.534-4.212 10.31-5.431 3.563-1.15 7.417-1.49 11.783-1.49h44.128c6.959 0 12.015 3.062 15.908 10.124 1.373 2.405 2.172 4.466 2.671 7.13.444 2.357.642 3.939-.861 6.682-.745 1.362-3.588 2.064-5.632 2.064h-83.11c-1.604 0-4.545-.621-5.502-1.986-2.138-3.055-.587-5.793 1.213-8.313M11.692 129.751c1.661 1.367 4.165 1.916 6.177 1.916h.029c.317 0 .617.006.916.041.522.062 1.102.086 1.651.086l80.517-.127h.029l.028-.031c.315.014.672.015 1.031.015 4.362 0 6.012-.769 6.606-1.219 2.321-1.759 3.189-4.937 3.887-7.481.107-.394.22-.791.343-1.211.598-2.047 1.022-4.275 1.788-7.009l.601-2.091c.066-.234.234-.428.296-.612.053-.159.19-.456.238-.626.508-1.796.134-3.4-1.066-4.898-.634-.791-1.469-1.104-3.01-1.104-.337 0-.676.135-1.01.146-.326.015-.656.127-.979.127H64.098l2.895-2.502c6.522-5.42 15.007-10.2 25.216-14.151 8.883-3.437 16.076-7.067 21.991-11.028 6.726-4.502 12.142-11.162 16.099-19.757 1.039-2.256 1.216-4.306.511-5.909-.822-1.87-3.406-1.264-5-1.419-.692-.067-1.382-.24-2.082-.24-.461 0-11.408.031-20.385.031-9.802 0-12.066.214-12.451.412-1.205.624-4.551 3.229-5.197 3.769l-.273.244c-2.783 2.329-7.441 6.235-15.448 10-18.786 8.763-31.535 16.064-38.979 22.314-9.34 7.729-16.031 16.736-19.893 26.773l-.098.256c-.982 2.543-2.096 5.455-2.041 8.328.06 3.071 1.029 5.559 2.729 6.957m.161-14.957.099-.254c3.805-9.896 10.408-18.772 19.626-26.399 7.279-6.11 20.33-13.577 38.783-22.185 8.115-3.816 12.83-7.761 15.647-10.119l.271-.228c.812-.68 3.649-2.797 4.769-3.461l.254-.151.294-.032c.114-.012.242-.018.401-.018.274 0 .643.016 1.201.041 1.289.058 25.438.085 33.762.093l2.792.002.306.818c.217.582.288 1.195.262 1.803-.049 1.152-.445 2.287-.848 3.161-3.897 8.466-9.206 14.989-15.778 19.388-7.136 4.781-15.274 7.928-21.814 10.457-10.512 4.067-19.61 9.041-25.661 14.021l-.069.129-.027.048-.032.029-4.241 4.227 47.914.008c.417 0 .809.004 1.187-.021.34-.021.662-.021.973-.021.358 0 1.446 0 2.155.889 1.04 1.298 1.315 2.543.893 4.033q-.173.613-.344 1.23l-.601 2.145-.013.055a692 692 0 0 1-1.981 6.979c-.115.396-.219.803-.337 1.229l-.65-.179v.002c0 .008-.009.011-.009.013l.653.188c-.731 2.668-1.49 5.438-3.561 7.008-.861.65-3.069.988-6.058.988-.549 0-.933-.031-1.018-.031h-.006l.438.004v-.021l-81 .133v.015c-1 0-1.077.013-1.549-.052-.305-.035-.626-.057-.963-.092-1.99-.217-4.25-.463-5.699-1.654-2.012-1.651-2.367-4.621-2.398-6.24-.054-2.718.978-5.392 1.977-7.978M233.877 39.768c.698.069 8.404.122 17.924.122 4.625 0 8.265-.014 9.497-.036 5.961-.106 6.61-.531 6.824-.67q.085-.056.168-.105c1.265-.751 1.72-2.225 2.63-5.485.714-2.561 1.61-5.837 2.4-8.729l.052-.188.02-.074c.681-2.49 1.323-4.841 1.724-6.275l.017-.061c.606-2.171 1.521-5.452.172-7.234-.66-.874-2.195-1.304-4.562-1.304-.542 0-25.062-.062-26.104-.062h-.017l-.017-.013c-.081-.003-.294-.013-.577-.013-1.709 0-3.952.15-4.932.88-.727.542-1.746 2.337-2.6 4.582l-.009.027-4.416 14.937-.004.011-.003.012c-.229.726-.943 3.19-1.212 4.932-.12.774.068 2.325.864 3.354.367.475 1.138 1.289 2.161 1.392m-2.006-4.683c.293-1.897 1.111-4.522 1.178-4.736l4.391-14.828.015-.051.019-.051c.431-1.124.82-2.369 1.604-3.308.946-1.134 2.188-1.048 3.547-1.048.877 0 1.738.237 1.932.242l25.109.361h.09l.017-.203c3.49.088 3.674.123 4.008.34l.242.098.157.213c1.111 1.716-.027 5.848-.039 5.89l-.017.053c-.394 1.407-1.02 3.695-1.684 6.121l-.063.229c-.759 2.779-1.705 6.237-2.45 8.91-.674 2.418-1.054 3.712-1.647 4.426l-.357.43-.557.053c-1.632.155-8.241.312-19.328.312-5.9 0-12.816-.056-14.057-.18a2.02 2.02 0 0 1-1.448-.805c-.6-.776-.748-1.91-.662-2.468M296.929 39.483c.166.014 1.25.036 6.747.036 12.316 0 26.131-.095 27.359-.305.979-.199 1.468-1.279 1.884-2.369l.022-.058c.024-.087.062-.17.097-.249.249-.617.438-1.394.604-2.08l.113-.458c.022-.094.04-.203.062-.309l.006-.034c.009-.06.019-.118.021-.169l.019-.044.012-.043 4.646-17.046.021-.057c.246-1.121.353-2.15.312-3.061-.023-.757-.137-1.623-.68-2.265-.562-.666-1.312-.842-1.979-.998-.951-.222-1.91-.26-2.734-.28l-.104.001c-.079 0-.157.005-.236.006-.069.001-.146.012-.208.012l-25.365-.069h-.001c-.274 0-1.718-.006-2.993.041-1.267.045-2.7.081-3.515.951-.793.849-1.625 3.169-2.098 4.898l-.004.005-.004.004-4.417 15.816-.008.028-.009.028c-.217.666-.402 1.36-.549 2.062l-.069.325-.004.021c-.222 1.013-.498 2.273.007 3.26.519 1.038 1.938 2.284 3.045 2.4m-2.056-5.438.077-.357c.139-.667.314-1.324.522-1.958l4.452-15.917c.354-1.303 1.153-3.646 1.792-4.403l.153-.182.205-.121c.438-.256 1.076-.364 2.504-.415 1.174-.043 2.535-.035 2.895-.037l.008.012h.062l25.358.045c.062 0 .146-.045.228-.045h.327c.805 0 1.655.083 2.519.283.58.135.902.227 1.172.418l.283.218.147.319c.148.312.229.739.263 1.368.025.816-.066 1.747-.289 2.769l-.008.036-.014.035-4.646 17.044c-.029.108-.05.241-.071.369l-.006.037c-.009.056-.021.11-.027.158l-.007.029-.007.028-.104.427-.002.01c-.154.65-.343 1.388-.562 1.94q-.06.15-.125.321c-.146.385-.31.783-.479 1.08l-.357.643-.737.046c-2.462.152-15.513.242-26.707.242-5.068 0-6.265-.02-6.509-.025l-.23-.006-.216-.082c-.667-.252-1.583-1.086-1.924-1.749l-.034-.068-.028-.072c-.228-.56-.136-1.261.122-2.44"/></g><use xlink:href="#a" width="465.499" height="139.514" x="-232.749" y="-69.757" overflow="visible" transform="matrix(.9964 0 0 -1 234.282 72.187)"/><use xlink:href="#a" width="465.499" height="139.514" x="-232.749" y="-69.757" overflow="visible" transform="matrix(.9991 0 0 -1.0844 228.15 72.255)"/><use xlink:href="#a" width="465.499" height="139.514" x="-232.749" y="-69.757" overflow="visible" transform="matrix(.9913 0 0 -1.0844 232.118 72.255)"/><g opacity=".7"><path fill="none" d="M426.359 52.449c-4.398 0-8.549-.06-11.58-.103-2.435-.035-4.136-.06-4.528-.032-.521.09-.581.101-1.026 1.592l-.096.287-8.694 32.744c-1.801 6.724-6.281 10.289-13.316 10.6q-.56.019-1.074.02c-4.152 0-7.273-1.014-9.276-3.013-1.595-1.586-2.447-3.83-2.463-6.486-.007-.998.027-1.75.111-2.437.142-1.13.5-2.243.846-3.319.122-.379.243-.755.353-1.128l.203-.704 2.927-10.587 4.511-16.319c.175-.62.265-1.106.274-1.493-1.508-.081-4.707-.167-11.489-.167-9.958 0-20.196.178-22.75.305-.238.376-.44 1.125-.593 1.69l-.136.494-7.573 28.26c-1.601 5.827-2.377 11.198-2.375 16.423 0 4.251.577 7.819 1.714 10.606 2.474 6.285 7.56 10.79 15.128 13.415l.894.318c2.046.731 4.365 1.561 7.212 2.006l.507.081c4.218.67 8.58 1.362 13.441 1.362 7.674 0 15.055-1.071 21.345-3.097a52 52 0 0 0 5.131-1.956c4.315-1.921 8.782-4.716 13.277-8.307 4.326-3.457 7.861-7.334 10.508-11.523 2.848-4.508 4.77-9.529 6.78-15.681.077-.239.16-.485.241-.723l.037-.105c.137-.392.267-.761.354-1.113.335-1.349.879-3.299 1.569-5.769.607-2.175 1.339-4.796 2.172-7.876 2.504-10.175 3.553-14.131 4.001-15.821.2-.754.273-1.024.301-1.2l.028-.104c.079-.203.161-.727.219-1.107a781 781 0 0 0-8.932-.034h-8.183zM192.72 52.168v.28h-1.744v-.242c-1.763-.105-4.43-.159-7.94-.159a3818 3818 0 0 0-22.084.056c-.67.002-2.368 2.355-3.25 5.478-.087.311-5.069 18.309-9.65 34.863l-5.333 19.265c-2.232 8.064-2.232 8.064-2.244 8.097-.142.515-.308 1.05-.472 1.566-.449 1.441-.862 2.768-.934 4.128-.026.482-.045.831 2.451.996.107.006.91.011 2.051.011 4.464 0 15.345-.049 21.93-.078 2.859-.013 4.908-.021 5.273-.021 3.188 0 4.227-.52 4.237-.524.514-.395 3.292-3.722 3.292-7.001l.017-.204 15.155-56.111c.006-1.785.167-3.589.456-5.148.596-3.229.25-4.621-.003-5.157-.166-.028-.508-.065-1.208-.095M127.847 21.542c-3.78-6.854-8.262-10.042-14.11-10.042H70.163c-7.644 0-14.398 2.495-20.65 7.627-3.496 2.875-6.406 5.927-8.648 9.071-2.345 3.286-2.193 4.836-1.187 6.273.398.569 2.495 1.378 3.925 1.378h82.071c1.701 0 3.663-1.018 3.946-1.538 1.215-2.212 1.049-3.738.658-5.814-.504-2.697-1.299-4.973-2.431-6.955M301.405 126.502a3 3 0 0 1 .207-.183c.029-.023.293-.28.666-1.904l.018-.089 19.188-70.804c.148-.478.277-.991.369-1.458-1.895-.039-6.796-.104-18.462-.104-7.505 0-14.118.022-14.798.041a1 1 0 0 0-.111.021c-.032.027-.142.18-.353.938l-.533 1.672c-.135.439-.201.877-.27 1.341-.063.419-.128.854-.249 1.299-.2.729-.482 1.332-.779 1.936-.627 1.276-1.292 2.489-2.516 3.305-.926.612-1.996.663-3.102.663l-17.321-.001c-2.304 0-3.785-.566-4.528-1.732-.737-1.165-1.056-2.347-1.034-3.833.012-.74.119-1.556.326-2.495.106-.478.28-.932.449-1.371.253-.662.493-1.288.489-1.932 0-.014-.089-.07-.465-.07l-.382.008-12.886.099c-7.471.058-15.444.12-15.611.12l-.761.001c-.488 0-1.122.028-1.708.244-.736.278-1.278 1.033-1.809 2.52l-6.536 25.311c-.261 1.362-.385 2.922-.463 4.124-.075 1.162.34 2.263 1.203 3.182 1.208 1.289 3.185 2.122 5.037 2.122h47.097c-.031-.002.02-.018.084-.037.319-.096.914-.273 1.592-.273.2 0 .408-.005.615-.01q.325-.01.64-.011c.761 0 1.521.064 1.928.538.718.826 1.41 2.29.625 4.561l-8.562 29.339c-.367 1.116-.396 2.782-.255 3.07.108.091 1.353.853 2.656.853 1.974 0 8.439-.109 28.179-.63l.975-.025.542-.104c.361-.004.444-.083.609-.242M331.891 11.716a9.4 9.4 0 0 0-2.099-.218h-.505l-25.039-.068c-.096.001-1.586.027-2.855.073-1.001.036-1.396.098-1.55.14-.281.444-.896 1.933-1.339 3.56l-4.405 15.756a16 16 0 0 0-.478 1.777l-.082.375c-.167.776-.235 1.235-.205 1.385.104.191.586.615.821.746.56.009 2.305.024 6.281.024 10.643 0 22.973-.082 25.973-.219.06-.134.137-.319.233-.577l.139-.356c.166-.41.324-1.06.463-1.634l.116-.47c.042-.264.075-.457.128-.65l4.588-16.833c.181-.838.262-1.602.237-2.244a4 4 0 0 0-.04-.468 6 6 0 0 0-.382-.099M125.074 52.294c-4.629.045-15.47.15-22.47.15-5.652 0-8.545-.113-10.099-.173a25 25 0 0 0-1.203-.033c-1.079.663-3.627 2.565-4.369 3.187l-.271.226c-2.844 2.381-7.605 6.368-15.85 10.246-18.086 8.439-30.838 15.725-37.902 21.655-8.861 7.332-15.199 15.851-18.839 25.32l-.144.375c-.899 2.319-1.828 4.717-1.782 6.974.023 1.264.273 3.558 1.696 4.729.879.721 2.486.889 4.039 1.051l.619.066c.116.001.215-.021.326-.047.146-.032.312-.068.493-.068l.149.009c.081-.001.257-.078.399-.141.262-.115.56-.246.896-.246l79.903-1.006.182.3c.162.347.394.589.5.589a45 45 0 0 1 3.67.156c.749.058 1.238.046 1.251.042 1.495-1.138 2.157-3.556 2.797-5.894l.132-.481c.073-.271.146-.54.223-.797.527-1.796 1.043-3.646 1.548-5.454l1.007-3.655c.052-.189.104-.402.157-.616.061-.247.123-.496.184-.713.262-.932.083-1.767-.546-2.553-.201-.255-.486-.617-.694-.617-.381 0-.727-.185-1.093-.381-.345-.185-.702-.375-1.042-.375H60.91c-.299.242-.915.408-1.217.043-.22-.267-.255-.681-.118-1.385.366-1.877 4.584-4.246 5.063-4.511 6.043-5.046 15.299-10.132 25.984-14.268 6.369-2.465 14.295-5.531 21.18-10.142 6.205-4.154 11.229-10.34 14.932-18.387.279-.606.857-2.056.612-3.197zM169.218 11.5c-.62.471-1.87 1.792-2.924 3.097-.289.458-.611.956-.935 1.456l-.355.55q-1.159 1.794-2.312 3.592c-.745 1.167-1.497 2.334-2.247 3.498a442 442 0 0 0-3.458 5.413c-2.415 3.852-1.654 5.34-1.646 5.355.184.334 1.397 1.388 2.289 1.388h36.858c1.108 0 3.914-.509 5.513-2.084.848-.832 1.478-2.969 1.937-4.529l.089-.301c.046-.155.091-.328.135-.498.055-.212.109-.421.164-.593l3.557-13.909c.072-.306.146-.571.221-.832.17-.588.324-1.148.359-1.559-2.088-.261-7.854-.539-18.078-.539-9.803-.001-17.459.253-19.167.495M447.949 31.944c0-7.485-1.526-12.517-4.803-15.833-3.069-3.104-7.965-4.612-14.967-4.612h-45.156c-7.509 0-13.406 2.413-18.558 7.594-4.008 4.016-6.847 7.727-8.934 11.679-1.027 1.954-1.277 3.283-.762 4.064.196.229 1.925 1.014 3.504 1.014h86.302c1.215 0 2.661-.734 3.023-.988.341-.362.376-.969.356-2.159zM242.104 11.62c-.421.105-1.176.261-1.958.261-1.175 0-1.637.034-1.808.054-.333.421-1.03 1.68-1.558 3.054l-4.326 14.615c-.015.044-.832 2.631-1.106 4.423-.017.146.055.727.289 1.026.059.076.078.083.16.092.972.095 6.734.165 13.698.165 10.421 0 16.781-.139 18.682-.283.336-.581.732-2.003 1.148-3.5.704-2.514 1.563-5.67 2.333-8.498l.875-3.211c.375-1.377.706-2.594.948-3.461l.003-.059c.33-1.191.647-3.611.344-4.414a85 85 0 0 0-2.962-.39l-.022-.497.002.5z"/><path fill="#fff" d="M231.423 39.206c.818.083 9.565.126 17.784.126 4.901 0 8.237-.014 9.392-.039 6.14-.108 6.819-.556 7.184-.796l.132-.084c1.599-.946 2.118-2.816 2.979-5.914.65-2.314 1.441-5.213 2.172-7.889l.551-2.016c.567-2.069 1.083-3.955 1.422-5.168.661-2.371 1.629-5.85.049-7.938-.833-1.099-2.525-1.634-5.175-1.634-.54 0-25.779-.076-25.779-.076l-.604-.005c-3.968 0-5.024.779-5.371 1.036-.867.65-1.937 2.496-2.863 4.938l-4.378 14.806c-.154.502-.932 3.076-1.229 5.004-.167 1.062.135 2.807 1.02 3.951.77.998 1.734 1.601 2.714 1.698m-1.065-5.333c.28-1.827 1.117-4.515 1.152-4.601l4.322-14.604c.567-1.481 1.425-3.086 1.886-3.541l.121-.088c.136-.07.305-.158 2.306-.158.732 0 1.467-.167 1.75-.24l.146-.021 24.881-.123c3.242.374 3.425.495 3.535.567l.145.146c.774 1.195.035 4.657-.142 5.29l-.003.059c-.256.933-.586 2.148-.96 3.522l-.875 3.211c-.771 2.83-1.631 5.989-2.324 8.464-.565 2.032-.965 3.473-1.46 4.068l-.132.159-.205.02c-1.591.153-8.085.308-19.007.308-7.105 0-12.78-.07-13.799-.17a1.16 1.16 0 0 1-.848-.473c-.449-.574-.541-1.467-.489-1.795M286.427 130.252c7.075-.08 13.757-.155 13.882-.155l.143.021.196.059c1.025-.02 2.17-.463 3.151-1.223 1.146-.887 1.619-2.353 1.959-3.804l19.161-70.657c1.036-3.326.832-5.283-.602-5.837-.413-.16-2.156-.272-20.929-.272-1.109 0-14.506.017-15.07.064-.719.074-1.385.298-1.825.613-1.378.991-1.902 2.834-2.285 4.485-.082.352-.15.771-.225 1.223-.36 2.181-.904 5.477-3.777 5.477h-16.849c-.69 0-1.803-.585-1.909-1.466-.095-.811-.079-1.812.048-2.977.071-.64.323-1.207.567-1.756.181-.407.352-.791.441-1.183.58-2.551-.667-4.902-1.204-5.252-.503-.328-1.333-.272-2.14-.148a16 16 0 0 1-.515.073l-.05.143-.357.001c-.131 0-5.096-.157-13.257-.415-7.047-.223-15.034-.476-15.27-.478-.726 0-1.615.377-2.557.777-.381.162-.77.327-1.16.473-2.171.81-3.212 3.007-3.939 5.065l-.02.2-6.625 25.844-.107.728c-.249 1.676-.483 3.258-.421 4.916.144 3.663 3.181 7.607 9.51 7.607h47.748l1.896.108-8.746 30.148c-.299.916-1.143 3.998.34 5.85 1.216 1.517 4.107 1.918 5.466 1.918l.059.5v-.5c.158.001 7.842-.086 15.272-.17m-57.469-80.139v-.5c.142-.001.274 0 .41.003l.319.002v1l-.344-.002h-.001l-.384-.003zm42.165 78.387c-1.569 0-3.072-.853-3.438-1.207-.545-.67-.279-2.992.057-4.012l8.556-29.321c.521-1.509.375-2.714-.419-3.628-.062-.073-.297-.192-1.172-.192-.2 0-.408.005-.615.01q-.325.01-.64.011c-.532 0-1.016.145-1.305.231l-.089.026.056.899c-.058.004-.099.013-.133.019-.078.016-.136.011-.207.024v-.89h-47.092c-2.119 0-4.382-.957-5.77-2.438-1.056-1.127-1.565-2.486-1.471-3.931.08-1.232.208-2.832.486-4.279l6.556-25.384c.652-1.836 1.37-2.77 2.414-3.164.737-.273 1.487-.308 2.058-.308l.761-.001c.167 0 8.136-.062 15.603-.12l12.894-.099.382-.008c1.206 0 1.462.579 1.465 1.064.005.833-.28 1.576-.555 2.295-.162.424-.315.825-.406 1.23-.192.871-.291 1.622-.302 2.293-.019 1.279.252 2.292.878 3.282.536.841 1.776 1.268 3.684 1.268l17.321.001c.948 0 1.856-.038 2.548-.496 1.017-.678 1.585-1.72 2.171-2.913.285-.581.536-1.114.712-1.758.106-.388.164-.774.225-1.183.072-.48.146-.977.305-1.49l.513-1.617c.345-1.223.589-1.635 1.375-1.715.737-.021 7.226-.043 14.862-.043 13.136 0 17.709.083 19.066.118l.56.015-.078.555a14.4 14.4 0 0 1-.484 2.115l-19.199 70.864c-.414 1.806-.752 2.267-1.029 2.481q-.069.056-.13.117c-.222.212-.523.499-1.247.513l-.538.104-1.008.026c-19.752.526-26.227.636-28.181.636M201.819 7.641c-3.388-.141-8.154-.218-13.419-.218-4.702 0-9.603.067-13.446.184-6.478.2-6.918.441-7.271.635-1.498.823-3.79 3.637-4.234 4.192l-.085.125-1.359 2.114c-.778 1.2-1.555 2.414-2.325 3.62l-.684 1.076c-.516.813-1.034 1.629-1.554 2.434-1.146 1.778-2.335 3.672-3.482 5.499l-.28.434c-1.053 1.608-3.012 4.603-1.472 7.404 1.167 2.129 4.647 2.657 5.102 2.657h37.522c1.869 0 5.346 0 7.681-2.294 1.563-1.54 2.33-4.125 2.946-6.204a3 3 0 0 1 .18-.466c.039-.084.077-.166.114-.287l.132-.436.089.018c1.928-7.495 2.856-10.83 3.257-12.271.162-.581.261-.938.276-1.031.003-.241.043-.486.123-.75.525-1.806.896-3.565-.324-5.208-.457-.608-1.03-.965-7.487-1.227m5.246 5.738c-.072.25-.144.507-.205.747l-3.573 13.99c-.057.184-.106.375-.156.569a15 15 0 0 1-.144.533l-.088.299c-.518 1.758-1.163 3.945-2.196 4.959-1.966 1.936-5.227 2.371-6.214 2.371h-36.858c-1.292 0-2.805-1.252-3.166-1.907-.181-.331-.945-2.187 1.675-6.367a469 469 0 0 1 3.465-5.424q1.126-1.745 2.245-3.494c.769-1.201 1.541-2.397 2.314-3.596l.355-.55q.483-.746.964-1.496c1.059-1.315 2.495-2.875 3.254-3.4l.201-.082c1.496-.254 9.357-.528 19.448-.528 11.042 0 16.945.329 18.645.61l.349.058.062.349c.107.609-.098 1.396-.377 2.359M451.528 32.406c0-16.484-7.201-23.834-23.348-23.834h-45.157c-8.868 0-15.374 2.564-21.093 8.315-4.379 4.385-7.348 7.745-9.562 11.948l-.134.252c-.826 1.541-2.208 4.12-.455 6.771.847 1.287 2.911 1.938 6.137 1.938h87.206l.043.48c1.308-.055 3.827-.19 4.878-1.249 1.541-1.539 1.513-3.051 1.489-4.386zm-3.284 3.216c-.402.292-2.083 1.229-3.667 1.229h-86.302c-1.7 0-3.83-.802-4.318-1.434-.765-1.158-.539-2.772.691-5.111 2.135-4.043 5.03-7.83 9.11-11.918 5.352-5.381 11.474-7.888 19.266-7.888h45.156c7.283 0 12.411 1.606 15.678 4.909 3.474 3.516 5.092 8.77 5.092 16.536l.006.746c.018 1.11.037 2.163-.712 2.931M196.921 47.89c-.395-.319-1.059-.475-2.031-.475-.537 0-1.089.045-1.601.086-.28.022-.55.044-.799.057l-.001.012h-.104c-.095.11-.229.152-.393.156h-.017l-.704 1.011.156-.962-.262.04c-.661.1-1.565.236-2.746.236-.618 0-1.31.037-2.078.079-.972.052-2.075.111-3.302.111-3.447 0-7.506.082-11.088.153-2.7.054-5.206.104-7.154.115-1.092.007-2.004.116-2.736.204-.467.056-.836.1-1.121.1-3.664.011-5.825 5.402-6.787 8.614a21 21 0 0 1-.169.592c-1.913 6.555-6.221 22.042-9.499 33.88a3608 3608 0 0 1-7.425 26.406l-.133.467c-.125.436-.259.872-.392 1.303l-.06.195c-.493 1.57-1.002 3.191-1.1 5.028-.22 4.026 3.217 4.72 5.82 4.891q.26.012.523.011l.634-.003c.552 0 24.244.216 25.252.225h.103c.185 0 .518-.016.927-.035.679-.031 1.562-.072 2.348-.072 1.73-.064 4.793-.387 5.567-.975.8-.606 2.394-2.671 4.08-9.687l15.914-56.081c.092-.297.882-2.887 1.394-5.772.827-4.678.409-8.754-1.016-9.91m-2.007 9.711a28.3 28.3 0 0 0-.438 4.952l-.021.224-15.152 56.1c-.035 3.55-2.846 7.161-3.742 7.839-.231.178-1.614.692-4.787.692-.364 0-2.412.009-5.269.021-6.586.029-17.47.078-21.935.078-1.168 0-1.99-.007-2.109-.013-2.676-.177-3.467-.655-3.391-2.048.079-1.484.51-2.869.966-4.335.174-.547.336-1.072.488-1.616l2.23-8.053 5.333-19.266c4.581-16.554 9.564-34.553 9.652-34.866.843-2.983 2.692-6.204 4.21-6.208a3820.403 3820.403 0 0 1 22.087-.056c3.489 0 6.155.053 7.94.157v-.004l.528.038.008-.109.18.005c1.958.044 2.527.13 2.78.246l.144.065.08.136c.669 1.108.742 3.183.218 6.021M445.103 48.209a197 197 0 0 0-2.247-.033l-.227-.002c-1.952-.016-4.747-.025-8.088-.025-5.192 0-23.84.047-24.785.198-2.891.463-3.55 2.677-4.08 4.455l-.097.316-8.721 32.853c-1.331 4.974-4.475 7.399-9.894 7.636-.259 0-.498-.074-.666-.135-.096-.034-.205-.073-.258-.073-3.472 0-5.466-.512-6.667-1.71-2.001-1.987-1.415-5.376-1.069-6.741.191-.755.426-1.481.652-2.185.14-.436.281-.872.413-1.319l.086-.283c5.125-18.544 6.687-24.18 7.164-25.9l.199-.72c.435-1.536.785-3.525-.366-5.335-.471-.741-1.209-.818-5.146-.917-2.147-.056-5.178-.083-9.267-.083-4.785 0-10.637.047-15.655.127-7.784.132-8.247.215-8.624.409-1.733.889-2.232 2.721-2.633 4.192l-.127.477-7.58 28.303c-1.686 6.138-2.505 11.834-2.505 17.418.003 4.771.671 8.827 1.986 12.058 2.915 7.407 8.748 12.67 17.337 15.647 2.371.832 5.263 1.756 8.748 2.306l1.25.198c4.18.665 8.503 1.353 13.275 1.353 2.594 0 16.135-.275 27.976-5.718a68.3 68.3 0 0 0 14.087-8.689c4.701-3.759 8.512-7.927 11.328-12.386 3.066-4.848 5.083-10.098 7.169-16.491l.215-.639a17 17 0 0 0 .488-1.552c.601-2.408 1.872-7.146 3.729-14.011.052-.219 4.277-17.379 4.318-17.545.861-3.35.635-4.18.355-4.697-.373-.687-.905-.729-2.073-.757m-.55 3.877c-.022.117-.048.285-.076.473-.087.574-.163 1.042-.268 1.341-.037.205-.114.498-.313 1.25-.447 1.687-1.494 5.637-4 15.814-.836 3.095-1.569 5.719-2.177 7.896-.688 2.462-1.23 4.406-1.562 5.739-.094.38-.232.779-.38 1.203l-.035.102c-.078.229-.159.47-.236.706-2.033 6.224-3.982 11.31-6.885 15.905-2.707 4.283-6.317 8.243-10.73 11.771-4.562 3.644-9.102 6.483-13.496 8.439-1.7.754-3.46 1.425-5.231 1.993-6.387 2.058-13.874 3.146-21.651 3.146-4.94 0-9.341-.699-13.598-1.375l-.506-.08c-2.94-.46-5.41-1.343-7.394-2.053l-.887-.315c-7.855-2.725-13.144-7.425-15.717-13.968-1.194-2.921-1.795-6.616-1.795-10.998-.003-5.315.785-10.773 2.41-16.686l7.708-28.75c.227-.838.483-1.787.946-2.265l.135-.14.194-.012c2.126-.128 12.735-.319 23.033-.319 7.552 0 10.691.106 11.994.195l.397.027.062.394c.093.584.005 1.319-.275 2.31l-4.51 16.318-2.927 10.589-.208.719c-.112.381-.236.765-.36 1.151-.332 1.032-.675 2.101-.806 3.136-.079.641-.111 1.353-.104 2.307.01 1.665.395 4.021 2.169 5.785 1.809 1.806 4.692 2.721 8.57 2.721q.5-.001 1.036-.02c6.543-.288 10.713-3.604 12.388-9.856l8.803-33.076c.531-1.779.792-2.101 1.859-2.282.178-.015.441-.02.82-.02.798 0 2.135.019 3.843.043 3.027.043 7.174.103 11.565.103h8.186c4.789 0 7.816.013 9.526.042l.596.01zM332.731 7.528c-.48-.112-.936-.295-1.376-.473-.547-.221-1.064-.43-1.482-.43h-.581l-25.171.546c-.473.08-1.729.292-2.86.335-1.336.05-3.003.25-4.053 1.373-1.102 1.176-2.012 4.329-2.265 5.267l-4.37 15.66a20 20 0 0 0-.57 2.164l-.071.334c-.235 1.079-.556 2.549.081 3.794.632 1.246 2.258 2.678 3.671 2.826.093.009.383.038 6.751.038 12.757 0 26.107-.097 27.175-.313 1.509-.306 2.122-1.905 2.489-2.861l.107-.285c.275-.683.478-1.51.64-2.175l.115-.462c.029-.116.048-.24.063-.351l.033-.182 4.597-16.876c.278-1.249.391-2.344.356-3.318-.034-.839-.164-1.911-.868-2.745-.796-.939-1.809-1.725-2.411-1.866m-3.088 24.985-.486-.116-.486-.116.497.036-.471-.176.008.001-.007-.003.494.07v-.004.004l.495.07zm3.404-17.75-4.594 16.859a4 4 0 0 0-.09.451l-.143.625c-.152.625-.319 1.312-.514 1.793l-.131.336a7 7 0 0 1-.414.949l-.134.237-.271.017c-2.416.148-15.28.236-26.322.236-4.277 0-5.981-.017-6.405-.026l-.166-.032c-.422-.159-1.189-.815-1.449-1.325-.157-.394-.069-.988.142-1.962l.085-.389c.128-.624.297-1.253.5-1.864l4.397-15.729c.411-1.508 1.14-3.479 1.601-4.026l.131-.11c.293-.171.878-.254 2.085-.296 1.32-.048 2.879-.074 2.879-.074h.01l25.488.068c.9 0 1.682.082 2.383.244.671.157.801.248.863.291l.113.079.057.126c.089.197.142.525.162 1.003.031.725-.058 1.573-.263 2.519M127.823 48.707l-.101-.002c-.339 0-.712.082-1.107.168-.452.099-.919.201-1.412.201h-.001c-.195 0-.398.099-.596.194-.258.125-.525.254-.827.254h-1.027c-.104 0-.603-.022-1.406-.058-3.174-.143-11.606-.523-18.741-.523l-5.458-.001c-6.145 0-6.887.02-7.219.191-1.317.682-4.721 3.188-5.289 3.662l-.333.208c-2.629 2.209-7.135 5.981-15.008 9.682-18.643 8.699-31.294 15.94-38.679 22.135-9.335 7.725-16.026 16.731-19.889 26.774l-.095.247c-.999 2.58-2.131 5.503-2.071 8.513.062 3.276 1.128 5.931 3.001 7.474 1.829 1.507 4.439 1.792 6.537 2.021l.922.103c.588.069 1.208.079 1.736.079l79.521-.127.093.003c.175.007.52.019.972.019 3.472 0 5.837-.459 7.031-1.365 2.52-1.908 3.419-5.19 4.143-7.827.108-.408.22-.792.333-1.181a736 736 0 0 0 1.977-6.929l.593-2.061c.058-.212.118-.394.178-.575.052-.158.104-.317.157-.503.58-2.05.166-4.03-1.197-5.729-.832-1.038-1.988-1.521-3.639-1.521-.368 0-.731-.017-1.081-.032a21 21 0 0 0-.899-.027H66.198l1.043-.882c4.118-3.481 11.741-8.682 24.672-13.686 9.095-3.518 16.047-6.978 21.88-10.887 6.783-4.536 12.23-11.2 16.192-19.808 1.13-2.445 1.307-4.691.512-6.496-.478-1.084-1.353-1.644-2.674-1.708m-.18 7.181c-3.782 8.216-8.924 14.541-15.284 18.799-6.978 4.673-14.961 7.762-21.375 10.244-10.587 4.098-19.743 9.126-25.784 14.157-1.732.965-4.434 2.81-4.643 3.88q-.017.082-.027.151l.189-.001h48.224c.59 0 1.102.273 1.513.493.23.123.491.263.621.263.693 0 1.155.587 1.432.938.876 1.095 1.122 2.255.771 3.502-.059.208-.117.445-.175.683-.055.223-.11.444-.164.641l-1.009 3.659c-.506 1.813-1.023 3.667-1.552 5.47q-.112.38-.217.774l-.13.474c-.688 2.51-1.396 5.095-3.214 6.468-.218.166-.508.189-.789.189-.264 0-.624-.026-1.09-.062-.844-.064-2.001-.153-3.593-.153-.606 0-1.022-.496-1.254-.881l-79.325.998c-.133 0-.32.082-.5.161-.251.11-.511.225-.801.225l-.116-.006c-.107-.003-.205.02-.311.043-.151.033-.322.071-.514.071l-.132-.006-.619-.066c-1.7-.178-3.458-.361-4.57-1.273-1.732-1.427-2.035-4.047-2.061-5.482-.05-2.452.916-4.944 1.85-7.354l.142-.371c3.704-9.634 10.141-18.29 19.133-25.73 7.128-5.984 19.954-13.317 38.119-21.793 8.126-3.822 12.826-7.757 15.633-10.108l.27-.225c.778-.653 3.511-2.696 4.598-3.34l.188-.065c.23-.031.63-.014 1.465.019 1.547.061 4.428.172 10.061.172 6.996 0 17.833-.105 22.46-.15 1.4-.014 2.304-.022 2.477-.022l.535.029.121.325c.55 1.468-.111 3.3-.553 4.26M130.976 19.838c-4.18-7.584-9.817-11.268-17.237-11.268H70.164c-8.726 0-16.224 2.671-22.922 8.167l-.425.349c-3.61 2.961-6.462 5.3-8.867 8.671-2.245 3.151-3.759 5.851-1.203 9.496 1.73 2.473 6.296 2.544 6.811 2.544h81.252c1.814 0 6.178-.265 7.521-2.719 1.788-3.267 1.938-4.738 1.466-7.243-.582-3.102-1.479-5.643-2.821-7.997m-.477 14.954c-.545 1-3.025 2.058-4.824 2.058H43.604c-1.568 0-4.065-.833-4.745-1.805-1.446-2.064-1.101-4.217 1.192-7.428 2.293-3.215 5.263-6.332 8.827-9.263 6.438-5.286 13.4-7.855 21.285-7.855h43.574c6.166 0 11.066 3.452 14.982 10.553 1.184 2.075 2.017 4.452 2.542 7.261.419 2.217.609 3.98-.762 6.479"/></g></svg>