<?xml version="1.0" encoding="utf-8"?>
<!-- Generator: Adobe Illustrator 16.0.0, SVG Export Plug-In . SVG Version: 6.00 Build 0)  -->
<!DOCTYPE svg PUBLIC "-//W3C//DTD SVG 1.1//EN" "http://www.w3.org/Graphics/SVG/1.1/DTD/svg11.dtd">
<svg version="1.1" id="Layer_1" xmlns="http://www.w3.org/2000/svg" xmlns:xlink="http://www.w3.org/1999/xlink" x="0px" y="0px"
	 width="1377.6px" height="140.667px" viewBox="0 0 1377.6 140.667" enable-background="new 0 0 1377.6 140.667"
	 xml:space="preserve">
<symbol  id="gradient" viewBox="-232.749 -69.757 465.499 139.514">
	<g opacity="0.5">
		<path fill="#FA402B" d="M94.515,23.744c-1.173,0.455-1.417,0.551-22.642,0.551c-0.589,0-2.536,0.146-4.253,0.271
			c-2.252,0.161-4.38,0.314-5.358,0.314c-3.055,0-5.48-0.464-7.642-1.459c-3.258-1.502-5.349-4.199-6.215-8.02
			c-0.093-0.409-0.172-0.908-0.254-1.455c-0.153-1.029-0.286-1.609-0.384-1.938c-0.579-0.037-1.485-0.107-2.864-0.228
			c-2.386-0.199-5.654-0.476-6.928-0.476c-2.606,0-3.795,0.354-4.291,0.581c-0.053,0.69-0.035,1.843,0.025,2.254
			c0.389,2.341,0.874,5.248-1.058,7.526c-1.792,2.117-4.585,2.361-6.528,2.361c-1.723,0.002-8.706,0.286-14.867,0.536
			c-5.337,0.22-9.946,0.404-10.968,0.404c-2.799,0-11.319,0-14.575-8.562l-6.936-27.127l-0.052-0.267
			c-0.275-1.865-0.56-3.802-0.481-5.876c0.182-4.844,3.749-10.438,13.249-11.613c0.199-0.021,0.199-0.021,12.927-0.021l32.396,0.001
			c-2.415-8.312-7.333-25.229-7.373-25.365c-1.275-4.39-0.12-7.205,1.074-8.797c2.874-3.828,8.485-4.271,12.456-4.271
			c0.148,0,1.779,0.022,4.055,0.062c3.989,0.064,9.983,0.164,13.374,0.206c0,0,6.97,0.074,8.294,0.083
			c0.271-0.03,0.541-0.047,0.804-0.047c4.127,0,7.533,3.716,9.111,9.939c0.192,0.771,4.072,15.062,5.479,20.058
			c0.06,0.208,5.731,20.841,7.836,28.754c0.171,0.646,0.701,2.108,1.314,3.812C97.234,7,102.205,20.759,94.515,23.744z
			 M42.525-45.922c0.482,1.226,0.898,2.282,1.149,3.104l0.315,1.025c0.961,3.117,3.513,11.398,4.403,14.812
			c0.777,2.98-0.066,4.938-0.91,6.06c-2.121,2.811-5.993,2.896-8.306,2.948c-1.732,0.039-44.361,0.049-44.787,0.049h-0.02
			c-0.854,0-3.456,0-4.697,0.854c-0.802,0.558-1.074,1.404-0.438,4.727c0.36,1.397,5.387,20.964,5.521,21.667
			c0.256,1.354,0.686,3.619,1.235,4.282c0.004,0.005,0.471,0.345,2.297,0.345c2.844,0,18.88-0.062,24.965-0.192
			c-0.114-0.531-0.232-1.119-0.31-1.742c-0.354-2.843,0.26-5.312,1.774-7.144c0.734-0.889,1.265-1.531,11.681-2.274
			c4.908-0.354,10.056-0.567,11.586-0.567c0.167,0,0.297,0.003,0.39,0.007c7.233,0.323,8.781,5.909,9.707,9.253
			c0.234,0.842,0.474,1.707,0.768,2.484c0.169-0.001,0.795-0.01,1.694-0.02c2.881-0.021,8.526-0.075,11.091-0.075
			c6.165,0,11.499-0.033,14.968-0.063c-1.216-4.494-3.859-14.256-5.275-19.406C79.923-10.893,78.59-16.09,77.3-21.116
			c-0.744-2.896-1.964-7.515-3.182-12.122c-2.302-8.709-3.713-14.065-3.899-15.067c-0.445-2.427-0.911-4.932-1.894-6.896
			c-0.067-0.133-0.136-0.266-0.209-0.396c-0.323-0.58-0.373-0.669-2.843-0.746l-0.348-0.016c-4.845-0.155-16.285-0.553-17.874-0.758
			c-1.559-0.202-3.17-0.41-4.594-0.41c-1.146,0-2.033,0.137-2.66,0.361C39.298-56.468,39.362-53.953,42.525-45.922z"/>
		<path fill="#FA402B" d="M-18.221,57.725l-0.055,0.131c0.038,0.172,0.083,0.365,0.126,0.562c0.207,0.925,0.325,1.476,0.334,1.944
			c0.04,2.094-0.627,3.902-1.93,5.242c-2.422,2.481-6.169,2.531-8.905,2.563c-0.499,0.008-29.607,0.05-29.97,0.05h-0.001
			c-0.712-0.009-4.354-0.064-6.125-0.593c-4.554-1.351-7.09-5.319-9.126-8.513c-0.234-0.366-7.139-11.359-7.98-12.702
			c-3.979-6.336-3.227-10.562-1.893-12.986c1.934-3.512,6.787-5.752,8.684-5.752h37.647c1.043,0,2.133,0.122,3.239,0.361
			l1.614,0.438l0.148,0.046c1.792,0.614,3.4,1.518,4.778,2.675c1.286,1.08,3.338,3.727,6.295,14.195l0.098,0.35
			c0.945,3.226,2.757,10.868,2.834,11.188L-18.221,57.725z M-28.959,57.723c-0.353-1.355-0.892-3.519-1.116-4.461
			c-0.911-3.852-3.681-12.339-4.997-13.958c-0.841-0.321-2.824-0.487-3.812-0.569c-0.35-0.028-0.684-0.062-0.991-0.086
			c-1.226-0.011-13.471,0.012-22.693,0.022c-4.988,0.009-9.115,0.02-10.203,0.02l-0.301-0.001c-0.316-0.007-0.632-0.01-0.947-0.012
			c0.343,0.881,1.184,2.587,3.252,5.724c0.166,0.25,0.275,0.421,0.316,0.487c2.739,4.614,7.169,11.127,8.688,12.567
			c3.559,0.248,24.225,0.36,29.536,0.36C-31.259,57.816-30.124,57.805-28.959,57.723z"/>
		<path fill="#FA402B" d="M61.504,30.216c1.438-0.618,3.126-0.907,5.325-0.907c0.844,0,1.696,0.041,2.531,0.085
			c0.643,0.03,1.261,0.062,1.822,0.062h3.112c7.678,0,14.615,0.017,21.771,0.204c7.767,0.205,9.302,6.495,9.805,8.556l0.115,0.465
			c0.046,0.19,0.082,0.386,0.11,0.564l4.581,16.854l0.188,0.564v0.047c0.798,2.917,0.349,5.742-1.28,7.994
			c-1.738,2.4-4.705,3.904-8.033,4.104l-0.163,0.096l-4.783,0.023c-6.278,0.029-12.561,0.062-18.835,0.07
			c-0.65,0.002-1.34,0.042-2.089,0.084c-0.872,0.052-1.771,0.104-2.712,0.104c-2.038,0-3.653-0.261-5.094-0.812
			c-4.479-1.724-5.628-6.513-6.39-9.688c-0.118-0.49-0.23-0.965-0.354-1.403c-0.479-1.755-1.052-3.55-1.615-5.318
			c-0.896-2.822-1.821-5.741-2.48-8.771C55.219,34.848,58.463,31.529,61.504,30.216z M90.488,40.132
			c-1.93-0.06-3.854-0.117-5.781-0.143c-5.576-0.071-11.112-0.025-16.797,0.021l-0.47,0.004c0.038,0.18,0.095,0.394,0.179,0.646
			l0.033,0.104c2.089,7.472,3.192,11.427,3.792,13.57l0.023-0.008l0.652,2.42c0.256,0.948,0.417,1.315,0.5,1.459
			c0.146,0.039,0.526,0.104,1.464,0.117c5.334,0.069,10.669,0.022,16.006-0.021h0.135c3.325-0.027,6.65-0.06,9.977-0.062
			c-0.07-0.5-0.227-1.236-0.534-2.317c-1.041-3.634-1.97-7.523-2.924-12.259c-0.121-0.604-0.258-1.104-0.419-1.545
			c-0.482-1.305-1.024-1.858-3.134-1.916C92.291,40.188,91.389,40.159,90.488,40.132z"/>
		<path fill="#FA402B" d="M-190.918,27.347h82.279c2.121,0,8.699,1.379,11.133,5.821c2.41,4.406,2.506,7.431,1.906,10.609
			c-0.646,3.438-1.693,6.354-3.291,9.146c-4.907,8.901-11.959,13.42-20.957,13.42h-44.129c-10.039,0-18.463-2.908-25.748-8.89
			l-1.243-1.019c-3.396-2.771-6.329-5.156-8.89-8.743c-3.974-5.564-4.391-10.664-1.242-15.156
			C-198.329,28.591-192.359,27.347-190.918,27.347z M-184.061,48.253l1.074,0.879c5.163,4.238,11.207,6.216,19.012,6.216h44.127
			c5.158,0,8.646-2.341,11.688-7.854c1.803-3.15,2.778-7.381,2.014-8.703c-0.226-0.385-1.104-0.44-1.61-0.44
			c-0.757,0-48.817,0.022-52.873,0.03h-0.698c-1.148,0-2.811-0.004-4.758-0.008c-2.51-0.006-5.413-0.014-8.044-0.014
			c-3.737,0-6.05,0.014-7.067,0.041c-0.97,0.025-1.929,0.012-2.891-0.012c-0.551-0.011-1.102-0.021-1.65-0.021
			c-0.714,0-1.299,0.019-1.843,0.058c-0.745,0.059-1.463,0.059-2.04,0.061c-2.066,0.006-2.082,0.027-2.456,0.695
			c-0.159,0.285-0.298,0.53,0.873,2.178C-189.396,43.894-187.043,45.815-184.061,48.253z"/>
		<path fill="#FA402B" d="M222.353,27.315c-1.12,0.207-2.435,0.309-4.01,0.309c-0.307,0-33.442-0.443-35.227-0.729
			c-5.703-0.916-7.142-5.697-7.757-7.758l-0.128-0.438c0,0-9.28-34.993-9.343-35.218c-0.91-3.44-5.151-5.568-8.561-5.568
			c-1.372,0-2.473,0.364-2.947,0.977c-0.626,0.81-0.426,2.28-0.146,3.386c0.127,0.501,0.57,1.975,0.84,2.854
			c0.125,0.411,0.226,0.743,0.281,0.938l3.68,13.335c3.858,13.983,4.22,15.289,4.29,15.553c1.101,4.143-0.045,6.806-1.201,8.31
			c-2.746,3.575-7.84,4.034-11.972,4.034c-0.739,0-8.654-0.036-15.989-0.065c-6.321-0.027-12.21-0.057-12.687-0.057
			c-2.589,0-4.482-0.354-5.969-1.117c-3.521-1.812-4.465-5.285-4.973-7.162l-8.249-30.818c-1.906-6.943-2.833-13.415-2.833-19.783
			c0-5.661,0.817-10.541,2.419-14.477c3.592-9.135,10.691-15.6,21.089-19.207c2.696-0.948,6.004-2.011,10.097-2.654l1.271-0.203
			c4.657-0.744,9.473-1.513,14.935-1.513c2.934,0,18.235,0.312,31.704,6.516c5.695,2.621,11.063,5.938,15.955,9.854
			c5.395,4.312,9.784,9.133,13.06,14.312c3.512,5.563,5.784,11.478,8.137,18.688c0.028,0.091,0.061,0.181,0.108,0.321l0.075,0.221
			c0.229,0.646,0.446,1.296,0.63,2.023c0.626,2.521,1.928,7.366,3.942,14.846l0.065,0.23c0.062,0.257,2.391,9.729,3.714,15.109
			l0.886,3.6c1.035,4.044,1.038,6.158,0.008,8.087C226.64,25.743,224.891,26.845,222.353,27.315z M149.276-58.25
			c-8.539,0-24.163,1.317-32.87,10.14c-6.29,6.372-7.353,17.562-3.151,33.247c0.754,2.818,1.521,5.64,2.282,8.451l0.054,0.199
			c1.812,6.675,3.683,13.575,5.403,20.403c0.304,1.2,0.335,1.325,3.951,1.36c0.126,0.002,12.754,0.186,18.482,0.186
			c3.713,0,6.39-0.024,8.309-0.062c-1.477-5.257-2.932-10.562-4.346-15.729c-0.985-3.604-1.977-7.208-2.974-10.812
			c-1.252-4.521-2.967-10.712,0.669-16.184c2.917-4.386,7.412-6.799,12.658-6.799c8.604,0,17.008,6.271,19.129,14.28l1.934,7.306
			c5.179,19.552,6.791,25.647,7.259,27.75l0.081-0.023l0.109,0.362c0.009,0.031,0.021,0.066,0.033,0.106
			c2.84,0.229,8.545,0.368,13.166,0.368c1.242,0,2.23-0.013,2.778-0.032c1.56-0.062,4.729-0.146,9.427-0.231l0.403-0.008
			c0.294-0.007,2.314-0.104,4.276-0.222c-0.539-2.599-1.544-5.387-2.521-8.104c-0.987-2.741-3.294-11.399-3.642-12.963
			c-0.737-3.354-2.425-10.297-2.593-10.868c-0.081-0.231-0.162-0.485-0.238-0.721l-0.039-0.124c-2.082-6.387-4.056-11.565-6.92-16.1
			c-6.354-10.061-17.015-18.086-29.238-22.021C164.719-57.155,157.154-58.25,149.276-58.25z"/>
		<path fill="#FA402B" d="M-37.939,23.083c-0.456,0.123-0.626,0.168-20.157,0.168c-7.135,0-13.728-0.008-14.75-0.012
			c-5.651-0.02-10.863-12.076-10.899-12.199c-1.61-5.562-4.847-17.114-9.612-34.334c-3.996-14.438-7.619-27.102-7.651-27.221
			l-0.081-0.273c-0.652-2.188-1.532-5.321-1.637-7.221c-0.434-7.918,7.275-9.02,9.651-9.164c0.587-0.035,30.158-0.166,30.437-0.166
			h0.06l0.05,0.002c3.875,0.154,6.538,0.765,7.92,1.812c2.256,1.709,4.028,5.521,5.583,11.981
			c1.821,6.402,17.123,60.229,17.599,62.924C-30.093,16.942-32.283,21.554-37.939,23.083z M-69.344,12.884
			c1.434,0.014,14.549,0.024,17.191,0.004c3.159-0.021,9.343,0.004,10.354,0.012c-0.07-0.654-0.224-1.488-0.289-1.842
			c-0.396-2.019-10.677-38.479-17.485-62.493l-0.027-0.107c-1.073-4.541-1.275-4.811-3.604-4.811h-0.172
			c-0.46-0.005-21.312-0.082-26.1-0.104l-1.654,1.654c0.05,0.172,0.104,0.354,0.162,0.541c1.945,6.395,16.109,57.895,17.73,63.79
			C-72.367,12.599-71.809,12.87-69.344,12.884z M-62.641-64.839L-62.641-64.839L-62.641-64.839L-62.641-64.839z"/>
		<path fill="#FA402B" d="M-120.025-10.689c6.787,4.549,12.396,11.134,17.143,20.133c0.869,1.646,2.777,5.938,1.68,10.104
			c-0.752,2.854-2.949,4.749-6.189,5.345c-0.881,0.161-1.836,0.235-3.006,0.235c-0.603,0-1.195-0.02-1.806-0.041
			c-0.356-0.014-0.698-0.025-0.924-0.028l-0.388,0.01c-7.848,0.139-15.168,0.216-20.609,0.216c-8.852,0-11.165-0.188-12.189-0.354
			c-2.354-0.375-4.127-1.809-5.567-2.976c-0.279-0.229-0.552-0.447-0.815-0.646c-3.251-2.429-13.65-9.601-16.312-10.841
			c-19.173-8.938-32.271-16.462-40.025-22.975c-10.46-8.655-18.173-19.409-22.305-31.102c-0.636-1.794-2.542-8.087-0.47-13.759
			c1.69-4.622,6.219-7.433,12.746-7.91c2.013-0.146,4.168-0.218,6.783-0.218c1.782,0,3.568,0.031,5.363,0.064
			c1.729,0.026,3.453,0.062,5.165,0.062l3.181-0.002c4.607,0,9.217,0.014,13.826,0.025l2.641,0.008
			c3.979,0.011,7.957,0.019,11.936,0.021l11.052,0.021c5.023,0.009,10.046,0.019,15.082,0.021c1.109,0,2.397-0.098,3.806-0.198
			c1.601-0.12,3.254-0.244,4.953-0.244c2.129,0,8.609,0,12.394,5.134c1.674,2.271,2.473,4.871,3.205,7.548
			c0.062,0.229,0.983,3.421,1.831,6.361c0.726,2.509,1.396,4.834,1.445,5.017c1.021,3.646-0.055,7.718-2.668,10.134
			c-2.547,2.354-5.795,2.654-8.341,2.654c-0.573,0-1.147-0.015-1.78-0.032c-0.627-0.019-1.227-0.037-1.832-0.019
			c-0.74,0.021-2.701,0.031-6.17,0.031c-5.572,0-13.81-0.027-20.514-0.055c3.734,2.12,8.579,4.49,14.742,6.877
			C-136.918-19.725-127.956-15.998-120.025-10.689z M-180.102-34.137c-0.426-2.188,0.24-3.562,0.875-4.331
			c0.789-0.958,1.951-1.507,3.188-1.507l48.869,0.001c0.086,0,0.175,0.002,0.269,0.005c-0.176-0.646-0.408-1.329-0.596-1.88
			c-0.21-0.622-0.408-1.219-0.562-1.77l-0.493-1.768c-0.53-1.896-1.062-3.795-1.615-5.688l-0.052-0.181
			c-0.329-1.126-0.729-2.496-1.277-3.146c-0.451-0.101-1.505-0.271-3.365-0.271c-0.426,0-0.727,0.014-0.912,0.021l-0.054,0.002
			l-80.642-0.137c-0.555,0-0.824,0.021-0.948,0.032c-4.058,0.496-4.546,1.027-4.757,2.212c-0.629,3.529,1.789,8.226,3.736,12.007
			l0.664,1.296c2.08,4.104,5.069,8.262,8.891,12.353c1.85,1.979,4.021,4.014,6.643,6.213c6.95,5.835,19.645,13.072,37.731,21.516
			c8.694,4.09,13.707,8.284,16.7,10.792l0.27,0.229c0.502,0.42,2.214,1.708,3.368,2.506l0.239-0.009
			c1.595-0.062,4.562-0.181,10.341-0.181c6.383,0,15.935,0.086,21.226,0.141c-3.463-7.136-8.025-12.627-13.574-16.347
			c-6.688-4.479-14.549-7.521-20.862-9.965c-11.091-4.293-20.726-9.592-27.14-14.926C-177.634-29.695-179.705-32.124-180.102-34.137
			z"/>
		<path fill="#FA402B" d="M-0.801,28.595c0.574-0.136,1.644-0.388,28.789-0.47l1.032-0.004c0.413-0.008,0.831-0.016,1.25-0.016
			c1.866,0,4.053,0.143,6.123,1.188c3.39,1.728,5.098,7.521,5.4,8.646c0.403,1.443,1.517,5.51,2.505,9.109
			c0.801,2.92,1.519,5.541,1.71,6.226c1.377,4.996,1.08,8.688-0.907,11.302c-1.72,2.258-4.467,3.401-8.165,3.401
			c-5.897,0-25.737,0.03-25.742,0.03c-6.958,0-10.747-2.502-13.076-8.634L-6.37,44.23c-0.57-1.764-2.3-7.766-0.604-11.094
			C-5.798,30.839-3.663,29.267-0.801,28.595z M31.135,39.188c-0.266-0.035-0.665-0.066-1.24-0.066c-0.471,0-2.332,0.07-3.467,0.117
			l-0.072,0.004l-0.072-0.002c-1.361-0.023-3.986-0.104-6.968-0.188c-4.836-0.144-10.855-0.316-13.548-0.316
			c-0.527,0-0.909,0.004-1.101,0.021c-0.678,0.07-1.093,0.168-1.334,0.246c0.035,0.328,0.153,0.939,0.521,1.972l0.043,0.137
			C6.881,51.182,7.87,54.52,8.193,55.66l0.012,0.029c0.32,0.836,0.595,1,1.153,1.106c0.316,0.019,1.535,0.045,6.209,0.045
			c4.586,0,11.375-0.024,20.198-0.079C34.013,49.503,31.967,41.61,31.135,39.188z"/>
		<path fill="#FA402B" d="M232.743,39.231l-0.006,0.469c0,20.226-9.561,30.057-29.221,30.057h-48.322
			c-10.411,0-18.536-3.297-25.57-10.37c-4.635-4.652-8.277-8.806-10.978-13.937c-0.943-1.789-3.812-7.23-0.422-12.372
			c2.495-3.794,8.021-4.396,10.373-4.479l90.658-0.019l0.114-0.16l2.023,0.104c4.027,0.194,6.814,1.124,8.524,2.833
			C232.829,34.276,232.773,37.504,232.743,39.231z M128.707,39.073c-0.092,0-0.178,0.002-0.256,0.004
			c0.777,2.193,4.144,7.2,9.126,12.19c4.769,4.801,10.036,6.851,17.612,6.851h48.324c10.448,0,16.206-4.027,17.604-12.324
			l0.118-0.682c0.624-3.549,0.617-5.15,0.469-5.826c-0.734-0.161-2.516-0.422-6.37-0.422c-0.832,0.002-83.198,0.209-86.278,0.209
			H128.707z"/>
	</g>
</symbol>
<g id="Layer_1_3_">
	<g id="Layer_1_2_">
		<g id="Layer_1_1_">
			<g opacity="0.3">
				<path fill="#FA402B" d="M202.636,49.23l0.003,0.263c-0.058-0.05-0.114-0.099-0.174-0.149
					C202.524,49.303,202.577,49.272,202.636,49.23z"/>
			</g>
			<g opacity="0.3">
				<path fill="#FA402B" d="M199.636,43.23l0.003,0.263c-0.058-0.05-0.114-0.099-0.174-0.149
					C199.524,43.303,199.577,43.272,199.636,43.23z"/>
			</g>
			<g opacity="0.3">
				<path fill="#FA402B" d="M215.636,51.23l0.003,0.263c-0.058-0.05-0.114-0.099-0.174-0.149
					C215.524,51.303,215.577,51.272,215.636,51.23z"/>
			</g>
			<g>
				<path fill="#FA402B" d="M328.044,49.722c-0.459-0.178-0.822-0.313-21.376-0.313c-0.148,0-14.806,0.012-15.312,0.065
					c-0.713,0.072-1.506,0.289-2.093,0.71c-1.542,1.107-2.102,3.207-2.512,4.966c-0.481,2.07-0.549,6.516-3.561,6.516
					c-0.001,0-17.062,0-17.062,0c-0.537,0-1.362-0.6-1.428-1.164c-0.112-0.922-0.052-2.042,0.049-2.961
					c0.112-1.023,0.782-1.948,1.01-2.95c0.618-2.721-0.635-3.82-1.437-4.342c-1.082-0.704-2.334-0.583-3.324-0.583
					c-0.028,0-0.056,0-0.083,0c-0.28,0-28.514-0.345-28.857-0.345c-1.158,0-2.531,0.003-3.942,0.53
					c-2.552,0.954-3.644,3.22-4.309,5.112l-0.026,0.069L217.1,80.898l-0.023,0.156c-0.281,1.941-0.614,3.9-0.539,5.869
					c0.133,3.535,2.979,7.379,10.131,8.268c0.009,0.001,5.384,0.001,12.548,0.001c14.327,0,35.805-0.001,35.805-0.001l1.26-0.027
					l-8.681,29.869c-0.255,0.779-1.274,4.307,0.435,6.44c1.406,1.753,4.616,2.192,5.931,2.192h0.058
					c0.292,0,29.271-0.416,29.527-0.418l0.271,0.037c1.056,0,2.354-0.435,3.573-1.367c1.271-0.981,1.794-2.562,2.155-4.146
					L328.95,56.23C330.1,52.578,329.792,50.398,328.044,49.722z M273.967,130.667c-1.429,0-2.823-0.879-3.103-1.147
					c-0.062-0.077-0.102-0.237-0.13-0.438c-0.022-0.16-0.039-0.338-0.041-0.551c-0.009-0.785,0.117-1.849,0.357-2.58l8.67-29.729
					c0.034-0.1,0.089-0.271,0.146-0.473c0.085-0.312,0.173-0.707,0.188-1.172c0.025-0.771-0.148-1.688-0.863-2.521
					c-0.318-0.367-1.115-0.479-1.956-0.52c-0.296-0.014-0.598-0.018-0.886-0.018c-0.846,0-1.574,0.139-1.697,0.139
					c0,0-47.686,0-47.689,0c-3.145,0-7.062-2.109-6.827-5.729c0.09-1.394,0.22-2.812,0.486-4.185l6.63-25.635
					c0.601-1.681,1.241-2.499,2.134-2.832c0.618-0.231,1.267-0.269,1.906-0.269c0.258,0,0.514,0.004,0.767,0.004
					c1.111,0,8.406-0.053,10.941-0.088c2.929-0.04,5.862,0.012,8.791-0.057c2.301-0.054,4.605,0.009,6.904-0.028
					c0.583-0.01,1.213,0.027,1.776,0.009c2.969-0.095,0.836,3.489,0.617,5.02c-0.193,1.346-0.202,2.867,0.302,4.15
					c0.694,1.768,2.371,2.5,4.17,2.618c0.194,0.013,0.384,0.019,0.569,0.019c0.026,0,17.054,0,17.062,0
					c1.248,0,2.606-0.114,3.617-0.924c1.021-0.818,1.625-2.021,2.17-3.178c0.891-1.891,1.108-4.115,1.73-6.109l0.015-0.044
					c0.345-1.233,0.518-1.299,0.945-1.344c0.696-0.018,7.024-0.042,14.761-0.042c11.081,0,19.253,0.113,19.253,0.113
					c-0.084,1-0.263,1.99-0.263,1.99l-19.396,71.737l-0.002,0.133c-0.146,0.604-0.279,1.121-0.42,1.5
					c-0.146,0.359-0.282,0.614-0.434,0.729c-0.291,0.229-0.415,0.531-1.142,0.531l-0.485,0.184
					C303.458,129.934,278.921,130.667,273.967,130.667z M304.902,129.514c-0.021,0.019-0.04,0.036-0.062,0.053
					C304.862,129.548,304.883,129.533,304.902,129.514z M304.744,129.642c-0.068,0.046-0.147,0.087-0.243,0.117
					C304.597,129.729,304.675,129.688,304.744,129.642z M304.47,129.771c-0.105,0.033-0.254,0.055-0.43,0.055
					C304.216,129.826,304.354,129.804,304.47,129.771z"/>
				<path fill="#FA402B" d="M211.642,9.597c-0.587-0.787-1.064-1.179-7.827-1.453c-3.498-0.142-8.323-0.22-13.602-0.22
					c-4.871,0-9.838,0.067-13.627,0.185c-6.682,0.206-7.143,0.46-7.588,0.705c-1.611,0.886-3.981,3.8-4.44,4.375l-0.107,0.153
					c-3.386,4.84-6.394,9.949-9.534,14.949c-0.906,1.443-3.661,6.032-1.789,9.439c1.277,2.322,4.927,3.938,5.615,3.938h37.649
					c2.058,0,5.895-0.915,8.479-3.457c1.676-1.648,2.474-4.831,3.113-6.992c0.103-0.346,0.201-0.697,0.298-1.005l-0.199-0.102
					c3.118-12.135,3.402-13.863,3.402-14.128c1-0.215,0.346-0.437,0.41-0.661C212.356,13.731,213.1,11.555,211.642,9.597z
					 M204.81,29.258c-0.098,0.312-0.196,0.751-0.299,1.099c-0.521,1.761-1.172,4.089-2.181,5.082
					c-1.727,1.697-4.728,2.229-5.938,2.229h-37.325c-1.116,0-2.49-1.152-2.763-1.644c-1.565-2.826,2.717-7.625,4.04-9.856
					c2.135-3.599,4.239-7.245,6.868-10.514c0.637-0.792,2.329-3.395,3.389-3.576c2.61-0.446,5.4-0.337,8.036-0.399
					c5.627-0.134,11.257-0.162,16.886-0.1c7.44,0.081,11.952,0.329,13.488,0.582c0.022,0.124,0.027,0.262,0.018,0.414
					c-0.027,0.457-0.183,1.04-0.389,1.748c-0.074,0.256-0.147,0.521-0.211,0.766l-0.008,0.058
					C208.28,15.693,205.032,28.392,204.81,29.258z"/>
				<path fill="#FA402B" d="M339.852,16.606c0.273-1.24,0.396-2.389,0.354-3.42c-0.038-0.934-0.185-2.128-0.998-3.09
					c-0.854-1.009-1.971-1.105-2.711-1.278c-1.079-0.251-2.116-0.151-3.012-0.151c-0.046,0-0.101,0-0.146,0
					c-0.087,0-0.175-0.165-0.262-0.163c-0.062,0.001-0.129-0.081-0.188-0.081L307.53,8.296c-0.067,0-1.65-0.013-3.042,0.038
					c-1.452,0.052-3.268,0.107-4.457,1.385c-1.212,1.298-2.156,4.521-2.413,5.465l-4.422,15.813
					c-0.234,0.715-0.431,1.455-0.588,2.205c-0.022,0.106-0.046,0.216-0.071,0.331c-0.254,1.16-0.602,2.749,0.125,4.168
					c0.7,1.372,2.476,2.958,4.122,3.131c0.124,0.013,0.414,0.043,6.888,0.043c2.66,0,26.038-0.009,27.621-0.331
					c1.801-0.366,2.509-2.22,2.89-3.216c0.038-0.1,0.073-0.193,0.108-0.279c0.287-0.711,0.489-1.539,0.667-2.268
					c0.037-0.153,0.073-0.3,0.113-0.457c0.035-0.145,0.059-0.29,0.079-0.418c0.008-0.052,0.016-0.104,0.021-0.149l4.651-17.062
					L339.852,16.606z M336.461,13.313c0.022,0.691-0.062,1.519-0.258,2.417l-4.646,17.056c-0.048,0.179-0.067,0.368-0.102,0.523
					c-0.008,0.048-0.015,0.096-0.023,0.137c-0.026,0.142-0.062,0.291-0.104,0.445c-0.148,0.608-0.317,1.296-0.502,1.756
					c-0.042,0.105-0.087,0.221-0.144,0.344c-0.087,0.228-0.24,0.65-0.388,0.898c-2.417,0.149-15.293,0.24-26.624,0.24
					c-4.325,0-6.049-0.015-6.476-0.025c-0.325-0.123-0.995-0.708-1.196-1.099c-0.027-0.072-0.035-0.184-0.029-0.319
					c0.017-0.405,0.15-1.016,0.224-1.353c0.029-0.13,0.056-0.256,0.08-0.372c0.13-0.625,0.296-1.243,0.492-1.838l4.458-15.951
					c0.438-1.631,1.155-3.462,1.521-3.888c0.301-0.174,1.438-0.215,1.874-0.23c1.332-0.049,2.907-0.056,2.908-0.056l25.354,0.086
					c0.085,0,0.171-0.208,0.258-0.21c0.064-0.001,0.139-0.209,0.195-0.209h0.062c0.729,0,1.512,0.256,2.233,0.426
					c0.195,0.045,0.604,0.243,0.696,0.313c0.031,0.062,0.103,0.314,0.123,0.875C336.463,13.291,336.461,13.304,336.461,13.313z"/>
				<path fill="#FA402B" d="M132.513,21.274C128.1,13.272,122.246,9.667,114.62,9.667H70.492c-9.017,0-16.713,2.499-23.532,8.095
					c-3.81,3.129-6.928,5.48-9.5,9.087c-2.205,3.088-4.075,7.045-1.223,11.115c1.834,2.619,6.416,3.703,7.311,3.703h82.28
					c1.357,0,6.468-1.092,8.061-4.002c1.835-3.354,2.052-5.555,1.538-8.286C134.844,26.262,133.917,23.735,132.513,21.274z
					 M126.707,37.667h-83.11c-1.447,0-3.828-0.781-4.391-1.584c-0.493-0.704-0.758-1.418-0.783-2.199
					c-0.042-1.312,0.596-2.811,1.988-4.76c2.314-3.245,5.251-5.492,8.849-8.448c6.143-5.042,13.088-7.008,21.232-7.008h44.128
					c6.275,0,10.955,2.774,14.725,9.617C131.906,27.766,134.929,37.667,126.707,37.667z"/>
				<path fill="#FA402B" d="M450.189,49.223c-0.579-0.014-1.433-0.026-2.52-0.036c-1.979-0.017-4.812-0.026-8.189-0.026
					c-3.72,0-24.115,0.038-25.184,0.207c-3.232,0.519-3.982,3.032-4.538,4.867l-0.095,0.318l-8.839,33.286
					c-1.326,4.949-4.364,7.479-9.551,7.699c-0.312,0.012-0.617,0.129-0.911,0.129c-0.001,0-0.001,0-0.002,0
					c-3.036,0-5.188-0.724-6.396-1.922c-1.603-1.599-1.459-4.494-0.941-6.52c0.307-1.211,0.722-2.418,1.064-3.615l0.018-0.044
					c6.729-24.351,7.45-26.978,7.528-27.272c0.479-1.654,0.853-3.813-0.433-5.817c-0.645-1.006-1.611-1.07-5.625-1.171
					c-2.303-0.058-5.465-0.086-9.398-0.086c-4.935,0-10.854,0.05-15.854,0.132c-8.319,0.136-8.479,0.22-8.956,0.465
					c-1.957,1.004-2.521,3.065-2.924,4.567c-0.043,0.158-0.085,0.322-0.128,0.474l-7.688,28.674
					c-1.72,6.256-2.556,12.09-2.556,17.771c0,4.854,0.688,9.065,2.046,12.399c2.97,7.541,8.979,13.053,17.86,16.133
					c2.418,0.854,5.345,1.787,8.939,2.354c4.591,0.727,9.428,1.578,14.784,1.578c3.105,0,16.619-0.355,28.539-5.838
					c4.889-2.247,9.75-5.166,14.373-8.861c4.797-3.836,8.692-8.098,11.583-12.667c3.134-4.958,5.188-10.31,7.312-16.812
					c0.065-0.213,0.146-0.428,0.225-0.646c0.179-0.511,0.356-1.037,0.504-1.605c0.625-2.508,1.96-7.479,3.771-14.18l0.018-0.041
					c0.042-0.178,4.267-17.333,4.36-17.736c0.915-3.568,0.652-4.487,0.312-5.122C452.186,49.272,451.349,49.252,450.189,49.223z
					 M448.777,55.15c-0.102,0.581-0.646,2.251-4.369,17.396c-1.815,6.709-3.154,11.324-3.786,13.854
					c-0.101,0.402-0.25,0.854-0.407,1.309c-0.083,0.24-0.167,0.504-0.244,0.742c-2.035,6.235-3.98,11.367-6.917,16
					c-2.665,4.217-6.284,8.223-10.755,11.797c-4.373,3.496-8.933,6.42-13.555,8.479c-1.712,0.761-3.464,1.432-5.247,2.004
					c-6.88,2.213-14.555,3.159-21.771,3.159c-5.155,0-9.811-0.771-14.195-1.47c-3.375-0.526-6.097-1.604-8.306-2.375
					c-7.809-2.709-13.062-7.371-15.604-13.854l-0.009-0.021c-1.187-2.883-1.774-6.562-1.774-10.938
					c0-5.34,0.792-10.814,2.426-16.758c0,0,7.765-28.952,7.812-29.12c0.216-0.795,0.457-1.682,0.832-2.069
					c2.184-0.133,12.895-0.326,23.292-0.326c7.773,0,10.887,0.115,12.104,0.198c0.021,0.132,0.031,0.273,0.03,0.426
					c-0.002,0.455-0.1,1.007-0.295,1.697c-0.077,0.281-7.322,26.485-7.535,27.253c-0.07,0.237-0.138,0.479-0.208,0.715
					c-0.424,1.44-1.009,2.938-1.195,4.422c-0.098,0.787-0.106,1.607-0.104,2.398c0,0.01,0.001,0.021,0.001,0.029
					c0.02,2.297,0.686,4.77,2.344,6.42c1.938,1.926,4.979,3.141,9.037,3.141h0.001c0.342,0,0.696-0.24,1.062-0.254
					c6.877-0.301,11.261-3.896,13.021-10.479l8.812-33.245l0.094-0.304c0.532-1.799,0.727-2.282,1.479-2.415
					c0.897-0.06,8.239-0.303,16.354-0.303c2.749,0,5.585,0,8.289,0c0.604,0,1.188,0.007,1.73,0.019
					c0.483,0.011,0.946,0.025,1.396,0.042c3.097,0.123,5.202,0.386,6.511,0.405C449.041,53.544,448.929,54.762,448.777,55.15z"/>
				<path fill="#FA402B" d="M194.652,49.665c-0.707-0.043-1.409-0.172-2.122-0.188c-2.577-0.058-5.158-0.022-7.736-0.022
					c-6.08,0-13.839,0.146-18.474,0.172c-1.84,0.011-3.23,0.203-3.902,0.204c-4.693,0.013-6.964,7.695-7.371,9.052
					c-0.091,0.388-0.953,3.034-9.779,34.916c-3.964,14.32-7.631,27.146-7.656,27.232c-0.141,0.5-0.3,1.018-0.455,1.512
					c-0.508,1.623-1.032,3.312-1.136,5.229c-0.276,5.049,4.727,5.376,6.371,5.479c0.396,0.021,0.799,0.041,1.2,0.041
					c0.563,0,25.568,0.254,25.568,0.254c0.027,0.002,0.062,0.004,0.106,0.004c0.502,0,2.037-0.139,3.318-0.139
					c0,0,4.739-0.188,5.943-1.104c2.273-1.726,3.867-8.229,4.316-10.104l16.112-56.771c0.092-0.3,0.9-2.908,1.421-5.853
					c0.852-4.805,0.467-7.621-1.208-8.978c-1.141-0.924-2.671-0.927-4.066-0.924C194.952,49.679,194.802,49.674,194.652,49.665z
					 M139.485,128.265c0,0.631,0.451,1.082,3.016,1.248c0.105,0.007,0.751,0.01,1.679,0.01c-0.928-0.001-1.474-0.004-1.579-0.012
					c-2.564-0.166-2.856-0.616-2.865-1.246c0-0.086,0.012-0.186,0.017-0.275c0.079-1.451,0.516-2.848,0.974-4.314
					c0.162-0.518,0.332-1.059,0.488-1.604c0.006-0.021,2.34-8.44,7.661-27.669c4.639-16.77,9.686-34.988,9.774-35.308
					c0.875-3.094,2.675-5.914,3.776-5.917c0.673-0.002,2.067-0.009,3.913-0.02c4.631-0.025,12.384,0.034,18.453,0.034
					c6.267,0,9.69,0.014,9.69,0.014c1,0.007,1.848,0.021,2.255,0.209c0.031,0.054,0.098,0.193,0.16,0.457
					c0.159,0.671,0.288,2.169-0.288,5.288c-0.501,2.711-1.246,5.167-1.253,5.192l-16.133,56.878l-0.017,0.067
					c-0.825,3.451-2.199,6.979-2.941,7.533c-0.032,0.023-0.825,0.596-4.216,0.596c-1.222,0-20.903,0.105-27.383,0.105l0,0
					c6.48,0,26.07-0.105,27.292-0.105c-1.222,0-20.476,0.18-27.476,0.18v0.062c0,0-0.104,0-0.237,0
					c-0.928,0-1.641-0.074-1.746-0.082c-2.579-0.166-3.017-0.647-3.017-1.293C139.485,128.285,139.485,128.273,139.485,128.265z
					 M194.614,52.004l-0.002,0.479c0,0,0,0-0.001,0L194.614,52.004L194.614,52.004z"/>
				<path fill="#FA402B" d="M128.905,49.737c-1.715-0.087-3.441-0.116-5.161-0.098c-0.527-0.006-11.41-0.134-20.401-0.134
					c-12.137,0-12.526,0.199-13.07,0.479c-1.401,0.726-4.885,3.414-5.448,3.885l-0.272,0.228c-2.733,2.287-7.308,6.115-15.155,9.805
					c-18.892,8.812-31.741,16.174-39.274,22.499c-9.514,7.873-16.34,17.065-20.287,27.323l-0.098,0.253
					c-1.028,2.66-2.192,5.675-2.131,8.815c0.067,3.473,1.212,6.295,3.224,7.951c1.973,1.623,4.7,1.92,6.892,2.149
					c0.317,0.034,0.627,0.062,0.924,0.104c0.595,0.073,1.226,0.082,1.818,0.082l80.519-0.129c0.131,0.004,0.531,0.021,1.086,0.021
					c3.626,0,6.124-0.496,7.426-1.479c2.685-2.035,3.623-5.449,4.376-8.199c0.113-0.406,0.223-0.797,0.336-1.186
					c0.687-2.354,1.355-4.709,2.002-7.021l0.6-2.084c0.114-0.402,0.228-0.688,0.342-1.096c0.637-2.255,0.149-4.438-1.305-6.252
					c-1.108-1.389-2.633-1.83-4.083-1.83c-0.704,0-1.39-0.166-2.002-0.166H67.859c3.505-3,11.129-8.361,24.84-13.67
					c7.079-2.738,15.102-6.229,22.257-11.021c6.937-4.645,12.513-11.417,16.576-20.242c1.206-2.619,1.386-5.015,0.52-6.984
					C131.491,50.474,130.433,49.815,128.905,49.737z M128.24,57.295c-3.779,8.21-8.927,14.564-15.3,18.832
					c-6.821,4.568-14.646,7.649-21.549,10.32c-10.924,4.229-20.247,9.42-26.25,14.422c0,0-4.537,3.408-4.875,5.133
					c-0.347,1.776,0.663,1.666,0.663,1.666h48.835c1.335,0,3.567-0.722,3.933,1.146c0.235,1.193-0.23,2.57-0.549,3.723
					c-0.795,2.854-1.589,5.698-2.419,8.545c-0.119,0.402-0.234,0.824-0.353,1.262c-0.672,2.451-1.366,4.98-3.07,6.271
					c-0.343,0.264-1.878,0.75-5.237,0.75c-0.582,0-0.966-0.021-0.969-0.021l-0.042-0.002l-80.594,0.139
					c-0.477,0-0.972-0.014-1.372-0.062c-0.314-0.039-0.642-0.074-0.978-0.109c-1.802-0.189-3.845-0.418-4.982-1.354
					c-1.593-1.312-1.876-3.836-1.903-5.228c-0.047-2.431,0.937-4.978,1.889-7.438l0.099-0.263
					c3.721-9.671,10.186-18.356,19.225-25.843c7.196-6.042,20.145-13.438,38.492-22.001c8.277-3.893,13.077-7.908,15.944-10.308
					l0.271-0.227c0.752-0.629,3.521-2.701,4.59-3.335c0.066-0.007,0.151-0.01,0.258-0.01c0.118,0,0.263,0.003,0.441,0.009
					c1.251,0.04,4.16,0.2,10.904,0.2c9.149,0,24.479-0.173,25.252-0.173c0.043,0,0.086,0.012,0.129,0.015
					c0.023,0.001,0.044,0.015,0.063,0.016c0.122,0.326,0.175,0.678,0.179,1.036C128.979,55.479,128.555,56.612,128.24,57.295z"/>
				<path fill="#FA402B" d="M233.742,41.118c0.904,0.09,10.37,0.129,18.06,0.129c4.402,0,8.224-0.013,9.521-0.036
					c6.886-0.124,7.144-0.66,7.66-0.965c1.787-1.062,2.335-3.028,3.245-6.287c0.73-2.62,1.646-5.969,2.454-8.924
					c0.688-2.519,1.338-4.897,1.742-6.341l0.017-0.062c0.678-2.429,1.702-6.1-0.053-8.418c-0.943-1.247-2.789-1.854-5.645-1.854
					c-0.546,0-26.101-0.076-26.101-0.076c-0.079-0.002-0.301-0.006-0.614-0.006c-4.199,0-5.361,0.868-5.744,1.153
					c-1.374,1.024-2.604,3.996-3.07,5.223l-0.025,0.077l-4.42,14.95c-0.085,0.269-0.938,3.06-1.259,5.133
					c-0.177,1.135,0.102,3.059,1.131,4.39C231.416,40.205,232.486,40.991,233.742,41.118z M240.523,12.539
					c0.155-0.082,1.143-0.102,2.101-0.102c0.971,0,1.91,0.046,1.917,0.046l25.115,0.184h0.082c0,0,3.105,0.053,3.302,0.181
					c0.217,0.335,0.283,0.942,0.267,1.626c-0.028,1.146-0.29,2.506-0.474,3.165l-0.017,0.054c-0.407,1.453-1.058,3.834-1.749,6.358
					c-0.806,2.95-1.72,6.292-2.448,8.902c-0.523,1.875-0.949,3.4-1.383,3.923c-1.654,0.157-8.448,0.306-19.2,0.306
					c-7.059,0-12.915-0.073-13.922-0.173c-0.075-0.008-0.131-0.033-0.19-0.055c-0.12-0.044-0.224-0.109-0.318-0.23
					c-0.266-0.345-0.373-0.857-0.396-1.181c-0.008-0.108-0.006-0.196,0.002-0.249c0.287-1.852,1.126-4.521,1.135-4.547l4.395-14.839
					C239.308,14.428,240.139,12.915,240.523,12.539z"/>
				<path fill="#FA402B" d="M457.194,34.07c-0.003-0.166-0.007-0.33-0.007-0.496c0-17.15-7.682-24.908-24.148-24.908H387.31
					c-8.695,0-15.604,2.632-21.719,8.777c-4.528,4.539-7.542,8.102-9.771,12.329c-0.784,1.487-2.621,5.029-0.569,8.135
					c1.487,2.258,5.652,2.612,6.894,2.658l87.6,0.016l0.044,0.062c1.272-0.063,4.397-0.295,5.761-1.651
					C457.253,37.276,457.219,35.473,457.194,34.07z M452.995,36.638c-0.4,0.281-1.979,1.028-3.354,1.028h-87.394
					c-1.672,0-3.634-0.792-3.973-1.228c-0.235-0.356-0.354-0.79-0.354-1.309c0.007-0.559,0.167-1.223,0.479-1.992
					c0.166-0.419,0.358-0.866,0.625-1.353c2.052-3.892,4.858-7.34,9.133-11.614c5.39-5.418,11.475-7.504,19.146-7.504h45.729
					c7.191,0,12.271,1.23,15.517,4.514c1.367,1.383,2.468,3.105,3.208,4.896c0.911,2.203,1.381,4.567,1.597,6.934
					c0.151,1.693,0.188,3.39,0.219,5.088C453.584,34.947,453.636,35.98,452.995,36.638z"/>
			</g>
			<g>
				<polygon fill="#FFFFFF" points="498.628,58.206 517.497,96.503 530.694,96.557 564.433,60.014 549.92,131.77 579.399,131.886 
					603.875,12.012 577.138,11.905 529.288,62.444 503.1,11.607 478.42,11.509 453.944,131.384 483.595,131.501 				"/>
				<polygon fill="#FFFFFF" points="703.696,35.294 708.417,12.005 628.038,11.682 603.561,131.556 685.998,131.886 
					690.719,108.253 637.589,108.041 642.836,82.353 689.625,82.542 694.343,59.766 647.381,59.576 652.451,35.089 				"/>
				<polygon fill="#FFFFFF" points="704.679,131.555 787.116,131.886 791.835,108.253 738.708,108.041 743.954,82.351 
					790.74,82.539 795.46,59.764 748.5,59.576 753.567,35.086 804.814,35.292 809.535,12.003 729.155,11.68 				"/>
				<polygon fill="#FFFFFF" points="816.107,38.812 850.388,38.951 831.333,131.769 860.982,131.886 880.037,39.07 914.143,39.206 
					919.562,12.149 821.703,11.755 				"/>
			</g>
			<g>
				<path fill="#FFFFFF" d="M1005.492,11.799l-14.336,70.212c-1.746,8.107-4.896,14.266-9.415,18.471
					c-4.533,4.211-10.282,6.301-17.25,6.273c-10.968-0.045-16.431-5.379-16.388-16.004c0.01-2.744,0.355-5.713,1.062-8.91
					L963.33,11.63l-29.822-0.122l-14.514,71.583c-0.815,3.998-1.231,8.051-1.248,12.164c-0.047,11.884,3.797,21.24,11.542,28.068
					c7.741,6.82,18.697,10.27,32.866,10.321c15.424,0.062,28.179-4.062,38.268-12.354c10.086-8.299,16.707-20.213,19.854-35.74
					l15.034-73.635L1005.492,11.799z"/>
				<path fill="#FFFFFF" d="M1133.564,21.323c-7.002-6.371-16.616-9.58-28.85-9.629l-46.103-0.185l-24.479,119.875l29.822,0.119
					l6.99-33.907l18.51,0.073c14.281,0.058,26.091-3.438,35.434-10.481c9.35-7.045,15.354-16.963,18.03-29.751
					c0.7-3.653,1.062-7.134,1.07-10.45C1144.045,36.249,1140.564,27.693,1133.564,21.323z M1113.804,55.093
					c-1.167,5.824-3.812,10.327-7.938,13.509c-4.127,3.185-9.396,4.761-15.786,4.733l-14.568-0.062l7.346-36.649l14.738,0.06
					c5.368,0.021,9.507,1.211,12.412,3.564c2.904,2.354,4.348,5.703,4.329,10.043C1114.333,51.783,1114.155,53.381,1113.804,55.093z
					"/>
				<g>
					<g>
						<g>
							<circle fill="#FF9900" cx="1315.287" cy="72.944" r="60.966"/>
						</g>
					</g>
					<g>
						<g>
							<path fill="#FFFFFF" d="M1335.807,75.184c0.688,0.325,3.479-1.244,4.026-1.621c1.263-0.86,2.123-1.871,2.876-3.19
								c0.605-1.059,0.953-1.844,1.307-3.006c0.368-1.208,0.562-2.631,0.575-3.896c0.021-1.845-0.447-3.397-1.149-5.02
								c-1.272-2.954-6.271-6.17-9.977-7.602c-0.591-0.229-1.183-0.46-1.779-0.679c-0.089-0.032-0.729-0.337-0.729-0.379
								l2.669-10.923l-6.661-1.78l-2.751,10.815l-5.26-1.268l2.607-10.761l-6.688-1.7l-2.683,10.963l-4.437-1.088l-9.229-2.242
								l-1.729,7.201l3.176,0.708c2.089,0.529,3.643,1.229,4.271,2.097c0.854,1.18,0.341,3.078,0.341,3.078l-6.957,27.95
								c-0.194,1.312-0.622,2.228-1.25,2.672c-1.457,1.029-3.602,0.129-3.602,0.129l-3.488-0.947l-3.313,7.701l13.473,3.482
								l-2.734,11.07l6.666,1.688l2.963-10.963l5.155,1.334l-2.757,10.933l6.812,1.776l2.844-11.168
								c5.428,1.361,19.162,3.447,23.353-8.396C1341.742,92.151,1347.154,80.569,1335.807,75.184z M1331.198,64.237
								c-0.138,0.589-0.372,3.968-3.777,4.98c-3.938,1.172-10.013-0.206-11.947-0.716c-0.045-0.013-1.628-0.583-1.627-0.586
								c0.144-0.566,3.354-13.314,3.354-13.314S1332.883,57.02,1331.198,64.237z M1318.674,91.72
								c-3.592-0.277-10.335-2.326-10.335-2.326l3.672-14.553c0,0,19.874,2.839,17.11,12.291
								C1329.121,87.132,1328.409,92.468,1318.674,91.72z"/>
						</g>
					</g>
				</g>
				<g>
					<path fill="#FFFFFF" d="M1140.306,118.333l15.653-21.158c10.148,8.429,21.502,12.557,34.404,12.557
						c11.697,0,18.578-3.439,19.781-9.805c1.377-7.225-3.955-11.697-19.953-16.342c-24.604-7.053-34.748-20.125-30.791-39.735
						c4.128-20.986,21.33-32.339,47.133-32.339c18.062,0,32.684,4.989,44.38,14.45l-15.825,20.298
						c-7.053-6.021-18.922-9.977-30.271-9.977c-9.638,0-15.653,3.097-16.857,8.945c-1.204,6.708,2.924,10.149,18.922,14.965
						c25.811,7.741,36.646,21.158,32.513,41.284c-4.302,21.502-22.526,33.543-50.229,33.543
						C1169.377,135.018,1152.347,129.169,1140.306,118.333z"/>
				</g>
			</g>
			<g>
				<g>
					<g>
						<g>
							<g>
								<polygon fill="none" points="194.606,53.162 194.616,52.483 194.616,52.483 194.61,52.483 								"/>
								<path fill="none" d="M190.212,11.55c-10.094,0-18.089,0.267-19.612,0.527c-0.706,0.487-2.126,2.018-3.155,3.296
									c-0.445,0.692-0.892,1.381-1.338,2.072c-0.783,1.212-1.565,2.421-2.342,3.637c-0.753,1.181-1.515,2.355-2.275,3.533
									c-1.158,1.792-2.354,3.638-3.504,5.471c-2.283,3.638-1.938,5.472-1.683,5.935c0.271,0.491,1.647,1.646,2.764,1.646h37.325
									c1.21,0,4.212-0.531,5.938-2.229c1.008-0.992,1.659-3.341,2.181-5.103c0.103-0.348,0.202-0.776,0.299-1.088
									c0.222-0.865,3.471-13.559,3.611-14.107l0.008-0.055c0.064-0.246,0.137-0.509,0.211-0.765
									c0.274-0.944,0.46-1.664,0.371-2.161C207.138,11.851,200.843,11.55,190.212,11.55z"/>
								<path fill="none" d="M194.606,53.667c-0.001,0-0.002,0-0.003,0c-0.347,0-0.674-0.246-0.969-0.266
									c-0.573-0.039-2.572-0.205-8.839-0.205c-6.069,0-13.822-0.016-18.453,0.01c-1.845,0.01-3.24-0.011-3.913-0.01
									c-1.102,0.003-2.901,2.808-3.776,5.902c-0.089,0.32-5.135,18.539-9.774,35.299c-5.321,19.22-7.654,27.644-7.66,27.664
									c-0.157,0.556-0.324,1.088-0.486,1.606c-0.458,1.467-0.892,2.854-0.97,4.306c-0.042,0.784-0.073,1.349,2.873,1.54
									c0.12,0.008,0.86,0.01,2.033,0.01c6.48,0,26.162-0.1,27.384-0.1c3.392,0,4.185-0.571,4.217-0.596
									c0.742-0.562,2.117-4.082,2.943-7.533l0.02-0.076l16.142-56.879c0.007-0.024,0.767-2.481,1.268-5.192
									c0.802-4.341,0.268-5.316,0.159-5.508C196.393,53.455,195.151,53.667,194.606,53.667L194.606,53.667L194.606,53.667z"/>
								<path fill="none" d="M336.34,12.51c-0.099-0.07-0.5-0.372-0.696-0.417c-0.729-0.17-1.508-0.426-2.232-0.426h-0.062
									c-0.062,0-0.131,0.208-0.188,0.209c-0.092,0.002-0.18,0.106-0.267,0.106l-25.354-0.034c-0.001,0-1.576,0.033-2.908,0.082
									c-0.435,0.015-1.573,0.069-1.874,0.243c-0.355,0.426-1.078,2.264-1.521,3.895l-4.462,15.954
									c-0.196,0.595-0.361,1.215-0.492,1.84c-0.024,0.116-0.051,0.242-0.08,0.372c-0.098,0.449-0.303,1.385-0.194,1.672
									c0.201,0.392,0.871,0.977,1.196,1.1c0.426,0.01,2.146,0.025,6.476,0.025c11.33,0,24.206-0.091,26.624-0.24
									c0.146-0.248,0.305-0.67,0.396-0.898c0.047-0.124,0.092-0.239,0.134-0.344c0.187-0.459,0.354-1.148,0.502-1.756
									c0.038-0.154,0.074-0.303,0.108-0.445c0.01-0.041,0.017-0.088,0.021-0.137c0.025-0.156,0.056-0.332,0.104-0.51l4.646-17.043
									c0.198-0.912,0.285-1.727,0.259-2.424C336.44,12.772,336.371,12.572,336.34,12.51z"/>
								<path fill="none" d="M129.345,23.284c-3.771-6.843-8.45-9.617-14.725-9.617H70.492c-8.144,0-15.089,1.977-21.232,7.019
									c-3.598,2.956-6.535,5.25-8.849,8.496c-2.221,3.11-2.525,5.036-1.205,6.92c0.563,0.803,2.944,1.566,4.391,1.566h83.11
									c1.814,0,4.033-0.859,4.443-1.608c1.295-2.365,1.137-3.768,0.717-5.998C131.357,27.346,130.547,25.387,129.345,23.284z"/>
								<path fill="none" d="M431.192,52.667c-8.107,0-15.449,0.229-16.354,0.289c-0.762,0.132-0.953,0.491-1.479,2.29l-0.1,0.33
									l-8.812,33.214c-1.767,6.58-6.146,10.31-13.021,10.604c-0.358,0.02-0.722,0.271-1.062,0.271h-0.001
									c-4.063,0-7.104-1.215-9.037-3.146c-1.665-1.65-2.331-4.021-2.346-6.331c-0.009-0.792,0.014-1.671,0.104-2.453
									c0.188-1.491,0.771-3.015,1.195-4.448c0.067-0.24,0.137-0.494,0.208-0.729c0.213-0.771,7.458-26.982,7.535-27.263
									c0.261-0.921,0.349-1.602,0.265-2.127c-1.227-0.083-4.33-0.2-12.109-0.2c-10.396,0-21.104,0.191-23.293,0.325
									c-0.375,0.388-0.609,1.273-0.83,2.069c-0.05,0.168-0.096,0.333-0.142,0.494l-7.669,28.625
									c-1.633,5.938-2.426,11.417-2.426,16.759c0,4.371,0.597,8.053,1.771,10.936l0.017,0.021
									c2.55,6.479,7.803,11.146,15.604,13.854c2.21,0.771,4.922,1.85,8.3,2.375c4.396,0.693,9.038,1.474,14.201,1.474
									c7.22,0,14.896-0.946,21.771-3.162c1.777-0.569,3.53-1.243,5.244-2.004c4.621-2.06,9.185-4.979,13.558-8.479
									c4.476-3.572,8.09-7.58,10.755-11.797c2.93-4.629,4.881-9.762,6.917-16c0.078-0.237,0.161-0.49,0.244-0.729
									c0.158-0.452,0.311-0.889,0.407-1.29c0.632-2.534,1.97-7.121,3.781-13.83c3.729-15.146,4.272-16.76,4.368-17.341
									c0.147-0.388,0.269-1.717,0.347-2.128c-1.709-0.024-4.776-0.466-9.646-0.466C436.777,52.667,433.941,52.667,431.192,52.667z
									"/>
								<path fill="none" d="M234.114,37.008c1.007,0.1,6.863,0.173,13.922,0.173c10.751,0,17.545-0.149,19.2-0.307
									c0.435-0.523,0.86-2.05,1.383-3.925c0.728-2.61,1.642-5.956,2.448-8.907c0.69-2.524,1.342-4.912,1.749-6.365l0.017-0.069
									c0.293-1.051,0.788-3.864,0.207-4.761c-0.197-0.127-3.302-0.181-3.302-0.181h-0.082l-25.115-0.184
									c-0.007,0-0.946-0.017-1.917-0.017c-0.958,0-1.946,0.006-2.101,0.087c-0.384,0.377-1.216,1.883-1.782,3.361l-4.396,14.835
									c-0.009,0.027-0.848,2.694-1.135,4.546c-0.033,0.212,0.039,0.969,0.394,1.429C233.747,36.906,233.889,36.985,234.114,37.008
									z"/>
								<polygon fill="none" points="111.036,122.518 111.045,122.509 111.045,122.507 110.388,122.335 								"/>
								<path fill="none" d="M113.32,111.91c0.115-0.412,0.229-0.826,0.345-1.236c0.32-1.133,0.079-1.924-0.646-2.83
									c-0.238-0.295-0.61-0.314-1.096-0.314c-0.573,0-1.305,0.146-2.16,0.146H60.928c0,0-1.01,0.109-0.663-1.666
									c0.338-1.729,4.875-5.1,4.875-5.1c6.004-5.005,15.326-10.214,26.25-14.439c6.903-2.67,14.728-5.76,21.549-10.324
									c6.373-4.271,11.521-10.625,15.3-18.835c0.42-0.912,1.034-2.625,0.547-3.927c-0.02-0.001-0.041-0.016-0.063-0.017
									c-0.043-0.002-0.086-0.015-0.129-0.015c-0.773,0-16.103,0.173-25.252,0.173c-7.708,0-10.405-0.209-11.346-0.209
									c-0.107,0-0.192,0.003-0.258,0.01c-1.069,0.634-3.838,2.707-4.59,3.335l-0.271,0.227C84.01,59.284,79.21,63.3,70.933,67.193
									c-18.347,8.561-31.296,15.958-38.492,22c-9.039,7.479-15.503,16.172-19.225,25.846l-0.099,0.254
									c-0.952,2.465-1.936,5.015-1.889,7.438c0.027,1.392,0.311,3.913,1.903,5.228c1.137,0.938,3.18,1.156,4.982,1.354
									c0.336,0.035,0.663,0.069,0.978,0.108c0.4,0.05,0.896,0.058,1.372,0.058l80.594-0.133l0.042,0.002
									c0.003,0,0.387,0.021,0.969,0.021c3.359,0,4.894-0.488,5.237-0.75c1.704-1.291,2.398-3.822,3.07-6.271
									c0.118-0.434,0.234-0.854,0.353-1.262c0.68-2.328,1.346-4.711,1.991-7.018L113.32,111.91z"/>
								<path fill="none" d="M291.67,53.071c-0.427,0.045-0.601,0.114-0.945,1.347l-0.015,0.05c-0.173,0.555-0.347,1.106-0.519,1.66
									c-0.281,0.904-0.285,1.83-0.531,2.732c-0.186,0.679-0.446,1.329-0.755,1.961c-0.59,1.204-1.219,2.347-2.373,3.115
									c-0.962,0.64-2.189,0.729-3.34,0.729c-0.001,0-17.035,0-17.062,0c-1.479,0-3.336-0.373-4.156-1.665
									c-0.724-1.14-0.988-2.52-0.968-3.851c0.012-0.812,0.142-1.58,0.318-2.371c0.257-1.161,0.968-2.216,0.959-3.432
									c-0.003-0.514-0.518-0.561-0.977-0.561c-0.14,0-0.275,0.013-0.388,0.013c-0.245,0-28.538,0.217-28.857,0.217
									c-0.252,0-0.509-0.006-0.767-0.006c-0.639,0-1.288,0.032-1.906,0.263c-0.893,0.334-1.534,1.137-2.134,2.818l-6.63,25.607
									c-0.266,1.369-0.396,2.848-0.486,4.239c-0.235,3.618,3.682,5.729,6.827,5.729c0.003,0,47.689,0,47.689,0
									c0.123,0,0.851-0.146,1.697-0.146c1.105,0,2.411,0.083,2.841,0.579c1.427,1.646,0.7,3.614,0.529,4.112l-8.67,29.684
									c-0.386,1.176-0.479,3.266-0.186,3.629c0.28,0.27,1.674,1.143,3.103,1.143h0.025c4.928,0,29.465-0.729,29.559-0.729
									l0.485-0.107c0.728,0,0.852-0.34,1.142-0.562c0.292-0.228,0.579-1.022,0.859-2.233l0.017-0.104l19.425-71.674l0.02-0.043
									c0.213-0.682,0.388-1.47,0.47-2.059c-2.312-0.062-8.211-0.118-19.292-0.118C298.932,53.028,292.366,53.053,291.67,53.071z"
									/>
								<path fill="none" d="M453.562,33.433c0-7.783-1.646-12.842-5.018-16.253c-3.245-3.283-8.312-4.514-15.517-4.514h-45.721
									c-7.677,0-13.762,2.097-19.146,7.515c-4.271,4.273-7.081,7.713-9.133,11.605c-1.167,2.212-1.376,3.694-0.75,4.643
									c0.338,0.436,2.3,1.237,3.973,1.237h87.396c1.377,0,2.947-0.743,3.354-1.023c0.581-0.596,0.597-1.363,0.576-2.556
									C453.567,33.9,453.562,33.62,453.562,33.433z"/>
								<g>
									<path fill="#FFFFFF" d="M327.537,50.981c-0.689-0.153-6.748-0.217-20.869-0.217c-1.195,0-14.306,0.014-15.191,0.059
										c-0.576,0.062-1.104,0.229-1.421,0.459c-1.146,0.822-1.607,2.457-1.982,4.065c-0.075,0.324-0.145,0.737-0.218,1.184
										c-0.189,1.144-0.424,2.508-0.981,3.688c-0.984,2.085-2.546,2.445-3.683,2.445c0,0-17.06,0-17.062,0
										c-1.488,0-2.67-1.11-2.822-2.562c-0.124-1.194-0.015-2.495,0.304-3.653c0.271-0.986,0.897-1.873,0.958-2.916
										c0.052-0.902-0.185-1.824-0.984-2.343c-1.092-0.709-2.467-0.518-3.698-0.509c-2.505,0.019-5.01-0.052-7.515-0.048
										c-1.594,0.003-3.189-0.018-4.784-0.029c-7.183-0.05-15.324-0.089-15.527-0.089c-1.031,0-2.25,0.069-3.466,0.524
										c-1.999,0.747-2.889,2.59-3.493,4.298l-0.009,0.032l-6.66,25.784l-0.013,0.091c-0.03,0.205-0.061,0.414-0.091,0.623
										c-0.255,1.73-0.496,3.366-0.434,5.002c0.041,1.094,0.422,2.625,2.003,4.104c1.542,1.438,3.913,2.69,6.859,2.69
										c0.461,0,3.136,0,12.461,0c14.109,0,35.154,0.082,35.791,0.082l1.245,0.019l1.849-0.021l-0.516,1.778
										c0,0-8.681,29.874-8.695,29.912c-0.334,1.021-0.948,3.933,0.204,5.358c1.014,1.271,3.711,1.863,4.873,1.863h0.058
										c0.284,0,8.999-0.123,16.688-0.297c7.756-0.177,11.696-0.203,12.62-0.225l0.089-0.232l0.196-0.246h0.205
										c0.794,0,1.812-0.229,2.742-0.951c0.938-0.729,1.354-1.998,1.675-3.338c0,0,0.006,0.035,0.012,0.041
										c0,0,19.397-71.542,19.411-71.58c0.632-2.025,0.663-3.175,0.578-3.785C328.137,51.309,327.85,51.103,327.537,50.981z
										 M327.304,53.333c-0.097,0.687-0.286,1.522-0.514,2.266l-19.409,71.611l-0.006,0.033l-0.006,0.034l-0.009,0.029
										c-0.396,1.702-0.773,2.541-1.354,2.979c-0.008,0.012-0.041,0.037-0.062,0.062c-0.396,0.375-0.894,0.723-1.786,0.748
										l-0.396,0.305l-0.104,0.254h-0.104c-0.062,0-0.43-0.309-1.017-0.291c-20.008,0.503-26.572,0.291-28.58,0.291
										c-1.806,0-3.524-0.854-4.042-1.35l-0.064-0.007l-0.056-0.059c-0.857-1.068-0.336-3.873-0.052-4.768l8.665-29.688
										l0.009-0.025l0.01-0.026l0.01-0.03c0.517-1.496,0.143-2.271-0.223-2.723c-0.129-0.057-0.606-0.216-1.874-0.216
										c-0.572,0-1.101-0.054-1.385-0.031c-0.158,0.013-0.238-0.085-0.312-0.085h-47.689c-2.503,0-5.018-0.93-6.564-2.572
										c-1.165-1.24-1.724-2.604-1.617-4.25c0.077-1.188,0.205-3.178,0.512-4.178c0.037,0,0.118-0.59,0.299-1.285l0.751-2.955
										l2.279-8.833l3.315-12.82l0.015-0.066l0.021-0.061c0.928-2.597,2.057-3.31,2.938-3.638c0.823-0.308,2.65-0.35,2.783-0.349
										c0.122,0.001,8.888-0.061,16.225-0.116c2.446-0.018,4.893-0.031,7.338-0.054c1.501-0.014,3.001-0.017,4.502-0.03
										c1.333-0.012,3.349-0.285,3.807,1.402c0.296,1.091-0.212,2.178-0.551,3.194c-0.364,1.094-0.653,2.232-0.662,3.391
										c-0.008,1.035,0.201,2.122,0.763,3.005c0.525,0.828,1.943,1.213,3.011,1.213h17.062c0.922,0,1.89-0.216,2.588-0.681
										c0.793-0.527,1.315-1.549,1.82-2.583l0.086-0.168c0.289-0.588,0.512-1.167,0.665-1.726
										c0.093-0.342,0.148-0.716,0.206-1.114c0.077-0.533,0.157-1.082,0.339-1.666c0.101-0.324,0.202-0.647,0.303-0.971
										l0.212-0.679l0.009-0.032c0.332-1.186,0.721-2.202,2.107-2.349l0.054-0.031h0.054c0.769,0,7.647-0.021,15.034-0.021
										c12.979,0,17.681,0.085,19.328,0.129l1.519,0.047L327.304,53.333z"/>
									<path fill="#FFFFFF" d="M450.156,50.58c-0.566-0.014-7.287-0.062-10.675-0.062c-6.623,0-23.741,0.057-24.979,0.191
										c-2.215,0.36-2.822,1.849-3.437,3.912l-0.099,0.299l-8.834,33.266c-1.479,5.532-5.016,8.343-10.804,8.595
										c-0.329,0.014-0.653,0.02-0.97,0.02c-3.41,0-5.887-0.733-7.354-2.207c-0.774-0.771-2.479-3.098-1.308-7.754
										c0.204-0.812,1.165-3.646,1.165-3.646c6.479-23.452,7.604-26.939,7.604-27.259V55.93l-0.065-0.005
										c0.416-1.467,0.672-3.175-0.312-4.715c-0.086-0.135-0.157-0.224-0.67-0.319c-0.725-0.135-1.951-0.174-3.872-0.222
										c-2.267-0.057-5.422-0.086-9.367-0.086c-4.884,0-10.807,0.049-15.841,0.132c-4.812,0.079-7.888,0.155-8.309,0.29
										c-0.018,0.006-0.031,0.016-0.055,0.026c-1.426,0.729-1.854,2.315-2.23,3.713c0,0-0.104,0.379-0.131,0.482l-7.676,28.658
										c-1.688,6.146-2.517,11.845-2.517,17.425c0,4.72,0.653,8.719,1.944,11.888l0.003,0.012l0.003,0.01
										c2.854,7.252,8.592,12.416,17.044,15.35c2.485,0.869,5.261,1.753,8.711,2.297c0.403,0.061,0.812,0.129,1.217,0.189
										c4.224,0.674,8.575,1.369,13.358,1.369c2.598,0,16.146-0.273,27.975-5.715c5.032-2.314,9.772-5.236,14.099-8.689
										c4.68-3.736,8.476-7.891,11.276-12.331c3.062-4.841,5.076-10.101,7.17-16.511c0.067-0.217,0.146-0.438,0.226-0.646
										l0.008-0.021c0.168-0.479,0.341-0.979,0.47-1.489c0.625-2.513,1.964-7.485,3.777-14.19l0.204-0.025
										c0.114-0.463,4.562-17.333,4.562-17.729V55.07l-0.188-0.005c0.854-3.352,0.451-3.924,0.334-4.139
										C451.499,50.672,451.367,50.61,450.156,50.58z M449.753,56.96c-0.458,1.74-1.529,5.815-4.027,15.965l-0.004,0.016
										l-0.004,0.016c-0.83,3.064-1.571,5.73-2.167,7.873c-0.711,2.553-1.271,4.569-1.604,5.93
										c-0.112,0.447-0.271,0.902-0.443,1.408c-0.085,0.246-0.17,0.504-0.235,0.703c-2.073,6.371-4.064,11.582-7.06,16.305
										c-2.792,4.418-6.512,8.5-11.055,12.142c-4.667,3.729-9.327,6.646-13.854,8.646c-1.753,0.781-3.562,1.479-5.382,2.062
										c-6.562,2.104-14.233,3.229-22.188,3.229c-5.036,0-9.51-0.707-13.818-1.394l-0.597-0.094
										c-3.062-0.479-5.604-1.396-7.646-2.122c-0.304-0.104-0.599-0.219-0.885-0.312c-8.196-2.849-13.729-7.771-16.436-14.642
										l-0.006-0.021c-1.23-3.032-1.871-6.891-1.871-11.438c0-5.462,0.812-11.062,2.479-17.114l7.667-28.62l0.003-0.01l0.002-0.01
										c0.044-0.156,0.681-2.499,1.298-3.137l0.366-0.379l0.521-0.032c2.162-0.132,12.938-0.328,23.375-0.328
										c7.646,0,10.854,0.11,12.205,0.202l1.078,0.073l0.17,1.067c0.116,0.729,0.024,1.562-0.298,2.701
										c-0.116,0.422-4.132,14.948-6.297,22.773l-1.236,4.479l-0.003,0.016l-0.003,0.01c-0.035,0.119-0.456,1.522-0.581,1.912
										c-0.337,1.055-0.647,2.043-0.771,3.016c-0.104,0.771-0.104,1.595-0.104,2.223c0.02,1.522,0.355,3.678,1.946,5.262
										c1.671,1.666,4.389,2.508,8.079,2.508c0.391,0,0.712-0.004,1.014-0.02c6.297-0.271,10.146-3.334,11.761-9.354l8.812-33.18
										l0.01-0.037l0.018-0.036l0.088-0.258c0.53-1.797,0.924-2.829,2.552-3.111l0.064-0.012l0.067-0.047
										c0.879-0.059,6.941-0.113,16.438-0.113h4.179h4.108c3.312,0,5.774,0.144,7.588,0.217c0.854,0.035,1.525,0.084,2.062,0.092
										l1.621,0.034C450.758,52.011,449.961,56.169,449.753,56.96z"/>
									<path fill="#FFFFFF" d="M455.911,34.096c0.009-1.042-0.104-2.097-0.16-3.046c-0.179-3.068-0.596-6.135-1.688-9.024
										c-1.964-5.181-4.73-8.422-9.925-10.078c-4.059-1.295-9.799-1.336-14.015-1.304c-3.568,0.027-7.139,0.057-10.707,0.029
										c-4.593-0.036-9.188-0.025-13.782-0.005c-4.074,0.018-8.146,0.005-12.225-0.004c-2.004-0.004-4.01,0.025-6.018,0.006
										c-0.026,0-0.061-0.003-0.09-0.003c-8.75,0-15.146,2.426-20.757,8.06c-4.384,4.394-7.349,7.721-9.533,11.864
										c-0.729,1.383-2.237,4.237-0.637,6.673c0.897,1.361,3.671,2.122,5.786,2.204l87.564,0.2c0,0,3.27,0.072,4.846-1.54
										C455.631,37.052,455.896,35.588,455.911,34.096z M453.69,37.818c-0.403,0.283-2.2,0.849-4.058,0.849H362.29h-0.044
										c-1.83,0-4.328-0.653-5.044-1.575l-0.032,0.101l-0.028,0.01c-0.938-1.428-0.721-3.391,0.688-6.049
										c1.979-3.756,4.696-7.195,9.373-11.881c2.791-2.806,5.801-4.661,9.202-5.939c3.188-1.198,6.757-1.667,10.901-1.667h45.729
										c8.088,0,13.171,1.387,16.479,4.737c3.688,3.729,5.401,9.142,5.401,17.114c0,0.179,0.003,0.424,0.006,0.604
										C455.128,37.146,453.69,37.818,453.69,37.818z"/>
									<path fill="#FFFFFF" d="M158.891,39.667h37.5c1.555,0,5.129-0.386,7.528-2.746c1.274-1.253,2.033-3.724,2.587-5.626
										c0.061-0.209,0.12-0.36,0.181-0.54c0.102-0.343,0.198-0.654,0.295-0.963l0.017-0.052
										c3.066-11.934,3.551-13.822,3.623-14.105c0.059-0.224,0.124-0.449,0.195-0.693c0.424-1.461,0.905-3.117-0.151-4.534
										c-0.129-0.174-0.194-0.261-0.849-0.403c-1.018-0.22-2.883-0.376-6.05-0.504c-3.475-0.141-8.289-0.219-13.554-0.219
										c-4.845,0-9.796,0.067-13.585,0.185c-5.632,0.173-6.687,0.378-6.977,0.538c-2.504,1.378-4.461,4.487-6.004,6.797
										c-2.63,3.938-4.988,8.074-7.504,12.086l-0.077,0.119c-0.345,0.549-1.261,2-1.796,3.634
										c-0.58,1.767-0.563,3.006,0.047,4.117C155.23,38.416,158.075,39.667,158.891,39.667z M156.836,29.382
										c1.145-1.826,2.334-3.668,3.486-5.451l0.028-0.043c1.723-2.614,3.396-5.26,5.085-7.896
										c1.172-1.828,2.583-3.782,4.395-5.032l0.247-0.17l0.295-0.05c1.794-0.307,10.509-0.547,19.84-0.547
										c11.211,0,17.175,0.324,19.018,0.627l0.946,0.156c0,0,0.169,0.942,0.169,0.944c0.204,1.134-0.285,2.401-0.566,3.491
										c-1.222,4.726-2.439,9.454-3.656,14.182l-0.009,0.033c0,0-0.009,0.03-0.01,0.032c-0.666,2.196-1.117,4.888-2.824,6.567
										c-1.995,1.962-5.285,2.44-6.89,2.44h-37.325c0,0-0.108,0-0.117,0l-0.115,0.233c-1.469-0.255-3.236-1.38-3.72-2.26
										C154.796,36.061,153.982,33.931,156.836,29.382z"/>
									<path fill="#FFFFFF" d="M139.105,131.153c1.171,0.599,2.606,0.69,3.376,0.74c0.367,0.022,0.741,0.032,1.112,0.032
										c0.564,0,24.561,0.24,25.582,0.25l0.05-0.25c0,0,0.032-0.258,0.042-0.258c0.152,0,0.508,0.24,0.885,0.217
										c0.669-0.039,1.584,0.047,2.405,0.046c2.269-0.093,4.673-0.418,5.154-0.767c0.578-0.438,2.108-2.193,3.829-9.334
										c0,0,16.111-56.771,16.12-56.795c0.088-0.287,0.879-2.889,1.383-5.737c0.734-4.147,0.49-6.833-0.727-7.817
										c-1.088-0.879-2.719-0.932-4.041-0.747c-2.007,0.282-4.137,0.057-6.162,0.059c-0.984,0.001-2.09,0.006-3.32,0.006
										c-3.658,0-7.962,0.057-11.76,0.106c-3.029,0.039-6.099-0.067-9.119,0.204c-1.79,0.161-3.279,0.426-4.523,1.848
										c-1.216,1.389-1.957,3.194-2.561,4.917c-1.266,3.614-2.191,7.385-3.221,11.071c-1.37,4.903-2.753,9.804-4.112,14.709
										c-0.973,3.513-1.95,7.024-2.922,10.537c-3.322,12-6.42,22.892-7.598,27.017l-0.059,0.207
										c-0.149,0.525-0.318,1.063-0.466,1.541c-0.482,1.543-0.981,3.139-1.076,4.889
										C137.29,129.455,137.839,130.505,139.105,131.153z M138.408,127.898c0.087-1.622,0.545-3.087,1.03-4.639l0.003-0.01
										c0.158-0.504,0.321-1.025,0.471-1.562c0.023-0.083,0.268-0.967,1.398-5.049l6.261-22.616
										c4.639-16.76,9.685-34.987,9.774-35.307c0.454-1.604,1.17-3.236,1.967-4.485c1.04-1.629,2.058-2.423,3.113-2.426
										c0.672-0.002,2.066-0.009,3.909-0.02c4.636-0.025,12.389-0.069,18.461-0.069c5.06,0,8.064,0.03,8.931,0.089
										c0.256,0.018,0.563,0.098,0.888,0.103l-0.004,0.754c0.002,0,0.004,0,0.006,0l0.009-0.754
										c1.312,0.018,2.181,0.041,2.739,0.294l0.399,0.163l0.217,0.371c0.423,0.742,0.766,2.497-0.003,6.66
										c-0.496,2.682-1.228,5.089-1.301,5.328l-16.134,56.853l-0.013,0.049c-0.466,1.938-1.983,7.186-3.44,8.285
										c-0.431,0.32-1.656,0.871-5.036,0.871c-0.367,0-2.438,0.008-5.303,0.02c-6.568,0.029-17.561,0.078-22.081,0.078
										c-1.906,0-2.041-0.008-2.121-0.014C140.289,130.72,138.272,130.382,138.408,127.898z"/>
									<path fill="#FFFFFF" d="M43.569,39.667h82.261c1.232,0,5.641-0.731,6.87-2.978c1.736-3.171,1.832-4.796,1.395-7.117
										c-0.523-2.79-1.349-4.988-2.76-7.461l-0.005,0.008l-0.005,0.128c-4.026-7.3-9.334-10.581-16.705-10.581h-0.05H70.492
										c-9.173,0-16.376,2.297-22.671,7.462c-0.587,0.482-1.158,0.906-1.71,1.352c-3.059,2.473-5.475,4.386-7.545,7.289
										c-0.802,1.123-1.911,2.796-2.284,4.584c-0.355,1.698-0.005,3.04,1.068,4.572C38.809,39.009,42.818,39.667,43.569,39.667z
										 M39.307,28.368c2.26-3.168,5.087-5.49,8.361-8.172c0.24-0.197,0.484-0.405,0.731-0.608
										c3.162-2.595,6.534-4.212,10.31-5.431c3.563-1.15,7.417-1.49,11.783-1.49h44.128c6.959,0,12.015,3.062,15.908,10.124
										c1.373,2.405,2.172,4.466,2.671,7.13c0.444,2.357,0.642,3.939-0.861,6.682c-0.745,1.362-3.588,2.064-5.632,2.064H43.625
										h-0.029c-1.604,0-4.545-0.621-5.502-1.986C35.956,33.626,37.507,30.888,39.307,28.368z"/>
									<path fill="#FFFFFF" d="M11.692,129.751c1.661,1.367,4.165,1.916,6.177,1.916h0.029c0.317,0,0.617,0.006,0.916,0.041
										c0.522,0.062,1.102,0.086,1.651,0.086l80.517-0.127h0.029l0.028-0.031c0.315,0.014,0.672,0.015,1.031,0.015
										c4.362,0,6.012-0.769,6.606-1.219c2.321-1.759,3.189-4.937,3.887-7.481c0.107-0.394,0.22-0.791,0.343-1.211
										c0.598-2.047,1.022-4.275,1.788-7.009l0.601-2.091c0.066-0.234,0.234-0.428,0.296-0.612
										c0.053-0.159,0.19-0.456,0.238-0.626c0.508-1.796,0.134-3.4-1.066-4.898c-0.634-0.791-1.469-1.104-3.01-1.104
										c-0.337,0-0.676,0.135-1.01,0.146c-0.326,0.015-0.656,0.127-0.979,0.127H67.859h-3.761l2.895-2.502
										c6.522-5.42,15.007-10.2,25.216-14.151c8.883-3.437,16.076-7.067,21.991-11.028c6.726-4.502,12.142-11.162,16.099-19.757
										c1.039-2.256,1.216-4.306,0.511-5.909c-0.822-1.87-3.406-1.264-5-1.419c-0.692-0.067-1.382-0.24-2.082-0.24
										c-0.461,0-11.408,0.031-20.385,0.031c-9.802,0-12.066,0.214-12.451,0.412c-1.205,0.624-4.551,3.229-5.197,3.769
										l-0.273,0.244c-2.783,2.329-7.441,6.235-15.448,10c-18.786,8.763-31.535,16.064-38.979,22.314
										c-9.34,7.729-16.031,16.736-19.893,26.773l-0.098,0.256c-0.982,2.543-2.096,5.455-2.041,8.328
										C9.023,125.865,9.992,128.353,11.692,129.751z M11.853,114.794l0.099-0.254c3.805-9.896,10.408-18.772,19.626-26.399
										c7.279-6.11,20.33-13.577,38.783-22.185c8.115-3.816,12.83-7.761,15.647-10.119l0.271-0.228
										c0.812-0.68,3.649-2.797,4.769-3.461l0.254-0.151l0.294-0.032c0.114-0.012,0.242-0.018,0.401-0.018
										c0.274,0,0.643,0.016,1.201,0.041c1.289,0.058,25.438,0.085,33.762,0.093c1.743,0.001,2.792,0.002,2.792,0.002l0.306,0.818
										c0.217,0.582,0.288,1.195,0.262,1.803c-0.049,1.152-0.445,2.287-0.848,3.161c-3.897,8.466-9.206,14.989-15.778,19.388
										c-7.136,4.781-15.274,7.928-21.814,10.457c-10.512,4.067-19.61,9.041-25.661,14.021l-0.069,0.129l-0.027,0.048
										l-0.032,0.029l-4.241,4.227l47.914,0.008c0.417,0,0.809,0.004,1.187-0.021c0.34-0.021,0.662-0.021,0.973-0.021
										c0.358,0,1.446,0,2.155,0.889c1.04,1.298,1.315,2.543,0.893,4.033c-0.116,0.41-0.23,0.818-0.344,1.23l-0.601,2.145
										l-0.013,0.055c-0.641,2.291-1.304,4.654-1.981,6.979c-0.115,0.396-0.219,0.803-0.337,1.229l-0.65-0.179v0.002
										c0,0.008-0.009,0.011-0.009,0.013l0.653,0.188c-0.731,2.668-1.49,5.438-3.561,7.008c-0.861,0.65-3.069,0.988-6.058,0.988
										c-0.549,0-0.933-0.031-1.018-0.031h-0.006l0.438,0.004v-0.021l-81,0.133v0.008v0.007c-1,0-1.077,0.013-1.549-0.052
										c-0.305-0.035-0.626-0.057-0.963-0.092c-1.99-0.217-4.25-0.463-5.699-1.654c-2.012-1.651-2.367-4.621-2.398-6.24
										C9.822,120.054,10.854,117.38,11.853,114.794z"/>
									<path fill="#FFFFFF" d="M233.877,39.768c0.698,0.069,8.404,0.122,17.924,0.122c4.625,0,8.265-0.014,9.497-0.036
										c5.961-0.106,6.61-0.531,6.824-0.67c0.057-0.037,0.112-0.072,0.168-0.105c1.265-0.751,1.72-2.225,2.63-5.485
										c0.714-2.561,1.61-5.837,2.4-8.729l0.052-0.188l0.02-0.074c0.681-2.49,1.323-4.841,1.724-6.275l0.017-0.061
										c0.606-2.171,1.521-5.452,0.172-7.234c-0.66-0.874-2.195-1.304-4.562-1.304c-0.542,0-25.062-0.062-26.104-0.062h-0.017
										l-0.017-0.013c-0.081-0.003-0.294-0.013-0.577-0.013c-1.709,0-3.952,0.15-4.932,0.88c-0.727,0.542-1.746,2.337-2.6,4.582
										l-0.009,0.027l-4.416,14.937l-0.004,0.011l-0.003,0.012c-0.229,0.726-0.943,3.19-1.212,4.932
										c-0.12,0.774,0.068,2.325,0.864,3.354C232.083,38.851,232.854,39.665,233.877,39.768z M231.871,35.085
										c0.293-1.897,1.111-4.522,1.178-4.736l4.391-14.828l0.015-0.051c0,0,0.019-0.05,0.019-0.051
										c0.431-1.124,0.82-2.369,1.604-3.308c0.946-1.134,2.188-1.048,3.547-1.048c0.877,0,1.738,0.237,1.932,0.242l25.109,0.361
										c0,0,0.073,0,0.09,0l0.017-0.203c3.49,0.088,3.674,0.123,4.008,0.34l0.242,0.098l0.157,0.213
										c1.111,1.716-0.027,5.848-0.039,5.89l-0.017,0.053c-0.394,1.407-1.02,3.695-1.684,6.121l-0.063,0.229
										c-0.759,2.779-1.705,6.237-2.45,8.91c-0.674,2.418-1.054,3.712-1.647,4.426l-0.357,0.43l-0.557,0.053
										c-1.632,0.155-8.241,0.312-19.328,0.312c-5.9,0-12.816-0.056-14.057-0.18c-0.595-0.06-1.082-0.331-1.448-0.805
										C231.933,36.777,231.785,35.643,231.871,35.085z"/>
									<path fill="#FFFFFF" d="M296.929,39.483c0.166,0.014,1.25,0.036,6.747,0.036c12.316,0,26.131-0.095,27.359-0.305
										c0.979-0.199,1.468-1.279,1.884-2.369l0.022-0.058c0.024-0.087,0.062-0.17,0.097-0.249c0.249-0.617,0.438-1.394,0.604-2.08
										c0.037-0.152,0.074-0.301,0.113-0.458c0.022-0.094,0.04-0.203,0.062-0.309l0.006-0.034c0.009-0.06,0.019-0.118,0.021-0.169
										l0.019-0.044l0.012-0.043l4.646-17.046l0.021-0.057c0.246-1.121,0.353-2.15,0.312-3.061
										c-0.023-0.757-0.137-1.623-0.68-2.265c-0.562-0.666-1.312-0.842-1.979-0.998c-0.951-0.222-1.91-0.26-2.734-0.28
										c-0.03,0-0.066,0.001-0.104,0.001c-0.079,0-0.157,0.005-0.236,0.006c-0.069,0.001-0.146,0.012-0.208,0.012l-25.365-0.069
										h-0.001c-0.274,0-1.718-0.006-2.993,0.041c-1.267,0.045-2.7,0.081-3.515,0.951c-0.793,0.849-1.625,3.169-2.098,4.898
										l-0.004,0.005l-0.004,0.004l-4.417,15.816l-0.008,0.028l-0.009,0.028c-0.217,0.666-0.402,1.36-0.549,2.062
										c-0.02,0.099-0.044,0.21-0.069,0.325l-0.004,0.021c-0.222,1.013-0.498,2.273,0.007,3.26
										C294.403,38.121,295.822,39.367,296.929,39.483z M294.873,34.045c0.027-0.127,0.054-0.247,0.077-0.357
										c0.139-0.667,0.314-1.324,0.522-1.958l4.452-15.917c0.354-1.303,1.153-3.646,1.792-4.403l0.153-0.182l0.205-0.121
										c0.438-0.256,1.076-0.364,2.504-0.415c1.174-0.043,2.535-0.035,2.895-0.037l0.008,0.012h0.062l25.358,0.045
										c0.062,0,0.146-0.045,0.228-0.045h0.011c0.069,0,0.146,0,0.209,0h0.013h0.013h0.057h0.009h0.015
										c0.805,0,1.655,0.083,2.519,0.283c0.58,0.135,0.902,0.227,1.172,0.418l0.283,0.218l0.147,0.319
										c0.148,0.312,0.229,0.739,0.263,1.368c0.025,0.816-0.066,1.747-0.289,2.769l-0.008,0.036l-0.014,0.035l-4.646,17.044
										c-0.029,0.108-0.05,0.241-0.071,0.369l-0.006,0.037c-0.009,0.056-0.021,0.11-0.027,0.158l-0.007,0.029l-0.007,0.028
										c-0.034,0.136-0.067,0.279-0.104,0.427l-0.002,0.01c-0.154,0.65-0.343,1.388-0.562,1.94
										c-0.04,0.099-0.082,0.207-0.125,0.321c-0.146,0.385-0.31,0.783-0.479,1.08l-0.357,0.643l-0.737,0.046
										c-2.462,0.152-15.513,0.242-26.707,0.242c-5.068,0-6.265-0.02-6.509-0.025l-0.23-0.006l-0.216-0.082
										c-0.667-0.252-1.583-1.086-1.924-1.749l-0.034-0.068l-0.028-0.072C294.523,35.925,294.615,35.224,294.873,34.045z"/>
								</g>
							</g>
						</g>
					</g>
				</g>
			</g>
		</g>
	</g>
	
		<use xlink:href="#gradient"  width="465.499" height="139.514" x="-232.749" y="-69.757" transform="matrix(0.9964 0 0 -1 234.2822 72.187)" overflow="visible"/>
	
		<use xlink:href="#gradient"  width="465.499" height="139.514" x="-232.749" y="-69.757" transform="matrix(0.9991 0 0 -1.0844 228.1509 72.2554)" overflow="visible"/>
	
		<use xlink:href="#gradient"  width="465.499" height="139.514" id="XMLID_1_" x="-232.749" y="-69.757" transform="matrix(0.9913 0 0 -1.0844 232.1177 72.2554)" overflow="visible"/>
</g>
<g opacity="0.7">
	<path fill="none" d="M426.359,52.449c-4.398,0-8.549-0.06-11.58-0.103c-2.435-0.035-4.136-0.06-4.528-0.032
		c-0.521,0.09-0.581,0.101-1.026,1.592l-0.096,0.287l-8.694,32.744c-1.801,6.724-6.281,10.289-13.316,10.6
		c-0.374,0.012-0.73,0.02-1.074,0.02c-4.152,0-7.273-1.014-9.276-3.013c-1.595-1.586-2.447-3.83-2.463-6.486
		c-0.007-0.998,0.027-1.75,0.111-2.437c0.142-1.13,0.5-2.243,0.846-3.319c0.122-0.379,0.243-0.755,0.353-1.128l0.203-0.704
		c0.088-0.317,1.416-5.123,2.927-10.587c2.063-7.465,4.467-16.159,4.511-16.319c0.175-0.62,0.265-1.106,0.274-1.493
		c-1.508-0.081-4.707-0.167-11.489-0.167c-9.958,0-20.196,0.178-22.75,0.305c-0.238,0.376-0.44,1.125-0.593,1.69l-0.136,0.494
		l-7.573,28.26c-1.601,5.827-2.377,11.198-2.375,16.423c0,4.251,0.577,7.819,1.714,10.606c2.474,6.285,7.56,10.79,15.128,13.415
		l0.894,0.318c2.046,0.731,4.365,1.561,7.212,2.006l0.507,0.081c4.218,0.67,8.58,1.362,13.441,1.362
		c7.674,0,15.055-1.071,21.345-3.097c1.738-0.559,3.464-1.216,5.131-1.956c4.315-1.921,8.782-4.716,13.277-8.307
		c4.326-3.457,7.861-7.334,10.508-11.523c2.848-4.508,4.77-9.529,6.78-15.681c0.077-0.239,0.16-0.485,0.241-0.723l0.037-0.105
		c0.137-0.392,0.267-0.761,0.354-1.113c0.335-1.349,0.879-3.299,1.569-5.769c0.607-2.175,1.339-4.796,2.172-7.876
		c2.504-10.175,3.553-14.131,4.001-15.821c0.2-0.754,0.273-1.024,0.301-1.2l0.028-0.104c0.079-0.203,0.161-0.727,0.219-1.107
		c-1.777-0.023-4.648-0.034-8.932-0.034H426.359z"/>
	<path fill="none" d="M192.72,52.168v0.28h-1.744v-0.242c-1.763-0.105-4.43-0.159-7.94-0.159c-5.994,0-13.647,0.011-18.22,0.037
		c-1.821,0.011-3.199,0.017-3.864,0.019c-0.67,0.002-2.368,2.355-3.25,5.478c-0.087,0.311-5.069,18.309-9.65,34.863l-5.333,19.265
		c-2.232,8.064-2.232,8.064-2.244,8.097c-0.142,0.515-0.308,1.05-0.472,1.566c-0.449,1.441-0.862,2.768-0.934,4.128
		c-0.026,0.482-0.045,0.831,2.451,0.996c0.107,0.006,0.91,0.011,2.051,0.011c4.464,0,15.345-0.049,21.93-0.078
		c2.859-0.013,4.908-0.021,5.273-0.021c3.188,0,4.227-0.52,4.237-0.524c0.514-0.395,3.292-3.722,3.292-7.001l0.017-0.204
		l15.155-56.111c0.006-1.785,0.167-3.589,0.456-5.148c0.596-3.229,0.25-4.621-0.003-5.157
		C193.762,52.235,193.42,52.198,192.72,52.168z"/>
	<path fill="none" d="M127.847,21.542c-3.78-6.854-8.262-10.042-14.11-10.042H70.163c-7.644,0-14.398,2.495-20.65,7.627
		c-3.496,2.875-6.406,5.927-8.648,9.071c-2.345,3.286-2.193,4.836-1.187,6.273c0.398,0.569,2.495,1.378,3.925,1.378h82.071
		c1.701,0,3.663-1.018,3.946-1.538c1.215-2.212,1.049-3.738,0.658-5.814C129.774,25.8,128.979,23.524,127.847,21.542z"/>
	<path fill="none" d="M301.405,126.502c0.065-0.062,0.132-0.124,0.207-0.183c0.029-0.023,0.293-0.28,0.666-1.904l0.018-0.089
		l19.188-70.804c0.148-0.478,0.277-0.991,0.369-1.458c-1.895-0.039-6.796-0.104-18.462-0.104c-7.505,0-14.118,0.022-14.798,0.041
		c-0.045,0.006-0.095,0.014-0.111,0.021c-0.032,0.027-0.142,0.18-0.353,0.938l-0.533,1.672c-0.135,0.439-0.201,0.877-0.27,1.341
		c-0.063,0.419-0.128,0.854-0.249,1.299c-0.2,0.729-0.482,1.332-0.779,1.936c-0.627,1.276-1.292,2.489-2.516,3.305
		c-0.926,0.612-1.996,0.663-3.102,0.663l-17.321-0.001c-2.304,0-3.785-0.566-4.528-1.732c-0.737-1.165-1.056-2.347-1.034-3.833
		c0.012-0.74,0.119-1.556,0.326-2.495c0.106-0.478,0.28-0.932,0.449-1.371c0.253-0.662,0.493-1.288,0.489-1.932
		c0-0.014-0.089-0.07-0.465-0.07l-0.382,0.008c-0.122,0-6.31,0.048-12.886,0.099c-7.471,0.058-15.444,0.12-15.611,0.12l-0.761,0.001
		c-0.488,0-1.122,0.028-1.708,0.244c-0.736,0.278-1.278,1.033-1.809,2.52l-6.536,25.311c-0.261,1.362-0.385,2.922-0.463,4.124
		c-0.075,1.162,0.34,2.263,1.203,3.182c1.208,1.289,3.185,2.122,5.037,2.122h47.097c-0.031-0.002,0.02-0.018,0.084-0.037
		c0.319-0.096,0.914-0.273,1.592-0.273c0.2,0,0.408-0.005,0.615-0.01c0.216-0.006,0.431-0.011,0.64-0.011
		c0.761,0,1.521,0.064,1.928,0.538c0.718,0.826,1.41,2.29,0.625,4.561l-8.562,29.339c-0.367,1.116-0.396,2.782-0.255,3.07
		c0.108,0.091,1.353,0.853,2.656,0.853c1.974,0,8.439-0.109,28.179-0.63c0.508-0.013,0.845-0.021,0.975-0.025l0.542-0.104
		C301.157,126.74,301.24,126.661,301.405,126.502z"/>
	<path fill="none" d="M331.891,11.716c-0.626-0.145-1.333-0.218-2.099-0.218h-0.505l-25.039-0.068
		c-0.096,0.001-1.586,0.027-2.855,0.073c-1.001,0.036-1.396,0.098-1.55,0.14c-0.281,0.444-0.896,1.933-1.339,3.56l-4.405,15.756
		c-0.198,0.598-0.356,1.188-0.478,1.777l-0.082,0.375c-0.167,0.776-0.235,1.235-0.205,1.385c0.104,0.191,0.586,0.615,0.821,0.746
		c0.56,0.009,2.305,0.024,6.281,0.024c10.643,0,22.973-0.082,25.973-0.219c0.06-0.134,0.137-0.319,0.233-0.577l0.139-0.356
		c0.166-0.41,0.324-1.06,0.463-1.634l0.116-0.47c0.042-0.264,0.075-0.457,0.128-0.65l4.588-16.833
		c0.181-0.838,0.262-1.602,0.237-2.244c-0.009-0.219-0.025-0.369-0.04-0.468C332.185,11.789,332.057,11.754,331.891,11.716z"/>
	<path fill="none" d="M125.074,52.294c-4.629,0.045-15.47,0.15-22.47,0.15c-5.652,0-8.545-0.113-10.099-0.173
		c-0.598-0.024-0.982-0.038-1.203-0.033c-1.079,0.663-3.627,2.565-4.369,3.187l-0.271,0.226c-2.844,2.381-7.605,6.368-15.85,10.246
		C52.726,74.336,39.974,81.622,32.91,87.552c-8.861,7.332-15.199,15.851-18.839,25.32l-0.144,0.375
		c-0.899,2.319-1.828,4.717-1.782,6.974c0.023,1.264,0.273,3.558,1.696,4.729c0.879,0.721,2.486,0.889,4.039,1.051l0.619,0.066
		c0.116,0.001,0.215-0.021,0.326-0.047c0.146-0.032,0.312-0.068,0.493-0.068l0.149,0.009c0.081-0.001,0.257-0.078,0.399-0.141
		c0.262-0.115,0.56-0.246,0.896-0.246l79.903-1.006l0.182,0.3c0.162,0.347,0.394,0.589,0.5,0.589c1.631,0,2.809,0.09,3.67,0.156
		c0.749,0.058,1.238,0.046,1.251,0.042c1.495-1.138,2.157-3.556,2.797-5.894l0.132-0.481c0.073-0.271,0.146-0.54,0.223-0.797
		c0.527-1.796,1.043-3.646,1.548-5.454l1.007-3.655c0.052-0.189,0.104-0.402,0.157-0.616c0.061-0.247,0.123-0.496,0.184-0.713
		c0.262-0.932,0.083-1.767-0.546-2.553c-0.201-0.255-0.486-0.617-0.694-0.617c-0.381,0-0.727-0.185-1.093-0.381
		c-0.345-0.185-0.702-0.375-1.042-0.375H60.91c-0.299,0.242-0.915,0.408-1.217,0.043c-0.22-0.267-0.255-0.681-0.118-1.385
		c0.366-1.877,4.584-4.246,5.063-4.511c6.043-5.046,15.299-10.132,25.984-14.268c6.369-2.465,14.295-5.531,21.18-10.142
		c6.205-4.154,11.229-10.34,14.932-18.387c0.279-0.606,0.857-2.056,0.612-3.197C126.991,52.276,126.191,52.284,125.074,52.294z"/>
	<path fill="none" d="M169.218,11.5c-0.62,0.471-1.87,1.792-2.924,3.097c-0.289,0.458-0.611,0.956-0.935,1.456l-0.355,0.55
		c-0.772,1.197-1.544,2.393-2.312,3.592c-0.745,1.167-1.497,2.334-2.247,3.498c-1.145,1.769-2.325,3.605-3.458,5.413
		c-2.415,3.852-1.654,5.34-1.646,5.355c0.184,0.334,1.397,1.388,2.289,1.388h36.858c1.108,0,3.914-0.509,5.513-2.084
		c0.848-0.832,1.478-2.969,1.937-4.529l0.089-0.301c0.046-0.155,0.091-0.328,0.135-0.498c0.055-0.212,0.109-0.421,0.164-0.593
		l3.557-13.909c0.072-0.306,0.146-0.571,0.221-0.832c0.17-0.588,0.324-1.148,0.359-1.559c-2.088-0.261-7.854-0.539-18.078-0.539
		C178.582,11.004,170.926,11.258,169.218,11.5z"/>
	<path fill="none" d="M447.949,31.944c0-7.485-1.526-12.517-4.803-15.833c-3.069-3.104-7.965-4.612-14.967-4.612h-45.156
		c-7.509,0-13.406,2.413-18.558,7.594c-4.008,4.016-6.847,7.727-8.934,11.679c-1.027,1.954-1.277,3.283-0.762,4.064
		c0.196,0.229,1.925,1.014,3.504,1.014h86.302c1.215,0,2.661-0.734,3.023-0.988c0.341-0.362,0.376-0.969,0.356-2.159L447.949,31.944
		z"/>
	<path fill="none" d="M242.104,11.62c-0.421,0.105-1.176,0.261-1.958,0.261c-1.175,0-1.637,0.034-1.808,0.054
		c-0.333,0.421-1.03,1.68-1.558,3.054l-4.326,14.615c-0.015,0.044-0.832,2.631-1.106,4.423c-0.017,0.146,0.055,0.727,0.289,1.026
		c0.059,0.076,0.078,0.083,0.16,0.092c0.972,0.095,6.734,0.165,13.698,0.165c10.421,0,16.781-0.139,18.682-0.283
		c0.336-0.581,0.732-2.003,1.148-3.5c0.704-2.514,1.563-5.67,2.333-8.498l0.875-3.211c0.375-1.377,0.706-2.594,0.948-3.461
		l0.003-0.059c0.33-1.191,0.647-3.611,0.344-4.414c-0.367-0.063-1.74-0.248-2.962-0.39l-0.022-0.497l0.002,0.5L242.104,11.62z"/>
	<path fill="#FFFFFF" d="M231.423,39.206c0.818,0.083,9.565,0.126,17.784,0.126c4.901,0,8.237-0.014,9.392-0.039
		c6.14-0.108,6.819-0.556,7.184-0.796l0.132-0.084c1.599-0.946,2.118-2.816,2.979-5.914c0.65-2.314,1.441-5.213,2.172-7.889
		l0.551-2.016c0.567-2.069,1.083-3.955,1.422-5.168c0.661-2.371,1.629-5.85,0.049-7.938c-0.833-1.099-2.525-1.634-5.175-1.634
		c-0.54,0-25.779-0.076-25.779-0.076l-0.604-0.005c-3.968,0-5.024,0.779-5.371,1.036c-0.867,0.65-1.937,2.496-2.863,4.938
		l-4.378,14.806c-0.154,0.502-0.932,3.076-1.229,5.004c-0.167,1.062,0.135,2.807,1.02,3.951
		C229.479,38.506,230.443,39.109,231.423,39.206z M230.358,33.873c0.28-1.827,1.117-4.515,1.152-4.601l4.322-14.604
		c0.567-1.481,1.425-3.086,1.886-3.541l0.121-0.088c0.136-0.07,0.305-0.158,2.306-0.158c0.732,0,1.467-0.167,1.75-0.24l0.146-0.021
		l24.881-0.123c3.242,0.374,3.425,0.495,3.535,0.567l0.145,0.146c0.774,1.195,0.035,4.657-0.142,5.29l-0.003,0.059
		c-0.256,0.933-0.586,2.148-0.96,3.522l-0.875,3.211c-0.771,2.83-1.631,5.989-2.324,8.464c-0.565,2.032-0.965,3.473-1.46,4.068
		l-0.132,0.159l-0.205,0.02c-1.591,0.153-8.085,0.308-19.007,0.308c-7.105,0-12.78-0.07-13.799-0.17
		c-0.359-0.037-0.627-0.188-0.848-0.473C230.398,35.094,230.306,34.201,230.358,33.873z"/>
	<path fill="#FFFFFF" d="M286.427,130.252c7.075-0.08,13.757-0.155,13.882-0.155l0.143,0.021l0.196,0.059
		c1.025-0.02,2.17-0.463,3.151-1.223c1.146-0.887,1.619-2.353,1.959-3.804l19.161-70.657c1.036-3.326,0.832-5.283-0.602-5.837
		c-0.413-0.16-2.156-0.272-20.929-0.272c-1.109,0-14.506,0.017-15.07,0.064c-0.719,0.074-1.385,0.298-1.825,0.613
		c-1.378,0.991-1.902,2.834-2.285,4.485c-0.082,0.352-0.15,0.771-0.225,1.223c-0.36,2.181-0.904,5.477-3.777,5.477h-16.849
		c-0.69,0-1.803-0.585-1.909-1.466c-0.095-0.811-0.079-1.812,0.048-2.977c0.071-0.64,0.323-1.207,0.567-1.756
		c0.181-0.407,0.352-0.791,0.441-1.183c0.58-2.551-0.667-4.902-1.204-5.252c-0.503-0.328-1.333-0.272-2.14-0.148
		c-0.176,0.027-0.348,0.053-0.515,0.073l-0.05,0.143l-0.357,0.001c-0.131,0-5.096-0.157-13.257-0.415
		c-7.047-0.223-15.034-0.476-15.27-0.478c-0.726,0-1.615,0.377-2.557,0.777c-0.381,0.162-0.77,0.327-1.16,0.473
		c-2.171,0.81-3.212,3.007-3.939,5.065l-0.02,0.2l-6.625,25.844l-0.107,0.728c-0.249,1.676-0.483,3.258-0.421,4.916
		c0.144,3.663,3.181,7.607,9.51,7.607h47.748l1.896,0.108l-8.746,30.148c-0.299,0.916-1.143,3.998,0.34,5.85
		c1.216,1.517,4.107,1.918,5.466,1.918l0.059,0.5v-0.5C271.313,130.423,278.997,130.336,286.427,130.252z M228.958,50.113v-0.5
		c0.142-0.001,0.274,0,0.41,0.003l0.319,0.002v0.5v0.5l-0.344-0.002c0,0,0,0-0.001,0l-0.384-0.003V50.113z M271.123,128.5
		c-1.569,0-3.072-0.853-3.438-1.207c-0.545-0.67-0.279-2.992,0.057-4.012l8.556-29.321c0.521-1.509,0.375-2.714-0.419-3.628
		c-0.062-0.073-0.297-0.192-1.172-0.192c-0.2,0-0.408,0.005-0.615,0.01c-0.216,0.006-0.431,0.011-0.64,0.011
		c-0.532,0-1.016,0.145-1.305,0.231c-0.032,0.01-0.062,0.019-0.089,0.026l0.056,0.899c-0.058,0.004-0.099,0.013-0.133,0.019
		c-0.078,0.016-0.136,0.011-0.207,0.024v-0.5v-0.39h-47.092c-2.119,0-4.382-0.957-5.77-2.438c-1.056-1.127-1.565-2.486-1.471-3.931
		c0.08-1.232,0.208-2.832,0.486-4.279l6.556-25.384c0.652-1.836,1.37-2.77,2.414-3.164c0.737-0.273,1.487-0.308,2.058-0.308
		l0.761-0.001c0.167,0,8.136-0.062,15.603-0.12c6.585-0.051,12.78-0.099,12.894-0.099l0.382-0.008c1.206,0,1.462,0.579,1.465,1.064
		c0.005,0.833-0.28,1.576-0.555,2.295c-0.162,0.424-0.315,0.825-0.406,1.23c-0.192,0.871-0.291,1.622-0.302,2.293
		c-0.019,1.279,0.252,2.292,0.878,3.282c0.536,0.841,1.776,1.268,3.684,1.268l17.321,0.001c0.948,0,1.856-0.038,2.548-0.496
		c1.017-0.678,1.585-1.72,2.171-2.913c0.285-0.581,0.536-1.114,0.712-1.758c0.106-0.388,0.164-0.774,0.225-1.183
		c0.072-0.48,0.146-0.977,0.305-1.49l0.513-1.617c0.345-1.223,0.589-1.635,1.375-1.715c0.737-0.021,7.226-0.043,14.862-0.043
		c13.136,0,17.709,0.083,19.066,0.118l0.56,0.015l-0.078,0.555c-0.09,0.637-0.275,1.447-0.484,2.115l-19.199,70.864
		c-0.414,1.806-0.752,2.267-1.029,2.481c-0.047,0.037-0.088,0.077-0.13,0.117c-0.222,0.212-0.523,0.499-1.247,0.513l-0.538,0.104
		l-1.008,0.026C279.552,128.39,273.077,128.5,271.123,128.5z"/>
	<path fill="#FFFFFF" d="M201.819,7.641c-3.388-0.141-8.154-0.218-13.419-0.218c-4.702,0-9.603,0.067-13.446,0.184
		c-6.478,0.2-6.918,0.441-7.271,0.635c-1.498,0.823-3.79,3.637-4.234,4.192l-0.085,0.125l-1.359,2.114
		c-0.778,1.2-1.555,2.414-2.325,3.62l-0.684,1.076c-0.516,0.813-1.034,1.629-1.554,2.434c-1.146,1.778-2.335,3.672-3.482,5.499
		l-0.28,0.434c-1.053,1.608-3.012,4.603-1.472,7.404c1.167,2.129,4.647,2.657,5.102,2.657h37.522c1.869,0,5.346,0,7.681-2.294
		c1.563-1.54,2.33-4.125,2.946-6.204c0.062-0.208,0.121-0.338,0.18-0.466c0.039-0.084,0.077-0.166,0.114-0.287l0.132-0.436
		l0.089,0.018c1.928-7.495,2.856-10.83,3.257-12.271c0.162-0.581,0.261-0.938,0.276-1.031c0.003-0.241,0.043-0.486,0.123-0.75
		c0.525-1.806,0.896-3.565-0.324-5.208C208.849,8.26,208.276,7.903,201.819,7.641z M207.065,13.379
		c-0.072,0.25-0.144,0.507-0.205,0.747l-3.573,13.99c-0.057,0.184-0.106,0.375-0.156,0.569c-0.047,0.183-0.095,0.368-0.144,0.533
		l-0.088,0.299c-0.518,1.758-1.163,3.945-2.196,4.959c-1.966,1.936-5.227,2.371-6.214,2.371h-36.858
		c-1.292,0-2.805-1.252-3.166-1.907c-0.181-0.331-0.945-2.187,1.675-6.367c1.136-1.811,2.319-3.652,3.465-5.424
		c0.75-1.162,1.5-2.329,2.245-3.494c0.769-1.201,1.541-2.397,2.314-3.596l0.355-0.55c0.322-0.498,0.644-0.995,0.964-1.496
		c1.059-1.315,2.495-2.875,3.254-3.4l0.201-0.082c1.496-0.254,9.357-0.528,19.448-0.528c11.042,0,16.945,0.329,18.645,0.61
		l0.349,0.058l0.062,0.349C207.549,11.629,207.344,12.416,207.065,13.379z"/>
	<path fill="#FFFFFF" d="M451.528,32.406c0-16.484-7.201-23.834-23.348-23.834h-45.157c-8.868,0-15.374,2.564-21.093,8.315
		c-4.379,4.385-7.348,7.745-9.562,11.948l-0.134,0.252c-0.826,1.541-2.208,4.12-0.455,6.771c0.847,1.287,2.911,1.938,6.137,1.938
		l0.254,0h86.952l0.043,0.48c1.308-0.055,3.827-0.19,4.878-1.249c1.541-1.539,1.513-3.051,1.489-4.386L451.528,32.406z
		 M448.244,35.622c-0.402,0.292-2.083,1.229-3.667,1.229h-86.302c-1.7,0-3.83-0.802-4.318-1.434
		c-0.765-1.158-0.539-2.772,0.691-5.111c2.135-4.043,5.03-7.83,9.11-11.918c5.352-5.381,11.474-7.888,19.266-7.888h45.156
		c7.283,0,12.411,1.606,15.678,4.909c3.474,3.516,5.092,8.77,5.092,16.536l0.006,0.746
		C448.974,33.801,448.993,34.854,448.244,35.622z"/>
	<path fill="#FFFFFF" d="M196.921,47.89c-0.395-0.319-1.059-0.475-2.031-0.475c-0.537,0-1.089,0.045-1.601,0.086
		c-0.28,0.022-0.55,0.044-0.799,0.057l-0.001,0.012l-0.104,0c-0.095,0.11-0.229,0.152-0.393,0.156c-0.006,0-0.012,0-0.017,0
		l-0.704,1.011l0.156-0.962c-0.083,0.012-0.17,0.025-0.262,0.04c-0.661,0.1-1.565,0.236-2.746,0.236
		c-0.618,0-1.31,0.037-2.078,0.079c-0.972,0.052-2.075,0.111-3.302,0.111c-3.447,0-7.506,0.082-11.088,0.153
		c-2.7,0.054-5.206,0.104-7.154,0.115c-1.092,0.007-2.004,0.116-2.736,0.204c-0.467,0.056-0.836,0.1-1.121,0.1
		c-3.664,0.011-5.825,5.402-6.787,8.614c-0.022,0.088-0.063,0.229-0.169,0.592c-1.913,6.555-6.221,22.042-9.499,33.88
		c-2.246,8.116-4.883,17.494-7.425,26.406l-0.133,0.467c-0.125,0.436-0.259,0.872-0.392,1.303l-0.06,0.195
		c-0.493,1.57-1.002,3.191-1.1,5.028c-0.22,4.026,3.217,4.72,5.82,4.891c0.172,0.009,0.348,0.011,0.523,0.011l0.634-0.003
		c0.552,0,24.244,0.216,25.252,0.225h0.103c0.185,0,0.518-0.016,0.927-0.035c0.679-0.031,1.562-0.072,2.348-0.072
		c1.73-0.064,4.793-0.387,5.567-0.975c0.8-0.606,2.394-2.671,4.08-9.687l15.914-56.081c0.092-0.297,0.882-2.887,1.394-5.772
		C198.764,53.122,198.346,49.046,196.921,47.89z M194.914,57.601c-0.28,1.516-0.436,3.275-0.438,4.952l-0.021,0.224l-15.152,56.1
		c-0.035,3.55-2.846,7.161-3.742,7.839c-0.231,0.178-1.614,0.692-4.787,0.692c-0.364,0-2.412,0.009-5.269,0.021
		c-6.586,0.029-17.47,0.078-21.935,0.078c-1.168,0-1.99-0.007-2.109-0.013c-2.676-0.177-3.467-0.655-3.391-2.048
		c0.079-1.484,0.51-2.869,0.966-4.335c0.174-0.547,0.336-1.072,0.488-1.616c0.028-0.098,0.735-2.652,2.23-8.053l5.333-19.266
		c4.581-16.554,9.564-34.553,9.652-34.866c0.843-2.983,2.692-6.204,4.21-6.208c0.665-0.002,2.041-0.008,3.861-0.019
		c4.575-0.026,12.23-0.037,18.226-0.037c3.489,0,6.155,0.053,7.94,0.157v-0.004l0.528,0.038l0.008-0.109l0.18,0.005
		c1.958,0.044,2.527,0.13,2.78,0.246l0.144,0.065l0.08,0.136C195.365,52.688,195.438,54.763,194.914,57.601z"/>
	<path fill="#FFFFFF" d="M445.103,48.209c-0.531-0.013-1.283-0.022-2.247-0.033l-0.227-0.002c-1.952-0.016-4.747-0.025-8.088-0.025
		c-5.192,0-23.84,0.047-24.785,0.198c-2.891,0.463-3.55,2.677-4.08,4.455l-0.097,0.316l-8.721,32.853
		c-1.331,4.974-4.475,7.399-9.894,7.636c-0.259,0-0.498-0.074-0.666-0.135c-0.096-0.034-0.205-0.073-0.258-0.073
		c-3.472,0-5.466-0.512-6.667-1.71c-2.001-1.987-1.415-5.376-1.069-6.741c0.191-0.755,0.426-1.481,0.652-2.185
		c0.14-0.436,0.281-0.872,0.413-1.319l0.086-0.283c5.125-18.544,6.687-24.18,7.164-25.9l0.199-0.72
		c0.435-1.536,0.785-3.525-0.366-5.335c-0.471-0.741-1.209-0.818-5.146-0.917c-2.147-0.056-5.178-0.083-9.267-0.083
		c-4.785,0-10.637,0.047-15.655,0.127c-7.784,0.132-8.247,0.215-8.624,0.409c-1.733,0.889-2.232,2.721-2.633,4.192L345,53.411
		l-7.58,28.303c-1.686,6.138-2.505,11.834-2.505,17.418c0.003,4.771,0.671,8.827,1.986,12.058
		c2.915,7.407,8.748,12.67,17.337,15.647c2.371,0.832,5.263,1.756,8.748,2.306l1.25,0.198c4.18,0.665,8.503,1.353,13.275,1.353
		c2.594,0,16.135-0.275,27.976-5.718c5.047-2.324,9.787-5.248,14.087-8.689c4.701-3.759,8.512-7.927,11.328-12.386
		c3.066-4.848,5.083-10.098,7.169-16.491l0.215-0.639c0.191-0.543,0.358-1.029,0.488-1.552c0.601-2.408,1.872-7.146,3.729-14.011
		c0.052-0.219,4.277-17.379,4.318-17.545c0.861-3.35,0.635-4.18,0.355-4.697C446.803,48.279,446.271,48.237,445.103,48.209z
		 M444.553,52.086c-0.022,0.117-0.048,0.285-0.076,0.473c-0.087,0.574-0.163,1.042-0.268,1.341c-0.037,0.205-0.114,0.498-0.313,1.25
		c-0.447,1.687-1.494,5.637-4,15.814c-0.836,3.095-1.569,5.719-2.177,7.896c-0.688,2.462-1.23,4.406-1.562,5.739
		c-0.094,0.38-0.232,0.779-0.38,1.203l-0.035,0.102c-0.078,0.229-0.159,0.47-0.236,0.706c-2.033,6.224-3.982,11.31-6.885,15.905
		c-2.707,4.283-6.317,8.243-10.73,11.771c-4.562,3.644-9.102,6.483-13.496,8.439c-1.7,0.754-3.46,1.425-5.231,1.993
		c-6.387,2.058-13.874,3.146-21.651,3.146c-4.94,0-9.341-0.699-13.598-1.375l-0.506-0.08c-2.94-0.46-5.41-1.343-7.394-2.053
		l-0.887-0.315c-7.855-2.725-13.144-7.425-15.717-13.968c-1.194-2.921-1.795-6.616-1.795-10.998
		c-0.003-5.315,0.785-10.773,2.41-16.686l7.708-28.75c0.227-0.838,0.483-1.787,0.946-2.265l0.135-0.14l0.194-0.012
		c2.126-0.128,12.735-0.319,23.033-0.319c7.552,0,10.691,0.106,11.994,0.195l0.397,0.027l0.062,0.394
		c0.093,0.584,0.005,1.319-0.275,2.31c-0.042,0.155-2.446,8.851-4.51,16.318c-1.51,5.463-2.839,10.269-2.927,10.589l-0.208,0.719
		c-0.112,0.381-0.236,0.765-0.36,1.151c-0.332,1.032-0.675,2.101-0.806,3.136c-0.079,0.641-0.111,1.353-0.104,2.307
		c0.01,1.665,0.395,4.021,2.169,5.785c1.809,1.806,4.692,2.721,8.57,2.721c0.333,0,0.679-0.008,1.036-0.02
		c6.543-0.288,10.713-3.604,12.388-9.856l8.803-33.076c0.531-1.779,0.792-2.101,1.859-2.282c0.178-0.015,0.441-0.02,0.82-0.02
		c0.798,0,2.135,0.019,3.843,0.043c3.027,0.043,7.174,0.103,11.565,0.103h8.186c4.789,0,7.816,0.013,9.526,0.042l0.596,0.01
		L444.553,52.086z"/>
	<path fill="#FFFFFF" d="M332.731,7.528c-0.48-0.112-0.936-0.295-1.376-0.473c-0.547-0.221-1.064-0.43-1.482-0.43h-0.581
		l-25.171,0.546c-0.473,0.08-1.729,0.292-2.86,0.335c-1.336,0.05-3.003,0.25-4.053,1.373c-1.102,1.176-2.012,4.329-2.265,5.267
		l-4.37,15.66c-0.231,0.715-0.421,1.437-0.57,2.164l-0.071,0.334c-0.235,1.079-0.556,2.549,0.081,3.794
		c0.632,1.246,2.258,2.678,3.671,2.826c0.093,0.009,0.383,0.038,6.751,0.038c12.757,0,26.107-0.097,27.175-0.313
		c1.509-0.306,2.122-1.905,2.489-2.861l0.107-0.285c0.275-0.683,0.478-1.51,0.64-2.175l0.115-0.462
		c0.029-0.116,0.048-0.24,0.063-0.351l0.033-0.182l4.597-16.876c0.278-1.249,0.391-2.344,0.356-3.318
		c-0.034-0.839-0.164-1.911-0.868-2.745C334.346,8.455,333.333,7.669,332.731,7.528z M329.643,32.513l-0.486-0.116l-0.486-0.116
		l0.497,0.036l-0.471-0.176l0.008,0.001l-0.007-0.003l0.494,0.07l0-0.004l0,0.004l0.495,0.07L329.643,32.513z M333.047,14.763
		l-4.594,16.859c-0.043,0.157-0.068,0.313-0.09,0.451l-0.143,0.625c-0.152,0.625-0.319,1.312-0.514,1.793l-0.131,0.336
		c-0.158,0.423-0.298,0.745-0.414,0.949l-0.134,0.237l-0.271,0.017c-2.416,0.148-15.28,0.236-26.322,0.236
		c-4.277,0-5.981-0.017-6.405-0.026l-0.166-0.032c-0.422-0.159-1.189-0.815-1.449-1.325c-0.157-0.394-0.069-0.988,0.142-1.962
		l0.085-0.389c0.128-0.624,0.297-1.253,0.5-1.864l4.397-15.729c0.411-1.508,1.14-3.479,1.601-4.026l0.131-0.11
		c0.293-0.171,0.878-0.254,2.085-0.296c1.32-0.048,2.879-0.074,2.879-0.074h0.01l25.488,0.068c0.9,0,1.682,0.082,2.383,0.244
		c0.671,0.157,0.801,0.248,0.863,0.291l0.113,0.079l0.057,0.126c0.089,0.197,0.142,0.525,0.162,1.003
		C333.341,12.969,333.252,13.817,333.047,14.763z"/>
	<path fill="#FFFFFF" d="M127.823,48.707l-0.101-0.002c-0.339,0-0.712,0.082-1.107,0.168c-0.452,0.099-0.919,0.201-1.412,0.201
		c0,0,0,0-0.001,0c-0.195,0-0.398,0.099-0.596,0.194c-0.258,0.125-0.525,0.254-0.827,0.254h-1.027c-0.104,0-0.603-0.022-1.406-0.058
		c-3.174-0.143-11.606-0.523-18.741-0.523l-5.458-0.001c-6.145,0-6.887,0.02-7.219,0.191c-1.317,0.682-4.721,3.188-5.289,3.662
		l-0.333,0.208c-2.629,2.209-7.135,5.981-15.008,9.682c-18.643,8.699-31.294,15.94-38.679,22.135
		c-9.335,7.725-16.026,16.731-19.889,26.774l-0.095,0.247c-0.999,2.58-2.131,5.503-2.071,8.513c0.062,3.276,1.128,5.931,3.001,7.474
		c1.829,1.507,4.439,1.792,6.537,2.021l0.922,0.103c0.588,0.069,1.208,0.079,1.736,0.079l79.521-0.127l0.093,0.003
		c0.175,0.007,0.52,0.019,0.972,0.019c3.472,0,5.837-0.459,7.031-1.365c2.52-1.908,3.419-5.19,4.143-7.827
		c0.108-0.408,0.22-0.792,0.333-1.181c0.676-2.318,1.336-4.648,1.977-6.929l0.593-2.061c0.058-0.212,0.118-0.394,0.178-0.575
		c0.052-0.158,0.104-0.317,0.157-0.503c0.58-2.05,0.166-4.03-1.197-5.729c-0.832-1.038-1.988-1.521-3.639-1.521
		c-0.368,0-0.731-0.017-1.081-0.032c-0.312-0.014-0.614-0.027-0.899-0.027H66.198l1.043-0.882
		c4.118-3.481,11.741-8.682,24.672-13.686c9.095-3.518,16.047-6.978,21.88-10.887c6.783-4.536,12.23-11.2,16.192-19.808
		c1.13-2.445,1.307-4.691,0.512-6.496C130.019,49.331,129.144,48.771,127.823,48.707z M127.643,55.888
		c-3.782,8.216-8.924,14.541-15.284,18.799c-6.978,4.673-14.961,7.762-21.375,10.244C80.397,89.029,71.241,94.057,65.2,99.088
		c-1.732,0.965-4.434,2.81-4.643,3.88c-0.011,0.055-0.02,0.105-0.027,0.151l0.189-0.001h48.224c0.59,0,1.102,0.273,1.513,0.493
		c0.23,0.123,0.491,0.263,0.621,0.263c0.693,0,1.155,0.587,1.432,0.938c0.876,1.095,1.122,2.255,0.771,3.502
		c-0.059,0.208-0.117,0.445-0.175,0.683c-0.055,0.223-0.11,0.444-0.164,0.641l-1.009,3.659c-0.506,1.813-1.023,3.667-1.552,5.47
		c-0.075,0.252-0.146,0.512-0.217,0.774l-0.13,0.474c-0.688,2.51-1.396,5.095-3.214,6.468c-0.218,0.166-0.508,0.189-0.789,0.189
		c-0.264,0-0.624-0.026-1.09-0.062c-0.844-0.064-2.001-0.153-3.593-0.153c-0.606,0-1.022-0.496-1.254-0.881l-79.325,0.998
		c-0.133,0-0.32,0.082-0.5,0.161c-0.251,0.11-0.511,0.225-0.801,0.225l-0.116-0.006c-0.107-0.003-0.205,0.02-0.311,0.043
		c-0.151,0.033-0.322,0.071-0.514,0.071l-0.132-0.006l-0.619-0.066c-1.7-0.178-3.458-0.361-4.57-1.273
		c-1.732-1.427-2.035-4.047-2.061-5.482c-0.05-2.452,0.916-4.944,1.85-7.354l0.142-0.371c3.704-9.634,10.141-18.29,19.133-25.73
		c7.128-5.984,19.954-13.317,38.119-21.793c8.126-3.822,12.826-7.757,15.633-10.108l0.27-0.225c0.778-0.653,3.511-2.696,4.598-3.34
		l0.188-0.065c0.23-0.031,0.63-0.014,1.465,0.019c1.547,0.061,4.428,0.172,10.061,0.172c6.996,0,17.833-0.105,22.46-0.15
		c1.4-0.014,2.304-0.022,2.477-0.022l0.535,0.029l0.121,0.325C128.746,53.096,128.085,54.928,127.643,55.888z"/>
	<path fill="#FFFFFF" d="M130.976,19.838c-4.18-7.584-9.817-11.268-17.237-11.268H70.164c-8.726,0-16.224,2.671-22.922,8.167
		l-0.425,0.349c-3.61,2.961-6.462,5.3-8.867,8.671c-2.245,3.151-3.759,5.851-1.203,9.496c1.73,2.473,6.296,2.544,6.811,2.544h81.252
		c1.814,0,6.178-0.265,7.521-2.719c1.788-3.267,1.938-4.738,1.466-7.243C133.215,24.733,132.318,22.192,130.976,19.838z
		 M130.499,34.792c-0.545,1-3.025,2.058-4.824,2.058H43.604c-1.568,0-4.065-0.833-4.745-1.805c-1.446-2.064-1.101-4.217,1.192-7.428
		c2.293-3.215,5.263-6.332,8.827-9.263c6.438-5.286,13.4-7.855,21.285-7.855h43.574c6.166,0,11.066,3.452,14.982,10.553
		c1.184,2.075,2.017,4.452,2.542,7.261C131.68,30.53,131.87,32.293,130.499,34.792z"/>
</g>
</svg>
