<svg xmlns="http://www.w3.org/2000/svg" width="72" height="72" fill="none" viewBox="0 0 72 72"><g clip-path="url(#a)"><circle cx="36" cy="36" r="36" fill="#fff"/><path fill="#2e52d0" fill-rule="evenodd" d="M47.075 36.435a33.2 33.2 0 0 0 9.965 4.104l.005-.003c-4.597 3.534-7.458 6.12-10.393 9.241-3.053 3.246-6.299 7.069-10.205 13.226-.146-.213-.372-.558-.653-.988-.87-1.328-2.267-3.462-3.462-4.981 2.053-8.775 7.361-15.955 14.743-20.599" clip-rule="evenodd"/><path fill="#9d63d3" fill-rule="evenodd" d="M36.434 25.795a33 33 0 0 0 4.104-9.954l-.004-.004c3.535 4.596 6.12 7.457 9.242 10.392 3.246 3.053 7.068 6.299 13.225 10.205-.212.146-.557.372-.987.654-1.328.869-3.463 2.267-4.982 3.461-8.774-2.052-15.954-7.372-20.598-14.754" clip-rule="evenodd"/><path fill="#82e0ff" fill-rule="evenodd" d="M25.798 36.439a33.2 33.2 0 0 0-9.965-4.104l-.004.003c4.596-3.534 7.457-6.12 10.392-9.24 3.053-3.247 6.299-7.07 10.205-13.227.146.213.372.558.653.988.87 1.328 2.268 3.462 3.462 4.981-2.052 8.775-7.361 15.955-14.743 20.599" clip-rule="evenodd"/><path fill="#51ab96" fill-rule="evenodd" d="M36.451 47.07a33.2 33.2 0 0 0-4.114 9.964l.003.005c-3.534-4.596-6.12-7.458-9.241-10.393-3.247-3.052-7.069-6.298-13.226-10.204.213-.146.558-.372.988-.654 1.327-.87 3.462-2.267 4.98-3.461 8.776 2.052 15.966 7.36 20.61 14.743" clip-rule="evenodd"/></g><defs><clipPath id="a"><path fill="#fff" d="M0 0h72v72H0z"/></clipPath></defs></svg>