<svg xmlns="http://www.w3.org/2000/svg" width="40" height="40" fill="none" viewBox="0 0 40 40"><path fill="url(#a)" d="M40 20c0 11.046-8.954 20-20 20S0 31.046 0 20 8.954 0 20 0s20 8.954 20 20"/><path fill="#fff" d="M29.935 17.016H10.049c-1.122 0-2.032 1.088-2.032 2.431v7.529c0 1.343.91 2.432 2.032 2.432h19.886c1.122 0 2.032-1.09 2.032-2.432v-7.529c0-1.343-.91-2.431-2.032-2.431" opacity=".5"/><path fill="#fff" d="M28.25 21.233H11.734c-.932 0-1.688.901-1.688 2.013v6.231c0 1.112.756 2.013 1.688 2.013H28.25c.932 0 1.688-.901 1.688-2.013v-6.231c0-1.112-.756-2.013-1.688-2.013" opacity=".25"/><path fill="#fff" d="M31.746 11.653H8.254C7.01 11.653 6 12.797 6 14.208v10.35c0 1.412 1.01 2.556 2.254 2.556h23.492c1.245 0 2.254-1.144 2.254-2.555V14.208c0-1.411-1.01-2.555-2.254-2.555"/><path fill="url(#b)" d="M17.645 19.147c0 2.557-2.053 4.63-4.586 4.63s-4.586-2.073-4.586-4.63 2.053-4.629 4.586-4.629 4.586 2.073 4.586 4.63"/><path fill="url(#c)" fill-rule="evenodd" d="M13.105 20.496a1.96 1.96 0 0 0 1.95-1.969 1.96 1.96 0 0 0-1.95-1.969 1.96 1.96 0 0 0-1.951 1.97 1.96 1.96 0 0 0 1.95 1.968m-.487.377a3.39 3.39 0 0 0-3.39 3.39h7.706a3.39 3.39 0 0 0-3.39-3.39z" clip-rule="evenodd"/><path fill="url(#d)" d="m29.97 14.406-.028.095v2.769l.029.028 1.31-.76z"/><path fill="url(#e)" d="m29.97 14.406-1.31 2.132 1.31.76v-2.892"/><path fill="url(#f)" d="m29.97 17.541-.015.02v.986l.016.046 1.312-1.811z"/><path fill="url(#g)" d="M29.97 18.593v-1.052l-1.31-.759z"/><path fill="url(#h)" d="m29.97 17.298 1.312-.76-1.311-.584z"/><path fill="url(#i)" d="m28.66 16.538 1.31.76v-1.344z"/><path fill="#ffcde6" d="M31.219 21.684h-9.643c-.41 0-.742.377-.742.842 0 .466.332.843.742.843h9.642c.41 0 .742-.377.742-.843s-.332-.843-.742-.843" opacity=".4"/><defs><linearGradient id="a" x1="0" x2="41.915" y1="0" y2="37.881" gradientUnits="userSpaceOnUse"><stop stop-color="#ff9c27"/><stop offset="1" stop-color="#fd48ce"/></linearGradient><linearGradient id="b" x1="8.473" x2="18.164" y1="14.518" y2="23.197" gradientUnits="userSpaceOnUse"><stop stop-color="#ff9c27"/><stop offset="1" stop-color="#fd48ce"/></linearGradient><linearGradient id="c" x1="13.081" x2="13.081" y1="16.558" y2="27.102" gradientUnits="userSpaceOnUse"><stop offset=".427" stop-color="#fff"/><stop offset="1" stop-color="#fff" stop-opacity=".27"/></linearGradient><linearGradient id="d" x1="29.942" x2="32.112" y1="14.406" y2="15.314" gradientUnits="userSpaceOnUse"><stop stop-color="#ff9c27"/><stop offset="1" stop-color="#fd48ce"/></linearGradient><linearGradient id="e" x1="28.66" x2="30.797" y1="14.406" y2="15.281" gradientUnits="userSpaceOnUse"><stop stop-color="#ff9c27"/><stop offset="1" stop-color="#fd48ce"/></linearGradient><linearGradient id="f" x1="29.955" x2="31.711" y1="16.782" y2="17.946" gradientUnits="userSpaceOnUse"><stop stop-color="#ff9c27"/><stop offset="1" stop-color="#fd48ce"/></linearGradient><linearGradient id="g" x1="28.66" x2="30.408" y1="16.782" y2="17.925" gradientUnits="userSpaceOnUse"><stop stop-color="#ff9c27"/><stop offset="1" stop-color="#fd48ce"/></linearGradient><linearGradient id="h" x1="29.971" x2="31.375" y1="15.954" y2="17.192" gradientUnits="userSpaceOnUse"><stop stop-color="#ff9c27"/><stop offset="1" stop-color="#fd48ce"/></linearGradient><linearGradient id="i" x1="28.66" x2="30.064" y1="15.954" y2="17.192" gradientUnits="userSpaceOnUse"><stop stop-color="#ff9c27"/><stop offset="1" stop-color="#fd48ce"/></linearGradient></defs></svg>