<svg xmlns="http://www.w3.org/2000/svg" id="Layer_1" data-name="Layer 1" viewBox="0 0 1920 1080"><defs><style>.cls-1{fill:#f5f5f5}</style></defs><path d="M797.53 243.24h-94.55v66.31h61.39v519.02h66.31V243.24zM1303.02 624.73c0-139.99-77.77-223.49-197.29-223.49s-198.11 79.41-198.11 219.39 77.77 216.12 198.11 216.12c94.96 0 166.18-54.85 185.83-130.98h-73.68c-16.37 35.2-49.94 66.31-112.15 66.31-80.23 0-121.16-50.76-129.34-123.61h326.64v-23.74ZM977.2 585.44c9.82-70.4 52.39-120.34 128.53-120.34s116.25 49.12 126.07 120.34zM1564.17 401.24c-120.34 0-198.11 79.41-198.11 219.39s77.77 216.12 198.11 216.12 197.29-73.68 197.29-216.12-77.77-219.39-197.29-219.39m0 372.48c-85.96 0-132.62-67.13-132.62-153.9s46.66-156.36 132.62-156.36 131.8 67.95 131.8 156.36-45.02 153.9-131.8 153.9M503.24 243.24H368.16L250.91 585.43h71.41l94.96-279.15h34.38l94.96 279.15h-224.3l-22.11 63.04h267.7l61.4 180.1h73.67zM167.6 828.57h71.22l61.39-180.1h-70.9zM180.14 585.43l-21.6 63.04h70.77l21.6-63.04z" class="cls-1"/></svg>