<svg xmlns="http://www.w3.org/2000/svg" width="115" height="32" fill="none" viewBox="0 0 115 32"><g fill="#010326" clip-path="url(#a)"><path d="M0 24.82c.213-1.186.404-2.19 1.082-3.214 2.703-4.093 10.021-2.968 14.22-3.14.136-5.682-5.795-5.964-9.918-4.446-.99.363-1.761.939-2.674 1.384l-1.953-3.77c3.336-2.475 8.181-3.228 12.234-2.57 5.227.847 7.323 4.128 7.613 9.218l-.005 13.364h-5.061v-2.59c-2.239 2.789-6.198 3.33-9.54 2.654C2.657 31.036.09 28.789 0 25.292zm15.301-2.825H8.77c-.192 0-1.131.201-1.378.27-.864.239-1.845.906-2.043 1.842-1.004 4.742 6.142 4.898 8.716 2.36.222-.218 1.237-1.617 1.237-1.823zM114.643.338v31.309h-5.061V28.94l-1.776 1.46C97.63 35.947 87.324 26.13 91.67 15.443c2.775-6.828 12.447-8.918 17.676-3.687V.515l.177-.177zm-12.384 12.981c-8.33.7-8.138 13.388-.267 14.088 10.093.897 9.754-14.883.267-14.088M71.21 22.113c1.318 6.091 9.488 6.92 13.479 2.969l2.654 2.97c.326.36-.48.983-.776 1.238-3.455 2.957-9.065 3.308-13.235 1.825-10.23-3.637-9.654-18.975.796-21.797 7.16-1.933 14.246 2.165 14.853 9.795.047.588.098 2.183.003 2.705-.024.131-.06.22-.177.294H71.211zm12.713-3.531c-.096-2.645-2.34-4.925-4.9-5.4-3.799-.708-7.285 1.543-7.812 5.4zM38.136 9.283c-.1-2.779.293-5.653 2.534-7.53 2.599-2.175 7.455-2.298 10.301-.522l-1.413 3.883-.164.04c-1.727-1.17-4.775-1.336-5.792.829-.061.13-.288.692-.288.77v2.532h6.238v4.06l-.177.177h-5.944v18.126h-5.296V13.521h-3.65V9.283h3.65M31.545.338v31.309h-5.297V.514l.177-.176zM65.09 13.874c-2.203-.345-4.706.1-6.235 1.828-1.234 1.396-1.557 3.37-1.65 5.176-.182 3.536.134 7.219-.001 10.769h-5.18V9.166h5.062v3.06c1.48-2.047 3.724-2.977 6.195-3.28.524-.065 1.415-.263 1.809.043z"/></g><defs><clipPath id="a"><path fill="#fff" d="M0 0h114.643v32H0z"/></clipPath></defs></svg>