<svg xmlns="http://www.w3.org/2000/svg" width="127" height="28" fill="none"><path fill="#F3F5F0" d="M98.152.35v26.616h-4.259v-2.409c-2.89 3.115-7.859 3.395-11.473 1.397-6.15-3.399-6.28-13.487-.23-17.02 3.505-2.045 8.636-1.972 11.473 1.168V.351h4.489ZM87.308 11.398c-3.826.408-5.622 4.003-4.872 7.544 1.22 5.753 9.53 5.965 11.054.339 1.152-4.256-1.53-8.378-6.182-7.883Z"/><path fill="#F3F5F0" d="M76.168 18.822H61.089c.966 5.172 8.186 5.96 11.453 2.525l2.346 2.715-.037.15c-4.672 4.991-14.745 3.68-17.466-2.788-3.412-8.11 3.701-15.735 12.131-13.469 4.811 1.294 7.32 6.112 6.651 10.867Zm-4.144-2.983c-.838-6.26-10.154-6.267-10.934 0h10.934ZM27.25.35h-4.489v26.616h4.49V.351Zm15.307 4.13 1.26-3.388C43.31.744 42.725.507 42.121.343a8.099 8.099 0 0 0-3.423-.27c-4.086.477-6.262 3.44-5.808 7.85h-3.223v3.556h3.223v15.488h4.489V11.479h5.18V7.923h-5.41c-.318-3.843 2.09-5.387 5.408-3.442ZM5.359 7.957c-1.594.344-3.087.98-4.417 1.914L2.62 13.2c3.262-2.563 10.9-3.34 10.704 2.524-4.328.012-12.655-.893-13.012 5.33-.308 5.36 5.878 7.117 10.228 5.707 1.002-.23 2.306-1.018 3.013-2.089v2.295h4.26l.004-11.88C17.391 8.06 11.341 6.67 5.36 7.958Zm.377 15.272c-1.352-.99-1.371-3.155.142-3.97.229-.123.684-.28 1.116-.396a5.71 5.71 0 0 1 1.199-.156h5.13v2.237c0 .228-.713 1.284-.916 1.496-1.504 1.563-4.886 2.095-6.67.789ZM51.883 8.21c-.955.377-1.549.838-2.163 1.47h.003a7.409 7.409 0 0 0-.834.993V7.808H44.63v19.159h4.49v-9.433c0-.499.046-.996.148-1.484.648-3.107 3.11-4.752 6.527-4.227V7.578c-1.29-.02-2.704.158-3.912.633Zm69.058 1.663h-13.112l3.388 2.757a3.74 3.74 0 0 1 1.353 2.467l.661 5.674 7.71-10.898Z"/><path fill="#F3F5F0" d="m124.004 8.288-11.869 16.776-1.139-9.784a2.142 2.142 0 0 0-.779-1.42l-6.846-5.572h20.633Zm0-2.1h-20.633a2.102 2.102 0 0 0-1.326 3.73l6.845 5.57c.013.011.017.018.019.035l1.139 9.784a2.102 2.102 0 0 0 3.802.97l11.869-16.776a2.102 2.102 0 0 0-1.715-3.314Z"/></svg>