<svg xmlns="http://www.w3.org/2000/svg" width="750" height="262" fill="none" viewBox="0 0 750 262"><path fill="#fff" d="M0 0h750v262H0z"/><path fill="#272cc8" d="M258.469 99.29a3.34 3.34 0 0 1 2.542.898 7.7 7.7 0 0 1 1.483 2.678l25.859 66.577q.1.363.106.74a2.75 2.75 0 0 1-.847 2.008 2.8 2.8 0 0 1-2.013.828h-7.59a3.98 3.98 0 0 1-2.965-.88 5.3 5.3 0 0 1-1.165-1.762l-4.536-11.698h-33.344l-4.518 11.715a5.3 5.3 0 0 1-1.165 1.762 3.97 3.97 0 0 1-2.948.881h-7.625a2.86 2.86 0 0 1-2.005-.836 2.85 2.85 0 0 1-.837-2 2.3 2.3 0 0 1 .106-.74l25.859-66.595a7.4 7.4 0 0 1 1.465-2.695 3.33 3.33 0 0 1 2.542-.899zm5.808 46.246-11.597-29.95-11.615 29.95zM341.854 159.859a2.759 2.759 0 0 1 2.012.846 2.8 2.8 0 0 1 .83 1.991v7.487a2.82 2.82 0 0 1-2.842 2.836h-46.229a2.8 2.8 0 0 1-2.012-.828 2.72 2.72 0 0 1-.83-2.008v-68.057a2.7 2.7 0 0 1 .83-1.955 2.75 2.75 0 0 1 2.012-.846h8.543a2.897 2.897 0 0 1 2.86 2.836v57.698zM345.755 126.597a33.4 33.4 0 0 1 2.33-11.539 24.5 24.5 0 0 1 6.125-8.95 27.4 27.4 0 0 1 9.867-5.796 47.88 47.88 0 0 1 28.806.317 30 30 0 0 1 9.497 5.69 19.8 19.8 0 0 1 4.96 6.836 21.5 21.5 0 0 1 1.641 5.955 2.34 2.34 0 0 1-.794 2.061 3.04 3.04 0 0 1-2.065.793h-8.543a2.78 2.78 0 0 1-1.766-.582 3.9 3.9 0 0 1-1.006-1.215c-.141-.282-.512-.899-1.094-1.85a12.2 12.2 0 0 0-2.86-2.942 19.7 19.7 0 0 0-5.118-2.749 22.7 22.7 0 0 0-7.908-1.198 18.24 18.24 0 0 0-12.674 4.264 15.6 15.6 0 0 0-5.066 11.434c-.141 2.66-.211 5.514-.211 8.579s0 5.92.211 8.58q.318 8.81 5.066 12.702a19.27 19.27 0 0 0 12.674 3.947 28.6 28.6 0 0 0 7.166-.846 14.7 14.7 0 0 0 5.649-2.748 12.44 12.44 0 0 0 3.706-4.986 19.9 19.9 0 0 0 1.307-7.646v-.846h-12.868a2.76 2.76 0 0 1-2.012-.845 2.704 2.704 0 0 1-.848-1.991v-7.505a2.71 2.71 0 0 1 .848-1.991 2.75 2.75 0 0 1 2.012-.846h24.27a2.76 2.76 0 0 1 2.012.846 2.68 2.68 0 0 1 .83 1.991v11.592a32.7 32.7 0 0 1-1.995 11.645 24.5 24.5 0 0 1-6.019 9.161 28 28 0 0 1-10.025 6.008 47.1 47.1 0 0 1-27.96 0 26.7 26.7 0 0 1-9.814-5.902 25 25 0 0 1-6.107-9.055 35.3 35.3 0 0 1-2.277-11.645c0-1.339-.124-2.802-.159-4.422-.036-1.621 0-3.277 0-4.951v-4.951c0-1.603.141-3.1.212-4.404M467.018 159.859a2.896 2.896 0 0 1 2.86 2.836v7.488a2.75 2.75 0 0 1-.847 2.008 2.8 2.8 0 0 1-2.013.828h-46.334a2.86 2.86 0 0 1-2.842-2.836v-68.057a2.742 2.742 0 0 1 .847-1.991 2.72 2.72 0 0 1 1.995-.845h45.558a2.889 2.889 0 0 1 2.859 2.836v7.488a2.86 2.86 0 0 1-.825 2.041 2.86 2.86 0 0 1-2.034.848h-34.155v16.754h31.772a2.73 2.73 0 0 1 1.994.846 2.74 2.74 0 0 1 .848 2.008v7.47a2.75 2.75 0 0 1-.848 2.009 2.7 2.7 0 0 1-1.994.828h-31.772v17.494zM480.522 173.019a2.86 2.86 0 0 1-2.842-2.836v-68.057a2.718 2.718 0 0 1 .918-1.955 2.71 2.71 0 0 1 1.994-.846h31.137c3.869-.12 7.72.583 11.297 2.061a20.85 20.85 0 0 1 7.272 5.162 19.4 19.4 0 0 1 3.971 6.73 22 22 0 0 1 1.201 6.801 17.8 17.8 0 0 1-.83 5.637 16.7 16.7 0 0 1-2.065 4.211 18 18 0 0 1-2.436 2.889 10.6 10.6 0 0 1-1.942 1.586 23.1 23.1 0 0 1 5.949 6.289 18.02 18.02 0 0 1 2.701 10.218 22.5 22.5 0 0 1-1.483 7.946 21.7 21.7 0 0 1-4.325 7.047 21.5 21.5 0 0 1-7.06 5.109 23.55 23.55 0 0 1-9.867 1.938zm40.597-52.447a7.37 7.37 0 0 0-2.524-6.06 12.67 12.67 0 0 0-7.996-2.009h-18.675v16.226h18.675c2.84.202 5.667-.548 8.031-2.132a7.4 7.4 0 0 0 2.525-6.025zm-29.23 39.287h19.522c3.866 0 6.708-.828 8.49-2.466a9.097 9.097 0 0 0 0-13.02 12.18 12.18 0 0 0-8.402-2.519h-19.575zM574.885 99.29q13.185 0 20.052 6.113 6.865 6.114 6.849 16.948a23.6 23.6 0 0 1-3.531 13.125 20.9 20.9 0 0 1-10.396 8.052l14.562 26.021c.195.357.304.756.318 1.162a2.313 2.313 0 0 1-2.348 2.308h-8.967a4.22 4.22 0 0 1-3.106-.986 7.5 7.5 0 0 1-1.43-1.762l-13.821-24.541h-14.033v24.453a2.75 2.75 0 0 1-.847 2.008 2.8 2.8 0 0 1-2.012.828h-8.543a2.8 2.8 0 0 1-2.013-.828 2.73 2.73 0 0 1-.847-2.008v-68.057a2.896 2.896 0 0 1 2.86-2.836zm-15.886 33.174h15.304c3.33.161 6.643-.563 9.602-2.097 2.383-1.409 3.53-4.069 3.53-8.016s-1.2-6.554-3.53-7.892a19.7 19.7 0 0 0-9.549-1.956h-15.304zM647.59 98.419a3.34 3.34 0 0 1 2.542.898c.656.79 1.153 1.7 1.465 2.678l25.859 66.577c.075.239.11.489.106.74a2.85 2.85 0 0 1-.838 2 2.86 2.86 0 0 1-2.004.836h-7.608a3.92 3.92 0 0 1-2.947-.881 5.3 5.3 0 0 1-1.165-1.762l-4.537-11.698h-33.361l-4.554 11.698a5 5 0 0 1-1.147 1.762 3.98 3.98 0 0 1-2.965.881h-7.59a2.8 2.8 0 0 1-2.013-.828 2.76 2.76 0 0 1-.847-2.008 2.4 2.4 0 0 1 .106-.74l25.859-66.577a7.7 7.7 0 0 1 1.483-2.678 3.32 3.32 0 0 1 2.524-.898zm5.754 46.246-11.614-29.95-11.597 29.95z"/><path fill="#db0170" d="M131.79 75.935v71.945a1.926 1.926 0 0 1-.97 1.676l-55.316 31.863a1.935 1.935 0 0 1-2.665-2.582l55.309-103.813c.948-1.77 3.642-1.104 3.642.911"/><path fill="#00f2c8" d="M135.434 75.935v71.945a1.934 1.934 0 0 0 .97 1.676l55.316 31.863a1.94 1.94 0 0 0 2.311-.287 1.94 1.94 0 0 0 .361-2.302L139.073 75.024c-.947-1.77-3.639-1.104-3.639.911"/><path fill="#3542fe" d="m132.534 152.989-54.281 31.4a1.93 1.93 0 0 0-.9 2.178 1.936 1.936 0 0 0 1.87 1.433h108.563a1.93 1.93 0 0 0 1.868-1.434 1.94 1.94 0 0 0-.9-2.177l-54.282-31.41a1.93 1.93 0 0 0-1.938.01"/></svg>