<?xml version="1.0" encoding="utf-8"?>
<!-- Generator: Adobe Illustrator 27.7.0, SVG Export Plug-In . SVG Version: 6.00 Build 0)  -->
<svg version="1.1" id="Layer_1" xmlns="http://www.w3.org/2000/svg" xmlns:xlink="http://www.w3.org/1999/xlink" x="0px" y="0px"
	 viewBox="0 0 1081 310" style="enable-background:new 0 0 1081 310;" xml:space="preserve">
<style type="text/css">
	.st0{fill:#101010;}
	.st1{fill-rule:evenodd;clip-rule:evenodd;fill:#FCD72B;}
	.st2{fill:#FCD72B;}
</style>
<path class="st0" d="M488.2,226.7L478,197.1h-65l-10.2,29.6h-29.6l56.2-158h32.1l56.2,158L488.2,226.7L488.2,226.7z M421.2,172.7
	H470l-23.9-70h-0.9L421.2,172.7z"/>
<path class="st0" d="M533.6,226.7v-158h27.1v158H533.6z"/>
<path class="st0" d="M649.8,115.9c14.1,0,25.9,5.3,35.2,15.8c9.5,10.5,14.2,24.2,14.2,41.1c0,16.7-4.7,30.3-14.2,40.9
	c-9.5,10.5-21.2,15.8-35.2,15.8c-7.2,0-13.8-1.4-19.6-4.3c-5.9-3-10.2-6.8-13.1-11.5h-0.7v63.6h-27.1V118.6h24.6l1.1,13.8h0.9
	c2.9-5,7.4-9,13.5-12C635.6,117.4,642.4,115.9,649.8,115.9z M643.5,205.2c8.4,0,15.2-2.9,20.3-8.8c5.3-5.9,7.9-13.8,7.9-23.7
	c0-10.1-2.6-18.1-7.9-23.9c-5.1-5.9-11.9-8.8-20.3-8.8c-7.7,0-14.1,2.5-19.4,7.4c-5.1,4.8-7.7,10.8-7.7,17.8V180
	c0,7.1,2.6,13.1,7.7,18.1C629.3,202.8,635.8,205.2,643.5,205.2z"/>
<path class="st0" d="M801.2,118.6h24.6v108.1h-24.6l-1.4-13.8h-0.7c-3,5-7.6,9-13.8,12c-6,3-12.7,4.5-20.1,4.5
	c-14.1,0-26-5.3-35.4-15.8c-9.5-10.5-14.2-24.1-14.2-40.9c0-16.7,4.7-30.3,14.2-40.9c9.5-10.7,21.3-16,35.4-16
	c7.4,0,14.1,1.5,20.1,4.5c6.2,3,10.8,7,13.8,12h0.7L801.2,118.6z M798.7,180v-14.7c0-7.1-2.6-13-7.9-17.8c-5.1-5-11.6-7.4-19.4-7.4
	c-8.3,0-15,2.9-20.3,8.8c-5.3,5.9-7.9,13.8-7.9,23.9c0,9.9,2.6,17.8,7.9,23.7c5.3,5.9,12,8.8,20.3,8.8c7.8,0,14.3-2.4,19.4-7.2
	C796,193.1,798.7,187,798.7,180z"/>
<path class="st0" d="M903.3,229.4c-16.1,0-29.3-5.3-39.7-15.8c-10.2-10.5-15.3-24.1-15.3-40.9c0-16.7,5.1-30.3,15.3-40.9
	c10.4-10.7,23.7-16,40-16c13.7,0,25.3,3.8,34.8,11.3c9.5,7.4,15.2,17.3,17.2,29.8l-27.3,4.3c-1.1-6.5-3.9-11.6-8.6-15.3
	c-4.5-3.9-9.9-5.9-16.3-5.9c-8,0-14.6,3-19.9,9c-5.1,5.9-7.7,13.8-7.7,23.7s2.6,17.8,7.7,23.7c5.3,5.9,12,8.8,20.1,8.8
	c6.3,0,11.8-1.8,16.5-5.4c4.8-3.8,7.8-8.9,9-15.3l26.4,4.3c-2,12.2-7.7,22-17.4,29.6C928.5,225.7,916.9,229.4,903.3,229.4z"/>
<path class="st0" d="M1055.4,118.6h24.6v108.1h-24.6l-1.3-13.8h-0.7c-3,5-7.6,9-13.8,12c-6,3-12.7,4.5-20.1,4.5
	c-14.2,0-26-5.3-35.4-15.8c-9.5-10.5-14.2-24.1-14.2-40.9c0-16.7,4.7-30.3,14.2-40.9c9.5-10.7,21.3-16,35.4-16
	c7.4,0,14.1,1.5,20.1,4.5c6.2,3,10.8,7,13.8,12h0.7L1055.4,118.6z M1052.9,180v-14.7c0-7.1-2.6-13-7.9-17.8
	c-5.1-5-11.6-7.4-19.4-7.4c-8.3,0-15,2.9-20.3,8.8c-5.3,5.9-7.9,13.8-7.9,23.9c0,9.9,2.6,17.8,7.9,23.7c5.3,5.9,12,8.8,20.3,8.8
	c7.8,0,14.3-2.4,19.4-7.2C1050.3,193.1,1052.9,187,1052.9,180z"/>
<path class="st1" d="M106.7,301.4L118.9,173h-1.1c-9.7,0-17.7-3.5-25.1-9.8s-12.3-15.1-13.8-24.8l22.9-14.9v-0.2
	c0-10.1,3.9-19.9,10.9-27.2s16.5-11.7,26.6-12.1h6.8V60c4.8,0,9.5,1.7,13.2,4.9c3.7,3.1,6.1,7.5,7,12.3h0.3V59.9
	c3.6,0,7.2,1,10.3,2.8s5.7,4.5,7.5,7.7c1.8,3.2,2.7,6.8,2.6,10.4c-0.1,3.6-1.1,7.2-3,10.3c6.1,4,11.2,9.6,14.7,16.1
	s5.3,13.8,5.3,21.2v155c0,0.6,0.1,1.3,0.2,1.9c0.5,2.2,1.8,3.6,2.3,4.2c2.5,2.7,5.9,3.2,7.6,3.5c3.8,0.6,6.8-0.3,8.5-1
	c49.8-25.4,83.9-77.5,83.9-137.5c0-85.1-68.6-154.1-153.2-154.1C68.6,0.3,0,69.3,0,154.5C0,223.3,44.9,281.6,106.7,301.4z"/>
<path class="st2" d="M123.4,130.6c0-1.2,0.5-2.4,1.4-3.3c0.9-0.9,2.1-1.4,3.3-1.4h13.6c0,2.5-1,4.9-2.7,6.7
	c-1.8,1.8-4.1,2.8-6.6,2.8H123L123.4,130.6z"/>
</svg>
