<svg xmlns="http://www.w3.org/2000/svg" data-name="Layer 2" viewBox="0 0 152 43.8"><g data-name="Layer 1"><path d="M68.9 32.3 67.4 28h-9.1l-1.4 4.3h-4.2l7.9-22.9h4.5L73 32.3h-4.1Zm-9.5-7.8h6.8l-3.4-10.1h-.1l-3.3 10.1Zm15.8 7.8V9.4H79v22.9h-3.8Zm16.4-16c2 0 3.6.8 4.9 2.3s2 3.5 2 6c0 2.4-.7 4.4-2 5.9s-3 2.3-4.9 2.3c-1 0-1.9-.2-2.8-.6-.8-.4-1.4-1-1.8-1.7h-.1v9.2h-3.8v-23h3.5l.2 2h.1c.4-.7 1-1.3 1.9-1.7.8-.5 1.7-.7 2.8-.7Zm-.9 12.9c1.2 0 2.1-.4 2.9-1.3.7-.9 1.1-2 1.1-3.4 0-1.5-.4-2.6-1.1-3.5s-1.7-1.3-2.9-1.3c-1.1 0-2 .4-2.7 1.1s-1.1 1.6-1.1 2.6v2.1c0 1 .4 1.9 1.1 2.6.7.8 1.6 1.1 2.7 1.1Zm22.1-12.5h3.5v15.7h-3.5l-.2-2h-.1c-.4.7-1.1 1.3-1.9 1.7s-1.8.7-2.8.7c-2 0-3.6-.8-5-2.3-1.3-1.5-2-3.5-2-5.9s.7-4.4 2-5.9 3-2.3 5-2.3c1 0 2 .2 2.8.7.9.4 1.5 1 1.9 1.7h.1l.2-2.1Zm-.3 8.9v-2.1c0-1-.4-1.9-1.1-2.6s-1.6-1.1-2.7-1.1c-1.2 0-2.1.4-2.9 1.3-.7.9-1.1 2-1.1 3.5 0 1.4.4 2.6 1.1 3.4.7.9 1.7 1.3 2.9 1.3 1.1 0 2-.3 2.7-1 .7-.8 1.1-1.7 1.1-2.7Zm14.7 7.1c-2.3 0-4.1-.8-5.6-2.3-1.4-1.5-2.2-3.5-2.2-5.9s.7-4.4 2.2-5.9 3.3-2.3 5.6-2.3c1.9 0 3.6.5 4.9 1.6 1.3 1.1 2.1 2.5 2.4 4.3l-3.8.6c-.1-.9-.5-1.7-1.2-2.2-.6-.6-1.4-.9-2.3-.9-1.1 0-2 .4-2.8 1.3-.7.9-1.1 2-1.1 3.4s.4 2.6 1.1 3.4c.7.9 1.7 1.3 2.8 1.3.9 0 1.7-.3 2.3-.8.7-.5 1.1-1.3 1.3-2.2l3.7.6c-.3 1.8-1.1 3.2-2.4 4.3-1.4 1.2-3 1.7-4.9 1.7Zm21.3-16h3.5v15.7h-3.5l-.2-2h-.1c-.4.7-1.1 1.3-1.9 1.7-.8.4-1.8.7-2.8.7-2 0-3.6-.8-5-2.3-1.3-1.5-2-3.5-2-5.9s.7-4.4 2-5.9 3-2.3 5-2.3c1 0 2 .2 2.8.7.9.4 1.5 1 1.9 1.7h.1l.2-2.1Zm-.3 8.9v-2.1c0-1-.4-1.9-1.1-2.6-.7-.7-1.6-1.1-2.7-1.1-1.2 0-2.1.4-2.9 1.3-.7.9-1.1 2-1.1 3.5 0 1.4.4 2.6 1.1 3.4.7.9 1.7 1.3 2.9 1.3 1.1 0 2-.3 2.7-1 .7-.8 1.1-1.7 1.1-2.7Z" style="fill:#f3f5f0"/><path d="m15.1 43 1.7-18.3h-.2c-1.4 0-2.5-.5-3.6-1.4-1-.9-1.7-2.2-2-3.5l3.2-2.1c0-1.4.6-2.8 1.5-3.9 1-1 2.3-1.7 3.8-1.7h1V8.5c.7 0 1.3.2 1.9.7.5.4.9 1.1 1 1.8V8.5c.5 0 1 .1 1.5.4.4.3.8.6 1.1 1.1.3.5.4 1 .4 1.5s-.2 1-.4 1.5c.9.6 1.6 1.4 2.1 2.3s.8 2 .8 3v22.1c0 .3.1.6.4.9.2.2.5.4.9.4h1.4c-2 1-4.2 1.8-6.5 2.1C35.4 42.1 43.4 33 43.4 22c0-12.2-9.7-22-21.7-22S0 9.8 0 22c0 9.8 6.3 18.1 15.1 21Zm2.6-24.9c-.1.1-.2.3-.2.5l-.1.7h1.3c.4 0 .7-.1.9-.4.2-.3.4-.6.4-1h-1.9c-.2 0-.3.1-.4.2Z" style="fill:#f3f5f0;fill-rule:evenodd"/></g></svg>