<svg xmlns="http://www.w3.org/2000/svg" data-name="Layer 1" viewBox="0 0 462.66 80.08"><path fill="#1d1d1b" d="M204.62 33.37v42.26c0 2.45-1.99 4.44-4.44 4.44s-4.44-1.99-4.44-4.44V33.37c0-2.45 1.99-4.44 4.44-4.44s4.44 1.99 4.44 4.44M202.56.69a4.45 4.45 0 0 0-6.13 1.41l-40.76 65.1L115 2.09a4.449 4.449 0 0 0-8.22 2.36v71.18c0 2.46 1.99 4.45 4.45 4.45s4.45-1.99 4.45-4.45V19.97l36.21 57.97a4.446 4.446 0 0 0 7.54 0l44.54-71.13c1.3-2.08.67-4.83-1.41-6.13ZM244.68 0c-2.46 0-4.45 1.99-4.45 4.45v71.18c0 2.46 1.99 4.45 4.45 4.45s4.45-1.99 4.45-4.45V4.45c0-2.46-2-4.45-4.45-4.45M42.03.47c-2.2-1.1-4.87-.21-5.97 1.99L.47 73.64a4.447 4.447 0 0 0 3.98 6.44c1.63 0 3.2-.9 3.98-2.46L44.02 6.44c1.1-2.2.21-4.87-1.99-5.97m12.12 23.09a4.45 4.45 0 0 0-5.98-1.95 4.45 4.45 0 0 0-1.95 5.98l25.42 50.05a4.45 4.45 0 0 0 5.98 1.95 4.45 4.45 0 0 0 1.95-5.98zm360.32-1.95a4.45 4.45 0 0 0-5.98 1.95l-25.43 50.05a4.45 4.45 0 0 0 1.95 5.98 4.461 4.461 0 0 0 5.98-1.95l25.43-50.05a4.45 4.45 0 0 0-1.95-5.98m47.71 52.02L426.59 2.46a4.447 4.447 0 0 0-5.97-1.99 4.447 4.447 0 0 0-1.99 5.97l35.6 71.18a4.446 4.446 0 0 0 5.97 1.99c2.2-1.1 3.09-3.77 1.99-5.97ZM351.44 0c-2.46 0-4.45 1.99-4.45 4.45v44.48c0 2.46 1.99 4.45 4.45 4.45s4.45-1.99 4.45-4.45V4.45c0-2.46-1.99-4.45-4.45-4.45m-58.93 1.52A4.44 4.44 0 0 0 287.6.29a4.45 4.45 0 0 0-2.88 4.16v71.18c0 2.46 1.99 4.45 4.45 4.45s4.45-1.99 4.45-4.45V16.29l54.48 62.27a4.42 4.42 0 0 0 3.35 1.52 4.45 4.45 0 0 0 3.35-7.38z"/></svg>