<svg xmlns="http://www.w3.org/2000/svg" data-name="Layer 2" viewBox="0 0 1466.188 253.786"><path d="M648.45 105.761v133.923c0 7.764-6.307 14.07-14.071 14.07s-14.07-6.306-14.07-14.07V105.76c0-7.764 6.306-14.07 14.07-14.07s14.07 6.306 14.07 14.07ZM641.92 2.197c-6.591-4.12-15.306-2.123-19.426 4.469l-129.17 206.303L364.443 6.634C361.114 1.31 354.65-1.193 348.597.55a14.09 14.09 0 0 0-10.204 13.563v225.57c0 7.796 6.306 14.103 14.102 14.103s14.102-6.307 14.102-14.102V63.296l114.75 183.708a14.09 14.09 0 0 0 11.947 6.623 14.09 14.09 0 0 0 11.947-6.623L646.39 21.592c4.12-6.592 2.124-15.307-4.468-19.426v.031ZM775.401.011c-7.797 0-14.103 6.306-14.103 14.102v225.57c0 7.796 6.306 14.103 14.102 14.103s14.102-6.307 14.102-14.102V14.113c0-7.796-6.338-14.102-14.102-14.102ZM133.198 1.5c-6.972-3.487-15.433-.666-18.92 6.306L1.495 233.377c-3.486 6.972-.665 15.433 6.307 18.92a14.06 14.06 0 0 0 6.306 1.489 14.09 14.09 0 0 0 12.613-7.796L139.505 20.42c3.486-6.973.665-15.434-6.306-18.92Zm38.408 73.172c-3.517-6.94-12.01-9.697-18.95-6.18-6.94 3.518-9.698 12.01-6.18 18.951l80.556 158.61c2.472 4.88 7.447 7.7 12.581 7.7 2.155 0 4.342-.507 6.37-1.521 6.94-3.518 9.697-12.01 6.18-18.95l-80.557-158.61Zm1141.86-6.18c-6.94-3.517-15.432-.76-18.95 6.18l-80.588 158.61c-3.518 6.94-.76 15.432 6.18 18.95a13.946 13.946 0 0 0 6.37 1.521c5.133 0 10.077-2.82 12.58-7.7l80.588-158.61c3.518-6.94.76-15.433-6.18-18.95Zm151.195 164.853L1351.876 7.806c-3.486-6.971-11.947-9.792-18.919-6.306-6.972 3.486-9.792 11.947-6.306 18.92l112.817 225.57a14.088 14.088 0 0 0 12.613 7.796 14.06 14.06 0 0 0 6.306-1.49c6.972-3.486 9.792-11.947 6.306-18.919l-.031-.031ZM1113.725.01c-7.796 0-14.103 6.306-14.103 14.102V155.07c0 7.796 6.307 14.102 14.103 14.102s14.102-6.306 14.102-14.102V14.113c0-7.796-6.307-14.102-14.102-14.102Zm-186.75 4.817c-3.867-4.405-10.078-5.99-15.56-3.898a14.095 14.095 0 0 0-9.127 13.183v225.57c0 7.796 6.306 14.103 14.102 14.103s14.102-6.307 14.102-14.102V51.634L1103.14 248.97c2.789 3.2 6.687 4.817 10.616 4.817a14.07 14.07 0 0 0 9.286-3.486c5.862-5.134 6.464-14.039 1.33-19.902L926.975 4.828Z" data-name="Layer 1" style="fill:#f3f5f0"/></svg>