<svg id="Layer_1" data-name="Layer 1" xmlns="http://www.w3.org/2000/svg" viewBox="0 0 462.66 80.08">
  <path fill="#1D1D1B" d="m204.62,33.37v42.26c0,2.45-1.99,4.44-4.44,4.44s-4.44-1.99-4.44-4.44v-42.26c0-2.45,1.99-4.44,4.44-4.44s4.44,1.99,4.44,4.44Zm-2.06-32.68c-2.08-1.3-4.83-.67-6.13,1.41l-40.76,65.1L115,2.09c-1.05-1.68-3.09-2.47-5-1.92-1.91.55-3.22,2.29-3.22,4.28v71.18c0,2.46,1.99,4.45,4.45,4.45s4.45-1.99,4.45-4.45V19.97l36.21,57.97c.81,1.3,2.24,2.09,3.77,2.09h0c1.53,0,2.96-.79,3.77-2.09L203.97,6.81c1.3-2.08.67-4.83-1.41-6.13ZM244.68,0c-2.46,0-4.45,1.99-4.45,4.45v71.18c0,2.46,1.99,4.45,4.45,4.45s4.45-1.99,4.45-4.45V4.45C249.13,1.99,247.13,0,244.68,0ZM42.03.47c-2.2-1.1-4.87-.21-5.97,1.99L.47,73.64c-1.1,2.2-.21,4.87,1.99,5.97.64.32,1.32.47,1.99.47,1.63,0,3.2-.9,3.98-2.46L44.02,6.44c1.1-2.2.21-4.87-1.99-5.97Zm12.12,23.09c-1.11-2.19-3.79-3.06-5.98-1.95-2.19,1.11-3.06,3.79-1.95,5.98l25.42,50.05c.78,1.54,2.35,2.43,3.97,2.43.68,0,1.37-.16,2.01-.48,2.19-1.11,3.06-3.79,1.95-5.98l-25.42-50.05Zm360.32-1.95c-2.19-1.11-4.87-.24-5.98,1.95l-25.43,50.05c-1.11,2.19-.24,4.87,1.95,5.98.65.33,1.33.48,2.01.48,1.62,0,3.18-.89,3.97-2.43l25.43-50.05c1.11-2.19.24-4.87-1.95-5.98Zm47.71,52.02L426.59,2.46c-1.1-2.2-3.77-3.09-5.97-1.99-2.2,1.1-3.09,3.77-1.99,5.97l35.6,71.18c.78,1.56,2.35,2.46,3.98,2.46.67,0,1.35-.15,1.99-.47,2.2-1.1,3.09-3.77,1.99-5.97ZM351.44,0c-2.46,0-4.45,1.99-4.45,4.45v44.48c0,2.46,1.99,4.45,4.45,4.45s4.45-1.99,4.45-4.45V4.45c0-2.46-1.99-4.45-4.45-4.45Zm-58.93,1.52c-1.22-1.39-3.18-1.89-4.91-1.23-1.73.65-2.88,2.31-2.88,4.16v71.18c0,2.46,1.99,4.45,4.45,4.45s4.45-1.99,4.45-4.45V16.29l54.48,62.27c.88,1.01,2.11,1.52,3.35,1.52,1.04,0,2.08-.36,2.93-1.10,1.85-1.62,2.04-4.43.42-6.28L292.51,1.52Z"/>
</svg>
