<svg xmlns="http://www.w3.org/2000/svg" width="64" height="64" fill="none" viewBox="0 0 64 64"><circle cx="32" cy="32" r="32" fill="#fff"/><path fill="#14a761" d="M20.466 20.561c-5.138 5.137-10.507 8.096-10.681 7.923s2.785-5.544 7.922-10.68c5.138-5.138 9.92-8.685 10.681-7.923.762.761-2.785 5.543-7.923 10.68M43.786 43.88c-5.137 5.137-8.096 10.508-7.923 10.68.174.174 5.544-2.784 10.68-7.922 5.138-5.137 8.685-9.919 7.923-10.68-.761-.762-5.543 2.785-10.68 7.923M26.957 27.054c-8.309 8.308-16.689 13.399-17.03 13.058-.34-.34 4.75-8.721 13.058-17.03 8.309-8.308 15.933-14.154 17.03-13.057 1.096 1.096-4.75 8.72-13.058 17.029M37.293 37.389c-8.309 8.308-13.399 16.688-13.058 17.03.34.34 8.72-4.75 17.03-13.058 8.308-8.309 14.154-15.933 13.057-17.03s-8.721 4.75-17.03 13.058M34.772 34.87c-9.864 9.863-19.969 15.749-20.507 15.21s5.348-10.643 15.211-20.506S48.521 12.9 49.983 14.363s-5.348 10.643-15.211 20.506"/></svg>