<svg width="64" height="64" viewBox="0 0 64 64" fill="none" xmlns="http://www.w3.org/2000/svg">
<circle cx="32" cy="32" r="32" fill="white"/>
<path d="M20.4655 20.5613C15.3284 25.6984 9.95854 28.6574 9.785 28.4838C9.61147 28.3103 12.5704 22.9404 17.7075 17.8033C22.8446 12.6662 27.6264 9.11916 28.388 9.88076C29.1496 10.6423 25.6026 15.4242 20.4655 20.5613Z" fill="#14A761"/>
<path d="M43.7856 43.8807C38.6486 49.0175 35.6896 54.3876 35.8631 54.5608C36.0367 54.7345 41.4065 51.7757 46.5436 46.6385C51.6806 41.5013 55.2277 36.7195 54.4661 35.9579C53.7045 35.1963 48.9227 38.7434 43.7856 43.8807Z" fill="#14A761"/>
<path d="M26.9569 27.054C18.6485 35.3624 10.2681 40.4525 9.92753 40.1119C9.58691 39.7712 14.677 31.3908 22.9854 23.0824C31.2937 14.7741 38.9181 8.92785 40.0148 10.0246C41.1115 11.1213 35.2653 18.7456 26.9569 27.054Z" fill="#14A761"/>
<path d="M37.2927 37.3888C28.9843 45.6971 23.8942 54.0775 24.2348 54.4183C24.5754 54.7588 32.9558 49.6686 41.2642 41.3605C49.5726 33.052 55.4186 25.4277 54.3219 24.331C53.2252 23.2343 45.601 29.0805 37.2927 37.3888Z" fill="#14A761"/>
<path d="M34.7715 34.8693C24.9083 44.7327 14.8031 50.6189 14.2649 50.0805C13.7267 49.5424 19.6129 39.4372 29.4761 29.5739C39.3394 19.7107 48.5205 12.9004 49.9827 14.3626C51.4451 15.8249 44.6347 25.0061 34.7715 34.8693Z" fill="#14A761"/>
</svg>
