<svg xmlns="http://www.w3.org/2000/svg" id="Layer_1" data-name="Layer 1" viewBox="0 0 934.01 211.4"><defs><style>.cls-1{fill:#fff}</style></defs><path d="M180.18 33.73 127.55.03l-52.62 33.7 52.62 33.71zM74.93 177.66l52.62 33.71 52.63-33.71-52.63-33.7zM52.63 96 0 129.7l52.63 33.7 52.62-33.7zM202.48 96l-52.62 33.7 52.62 33.7 52.63-33.7zM372.29 50.57q-12.525 0-19.62 5.22c-4.73 3.48-7.09 8.3-7.09 14.46 0 2.49.46 4.82 1.37 6.98.92 2.16 2.25 4.03 4.01 5.61s3.94 2.8 6.54 3.68 5.62 1.32 9.07 1.32c4.98 0 9.53-1.06 13.63-3.19 4.1-2.12 7.33-4.95 9.67-8.46v10.44h11.43V49.91c0-3.59-.59-6.85-1.76-9.78s-2.9-5.44-5.17-7.53-5.08-3.7-8.41-4.84c-3.34-1.14-7.13-1.7-11.38-1.7-6.38 0-11.86 1.28-16.43 3.85-4.58 2.57-8.34 5.79-11.27 9.67l10.55 6.16c1.69-2.93 3.96-5.26 6.82-6.98s6.27-2.58 10.22-2.58c5.28 0 9.16 1.25 11.65 3.74s3.74 5.72 3.74 9.67v.99h-17.59Zm17.59 14.4c-.95 1.98-2.18 3.74-3.68 5.28a23.2 23.2 0 0 1-5 3.9 25.2 25.2 0 0 1-5.83 2.47c-2.05.59-4.14.88-6.27.88-3.96 0-6.85-.73-8.68-2.2-1.83-1.46-2.75-3.48-2.75-6.05 0-2.93 1.19-5.2 3.57-6.82 2.38-1.61 6.32-2.42 11.82-2.42h16.82v4.95ZM453.86 41c2.56 3.01 3.85 7.04 3.85 12.09v33.53h11.98v-34.4c0-4.03-.57-7.68-1.7-10.94-1.14-3.26-2.75-6.01-4.84-8.24s-4.66-3.96-7.7-5.17-6.43-1.81-10.17-1.81c-4.18 0-7.86.86-11.05 2.58q-4.785 2.58-7.86 6.87v-9.24l-11.65 5v55.36h11.87V53.87c0-2.64.4-5.04 1.21-7.2s1.92-3.99 3.35-5.5c1.43-1.5 3.11-2.66 5.06-3.46 1.94-.81 4.05-1.21 6.32-1.21 4.98 0 8.76 1.5 11.32 4.51ZM529.6 64.64c-1.47 3.45-3.68 6.32-6.65 8.63s-6.58 3.46-10.83 3.46c-2.79 0-5.37-.51-7.75-1.54q-3.57-1.545-6.21-4.23c-1.76-1.8-3.13-3.9-4.12-6.32s-1.48-4.98-1.48-7.7.49-5.28 1.48-7.69c.99-2.42 2.35-4.52 4.07-6.32 1.72-1.79 3.75-3.2 6.1-4.23s4.91-1.54 7.7-1.54c4.03 0 7.57 1.03 10.61 3.08s5.33 4.91 6.87 8.57l10.66-4.62c-1.1-2.64-2.58-5.07-4.45-7.31a30.2 30.2 0 0 0-6.43-5.77 30.2 30.2 0 0 0-7.97-3.74c-2.9-.88-5.99-1.32-9.29-1.32-4.33 0-8.37.79-12.15 2.36q-5.655 2.37-9.84 6.54c-4.185 4.17-4.98 6.05-6.6 9.78-1.61 3.74-2.42 7.81-2.42 12.2s.79 8.35 2.36 12.09q2.37 5.61 6.54 9.78c2.78 2.79 6.08 4.98 9.89 6.6 3.81 1.61 7.91 2.42 12.31 2.42 6.89 0 12.75-1.74 17.59-5.22q7.26-5.22 10.77-13.47l-10.77-4.51ZM590 41c2.53 3.01 3.79 7.04 3.79 12.09v33.53h12.09v-34.4c0-4.03-.57-7.68-1.7-10.94-1.14-3.26-2.75-6.01-4.84-8.24s-4.66-3.96-7.7-5.17-6.43-1.81-10.17-1.81c-4.03 0-7.64.82-10.83 2.47s-5.84 3.87-7.97 6.65V0l-11.76 5.04v81.58h11.87V53.87c0-2.64.4-5.04 1.21-7.2s1.92-3.99 3.35-5.5c1.43-1.5 3.11-2.66 5.06-3.46 1.94-.81 4.01-1.21 6.21-1.21 5.06 0 8.85 1.5 11.38 4.51ZM669.86 35.07c-2.79-2.78-6.06-4.98-9.84-6.6-3.78-1.61-7.79-2.42-12.04-2.42s-8.35.81-12.09 2.42q-5.61 2.415-9.78 6.6c-2.79 2.79-4.98 6.06-6.6 9.84-1.61 3.78-2.42 7.79-2.42 12.04s.81 8.35 2.42 12.09q2.415 5.61 6.6 9.78c2.78 2.79 6.05 4.98 9.78 6.6 3.74 1.61 7.77 2.42 12.09 2.42s8.26-.81 12.04-2.42q5.655-2.415 9.84-6.6c4.185-4.185 4.98-6.05 6.6-9.78 1.61-3.74 2.42-7.77 2.42-12.09s-.81-8.26-2.42-12.04q-2.415-5.655-6.6-9.84m-4.23 29.63c-.99 2.38-2.35 4.47-4.07 6.27a18.8 18.8 0 0 1-6.05 4.23c-2.31 1.03-4.82 1.54-7.53 1.54s-5.22-.51-7.53-1.54a19.1 19.1 0 0 1-6.05-4.23c-1.72-1.8-3.06-3.88-4.01-6.27-.95-2.38-1.43-4.96-1.43-7.75s.48-5.28 1.43-7.69c.95-2.42 2.29-4.52 4.01-6.32 1.72-1.79 3.74-3.2 6.05-4.23s4.82-1.54 7.53-1.54 5.13.51 7.47 1.54c2.35 1.03 4.38 2.44 6.1 4.23 1.72 1.8 3.08 3.9 4.07 6.32s1.48 4.98 1.48 7.69-.49 5.37-1.48 7.75ZM718.01 26.38c-3.81 0-7.15.93-10 2.8-2.86 1.87-4.91 4.67-6.16 8.41V26.26l-11.65 5v55.36h11.87V53.21c0-5.35 1.25-9.16 3.74-11.43s5.86-3.41 10.11-3.41c3.22 0 5.72.59 7.47 1.76l4.62-11.43c-1.17-.73-2.62-1.3-4.34-1.7s-3.61-.6-5.66-.6ZM781.11 32.59c-2.27-2.09-5.08-3.7-8.41-4.84-3.34-1.14-7.13-1.7-11.38-1.7-6.38 0-11.86 1.28-16.43 3.85-4.58 2.57-8.34 5.79-11.27 9.67l10.55 6.16c1.68-2.93 3.96-5.26 6.81-6.98 2.86-1.72 6.27-2.58 10.22-2.58 5.28 0 9.16 1.25 11.65 3.74s3.74 5.72 3.74 9.67v.99H759c-8.35 0-14.9 1.74-19.62 5.22-4.73 3.48-7.09 8.3-7.09 14.46 0 2.49.46 4.82 1.37 6.98.92 2.16 2.25 4.03 4.01 5.61s3.94 2.8 6.54 3.68 5.62 1.32 9.07 1.32c4.98 0 9.53-1.06 13.63-3.19 4.1-2.12 7.33-4.95 9.67-8.46v10.44h11.43V49.91c0-3.59-.59-6.85-1.76-9.78s-2.9-5.44-5.17-7.53Zm-4.51 32.37c-.95 1.98-2.18 3.74-3.68 5.28a23.2 23.2 0 0 1-5 3.9 25.4 25.4 0 0 1-5.83 2.47c-2.05.59-4.14.88-6.27.88-3.96 0-6.85-.73-8.68-2.2-1.83-1.46-2.75-3.48-2.75-6.05 0-2.93 1.19-5.2 3.57-6.82 2.38-1.61 6.32-2.42 11.82-2.42h16.82v4.95ZM849.37 35.84q-3.405-4.62-8.85-7.2c-3.63-1.72-7.42-2.58-11.38-2.58s-7.75.73-11.38 2.2-6.82 3.56-9.56 6.27c-2.75 2.71-4.93 5.96-6.54 9.73-1.61 3.78-2.42 8.01-2.42 12.7s.82 8.83 2.47 12.64q2.475 5.715 6.6 9.78a29.2 29.2 0 0 0 9.51 6.27c3.59 1.47 7.33 2.2 11.21 2.2s7.88-.9 11.54-2.69c3.66-1.8 6.63-4.27 8.9-7.42v4.62c0 2.71-.46 5.18-1.37 7.42-.92 2.23-2.2 4.16-3.85 5.77s-3.63 2.86-5.94 3.74-4.89 1.32-7.75 1.32q-7.26 0-11.76-2.25c-3.01-1.5-5.68-3.87-8.02-7.09l-9.56 7.81c3.22 4.03 7.16 7.11 11.82 9.23 4.65 2.12 10.57 3.19 17.75 3.19 4.25 0 8.22-.71 11.93-2.14 3.7-1.43 6.93-3.45 9.67-6.05 2.75-2.6 4.91-5.72 6.49-9.34 1.58-3.63 2.36-7.64 2.36-12.04V27.26h-11.87v8.57Zm-.82 28.86c-.99 2.46-2.35 4.58-4.07 6.38s-3.77 3.23-6.16 4.29c-2.38 1.06-4.97 1.59-7.75 1.59s-5.37-.51-7.75-1.54-4.45-2.45-6.21-4.29c-1.76-1.83-3.13-3.97-4.12-6.43-.99-2.45-1.48-5.07-1.48-7.86s.49-5.4 1.48-7.86c.99-2.45 2.36-4.58 4.12-6.38q2.64-2.685 6.21-4.23c2.38-1.03 4.96-1.54 7.75-1.54s5.37.53 7.75 1.59 4.43 2.49 6.16 4.29c1.72 1.8 3.08 3.92 4.07 6.38s1.48 5.04 1.48 7.75-.49 5.41-1.48 7.86M934.01 56.39q0-6.6-2.31-12.15c-1.54-3.7-3.67-6.91-6.38-9.62s-5.92-4.82-9.62-6.32q-5.55-2.25-12.15-2.25c-6.6 0-8.47.81-12.2 2.42q-5.61 2.415-9.78 6.6c-2.79 2.79-4.97 6.06-6.54 9.84-1.58 3.78-2.36 7.86-2.36 12.26s.75 8.35 2.25 12.09 3.64 6.98 6.43 9.73c2.78 2.75 6.1 4.91 9.95 6.49 3.85 1.57 8.15 2.36 12.92 2.36 6.45 0 11.87-1.3 16.27-3.9s8.02-6.06 10.88-10.39l-9.78-5.83c-1.76 2.86-4.05 5.17-6.87 6.92q-4.23 2.64-10.5 2.64c-5.5 0-10-1.45-13.52-4.34s-5.72-6.76-6.6-11.6h49.91zm-49.47-5.17c1.17-4.32 3.44-7.86 6.82-10.61 3.37-2.75 7.44-4.12 12.2-4.12s8.99 1.28 12.26 3.85c3.26 2.57 5.33 6.19 6.21 10.88h-37.48ZM389.67 135.44q-3.405-4.395-8.85-6.93c-3.63-1.68-7.42-2.53-11.38-2.53s-7.75.73-11.38 2.2-6.82 3.56-9.56 6.27c-2.75 2.71-4.93 5.96-6.54 9.73-1.61 3.78-2.42 8.01-2.42 12.7s.82 8.83 2.47 12.64q2.475 5.715 6.6 9.78a29.2 29.2 0 0 0 9.51 6.27c3.59 1.47 7.33 2.2 11.21 2.2s7.75-.88 11.38-2.64 6.61-4.18 8.96-7.26v8.68h11.65V99.93l-11.65 5zm-1.32 29.19c-.99 2.46-2.35 4.58-4.07 6.38s-3.77 3.23-6.16 4.29c-2.38 1.06-4.97 1.59-7.75 1.59s-5.37-.51-7.75-1.54-4.45-2.45-6.21-4.29c-1.76-1.83-3.13-3.97-4.12-6.43-.99-2.45-1.48-5.07-1.48-7.86s.49-5.4 1.48-7.86c.99-2.45 2.36-4.58 4.12-6.38q2.64-2.685 6.21-4.23c2.38-1.03 4.96-1.54 7.75-1.54s5.37.53 7.75 1.59 4.43 2.49 6.16 4.29c1.72 1.8 3.08 3.92 4.07 6.38s1.48 5.04 1.48 7.75-.49 5.41-1.48 7.86M420.57 101.97c-2.16 0-3.95.72-5.36 2.16s-2.11 3.24-2.11 5.41.69 3.97 2.07 5.41 3.18 2.16 5.41 2.16 4.05-.72 5.46-2.16 2.11-3.24 2.11-5.41-.71-3.96-2.11-5.41q-2.115-2.16-5.46-2.16ZM519.28 101.97c-2.16 0-3.95.72-5.36 2.16s-2.11 3.24-2.11 5.41.69 3.97 2.07 5.41 3.18 2.16 5.41 2.16 4.05-.72 5.46-2.16 2.11-3.24 2.11-5.41-.71-3.96-2.11-5.41q-2.115-2.16-5.46-2.16ZM414.63 127.19h11.98v59.36h-11.98zM487.95 135.77q-3.405-4.62-8.85-7.2c-3.63-1.72-7.42-2.58-11.38-2.58s-7.75.73-11.38 2.2-6.82 3.56-9.56 6.27c-2.75 2.71-4.93 5.96-6.54 9.73-1.61 3.78-2.42 8.01-2.42 12.7s.82 8.83 2.47 12.64q2.475 5.715 6.6 9.78a29.2 29.2 0 0 0 9.51 6.27c3.59 1.47 7.33 2.2 11.21 2.2s7.88-.9 11.54-2.69 6.63-4.27 8.9-7.42v4.62c0 2.71-.46 5.18-1.37 7.42-.92 2.23-2.2 4.16-3.85 5.77s-3.63 2.86-5.94 3.74-4.89 1.32-7.75 1.32q-7.26 0-11.76-2.25c-3.01-1.5-5.68-3.87-8.02-7.09l-9.56 7.8c3.22 4.03 7.16 7.11 11.82 9.23 4.65 2.12 10.57 3.19 17.75 3.19 4.25 0 8.22-.71 11.93-2.14 3.7-1.43 6.93-3.45 9.67-6.05 2.75-2.6 4.91-5.72 6.48-9.34 1.58-3.63 2.36-7.64 2.36-12.04v-54.63h-11.87v8.57Zm-.82 28.86c-.99 2.46-2.35 4.58-4.07 6.38s-3.77 3.23-6.16 4.29c-2.38 1.06-4.97 1.59-7.75 1.59s-5.37-.51-7.75-1.54-4.45-2.45-6.21-4.29c-1.76-1.83-3.13-3.97-4.12-6.43-.99-2.45-1.48-5.07-1.48-7.86s.49-5.4 1.48-7.86c.99-2.45 2.36-4.58 4.12-6.38q2.64-2.685 6.21-4.23c2.38-1.03 4.96-1.54 7.75-1.54s5.37.53 7.75 1.59 4.43 2.49 6.16 4.29c1.72 1.8 3.08 3.92 4.07 6.38s1.48 5.04 1.48 7.75-.49 5.41-1.48 7.86M513.12 127.19h11.98v59.36h-11.98zM565.89 176.44c-2.35 0-4.23-.73-5.66-2.2s-2.14-3.85-2.14-7.15v-29.24h16.6v-10.66h-16.6v-20.45l-11.65 5v15.45h-11.76v10.66h11.76v29.35c0 7.33 1.61 12.57 4.84 15.72 3.22 3.15 7.8 4.73 13.74 4.73q3.735 0 6.87-.93c2.09-.62 3.97-1.52 5.66-2.69l-5.61-9.89c-1.76 1.54-3.77 2.31-6.05 2.31ZM631.84 132.52c-2.27-2.09-5.08-3.7-8.41-4.84-3.34-1.14-7.13-1.7-11.38-1.7-6.38 0-11.86 1.28-16.43 3.85-4.58 2.57-8.34 5.79-11.27 9.67l10.55 6.16c1.69-2.93 3.96-5.26 6.82-6.98s6.27-2.58 10.22-2.58c5.28 0 9.16 1.25 11.65 3.74s3.74 5.72 3.74 9.67v.99h-17.59q-12.525 0-19.62 5.22c-4.73 3.48-7.09 8.3-7.09 14.46 0 2.49.46 4.82 1.37 6.98.92 2.16 2.25 4.03 4.01 5.61s3.94 2.8 6.54 3.68 5.62 1.32 9.07 1.32c4.98 0 9.53-1.06 13.63-3.19 4.1-2.12 7.33-4.95 9.67-8.46v10.44h11.43v-36.72c0-3.59-.59-6.85-1.76-9.78s-2.9-5.44-5.17-7.53Zm-4.51 32.37c-.95 1.98-2.18 3.74-3.68 5.28a23.2 23.2 0 0 1-5 3.9 25.4 25.4 0 0 1-5.83 2.47c-2.05.59-4.14.88-6.27.88-3.96 0-6.85-.73-8.68-2.2-1.83-1.46-2.75-3.48-2.75-6.05 0-2.93 1.19-5.2 3.57-6.82 2.38-1.61 6.32-2.42 11.82-2.42h16.82v4.95ZM652.07 186.55h11.98V99.93l-11.98 5.14z" class="cls-1"/></svg>