<svg width="125" height="60" viewBox="0 0 125 60" fill="none" xmlns="http://www.w3.org/2000/svg">
<path fill-rule="evenodd" clip-rule="evenodd" d="M42 4.61875L44.7 4.31875C45.3 4.31875 45.6 3.91875 45.6 3.41875V2.31875C45.6 1.91875 45.3 1.61875 44.7 1.61875L42 1.91875C41.4 1.91875 41.1 2.31875 41.1 2.81875V3.91875C41.2 4.51875 41.6 4.71875 42 4.61875ZM91.8 15.1187C92.8 15.8187 93.8 16.1188 95.2 16.0188C97.1 15.9187 98.5 15.6188 99.5 15.0188C99.9 14.9187 100.1 14.6187 100.1 14.1187V13.1187C100.1 12.4187 99.5 12.2188 99.1 12.4187C98.1 12.7188 96.8 13.0187 95.2 13.1187C94.8 13.1187 94.3 13.0188 94.1 12.7188C93.8 12.4187 93.7 12.1187 93.7 11.7188V6.71875C93.7 6.31875 93.8 5.81875 94.1 5.61875C94.4 5.31875 94.8 5.01875 95.2 5.01875C96.8 4.91875 98.1 4.91875 99.1 5.01875C99.5 5.11875 100.1 4.91875 100.1 4.11875V3.11875C100.1 2.81875 100 2.51875 99.5 2.41875C98.5 2.11875 97.1 2.11875 95.2 2.31875C93.9 2.41875 92.8 2.91875 91.8 3.91875C90.8 4.81875 90.4 5.91875 90.4 7.21875V12.2188C90.2 13.3188 90.8 14.3187 91.8 15.1187ZM48.9 20.2188L50.5 20.1188C51.1 20.1188 51.4 19.7188 51.4 19.2188V10.6187C51.4 10.2188 51.5 9.71875 51.8 9.51875C52.1 9.21875 52.5 8.91875 52.9 8.91875L55 8.81875C55.4 8.81875 55.9 8.91875 56.1 9.21875C56.4 9.51875 56.5 9.81875 56.5 10.2188V18.8188C56.5 19.2188 56.8 19.5188 57.4 19.5188L59 19.4188C59.1 19.4188 59.1 19.4188 59.3 19.4188C59.7 19.1188 59.9 18.8188 59.9 18.5188V9.91875C59.9 9.51875 60 9.01875 60.3 8.81875C60.6 8.51875 61 8.21875 61.4 8.21875L63.4 7.81875C63.8 7.81875 64.3 7.91875 64.5 8.21875C64.8 8.51875 64.9 8.81875 64.9 9.21875V17.8188C64.9 18.2188 65.2 18.5188 65.8 18.5188L67.4 18.4188C68 18.4188 68.3 18.0188 68.3 17.5188V8.91875C68.3 7.61875 67.9 6.61875 66.9 5.91875C66 5.21875 64.9 4.91875 63.5 5.01875L61.4 5.11875C60.1 5.21875 59.1 5.71875 58.1 6.41875C57.2 5.81875 56.1 5.51875 54.9 5.71875L52.8 5.81875C51.5 5.91875 50.4 6.41875 49.4 7.41875C48.4 8.31875 48 9.41875 48 10.7188V19.4188C48.1 19.9188 48.3 20.2188 48.9 20.2188ZM66.8 21.1188C66.9 21.2188 67.1 21.4188 67.2 21.7188C67.3 22.0187 67.5 22.1188 67.6 22.4188L73.5 30.7188V21.8188C73.5 21.2188 73.6 20.8188 73.9 20.5188L66.8 21.1188ZM44.2 6.81875L42.6 6.91875C42 6.91875 41.7 7.31875 41.7 7.81875V20.0188C41.7 20.4188 42 20.7188 42.6 20.7188L44.2 20.6188C44.8 20.6188 45.1 20.2188 45.1 19.7188V7.51875C45.1 7.01875 44.8 6.81875 44.2 6.81875ZM70.1 5.51875C70.2 5.41875 70.4 5.21875 70.5 5.11875L73.7 8.41875L71.8 9.11875C71.8 9.01875 71.7 8.81875 71.5 8.71875C71.1 8.31875 70.4 8.41875 69.9 9.01875C69.5 9.61875 69.6 10.1187 70 10.6187C70.4 11.0187 71.1 10.9187 71.6 10.3187C71.7 10.2187 71.7 10.0188 71.9 9.91875L73.8 10.8187V10.9187C73.8 15.1187 77.1 18.1188 81.3 17.6188C85.5 17.2188 88.8 13.6187 88.8 9.41875C88.8 5.21875 85.5 2.21875 81.3 2.61875C79.7 2.71875 78.3 3.31875 77.1 4.21875L75.5 3.11875C75.6 3.01875 75.6 2.71875 75.6 2.51875C75.6 1.81875 75.2 1.41875 74.5 1.41875C73.8 1.41875 73.2 2.01875 73.2 2.71875C73.2 3.41875 73.6 3.81875 74.3 3.81875C74.4 3.81875 74.6 3.81875 74.9 3.71875L75.3 5.91875L70.9 4.51875C70.9 4.21875 70.9 4.11875 70.8 3.81875C70.5 3.11875 69.7 2.91875 68.9 3.21875C68.2 3.61875 67.9 4.51875 68.2 5.11875C68.6 5.61875 69.4 5.91875 70.1 5.51875ZM82.9 12.5188C83.5 12.5188 83.9 12.8187 83.9 13.4187C83.9 14.0188 83.5 14.4187 82.9 14.5188C82.3 14.5188 81.9 14.2188 81.9 13.6187C81.9 13.1187 82.3 12.6188 82.9 12.5188ZM79.4 12.8187C80 12.8187 80.4 13.1187 80.4 13.7188C80.4 14.3188 80 14.7187 79.4 14.8187C78.8 14.8187 78.4 14.5188 78.4 13.9187C78.4 13.3187 78.9 12.9187 79.4 12.8187ZM84.7 21.7188L82.7 21.8188V32.1188L85 32.0188C85.6 32.0188 85.9 31.9188 86.1 31.9188C86.4 31.9188 86.7 31.8188 87 31.6188C87.3 31.5188 87.6 31.3188 87.9 31.0188C88.9 30.0188 89.5 28.6188 89.5 26.4188C89.5 25.0188 89.2 23.8188 88.8 23.1188C88.4 22.4188 87.8 22.0188 87.1 21.8188C86.5 21.7188 85.8 21.7188 84.7 21.7188ZM52.4 31.1188L56.8 30.7188L54.5 24.7188L52.4 31.1188ZM106.1 20.8188C106 20.8188 106 20.9188 106 20.9188C106 21.3188 105.9 21.6188 105.6 21.9188C105.3 22.2188 105 22.3188 104.6 22.5188C104.3 22.5188 104 22.5188 103.7 22.4188C103.6 22.3188 103.3 22.0188 103.1 21.5188C102.8 20.9188 102.5 20.5187 102.1 20.2188C101.7 19.9188 101.1 19.8188 100.2 19.9188C99.5 19.9188 98.8 20.2188 98.3 20.6188C97.9 21.0188 97.6 21.5188 97.6 21.9188C97.6 22.2188 97.7 22.5188 97.9 22.6188C98 22.7188 98.3 23.0187 98.6 23.2188C98.9 23.3188 99.2 23.5188 99.5 23.5188C99.8 23.5188 100.2 23.6187 100.9 23.8188C101.8 23.9188 102.5 24.1187 103.2 24.2188C103.9 24.3188 104.5 24.6188 104.9 24.9188C105.3 25.2188 105.8 25.6188 106 26.0188C106 26.0188 106 26.0188 106 26.1188L106.1 20.8188C106.2 20.9188 106.2 20.8188 106.1 20.8188ZM103.8 32.4188C102.9 32.8188 101.8 33.1188 100.6 33.3188C99.2 33.4188 97.9 33.3187 96.9 32.7188C96.2 32.4188 95.6 31.8188 95.2 31.3188C94.8 30.7188 94.6 30.0188 94.6 29.4188C94.6 29.0188 94.7 28.7188 95 28.4188C95.3 28.1188 95.6 28.0188 96 28.0188C96.3 28.0188 96.6 28.0188 96.9 28.3188C97.2 28.4188 97.3 28.7188 97.5 29.2188C97.6 29.6187 97.9 30.1187 98.1 30.3188C98.4 30.6187 98.7 30.9188 99.1 31.0188C99.5 31.1188 100 31.3188 100.7 31.1188C101.6 31.0188 102.3 30.8188 102.8 30.2188C103.4 29.8188 103.7 29.2188 103.7 28.6188C103.7 28.2188 103.6 27.7188 103.3 27.5188C103 27.2188 102.6 27.1188 102.2 26.9188C101.8 26.8188 101.1 26.6188 100.3 26.5188C99.2 26.4188 98.3 26.1187 97.6 25.8188C96.9 25.5188 96.3 25.1188 95.9 24.5188C95.5 23.9188 95.3 23.2188 95.3 22.4188C95.3 21.5188 95.6 20.8188 96 20.1188C96.4 19.4188 97.1 18.8188 98 18.5188C98.3 18.4188 98.4 18.2188 98.7 18.2188L87.1 19.2188C87.5 19.2188 88 19.2188 88.2 19.3188C88.9 19.4188 89.6 19.7188 90.2 20.2188C91.8 21.3188 92.5 23.4188 92.5 26.1188C92.5 27.0188 92.4 27.8188 92.2 28.5188C92 29.2188 91.8 29.9188 91.5 30.5188C91.2 31.1188 90.8 31.6187 90.2 32.2188C89.8 32.6187 89.3 32.9188 88.9 33.2188C88.5 33.5187 87.9 33.6188 87.3 33.8188C86.7 33.9188 86.2 34.1188 85.4 34.1188L81.4 34.4188C80.8 34.4188 80.4 34.4188 80.1 34.3188C79.8 34.2188 79.7 33.9188 79.5 33.6188C79.4 33.3188 79.4 32.9187 79.4 32.5187V21.4188C79.4 20.7188 79.5 20.3188 79.8 20.0188C79.9 19.9188 80.1 19.7188 80.4 19.6188L75.7 20.0188C76 20.3188 76.1 20.7188 76.1 21.3188V33.1188C76.1 34.4188 75.5 35.1188 74.5 35.2188C74.2 35.2188 73.9 35.2188 73.8 35.2188C73.5 35.2188 73.4 35.1188 73.2 34.9188C73.1 34.8188 72.8 34.6188 72.6 34.3188C72.5 34.2188 72.3 33.9188 72.2 33.6188L66.5 25.3188V34.0187C66.5 34.6187 66.4 35.0188 66.1 35.3188C65.8 35.6188 65.5 35.7188 65.1 35.9188C64.7 35.9188 64.4 35.8187 64.1 35.5187C63.8 35.2188 63.7 34.8187 63.7 34.2188V22.5188C63.7 22.1188 63.7 21.6188 63.8 21.4188C63.9 21.1188 64.1 21.0188 64.2 20.8188L55.7 21.5188C55.8 21.6188 55.8 21.6187 56 21.8188C56.1 22.1187 56.3 22.2188 56.4 22.5188C56.5 22.8188 56.7 23.2188 56.8 23.6188L60.7 32.9188C61 33.6188 61.1 34.2188 61.1 34.5187C61.1 34.8187 61 35.2188 60.7 35.5187C60.4 35.8187 60.1 35.9188 59.7 36.1188C59.4 36.1188 59.3 36.1187 59.1 36.0187C59 36.0187 58.8 35.9188 58.7 35.7188C58.6 35.6188 58.4 35.4188 58.3 35.1188C58.2 34.8188 58 34.5187 58 34.4188L57.3 32.5187L51.1 33.1188L50.4 35.1188C50.1 35.8188 49.8 36.4188 49.7 36.7188C49.6 37.0187 49.1 37.1188 48.7 37.1188C48.3 37.1188 48 37.0188 47.7 36.8188C47.4 36.5188 47.3 36.2188 47.3 35.9188C47.3 35.8188 47.3 35.5188 47.4 35.3188C47.4 35.0188 47.5 34.7188 47.7 34.3188L51.6 24.3188C51.7 24.0188 51.9 23.7188 52 23.3188C52.1 22.9188 52.3 22.6187 52.4 22.3188C52.5 22.2188 52.5 22.0188 52.7 22.0188L42.8 22.9188C42.9 22.9188 42.9 22.9188 43.1 23.0188C43.5 23.1188 44 23.4188 44.4 23.7188C44.8 24.0187 45 24.4188 45.3 24.8188C45.4 25.2188 45.6 25.8188 45.6 26.4188C45.6 27.5188 45.3 28.4188 44.6 29.1188C44 29.8188 43 30.4188 41.7 30.8188C42.3 31.1187 42.7 31.4188 43.3 31.9188C43.7 32.5188 44.2 33.0188 44.6 33.6188C45 34.2188 45.3 34.7188 45.5 35.2188C45.6 35.6188 45.8 36.1188 45.8 36.2188C45.8 36.3187 45.8 36.6188 45.7 36.8188C45.6 36.9188 45.4 37.2188 45.1 37.4188C45.2 37.5187 45 37.7188 44.7 37.7188C44.4 37.7188 44.1 37.7188 43.8 37.6188C43.5 37.5188 43.4 37.3187 43.2 37.0187C43.1 36.7188 42.8 36.4188 42.5 36.0187L41.3 34.3188C40.9 33.6188 40.4 33.0187 40.2 32.7188C39.9 32.3188 39.5 32.1188 39.2 32.0188C38.9 31.9188 38.3 31.9188 37.9 31.9188L36.9 32.0188V36.9188C36.9 37.5187 36.8 38.0188 36.5 38.3188C36.2 38.6188 35.9 38.9188 35.4 38.9188C35 38.9188 34.5 38.8187 34.3 38.5187C34 38.2188 33.9 37.8187 33.9 37.2188V25.7188C33.9 25.0187 34 24.6187 34.3 24.3188L28.3 24.9188C28.4 24.9188 28.6 25.0188 28.7 25.0188C29 25.1188 29.4 25.4188 29.7 25.7188C30 26.0187 30.1 26.3188 30.3 26.7188C30.4 27.1187 30.4 27.6188 30.4 28.0188C30.4 29.4188 29.7 30.7188 28.1 31.4188C30.1 31.8188 31.1 33.0188 31.1 34.8188C31.1 35.7188 31 36.4188 30.5 37.1188C30.1 37.8188 29.5 38.4188 28.8 38.7188C28.4 39.0187 27.8 39.1188 27.2 39.3188C26.6 39.4188 25.9 39.6188 25.2 39.6188L20.6 40.0187C19.9 40.0187 19.5 40.0187 19.2 39.7188C19.2 39.7188 19.2 39.7188 19.1 39.6188V40.2188C19.1 40.2188 19.1 40.3188 19.2 40.3188C22.9 41.3188 88.9 58.5187 88.9 58.5187L106.4 30.7188V29.8188C106.3 30.1187 106.3 30.2188 106.1 30.5188C105.4 31.3188 104.8 31.8188 103.8 32.4188ZM112.1 1.91875C111.1 1.21875 110 0.91875 108.7 1.01875C107 1.11875 105.8 1.41875 105 1.71875C104.4 2.01875 104.3 2.41875 104.3 2.61875V3.51875C104.3 3.61875 104.3 3.91875 104.4 4.11875C104.5 4.21875 104.7 4.41875 105 4.41875H105.1C105.7 4.31875 107 4.01875 108.5 3.81875C108.9 3.81875 109.4 3.91875 109.6 4.21875C109.9 4.51875 110 4.81875 110 5.21875V5.91875L106.4 6.21875C105.1 6.31875 104 6.81875 103 7.81875C102 8.71875 101.6 9.81875 101.6 11.1187C101.6 12.4187 102 13.4187 103 14.1187C104 14.8187 105.1 15.1188 106.4 15.0188L112.6 14.4187C113 14.4187 113.5 14.0188 113.5 13.5188V4.91875C113.6 3.61875 113 2.61875 112.1 1.91875ZM110.3 11.8187L106.6 12.1187C106.2 12.1187 105.7 12.0188 105.5 11.7188C105.2 11.4187 105.1 11.1187 105.1 10.7188C105.1 10.3188 105.2 9.81875 105.5 9.61875C105.8 9.31875 106.2 9.01875 106.6 9.01875L110.3 8.71875V11.8187ZM36.7 29.7188L39.4 29.4188C40.1 29.4188 40.7 29.3188 41.3 29.1188C41.7 29.0188 42.2 28.7188 42.4 28.4188C42.7 28.1188 42.8 27.7188 42.8 27.1188C42.8 26.7188 42.7 26.4188 42.5 26.1188C42.4 25.8188 41.9 25.5188 41.6 25.5188C41.3 25.4188 40.6 25.4188 39.5 25.5188L36.6 25.8188V29.7188H36.7ZM27.1 32.8188C26.5 32.5188 25.8 32.4187 24.7 32.5187L21.5 32.8188V37.2188L24.8 36.9188C26.8 36.8188 27.8 35.9188 27.8 34.5187C28 33.7188 27.7 33.3188 27.1 32.8188ZM27.9 22.1188L29.5 22.0188C30.1 22.0188 30.4 21.6188 30.4 21.1188V12.5188C30.4 12.1188 30.5 11.6187 30.8 11.4187C31.1 11.1187 31.5 10.8187 31.9 10.8187L34 10.7188C34.4 10.7188 34.9 10.8187 35.1 11.1187C35.4 11.4187 35.5 11.7188 35.5 12.1187V20.7188C35.5 21.1187 35.8 21.4188 36.4 21.4188L38 21.3188C38.4 21.3188 38.9 20.9188 38.9 20.4188V11.8187C38.9 10.5187 38.5 9.51875 37.5 8.81875C36.5 8.11875 35.5 7.81875 34.1 7.91875L32 8.01875C30.7 8.11875 29.6 8.61875 28.6 9.61875C27.6 10.5187 27.2 11.6187 27.2 12.9187V21.5188C27 21.8188 27.3 22.1188 27.9 22.1188ZM21.5 30.7188L24.3 30.4188C25 30.4188 25.6 30.3188 26 30.0188C26.4 29.9188 26.7 29.6188 27 29.1188C27.1 28.8188 27.3 28.5188 27.3 28.1188C27.3 27.4188 27 26.8188 26.4 26.7188C25.8 26.6187 25.1 26.4188 24 26.6188L21.6 26.7188L21.5 30.7188ZM24 21.7188V13.1187C24 11.8187 23.6 10.8187 22.6 10.1187C21.6 9.41875 20.5 9.11875 19.2 9.21875C17.5 9.31875 16.3 9.61875 15.5 9.91875C14.9 10.2188 14.8 10.6187 14.8 10.8187V11.9187C14.8 12.0188 14.8 12.3188 14.9 12.5188C15 12.7188 15.2 12.8187 15.5 12.8187H15.6C16.2 12.7187 17.5 12.4187 19 12.2188C19.4 12.2188 19.9 12.3187 20.1 12.6187C20.4 12.9187 20.5 13.2188 20.5 13.6187V14.3187L16.8 14.6187C15.5 14.7188 14.4 15.2188 13.4 16.2188C12.4 17.1187 12 18.2188 12 19.5188C12 20.8188 12.4 21.8188 13.4 22.5188C14.4 23.2188 15.5 23.5188 16.8 23.4188L23 22.8188C23.6 22.4188 24 22.1187 24 21.7188ZM20.7 19.9188L17 20.2188C16.6 20.2188 16.1 20.1187 15.9 19.8188C15.6 19.5188 15.5 19.2188 15.5 18.8188C15.5 18.4188 15.6 17.9188 15.9 17.7188C16.2 17.4188 16.6 17.1188 17 17.1188L20.7 16.8187V19.9188Z" fill="#FFFFFF"/>
</svg>
