<svg xmlns="http://www.w3.org/2000/svg" width="489" height="171" fill="none" viewBox="0 0 489 171"><mask id="a" width="489" height="171" x="0" y="0" maskUnits="userSpaceOnUse" style="mask-type:luminance"><path fill="#fff" d="M486.46 0H1.962A1.96 1.96 0 0 0 0 1.962V168.69c0 1.084.878 1.962 1.962 1.962H486.46a1.96 1.96 0 0 0 1.962-1.962V1.961A1.96 1.96 0 0 0 486.46 0"/></mask><g mask="url(#a)"><path fill="#0054fa" stroke="#0054fa" stroke-width="27.462" d="M486.46 0H1.962A1.96 1.96 0 0 0 0 1.962V168.69c0 1.084.878 1.962 1.962 1.962H486.46a1.96 1.96 0 0 0 1.962-1.962V1.961A1.96 1.96 0 0 0 486.46 0Z"/></g><path fill="#fff" d="m415.709 37.875 7.909 46.575h.251V37.875h12.93v92.899h-13.307l-10.545-54.359h-.251v54.359h-12.93V37.875zM366.617 130.774V37.875h15.065v92.899zM322.274 37.875h17.325l11.173 92.899h-14.688l-1.632-20.212h-7.784l-1.632 20.212h-13.934zm6.905 41.302-1.506 19.082h5.774l-1.632-19.082-1.129-16.069h-.377zM280.384 130.774v-40.55h-8.034v40.55h-15.065V37.875h15.065v39.67h8.034v-39.67h14.939v92.899zM239.927 93.108v19.961c0 12.052-6.025 18.705-17.449 18.705s-18.455-6.653-18.455-18.705V55.572c0-12.051 7.031-18.705 18.455-18.705s17.449 6.654 17.449 18.705V74.78h-14.06V54.443c0-3.892-1.004-6.152-3.389-6.152-2.511 0-3.516 2.26-3.516 6.152v59.882c0 3.766 1.005 6.025 3.516 6.025 2.385 0 3.389-2.259 3.389-6.025V93.108zM159.355 130.774V37.875h29.125v12.303h-14.186V77.67h12.68v12.302h-12.68v28.498h14.186v12.303zM120.298 130.774h-14.939V37.875h19.584c10.671 0 17.199 6.277 17.199 17.575v22.848c0 11.173-6.528 17.45-17.199 17.45h-4.645zm.126-46.199h3.264c2.511 0 3.515-2.26 3.515-6.277V55.45c0-4.142-1.004-6.402-3.515-6.402h-3.264zM61.025 37.875h17.324l11.173 92.899H74.834l-1.632-20.212h-7.784l-1.632 20.212H49.852zm6.904 41.302L66.423 98.26h5.774l-1.632-19.082-1.13-16.069h-.376z"/></svg>