<svg xmlns="http://www.w3.org/2000/svg" width="422" height="422" fill="none" viewBox="0 0 422 422"><path fill="#fff" d="M.873.557h421.06v421.06H.873z"/><path fill="#fff" d="M.873.557h421.06v421.06H.873z"/><path fill="#0054fa" d="M113.296 135.815h29.114l18.776 156.118h-24.683l-2.743-33.967h-13.08l-2.743 33.967H94.52zm11.603 69.409-2.531 32.067h9.704l-2.742-32.067-1.899-27.004h-.633zm88.021 86.709h-25.106V135.815h32.912c17.932 0 28.903 10.548 28.903 29.536v38.396c0 18.776-10.971 29.325-28.903 29.325h-7.806zm.211-77.637h5.485c4.219 0 5.907-3.798 5.907-10.549v-38.396c0-6.962-1.688-10.76-5.907-10.76h-5.485zm65.417 77.637V135.815h48.945v20.675h-23.84v46.202h21.308v20.675h-21.308v47.891h23.84v20.675z"/></svg>