<svg xmlns="http://www.w3.org/2000/svg" width="218" height="70" viewBox="0 0 218 70" fill="none"><path d="M136.07 21.6907C135.098 20.597 133.943 19.6856 132.667 18.8958C130.723 17.8021 128.475 17.2553 125.923 17.2553C122.946 17.2553 120.212 18.0452 117.781 19.5641C115.351 21.0831 113.468 23.2096 112.009 25.8222C110.612 28.4349 109.883 31.3513 109.883 34.6322C109.883 37.8524 110.612 40.7688 112.009 43.3814C113.407 45.994 115.351 48.0598 117.781 49.5788C120.212 51.0977 122.946 51.8876 125.923 51.8876C128.475 51.8876 130.723 51.3408 132.728 50.2471C134.065 49.518 135.158 48.6067 136.13 47.513V51.1585H143.725V17.8629H136.13V21.6907H136.07ZM133.943 41.8625C132.181 43.746 129.933 44.7181 127.138 44.7181C125.315 44.7181 123.675 44.2928 122.278 43.4422C120.88 42.5916 119.786 41.3764 118.936 39.8574C118.146 38.3385 117.721 36.5765 117.721 34.5715C117.721 32.5664 118.146 30.8044 118.936 29.2855C119.726 27.7665 120.88 26.5513 122.278 25.7007C123.675 24.8501 125.315 24.4248 127.138 24.4248C129.022 24.4248 130.662 24.8501 132.12 25.7007C133.518 26.5513 134.611 27.7665 135.401 29.2855C136.191 30.8044 136.556 32.5664 136.556 34.5715C136.556 37.5486 135.705 39.979 133.943 41.8625Z" fill="#000000"></path><path d="M178.116 19.6249C175.685 18.1059 172.951 17.316 169.974 17.316C167.483 17.316 165.235 17.8629 163.23 18.9565C161.893 19.6856 160.739 20.597 159.767 21.7514V18.0451H152.172V63.1279H159.767V47.6952C160.739 48.7889 161.832 49.7003 163.169 50.4294C165.174 51.523 167.422 52.0699 169.974 52.0699C172.951 52.0699 175.685 51.28 178.116 49.761C180.546 48.2421 182.43 46.1763 183.888 43.5637C185.285 40.9511 186.014 38.0347 186.014 34.8145C186.014 31.5335 185.285 28.6171 183.888 26.0045C182.43 23.2096 180.546 21.1438 178.116 19.6249ZM176.901 39.8574C176.111 41.3764 174.956 42.5915 173.559 43.4422C172.161 44.2928 170.521 44.7181 168.698 44.7181C166.875 44.7181 165.235 44.2928 163.777 43.4422C162.319 42.5915 161.225 41.3764 160.435 39.8574C159.645 38.3384 159.281 36.5765 159.281 34.5714C159.281 32.5664 159.645 30.8044 160.435 29.2854C161.225 27.7665 162.319 26.5513 163.777 25.7007C165.235 24.8501 166.875 24.4248 168.698 24.4248C170.521 24.4248 172.161 24.8501 173.559 25.7007C174.956 26.5513 176.05 27.7665 176.901 29.2854C177.69 30.8044 178.116 32.5664 178.116 34.5714C178.116 36.5765 177.751 38.3384 176.901 39.8574Z" fill="#000000"></path><path d="M216.09 36.6372C215.117 35.3005 213.842 34.2069 212.201 33.417C210.561 32.5664 208.495 31.8981 206.125 31.2905C204.363 30.8044 203.027 30.3791 202.054 30.0145C201.082 29.65 200.414 29.2247 199.989 28.7994C199.563 28.3741 199.381 27.8272 199.381 27.2197C199.381 26.369 199.806 25.6399 200.596 25.1539C201.386 24.6678 202.601 24.4248 204.181 24.4248C205.639 24.4248 207.158 24.6678 208.799 25.2146C210.439 25.7615 211.837 26.4298 212.991 27.1589L216.819 21.3869C215.057 20.1109 213.052 19.1388 210.864 18.4097C208.677 17.6806 206.551 17.316 204.485 17.316C201.751 17.316 199.381 17.7413 197.437 18.592C195.432 19.4426 193.913 20.6578 192.88 22.116C191.847 23.5742 191.3 25.2146 191.3 27.0374C191.3 29.65 192.272 31.7765 194.217 33.417C196.161 35.0575 198.774 36.3334 202.054 37.1233C203.938 37.6093 205.396 38.0347 206.429 38.46C207.462 38.8853 208.252 39.3106 208.738 39.7967C209.224 40.2827 209.467 40.8903 209.467 41.5586C209.467 42.5915 208.981 43.3814 208.07 43.9282C207.158 44.475 205.882 44.7788 204.303 44.7788C202.48 44.7788 200.596 44.4143 198.652 43.746C196.708 43.0168 195.006 42.1662 193.609 41.1941L189.781 46.8446C191.786 48.4243 194.095 49.6395 196.586 50.4901C199.077 51.3407 201.751 51.8268 204.546 51.8268C207.097 51.8268 209.345 51.4015 211.35 50.4901C213.356 49.5788 214.874 48.3636 215.968 46.7839C217.062 45.2042 217.609 43.4422 217.609 41.4979C217.487 39.6144 217.062 37.9739 216.09 36.6372Z" fill="#000000"></path><path d="M44.6253 19.8681L40.1291 15.372L25.4256 30.0755C22.8738 32.6274 22.8738 36.7589 25.4256 39.3108L40.1291 54.0143L44.6253 49.5182L29.9217 34.8147C29.861 34.7539 29.861 34.6932 29.9217 34.6324L44.6253 19.8681Z" fill="#00CC70"></path><path d="M90.8642 30.0147L62.733 1.88351C61.5179 0.668342 59.8774 0 58.1154 0C56.3534 0 54.7129 0.668342 53.4978 1.88351L48.2118 7.16949L52.7079 11.6656L57.9939 6.37963C57.9939 6.37963 58.0547 6.31888 58.1154 6.31888C58.1762 6.31888 58.1762 6.31887 58.2369 6.37963L83.2694 31.4121H68.5051C68.2013 30.926 67.8975 30.44 67.4114 30.0147L39.2803 1.88351C38.0651 0.668342 36.4247 0 34.6627 0C32.9007 0 31.2602 0.668342 30.045 1.88351L1.91389 30.0147C-0.637963 32.5665 -0.637963 36.6981 1.91389 39.2499L30.045 67.3811C31.321 68.657 32.9614 69.2646 34.6627 69.2646C36.3031 69.2646 38.0044 68.657 39.2803 67.3811L67.4114 39.2499C67.8368 38.8246 68.2013 38.3386 68.5051 37.8525H83.2694L58.2369 62.885C58.1762 62.9457 58.1154 62.9457 58.0546 62.885L52.7687 57.599L48.2726 62.0951L53.5585 67.3811C54.8345 68.657 56.4749 69.2646 58.1762 69.2646C59.8166 69.2646 61.5179 68.657 62.7938 67.3811L90.9249 39.2499C93.416 36.6981 93.416 32.5665 90.8642 30.0147ZM62.9153 34.7538L34.7842 62.885C34.7234 62.9457 34.6627 62.9457 34.6019 62.885L6.47077 34.7538C6.41001 34.6931 6.41001 34.6323 6.47077 34.5715L34.6019 6.44039C34.6019 6.44039 34.6627 6.37963 34.7234 6.37963C34.7842 6.37963 34.7842 6.37963 34.8449 6.44039L62.9761 34.5715C62.9153 34.6323 62.9153 34.6931 62.9153 34.7538Z" fill="#00CC70"></path></svg>