<svg xmlns="http://www.w3.org/2000/svg" width="1500" height="418" fill="none" viewBox="0 0 1500 418"><path fill="#0f0e0b" d="M1413.02 341.03c-18.31 0-34.34-3.005-48.07-9.014q-20.61-9.443-32.19-24.465c-7.73-10.301-12.45-21.603-14.17-33.907l38.2-13.306h1.72c1.43 9.157 4.44 17.168 9.01 24.036 4.87 6.867 11.16 12.161 18.89 15.881q12.015 5.15 26.61 5.15c8.01 0 15.17-1.287 21.46-3.863q9.45-4.292 14.16-11.588 5.16-7.297 5.16-16.74c0-8.012-2.58-14.307-7.73-18.885-4.86-4.864-12.16-8.584-21.89-11.159l-42.49-9.872c-10.3-2.576-19.46-5.866-27.47-9.872-8.01-4.292-14.74-10.444-20.17-18.456q-8.16-12.018-8.16-30.474c0-12.018 3.43-22.892 10.3-32.62 6.87-10.015 16.31-17.884 28.33-23.607q18.45-8.584 42.06-8.584c15.17 0 28.76 2.432 40.78 7.296s21.74 11.732 29.18 20.603c7.73 8.584 12.88 18.742 15.46 30.474l-38.63 11.588h-1.72q-3-17.168-15.45-26.611c-8.01-6.581-17.89-9.872-29.62-9.872-11.16 0-20.31 2.862-27.47 8.585-6.86 5.722-10.3 12.304-10.3 19.743 0 6.868 2.43 12.447 7.3 16.74 4.86 4.005 11.73 7.153 20.6 9.442l38.2 9.443c12.88 3.147 23.75 7.01 32.62 11.589 8.87 4.578 16.02 11.159 21.46 19.743q8.16 12.876 8.16 34.337c0 12.876-3.58 24.465-10.73 34.766-7.16 10.301-17.17 18.456-30.05 24.465q-18.885 9.014-43.35 9.014M1193.64 341.03q-31.77 0-57.09-15.023c-16.88-10.015-30.04-23.749-39.49-41.204q-14.16-26.611-14.16-59.66 0-33.05 14.16-59.231c9.45-17.455 22.61-31.19 39.49-41.205q25.32-15.022 57.09-15.022c21.17 0 40.2 5.007 57.08 15.022s30.05 23.893 39.49 41.634c9.73 17.454 14.59 37.055 14.59 58.802 0 22.033-4.86 41.919-14.59 59.66-9.44 17.455-22.61 31.189-39.49 41.204s-35.91 15.023-57.08 15.023m0-36.483q19.74 0 35.19-10.301c10.3-6.868 18.32-16.31 24.04-28.328 6.01-12.018 9.01-25.61 9.01-40.775 0-15.166-3-28.614-9.01-40.346-5.72-12.018-13.74-21.461-24.04-28.328q-15.45-10.301-35.19-10.301c-13.17 0-24.9 3.433-35.2 10.301q-15.45 10.3-24.03 28.328c-5.73 11.732-8.59 25.18-8.59 40.346s2.86 28.757 8.59 40.775q8.58 18.027 24.03 28.328c10.3 6.867 22.03 10.301 35.2 10.301M1044.76 341.105q-29.61 0-47.642-17.168-17.598-17.598-17.598-51.505V149.248h-39.916v-35.196q21.03 0 28.757-3.004 8.154-3.434 10.301-13.305 2.575-9.873 2.575-35.625h39.483v51.934h58.38v35.196h-58.38v120.608c0 11.732 2.87 20.459 8.59 26.182q9.015 8.584 22.32 8.584 7.29 0 12.87-1.287c4.01-.859 7.87-2.576 11.59-5.151v35.625c-2.86 2.003-7.29 3.72-13.3 5.15q-9.015 2.146-18.03 2.146M720.23 415.283V113.977h41.205v32.191q9.872-15.881 29.615-26.182 20.173-10.3 42.921-10.301 29.187 0 52.793 15.022 24.037 15.022 37.342 41.634 13.305 26.181 13.305 59.231t-13.734 59.66q-13.306 26.182-37.342 41.205-23.606 14.593-53.651 14.593-21.89 0-41.634-10.301-19.743-10.302-29.615-26.182V417H720.23zm106.445-110.736q19.743 0 35.195-9.872t24.036-27.899 8.584-40.775q0-23.607-8.584-41.633t-23.607-27.899q-15.022-10.301-34.336-10.301-18.027 0-32.621 8.584-14.592 8.155-23.606 23.177-9.014 14.594-10.301 33.479v28.757q1.287 18.885 9.872 33.479 9.013 14.592 23.177 22.748 14.593 8.154 32.191 8.155M416.818 335.034l10.301-25.753L538.285 27.289h43.351l111.165 281.992 10.731 25.753v1.717H655.46l-.859-1.717-9.871-25.753-84.984-222.76-85.843 222.76-9.871 25.753-.859 1.717h-46.355zm57.515-114.171h168.251v39.059H474.333zM18.66 104.194a178.7 178.7 0 0 0-15.5 51.433h151.214l33.016-51.433z"/><path fill="#0f0e0b" d="M359.541 155.627a178.8 178.8 0 0 0-15.5-51.432h-90.636l-33.004-51.44h86.921C274.858 20.94 230.398 1.318 181.348 1.318c-49.051 0-93.505 19.623-125.975 51.433h165.028l-33.017 51.439 33.017 51.432h139.134zM88.354 258.505l-33.016 51.432c32.47 31.811 76.845 51.727 125.896 51.727 49.05 0 94.177-18.902 126.767-51.727h-186.63zM121.358 207.06H3.16a178.8 178.8 0 0 0 15.5 51.439h69.693zM154.374 258.505h189.667a178.7 178.7 0 0 0 15.5-51.433H187.39l-33.016-51.438-33.017 51.432"/></svg>