<svg xmlns="http://www.w3.org/2000/svg" width="600" height="600" fill="none" viewBox="0 0 600 600"><path fill="#f9f9f0" d="M30.66 171.033A295.8 295.8 0 0 0 5 256.181h250.339l54.66-85.148z"/><path fill="#f9f9f0" d="M594.999 256.182c-4.312-30.071-13.084-58.683-25.661-85.148h-150.05l-54.64-85.159h143.901C454.803 33.203 381.199.717 299.994.717c-81.204 0-154.799 32.486-208.555 85.148h273.209l-54.66 85.159 54.66 85.148h230.341zM146.04 426.5l-54.66 85.148c53.756 52.663 127.221 85.636 208.425 85.636s155.913-31.294 209.867-85.636H200.7zM200.68 341.331H5c4.312 30.081 13.084 58.693 25.66 85.158h115.38zM255.339 426.499h314A295.9 295.9 0 0 0 595 341.351H309.999l-54.66-85.159-54.659 85.149"/></svg>