<svg xmlns="http://www.w3.org/2000/svg" width="1024" height="234" fill="none" viewBox="0 0 1024 234"><path fill="#101e38" d="M232.792 233.395c-52.016 0-97.949-33.692-113.219-83.094L73.201.605h87.516zM351.26 154.453l-5.741-15.465h-32.593l-5.619 15.465h-18.862l32.226-82.043h16.761l33.179 82.043zm-22.037-60.347-10.775 29.416h21.574zM479.482 163.352h-5.277c-8.185 0-16.199-3.299-21.965-10.506l-.537-.611c-5.62 2.688-12.192 4.105-19.106 4.105-25.092 0-43.831-18.52-43.831-42.903s18.764-42.78 43.831-42.78 43.587 18.397 43.587 42.78c0 12.534-4.911 23.43-12.998 31.175zm-46.91-23.773c2.566 0 5.058-.366 7.281-1.075l-16.296-18.861h18.153l9.968 11.605c4.105-4.569 6.45-10.775 6.45-17.811 0-14.88-10.896-26.02-25.556-26.02s-25.775 11.239-25.775 26.02 11.141 26.142 25.775 26.142M539.557 156.31c-19.448 0-33.985-13.486-33.985-32.69V72.41h17.811v50.404c0 10.188 6.67 16.76 16.174 16.76s16.052-6.572 16.052-16.76V72.41h17.811v51.21c0 19.228-14.537 32.69-33.863 32.69M657.638 154.453l-5.741-15.465h-32.593l-5.619 15.465h-18.886l32.25-82.043h16.761l33.154 82.043zM635.6 94.106l-10.799 29.416h21.574z"/><circle cx="43.761" cy="189.632" r="43.761" fill="#101e38"/><path fill="#101e38" d="M754.17 72.41h17.469v82.043H756.76l-37.161-51.209v51.209h-17.347V72.41h15.954l35.964 50.037zM843.691 156.316c-25.068 0-43.832-18.519-43.832-42.903 0-24.383 18.764-42.78 43.832-42.78 25.067 0 43.611 18.397 43.611 42.78s-18.642 42.903-43.611 42.903m0-16.76c14.659 0 25.556-11.239 25.556-26.143s-10.897-26.02-25.556-26.02-25.776 11.239-25.776 26.02c0 14.782 11.141 26.143 25.776 26.143M1005.48 72.41H1024l-25.312 82.043h-15.832l-18.275-45.932-17.811 45.932h-15.832L905.162 72.41h18.74l16.174 54.606 21.573-53.677h5.986l22.013 53.555z"/></svg>