<svg xmlns="http://www.w3.org/2000/svg" xml:space="preserve" id="Layer_1" x="0" y="0" viewBox="0 0 373.9 422"><style>.st0{fill:#213147}.st1{fill:#12aaff}.st3{fill:#fff}</style><path d="M14.2 128.3v165.5c0 10.5 5.6 20.3 14.8 25.5L172.2 402c9.1 5.3 20.4 5.3 29.5 0L345 319.3c9.1-5.3 14.8-15 14.8-25.5V128.3c0-10.5-5.6-20.3-14.8-25.6L201.7 20c-9.1-5.3-20.4-5.3-29.5 0L28.9 102.7c-9 5.3-14.7 15-14.7 25.6" class="st0"/><path d="m218.3 243.1-20.5 56c-.6 1.5-.6 3.3 0 4.8l35.1 96.4 40.7-23.5L224.8 243c-1.1-3-5.4-3-6.5.1M259.2 148.8c-1.1-3.1-5.4-3.1-6.6 0l-20.5 56c-.6 1.6-.6 3.3 0 4.8l57.6 157.9 40.7-23.5z" class="st1"/><path d="M187 26.1c1 0 2 .3 2.9.8l155 89.5c1.8 1 2.9 2.9 2.9 5v179c0 2.1-1.1 4-2.9 5l-155 89.6c-.9.5-1.9.8-2.9.8s-2-.3-2.9-.8l-155-89.5c-1.8-1-2.9-2.9-2.9-5V121.4c0-2.1 1.1-4 2.9-5l155-89.5c.9-.5 1.9-.8 2.9-.8M187 0c-5.5 0-11.1 1.5-16 4.3L16 93.8C6.2 99.5 0 110 0 121.4v179c0 11.4 6.1 22 16 27.7l155 89.5c4.9 2.9 10.4 4.3 16 4.3s11.1-1.5 16-4.3l155-89.5c9.9-5.7 16-16.2 16-27.7v-179c0-11.4-6.1-22-16-27.7L203 4.3C198 1.5 192.5 0 187 0" style="fill:#9dcced"/><path d="m84.5 367.7 14.3-39 28.6 23.8-26.7 24.5z" class="st0"/><path d="M173.9 108.7h-39.3c-2.9 0-5.6 1.8-6.6 4.6l-84.2 231 40.7 23.5 92.8-254.4c.8-2.3-.9-4.7-3.4-4.7M242.7 108.7h-39.3c-2.9 0-5.6 1.8-6.6 4.6L100.7 377l40.7 23.5L246 113.4c.9-2.3-.9-4.7-3.3-4.7" class="st3"/></svg>