<svg xmlns="http://www.w3.org/2000/svg" data-name="Layer 1" viewBox="0 0 374.27 421.79"><path d="M357.54 93.19 203.87 4.47c-10.32-5.96-23.14-5.96-33.46 0L16.73 93.19C6.41 99.15 0 110.25 0 122.17v177.45c0 11.92 6.41 23.02 16.73 28.98l153.68 88.73c5.16 2.98 10.94 4.47 16.73 4.47s11.57-1.49 16.73-4.47l153.68-88.73c10.32-5.96 16.73-17.06 16.73-28.98V122.17c0-11.92-6.41-23.02-16.73-28.98ZM190.48 394.13a6.7 6.7 0 0 1-6.68 0L30.12 305.41a6.7 6.7 0 0 1-3.34-5.79V171.53h160.36c10.24 0 19.59 3.93 26.6 10.38 7.84 7.2 12.77 17.53 12.77 28.99s-4.93 21.79-12.77 28.99h32.84c4.29-8.76 6.7-18.6 6.7-28.99s-2.41-20.23-6.7-28.99a65.7 65.7 0 0 0-6.33-10.38c-12.06-16.24-31.38-26.78-53.12-26.78H26.78v-10.37h160.36c27.8 0 52.19 14.91 65.59 37.15 1.99 3.3 3.74 6.77 5.22 10.38 3.68 8.94 5.71 18.74 5.71 28.99s-2.03 20.04-5.71 28.99h28.38c2.71-9.3 4.1-19.04 4.1-28.99 0-27.59-10.74-53.53-30.25-73.04s-45.45-30.25-73.04-30.25H45.33L183.8 27.66a6.71 6.71 0 0 1 6.68 0l153.68 88.72a6.7 6.7 0 0 1 3.34 5.79v128.09H187.14c-10.24 0-19.59-3.93-26.6-10.38-7.84-7.2-12.77-17.53-12.77-28.99s4.93-21.79 12.77-28.99H127.7a65.74 65.74 0 0 0-6.7 28.99c0 36.47 29.67 66.14 66.14 66.14H347.5v10.38H187.14c-42.19 0-76.52-34.33-76.52-76.52 0-10.25 2.03-20.04 5.7-28.99H87.94c-2.71 9.3-4.11 19.04-4.11 28.99 0 27.59 10.74 53.53 30.25 73.04s45.45 30.26 73.04 30.26h141.8l-138.46 79.94Z" style="fill:#12aaff"/></svg>