<?xml version="1.0" encoding="UTF-8"?>
<svg id="Layer_1" data-name="Layer 1" xmlns="http://www.w3.org/2000/svg" viewBox="0 0 2000 688">
  <defs>
    <style>
      .cls-1 {
        fill: #12aaff;
      }

      .cls-2 {
        fill: #fff;
      }

      .cls-3 {
        fill: #9dcced;
      }

      .cls-4 {
        fill: #213147;
      }
    </style>
  </defs>
  <g>
    <path class="cls-1" d="M681.9,380.3c4.86,0,9.03.5,12.51,1.49,3.48.99,6.33,2.52,8.55,4.59,2.22,2.07,3.85,4.71,4.9,7.92,1.05,3.21,1.58,7.01,1.58,11.38v12.24c0,4.38-.53,8.18-1.58,11.38-1.05,3.21-2.69,5.85-4.9,7.92-2.22,2.07-5.07,3.6-8.55,4.59-3.48.99-7.65,1.48-12.51,1.48h-42.12c-1.8,0-2.7-.9-2.7-2.7v-57.6c0-1.8.9-2.7,2.7-2.7h42.12ZM650.85,429.62c0,.78.39,1.17,1.17,1.17h29.52c2.64,0,4.86-.24,6.66-.72,1.8-.48,3.25-1.26,4.37-2.34,1.11-1.08,1.9-2.52,2.38-4.32.48-1.8.72-4.02.72-6.66v-9.9c0-2.64-.24-4.86-.72-6.66-.48-1.8-1.28-3.24-2.38-4.32-1.11-1.08-2.56-1.86-4.37-2.34-1.8-.48-4.02-.72-6.66-.72h-29.52c-.78,0-1.17.42-1.17,1.26v35.55Z"/>
    <path class="cls-1" d="M766.68,380.3c2.28,0,4.2.47,5.76,1.4,1.56.93,3.09,2.74,4.59,5.45l29.79,54.09c.3.6.37,1.1.22,1.48-.15.39-.58.58-1.3.58h-11.43c-1.02,0-1.71-.39-2.07-1.17l-6.39-11.61h-42.3l-6.21,11.61c-.42.78-1.11,1.17-2.07,1.17h-11.7c-.78,0-1.25-.19-1.4-.58-.15-.39-.08-.88.23-1.48l29.52-54.09c1.5-2.7,2.97-4.51,4.41-5.45,1.44-.93,3.12-1.4,5.04-1.4h5.31ZM749.22,420.08h30.96l-14.31-26.37c-.24-.42-.57-.63-.99-.63h-.54c-.42,0-.75.21-.99.63l-14.13,26.37Z"/>
    <path class="cls-1" d="M872.79,380.3c4.56,0,8.44.44,11.65,1.3,3.21.87,5.82,2.25,7.83,4.14,2.01,1.89,3.46,4.34,4.37,7.33.9,3,1.35,6.66,1.35,10.98v15.48c0,4.32-.45,8-1.35,11.02-.9,3.03-2.36,5.49-4.37,7.38-2.01,1.89-4.62,3.26-7.83,4.1-3.21.84-7.1,1.26-11.65,1.26h-27.81c-4.56,0-8.43-.42-11.61-1.26-3.18-.84-5.78-2.21-7.78-4.1-2.01-1.89-3.48-4.35-4.41-7.38-.93-3.03-1.4-6.7-1.4-11.02v-15.48c0-4.32.46-7.98,1.4-10.98.93-3,2.4-5.45,4.41-7.33,2.01-1.89,4.6-3.27,7.78-4.14,3.18-.87,7.05-1.3,11.61-1.3h27.81ZM833.55,418.55c0,2.34.19,4.31.58,5.9.39,1.59,1.04,2.85,1.93,3.78.9.93,2.12,1.59,3.65,1.98,1.53.39,3.46.58,5.8.58h26.73c2.34,0,4.27-.19,5.8-.58,1.53-.39,2.75-1.05,3.64-1.98.9-.93,1.54-2.19,1.94-3.78.39-1.59.58-3.55.58-5.9v-13.5c0-2.34-.2-4.3-.58-5.9-.39-1.59-1.04-2.85-1.94-3.78-.9-.93-2.11-1.59-3.64-1.98-1.53-.39-3.46-.58-5.8-.58h-26.73c-2.34,0-4.28.2-5.8.58-1.53.39-2.75,1.05-3.65,1.98-.9.93-1.54,2.19-1.93,3.78-.39,1.59-.58,3.55-.58,5.9v13.5Z"/>
  </g>
  <g>
    <path class="cls-4" d="M710.54,240.58c3.88,0,7.25.78,9.93,2.42,2.68,1.64,5.35,4.75,7.94,9.41l51.27,93.05c.52,1.04.6,1.9.35,2.59-.26.69-1.04,1.04-2.24,1.04h-19.68c-1.73,0-2.93-.69-3.54-1.99l-10.96-19.94h-72.77l-10.7,19.94c-.69,1.38-1.9,1.99-3.54,1.99h-20.11c-1.38,0-2.16-.35-2.42-1.04-.26-.69-.17-1.55.35-2.59l50.84-93.05c2.59-4.66,5.09-7.77,7.6-9.41,2.5-1.64,5.35-2.42,8.63-2.42h9.06ZM680.42,309.03h53.34l-24.6-45.4c-.43-.69-.95-1.12-1.73-1.12h-.95c-.69,0-1.29.35-1.73,1.12l-24.34,45.4Z"/>
    <path class="cls-4" d="M892.33,240.58c11.91,0,20.37,2.68,25.55,8.03,5.18,5.35,7.77,13.29,7.77,23.82v8.8c0,8.89-1.81,15.88-5.44,21.06-3.63,5.18-9.5,8.46-17.7,9.93l26.5,32.8c.52.52.69,1.29.43,2.33-.17,1.04-1.04,1.55-2.5,1.55h-19.94c-1.38,0-2.24-.17-2.76-.43-.52-.35-1.04-.86-1.55-1.55l-24.51-32.2h-50.06v30.82c0,2.24-1.12,3.37-3.37,3.37h-16.75c-2.42,0-3.54-1.12-3.54-3.37v-100.3c0-3.11,1.55-4.66,4.66-4.66h83.21ZM828.2,295.91h59.3c5.27,0,8.98-1.12,11.14-3.37,2.16-2.24,3.28-5.7,3.28-10.36v-6.47c0-4.66-1.12-8.11-3.28-10.36-2.16-2.24-5.87-3.37-11.14-3.37h-57.32c-1.38,0-1.99.6-1.99,1.9v32.02Z"/>
    <path class="cls-4" d="M1055.21,240.58c10.62,0,18.21,2.16,22.7,6.39,4.49,4.23,6.73,10.62,6.73,19.16v7.42c0,8.63-3.28,15.19-9.93,19.68,7.08,4.14,10.7,10.79,10.7,19.94v8.98c0,4.14-.43,7.85-1.38,11.14-.95,3.28-2.42,6.13-4.57,8.46-2.16,2.33-4.92,4.14-8.46,5.35-3.54,1.21-7.85,1.9-13.03,1.9h-92.02c-3.11,0-4.66-1.55-4.66-4.66v-99.09c0-3.11,1.55-4.66,4.66-4.66h89.25ZM985.04,285.64h63.53c5.18,0,8.63-.78,10.53-2.33,1.9-1.55,2.76-3.8,2.76-6.82v-5.27c0-3.19-.86-5.52-2.68-7.08-1.81-1.47-4.75-2.24-8.72-2.24h-63.36c-1.38,0-1.99.69-1.99,1.99v21.75h-.09ZM985.04,302.56v23.05c0,1.38.69,1.99,1.99,1.99h63.53c4.14,0,7.08-.78,8.8-2.24,1.73-1.47,2.68-3.88,2.68-7.16v-5.87c0-3.19-.95-5.61-2.85-7.25-1.9-1.64-5.44-2.5-10.62-2.5h-63.53Z"/>
    <path class="cls-4" d="M1143.17,240.58c2.24,0,3.37,1.12,3.37,3.37v101.6c0,2.24-1.12,3.37-3.37,3.37h-16.75c-2.42,0-3.54-1.12-3.54-3.37v-101.51c0-2.24,1.21-3.37,3.54-3.37l16.75-.09Z"/>
    <path class="cls-4" d="M1305.45,240.58c2.42,0,3.54,1.12,3.54,3.37v15.19c0,2.42-1.21,3.54-3.54,3.54h-48.6v82.87c0,2.24-1.12,3.37-3.37,3.37h-16.92c-2.24,0-3.37-1.12-3.37-3.37v-82.87h-48.6c-2.42,0-3.54-1.21-3.54-3.54v-15.19c0-2.24,1.21-3.37,3.54-3.37h120.85Z"/>
    <path class="cls-4" d="M1427.93,240.58c11.91,0,20.37,2.68,25.55,8.03,5.18,5.35,7.77,13.29,7.77,23.82v8.8c0,8.89-1.81,15.88-5.44,21.06-3.63,5.18-9.5,8.46-17.7,9.93l26.5,32.8c.52.52.69,1.29.43,2.33-.17,1.04-1.04,1.55-2.5,1.55h-19.94c-1.38,0-2.24-.17-2.76-.43-.52-.35-1.04-.86-1.55-1.55l-24.51-32.2h-50.06v30.82c0,2.24-1.12,3.37-3.37,3.37h-16.75c-2.42,0-3.54-1.12-3.54-3.37v-100.3c0-3.11,1.55-4.66,4.66-4.66h83.21ZM1363.89,295.91h59.3c5.27,0,8.98-1.12,11.14-3.37,2.16-2.24,3.28-5.7,3.28-10.36v-6.47c0-4.66-1.12-8.11-3.28-10.36-2.16-2.24-5.87-3.37-11.14-3.37h-57.32c-1.38,0-1.99.6-1.99,1.9v32.02h0Z"/>
    <path class="cls-4" d="M1515.03,240.58c2.24,0,3.37,1.12,3.37,3.37v61.8c0,4.14.35,7.6,1.04,10.27.69,2.76,1.81,4.92,3.37,6.47,1.55,1.64,3.63,2.76,6.3,3.37,2.68.69,5.96,1.04,10.01,1.04h42.9c4.06,0,7.34-.35,10.01-1.04,2.68-.69,4.75-1.81,6.3-3.37,1.55-1.64,2.68-3.8,3.28-6.47.6-2.76.95-6.13.95-10.27v-61.8c0-2.24,1.12-3.37,3.37-3.37h16.92c2.24,0,3.37,1.12,3.37,3.37v64.13c0,7.42-.78,13.72-2.33,18.99-1.55,5.18-4.06,9.41-7.51,12.69-3.45,3.28-7.94,5.61-13.47,7.08-5.52,1.47-12.17,2.16-20.03,2.16h-44.63c-7.85,0-14.5-.69-19.94-2.16-5.44-1.47-9.93-3.8-13.38-7.08-3.45-3.28-5.96-7.51-7.6-12.69-1.64-5.18-2.42-11.57-2.42-18.99v-64.13c0-2.24,1.21-3.37,3.54-3.37h16.57Z"/>
    <path class="cls-4" d="M1692.76,240.58c2.24,0,4.23.17,5.87.43,1.64.35,3.11.86,4.32,1.81,1.21.86,2.33,2.07,3.37,3.54.95,1.47,1.99,3.45,3.02,5.96l32.2,74.32c.43.95,1.12,1.38,2.16,1.38h1.9c1.04,0,1.73-.43,2.16-1.38l32.2-74.32c1.04-2.5,2.07-4.49,3.02-5.96s2.07-2.68,3.37-3.54c1.21-.86,2.68-1.47,4.23-1.81,1.64-.35,3.54-.43,5.78-.43h16.57c5.35,0,8.98,1.21,10.88,3.63,1.9,2.42,2.76,6.56,2.76,12.43v88.91c0,2.24-1.21,3.37-3.54,3.37h-15.8c-2.24,0-3.37-1.12-3.37-3.37v-80.88c0-1.04-.43-1.55-1.21-1.55h-1.38c-1.04,0-1.73.43-1.99,1.21l-31.25,69.4c-1.21,2.76-2.5,5.18-3.8,7.08-1.29,1.9-2.68,3.45-4.14,4.75-1.47,1.21-3.19,2.16-5.09,2.68-1.9.52-4.14.78-6.73.78h-7.42c-2.59,0-4.83-.26-6.73-.78-1.9-.52-3.63-1.38-5.09-2.68-1.47-1.21-2.93-2.85-4.14-4.75-1.29-1.9-2.59-4.23-3.8-7.08l-31.25-69.4c-.35-.86-.95-1.21-1.99-1.21h-1.38c-.86,0-1.21.52-1.21,1.55v80.88c0,2.24-1.12,3.37-3.37,3.37h-15.8c-2.42,0-3.54-1.12-3.54-3.37v-88.91c0-5.87.95-10.01,2.76-12.43,1.9-2.42,5.52-3.63,10.96-3.63h16.49Z"/>
  </g>
  <g>
    <path class="cls-4" d="M187.6,261.26v165.47c0,10.53,5.61,20.28,14.76,25.55l143.29,82.69c9.15,5.27,20.37,5.27,29.52,0l143.29-82.69c9.15-5.27,14.76-15.02,14.76-25.55v-165.47c0-10.53-5.61-20.28-14.76-25.55l-143.29-82.69c-9.15-5.27-20.37-5.27-29.52,0l-143.29,82.69c-9.06,5.27-14.76,15.02-14.76,25.55Z"/>
    <g>
      <path class="cls-1" d="M391.75,376.07l-20.46,56.02c-.6,1.55-.6,3.28,0,4.83l35.13,96.42,40.66-23.48-48.77-133.79c-1.12-3.11-5.44-3.11-6.56,0Z"/>
      <path class="cls-1" d="M432.66,281.81c-1.12-3.11-5.44-3.11-6.56,0l-20.46,56.02c-.6,1.55-.6,3.28,0,4.83l57.57,157.88,40.66-23.48-71.21-195.25Z"/>
    </g>
    <path class="cls-3" d="M360.41,159.15c1.04,0,1.99.26,2.93.78l155.03,89.51c1.81,1.04,2.93,2.93,2.93,5.01v179.02c0,2.07-1.12,3.97-2.93,5.01l-155.03,89.6c-.86.52-1.9.78-2.93.78s-1.99-.26-2.93-.78l-154.94-89.51c-1.81-1.04-2.93-2.93-2.93-5.01v-179.11c0-2.07,1.12-3.97,2.93-5.01l155.03-89.51c.86-.52,1.9-.78,2.85-.78M360.41,133c-5.52,0-11.05,1.47-15.97,4.32l-155.03,89.51c-9.84,5.7-15.97,16.23-15.97,27.62v179.02c0,11.39,6.13,22.01,15.97,27.71l155.03,89.51c4.92,2.85,10.44,4.32,15.97,4.32s11.05-1.47,15.97-4.32l155.03-89.51c9.93-5.7,15.97-16.23,15.97-27.71v-179.02c0-11.39-6.13-22.01-15.97-27.71l-154.94-89.43c-5.01-2.85-10.53-4.32-16.06-4.32h0Z"/>
    <polygon class="cls-4" points="257.95 500.71 272.2 461.69 300.85 485.52 274.09 510.03 257.95 500.71"/>
    <g>
      <path class="cls-2" d="M347.38,241.67h-39.27c-2.93,0-5.61,1.81-6.56,4.57l-84.25,230.99,40.66,23.48,92.79-254.38c.78-2.24-.86-4.66-3.37-4.66Z"/>
      <path class="cls-2" d="M416.17,241.67h-39.27c-2.93,0-5.61,1.81-6.56,4.57l-96.24,263.79,40.66,23.48,104.7-287.09c.86-2.33-.86-4.75-3.28-4.75Z"/>
    </g>
  </g>
</svg>