<svg xmlns="http://www.w3.org/2000/svg" xml:space="preserve" id="Layer_1" x="0" y="0" viewBox="0 0 1920 488.9"><style>.st0{fill:#213147}.st1{fill:#12aaff}.st3{fill:#fff}</style><path d="M16.4 148.6v191.7c0 12.2 6.5 23.5 17.1 29.6l166 95.8c10.6 6.1 23.6 6.1 34.2 0l166-95.8c10.6-6.1 17.1-17.4 17.1-29.6V148.6c0-12.2-6.5-23.5-17.1-29.6l-166-95.8c-10.6-6.1-23.6-6.1-34.2 0L33.5 119c-10.5 6.1-17.1 17.4-17.1 29.6" class="st0"/><path d="m252.9 281.6-23.7 64.9c-.7 1.8-.7 3.8 0 5.6l40.7 111.7 47.1-27.2-56.5-155c-1.3-3.6-6.3-3.6-7.6 0M300.3 172.4c-1.3-3.6-6.3-3.6-7.6 0L269 237.3c-.7 1.8-.7 3.8 0 5.6l66.7 182.9 47.1-27.2z" class="st1"/><path d="M216.6 30.3c1.2 0 2.3.3 3.4.9l179.6 103.7c2.1 1.2 3.4 3.4 3.4 5.8v207.4c0 2.4-1.3 4.6-3.4 5.8L220 457.7c-1 .6-2.2.9-3.4.9s-2.3-.3-3.4-.9L33.7 354c-2.1-1.2-3.4-3.4-3.4-5.8V140.7c0-2.4 1.3-4.6 3.4-5.8L213.3 31.2c1-.6 2.2-.9 3.3-.9m0-30.3c-6.4 0-12.8 1.7-18.5 5L18.5 108.7C7.1 115.3 0 127.5 0 140.7v207.4c0 13.2 7.1 25.5 18.5 32.1l179.6 103.7c5.7 3.3 12.1 5 18.5 5s12.8-1.7 18.5-5l179.6-103.7c11.5-6.6 18.5-18.8 18.5-32.1V140.7c0-13.2-7.1-25.5-18.5-32.1L235.2 5c-5.8-3.3-12.2-5-18.6-5" style="fill:#9dcced"/><path d="m97.9 426 16.5-45.2 33.2 27.6-31 28.4z" class="st0"/><path d="M201.5 125.9H156c-3.4 0-6.5 2.1-7.6 5.3L50.8 398.8 97.9 426l107.5-294.7c.9-2.6-1-5.4-3.9-5.4M281.2 125.9h-45.5c-3.4 0-6.5 2.1-7.6 5.3L116.6 436.8l47.1 27.2L285 131.4c1-2.7-1-5.5-3.8-5.5M627.1 126c4.5 0 8.4.9 11.5 2.8s6.2 5.5 9.2 10.9l59.4 107.8c.6 1.2.7 2.2.4 3s-1.2 1.2-2.6 1.2h-22.8c-2 0-3.4-.8-4.1-2.3l-12.7-23.1h-84.3l-12.4 23.1c-.8 1.6-2.2 2.3-4.1 2.3h-23.3c-1.6 0-2.5-.4-2.8-1.2s-.2-1.8.4-3l58.9-107.8c3-5.4 5.9-9 8.8-10.9s6.2-2.8 10-2.8zm-34.9 79.3H654l-28.5-52.6c-.5-.8-1.1-1.3-2-1.3h-1.1c-.8 0-1.5.4-2 1.3zM837.7 126c13.8 0 23.6 3.1 29.6 9.3q9 9.3 9 27.6v10.2c0 10.3-2.1 18.4-6.3 24.4s-11 9.8-20.5 11.5l30.7 38c.6.6.8 1.5.5 2.7-.2 1.2-1.2 1.8-2.9 1.8h-23.1c-1.6 0-2.6-.2-3.2-.5q-.9-.6-1.8-1.8l-28.4-37.3h-58v35.7q0 3.9-3.9 3.9H740c-2.8 0-4.1-1.3-4.1-3.9V131.3q0-5.4 5.4-5.4zm-74.3 64h68.7q9.15 0 12.9-3.9c2.5-2.6 3.8-6.6 3.8-12v-7.5c0-5.4-1.3-9.4-3.8-12q-3.75-3.9-12.9-3.9h-66.4c-1.6 0-2.3.7-2.3 2.2zM1026.4 126c12.3 0 21.1 2.5 26.3 7.4q7.8 7.35 7.8 22.2v8.6c0 10-3.8 17.6-11.5 22.8 8.2 4.8 12.4 12.5 12.4 23.1v10.4c0 4.8-.5 9.1-1.6 12.9s-2.8 7.1-5.3 9.8-5.7 4.8-9.8 6.2-9.1 2.2-15.1 2.2H923q-5.4 0-5.4-5.4V131.3q0-5.4 5.4-5.4zm-81.3 52.2h73.6c6 0 10-.9 12.2-2.7s3.2-4.4 3.2-7.9v-6.1c0-3.7-1-6.4-3.1-8.2-2.1-1.7-5.5-2.6-10.1-2.6h-73.4c-1.6 0-2.3.8-2.3 2.3v25.2zm0 19.5v26.7c0 1.6.8 2.3 2.3 2.3h73.6c4.8 0 8.2-.9 10.2-2.6s3.1-4.5 3.1-8.3V209q0-5.55-3.3-8.4c-2.2-1.9-6.3-2.9-12.3-2.9zM1128.3 126q3.9 0 3.9 3.9v117.7q0 3.9-3.9 3.9h-19.4c-2.8 0-4.1-1.3-4.1-3.9V129.9c0-2.6 1.4-3.9 4.1-3.9zM1316.3 126c2.8 0 4.1 1.3 4.1 3.9v17.6c0 2.8-1.4 4.1-4.1 4.1H1260v96q0 3.9-3.9 3.9h-19.6q-3.9 0-3.9-3.9v-96h-56.3c-2.8 0-4.1-1.4-4.1-4.1v-17.6c0-2.6 1.4-3.9 4.1-3.9zM1458.2 126c13.8 0 23.6 3.1 29.6 9.3q9 9.3 9 27.6v10.2c0 10.3-2.1 18.4-6.3 24.4s-11 9.8-20.5 11.5l30.7 38c.6.6.8 1.5.5 2.7-.2 1.2-1.2 1.8-2.9 1.8h-23.1c-1.6 0-2.6-.2-3.2-.5q-.9-.6-1.8-1.8l-28.4-37.3h-58v35.7q0 3.9-3.9 3.9h-19.4c-2.8 0-4.1-1.3-4.1-3.9V131.3q0-5.4 5.4-5.4zm-74.2 64h68.7q9.15 0 12.9-3.9c2.5-2.6 3.8-6.6 3.8-12v-7.5c0-5.4-1.3-9.4-3.8-12q-3.75-3.9-12.9-3.9h-66.4c-1.6 0-2.3.7-2.3 2.2zM1559.1 126q3.9 0 3.9 3.9v71.6c0 4.8.4 8.8 1.2 11.9q1.2 4.8 3.9 7.5c1.8 1.9 4.2 3.2 7.3 3.9 3.1.8 6.9 1.2 11.6 1.2h49.7c4.7 0 8.5-.4 11.6-1.2s5.5-2.1 7.3-3.9c1.8-1.9 3.1-4.4 3.8-7.5.7-3.2 1.1-7.1 1.1-11.9v-71.6q0-3.9 3.9-3.9h19.6q3.9 0 3.9 3.9v74.3c0 8.6-.9 15.9-2.7 22q-2.7 9-8.7 14.7c-4 3.8-9.2 6.5-15.6 8.2s-14.1 2.5-23.2 2.5H1586c-9.1 0-16.8-.8-23.1-2.5s-11.5-4.4-15.5-8.2-6.9-8.7-8.8-14.7-2.8-13.4-2.8-22v-74.3c0-2.6 1.4-3.9 4.1-3.9zM1765 126c2.6 0 4.9.2 6.8.5 1.9.4 3.6 1 5 2.1 1.4 1 2.7 2.4 3.9 4.1 1.1 1.7 2.3 4 3.5 6.9l37.3 86.1c.5 1.1 1.3 1.6 2.5 1.6h2.2c1.2 0 2-.5 2.5-1.6l37.3-86.1c1.2-2.9 2.4-5.2 3.5-6.9s2.4-3.1 3.9-4.1c1.4-1 3.1-1.7 4.9-2.1 1.9-.4 4.1-.5 6.7-.5h19.2q9.3 0 12.6 4.2c2.2 2.8 3.2 7.6 3.2 14.4v103c0 2.6-1.4 3.9-4.1 3.9h-18.3q-3.9 0-3.9-3.9V154c0-1.2-.5-1.8-1.4-1.8h-1.6c-1.2 0-2 .5-2.3 1.4L1852 234c-1.4 3.2-2.9 6-4.4 8.2s-3.1 4-4.8 5.5c-1.7 1.4-3.7 2.5-5.9 3.1q-3.3.9-7.8.9h-8.6q-4.5 0-7.8-.9c-2.2-.6-4.2-1.6-5.9-3.1-1.7-1.4-3.4-3.3-4.8-5.5-1.5-2.2-3-4.9-4.4-8.2l-36.2-80.4c-.4-1-1.1-1.4-2.3-1.4h-1.6c-1 0-1.4.6-1.4 1.8v93.7q0 3.9-3.9 3.9h-18.3c-2.8 0-4.1-1.3-4.1-3.9v-103c0-6.8 1.1-11.6 3.2-14.4 2.2-2.8 6.4-4.2 12.7-4.2h19.3z" class="st3"/><path d="M614.5 288.7c1.6 0 2.4.8 2.4 2.3v10.1c0 1.6-.8 2.3-2.4 2.3h-46c-2.8 0-5 .2-6.8.7s-3.2 1.2-4.3 2.3-1.8 2.6-2.3 4.5-.7 4.2-.7 6.9v2.1H614c1.6 0 2.3.8 2.3 2.3v8.4c0 1.6-.8 2.3-2.3 2.3h-59.6v27.6c0 1.6-.8 2.3-2.3 2.3h-11.5c-1.6 0-2.4-.8-2.4-2.3v-43.9c0-5.1.5-9.4 1.6-12.9s2.8-6.4 5.2-8.6 5.4-3.9 9.2-4.9c3.7-1 8.3-1.5 13.7-1.5zM699.7 288.7c5.4 0 10 .5 13.7 1.5 3.8 1 6.9 2.7 9.2 4.9 2.4 2.2 4.1 5.1 5.1 8.6 1.1 3.5 1.6 7.8 1.6 12.9v18.2c0 5.1-.5 9.4-1.6 13s-2.8 6.5-5.1 8.7c-2.4 2.2-5.4 3.8-9.2 4.8s-8.4 1.5-13.7 1.5h-32.8c-5.4 0-9.9-.5-13.7-1.5-3.7-1-6.8-2.6-9.2-4.8s-4.1-5.1-5.2-8.7-1.6-7.9-1.6-13v-18.2c0-5.1.5-9.4 1.6-12.9s2.8-6.4 5.2-8.6 5.4-3.9 9.2-4.9c3.7-1 8.3-1.5 13.7-1.5zm-46.2 45c0 2.8.2 5.1.7 6.9.5 1.9 1.2 3.4 2.3 4.5s2.5 1.9 4.3 2.3c1.8.5 4.1.7 6.8.7h31.5c2.8 0 5-.2 6.8-.7s3.2-1.2 4.3-2.3 1.8-2.6 2.3-4.5.7-4.2.7-6.9v-15.9c0-2.8-.2-5.1-.7-6.9-.5-1.9-1.2-3.4-2.3-4.5s-2.5-1.9-4.3-2.3c-1.8-.5-4.1-.7-6.8-.7h-31.5c-2.8 0-5 .2-6.8.7s-3.2 1.2-4.3 2.3-1.8 2.6-2.3 4.5-.7 4.2-.7 6.9zM766.8 288.7c1.6 0 2.3.8 2.3 2.3v42.3c0 2.8.2 5.2.7 7.1s1.2 3.4 2.3 4.5 2.5 1.9 4.3 2.3c1.8.5 4.1.7 6.8.7h29.4c2.8 0 5-.2 6.8-.7s3.2-1.2 4.3-2.3 1.8-2.6 2.2-4.5.6-4.2.6-7.1V291c0-1.6.8-2.3 2.3-2.3h11.6c1.6 0 2.3.8 2.3 2.3v43.9c0 5.1-.5 9.4-1.6 13q-1.65 5.4-5.1 8.7c-3.45 3.3-5.4 3.8-9.2 4.8s-8.4 1.5-13.7 1.5h-30.5c-5.4 0-9.9-.5-13.7-1.5-3.7-1-6.8-2.6-9.2-4.8s-4.1-5.1-5.2-8.7-1.6-7.9-1.6-13V291c0-1.6.8-2.3 2.4-2.3zM886.2 288.7c1.7 0 3.1.1 4.2.2q1.65.15 3 .9c.8.5 1.7 1.1 2.4 1.9.8.8 1.7 1.9 2.7 3.2l39.5 51.8c.3.5.7.7 1.4.7h1c.6 0 .8-.4.8-1.1V291c0-1.6.8-2.3 2.3-2.3h11.1c1.6 0 2.3.8 2.3 2.3v60.9c0 4.3-.8 7.2-2.3 8.8-1.6 1.5-4 2.3-7.2 2.3h-9.1c-1.6 0-3-.1-4.1-.2s-2.1-.4-2.9-.8-1.7-1-2.5-1.9c-.8-.8-1.7-1.9-2.8-3.3l-39.6-51.7c-.4-.5-.9-.7-1.4-.7h-1c-.6 0-.8.4-.8 1.1v55.4c0 1.6-.8 2.3-2.3 2.3h-11.1c-1.6 0-2.4-.8-2.4-2.3V300c0-4.3.8-7.2 2.3-8.8 1.6-1.5 4-2.3 7.2-2.3h9.3zM1034.5 288.7c5.7 0 10.6.6 14.7 1.7 4.1 1.2 7.5 3 10.1 5.4s4.5 5.5 5.8 9.3c1.2 3.8 1.9 8.3 1.9 13.4V333c0 5.2-.6 9.6-1.9 13.4-1.2 3.8-3.2 6.9-5.8 9.3s-6 4.2-10.1 5.4q-6.15 1.8-14.7 1.8h-49.6c-2.1 0-3.2-1.1-3.2-3.2v-67.9c0-2.1 1.1-3.2 3.2-3.2h49.6zm-36.6 58.1c0 .9.5 1.4 1.4 1.4h34.8c3.1 0 5.7-.3 7.8-.8 2.1-.6 3.8-1.5 5.1-2.8s2.2-3 2.8-5.1.8-4.7.8-7.8V320c0-3.1-.3-5.7-.8-7.8-.6-2.1-1.5-3.8-2.8-5.1s-3-2.2-5.1-2.8-4.7-.8-7.8-.8h-34.8c-.9 0-1.4.5-1.4 1.5zM1133.6 288.7c2.7 0 4.9.5 6.8 1.6 1.8 1.1 3.6 3.2 5.4 6.4l35.1 63.7c.4.7.4 1.3.3 1.7-.2.5-.7.7-1.5.7h-13.5c-1.2 0-2-.5-2.4-1.4l-7.5-13.7h-49.8l-7.3 13.7c-.5.9-1.3 1.4-2.4 1.4H1083c-.9 0-1.5-.2-1.6-.7-.2-.5-.1-1 .3-1.7l34.8-63.7c1.8-3.2 3.5-5.3 5.2-6.4s3.7-1.6 5.9-1.6zm-20.5 46.8h36.5l-16.9-31.1c-.3-.5-.7-.7-1.2-.7h-.6c-.5 0-.9.2-1.2.7zM1267.5 288.7c1.6 0 2.4.8 2.4 2.3v10.4q0 2.4-2.4 2.4h-33.3v56.7c0 1.6-.8 2.3-2.3 2.3h-11.6c-1.6 0-2.3-.8-2.3-2.3v-56.7h-33.3q-2.4 0-2.4-2.4V291c0-1.6.8-2.3 2.4-2.3zM1303.9 288.7c1.6 0 2.3.8 2.3 2.3v69.6c0 1.6-.8 2.3-2.3 2.3h-11.5c-1.6 0-2.4-.8-2.4-2.3V291c0-1.6.8-2.3 2.4-2.3zM1392.5 288.7c5.4 0 10 .5 13.7 1.5 3.8 1 6.9 2.7 9.2 4.9 2.4 2.2 4.1 5.1 5.1 8.6 1.1 3.5 1.6 7.8 1.6 12.9v18.2c0 5.1-.5 9.4-1.6 13s-2.8 6.5-5.1 8.7c-2.4 2.2-5.4 3.8-9.2 4.8s-8.4 1.5-13.7 1.5h-32.8c-5.4 0-9.9-.5-13.7-1.5-3.7-1-6.8-2.6-9.2-4.8s-4.1-5.1-5.2-8.7-1.6-7.9-1.6-13v-18.2c0-5.1.5-9.4 1.6-12.9s2.8-6.4 5.2-8.6 5.4-3.9 9.2-4.9c3.7-1 8.3-1.5 13.7-1.5zm-46.2 45c0 2.8.2 5.1.7 6.9.5 1.9 1.2 3.4 2.3 4.5s2.5 1.9 4.3 2.3c1.8.5 4.1.7 6.8.7h31.5c2.8 0 5-.2 6.8-.7s3.2-1.2 4.3-2.3 1.8-2.6 2.3-4.5.7-4.2.7-6.9v-15.9c0-2.8-.2-5.1-.7-6.9-.5-1.9-1.2-3.4-2.3-4.5s-2.5-1.9-4.3-2.3c-1.8-.5-4.1-.7-6.8-.7h-31.5c-2.8 0-5 .2-6.8.7s-3.2 1.2-4.3 2.3-1.8 2.6-2.3 4.5-.7 4.2-.7 6.9zM1464.8 288.7c1.7 0 3.1.1 4.2.2q1.65.15 3 .9c.8.5 1.7 1.1 2.4 1.9.8.8 1.7 1.9 2.7 3.2l39.5 51.8c.3.5.7.7 1.4.7h1c.6 0 .8-.4.8-1.1V291c0-1.6.8-2.3 2.3-2.3h11.1c1.6 0 2.3.8 2.3 2.3v60.9c0 4.3-.8 7.2-2.3 8.8-1.6 1.5-4 2.3-7.2 2.3h-9.1c-1.6 0-3-.1-4.1-.2s-2.1-.4-2.9-.8-1.7-1-2.5-1.9c-.8-.8-1.7-1.9-2.8-3.3l-39.6-51.7c-.4-.5-.9-.7-1.4-.7h-1c-.6 0-.8.4-.8 1.1v55.4c0 1.6-.8 2.3-2.3 2.3h-11.1c-1.6 0-2.4-.8-2.4-2.3V300c0-4.3.8-7.2 2.3-8.8 1.6-1.5 4-2.3 7.2-2.3h9.3z" class="st1"/></svg>