<?xml version="1.0" encoding="UTF-8"?>
<svg id="Layer_1" data-name="Layer 1" xmlns="http://www.w3.org/2000/svg" viewBox="0 0 374.27 421.79">
  <defs>
    <style>
      .cls-1 {
        fill: #12aaff;
      }
    </style>
  </defs>
  <path class="cls-1" d="m357.54,93.19L203.87,4.47c-10.32-5.96-23.14-5.96-33.46,0L16.73,93.19C6.41,99.15,0,110.25,0,122.17v177.45c0,11.92,6.41,23.02,16.73,28.98l153.68,88.73c5.16,2.98,10.94,4.47,16.73,4.47s11.57-1.49,16.73-4.47l153.68-88.73c10.32-5.96,16.73-17.06,16.73-28.98V122.17c0-11.92-6.41-23.02-16.73-28.98Zm-167.06,300.94c-2.06,1.19-4.62,1.19-6.68,0L30.12,305.41c-2.06-1.19-3.34-3.41-3.34-5.79v-128.09h160.36c10.24,0,19.59,3.93,26.6,10.38,7.84,7.2,12.77,17.53,12.77,28.99s-4.93,21.79-12.77,28.99h32.84c4.29-8.76,6.7-18.6,6.7-28.99s-2.41-20.23-6.7-28.99c-1.79-3.66-3.91-7.13-6.33-10.38-12.06-16.24-31.38-26.78-53.12-26.78H26.78v-10.37h160.36c27.8,0,52.19,14.91,65.59,37.15,1.99,3.3,3.74,6.77,5.22,10.38,3.68,8.94,5.71,18.74,5.71,28.99s-2.03,20.04-5.71,28.99h28.38c2.71-9.3,4.1-19.04,4.1-28.99,0-27.59-10.74-53.53-30.25-73.04-19.51-19.51-45.45-30.25-73.04-30.25H45.33L183.8,27.66c1.03-.59,2.18-.89,3.34-.89s2.31.3,3.34.89l153.68,88.72c2.06,1.19,3.34,3.41,3.34,5.79v128.09h-160.36c-10.24,0-19.59-3.93-26.6-10.38-7.84-7.2-12.77-17.53-12.77-28.99s4.93-21.79,12.77-28.99h-32.84c-4.29,8.76-6.7,18.6-6.7,28.99,0,36.47,29.67,66.14,66.14,66.14h160.36v10.38h-160.36c-42.19,0-76.52-34.33-76.52-76.52,0-10.25,2.03-20.04,5.7-28.99h-28.38c-2.71,9.3-4.11,19.04-4.11,28.99,0,27.59,10.74,53.53,30.25,73.04,19.51,19.51,45.45,30.26,73.04,30.26h141.8l-138.46,79.94Z"/>
</svg>