<svg xmlns="http://www.w3.org/2000/svg" width="733" height="138" fill="none" viewBox="0 0 733 138"><path fill="#2d374b" d="M203.64 44.2q2.433 0 4.096 1.024 1.665.96 3.264 3.84l21.184 38.464q.32.64.128 1.088-.128.384-.896.384h-8.128q-1.088 0-1.472-.832l-4.544-8.256h-30.08l-4.416 8.256q-.447.832-1.472.832h-8.32q-.832 0-1.024-.384-.128-.448.192-1.088l20.992-38.464q1.6-2.88 3.136-3.84 1.536-1.024 3.584-1.024zm-12.416 28.288h22.016l-10.176-18.752q-.255-.448-.704-.448h-.384q-.447 0-.704.448zM293.087 44.2q7.36 0 10.56 3.328t3.2 9.856v3.648q0 5.504-2.24 8.704t-7.296 4.096L308.255 87.4q.321.32.192.96-.127.64-1.024.64h-8.256q-.831 0-1.152-.192t-.64-.64l-10.112-13.312h-20.672v12.736q0 1.408-1.408 1.408h-6.912q-1.472 0-1.472-1.408V46.12q0-1.92 1.92-1.92zm-26.496 22.848h24.512q3.264 0 4.608-1.408t1.344-4.288v-2.688q0-2.88-1.344-4.288t-4.608-1.408h-23.68q-.832 0-.832.768zM372.721 44.2q6.592 0 9.344 2.624 2.816 2.625 2.816 7.936v3.072q0 5.376-4.096 8.128 4.416 2.56 4.416 8.256v3.712q0 2.56-.576 4.608t-1.92 3.52q-1.28 1.408-3.456 2.176t-5.376.768h-38.016q-1.92 0-1.92-1.92V46.12q0-1.92 1.92-1.92zm-28.992 25.6v9.536q0 .832.832.832h26.24q2.56 0 3.648-.896 1.088-.96 1.088-3.008v-2.432q0-1.984-1.216-3.008-1.152-1.024-4.352-1.024zm0-6.976h26.24q3.2 0 4.352-.96t1.152-2.816v-2.176q0-1.984-1.152-2.88-1.088-.96-3.584-.96h-26.176q-.832 0-.832.832zM420.333 44.2q1.408 0 1.408 1.408v41.984q0 1.408-1.408 1.408h-6.912q-1.472 0-1.472-1.408V45.608q0-1.408 1.472-1.408zM493.942 44.2q1.408 0 1.408 1.408v6.08q0 1.408-1.408 1.408h-32.064q-1.856 0-2.624.96t-.768 2.624v2.176q0 3.585 3.328 3.584h24q5.568 0 8.384 2.88 2.816 2.816 2.816 8.128v5.12q0 4.672-2.752 7.552T485.686 89H450.23q-1.472 0-1.472-1.408v-6.08q0-1.408 1.472-1.408h33.6q1.856 0 2.624-.96t.768-2.624v-2.624q0-3.585-3.328-3.584h-24q-5.568 0-8.384-2.816-2.816-2.88-2.816-8.192v-4.672q0-4.672 2.752-7.552t8.576-2.88zM569.809 44.2q1.408 0 1.408 1.408v6.272q0 1.472-1.408 1.472h-28.48q-2.496 0-4.16.448-1.6.384-2.56 1.408-.96.96-1.408 2.624-.384 1.664-.384 4.224v9.088q0 2.56.384 4.288.448 1.664 1.408 2.688.96.96 2.56 1.408 1.664.384 4.16.384h28.48q1.408 0 1.408 1.408v6.272q0 1.408-1.408 1.408h-28.864q-4.865 0-8.256-.896-3.391-.895-5.568-2.88-2.112-2.048-3.136-5.248-.96-3.264-.96-7.872V61.096q0-4.608.96-7.808 1.024-3.2 3.136-5.184 2.177-2.048 5.568-2.944 3.392-.96 8.256-.96zM625.653 44.2q2.432 0 4.096 1.024 1.664.96 3.264 3.84l21.184 38.464q.32.64.128 1.088-.128.384-.896.384h-8.128q-1.088 0-1.472-.832l-4.544-8.256h-30.08l-4.416 8.256q-.448.832-1.472.832h-8.32q-.832 0-1.024-.384-.128-.448.192-1.088l20.992-38.464q1.6-2.88 3.136-3.84 1.536-1.024 3.584-1.024zm-12.416 28.288h22.016l-10.176-18.752q-.256-.448-.704-.448h-.384q-.448 0-.704.448zM690.204 44.2q1.536 0 2.56.128 1.024.127 1.792.576.768.384 1.472 1.152.704.705 1.6 1.92l23.808 31.232q.256.448.832.448h.576q.512 0 .512-.64V45.608q0-1.408 1.408-1.408h6.72q1.408 0 1.408 1.408v36.736q0 3.904-1.408 5.312Q730.076 89 727.132 89h-5.504q-1.471 0-2.496-.128a5.5 5.5 0 0 1-1.728-.512 6.8 6.8 0 0 1-1.536-1.088q-.704-.768-1.664-2.048l-23.872-31.232q-.384-.448-.832-.448h-.576q-.512 0-.512.64v33.408q0 1.408-1.408 1.408h-6.72q-1.472 0-1.472-1.408V50.856q0-3.904 1.408-5.248 1.408-1.408 4.352-1.408z"/><g clip-path="url(#a)"><path fill="#213147" d="M4.634 41.956v54.12c0 3.434 1.827 6.639 4.829 8.34l46.725 27.044a9.56 9.56 0 0 0 9.625 0l46.758-27.044c2.969-1.734 4.829-4.906 4.829-8.34v-54.12a9.67 9.67 0 0 0-4.829-8.372L65.813 6.54a9.56 9.56 0 0 0-9.625 0L9.43 33.584a9.74 9.74 0 0 0-4.796 8.372"/><path fill="#12aaff" d="M71.23 79.497 64.54 97.81a2.17 2.17 0 0 0 0 1.57l11.453 31.524 13.28-7.685L73.35 79.465c-.359-.982-1.762-.982-2.12.032M84.574 48.66c-.359-1.014-1.762-1.014-2.153 0l-6.69 18.313a2.17 2.17 0 0 0 0 1.57l18.795 51.635 13.28-7.685z"/><path fill="#9dcced" d="M61.016 8.535c.327 0 .653.098.947.262l50.575 29.268c.587.327.946.948.946 1.635v58.535c0 .687-.359 1.308-.946 1.635l-50.575 29.301c-.294.163-.62.261-.947.261s-.652-.098-.946-.261L9.495 99.903a1.86 1.86 0 0 1-.946-1.635V39.7c0-.687.359-1.309.946-1.636L60.07 8.798c.294-.164.62-.262.946-.262m0-8.535c-1.794 0-3.621.49-5.22 1.406L5.22 30.674C2.023 32.538 0 35.972 0 39.7v58.535c0 3.728 1.99 7.194 5.22 9.058l50.576 29.268c1.599.948 3.393 1.406 5.22 1.406a10.5 10.5 0 0 0 5.221-1.406l50.575-29.268a10.43 10.43 0 0 0 5.221-9.058V39.7a10.47 10.47 0 0 0-5.221-9.059L66.237 1.406C64.606.491 62.811 0 61.017 0"/><path fill="#213147" d="m27.571 120.243 4.666-12.753 9.332 7.782-8.712 8.012z"/><path fill="#fff" d="M56.742 35.546H43.92c-.946 0-1.827.59-2.153 1.505l-27.474 75.54 13.28 7.685 30.28-83.193a1.158 1.158 0 0 0-1.11-1.537M79.192 35.546H66.368c-.946 0-1.827.59-2.153 1.505l-31.357 86.233 13.28 7.685 34.13-93.886c.294-.752-.293-1.537-1.076-1.537"/></g><defs><clipPath id="a"><path fill="#fff" d="M0 0h122v138H0z"/></clipPath></defs></svg>