<svg width="500" height="171" viewBox="0 0 500 171" fill="none" xmlns="http://www.w3.org/2000/svg">
<path d="M285.916 15.0039H261.887L213.618 161.833H227.74L240.387 122.819H307.416L320.063 161.833H334.185L285.916 15.0039ZM244.181 110.653L272.637 22.9749H275.166L303.622 110.653H244.181Z" fill="white"/>
<path d="M386.866 59.4688H398.881V71.2148H385.391C377.661 71.2148 371.479 73.3846 366.842 77.717C362.205 82.0532 359.886 88.8345 359.886 98.0638V161.829H347.239V59.8876H359.465V72.6831H361.994C363.96 68.0682 366.875 64.7121 370.741 62.6147C374.605 60.5174 379.98 59.4688 386.866 59.4688Z" fill="white"/>
<path d="M500 125.963C498.736 132.538 496.101 138.794 492.096 144.736C488.091 150.681 482.68 155.506 475.866 159.209C469.048 162.913 460.723 164.768 450.888 164.768C440.909 164.768 432.023 162.634 424.224 158.37C416.425 154.106 410.276 147.987 405.781 140.017C401.282 132.046 399.036 122.679 399.036 111.909V109.812C399.036 98.9043 401.282 89.5015 405.781 81.5998C410.276 73.701 416.425 67.6179 424.224 63.3509C432.023 59.087 440.909 56.9531 450.888 56.9531C460.723 56.9531 469.048 58.8083 475.866 62.5117C482.68 66.2188 488.019 71.0431 491.885 76.9848C495.748 82.9302 498.172 89.1868 499.157 95.7582L486.721 98.2752C486.016 92.8218 484.261 87.8237 481.451 83.2774C478.639 78.7355 474.706 75.0976 469.648 72.3705C464.589 69.6434 458.335 68.2803 450.888 68.2803C443.438 68.2803 436.766 69.9944 430.864 73.4192C424.962 76.8476 420.289 81.672 416.847 87.8923C413.402 94.1165 411.683 101.494 411.683 110.021V111.7C411.683 120.231 413.402 127.608 416.847 133.829C420.289 140.053 424.962 144.877 430.864 148.302C436.766 151.73 443.438 153.441 450.888 153.441C462.128 153.441 470.702 150.541 476.603 144.736C482.505 138.935 486.158 131.836 487.564 123.446L500 125.963Z" fill="white"/>
<path d="M0 171C1.39327 129.136 8.52567 90.067 20.4481 59.6871C35.5477 21.1972 57.4057 0 81.9919 0C106.578 0 128.433 21.1972 143.536 59.6871C151.391 79.7058 157.17 103.491 160.594 129.366C160.9 131.677 161.161 134.026 161.428 136.369C161.515 136.514 161.568 136.649 161.55 136.758C161.55 136.758 163.562 149.265 163.99 171H163.763C160.778 168.562 125.578 141.038 67.2282 149.007C68.1086 139.181 69.3194 129.62 70.8835 120.456C70.9634 119.987 71.0558 119.535 71.1373 119.07C94.0233 118.383 114.055 121.028 129.416 124.494C129.359 124.131 129.311 123.758 129.253 123.397C126.095 103.83 121.437 85.9161 115.43 70.6073C105.61 45.576 92.7953 30.0239 81.9919 30.0239C71.189 30.0239 58.3744 45.576 48.554 70.6073C46.1769 76.6621 44.0128 83.1192 42.0721 89.9301C39.3438 99.4735 37.0517 109.704 35.2212 120.455C32.5117 136.331 30.8189 153.358 30.1954 171H0Z" fill="white"/>
</svg>
