<svg width="500" height="171" viewBox="0 0 500 171" fill="none" xmlns="http://www.w3.org/2000/svg">
<path d="M285.916 15.0029H261.887L213.618 161.832H227.74L240.387 122.818H307.416L320.063 161.832H334.185L285.916 15.0029ZM244.181 110.652L272.637 22.9739H275.166L303.622 110.652H244.181Z" fill="#1B3158"/>
<path d="M386.866 59.4697H398.881V71.2157H385.391C377.661 71.2157 371.479 73.3856 366.842 77.7179C362.205 82.0542 359.886 88.8355 359.886 98.0647V161.83H347.239V59.8886H359.465V72.6841H361.994C363.96 68.0692 366.875 64.7131 370.741 62.6157C374.605 60.5184 379.98 59.4697 386.866 59.4697Z" fill="#1B3158"/>
<path d="M500 125.964C498.736 132.539 496.101 138.795 492.096 144.737C488.091 150.682 482.68 155.507 475.866 159.21C469.048 162.914 460.723 164.769 450.888 164.769C440.909 164.769 432.023 162.635 424.224 158.371C416.425 154.107 410.276 147.988 405.781 140.018C401.282 132.047 399.036 122.68 399.036 111.91V109.813C399.036 98.9053 401.282 89.5025 405.781 81.6007C410.276 73.702 416.425 67.6189 424.224 63.3518C432.023 59.088 440.909 56.9541 450.888 56.9541C460.723 56.9541 469.048 58.8093 475.866 62.5127C482.68 66.2197 488.019 71.0441 491.885 76.9858C495.748 82.9312 498.172 89.1878 499.157 95.7592L486.721 98.2762C486.016 92.8227 484.261 87.8246 481.451 83.2784C478.639 78.7365 474.706 75.0985 469.648 72.3715C464.589 69.6444 458.335 68.2812 450.888 68.2812C443.438 68.2812 436.766 69.9954 430.864 73.4202C424.962 76.8486 420.289 81.6729 416.847 87.8933C413.402 94.1175 411.683 101.495 411.683 110.022V111.701C411.683 120.232 413.402 127.609 416.847 133.83C420.289 140.054 424.962 144.878 430.864 148.303C436.766 151.731 443.438 153.442 450.888 153.442C462.128 153.442 470.702 150.542 476.603 144.737C482.505 138.936 486.158 131.837 487.564 123.447L500 125.964Z" fill="#1B3158"/>
<path d="M0 171C1.39327 129.136 8.52567 90.067 20.4481 59.6871C35.5477 21.1972 57.4057 0 81.9919 0C106.578 0 128.433 21.1972 143.536 59.6871C151.391 79.7058 157.17 103.491 160.594 129.366C160.9 131.677 161.161 134.026 161.428 136.369C161.515 136.514 161.568 136.649 161.55 136.758C161.55 136.758 163.562 149.265 163.99 171H163.763C160.778 168.562 125.578 141.038 67.2282 149.007C68.1086 139.181 69.3194 129.62 70.8835 120.456C70.9634 119.987 71.0558 119.535 71.1373 119.07C94.0233 118.383 114.055 121.028 129.416 124.494C129.359 124.131 129.311 123.758 129.253 123.397C126.095 103.83 121.437 85.9161 115.43 70.6073C105.61 45.576 92.7953 30.0239 81.9919 30.0239C71.189 30.0239 58.3744 45.576 48.554 70.6073C46.1769 76.6621 44.0128 83.1192 42.0721 89.9301C39.3438 99.4735 37.0517 109.704 35.2212 120.455C32.5117 136.331 30.8189 153.358 30.1954 171H0Z" fill="#1B3158"/>
</svg>
