<svg xmlns="http://www.w3.org/2000/svg" width="165" height="48" fill="none" viewBox="0 0 165 48"><path fill="#fff" d="M40.4 37.389h3.526l-.001.002a.224.224 0 0 1 .222.221v2.079a.22.22 0 0 1-.222.222H40.4a.223.223 0 0 1-.223-.222v-2.079a.22.22 0 0 1 .223-.224M11.443 34.73l7.96-2.231.003.624-7.067 3.712v2.357a.2.2 0 0 1-.062.15l-.704.688h-.225l-.689-.69a.21.21 0 0 1-.061-.147v-2.356L3.53 33.124l.005.181 5.45 5.473v8.518a.18.18 0 0 1-.103.161.18.18 0 0 1-.19-.025c-1.022-.84-4.448-3.803-5.684-6.767L.21 28.146 0 22.885l.324.005.852 1.645v-.075a10.18 10.18 0 0 1 2.216-6.354c.815-1.126 1.977-2.157 3.626-2.89.96-.459 1.986-.765 3.042-.908L11.26 0h.183v32.86s-5.715-.14-7.895-.64l-.012.279zM86.663 34.963l.036-.056 2.013 1.58-.033.047c-.75 1.063-1.713 1.933-2.782 2.515a7.74 7.74 0 0 1-6.824.256 8.1 8.1 0 0 1-2.544-1.827 8.7 8.7 0 0 1-1.722-2.7 9.1 9.1 0 0 1 0-6.635c.4-1 .984-1.916 1.722-2.701a8.2 8.2 0 0 1 2.55-1.825 7.72 7.72 0 0 1 6.816.253c1.072.583 2.034 1.451 2.784 2.516l.033.047-2.013 1.58-.036-.056a5.75 5.75 0 0 0-1.903-1.867 4.98 4.98 0 0 0-4.671-.216 5.6 5.6 0 0 0-1.732 1.304 6.4 6.4 0 0 0-1.175 1.922c-.58 1.52-.58 3.2 0 4.72a6.4 6.4 0 0 0 1.175 1.922 5.5 5.5 0 0 0 1.732 1.303 4.76 4.76 0 0 0 2.118.48 4.9 4.9 0 0 0 2.553-.695 5.7 5.7 0 0 0 1.903-1.867"/><path fill="#fff" d="m37.354 39.917 4.79-11.184h.04l4.788 11.185h2.852l-7.395-16.95-.532.002-7.394 16.947zM157.551 29.791l2.393.49c3.213.642 5.056 2.363 5.056 4.72 0 3.072-2.496 4.98-6.514 4.98-3.552 0-6.219-1.707-7.135-4.566l-.017-.052 2.529-1.072.02.062c.52 1.555 1.766 3.408 4.752 3.408 2.237 0 3.627-.977 3.627-2.55 0-1.308-.99-2.11-3.116-2.528l-2.317-.49c-3.145-.62-4.608-2.083-4.608-4.604 0-2.766 2.524-4.7 6.14-4.7 1.721 0 3.253.458 4.43 1.323.922.678 1.626 1.613 1.931 2.566l.018.052-2.453 1.05-.021-.06c-.451-1.239-1.533-2.712-4.129-2.712-2.008 0-3.304.929-3.304 2.365 0 1.242.788 1.914 2.718 2.318M65.525 33.972l3.287 5.947h-2.899l-2.775-5.192a6 6 0 0 1-.563.028h-3.973v5.164h-2.75v-7.33h6.297c1.993 0 3.81-1.368 3.81-3.584 0-1.985-1.675-3.85-3.668-3.85h-5.27l-1.168-1.864v-.324h6.72c3.321 0 6.09 2.73 6.09 6.04 0 1.989-1.278 3.927-3.138 4.965M118.879 37.491V22.95h-.316l-2.439 1.274v15.695h10.456v-2.428zM104.916 24.224l2.398-1.27h.324v11.403a4.9 4.9 0 0 1-.507 2.209 5.6 5.6 0 0 1-1.384 1.78 6.9 6.9 0 0 1-2.049 1.197 7 7 0 0 1-2.514.44 6.9 6.9 0 0 1-2.475-.443 6.7 6.7 0 0 1-2.013-1.197 5.5 5.5 0 0 1-1.36-1.78 5 5 0 0 1-.5-2.211V24.224l2.404-1.228h.322V33.4c-.004 1.397.094 1.834.286 2.232a3.46 3.46 0 0 0 1.941 1.747c.457.171.94.258 1.427.256.496.004.988-.082 1.452-.256a3.8 3.8 0 0 0 1.176-.708c.326-.295.591-.65.784-1.047.189-.4.288-.837.284-1.279zM142.471 24.224l2.398-1.27h.324v11.403a4.9 4.9 0 0 1-.506 2.209 5.6 5.6 0 0 1-1.386 1.78c-.607.515-1.3.92-2.046 1.197a7.1 7.1 0 0 1-2.514.44 6.9 6.9 0 0 1-2.475-.443 6.7 6.7 0 0 1-2.015-1.197 5.5 5.5 0 0 1-1.361-1.78 5 5 0 0 1-.499-2.211V24.224l2.404-1.228h.322V33.4c-.004 1.397.095 1.834.286 2.232.192.396.458.752.783 1.05.34.301.733.538 1.159.697.456.171.939.258 1.426.256a4 4 0 0 0 1.452-.256 3.7 3.7 0 0 0 1.176-.708c.327-.295.593-.65.784-1.047.191-.4.288-.837.284-1.279z"/></svg>