<svg xmlns="http://www.w3.org/2000/svg" width="182" height="24" fill="none"><path fill="#f3f5f0" d="M12.909 4.044 15.593 0l2.655 4.003-2.685 4.047-2.654-4.002zm5.112 7.71 7.492 11.298h5.373L20.706 7.707l-2.685 4.048ZM5.617 23.053l7.492-11.297-2.655-4.003-10.153 15.3zm9.946-7.593-5.033 7.593h10.066zm42.868 3.56h-7.034l-1.163 3.364h-3.72L52.867 4.7h4.123l6.351 17.683h-3.746l-1.163-3.365Zm-.962-2.836-2.557-7.386-2.556 7.386zM75.22 4.724V15.65q0 1.795.936 2.745c.623.635 1.502.948 2.631.948 1.13 0 2.032-.317 2.655-.948.623-.63.936-1.548.936-2.745V4.724h3.569v10.905q0 2.253-.975 3.806a6.2 6.2 0 0 1-2.605 2.34q-1.632.784-3.632.786c-1.333 0-2.508-.26-3.58-.785a5.94 5.94 0 0 1-2.541-2.341q-.936-1.558-.937-3.806V4.724zm33.447 5.313a4.15 4.15 0 0 0-1.669-1.696c-.71-.389-1.533-.581-2.481-.581q-1.57 0-2.783.71-1.213.708-1.9 2.023-.684 1.314-.683 3.036c0 1.148.23 2.21.695 3.085a4.95 4.95 0 0 0 1.933 2.024q1.239.709 2.885.71 2.023 0 3.315-1.076c.861-.718 1.424-1.714 1.696-2.998h-6.072v-2.708h9.564v3.085a8.3 8.3 0 0 1-1.517 3.414q-1.163 1.568-2.999 2.518-1.835.947-4.112.948-2.554 0-4.618-1.152a8.4 8.4 0 0 1-3.24-3.202q-1.177-2.05-1.177-4.655c0-2.605.392-3.293 1.178-4.667a8.33 8.33 0 0 1 3.24-3.214q2.06-1.15 4.591-1.151 2.986-.001 5.184 1.453 2.203 1.457 3.036 4.086h-4.074zm17.679-5.313V15.65q0 1.795.936 2.745c.623.635 1.503.948 2.632.948s2.031-.317 2.654-.948c.623-.63.937-1.548.937-2.745V4.724h3.568v10.905q0 2.253-.974 3.806a6.2 6.2 0 0 1-2.606 2.34q-1.632.784-3.632.786c-1.333 0-2.507-.26-3.58-.785a5.94 5.94 0 0 1-2.541-2.341q-.935-1.558-.936-3.806V4.724zm23.818 17.203q-1.479-.633-2.341-1.82-.86-1.19-.883-2.81h3.794q.073 1.089.771 1.722.694.635 1.91.635c.812 0 1.477-.197 1.949-.597q.709-.594.71-1.555 0-.782-.48-1.292a3.4 3.4 0 0 0-1.201-.797c-.479-.192-1.144-.407-1.986-.645-1.148-.336-2.077-.672-2.794-1a4.9 4.9 0 0 1-1.847-1.492q-.77-.998-.77-2.67 0-1.568.786-2.734.783-1.162 2.201-1.782 1.416-.619 3.24-.62 2.73-.001 4.44 1.33c1.141.883 1.767 2.122 1.884 3.708h-3.896A2.03 2.03 0 0 0 154.88 8q-.72-.593-1.91-.593-1.036 0-1.658.533-.618.531-.619 1.544 0 .708.468 1.178a3.5 3.5 0 0 0 1.163.76q.697.29 1.96.671c1.148.336 2.084.676 2.809 1.012q1.087.504 1.873 1.518.783 1.013.785 2.655a5 5 0 0 1-.732 2.631c-.491.809-1.205 1.454-2.153 1.934q-1.416.72-3.364.721-1.847 0-3.326-.634l-.012-.004Zm31.118-17.203v2.858h-4.705V22.38h-3.542V7.582h-4.705V4.724z"/></svg>