<svg xmlns="http://www.w3.org/2000/svg" width="182" height="24" fill="none"><path fill="#F3F5F0" d="M12.909 4.044 15.593 0l2.655 4.003-2.685 4.047-2.654-4.002v-.004Zm5.112 7.71 7.492 11.298h5.373L20.706 7.707l-2.685 4.048ZM5.617 23.053l7.492-11.297-2.655-4.003-10.153 15.3h5.316Zm9.946-7.593-5.033 7.593h10.066l-5.033-7.593Zm42.868 3.56h-7.034l-1.163 3.364h-3.72L52.867 4.7h4.123l6.351 17.683h-3.746l-1.163-3.365Zm-.962-2.836-2.557-7.386-2.556 7.386h5.113ZM75.22 4.724V15.65c0 1.197.313 2.111.936 2.745.623.635 1.502.948 2.631.948 1.13 0 2.032-.317 2.655-.948.623-.63.936-1.548.936-2.745V4.724h3.569v10.905c0 1.502-.325 2.771-.975 3.806a6.187 6.187 0 0 1-2.605 2.34c-1.087.522-2.3.786-3.632.786-1.333 0-2.508-.26-3.58-.785a5.938 5.938 0 0 1-2.541-2.341c-.623-1.039-.937-2.307-.937-3.806V4.724h3.542Zm33.447 5.313a4.15 4.15 0 0 0-1.669-1.696c-.71-.389-1.533-.581-2.481-.581-1.046 0-1.975.237-2.783.71-.808.471-1.442 1.147-1.9 2.023-.456.876-.683 1.888-.683 3.036 0 1.148.23 2.21.695 3.085a4.947 4.947 0 0 0 1.933 2.024c.827.472 1.786.71 2.885.71 1.348 0 2.454-.359 3.315-1.076.861-.718 1.424-1.714 1.696-2.998h-6.072v-2.708h9.564v3.085a8.303 8.303 0 0 1-1.517 3.414c-.775 1.046-1.775 1.884-2.999 2.518-1.223.63-2.594.948-4.112.948-1.702 0-3.243-.385-4.618-1.152a8.38 8.38 0 0 1-3.24-3.202c-.785-1.366-1.177-2.918-1.177-4.655s.392-3.293 1.178-4.667a8.333 8.333 0 0 1 3.24-3.214c1.374-.766 2.903-1.151 4.591-1.151 1.99 0 3.719.483 5.184 1.453 1.469.97 2.481 2.334 3.036 4.086h-4.074l.008.008Zm17.679-5.313V15.65c0 1.197.313 2.111.936 2.745.623.635 1.503.948 2.632.948 1.129 0 2.031-.317 2.654-.948.623-.63.937-1.548.937-2.745V4.724h3.568v10.905c0 1.502-.325 2.771-.974 3.806a6.19 6.19 0 0 1-2.606 2.34c-1.087.522-2.299.786-3.632.786-1.333 0-2.507-.26-3.58-.785a5.94 5.94 0 0 1-2.541-2.341c-.623-1.039-.936-2.307-.936-3.806V4.724h3.542Zm23.818 17.203c-.985-.423-1.767-1.027-2.341-1.82-.574-.793-.868-1.73-.883-2.81h3.794c.049.726.306 1.3.771 1.722.464.423 1.098.635 1.91.635.812 0 1.477-.197 1.949-.597.472-.396.71-.914.71-1.555 0-.522-.159-.952-.48-1.292a3.375 3.375 0 0 0-1.201-.797c-.479-.192-1.144-.407-1.986-.645-1.148-.336-2.077-.672-2.794-1a4.893 4.893 0 0 1-1.847-1.492c-.513-.665-.77-1.556-.77-2.67 0-1.046.261-1.956.786-2.734.521-.774 1.257-1.37 2.201-1.782.944-.412 2.024-.62 3.24-.62 1.82 0 3.3.442 4.44 1.33 1.141.883 1.767 2.122 1.884 3.708h-3.896A2.028 2.028 0 0 0 154.88 8c-.479-.396-1.117-.593-1.91-.593-.691 0-1.243.178-1.658.533-.412.355-.619.868-.619 1.544 0 .472.155.865.468 1.178a3.53 3.53 0 0 0 1.163.76c.464.192 1.118.418 1.96.671 1.148.336 2.084.676 2.809 1.012.725.336 1.348.842 1.873 1.518.521.676.785 1.56.785 2.655a5.02 5.02 0 0 1-.732 2.631c-.491.809-1.205 1.454-2.153 1.934-.944.48-2.065.721-3.364.721-1.231 0-2.341-.211-3.326-.634l-.012-.004Zm31.118-17.203v2.858h-4.705V22.38h-3.542V7.582h-4.705V4.724h12.952Z"/></svg>