<svg xmlns="http://www.w3.org/2000/svg" width="64" height="64" fill="none" viewBox="0 0 64 64"><g clip-path="url(#a)"><circle cx="32" cy="32" r="32" fill="#fbfbfb"/><path fill="#0052fe" fill-rule="evenodd" d="M57.778 32a26.1 26.1 0 0 1-7.267 17.853 25.76 25.76 0 0 1-17.482 7.902 25.73 25.73 0 0 1-18.079-6.398A26.07 26.07 0 0 1 6.222 34.18h34.144v-4.36H6.222a26.07 26.07 0 0 1 8.728-17.177 25.73 25.73 0 0 1 18.079-6.398 25.76 25.76 0 0 1 17.482 7.902A26.1 26.1 0 0 1 57.778 32" clip-rule="evenodd"/></g><defs><clipPath id="a"><path fill="#fff" d="M0 0h64v64H0z"/></clipPath></defs></svg>