<svg xmlns="http://www.w3.org/2000/svg" width="257" height="257" fill="none" viewBox="0 0 257 257"><path fill="#0a0b0d" d="M54.205 122.679a10.9 10.9 0 0 1 3.196-7.702 10.84 10.84 0 0 1 7.704-3.165l18.071.059c2.882 0 5.645 1.147 7.682 3.188a10.9 10.9 0 0 1 3.182 7.696v68.455c2.035-.605 4.647-1.25 7.507-1.924a9.04 9.04 0 0 0 5.022-3.195 9.08 9.08 0 0 0 1.956-5.63V95.545a10.9 10.9 0 0 1 3.182-7.696 10.86 10.86 0 0 1 7.682-3.19h18.107a10.85 10.85 0 0 1 7.682 3.19 10.9 10.9 0 0 1 3.182 7.696v78.81s4.534-1.837 8.95-3.705a9.1 9.1 0 0 0 4.025-3.345 9.1 9.1 0 0 0 1.512-5.016V68.336c0-2.886 1.144-5.654 3.181-7.695a10.85 10.85 0 0 1 7.681-3.189h18.107c2.882 0 5.645 1.147 7.682 3.188a10.9 10.9 0 0 1 3.182 7.696v77.368c15.699-11.398 31.608-25.106 44.233-41.589a18.29 18.29 0 0 0 2.774-17.055 128.2 128.2 0 0 0-27.273-45.323 127.9 127.9 0 0 0-43.232-30.414 127.7 127.7 0 0 0-103.367 1.23 127.9 127.9 0 0 0-42.498 31.434A128.2 128.2 0 0 0 7.125 89.946a128.3 128.3 0 0 0-5.416 52.643 128.3 128.3 0 0 0 16.283 50.345 16.16 16.16 0 0 0 15.43 8.009c3.425-.301 7.689-.729 12.759-1.326a9.04 9.04 0 0 0 5.725-2.966 9.07 9.07 0 0 0 2.301-6.031v-67.941"/><path stroke="#fff" d="M54.205 122.679a10.9 10.9 0 0 1 3.196-7.702 10.84 10.84 0 0 1 7.704-3.165l18.071.059c2.882 0 5.645 1.147 7.682 3.188a10.9 10.9 0 0 1 3.182 7.696v68.455c2.035-.605 4.647-1.25 7.507-1.924a9.04 9.04 0 0 0 5.022-3.195 9.08 9.08 0 0 0 1.956-5.63V95.545a10.9 10.9 0 0 1 3.182-7.696 10.86 10.86 0 0 1 7.682-3.19h18.107a10.85 10.85 0 0 1 7.682 3.19 10.9 10.9 0 0 1 3.182 7.696v78.81s4.534-1.837 8.95-3.705a9.1 9.1 0 0 0 4.025-3.345 9.1 9.1 0 0 0 1.512-5.016V68.336c0-2.886 1.144-5.654 3.181-7.695a10.85 10.85 0 0 1 7.681-3.189h18.107c2.882 0 5.645 1.147 7.682 3.188a10.9 10.9 0 0 1 3.182 7.696v77.368c15.699-11.398 31.608-25.106 44.233-41.589a18.29 18.29 0 0 0 2.774-17.055 128.2 128.2 0 0 0-27.273-45.323 127.9 127.9 0 0 0-43.232-30.414 127.7 127.7 0 0 0-103.367 1.23 127.9 127.9 0 0 0-42.498 31.434A128.2 128.2 0 0 0 7.125 89.946a128.3 128.3 0 0 0-5.416 52.643 128.3 128.3 0 0 0 16.283 50.345 16.16 16.16 0 0 0 15.43 8.009c3.425-.301 7.689-.729 12.759-1.326a9.04 9.04 0 0 0 5.725-2.966 9.07 9.07 0 0 0 2.301-6.031v-67.941"/><path fill="#0052ff" d="M53.809 232.475a127.8 127.8 0 0 0 65.172 24.126 127.7 127.7 0 0 0 68.147-13.56 128 128 0 0 0 51.023-47.244 128.33 128.33 0 0 0 18.848-66.996c0-2.95-.136-5.869-.332-8.772-46.744 69.843-133.052 102.494-202.854 112.436"/></svg>