<svg width="519" height="122" viewBox="0 0 519 122" fill="none" xmlns="http://www.w3.org/2000/svg">
<path d="M176.719 35.6C179.708 36.1573 182.166 37.652 184.091 40.084C186.016 42.516 186.979 45.3027 186.979 48.444C186.979 51.2813 186.27 53.7893 184.851 55.968C183.483 58.096 181.482 59.768 178.847 60.984C176.212 62.2 173.096 62.808 169.499 62.808H146.623V9.75998H168.511C172.108 9.75998 175.199 10.3427 177.783 11.508C180.418 12.6733 182.394 14.2947 183.711 16.372C185.079 18.4493 185.763 20.8053 185.763 23.44C185.763 26.5307 184.927 29.1147 183.255 31.192C181.634 33.2693 179.455 34.7387 176.719 35.6ZM157.263 31.648H166.991C169.524 31.648 171.475 31.0907 172.843 29.976C174.211 28.8107 174.895 27.164 174.895 25.036C174.895 22.908 174.211 21.2613 172.843 20.096C171.475 18.9306 169.524 18.348 166.991 18.348H157.263V31.648ZM167.979 54.144C170.563 54.144 172.564 53.536 173.983 52.32C175.452 51.104 176.187 49.3813 176.187 47.152C176.187 44.872 175.427 43.0986 173.907 41.832C172.387 40.5146 170.335 39.856 167.751 39.856H157.263V54.144H167.979Z" fill="black"/>
<path d="M192.723 41.604C192.723 37.348 193.559 33.5733 195.231 30.28C196.954 26.9867 199.259 24.4533 202.147 22.68C205.086 20.9067 208.354 20.02 211.951 20.02C215.092 20.02 217.828 20.6533 220.159 21.92C222.54 23.1866 224.44 24.7827 225.859 26.708V20.704H236.575V62.808H225.859V56.652C224.491 58.628 222.591 60.2747 220.159 61.592C217.778 62.8587 215.016 63.492 211.875 63.492C208.328 63.492 205.086 62.58 202.147 60.756C199.259 58.932 196.954 56.3733 195.231 53.08C193.559 49.736 192.723 45.9107 192.723 41.604ZM225.859 41.756C225.859 39.172 225.352 36.968 224.339 35.144C223.326 33.2693 221.958 31.8506 220.235 30.888C218.512 29.8746 216.663 29.368 214.687 29.368C212.711 29.368 210.887 29.8493 209.215 30.812C207.543 31.7747 206.175 33.1933 205.111 35.068C204.098 36.892 203.591 39.0707 203.591 41.604C203.591 44.1373 204.098 46.3667 205.111 48.292C206.175 50.1667 207.543 51.6107 209.215 52.624C210.938 53.6373 212.762 54.144 214.687 54.144C216.663 54.144 218.512 53.6627 220.235 52.7C221.958 51.6867 223.326 50.268 224.339 48.444C225.352 46.5693 225.859 44.34 225.859 41.756Z" fill="black"/>
<path d="M263.079 63.492C259.633 63.492 256.543 62.884 253.807 61.668C251.071 60.4013 248.892 58.704 247.271 56.576C245.7 54.448 244.839 52.092 244.687 49.508H255.403C255.605 51.1293 256.391 52.472 257.759 53.536C259.177 54.6 260.925 55.132 263.003 55.132C265.029 55.132 266.6 54.7267 267.715 53.916C268.88 53.1053 269.463 52.0667 269.463 50.8C269.463 49.432 268.753 48.4187 267.335 47.76C265.967 47.0506 263.763 46.2907 260.723 45.48C257.581 44.72 254.997 43.9347 252.971 43.124C250.995 42.3133 249.272 41.072 247.803 39.4C246.384 37.728 245.675 35.4733 245.675 32.636C245.675 30.3053 246.333 28.1773 247.651 26.252C249.019 24.3266 250.944 22.8066 253.427 21.692C255.96 20.5773 258.924 20.02 262.319 20.02C267.335 20.02 271.337 21.2867 274.327 23.82C277.316 26.3027 278.963 29.672 279.267 33.928H269.083C268.931 32.256 268.221 30.9387 266.955 29.976C265.739 28.9627 264.092 28.456 262.015 28.456C260.089 28.456 258.595 28.8107 257.531 29.52C256.517 30.2293 256.011 31.2173 256.011 32.484C256.011 33.9027 256.72 34.992 258.139 35.752C259.557 36.4613 261.761 37.196 264.751 37.956C267.791 38.716 270.299 39.5013 272.275 40.312C274.251 41.1227 275.948 42.3893 277.367 44.112C278.836 45.784 279.596 48.0133 279.647 50.8C279.647 53.232 278.963 55.4106 277.595 57.336C276.277 59.2613 274.352 60.7813 271.819 61.896C269.336 62.96 266.423 63.492 263.079 63.492Z" fill="black"/>
<path d="M327.521 40.844C327.521 42.364 327.42 43.732 327.217 44.948H296.437C296.69 47.988 297.754 50.3693 299.629 52.092C301.504 53.8147 303.809 54.676 306.545 54.676C310.497 54.676 313.309 52.9787 314.981 49.584H326.457C325.241 53.6373 322.91 56.9813 319.465 59.616C316.02 62.2 311.789 63.492 306.773 63.492C302.72 63.492 299.072 62.6053 295.829 60.832C292.637 59.008 290.129 56.4493 288.305 53.156C286.532 49.8626 285.645 46.0627 285.645 41.756C285.645 37.3987 286.532 33.5733 288.305 30.28C290.078 26.9867 292.561 24.4533 295.753 22.68C298.945 20.9067 302.618 20.02 306.773 20.02C310.776 20.02 314.348 20.8813 317.489 22.604C320.681 24.3266 323.138 26.784 324.861 29.976C326.634 33.1173 327.521 36.74 327.521 40.844ZM316.501 37.804C316.45 35.068 315.462 32.8893 313.537 31.268C311.612 29.596 309.256 28.76 306.469 28.76C303.834 28.76 301.605 29.5707 299.781 31.192C298.008 32.7627 296.918 34.9667 296.513 37.804H316.501Z" fill="black"/>
<path d="M353.603 63.34C349.904 63.34 346.56 62.7067 343.571 61.44C340.632 60.1733 338.302 58.3493 336.579 55.968C334.856 53.5866 333.97 50.7747 333.919 47.532H345.319C345.471 49.7107 346.231 51.4333 347.599 52.7C349.018 53.9667 350.943 54.6 353.375 54.6C355.858 54.6 357.808 54.0173 359.227 52.852C360.646 51.636 361.355 50.0653 361.355 48.14C361.355 46.5693 360.874 45.2773 359.911 44.264C358.948 43.2507 357.732 42.4653 356.263 41.908C354.844 41.3 352.868 40.6413 350.335 39.932C346.89 38.9186 344.078 37.9307 341.899 36.968C339.771 35.9547 337.922 34.46 336.351 32.484C334.831 30.4573 334.071 27.772 334.071 24.428C334.071 21.2866 334.856 18.5506 336.427 16.22C337.998 13.8893 340.202 12.116 343.039 10.9C345.876 9.63332 349.119 8.99998 352.767 8.99998C358.239 8.99998 362.672 10.3427 366.067 13.028C369.512 15.6626 371.412 19.3613 371.767 24.124H360.063C359.962 22.3 359.176 20.8053 357.707 19.64C356.288 18.424 354.388 17.816 352.007 17.816C349.93 17.816 348.258 18.348 346.991 19.412C345.775 20.476 345.167 22.0213 345.167 24.048C345.167 25.4666 345.623 26.6573 346.535 27.62C347.498 28.532 348.663 29.292 350.031 29.9C351.45 30.4573 353.426 31.116 355.959 31.876C359.404 32.8893 362.216 33.9026 364.395 34.916C366.574 35.9293 368.448 37.4493 370.019 39.476C371.59 41.5027 372.375 44.1627 372.375 47.456C372.375 50.2933 371.64 52.928 370.171 55.36C368.702 57.792 366.548 59.7427 363.711 61.212C360.874 62.6307 357.504 63.34 353.603 63.34Z" fill="black"/>
<path d="M378.864 41.756C378.864 37.3987 379.75 33.5987 381.524 30.356C383.297 27.0627 385.754 24.5293 388.896 22.756C392.037 20.932 395.634 20.02 399.688 20.02C404.906 20.02 409.213 21.3373 412.608 23.972C416.053 26.556 418.358 30.204 419.524 34.916H408.048C407.44 33.092 406.401 31.6733 404.932 30.66C403.513 29.596 401.74 29.064 399.612 29.064C396.572 29.064 394.165 30.1786 392.392 32.408C390.618 34.5866 389.732 37.7027 389.732 41.756C389.732 45.7587 390.618 48.8747 392.392 51.104C394.165 53.2827 396.572 54.372 399.612 54.372C403.918 54.372 406.73 52.4467 408.048 48.596H419.524C418.358 53.156 416.053 56.7787 412.608 59.464C409.162 62.1493 404.856 63.492 399.688 63.492C395.634 63.492 392.037 62.6053 388.896 60.832C385.754 59.008 383.297 56.4746 381.524 53.232C379.75 49.9386 378.864 46.1133 378.864 41.756Z" fill="black"/>
<path d="M424.582 41.604C424.582 37.348 425.418 33.5733 427.09 30.28C428.813 26.9867 431.118 24.4533 434.006 22.68C436.945 20.9067 440.213 20.02 443.81 20.02C446.952 20.02 449.688 20.6533 452.018 21.92C454.4 23.1866 456.3 24.7827 457.718 26.708V20.704H468.434V62.808H457.718V56.652C456.35 58.628 454.45 60.2747 452.018 61.592C449.637 62.8587 446.876 63.492 443.734 63.492C440.188 63.492 436.945 62.58 434.006 60.756C431.118 58.932 428.813 56.3733 427.09 53.08C425.418 49.736 424.582 45.9107 424.582 41.604ZM457.718 41.756C457.718 39.172 457.212 36.968 456.198 35.144C455.185 33.2693 453.817 31.8506 452.094 30.888C450.372 29.8746 448.522 29.368 446.546 29.368C444.57 29.368 442.746 29.8493 441.074 30.812C439.402 31.7747 438.034 33.1933 436.97 35.068C435.957 36.892 435.45 39.0707 435.45 41.604C435.45 44.1373 435.957 46.3667 436.97 48.292C438.034 50.1667 439.402 51.6107 441.074 52.624C442.797 53.6373 444.621 54.144 446.546 54.144C448.522 54.144 450.372 53.6627 452.094 52.7C453.817 51.6867 455.185 50.268 456.198 48.444C457.212 46.5693 457.718 44.34 457.718 41.756Z" fill="black"/>
<path d="M502.158 20.096C507.174 20.096 511.228 21.692 514.318 24.884C517.409 28.0253 518.954 32.4333 518.954 38.108V62.808H508.314V39.552C508.314 36.208 507.478 33.6493 505.806 31.876C504.134 30.052 501.854 29.14 498.966 29.14C496.028 29.14 493.697 30.052 491.974 31.876C490.302 33.6493 489.466 36.208 489.466 39.552V62.808H478.826V20.704H489.466V25.948C490.885 24.124 492.684 22.7053 494.862 21.692C497.092 20.628 499.524 20.096 502.158 20.096Z" fill="black"/>
<path d="M158.848 103.964H150.726L149.424 107.808H143.875L151.749 86.046H157.887L165.761 107.808H160.15L158.848 103.964ZM157.484 99.872L154.787 91.905L152.121 99.872H157.484Z" fill="#414549"/>
<path d="M182.601 108.025C181.009 108.025 179.583 107.767 178.323 107.25C177.062 106.733 176.049 105.969 175.285 104.956C174.541 103.943 174.148 102.724 174.107 101.298H179.749C179.831 102.104 180.11 102.724 180.586 103.158C181.061 103.571 181.681 103.778 182.446 103.778C183.231 103.778 183.851 103.602 184.306 103.251C184.76 102.879 184.988 102.373 184.988 101.732C184.988 101.195 184.802 100.75 184.43 100.399C184.078 100.048 183.634 99.7583 183.097 99.531C182.58 99.3037 181.836 99.0453 180.865 98.756C179.459 98.322 178.312 97.888 177.424 97.454C176.535 97.02 175.77 96.3793 175.13 95.532C174.489 94.6847 174.169 93.579 174.169 92.215C174.169 90.1897 174.902 88.6087 176.37 87.472C177.837 86.3147 179.749 85.736 182.105 85.736C184.502 85.736 186.434 86.3147 187.902 87.472C189.369 88.6087 190.154 90.2 190.258 92.246H184.523C184.481 91.5433 184.223 90.9957 183.748 90.603C183.272 90.1897 182.663 89.983 181.919 89.983C181.278 89.983 180.761 90.1587 180.369 90.51C179.976 90.8407 179.78 91.3263 179.78 91.967C179.78 92.6697 180.11 93.2173 180.772 93.61C181.433 94.0027 182.466 94.4263 183.872 94.881C185.277 95.3563 186.414 95.811 187.282 96.245C188.17 96.679 188.935 97.3093 189.576 98.136C190.216 98.9627 190.537 100.027 190.537 101.329C190.537 102.569 190.216 103.695 189.576 104.708C188.956 105.721 188.046 106.527 186.848 107.126C185.649 107.725 184.233 108.025 182.601 108.025Z" fill="#414549"/>
<path d="M192.745 99.159C192.745 97.361 193.107 95.7903 193.83 94.447C194.574 93.1037 195.597 92.0703 196.899 91.347C198.222 90.6237 199.73 90.262 201.425 90.262C203.595 90.262 205.403 90.8303 206.85 91.967C208.317 93.1037 209.278 94.7053 209.733 96.772H204.091C203.616 95.4493 202.696 94.788 201.332 94.788C200.361 94.788 199.586 95.1703 199.007 95.935C198.428 96.679 198.139 97.7537 198.139 99.159C198.139 100.564 198.428 101.649 199.007 102.414C199.586 103.158 200.361 103.53 201.332 103.53C202.696 103.53 203.616 102.869 204.091 101.546H209.733C209.278 103.571 208.317 105.163 206.85 106.32C205.383 107.477 203.574 108.056 201.425 108.056C199.73 108.056 198.222 107.694 196.899 106.971C195.597 106.248 194.574 105.214 193.83 103.871C193.107 102.528 192.745 100.957 192.745 99.159Z" fill="#414549"/>
<path d="M211.515 99.128C211.515 97.3507 211.845 95.7903 212.507 94.447C213.189 93.1037 214.108 92.0703 215.266 91.347C216.423 90.6237 217.715 90.262 219.141 90.262C220.36 90.262 221.424 90.51 222.334 91.006C223.264 91.502 223.977 92.153 224.473 92.959V90.51H229.774V107.808H224.473V105.359C223.956 106.165 223.233 106.816 222.303 107.312C221.393 107.808 220.329 108.056 219.11 108.056C217.704 108.056 216.423 107.694 215.266 106.971C214.108 106.227 213.189 105.183 212.507 103.84C211.845 102.476 211.515 100.905 211.515 99.128ZM224.473 99.159C224.473 97.8363 224.101 96.7927 223.357 96.028C222.633 95.2633 221.745 94.881 220.691 94.881C219.637 94.881 218.738 95.2633 217.994 96.028C217.27 96.772 216.909 97.8053 216.909 99.128C216.909 100.451 217.27 101.505 217.994 102.29C218.738 103.055 219.637 103.437 220.691 103.437C221.745 103.437 222.633 103.055 223.357 102.29C224.101 101.525 224.473 100.482 224.473 99.159Z" fill="#414549"/>
<path d="M244.149 90.324C246.174 90.324 247.786 90.9853 248.985 92.308C250.204 93.61 250.814 95.408 250.814 97.702V107.808H245.544V98.415C245.544 97.2577 245.244 96.3587 244.645 95.718C244.045 95.0773 243.239 94.757 242.227 94.757C241.214 94.757 240.408 95.0773 239.809 95.718C239.209 96.3587 238.91 97.2577 238.91 98.415V107.808H233.609V90.51H238.91V92.804C239.447 92.0393 240.17 91.44 241.08 91.006C241.989 90.5513 243.012 90.324 244.149 90.324Z" fill="#414549"/>
<path d="M271.359 108.025C269.313 108.025 267.432 107.55 265.717 106.599C264.022 105.648 262.668 104.326 261.656 102.631C260.664 100.916 260.168 98.9937 260.168 96.865C260.168 94.7363 260.664 92.8247 261.656 91.13C262.668 89.4353 264.022 88.1127 265.717 87.162C267.432 86.2113 269.313 85.736 271.359 85.736C273.405 85.736 275.275 86.2113 276.97 87.162C278.685 88.1127 280.028 89.4353 281 91.13C281.992 92.8247 282.488 94.7363 282.488 96.865C282.488 98.9937 281.992 100.916 281 102.631C280.008 104.326 278.664 105.648 276.97 106.599C275.275 107.55 273.405 108.025 271.359 108.025ZM271.359 103.189C273.095 103.189 274.479 102.61 275.513 101.453C276.567 100.296 277.094 98.7663 277.094 96.865C277.094 94.943 276.567 93.4137 275.513 92.277C274.479 91.1197 273.095 90.541 271.359 90.541C269.602 90.541 268.197 91.1093 267.143 92.246C266.109 93.3827 265.593 94.9223 265.593 96.865C265.593 98.787 266.109 100.327 267.143 101.484C268.197 102.621 269.602 103.189 271.359 103.189Z" fill="#414549"/>
<path d="M290.738 93.393C291.358 92.4423 292.133 91.6983 293.063 91.161C293.993 90.603 295.026 90.324 296.163 90.324V95.935H294.706C293.383 95.935 292.391 96.2243 291.73 96.803C291.068 97.361 290.738 98.353 290.738 99.779V107.808H285.437V90.51H290.738V93.393Z" fill="#414549"/>
<path d="M301.363 88.712C300.433 88.712 299.668 88.4433 299.069 87.906C298.49 87.348 298.201 86.666 298.201 85.86C298.201 85.0333 298.49 84.3513 299.069 83.814C299.668 83.256 300.433 82.977 301.363 82.977C302.272 82.977 303.016 83.256 303.595 83.814C304.194 84.3513 304.494 85.0333 304.494 85.86C304.494 86.666 304.194 87.348 303.595 87.906C303.016 88.4433 302.272 88.712 301.363 88.712ZM303.998 90.51V107.808H298.697V90.51H303.998Z" fill="#414549"/>
<path d="M314.411 90.262C315.63 90.262 316.695 90.51 317.604 91.006C318.534 91.502 319.247 92.153 319.743 92.959V90.51H325.044V107.777C325.044 109.368 324.724 110.805 324.083 112.086C323.463 113.388 322.502 114.421 321.2 115.186C319.919 115.951 318.317 116.333 316.395 116.333C313.832 116.333 311.755 115.723 310.164 114.504C308.573 113.305 307.663 111.673 307.436 109.606H312.675C312.84 110.267 313.233 110.784 313.853 111.156C314.473 111.549 315.238 111.745 316.147 111.745C317.242 111.745 318.11 111.425 318.751 110.784C319.412 110.164 319.743 109.162 319.743 107.777V105.328C319.226 106.134 318.513 106.795 317.604 107.312C316.695 107.808 315.63 108.056 314.411 108.056C312.985 108.056 311.693 107.694 310.536 106.971C309.379 106.227 308.459 105.183 307.777 103.84C307.116 102.476 306.785 100.905 306.785 99.128C306.785 97.3507 307.116 95.7903 307.777 94.447C308.459 93.1037 309.379 92.0703 310.536 91.347C311.693 90.6237 312.985 90.262 314.411 90.262ZM319.743 99.159C319.743 97.8363 319.371 96.7927 318.627 96.028C317.904 95.2633 317.015 94.881 315.961 94.881C314.907 94.881 314.008 95.2633 313.264 96.028C312.541 96.772 312.179 97.8053 312.179 99.128C312.179 100.451 312.541 101.505 313.264 102.29C314.008 103.055 314.907 103.437 315.961 103.437C317.015 103.437 317.904 103.055 318.627 102.29C319.371 101.525 319.743 100.482 319.743 99.159Z" fill="#414549"/>
<path d="M331.545 88.712C330.615 88.712 329.85 88.4433 329.251 87.906C328.672 87.348 328.383 86.666 328.383 85.86C328.383 85.0333 328.672 84.3513 329.251 83.814C329.85 83.256 330.615 82.977 331.545 82.977C332.454 82.977 333.198 83.256 333.777 83.814C334.376 84.3513 334.676 85.0333 334.676 85.86C334.676 86.666 334.376 87.348 333.777 87.906C333.198 88.4433 332.454 88.712 331.545 88.712ZM334.18 90.51V107.808H328.879V90.51H334.18Z" fill="#414549"/>
<path d="M348.562 90.324C350.587 90.324 352.199 90.9853 353.398 92.308C354.617 93.61 355.227 95.408 355.227 97.702V107.808H349.957V98.415C349.957 97.2577 349.657 96.3587 349.058 95.718C348.458 95.0773 347.652 94.757 346.64 94.757C345.627 94.757 344.821 95.0773 344.222 95.718C343.622 96.3587 343.323 97.2577 343.323 98.415V107.808H338.022V90.51H343.323V92.804C343.86 92.0393 344.583 91.44 345.493 91.006C346.402 90.5513 347.425 90.324 348.562 90.324Z" fill="#414549"/>
<path d="M357.856 99.128C357.856 97.3507 358.187 95.7903 358.848 94.447C359.53 93.1037 360.45 92.0703 361.607 91.347C362.765 90.6237 364.056 90.262 365.482 90.262C366.702 90.262 367.766 90.51 368.675 91.006C369.605 91.502 370.318 92.153 370.814 92.959V90.51H376.115V107.808H370.814V105.359C370.298 106.165 369.574 106.816 368.644 107.312C367.735 107.808 366.671 108.056 365.451 108.056C364.046 108.056 362.765 107.694 361.607 106.971C360.45 106.227 359.53 105.183 358.848 103.84C358.187 102.476 357.856 100.905 357.856 99.128ZM370.814 99.159C370.814 97.8363 370.442 96.7927 369.698 96.028C368.975 95.2633 368.086 94.881 367.032 94.881C365.978 94.881 365.079 95.2633 364.335 96.028C363.612 96.772 363.25 97.8053 363.25 99.128C363.25 100.451 363.612 101.505 364.335 102.29C365.079 103.055 365.978 103.437 367.032 103.437C368.086 103.437 368.975 103.055 369.698 102.29C370.442 101.525 370.814 100.482 370.814 99.159Z" fill="#414549"/>
<path d="M385.251 84.868V107.808H379.95V84.868H385.251Z" fill="#414549"/>
<path d="M25.2228 57.583C25.2229 56.9056 25.3568 56.2348 25.6169 55.6093C25.877 54.9837 26.258 54.4157 26.7382 53.9378C27.2184 53.4599 27.7883 53.0816 28.4151 52.8246C29.0419 52.5676 29.7133 52.4369 30.3908 52.44L38.9588 52.468C40.3249 52.468 41.6351 53.0107 42.6011 53.9767C43.5671 54.9427 44.1098 56.2529 44.1098 57.619V90.0191C45.0748 89.7331 46.3098 89.428 47.6688 89.108C48.6103 88.8865 49.4494 88.3535 50.05 87.5953C50.6506 86.8371 50.9776 85.8983 50.9778 84.931V44.744C50.9778 43.3778 51.5204 42.0675 52.4864 41.1014C53.4524 40.1352 54.7626 39.5923 56.1288 39.592H64.7228C66.089 39.5923 67.3992 40.1352 68.3651 41.1014C69.3311 42.0675 69.8738 43.3778 69.8738 44.744V82.044C69.8738 82.044 72.0238 81.174 74.1168 80.29C74.8945 79.9611 75.5582 79.4104 76.025 78.7067C76.4918 78.003 76.7411 77.1775 76.7418 76.333V31.866C76.7418 30.5001 77.2843 29.1901 78.2501 28.2241C79.2159 27.2581 80.5258 26.7153 81.8918 26.715H90.4768C91.842 26.7164 93.1509 27.2596 94.1158 28.2255C95.0808 29.1914 95.6228 30.5008 95.6228 31.866V68.483C103.066 63.089 110.609 56.601 116.595 48.8C117.463 47.6677 118.038 46.338 118.268 44.9295C118.497 43.521 118.375 42.0776 117.911 40.728C115.14 32.7562 110.735 25.4505 104.979 19.2786C99.2225 13.1067 92.241 8.20438 84.4813 4.88543C76.7216 1.56649 68.3544 -0.0960273 59.9153 0.00428347C51.4762 0.104594 43.1509 1.96552 35.4723 5.46797C27.7936 8.97042 20.9307 14.0373 15.3226 20.3443C9.71457 26.6513 5.48488 34.0596 2.90423 42.0951C0.323578 50.1305 -0.551199 58.6163 0.33587 67.0093C1.22294 75.4022 3.85232 83.5176 8.05576 90.836C8.7881 92.0985 9.86553 93.1258 11.1615 93.7972C12.4574 94.4685 13.918 94.7561 15.3718 94.626C16.9958 94.483 19.0178 94.281 21.4218 93.999C22.468 93.88 23.434 93.3803 24.1356 92.5951C24.8373 91.8099 25.2257 90.7941 25.2268 89.741V57.583" fill="#12161C"/>
<path d="M25.04 109.544C34.0892 116.127 44.7832 120.079 55.9388 120.961C67.0944 121.844 78.2767 119.623 88.2486 114.545C98.2205 109.467 106.593 101.729 112.44 92.1878C118.287 82.6465 121.381 71.6735 121.379 60.4831C121.379 59.0831 121.314 57.7051 121.221 56.3311C99.058 89.3861 58.136 104.839 25.04 109.544Z" fill="#0052FF"/>
</svg>
