<svg aria-label="Bastion" viewBox="0 0 161 30" fill="none" xmlns="http://www.w3.org/2000/svg"><g clip-path="url(#bastion_clip0)"><path d="M5.96518 1.44434H19.9027C21.7762 1.44434 23.3205 1.95141 24.5359 2.96557C25.751 3.97974 26.3587 5.37096 26.3587 7.13925C26.3587 7.78935 26.2827 8.42645 26.1309 9.05056C25.7257 10.7408 25.1434 12.054 24.3839 12.9902C23.6243 13.9263 22.5357 14.5895 21.1179 14.9795C22.1813 15.1876 22.9915 15.7206 23.5484 16.5787C24.1307 17.4368 24.4219 18.5291 24.4219 19.8552C24.4219 20.6093 24.3206 21.4286 24.1181 22.3127C23.7637 23.873 23.2066 25.1211 22.4471 26.0572C21.6876 26.9675 20.6369 27.6435 19.295 28.0856C17.9532 28.5277 16.2063 28.7487 14.0542 28.7487H0.306641L5.96518 1.44434ZM16.4468 11.976C17.2569 11.976 17.8772 11.742 18.3076 11.2739C18.7633 10.7798 18.9912 10.1167 18.9912 9.28459C18.9912 8.79051 18.814 8.38745 18.4596 8.0754C18.1304 7.76335 17.6494 7.60732 17.0164 7.60732H12.0035L11.13 11.976H16.4468ZM14.8518 22.2737C15.6872 22.2737 16.3075 21.9876 16.7126 21.4156C17.143 20.8435 17.3582 20.0893 17.3582 19.1532C17.3582 18.165 16.8392 17.671 15.8011 17.671H9.91476L8.96535 22.2737H14.8518Z" fill="#000000"/><path d="M37.1915 1.44531H46.9136L50.1416 28.7497H42.2804L41.7867 23.2888H32.9761L30.2418 28.7497H22.7224L37.1915 1.44531ZM41.331 17.5939L40.7993 11.743C40.7234 11.0408 40.6854 10.2217 40.6854 9.28556C40.6854 8.40143 40.774 7.33525 40.9512 6.08705C40.6474 7.20524 40.3182 8.19339 39.9638 9.05154C39.7106 9.67563 39.3182 10.5338 38.7865 11.626L35.7863 17.5939H41.331Z" fill="#000000"/><path d="M61.1587 29.0613C57.8168 29.0613 55.3737 28.5803 53.8293 27.618C52.2849 26.6299 51.5127 25.0436 51.5127 22.8593C51.5127 22.1051 51.6139 21.208 51.8165 20.1679H59.0321C59.0068 20.2979 58.994 20.4799 58.994 20.714C58.994 21.364 59.2852 21.8451 59.8676 22.1571C60.4751 22.4433 61.4752 22.5863 62.8678 22.5863C63.9057 22.5863 64.7159 22.5083 65.2982 22.3523C65.8806 22.1701 66.3236 21.8451 66.6275 21.377C66.8047 21.117 66.9439 20.792 67.0451 20.4019C67.1717 20.0119 67.235 19.6348 67.235 19.2708C67.235 18.6206 66.9439 18.1655 66.3615 17.9055C65.7792 17.6455 64.8045 17.4894 63.4373 17.4374C60.4498 17.2814 58.1712 16.6963 56.6015 15.6821C55.0571 14.668 54.2849 13.0948 54.2849 10.9624C54.2849 10.4163 54.3735 9.66218 54.5508 8.70003C54.9812 6.6457 55.6901 5.07244 56.6774 3.98026C57.6649 2.88809 58.9687 2.14698 60.5891 1.75691C62.2095 1.34085 64.3362 1.13281 66.9692 1.13281C69.9567 1.13281 72.2353 1.58789 73.805 2.49803C75.3747 3.40818 76.1596 4.98143 76.1596 7.21779C76.1596 7.99791 76.071 8.80404 75.8938 9.63618H68.6781C68.7541 9.24611 68.792 8.89506 68.792 8.583C68.792 8.11493 68.6781 7.76388 68.4503 7.52984C68.2478 7.2698 67.8806 7.08776 67.3489 6.98375C66.8173 6.87974 66.0451 6.82773 65.0323 6.82773C64.0196 6.82773 63.1968 7.07476 62.5639 7.56884C61.9562 8.03691 61.6524 8.72603 61.6524 9.63618C61.6524 10.1823 61.8803 10.5983 62.336 10.8844C62.7918 11.1444 63.5133 11.3265 64.5007 11.4305L67.7287 11.7425C70.058 11.9766 71.8049 12.5746 72.9695 13.5368C74.1594 14.473 74.7544 15.8381 74.7544 17.6325C74.7544 18.4126 74.6405 19.2968 74.4127 20.2849C73.8303 22.6773 73.1341 24.4715 72.3239 25.6678C71.5391 26.8639 70.2984 27.7351 68.6022 28.2811C66.9059 28.8013 64.4248 29.0613 61.1587 29.0613Z" fill="#000000"/><path d="M84.1364 8.38843H77.6425L79.0856 1.44531H99.517L98.074 8.38843H91.5039L87.2885 28.7497H79.9211L84.1364 8.38843Z" fill="#000000"/><path d="M101.092 1.44531H108.46L102.763 28.7497H95.3958L101.092 1.44531Z" fill="#000000"/><path d="M116.396 29.0613C113.383 29.0613 111.016 28.3851 109.294 27.033C107.598 25.6808 106.75 23.6784 106.75 21.026C106.75 20.2199 106.851 19.2708 107.054 18.1785L108.307 12.0156C108.864 9.25911 109.661 7.10076 110.699 5.54051C111.763 3.98026 113.206 2.86209 115.029 2.18598C116.852 1.48386 119.244 1.13281 122.206 1.13281C125.32 1.13281 127.713 1.79592 129.384 3.12213C131.08 4.42234 131.929 6.37265 131.929 8.97306C131.929 9.90921 131.814 10.9234 131.587 12.0156L130.333 18.1785C129.751 21.013 128.953 23.2104 127.94 24.7706C126.928 26.3049 125.524 27.41 123.726 28.0861C121.928 28.7363 119.485 29.0613 116.396 29.0613ZM117.839 22.1181C119.383 22.1181 120.535 21.8321 121.295 21.26C122.079 20.662 122.611 19.7128 122.89 18.4126L124.296 11.7815C124.371 11.4175 124.409 11.0144 124.409 10.5723C124.409 9.71419 124.118 9.09009 123.536 8.70003C122.979 8.28396 122.055 8.07593 120.763 8.07593C119.219 8.07593 118.054 8.37498 117.269 8.97306C116.485 9.54516 115.953 10.4813 115.674 11.7815L114.269 18.4126C114.168 18.9846 114.117 19.3878 114.117 19.6218C114.117 20.4799 114.408 21.117 114.991 21.5331C115.598 21.9231 116.548 22.1181 117.839 22.1181Z" fill="#000000"/><path d="M135.805 1.44531H145.374L148.793 16.3067C149.071 17.4768 149.286 18.5561 149.438 19.5442C149.59 20.5063 149.768 21.9106 149.97 23.7568C149.894 22.2227 149.856 20.9615 149.856 19.9733C149.856 18.3351 149.995 16.8528 150.274 15.5266L153.198 1.44531H160.565L154.907 28.7497H145.261L141.881 14.0833C141.653 13.1732 141.476 12.224 141.349 11.2359C141.223 10.2217 141.071 8.70047 140.893 6.67215C140.919 7.19224 140.931 7.98536 140.931 9.05154C140.931 10.3257 140.893 11.3919 140.818 12.25C140.741 13.0822 140.602 13.9533 140.4 14.8635L137.513 28.7497H130.146L135.805 1.44531Z" fill="#000000"/></g><defs><clipPath id="bastion_clip0"><rect width="160.645" height="30" fill="white"/></clipPath></defs></svg>
