<svg xmlns="http://www.w3.org/2000/svg" width="46" height="47" fill="none" viewBox="0 0 46 47"><circle cx="23" cy="23" r="23" fill="#000"/><path fill="#fff" d="M23 2.459a20.412 20.412 0 0 1 11.486 3.515 20.614 20.614 0 0 1 7.446 9.058 20.5 20.5 0 0 1 1.614 8.01 20.47 20.47 0 0 1-3.508 11.508 20.588 20.588 0 0 1-9.041 7.46A20.4 20.4 0 0 1 23 43.627a20.409 20.409 0 0 1-11.485-3.515 20.613 20.613 0 0 1-7.446-9.058 20.5 20.5 0 0 1-1.615-8.011 20.47 20.47 0 0 1 3.508-11.507 20.593 20.593 0 0 1 9.041-7.46A20.4 20.4 0 0 1 23 2.459M23 0C10.296 0 0 10.315 0 23.043s10.296 23.043 23 23.043S46 35.77 46 23.043 35.702 0 23 0"/><path fill="#fff" d="M16.02 14.21v-1.699c0-1.373.897-2.492 2.249-2.729 1.02-.181 1.966.01 2.716.793.493.513.748 1.134.758 1.845.01.59 0 1.182 0 1.781h3.103c0-.036.005-.075.005-.116v-1.612a2.737 2.737 0 0 1 2.731-2.747c.526-.004 1.035.046 1.503.3.96.522 1.463 1.335 1.49 2.427.014.578.002 1.156.002 1.753h4.032c.753 0 1.252.503 1.32 1.255.058.643-.107 1.23-.319 1.818-.22.609-.533 1.18-.934 1.687-.316.401-.67.776-1.035 1.136-.473.464-.97.904-1.465 1.35-.27.24-.511.504-.666.835a.8.8 0 0 0-.082.308c-.004 2.475.005 4.95-.007 7.426-.014 2.976-2.21 5.628-5.125 6.193a7.6 7.6 0 0 1-1.365.133c-1.282.017-2.563.008-3.844.005-3.127 0-5.748-2.137-6.36-5.205a7 7 0 0 1-.119-1.288c-.012-2.413-.005-4.825-.007-7.236a.5.5 0 0 0-.049-.217c-.195-.455-.54-.788-.9-1.115q-.727-.66-1.44-1.334c-.555-.524-1.05-1.1-1.412-1.777-.405-.759-.75-1.547-.75-2.434q0-.3.065-.595a1.24 1.24 0 0 1 1.216-.945h4.684zm4.456 2.732h-4.932c-.316 0-.588.213-.63.525a1.7 1.7 0 0 0 .008.542c.108.553.35 1.054.733 1.465.384.41.804.776 1.192 1.174.295.3.483.658.483 1.1q-.005 4.055 0 8.108-.002.287.036.57a3.71 3.71 0 0 0 3.699 3.197h3.858q.287.001.572-.034a3.72 3.72 0 0 0 3.207-3.68c0-.449-.005-.901.002-1.35 0-.105-.029-.148-.13-.18a11.4 11.4 0 0 1-2.698-1.228c-1.935-1.203-3.419-2.818-4.379-4.9-.461-.998-.777-2.04-.888-3.135-.072-.718-.087-1.441-.13-2.178zm8.035 7.248a1.226 1.226 0 0 0-1.206-1.24 1.226 1.226 0 0 0-.032 2.451h.003c.673.01 1.226-.53 1.233-1.204v-.007z"/><path fill="#fff" d="M20.959 24.18a1.224 1.224 0 0 1-1.226 1.22 1.224 1.224 0 0 1-1.219-1.23 1.225 1.225 0 0 1 1.228-1.22h.005c.673 0 1.216.55 1.214 1.222v.005z"/></svg>