<svg xmlns="http://www.w3.org/2000/svg" width="476" height="152" fill="none" viewBox="0 0 476 152"><path fill="#000" d="M242 44a6 6 0 0 0-6 6v10h18l-4 12h-14v48h-12V50c0-9.941 8.059-18 18-18h14l-4 12z"/><path fill="#000" fill-rule="evenodd" d="M128 36h30c13.255 0 24 10.745 24 24a23.93 23.93 0 0 1-7.181 17.12C180.41 81.516 184 88.339 184 96c0 13.255-10.745 24-24 24h-32zm12 12h18c6.627 0 12 5.373 12 12s-5.373 12-12 12h-18zm0 36v24h20c6.627 0 12-5.373 12-12s-5.373-12-12-12z" clip-rule="evenodd"/><path fill="#000" d="M208 36h-12v12h12zM208 60h-12v60h12zM264 60v60h12V72h16l4-12z"/><path fill="#000" fill-rule="evenodd" d="M352 89.5c0 16.845-9.643 30.5-27 30.5s-27-13.655-27-30.5S307.643 59 325 59s27 13.655 27 30.5m-12 0c0 6.243-1.792 10.971-4.225 13.903C333.55 106.085 330.229 108 325 108s-8.55-1.915-10.775-4.597C311.792 100.471 310 95.743 310 89.5s1.792-10.97 4.225-13.903C316.45 72.915 319.771 71 325 71s8.55 1.915 10.775 4.597C338.208 78.529 340 83.257 340 89.5" clip-rule="evenodd"/><path fill="#000" d="M396.01 78.245a6.4 6.4 0 0 0-.691-2.435 10.4 10.4 0 0 0-1.666-2.522 11.5 11.5 0 0 0-5.238-3.282 15 15 0 0 0-3.302-.585 22.3 22.3 0 0 0-3.68.088 11.9 11.9 0 0 0-5.872 2.065 5.6 5.6 0 0 0-1.451 1.675 4.9 4.9 0 0 0-.575 1.811q.007.093 0 .185v.234q-.015.278 0 .555.04.451.195.877a4.4 4.4 0 0 0 1.062 1.567 16.7 16.7 0 0 0 5.754 3.263c1.218.438 2.503.818 3.827 1.169l.974.243 1.071.253c.77.166 1.539.341 2.318.536 1.548.38 3.116.808 4.732 1.324a33.6 33.6 0 0 1 4.976 1.948 19.5 19.5 0 0 1 5.113 3.604 14.6 14.6 0 0 1 3.651 6.067 16.5 16.5 0 0 1 .682 3.292 17.2 17.2 0 0 1 .058 3.282 16.1 16.1 0 0 1-2.025 6.525 17.5 17.5 0 0 1-4.256 4.986 20.6 20.6 0 0 1-5.307 3.048 31.5 31.5 0 0 1-10.711 1.948 28.7 28.7 0 0 1-10.828-1.558 23.17 23.17 0 0 1-9.611-6.594 24.6 24.6 0 0 1-3.262-4.869A22.8 22.8 0 0 1 360 101.17l11.228-1.763a9.7 9.7 0 0 0 .759 2.766 11.5 11.5 0 0 0 6.563 6.243 17.7 17.7 0 0 0 6.817 1.022 17.7 17.7 0 0 0 6.816-1.392 7.66 7.66 0 0 0 3.895-3.429 5.3 5.3 0 0 0 .575-2.015q.035-.599 0-1.198a6 6 0 0 0-.205-1.111 4 4 0 0 0-.896-1.597 8.3 8.3 0 0 0-2.162-1.616 31.4 31.4 0 0 0-7.235-2.63l-2.054-.506-1.13-.254-1.178-.272a55 55 0 0 1-4.801-1.373 36 36 0 0 1-4.917-1.948 21.7 21.7 0 0 1-4.966-3.36 15 15 0 0 1-4.012-5.853 14.8 14.8 0 0 1-.838-3.487 14 14 0 0 1-.117-1.684v-.896c0-.331 0-.633.078-.974a14.96 14.96 0 0 1 2.386-6.564 16.2 16.2 0 0 1 4.781-4.714 23.8 23.8 0 0 1 11.043-3.408 37 37 0 0 1 5.316-.107c1.875.108 3.733.418 5.541.925a23.3 23.3 0 0 1 10.108 5.746 23.7 23.7 0 0 1 3.71 4.655 19.9 19.9 0 0 1 2.425 5.96zM418 102V48h12v12h14v12h-14v30a6 6 0 0 0 6 6h8v12h-8c-9.941 0-18-8.059-18-18"/><path fill="url(#a)" d="M72 120H32l60-60h20z"/><defs><linearGradient id="a" x1="72" x2="72" y1="60" y2="120" gradientUnits="userSpaceOnUse"><stop stop-color="#12d5d5"/><stop offset=".201" stop-color="#0bb0f8"/><stop offset=".403" stop-color="#4584f5"/><stop offset=".602" stop-color="#ac57c0"/><stop offset=".802" stop-color="#e65659"/><stop offset="1" stop-color="#ffbf12"/></linearGradient></defs></svg>