<svg xmlns="http://www.w3.org/2000/svg" width="90" height="31" fill="none" viewBox="0 0 90 31"><path fill="#23272e" d="M36.468 23.376q1.483 0 2.576-.326 1.093-.327 1.81-.935a3.8 3.8 0 0 0 1.069-1.466q.351-.857.351-1.919 0-1.267-.51-2.26t-1.55-1.617q.905-1.091.905-2.542 0-.886-.352-1.651a3.5 3.5 0 0 0-1.073-1.32q-.723-.554-1.815-.872-1.093-.316-2.566-.316h-8.04v15.224zm.79-9.35q-.376-.03-.77-.03h-6.163V10.87h5.065q1.232 0 1.872.453.64.454.64 1.281 0 .8-.644 1.422m-.713 6.662h-6.22v-4.11h6.22q1.233 0 1.873.545t.64 1.52-.64 1.51-1.873.535m8.881-10.374a2.3 2.3 0 0 0 .775-.122q.342-.12.583-.33t.37-.488q.13-.277.13-.59a1.4 1.4 0 0 0-.5-1.08 1.9 1.9 0 0 0-.583-.327 2.3 2.3 0 0 0-.775-.121q-.423 0-.766.121-.34.122-.582.327-.24.204-.37.482t-.13.599q0 .311.13.59.13.277.37.486.24.21.582.331.343.123.766.122m1.425 13.062V11.882h-2.85v11.494zm14.725 0v-2.708h-8.752V8.152h-3.052v15.224zm3.018-13.062a2.3 2.3 0 0 0 .775-.122q.341-.12.582-.33t.37-.488q.13-.277.13-.59a1.4 1.4 0 0 0-.5-1.08 1.9 1.9 0 0 0-.582-.327 2.3 2.3 0 0 0-.775-.121q-.424 0-.766.121-.342.122-.583.327-.24.204-.37.482t-.13.599q0 .311.13.59.13.277.37.486.241.21.583.331.342.123.766.122m1.425 13.062V11.882h-2.85v11.494zm5.414 0v-6.838a5.2 5.2 0 0 1 2.027-1.631q1.247-.58 2.893-.745l-.837-2.64q-1.04.273-2.09.789t-1.993 1.227v-1.656h-2.85v11.494zm10.787.205q.79 0 1.498-.102.707-.103 1.324-.278.615-.175 1.14-.41.525-.232.968-.496v1.081H90V18.37q0-3.4-1.55-5.046t-4.737-1.646q-.723 0-1.493.078t-1.54.219a20 20 0 0 0-1.507.336q-.737.195-1.382.429l.867 2.367q.519-.244 1.122-.42.6-.175 1.218-.291.615-.118 1.194-.176.578-.058 1.059-.058.885 0 1.584.185.698.185 1.194.52.495.337.775.8.279.462.327 1.008a20 20 0 0 0-2.393-.478 17 17 0 0 0-2.21-.155q-1.415 0-2.479.267-1.064.268-1.776.76t-1.069 1.174a3.2 3.2 0 0 0-.356 1.51q0 .818.342 1.514t1.015 1.213 1.68.809q1.007.291 2.335.292m.25-2.484q-.702 0-1.198-.122a2.8 2.8 0 0 1-.814-.321 1.3 1.3 0 0 1-.462-.458 1.1 1.1 0 0 1-.144-.54q0-.264.135-.507.135-.244.462-.424t.857-.287a7 7 0 0 1 1.329-.107 16 16 0 0 1 1.997.131 18 18 0 0 1 2.518.512v.506q-.326.312-.818.604a6.7 6.7 0 0 1-1.098.516q-.606.225-1.31.36-.703.137-1.453.137"/><path fill="url(#a)" fill-rule="evenodd" d="m0 0 3.525.946v26.131c6.792-.924 10.354-5.074 11.05-12.846l.02-.237-7.592-2.082V8.284l11.178 3.065v1.838a22 22 0 0 1-.138 1.753c-.9 8.391-4.902 12.518-9.52 14.408Q4.096 30.917 0 30.832zm7 1.868 8.249 2.212v3.666l-8.25-2.334z" clip-rule="evenodd"/><defs><linearGradient id="a" x1="0" x2="26.983" y1="0" y2="15.91" gradientUnits="userSpaceOnUse"><stop stop-color="#bae1eb"/><stop offset=".548" stop-color="#6061e6"/><stop offset="1" stop-color="#006bff"/></linearGradient></defs></svg>