<svg xmlns="http://www.w3.org/2000/svg" width="110" height="38" fill="none"><path fill="#F3F5F0" d="M44.807 28.532c1.219 0 2.194-.122 3.17-.366.854-.244 1.585-.61 2.195-1.097.61-.488.975-1.097 1.341-1.829.244-.732.488-1.463.488-2.317 0-.853-.244-1.95-.61-2.804-.366-.854-1.097-1.463-1.95-1.951.73-.854 1.097-1.951 1.097-3.048 0-1.098-.122-1.342-.488-2.073-.244-.61-.732-1.098-1.341-1.586-.61-.487-1.342-.853-2.195-1.097-.854-.244-1.951-.366-3.17-.366h-9.755v18.534h11.218Zm.975-11.462h-8.535v-3.78h6.218c.976 0 1.707.244 2.317.61.488.366.732.854.732 1.585 0 .732-.244 1.22-.732 1.707v-.122Zm-.975 8.17h-7.56v-5h7.56c.975 0 1.707.245 2.316.61.488.488.732 1.098.732 1.83 0 .731-.244 1.463-.732 1.828-.487.488-1.34.61-2.316.61v.122Zm10.852-12.681c.366 0 .61 0 .975-.122.244 0 .488-.244.732-.366s.366-.366.488-.61c0-.243.121-.487.121-.731s0-.488-.121-.732c0-.244-.244-.366-.488-.61l-.732-.365c-.244 0-.61-.122-.975-.122-.366 0-.61 0-.976.122-.244 0-.487.244-.731.366s-.366.365-.488.61c0 .243-.122.487-.122.73 0 .245 0 .489.122.732 0 .244.244.366.488.61l.731.366c.244 0 .61.122.976.122Zm1.829 15.973V14.51h-3.536v14.022h3.536Zm17.924 0V25.24h-10.73V9.998h-3.78v18.534h14.51ZM79.07 12.56c.366 0 .61 0 .976-.122.243 0 .487-.244.731-.366s.366-.366.488-.61c0-.243.122-.487.122-.731s0-.488-.122-.732c0-.244-.244-.366-.488-.61l-.731-.365c-.244 0-.61-.122-.976-.122s-.61 0-.975.122c-.244 0-.488.244-.732.366s-.366.365-.488.61c0 .243-.122.487-.122.73 0 .245 0 .489.122.732 0 .244.244.366.488.61l.732.366c.243 0 .61.122.975.122Zm1.707 15.973V14.51h-3.536v14.022h3.536Zm6.585-8.291c.61-.854 1.463-1.463 2.438-1.951.976-.488 2.195-.732 3.536-.854l-.975-3.17c-.854.244-1.707.488-2.56.975-.854.366-1.708.976-2.44 1.464v-2.073h-3.414v14.022h3.415v-8.413Zm13.168 8.535c.61 0 1.22 0 1.829-.122.61 0 1.098-.244 1.586-.366.487-.122.975-.366 1.341-.487.366-.244.853-.366 1.219-.61v1.341h3.414v-6.096c0-2.805-.609-4.756-1.951-6.097-1.219-1.341-3.17-1.951-5.731-1.951h-1.829c-.61 0-1.219.122-1.829.244-.61 0-1.219.244-1.828.366-.61.122-1.22.365-1.708.487l1.098 2.927c.366-.244.853-.366 1.341-.488l1.463-.366c.488 0 .976-.122 1.463-.244h1.342c.731 0 1.341 0 1.951.244a4.075 4.075 0 0 1 1.463.61c.366.244.731.61.975.975.244.366.366.732.366 1.22-.975-.244-1.951-.488-2.926-.61-.976-.122-1.829-.244-2.683-.244-.853 0-2.195 0-3.048.366-.854.244-1.585.488-2.195.975-.61.366-.975.854-1.341 1.464-.244.61-.488 1.219-.488 1.829 0 .61.122 1.34.366 1.829.244.61.731 1.097 1.22 1.463.487.366 1.219.731 2.072.975.854.244 1.707.366 2.805.366h.243Zm.366-3.048c-.609 0-1.097 0-1.463-.122-.366 0-.732-.244-.976-.366a1.47 1.47 0 0 1-.61-.61c0-.243-.121-.487-.121-.61 0-.121 0-.365.122-.609 0-.244.244-.366.61-.488.365-.122.61-.244 1.097-.366.488 0 .975-.121 1.585-.121h1.097c.366 0 .854 0 1.342.121.487 0 .975.122 1.463.244.488 0 1.097.244 1.585.366v.61c-.244.244-.61.488-.975.731a4.512 4.512 0 0 1-1.342.61c-.487.122-.975.366-1.585.488-.609 0-1.219.122-1.829.122Z"/><path fill="#F3F5F0" fill-rule="evenodd" d="m.3 0 4.268 1.097v31.825c8.292-1.097 12.682-6.218 13.413-15.607v-.244l-9.267-2.56v-4.39l13.657 3.78v2.194c0 .732 0 1.463-.122 2.195-1.098 10.242-5.975 15.242-11.584 17.559C7.13 37.068 3.593 37.678.301 37.678V0Zm8.536 2.317 9.999 2.682v4.512L8.836 6.706v-4.39Z" clip-rule="evenodd"/></svg>