<svg xmlns="http://www.w3.org/2000/svg" xml:space="preserve" viewBox="0 0 248.6 50"><path d="m11.3 25-5.6 5.6L0 25l5.7-5.7zM25 11.3l9.7 9.7 5.7-5.7L25 0 9.7 15.3l5.7 5.7zm19.3 8L38.7 25l5.7 5.7L50 25zM25 38.7 15.3 29l-5.7 5.7L25 50l15.3-15.3-5.6-5.7zm0-8.1 5.7-5.7-5.7-5.6-5.7 5.7zm59.6.6c0-3.8-2-5.6-5.1-6.8 2-1.1 3.6-2.8 3.6-5.9v-.1c0-4.3-3.5-7.1-9-7.1H61.3v27.4h13c6.2 0 10.3-2.5 10.3-7.5M77 19.5c0 2.1-1.7 2.9-4.3 2.9h-5.6v-5.8h6c2.5 0 3.9 1 3.9 2.9m1.6 10.9c0 2-1.6 3-4.2 3h-7.2v-6h7c3 0 4.4 1.1 4.4 3m18.6 8.3V11.3h-6.1v27.4zm32.4 0V11.3h-6v16.9l-12.8-16.9h-5.6v27.4h6V21.3l13.3 17.4zm33.4 0-11.8-27.6h-5.6l-11.8 27.6h6.2l2.5-6.2h11.6l2.5 6.2zm-11-11.5h-7.3l3.7-8.9zm39.8 11.5V11.3h-6v16.9L173 11.3h-5.6v27.4h6V21.3l13.3 17.4zm31.1-4.4-3.9-3.9c-2.2 2-4.1 3.2-7.2 3.2-4.7 0-8-3.9-8-8.6v-.1c0-4.7 3.3-8.5 8-8.5 2.7 0 4.9 1.2 7 3.1l3.9-4.4c-2.5-2.5-5.6-4.2-10.8-4.2-8.4 0-14.3 6.4-14.3 14.2V25c0 7.9 6 14.1 14.1 14.1 5.2.1 8.4-1.8 11.2-4.8m25.7 4.4v-5.4h-14.9v-5.8h12.9v-5.4h-12.9v-5.6h14.7v-5.4h-20.7v27.4z" style="fill:#fff"/></svg>