<svg version="1.1" id="Layer_1" xmlns:x="ns_extend;" xmlns:i="ns_ai;" xmlns:graph="ns_graphs;" xmlns="http://www.w3.org/2000/svg" xmlns:xlink="http://www.w3.org/1999/xlink" x="0px" y="0px" viewBox="0 0 248.6 50" style="enable-background:new 0 0 248.6 50;" xml:space="preserve">
 <style type="text/css">
  .st0{fill:#FFFFFF;}
 </style>
 <metadata>
  <sfw xmlns="ns_sfw;">
   <slices>
   </slices>
   <sliceSourceBounds bottomLeftOrigin="true" height="50" width="248.6" x="2497.9" y="-712.2">
   </sliceSourceBounds>
  </sfw>
 </metadata>
 <g>
  <path class="st0" d="M11.3,25l-5.6,5.6L0,25l5.7-5.7L11.3,25z M25,11.3l9.7,9.7l5.7-5.7L25,0L9.7,15.3l5.7,5.7L25,11.3z M44.3,19.3
		L38.7,25l5.7,5.7L50,25L44.3,19.3z M25,38.7L15.3,29l-5.7,5.7L25,50l15.3-15.3L34.7,29L25,38.7z M25,30.6l5.7-5.7L25,19.3L19.3,25
		L25,30.6L25,30.6z M84.6,31.2L84.6,31.2c0-3.8-2-5.6-5.1-6.8c2-1.1,3.6-2.8,3.6-5.9v-0.1c0-4.3-3.5-7.1-9-7.1H61.3v27.4h13
		C80.5,38.7,84.6,36.2,84.6,31.2L84.6,31.2z M77,19.5c0,2.1-1.7,2.9-4.3,2.9h-5.6v-5.8h6C75.6,16.6,77,17.6,77,19.5L77,19.5z
		 M78.6,30.4c0,2-1.6,3-4.2,3h-7.2v-6h7C77.2,27.4,78.6,28.5,78.6,30.4L78.6,30.4L78.6,30.4z M97.2,38.7V11.3h-6.1v27.4L97.2,38.7
		L97.2,38.7L97.2,38.7z M129.6,38.7V11.3h-6v16.9l-12.8-16.9h-5.6v27.4h6V21.3l13.3,17.4H129.6L129.6,38.7z M163,38.7l-11.8-27.6
		h-5.6l-11.8,27.6h6.2l2.5-6.2h11.6l2.5,6.2H163L163,38.7z M152,27.2h-7.3l3.7-8.9L152,27.2z M191.8,38.7V11.3h-6v16.9L173,11.3
		h-5.6v27.4h6V21.3l13.3,17.4H191.8L191.8,38.7z M222.9,34.3l-3.9-3.9c-2.2,2-4.1,3.2-7.2,3.2c-4.7,0-8-3.9-8-8.6v-0.1
		c0-4.7,3.3-8.5,8-8.5c2.7,0,4.9,1.2,7,3.1l3.9-4.4c-2.5-2.5-5.6-4.2-10.8-4.2c-8.4,0-14.3,6.4-14.3,14.2V25c0,7.9,6,14.1,14.1,14.1
		C216.9,39.2,220.1,37.3,222.9,34.3L222.9,34.3z M248.6,38.7v-5.4h-14.9v-5.8h12.9v-5.4h-12.9v-5.6h14.7v-5.4h-20.7v27.4L248.6,38.7
		L248.6,38.7L248.6,38.7z">
  </path>
 </g>
</svg>