<svg width="325" height="37" viewBox="0 0 325 37" fill="none" xmlns="http://www.w3.org/2000/svg">
<path d="M47.4314 10.788C48.6254 10.788 49.6568 10.9999 50.5241 11.4159C51.3952 11.8359 52.1137 12.4018 52.6904 13.1134C53.2594 13.8287 53.6827 14.6647 53.9557 15.6228C54.2272 16.5837 54.3637 17.6165 54.3637 18.7223C54.3637 20.4207 54.0492 22.0254 53.4143 23.538C52.7801 25.0528 51.919 26.3667 50.8239 27.4874C49.7296 28.6069 48.4375 29.4894 46.9475 30.1414C45.4599 30.7938 43.8424 31.12 42.1055 31.12C41.881 31.12 41.4862 31.1136 40.9284 31.1022C40.3707 31.0908 39.7297 31.0338 39.0118 30.9377C38.2894 30.8379 37.5255 30.6903 36.7188 30.4926C35.9126 30.2985 35.1469 30.0265 34.4258 29.6812L40.8737 2.85746L46.6485 1.97131L44.3399 11.4901C44.8344 11.2696 45.3326 11.0988 45.8295 10.9743C46.3272 10.8518 46.8601 10.788 47.4314 10.788ZM42.5869 26.5841C43.4567 26.5841 44.2763 26.3722 45.0459 25.9562C45.818 25.5398 46.4844 24.9776 47.0426 24.2773C47.6009 23.5739 48.0426 22.7816 48.3647 21.8964C48.6867 21.0111 48.8501 20.0877 48.8501 19.1268C48.8501 17.9464 48.6507 17.0256 48.2535 16.36C47.8562 15.6971 47.1216 15.3636 46.0542 15.3636C45.7045 15.3636 45.2536 15.4296 44.6955 15.5476C44.1351 15.673 43.6332 15.9331 43.1837 16.3244L40.7255 26.4333C40.8737 26.4592 41.0048 26.4838 41.1166 26.5071C41.2261 26.5321 41.3471 26.5499 41.4678 26.5622C41.5952 26.5763 41.7411 26.5836 41.9174 26.5836C42.0936 26.5836 42.314 26.5841 42.5869 26.5841Z" fill="white"/>
<path d="M60.7541 30.3528H55.1309L59.8791 11.3916H65.5407L60.7541 30.3528ZM63.4902 9.08138C62.705 9.08138 61.9933 8.8597 61.3622 8.41548C60.7257 7.97389 60.4106 7.29417 60.4106 6.37808C60.4106 5.87421 60.5179 5.40147 60.7326 4.95546C60.9497 4.51032 61.2334 4.12707 61.5892 3.80124C61.9435 3.47807 62.3553 3.21989 62.8223 3.02537C63.2923 2.83397 63.7923 2.73827 64.3253 2.73827C65.1098 2.73827 65.8176 2.95994 66.451 3.40418C67.0821 3.85065 67.4003 4.53036 67.4003 5.44154C67.4003 5.94721 67.293 6.42172 67.0767 6.86686C66.8628 7.31199 66.579 7.69524 66.2232 8.02108C65.8712 8.34469 65.4556 8.60196 64.9894 8.79469C64.5193 8.98923 64.0209 9.08138 63.4902 9.08138Z" fill="white"/>
<path d="M70.0052 5.94342L75.7205 5.03954L74.3172 10.8746H80.4374L79.3323 15.465H73.249L71.6287 22.3893C71.4791 22.9665 71.3948 23.5055 71.3702 24.0065C71.3441 24.5098 71.4063 24.942 71.5535 25.3058C71.7 25.6707 71.9638 25.9518 72.3464 26.1507C72.7268 26.3528 73.2712 26.4547 73.9859 26.4547C74.5749 26.4547 75.1485 26.3975 75.7029 26.2841C76.2542 26.1726 76.8125 26.0173 77.3777 25.8143L77.7849 30.1064C77.0472 30.3825 76.2489 30.6199 75.3885 30.8197C74.5265 31.0224 73.5066 31.1199 72.328 31.1199C70.6325 31.1199 69.3189 30.863 68.3826 30.3513C67.4478 29.8359 66.7868 29.1318 66.3911 28.2405C66.0016 27.3525 65.8267 26.3287 65.875 25.1753C65.9257 24.0191 66.0967 22.8038 66.3911 21.524L70.0052 5.94342Z" fill="white"/>
<path d="M80.4355 22.4371C80.4355 20.6809 80.7047 19.0247 81.2423 17.4744C81.7783 15.9225 82.5513 14.5655 83.5543 13.4009C84.5535 12.2421 85.7712 11.3241 87.2045 10.65C88.6308 9.97992 90.2273 9.64203 91.9872 9.64203C93.0892 9.64203 94.073 9.7521 94.9388 9.97279C95.8076 10.1953 96.5944 10.483 97.3061 10.844L95.4342 15.3434C94.945 15.1337 94.4373 14.9489 93.9128 14.7814C93.3875 14.6105 92.7464 14.5282 91.988 14.5282C90.176 14.5282 88.7443 15.1883 87.6784 16.5041C86.6163 17.8209 86.0818 19.5934 86.0818 21.8167C86.0818 23.1345 86.3502 24.2 86.8908 25.0152C87.4276 25.8303 88.4199 26.2358 89.8593 26.2358C90.5701 26.2358 91.2564 26.1573 91.9136 26.0041C92.5754 25.849 93.1605 25.6537 93.6751 25.423L94.0807 30.0354C93.3936 30.3168 92.6368 30.571 91.8063 30.7935C90.9742 31.0085 89.9835 31.12 88.8348 31.12C87.3179 31.12 86.0343 30.8855 84.9845 30.4236C83.9339 29.9544 83.0658 29.3317 82.3826 28.5429C81.6955 27.7522 81.2016 26.8288 80.8964 25.7691C80.5912 24.7103 80.4355 23.5979 80.4355 22.4371Z" fill="white"/>
<path d="M105.215 31.12C103.872 31.12 102.704 30.9113 101.714 30.4982C100.726 30.0851 99.9081 29.5055 99.2617 28.754C98.6137 28.0063 98.129 27.1203 97.797 26.0994C97.4642 25.0788 97.3047 23.9487 97.3047 22.7105C97.3047 21.1571 97.5501 19.6044 98.0439 18.0559C98.537 16.5041 99.267 15.1098 100.234 13.8705C101.193 12.6293 102.377 11.6146 103.77 10.8234C105.163 10.0374 106.763 9.64203 108.562 9.64203C109.881 9.64203 111.043 9.85121 112.046 10.2643C113.046 10.6764 113.868 11.2609 114.52 12.0085C115.164 12.76 115.652 13.6422 115.981 14.6647C116.312 15.6832 116.476 16.8162 116.476 18.0555C116.476 19.6039 116.234 21.1567 115.755 22.7099C115.276 24.2556 114.564 25.6532 113.624 26.8954C112.686 28.1346 111.513 29.1489 110.105 29.9368C108.698 30.7247 107.067 31.12 105.215 31.12ZM108.03 14.5287C107.195 14.5287 106.458 14.7756 105.826 15.2634C105.192 15.7569 104.659 16.3772 104.229 17.1254C103.795 17.8769 103.473 18.6964 103.255 19.5872C103.04 20.4799 102.935 21.3237 102.935 22.1255C102.935 23.4193 103.14 24.4269 103.541 25.1521C103.95 25.8734 104.683 26.2362 105.749 26.2362C106.587 26.2362 107.321 25.9911 107.957 25.4981C108.587 25.0084 109.121 24.3877 109.553 23.6381C109.984 22.8904 110.309 22.0685 110.527 21.1763C110.74 20.2864 110.848 19.4378 110.848 18.6375C110.848 17.347 110.644 16.337 110.238 15.6128C109.832 14.8915 109.095 14.5287 108.03 14.5287Z" fill="white"/>
<path d="M122.103 30.3528H116.479L121.224 11.3916H126.886L122.103 30.3528ZM124.834 9.08138C124.05 9.08138 123.339 8.8597 122.709 8.41548C122.076 7.97389 121.758 7.29417 121.758 6.37808C121.758 5.87421 121.868 5.40147 122.082 4.95546C122.296 4.51032 122.582 4.12707 122.937 3.80124C123.29 3.47807 123.704 3.21989 124.171 3.02537C124.638 2.83397 125.138 2.73827 125.668 2.73827C126.454 2.73827 127.164 2.95994 127.796 3.40418C128.429 3.85065 128.748 4.53036 128.748 5.44154C128.748 5.94721 128.634 6.42172 128.422 6.86686C128.21 7.31199 127.924 7.69524 127.57 8.02108C127.214 8.34469 126.804 8.60196 126.337 8.79469C125.866 8.98923 125.368 9.08138 124.834 9.08138Z" fill="white"/>
<path d="M130.896 11.0294C131.309 10.9029 131.77 10.7509 132.272 10.5854C132.775 10.4201 133.337 10.2661 133.966 10.1274C134.587 9.9843 135.289 9.86831 136.059 9.77841C136.831 9.68667 137.709 9.64203 138.686 9.64203C141.555 9.64203 143.534 10.517 144.626 12.2619C145.717 14.0067 145.905 16.3945 145.198 19.4212L142.695 30.3529H137.218L139.643 19.6512C139.791 18.983 139.908 18.3371 139.994 17.7059C140.081 17.0803 140.075 16.529 139.974 16.0518C139.877 15.5803 139.65 15.1944 139.296 14.8955C138.937 14.6012 138.394 14.4534 137.658 14.4534C136.949 14.4534 136.227 14.5333 135.491 14.6873L131.924 30.3525H126.445L130.896 11.0294Z" fill="white"/>
<path d="M148.951 22.5511C148.951 20.9207 149.209 19.3861 149.724 17.9474C150.24 16.5087 150.978 15.2499 151.939 14.171C152.899 13.0919 154.059 12.2407 155.418 11.6173C156.8 10.9939 158.335 10.6821 160.022 10.6821C161.076 10.6821 162.013 10.7901 162.834 11.0058C163.677 11.1977 164.438 11.4615 165.118 11.7971L163.326 15.9692C162.857 15.7774 162.365 15.6095 161.849 15.4657C161.357 15.2979 160.748 15.214 160.022 15.214C158.265 15.214 156.882 15.8253 155.875 17.0482C154.867 18.2471 154.363 19.8896 154.363 21.9757C154.363 23.1986 154.621 24.1936 155.137 24.9609C155.652 25.7042 156.601 26.0759 157.983 26.0759C158.663 26.0759 159.319 26.0039 159.952 25.8601C160.584 25.7162 161.146 25.5363 161.638 25.3205L162.025 29.6006C161.369 29.8644 160.643 30.0922 159.846 30.284C159.073 30.4998 158.124 30.6076 156.999 30.6076C155.547 30.6076 154.317 30.3918 153.309 29.9603C152.302 29.5287 151.47 28.9531 150.814 28.2338C150.158 27.4905 149.678 26.6274 149.373 25.6443C149.092 24.6612 148.951 23.6302 148.951 22.5511Z" fill="#FF9500"/>
<path d="M172.253 30.6076C171.012 30.6076 169.934 30.4159 169.02 30.0322C168.106 29.6485 167.345 29.1091 166.736 28.4137C166.15 27.7184 165.705 26.9031 165.4 25.9679C165.096 25.0089 164.943 23.9538 164.943 22.8029C164.943 21.3642 165.166 19.9255 165.611 18.4869C166.08 17.0482 166.759 15.7534 167.65 14.6025C168.54 13.4515 169.629 12.5165 170.918 11.7971C172.206 11.0538 173.683 10.6821 175.346 10.6821C176.565 10.6821 177.631 10.8739 178.544 11.2576C179.482 11.6412 180.243 12.1808 180.829 12.8761C181.438 13.5715 181.895 14.3987 182.199 15.3578C182.504 16.2929 182.656 17.3359 182.656 18.4869C182.656 19.9255 182.434 21.3642 181.989 22.8029C181.544 24.2416 180.888 25.5363 180.021 26.6873C179.153 27.8382 178.064 28.7853 176.752 29.5287C175.463 30.248 173.964 30.6076 172.253 30.6076ZM174.854 15.214C174.081 15.214 173.402 15.4417 172.815 15.8972C172.23 16.3529 171.737 16.9283 171.34 17.6237C170.941 18.319 170.637 19.0863 170.426 19.9255C170.239 20.7408 170.145 21.52 170.145 22.2634C170.145 23.4863 170.332 24.4333 170.707 25.1048C171.082 25.7521 171.761 26.0759 172.746 26.0759C173.519 26.0759 174.199 25.8481 174.784 25.3925C175.37 24.937 175.862 24.3614 176.26 23.6661C176.659 22.9707 176.952 22.2154 177.138 21.4002C177.35 20.561 177.455 19.7697 177.455 19.0263C177.455 17.8035 177.268 16.8683 176.893 16.221C176.517 15.5496 175.838 15.214 174.854 15.214Z" fill="#FF9500"/>
<path d="M188.324 12.0487C188.722 11.9288 189.155 11.7969 189.624 11.653C190.116 11.4852 190.654 11.3414 191.241 11.2215C191.85 11.0776 192.517 10.9697 193.244 10.8977C193.994 10.8019 194.837 10.7539 195.774 10.7539C198.539 10.7539 200.437 11.5691 201.468 13.1997C202.498 14.8301 202.674 17.06 201.995 19.8895L199.605 30.104H194.368L196.688 20.1052C196.828 19.4818 196.934 18.8823 197.004 18.3069C197.097 17.7074 197.097 17.1919 197.004 16.7604C196.911 16.3047 196.688 15.9451 196.336 15.6813C196.009 15.3936 195.493 15.2497 194.791 15.2497C194.111 15.2497 193.419 15.3217 192.716 15.4655L189.307 30.104H184.07L188.324 12.0487Z" fill="#FF9500"/>
<path d="M218.385 2.19388C219.439 2.19388 220.353 2.3138 221.126 2.55352C221.923 2.76931 222.52 2.97313 222.919 3.16498L221.161 7.37312C220.74 7.15722 220.248 7.00139 219.686 6.90552C219.146 6.7856 218.643 6.72564 218.175 6.72564C216.885 6.72564 215.925 7.06135 215.292 7.73277C214.683 8.40406 214.261 9.2434 214.027 10.2504L213.816 11.1856H220.002L218.948 15.5735H212.797L210.653 24.745C209.857 28.1738 208.989 30.8354 208.053 32.7296C207.115 34.6479 206.084 36.0386 204.96 36.9017L200.285 36.2183C200.894 35.6429 201.456 34.9356 201.972 34.0964C202.488 33.257 202.945 32.3699 203.343 31.4347C203.764 30.4997 204.116 29.5525 204.397 28.5934C204.701 27.6103 204.948 26.6992 205.136 25.86L208.791 10.1785C209.376 7.63679 210.43 5.67065 211.953 4.27994C213.476 2.88923 215.62 2.19388 218.385 2.19388Z" fill="#FF9500"/>
<path d="M220.477 22.695C220.477 21.1604 220.734 19.6738 221.249 18.2351C221.788 16.7964 222.538 15.5256 223.499 14.4226C224.46 13.2957 225.619 12.3965 226.978 11.7251C228.36 11.0298 229.883 10.6821 231.547 10.6821C232.367 10.6821 233.128 10.802 233.831 11.0417C234.534 11.2816 235.144 11.6293 235.658 12.0848C236.198 12.5404 236.608 13.1039 236.89 13.7753C237.194 14.4226 237.346 15.166 237.346 16.0052C237.346 17.3479 237.054 18.4869 236.467 19.422C235.881 20.3572 235.061 21.1245 234.007 21.7239C232.976 22.2994 231.746 22.719 230.317 22.9827C228.888 23.2465 227.33 23.3783 225.643 23.3783C225.807 24.3855 226.159 25.1048 226.697 25.5363C227.259 25.944 228.138 26.1478 229.333 26.1478C230.083 26.1478 230.844 26.0878 231.617 25.9679C232.391 25.824 233.117 25.6202 233.797 25.3566L234.183 29.5646C233.526 29.8284 232.683 30.0682 231.653 30.284C230.645 30.4998 229.543 30.6076 228.349 30.6076C226.896 30.6076 225.666 30.4038 224.658 29.9963C223.675 29.5646 222.866 28.9892 222.234 28.2699C221.624 27.5505 221.179 26.7113 220.898 25.7521C220.617 24.7931 220.477 23.774 220.477 22.695ZM230.704 14.9261C229.509 14.9261 228.455 15.3698 227.54 16.257C226.65 17.1202 226.064 18.2711 225.783 19.7097C227.235 19.6619 228.408 19.5419 229.298 19.3501C230.188 19.1343 230.88 18.8825 231.372 18.5948C231.863 18.3071 232.191 17.9954 232.355 17.6597C232.519 17.324 232.602 16.9883 232.602 16.6526C232.602 15.5017 231.969 14.9261 230.704 14.9261Z" fill="#FF9500"/>
<path d="M252.186 15.7891C251.719 15.6692 251.25 15.5614 250.781 15.4654C250.336 15.3455 249.668 15.2856 248.778 15.2856C248.45 15.2856 248.086 15.3215 247.688 15.3935C247.289 15.4415 246.961 15.5014 246.704 15.5733L243.296 30.1038H238.059L242.276 12.1924C243.284 11.8567 244.408 11.5451 245.65 11.2574C246.915 10.9456 248.333 10.7898 249.902 10.7898C250.489 10.7898 251.132 10.8497 251.836 10.9695C252.562 11.0655 253.194 11.2333 253.733 11.4731L252.186 15.7891Z" fill="#FF9500"/>
<path d="M253.391 22.695C253.391 21.1604 253.649 19.6738 254.165 18.2351C254.703 16.7964 255.453 15.5256 256.413 14.4226C257.374 13.2957 258.534 12.3965 259.893 11.7251C261.275 11.0298 262.798 10.6821 264.462 10.6821C265.282 10.6821 266.043 10.802 266.746 11.0417C267.449 11.2816 268.058 11.6293 268.574 12.0848C269.112 12.5404 269.523 13.1039 269.804 13.7753C270.109 14.4226 270.261 15.166 270.261 16.0052C270.261 17.3479 269.968 18.4869 269.383 19.422C268.796 20.3572 267.977 21.1245 266.921 21.7239C265.891 22.2994 264.661 22.719 263.232 22.9827C261.803 23.2465 260.244 23.3783 258.557 23.3783C258.721 24.3855 259.073 25.1048 259.612 25.5363C260.175 25.944 261.053 26.1478 262.248 26.1478C262.997 26.1478 263.759 26.0878 264.532 25.9679C265.305 25.824 266.031 25.6202 266.711 25.3566L267.097 29.5646C266.442 29.8284 265.598 30.0682 264.567 30.284C263.559 30.4998 262.459 30.6076 261.263 30.6076C259.811 30.6076 258.581 30.4038 257.573 29.9963C256.589 29.5646 255.781 28.9892 255.148 28.2699C254.539 27.5505 254.094 26.7113 253.813 25.7521C253.532 24.7931 253.391 23.774 253.391 22.695ZM263.618 14.9261C262.423 14.9261 261.369 15.3698 260.456 16.257C259.564 17.1202 258.979 18.2711 258.698 19.7097C260.151 19.6619 261.322 19.5419 262.212 19.3501C263.102 19.1343 263.794 18.8825 264.286 18.5948C264.779 18.3071 265.106 17.9954 265.27 17.6597C265.434 17.324 265.516 16.9883 265.516 16.6526C265.516 15.5017 264.884 14.9261 263.618 14.9261Z" fill="#FF9500"/>
<path d="M275.226 12.0487C275.625 11.9288 276.058 11.7969 276.525 11.653C277.018 11.4852 277.557 11.3414 278.143 11.2215C278.752 11.0776 279.42 10.9697 280.146 10.8977C280.896 10.8019 281.74 10.7539 282.676 10.7539C285.442 10.7539 287.339 11.5691 288.37 13.1997C289.401 14.8301 289.576 17.06 288.897 19.8895L286.508 30.104H281.271L283.591 20.1052C283.731 19.4818 283.836 18.8823 283.906 18.3069C284 17.7074 284 17.1919 283.906 16.7604C283.813 16.3047 283.591 15.9451 283.239 15.6813C282.911 15.3936 282.395 15.2497 281.692 15.2497C281.013 15.2497 280.322 15.3217 279.618 15.4655L276.21 30.104H270.973L275.226 12.0487Z" fill="#FF9500"/>
<path d="M291.969 22.5511C291.969 20.9207 292.226 19.3861 292.742 17.9474C293.257 16.5087 293.996 15.2499 294.956 14.171C295.917 13.0919 297.076 12.2407 298.436 11.6173C299.818 10.9939 301.353 10.6821 303.04 10.6821C304.094 10.6821 305.031 10.7901 305.851 11.0058C306.695 11.1977 307.456 11.4615 308.135 11.7971L306.343 15.9692C305.874 15.7774 305.382 15.6095 304.867 15.4657C304.375 15.2979 303.766 15.214 303.04 15.214C301.282 15.214 299.9 15.8253 298.893 17.0482C297.885 18.2471 297.382 19.8896 297.382 21.9757C297.382 23.1986 297.639 24.1936 298.154 24.9609C298.67 25.7042 299.619 26.0759 301.001 26.0759C301.68 26.0759 302.336 26.0039 302.969 25.8601C303.602 25.7162 304.164 25.5363 304.656 25.3205L305.043 29.6006C304.387 29.8644 303.661 30.0922 302.864 30.284C302.091 30.4998 301.142 30.6076 300.017 30.6076C298.564 30.6076 297.334 30.3918 296.326 29.9603C295.319 29.5287 294.487 28.9531 293.832 28.2338C293.175 27.4905 292.695 26.6274 292.39 25.6443C292.109 24.6612 291.969 23.6302 291.969 22.5511Z" fill="#FF9500"/>
<path d="M307.963 22.695C307.963 21.1604 308.221 19.6738 308.737 18.2351C309.275 16.7964 310.026 15.5256 310.986 14.4226C311.947 13.2957 313.107 12.3965 314.466 11.7251C315.848 11.0298 317.371 10.6821 319.034 10.6821C319.855 10.6821 320.616 10.802 321.319 11.0417C322.021 11.2816 322.63 11.6293 323.146 12.0848C323.684 12.5404 324.095 13.1039 324.376 13.7753C324.681 14.4226 324.833 15.166 324.833 16.0052C324.833 17.3479 324.54 18.4869 323.955 19.422C323.369 20.3572 322.549 21.1245 321.494 21.7239C320.464 22.2994 319.234 22.719 317.804 22.9827C316.375 23.2465 314.816 23.3783 313.129 23.3783C313.294 24.3855 313.645 25.1048 314.185 25.5363C314.747 25.944 315.625 26.1478 316.82 26.1478C317.569 26.1478 318.331 26.0878 319.104 25.9679C319.877 25.824 320.604 25.6202 321.283 25.3566L321.67 29.5646C321.014 29.8284 320.17 30.0682 319.139 30.284C318.132 30.4998 317.031 30.6076 315.836 30.6076C314.383 30.6076 313.153 30.4038 312.146 29.9963C311.161 29.5646 310.353 28.9892 309.721 28.2699C309.112 27.5505 308.666 26.7113 308.385 25.7521C308.104 24.7931 307.963 23.774 307.963 22.695ZM318.19 14.9261C316.996 14.9261 315.941 15.3698 315.028 16.257C314.137 17.1202 313.552 18.2711 313.27 19.7097C314.723 19.6619 315.894 19.5419 316.784 19.3501C317.675 19.1343 318.366 18.8825 318.858 18.5948C319.351 18.3071 319.679 17.9954 319.843 17.6597C320.007 17.324 320.088 16.9883 320.088 16.6526C320.088 15.5017 319.456 14.9261 318.19 14.9261Z" fill="#FF9500"/>
<ellipse cx="16.2696" cy="15.9578" rx="13.963" ry="14.6279" fill="white"/>
<path d="M32.7478 20.6438C30.5274 29.5487 21.5071 34.9682 12.6 32.7475C3.69658 30.5274 -1.72351 21.5076 0.497934 12.6032C2.7173 3.69724 11.7376 -1.72271 20.6421 0.497424C29.5481 2.71755 34.9677 11.7383 32.7478 20.6438ZM23.9525 14.2546C24.2834 12.0427 22.5991 10.8537 20.2961 10.0605L21.0432 7.0643L19.2192 6.60979L18.4919 9.52702C18.0123 9.40755 17.5198 9.29485 17.0305 9.18317L17.763 6.24669L15.94 5.79217L15.1924 8.78734C14.7955 8.69694 14.4058 8.6076 14.0277 8.51358L14.0297 8.50424L11.5142 7.87624L11.029 9.82417C11.029 9.82417 12.3824 10.1343 12.3538 10.1535C13.0925 10.3379 13.226 10.8267 13.2037 11.2142L12.3527 14.6275C12.4036 14.6405 12.4696 14.6592 12.5423 14.6883C12.4816 14.6732 12.4166 14.6566 12.3496 14.6405L11.1568 19.422C11.0664 19.6465 10.8373 19.9831 10.3209 19.8553C10.3391 19.8818 8.99509 19.5244 8.99509 19.5244L8.08961 21.6121L10.4633 22.2037C10.9048 22.3143 11.3376 22.4302 11.7636 22.5393L11.0087 25.5697L12.8307 26.0243L13.5782 23.026C14.0759 23.1611 14.5591 23.2857 15.0319 23.4031L14.2869 26.3874L16.1109 26.8419L16.8658 23.8171C19.9761 24.4057 22.3149 24.1683 23.2994 21.3554C24.0927 19.0907 23.2599 17.7842 21.6235 16.9323C22.8152 16.6575 23.7124 15.8737 23.9525 14.2546ZM19.7849 20.0978C19.2212 22.3627 15.4075 21.1383 14.171 20.8313L15.1727 16.8165C16.4091 17.1251 20.374 17.7359 19.7849 20.0978ZM20.3491 14.2218C19.8348 16.282 16.6605 15.2353 15.6309 14.9787L16.539 11.3373C17.5687 11.5939 20.8847 12.0729 20.3491 14.2218Z" fill="#FF9500"/>
</svg>
