<svg xmlns="http://www.w3.org/2000/svg" width="325" height="37" fill="none" viewBox="0 0 325 37"><path fill="#fff" d="M47.431 10.788q1.792.002 3.093.628c.871.42 1.59.986 2.166 1.697a7.1 7.1 0 0 1 1.266 2.51q.407 1.44.408 3.1.001 2.546-.95 4.815c-.634 1.515-1.495 2.829-2.59 3.95a12.2 12.2 0 0 1-3.876 2.653c-1.488.653-3.106.979-4.843.979-.224 0-.619-.006-1.177-.018a17 17 0 0 1-1.916-.164q-1.083-.15-2.293-.445a11.6 11.6 0 0 1-2.293-.812l6.448-26.824 5.774-.886-2.308 9.52q.743-.33 1.49-.517a6.7 6.7 0 0 1 1.601-.186m-4.844 15.796q1.305-.002 2.459-.628a6.5 6.5 0 0 0 1.997-1.679q.838-1.053 1.322-2.38a8 8 0 0 0 .485-2.77q-.001-1.769-.596-2.767-.597-.995-2.2-.996c-.35 0-.8.066-1.358.184a3.4 3.4 0 0 0-1.512.776l-2.459 10.11q.224.038.392.073c.11.025.23.043.35.055.128.014.274.022.45.022zM60.754 30.353h-5.623l4.748-18.961h5.662zM63.49 9.08a3.6 3.6 0 0 1-2.128-.666q-.953-.662-.951-2.037 0-.755.322-1.423.324-.666.856-1.154a4.2 4.2 0 0 1 1.233-.776q.704-.287 1.503-.287 1.177 0 2.126.666.948.67.95 2.038 0 .758-.324 1.425a3.8 3.8 0 0 1-.854 1.154c-.352.324-.767.581-1.234.774-.47.194-.968.286-1.499.286M70.005 5.943l5.716-.903-1.404 5.835h6.12l-1.105 4.59H73.25l-1.62 6.924a8 8 0 0 0-.259 1.617q-.038.755.183 1.3.22.547.793.845.569.303 1.64.304.884 0 1.717-.17a12 12 0 0 0 1.675-.47l.407 4.291q-1.106.414-2.397.714-1.292.302-3.06.3-2.543 0-3.945-.769c-.935-.515-1.596-1.22-1.992-2.11q-.587-1.334-.516-3.066.075-1.732.516-3.651zM80.436 22.437q0-2.635.806-4.963c.536-1.552 1.31-2.908 2.312-4.073q1.5-1.74 3.65-2.751 2.142-1.007 4.783-1.008 1.653 0 2.952.33c.869.223 1.655.511 2.367.872l-1.872 4.5a17 17 0 0 0-1.521-.563q-.788-.254-1.925-.253c-1.812 0-3.244.66-4.31 1.976q-1.595 1.977-1.596 5.313-.001 1.975.809 3.198.807 1.221 2.968 1.22a9 9 0 0 0 2.055-.23 9.7 9.7 0 0 0 1.761-.582l.406 4.612a19 19 0 0 1-2.275.759q-1.248.324-2.971.326c-1.517 0-2.8-.235-3.85-.696-1.051-.47-1.92-1.092-2.602-1.881a7.2 7.2 0 0 1-1.487-2.774 12 12 0 0 1-.46-3.332M105.215 31.12q-2.015-.001-3.501-.622-1.483-.618-2.452-1.744c-.648-.748-1.133-1.634-1.465-2.655s-.492-2.15-.492-3.389q-.001-2.33.739-4.654a13.3 13.3 0 0 1 2.19-4.186 11.8 11.8 0 0 1 3.536-3.047q2.091-1.18 4.792-1.181c1.319 0 2.481.21 3.484.622 1 .412 1.822.997 2.474 1.745a7.6 7.6 0 0 1 1.461 2.656c.331 1.018.495 2.151.495 3.39q-.001 2.325-.721 4.655a13.5 13.5 0 0 1-2.131 4.185 11.2 11.2 0 0 1-3.519 3.042q-2.111 1.183-4.89 1.183m2.815-16.591q-1.254.002-2.204.734a6.3 6.3 0 0 0-1.597 1.862 9.3 9.3 0 0 0-.974 2.462 10.8 10.8 0 0 0-.32 2.538c0 1.294.205 2.302.606 3.027.409.721 1.142 1.084 2.208 1.084q1.255 0 2.208-.738a6.3 6.3 0 0 0 1.596-1.86q.647-1.123.974-2.462.32-1.336.321-2.538 0-1.938-.61-3.025-.61-1.083-2.208-1.084M122.103 30.353h-5.624l4.745-18.961h5.662zm2.731-21.272a3.6 3.6 0 0 1-2.125-.666q-.95-.662-.951-2.037.002-.755.324-1.423.322-.666.855-1.154a4.2 4.2 0 0 1 1.234-.776 3.9 3.9 0 0 1 1.497-.287q1.18 0 2.128.666.95.67.952 2.038c0 .505-.114.98-.326 1.425a3.7 3.7 0 0 1-.852 1.154 4.2 4.2 0 0 1-1.233.774 3.9 3.9 0 0 1-1.503.286M130.896 11.03c.413-.127.874-.28 1.376-.445q.752-.248 1.694-.458c.621-.143 1.323-.259 2.093-.349q1.16-.136 2.627-.136 4.303.001 5.94 2.62c1.091 1.745 1.279 4.133.572 7.16l-2.503 10.93h-5.477l2.425-10.7q.222-1.001.351-1.946.131-.939-.02-1.654a2 2 0 0 0-.678-1.156c-.359-.295-.902-.443-1.638-.443q-1.063.001-2.167.234l-3.567 15.666h-5.479z"/><path fill="#ff9500" d="M148.951 22.551q0-2.445.773-4.604.774-2.157 2.215-3.776a10.4 10.4 0 0 1 3.479-2.554q2.073-.935 4.604-.935 1.58 0 2.812.324 1.264.288 2.284.791l-1.792 4.172q-.703-.288-1.477-.503-.738-.252-1.827-.252-2.636 0-4.147 1.834-1.512 1.8-1.512 4.928 0 1.834.774 2.985.773 1.115 2.846 1.115a9 9 0 0 0 1.969-.216 9.4 9.4 0 0 0 1.686-.54l.387 4.28q-.984.396-2.179.684-1.16.324-2.847.324-2.178 0-3.69-.648-1.51-.647-2.495-1.726a7 7 0 0 1-1.441-2.59 11.2 11.2 0 0 1-.422-3.093M172.253 30.608q-1.862 0-3.233-.576t-2.284-1.618a7.2 7.2 0 0 1-1.336-2.446q-.456-1.44-.457-3.165 0-2.159.668-4.316a12.7 12.7 0 0 1 2.039-3.884 10.6 10.6 0 0 1 3.268-2.806q1.933-1.115 4.428-1.115 1.828 0 3.198.576 1.407.575 2.285 1.618.914 1.044 1.37 2.482.457 1.403.457 3.129 0 2.158-.667 4.316a12.6 12.6 0 0 1-1.968 3.884 10.55 10.55 0 0 1-3.269 2.842q-1.933 1.079-4.499 1.079m2.601-15.394q-1.159 0-2.039.683a5.8 5.8 0 0 0-1.475 1.727 9 9 0 0 0-.914 2.302 10.5 10.5 0 0 0-.281 2.337q0 1.834.562 2.842.562.97 2.039.97 1.16 0 2.038-.683a5.8 5.8 0 0 0 1.476-1.726q.599-1.042.878-2.266.317-1.258.317-2.374 0-1.834-.562-2.805-.564-1.007-2.039-1.007M188.324 12.049q.597-.18 1.3-.396.737-.252 1.617-.431a15 15 0 0 1 2.003-.324q1.125-.144 2.53-.144 4.148 0 5.694 2.446 1.545 2.445.527 6.69l-2.39 10.214h-5.237l2.32-9.999q.21-.935.316-1.798.14-.9 0-1.547a1.73 1.73 0 0 0-.668-1.079q-.491-.43-1.545-.431-1.02 0-2.075.216l-3.409 14.638h-5.237zM218.385 2.194q1.581 0 2.741.36 1.195.324 1.793.611l-1.758 4.208a5.1 5.1 0 0 0-1.475-.467 7 7 0 0 0-1.511-.18q-1.934 0-2.883 1.007-.914 1.006-1.265 2.517l-.211.936h6.186l-1.054 4.387h-6.151l-2.144 9.172q-1.195 5.143-2.6 7.985-1.407 2.877-3.093 4.172l-4.675-.684q.913-.862 1.687-2.122.774-1.258 1.371-2.661.632-1.403 1.054-2.842.457-1.474.739-2.733l3.655-15.681q.877-3.812 3.162-5.9 2.285-2.085 6.432-2.085M220.477 22.695q0-2.302.772-4.46a12.3 12.3 0 0 1 2.25-3.812 10.8 10.8 0 0 1 3.479-2.698q2.073-1.043 4.569-1.043 1.23 0 2.284.36 1.055.36 1.827 1.043.81.683 1.232 1.69.456.972.456 2.23 0 2.015-.879 3.417-.879 1.403-2.46 2.302-1.546.863-3.69 1.259t-4.674.395q.246 1.512 1.054 2.158.843.612 2.636.612 1.125 0 2.284-.18 1.16-.216 2.18-.611l.386 4.208q-.985.395-2.53.719-1.513.324-3.304.324-2.18 0-3.691-.612-1.475-.647-2.424-1.726a6.8 6.8 0 0 1-1.336-2.518 10.8 10.8 0 0 1-.421-3.057m10.227-7.769q-1.792 0-3.164 1.331-1.335 1.294-1.757 3.453 2.179-.072 3.515-.36 1.335-.324 2.074-.755.737-.432.983-.935t.247-1.007q0-1.727-1.898-1.727M252.186 15.79q-.701-.18-1.405-.325-.668-.18-2.003-.18-.493 0-1.09.108a7 7 0 0 0-.984.18l-3.408 14.53h-5.237l4.217-17.91a38 38 0 0 1 3.374-.936q1.898-.467 4.252-.467.88 0 1.934.18 1.089.143 1.897.503zM253.391 22.695q0-2.302.774-4.46a12.3 12.3 0 0 1 2.248-3.812 10.8 10.8 0 0 1 3.48-2.698q2.073-1.043 4.569-1.043 1.23 0 2.284.36t1.828 1.043q.808.683 1.23 1.69.457.972.457 2.23 0 2.015-.878 3.417-.88 1.403-2.462 2.302-1.545.863-3.689 1.259t-4.675.395q.246 1.512 1.055 2.158.844.612 2.636.612 1.124 0 2.284-.18a12 12 0 0 0 2.179-.611l.386 4.208q-.983.395-2.53.719-1.511.324-3.304.324-2.178 0-3.69-.612-1.476-.647-2.425-1.726a6.8 6.8 0 0 1-1.335-2.518 10.8 10.8 0 0 1-.422-3.057m10.227-7.769q-1.792 0-3.162 1.331-1.337 1.294-1.758 3.453 2.18-.072 3.514-.36 1.336-.324 2.074-.755.739-.432.984-.935.246-.504.246-1.007 0-1.727-1.898-1.727M275.226 12.049q.599-.18 1.299-.396a13 13 0 0 1 1.618-.431 15 15 0 0 1 2.003-.324q1.126-.144 2.53-.144 4.148 0 5.694 2.446 1.546 2.445.527 6.69l-2.389 10.214h-5.237l2.32-9.999q.21-.935.315-1.798.141-.9 0-1.547a1.73 1.73 0 0 0-.667-1.079q-.492-.43-1.547-.431-1.018 0-2.074.216l-3.408 14.638h-5.237zM291.969 22.551q0-2.445.773-4.604.773-2.157 2.214-3.776t3.48-2.554q2.073-.935 4.604-.935 1.581 0 2.811.324 1.266.288 2.284.791l-1.792 4.172q-.704-.288-1.476-.503-.738-.252-1.827-.252-2.637 0-4.147 1.834-1.512 1.8-1.511 4.928 0 1.834.772 2.985.774 1.115 2.847 1.115 1.018 0 1.968-.216a9.4 9.4 0 0 0 1.687-.54l.387 4.28q-.984.396-2.179.684-1.16.324-2.847.324-2.18 0-3.691-.648-1.511-.647-2.494-1.726a7 7 0 0 1-1.442-2.59 11.2 11.2 0 0 1-.421-3.093M307.963 22.695q0-2.302.774-4.46a12.3 12.3 0 0 1 2.249-3.812 10.8 10.8 0 0 1 3.48-2.698q2.073-1.043 4.568-1.043 1.231 0 2.285.36a5.3 5.3 0 0 1 1.827 1.043q.808.683 1.23 1.69.457.972.457 2.23 0 2.015-.878 3.417-.879 1.403-2.461 2.302-1.545.863-3.69 1.259t-4.675.395q.247 1.512 1.056 2.158.843.612 2.635.612 1.124 0 2.284-.18a12 12 0 0 0 2.179-.611l.387 4.208q-.984.395-2.531.719-1.51.324-3.303.324-2.18 0-3.69-.612-1.477-.647-2.425-1.726a6.8 6.8 0 0 1-1.336-2.518 10.8 10.8 0 0 1-.422-3.057m10.227-7.769q-1.792 0-3.162 1.331-1.336 1.294-1.758 3.453 2.18-.072 3.514-.36 1.336-.324 2.074-.755.74-.432.985-.935t.245-1.007q0-1.727-1.898-1.727"/><ellipse cx="16.27" cy="15.958" fill="#fff" rx="13.963" ry="14.628"/><path fill="#ff9500" d="M32.748 20.644c-2.22 8.905-11.24 14.324-20.148 12.104C3.697 30.528-1.724 21.508.498 12.603 2.718 3.697 11.738-1.723 20.642.497c8.906 2.22 14.326 11.241 12.106 20.147m-8.795-6.39c.33-2.211-1.354-3.4-3.657-4.193l.747-2.997-1.824-.454-.727 2.917a77 77 0 0 0-1.462-.344l.733-2.936-1.823-.455-.748 2.995q-.595-.134-1.164-.273l.002-.01-2.516-.628-.485 1.948s1.353.31 1.325.33c.739.184.872.673.85 1.06l-.851 3.413c.05.013.117.032.19.061l-.193-.048-1.193 4.782c-.09.224-.32.561-.836.433.018.027-1.326-.33-1.326-.33l-.905 2.087 2.373.592c.442.11.875.226 1.3.335l-.754 3.03 1.822.455.747-2.998q.746.202 1.454.377l-.745 2.984 1.824.455.755-3.025c3.11.589 5.449.351 6.433-2.462.794-2.264-.04-3.57-1.675-4.423 1.191-.274 2.088-1.058 2.329-2.677m-4.168 5.844c-.564 2.265-4.377 1.04-5.614.733l1.002-4.014c1.236.308 5.201.919 4.612 3.28m.564-5.876c-.514 2.06-3.689 1.013-4.718.757l.908-3.642c1.03.257 4.346.736 3.81 2.885"/></svg>