<svg xmlns="http://www.w3.org/2000/svg" width="213" height="213" fill="none" viewBox="0 0 213 213"><path fill="#000" d="M106.681 0a108.008 108.008 0 0 1 6.654.215 106.4 106.4 0 0 1 24.357 4.43 105 105 0 0 1 12.034 4.504 106.6 106.6 0 0 1 29.664 19.725 107 107 0 0 1 12.154 13.539 105.3 105.3 0 0 1 9.651 15.337 105.6 105.6 0 0 1 6.005 13.996 105 105 0 0 1 3.863 14.44A106.6 106.6 0 0 1 213 106.5c0 4.861-.325 9.735-.986 14.549a105.6 105.6 0 0 1-3.37 15.692 106.1 106.1 0 0 1-15.668 31.914 108 108 0 0 1-12.54 14.477 107.4 107.4 0 0 1-15.607 12.467 106.3 106.3 0 0 1-17.329 9.218 106 106 0 0 1-20.687 6.245A106.6 106.6 0 0 1 106.681 213a106.7 106.7 0 0 1-20.157-1.878 105.4 105.4 0 0 1-20.71-6.185 106.3 106.3 0 0 1-17.365-9.158 107.3 107.3 0 0 1-28.22-26.86 106 106 0 0 1-9.711-16.269 104 104 0 0 1-6.053-15.596 105.5 105.5 0 0 1-3.43-15.669A108 108 0 0 1 0 106.5c0-6.703.626-13.406 1.877-19.989a106 106 0 0 1 3.84-14.465 105.92 105.92 0 0 1 15.56-29.378A107 107 0 0 1 33.5 28.983a106.683 106.683 0 0 1 29.64-19.768 105.7 105.7 0 0 1 24.357-7.521A107 107 0 0 1 106.163 0c.169 0 .337-.002.518 0m-.325 13.588c-1.998.005-3.984.07-5.969.199a93 93 0 0 0-10.47 1.279A92 92 0 0 0 79.16 17.68a94 94 0 0 0-10.482 3.94A93.2 93.2 0 0 0 43.13 38.587 93 93 0 0 0 32.06 50.94a93.4 93.4 0 0 0-7.787 12.299 92.5 92.5 0 0 0-5.607 12.936 93 93 0 0 0-3.274 12.022 93 93 0 0 0-1.793 18.147 92.4 92.4 0 0 0 .903 13.153 93 93 0 0 0 3.225 14.489 94 94 0 0 0 4.97 12.648 93.3 93.3 0 0 0 8.941 14.874 94 94 0 0 0 10.578 12.046 92.8 92.8 0 0 0 13.658 10.842 93.3 93.3 0 0 0 15.14 7.991 92 92 0 0 0 17.761 5.331 93 93 0 0 0 17.883 1.696 93.7 93.7 0 0 0 17.581-1.696 92.3 92.3 0 0 0 18.015-5.44 92.6 92.6 0 0 0 15.355-8.195 93.3 93.3 0 0 0 13.382-10.722 93.7 93.7 0 0 0 10.794-12.419 92.6 92.6 0 0 0 8.653-14.573 92 92 0 0 0 5.054-13.069 94 94 0 0 0 3.069-14.092c.589-4.308.866-8.652.854-13.008a96 96 0 0 0-.445-8.918 94 94 0 0 0-1.408-9.362 93 93 0 0 0-3.538-12.684 93.4 93.4 0 0 0-5.415-12.25 93 93 0 0 0-8.328-12.937 93 93 0 0 0-10.506-11.557 92.7 92.7 0 0 0-12.166-9.578 92 92 0 0 0-13.538-7.407 92.2 92.2 0 0 0-21.252-6.49 93 93 0 0 0-10.638-1.257 96 96 0 0 0-5.824-.17"/><path fill="#000" d="M57 121.183v-8.941h10.651c2.338 0 4.47 1.995 4.47 4.471a4.46 4.46 0 0 1-4.47 4.47zm0-20.287v-8.94h7.51a4.46 4.46 0 0 1 4.471 4.47 4.46 4.46 0 0 1-4.47 4.47zm13.65 31.427c8.183 0 14.95-6.946 14.95-15.129 0-4.676-2.338-9.009-5.846-11.828 1.995-2.545 2.705-5.777 2.705-9.284 0-8.252-7.014-15.335-15.266-15.335h-23.74v51.576zM89.174 94.157h10.653v38.166h13.547V94.157h10.468V80.678H89.174z"/><path fill="#000" fill-rule="evenodd" d="M171.49 124.762a25.77 25.77 0 0 1-18.264 7.566c-14.25 0-25.819-11.579-25.819-25.83s11.569-25.819 25.819-25.819c7.126 0 13.59 2.893 18.264 7.566l-9.687 9.677a12.1 12.1 0 0 0-8.577-3.552c-6.695 0-12.129 5.434-12.129 12.128 0 6.695 5.434 12.14 12.129 12.14 3.353 0 6.385-1.362 8.577-3.563z" clip-rule="evenodd"/></svg>