<svg xmlns="http://www.w3.org/2000/svg" width="32" height="32"><g fill="none" fill-rule="evenodd"><circle cx="16" cy="16" r="16" fill="#fb2ea3"/><path fill="#fff" fill-rule="nonzero" d="M22.632 14.02c-.227 1.535-1.078 2.278-2.207 2.538 1.55.807 2.34 2.046 1.588 4.192-.933 2.666-3.149 2.89-6.096 2.333L15.2 25.95l-1.728-.431.706-2.828a66 66 0 0 1-1.378-.358l-.708 2.842-1.727-.43.716-2.873c-.404-.103-.814-.213-1.233-.318l-2.249-.56.858-1.98s1.274.34 1.256.314c.49.121.707-.198.793-.41l1.13-4.532.183.045a1.4 1.4 0 0 0-.18-.057l.806-3.235c.021-.368-.105-.83-.805-1.006.027-.018-1.256-.312-1.256-.312l.46-1.846 2.384.595-.002.01q.539.131 1.104.259L15.039 6l1.728.43-.694 2.784c.463.106.93.212 1.384.326l.69-2.765 1.728.43-.708 2.84c2.183.752 3.779 1.879 3.465 3.975m-3.95 5.538c.56-2.238-3.198-2.817-4.37-3.11l-.949 3.805c1.172.291 4.786 1.452 5.32-.695zm.535-5.569c.508-2.037-2.634-2.49-3.61-2.734l-.86 3.451c.975.244 3.983 1.236 4.47-.717m5.03 7.629a.64.64 0 0 0-.476.127.75.75 0 0 0-.25.432 1 1 0 0 0-.02.285.7.7 0 0 0 .102.306q.09.15.286.282.195.13.54.21.186.045.383.043.198 0 .366-.063a.73.73 0 0 0 .47-.541.7.7 0 0 0-.07-.525q-.138-.231-.454-.354l.154-.666q.57.23.8.655t.096 1.011a1.6 1.6 0 0 1-.265.6 1.37 1.37 0 0 1-.993.554 2 2 0 0 1-.642-.047 2.2 2.2 0 0 1-.615-.24 1.5 1.5 0 0 1-.453-.4 1.35 1.35 0 0 1-.238-.545 1.6 1.6 0 0 1 .025-.681 1.9 1.9 0 0 1 .183-.484q.121-.222.299-.375.177-.153.408-.222.232-.07.518-.029zm2.692-2.113a1.7 1.7 0 0 1-.269.619q-.185.255-.44.403a1.45 1.45 0 0 1-.572.182 2 2 0 0 1-.667-.046 2 2 0 0 1-.614-.25 1.45 1.45 0 0 1-.434-.414 1.4 1.4 0 0 1-.22-.556 1.7 1.7 0 0 1 .03-.673 1.7 1.7 0 0 1 .269-.619q.185-.256.441-.403a1.45 1.45 0 0 1 .572-.182q.315-.034.66.045a2 2 0 0 1 .62.25q.27.17.434.415.165.244.22.555a1.7 1.7 0 0 1-.03.674m-2.624-2.798.145-.625.584.135.003-.012a.7.7 0 0 1-.213-.17 1.14 1.14 0 0 1-.26-.555.8.8 0 0 1 .01-.312 1.5 1.5 0 0 1 .076-.247l.643.148-.053.139a1 1 0 0 0-.042.141.75.75 0 0 0 .132.64 1 1 0 0 0 .284.25q.178.11.43.168l1.438.332-.154.666zm2.28-2.19q.174.041.35.03a.9.9 0 0 0 .32-.084.74.74 0 0 0 .255-.206.85.85 0 0 0 .156-.345.82.82 0 0 0-.017-.5.76.76 0 0 0-.315-.353l.145-.631a1.29 1.29 0 0 1 .755 1.119q.015.24-.041.486-.083.357-.263.605a1.34 1.34 0 0 1-1.004.56 2.1 2.1 0 0 1-1.252-.296 1.6 1.6 0 0 1-.442-.41 1.4 1.4 0 0 1-.241-.54q-.067-.297.011-.637a1.4 1.4 0 0 1 .297-.606 1.5 1.5 0 0 1 .503-.38 1.6 1.6 0 0 1 .627-.14q.339-.012.668.107l-.513 2.222zm-.182 4.867a.79.79 0 0 0-.188-.733 1.1 1.1 0 0 0-.306-.234 1.6 1.6 0 0 0-.775-.18 1.1 1.1 0 0 0-.377.077.79.79 0 0 0-.487.577.79.79 0 0 0 .184.732q.124.14.306.234a1.6 1.6 0 0 0 .775.18 1.1 1.1 0 0 0 .378-.077.79.79 0 0 0 .49-.576m.102-6.523a1.1 1.1 0 0 0-.32-.003.77.77 0 0 0-.519.287.82.82 0 0 0-.15.624q.03.157.113.285a.9.9 0 0 0 .517.363z"/></g></svg>