<svg xmlns="http://www.w3.org/2000/svg" width="256" height="256" fill="none" viewBox="0 0 256 256"><rect width="256" height="256" fill="#fff" rx="60"/><path fill="#001f29" d="M106.519 37.613c-10.335-.005-20.652-.01-31.023.006-6.271 0-8.623 7.873-3.96 12.536l70.599 70.598c2.203 2.015 3.577 4.205 3.627 7.093-.05 2.887-1.424 5.077-3.627 7.092l-70.598 70.598c-4.664 4.664-2.312 12.536 3.959 12.536 10.37.016 20.688.011 31.023.006 5.174-.003 10.353-.006 15.545-.006 6.793 0 10.833-3.628 14.462-7.257l63.67-63.67c5.082-5.082 9.628-11.829 9.567-19.299.061-7.471-4.485-14.218-9.567-19.299l-63.67-63.67c-3.629-3.63-7.669-7.258-14.462-7.258-5.192 0-10.371-.003-15.545-.006"/></svg>