<svg xmlns="http://www.w3.org/2000/svg" width="1623" height="256" fill="none" viewBox="0 0 1623 256"><g clip-path="url(#a)"><rect width="256" height="256" fill="#fff" rx="60"/><path fill="#001f29" d="M106.241 37.614c-10.335-.006-20.652-.01-31.022.005-6.271 0-8.623 7.873-3.96 12.536l70.598 70.598c2.203 2.015 3.577 4.206 3.628 7.093-.051 2.887-1.425 5.077-3.628 7.093l-70.598 70.598c-4.663 4.663-2.311 12.536 3.96 12.536 10.37.016 20.688.01 31.022.005 5.175-.003 10.353-.005 15.546-.005 6.792 0 10.833-3.629 14.462-7.258l63.67-63.67c5.081-5.082 9.628-11.829 9.566-19.299.062-7.471-4.485-14.218-9.566-19.299l-63.67-63.67c-3.629-3.63-7.67-7.258-14.462-7.258-5.193 0-10.371-.003-15.546-.005"/><path fill="#fff" d="M1601.73 208.139c-22.46 0-32.96-11.721-32.96-32.477v-56.651h-8.79c-3.67 0-5.86-2.197-5.86-5.86v-11.477c0-3.663 2.19-5.86 5.86-5.86h8.79v-28.57c0-3.663 2.19-5.86 5.86-5.86h18.8c3.66 0 5.86 2.197 5.86 5.86v28.57h18.07c3.66 0 5.86 2.198 5.86 5.86v11.477c0 3.663-2.2 5.86-5.86 5.86h-18.07v51.768c0 13.186 8.06 13.674 15.14 13.674h1.71c3.66 0 5.86 2.198 5.86 5.86v11.965c0 3.663-2.2 5.861-5.86 5.861zM1493.17 210.58c-34.42 0-57.13-25.151-57.13-58.604s21.97-58.36 55.91-58.36c33.45 0 53.96 24.907 53.96 58.36v2.442c0 3.662-2.19 5.86-5.86 5.86h-74.71c2.93 15.14 13.92 24.174 27.83 24.174 11.24 0 18.32-3.906 22.96-8.058 2.68-2.441 5.12-2.93 8.05-.732l11.48 8.546c3.17 2.442 3.91 4.884 1.71 7.57-10.01 11.721-25.64 18.802-44.2 18.802m-27.34-69.592h51.52c-2.69-13.186-10.99-23.198-25.4-23.198-13.91 0-23.19 9.035-26.12 23.198M1393.23 208.139c-3.67 0-5.86-2.198-5.86-5.86v-147c0-3.662 2.19-5.86 5.86-5.86h19.04c3.66 0 5.86 2.198 5.86 5.86l-.24 147c0 3.662-2.2 5.86-5.86 5.86zM1340.4 208.139c-3.66 0-5.86-2.198-5.86-5.86v-147c0-3.662 2.2-5.86 5.86-5.86h19.05c3.66 0 5.86 2.198 5.86 5.86l-.24 147c0 3.662-2.2 5.86-5.86 5.86zM1249.73 210.093c-30.77 0-53.23-24.663-53.23-58.116 0-33.942 22.46-57.872 53.23-57.872 14.16 0 24.66 5.128 32.23 13.674v-6.104c0-3.663 2.2-5.86 5.86-5.86h18.8c3.66 0 5.86 2.197 5.86 5.86v100.604c0 3.663-2.2 5.86-5.86 5.86h-18.8c-3.66 0-5.86-2.197-5.86-5.86v-5.861c-7.57 8.547-18.07 13.675-32.23 13.675m4.39-28.814c16.85 0 27.84-12.453 27.84-29.302s-10.99-29.302-27.84-29.302c-16.84 0-28.08 12.453-28.08 29.302s11.24 29.302 28.08 29.302M1037.19 208.139c-3.42 0-5.86-1.709-6.84-4.884L981.274 56.012c-1.221-3.907.732-6.593 4.883-6.593h21.243c3.42 0 5.86 1.71 6.84 4.884l31.98 96.208 31.75-96.208c.97-3.175 3.17-4.884 6.59-4.884h12.94c3.42 0 5.86 1.71 6.84 4.884l31.01 92.302 30.76-92.302c.98-3.175 3.42-4.884 6.84-4.884h21.24c4.15 0 6.1 2.686 4.88 6.593L1150 203.255c-.98 3.175-3.42 4.884-6.84 4.884h-16.85c-3.42 0-5.86-1.709-6.84-4.884l-29.3-88.639-29.3 88.639c-.97 3.175-3.42 4.884-6.83 4.884zM904.354 208.139c-22.464 0-32.964-11.721-32.964-32.477v-56.651h-8.79c-3.662 0-5.86-2.197-5.86-5.86v-11.477c0-3.663 2.198-5.86 5.86-5.86h8.79v-28.57c0-3.663 2.198-5.86 5.861-5.86h18.801c3.662 0 5.86 2.197 5.86 5.86v28.57h18.068c3.663 0 5.861 2.198 5.861 5.86v11.477c0 3.663-2.198 5.86-5.861 5.86h-18.068v51.768c0 13.186 8.057 13.674 15.138 13.674h1.71c3.662 0 5.86 2.198 5.86 5.86v11.965c0 3.663-2.198 5.861-5.86 5.861zM795.801 210.58c-34.428 0-57.136-25.151-57.136-58.604s21.975-58.36 55.915-58.36c33.452 0 53.962 24.907 53.962 58.36v2.442c0 3.662-2.198 5.86-5.86 5.86h-74.716c2.93 15.14 13.917 24.174 27.835 24.174 11.232 0 18.313-3.906 22.952-8.058 2.686-2.441 5.128-2.93 8.058-.732l11.476 8.546c3.174 2.442 3.906 4.884 1.709 7.57-10.011 11.721-25.638 18.802-44.195 18.802m-27.347-69.592h51.52c-2.686-13.186-10.988-23.198-25.394-23.198-13.918 0-23.196 9.035-26.126 23.198M660.68 256c-17.825 0-32.963-6.105-43.463-15.873-2.93-2.686-2.441-5.616.489-8.302l10.987-9.279c2.686-2.442 5.372-2.197 8.302 0 7.814 6.349 16.36 7.814 23.685 7.814 10.499 0 29.544-5.86 29.544-30.035v-4.151c-7.569 8.547-18.312 13.919-32.474 13.919-30.766 0-52.985-24.663-52.985-58.116s22.219-57.872 52.985-57.872c14.162 0 24.905 5.128 32.474 13.919v-6.349c0-3.663 2.198-5.86 5.86-5.86h18.802c3.662 0 5.86 2.197 5.86 5.86v98.65c0 32.233-21.243 55.675-60.066 55.675m1.465-74.721c16.848 0 28.079-12.453 28.079-29.302s-11.231-29.302-28.079-29.302-27.836 12.453-27.836 29.302 10.988 29.302 27.836 29.302M574.449 208.139c-22.463 0-32.963-11.721-32.963-32.477v-56.651h-8.79c-3.663 0-5.86-2.197-5.86-5.86v-11.477c0-3.663 2.197-5.86 5.86-5.86h8.79v-28.57c0-3.663 2.198-5.86 5.86-5.86h18.801c3.663 0 5.861 2.197 5.861 5.86v28.57h18.068c3.663 0 5.86 2.198 5.86 5.86v11.477c0 3.663-2.197 5.86-5.86 5.86h-18.068v51.768c0 13.186 8.057 13.674 15.138 13.674h1.709c3.663 0 5.86 2.198 5.86 5.86v11.965c0 3.663-2.197 5.861-5.86 5.861zM495.323 79.21c-8.301 0-16.847-6.35-16.847-17.094 0-10.5 8.546-16.116 16.847-16.116 8.058 0 16.848 5.616 16.848 16.116 0 10.744-8.79 17.093-16.848 17.093m-9.522 128.929c-3.663 0-5.86-2.198-5.86-5.861V101.674c0-3.663 2.197-5.86 5.86-5.86h19.045c3.663 0 5.86 2.197 5.86 5.86l-.244 100.604c0 3.663-2.198 5.861-5.86 5.861zM341.86 208.139c-3.662 0-5.86-2.198-5.86-5.86v-147c0-3.662 2.198-5.86 5.86-5.86h68.124c24.417 0 46.148 15.872 46.148 44.686 0 15.139-5.86 25.395-14.894 31.744 12.208 6.837 20.754 18.802 20.754 36.383 0 28.814-23.196 45.907-47.613 45.907zm25.638-94.499h37.358c11.476 0 18.801-6.838 18.801-17.826s-7.325-17.581-18.801-17.581h-37.358zm0 65.685h41.753c12.697 0 20.266-8.79 20.266-19.779 0-10.988-8.057-19.779-20.266-19.779h-41.753z"/></g><defs><clipPath id="a"><path fill="#fff" d="M0 0h1623v256H0z"/></clipPath></defs></svg>