<svg width="137" height="36" viewBox="0 0 137 36" fill="none" xmlns="http://www.w3.org/2000/svg">
<path fill-rule="evenodd" clip-rule="evenodd" d="M18.2483 2.84578C18.8005 2.85473 19.1132 3.45537 18.8371 3.93377L8.74587 21.4122C8.61051 21.6467 8.36033 21.7911 8.08954 21.7911H3.90491C3.5591 21.7911 3.25515 21.5575 3.18208 21.2194C2.9579 20.1823 2.83984 19.1058 2.83984 18.0016C2.83984 9.63017 9.62624 2.84375 17.9977 2.84375C18.0814 2.84375 18.1649 2.84442 18.2483 2.84578ZM22.3678 3.4832C22.0414 3.38511 21.6944 3.53211 21.524 3.82719L19.482 7.36392C19.3467 7.5984 19.3467 7.88731 19.482 8.1218L29.7141 25.8443C29.9891 26.3204 30.6616 26.3527 30.9479 25.8832C32.3485 23.5867 33.1556 20.8884 33.1556 18.0016C33.1556 11.1494 28.6089 5.35916 22.3678 3.4832ZM28.3195 29.1022C28.5702 28.8689 28.6179 28.4929 28.4466 28.1963L26.2801 24.4438C26.1447 24.2093 25.8945 24.0648 25.6238 24.0648H5.25933C4.71293 24.0648 4.34865 24.625 4.60516 25.1074C7.15209 29.8978 12.194 33.1595 17.9977 33.1595C21.9854 33.1595 25.6133 31.6197 28.3195 29.1022ZM17.2942 11.1534C17.5859 10.6481 18.3152 10.6481 18.6069 11.1534L24.0923 20.6543C24.384 21.1596 24.0193 21.7911 23.4359 21.7911H12.4652C11.8818 21.7911 11.5172 21.1596 11.8089 20.6543L17.2942 11.1534Z" fill="#000000"/>
<path d="M35.2894 18C35.2894 27.5487 27.5486 35.2895 18 35.2895C8.45127 35.2895 0.710525 27.5487 0.710525 18C0.710525 8.45128 8.45127 0.710525 18 0.710525C27.5486 0.710525 35.2894 8.45128 35.2894 18Z" stroke="white" stroke-width="1.42105"/>
<path d="M50.6523 19.1839H46.4801C46.2201 19.1839 46.0088 18.9744 46.0064 18.7145L45.9902 16.9237C45.9878 16.6604 46.2006 16.4457 46.4638 16.4457H49.8829C50.5696 16.4457 51.1322 16.3527 51.5708 16.1666C52.0093 15.9716 52.3361 15.6925 52.5512 15.3292C52.7746 14.957 52.8863 14.5051 52.8863 13.9734C52.8863 13.3708 52.7787 12.8834 52.5636 12.5112C52.3568 12.1391 52.03 11.8688 51.5832 11.7004C51.1446 11.5321 50.5779 11.4479 49.8829 11.4479H47.7751C47.5135 11.4479 47.3014 11.66 47.3014 11.9216V27.2039C47.3014 27.4655 47.0893 27.6776 46.8277 27.6776H44.0518C43.7902 27.6776 43.5781 27.4655 43.5781 27.2039V8.7979C43.5781 8.53629 43.7902 8.32422 44.0518 8.32422H49.8829C50.9337 8.32422 51.8727 8.43056 52.7001 8.64323C53.5358 8.85591 54.2432 9.17935 54.8224 9.61356C55.4016 10.0478 55.8442 10.5972 56.1504 11.2618C56.4565 11.9175 56.6096 12.6973 56.6096 13.6012C56.6096 14.3987 56.44 15.1342 56.1007 15.8077C55.7698 16.4812 55.2444 17.0306 54.5245 17.4559C53.8501 17.8591 52.9787 18.0911 51.9104 18.1519C51.7956 18.1585 51.6861 18.204 51.6027 18.2831L50.6523 19.1839ZM50.491 27.6776H45.7369C45.3903 27.6776 45.161 27.3176 45.3077 27.0035L46.3175 24.8405C46.3953 24.6738 46.5627 24.5672 46.7467 24.5672H50.491C51.1446 24.5672 51.6783 24.4565 52.092 24.2349C52.5057 24.0045 52.8118 23.6944 53.0104 23.3045C53.209 22.9146 53.3083 22.4671 53.3083 21.962C53.3083 21.3948 53.2173 20.903 53.0352 20.4865C52.8615 20.0701 52.5802 19.751 52.1913 19.5295C51.8024 19.2991 51.2894 19.1839 50.6523 19.1839H47.5436C47.2803 19.1839 47.0675 18.9692 47.0699 18.7059L47.0862 16.9151C47.0885 16.6552 47.2999 16.4457 47.5598 16.4457H51.3299C51.4742 16.4457 51.6107 16.5116 51.7006 16.6245L52.2695 17.3399C52.3611 17.455 52.501 17.52 52.648 17.5221C53.6409 17.5357 54.4485 17.744 55.0706 18.1471C55.7491 18.5725 56.2414 19.1263 56.5475 19.8086C56.8619 20.491 57.0191 21.222 57.0191 22.0018C57.0191 23.2425 56.7668 24.2881 56.2621 25.1388C55.7574 25.9806 55.0168 26.6142 54.0405 27.0396C53.0725 27.4649 51.8893 27.6776 50.491 27.6776Z" fill="#000000"/>
<path d="M63.297 8.32422C63.5586 8.32422 63.7707 8.53629 63.7707 8.7979V27.2039C63.7707 27.4655 63.5586 27.6776 63.297 27.6776H60.5335C60.2719 27.6776 60.0598 27.4655 60.0598 27.2039V8.7979C60.0598 8.53629 60.2719 8.32422 60.5335 8.32422H63.297Z" fill="#000000"/>
<path d="M74.4916 8.32422C74.7532 8.32422 74.9653 8.53629 74.9653 8.7979V27.2039C74.9653 27.4655 74.7532 27.6776 74.4916 27.6776H71.7281C71.4665 27.6776 71.2545 27.4655 71.2545 27.2039V8.7979C71.2545 8.53629 71.4665 8.32422 71.7281 8.32422H74.4916ZM80.0517 8.32422C80.3133 8.32422 80.5254 8.53629 80.5254 8.7979V10.9742C80.5254 11.2358 80.3133 11.4479 80.0517 11.4479H66.2549C65.9933 11.4479 65.7812 11.2358 65.7812 10.9742V8.7979C65.7812 8.53629 65.9933 8.32422 66.2549 8.32422H80.0517Z" fill="#000000"/>
<path d="M93.8514 16.0625C94.113 16.0625 94.3251 16.2746 94.3251 16.5362V18.6424C94.3251 18.904 94.113 19.1161 93.8514 19.1161H85.3751C85.1135 19.1161 84.9015 18.904 84.9015 18.6424V16.5362C84.9015 16.2746 85.1135 16.0625 85.3751 16.0625H93.8514ZM85.5313 8.32422C85.7929 8.32422 86.005 8.53629 86.005 8.7979V26.8505C86.005 27.1121 85.7929 27.3242 85.5313 27.3242H82.7588C82.4972 27.3242 82.2852 27.1121 82.2852 26.8505V8.7979C82.2852 8.5363 82.4972 8.32422 82.7588 8.32422H85.5313ZM96.5049 8.32422C96.7665 8.32422 96.9786 8.53629 96.9786 8.7979V26.8505C96.9786 27.1121 96.7665 27.3242 96.5049 27.3242H93.7448C93.4832 27.3242 93.2712 27.1121 93.2712 26.8505V8.7979C93.2712 8.5363 93.4832 8.32422 93.7448 8.32422H96.5049Z" fill="#9FCEFB"/>
<path d="M103.697 8.32422C103.958 8.32422 104.17 8.53629 104.17 8.7979V26.8505C104.17 27.1121 103.958 27.3242 103.697 27.3242H100.937C100.675 27.3242 100.463 27.1121 100.463 26.8505V8.7979C100.463 8.5363 100.675 8.32422 100.937 8.32422H103.697Z" fill="#9FCEFB"/>
<path d="M113.197 27.3242H109.744C109.481 27.3242 109.268 27.1098 109.27 26.8467L109.288 24.7405C109.29 24.4804 109.501 24.2706 109.761 24.2706H113.197C114.173 24.2706 114.995 24.0401 115.665 23.579C116.334 23.1092 116.839 22.4263 117.177 21.5303C117.525 20.6342 117.698 19.5511 117.698 18.2809V17.3544C117.698 16.3801 117.599 15.5232 117.401 14.7837C117.211 14.0442 116.925 13.4222 116.545 12.9176C116.165 12.413 115.698 12.0346 115.144 11.7823C114.59 11.5213 113.954 11.3908 113.234 11.3908H109.666C109.404 11.3908 109.192 11.1788 109.192 10.9172V8.7979C109.192 8.53629 109.404 8.32422 109.666 8.32422H113.234C114.441 8.32422 115.545 8.54171 116.545 8.97669C117.554 9.40297 118.426 10.0163 119.161 10.8167C119.897 11.617 120.463 12.574 120.86 13.6875C121.265 14.7924 121.468 16.0234 121.468 17.3805V18.2809C121.468 19.6294 121.265 20.8604 120.86 21.9739C120.463 23.0875 119.897 24.0445 119.161 24.8448C118.434 25.6365 117.562 26.2498 116.545 26.6848C115.537 27.1111 114.421 27.3242 113.197 27.3242ZM110.901 8.32422C111.162 8.32422 111.374 8.53629 111.374 8.7979V26.8505C111.374 27.1121 111.162 27.3242 110.901 27.3242H108.128C107.867 27.3242 107.655 27.1121 107.655 26.8505V8.7979C107.655 8.5363 107.867 8.32422 108.128 8.32422H110.901Z" fill="#9FCEFB"/>
<path d="M135.811 24.2706C136.073 24.2706 136.285 24.4827 136.285 24.7443V26.8505C136.285 27.1121 136.073 27.3242 135.811 27.3242H127.149C126.888 27.3242 126.676 27.1121 126.676 26.8505V24.7443C126.676 24.4827 126.888 24.2706 127.149 24.2706H135.811ZM127.417 8.32422C127.679 8.32422 127.891 8.53629 127.891 8.7979V26.8505C127.891 27.1121 127.679 27.3242 127.417 27.3242H124.644C124.383 27.3242 124.171 27.1121 124.171 26.8505V8.7979C124.171 8.5363 124.383 8.32422 124.644 8.32422H127.417ZM134.559 16.0625C134.821 16.0625 135.033 16.2746 135.033 16.5362V18.5641C135.033 18.8257 134.821 19.0378 134.559 19.0378H127.149C126.888 19.0378 126.676 18.8257 126.676 18.5641V16.5362C126.676 16.2746 126.888 16.0625 127.149 16.0625H134.559ZM135.799 8.32422C136.061 8.32422 136.273 8.53629 136.273 8.7979V10.9172C136.273 11.1788 136.061 11.3908 135.799 11.3908H127.149C126.888 11.3908 126.676 11.1788 126.676 10.9172V8.7979C126.676 8.53629 126.888 8.32422 127.149 8.32422H135.799Z" fill="#9FCEFB"/>
</svg>
