<svg xmlns="http://www.w3.org/2000/svg" width="143" height="37" fill="none"><path fill="#f3f5f0" d="M48.384 7.714c2.015 0 3.57.46 4.723 1.44a4.62 4.62 0 0 1 1.64 3.746 4.9 4.9 0 0 1-.865 2.938 5.1 5.1 0 0 1-2.392 1.698 4.604 4.604 0 0 1 4.103 4.985c0 2.077-.718 3.574-2.13 4.555-1.21.82-2.913 1.23-5.1 1.23h-9.395V7.715zm-6.257 8.73h5.416c1.44 0 2.462-.262 3.11-.75s.952-1.325.952-2.42c0-1.096-.316-1.785-.952-2.25-.636-.463-1.67-.717-3.053-.717h-5.473v6.138Zm0 9.25h5.818a6.6 6.6 0 0 0 3.114-.637 2.83 2.83 0 0 0 1.412-2.593c0-1.21-.378-2.1-1.096-2.65s-1.842-.821-3.344-.821h-5.904zm19.867-12.306v14.894h-3.045V13.388zm0-2.622h-3.045V7.714h3.053zm59.469 17.516V13.388h3.049v3.246c.553-1.674 2.223-3.246 4.923-3.246h1.022v3.049h-1.51c-2.819 0-4.456 1.112-4.456 2.786v9.06h-3.028Zm-4.731-13.655q-1.556-1.641-4.841-1.64c-1.847 0-3.344.315-4.44 1.004a5.1 5.1 0 0 0-2.392 3.574l3.028.263a2.64 2.64 0 0 1 1.297-1.847 4.5 4.5 0 0 1 2.306-.517q3.373.001 3.368 3.11v.201h-4.632c-2.142 0-3.82.735-5.006 2.233a4.24 4.24 0 0 0-.956 2.703c0 2.528 2.199 4.575 4.924 4.575.266 0 1.034-.029 1.456-.086q.229-.03.452-.09a7.6 7.6 0 0 0 1.813-.546 6.2 6.2 0 0 0 1.929-1.547v2.265h3.056v-9.507c-.008-1.813-.471-3.212-1.362-4.148m-1.703 7.5c-.073 1.035-.533 2.331-1.382 3.045-.919.78-2.019.776-3.316.776a2.9 2.9 0 0 1-1.871-.575 1.69 1.69 0 0 1-.718-1.411c0-1.724 1.231-2.68 3.66-2.848h3.627v1.014ZM97.382 7.714 89.537 24.93l-7.84-17.216h-3.53v20.572h3.058V13.388l6.786 14.898h3.053l6.803-14.93v14.93h3.056V7.714zm41.519 17.975v-9.252h3.389v-3.049h-3.389V9.24h-3.049v4.148h-2.757v3.049h2.757v8.616c0 1.974 1.116 3.22 3.217 3.22h3.221V25.69h-3.389Zm-67.667 0v-9.252h3.389v-3.049h-3.39V9.24H68.19v4.148h-2.761v3.049h2.761v8.616c0 1.974 1.112 3.22 3.217 3.22h3.217V25.69h-3.39Zm-51.542.176H8.609v.969h11.083zm-8.309 6.024H3.07v.968h8.313zM5.832 25.87H.3v.968h5.53v-.969Zm13.86-2.803h-8.313v.968h8.313zm-11.091 0H3.074v.968h5.527zm11.091-12.518H5.836v.968h13.856zM8.601 7.328h-5.53v.968H8.6v-.968Z"/><path fill="#f3f5f0" d="M27.04 16.638v-.025c3.045-5.317 1.202-12.1-4.115-15.144A11.05 11.05 0 0 0 17.439 0H5.836v1.387h11.636c5.358.02 9.687 4.382 9.667 9.74 0 .858-.12 1.707-.35 2.536a8.486 8.486 0 0 0-8.246-10.41H8.609v1.388h9.946a7.08 7.08 0 0 1 7.082 7.09 7.2 7.2 0 0 1-.332 2.145 5.55 5.55 0 0 0-5.334-6.975h-8.617v1.4h8.576a4.17 4.17 0 0 1 3.619 6.224 11.2 11.2 0 0 0-3.874-.698H8.597v1.387h11.078a9.71 9.71 0 0 1 9.536 7.894 8.32 8.32 0 0 0-8.1-6.458H5.831v1.375h15.3a6.926 6.926 0 0 1 6.832 5.937 5.545 5.545 0 0 0-5.444-4.542H5.839v1.386h16.675a4.16 4.16 0 0 1 4.157 4.157 4.16 4.16 0 0 1-4.156 4.156H3.07v1.387h19.45a5.54 5.54 0 0 0 5.444-4.542 6.925 6.925 0 0 1-6.852 5.925h-6.975v1.387h6.975a8.32 8.32 0 0 0 7.993-6.036 9.71 9.71 0 0 1-9.408 7.385H5.852v1.387h13.823c6.118.029 11.103-4.907 11.132-11.025a11.07 11.07 0 0 0-3.746-8.357l-.02.008Z"/></svg>