<svg xmlns="http://www.w3.org/2000/svg" xml:space="preserve" id="Layer_1" x="0" y="0" viewBox="0 0 202.2 56"><style>.st0{fill-rule:evenodd;clip-rule:evenodd;fill:#fff}</style><path d="M32.7 40.7c0-.7-.5-1.2-1.2-1.2-1.1.1-2.7.1-3.7.1-6.4 0-11.5-5.2-11.5-11.6V.4c0-.2-.2-.4-.4-.4H.3Q0 0 0 .3V28c0 15.4 12.5 28 27.8 28 1.5 0 3.1-.1 4.5-.4.2 0 .3-.2.3-.4V40.7zM27.8 0c-1.6 0-3.1.1-4.6.4-.2 0-.3.2-.3.4v14.6c0 .7.5 1.2 1.2 1.2.6-.1 3.7-.1 3.7-.1 6.4 0 11.5 5.2 11.5 11.6v25.2c0 .1.1.2.2.1C49.1 49 55.7 39.3 55.7 28c0-15.5-12.5-28-27.9-28M188.4 16.1c-10.3 0-14.8 7-14.8 16.4 0 9.3 5.4 14.9 13.9 14.9 10.3 0 14.8-6.9 14.8-16.2-.1-9.3-5.4-15.1-13.9-15.1m3.4 23.4c-1.1.8-2.4 1.2-4.2 1.2-3.4 0-5.5-3-5.5-8.3 0-3 .6-5.6 1.6-7 1.1-.9 2.5-1.3 4.2-1.3 3.7 0 5.5 3 5.5 7.4-.1 3.3-.6 6.2-1.6 8m-32.2-10.6c-4.5-.8-5.5-1.3-5.5-2.7 0-.7.2-1.3.5-1.6 1.1-.4 2.9-.6 4.7-.6 3.6 0 6.7.5 9.3 1.4v-7.1c-2-1-5.4-2-10-2-7.9 0-12.8 3.7-12.8 10.1 0 6.1 3.6 8 10.2 9.2 4.9.9 5.9 1.4 5.9 2.9 0 .7-.2 1.2-.4 1.5-1.2.4-2.9.7-5.4.7-3.3 0-7.2-.7-9.5-1.5v7c2.5 1 6.3 1.5 9.8 1.5 8.4 0 13.8-2.6 13.8-9.4 0-6-3.5-8.1-10.6-9.4m-63.5-1.4c2.8-1.6 5.2-4.3 5.2-8.2 0-6.5-5-10-15.5-10H70.7v37.6h17.5c9.3 0 14.1-3.6 14.1-10.7 0-4.7-2.7-7.3-6.2-8.7m-16.2-11c1.5-.1 3.3-.1 5.4-.1 4.8 0 6.9 1.4 6.9 4.6 0 1.8-.7 3-2.3 4.2-1.3.3-2.7.4-4.5.4-2.1 0-4-.1-5.5-.1zm11.7 23.8c-1.2.3-3.2.4-4.9.4-2.8 0-5.1-.1-6.8-.1v-8.7h6.5c4.7 0 6.7 1.4 6.7 4.5q-.15 2.25-1.5 3.9m16.8 6.6h8.8V16.7h-8.8zm25.2-37.7-8.5.7v28.5c0 5.6 2.6 9 9 9 2.7 0 4.9-.5 6.8-1.3v-7c-1.8.7-3.4 1-5.1 1-1.5 0-2.2-.8-2.2-2.2V23.7h7.2v-7h-7.2zm-16.3 2.3V4l-8.8.7v6.9h8.8z" class="st0"/></svg>