<svg version="1.1" id="Layer_1" xmlns:x="ns_extend;" xmlns:i="ns_ai;" xmlns:graph="ns_graphs;" xmlns="http://www.w3.org/2000/svg" xmlns:xlink="http://www.w3.org/1999/xlink" x="0px" y="0px" viewBox="0 0 202.2 56" style="enable-background:new 0 0 202.2 56;" xml:space="preserve">
 <style type="text/css">
  .st0{fill-rule:evenodd;clip-rule:evenodd;fill:#FFFFFF;}
 </style>
 <metadata>
  <sfw xmlns="ns_sfw;">
   <slices>
   </slices>
   <sliceSourceBounds bottomLeftOrigin="true" height="56" width="202.2" x="-39.5" y="-213.8">
   </sliceSourceBounds>
  </sfw>
 </metadata>
 <g>
  <path class="st0" d="M32.7,40.7c0-0.7-0.5-1.2-1.2-1.2c-1.1,0.1-2.7,0.1-3.7,0.1c-6.4,0-11.5-5.2-11.5-11.6V0.4
		c0-0.2-0.2-0.4-0.4-0.4H0.3C0.1,0,0,0.1,0,0.3V28c0,15.4,12.5,28,27.8,28c1.5,0,3.1-0.1,4.5-0.4c0.2,0,0.3-0.2,0.3-0.4V40.7z">
  </path>
  <path class="st0" d="M27.8,0c-1.6,0-3.1,0.1-4.6,0.4c-0.2,0-0.3,0.2-0.3,0.4v14.6c0,0.7,0.5,1.2,1.2,1.2c0.6-0.1,3.7-0.1,3.7-0.1
		c6.4,0,11.5,5.2,11.5,11.6h0v25.2c0,0.1,0.1,0.2,0.2,0.1C49.1,49,55.7,39.3,55.7,28C55.7,12.5,43.2,0,27.8,0z">
  </path>
  <path class="st0" d="M188.4,16.1c-10.3,0-14.8,7-14.8,16.4c0,9.3,5.4,14.9,13.9,14.9c10.3,0,14.8-6.9,14.8-16.2
		C202.2,21.9,196.9,16.1,188.4,16.1z M191.8,39.5c-1.1,0.8-2.4,1.2-4.2,1.2c-3.4,0-5.5-3-5.5-8.3c0-3,0.6-5.6,1.6-7
		c1.1-0.9,2.5-1.3,4.2-1.3c3.7,0,5.5,3,5.5,7.4C193.3,34.8,192.8,37.7,191.8,39.5z M159.6,28.9c-4.5-0.8-5.5-1.3-5.5-2.7
		c0-0.7,0.2-1.3,0.5-1.6c1.1-0.4,2.9-0.6,4.7-0.6c3.6,0,6.7,0.5,9.3,1.4v-7.1c-2-1-5.4-2-10-2c-7.9,0-12.8,3.7-12.8,10.1
		c0,6.1,3.6,8,10.2,9.2c4.9,0.9,5.9,1.4,5.9,2.9c0,0.7-0.2,1.2-0.4,1.5c-1.2,0.4-2.9,0.7-5.4,0.7c-3.3,0-7.2-0.7-9.5-1.5v7
		c2.5,1,6.3,1.5,9.8,1.5c8.4,0,13.8-2.6,13.8-9.4C170.2,32.3,166.7,30.2,159.6,28.9z M96.1,27.5c2.8-1.6,5.2-4.3,5.2-8.2
		c0-6.5-5-10-15.5-10H70.7v37.6h17.5c9.3,0,14.1-3.6,14.1-10.7C102.3,31.5,99.6,28.9,96.1,27.5z M79.9,16.5c1.5-0.1,3.3-0.1,5.4-0.1
		c4.8,0,6.9,1.4,6.9,4.6c0,1.8-0.7,3-2.3,4.2c-1.3,0.3-2.7,0.4-4.5,0.4c-2.1,0-4-0.1-5.5-0.1V16.5z M91.6,40.3
		c-1.2,0.3-3.2,0.4-4.9,0.4c-2.8,0-5.1-0.1-6.8-0.1v-8.7h6.5c4.7,0,6.7,1.4,6.7,4.5C93,37.9,92.5,39.2,91.6,40.3z M108.4,46.9h8.8
		V16.7h-8.8V46.9z M133.6,9.2l-8.5,0.7v28.5c0,5.6,2.6,9,9,9c2.7,0,4.9-0.5,6.8-1.3v-7c-1.8,0.7-3.4,1-5.1,1c-1.5,0-2.2-0.8-2.2-2.2
		V23.7h7.2v-7h-7.2V9.2z M117.3,11.5V4l-8.8,0.7v6.9H117.3z">
  </path>
 </g>
</svg>