<svg version="1.1" id="Layer_1" xmlns="http://www.w3.org/2000/svg" viewBox="0 0 55.7 56" style="enable-background:new 0 0 55.7 56;">
  <g>
    <path fill="#5463FF" fill-rule="evenodd" clip-rule="evenodd" d="M32.7,40.7c0-0.7-0.5-1.2-1.2-1.2c-1.1,0.1-2.7,0.1-3.7,0.1c-6.4,0-11.5-5.2-11.5-11.6V0.4
      c0-0.2-0.2-0.4-0.4-0.4H0.3C0.1,0,0,0.1,0,0.3V28c0,15.4,12.5,28,27.8,28c1.5,0,3.1-0.1,4.5-0.4c0.2,0,0.3-0.2,0.3-0.4V40.7z"/>
    <path fill="#5463FF" fill-rule="evenodd" clip-rule="evenodd" d="M27.8,0c-1.6,0-3.1,0.1-4.6,0.4c-0.2,0-0.3,0.2-0.3,0.4v14.6c0,0.7,0.5,1.2,1.2,1.2c0.6-0.1,3.7-0.1,3.7-0.1
      c6.4,0,11.5,5.2,11.5,11.6h0v25.2c0,0.1,0.1,0.2,0.2,0.1C49.1,49,55.7,39.3,55.7,28C55.7,12.5,43.2,0,27.8,0z"/>
  </g>
</svg>
