<svg xmlns="http://www.w3.org/2000/svg" width="118" height="28" fill="none" viewBox="0 0 118 28"><path fill="#5463ff" d="M0 13.991C0 21.511 6.616 27.5 13.675 27.5c.646 0 1.69-.141 3.106-.419a.37.37 0 0 0 .303-.363M27.079 13.864C27.079 6.344 21.286.5 13.675.5h-3.031a.37.37 0 0 0-.374.368v6.528a.37.37 0 0 0 .372.368h2.824c3.532 0 6.267 2.689 6.267 6.179l.003 11.65c0 .28.312.457.554.309 4.238-2.599 6.787-7.483 6.787-12.038M63.213.81H57.59v4.76h5.623zM63.133 8.68h-5.462V26.68h5.462zM90.263 15.184l-4.176-.872c-1.406-.317-2.37-.793-2.37-1.983 0-1.089 1.27-1.74 3.052-1.74 2.108 0 3.605.755 4.298 2.534l5.02-1.15c-.965-3.016-3.815-5.475-9.157-5.475-4.82 0-8.072 2.46-8.072 6.07 0 3.372 2.37 4.563 6.345 5.435l3.373.754c1.767.396 2.77.991 2.77 2.221 0 1.38-1.33 2.138-3.373 2.138-2.339 0-4.02-1.034-4.738-3.288L78.336 20.9c.924 3.411 3.856 6.308 9.477 6.308 5.62 0 8.433-2.896 8.433-6.506 0-3.094-2.129-4.722-5.984-5.515zM71.758.81H66.79v19.365c0 4.284 2.076 6.506 6.453 6.506h2.932v-4.483h-2.33c-1.324 0-2.088-.714-2.088-2.062v-9.33h4.417V6.482h-4.417zM107.889 6.497c-5.584 0-10.112 4.635-10.112 10.354 0 5.72 4.528 10.355 10.112 10.355 5.583 0 10.111-4.636 10.111-10.355s-4.528-10.354-10.111-10.354m0 16.04c-3.024 0-5.476-2.546-5.476-5.687 0-3.14 2.452-5.687 5.476-5.687s5.475 2.546 5.475 5.687c0 3.14-2.451 5.688-5.475 5.688M45.557 6.497c-2.148 0-4.651.687-6.289 1.856V.796h-5.42v25.888h5v-2.056l.394-.005.04.052c1.558 1.822 3.933 2.532 6.273 2.532 5.584 0 10.112-4.635 10.112-10.355 0-5.719-4.528-10.354-10.112-10.354zm-.516 16.23c-3.024 0-5.476-2.63-5.476-5.876 0-3.245 2.452-5.875 5.476-5.875s5.74 2.63 5.74 5.875-2.716 5.876-5.74 5.876"/></svg>