<svg xmlns="http://www.w3.org/2000/svg" width="390" height="94" fill="none" viewBox="0 0 390 94"><path fill="#c4e648" d="M.93 35.653c0 1.578.653 3.091 1.815 4.206a6.33 6.33 0 0 0 4.384 1.743h26.523c2.365.003 4.703.48 6.865 1.399a17 17 0 0 1 5.69 3.942 16.2 16.2 0 0 1 3.546 5.812 15.7 15.7 0 0 1 .795 6.692c-.823 8.438-8.563 14.718-17.392 14.718H11.53l-.31-17.701h22.45c5.181-.018 10.243-1.495 14.558-4.249-1.48-3.52-4.292-6.373-7.873-7.988a17.5 17.5 0 0 1-7.084 1.522H6.987a6.3 6.3 0 0 0-2.316.44 6.1 6.1 0 0 0-1.963 1.257 5.8 5.8 0 0 0-1.311 1.884 5.6 5.6 0 0 0-.458 2.222c0 9.28.053 26.453 0 26.785 0 1.577.653 3.09 1.815 4.206a6.33 6.33 0 0 0 4.384 1.742H33.66a28.6 28.6 0 0 0 10.794-2.12 27.7 27.7 0 0 0 9.07-6.001 26.4 26.4 0 0 0 5.902-8.928 25.5 25.5 0 0 0 1.792-10.432c-.566-14.318-13.283-25.442-28.232-25.442H11.53V11.605h22.14c9.572 0 17.33 8.039 16.958 17.769a16.4 16.4 0 0 1-1.213 5.608 29.2 29.2 0 0 1 4.853 3.816 29 29 0 0 1 3.285 3.84 27.87 27.87 0 0 0 3.72-13.417C61.529 13.67 48.573.949 33.147.949H6.978a6.3 6.3 0 0 0-2.314.439c-.734.29-1.4.717-1.962 1.256a5.8 5.8 0 0 0-1.312 1.88 5.6 5.6 0 0 0-.46 2.22z"/><path fill="#fff" d="M97.645 75.394V15.449h25.266q5.632 0 9.735 2.012 4.104 1.931 6.277 5.632 2.172 3.621 2.172 8.61 0 4.344-2.253 7.965-2.172 3.54-6.839 5.633v-4.023q4.103 1.608 6.678 4.103 2.575 2.414 3.701 5.471a17.4 17.4 0 0 1 1.207 6.438q0 8.448-5.552 13.276-5.471 4.828-15.046 4.828zm9.495-8.449h16.575q4.747 0 7.564-2.575 2.816-2.655 2.816-7 0-4.426-2.816-7-2.817-2.655-7.564-2.655H107.14zm0-27.599h16.012q3.862 0 6.196-2.172 2.333-2.253 2.333-5.874t-2.333-5.632q-2.334-2.012-6.196-2.012H107.14zM152.471 75.394v-43.53h9.092v43.53zm0-49.485V15.45h9.092v10.46zM191.022 75.876q-6.84 0-10.621-3.862t-3.782-10.862V40.07h-7.644v-8.208h1.207q3.058 0 4.747-1.77t1.69-4.828v-3.379h9.092v9.977h9.897v8.208h-9.897v20.678q0 2.253.725 3.863.723 1.528 2.333 2.413 1.609.805 4.184.805.644 0 1.448-.08.805-.081 1.529-.161v7.805q-1.126.16-2.494.321-1.368.162-2.414.161M215.343 75.394l-14.966-43.53h9.656l11.426 34.679h-3.38l11.667-34.68h8.288l11.586 34.68h-3.379l11.506-34.68h9.656l-15.047 43.53h-8.207L232.401 39.91h2.978l-11.748 35.484zM277.498 93.095q-1.61 0-3.218-.322a11.5 11.5 0 0 1-2.817-.804v-7.805q.966.24 2.334.402 1.368.242 2.655.242 3.782 0 5.552-1.69 1.85-1.61 3.299-4.989l2.897-6.598-.161 7.644-18.829-47.312h9.736l13.92 36.289h-3.299l13.84-36.289h9.816l-19.23 48.278q-1.529 3.862-3.862 6.759-2.253 2.976-5.391 4.586-3.058 1.61-7.242 1.61M319.446 75.394v-43.53h8.69v8.77l-.805-1.288q1.448-4.264 4.667-6.115 3.22-1.93 7.724-1.93h2.656v8.287h-3.782q-4.506 0-7.322 2.816-2.736 2.736-2.736 7.885v25.105zM369.035 76.36q-6.518 0-11.586-2.978-4.99-3.057-7.805-8.207-2.816-5.23-2.816-11.667 0-6.599 2.816-11.667 2.897-5.07 7.724-7.966 4.828-2.977 10.943-2.977 4.909 0 8.77 1.69 3.863 1.69 6.518 4.666a19.7 19.7 0 0 1 4.023 6.679q1.449 3.78 1.448 8.046 0 1.046-.08 2.172a12 12 0 0 1-.322 2.092h-34.679v-7.241h29.529l-4.345 3.299q.805-3.943-.563-7-1.287-3.138-4.023-4.909-2.655-1.85-6.276-1.85t-6.437 1.85q-2.816 1.77-4.345 5.15-1.528 3.3-1.207 8.046-.402 4.425 1.207 7.725 1.69 3.298 4.667 5.15 3.057 1.85 6.92 1.85 3.942 0 6.678-1.77 2.816-1.77 4.425-4.587l7.403 3.621q-1.287 3.058-4.023 5.552-2.655 2.415-6.437 3.862-3.701 1.368-8.127 1.368"/></svg>