<svg xmlns="http://www.w3.org/2000/svg" width="658" height="136" fill="none" viewBox="0 0 658 136"><path fill="#000" d="m654.268 38.11-25.2-18.55h-93.24l-6.066 18.55h49.186l-26.412 80.075h20.346l26.32-80.076zM306.321 19.56l-25.294 18.55h95.388l6.16-18.55zM281.025 38.11l-26.412 80.075h20.346l22.494-68.23z"/><path fill="#000" d="m382.575 19.56-27.534 83.473 9.614-.735-39.48-29.477h-29.308l58.52 45.364h15.96l28.654-86.78zM135.053 67.954l23.987-11.662 8.213-24.886-16.427-11.846H41.066L15.68 38.11h128.986l-6.813 20.936H86.146l-5.04 15.152h51.707l-14.467 43.987 24.174-11.846 8.68-26.355-16.24-11.755z"/><path fill="#000" d="m52.175 99.268 14.933-45.731-16.613-12.214-24.827 76.862h92.68l6.16-18.917zM198.426 29.753 182 17.907l-26.6 80.535-2.334 7.07 17.454 12.673h73.734l6.252-18.917h-75.04zM421.774 59.506l3.266-9.642-16.334-11.755-9.332 28.1 16.24 11.663v.092h72.8l-7 21.304h-92.68l-6.16 18.917h92.586l24.266-11.846 11.948-36.181-15.028-10.836z"/><path fill="#000" d="m433.907 19.56-25.2 18.55h110.974l6.16-18.55z"/></svg>