<svg xmlns="http://www.w3.org/2000/svg" viewBox="0 0 682.8 185.4"><defs><style>.cls-3{fill:#4da2d3}.cls-6{fill:#6aacd1}.cls-10{fill:#056db5}.cls-12{fill:#0086ff}.cls-21{fill:#54a4d3}.cls-22{fill:#134f7e}.cls-23{fill:#38c3e3}.cls-28{fill:#1c3a69}.cls-30{fill:#98cbe6}.cls-32{fill:#72cde6}.cls-36{fill:#2d68b1}</style></defs><g id="Logo"><g id="BL_2021"><g id="_Группа_1" data-name="Группа_1"><path id="_Фигура_117" d="M82 62.6h11.3c.8 0 1.6.1 2.3.3l.6-17.5-14.3 17.2Z" data-name="Фигура_117" style="fill:#1390cf"/><path id="_Фигура_42" d="m102.1 49-5.9-3.5v.7L95.6 63c.3 0 .5.1.8.2l2-1.9 3.7-7.4.8-3.1z" data-name="Фигура_42" style="fill:#33c0dd"/><path id="_Фигура_41" d="M105.4 45.3c-1 0-2 0-3 .2v3.8l.5.7 4.7.6h6.2l5.8-.2c-3.8-3.2-8.8-5.1-14.1-5.1Z" data-name="Фигура_41" style="fill:#0099d6"/><path id="_Фигура_40" d="m119.3 50.3-16.9-.9-6.7 13.4v.2c.3 0 .7.2 1 .3l8.2-1.9 8.6-5.5 7.6-4.2-1.7-1.3Z" data-name="Фигура_40" style="fill:#96d8ed"/><path id="_Фигура_39" d="M119.6 50.5c-.1 0-.2-.2-.3-.3L95.6 62.9c4.5 1.1 7.8 5.2 7.8 10h.5l6.9-4.5 6.8-9 2.3-8z" data-name="Фигура_39" style="fill:#1ba0da"/><path id="_Фигура_38" d="m119.4 50.3-15.9 22.8 11.4 2.3 9.6-4 2.8-1c.1-1 .2-1.9.2-2.9 0-7-3.2-13.2-8.2-17.3Z" data-name="Фигура_38" style="fill:#1190cf"/><path id="_Фигура_37" d="m127.6 67.3-24 5.7v.2c-.1.5-.2 1.1-.3 1.6l1.5 4.5 6.3 8.1 3.1.6c7.9-3.4 13.4-11.3 13.4-20.4v-.2Z" class="cls-10" data-name="Фигура_37"/><path id="_Фигура_36" d="M102.4 77.5c-1.6 3.2-4.8 5.5-8.5 5.8s-12.9 0-12.9 0l14.5 16.4h.7l1.2-1.2 4.4-11.7 1.2-6.7-.6-2.5Z" class="cls-28" data-name="Фигура_36"/><path id="_Фигура_35" d="M103.4 72.7v.2c0 2.3-.7 4.3-1.9 6l-6 20.8H97c1.1 0 2.2.1 3.3.4h1.9l6.3-5.3 4.1-3.9 2.1-2.8-11.2-15.4Z" data-name="Фигура_35" style="fill:#005893"/><path id="_Фигура_34" d="m117.5 91.6-1.7-3.2c-.3-.1-.7-.2-1-.3L95.7 99.8H97c6.9 0 12.4 5.6 12.4 12.5v1.1l5.3-3 3.5-6.4-.6-12.3Z" class="cls-10" data-name="Фигура_34"/><path id="_Фигура_33" d="m114.7 88-5.3 23.9v1.3l8.7 3 16.7.2v-1.9c0-12.6-8.5-23.3-20-26.5Z" data-name="Фигура_33" style="fill:#005d9d"/><path id="_Фигура_32" d="m134.6 112.4-25.3-.3c0 1.5-.2 2.8-.7 4.1l.6 5 2.7 7 5.8 8.4 3.3 1.6c8.1-4.8 13.6-13.6 13.6-23.8v-2.1Z" class="cls-28" data-name="Фигура_32"/><path id="_Фигура_31" d="M109.4 112.1c0 6.9-5.6 12.5-12.4 12.5h-1.8l.5 6.4 16.1 6.2 7 2.3c1-.5 2-1 3-1.6z" class="cls-22" data-name="Фигура_31"/><path id="_Фигура_30_копия" d="M96.4 124.6h-1.8l-2.7 12.7-1.1 4.7h16.8c5.3 0 10.2-1.6 14.4-4.2l-25.5-13.3Z" class="cls-28" data-name="Фигура_30_копия"/><path id="_Фигура_29" d="M96.3 124.6H79.7l-.4.2 1.8 5.3 6.4 10.1 3.1 1.9H94v-.1z" class="cls-22" data-name="Фигура_29"/><path id="_Фигура_28" d="m79.7 124.6-1.1.7c0 .2-.1.3-.1.3l-3.2 7.2-.8 1.6v7.7H94l-14.4-17.5Z" class="cls-10" data-name="Фигура_28"/><path id="_Фигура_27" d="M74.5 128.1v13.7l5.2-17.1z" data-name="Фигура_27" style="fill:#1d4d82"/><path id="_Фигура_8" d="m49.1 45.2-9.3 9.4 14.9.3z" class="cls-3" data-name="Фигура_8"/><path id="_Фигура_9" d="m59.2 45.2-3 8.6 12-1.1z" class="cls-36" data-name="Фигура_9"/><path id="_Фигура_8_копия" d="m39.4 133.9 8.2 8.3 4.9-8.6z" data-name="Фигура_8_копия" style="fill:#50a2d2"/><path id="_Фигура_13" d="M89.8 34.8v8.9l7.2-8.9z" class="cls-6" data-name="Фигура_13"/><path id="_Фигура_13_копия" d="m60.8 35.8 11.5 6.6.3-6.1z" class="cls-32" data-name="Фигура_13_копия"/><path id="_Фигура_23" d="m91.7 143.3-.4 8.6h8.2z" data-name="Фигура_23" style="fill:#42467f"/><path id="_Фигура_24" d="m96.2 145.6 7.8 8.6v-8.6z" class="cls-28" data-name="Фигура_24"/><path id="_Фигура_26" d="m60.1 144-.5 7.9 10.8.6z" class="cls-30" data-name="Фигура_26"/><path id="_Фигура_44" d="m58.5 116.2 1.5 15.3 13.3-10.1z" class="cls-10" data-name="Фигура_44"/><path id="_Фигура_45" d="m50.1 125.7 4.6 8.5 1.8-8.4z" class="cls-21" data-name="Фигура_45"/><path id="_Фигура_46" d="M80.8 109.1 70.1 114l11 5.1z" data-name="Фигура_46" style="fill:#0062a7"/><path id="_Фигура_47" d="m63.9 107.8-3.5 5.7 10-1.7z" data-name="Фигура_47" style="fill:#5cabd8"/><path id="_Фигура_48" d="m51.3 103.5.2 6.9h5.3z" data-name="Фигура_48" style="fill:#1278b9"/><path id="_Фигура_49" d="m80.2 99.3-3.1 9 7.9-4.5z" data-name="Фигура_49" style="fill:#53a5d4"/><path id="_Фигура_50" d="m65.1 90.2 4.5 15.7 9.2-8.4z" data-name="Фигура_50" style="fill:#0678bd"/><path id="_Фигура_51" d="m53.4 99.2 5.1 3.1 3.6-6.1z" class="cls-30" data-name="Фигура_51"/><path id="_Фигура_52" d="m81.4 87.9.2 7.5 6.6.2z" data-name="Фигура_52" style="fill:#1279bb"/><path id="_Фигура_53" d="m60.5 84.2-2.4 5.7 4.5-1.2z" class="cls-21" data-name="Фигура_53"/><path id="_Фигура_54" d="m78.8 84.2-13.2-3 13.3 11.9z" data-name="Фигура_54" style="fill:#4ba1d3"/><path id="_Фигура_55" d="m48.9 81 2.4 4 3.3-1.9z" class="cls-3" data-name="Фигура_55"/><path id="_Фигура_56" d="m56.6 72.9.6 10.1 4.2-3z" data-name="Фигура_56" style="fill:#92c7e6"/><path id="_Фигура_57" d="M62.4 73.4 79.2 81l3.2-14.7z" data-name="Фигура_57" style="fill:#21c1e4"/><path id="_Фигура_58" d="m50.8 71.9 1.9 1.7.1-4.9z" data-name="Фигура_58" style="fill:#92c6e4"/><path id="_Фигура_59" d="m54.3 59.1-2.2 2.6 4.2 2.4z" data-name="Фигура_59" style="fill:#4ba2d3"/><path id="_Фигура_60" d="M61.2 54.7 65 68.4l8.3-8.8z" data-name="Фигура_60" style="fill:#94d7ec"/><path id="_Фигура_61" d="m72.7 129.6-13.7 10 13.7 11.3z" class="cls-10" data-name="Фигура_61"/><path id="_Фигура_61_копия" d="m55.4 141.7-4.2 3h7.9z" data-name="Фигура_61_копия" style="fill:#2763a1"/><path id="_Фигура_62" d="m55.4 35 .4 7 16.1 2.5z" class="cls-23" data-name="Фигура_62"/><path id="_Фигура_63" d="m94 42.7 7 4.1V34.7z" class="cls-36" data-name="Фигура_63"/><path id="_Фигура_67" d="m91.2 45.1-17.8-.2 3.8 2.6h.1l-.3.6s-.2.2-.5.1l.8 3.6 6.6 1.5h.6c0-.1 1.1-1.4 1.1-1.4l5.9-6.9Z" class="cls-6" data-name="Фигура_67"/><path id="_Фигура_66" d="M77.1 47.5 75 49.7l-.1 4.6 4.6 3.7.2.4h.1l5.6-6.4z" class="cls-32" data-name="Фигура_66"/><path id="_Фигура_65" d="M77.1 47.5 61.8 45l18 13.4-2.6-10.9Zm0 0H77z" class="cls-23" data-name="Фигура_65"/></g><g id="_Прямоугольник_1_копия_2" data-name="Прямоугольник_1_копия_2"><path id="_Прямоугольник_1_копия_2-2" d="M2.4 5.4V180h173.9V5.4zm161.5 162.2H14.8V17.8h149.1v149.7Z" class="cls-12" data-name="Прямоугольник_1_копия_2"/></g><g id="Blockchain"><path id="Blockchain-2" d="M242.4 40.8c6.1-2.1 10.4-7 10.4-15.1 0-11.8-9.1-17.4-23.7-17.4h-30v68.9h29.5c12 0 27-3.6 27-19.3 0-10.1-6.4-15.2-13.1-17.1Zm-28.6-20.3h14c6.5 0 10.4 2.5 10.4 7.9s-4 7.9-9.6 7.9h-14.8V20.6Zm14.6 44.8h-14.7V47.6h15.5c5.9 0 11.7 1.6 11.7 8.9s-5.9 8.9-12.5 8.9Zm36.1 12h13.6V5.4h-13.6zm48.7-48.7c-13.6 0-26 8.5-26 25s12.4 25 26 25 26-8.5 26-25-12.3-25-26-25m0 37.8c-7.7 0-12.1-5.5-12.1-12.8s4.3-12.8 12.1-12.8 12.2 5.5 12.2 12.8-4.3 12.8-12.2 12.8m46.2-12.8c0-9.6 7.2-13.2 14.6-13.2s9.2 1.4 12.6 3.5v-12c-4.2-2.3-9.3-3.4-14.5-3.4-13 0-26.6 7.7-26.6 25.8s12.8 24.3 25.7 24.3 11.3-1.2 15.9-3.2V63.3c-3.4 2.1-8.2 3.4-13.2 3.4-7.4 0-14.4-4.1-14.4-13.2ZM442.8 30h-15.3l-12 17.6h-5.7V8.4h-13.6v68.9h13.6V58.6h5.5l13.5 18.7h15.3l-17.6-23.9 16.2-23.3Zm16.1 23.6c0-9.6 7.2-13.2 14.6-13.2s9.2 1.4 12.6 3.5v-12c-4.2-2.3-9.3-3.4-14.5-3.4-13 0-26.6 7.7-26.6 25.8s12.8 24.3 25.7 24.3 11.3-1.2 15.9-3.2V63.3c-3.4 2.1-8.2 3.4-13.2 3.4-7.4 0-14.4-4.1-14.4-13.2Zm64.5-25c-5.9 0-10.7 2.5-14.1 5.7V8.4h-13.6v68.9h13.6V46.5c2-2.9 5.7-6 10.5-6s9.1 3 9.1 9.4v27.5h13.6V48.2c0-10.9-6.8-19.4-19.1-19.4Zm72.2 36.5V50c0-15.6-9-21.4-23.2-21.4s-14.4 1.9-18.2 3.2v11.8c4.4-1.8 10.2-3.5 16.7-3.5s11.1 3.3 11.1 8v1.7c-3.3-.8-7.5-1.3-11.2-1.3-9.4 0-20.7 3.7-20.7 15.8s7.7 14.5 16.5 14.5 12.4-2.2 17-5.8c2 3.5 5.6 5.3 10.4 5.3s5.4-.6 7.6-1.4v-9c-.9.3-1.8.4-2.5.4-1.8 0-3.3-.7-3.3-3.1Zm-13.6 0c-3.1 2.8-6.8 3.8-10.6 3.8s-7.4-2.3-7.4-5.8 4.9-6.5 9.9-6.5 6 .6 8 1.1v7.4Zm26.1 12.2h13.6V30h-13.6zm6.8-70.6c-4.2 0-7.9 2.4-7.9 7.7s3.7 7.8 7.9 7.8 8-2.4 8-7.8-3.7-7.7-8-7.7m46.4 21.9c-6.8 0-12.1 3.2-15.7 7.4v-6h-12.1v47.3h13.6V46.5c2-2.9 5.7-6 10.5-6s9.1 3 9.1 9.4v27.5h13.6V48.2c0-10.9-6.8-19.4-19.1-19.4Z" class="cls-12" data-name="Blockchain"/></g><g id="Life"><path id="Life-2" d="M213.8 109.7h-14.7v68.9h48.4v-13.3h-33.6v-55.6Zm47.5-1.6c-4.2 0-7.9 2.4-7.9 7.7s3.7 7.8 7.9 7.8 8-2.4 8-7.8c0-5.3-3.7-7.7-8-7.7m-6.7 70.5h13.6v-47.3h-13.6zm30-51.9v4.6h-8.1v11.5h8.1v35.7h13.5v-35.7h14.4v-11.5h-14.4v-4c0-5.9 4-7.5 8.4-7.5s6.1.8 8.1 2v-11.5c-3-1.2-7.3-2-11.6-2-8.9 0-18.5 4.1-18.5 18.4ZM340 130c-10.6 0-24.2 7.2-24.2 25s12.4 25 27.3 25 12.8-1.1 17.3-3v-10.7c-4 1.8-8.8 2.9-14.2 2.9-7.7 0-15-2.9-16.6-9.7h33.2c3.1-14-3.2-29.4-22.7-29.4Zm10.4 20.6h-21c.2-6.5 5.3-10.1 11.1-10.1 8.5 0 10.4 6.9 9.9 10.1" class="cls-12" data-name="Life"/></g></g><path d="M394.2 116.4c5.9-4.2 12.8-6.2 20.5-6.2s11.7 1.5 15.7 4.6q6 4.5 6 12.3c0 7.8-.4 4.4-1.2 6.3s-1.7 3.7-2.8 5.1q-1.65 2.1-4.5 4.5c-2.85 2.4-3.7 2.8-5.1 3.8-1.5.9-3.4 2.1-5.9 3.6-6.7 3.9-11.2 6.8-13.4 8.7-5 4.4-7.5 9.7-7.6 15.8h41.3v3.8h-45.5v-2.2c0-3 .4-5.9 1.3-8.5s1.9-4.8 3.1-6.5 2.9-3.5 5-5.3c2.2-1.8 4.1-3.2 5.6-4.2 1.6-1 3.7-2.2 6.3-3.8.2-.1.4-.2.5-.3.1 0 .3-.1.4-.2.2 0 .3-.2.4-.2 2.6-1.6 4.5-2.7 5.5-3.4 1.1-.7 2.6-1.7 4.6-3.3 2-1.5 3.4-2.8 4.3-4 .8-1.1 1.6-2.6 2.4-4.3s1.1-3.6 1.1-5.6c0-4-1.7-7.2-4.9-9.6-3.3-2.3-7.7-3.5-13.2-3.5s-13.7 2.1-20.2 6.4v-3.9Zm61.6 53.8c-4.9-6.3-7.4-14.8-7.4-25.2s2.5-18.9 7.4-25.2c5-6.3 12.2-9.5 21.7-9.5s16.8 3.2 21.7 9.5 7.4 14.7 7.4 25.3-2.5 19-7.4 25.3-12.2 9.5-21.7 9.5-16.7-3.2-21.7-9.5Zm40.5-2.5c4.2-5.5 6.3-13.1 6.3-22.7s-2.1-17.2-6.3-22.7-10.5-8.3-18.8-8.3-14.6 2.8-18.8 8.3-6.3 13.1-6.3 22.7 2.1 17.2 6.3 22.7 10.5 8.3 18.8 8.3 14.6-2.8 18.8-8.3m23.1-51.3c5.9-4.2 12.8-6.2 20.5-6.2s11.7 1.5 15.7 4.6q6 4.5 6 12.3c0 7.8-.4 4.4-1.2 6.3s-1.7 3.7-2.8 5.1q-1.65 2.1-4.5 4.5c-2.85 2.4-3.7 2.8-5.1 3.8-1.5.9-3.4 2.1-5.9 3.6-6.7 3.9-11.2 6.8-13.4 8.7-5 4.4-7.5 9.7-7.6 15.8h41.3v3.8h-45.5v-2.2c0-3 .4-5.9 1.3-8.5s1.9-4.8 3.1-6.5 2.9-3.5 5-5.3c2.2-1.8 4.1-3.2 5.6-4.2 1.6-1 3.7-2.2 6.3-3.8.2-.1.4-.2.5-.3.1 0 .3-.1.4-.2.2 0 .3-.2.4-.2 2.6-1.6 4.5-2.7 5.5-3.4 1.1-.7 2.6-1.7 4.6-3.3 2-1.5 3.4-2.8 4.3-4 .8-1.1 1.6-2.6 2.4-4.3s1.1-3.6 1.1-5.6c0-4-1.7-7.2-4.9-9.6-3.3-2.3-7.7-3.5-13.2-3.5s-13.7 2.1-20.2 6.4v-3.9Zm58.3-5.1h38.7v3.8h-34.9l-1.8 26.5c5-1.6 10-2.4 15.2-2.4s13.1 1.7 17.8 5c4.8 3.3 7.1 8.4 7.1 15.2s-2.2 11-6.7 14.7-10.4 5.6-17.8 5.6-15.4-1.5-21.5-4.6v-3.8c6.2 3.1 13.2 4.7 21.1 4.7s11.6-1.5 15.3-4.5c3.8-3 5.6-7 5.6-12.1s-2.1-9.9-6.2-12.5c-4.1-2.7-9.4-4-15.9-4s-12.2 1.1-18.2 3.2l2.1-34.7Z" style="fill:#fff"/><path d="M199.1 109.9h14.7v55.4h33.6v13.2h-48.3zm70.3 6c0 2.5-.8 4.5-2.3 5.8s-3.4 2-5.8 2-4.2-.7-5.7-2-2.3-3.2-2.3-5.8.8-4.4 2.3-5.7 3.4-2 5.7-2 4.2.7 5.7 2 2.3 3.2 2.3 5.7Zm-1.1 62.7h-13.6v-47.1h13.6zm29.9 0h-13.5V143h-8.1v-11.5h8.1v-4.6c0-3.4.5-6.3 1.6-8.8s2.5-4.4 4.4-5.7c1.8-1.3 3.8-2.3 5.8-2.9 2.1-.6 4.3-.9 6.7-.9 4.3 0 8.2.7 11.6 2v11.5c-2.3-1.3-5-2-8.1-2q-8.4 0-8.4 7.5v4h14.4v11.5h-14.4v35.6Zm17.6-23.6c0-4.2.8-8 2.3-11.3s3.5-5.9 5.9-7.8c2.5-1.9 5-3.3 7.7-4.3s5.5-1.5 8.3-1.5c4.7 0 8.8.9 12.2 2.6s6 4 7.6 6.8 2.8 5.9 3.4 9.4.4 7-.5 10.4h-33.1c.7 3.3 2.6 5.7 5.7 7.3s6.7 2.4 10.9 2.4 9.9-.9 14.2-2.8v10.7c-4.6 2-10.4 2.9-17.3 2.9s-14.4-2.2-19.5-6.6c-5.2-4.4-7.7-10.5-7.7-18.3Zm34.6-4.4c.3-2.2-.3-4.4-1.9-6.7s-4.3-3.4-8-3.4-5.6.9-7.7 2.7c-2.2 1.8-3.3 4.3-3.3 7.4h21ZM199.1 8.6h30c7.5 0 13.4 1.5 17.5 4.4 4.2 2.9 6.2 7.2 6.2 13s-3.5 12.7-10.4 15c3.8 1.1 6.9 3.1 9.4 5.8 2.5 2.8 3.7 6.5 3.7 11.2s-.8 6.9-2.5 9.6c-1.6 2.6-3.8 4.6-6.6 5.9s-5.6 2.3-8.5 2.8c-2.9.6-6 .9-9.4.9H199V8.6Zm41.8 47.9c0-5.9-3.9-8.8-11.7-8.8h-15.5v17.7h14.7c3.9 0 6.9-.6 9.1-1.9 2.2-1.2 3.3-3.6 3.3-7Zm-2.6-28c0-5.2-3.5-7.8-10.4-7.8h-14v15.7h14.8c2.9 0 5.2-.7 7-2s2.6-3.3 2.6-5.8Zm26.2-22.8h13.6v71.6h-13.6zm30.3 66.4c-5-4.4-7.6-10.5-7.6-18.3s2.5-14 7.6-18.3c5-4.4 11.2-6.6 18.4-6.6s13.5 2.2 18.5 6.6q7.5 6.6 7.5 18.3c0 11.7-2.5 14-7.5 18.3-5 4.4-11.2 6.6-18.5 6.6s-13.4-2.2-18.4-6.6m27.4-9.2c2.2-2.4 3.2-5.4 3.2-9.2s-1.1-6.8-3.2-9.2c-2.2-2.4-5.1-3.6-8.9-3.6s-6.8 1.2-8.9 3.6-3.2 5.4-3.2 9.2 1.1 6.8 3.2 9.2 5.1 3.6 8.9 3.6 6.8-1.2 8.9-3.6m23.3-8.5c0-4.3.8-8.2 2.3-11.6s3.6-6.1 6.1-8.1 5.4-3.5 8.4-4.5c3.1-1 6.3-1.5 9.7-1.5 5.4 0 10.3 1.1 14.5 3.4v12c-3.7-2.4-7.8-3.5-12.6-3.5s-7.6 1.1-10.4 3.2q-4.2 3.3-4.2 9.9c0 6.6 1.4 7.5 4.2 9.8s6.2 3.4 10.2 3.4 9.4-1.1 13.2-3.4v12.1c-4.9 2.1-10.2 3.1-15.9 3.1s-13.1-2.1-18.1-6.2c-5-4.2-7.6-10.1-7.6-18Zm98.7 22.8h-15.3l-13.5-18.6h-5.5v18.6h-13.6V8.6h13.6v39.1h5.7l12-17.6h15.3l-16.2 23.2 17.6 23.8Zm.8-22.8c0-4.3.8-8.2 2.3-11.6s3.6-6.1 6.1-8.1 5.4-3.5 8.4-4.5c3.1-1 6.3-1.5 9.7-1.5 5.4 0 10.3 1.1 14.5 3.4v12c-3.7-2.4-7.8-3.5-12.6-3.5s-7.6 1.1-10.4 3.2q-4.2 3.3-4.2 9.9c0 6.6 1.4 7.5 4.2 9.8s6.2 3.4 10.2 3.4 9.4-1.1 13.2-3.4v12.1c-4.9 2.1-10.2 3.1-15.9 3.1s-13.1-2.1-18.1-6.2c-5-4.2-7.6-10.1-7.6-18Zm50.7-45.8h13.6v25.9q6.15-5.7 14.1-5.7c7.95 0 10.7 1.8 14.1 5.4s5.1 8.3 5.1 13.9v29.1H529V49.8c0-3.1-.8-5.4-2.5-7q-2.55-2.4-6.6-2.4c-4.3 0-7.7 2-10.5 6v30.7h-13.6V8.6Zm99.9 56.5c0 2.1 1.1 3.1 3.3 3.1s1.8-.1 2.5-.4v8.9c-2.5.9-5 1.4-7.6 1.4-5 0-8.4-1.8-10.4-5.3-4.9 3.9-10.6 5.8-17 5.8s-8.5-1.3-11.7-3.9q-4.8-3.9-4.8-10.5c0-6.6 1.1-6.8 3.3-9.3s4.8-4.2 7.7-5.1 6.1-1.3 9.6-1.3 7.6.4 11.2 1.3v-1.7c0-2.4-.9-4.3-2.8-5.8-1.9-1.4-4.6-2.2-8.2-2.2-5.2 0-10.8 1.2-16.7 3.5V31.8c6.3-2.1 12.4-3.1 18.2-3.1q23.1 0 23.1 21.3v15Zm-21.7-8.4c-2.8 0-5.2.5-7.1 1.6-1.9 1-2.8 2.7-2.8 4.9s.7 3.1 2.1 4.2 3.2 1.6 5.2 1.6c4.1 0 7.6-1.3 10.6-3.8v-7.4c-3-.7-5.7-1.1-8-1.1m49-42.1c0 2.5-.8 4.5-2.3 5.8s-3.4 2-5.8 2-4.2-.7-5.7-2-2.3-3.2-2.3-5.8.8-4.4 2.3-5.7 3.4-2 5.7-2 4.2.7 5.7 2 2.3 3.2 2.3 5.7Zm-1.2 62.6h-13.6v-47h13.6v47.1Zm23.8-41c4.2-4.9 9.5-7.4 15.7-7.4s10.7 1.8 14.1 5.4 5.1 8.3 5.1 13.9v29.1h-13.6V49.8c0-3.1-.8-5.4-2.5-7q-2.55-2.4-6.6-2.4c-4.3 0-7.7 2-10.5 6v30.7h-13.6V30.2h12.1v6Z" class="cls-12"/></g></svg>