<svg width="211" height="208" viewBox="0 0 211 208" fill="none" xmlns="http://www.w3.org/2000/svg">
<g clip-path="url(#clip0_142_5617)">
<path d="M191.698 166.45C186.077 169.818 179.591 171.478 173.04 171.478C166.49 171.478 160.932 176.891 160.932 183.55V206.283C127.637 213.541 99.4637 196.975 86.9271 171.941C77.1764 152.476 76.8764 127.891 90.9559 105.392C91.5845 123.525 106.271 156.714 137.588 163.601C139.059 163.907 140.516 164.142 141.959 164.306C158.661 166.257 172.869 159.377 172.669 157.063C172.176 155.076 163.232 155.126 156.253 152.939C150.774 151.23 146.503 148.146 148.453 141.643C152.732 135.091 160.782 136.174 169.126 134.557C179.833 132.47 190.998 125.961 195.242 93.2134C216.807 117.122 216.786 151.643 191.691 166.45H191.698Z" fill="white"/>
<path d="M36.7239 120.049C35.6096 125.469 35.8667 129.358 36.8882 129.828C37.4525 130.091 38.2597 129.522 39.2598 128.453C43.2315 124.28 50.282 112.478 57.8825 113.953C71.2977 117.841 57.7182 132.705 56.6253 144.862C56.2967 148.267 56.7896 152.277 58.8826 156.885C61.9613 163.65 68.5046 171.755 81.0555 181.256C49.5034 187.915 19.5228 170.644 19.2227 141.572C19.2227 141.373 19.2156 141.166 19.2156 140.967C19.2156 134.642 20.9943 128.439 24.1802 122.948C27.5233 117.179 25.5374 109.801 19.7442 106.467L0 95.0935C9.79352 64.4258 35.8524 48.4012 62.3757 48.2303C85.6344 48.0878 109.257 60.117 122.615 85.1154C106.55 76.5903 70.3762 72.6732 48.739 96.2686C41.7171 104.089 38.124 113.255 36.7168 120.042L36.7239 120.049Z" fill="white"/>
<path d="M176.098 102.778C163.654 115.356 145.76 123.311 124.394 122.585C139.831 112.977 161.318 83.7055 151.639 53.223C151.217 51.9553 150.767 50.7303 150.26 49.5409C143.674 33.8652 130.352 24.8487 128.43 26.2019C127.051 27.1705 130.094 32.7257 132.066 38.751C133.695 43.7008 134.595 48.9711 131.723 52.2615C121.644 61.9119 115.508 42.7465 105.514 35.7312C104.443 34.9692 103.243 34.2712 101.878 33.6729H101.871C94.4348 30.3754 82.3126 29.9837 61.6826 38.6228C71.669 8.05486 101.664 -9.19479 127.066 5.08496C132.802 8.24716 137.488 13.0118 140.767 18.6667C144.11 24.4356 151.51 26.4227 157.296 23.0895L177.048 11.7298C203.499 40.6953 199.07 79.5889 176.09 102.778H176.098Z" fill="white"/>
<path d="M23.6304 29.2075H27.1378L26.7806 36.18H29.2808L29.6379 29.2075H33.1453L33.2453 27.1421H23.7375L23.6304 29.2075Z" fill="white"/>
<path d="M44.1246 27.1421L40.8387 33.2671L38.2671 27.1421H34.9311L34.4668 36.18H36.8812L37.1813 30.2687L39.6314 36.18H41.5959L44.6461 30.2687L44.346 36.18H46.7962L47.2605 27.1421H44.1246Z" fill="white"/>
</g>
<defs>
<clipPath id="clip0_142_5617">
<rect width="211" height="208" fill="white"/>
</clipPath>
</defs>
</svg>
