<svg xmlns="http://www.w3.org/2000/svg" width="211" height="208" fill="none" viewBox="0 0 211 208"><g fill="#fff" clip-path="url(#a)"><path d="M191.698 166.45c-5.621 3.368-12.107 5.028-18.658 5.028-6.55 0-12.108 5.413-12.108 12.072v22.733c-33.295 7.258-61.468-9.308-74.005-34.342-9.75-19.465-10.05-44.05 4.029-66.549.629 18.133 15.315 51.322 46.632 58.209q2.207.459 4.371.705c16.702 1.951 30.91-4.929 30.71-7.243-.493-1.987-9.437-1.937-16.416-4.124-5.479-1.709-9.75-4.793-7.8-11.296 4.279-6.552 12.329-5.469 20.673-7.086 10.707-2.087 21.872-8.596 26.116-41.344 21.565 23.909 21.544 58.43-3.551 73.237z"/><path d="M36.724 120.049c-1.114 5.42-.857 9.309.164 9.779.565.263 1.372-.306 2.372-1.375 3.971-4.173 11.022-15.975 18.623-14.5 13.415 3.888-.165 18.752-1.258 30.909-.328 3.405.165 7.415 2.258 12.023 3.078 6.765 9.622 14.87 22.172 24.371-31.552 6.659-61.532-10.612-61.832-39.684 0-.199-.007-.406-.007-.605 0-6.325 1.778-12.528 4.964-18.019 3.343-5.769 1.357-13.147-4.436-16.481L0 95.094C9.794 64.426 35.852 48.4 62.376 48.23c23.258-.142 46.881 11.887 60.239 36.885C106.55 76.59 70.376 72.673 48.739 96.27c-7.022 7.82-10.615 16.986-12.022 23.773z"/><path d="M176.098 102.778c-12.444 12.578-30.338 20.533-51.704 19.807 15.437-9.608 36.924-38.88 27.245-69.362a48 48 0 0 0-1.379-3.682c-6.586-15.676-19.908-24.692-21.83-23.34-1.379.97 1.664 6.525 3.636 12.55 1.629 4.95 2.529 10.22-.343 13.51-10.079 9.65-16.215-9.515-26.209-16.53a20.3 20.3 0 0 0-3.636-2.058h-.007c-7.436-3.298-19.558-3.69-40.188 4.95 9.986-30.568 39.981-47.818 65.383-33.538 5.736 3.162 10.422 7.927 13.701 13.582 3.343 5.769 10.743 7.756 16.529 4.422l19.752-11.36c26.451 28.966 22.022 67.86-.958 91.049zM23.63 29.208h3.508l-.357 6.972h2.5l.357-6.972h3.507l.1-2.066h-9.507zM44.125 27.142l-3.286 6.125-2.572-6.125h-3.336l-.464 9.038h2.414l.3-5.911 2.45 5.911h1.965l3.05-5.911-.3 5.911h2.45l.465-9.038z"/></g><defs><clipPath id="a"><path fill="#fff" d="M0 0h211v208H0z"/></clipPath></defs></svg>