<svg width="466" height="122" viewBox="0 0 466 122" fill="none" xmlns="http://www.w3.org/2000/svg">
<path d="M176.34 33.6C179.329 34.1573 181.787 35.652 183.712 38.084C185.637 40.516 186.6 43.3027 186.6 46.444C186.6 49.2813 185.891 51.7893 184.472 53.968C183.104 56.096 181.103 57.768 178.468 58.984C175.833 60.2 172.717 60.808 169.12 60.808H146.244V7.76H168.132C171.729 7.76 174.82 8.34267 177.404 9.508C180.039 10.6733 182.015 12.2947 183.332 14.372C184.7 16.4493 185.384 18.8053 185.384 21.44C185.384 24.5307 184.548 27.1147 182.876 29.192C181.255 31.2693 179.076 32.7387 176.34 33.6ZM156.884 29.648H166.612C169.145 29.648 171.096 29.0907 172.464 27.976C173.832 26.8107 174.516 25.164 174.516 23.036C174.516 20.908 173.832 19.2613 172.464 18.096C171.096 16.9307 169.145 16.348 166.612 16.348H156.884V29.648ZM167.6 52.144C170.184 52.144 172.185 51.536 173.604 50.32C175.073 49.104 175.808 47.3813 175.808 45.152C175.808 42.872 175.048 41.0987 173.528 39.832C172.008 38.5147 169.956 37.856 167.372 37.856H156.884V52.144H167.6Z" fill="black"/>
<path d="M211.192 61.492C207.747 61.492 204.656 60.884 201.92 59.668C199.184 58.4013 197.005 56.704 195.384 54.576C193.813 52.448 192.952 50.092 192.8 47.508H203.516C203.719 49.1293 204.504 50.472 205.872 51.536C207.291 52.6 209.039 53.132 211.116 53.132C213.143 53.132 214.713 52.7267 215.828 51.916C216.993 51.1053 217.576 50.0667 217.576 48.8C217.576 47.432 216.867 46.4187 215.448 45.76C214.08 45.0507 211.876 44.2907 208.836 43.48C205.695 42.72 203.111 41.9347 201.084 41.124C199.108 40.3133 197.385 39.072 195.916 37.4C194.497 35.728 193.788 33.4733 193.788 30.636C193.788 28.3053 194.447 26.1773 195.764 24.252C197.132 22.3267 199.057 20.8067 201.54 19.692C204.073 18.5773 207.037 18.02 210.432 18.02C215.448 18.02 219.451 19.2867 222.44 21.82C225.429 24.3027 227.076 27.672 227.38 31.928H217.196C217.044 30.256 216.335 28.9387 215.068 27.976C213.852 26.9627 212.205 26.456 210.128 26.456C208.203 26.456 206.708 26.8107 205.644 27.52C204.631 28.2293 204.124 29.2173 204.124 30.484C204.124 31.9027 204.833 32.992 206.252 33.752C207.671 34.4613 209.875 35.196 212.864 35.956C215.904 36.716 218.412 37.5013 220.388 38.312C222.364 39.1227 224.061 40.3893 225.48 42.112C226.949 43.784 227.709 46.0133 227.76 48.8C227.76 51.232 227.076 53.4107 225.708 55.336C224.391 57.2613 222.465 58.7813 219.932 59.896C217.449 60.96 214.536 61.492 211.192 61.492Z" fill="black"/>
<path d="M233.758 39.756C233.758 35.3987 234.645 31.5987 236.418 28.356C238.191 25.0627 240.649 22.5293 243.79 20.756C246.931 18.932 250.529 18.02 254.582 18.02C259.801 18.02 264.107 19.3373 267.502 21.972C270.947 24.556 273.253 28.204 274.418 32.916H262.942C262.334 31.092 261.295 29.6733 259.826 28.66C258.407 27.596 256.634 27.064 254.506 27.064C251.466 27.064 249.059 28.1787 247.286 30.408C245.513 32.5867 244.626 35.7027 244.626 39.756C244.626 43.7587 245.513 46.8747 247.286 49.104C249.059 51.2827 251.466 52.372 254.506 52.372C258.813 52.372 261.625 50.4467 262.942 46.596H274.418C273.253 51.156 270.947 54.7787 267.502 57.464C264.057 60.1493 259.75 61.492 254.582 61.492C250.529 61.492 246.931 60.6053 243.79 58.832C240.649 57.008 238.191 54.4747 236.418 51.232C234.645 47.9387 233.758 44.1133 233.758 39.756Z" fill="black"/>
<path d="M300.529 61.34C296.83 61.34 293.486 60.7067 290.497 59.44C287.558 58.1733 285.228 56.3493 283.505 53.968C281.782 51.5867 280.896 48.7747 280.845 45.532H292.245C292.397 47.7107 293.157 49.4333 294.525 50.7C295.944 51.9667 297.869 52.6 300.301 52.6C302.784 52.6 304.734 52.0173 306.153 50.852C307.572 49.636 308.281 48.0653 308.281 46.14C308.281 44.5693 307.8 43.2773 306.837 42.264C305.874 41.2507 304.658 40.4653 303.189 39.908C301.77 39.3 299.794 38.6413 297.261 37.932C293.816 36.9187 291.004 35.9307 288.825 34.968C286.697 33.9547 284.848 32.46 283.277 30.484C281.757 28.4573 280.997 25.772 280.997 22.428C280.997 19.2867 281.782 16.5507 283.353 14.22C284.924 11.8893 287.128 10.116 289.965 8.9C292.802 7.63333 296.045 7 299.693 7C305.165 7 309.598 8.34267 312.993 11.028C316.438 13.6627 318.338 17.3613 318.693 22.124H306.989C306.888 20.3 306.102 18.8053 304.633 17.64C303.214 16.424 301.314 15.816 298.933 15.816C296.856 15.816 295.184 16.348 293.917 17.412C292.701 18.476 292.093 20.0213 292.093 22.048C292.093 23.4667 292.549 24.6573 293.461 25.62C294.424 26.532 295.589 27.292 296.957 27.9C298.376 28.4573 300.352 29.116 302.885 29.876C306.33 30.8893 309.142 31.9027 311.321 32.916C313.5 33.9293 315.374 35.4493 316.945 37.476C318.516 39.5027 319.301 42.1627 319.301 45.456C319.301 48.2933 318.566 50.928 317.097 53.36C315.628 55.792 313.474 57.7427 310.637 59.212C307.8 60.6307 304.43 61.34 300.529 61.34Z" fill="black"/>
<path d="M325.789 39.756C325.789 35.3987 326.676 31.5987 328.449 28.356C330.223 25.0627 332.68 22.5293 335.821 20.756C338.963 18.932 342.56 18.02 346.613 18.02C351.832 18.02 356.139 19.3373 359.533 21.972C362.979 24.556 365.284 28.204 366.449 32.916H354.973C354.365 31.092 353.327 29.6733 351.857 28.66C350.439 27.596 348.665 27.064 346.537 27.064C343.497 27.064 341.091 28.1787 339.317 30.408C337.544 32.5867 336.657 35.7027 336.657 39.756C336.657 43.7587 337.544 46.8747 339.317 49.104C341.091 51.2827 343.497 52.372 346.537 52.372C350.844 52.372 353.656 50.4467 354.973 46.596H366.449C365.284 51.156 362.979 54.7787 359.533 57.464C356.088 60.1493 351.781 61.492 346.613 61.492C342.56 61.492 338.963 60.6053 335.821 58.832C332.68 57.008 330.223 54.4747 328.449 51.232C326.676 47.9387 325.789 44.1133 325.789 39.756Z" fill="black"/>
<path d="M371.508 39.604C371.508 35.348 372.344 31.5733 374.016 28.28C375.739 24.9867 378.044 22.4533 380.932 20.68C383.871 18.9067 387.139 18.02 390.736 18.02C393.877 18.02 396.613 18.6533 398.944 19.92C401.325 21.1867 403.225 22.7827 404.644 24.708V18.704H415.36V60.808H404.644V54.652C403.276 56.628 401.376 58.2747 398.944 59.592C396.563 60.8587 393.801 61.492 390.66 61.492C387.113 61.492 383.871 60.58 380.932 58.756C378.044 56.932 375.739 54.3733 374.016 51.08C372.344 47.736 371.508 43.9107 371.508 39.604ZM404.644 39.756C404.644 37.172 404.137 34.968 403.124 33.144C402.111 31.2693 400.743 29.8507 399.02 28.888C397.297 27.8747 395.448 27.368 393.472 27.368C391.496 27.368 389.672 27.8493 388 28.812C386.328 29.7747 384.96 31.1933 383.896 33.068C382.883 34.892 382.376 37.0707 382.376 39.604C382.376 42.1373 382.883 44.3667 383.896 46.292C384.96 48.1667 386.328 49.6107 388 50.624C389.723 51.6373 391.547 52.144 393.472 52.144C395.448 52.144 397.297 51.6627 399.02 50.7C400.743 49.6867 402.111 48.268 403.124 46.444C404.137 44.5693 404.644 42.34 404.644 39.756Z" fill="black"/>
<path d="M449.084 18.096C454.1 18.096 458.153 19.692 461.244 22.884C464.335 26.0253 465.88 30.4333 465.88 36.108V60.808H455.24V37.552C455.24 34.208 454.404 31.6493 452.732 29.876C451.06 28.052 448.78 27.14 445.892 27.14C442.953 27.14 440.623 28.052 438.9 29.876C437.228 31.6493 436.392 34.208 436.392 37.552V60.808H425.752V18.704H436.392V23.948C437.811 22.124 439.609 20.7053 441.788 19.692C444.017 18.628 446.449 18.096 449.084 18.096Z" fill="black"/>
<path d="M158.469 101.964H150.347L149.045 105.808H143.496L151.37 84.046H157.508L165.382 105.808H159.771L158.469 101.964ZM157.105 97.872L154.408 89.905L151.742 97.872H157.105Z" fill="#414549"/>
<path d="M182.222 106.025C180.631 106.025 179.205 105.767 177.944 105.25C176.683 104.733 175.671 103.969 174.906 102.956C174.162 101.943 173.769 100.724 173.728 99.298H179.37C179.453 100.104 179.732 100.724 180.207 101.158C180.682 101.571 181.302 101.778 182.067 101.778C182.852 101.778 183.472 101.602 183.927 101.251C184.382 100.879 184.609 100.373 184.609 99.732C184.609 99.1947 184.423 98.7504 184.051 98.399C183.7 98.0477 183.255 97.7584 182.718 97.531C182.201 97.3037 181.457 97.0454 180.486 96.756C179.081 96.322 177.934 95.888 177.045 95.454C176.156 95.02 175.392 94.3794 174.751 93.532C174.11 92.6847 173.79 91.579 173.79 90.215C173.79 88.1897 174.524 86.6087 175.991 85.472C177.458 84.3147 179.37 83.736 181.726 83.736C184.123 83.736 186.056 84.3147 187.523 85.472C188.99 86.6087 189.776 88.2 189.879 90.246H184.144C184.103 89.5434 183.844 88.9957 183.369 88.603C182.894 88.1897 182.284 87.983 181.54 87.983C180.899 87.983 180.383 88.1587 179.99 88.51C179.597 88.8407 179.401 89.3264 179.401 89.967C179.401 90.6697 179.732 91.2174 180.393 91.61C181.054 92.0027 182.088 92.4264 183.493 92.881C184.898 93.3564 186.035 93.811 186.903 94.245C187.792 94.679 188.556 95.3094 189.197 96.136C189.838 96.9627 190.158 98.027 190.158 99.329C190.158 100.569 189.838 101.695 189.197 102.708C188.577 103.721 187.668 104.527 186.469 105.126C185.27 105.725 183.855 106.025 182.222 106.025Z" fill="#414549"/>
<path d="M192.366 97.159C192.366 95.361 192.728 93.7904 193.451 92.447C194.195 91.1037 195.218 90.0704 196.52 89.347C197.843 88.6237 199.351 88.262 201.046 88.262C203.216 88.262 205.024 88.8304 206.471 89.967C207.938 91.1037 208.899 92.7054 209.354 94.772H203.712C203.237 93.4494 202.317 92.788 200.953 92.788C199.982 92.788 199.207 93.1704 198.628 93.935C198.049 94.679 197.76 95.7537 197.76 97.159C197.76 98.5644 198.049 99.6494 198.628 100.414C199.207 101.158 199.982 101.53 200.953 101.53C202.317 101.53 203.237 100.869 203.712 99.546H209.354C208.899 101.571 207.938 103.163 206.471 104.32C205.004 105.477 203.195 106.056 201.046 106.056C199.351 106.056 197.843 105.694 196.52 104.971C195.218 104.248 194.195 103.214 193.451 101.871C192.728 100.528 192.366 98.957 192.366 97.159Z" fill="#414549"/>
<path d="M211.136 97.128C211.136 95.3507 211.466 93.7904 212.128 92.447C212.81 91.1037 213.729 90.0704 214.887 89.347C216.044 88.6237 217.336 88.262 218.762 88.262C219.981 88.262 221.045 88.51 221.955 89.006C222.885 89.502 223.598 90.153 224.094 90.959V88.51H229.395V105.808H224.094V103.359C223.577 104.165 222.854 104.816 221.924 105.312C221.014 105.808 219.95 106.056 218.731 106.056C217.325 106.056 216.044 105.694 214.887 104.971C213.729 104.227 212.81 103.183 212.128 101.84C211.466 100.476 211.136 98.9054 211.136 97.128ZM224.094 97.159C224.094 95.8364 223.722 94.7927 222.978 94.028C222.254 93.2634 221.366 92.881 220.312 92.881C219.258 92.881 218.359 93.2634 217.615 94.028C216.891 94.772 216.53 95.8054 216.53 97.128C216.53 98.4507 216.891 99.5047 217.615 100.29C218.359 101.055 219.258 101.437 220.312 101.437C221.366 101.437 222.254 101.055 222.978 100.29C223.722 99.5254 224.094 98.4817 224.094 97.159Z" fill="#414549"/>
<path d="M243.77 88.324C245.795 88.324 247.407 88.9854 248.606 90.308C249.825 91.61 250.435 93.408 250.435 95.702V105.808H245.165V96.415C245.165 95.2577 244.865 94.3587 244.266 93.718C243.666 93.0774 242.86 92.757 241.848 92.757C240.835 92.757 240.029 93.0774 239.43 93.718C238.83 94.3587 238.531 95.2577 238.531 96.415V105.808H233.23V88.51H238.531V90.804C239.068 90.0394 239.791 89.44 240.701 89.006C241.61 88.5514 242.633 88.324 243.77 88.324Z" fill="#414549"/>
<path d="M270.98 106.025C268.934 106.025 267.053 105.55 265.338 104.599C263.643 103.648 262.289 102.326 261.277 100.631C260.285 98.9157 259.789 96.9937 259.789 94.865C259.789 92.7364 260.285 90.8247 261.277 89.13C262.289 87.4354 263.643 86.1127 265.338 85.162C267.053 84.2114 268.934 83.736 270.98 83.736C273.026 83.736 274.896 84.2114 276.591 85.162C278.306 86.1127 279.649 87.4354 280.621 89.13C281.613 90.8247 282.109 92.7364 282.109 94.865C282.109 96.9937 281.613 98.9157 280.621 100.631C279.629 102.326 278.285 103.648 276.591 104.599C274.896 105.55 273.026 106.025 270.98 106.025ZM270.98 101.189C272.716 101.189 274.1 100.61 275.134 99.453C276.188 98.2957 276.715 96.7664 276.715 94.865C276.715 92.943 276.188 91.4137 275.134 90.277C274.1 89.1197 272.716 88.541 270.98 88.541C269.223 88.541 267.818 89.1094 266.764 90.246C265.73 91.3827 265.214 92.9224 265.214 94.865C265.214 96.787 265.73 98.3267 266.764 99.484C267.818 100.621 269.223 101.189 270.98 101.189Z" fill="#414549"/>
<path d="M290.359 91.393C290.979 90.4424 291.754 89.6984 292.684 89.161C293.614 88.603 294.647 88.324 295.784 88.324V93.935H294.327C293.004 93.935 292.012 94.2244 291.351 94.803C290.689 95.361 290.359 96.353 290.359 97.779V105.808H285.058V88.51H290.359V91.393Z" fill="#414549"/>
<path d="M300.984 86.712C300.054 86.712 299.289 86.4434 298.69 85.906C298.111 85.348 297.822 84.666 297.822 83.86C297.822 83.0334 298.111 82.3514 298.69 81.814C299.289 81.256 300.054 80.977 300.984 80.977C301.893 80.977 302.637 81.256 303.216 81.814C303.815 82.3514 304.115 83.0334 304.115 83.86C304.115 84.666 303.815 85.348 303.216 85.906C302.637 86.4434 301.893 86.712 300.984 86.712ZM303.619 88.51V105.808H298.318V88.51H303.619Z" fill="#414549"/>
<path d="M314.032 88.262C315.252 88.262 316.316 88.51 317.225 89.006C318.155 89.502 318.868 90.153 319.364 90.959V88.51H324.665V105.777C324.665 107.368 324.345 108.805 323.704 110.086C323.084 111.388 322.123 112.421 320.821 113.186C319.54 113.951 317.938 114.333 316.016 114.333C313.454 114.333 311.377 113.723 309.785 112.504C308.194 111.305 307.285 109.673 307.057 107.606H312.296C312.462 108.267 312.854 108.784 313.474 109.156C314.094 109.549 314.859 109.745 315.768 109.745C316.864 109.745 317.732 109.425 318.372 108.784C319.034 108.164 319.364 107.162 319.364 105.777V103.328C318.848 104.134 318.135 104.795 317.225 105.312C316.316 105.808 315.252 106.056 314.032 106.056C312.606 106.056 311.315 105.694 310.157 104.971C309 104.227 308.08 103.183 307.398 101.84C306.737 100.476 306.406 98.9054 306.406 97.128C306.406 95.3507 306.737 93.7904 307.398 92.447C308.08 91.1037 309 90.0704 310.157 89.347C311.315 88.6237 312.606 88.262 314.032 88.262ZM319.364 97.159C319.364 95.8364 318.992 94.7927 318.248 94.028C317.525 93.2634 316.636 92.881 315.582 92.881C314.528 92.881 313.629 93.2634 312.885 94.028C312.162 94.772 311.8 95.8054 311.8 97.128C311.8 98.4507 312.162 99.5047 312.885 100.29C313.629 101.055 314.528 101.437 315.582 101.437C316.636 101.437 317.525 101.055 318.248 100.29C318.992 99.5254 319.364 98.4817 319.364 97.159Z" fill="#414549"/>
<path d="M331.166 86.712C330.236 86.712 329.472 86.4434 328.872 85.906C328.294 85.348 328.004 84.666 328.004 83.86C328.004 83.0334 328.294 82.3514 328.872 81.814C329.472 81.256 330.236 80.977 331.166 80.977C332.076 80.977 332.82 81.256 333.398 81.814C333.998 82.3514 334.297 83.0334 334.297 83.86C334.297 84.666 333.998 85.348 333.398 85.906C332.82 86.4434 332.076 86.712 331.166 86.712ZM333.801 88.51V105.808H328.5V88.51H333.801Z" fill="#414549"/>
<path d="M348.183 88.324C350.208 88.324 351.82 88.9854 353.019 90.308C354.238 91.61 354.848 93.408 354.848 95.702V105.808H349.578V96.415C349.578 95.2577 349.278 94.3587 348.679 93.718C348.079 93.0774 347.273 92.757 346.261 92.757C345.248 92.757 344.442 93.0774 343.843 93.718C343.243 94.3587 342.944 95.2577 342.944 96.415V105.808H337.643V88.51H342.944V90.804C343.481 90.0394 344.204 89.44 345.114 89.006C346.023 88.5514 347.046 88.324 348.183 88.324Z" fill="#414549"/>
<path d="M357.477 97.128C357.477 95.3507 357.808 93.7904 358.469 92.447C359.151 91.1037 360.071 90.0704 361.228 89.347C362.386 88.6237 363.677 88.262 365.103 88.262C366.323 88.262 367.387 88.51 368.296 89.006C369.226 89.502 369.939 90.153 370.435 90.959V88.51H375.736V105.808H370.435V103.359C369.919 104.165 369.195 104.816 368.265 105.312C367.356 105.808 366.292 106.056 365.072 106.056C363.667 106.056 362.386 105.694 361.228 104.971C360.071 104.227 359.151 103.183 358.469 101.84C357.808 100.476 357.477 98.9054 357.477 97.128ZM370.435 97.159C370.435 95.8364 370.063 94.7927 369.319 94.028C368.596 93.2634 367.707 92.881 366.653 92.881C365.599 92.881 364.7 93.2634 363.956 94.028C363.233 94.772 362.871 95.8054 362.871 97.128C362.871 98.4507 363.233 99.5047 363.956 100.29C364.7 101.055 365.599 101.437 366.653 101.437C367.707 101.437 368.596 101.055 369.319 100.29C370.063 99.5254 370.435 98.4817 370.435 97.159Z" fill="#414549"/>
<path d="M384.873 82.868V105.808H379.572V82.868H384.873Z" fill="#414549"/>
<path d="M25.2228 57.583C25.2229 56.9056 25.3568 56.2348 25.6169 55.6093C25.877 54.9837 26.258 54.4157 26.7382 53.9378C27.2184 53.4599 27.7883 53.0816 28.4151 52.8246C29.0419 52.5676 29.7133 52.4369 30.3908 52.44L38.9588 52.468C40.3249 52.468 41.6351 53.0107 42.6011 53.9767C43.5671 54.9427 44.1098 56.2529 44.1098 57.619V90.0191C45.0748 89.7331 46.3098 89.428 47.6688 89.108C48.6103 88.8865 49.4494 88.3535 50.05 87.5953C50.6506 86.8371 50.9776 85.8983 50.9778 84.931V44.744C50.9778 43.3778 51.5204 42.0675 52.4864 41.1014C53.4524 40.1352 54.7626 39.5923 56.1288 39.592H64.7228C66.089 39.5923 67.3992 40.1352 68.3651 41.1014C69.3311 42.0675 69.8738 43.3778 69.8738 44.744V82.044C69.8738 82.044 72.0238 81.174 74.1168 80.29C74.8945 79.9611 75.5582 79.4104 76.025 78.7067C76.4918 78.003 76.7411 77.1775 76.7418 76.333V31.866C76.7418 30.5001 77.2843 29.1901 78.2501 28.2241C79.2159 27.2581 80.5258 26.7153 81.8918 26.715H90.4768C91.842 26.7164 93.1509 27.2596 94.1158 28.2255C95.0808 29.1914 95.6228 30.5008 95.6228 31.866V68.483C103.066 63.089 110.609 56.601 116.595 48.8C117.463 47.6677 118.038 46.338 118.268 44.9295C118.497 43.521 118.375 42.0776 117.911 40.728C115.14 32.7562 110.735 25.4505 104.979 19.2786C99.2225 13.1067 92.241 8.20438 84.4813 4.88543C76.7216 1.56649 68.3544 -0.0960273 59.9153 0.00428347C51.4762 0.104594 43.1509 1.96552 35.4723 5.46797C27.7936 8.97042 20.9307 14.0373 15.3226 20.3443C9.71457 26.6513 5.48488 34.0596 2.90423 42.0951C0.323578 50.1305 -0.551199 58.6163 0.33587 67.0093C1.22294 75.4022 3.85232 83.5176 8.05576 90.836C8.7881 92.0985 9.86553 93.1258 11.1615 93.7972C12.4574 94.4685 13.918 94.7561 15.3718 94.626C16.9958 94.483 19.0178 94.281 21.4218 93.999C22.468 93.88 23.434 93.3803 24.1356 92.5951C24.8373 91.8099 25.2257 90.7941 25.2268 89.741V57.583" fill="#12161C"/>
<path d="M25.0391 109.544C34.0883 116.127 44.7823 120.079 55.9379 120.961C67.0934 121.844 78.2758 119.623 88.2476 114.545C98.2195 109.467 106.592 101.729 112.439 92.1878C118.286 82.6465 121.38 71.6735 121.378 60.4831C121.378 59.0831 121.313 57.7051 121.22 56.3311C99.057 89.3861 58.1351 104.839 25.0391 109.544Z" fill="#F0B90B"/>
</svg>
