<svg xmlns="http://www.w3.org/2000/svg" viewBox="0 0 566.929 198.572"><path d="M39.07 25.726q-8.175 0-14.125 5.11-5.951 5.11-8.716 13.884V0H0v88.96h16.23V71.168q2.764 8.778 8.715 13.885 5.95 5.11 14.126 5.11 11.54 0 19.114-9.257t7.574-22.961c0-13.705-2.525-16.79-7.574-22.962q-7.574-9.256-19.114-9.257m5.29 44.66q-4.57 4.991-11.18 4.99-7.335 0-12.142-4.99Q16.23 65.4 16.23 57.945c0-7.455 1.603-9.096 4.81-12.383q4.806-4.928 12.14-4.929 6.612 0 11.181 4.989 4.568 4.99 4.568 12.323 0 7.455-4.568 12.442M80.785 64.917q0 12.142 6.13 18.092 6.132 5.95 18.875 5.95h7.333V74.656h-7.333q-8.776 0-8.776-8.776V41.234h16.11V26.928h-16.11V3.606l-16.229 5.05v18.273H68.282v14.305h12.503zM151.514 40.633q4.927 0 8.895 2.585t6.012 7.393l14.906-5.17q-3.966-9.375-11.901-14.545t-17.912-5.17q-14.187 0-23.683 9.258-9.498 9.256-9.497 22.96c0 13.705 3.165 16.791 9.497 22.962q9.496 9.258 23.683 9.257 9.977 0 17.912-5.17 7.935-5.168 11.901-14.546l-14.906-5.17q-2.046 4.811-6.011 7.454-3.968 2.645-8.896 2.645-6.974.001-11.662-4.99-4.688-4.986-4.688-12.441 0-7.332 4.688-12.323 4.688-4.988 11.662-4.989M39.07 110.092q-8.175 0-14.125 5.11-5.952 5.11-8.716 13.884v-17.791H0v86.074h16.229v-41.834q2.764 8.776 8.716 13.885 5.95 5.11 14.125 5.109 11.54.001 19.114-9.257 7.574-9.256 7.574-22.961c0-13.705-2.525-16.79-7.574-22.961q-7.573-9.257-19.114-9.258Zm5.29 44.66q-4.57 4.991-11.18 4.99-7.335.001-12.143-4.99-4.809-4.986-4.808-12.441c0-7.455 1.602-9.095 4.808-12.383Q25.845 125 33.18 125q6.61 0 11.18 4.989 4.569 4.99 4.569 12.323 0 7.455-4.568 12.442M101.256 112.377q-6.313 3.727-9.317 15.027v-16.11H75.71v62.032h16.23v-34.742q-.001-8.173 6.732-11.842 6.731-3.665 16.469-.3v-15.388q-7.574-2.402-13.885 1.323M166.351 116.224q-7.334-6.132-19.114-6.132-11.541 0-18.995 5.41t-8.775 13.705l16.109 3.607q.84-4.448 3.906-6.913 3.066-2.463 7.875-2.464 4.447 0 7.273 2.043 2.824 2.045 2.825 5.41 0 4.568-5.77 4.929l-10.098.962q-23.924 2.526-23.924 19.955 0 7.935 5.41 12.864t12.984 4.929q16.229 0 21.398-16.59v15.387h16.229v-39.19q0-11.78-7.333-17.912m-8.896 31.136q-.001 5.651-4.628 9.978-4.63 4.328-11 4.328-3.607 0-5.77-1.744-2.164-1.74-2.164-4.508 0-2.643 2.043-4.388 2.043-1.741 5.53-2.224l10.46-1.202q4.085-.48 5.53-1.803zM233.19 128.245q-2.766-8.293-8.776-13.224-6.012-4.928-14.065-4.929-11.422.001-19.054 8.957-7.635 8.956-7.634 22.3c.001 13.344 2.543 16.33 7.634 22.3q7.632 8.956 19.054 8.957 8.053 0 14.065-4.93 6.01-4.928 8.776-13.223v11.9q0 7.574-4.929 12.503t-12.022 4.93q-9.619 0-14.305-9.619l-14.546 7.695q4.086 7.572 11.66 12.142 7.573 4.567 17.191 4.568 14.184 0 23.683-9.257 9.496-9.257 9.497-22.961v-55.06h-16.23zm-4.688 24.885q-4.69 4.688-11.781 4.688-6.853.001-11.541-4.748-4.689-4.748-4.689-11.721c0-6.973 1.563-8.535 4.689-11.661q4.689-4.689 11.54-4.688 7.093.001 11.782 4.628 4.688 4.63 4.688 11.72c0 7.09-1.563 8.657-4.688 11.782M303.874 147.12q0 5.651-3.606 9.135-3.606 3.488-9.257 3.487-5.651.002-9.256-3.487-3.607-3.484-3.607-9.136v-35.824h-16.23v35.824q0 12.143 8.175 19.776 8.175 7.635 20.918 7.634c12.743-.001 15.467-2.544 20.918-7.634q8.174-7.633 8.174-19.776v-35.824h-16.23zM387.676 121.333q-9.44-11.24-25.066-11.24-13.825 0-23.202 9.257-9.376 9.256-9.376 22.96c0 13.705 3.165 16.791 9.497 22.962q9.496 9.258 23.682 9.257 9.737 0 17.372-4.509 7.632-4.508 11.84-12.081l-13.343-6.01q-4.81 8.655-15.388 8.655-6.252 0-10.76-3.427-4.509-3.425-6.19-9.076h47.845q2.526-15.508-6.911-26.748ZM346.982 135.7q1.682-5.288 5.951-8.476 4.266-3.184 9.677-3.186 5.649.001 9.858 3.186 4.206 3.187 5.89 8.476z" style="fill:#fff"/><path d="M526.54 9.384c-16.257 0-30.26 9.61-36.666 23.453-6.406-13.844-20.41-23.453-36.667-23.453s-30.26 9.609-36.666 23.453c-6.405-13.844-20.41-23.453-36.666-23.453s-30.26 9.609-36.666 23.453c-6.405-13.844-20.41-23.453-36.666-23.453s-30.26 9.61-36.666 23.453c-6.406-13.844-20.41-23.453-36.666-23.453-22.307 0-40.39 18.083-40.39 40.39s18.083 40.389 40.39 40.389c16.256 0 30.26-9.61 36.666-23.453 6.405 13.843 20.41 23.453 36.666 23.453s30.26-9.61 36.666-23.453c6.406 13.843 20.41 23.453 36.666 23.453s30.26-9.61 36.666-23.453c6.406 13.843 20.41 23.453 36.666 23.453s30.261-9.61 36.667-23.453c6.405 13.843 20.41 23.453 36.666 23.453 22.306 0 40.39-18.083 40.39-40.39s-18.084-40.39-40.39-40.39M306.543 82.716c-18.165 0-32.943-14.778-32.943-32.943s14.778-32.943 32.943-32.943 32.943 14.778 32.943 32.943-14.778 32.943-32.943 32.943m146.664 0c-18.164 0-32.942-14.778-32.942-32.943s14.778-32.943 32.942-32.943 32.943 14.778 32.943 32.943-14.778 32.943-32.943 32.943" style="fill:#f18a48"/></svg>