<?xml version="1.0" encoding="UTF-8"?><svg id="Layer_2" xmlns="http://www.w3.org/2000/svg" viewBox="0 0 566.9291 198.572"><g id="Components"><g id="a74fcaf9-f553-45b2-abd0-8ec334e6aaa3_1"><g><path d="m39.0706,25.7258c-5.4513,0-10.1583,1.7041-14.1258,5.1094-3.9671,3.408-6.8727,8.0361-8.7156,13.885V0H0v88.96h16.2292v-17.7917c1.8429,5.8513,4.7485,10.4795,8.7156,13.885,3.9675,3.407,8.6745,5.1094,14.1258,5.1094,7.6937,0,14.0651-3.0842,19.1144-9.2566,5.049-6.1709,7.5735-13.8254,7.5735-22.9614s-2.5245-16.7896-7.5735-22.9612c-5.0494-6.1709-11.4207-9.2576-19.1144-9.2576Zm5.2895,44.6606c-3.0466,3.3271-6.7737,4.9895-11.1802,4.9895-4.8896,0-8.9374-1.6624-12.1418-4.9895-3.2065-3.3247-4.8089-7.4719-4.8089-12.4419s1.6024-9.0952,4.8089-12.3823c3.2044-3.2856,7.2522-4.9292,12.1418-4.9292,4.4066,0,8.1336,1.6641,11.1802,4.9888,3.0446,3.3271,4.568,7.4353,4.568,12.3228,0,4.97-1.5234,9.1172-4.568,12.4419Z" style="fill:#1d1934;"/><path d="m80.785,64.9167c0,8.0957,2.0435,14.1255,6.1309,18.0925,4.0873,3.967,10.378,5.9507,18.8739,5.9507h7.3334v-14.3054h-7.3334c-5.8512,0-8.7756-2.9246-8.7756-8.7756v-24.6448h16.1089v-14.3057h-16.1089V3.606l-16.2292,5.0498v18.2727h-12.5026v14.3057h12.5026v23.6826Z" style="fill:#1d1934;"/><path d="m151.5137,40.6331c3.2852,0,6.2511.8618,8.8958,2.5845,2.6448,1.7244,4.647,4.189,6.011,7.3938l14.9069-5.1697c-2.6448-6.2515-6.6119-11.0991-11.9014-14.5461-5.2899-3.4453-11.2609-5.1697-17.9123-5.1697-9.4579,0-17.3527,3.0867-23.6828,9.2576-6.3322,6.1716-9.4971,13.8245-9.4971,22.9612s3.1649,16.7905,9.4971,22.9614c6.3301,6.1724,14.2249,9.2566,23.6828,9.2566,6.6514,0,12.6224-1.7227,17.9123-5.1697,5.2895-3.4446,9.2566-8.2947,11.9014-14.5461l-14.9069-5.1697c-1.364,3.2065-3.3662,5.6924-6.011,7.4541-2.6447,1.7634-5.6107,2.6448-8.8958,2.6448-4.6491,0-8.5355-1.6624-11.6613-4.9895-3.1253-3.3247-4.6882-7.4719-4.6882-12.4419,0-4.8875,1.5629-8.9956,4.6882-12.3228,3.1258-3.3247,7.0121-4.9888,11.6613-4.9888Z" style="fill:#1d1934;"/><path d="m39.0703,110.0923c-5.4509,0-10.1583,1.7039-14.1254,5.1091-3.9671,3.408-6.8735,8.0361-8.7161,13.885v-17.7917H0v86.0747h16.2288v-41.8347c1.8425,5.8511,4.749,10.4795,8.7161,13.8848,3.9671,3.407,8.6745,5.1094,14.1254,5.1094,7.6937,0,14.0651-3.0842,19.114-9.2566,5.049-6.1709,7.5739-13.8254,7.5739-22.9614s-2.5248-16.7896-7.5739-22.9612c-5.049-6.1707-11.4203-9.2573-19.114-9.2573Zm5.2895,44.6604c-3.0467,3.3271-6.7733,4.9895-11.1807,4.9895-4.8892,0-8.937-1.6624-12.1418-4.9895-3.2064-3.3247-4.8085-7.4719-4.8085-12.4419s1.6021-9.095,4.8085-12.3823c3.2048-3.2854,7.2527-4.929,12.1418-4.929,4.4073,0,8.134,1.6638,11.1807,4.9885,3.045,3.3271,4.5679,7.4353,4.5679,12.3228,0,4.97-1.5229,9.1172-4.5679,12.4419Z" style="fill:#1d1934;"/><path d="m101.256,112.3767c-4.2076,2.4849-7.3146,7.4946-9.3169,15.0269v-16.1089h-16.2288v62.0317h16.2288v-34.7429c0-5.4485,2.2428-9.3953,6.7325-11.8411,4.4872-2.4434,9.9781-2.5435,16.4693-.3008v-15.3875c-5.049-1.6021-9.6772-1.1609-13.8849,1.3225Z" style="fill:#1d1934;"/><path d="m166.3514,116.2239c-4.89-4.0879-11.2613-6.1316-19.1148-6.1316-7.6937,0-14.0259,1.8032-18.9942,5.4102-4.9699,3.6067-7.8951,8.1746-8.7756,13.7046l16.1089,3.6067c.5593-2.9644,1.8629-5.269,3.9067-6.9126,2.0439-1.6421,4.6683-2.4646,7.8748-2.4646,2.9635,0,5.3889.6816,7.273,2.0439,1.8817,1.363,2.8249,3.1665,2.8249,5.4094,0,3.0466-1.9232,4.6885-5.7704,4.929l-10.098.9622c-15.95,1.6826-23.9233,8.3359-23.9233,19.9553,0,5.2896,1.8034,9.5779,5.4094,12.8633,3.6068,3.2874,7.935,4.9292,12.984,4.9292,10.8195,0,17.9514-5.53,21.3984-16.5901v15.3877h16.2288v-39.1902c0-7.8535-2.445-13.8254-7.3326-17.9124Zm-8.8962,31.136c0,3.7683-1.5441,7.093-4.6283,9.9783-3.0866,2.8853-6.7529,4.3274-10.9996,4.3274-2.405,0-4.3282-.5806-5.7704-1.7432-1.4431-1.1609-2.1638-2.6633-2.1638-4.5085,0-1.7617.6799-3.2251,2.0431-4.3877,1.3623-1.1609,3.2048-1.9028,5.53-2.2241l10.4591-1.2017c2.7238-.3196,4.568-.9204,5.53-1.8032v1.5627Z" style="fill:#1d1934;"/><path d="m233.1898,128.2451c-1.8441-5.53-4.7685-9.9365-8.7756-13.2239-4.0087-3.2854-8.6965-4.929-14.0651-4.929-7.6154,0-13.9664,2.9871-19.0545,8.9565-5.0905,5.9709-7.6334,13.4038-7.6334,22.3s2.5428,16.3308,7.6334,22.3c5.0881,5.9712,11.4391,8.9568,19.0545,8.9568,5.3686,0,10.0564-1.6421,14.0651-4.9292,4.0071-3.2856,6.9315-7.6938,8.7756-13.2236v11.9011c0,5.0491-1.6436,9.2151-4.9283,12.5022-3.2872,3.2856-7.2943,4.9292-12.022,4.9292-6.413,0-11.1798-3.2065-14.3056-9.6177l-14.5461,7.6943c2.723,5.0491,6.6119,9.0952,11.6608,12.1421,5.049,3.0439,10.7779,4.5679,17.1909,4.5679,9.4555,0,17.3506-3.0859,23.6828-9.2566,6.3298-6.1726,9.4971-13.8254,9.4971-22.9614v-55.0593h-16.2296v16.9504Zm-4.6878,24.8853c-3.1257,3.125-7.0537,4.6877-11.7814,4.6877-4.568,0-8.4153-1.5815-11.541-4.748-3.1257-3.165-4.6886-7.0725-4.6886-11.7212s1.5629-8.5352,4.6886-11.6609,6.973-4.6885,11.541-4.6885c4.7277,0,8.6557,1.5442,11.7814,4.6282,3.1249,3.0859,4.6878,6.9934,4.6878,11.7212s-1.5629,8.6558-4.6878,11.7815Z" style="fill:#1d1934;"/><path d="m303.874,147.1194c0,3.7681-1.2017,6.8125-3.606,9.136-2.4042,2.3259-5.4908,3.4868-9.2566,3.4868-3.7682,0-6.8524-1.1609-9.2566-3.4868-2.405-2.3235-3.6068-5.3679-3.6068-9.136v-35.8247h-16.2296v35.8247c0,8.0957,2.7238,14.687,8.1747,19.7751,5.4492,5.0906,12.4222,7.6343,20.9182,7.6343s15.4665-2.5437,20.9174-7.6343c5.4493-5.0881,8.1747-11.6794,8.1747-19.7751v-35.8247h-16.2296v35.8247Z" style="fill:#1d1934;"/><path d="m387.6757,121.3333c-6.293-7.4932-14.6479-11.241-25.0655-11.241-9.2175,0-16.9503,3.0867-23.2018,9.2573-6.2515,6.1716-9.3765,13.8245-9.3765,22.9612s3.1649,16.7905,9.4971,22.9614c6.3297,6.1724,14.2249,9.2566,23.6819,9.2566,6.492,0,12.2812-1.5027,17.3718-4.5085,5.0881-3.0049,9.0349-7.0325,11.841-12.0815l-13.3436-6.0107c-3.2064,5.7705-8.337,8.6558-15.3882,8.6558-4.1677,0-7.754-1.1423-10.7591-3.4268-3.0059-2.2837-5.0702-5.3081-6.1912-9.0764h47.8458c1.6836-10.3384-.6212-19.2534-6.9119-26.7473Zm-40.6934,14.3657c1.121-3.5259,3.1046-6.3508,5.9507-8.4756,2.8436-2.1228,6.0705-3.186,9.6772-3.186,3.7665,0,7.0513,1.0632,9.8574,3.186,2.8046,2.1248,4.7677,4.9497,5.8912,8.4756h-31.3765Z" style="fill:#1d1934;"/></g><path d="m526.5397,9.3838c-16.2565,0-30.2606,9.6094-36.6661,23.4534-6.4055-13.844-20.4097-23.4534-36.6661-23.4534s-30.2606,9.6091-36.6661,23.4531c-6.4056-13.844-20.4097-23.4531-36.6661-23.4531s-30.2606,9.6091-36.6661,23.4531c-6.4056-13.844-20.4097-23.4531-36.6662-23.4531s-30.2606,9.6094-36.6661,23.4534c-6.4055-13.844-20.4097-23.4534-36.6661-23.4534-22.3065,0-40.3894,18.0828-40.3894,40.3894s18.0829,40.3894,40.3894,40.3894c16.2565,0,30.2606-9.6094,36.6661-23.4531,6.4055,13.8438,20.4096,23.4531,36.6661,23.4531s30.2606-9.6091,36.6662-23.4531c6.4056,13.844,20.4096,23.4531,36.6661,23.4531s30.2606-9.6091,36.6661-23.4531c6.4056,13.844,20.4096,23.4531,36.6661,23.4531s30.2606-9.6094,36.6661-23.4531c6.4055,13.8438,20.4097,23.4531,36.6661,23.4531,22.3065,0,40.3894-18.0828,40.3894-40.3894s-18.0829-40.3894-40.3894-40.3894Zm-219.9969,73.3323c-18.1648,0-32.9429-14.7781-32.9429-32.9429s14.7781-32.9429,32.9429-32.9429,32.9429,14.7781,32.9429,32.9429-14.7781,32.9429-32.9429,32.9429Zm146.6646,0c-18.1648,0-32.9429-14.7781-32.9429-32.9429s14.7781-32.9429,32.9429-32.9429,32.9429,14.7781,32.9429,32.9429-14.7781,32.9429-32.9429,32.9429Z" style="fill:#f18a48;"/></g></g></svg>