<svg xmlns="http://www.w3.org/2000/svg" width="150" height="56" fill="none" viewBox="0 0 150 56"><g clip-path="url(#a)"><mask id="b" width="48" height="40" x="0" y="8" maskUnits="userSpaceOnUse" style="mask-type:luminance"><path fill="#fff" d="M48 8.297H0v39.412h48z"/></mask><g mask="url(#b)"><path fill="#459c6e" d="m27.955 28.585-.289 1.944-3.392-2.006-3.392 2.006-.289-1.944 3.681-2.21z"/><path fill="#58c88d" d="m27.652 39.235-3.377 1.145-3.378-1.145.994-1.868 2.384.978 2.383-.978z"/><path fill="#459c6e" d="m24.275 26.369 3.681 2.214 8.503-6.124-1.715-1.904c-2.19 1.98-5.154 3.148-8.107 3.228l-2.362-1.463-2.361 1.463c-2.954-.08-5.919-1.248-8.108-3.228l-1.715 1.904 8.503 6.124z"/><path fill="#58c88d" d="M34.743 20.557c-2.194 1.984-5.155 3.144-8.108 3.228l-2.362-1.459-2.361 1.459c-2.954-.084-5.915-1.244-8.108-3.228 1.097-1.218 2.234-2.48 3.33-3.699l3.188-1.006 3.951 2.8 3.952-2.8 3.188 1.006c1.096 1.219 2.233 2.48 3.33 3.699"/><path fill="#459c6e" d="m27.668 30.53-1.009 6.839-2.383.977-2.384-.977-1.009-6.84 3.393-2.006z"/><path fill="#295c41" d="m30.274 44.217-2.49 2.757-3.509-1.083-3.509 1.083-2.49-2.757 2.622-4.983 3.377 1.146 3.378-1.146z"/><path fill="#58c88d" d="m27.785 46.974-.65.733h-5.718l-.65-.733 3.51-1.083z"/><path fill="#459c6e" d="m18.96 29.608-5.136-3.1-1.042 2.889 3.29 4.11 1.641 7.777 2.252-4.173z"/><path fill="#295c41" d="m12.784 29.398-.878 2.426 5.809 9.462-1.642-7.777z"/><path fill="#459c6e" d="m29.594 29.608 5.136-3.1 1.042 2.889-3.29 4.11-1.641 7.777-2.252-4.173z"/><path fill="#295c41" d="m35.773 29.398.877 2.426-5.809 9.462 1.642-7.777zM3.233 17.398c.09-2.98 5.627-9.101 5.627-9.101-2.405 2.568-5.135 4.578-7.146 7.477-.557.803-.907 1.813-.73 2.758.336 1.78 1.84 2.994 4.343 3.228 1.302.12 5.167-.03 5.167-.03l2.05-2.275c-2.303.16-9.387.437-9.311-2.057"/><path fill="#58c88d" d="M7.53 16.249c-.922-.46-1.577-1.427-1.081-3.028.578-1.878 1.276-3.25 2.412-4.924 0 0-5.537 6.12-5.627 9.1-.076 2.495 7.008 2.218 9.315 2.061l2.38-2.64c-3.172 0-5.208.528-7.4-.57"/><path fill="#295c41" d="M45.32 17.398c-.09-2.98-5.626-9.101-5.626-9.101 2.405 2.568 5.135 4.578 7.146 7.477.556.803.907 1.813.73 2.758-.336 1.78-1.84 2.994-4.343 3.228-1.302.12-5.167-.03-5.167-.03l-2.05-2.275c2.303.16 9.387.437 9.31-2.057"/><path fill="#58c88d" d="M41.024 16.249c.922-.46 1.577-1.427 1.081-3.028-.582-1.878-1.28-3.25-2.415-4.924 0 0 5.536 6.12 5.627 9.1.075 2.495-7.008 2.218-9.316 2.061l-2.38-2.64c3.176 0 5.212.528 7.403-.57"/></g></g><path fill="#000" d="M68.146 41h-13.84V14.2h13.2c5.72 0 8.8 2.04 8.8 6.68 0 3.2-1.8 5.28-5.36 5.72v.4c4.32.32 6.44 3.04 6.44 6.64 0 4.52-3.12 7.36-9.24 7.36m-7.84-21.4v5.2h6.8c2.24 0 3.2-.48 3.2-2.6 0-2.16-1-2.6-3.2-2.6zm0 10.08v5.92h7.64c2.2 0 3.4-.4 3.4-2.92 0-2.6-1.16-3-3.4-3zM87.72 41.4c-5.28 0-7.48-3.48-7.48-7.76V20.88h5.96v11.56c0 2.8.96 3.8 3.96 3.8 2.88 0 4.12-.92 4.12-3.96v-11.4h5.96V41h-5.56v-3.52h-.2c-1.12 2.32-3.24 3.92-6.76 3.92m22.154-.4h-5.96V14.2h5.96zm9.766 0h-5.96V14.2h5.96z"/><path fill="url(#c)" d="M129.408 41h-7l8.28-13.24v-.4l-8.28-13.16h7.08l5.96 9.52h.4l5.8-9.52h7l-8.24 13.12v.4l8.24 13.28h-7.08l-5.96-9.56h-.4z"/><defs><linearGradient id="c" x1="101" x2="101" y1="0" y2="56" gradientUnits="userSpaceOnUse"><stop stop-color="#52ba84"/><stop offset="1" stop-color="#3f8a62"/></linearGradient><clipPath id="a"><path fill="#fff" d="M0 8h48v40H0z"/></clipPath></defs></svg>