<svg xmlns="http://www.w3.org/2000/svg" xml:space="preserve" viewBox="0 0 1920 1080"><path d="M0 0h1920v1080H0z"/><path d="M906.2 454.1c-78.7-63.5-161.9-93-267.6-107.8-95-13.3-152.4-32.3-235.7-90l-50.3 74.9c74.6 55.5 144.5 83 239.2 99.5 67 11.6 119.5 12.4 189.1 49.4-13.7 17.8-26.2 43.9-33.8 61.8-34.8-20.6-86.1-36.4-154.6-37.1V594c33.3 1.4 63.2 5.5 103.5 23 49.1 21.3 83.3 53.2 83.3 53.2 39.2-137.9 126.9-216.1 126.9-216.1m219.9 116.7c-72 53.5-117 133.8-129 222.8h-73.8c40.5-323.7 338-352.8 394.5-360.8 102-14.4 175-46 249.6-101.5l-50.3-74.9c-83.3 57.7-140.7 76.7-235.7 89.9-105.7 14.8-192.5 46.5-271.2 110-122.4 96.7-180 238.6-180 382.1l.1 44.8h250.6v-44.8c-1-131.7 98.2-195.7 98.2-195.7 35.5-24 88.8-50.9 148.4-48.6v-89.2c-67.1-.7-136.4 20.6-201.6 65.8z" style="fill:#fff"/></svg>