<svg xmlns="http://www.w3.org/2000/svg" viewBox="0 0 1920 1080"><path d="M906.23 454.09c-78.67-63.52-161.89-93-267.61-107.78-95-13.26-152.41-32.26-235.71-89.95l-50.29 74.94c74.56 55.51 144.46 83 239.19 99.45 67 11.65 119.45 12.36 189.06 49.41-13.73 17.84-26.24 43.95-33.79 61.84-34.79-20.59-86.12-36.38-154.61-37.09v89.19c33.32 1.41 63.19 5.53 103.47 23 49.11 21.35 83.29 53.21 83.29 53.21 39.25-137.96 127-216.22 127-216.22m219.84 116.71c-72 53.54-116.95 133.84-129 222.79h-73.83c40.54-323.71 338-352.78 394.53-360.78 102-14.42 175-46 249.61-101.51l-50.29-74.94c-83.3 57.69-140.69 76.69-235.71 89.95-105.72 14.76-192.52 46.5-271.19 110-122.43 96.65-180 238.59-180 382.06l.1 44.8h250.58v-44.8c-1-131.67 98.23-195.73 98.23-195.73 35.53-23.95 88.79-50.89 148.41-48.56v-89.21c-67.11-.66-136.41 20.62-201.55 65.84Z" data-name="Layer 2" style="fill:#231f20"/></svg>