<?xml version="1.0" encoding="utf-8"?>
<!-- Generator: Adobe Illustrator 27.4.1, SVG Export Plug-In . SVG Version: 6.00 Build 0)  -->
<svg version="1.1" xmlns="http://www.w3.org/2000/svg" xmlns:xlink="http://www.w3.org/1999/xlink" x="0px" y="0px"
	 viewBox="0 0 1920 1080" style="enable-background:new 0 0 1920 1080;" xml:space="preserve">
<style type="text/css">
	.st0{fill:#FFFFFF;}
</style>
<g id="Background">
	<rect width="1920" height="1080"/>
</g>
<g id="Logo_mark">
	<g id="Layer_2_00000036939997380442363640000013590114779511432066_">
		<path class="st0" d="M906.2,454.1c-78.7-63.5-161.9-93-267.6-107.8c-95-13.3-152.4-32.3-235.7-90l-50.3,74.9
			c74.6,55.5,144.5,83,239.2,99.5c67,11.6,119.5,12.4,189.1,49.4c-13.7,17.8-26.2,43.9-33.8,61.8c-34.8-20.6-86.1-36.4-154.6-37.1
			V594c33.3,1.4,63.2,5.5,103.5,23c49.1,21.3,83.3,53.2,83.3,53.2C818.5,532.3,906.2,454.1,906.2,454.1z M1126.1,570.8
			c-72,53.5-117,133.8-129,222.8h-73.8c40.5-323.7,338-352.8,394.5-360.8c102-14.4,175-46,249.6-101.5l-50.3-74.9
			c-83.3,57.7-140.7,76.7-235.7,89.9c-105.7,14.8-192.5,46.5-271.2,110c-122.4,96.7-180,238.6-180,382.1l0.1,44.8h250.6v-44.8
			c-1-131.7,98.2-195.7,98.2-195.7c35.5-24,88.8-50.9,148.4-48.6v-89.2c-67.1-0.7-136.4,20.6-201.6,65.8L1126.1,570.8z"/>
	</g>
</g>
</svg>
