<svg xmlns="http://www.w3.org/2000/svg" width="246" height="84" fill="none" viewBox="0 0 246 84"><path fill="#fff" d="M0 .73h246V84H0z"/><path stroke="#000" stroke-opacity=".15" d="M.5 1.23h245V83.5H.5z"/><path fill="#000" d="M51.097 36.457c-4.199-3.374-8.621-4.939-14.246-5.731-5.055-.711-8.112-1.707-12.555-4.776l-2.67 3.983c3.974 2.947 7.704 4.41 12.738 5.284 3.567.61 6.359.65 10.068 2.622-.733.955-1.406 2.337-1.793 3.271-1.855-1.097-4.586-1.93-8.234-1.97v4.734c1.773.081 3.363.285 5.503 1.22 2.608 1.138 4.443 2.824 4.443 2.824 2.079-7.295 6.746-11.461 6.746-11.461m21.93-1.138c5.42-.773 9.314-2.439 13.288-5.386l-2.67-3.983c-4.443 3.069-7.5 4.065-12.555 4.776-5.625.792-10.251 2.48-14.45 5.853-6.522 5.141-9.579 12.68-9.579 20.28v2.379h13.35V56.86c-.061-6.99 5.238-10.385 5.238-10.385 1.895-1.28 4.728-2.702 7.907-2.58v-4.736c-3.566-.04-7.255 1.098-10.74 3.496-3.832 2.845-6.237 7.113-6.869 11.827h-3.933C54.174 37.29 70.01 35.745 73.027 35.32m42.718 6.442c2.792-1.606 4.198-3.943 4.198-6.991 0-2.317-.978-4.43-2.751-5.914-1.875-1.565-4.504-2.398-7.602-2.398H97.3v32.983h13.044c3.465 0 6.379-.894 8.397-2.622 2.017-1.707 3.098-4.105 3.098-6.97 0-4.329-3.139-7.214-6.094-8.088m-13.839-11.259h8.091c3.628 0 5.564 1.728 5.564 4.98 0 3.25-1.915 4.978-5.564 4.978h-8.091zm9.661 24.692h-9.661v-10.71h9.661c3.729 0 5.89 1.95 5.89 5.344 0 3.415-2.161 5.365-5.89 5.365m30.714-3.537c-1.977 2.886-4.484 4.471-7.011 4.471-3.058 0-4.749-1.707-4.749-4.796V35.827h-4.26v16.257c0 2.378.693 4.35 2.018 5.69 1.345 1.382 3.363 2.114 5.808 2.114 3.567 0 6.624-1.83 8.194-3.455v3.008h4.239V35.847h-4.239zm9.884 7.784h4.158V25.036h-4.158zm38.968-14.022c-3.974-1.057-6.134-1.972-6.134-3.76 0-1.26 1.243-2.621 3.954-2.621 2.67 0 4.382 1.382 4.708 3.8v.04h4.198v-.06c-.407-4.756-3.668-7.479-8.906-7.479-2.242 0-4.301.67-5.788 1.89-1.448 1.179-2.242 2.784-2.242 4.491 0 3.556 2.078 5.589 6.97 6.808 4.565 1.158 6.746 2.093 6.746 4.186 0 1.585-1.467 3.292-4.708 3.292-3.322 0-5.136-1.24-5.829-4.003v-.04h-4.015v.06c.469 4.918 4.117 7.845 9.762 7.845 2.609 0 4.851-.752 6.502-2.195 1.59-1.382 2.446-3.333 2.446-5.467 0-3.353-2.222-5.324-7.664-6.787m25.15-10.04c-3.525 0-6.786 1.708-8.478 3.455V25.056h-4.239v34.385h4.239V43.346c1.814-2.54 4.688-4.186 7.296-4.186 3.159 0 5.034 1.788 5.034 4.796V59.44h4.24V43.183c0-4.816-3.098-7.803-8.092-7.803m-42.269-8.738a2.866 2.866 0 1 0 0 5.731 2.866 2.866 0 0 0 2.873-2.865c.021-1.585-1.284-2.866-2.873-2.866m-12.046 32.8h4.158V25.036h-4.158zm9.926 0h4.239V35.847h-4.239z"/></svg>