<svg xmlns="http://www.w3.org/2000/svg" xml:space="preserve" viewBox="0 0 1920 1080"><path d="M0 0h1920v1080H0z"/><path d="M422.6 494.9c-31.3-25.3-64.4-37-106.5-42.9-37.8-5.3-60.7-12.8-93.8-35.8l-20 29.8c29.7 22.1 57.5 33 95.2 39.6 26.7 4.6 47.5 4.9 75.3 19.7-5.5 7.1-10.4 17.5-13.5 24.6-13.9-8.2-34.3-14.5-61.5-14.8v35.5c13.3.6 25.2 2.2 41.2 9.2 12.1 5.3 23.2 12.5 33.1 21.2 15.6-54.9 50.5-86.1 50.5-86.1m163.9-8.5c40.5-5.7 69.7-18.3 99.4-40.4l-20-29.8c-33.2 23-56 30.5-93.8 35.8-42.1 5.9-76.6 18.5-108 43.8-48.7 38.5-71.6 95-71.6 152.1v17.8h99.8v-17.8c-.4-52.4 39.1-77.9 39.1-77.9 14.1-9.5 35.3-20.3 59.1-19.3v-35.5c-26.7-.3-54.3 8.2-80.2 26.2-28.7 21.3-46.6 53.3-51.3 88.7h-29.3c15.8-128.9 134.2-140.5 156.8-143.7M1104 608.9c-14.8 21.6-33.5 33.5-52.4 33.5-22.9 0-35.5-12.8-35.5-35.9V490.3h-31.7v121.9c0 17.8 5.2 32.5 15 42.7 10.1 10.3 25.1 15.8 43.5 15.8 26.7 0 49.4-13.8 61.2-25.8v22.3h31.8V490.3H1104zm-198.2-74.3c20.9-12 31.4-29.6 31.4-52.3.1-17.1-7.4-33.4-20.6-44.4-14-11.8-33.7-18-56.9-18h-91.9v247.2h97.6c25.9 0 47.6-6.8 62.8-19.6s23.1-30.8 23.1-52.3c0-32.4-23.4-54-45.5-60.6m-103.4-84.4h60.5c27.2 0 41.5 12.9 41.5 37.3s-14.4 37.3-41.5 37.3h-60.5zm72.1 185.2h-72.2v-80.2h72.2c28 0 44 14.6 44 40.1s-16 40.1-44 40.1m782.7-148.6c-26.4 0-50.7 12.9-63.3 25.8V409.3h-31.8v257.8h31.8V546.5c13.6-19.1 35-31.4 54.5-31.4 23.6 0 37.7 13.4 37.7 35.9v116.2h31.8V545.3c-.1-36.1-23.4-58.5-60.7-58.5m-315.8-65.5c-11.9 0-21.5 9.6-21.5 21.5s9.6 21.5 21.5 21.5 21.5-9.6 21.5-21.5c-.1-11.9-9.7-21.5-21.5-21.5M1178 667.1h31V409.3h-31zm291.3-105c-29.7-7.9-45.8-14.8-45.8-28.2 0-9.5 9.2-19.7 29.6-19.7 20 0 32.8 10.4 35.2 28.5v.3h31.4v-.4c-3.1-35.6-27.4-56-66.6-56-16.8 0-32.1 5-43.2 14.2-10.8 8.9-16.7 20.9-16.7 33.7 0 26.6 15.6 41.9 52 51.1 34.2 8.7 50.4 15.6 50.4 31.3 0 11.8-11 24.6-35.2 24.6-24.9 0-38.3-9.2-43.6-30l-.1-.3h-29.9v.4c3.5 36.8 30.8 58.8 72.9 58.8 19.5 0 36.3-5.7 48.6-16.5 11.8-10.3 18.5-25.3 18.3-41 0-25.1-16.6-39.9-57.3-50.8m-218.1 105h31V409.3h-31zm74.3 0h31.8V490.3h-31.8z" style="fill:#fff"/></svg>