<?xml version="1.0" encoding="utf-8"?>
<!-- Generator: Adobe Illustrator 27.4.1, SVG Export Plug-In . SVG Version: 6.00 Build 0)  -->
<svg version="1.1" xmlns="http://www.w3.org/2000/svg" xmlns:xlink="http://www.w3.org/1999/xlink" x="0px" y="0px"
	 viewBox="0 0 1920 1080" style="enable-background:new 0 0 1920 1080;" xml:space="preserve">
<style type="text/css">
	.st0{fill:#FFFFFF;}
</style>
<g id="Background">
	<rect width="1920" height="1080"/>
</g>
<g id="Logo">
	<g id="Layer_2_00000074443921142294256840000007677681046788170909_">
		<path class="st0" d="M422.6,494.9c-31.3-25.3-64.4-37-106.5-42.9c-37.8-5.3-60.7-12.8-93.8-35.8l-20,29.8
			c29.7,22.1,57.5,33,95.2,39.6c26.7,4.6,47.5,4.9,75.3,19.7c-5.5,7.1-10.4,17.5-13.5,24.6c-13.9-8.2-34.3-14.5-61.5-14.8v35.5
			c13.3,0.6,25.2,2.2,41.2,9.2c12.1,5.3,23.2,12.5,33.1,21.2C387.7,526.1,422.6,494.9,422.6,494.9z M586.5,486.4
			c40.5-5.7,69.7-18.3,99.4-40.4l-20-29.8c-33.2,23-56,30.5-93.8,35.8c-42.1,5.9-76.6,18.5-108,43.8c-48.7,38.5-71.6,95-71.6,152.1
			v17.8h99.8v-17.8c-0.4-52.4,39.1-77.9,39.1-77.9c14.1-9.5,35.3-20.3,59.1-19.3v-35.5c-26.7-0.3-54.3,8.2-80.2,26.2l0,0
			c-28.7,21.3-46.6,53.3-51.3,88.7h-29.3C445.5,501.2,563.9,489.6,586.5,486.4z M1104,608.9c-14.8,21.6-33.5,33.5-52.4,33.5
			c-22.9,0-35.5-12.8-35.5-35.9V490.3h-31.7v121.9c0,17.8,5.2,32.5,15,42.7c10.1,10.3,25.1,15.8,43.5,15.8
			c26.7,0,49.4-13.8,61.2-25.8v22.3h31.8V490.3H1104V608.9z M905.8,534.6c20.9-12,31.4-29.6,31.4-52.3c0.1-17.1-7.4-33.4-20.6-44.4
			c-14-11.8-33.7-18-56.9-18h-91.9v247.2h97.6c25.9,0,47.6-6.8,62.8-19.6s23.1-30.8,23.1-52.3C951.3,562.8,927.9,541.2,905.8,534.6z
			 M802.4,450.2h60.5c27.2,0,41.5,12.9,41.5,37.3s-14.4,37.3-41.5,37.3h-60.5V450.2z M874.5,635.4h-72.2v-80.2h72.2
			c28,0,44,14.6,44,40.1S902.5,635.4,874.5,635.4z M1657.2,486.8c-26.4,0-50.7,12.9-63.3,25.8V409.3h-31.8v257.8h31.8V546.5
			c13.6-19.1,35-31.4,54.5-31.4c23.6,0,37.7,13.4,37.7,35.9v116.2h31.8V545.3C1717.8,509.2,1694.5,486.8,1657.2,486.8z
			 M1341.4,421.3c-11.9,0-21.5,9.6-21.5,21.5s9.6,21.5,21.5,21.5s21.5-9.6,21.5-21.5C1362.8,430.9,1353.2,421.3,1341.4,421.3
			L1341.4,421.3z M1178,667.1h31V409.3h-31V667.1z M1469.3,562.1c-29.7-7.9-45.8-14.8-45.8-28.2c0-9.5,9.2-19.7,29.6-19.7
			c20,0,32.8,10.4,35.2,28.5v0.3h31.4v-0.4c-3.1-35.6-27.4-56-66.6-56c-16.8,0-32.1,5-43.2,14.2c-10.8,8.9-16.7,20.9-16.7,33.7
			c0,26.6,15.6,41.9,52,51.1c34.2,8.7,50.4,15.6,50.4,31.3c0,11.8-11,24.6-35.2,24.6c-24.9,0-38.3-9.2-43.6-30l-0.1-0.3h-29.9v0.4
			c3.5,36.8,30.8,58.8,72.9,58.8c19.5,0,36.3-5.7,48.6-16.5c11.8-10.3,18.5-25.3,18.3-41C1526.6,587.8,1510,573,1469.3,562.1
			L1469.3,562.1z M1251.2,667.1h31V409.3h-31V667.1z M1325.5,667.1h31.8V490.3h-31.8V667.1z"/>
	</g>
</g>
</svg>
