<svg xmlns="http://www.w3.org/2000/svg" viewBox="0 0 1920 1080"><path d="M422.62 494.91c-31.31-25.29-64.44-37-106.53-42.91-37.82-5.28-60.66-12.84-93.83-35.8l-20 29.83c29.68 22.1 57.51 33 95.22 39.59 26.66 4.63 47.55 4.92 75.26 19.67-5.46 7.1-10.44 17.49-13.45 24.6-13.85-8.2-34.28-14.48-61.55-14.77v35.52c13.27.56 25.16 2.2 41.19 9.17A129.7 129.7 0 0 1 372.07 581c15.62-54.94 50.55-86.09 50.55-86.09m163.83-8.47c40.55-5.74 69.69-18.31 99.37-40.44l-20-29.83c-33.16 23-56 30.52-93.82 35.8-42.09 5.88-76.65 18.51-108 43.8-48.74 38.47-71.65 95-71.65 152.09v17.84h99.75v-17.81c-.39-52.41 39.11-77.91 39.11-77.91 14.14-9.54 35.34-20.26 59.07-19.34v-35.52c-26.71-.26-54.3 8.21-80.23 26.21-28.68 21.31-46.56 53.28-51.34 88.69h-29.32c16.14-128.83 134.55-140.4 157.06-143.58m319.34 48.16c20.86-12 31.44-29.57 31.44-52.34a57 57 0 0 0-20.6-44.35c-14-11.78-33.68-18-56.89-18h-91.93v247.23h97.57c25.89 0 47.61-6.78 62.83-19.59s23.11-30.81 23.11-52.27c0-32.47-23.43-54.07-45.53-60.68m-103.41-84.35h60.53c27.16 0 41.52 12.89 41.52 37.29s-14.36 37.29-41.52 37.29h-60.53Zm72.15 185.13h-72.15v-80.21h72.15c28 0 44 14.62 44 40.11s-16.05 40.1-44 40.1M1104 608.89c-14.85 21.63-33.47 33.54-52.43 33.54-22.91 0-35.53-12.75-35.53-35.89V490.32h-31.71v121.86c0 17.8 5.19 32.55 15 42.65 10.08 10.35 25.1 15.83 43.45 15.83 26.65 0 49.45-13.76 61.23-25.84v22.32h31.75V490.32H1104Zm74 58.25h31v-257.8h-31Zm291.29-105c-29.73-7.92-45.84-14.76-45.84-28.15 0-9.48 9.25-19.68 29.55-19.68 20 0 32.82 10.4 35.18 28.54v.33h31.39v-.42c-3.11-35.57-27.37-56-66.57-56-16.79 0-32.13 5.05-43.2 14.22-10.76 8.9-16.69 20.87-16.69 33.7 0 26.58 15.56 41.86 52 51.07 34.16 8.71 50.42 15.62 50.42 31.32 0 11.85-11 24.61-35.18 24.61-24.89 0-38.35-9.25-43.64-30l-.08-.29h-29.93v.42c3.54 36.82 30.8 58.8 72.92 58.8 19.52 0 36.31-5.7 48.57-16.47a53.72 53.72 0 0 0 18.35-41c.04-25.32-16.54-40.14-57.28-50.98Zm187.91-75.36c-26.42 0-50.67 12.87-63.35 25.84V409.34h-31.75v257.8h31.75V546.46c13.63-19.1 35-31.43 54.54-31.43 23.57 0 37.65 13.41 37.65 35.88v116.23h31.75V545.28c-.03-36.07-23.25-58.48-60.62-58.48Zm-315.82-65.49a21.51 21.51 0 1 0 21.51 21.51 21.53 21.53 0 0 0-21.54-21.49Zm-90.18 245.85h31v-257.8h-31Zm74.28 0h31.75V490.32h-31.75Z" data-name="Layer 2" style="fill:#231f20"/></svg>