<svg xmlns="http://www.w3.org/2000/svg" width="246" height="246" fill="none" viewBox="0 0 246 246"><path fill="#fff" d="M0 0h246v245.759H0z"/><path stroke="#000" stroke-opacity=".15" d="M.5.5h245v244.759H.5z"/><path fill="#000" d="M115.266 105.418C103.438 95.865 90.933 91.427 75.047 89.2c-14.278-2-22.905-4.859-35.424-13.54l-7.56 11.269c11.212 8.349 21.718 12.486 35.95 14.953 10.07 1.745 17.945 1.866 28.421 7.432-2.06 2.678-3.938 6.619-5.08 9.297-5.23-3.099-12.94-5.476-23.235-5.581v13.419c5.004.21 9.498.827 15.555 3.46 7.38 3.204 12.52 8.003 12.52 8.003 5.891-20.715 19.072-32.494 19.072-32.494m33.049 17.556c-10.821 8.048-17.569 20.128-19.387 33.517h-11.107c6.087-48.697 50.799-53.074 59.291-54.278 15.33-2.166 26.316-6.92 37.513-15.27l-7.56-11.267c-12.519 8.68-21.146 11.538-35.424 13.54-15.886 2.226-28.931 6.995-40.76 16.548-18.396 14.532-27.053 35.894-27.053 57.482l.015 6.74h37.664v-6.755c-.15-19.813 14.759-29.441 14.759-29.441 5.335-3.61 13.346-7.657 22.304-7.311V113.06c-10.07-.105-20.485 3.099-30.255 9.914"/></svg>