<svg xmlns="http://www.w3.org/2000/svg" data-name="Layer 2" viewBox="0 0 667.355 176"><path d="M109.741 85.144c14.648-4.961 25.569-19.606 25.569-37.726 0-27.312-19.366-47.413-53.62-47.413H0v175.988h86.409c33.007 0 54.356-20.599 54.356-49.144 0-21.845-13.897-37.483-31.024-41.705M33.758 28.803h42.465c16.643 0 25.328 8.43 25.328 21.844 0 13.402-9.434 22.087-25.073 22.087h-42.72zM79.95 147.447H33.758v-46.41h46.687c17.127 0 26.067 9.678 26.067 23.575 0 14.15-9.93 22.835-26.562 22.835m374.54-31.029L381.266 0H338.58v176h34.257V51.14L452.762 176h35.985V0H454.49zm-222.768 14.405L186.155.113l-23.966 37.428L213.351 176h35.259L313.887 0H277.65zM667.355 0h-41.397l-72.48 87.01V0h-34.299v176h34.299V88.988L625.958 176h41.397l-74.098-88.002z" data-name="Layer 1" style="fill:#f3f5f0"/></svg>