<svg xmlns="http://www.w3.org/2000/svg" xml:space="preserve" width="512.001" height="170.559" style="shape-rendering:geometricPrecision;text-rendering:geometricPrecision;image-rendering:optimizeQuality;fill-rule:evenodd;clip-rule:evenodd" viewBox="0 0 13547 4513"><defs><style>.fil1{fill:#15182a;fill-rule:nonzero}</style></defs><g id="Layer_x0020_1_0"><g id="Bybit_x0020_Logo.cdr"><path d="M9655 3480V-1h700v3481z" style="fill:#f6a500;fill-rule:nonzero"/><path d="M1500 4514H0V1033h1440c700 0 1107 381 1107 978 0 386-262 636-443 719 216 98 493 318 493 782 0 650-458 1002-1097 1002m-116-2875H699v802h685c297 0 463-161 463-401 0-239-166-401-463-401m45 1413H699v856h730c317 0 468-195 468-430s-151-425-468-425zM4732 3086v1428h-695V3086L2960 1033h760l669 1403 660-1403h760zM7793 4514H6293V1033h1440c700 0 1107 381 1107 978 0 386-262 636-443 719 216 98 493 318 493 782 0 650-458 1002-1097 1002m-116-2875h-685v802h685c297 0 463-161 463-401 0-239-166-401-463-401m45 1413h-730v856h730c317 0 468-195 468-430s-151-425-468-425zM12610 1639v2875h-699V1639h-937v-606h2573v606z" class="fil1"/></g></g></svg>