<svg xmlns="http://www.w3.org/2000/svg" width="134" height="42" fill="none"><path fill="#F3F5F0" fill-rule="evenodd" d="M21.924 4.803h.041c1.876.804 3.793 1.608 5.751 2.226a29.82 29.82 0 0 0 8.493 1.278l-.041-.041-.186-.186a10.383 10.383 0 0 0-1.587-1.257 5.374 5.374 0 0 0-.577-.35l-.145-.083-6.472-3.71-1.32-.742-1.112-.64A10.034 10.034 0 0 0 19.863 0a9.758 9.758 0 0 0-4.865 1.299l-1.175.68c2.824.618 5.504 1.731 8.1 2.844h.022l-.021-.02ZM5.392 6.782c-.391.247-.783.536-1.134.824a11.423 11.423 0 0 0-2.906 3.731 11.37 11.37 0 0 0-.721 1.98v.123c4.576 1.36 8.451 3.628 12.161 5.978a55.368 55.368 0 0 1 1.567-.784h.02c5.731-2.906 11.647-5.916 19.398-6.575a19.956 19.956 0 0 1 4.967.185 11.434 11.434 0 0 0-1.566-2.865h-.804c-3.092 0-6.122-.433-8.988-1.32-2.02-.618-3.978-1.442-5.874-2.246-2.618-1.113-5.298-2.247-8.101-2.824a9.288 9.288 0 0 0-1.093-.186l-6.39 3.649c-.185.103-.35.206-.515.31l-.02.02Zm-4.988 7.77c-.041.33-.083.66-.103 1.01v8.617c4.102-.804 7.688-2.37 11.316-4.164C8.093 17.79 4.567 15.79.424 14.553h-.02Zm14.47 5.072c5.628-2.845 11.44-5.793 18.964-6.432a19.31 19.31 0 0 1 5.236.268c.062.268.124.536.165.825.082.515.144 1.01.144 1.546v9.317c0 1.422-.288 2.824-.804 4.102a19.256 19.256 0 0 1-5.75-.227c-7.421-1.422-12.905-4.947-18.181-8.369-.268-.165-.536-.35-.804-.515.33-.165.68-.35 1.01-.515h.02Zm-2.514 13.48c1.978.846 4.04 1.712 6.122 2.35 3.772 1.175 7.853 1.567 11.955 1.237l.35-.206 1.237-.7 1.794-1.01a11.089 11.089 0 0 0 4.267-4.35 19.39 19.39 0 0 1-1.546.062 20.6 20.6 0 0 1-3.876-.371c-7.626-1.464-13.192-5.05-18.572-8.513-.103-.083-.227-.145-.33-.227-.33-.227-.68-.433-1.01-.66-3.834 1.917-7.853 3.71-12.409 4.597 0 .206 0 .392.02.577.042.536.124 1.072.227 1.608 0 .041.021.082.042.144v.062c.082.33.164.639.268.948.103.33.247.64.37.97v.04c.763.083 1.526.206 2.268.35 3.05.64 5.957 1.856 8.781 3.051l.042.042Zm5.792 3.402a32.525 32.525 0 0 0 9.502 1.401h.64l-3.567 2.041a9.879 9.879 0 0 1-4.864 1.299 9.821 9.821 0 0 1-4.865-1.299l-7.091-4.04-1.979-1.134c-1.505-.865-2.762-2.02-3.69-3.4a9.487 9.487 0 0 1-.309-.475c.474.062.948.144 1.402.247 2.948.619 5.813 1.814 8.554 2.99 2.02.865 4.102 1.73 6.225 2.39l.042-.02ZM85.783 7.153v23.602h4.04V7.153h-4.04ZM60.842 25.437c-.784 1.113-1.917 1.607-3.257 1.607-2.536 0-4.247-1.752-4.247-4.328 0-2.577 1.711-4.35 4.247-4.35 2.535 0 2.576.536 3.277 1.794l3.38-1.959c-1.442-2.164-3.916-3.483-6.678-3.483-4.473 0-8.163 3.257-8.163 8.018 0 4.762 3.69 7.977 8.163 7.977 4.473 0 5.112-1.195 6.534-3.215l-3.256-2.04v-.021Zm21.17 4.905H77.97v-1.174c-1.278 1.03-2.968 1.628-5.05 1.628-3.876 0-7.503-3.236-7.503-7.977S69.025 14.8 72.92 14.8s3.772.598 5.05 1.67v-1.216h4.04v15.089ZM77.97 22.82c0-2.783-2.164-4.535-4.35-4.535-2.184 0-4.287 1.752-4.287 4.535 0 2.783 1.835 4.514 4.288 4.514 2.453 0 4.349-1.731 4.349-4.514Zm20.2-11.667c0 1.34-1.03 2.329-2.452 2.329s-2.453-.99-2.453-2.33 1.01-2.39 2.453-2.39c1.443 0 2.453 1.113 2.453 2.39ZM93.7 30.755V15.666h4.04v15.089H93.7Zm7.689 0h13.542v-3.257h-8.554l8.204-9.152v-2.66h-12.966v3.258h7.978l-8.204 9.213v2.598Zm32.074 0h-4.041V29.58c-1.278 1.03-2.968 1.628-5.05 1.628-3.875 0-7.503-3.236-7.503-7.977s3.607-8.019 7.503-8.019 3.772.598 5.05 1.67v-1.216h4.041v15.089Zm-4.02-7.545c0-2.782-2.164-4.535-4.349-4.535s-4.288 1.753-4.288 4.535c0 2.783 1.835 4.515 4.288 4.515 2.453 0 4.349-1.732 4.349-4.515Z" clip-rule="evenodd"/></svg>