<svg xmlns="http://www.w3.org/2000/svg" width="64" height="64" fill="none" viewBox="0 0 64 64"><g clip-path="url(#a)"><circle cx="32" cy="32" r="32" fill="#000"/><path fill="#f58b00" d="M49.756 26.707a38 38 0 0 0-14.842-4.612v10.444l-3.71 1.59-3.71-1.59V22.094a38 38 0 0 0-14.842 4.611S11.765 51.1 31.202 60h.003c19.438-8.898 18.55-33.293 18.55-33.293M38.304 38.35l-4.031 1.728-2.835 1.215 3.332.033c.078 0 .135 9.146.118 9.17l-3.685 5.499-3.71-5.536s.064-9.204.143-9.204l3.32.034-2.823-1.21-4.032-1.727-4.03-1.728 4.03-1.727 7.044 3.018a.14.14 0 0 0 .112 0l7.043-3.018 4.031 1.727-4.03 1.727z"/><path fill="#fff3d4" d="m42.337 40.078-4.03-1.727-7.044 3.019a.14.14 0 0 1-.112 0l-7.043-3.019-4.032 1.727 4.032 1.728 4.03 1.727 3.07 1.316 3.069-1.316 4.03-1.727 4.032-1.728zM42.337 33.158l-7.42-3.18v2.56l-3.71 1.59-3.711-1.59v-2.56l-7.114 3.05a.143.143 0 0 0 0 .263l3.724 1.596 7.043 3.018a.14.14 0 0 0 .113 0l7.043-3.019 4.031-1.727zM43.87 18.026a44 44 0 0 0-10.214-1.787l-.843-7.583a.67.67 0 0 1 .17-.524 2.45 2.45 0 0 0 .649-1.666A2.47 2.47 0 0 0 31.159 4h-.013a2.47 2.47 0 0 0-2.473 2.466c0 .643.246 1.227.65 1.666a.66.66 0 0 1 .169.524l-.843 7.583a44 44 0 0 0-10.213 1.787l1.55 3.517.11-.035c3.484-1.017 7.268-1.524 11.054-1.524s7.573.507 11.059 1.524l.112.027z"/></g><defs><clipPath id="a"><path fill="#fff" d="M0 0h64v64H0z"/></clipPath></defs></svg>