<svg xmlns="http://www.w3.org/2000/svg" width="2.479rem" height="2.2406344819rem" fill="none" viewBox="0 0 52 47"><path fill="#fff" fill-rule="evenodd" d="M45.052 0c.047 0 .155.002.267.047.282.113 2.348 1.107 3.319 1.576l1.474.713-1.615.27c-.124.02-.32.056-.502.096a5 5 0 0 0-.312.08l-.064.049q-.103.082-.273.224c-.225.19-.523.444-.85.725l-.865.752h5.464L49.1 5.905l-4.27 1.391-1.104 2.644v4.613l-4.73 12.307-8.903 8.245V30.48l-.46.511-.587 4.246 4.556 8.622 1.757.749.943 1.268h-3.639l.235.499h-8.853l.772-2.113 1.102-.693-4.969-6.552v-1.214l-3.549 3.473 1.361-5.209-2.73 2.634-5.493 1.175v-.543L0 46.087l1.295-10.356 3.493-2.986.683-3.28 7.41-7.807 5.775-4.889 3.895-2.482.342-.007 5.146-5.78 1.196.007L33.847 2.7 38.052.267l3.023.764a69 69 0 0 1 2.262-.668C43.75.25 44.142.15 44.45.085c.153-.033.296-.059.416-.073q.09-.011.185-.012M25.085 36.048l.34-.38 4.76 7.264 1.53 1.025.099.217-1.993-.771zm5.48-27.542L34.29 8.5 32.76 9.567l-3.275-.018-.989.002-4.185 4.7 2.964-.058-1.098 1.098-3.04.025-.274.006-3.589 2.287-5.678 4.807-7.167 7.551-.346 1.664 3.543-3.05v1.398l-4.026 3.44-1.161 1 .002-.008-2.164 1.85-.918 7.343 9.179-7.625v-2.32l2.18-1.692v-3.74L24.725 18.1v1.386L13.76 28.712v2.445l11.257-8.763v1.353L13.56 32.633l-1.98 1.535v2.42l3.944-.843 3.744-3.611v-.002l.108-.102 3.332-3.214v1.47l-2.506 2.395-.843 3.223 16.66-16.3 2.318-4.243-1.95-2.932h-2.533l-8.12 6.436v-1.352L33.35 11.5l.143-.112h3.453l2.606 3.92-2.693 4.932-14.866 14.545v1.881l5.443 7.179-1.762 1.109-.139.38h5.724l-.148-.316-1.981-.767-5.35-8.308 6.314-7.02v-.001l.135-.149 4.908-5.458v1.58l-4.002 4.428v3.398l6.976-6.46 4.575-11.901V9.732l1.368-3.278 2.704-.88h-3.89l1.036-.912c.5-.44 1.259-1.105 1.913-1.67.327-.282.63-.541.861-.735.115-.096.215-.179.293-.24l.032-.026c-.835-.4-1.714-.82-1.998-.946l-.015.001a4 4 0 0 0-.322.057c-.28.06-.648.153-1.056.265-.813.222-1.75.506-2.364.7l-.14.044-2.9-.732-3.668 2.122zM45.05 1.041h-.003zM31.868 42.806l-3.899-7.379.397-2.875L26.2 34.95l4.741 7.235zM37.38 3.652l1.17.588 1.474-.487.296-.589-1.15-.567-1.518.513z" clip-rule="evenodd"/></svg>