<svg xmlns="http://www.w3.org/2000/svg" width="3441" height="747" fill="none" viewBox="0 0 3441 747"><path fill="#fff" fill-rule="evenodd" d="M725.468.893c.757.002 2.488.036 4.287.755 4.545 1.819 37.774 17.805 53.394 25.358l23.718 11.468-25.986 4.33c-1.993.333-5.152.91-8.075 1.545a76 76 0 0 0-3.854.928c-.568.157-.947.276-1.173.351q-.378.286-1.026.8a245 245 0 0 0-4.389 3.611c-3.624 3.036-8.415 7.136-13.656 11.66a3686 3686 0 0 0-13.932 12.098h87.889L790.579 95.88l-68.678 22.371-17.761 42.532v74.193l-76.096 197.957-143.192 132.629v-74.4l-7.407 8.235-9.433 68.293 73.271 138.691 28.261 12.037 15.178 20.401h-58.527l3.77 8.021H387.567l12.421-33.981 17.719-11.154-79.92-105.394v-19.515l-57.085 55.85 21.889-83.773-43.928 42.367-88.351 18.889v-8.735L.798 742.212 21.62 575.629l56.2-48.032 10.984-52.756L207.99 349.27l92.893-78.642 62.647-39.932 5.499-.108 82.775-92.96 19.242.101 74.179-93.412 67.649-39.135L661.5 17.47c9.955-3.117 23.997-7.352 36.377-10.735 6.66-1.82 12.959-3.427 17.923-4.478 2.464-.521 4.763-.942 6.686-1.17a25 25 0 0 1 2.982-.195M404.29 580.73l5.488-6.101 76.552 116.823 24.598 16.498 1.599 3.492-32.054-12.408zm88.154-443.016 59.896-.122-24.572 17.182-52.678-.277-15.911.032-67.321 75.606 47.676-.945-17.651 17.652-48.913.417-4.404.088-57.725 36.794-91.331 77.32-115.28 121.455-5.572 26.76 56.999-49.052v22.479l-64.76 55.347-18.684 16.08.028-.134-34.807 29.748-14.766 118.127 147.644-122.651v-37.332l35.065-27.194v-60.152l193.12-162.921v22.283L222.124 462.731v39.336l181.083-140.961v21.756L218.894 525.805l-.012.01-31.823 24.68v38.927l63.423-13.559 60.236-58.096.006-.021 1.717-1.641 53.608-51.703v23.658l-40.322 38.515-13.546 51.843 267.976-262.182 37.276-68.258-31.351-47.161h-40.745L414.721 304.335V282.59l122.499-96.71.013-.01 2.281-1.801h55.545l41.92 63.06-43.322 79.329L354.535 560.41v30.269l87.556 115.465-28.338 17.839-2.233 6.109h92.069l-2.384-5.073-31.862-12.333-86.06-133.643 101.569-112.925v-.013l2.162-2.391 78.959-87.788v25.422l-64.374 71.206v54.668l112.209-103.931 73.585-191.423v-74.442l22.015-52.719 43.478-14.163h-62.555l16.65-14.658a4561 4561 0 0 1 30.782-26.863c5.261-4.542 10.126-8.705 13.846-11.822a261 261 0 0 1 4.948-4.061q.142-.113.28-.22c-13.43-6.449-27.57-13.19-32.149-15.226l-.235.026c-1.188.14-2.92.443-5.183.922-4.49.951-10.424 2.458-16.978 4.25-13.075 3.572-28.141 8.144-38.022 11.264l-2.268.716-46.632-11.786-59.006 34.136zM725.42 17.64c.098 0 .075.007-.042 0zm42.769 27.69-.017.011.004-.003zM513.39 689.436l-62.706-118.694 6.387-46.244-34.86 38.55 76.266 116.386zm88.69-629.802 18.822 9.465 23.714-7.845 4.761-9.469-18.516-9.123-24.399 8.258zM953.874 499.537c21.109 17.981 51.986 19.935 96.546 19.935h89.13c48.08 0 80.13-1.954 98.89-17.981 17.2-14.462 22.67-35.962 22.67-68.796 0-2.06-.09-4.21-.18-6.45-.1-2.435-.21-4.976-.21-7.622h-32.44v7.817c0 47.298-17.98 60.198-69.58 60.198h-122.74c-30.49 0-49.642-4.691-60.977-20.718-9.773-13.681-10.164-31.271-10.164-55.115v-75.442c0-23.844.391-41.435 10.164-55.116 11.335-16.026 30.487-20.717 60.977-20.717h123.13c48.47 0 66.45 14.854 66.45 59.806v4.3h32.06c.39-5.472.39-10.553.39-15.243v-.002c0-65.278-32.45-80.132-118.44-80.132h-89.52c-45.34 0-75.829 2.736-96.156 19.935-20.326 17.199-26.971 45.734-26.971 89.514v77.397c0 40.261 6.645 67.233 26.971 84.432M2740.33 259.53h128.6c32.44 0 53.16 4.3 65.67 20.717 9.77 12.9 10.55 29.317 10.55 51.207v83.26c0 21.89-.78 38.307-10.55 51.206-12.51 16.418-33.23 20.718-65.67 20.718h-128.6c-32.45 0-53.17-4.3-65.67-20.718-10.56-14.072-10.95-31.662-10.95-55.506v-74.66c0-23.845.39-41.435 10.95-55.507 12.5-16.417 33.22-20.717 65.67-20.717m-85.61 240.007c22.28 17.59 55.12 19.936 102.81 19.936h94.59c48.08 0 80.91-2.346 102.8-19.936 20.72-16.417 28.54-44.171 28.54-85.996V334.19c0-42.216-8.21-69.969-28.54-85.996-21.49-17.199-54.72-19.935-102.8-19.935h-94.99c-48.08 0-81.3 2.736-102.8 19.935s-28.54 45.735-28.54 89.514v77.397c0 40.652 7.43 67.233 28.93 84.432m438.79 16.42h35.18V260.315l260.72 255.642h51.6V231.78h-35.18v251.733L3149.01 231.78h-55.5zm-664.66-131.73h-186.07v99.286h186.07c53.94 0 66.84-7.818 66.84-46.516 0-44.17-10.55-52.77-66.84-52.77m44.56-19.935c40.26 2.736 56.29 18.762 56.29 55.506v30.099c0 57.461-36.75 66.06-125.87 66.06H2207.6V231.78h202.88c39.87 0 68.01 1.563 85.6 12.508 19.94 12.509 24.24 30.099 24.24 59.415 0 36.353-8.6 52.38-46.91 60.589M2242.78 262.66v88.341h161.83c62.55 0 81.31-.782 81.31-43.389 0-19.544-2.74-31.271-12.12-37.134-12.12-7.427-33.22-7.818-63.71-7.818zm-458.85 253.297h35.18V404.553h172.38c48.86 0 68.8 3.518 68.8 48.08v63.324h35.18v-70.36c0-33.226-16.03-51.989-46.91-55.507 39.09-8.208 50.04-23.062 50.04-56.679v-34.007c0-57.852-31.67-67.624-111.8-67.624h-202.87zm35.18-253.297h179.03c50.42 0 63.32 8.99 63.32 47.689v13.681c0 38.698-12.9 47.688-63.32 47.688h-179.03zm-493.65 253.297 164.96-284.177h46.9l165.35 284.177h-37.53l-37.13-62.542h-225.94l-36.35 62.542zm93.81-92.641h191.54l-96.55-163.392z" clip-rule="evenodd"/></svg>