<svg width="1545" height="1402" viewBox="0 0 1545 1402" fill="none" xmlns="http://www.w3.org/2000/svg">
<path fill-rule="evenodd" clip-rule="evenodd" d="M1362.01 0.000131079C1363.43 0.00421456 1366.69 0.0684461 1370.07 1.42064C1378.61 4.83793 1441.06 34.8843 1470.42 49.0797L1515 70.633L1466.16 78.773C1462.41 79.3974 1456.48 80.4817 1450.98 81.6769C1448.23 82.276 1445.73 82.8717 1443.74 83.4202C1442.67 83.7143 1441.96 83.9388 1441.53 84.0799C1441.06 84.4403 1440.42 84.9366 1439.61 85.5842C1437.56 87.2103 1434.77 89.5089 1431.36 92.3703C1424.54 98.0768 1415.54 105.781 1405.69 114.286C1397.26 121.565 1388.24 129.401 1379.5 137.023H1544.69L1484.39 178.528L1355.31 220.574L1321.93 300.512V439.958L1178.9 812.017L909.775 1061.29V921.456L895.851 936.937L878.122 1065.29L1015.83 1325.96L1068.95 1348.58L1097.48 1386.93H987.479L994.564 1402H726.929L750.275 1338.13L783.576 1317.17L633.368 1119.08V1082.4L526.078 1187.38L567.217 1029.92L484.656 1109.55L318.599 1145.05V1128.64L0 1393.3L39.1362 1080.21L144.764 989.936L165.409 890.782L389.418 654.771L564.008 506.965L681.754 431.914L692.089 431.709L847.664 256.992L883.829 257.182L1023.25 81.6159L1150.39 8.06127L1241.78 31.159C1260.49 25.2999 1286.88 17.3417 1310.15 10.9832C1322.67 7.56255 1334.51 4.54245 1343.84 2.56684C1348.47 1.58643 1352.79 0.796111 1356.41 0.368543C1358.2 0.156506 1360.13 -0.00526384 1362.01 0.000131079ZM758.36 1089.8L768.672 1078.34L912.55 1297.9L958.782 1328.91L961.786 1335.47L901.544 1312.15L758.36 1089.8ZM924.044 257.156L1036.62 256.927L990.435 289.22L891.428 288.699L861.524 288.76L734.993 430.86L824.601 429.085L791.425 462.261L699.494 463.046L691.217 463.21L582.722 532.364L411.067 677.686L194.4 905.96L183.928 956.256L291.057 864.062V906.311L169.342 1010.34L134.223 1040.56L134.276 1040.31L68.8574 1096.22L41.1053 1318.23L318.599 1087.71V1017.55L384.504 966.438V853.382L747.472 547.175V589.056L415.981 868.021V941.953L756.325 677.017V717.908L409.91 986.568L409.888 986.586L350.076 1032.97V1106.14L469.279 1080.65L582.492 971.46L582.503 971.42L585.731 968.337L686.485 871.162V915.626L610.701 988.015L585.242 1085.45L1088.9 592.685L1158.96 464.394L1100.04 375.755H1023.46L777.965 570.317V529.447L1008.2 347.682L1008.22 347.664L1012.51 344.278H1116.91L1195.7 462.798L1114.27 611.897L664.845 1051.61V1108.5L829.406 1325.51L776.146 1359.04L771.949 1370.52H944.991L940.51 1360.99L880.626 1337.81L718.878 1086.63L909.775 874.386V874.363L913.838 869.868L1062.24 704.871V752.652L941.251 886.482V989.231L1152.15 793.894L1290.45 434.116V294.204L1331.82 195.118L1413.54 168.5H1295.97L1327.26 140.949C1342.37 127.65 1365.33 107.547 1385.12 90.4607C1395.01 81.9239 1404.15 74.0991 1411.14 68.2415C1414.63 65.3208 1417.65 62.8287 1420 60.9621C1420.33 60.6988 1420.65 60.4421 1420.97 60.1937C1395.73 48.0748 1369.15 35.4061 1360.54 31.5781C1360.41 31.5925 1360.26 31.6089 1360.1 31.6276C1357.87 31.8916 1354.61 32.46 1350.36 33.3608C1341.92 35.1477 1330.77 37.9803 1318.45 41.3468C1293.88 48.062 1265.56 56.6535 1246.99 62.5182L1242.73 63.8642L1155.08 41.7131L1044.18 105.87L924.044 257.156ZM1361.92 31.4769C1362.1 31.4774 1362.06 31.4901 1361.84 31.4781C1361.88 31.4771 1361.9 31.4768 1361.92 31.4769ZM1442.3 83.5183C1442.3 83.5195 1442.27 83.5398 1442.22 83.5751C1442.28 83.5347 1442.31 83.5171 1442.3 83.5183ZM963.41 1294.11L845.554 1071.03L857.559 984.113L792.04 1056.57L935.381 1275.31L963.41 1294.11ZM1130.1 110.408L1165.48 128.199L1210.05 113.453L1219 95.6574L1184.19 78.5099L1138.34 94.0309L1130.1 110.408Z" fill="url(#paint0_linear_861_1456)"/>
<defs>
<linearGradient id="paint0_linear_861_1456" x1="772.346" y1="0" x2="772.346" y2="1401.32" gradientUnits="userSpaceOnUse">
<stop stop-color="white"/>
<stop offset="1" stop-color="#8890A4"/>
</linearGradient>
</defs>
</svg>
