<svg width="3441" height="747" viewBox="0 0 3441 747" fill="none" xmlns="http://www.w3.org/2000/svg">
<path fill-rule="evenodd" clip-rule="evenodd" d="M725.468 0.892648C726.225 0.894821 727.956 0.928996 729.755 1.64844C734.3 3.46664 767.529 19.4531 783.149 27.0059L806.867 38.4735L780.881 42.8045C778.888 43.1367 775.729 43.7136 772.806 44.3495C771.34 44.6683 770.011 44.9852 768.952 45.277C768.384 45.4335 768.005 45.553 767.779 45.6281C767.526 45.8198 767.186 46.0839 766.753 46.4284C765.667 47.2936 764.181 48.5166 762.364 50.0391C758.74 53.0752 753.949 57.1745 748.708 61.6996C744.222 65.5726 739.425 69.7415 734.776 73.7968H822.665L790.579 95.88L721.901 118.251L704.14 160.783V234.976L628.044 432.933L484.852 565.562V491.162L477.445 499.397L468.012 567.69L541.283 706.381L569.544 718.418L584.722 738.819H526.195L529.965 746.84H387.567L399.988 712.859L417.707 701.705L337.787 596.311V576.796L280.702 632.646L302.591 548.873L258.663 591.24L170.312 610.129V601.394L0.797768 742.212L21.6206 575.629L77.8206 527.597L88.8049 474.841L207.991 349.27L300.884 270.628L363.531 230.696L369.03 230.588L451.805 137.628L471.047 137.729L545.226 44.3171L612.875 5.18165L661.5 17.471C671.455 14.3536 685.497 10.1194 697.877 6.73631C704.537 4.9163 710.836 3.30943 715.8 2.25829C718.264 1.73665 720.563 1.31616 722.486 1.08866C723.44 0.975849 724.469 0.889777 725.468 0.892648ZM404.29 580.731L409.778 574.63L486.33 691.453L510.928 707.951L512.527 711.443L480.473 699.035L404.29 580.731ZM492.444 137.715L552.34 137.593L527.768 154.775L475.09 154.498L459.179 154.53L391.858 230.136L439.534 229.191L421.883 246.843L372.97 247.26L368.566 247.348L310.841 284.142L219.51 361.462L104.23 482.917L98.6584 509.677L155.657 460.625V483.104L90.8977 538.451L72.2126 554.531L72.2406 554.397L37.434 584.145L22.6682 702.272L170.312 579.621V542.289L205.377 515.095V454.943L398.497 292.022V314.305L222.124 462.731V502.067L403.207 361.106V382.862L218.894 525.805L218.882 525.815L187.059 550.495V589.422L250.482 575.863L310.718 517.767L310.724 517.746L312.441 516.105L366.049 464.402V488.06L325.727 526.575L312.181 578.418L580.157 316.236L617.433 247.978L586.082 200.817H545.337L414.721 304.335V282.59L537.22 185.88L537.233 185.87L539.514 184.069H595.059L636.979 247.129L593.657 326.458L354.535 560.41V590.679L442.091 706.144L413.753 723.983L411.52 730.092H503.589L501.205 725.019L469.343 712.686L383.283 579.043L484.852 466.118V466.105L487.014 463.714L565.973 375.926V401.348L501.599 472.554V527.222L613.808 423.291L687.393 231.868V157.426L709.408 104.707L752.886 90.5443H690.331L706.981 75.8856C715.017 68.8097 727.233 58.114 737.763 49.023C743.024 44.4809 747.889 40.3177 751.609 37.2011C753.464 35.6471 755.073 34.3212 756.32 33.328C756.4 33.2645 756.479 33.2017 756.557 33.1396C756.651 33.0649 756.745 32.9914 756.837 32.9192C743.407 26.4712 729.267 19.7307 724.688 17.694C724.616 17.7016 724.537 17.7104 724.453 17.7203C723.265 17.8608 721.533 18.1632 719.27 18.6425C714.78 19.5932 708.846 21.1004 702.292 22.8915C689.217 26.4644 674.151 31.0356 664.27 34.156L662.002 34.8721L615.37 23.0864L556.364 57.2216L492.444 137.715ZM725.42 17.6401C725.518 17.6404 725.495 17.6472 725.378 17.6408C725.397 17.6403 725.411 17.6401 725.42 17.6401ZM768.189 45.3293C768.189 45.3296 768.183 45.3338 768.172 45.3413L768.176 45.3379C768.185 45.3317 768.189 45.3289 768.189 45.3293ZM513.39 689.437L450.684 570.743L457.071 524.499L422.211 563.049L498.477 679.435L513.39 689.437ZM602.08 59.6348L620.902 69.1003L644.616 61.2546L649.377 51.7864L630.861 42.6629L606.462 50.921L602.08 59.6348Z" fill="white"/>
<path fill-rule="evenodd" clip-rule="evenodd" d="M953.874 499.537C974.983 517.518 1005.86 519.472 1050.42 519.472H1139.55C1187.63 519.472 1219.68 517.518 1238.44 501.491C1255.64 487.029 1261.11 465.529 1261.11 432.695C1261.11 430.635 1261.02 428.485 1260.93 426.245C1260.83 423.81 1260.72 421.269 1260.72 418.623H1228.28V426.44C1228.28 473.738 1210.3 486.638 1158.7 486.638H1035.96C1005.47 486.638 986.318 481.947 974.983 465.92C965.21 452.239 964.819 434.649 964.819 410.805V335.363C964.819 311.519 965.21 293.928 974.983 280.247C986.318 264.221 1005.47 259.53 1035.96 259.53H1159.09C1207.56 259.53 1225.54 274.384 1225.54 319.336V323.636H1257.6C1257.99 318.164 1257.99 313.083 1257.99 308.393V308.391C1257.99 243.113 1225.54 228.259 1139.55 228.259H1050.03C1004.69 228.259 974.201 230.995 953.874 248.194C933.548 265.393 926.903 293.928 926.903 337.708V415.105C926.903 455.366 933.548 482.338 953.874 499.537ZM2740.33 259.53H2868.93C2901.37 259.53 2922.09 263.83 2934.6 280.247C2944.37 293.147 2945.15 309.564 2945.15 331.454V414.714C2945.15 436.604 2944.37 453.021 2934.6 465.92C2922.09 482.338 2901.37 486.638 2868.93 486.638H2740.33C2707.88 486.638 2687.16 482.338 2674.66 465.92C2664.1 451.848 2663.71 434.258 2663.71 410.414V335.754C2663.71 311.909 2664.1 294.319 2674.66 280.247C2687.16 263.83 2707.88 259.53 2740.33 259.53ZM2654.72 499.537C2677 517.127 2709.84 519.473 2757.53 519.473H2852.12C2900.2 519.473 2933.03 517.127 2954.92 499.537C2975.64 483.12 2983.46 455.366 2983.46 413.541V334.19C2983.46 291.974 2975.25 264.221 2954.92 248.194C2933.43 230.995 2900.2 228.259 2852.12 228.259H2757.13C2709.05 228.259 2675.83 230.995 2654.33 248.194C2632.83 265.393 2625.79 293.929 2625.79 337.708V415.105C2625.79 455.757 2633.22 482.338 2654.72 499.537ZM3093.51 515.957H3128.69V260.315L3389.41 515.957H3441.01V231.78H3405.83V483.513L3149.01 231.78H3093.51V515.957ZM2428.85 384.227H2242.78V483.513H2428.85C2482.79 483.513 2495.69 475.695 2495.69 436.997C2495.69 392.827 2485.14 384.227 2428.85 384.227ZM2473.41 364.292C2513.67 367.028 2529.7 383.054 2529.7 419.798V449.897C2529.7 507.358 2492.95 515.957 2403.83 515.957H2207.6V231.78H2410.48C2450.35 231.78 2478.49 233.343 2496.08 244.288C2516.02 256.797 2520.32 274.387 2520.32 303.703C2520.32 340.056 2511.72 356.083 2473.41 364.292ZM2242.78 262.66V351.001H2404.61C2467.16 351.001 2485.92 350.219 2485.92 307.612C2485.92 288.068 2483.18 276.341 2473.8 270.478C2461.68 263.051 2440.58 262.66 2410.09 262.66H2242.78ZM1783.93 515.957H1819.11V404.553H1991.49C2040.35 404.553 2060.29 408.071 2060.29 452.633V515.957H2095.47V445.597C2095.47 412.371 2079.44 393.608 2048.56 390.09C2087.65 381.882 2098.6 367.028 2098.6 333.411V299.404C2098.6 241.552 2066.93 231.78 1986.8 231.78H1783.93V515.957ZM1819.11 262.66H1998.14C2048.56 262.66 2061.46 271.65 2061.46 310.349V324.03C2061.46 362.728 2048.56 371.718 1998.14 371.718H1819.11V262.66ZM1325.46 515.957L1490.42 231.78H1537.32L1702.67 515.957H1665.14L1628.01 453.415H1402.07L1365.72 515.957H1325.46ZM1419.27 423.316H1610.81L1514.26 259.924L1419.27 423.316Z" fill="white"/>
</svg>
