<svg xmlns="http://www.w3.org/2000/svg" width="3441" height="747" fill="none" viewBox="0 0 3441 747"><path fill="url(#a)" fill-rule="evenodd" d="M725.468.171c.757.002 2.488.036 4.287.756 4.545 1.818 37.774 17.804 53.394 25.357l23.718 11.468-25.986 4.33c-1.993.333-5.152.91-8.075 1.546a75 75 0 0 0-3.854.927c-.568.157-.947.276-1.173.351-.253.192-.593.456-1.026.8a246 246 0 0 0-4.389 3.611c-3.624 3.036-8.415 7.136-13.656 11.661a3677 3677 0 0 0-13.932 12.097h87.889l-32.086 22.083-68.678 22.371-17.761 42.532v74.193l-76.096 197.958L484.852 564.84v-74.4l-7.407 8.235-9.433 68.293 73.271 138.691 28.261 12.037 15.178 20.401h-58.527l3.77 8.021H387.567l12.421-33.981 17.719-11.154-79.92-105.394v-19.515l-57.085 55.851 21.889-83.773-43.928 42.366-88.351 18.889v-8.735L.798 741.491 21.62 574.908l56.2-48.033 10.984-52.756L207.99 348.548l92.893-78.642 62.647-39.931 5.499-.109 82.775-92.96 19.242.101 74.179-93.412L612.875 4.46 661.5 16.75c9.955-3.118 23.997-7.352 36.377-10.735 6.66-1.82 12.959-3.427 17.923-4.478 2.464-.522 4.763-.943 6.686-1.17a25 25 0 0 1 2.982-.196M404.29 580.01l5.488-6.101 76.552 116.822 24.598 16.498 1.599 3.492-32.054-12.408zm88.154-443.017 59.896-.121-24.572 17.181-52.678-.277-15.911.032-67.321 75.606 47.676-.944-17.651 17.651-48.913.418-4.404.087-57.725 36.794-91.331 77.32-115.28 121.455-5.572 26.761 56.999-49.053v22.479l-64.76 55.348-18.684 16.08.028-.135-34.807 29.748L22.668 701.55 170.312 578.9v-37.332l35.065-27.195v-60.152L398.497 291.3v22.283L222.124 462.01v39.336l181.083-140.962v21.757L218.894 525.083l-.012.01-31.823 24.68V588.7l63.423-13.559 60.236-58.096.006-.021 1.717-1.64 53.608-51.703v23.657l-40.322 38.516-13.546 51.843 267.976-262.183 37.276-68.258-31.351-47.161h-40.745L414.721 303.613v-21.745l122.499-96.709.013-.01 2.281-1.802h55.545l41.92 63.06-43.322 79.329-239.122 233.953v30.269l87.556 115.464-28.338 17.84-2.233 6.108h92.069l-2.384-5.073-31.862-12.333-86.06-133.643 101.569-112.925v-.012l2.162-2.392 78.959-87.788v25.422l-64.374 71.206V526.5l112.209-103.93 73.585-191.424v-74.441l22.015-52.72 43.478-14.162h-62.555l16.65-14.66a4558 4558 0 0 1 30.782-26.862c5.261-4.542 10.126-8.705 13.846-11.822a260 260 0 0 1 4.711-3.873l.517-.409c-13.43-6.448-27.57-13.188-32.149-15.225l-.108.012-.127.015c-1.188.14-2.92.443-5.183.922-4.49.95-10.424 2.458-16.978 4.249-13.075 3.573-28.141 8.144-38.022 11.264l-2.268.716-46.632-11.785L556.364 56.5zm275.745-92.385-.044.03.033-.023.009-.006zM513.39 688.715l-62.706-118.694 6.387-46.244-34.86 38.55 76.266 116.386zm88.69-629.802 18.822 9.466 23.714-7.846 4.761-9.468-18.516-9.124-24.399 8.258z" clip-rule="evenodd"/><path fill="url(#b)" d="M3128.69 515.235h-35.18V231.058h55.5l256.82 251.733V231.058h35.18v284.177h-51.6l-260.72-255.642z"/><path fill="url(#c)" d="M2868.93 258.808h-128.6c-32.45 0-53.17 4.3-65.67 20.718-10.56 14.072-10.95 31.662-10.95 55.506v74.66c0 23.845.39 41.435 10.95 55.507 12.5 16.417 33.22 20.717 65.67 20.717h128.6c32.44 0 53.16-4.3 65.67-20.717 9.77-12.9 10.55-29.317 10.55-51.207v-83.26c0-21.89-.78-38.307-10.55-51.206-12.51-16.418-33.23-20.718-65.67-20.718m-111.4 259.943c-47.69 0-80.53-2.346-102.81-19.936-21.5-17.199-28.93-43.779-28.93-84.432v-77.396c0-43.78 7.04-72.315 28.54-89.514 21.5-17.2 54.72-19.936 102.8-19.936h94.99c48.08 0 81.31 2.736 102.8 19.936 20.33 16.026 28.54 43.779 28.54 85.996v79.35c0 41.826-7.82 69.579-28.54 85.996-21.89 17.59-54.72 19.936-102.8 19.936z"/><path fill="url(#d)" d="M2428.85 383.505h-186.07v99.286h186.07c53.94 0 66.84-7.818 66.84-46.516 0-44.17-10.55-52.77-66.84-52.77m44.56-19.935c40.26 2.736 56.29 18.762 56.29 55.506v30.099c0 57.461-36.75 66.06-125.87 66.06H2207.6V231.058h202.88c39.87 0 68.01 1.563 85.6 12.508 19.94 12.509 24.24 30.099 24.24 59.416 0 36.352-8.6 52.379-46.91 60.588m-230.63-101.632v88.341h161.83c62.55 0 81.31-.781 81.31-43.389 0-19.544-2.74-31.271-12.12-37.134-12.12-7.427-33.22-7.818-63.71-7.818z"/><path fill="url(#e)" d="M1819.11 515.235h-35.18V231.058h202.87c80.13 0 111.8 9.772 111.8 67.624v34.007c0 33.617-10.95 48.471-50.04 56.679 30.88 3.518 46.91 22.281 46.91 55.507v70.36h-35.18v-63.324c0-44.562-19.94-48.08-68.8-48.08h-172.38zm179.03-253.297h-179.03v109.059h179.03c50.42 0 63.32-8.991 63.32-47.689v-13.681c0-38.699-12.9-47.689-63.32-47.689"/><path fill="url(#f)" d="m1325.46 515.235 164.96-284.177h46.9l165.35 284.177h-37.53l-37.13-62.542h-225.94l-36.35 62.542zm93.81-92.641h191.54l-96.55-163.392z"/><path fill="url(#g)" d="M1050.42 518.751c-44.56 0-75.437-1.955-96.546-19.936-20.326-17.199-26.971-44.17-26.971-84.432v-77.396c0-43.78 6.645-72.315 26.971-89.514 20.327-17.2 50.816-19.936 96.156-19.936h89.52c85.99 0 118.44 14.854 118.44 80.133 0 4.69 0 9.772-.39 15.244h-32.06v-4.299c0-44.953-17.98-59.807-66.45-59.807h-123.13c-30.49 0-49.642 4.691-60.977 20.718-9.773 13.681-10.164 31.271-10.164 55.115v75.442c0 23.844.391 41.435 10.164 55.116 11.335 16.026 30.487 20.717 60.977 20.717h122.74c51.6 0 69.58-12.899 69.58-60.197v-7.818h32.44c0 5.081.39 9.772.39 14.072 0 32.835-5.47 54.334-22.67 68.797-18.76 16.026-50.81 17.981-98.89 17.981z"/><defs><linearGradient id="a" x1="411.732" x2="411.732" y1=".171" y2="745.754" gradientUnits="userSpaceOnUse"><stop stop-color="#fff"/><stop offset="1" stop-color="#8890a4"/></linearGradient><linearGradient id="b" x1="2187.92" x2="2187.92" y1="88.513" y2="658.283" gradientUnits="userSpaceOnUse"><stop stop-color="#fff"/><stop offset="1" stop-color="#8890a4"/></linearGradient><linearGradient id="c" x1="2187.91" x2="2187.91" y1="88.51" y2="658.281" gradientUnits="userSpaceOnUse"><stop stop-color="#fff"/><stop offset="1" stop-color="#8890a4"/></linearGradient><linearGradient id="d" x1="2187.92" x2="2187.92" y1="88.513" y2="658.283" gradientUnits="userSpaceOnUse"><stop stop-color="#fff"/><stop offset="1" stop-color="#8890a4"/></linearGradient><linearGradient id="e" x1="2187.92" x2="2187.92" y1="88.513" y2="658.283" gradientUnits="userSpaceOnUse"><stop stop-color="#fff"/><stop offset="1" stop-color="#8890a4"/></linearGradient><linearGradient id="f" x1="2187.92" x2="2187.92" y1="88.513" y2="658.283" gradientUnits="userSpaceOnUse"><stop stop-color="#fff"/><stop offset="1" stop-color="#8890a4"/></linearGradient><linearGradient id="g" x1="2187.92" x2="2187.92" y1="88.51" y2="658.281" gradientUnits="userSpaceOnUse"><stop stop-color="#fff"/><stop offset="1" stop-color="#8890a4"/></linearGradient></defs></svg>