<svg xmlns="http://www.w3.org/2000/svg" width="1545" height="1402" fill="none" viewBox="0 0 1545 1402"><path fill="url(#a)" fill-rule="evenodd" d="M1362.01 0c1.42.004 4.68.068 8.06 1.42 8.54 3.418 70.99 33.464 100.35 47.66L1515 70.633l-48.84 8.14c-3.75.624-9.68 1.709-15.18 2.904-2.75.599-5.25 1.195-7.24 1.743-1.07.294-1.78.519-2.21.66-.47.36-1.11.857-1.92 1.504-2.05 1.626-4.84 3.925-8.25 6.786-6.82 5.707-15.82 13.411-25.67 21.916a7187 7187 0 0 0-26.19 22.737h165.19l-60.3 41.505-129.08 42.046-33.38 79.938v139.446L1178.9 812.017 909.775 1061.29V921.456l-13.924 15.481-17.729 128.353 137.708 260.67 53.12 22.62 28.53 38.35H987.479l7.085 15.07H726.929l23.346-63.87 33.301-20.96-150.208-198.09v-36.68l-107.29 104.98 41.139-157.46-82.561 79.63-166.057 35.5v-16.41L0 1393.3l39.136-313.09 105.628-90.274 20.645-99.154 224.009-236.011 174.59-147.806 117.746-75.051 10.335-.205 155.575-174.717 36.165.19L1023.25 81.616 1150.39 8.06l91.39 23.098c18.71-5.86 45.1-13.817 68.37-20.176 12.52-3.42 24.36-6.44 33.69-8.416 4.63-.98 8.95-1.77 12.57-2.198 1.79-.212 3.72-.374 5.6-.369M758.36 1089.8l10.312-11.46L912.55 1297.9l46.232 31.01 3.004 6.56-60.242-23.32zm165.684-832.644 112.576-.229-46.185 32.293-99.007-.521-29.904.061-126.531 142.1 89.608-1.775-33.176 33.176-91.931.785-8.277.164-108.495 69.154-171.655 145.322L194.4 905.96l-10.472 50.296 107.129-92.194v42.249L169.342 1010.34l-35.119 30.22.053-.25-65.419 55.91-27.752 222.01L318.6 1087.71v-70.16l65.905-51.112V853.382l362.968-306.207v41.881L415.981 868.021v73.932l340.344-264.936v40.891L409.91 986.568l-.022.018-59.812 46.384v73.17l119.203-25.49 113.213-109.19.011-.04 3.228-3.083 100.754-97.175v44.464l-75.784 72.389-25.459 97.435L1088.9 592.685l70.06-128.291-58.92-88.639h-76.58L777.965 570.317v-40.87L1008.2 347.682l.02-.018 4.29-3.386h104.4l78.79 118.52-81.43 149.099-449.425 439.713v56.89l164.561 217.01-53.26 33.53-4.197 11.48h173.042l-4.481-9.53-59.884-23.18-161.748-251.18 190.897-212.244v-.023l4.063-4.495 148.402-164.997v47.781l-120.989 133.83v102.749l210.899-195.337 138.3-359.778V294.204l41.37-99.086 81.72-26.618h-117.57l31.29-27.551c15.11-13.299 38.07-33.402 57.86-50.488 9.89-8.537 19.03-16.362 26.02-22.22 3.49-2.92 6.51-5.412 8.86-7.279.33-.263.65-.52.97-.768-25.24-12.12-51.82-24.788-60.43-28.616-.13.015-.28.03-.44.05-2.23.264-5.49.832-9.74 1.733-8.44 1.787-19.59 4.62-31.91 7.986-24.57 6.715-52.89 15.307-71.46 21.171l-4.26 1.346-87.65-22.15-110.9 64.156zm437.876-225.68c.18.001.14.014-.08.002zm80.38 52.042-.08.057c.06-.04.09-.058.08-.057M963.41 1294.11l-117.856-223.08 12.005-86.917-65.519 72.457 143.341 218.74zM1130.1 110.408l35.38 17.791 44.57-14.746 8.95-17.796-34.81-17.147-45.85 15.52z" clip-rule="evenodd"/><defs><linearGradient id="a" x1="772.346" x2="772.346" y1="0" y2="1401.32" gradientUnits="userSpaceOnUse"><stop stop-color="#fff"/><stop offset="1" stop-color="#8890a4"/></linearGradient></defs></svg>