<svg xmlns="http://www.w3.org/2000/svg" fill="none" viewBox="0 0 114 26"><path fill="#000" fill-rule="evenodd" d="M25.954 0H.436v25.682h25.517v-8.965h-4.235c-1.46 3.27-4.745 5.548-8.505 5.548-5.184 0-9.383-4.261-9.383-9.442 0-5.18 4.199-9.406 9.383-9.406 3.833 0 7.118 2.352 8.579 5.695h4.162zm24.712 16.717c-1.496 3.27-4.745 5.548-8.542 5.548-5.038 0-9.163-4.042-9.346-9.075h22.123V0H29.383v25.681H54.9v-8.964zm.327-6.687H33.178c1.131-4.225 4.892-6.613 8.944-6.613s7.557 2.24 8.871 6.613m59.012 2.793c0 5.217-4.162 9.442-9.346 9.442-5.148 0-9.346-4.262-9.346-9.442s4.162-9.406 9.346-9.406 9.346 4.188 9.346 9.406M113.436 0H87.918v25.682h25.518zM80.493 16.717h4.235v8.964H58.297V0h4.308v12.823c0 5.731 4.235 9.405 9.272 9.405 3.906 0 7.338-2.13 8.616-5.51z" clip-rule="evenodd"/></svg>