<svg width="613" height="140" viewBox="0 0 613 140" fill="none" xmlns="http://www.w3.org/2000/svg">
<path fill-rule="evenodd" clip-rule="evenodd" d="M139.558 0H2.3418V138.288H139.556V90.0157H116.784C108.934 107.626 91.2658 119.891 71.0459 119.891C43.1707 119.891 20.5964 96.9441 20.5964 69.0469C20.5964 41.1504 43.1707 18.3999 71.0459 18.3999C91.6578 18.3999 109.326 31.0624 117.179 49.0645H139.558V0ZM272.442 90.013C264.395 107.622 246.923 119.887 226.51 119.888C199.418 119.888 177.236 98.126 176.255 71.022H295.214V0H157.997V138.284H295.214V90.013H272.442ZM274.201 54.0093H178.405C184.49 31.2587 204.707 18.4001 226.498 18.4001C248.288 18.4001 267.135 30.4659 274.201 54.0093ZM591.518 69.0442C591.518 97.1374 569.138 119.888 541.263 119.888C513.584 119.888 491.009 96.9408 491.009 69.0442C491.009 41.1476 513.389 18.3971 541.263 18.3971C569.138 18.3971 591.518 40.9515 591.518 69.0442ZM609.967 0H472.752V138.288H609.967V0ZM432.825 90.013H455.596V138.284H313.473V0H336.637V69.0442C336.637 99.9078 359.409 119.691 386.497 119.691C407.501 119.691 425.953 108.214 432.825 90.013Z" fill="white"/>
</svg>
