<svg xmlns="http://www.w3.org/2000/svg" width="613" height="140" fill="none" viewBox="0 0 613 140"><path fill="#fff" fill-rule="evenodd" d="M139.558 0H2.342v138.288h137.214V90.016h-22.772c-7.85 17.61-25.518 29.875-45.738 29.875-27.875 0-50.45-22.947-50.45-50.844S43.171 18.4 71.046 18.4c20.612 0 38.28 12.662 46.133 30.665h22.379zm132.884 90.013c-8.047 17.609-25.519 29.874-45.932 29.875-27.092 0-49.274-21.762-50.255-48.866h118.959V0H157.997v138.284h137.217V90.013zm1.759-36.004h-95.796C184.49 31.26 204.707 18.4 226.498 18.4c21.79 0 40.637 12.066 47.703 35.61m317.317 15.035c0 28.093-22.38 50.844-50.255 50.844-27.679 0-50.254-22.947-50.254-50.844 0-27.896 22.38-50.647 50.254-50.647 27.875 0 50.255 22.555 50.255 50.647M609.967 0H472.752v138.288h137.215zM432.825 90.013h22.771v48.271H313.473V0h23.164v69.044c0 30.864 22.772 50.647 49.86 50.647 21.004 0 39.456-11.477 46.328-29.678" clip-rule="evenodd"/></svg>