<svg xmlns="http://www.w3.org/2000/svg" xmlns:xlink="http://www.w3.org/1999/xlink" viewBox="0 0 1110 284.17"><defs><style>.b931ae16-2fb7-4090-8989-443a861a0616{fill:url(#e5043a1b-c452-40f0-be37-a47206679de0);}.ab994f06-0072-4081-bd18-b9def758edc6{fill:url(#b3ce2b87-3df9-486d-9fa8-18cb238f0c8c);}.b19b73d2-c96f-4495-b9db-2b8ff0924934{fill:#3d3652;}</style><linearGradient id="e5043a1b-c452-40f0-be37-a47206679de0" x1="91.98" y1="293.22" x2="292" y2="93.2" gradientUnits="userSpaceOnUse"><stop offset="0" stop-color="#b090f5"/><stop offset="1" stop-color="#5fbfff"/></linearGradient><linearGradient id="b3ce2b87-3df9-486d-9fa8-18cb238f0c8c" y1="113.25" x2="239.49" y2="113.25" gradientUnits="userSpaceOnUse"><stop offset="0" stop-color="#68d7fa"/><stop offset="1" stop-color="#7ef1b3"/></linearGradient></defs><g id="a0639f0c-cb1a-4ebb-ac2f-3407af501c68" data-name="Layer 2"><g id="a069e3e1-51ec-4abf-81f0-c99fcbbe85dd" data-name="Layer 2"><path class="b931ae16-2fb7-4090-8989-443a861a0616" d="M265.49,71.62l-6.16-10.76a6.31,6.31,0,0,0-9.94-1.33L235.32,73.6a6.34,6.34,0,0,0-.79,8,110.14,110.14,0,0,1,12.25,25.22l0,0A110.54,110.54,0,0,1,142.09,252.6a109.51,109.51,0,0,1-51.8-12.86l23.85-23.84A78.92,78.92,0,0,0,221,142.09a77.13,77.13,0,0,0-.45-8.17,78.72,78.72,0,0,0-7.44-26.23A6.33,6.33,0,0,0,203,106l-14.28,14.28a6.31,6.31,0,0,0-1.69,5.9l1.2,5.13a47.34,47.34,0,0,1-69.55,51.95l-6.28-3.6a6.31,6.31,0,0,0-7.61,1L46.53,238.85a6.31,6.31,0,0,0,.62,9.47l8.58,6.58a140.76,140.76,0,0,0,86.36,29.27c78.34,0,142.08-63.74,142.08-142.08A142.12,142.12,0,0,0,265.49,71.62Z"/><path class="ab994f06-0072-4081-bd18-b9def758edc6" d="M228.44,29.27A140.75,140.75,0,0,0,142.09,0C63.74,0,0,63.74,0,142.09a142.17,142.17,0,0,0,18.68,70.47l6.16,10.76a6.31,6.31,0,0,0,10,1.32l14.06-14.06a6.34,6.34,0,0,0,.79-8,110.55,110.55,0,0,1-12.25-25.22l0,0A110.54,110.54,0,0,1,142.09,31.57a109.5,109.5,0,0,1,51.79,12.86L170,68.28A78.9,78.9,0,0,0,63.15,142.09c0,1.31.35,7.29.46,8.32a79.3,79.3,0,0,0,7.44,26.07,6.33,6.33,0,0,0,10.17,1.73L95.5,163.94A6.33,6.33,0,0,0,97.18,158L96,152.91a48,48,0,0,1-1.26-10.82A47.32,47.32,0,0,1,165.53,101l6.29,3.6a6.31,6.31,0,0,0,7.6-1l58.22-58.22a6.32,6.32,0,0,0-.62-9.48Z"/><path class="b19b73d2-c96f-4495-b9db-2b8ff0924934" d="M467.77,181.27a5.77,5.77,0,0,0-7.47.17c-9.13,7.09-19.72,13.65-35.2,13.65-28.33,0-51.38-23.87-51.38-53.22s22.95-53.42,51.17-53.42c12.29,0,25.49,5.15,35.23,13.69a5.67,5.67,0,0,0,4.43,2,5,5,0,0,0,3.64-2.07l9.22-9.49a6,6,0,0,0,1.8-4.4,6,6,0,0,0-2.11-4.34c-16-14-32.21-20.26-52.42-20.26-43.14,0-78.24,35.32-78.24,78.73a78.36,78.36,0,0,0,78.24,78.3c20.3,0,38.53-7.32,52.73-21.2a6.5,6.5,0,0,0,1.86-4.72,5.15,5.15,0,0,0-1.66-3.73Z"/><path class="b19b73d2-c96f-4495-b9db-2b8ff0924934" d="M534.84,65.7h-14a6.09,6.09,0,0,0-5.92,6V212.53a6.09,6.09,0,0,0,5.92,5.95h14a6.1,6.1,0,0,0,5.93-5.95V71.65A6.09,6.09,0,0,0,534.84,65.7Z"/><path class="b19b73d2-c96f-4495-b9db-2b8ff0924934" d="M700,113.14C700,87,678.46,65.7,652,65.7H594.47a6,6,0,0,0-5.92,6V212.53a6,6,0,0,0,5.92,5.95h13.75a6.1,6.1,0,0,0,5.92-5.95V160.17H643l27.6,55.34a5.79,5.79,0,0,0,5.08,3h16.5a5.9,5.9,0,0,0,5.23-2.81,6.28,6.28,0,0,0,0-6.17l-28-52.22C688.35,148.86,700,132.12,700,113.14Zm-25.8.43c0,13.27-10.94,24.48-23.89,24.48H614.56V90.15H650.3C663.25,90.15,674.19,100.88,674.19,113.57Z"/><path class="b19b73d2-c96f-4495-b9db-2b8ff0924934" d="M850.29,181.27a5.77,5.77,0,0,0-7.47.17c-9.13,7.09-19.72,13.65-35.2,13.65-28.33,0-51.38-23.87-51.38-53.22s23-53.42,51.17-53.42c12.28,0,25.49,5.15,35.23,13.69a5.66,5.66,0,0,0,4.43,2,5,5,0,0,0,3.64-2.07l9.22-9.49a6,6,0,0,0,1.79-4.4,6,6,0,0,0-2.1-4.34c-16-14-32.21-20.26-52.42-20.26C764.05,63.57,729,98.89,729,142.3a78.36,78.36,0,0,0,78.25,78.3c20.29,0,38.52-7.32,52.73-21.2a6.52,6.52,0,0,0,1.86-4.73,5.18,5.18,0,0,0-1.66-3.72Z"/><path class="b19b73d2-c96f-4495-b9db-2b8ff0924934" d="M978.68,194.87h-55.4V71.65a6.09,6.09,0,0,0-5.92-6h-14a6,6,0,0,0-5.92,6V212.53a6,6,0,0,0,5.92,5.95h75.28a6,6,0,0,0,5.93-5.95V200.82A6,6,0,0,0,978.68,194.87Z"/><path class="b19b73d2-c96f-4495-b9db-2b8ff0924934" d="M1104.08,89.51a6,6,0,0,0,5.92-6V71.65a6,6,0,0,0-5.92-6h-84.59a6,6,0,0,0-5.92,6V212.53a6,6,0,0,0,5.92,5.95h84.59a6,6,0,0,0,5.92-5.95V200.82a6,6,0,0,0-5.92-5.95h-64.92V152.93h54.55a6,6,0,0,0,5.93-6V135.07a6.09,6.09,0,0,0-5.93-5.95h-54.55V89.51Z"/></g></g></svg>