<svg xmlns="http://www.w3.org/2000/svg" width="46" height="46" fill="none" viewBox="0 0 46 46"><circle cx="23" cy="23" r="23" fill="url(#a)"/><path fill="#fff" d="M35.547 13.759c-1.088 1.942-3.712.514-6.547 2.27-1.621 1.005-2.352 2.814-2.682 4.18-.358.505-.822.975-1.35 1.084-1.244.248-2.083.488-2.083 1.886 0 1.399.833 4.372 3.166 4.992s6.779.527 7.587 3.407a9 9 0 0 1 .326 2.435 3.36 3.36 0 0 1-2.022 3.069 15 15 0 0 1-6.026 1.25c-8.314 0-15.055-6.723-15.055-15.013S17.602 8.305 25.917 8.305a15 15 0 0 1 9.116 3.063 1.87 1.87 0 0 1 .547 2.329z"/><path fill="#fff" d="M30.32 19.95a3.5 3.5 0 0 0-.571.444.182.182 0 0 1-.189.039.2.2 0 0 1-.083-.06.2.2 0 0 1-.042-.094c-.086-.485-.126-1.349.582-1.634 1.004-.403 1.873.318 1.926.855s-1.288.264-1.623.45"/><defs><linearGradient id="a" x1="6.199" x2="40.69" y1="1.783" y2="45.34" gradientUnits="userSpaceOnUse"><stop stop-color="#27923a"/><stop offset=".39" stop-color="#3ea543"/><stop offset="1" stop-color="#229fab"/></linearGradient></defs></svg>