<?xml version="1.0" encoding="UTF-8"?>
<svg width="120px" height="120px" viewBox="0 0 120 120" version="1.1" xmlns="http://www.w3.org/2000/svg" xmlns:xlink="http://www.w3.org/1999/xlink">
    <title>logo/icon-white</title>
    <g id="logo/icon-white" stroke="none" stroke-width="1" fill="none" fill-rule="evenodd">
        <path d="M107.046442,24.2584954 L107.229525,24.2646861 C108.082196,24.3223936 108.903224,24.7825321 109.373455,25.6024954 L109.373455,25.6024954 L111.982623,30.1501651 L112.332102,30.7679312 C117.286935,39.650382 119.902416,49.7203436 119.902416,59.9383486 L119.902416,59.9383486 L119.894332,60.9300096 C119.36147,93.5923295 92.5540299,120 59.6787013,120 L59.6787013,120 L58.9762553,119.996052 C45.8762842,119.848699 33.4759184,115.579365 23.0757143,107.625688 L23.0757143,107.625688 L19.4408052,104.846532 L19.3030045,104.733791 C18.1501523,103.725987 18.0754738,101.938398 19.1767532,100.840514 L19.1767532,100.840514 L43.8541299,76.2310459 L43.9927978,76.1021411 C44.8467227,75.3626312 46.0835584,75.2351907 47.0770649,75.8025688 L47.0770649,75.8025688 L49.7401039,77.3240367 L50.1542162,77.554082 C53.0706761,79.1289808 56.3531641,79.9587523 59.6787013,79.9587523 L59.6787013,79.9587523 L60.0239411,79.9558367 C70.9347599,79.771428 79.7532727,70.8629128 79.7532727,59.9383486 L79.7532727,59.9383486 L79.7448779,59.366625 C79.7057224,58.0312225 79.5297338,56.6875596 79.2198701,55.3651376 L79.2198701,55.3651376 L78.7120779,53.1976514 L78.676336,53.0173944 C78.5391931,52.1743305 78.8153143,51.3116771 79.4260779,50.7029725 L79.4260779,50.7029725 L85.478961,44.6659817 L85.6123886,44.5413474 C86.9294285,43.3903692 89.0126061,43.7960073 89.7894545,45.3978716 L89.7894545,45.3978716 L90.0800599,46.013257 C91.5959954,49.3103965 92.5675584,52.8460831 92.9461558,56.4863119 L92.9461558,56.4863119 L93.0124073,57.1765079 C93.0920997,58.0971215 93.1364675,59.0188624 93.1364675,59.9383486 L93.1364675,59.9383486 L93.1319764,60.4892771 C92.8359433,78.6351945 77.942967,93.3058349 59.6787013,93.3058349 L59.6787013,93.3058349 L59.0029197,93.2989861 C55.1759132,93.2214203 51.393544,92.4859205 47.8321299,91.1392294 L47.8321299,91.1392294 L37.7257403,101.217908 L38.3381548,101.538021 C44.8924215,104.902177 52.141486,106.652917 59.6787013,106.652917 L59.6787013,106.652917 L60.4520829,106.646647 C85.9249356,106.233322 106.519662,85.4395861 106.519662,59.9383486 L106.519662,59.9383486 L106.5134,59.1738907 C106.434126,54.3349861 105.603009,49.5498936 104.06813,45.0028624 L104.06813,45.0028624 L104.052234,45.0182752 L103.792972,44.2704112 C102.553555,40.7910322 100.901361,37.4624881 98.8625974,34.3556697 L98.8625974,34.3556697 L98.763889,34.1935141 C98.1779964,33.1517758 98.3372312,31.8424073 99.1946494,30.9873028 L99.1946494,30.9873028 L105.157896,25.0405872 C105.687325,24.5121468 106.369532,24.2584954 107.046442,24.2584954 L107.046442,24.2584954 Z M60.486,0.0973211009 C73.9021043,0.0973211009 86.6144087,4.37636697 97.2472435,12.471633 L97.2472435,12.471633 L100.8984,15.250789 L101.036798,15.3634811 C102.194632,16.3708633 102.269224,18.1580754 101.163157,19.2568073 L101.163157,19.2568073 L76.3793739,43.8667156 L76.2400332,43.9955614 C75.3819778,44.7347789 74.1393886,44.8629879 73.1419826,44.2951927 L73.1419826,44.2951927 L70.4660348,42.772844 L70.0502403,42.5428535 C67.1219091,40.9683012 63.8255727,40.1381284 60.486,40.1381284 L60.486,40.1381284 L60.1392591,40.1410442 C49.181002,40.3254618 40.3241478,49.2344037 40.3241478,60.1585321 L40.3241478,60.1585321 L40.3325774,60.7310866 C40.371891,62.0680665 40.5485478,63.4108624 40.8589826,64.7317431 L40.8589826,64.7317431 L41.3689826,66.9001101 L41.4048028,67.0802849 C41.5422348,67.9229925 41.265327,68.7856734 40.6523217,69.394789 L40.6523217,69.394789 L34.5748957,75.4286972 L34.440928,75.5533343 C33.1185081,76.704367 31.025473,76.2995376 30.2461043,74.6972477 L30.2461043,74.6972477 L29.9558653,74.0849825 C28.4415422,70.8045606 27.4661478,67.2870372 27.0792261,63.6770642 L27.0792261,63.6770642 L27.015587,63.0248257 L27.015587,63.0248257 L26.9652522,62.3722569 L26.9472359,62.1015963 L26.9472359,62.1015963 L26.9315478,61.8306055 L26.906286,61.2731172 C26.8918319,60.9014801 26.8827652,60.5299083 26.8827652,60.1585321 L26.8827652,60.1585321 L26.8872757,59.6076166 C27.1845873,41.4621178 42.1418854,26.7910459 60.486,26.7910459 L60.486,26.7910459 L61.1646538,26.7978986 C65.0079699,26.875508 68.8071797,27.6114006 72.3840783,28.9580917 L72.3840783,28.9580917 L82.5339652,18.8794128 L81.9188489,18.5592617 C75.3356818,15.1947039 68.0551257,13.4439633 60.486,13.4439633 L60.486,13.4439633 L59.7092558,13.4502341 C34.1256428,13.8635759 13.4409391,34.6581666 13.4409391,60.1585321 L13.4409391,60.1585321 L13.4472316,60.9231124 C13.5268908,65.7627325 14.3620213,70.5474275 15.9035739,75.0944587 L15.9035739,75.0944587 L15.9182087,75.0799266 L16.1787082,75.8278237 C17.4241229,79.3075004 19.0852939,82.6382092 21.1308522,85.7429725 L21.1308522,85.7429725 L21.2298033,85.9051846 C21.8171437,86.9472209 21.6576378,88.2557945 20.796913,89.1108991 L20.796913,89.1108991 L14.8086261,95.0567339 L14.6760819,95.1800066 C13.4123419,96.2800619 11.42426,95.9693565 10.5747391,94.4948257 L10.5747391,94.4948257 L7.95378261,89.947156 L7.60278564,89.3294773 C2.62642876,80.4482397 4.26325641e-14,70.3778282 4.26325641e-14,60.1585321 L4.26325641e-14,60.1585321 L0.00811921685,59.1668712 C0.543297323,26.50456 27.4672962,0.0973211009 60.486,0.0973211009 Z" id="Combined-Shape" fill="#FFFFFF"></path>
    </g>
</svg>