<svg xmlns="http://www.w3.org/2000/svg" width="393" height="86" fill="none" viewBox="0 0 393 86"><path fill="#f9f9f9" d="M375.156 57.39c-4.425-6.429-9.461-10.1-15.805-11.522-.316-1.724-.474-3.348-.474-4.942 0-1.782.094-3.528.28-5.194 5.079-1.25 9.181-4.102 12.529-8.721l18.261-25.632h-13.678l-12.456 18.218c-3.168 4.547-5.115 9.44-5.941 14.942-1.315.237-2.781.352-4.677.352-1.897 0-3.362-.107-4.677-.352-.826-5.502-2.773-10.394-5.941-14.935L330.114 1.38h-13.678l18.261 25.639c3.34 4.612 7.442 7.464 12.521 8.714.187 1.66.28 3.405.28 5.194 0 1.594-.158 3.21-.474 4.935-6.25 1.286-11.429 5.065-15.811 11.53l-17.866 26.314h13.297l14.655-22.399c3.613-5.531 5.926-9.676 6.932-14.217 1.487-.244 3.111-.366 4.942-.366 1.832 0 3.456.122 4.943.366 1.006 4.54 3.319 8.686 6.932 14.217l14.655 22.399H393l-17.866-26.314zM262.116 73.203v-27.22h41.946V35.532h-41.946v-23.75h45.99V1.33h-58.059v23.714c0 8.024 4.224 10.488 12.069 10.488v10.453c-7.335 0-12.069 3.879-12.069 11.414v26.257h58.059V73.203zM221.951 12.917c-4.547-7.795-11.86-11.588-22.341-11.588H171.6v82.326h28.01c9.834 0 17.183-3.858 21.867-11.465 11.796-4.677 18.024-15.021 18.024-29.928s-6.07-24.554-17.55-29.345m-16.673 60.63h-23.204V11.43h23.204c6.048 0 11.321.883 15.674 2.629 3.585 6.386 5.331 15.617 5.331 28.203s-1.89 22.047-5.783 28.771c-4.447 1.674-9.569 2.522-15.222 2.522zM143.765 12.88C139.218 4.333 131.582 0 121.058 0s-18.29 4.454-22.83 13.233C86.992 18.592 81.05 28.642 81.05 42.319c0 13.678 6.221 24.296 18.003 29.792 4.878 8.62 12.284 12.988 22.004 12.988 10.567 0 18.21-4.411 22.715-13.11 11.314-5.23 17.291-15.489 17.291-29.67 0-14.18-5.819-24.137-17.299-29.439m-22.707 61.996c-8.104 0-15.165-1.307-20.977-3.879-3.85-7.162-5.804-16.81-5.804-28.678 0-11.867 1.688-21.421 5.007-27.995 5.847-2.758 13.369-4.216 21.774-4.216s15.84 1.307 21.666 3.879c3.441 6.702 5.115 15.976 5.115 28.332s-1.724 21.947-5.122 28.57c-5.733 2.644-13.025 3.987-21.659 3.987M62.305 52.923l-.022.697c-.223 7.097-1.329 13.017-3.297 17.614-5.64 2.414-12.414 3.642-20.136 3.642-7.723 0-14.892-1.343-20.618-3.987-3.326-6.788-5.014-16.4-5.014-28.577 0-12.176 1.796-21.889 5.345-28.677 5.481-2.35 12.298-3.535 20.28-3.535 7.47 0 13.972 1.07 19.338 3.19 1.688 3.793 2.83 8.678 3.405 14.533l.065.646h13.448l-.338-.955c-2.377-6.774-7.737-12.069-15.51-15.337C55.424 3.987 48.75 0 38.85 0c-9.9 0-16.846 4.217-21.315 12.529C5.898 17.729 0 27.75 0 42.319c0 14.57 5.941 24.253 17.176 29.662C21.666 80.688 28.958 85.1 38.85 85.1s17.234-4.296 21.22-12.773c8.212-3.836 13.578-10.237 15.532-18.52l.208-.883z"/></svg>