<svg xmlns="http://www.w3.org/2000/svg" width="192" height="28" fill="none"><path fill="#f3f5f0" d="M22.775 19.468c-2.834 2.166-6.876 1.894-9.402-.634a7.12 7.12 0 0 1-2.097-5.063 7.1 7.1 0 0 1 2.097-5.064 7.12 7.12 0 0 1 5.06-2.097 7.1 7.1 0 0 1 5.061 2.099l1.557-1.558a9.28 9.28 0 0 0-6.617-2.742 9.29 9.29 0 0 0-6.618 2.742 9.3 9.3 0 0 0-2.741 6.62 9.29 9.29 0 0 0 2.742 6.62c3.072 3.074 7.856 3.595 11.494 1.373l1.595 1.594a11.5 11.5 0 0 1-6.942 1.97 11.53 11.53 0 0 1-7.706-3.379c-4.507-4.51-4.507-11.848 0-16.358a11.48 11.48 0 0 1 8.176-3.388 11.48 11.48 0 0 1 8.175 3.388l1.557-1.558A13.67 13.67 0 0 0 18.436 0a13.67 13.67 0 0 0-9.734 4.034c-5.368 5.37-5.368 14.104 0 19.472a13.72 13.72 0 0 0 9.735 4.033 13.7 13.7 0 0 0 8.848-3.225l.918-.774-4.666-4.657-.764.585z"/><path fill="#f3f5f0" d="M7.17 2.503 5.612.945A18.03 18.03 0 0 0 .3 13.77c0 4.845 1.885 9.4 5.312 12.827l1.556-1.558a15.84 15.84 0 0 1-4.665-11.27c0-4.258 1.656-8.258 4.665-11.269v.002Zm49.35 5.181q1.582-.971 3.637-.972c2.055-.001 2.54.347 3.511 1.041a6 6 0 0 1 2.124 2.707l2.942-1.388q-.529-1.416-1.722-2.623t-2.928-1.956-3.927-.749c-1.461 0-2.84.264-4.08.792a9.85 9.85 0 0 0-3.247 2.22 10 10 0 0 0-2.151 3.387q-.764 1.956-.764 4.26c0 1.536.259 2.98.777 4.275q.778 1.943 2.151 3.372a9.8 9.8 0 0 0 3.247 2.234q1.874.804 4.067.804c2.193 0 2.771-.25 3.927-.748q1.734-.75 2.928-1.971 1.194-1.22 1.722-2.61l-2.942-1.388a5.9 5.9 0 0 1-2.124 2.692q-1.456 1.026-3.511 1.027-2.054 0-3.636-.958t-2.457-2.692-.874-4.038q-.001-2.304.874-4.024.873-1.721 2.457-2.692zm26.217 2.734q-1.762-1.014-3.983-1.013c-1.48 0-2.786.337-3.97 1.013a7.7 7.7 0 0 0-2.83 2.776q-1.056 1.762-1.055 4.038c0 1.517.35 2.84 1.054 4.026a7.7 7.7 0 0 0 2.845 2.803q1.79 1.026 3.955 1.026t3.941-1.013a7.66 7.66 0 0 0 2.832-2.789q1.054-1.775 1.054-4.051t-1.041-4.039a7.6 7.6 0 0 0-2.803-2.776zm0 9.353a4.54 4.54 0 0 1-1.624 1.763q-1.028.638-2.359.638c-1.331 0-1.652-.213-2.345-.638a4.5 4.5 0 0 1-1.638-1.763q-.597-1.124-.596-2.539 0-1.415.596-2.526a4.53 4.53 0 0 1 1.638-1.749q1.041-.639 2.345-.639c.87 0 1.674.213 2.359.64a4.56 4.56 0 0 1 1.624 1.748q.596 1.11.596 2.526-.001 1.415-.596 2.54ZM92.771 9.738h-3.137v15.016h3.137zm0-5.663h-3.137v3.608h3.137zm13.849 6.051q-1.276-.72-2.941-.721c-1.11 0-2.017.245-2.832.735a4.1 4.1 0 0 0-1.415 1.42V9.738h-2.998v15.016h3.137V15.9q.001-1.11.416-1.915a2.93 2.93 0 0 1 1.179-1.235q.763-.43 1.734-.43.972 0 1.735.43.763.432 1.179 1.222t.416 1.93v8.854h3.109v-9.687q0-1.665-.721-2.942a5.2 5.2 0 0 0-1.999-1.998zm25.465 0q-1.263-.72-2.816-.721-1.776 0-3.15.888-.944.614-1.554 1.661a4.7 4.7 0 0 0-1.472-1.592q-1.401-.958-3.206-.957-1.61 0-2.859.777a3.8 3.8 0 0 0-1.332 1.399V9.738h-2.997v15.016h3.137V15.9q0-1.11.402-1.915a2.9 2.9 0 0 1 1.124-1.235q.721-.43 1.665-.43c.628 0 1.207.144 1.678.43q.708.432 1.111 1.222.402.79.402 1.93v8.854h3.109v-8.854q.001-1.111.416-1.915a3 3 0 0 1 1.138-1.236q.723-.43 1.665-.43t1.652.43q.708.432 1.111 1.222.402.791.402 1.93v8.854h3.137v-9.715q0-1.637-.749-2.913a5.43 5.43 0 0 0-2.012-1.999zm18.196 1.457a6.5 6.5 0 0 0-2.248-1.596q-1.334-.584-3.026-.583-2.11 0-3.774 1.013a7.46 7.46 0 0 0-2.651 2.763q-.985 1.747-.985 4.023c0 2.276.323 2.817.971 4.011a7.3 7.3 0 0 0 2.706 2.832q1.735 1.04 3.983 1.04 1.526.001 2.817-.485a6.8 6.8 0 0 0 2.22-1.332q.93-.847 1.375-1.902l-2.554-1.248a4.5 4.5 0 0 1-1.513 1.581q-.957.61-2.317.611c-.906 0-1.679-.213-2.373-.639a4.27 4.27 0 0 1-1.61-1.777 4.45 4.45 0 0 1-.445-1.749h11.173a4 4 0 0 0 .112-.72q.027-.39.028-.75 0-1.47-.486-2.775a7.2 7.2 0 0 0-1.401-2.318zm-8.992 2.86q.526-1.152 1.499-1.777.972-.624 2.221-.625 1.249 0 2.179.624.93.625 1.388 1.694.256.6.279 1.29h-7.921q.105-.657.355-1.206m21.094 7.702q-.888 0-1.443-.29a1.74 1.74 0 0 1-.805-.833q-.25-.541-.25-1.32V12.57h3.415V9.739h-3.415V6.296h-3.137v1.166q0 1.056-.583 1.666t-1.637.61h-.416v2.832h2.638v7.272q0 2.416 1.304 3.747 1.304 1.332 3.664 1.332.361-.001.833-.056.47-.055.86-.112v-2.692q-.25.029-.527.056a5 5 0 0 1-.499.028zm8.408-11.95q-.84.496-1.332 1.461v-1.92h-2.997v15.017h3.137v-8.66q0-1.776.957-2.735.958-.958 2.512-.957h1.304V9.54h-.917q-1.555 0-2.664.652v.002Zm19.749 2.999a7.6 7.6 0 0 0-2.803-2.776q-1.763-1.014-3.983-1.013c-2.22.001-2.784.337-3.969 1.013a7.7 7.7 0 0 0-2.832 2.776q-1.054 1.762-1.054 4.038c0 1.517.351 2.84 1.054 4.026a7.73 7.73 0 0 0 2.845 2.803q1.79 1.026 3.955 1.026t3.941-1.013a7.67 7.67 0 0 0 2.832-2.789q1.054-1.775 1.054-4.051t-1.041-4.039l.001-.002Zm-2.803 6.577a4.54 4.54 0 0 1-1.624 1.763q-1.028.638-2.36.638c-.889 0-1.653-.213-2.346-.638a4.5 4.5 0 0 1-1.637-1.763q-.596-1.124-.596-2.539t.596-2.526a4.53 4.53 0 0 1 1.637-1.749q1.042-.639 2.346-.639c.869 0 1.674.213 2.36.64a4.56 4.56 0 0 1 1.624 1.748q.597 1.11.596 2.526t-.596 2.54Z"/></svg>