<svg xmlns="http://www.w3.org/2000/svg" width="161" height="17" fill="none"><path fill="#f3f5f0" d="M26.808 0c-2.671 0-4.418.612-5.445 1.735q-1.541 1.684-1.541 6.43t1.54 6.43c1.028 1.122 2.878 1.735 5.446 1.735 2.569 0 4.418-.613 5.446-1.735q1.54-1.684 1.54-6.43c0-3.164-.513-5.205-1.54-6.43C31.226.612 29.377 0 26.808 0m2.569 12.451c-.411.715-1.233 1.123-2.569 1.123s-2.055-.408-2.568-1.123c-.411-.714-.72-2.143-.72-4.286s.206-3.47.72-4.287c.41-.714 1.335-1.122 2.568-1.122s2.055.408 2.569 1.122c.41.715.719 2.144.719 4.287s-.206 3.47-.72 4.287ZM45.816.306H42.22v15.717h3.596zM7.185 13.268c-1.233 0-1.953-.408-2.466-1.123-.411-.714-.617-2.041-.617-4.082s.206-3.368.617-4.083c.41-.714 1.233-1.122 2.466-1.122 1.849 0 3.39 0 4.623.102l.308-2.654C10.576.204 8.931 0 7.185 0 4.616 0 2.869.612 1.842 1.837S.3 5.103.3 8.165s.513 5.103 1.54 6.328c1.028 1.224 2.775 1.837 5.344 1.837 2.568 0 3.801-.204 5.24-.613l-.309-2.551a55 55 0 0 1-4.931.204zM109.414 3.062h6.267l.205-2.552c-1.438-.102-4.006-.204-7.602-.204s-1.953.306-2.672.817c-.616.612-1.027 1.326-1.027 2.347v9.492c0 .918.308 1.735 1.027 2.347.617.613 1.541.817 2.672.817 3.596 0 6.164 0 7.602-.205l-.205-2.551h-6.267c-.411 0-.72 0-.822-.306-.206-.204-.206-.51-.206-.919V9.083h6.576v-2.45h-6.576V4.185c0-.816.411-1.122 1.13-1.122zm25.069 6.328c0 .612 0 1.428.103 2.653h-.206c-.514-1.122-.924-2.041-1.233-2.551l-4.212-8.165c-.206-.409-.411-.613-.617-.715-.205-.204-.513-.204-.822-.204h-2.157c-.925 0-1.336.408-1.336 1.225v14.493h3.391v-9.39c0-.919 0-1.735-.206-2.552h.308c.103.613.514 1.43 1.028 2.45l4.315 8.369c.206.408.411.612.617.816.205.102.513.204.821.204h2.261c.822 0 1.335-.408 1.335-1.224V.306h-3.39zm-69.249 0c0 .612 0 1.428.103 2.653h-.206c-.513-1.122-.924-2.041-1.233-2.551l-4.212-8.165c-.206-.409-.411-.613-.617-.715-.205-.204-.513-.204-.822-.204H56.09c-.925 0-1.336.408-1.336 1.225v14.493h3.39v-9.39c0-.919 0-1.735-.205-2.552h.309c.102.613.513 1.43 1.027 2.45l4.315 8.369c.206.408.411.612.617.816.205.102.513.204.822.204h2.26c.822 0 1.335-.408 1.335-1.224V.306h-3.39zm90.619-8.165q-.308-.92-1.233-.919h-3.39q-.925 0-1.233.919l-4.726 14.798h3.699l1.232-4.082h5.651l1.131 4.082h3.698l-4.726-14.798zm-5.034 7.96 1.336-4.796c0-.102.205-.613.411-1.531h.616c0 .51.206 1.02.308 1.53l1.336 4.797h-4.11zM94.207.306h-3.493c-.719 0-1.233.408-1.438 1.123l-1.952 7.858c0 .307-.206.715-.308 1.327 0 .51-.103.817-.206.919h-.308c-.206-1.02-.308-1.735-.411-2.245l-1.952-7.86C83.933.715 83.522.307 82.7.307h-3.493c-.925 0-1.336.408-1.336 1.327l-.616 14.39h3.39L81.16 2.96h.411l2.466 9.798c.206.714.72 1.122 1.438 1.122h2.364c.719 0 1.232-.408 1.438-1.122l2.466-9.798h.41l.514 13.063h3.39l-.615-14.39c0-.919-.514-1.327-1.336-1.327h.102Z"/></svg>