<svg xmlns="http://www.w3.org/2000/svg" width="145" height="40" fill="none"><path fill="#f3f5f0" d="M20.234 6.603h4.65V0s-4.888 0-5.005.005C9.042.202.3 8.992.3 19.81s8.932 19.8 19.933 19.81h4.65v-6.604h-4.65a13.36 13.36 0 0 1-5.819-1.358 13.3 13.3 0 0 1-4.634-3.751 13.15 13.15 0 0 1-2.398-11.329 13.2 13.2 0 0 0 4.74 7.092 13.35 13.35 0 0 0 8.111 2.744h4.65V19.81h-4.65c-3.644 0-6.61-2.981-6.61-6.603s2.967-6.604 6.61-6.604zm17.939 15.88v-5.347c0-3.786 2.308-5.961 6.572-5.961 1.808 0 3.309.496 4.476 1.466s1.761 2.413 1.761 4.38v.236h-3.714v-.236c0-1.704-1.214-2.485-2.76-2.485q-2.643 0-2.643 2.343v5.867q0 2.343 2.642 2.343c1.595 0 2.761-.71 2.761-2.485v-.237h3.714v.237c0 1.964-.595 3.43-1.761 4.4s-2.667 1.443-4.476 1.443c-4.264-.002-6.572-2.174-6.572-5.965zm14.952-2.531c0-2.722 1.977-4.588 5.5-4.588s5.476 1.87 5.476 4.588v3.81c0 2.72-1.952 4.612-5.476 4.612s-5.5-1.892-5.5-4.613zm7.594 3.69v-3.52c0-1.018-.761-1.728-2.098-1.728-1.405 0-2.12.757-2.12 1.728v3.525c0 .972.715 1.704 2.12 1.704 1.337-.005 2.098-.739 2.098-1.709m6.023 4.448V15.646h3.381v12.446h-3.38Zm6.578 0V15.646h1.927l.929 1.16a5.1 5.1 0 0 1 3.642-1.445c2.737 0 4.357 1.822 4.357 4.85v7.88h-3.386V20.4c0-1.326-.714-2.012-1.738-2.012-.881 0-1.667.402-2.358 1.184v8.518h-3.375zm14.707-.993c-1-.852-1.524-1.94-1.547-3.29h3.286c.21 1.066 1.07 1.587 2.596 1.587 1.024 0 1.642-.331 1.642-.876 0-.45-.357-.757-1.095-.947l-3.072-.781c-2.023-.521-3.047-1.633-3.047-3.36 0-2.531 1.857-4.066 5.07-4.066 3.215 0 5.141 1.68 5.239 4.33h-3.262c-.262-.9-1-1.348-2.19-1.348-1.05 0-1.574.307-1.574.899 0 .33.333.592 1 .756l3.286.83c1.952.495 2.928 1.655 2.928 3.429 0 2.58-2.024 4.117-5.237 4.117-1.665-.004-2.993-.43-4.023-1.28m12.044.993V11.529h7.477c2.976 0 4.761 2.011 4.761 5.205s-1.783 5.182-4.761 5.182h-3.783v6.176h-3.694Zm3.692-9.369h3.094c.928 0 1.715-.662 1.715-1.987 0-1.324-.787-2.011-1.715-2.011h-3.092zm18.525 9.369-.929-1.158c-1.024.97-2.286 1.442-3.787 1.442-1.189 0-2.189-.331-2.998-.97q-1.215-.994-1.214-2.77c0-2.578 1.69-4.044 5.046-4.044h2.453v-.686c0-1.018-.596-1.515-1.811-1.515s-1.808.402-1.808 1.23h-3.31c0-2.578 1.763-4.26 5.118-4.26s5.191 1.681 5.191 4.308v8.424h-1.951Zm-1.429-3.762v-1.372h-2.453c-1.118 0-1.667.402-1.667 1.23 0 .73.526 1.23 1.548 1.23s1.905-.355 2.572-1.088m6.451 3.762V15.646h3.382v12.446h-3.382Zm15.262 0-.929-1.158a5.1 5.1 0 0 1-1.69 1.085 5.2 5.2 0 0 1-1.981.357c-2.571 0-4.452-1.563-4.452-4.566v-3.904c0-1.491.428-2.626 1.258-3.384.833-.78 1.905-1.16 3.191-1.16s2.333.332 3.147 1.019V11.41h3.381v16.682h-1.925zm-1.453-3.928v-4.587c-.785-.781-1.618-1.184-2.451-1.184a1.76 1.76 0 0 0-1.259.516 1.73 1.73 0 0 0-.503 1.257v3.407a1.73 1.73 0 0 0 1.079 1.642c.217.088.448.133.683.13.833.003 1.666-.4 2.451-1.18Z"/></svg>