<svg xmlns="http://www.w3.org/2000/svg" width="2799" height="512" fill="none"><g fill="#fff" clip-path="url(#a)"><path d="M255.727 267.384c6.29 0 11.39-5.097 11.39-11.384s-5.1-11.384-11.39-11.384-11.39 5.097-11.39 11.384 5.099 11.384 11.39 11.384m48.976 0c6.291 0 11.39-5.097 11.39-11.384s-5.099-11.384-11.39-11.384c-6.29 0-11.39 5.097-11.39 11.384s5.1 11.384 11.39 11.384m-14.343 34.614c6.29 0 11.39-5.096 11.39-11.383 0-6.288-5.1-11.384-11.39-11.384s-11.39 5.096-11.39 11.384c0 6.287 5.099 11.383 11.39 11.383m-34.633 14.336c6.29 0 11.39-5.096 11.39-11.383 0-6.288-5.1-11.384-11.39-11.384s-11.39 5.096-11.39 11.384c0 6.287 5.099 11.383 11.39 11.383m-34.633-14.336c6.29 0 11.39-5.096 11.39-11.383 0-6.288-5.1-11.384-11.39-11.384s-11.39 5.096-11.39 11.384c0 6.287 5.099 11.383 11.39 11.383m-14.344-34.614c6.29 0 11.39-5.097 11.39-11.384s-5.1-11.384-11.39-11.384-11.39 5.097-11.39 11.384 5.099 11.384 11.39 11.384m14.344-34.615c6.29 0 11.39-5.096 11.39-11.384 0-6.287-5.1-11.383-11.39-11.383s-11.39 5.096-11.39 11.383c0 6.288 5.099 11.384 11.39 11.384m34.633-14.336c6.29 0 11.39-5.096 11.39-11.384 0-6.287-5.1-11.383-11.39-11.383s-11.39 5.096-11.39 11.383c0 6.288 5.099 11.384 11.39 11.384m34.633 14.336c6.29 0 11.39-5.096 11.39-11.384 0-6.287-5.1-11.383-11.39-11.383s-11.39 5.096-11.39 11.383c0 6.288 5.099 11.384 11.39 11.384m61.437 53.714c6.29 0 11.39-5.096 11.39-11.383 0-6.288-5.1-11.384-11.39-11.384s-11.39 5.096-11.39 11.384c0 6.287 5.099 11.383 11.39 11.383m-14.625 35.293c6.291 0 11.39-5.097 11.39-11.384s-5.099-11.384-11.39-11.384c-6.29 0-11.39 5.097-11.39 11.384s5.1 11.384 11.39 11.384m-27.024 27.01c6.29 0 11.39-5.097 11.39-11.384s-5.1-11.384-11.39-11.384-11.39 5.097-11.39 11.384 5.099 11.384 11.39 11.384m-35.312 14.617c6.291 0 11.39-5.097 11.39-11.384s-5.099-11.384-11.39-11.384c-6.29 0-11.389 5.097-11.389 11.384s5.099 11.384 11.389 11.384m-38.219 0c6.29 0 11.39-5.097 11.39-11.384s-5.1-11.384-11.39-11.384-11.39 5.097-11.39 11.384 5.099 11.384 11.39 11.384m-35.311-14.617c6.29 0 11.389-5.097 11.389-11.384s-5.099-11.384-11.389-11.384c-6.291 0-11.39 5.097-11.39 11.384s5.099 11.384 11.39 11.384m-27.025-27.01c6.291 0 11.39-5.097 11.39-11.384s-5.099-11.384-11.39-11.384c-6.29 0-11.39 5.097-11.39 11.384s5.1 11.384 11.39 11.384m-14.625-35.293c6.291 0 11.39-5.096 11.39-11.383 0-6.288-5.099-11.384-11.39-11.384-6.29 0-11.39 5.096-11.39 11.384 0 6.287 5.1 11.383 11.39 11.383m0-38.199c6.291 0 11.39-5.096 11.39-11.384 0-6.287-5.099-11.383-11.39-11.383-6.29 0-11.39 5.096-11.39 11.383 0 6.288 5.1 11.384 11.39 11.384m14.625-35.292c6.291 0 11.39-5.097 11.39-11.384s-5.099-11.384-11.39-11.384c-6.29 0-11.39 5.097-11.39 11.384s5.1 11.384 11.39 11.384m27.025-27.01c6.29 0 11.389-5.097 11.389-11.384s-5.099-11.384-11.389-11.384c-6.291 0-11.39 5.097-11.39 11.384s5.099 11.384 11.39 11.384m35.311-14.617c6.29 0 11.39-5.097 11.39-11.384s-5.1-11.384-11.39-11.384-11.39 5.097-11.39 11.384 5.099 11.384 11.39 11.384m38.219 0c6.291 0 11.39-5.097 11.39-11.384s-5.099-11.384-11.39-11.384c-6.29 0-11.389 5.097-11.389 11.384s5.099 11.384 11.389 11.384m35.312 14.617c6.29 0 11.39-5.097 11.39-11.384s-5.1-11.384-11.39-11.384-11.39 5.097-11.39 11.384 5.099 11.384 11.39 11.384m27.024 27.01c6.291 0 11.39-5.097 11.39-11.384s-5.099-11.384-11.39-11.384c-6.29 0-11.39 5.097-11.39 11.384s5.1 11.384 11.39 11.384m14.625 35.292c6.29 0 11.39-5.096 11.39-11.384 0-6.287-5.1-11.383-11.39-11.383s-11.39 5.096-11.39 11.383c0 6.288 5.099 11.384 11.39 11.384m50.86 19.1c6.29 0 11.39-5.097 11.39-11.384s-5.1-11.384-11.39-11.384-11.39 5.097-11.39 11.384 5.099 11.384 11.39 11.384m-5.007 38.007c6.291 0 11.39-5.097 11.39-11.384s-5.099-11.384-11.39-11.384c-6.29 0-11.39 5.097-11.39 11.384s5.1 11.384 11.39 11.384m-14.678 35.419c6.291 0 11.39-5.097 11.39-11.384s-5.099-11.384-11.39-11.384c-6.29 0-11.39 5.097-11.39 11.384s5.1 11.384 11.39 11.384m-23.349 30.415c6.291 0 11.39-5.097 11.39-11.384s-5.099-11.384-11.39-11.384c-6.29 0-11.39 5.097-11.39 11.384s5.1 11.384 11.39 11.384m-30.431 23.337c6.29 0 11.39-5.097 11.39-11.384s-5.1-11.384-11.39-11.384-11.39 5.097-11.39 11.384 5.099 11.384 11.39 11.384m-35.438 14.67c6.29 0 11.39-5.097 11.39-11.384s-5.1-11.384-11.39-11.384-11.39 5.097-11.39 11.384 5.099 11.384 11.39 11.384m-38.027 5.003c6.29 0 11.39-5.096 11.39-11.383 0-6.288-5.1-11.384-11.39-11.384s-11.39 5.096-11.39 11.384c0 6.287 5.099 11.383 11.39 11.383m-38.028-5.003c6.291 0 11.39-5.097 11.39-11.384s-5.099-11.384-11.39-11.384c-6.29 0-11.389 5.097-11.389 11.384s5.099 11.384 11.389 11.384m-35.437-14.67c6.29 0 11.39-5.097 11.39-11.384s-5.1-11.384-11.39-11.384-11.39 5.097-11.39 11.384 5.099 11.384 11.39 11.384m-30.432-23.337c6.291 0 11.39-5.097 11.39-11.384s-5.099-11.384-11.39-11.384c-6.29 0-11.39 5.097-11.39 11.384s5.1 11.384 11.39 11.384m-23.349-30.415c6.29 0 11.39-5.097 11.39-11.384s-5.1-11.384-11.39-11.384-11.39 5.097-11.39 11.384 5.099 11.384 11.39 11.384m-14.678-35.419c6.29 0 11.39-5.097 11.39-11.384s-5.1-11.384-11.39-11.384-11.39 5.097-11.39 11.384 5.1 11.384 11.39 11.384m-5.006-38.007c6.29 0 11.39-5.097 11.39-11.384s-5.1-11.384-11.39-11.384-11.39 5.097-11.39 11.384 5.099 11.384 11.39 11.384m5.006-38.007c6.29 0 11.39-5.097 11.39-11.384s-5.1-11.384-11.39-11.384-11.39 5.097-11.39 11.384 5.1 11.384 11.39 11.384m14.678-35.419c6.29 0 11.39-5.097 11.39-11.384s-5.1-11.384-11.39-11.384-11.39 5.097-11.39 11.384 5.099 11.384 11.39 11.384m23.349-30.415c6.291 0 11.39-5.097 11.39-11.384s-5.099-11.384-11.39-11.384c-6.29 0-11.39 5.097-11.39 11.384s5.1 11.384 11.39 11.384m30.432-23.337c6.29 0 11.39-5.097 11.39-11.384s-5.1-11.384-11.39-11.384-11.39 5.097-11.39 11.384 5.099 11.384 11.39 11.384m35.437-14.67c6.291 0 11.39-5.097 11.39-11.384s-5.099-11.384-11.39-11.384c-6.29 0-11.389 5.097-11.389 11.384s5.099 11.384 11.389 11.384m38.028-5.004c6.29 0 11.39-5.097 11.39-11.384s-5.1-11.383-11.39-11.383-11.39 5.096-11.39 11.383 5.099 11.384 11.39 11.384m38.027 5.004c6.29 0 11.39-5.097 11.39-11.384s-5.1-11.384-11.39-11.384-11.39 5.097-11.39 11.384 5.099 11.384 11.39 11.384m35.438 14.67c6.29 0 11.39-5.097 11.39-11.384s-5.1-11.384-11.39-11.384-11.39 5.097-11.39 11.384 5.099 11.384 11.39 11.384m30.431 23.337c6.291 0 11.39-5.097 11.39-11.384s-5.099-11.384-11.39-11.384c-6.29 0-11.39 5.097-11.39 11.384s5.1 11.384 11.39 11.384m23.349 30.415c6.291 0 11.39-5.097 11.39-11.384s-5.099-11.384-11.39-11.384c-6.29 0-11.39 5.097-11.39 11.384s5.1 11.384 11.39 11.384m14.678 35.419c6.291 0 11.39-5.097 11.39-11.384s-5.099-11.384-11.39-11.384c-6.29 0-11.39 5.097-11.39 11.384s5.1 11.384 11.39 11.384m53.039 57.2c6.291 0 11.39-5.097 11.39-11.384s-5.099-11.384-11.39-11.384c-6.29 0-11.39 5.097-11.39 11.384s5.1 11.384 11.39 11.384m-7.492 37.645c6.291 0 11.39-5.097 11.39-11.384s-5.099-11.384-11.39-11.384c-6.29 0-11.39 5.097-11.39 11.384s5.1 11.384 11.39 11.384m-14.695 35.462c6.29 0 11.39-5.097 11.39-11.384s-5.1-11.384-11.39-11.384-11.39 5.097-11.39 11.384 5.099 11.384 11.39 11.384m-21.337 31.915c6.29 0 11.39-5.096 11.39-11.384 0-6.287-5.1-11.383-11.39-11.383s-11.39 5.096-11.39 11.383c0 6.288 5.099 11.384 11.39 11.384m-27.157 27.142c6.291 0 11.39-5.097 11.39-11.384s-5.099-11.384-11.39-11.384c-6.29 0-11.39 5.097-11.39 11.384s5.1 11.384 11.39 11.384m-31.932 21.326c6.291 0 11.39-5.097 11.39-11.384s-5.099-11.384-11.39-11.384c-6.29 0-11.39 5.097-11.39 11.384s5.1 11.384 11.39 11.384m-35.481 14.687c6.291 0 11.39-5.096 11.39-11.383 0-6.288-5.099-11.384-11.39-11.384-6.29 0-11.39 5.096-11.39 11.384 0 6.287 5.1 11.383 11.39 11.383m-37.665 7.488c6.291 0 11.39-5.096 11.39-11.383s-5.099-11.384-11.39-11.384c-6.29 0-11.39 5.097-11.39 11.384s5.1 11.383 11.39 11.383m-38.407 0c6.291 0 11.39-5.096 11.39-11.383s-5.099-11.384-11.39-11.384c-6.29 0-11.39 5.097-11.39 11.384s5.1 11.383 11.39 11.383m-37.665-7.488c6.29 0 11.39-5.096 11.39-11.383 0-6.288-5.1-11.384-11.39-11.384s-11.39 5.096-11.39 11.384c0 6.287 5.099 11.383 11.39 11.383m-35.481-14.687c6.291 0 11.39-5.097 11.39-11.384s-5.099-11.384-11.39-11.384c-6.29 0-11.39 5.097-11.39 11.384s5.1 11.384 11.39 11.384m-31.932-21.326c6.29 0 11.39-5.097 11.39-11.384s-5.1-11.384-11.39-11.384-11.39 5.097-11.39 11.384 5.099 11.384 11.39 11.384m-27.156-27.142c6.29 0 11.39-5.096 11.39-11.384 0-6.287-5.1-11.383-11.39-11.383s-11.39 5.096-11.39 11.383c0 6.288 5.1 11.384 11.39 11.384m-21.337-31.915c6.29 0 11.39-5.097 11.39-11.384s-5.1-11.384-11.39-11.384-11.39 5.097-11.39 11.384 5.1 11.384 11.39 11.384m-14.696-35.462c6.29 0 11.39-5.097 11.39-11.384s-5.1-11.384-11.39-11.384-11.39 5.097-11.39 11.384 5.1 11.384 11.39 11.384m-7.492-37.645c6.29 0 11.39-5.097 11.39-11.384s-5.1-11.384-11.39-11.384-11.39 5.097-11.39 11.384 5.1 11.384 11.39 11.384m0-38.386c6.29 0 11.39-5.097 11.39-11.384s-5.1-11.384-11.39-11.384-11.39 5.097-11.39 11.384 5.1 11.384 11.39 11.384m7.492-37.645c6.29 0 11.39-5.097 11.39-11.384s-5.1-11.384-11.39-11.384-11.39 5.097-11.39 11.384 5.1 11.384 11.39 11.384m14.696-35.462c6.29 0 11.39-5.097 11.39-11.384s-5.1-11.384-11.39-11.384-11.39 5.097-11.39 11.384 5.1 11.384 11.39 11.384m21.337-31.916c6.29 0 11.39-5.096 11.39-11.384 0-6.287-5.1-11.383-11.39-11.383s-11.39 5.096-11.39 11.383c0 6.288 5.1 11.384 11.39 11.384m27.156-27.141c6.29 0 11.39-5.097 11.39-11.384s-5.1-11.384-11.39-11.384-11.39 5.097-11.39 11.384 5.099 11.384 11.39 11.384m31.932-21.326c6.291 0 11.39-5.097 11.39-11.384s-5.099-11.384-11.39-11.384c-6.29 0-11.39 5.097-11.39 11.384s5.1 11.384 11.39 11.384m35.481-14.688c6.29 0 11.39-5.097 11.39-11.384s-5.1-11.384-11.39-11.384-11.39 5.097-11.39 11.384 5.099 11.384 11.39 11.384m37.665-7.488c6.291 0 11.39-5.097 11.39-11.384s-5.099-11.383-11.39-11.383c-6.29 0-11.39 5.096-11.39 11.383 0 6.288 5.1 11.384 11.39 11.384m38.407 0c6.291 0 11.39-5.097 11.39-11.384s-5.099-11.383-11.39-11.383c-6.29 0-11.39 5.096-11.39 11.383 0 6.288 5.1 11.384 11.39 11.384m37.665 7.488c6.291 0 11.39-5.097 11.39-11.384s-5.099-11.384-11.39-11.384c-6.29 0-11.39 5.097-11.39 11.384s5.1 11.384 11.39 11.384m35.481 14.688c6.291 0 11.39-5.097 11.39-11.384s-5.099-11.384-11.39-11.384c-6.29 0-11.39 5.097-11.39 11.384s5.1 11.384 11.39 11.384m31.932 21.326c6.291 0 11.39-5.097 11.39-11.384s-5.099-11.384-11.39-11.384c-6.29 0-11.39 5.097-11.39 11.384s5.1 11.384 11.39 11.384m27.157 27.141c6.29 0 11.39-5.096 11.39-11.384 0-6.287-5.1-11.383-11.39-11.383s-11.39 5.096-11.39 11.383c0 6.288 5.099 11.384 11.39 11.384m21.337 31.916c6.29 0 11.39-5.097 11.39-11.384s-5.1-11.384-11.39-11.384-11.39 5.097-11.39 11.384 5.099 11.384 11.39 11.384m14.695 35.462c6.291 0 11.39-5.097 11.39-11.384s-5.099-11.384-11.39-11.384c-6.29 0-11.39 5.097-11.39 11.384s5.1 11.384 11.39 11.384m7.492 37.645c6.291 0 11.39-5.097 11.39-11.384s-5.099-11.384-11.39-11.384c-6.29 0-11.39 5.097-11.39 11.384s5.1 11.384 11.39 11.384m49.921 19.193c6.291 0 11.39-5.097 11.39-11.384s-5.099-11.384-11.39-11.384c-6.29 0-11.39 5.097-11.39 11.384s5.1 11.384 11.39 11.384m-2.184 32.623c6.29 0 11.39-5.096 11.39-11.383 0-6.288-5.1-11.384-11.39-11.384s-11.39 5.096-11.39 11.384c0 6.287 5.099 11.383 11.39 11.383m-6.518 32.04c6.291 0 11.39-5.097 11.39-11.384s-5.099-11.384-11.39-11.384c-6.29 0-11.39 5.097-11.39 11.384s5.1 11.384 11.39 11.384m-10.729 30.885c6.29 0 11.39-5.096 11.39-11.384 0-6.287-5.1-11.383-11.39-11.383s-11.39 5.096-11.39 11.383c0 6.288 5.099 11.384 11.39 11.384m-14.754 29.181c6.291 0 11.39-5.097 11.39-11.384s-5.099-11.384-11.39-11.384c-6.29 0-11.39 5.097-11.39 11.384s5.1 11.384 11.39 11.384M447.91 419.07c6.291 0 11.39-5.097 11.39-11.384s-5.099-11.384-11.39-11.384c-6.29 0-11.39 5.097-11.39 11.384s5.1 11.384 11.39 11.384m-21.942 24.247c6.291 0 11.39-5.096 11.39-11.383 0-6.288-5.099-11.384-11.39-11.384-6.29 0-11.39 5.096-11.39 11.384 0 6.287 5.1 11.383 11.39 11.383m-24.982 21.111c6.291 0 11.39-5.097 11.39-11.384s-5.099-11.384-11.39-11.384c-6.29 0-11.39 5.097-11.39 11.384s5.1 11.384 11.39 11.384m-27.574 17.592c6.291 0 11.39-5.097 11.39-11.384s-5.099-11.384-11.39-11.384c-6.29 0-11.389 5.097-11.389 11.384s5.099 11.384 11.389 11.384m-29.672 13.762c6.291 0 11.39-5.097 11.39-11.384s-5.099-11.384-11.39-11.384c-6.29 0-11.39 5.097-11.39 11.384s5.1 11.384 11.39 11.384m-31.243 9.686c6.29 0 11.389-5.096 11.389-11.384 0-6.287-5.099-11.383-11.389-11.383-6.291 0-11.39 5.096-11.39 11.383 0 6.288 5.099 11.384 11.39 11.384m-32.259 5.439c6.29 0 11.39-5.097 11.39-11.384s-5.1-11.384-11.39-11.384-11.39 5.097-11.39 11.384 5.099 11.384 11.39 11.384M247.544 512c6.29 0 11.39-5.097 11.39-11.384s-5.1-11.384-11.39-11.384-11.39 5.097-11.39 11.384S241.253 512 247.544 512m-32.548-3.273c6.291 0 11.39-5.097 11.39-11.384s-5.099-11.384-11.39-11.384c-6.29 0-11.39 5.097-11.39 11.384s5.1 11.384 11.39 11.384m-31.823-7.58c6.29 0 11.39-5.096 11.39-11.383 0-6.288-5.1-11.384-11.39-11.384s-11.39 5.096-11.39 11.384c0 6.287 5.099 11.383 11.39 11.383m-30.525-11.75c6.29 0 11.39-5.097 11.39-11.384s-5.1-11.384-11.39-11.384-11.39 5.097-11.39 11.384 5.099 11.384 11.39 11.384m-28.688-15.713c6.291 0 11.39-5.096 11.39-11.383 0-6.288-5.099-11.384-11.39-11.384-6.29 0-11.39 5.096-11.39 11.384 0 6.287 5.1 11.383 11.39 11.383m-26.336-19.395c6.291 0 11.39-5.097 11.39-11.384s-5.099-11.384-11.39-11.384c-6.29 0-11.39 5.097-11.39 11.384s5.1 11.384 11.39 11.384m-23.516-22.73c6.29 0 11.39-5.097 11.39-11.384s-5.1-11.383-11.39-11.383-11.39 5.096-11.39 11.383 5.1 11.384 11.39 11.384M53.834 405.9c6.29 0 11.39-5.097 11.39-11.384s-5.1-11.384-11.39-11.384-11.39 5.097-11.39 11.384 5.1 11.384 11.39 11.384m-16.67-28.131c6.29 0 11.39-5.097 11.39-11.384s-5.1-11.384-11.39-11.384-11.39 5.097-11.39 11.384 5.1 11.384 11.39 11.384m-12.772-30.101c6.29 0 11.39-5.097 11.39-11.384s-5.1-11.384-11.39-11.384-11.39 5.097-11.39 11.384 5.1 11.384 11.39 11.384m-8.641-31.533c6.29 0 11.39-5.097 11.39-11.384s-5.1-11.384-11.39-11.384-11.39 5.097-11.39 11.384 5.1 11.384 11.39 11.384m-4.361-32.404c6.29 0 11.39-5.097 11.39-11.384s-5.1-11.384-11.39-11.384S0 266.06 0 272.347s5.1 11.384 11.39 11.384m0-32.694c6.29 0 11.39-5.097 11.39-11.384s-5.1-11.384-11.39-11.384S0 233.366 0 239.653s5.1 11.384 11.39 11.384m4.361-32.404c6.29 0 11.39-5.097 11.39-11.384s-5.1-11.384-11.39-11.384-11.39 5.097-11.39 11.384 5.1 11.384 11.39 11.384m8.641-31.533c6.29 0 11.39-5.097 11.39-11.384s-5.1-11.384-11.39-11.384-11.39 5.097-11.39 11.384 5.1 11.384 11.39 11.384m12.772-30.102c6.29 0 11.39-5.096 11.39-11.383 0-6.288-5.1-11.384-11.39-11.384s-11.39 5.096-11.39 11.384c0 6.287 5.1 11.383 11.39 11.383m16.67-28.13c6.29 0 11.39-5.097 11.39-11.384s-5.1-11.384-11.39-11.384-11.39 5.097-11.39 11.384 5.1 11.384 11.39 11.384m20.274-25.66c6.29 0 11.39-5.096 11.39-11.383 0-6.288-5.1-11.384-11.39-11.384s-11.39 5.096-11.39 11.384c0 6.287 5.1 11.383 11.39 11.383m23.516-22.729c6.291 0 11.39-5.097 11.39-11.384s-5.099-11.384-11.39-11.384c-6.29 0-11.39 5.097-11.39 11.384s5.1 11.384 11.39 11.384m26.336-19.396c6.291 0 11.39-5.096 11.39-11.384 0-6.287-5.099-11.383-11.39-11.383-6.29 0-11.39 5.096-11.39 11.383 0 6.288 5.1 11.384 11.39 11.384m28.688-15.712c6.29 0 11.39-5.097 11.39-11.384s-5.1-11.384-11.39-11.384-11.39 5.097-11.39 11.384 5.099 11.384 11.39 11.384m30.525-11.751c6.29 0 11.39-5.096 11.39-11.384 0-6.287-5.1-11.383-11.39-11.383s-11.39 5.096-11.39 11.383c0 6.288 5.099 11.384 11.39 11.384m31.823-7.579c6.291 0 11.39-5.097 11.39-11.384s-5.099-11.384-11.39-11.384c-6.29 0-11.39 5.097-11.39 11.384s5.1 11.384 11.39 11.384m32.548-3.273c6.29 0 11.39-5.097 11.39-11.384S253.834 0 247.544 0s-11.39 5.097-11.39 11.384 5.099 11.384 11.39 11.384m32.694 1.092c6.29 0 11.39-5.096 11.39-11.383s-5.1-11.384-11.39-11.384-11.39 5.097-11.39 11.384 5.099 11.383 11.39 11.383m32.259 5.44c6.29 0 11.389-5.097 11.389-11.384s-5.099-11.384-11.389-11.384c-6.291 0-11.39 5.097-11.39 11.384s5.099 11.383 11.39 11.383Zm31.243 9.686c6.291 0 11.39-5.097 11.39-11.384s-5.099-11.384-11.39-11.384c-6.29 0-11.39 5.097-11.39 11.384s5.1 11.384 11.39 11.384m29.672 13.762c6.291 0 11.39-5.097 11.39-11.384s-5.099-11.384-11.39-11.384c-6.29 0-11.389 5.097-11.389 11.384s5.099 11.384 11.389 11.384m27.574 17.592c6.291 0 11.39-5.097 11.39-11.384s-5.099-11.384-11.39-11.384c-6.29 0-11.39 5.097-11.39 11.384s5.1 11.383 11.39 11.383Zm24.982 21.11c6.291 0 11.39-5.097 11.39-11.384s-5.099-11.383-11.39-11.383c-6.29 0-11.39 5.096-11.39 11.383s5.1 11.384 11.39 11.384m21.942 24.248c6.291 0 11.39-5.097 11.39-11.384s-5.099-11.384-11.39-11.384c-6.29 0-11.39 5.097-11.39 11.384s5.1 11.384 11.39 11.384m18.515 26.957c6.291 0 11.39-5.097 11.39-11.384s-5.099-11.384-11.39-11.384c-6.29 0-11.39 5.097-11.39 11.384s5.1 11.384 11.39 11.384m14.754 29.18c6.29 0 11.39-5.096 11.39-11.383 0-6.288-5.1-11.384-11.39-11.384s-11.39 5.096-11.39 11.384c0 6.287 5.099 11.383 11.39 11.383m10.729 30.886c6.291 0 11.39-5.097 11.39-11.384s-5.099-11.384-11.39-11.384c-6.29 0-11.39 5.097-11.39 11.384s5.1 11.384 11.39 11.384m6.518 32.039c6.29 0 11.39-5.096 11.39-11.384 0-6.287-5.1-11.383-11.39-11.383s-11.39 5.096-11.39 11.383c0 6.288 5.099 11.384 11.39 11.384M2489.29 440.616l113.41-186.198-111.82-183.033h65.4l83.34 142.417h8.44l83.87-142.417h65.41l-111.83 183.033 113.41 186.198h-65.93l-84.93-145.583h-8.44l-84.92 145.583zm-336.44 0 105.5-369.231h100.22l104.96 369.231h-58.55l-24.26-87.033h-144.53l-24.26 87.033zm97.58-139.781h116.05l-53.8-194.11h-8.44zm-431.05 139.781v-50.638h49.58V122.022h-49.58V71.385h187.25c22.16 0 41.5 3.868 58.03 11.604 16.52 7.385 29.36 18.11 38.5 32.176 9.5 13.714 14.24 30.066 14.24 49.055v5.275c0 16.879-3.16 30.769-9.49 41.67s-14.07 19.341-23.21 25.319q-13.185 8.966-25.32 12.659v8.44c8.09 2.109 16.7 6.329 25.85 12.659q14.235 8.966 23.73 25.319c6.69 10.901 10.03 25.142 10.03 42.725v5.275q0 30.593-14.25 52.219c-9.49 14.418-22.68 25.495-39.56 33.231-16.52 7.736-35.69 11.605-57.49 11.605zm107.08-51.693h74.37c18.99 0 33.94-4.571 44.84-13.714q16.35-13.714 16.35-37.978v-4.747q0-24.264-16.35-37.978c-10.55-9.143-25.5-13.715-44.84-13.715h-74.37zm0-160.351h74.37c17.94 0 32.35-4.396 43.25-13.187 10.91-9.143 16.36-21.451 16.36-36.923v-5.275c0-15.473-5.45-27.604-16.36-36.396-10.54-9.143-24.96-13.714-43.25-13.714h-74.37zm-445.18 212.044V71.385h109.71l100.22 331.252h8.44V71.385h56.44v369.231h-109.72l-100.22-331.781h-8.43v331.781zm-133.93 0V71.385h56.96v369.231zM1131.16 448c-45.36 0-81.4-12.659-108.13-37.978q-40.088-38.505-40.088-110.769v-86.506q0-72.264 40.088-110.241C1049.76 76.836 1085.8 64 1131.16 64s81.41 12.835 108.13 38.506q40.62 37.977 40.62 110.241v86.506q0 72.264-40.62 110.769C1212.57 435.341 1176.52 448 1131.16 448m0-51.165c29.19 0 51.69-8.439 67.52-25.318q23.73-25.847 23.73-70.154v-90.726q0-44.307-23.73-69.626c-15.83-17.231-38.33-25.846-67.52-25.846q-42.72 0-66.99 25.846c-16.17 16.879-24.26 40.088-24.26 69.626v90.726c0 29.538 8.09 52.923 24.26 70.154q24.27 25.318 66.99 25.318M790.637 448q-67.516 0-107.077-37.978Q644 371.517 644 299.253v-86.506q0-72.264 39.56-110.241Q723.12 64 790.637 64q66.462 0 102.33 36.923 36.396 36.923 36.396 100.747v3.165h-56.44v-4.747q0-37.45-20.571-61.187-20.044-23.736-61.715-23.736-42.198 0-65.934 25.846-23.736 25.319-23.736 70.681v88.616q0 44.835 23.736 70.681t65.934 25.846q41.671 0 61.715-23.736 20.571-24.264 20.571-61.187v-8.967h56.44v7.385q0 63.824-36.396 100.747Q857.099 448 790.637 448"/></g><defs><clipPath id="a"><path fill="#fff" d="M0 0h2799v512H0z"/></clipPath></defs></svg>