<svg xmlns="http://www.w3.org/2000/svg" width="2799" height="512" fill="none"><g fill="#fff" clip-path="url(#a)"><path d="M255.727 267.384c6.29 0 11.39-5.097 11.39-11.384s-5.1-11.384-11.39-11.384c-6.291 0-11.39 5.097-11.39 11.384s5.099 11.384 11.39 11.384Zm48.976 0c6.291 0 11.39-5.097 11.39-11.384s-5.099-11.384-11.39-11.384c-6.29 0-11.39 5.097-11.39 11.384s5.1 11.384 11.39 11.384Zm-14.343 34.614c6.29 0 11.39-5.096 11.39-11.383 0-6.288-5.1-11.384-11.39-11.384-6.291 0-11.39 5.096-11.39 11.384 0 6.287 5.099 11.383 11.39 11.383Zm-34.633 14.336c6.29 0 11.39-5.096 11.39-11.383 0-6.288-5.1-11.384-11.39-11.384-6.291 0-11.39 5.096-11.39 11.384 0 6.287 5.099 11.383 11.39 11.383Zm-34.633-14.336c6.29 0 11.39-5.096 11.39-11.383 0-6.288-5.1-11.384-11.39-11.384-6.291 0-11.39 5.096-11.39 11.384 0 6.287 5.099 11.383 11.39 11.383Zm-14.344-34.614c6.29 0 11.39-5.097 11.39-11.384s-5.1-11.384-11.39-11.384c-6.291 0-11.39 5.097-11.39 11.384s5.099 11.384 11.39 11.384Zm14.344-34.615c6.29 0 11.39-5.096 11.39-11.384 0-6.287-5.1-11.383-11.39-11.383-6.291 0-11.39 5.096-11.39 11.383 0 6.288 5.099 11.384 11.39 11.384Zm34.633-14.336c6.29 0 11.39-5.096 11.39-11.384 0-6.287-5.1-11.383-11.39-11.383-6.291 0-11.39 5.096-11.39 11.383 0 6.288 5.099 11.384 11.39 11.384Zm34.633 14.336c6.29 0 11.39-5.096 11.39-11.384 0-6.287-5.1-11.383-11.39-11.383-6.291 0-11.39 5.096-11.39 11.383 0 6.288 5.099 11.384 11.39 11.384Zm61.437 53.714c6.29 0 11.39-5.096 11.39-11.383 0-6.288-5.1-11.384-11.39-11.384-6.291 0-11.39 5.096-11.39 11.384 0 6.287 5.099 11.383 11.39 11.383Zm-14.625 35.293c6.291 0 11.39-5.097 11.39-11.384s-5.099-11.384-11.39-11.384c-6.29 0-11.39 5.097-11.39 11.384s5.1 11.384 11.39 11.384Zm-27.024 27.01c6.29 0 11.39-5.097 11.39-11.384s-5.1-11.384-11.39-11.384c-6.291 0-11.39 5.097-11.39 11.384s5.099 11.384 11.39 11.384Zm-35.312 14.617c6.291 0 11.39-5.097 11.39-11.384s-5.099-11.384-11.39-11.384c-6.29 0-11.389 5.097-11.389 11.384s5.099 11.384 11.389 11.384Zm-38.219 0c6.29 0 11.39-5.097 11.39-11.384s-5.1-11.384-11.39-11.384c-6.291 0-11.39 5.097-11.39 11.384s5.099 11.384 11.39 11.384Zm-35.311-14.617c6.29 0 11.389-5.097 11.389-11.384s-5.099-11.384-11.389-11.384c-6.291 0-11.39 5.097-11.39 11.384s5.099 11.384 11.39 11.384Zm-27.025-27.01c6.291 0 11.39-5.097 11.39-11.384s-5.099-11.384-11.39-11.384c-6.29 0-11.39 5.097-11.39 11.384s5.1 11.384 11.39 11.384Zm-14.625-35.293c6.291 0 11.39-5.096 11.39-11.383 0-6.288-5.099-11.384-11.39-11.384-6.29 0-11.39 5.096-11.39 11.384 0 6.287 5.1 11.383 11.39 11.383Zm0-38.199c6.291 0 11.39-5.096 11.39-11.384 0-6.287-5.099-11.383-11.39-11.383-6.29 0-11.39 5.096-11.39 11.383 0 6.288 5.1 11.384 11.39 11.384Zm14.625-35.292c6.291 0 11.39-5.097 11.39-11.384s-5.099-11.384-11.39-11.384c-6.29 0-11.39 5.097-11.39 11.384s5.1 11.384 11.39 11.384Zm27.025-27.01c6.29 0 11.389-5.097 11.389-11.384s-5.099-11.384-11.389-11.384c-6.291 0-11.39 5.097-11.39 11.384s5.099 11.384 11.39 11.384Zm35.311-14.617c6.29 0 11.39-5.097 11.39-11.384s-5.1-11.384-11.39-11.384c-6.291 0-11.39 5.097-11.39 11.384s5.099 11.384 11.39 11.384Zm38.219 0c6.291 0 11.39-5.097 11.39-11.384s-5.099-11.384-11.39-11.384c-6.29 0-11.389 5.097-11.389 11.384s5.099 11.384 11.389 11.384Zm35.312 14.617c6.29 0 11.39-5.097 11.39-11.384s-5.1-11.384-11.39-11.384c-6.291 0-11.39 5.097-11.39 11.384s5.099 11.384 11.39 11.384Zm27.024 27.01c6.291 0 11.39-5.097 11.39-11.384s-5.099-11.384-11.39-11.384c-6.29 0-11.39 5.097-11.39 11.384s5.1 11.384 11.39 11.384Zm14.625 35.292c6.29 0 11.39-5.096 11.39-11.384 0-6.287-5.1-11.383-11.39-11.383-6.291 0-11.39 5.096-11.39 11.383 0 6.288 5.099 11.384 11.39 11.384Zm50.86 19.1c6.29 0 11.39-5.097 11.39-11.384s-5.1-11.384-11.39-11.384c-6.291 0-11.39 5.097-11.39 11.384s5.099 11.384 11.39 11.384Zm-5.007 38.007c6.291 0 11.39-5.097 11.39-11.384s-5.099-11.384-11.39-11.384c-6.29 0-11.39 5.097-11.39 11.384s5.1 11.384 11.39 11.384Zm-14.678 35.419c6.291 0 11.39-5.097 11.39-11.384s-5.099-11.384-11.39-11.384c-6.29 0-11.39 5.097-11.39 11.384s5.1 11.384 11.39 11.384Zm-23.349 30.415c6.291 0 11.39-5.097 11.39-11.384s-5.099-11.384-11.39-11.384c-6.29 0-11.39 5.097-11.39 11.384s5.1 11.384 11.39 11.384Zm-30.431 23.337c6.29 0 11.39-5.097 11.39-11.384s-5.1-11.384-11.39-11.384c-6.291 0-11.39 5.097-11.39 11.384s5.099 11.384 11.39 11.384Zm-35.438 14.67c6.29 0 11.39-5.097 11.39-11.384s-5.1-11.384-11.39-11.384c-6.291 0-11.39 5.097-11.39 11.384s5.099 11.384 11.39 11.384Zm-38.027 5.003c6.29 0 11.39-5.096 11.39-11.383 0-6.288-5.1-11.384-11.39-11.384-6.291 0-11.39 5.096-11.39 11.384 0 6.287 5.099 11.383 11.39 11.383Zm-38.028-5.003c6.291 0 11.39-5.097 11.39-11.384s-5.099-11.384-11.39-11.384c-6.29 0-11.389 5.097-11.389 11.384s5.099 11.384 11.389 11.384Zm-35.437-14.67c6.29 0 11.39-5.097 11.39-11.384s-5.1-11.384-11.39-11.384c-6.291 0-11.39 5.097-11.39 11.384s5.099 11.384 11.39 11.384Zm-30.432-23.337c6.291 0 11.39-5.097 11.39-11.384s-5.099-11.384-11.39-11.384c-6.29 0-11.39 5.097-11.39 11.384s5.1 11.384 11.39 11.384Zm-23.349-30.415c6.29 0 11.39-5.097 11.39-11.384s-5.1-11.384-11.39-11.384c-6.291 0-11.39 5.097-11.39 11.384s5.099 11.384 11.39 11.384Zm-14.678-35.419c6.29 0 11.39-5.097 11.39-11.384s-5.1-11.384-11.39-11.384c-6.29 0-11.39 5.097-11.39 11.384s5.1 11.384 11.39 11.384Zm-5.006-38.007c6.29 0 11.39-5.097 11.39-11.384s-5.1-11.384-11.39-11.384c-6.291 0-11.39 5.097-11.39 11.384s5.099 11.384 11.39 11.384Zm5.006-38.007c6.29 0 11.39-5.097 11.39-11.384s-5.1-11.384-11.39-11.384c-6.29 0-11.39 5.097-11.39 11.384s5.1 11.384 11.39 11.384Zm14.678-35.419c6.29 0 11.39-5.097 11.39-11.384s-5.1-11.384-11.39-11.384c-6.291 0-11.39 5.097-11.39 11.384s5.099 11.384 11.39 11.384Zm23.349-30.415c6.291 0 11.39-5.097 11.39-11.384s-5.099-11.384-11.39-11.384c-6.29 0-11.39 5.097-11.39 11.384s5.1 11.384 11.39 11.384Zm30.432-23.337c6.29 0 11.39-5.097 11.39-11.384s-5.1-11.384-11.39-11.384c-6.291 0-11.39 5.097-11.39 11.384s5.099 11.384 11.39 11.384Zm35.437-14.67c6.291 0 11.39-5.097 11.39-11.384s-5.099-11.384-11.39-11.384c-6.29 0-11.389 5.097-11.389 11.384s5.099 11.384 11.389 11.384Zm38.028-5.004c6.29 0 11.39-5.097 11.39-11.384s-5.1-11.383-11.39-11.383c-6.291 0-11.39 5.096-11.39 11.383 0 6.287 5.099 11.384 11.39 11.384Zm38.027 5.004c6.29 0 11.39-5.097 11.39-11.384s-5.1-11.384-11.39-11.384c-6.291 0-11.39 5.097-11.39 11.384s5.099 11.384 11.39 11.384Zm35.438 14.67c6.29 0 11.39-5.097 11.39-11.384s-5.1-11.384-11.39-11.384c-6.291 0-11.39 5.097-11.39 11.384s5.099 11.384 11.39 11.384Zm30.431 23.337c6.291 0 11.39-5.097 11.39-11.384s-5.099-11.384-11.39-11.384c-6.29 0-11.39 5.097-11.39 11.384s5.1 11.384 11.39 11.384Zm23.349 30.415c6.291 0 11.39-5.097 11.39-11.384s-5.099-11.384-11.39-11.384c-6.29 0-11.39 5.097-11.39 11.384s5.1 11.384 11.39 11.384Zm14.678 35.419c6.291 0 11.39-5.097 11.39-11.384s-5.099-11.384-11.39-11.384c-6.29 0-11.39 5.097-11.39 11.384s5.1 11.384 11.39 11.384Zm53.039 57.2c6.291 0 11.39-5.097 11.39-11.384s-5.099-11.384-11.39-11.384c-6.29 0-11.39 5.097-11.39 11.384s5.1 11.384 11.39 11.384Zm-7.492 37.645c6.291 0 11.39-5.097 11.39-11.384s-5.099-11.384-11.39-11.384c-6.29 0-11.39 5.097-11.39 11.384s5.1 11.384 11.39 11.384Zm-14.695 35.462c6.29 0 11.39-5.097 11.39-11.384s-5.1-11.384-11.39-11.384c-6.291 0-11.39 5.097-11.39 11.384s5.099 11.384 11.39 11.384Zm-21.337 31.915c6.29 0 11.39-5.096 11.39-11.384 0-6.287-5.1-11.383-11.39-11.383-6.291 0-11.39 5.096-11.39 11.383 0 6.288 5.099 11.384 11.39 11.384Zm-27.157 27.142c6.291 0 11.39-5.097 11.39-11.384s-5.099-11.384-11.39-11.384c-6.29 0-11.39 5.097-11.39 11.384s5.1 11.384 11.39 11.384Zm-31.932 21.326c6.291 0 11.39-5.097 11.39-11.384s-5.099-11.384-11.39-11.384c-6.29 0-11.39 5.097-11.39 11.384s5.1 11.384 11.39 11.384Zm-35.481 14.687c6.291 0 11.39-5.096 11.39-11.383 0-6.288-5.099-11.384-11.39-11.384-6.29 0-11.39 5.096-11.39 11.384 0 6.287 5.1 11.383 11.39 11.383Zm-37.665 7.488c6.291 0 11.39-5.096 11.39-11.383 0-6.287-5.099-11.384-11.39-11.384-6.29 0-11.39 5.097-11.39 11.384s5.1 11.383 11.39 11.383Zm-38.407 0c6.291 0 11.39-5.096 11.39-11.383 0-6.287-5.099-11.384-11.39-11.384-6.29 0-11.39 5.097-11.39 11.384s5.1 11.383 11.39 11.383Zm-37.665-7.488c6.29 0 11.39-5.096 11.39-11.383 0-6.288-5.1-11.384-11.39-11.384-6.291 0-11.39 5.096-11.39 11.384 0 6.287 5.099 11.383 11.39 11.383Zm-35.481-14.687c6.291 0 11.39-5.097 11.39-11.384s-5.099-11.384-11.39-11.384c-6.29 0-11.39 5.097-11.39 11.384s5.1 11.384 11.39 11.384Zm-31.932-21.326c6.29 0 11.39-5.097 11.39-11.384s-5.1-11.384-11.39-11.384c-6.291 0-11.39 5.097-11.39 11.384s5.099 11.384 11.39 11.384Zm-27.156-27.142c6.29 0 11.39-5.096 11.39-11.384 0-6.287-5.1-11.383-11.39-11.383-6.29 0-11.39 5.096-11.39 11.383 0 6.288 5.1 11.384 11.39 11.384Zm-21.337-31.915c6.29 0 11.39-5.097 11.39-11.384s-5.1-11.384-11.39-11.384c-6.29 0-11.39 5.097-11.39 11.384s5.1 11.384 11.39 11.384Zm-14.696-35.462c6.29 0 11.39-5.097 11.39-11.384s-5.1-11.384-11.39-11.384c-6.29 0-11.39 5.097-11.39 11.384s5.1 11.384 11.39 11.384Zm-7.492-37.645c6.29 0 11.39-5.097 11.39-11.384s-5.1-11.384-11.39-11.384c-6.29 0-11.39 5.097-11.39 11.384s5.1 11.384 11.39 11.384Zm0-38.386c6.29 0 11.39-5.097 11.39-11.384s-5.1-11.384-11.39-11.384c-6.29 0-11.39 5.097-11.39 11.384s5.1 11.384 11.39 11.384Zm7.492-37.645c6.29 0 11.39-5.097 11.39-11.384s-5.1-11.384-11.39-11.384c-6.29 0-11.39 5.097-11.39 11.384s5.1 11.384 11.39 11.384Zm14.696-35.462c6.29 0 11.39-5.097 11.39-11.384s-5.1-11.384-11.39-11.384c-6.29 0-11.39 5.097-11.39 11.384s5.1 11.384 11.39 11.384Zm21.337-31.916c6.29 0 11.39-5.096 11.39-11.384 0-6.287-5.1-11.383-11.39-11.383-6.29 0-11.39 5.096-11.39 11.383 0 6.288 5.1 11.384 11.39 11.384Zm27.156-27.141c6.29 0 11.39-5.097 11.39-11.384s-5.1-11.384-11.39-11.384c-6.291 0-11.39 5.097-11.39 11.384s5.099 11.384 11.39 11.384Zm31.932-21.326c6.291 0 11.39-5.097 11.39-11.384s-5.099-11.384-11.39-11.384c-6.29 0-11.39 5.097-11.39 11.384s5.1 11.384 11.39 11.384Zm35.481-14.688c6.29 0 11.39-5.097 11.39-11.384s-5.1-11.384-11.39-11.384c-6.291 0-11.39 5.097-11.39 11.384s5.099 11.384 11.39 11.384Zm37.665-7.488c6.291 0 11.39-5.097 11.39-11.384s-5.099-11.383-11.39-11.383c-6.29 0-11.39 5.096-11.39 11.383 0 6.288 5.1 11.384 11.39 11.384Zm38.407 0c6.291 0 11.39-5.097 11.39-11.384s-5.099-11.383-11.39-11.383c-6.29 0-11.39 5.096-11.39 11.383 0 6.288 5.1 11.384 11.39 11.384Zm37.665 7.488c6.291 0 11.39-5.097 11.39-11.384s-5.099-11.384-11.39-11.384c-6.29 0-11.39 5.097-11.39 11.384s5.1 11.384 11.39 11.384Zm35.481 14.688c6.291 0 11.39-5.097 11.39-11.384s-5.099-11.384-11.39-11.384c-6.29 0-11.39 5.097-11.39 11.384s5.1 11.384 11.39 11.384Zm31.932 21.326c6.291 0 11.39-5.097 11.39-11.384s-5.099-11.384-11.39-11.384c-6.29 0-11.39 5.097-11.39 11.384s5.1 11.384 11.39 11.384Zm27.157 27.141c6.29 0 11.39-5.096 11.39-11.384 0-6.287-5.1-11.383-11.39-11.383-6.291 0-11.39 5.096-11.39 11.383 0 6.288 5.099 11.384 11.39 11.384Zm21.337 31.916c6.29 0 11.39-5.097 11.39-11.384s-5.1-11.384-11.39-11.384c-6.291 0-11.39 5.097-11.39 11.384s5.099 11.384 11.39 11.384Zm14.695 35.462c6.291 0 11.39-5.097 11.39-11.384s-5.099-11.384-11.39-11.384c-6.29 0-11.39 5.097-11.39 11.384s5.1 11.384 11.39 11.384Zm7.492 37.645c6.291 0 11.39-5.097 11.39-11.384s-5.099-11.384-11.39-11.384c-6.29 0-11.39 5.097-11.39 11.384s5.1 11.384 11.39 11.384Zm49.921 19.193c6.291 0 11.39-5.097 11.39-11.384s-5.099-11.384-11.39-11.384c-6.29 0-11.39 5.097-11.39 11.384s5.1 11.384 11.39 11.384Zm-2.184 32.623c6.29 0 11.39-5.096 11.39-11.383 0-6.288-5.1-11.384-11.39-11.384-6.291 0-11.39 5.096-11.39 11.384 0 6.287 5.099 11.383 11.39 11.383Zm-6.518 32.04c6.291 0 11.39-5.097 11.39-11.384s-5.099-11.384-11.39-11.384c-6.29 0-11.39 5.097-11.39 11.384s5.1 11.384 11.39 11.384Zm-10.729 30.885c6.29 0 11.39-5.096 11.39-11.384 0-6.287-5.1-11.383-11.39-11.383-6.291 0-11.39 5.096-11.39 11.383 0 6.288 5.099 11.384 11.39 11.384Zm-14.754 29.181c6.291 0 11.39-5.097 11.39-11.384s-5.099-11.384-11.39-11.384c-6.29 0-11.39 5.097-11.39 11.384s5.1 11.384 11.39 11.384ZM447.91 419.07c6.291 0 11.39-5.097 11.39-11.384s-5.099-11.384-11.39-11.384c-6.29 0-11.39 5.097-11.39 11.384s5.1 11.384 11.39 11.384Zm-21.942 24.247c6.291 0 11.39-5.096 11.39-11.383 0-6.288-5.099-11.384-11.39-11.384-6.29 0-11.39 5.096-11.39 11.384 0 6.287 5.1 11.383 11.39 11.383Zm-24.982 21.111c6.291 0 11.39-5.097 11.39-11.384s-5.099-11.384-11.39-11.384c-6.29 0-11.39 5.097-11.39 11.384s5.1 11.384 11.39 11.384Zm-27.574 17.592c6.291 0 11.39-5.097 11.39-11.384s-5.099-11.384-11.39-11.384c-6.29 0-11.389 5.097-11.389 11.384s5.099 11.384 11.389 11.384Zm-29.672 13.762c6.291 0 11.39-5.097 11.39-11.384s-5.099-11.384-11.39-11.384c-6.29 0-11.39 5.097-11.39 11.384s5.1 11.384 11.39 11.384Zm-31.243 9.686c6.29 0 11.389-5.096 11.389-11.384 0-6.287-5.099-11.383-11.389-11.383-6.291 0-11.39 5.096-11.39 11.383 0 6.288 5.099 11.384 11.39 11.384Zm-32.259 5.439c6.29 0 11.39-5.097 11.39-11.384s-5.1-11.384-11.39-11.384c-6.291 0-11.39 5.097-11.39 11.384s5.099 11.384 11.39 11.384ZM247.544 512c6.29 0 11.39-5.097 11.39-11.384s-5.1-11.384-11.39-11.384c-6.291 0-11.39 5.097-11.39 11.384S241.253 512 247.544 512Zm-32.548-3.273c6.291 0 11.39-5.097 11.39-11.384s-5.099-11.384-11.39-11.384c-6.29 0-11.39 5.097-11.39 11.384s5.1 11.384 11.39 11.384Zm-31.823-7.58c6.29 0 11.39-5.096 11.39-11.383 0-6.288-5.1-11.384-11.39-11.384-6.291 0-11.39 5.096-11.39 11.384 0 6.287 5.099 11.383 11.39 11.383Zm-30.525-11.75c6.29 0 11.39-5.097 11.39-11.384s-5.1-11.384-11.39-11.384c-6.291 0-11.39 5.097-11.39 11.384s5.099 11.384 11.39 11.384Zm-28.688-15.713c6.291 0 11.39-5.096 11.39-11.383 0-6.288-5.099-11.384-11.39-11.384-6.29 0-11.39 5.096-11.39 11.384 0 6.287 5.1 11.383 11.39 11.383Zm-26.336-19.395c6.291 0 11.39-5.097 11.39-11.384s-5.099-11.384-11.39-11.384c-6.29 0-11.39 5.097-11.39 11.384s5.1 11.384 11.39 11.384Zm-23.516-22.73c6.29 0 11.39-5.097 11.39-11.384s-5.1-11.383-11.39-11.383c-6.29 0-11.39 5.096-11.39 11.383 0 6.287 5.1 11.384 11.39 11.384ZM53.834 405.9c6.29 0 11.39-5.097 11.39-11.384s-5.1-11.384-11.39-11.384c-6.29 0-11.39 5.097-11.39 11.384s5.1 11.384 11.39 11.384Zm-16.67-28.131c6.29 0 11.39-5.097 11.39-11.384s-5.1-11.384-11.39-11.384c-6.29 0-11.39 5.097-11.39 11.384s5.1 11.384 11.39 11.384Zm-12.772-30.101c6.29 0 11.39-5.097 11.39-11.384s-5.1-11.384-11.39-11.384c-6.29 0-11.39 5.097-11.39 11.384s5.1 11.384 11.39 11.384Zm-8.641-31.533c6.29 0 11.39-5.097 11.39-11.384s-5.1-11.384-11.39-11.384c-6.29 0-11.39 5.097-11.39 11.384s5.1 11.384 11.39 11.384Zm-4.361-32.404c6.29 0 11.39-5.097 11.39-11.384s-5.1-11.384-11.39-11.384C5.1 260.963 0 266.06 0 272.347s5.1 11.384 11.39 11.384Zm0-32.694c6.29 0 11.39-5.097 11.39-11.384s-5.1-11.384-11.39-11.384C5.1 228.269 0 233.366 0 239.653s5.1 11.384 11.39 11.384Zm4.361-32.404c6.29 0 11.39-5.097 11.39-11.384s-5.1-11.384-11.39-11.384c-6.29 0-11.39 5.097-11.39 11.384s5.1 11.384 11.39 11.384Zm8.641-31.533c6.29 0 11.39-5.097 11.39-11.384s-5.1-11.384-11.39-11.384c-6.29 0-11.39 5.097-11.39 11.384s5.1 11.384 11.39 11.384Zm12.772-30.102c6.29 0 11.39-5.096 11.39-11.383 0-6.288-5.1-11.384-11.39-11.384-6.29 0-11.39 5.096-11.39 11.384 0 6.287 5.1 11.383 11.39 11.383Zm16.67-28.13c6.29 0 11.39-5.097 11.39-11.384s-5.1-11.384-11.39-11.384c-6.29 0-11.39 5.097-11.39 11.384s5.1 11.384 11.39 11.384Zm20.274-25.66c6.29 0 11.39-5.096 11.39-11.383 0-6.288-5.1-11.384-11.39-11.384-6.29 0-11.39 5.096-11.39 11.384 0 6.287 5.1 11.383 11.39 11.383Zm23.516-22.729c6.291 0 11.39-5.097 11.39-11.384s-5.099-11.384-11.39-11.384c-6.29 0-11.39 5.097-11.39 11.384s5.1 11.384 11.39 11.384Zm26.336-19.396c6.291 0 11.39-5.096 11.39-11.384 0-6.287-5.099-11.383-11.39-11.383-6.29 0-11.39 5.096-11.39 11.383 0 6.288 5.1 11.384 11.39 11.384Zm28.688-15.712c6.29 0 11.39-5.097 11.39-11.384s-5.1-11.384-11.39-11.384c-6.291 0-11.39 5.097-11.39 11.384s5.099 11.384 11.39 11.384Zm30.525-11.751c6.29 0 11.39-5.096 11.39-11.384 0-6.287-5.1-11.383-11.39-11.383-6.291 0-11.39 5.096-11.39 11.383 0 6.288 5.099 11.384 11.39 11.384Zm31.823-7.579c6.291 0 11.39-5.097 11.39-11.384s-5.099-11.384-11.39-11.384c-6.29 0-11.39 5.097-11.39 11.384s5.1 11.384 11.39 11.384Zm32.548-3.273c6.29 0 11.39-5.097 11.39-11.384S253.834 0 247.544 0c-6.291 0-11.39 5.097-11.39 11.384s5.099 11.384 11.39 11.384Zm32.694 1.092c6.29 0 11.39-5.096 11.39-11.383 0-6.287-5.1-11.384-11.39-11.384-6.291 0-11.39 5.097-11.39 11.384s5.099 11.383 11.39 11.383Zm32.259 5.44c6.29 0 11.389-5.097 11.389-11.384s-5.099-11.384-11.389-11.384c-6.291 0-11.39 5.097-11.39 11.384s5.099 11.383 11.39 11.383Zm31.243 9.686c6.291 0 11.39-5.097 11.39-11.384s-5.099-11.384-11.39-11.384c-6.29 0-11.39 5.097-11.39 11.384s5.1 11.384 11.39 11.384Zm29.672 13.762c6.291 0 11.39-5.097 11.39-11.384s-5.099-11.384-11.39-11.384c-6.29 0-11.389 5.097-11.389 11.384s5.099 11.384 11.389 11.384Zm27.574 17.592c6.291 0 11.39-5.097 11.39-11.384s-5.099-11.384-11.39-11.384c-6.29 0-11.39 5.097-11.39 11.384s5.1 11.383 11.39 11.383Zm24.982 21.11c6.291 0 11.39-5.097 11.39-11.384s-5.099-11.383-11.39-11.383c-6.29 0-11.39 5.096-11.39 11.383 0 6.287 5.1 11.384 11.39 11.384Zm21.942 24.248c6.291 0 11.39-5.097 11.39-11.384s-5.099-11.384-11.39-11.384c-6.29 0-11.39 5.097-11.39 11.384s5.1 11.384 11.39 11.384Zm18.515 26.957c6.291 0 11.39-5.097 11.39-11.384s-5.099-11.384-11.39-11.384c-6.29 0-11.39 5.097-11.39 11.384s5.1 11.384 11.39 11.384Zm14.754 29.18c6.29 0 11.39-5.096 11.39-11.383 0-6.288-5.1-11.384-11.39-11.384-6.291 0-11.39 5.096-11.39 11.384 0 6.287 5.099 11.383 11.39 11.383Zm10.729 30.886c6.291 0 11.39-5.097 11.39-11.384s-5.099-11.384-11.39-11.384c-6.29 0-11.39 5.097-11.39 11.384s5.1 11.384 11.39 11.384Zm6.518 32.039c6.29 0 11.39-5.096 11.39-11.384 0-6.287-5.1-11.383-11.39-11.383-6.291 0-11.39 5.096-11.39 11.383 0 6.288 5.099 11.384 11.39 11.384ZM2489.29 440.616l113.41-186.198-111.82-183.033h65.4l83.34 142.417h8.44l83.87-142.417h65.41l-111.83 183.033 113.41 186.198h-65.93l-84.93-145.583h-8.44l-84.92 145.583h-65.41Zm-336.44 0 105.5-369.231h100.22l104.96 369.231h-58.55l-24.26-87.033h-144.53l-24.26 87.033h-59.08Zm97.58-139.781h116.05l-53.8-194.11h-8.44l-53.81 194.11Zm-431.05 139.781v-50.638h49.58V122.022h-49.58V71.385h187.25c22.16 0 41.5 3.868 58.03 11.604 16.52 7.385 29.36 18.11 38.5 32.176 9.5 13.714 14.24 30.066 14.24 49.055v5.275c0 16.879-3.16 30.769-9.49 41.67-6.33 10.901-14.07 19.341-23.21 25.319-8.79 5.978-17.23 10.197-25.32 12.659v8.44c8.09 2.109 16.7 6.329 25.85 12.659 9.49 5.978 17.4 14.417 23.73 25.319 6.69 10.901 10.03 25.142 10.03 42.725v5.275c0 20.395-4.75 37.802-14.25 52.219-9.49 14.418-22.68 25.495-39.56 33.231-16.52 7.736-35.69 11.605-57.49 11.605h-188.31Zm107.08-51.693h74.37c18.99 0 33.94-4.571 44.84-13.714 10.9-9.143 16.35-21.802 16.35-37.978v-4.747c0-16.176-5.45-28.836-16.35-37.978-10.55-9.143-25.5-13.715-44.84-13.715h-74.37v108.132Zm0-160.351h74.37c17.94 0 32.35-4.396 43.25-13.187 10.91-9.143 16.36-21.451 16.36-36.923v-5.275c0-15.473-5.45-27.604-16.36-36.396-10.54-9.143-24.96-13.714-43.25-13.714h-74.37v105.495Zm-445.18 212.044V71.385h109.71l100.22 331.252h8.44V71.385h56.44v369.231h-109.72l-100.22-331.781h-8.43v331.781h-56.44Zm-133.93 0V71.385h56.96v369.231h-56.96ZM1131.16 448c-45.36 0-81.4-12.659-108.13-37.978-26.725-25.67-40.088-62.593-40.088-110.769v-86.506c0-48.176 13.363-84.923 40.088-110.241C1049.76 76.836 1085.8 64 1131.16 64c45.36 0 81.41 12.835 108.13 38.506 27.08 25.318 40.62 62.065 40.62 110.241v86.506c0 48.176-13.54 85.099-40.62 110.769-26.72 25.319-62.77 37.978-108.13 37.978Zm0-51.165c29.19 0 51.69-8.439 67.52-25.318 15.82-17.231 23.73-40.616 23.73-70.154v-90.726c0-29.538-7.91-52.747-23.73-69.626-15.83-17.231-38.33-25.846-67.52-25.846-28.48 0-50.81 8.615-66.99 25.846-16.17 16.879-24.26 40.088-24.26 69.626v90.726c0 29.538 8.09 52.923 24.26 70.154 16.18 16.879 38.51 25.318 66.99 25.318ZM790.637 448c-45.011 0-80.703-12.659-107.077-37.978-26.373-25.67-39.56-62.593-39.56-110.769v-86.506c0-48.176 13.187-84.923 39.56-110.241C709.934 76.836 745.626 64 790.637 64c44.308 0 78.418 12.308 102.33 36.923 24.264 24.615 36.396 58.198 36.396 100.747v3.165h-56.44v-4.747c0-24.967-6.857-45.363-20.571-61.187-13.363-15.824-33.934-23.736-61.715-23.736-28.132 0-50.11 8.615-65.934 25.846-15.824 16.879-23.736 40.44-23.736 70.681v88.616c0 29.89 7.912 53.45 23.736 70.681 15.824 17.231 37.802 25.846 65.934 25.846 27.781 0 48.352-7.912 61.715-23.736 13.714-16.176 20.571-36.572 20.571-61.187v-8.967h56.44v7.385c0 42.549-12.132 76.132-36.396 100.747C869.055 435.692 834.945 448 790.637 448Z"/></g><defs><clipPath id="a"><path fill="#fff" d="M0 0h2799v512H0z"/></clipPath></defs></svg>