<svg xmlns="http://www.w3.org/2000/svg" width="298" height="80" fill="none" viewBox="0 0 298 80"><circle cx="40" cy="40" r="40" fill="#efff04"/><path fill="#000" d="M30.582 29.723c0 5.212 4.245 9.453 9.466 9.453 1.332 0 2.408-.115 3.953-.424v9.836c-8.807 1.433-20.01-3.266-22.578-14.702l-.066-.303-.098.295a19.7 19.7 0 0 0-.973 6.126c0 10.88 8.866 19.73 19.762 19.73 1.421 0 2.793-.086 3.953-.172v9.445c-1.705.326-3.953.326-3.953.326-17.179 0-25.101-13.45-27.067-18.06a28.6 28.6 0 0 1-2.314-11.27c0-15.687 12.475-28.781 28.4-29.309.352-.011 2.81-.146 4.934.304v9.69c-1.278-.349-2.42-.418-3.953-.418-5.221 0-9.466 4.24-9.466 9.453M213.459 34.105c3.248-2.387 8.536-2.926 12.245-1.278a10.1 10.1 0 0 1 3.441 2.395q1.524 1.567 2.351 3.745.872 2.177.872 4.834-.001 2.612-.872 4.789-.827 2.177-2.351 3.789a10.6 10.6 0 0 1-3.441 2.438q-1.96.87-4.18.871a8.4 8.4 0 0 1-2.961-.522 7.8 7.8 0 0 1-2.439-1.393v8.273h-7.184V43.8c-.106-3.923 1.669-7.602 4.519-9.696m-78.847-2.237q2.568 0 4.703.915a11.2 11.2 0 0 1 3.789 2.482 11.1 11.1 0 0 1 2.481 3.789q.915 2.176.915 4.746 0 2.569-.915 4.746a11.6 11.6 0 0 1-2.481 3.832 11.7 11.7 0 0 1-3.789 2.526q-2.135.87-4.703.87-2.526 0-4.703-.87a11.7 11.7 0 0 1-3.789-2.526 12.2 12.2 0 0 1-2.525-3.832q-.87-2.177-.871-4.746 0-2.57.871-4.746a11.7 11.7 0 0 1 2.525-3.79 11.15 11.15 0 0 1 3.789-2.48q2.177-.916 4.703-.916m63.545 0q2.96 0 6.052 1.002v6.793q-2.437-1.176-4.572-1.567-2.133-.392-3.44-.087-1.306.26-1.306 1.175 0 .609.74.958.784.305 1.959.566 1.22.261 2.57.697 1.393.436 2.569 1.219 1.22.74 1.96 2.09.783 1.306.783 3.396 0 2.7-1.523 4.443-1.48 1.698-4.007 2.481-2.526.784-5.661.654-3.092-.088-6.314-1.001v-6.793a23 23 0 0 0 3.657 1.305q1.83.436 3.31.523 1.481.087 2.395-.218.915-.349.914-1.132 0-.61-.784-.958-.74-.348-1.959-.61a93 93 0 0 1-2.613-.697 12 12 0 0 1-2.569-1.175 6.4 6.4 0 0 1-2.003-2.046q-.74-1.307-.74-3.354 0-2.438 1.393-4.136 1.438-1.742 3.832-2.613 2.395-.915 5.357-.915m43.243.96c3.709-1.65 8.998-1.11 12.245 1.276 2.85 2.095 4.626 5.774 4.519 9.697v11.278h-7.184v-1.306a7.8 7.8 0 0 1-2.439 1.393 8.4 8.4 0 0 1-2.962.523q-2.22 0-4.179-.872a10.6 10.6 0 0 1-3.441-2.438q-1.524-1.611-2.351-3.79-.871-2.176-.871-4.788 0-2.657.871-4.834.827-2.178 2.351-3.745a10.1 10.1 0 0 1 3.441-2.395m56.264-9.537c0 4.84-.077 20.373-.077 20.423.106 3.923-1.67 7.6-4.52 9.695-3.248 2.387-8.536 2.927-12.245 1.279a10.1 10.1 0 0 1-3.441-2.396q-1.524-1.568-2.351-3.744-.87-2.178-.87-4.834 0-2.613.87-4.79a11.3 11.3 0 0 1 2.351-3.788 10.6 10.6 0 0 1 3.441-2.439q1.96-.87 4.18-.87 1.567 0 2.961.522c.9.319 1.79.856 2.516 1.466V23.29zM112.891 32.13q3.178-.348 6.793.74v6.706q-2.526-1.22-4.834-1.132-2.307.087-3.788 1.437-1.48 1.305-1.481 3.919 0 2.613 1.481 3.963 1.48 1.306 3.788 1.393 2.308.044 4.834-1.132v6.706q-3.615 1.089-6.793.74-3.18-.304-5.574-1.828a10.8 10.8 0 0 1-3.745-4.007q-1.35-2.527-1.35-5.835 0-3.31 1.35-5.791a10.7 10.7 0 0 1 3.745-4.05q2.395-1.524 5.574-1.83m44.564 22.948h-7.185V32.565h7.185zm17.981-23.122q2.482 0 4.354 1.132 1.917 1.132 2.961 3.265 1.089 2.091 1.089 5.052v13.673h-7.185V42.363q0-1.74-.828-2.787-.783-1.089-2.525-1.089t-2.7 1.002-.958 2.874v12.715h-7.185V32.565h7.185v1.132a9.1 9.1 0 0 1 2.613-1.262 10.3 10.3 0 0 1 3.179-.479m94.928 23.122h-7.185V32.565h7.185zm-49.798-16.765q-2.09 0-3.353 1.525-1.263 1.48-1.262 3.963t1.262 4.006q1.263 1.523 3.353 1.523 2.133 0 3.353-1.48 1.263-1.524 1.263-4.05t-1.263-4.006q-1.22-1.48-3.353-1.48m25.971 0q-2.133 0-3.352 1.48-1.263 1.482-1.263 4.008t1.263 4.049q1.22 1.48 3.352 1.48 2.091 0 3.354-1.523 1.263-1.524 1.263-4.006t-1.263-3.963q-1.263-1.524-3.354-1.525m-111.925.043q-2.134 0-3.44 1.525-1.263 1.48-1.263 3.919 0 2.395 1.263 3.963 1.306 1.523 3.44 1.523t3.396-1.523q1.307-1.568 1.307-3.963 0-2.438-1.307-3.92-1.263-1.523-3.396-1.524m151.348-.172q-2.133 0-3.353 1.48-1.263 1.524-1.263 4.05t1.263 4.007q1.22 1.48 3.353 1.48 2.09 0 3.353-1.524 1.263-1.48 1.263-3.963t-1.263-4.006-3.353-1.524M153.884 21.156a4.2 4.2 0 0 1 2.221.61 4.6 4.6 0 0 1 1.655 1.611q.609.959.609 2.178t-.609 2.22a4.63 4.63 0 0 1-1.655 1.612 4.2 4.2 0 0 1-2.221.61 4.5 4.5 0 0 1-2.308-.61 4.76 4.76 0 0 1-1.611-1.612 4.2 4.2 0 0 1-.609-2.22q0-1.22.609-2.178a4.76 4.76 0 0 1 1.611-1.611 4.5 4.5 0 0 1 2.308-.61m112.909 0q1.22 0 2.221.61a4.6 4.6 0 0 1 1.654 1.611q.61.959.611 2.178 0 1.219-.611 2.22a4.6 4.6 0 0 1-1.654 1.612 4.2 4.2 0 0 1-2.221.61 4.5 4.5 0 0 1-2.308-.61 4.76 4.76 0 0 1-1.611-1.612 4.2 4.2 0 0 1-.61-2.22q0-1.22.61-2.178a4.76 4.76 0 0 1 1.611-1.611 4.5 4.5 0 0 1 2.308-.61"/></svg>