<svg xmlns="http://www.w3.org/2000/svg" width="192" height="28" fill="none"><path fill="#F3F5F0" d="M22.775 19.468c-2.834 2.166-6.876 1.894-9.402-.634a7.115 7.115 0 0 1-2.097-5.063 7.111 7.111 0 0 1 2.097-5.064 7.124 7.124 0 0 1 5.06-2.097 7.103 7.103 0 0 1 5.061 2.099l1.557-1.558a9.283 9.283 0 0 0-6.617-2.742 9.288 9.288 0 0 0-6.618 2.742 9.31 9.31 0 0 0-2.741 6.62 9.287 9.287 0 0 0 2.742 6.62c3.072 3.074 7.856 3.595 11.494 1.373l1.595 1.594a11.513 11.513 0 0 1-6.942 1.97 11.53 11.53 0 0 1-7.706-3.379c-4.507-4.51-4.507-11.848 0-16.358a11.482 11.482 0 0 1 8.176-3.388 11.48 11.48 0 0 1 8.175 3.388l1.557-1.558A13.67 13.67 0 0 0 18.436 0a13.671 13.671 0 0 0-9.734 4.034c-5.368 5.37-5.368 14.104 0 19.472a13.724 13.724 0 0 0 9.735 4.033 13.7 13.7 0 0 0 8.848-3.225l.918-.774-4.666-4.657-.764.585h.002Z"/><path fill="#F3F5F0" d="M7.17 2.503 5.612.945A18.026 18.026 0 0 0 .3 13.77c0 4.845 1.885 9.4 5.312 12.827l1.556-1.558a15.836 15.836 0 0 1-4.665-11.27c0-4.258 1.656-8.258 4.665-11.269v.002Zm49.35 5.181c1.055-.647 2.267-.972 3.637-.972s2.54.347 3.511 1.041a6.003 6.003 0 0 1 2.124 2.707l2.942-1.388c-.353-.944-.926-1.818-1.722-2.623-.796-.805-1.772-1.457-2.928-1.956-1.157-.5-2.466-.749-3.927-.749-1.461 0-2.84.264-4.08.792a9.85 9.85 0 0 0-3.247 2.22 10.04 10.04 0 0 0-2.151 3.387c-.51 1.304-.764 2.724-.764 4.26 0 1.536.259 2.98.777 4.275.519 1.295 1.235 2.42 2.151 3.372a9.838 9.838 0 0 0 3.247 2.234c1.25.536 2.604.804 4.067.804s2.771-.25 3.927-.748c1.156-.5 2.132-1.156 2.928-1.971.796-.814 1.37-1.683 1.722-2.61l-2.942-1.388a5.9 5.9 0 0 1-2.124 2.692c-.97.684-2.142 1.027-3.511 1.027-1.369 0-2.582-.32-3.636-.958-1.055-.639-1.874-1.536-2.457-2.692-.583-1.156-.874-2.502-.874-4.038 0-1.536.29-2.877.874-4.024.583-1.147 1.4-2.045 2.457-2.692v-.002Zm26.217 2.734c-1.175-.676-2.502-1.013-3.983-1.013-1.48 0-2.786.337-3.97 1.013a7.695 7.695 0 0 0-2.83 2.776c-.704 1.174-1.055 2.521-1.055 4.038 0 1.517.35 2.84 1.054 4.026a7.728 7.728 0 0 0 2.845 2.803c1.194.684 2.511 1.026 3.955 1.026 1.443 0 2.756-.337 3.941-1.013a7.663 7.663 0 0 0 2.832-2.789c.703-1.183 1.054-2.534 1.054-4.051 0-1.518-.346-2.864-1.041-4.039a7.618 7.618 0 0 0-2.803-2.776l.001-.001Zm0 9.353a4.537 4.537 0 0 1-1.624 1.763c-.685.425-1.472.638-2.359.638s-1.652-.213-2.345-.638a4.493 4.493 0 0 1-1.638-1.763c-.398-.749-.596-1.596-.596-2.539 0-.943.198-1.786.596-2.526a4.527 4.527 0 0 1 1.638-1.749c.694-.426 1.476-.639 2.345-.639.87 0 1.674.213 2.359.64a4.561 4.561 0 0 1 1.624 1.748c.398.74.596 1.582.596 2.526 0 .944-.2 1.79-.596 2.54ZM92.771 9.738h-3.137v15.016h3.137V9.738Zm0-5.663h-3.137v3.608h3.137V4.075Zm13.849 6.051c-.851-.48-1.831-.721-2.941-.721-1.11 0-2.017.245-2.832.735a4.092 4.092 0 0 0-1.415 1.42V9.738h-2.998v15.016h3.137V15.9c0-.74.14-1.379.416-1.915a2.928 2.928 0 0 1 1.179-1.235c.508-.286 1.087-.43 1.734-.43.648 0 1.227.144 1.735.43.508.288.902.695 1.179 1.222.278.527.416 1.17.416 1.93v8.854h3.109v-9.687c0-1.11-.241-2.091-.721-2.942a5.198 5.198 0 0 0-1.999-1.998l.001-.003Zm25.465 0c-.841-.48-1.781-.721-2.816-.721-1.184 0-2.234.296-3.15.888-.63.408-1.147.964-1.554 1.661a4.673 4.673 0 0 0-1.472-1.592c-.934-.639-2.003-.957-3.206-.957-1.073 0-2.026.26-2.859.777a3.829 3.829 0 0 0-1.332 1.399V9.738h-2.997v15.016h3.137V15.9c0-.74.133-1.379.402-1.915a2.922 2.922 0 0 1 1.124-1.235c.481-.286 1.036-.43 1.665-.43.628 0 1.207.144 1.678.43.472.288.842.695 1.111 1.222.268.527.402 1.17.402 1.93v8.854h3.109v-8.854c0-.74.14-1.38.416-1.915a2.997 2.997 0 0 1 1.138-1.236c.482-.286 1.037-.43 1.665-.43.629 0 1.179.144 1.652.43.472.288.842.695 1.111 1.222.268.528.402 1.17.402 1.93v8.854h3.137v-9.715c0-1.09-.25-2.063-.749-2.913a5.43 5.43 0 0 0-2.012-1.999l-.002-.004Zm18.196 1.457a6.506 6.506 0 0 0-2.248-1.596c-.889-.39-1.898-.583-3.026-.583-1.407 0-2.664.338-3.774 1.013a7.455 7.455 0 0 0-2.651 2.763c-.656 1.165-.985 2.506-.985 4.023s.323 2.817.971 4.011a7.298 7.298 0 0 0 2.706 2.832c1.156.693 2.485 1.04 3.983 1.04 1.018 0 1.956-.16 2.817-.485a6.83 6.83 0 0 0 2.22-1.332c.62-.564 1.078-1.199 1.375-1.902l-2.554-1.248a4.493 4.493 0 0 1-1.513 1.581c-.638.407-1.411.611-2.317.611-.906 0-1.679-.213-2.373-.639a4.27 4.27 0 0 1-1.61-1.777 4.448 4.448 0 0 1-.445-1.749h11.173a4.21 4.21 0 0 0 .112-.72c.017-.26.028-.509.028-.75 0-.98-.162-1.906-.486-2.775a7.185 7.185 0 0 0-1.401-2.318h-.002Zm-8.992 2.86c.351-.769.85-1.36 1.499-1.777.648-.416 1.388-.625 2.221-.625.833 0 1.558.209 2.179.624.62.416 1.083.982 1.388 1.694.172.4.263.83.279 1.29h-7.921c.07-.438.188-.84.355-1.206Zm21.094 7.702c-.592 0-1.073-.097-1.443-.29a1.744 1.744 0 0 1-.805-.833c-.166-.362-.25-.8-.25-1.32V12.57h3.415V9.739h-3.415V6.296h-3.137v1.166c0 .704-.194 1.259-.583 1.666-.389.406-.934.61-1.637.61h-.416v2.832h2.638v7.272c0 1.61.434 2.86 1.304 3.747.869.888 2.091 1.332 3.664 1.332.241 0 .518-.02.833-.056.314-.037.6-.073.86-.112v-2.692c-.166.02-.342.037-.527.056a4.64 4.64 0 0 1-.499.028h-.002Zm8.408-11.95c-.561.33-1.004.818-1.332 1.461v-1.92h-2.997v15.017h3.137v-8.66c0-1.184.319-2.096.957-2.735.639-.639 1.476-.957 2.512-.957h1.304V9.54h-.917c-1.036 0-1.925.218-2.664.652v.002Zm19.749 2.999a7.613 7.613 0 0 0-2.803-2.776c-1.175-.676-2.503-1.013-3.983-1.013s-2.784.337-3.969 1.013a7.684 7.684 0 0 0-2.832 2.776c-.703 1.174-1.054 2.521-1.054 4.038 0 1.517.351 2.84 1.054 4.026a7.73 7.73 0 0 0 2.845 2.803c1.194.684 2.511 1.026 3.955 1.026 1.443 0 2.756-.337 3.941-1.013a7.666 7.666 0 0 0 2.832-2.789c.703-1.183 1.054-2.534 1.054-4.051 0-1.518-.346-2.864-1.041-4.039l.001-.002Zm-2.803 6.577a4.54 4.54 0 0 1-1.624 1.763c-.685.425-1.472.638-2.36.638-.889 0-1.653-.213-2.346-.638a4.504 4.504 0 0 1-1.637-1.763c-.398-.749-.596-1.596-.596-2.539 0-.943.198-1.786.596-2.526a4.528 4.528 0 0 1 1.637-1.749c.695-.426 1.476-.639 2.346-.639.869 0 1.674.213 2.36.64a4.563 4.563 0 0 1 1.624 1.748c.398.74.596 1.582.596 2.526 0 .944-.2 1.79-.596 2.54Z"/></svg>