<svg xmlns="http://www.w3.org/2000/svg" width="42" height="42" fill="none" viewBox="0 0 42 42"><circle cx="21" cy="21" r="20" fill="#ff4d15" stroke="#fff" stroke-width="2"/><path fill="#fff" fill-rule="evenodd" d="m26.796 25.812.637-.486 3.885 3.878-.764.644a11.42 11.42 0 0 1-7.838 2.677 11.43 11.43 0 0 1-7.64-3.35c-4.47-4.47-4.47-11.744 0-16.216a11.39 11.39 0 0 1 8.106-3.36c3.062 0 5.94 1.194 8.105 3.36l-1.297 1.298a9.56 9.56 0 0 0-6.809-2.822 9.56 9.56 0 0 0-6.809 2.822c-3.754 3.756-3.754 9.867 0 13.623a9.6 9.6 0 0 0 6.418 2.813 9.6 9.6 0 0 0 5.78-1.64l-1.328-1.326a7.82 7.82 0 0 1-9.573-1.145 7.75 7.75 0 0 1-2.283-5.514 7.75 7.75 0 0 1 2.283-5.514 7.74 7.74 0 0 1 5.512-2.284 7.74 7.74 0 0 1 5.512 2.284l-1.297 1.298a5.92 5.92 0 0 0-4.215-1.747 5.92 5.92 0 0 0-4.215 1.747 5.93 5.93 0 0 0-1.746 4.216 5.93 5.93 0 0 0 1.746 4.217c2.104 2.105 5.47 2.332 7.83.527M12.504 10.386l1.296 1.297a13.19 13.19 0 0 0-3.885 9.384c0 3.546 1.38 6.879 3.885 9.386l-1.296 1.297A15 15 0 0 1 8.08 21.068a15 15 0 0 1 4.424-10.682" clip-rule="evenodd"/></svg>