<svg xmlns="http://www.w3.org/2000/svg" width="154" height="22" fill="none" viewBox="0 0 154 22"><path fill="#fff" d="M53.675 21.874H42.012a2.716 2.716 0 0 1-2.714-2.711V2.113a2.075 2.075 0 0 1 4.15 0v15.615h10.227c1.145 0 2.074.929 2.074 2.073s-.929 2.073-2.074 2.073M30.798 22h-5.853a2.08 2.08 0 0 1-1.467-.607l-3.22-3.217a2.07 2.07 0 0 1-.607-1.466V5.29c0-.55.219-1.078.607-1.466l3.22-3.217c.39-.388.917-.607 1.467-.607h5.853c.551 0 1.077.219 1.467.607l3.22 3.217c.388.388.607.916.607 1.466v11.42c0 .55-.22 1.078-.607 1.466l-3.22 3.217a2.08 2.08 0 0 1-1.467.607m-4.994-4.146h4.134l2.005-2.003V6.149l-2.005-2.003h-4.134L23.8 6.149v9.702zM61.027 22a2.075 2.075 0 0 1-2.075-2.073V2.073A2.077 2.077 0 0 1 61.028 0h9.073c.551 0 1.077.219 1.467.607l3.22 3.217c.388.388.607.916.607 1.466v11.42c0 .55-.219 1.078-.607 1.466l-3.22 3.217a2.08 2.08 0 0 1-1.467.607zm2.074-4.146h6.139l2.005-2.003V6.149L69.24 4.146H63.1zM148.706 22h-9.073a2.074 2.074 0 0 1-2.074-2.073V2.073c0-1.144.929-2.073 2.074-2.073h9.073c.551 0 1.077.219 1.467.607l3.22 3.217c.388.388.607.916.607 1.466v11.42c0 .55-.219 1.078-.607 1.466l-3.22 3.217a2.08 2.08 0 0 1-1.467.607m-6.998-4.146h6.138l2.005-2.003V6.149l-2.005-2.003h-6.138zM11.147 22H5.294c-.55 0-1.077-.219-1.467-.607l-3.22-3.217A2.07 2.07 0 0 1 0 16.71V5.29c0-.55.22-1.078.607-1.466L3.827.607C4.217.219 4.745 0 5.294 0h5.852c.55 0 1.078.219 1.467.607l3.22 3.217a2.073 2.073 0 1 1-2.935 2.932l-2.612-2.61H6.152L4.147 6.149v9.702l2.005 2.003h4.134l2.612-2.61a2.073 2.073 0 1 1 2.934 2.932l-3.22 3.217a2.08 2.08 0 0 1-1.466.607zM89.752 22H83.9a2.08 2.08 0 0 1-1.467-.607l-3.22-3.217a2.07 2.07 0 0 1-.607-1.466V5.29c0-.55.22-1.078.608-1.466l3.22-3.217A2.08 2.08 0 0 1 83.898 0h5.851c.551 0 1.08.219 1.467.607l3.22 3.217a2.073 2.073 0 1 1-2.934 2.932l-2.612-2.61h-4.134l-2.005 2.003v9.702l2.005 2.003h4.134l2.612-2.61a2.073 2.073 0 1 1 2.934 2.932l-3.22 3.217A2.08 2.08 0 0 1 89.75 22zM114.089 3.824 110.87.607A2.08 2.08 0 0 0 109.403 0h-5.852c-.551 0-1.079.219-1.467.607l-3.22 3.217a2.07 2.07 0 0 0-.607 1.466v14.637a2.075 2.075 0 0 0 4.149 0v-4.428h8.144v4.428a2.074 2.074 0 0 0 4.148 0V5.29c0-.55-.219-1.078-.607-1.466zm-11.683 7.528V6.148l2.005-2.004h4.134l2.005 2.004v5.204zM133.262 12.299a3.68 3.68 0 0 0 1.086-2.62V5.966c0-.99-.385-1.919-1.086-2.618l-2.263-2.262A3.69 3.69 0 0 0 128.378 0h-8.396a2.074 2.074 0 0 0-2.074 2.073v17.854a2.074 2.074 0 0 0 4.149 0v-4.282h3.687l4.976 5.625a2.07 2.07 0 0 0 2.927.181c.858-.758.94-2.068.181-2.925l-3.214-3.634q.202-.15.385-.33l2.263-2.262zm-11.207-8.153h6.139l2.005 2.003v3.347l-2.005 2.003h-6.139zM152.161 20.212l.387.387-.121.12-.221-.22h-.1l-.169.17.511.51h.1l.184-.184.116.116-.602.602-.116-.116.184-.184v-.1l-.511-.51-.17.169v.1l.221.22-.121.12-.387-.386.817-.815zM153.266 20.309l-.6-.344-.037.037.501.5h.1l.078-.078.116.117-.353.353-.117-.116.059-.058v-.1l-.462-.46h-.099l-.058.057-.117-.116.349-.348.566.335-.335-.566.346-.346.117.116-.059.058v.1l.462.46h.099l.059-.058.116.116-.354.354-.116-.116.076-.077v-.1l-.501-.5-.035.035.342.602z"/></svg>