<svg xmlns="http://www.w3.org/2000/svg" viewBox="0 0 100 16" id="svg12854117104"><path d="M 2.315 8 L 2.315 7.966 C 2.315 5.586 4.055 3.675 6.46 3.675 C 7.896 3.675 8.973 4.282 9.978 5.186 L 11.395 3.606 C 10.376 2.662 9.212 1.959 7.472 1.766 L 7.472 0 L 5.3 0 L 5.3 1.808 C 2.134 2.326 0 4.912 0 8 L 0 8.034 C 0 11.17 2.201 13.716 5.3 14.202 L 5.3 16 L 7.472 16 L 7.472 14.221 C 9.204 14 10.389 13.238 11.485 12.134 L 10.067 10.745 C 8.991 11.717 8.003 12.325 6.46 12.325 C 4.055 12.325 2.315 10.38 2.315 8 Z M 19.096 12.325 C 16.602 12.325 14.826 10.362 14.826 8 L 14.826 7.966 C 14.826 5.602 16.566 3.674 19.06 3.674 C 21.554 3.674 23.331 5.638 23.331 8 L 23.331 8.034 C 23.331 10.397 21.591 12.325 19.096 12.325 Z M 12.511 8 L 12.511 8.034 C 12.511 11.457 15.202 14.288 19.059 14.288 C 22.918 14.288 25.646 11.422 25.646 8 L 25.646 7.966 C 25.646 4.543 22.954 1.712 19.096 1.712 C 15.238 1.712 12.511 4.578 12.511 8 Z M 30.164 1.92 L 28.118 1.92 L 28.118 14.08 L 30.289 14.08 L 30.289 5.429 L 37.215 14.08 L 39.065 14.08 L 39.065 1.92 L 36.893 1.92 L 36.893 10.328 Z M 44.377 14.08 L 44.377 9.13 L 50.712 9.13 L 50.712 7.184 L 44.377 7.184 L 44.377 3.866 L 51.519 3.866 L 51.519 1.92 L 42.169 1.92 L 42.169 14.08 Z M 55.747 14.08 L 55.747 1.92 L 53.54 1.92 L 53.54 14.08 Z M 61.084 3.865 L 64.297 3.865 C 65.93 3.865 66.898 4.577 66.898 5.88 L 66.898 5.916 C 66.898 7.149 65.893 7.948 64.315 7.948 L 61.084 7.948 Z M 69.143 5.759 C 69.143 4.7 68.765 3.796 68.102 3.136 C 67.294 2.372 66.055 1.92 64.477 1.92 L 58.879 1.92 L 58.879 14.08 L 61.085 14.08 L 61.085 9.842 L 63.849 9.842 L 66.936 14.08 L 69.537 14.08 L 66.145 9.476 C 67.903 8.99 69.142 7.791 69.142 5.794 Z M 74.015 1.92 L 71.664 1.92 L 71.664 14.08 L 73.835 14.08 L 73.835 5.394 L 77.764 11.092 L 77.835 11.092 L 81.802 5.36 L 81.802 14.08 L 84.01 14.08 L 84.01 1.92 L 81.659 1.92 L 77.836 7.67 Z M 93.068 12.325 C 90.573 12.325 88.797 10.362 88.797 8 L 88.797 7.966 C 88.797 5.602 90.537 3.674 93.031 3.674 C 95.526 3.674 97.302 5.638 97.302 8 L 97.302 8.034 C 97.302 10.397 95.562 12.325 93.068 12.325 Z M 86.482 8 L 86.482 8.034 C 86.482 11.457 89.173 14.288 93.031 14.288 C 96.89 14.288 99.617 11.422 99.617 8 L 99.617 7.966 C 99.617 4.543 96.926 1.712 93.068 1.712 C 89.209 1.712 86.482 4.578 86.482 8 Z" fill="var(--token-cdc426a0-8a19-4677-90ff-7027f9e6dbca, rgb(34, 19, 77)) /* {&quot;name&quot;:&quot;Dark blue&quot;} */"/></svg>