<svg xmlns="http://www.w3.org/2000/svg" viewBox="0 0 100 16"><path fill="var(--token-cdc426a0-8a19-4677-90ff-7027f9e6dbca, rgb(34, 19, 77)) /* {&quot;name&quot;:&quot;dark blue&quot;} */" d="M2.315 8v-.034c0-2.38 1.74-4.291 4.145-4.291 1.436 0 2.513.607 3.518 1.511l1.417-1.58c-1.019-.944-2.183-1.647-3.923-1.84V0H5.3v1.808C2.134 2.326 0 4.912 0 8v.034c0 3.136 2.201 5.682 5.3 6.168V16h2.172v-1.779c1.732-.221 2.917-.983 4.013-2.087l-1.418-1.389c-1.076.972-2.064 1.58-3.607 1.58-2.405 0-4.145-1.945-4.145-4.325m16.781 4.325c-2.494 0-4.27-1.963-4.27-4.325v-.034c0-2.364 1.74-4.292 4.234-4.292S23.331 5.638 23.331 8v.034c0 2.363-1.74 4.291-4.235 4.291M12.511 8v.034c0 3.423 2.691 6.254 6.548 6.254 3.859 0 6.587-2.866 6.587-6.288v-.034c0-3.423-2.692-6.254-6.55-6.254S12.511 4.578 12.511 8m17.653-6.08h-2.046v12.16h2.171V5.429l6.926 8.651h1.85V1.92h-2.172v8.408Zm14.213 12.16V9.13h6.335V7.184h-6.335V3.866h7.142V1.92h-9.35v12.16Zm11.37 0V1.92H53.54v12.16Zm5.337-10.215h3.213c1.633 0 2.601.712 2.601 2.015v.036c0 1.233-1.005 2.032-2.583 2.032h-3.231Zm8.059 1.894c0-1.059-.378-1.963-1.041-2.623-.808-.764-2.047-1.216-3.625-1.216h-5.598v12.16h2.206V9.842h2.764l3.087 4.238h2.601l-3.392-4.604c1.758-.486 2.997-1.685 2.997-3.682Zm4.872-3.839h-2.351v12.16h2.171V5.394l3.929 5.698h.071l3.967-5.732v8.72h2.208V1.92h-2.351l-3.823 5.75Zm19.053 10.405c-2.495 0-4.271-1.963-4.271-4.325v-.034c0-2.364 1.74-4.292 4.234-4.292 2.495 0 4.271 1.964 4.271 4.326v.034c0 2.363-1.74 4.291-4.234 4.291M86.482 8v.034c0 3.423 2.691 6.254 6.549 6.254S99.617 11.422 99.617 8v-.034c0-3.423-2.691-6.254-6.549-6.254S86.482 4.578 86.482 8"/></svg>