<svg xmlns="http://www.w3.org/2000/svg" width="121" height="20"><path fill="#fff" fill-rule="evenodd" d="M7.817 15.406c1.867 0 3.062-.76 4.364-1.975l1.716 1.737c-1.326 1.38-2.76 2.332-4.856 2.608V20H6.413v-2.247C2.663 17.145 0 13.963 0 10.043V10c0-3.86 2.582-7.093 6.413-7.74V0h2.628v2.208c2.106.241 3.514 1.12 4.747 2.299l-1.715 1.975c-1.216-1.129-2.519-1.888-4.256-1.888-2.91 0-5.016 2.388-5.016 5.363V10c0 2.975 2.106 5.406 5.016 5.406zm20.414-5.363V10c0-2.953-2.15-5.407-5.168-5.407-3.018 0-5.124 2.41-5.124 5.364V10c0 2.953 2.15 5.406 5.167 5.406 3.019 0 5.125-2.41 5.125-5.363zM23.106 2.14c4.669 0 7.926 3.539 7.926 7.817V10c0 4.277-3.301 7.86-7.97 7.86-4.667 0-7.924-3.539-7.924-7.817V10c0-4.277 3.3-7.86 7.968-7.86zM44.64 12.91V2.4h2.628v15.2H45.03L36.65 6.786V17.6h-2.627V2.4h2.475l8.142 10.51zm6.385 4.69V2.4h11.313v2.432h-8.642V8.98h7.665v2.432h-7.665V17.6h-2.67zm13.759 0V2.4h2.67v15.2h-2.67zm9.128-7.665h3.909c1.91 0 3.126-.999 3.126-2.54V7.35c0-1.629-1.172-2.519-3.148-2.519h-3.887v5.103zm9.75-2.693c0 2.497-1.499 3.996-3.627 4.603L84.14 17.6h-3.148l-3.735-5.298h-3.344V17.6h-2.67V2.4h6.774c1.91 0 3.409.565 4.386 1.52.803.825 1.26 1.955 1.26 3.279v.043zm10.52 2.345L98.807 2.4h2.845v15.2H98.98V6.7l-4.799 7.165h-.087L89.34 6.743V17.6h-2.627V2.4h2.845l4.624 7.187zm23.554.456V10c0-2.953-2.15-5.407-5.168-5.407-3.018 0-5.124 2.41-5.124 5.364V10c0 2.953 2.15 5.406 5.168 5.406 3.018 0 5.124-2.41 5.124-5.363zm-5.124-7.903c4.668 0 7.925 3.539 7.925 7.817V10c0 4.277-3.3 7.86-7.969 7.86-4.668 0-7.925-3.539-7.925-7.817V10c0-4.277 3.3-7.86 7.969-7.86z"/></svg>