<svg xmlns="http://www.w3.org/2000/svg" width="205" height="23" fill="none" viewBox="0 0 205 23"><path fill="#fff" d="M194.849 22.773c-6.238 0-9.998-2.765-10.059-7.453h6.42c.092 1.863 1.407 2.975 3.639 2.975 2.354 0 3.73-.841 3.73-2.254 0-3.967-13.789.992-13.789-8.836 0-4.027 3.699-6.432 9.937-6.432 6.267 0 9.998 2.946 10.059 7.965h-6.421c-.061-2.164-1.468-3.486-3.761-3.486-2.721 0-3.699.991-3.699 2.194 0 4.237 14.095.12 14.095 7.874 0 4.688-3.761 7.453-10.151 7.453M171.59 22.774c-6.482 0-10.304-3.787-10.304-10.159V1.345h6.421v11.27c0 2.765 1.437 4.448 3.883 4.448 2.416 0 3.853-1.683 3.853-4.448V1.345h6.42v11.27c0 6.372-3.821 10.159-10.273 10.159M148.208 22.773c-6.237 0-9.998-2.765-10.059-7.453h6.421c.092 1.863 1.406 2.975 3.638 2.975 2.355 0 3.731-.841 3.731-2.254 0-3.967-13.79.992-13.79-8.836 0-4.027 3.7-6.432 9.937-6.432 6.268 0 9.998 2.946 10.059 7.965h-6.42c-.062-2.164-1.468-3.486-3.761-3.486-2.721 0-3.7.991-3.7 2.194 0 4.237 14.095.12 14.095 7.874 0 4.688-3.76 7.453-10.151 7.453M114.645 10.992c0-6.372 3.822-10.129 10.304-10.129 6.451 0 10.273 3.757 10.273 10.129v11.3h-6.42v-11.3c0-2.765-1.438-4.418-3.853-4.418-2.446 0-3.883 1.653-3.883 4.418v11.3h-6.421zM92.915 1.255h18.559v4.478H99.335V9.52h11.466v4.478H99.335v3.817h12.383v4.478H92.915zM79.837 22.773c-6.237 0-9.998-2.765-10.06-7.453h6.421c.092 1.863 1.407 2.975 3.639 2.975 2.354 0 3.73-.841 3.73-2.254 0-3.967-13.79.992-13.79-8.836 0-4.027 3.7-6.432 9.938-6.432 6.267 0 9.998 2.946 10.059 7.965h-6.421c-.061-2.164-1.468-3.486-3.76-3.486-2.722 0-3.7.991-3.7 2.194 0 4.237 14.095.12 14.095 7.874 0 4.688-3.76 7.453-10.151 7.453M46.274 10.992C46.274 4.62 50.096.863 56.577.863c6.452 0 10.274 3.757 10.274 10.129v11.3H60.43v-11.3c0-2.765-1.437-4.418-3.853-4.418-2.446 0-3.883 1.653-3.883 4.418v11.3h-6.42zM33.227 22.773c-6.33 0-10.09-3.546-10.09-9.587V10.45c0-6.041 3.76-9.588 10.09-9.588 6.36 0 10.12 3.547 10.12 9.588v2.735c0 6.04-3.76 9.587-10.12 9.587m-3.67-9.587c0 2.705 1.377 4.297 3.67 4.297 2.324 0 3.7-1.592 3.7-4.297V10.45c0-2.705-1.376-4.298-3.7-4.298-2.293 0-3.67 1.593-3.67 4.298zM10.09 22.773C3.76 22.773 0 19.227 0 13.186V10.45C0 4.41 3.76.863 10.09.863c6.36 0 10.12 3.547 10.12 9.588h-6.42c0-2.705-1.376-4.298-3.7-4.298-2.293 0-3.67 1.593-3.67 4.298v2.735c0 2.705 1.377 4.297 3.67 4.297 2.324 0 3.7-1.592 3.7-4.297h6.42c0 6.04-3.76 9.587-10.12 9.587"/></svg>