<svg width="108" height="36" viewBox="0 0 108 36" fill="none" xmlns="http://www.w3.org/2000/svg">
<g clip-path="url(#clip0_10693_47686)">
<path fill-rule="evenodd" clip-rule="evenodd" d="M9.22139 35.9991L11.6375 25.8867H0.160964C0.160964 25.8867 -0.889305 29.9317 2.37574 33.3699C4.8724 35.9989 9.22139 35.9991 9.22139 35.9991Z" fill="#0770DC"/>
<path d="M9.22139 35.9991L11.6375 25.8867H0.160964C0.160964 25.8867 -0.889305 29.9317 2.37574 33.3699C4.8724 35.9989 9.22139 35.9991 9.22139 35.9991Z" fill="url(#paint0_linear_10693_47686)"/>
<path fill-rule="evenodd" clip-rule="evenodd" d="M12.9284 0H23.9186C30.5905 0 35.9992 5.43295 35.9992 12.1348V13.7528C35.9992 20.4547 30.5905 25.8876 23.9186 25.8876H11.6367H0.160156L1.83387 18.202H10.8728C13.5416 18.202 15.705 16.0288 15.705 13.3481C15.705 10.6673 13.5416 8.49414 10.8728 8.49414H3.94797L4.27396 6.99722C5.16363 2.91189 8.76517 0 12.9284 0Z" fill="url(#paint1_linear_10693_47686)"/>
<path d="M3.94398 8.49023H10.8719C13.5407 8.49023 15.7041 10.6634 15.7041 13.3442C15.7041 16.0249 13.5407 18.1981 10.8719 18.1981H1.83203L3.94398 8.49023Z" fill="white"/>
<path d="M11.2748 14.9664C12.1644 14.9664 12.8855 14.242 12.8855 13.3484C12.8855 12.4549 12.1644 11.7305 11.2748 11.7305C10.3852 11.7305 9.66406 12.4549 9.66406 13.3484C9.66406 14.242 10.3852 14.9664 11.2748 14.9664Z" fill="#2196F6"/>
<path d="M54.9525 26.3839C52.4565 26.3839 50.4165 25.5519 48.8325 23.8879C47.2645 22.2079 46.4805 20.0719 46.4805 17.4799C46.4805 14.8879 47.2565 12.7439 48.8085 11.0479C50.3605 9.35191 52.4005 8.50391 54.9285 8.50391C56.8805 8.50391 58.5125 9.00791 59.8245 10.0159C61.3125 11.1359 62.1685 12.7119 62.3925 14.7439H58.1445C58.0325 13.9599 57.6885 13.3119 57.1125 12.7999C56.5365 12.2879 55.8005 12.0319 54.9045 12.0319C53.5605 12.0319 52.5365 12.5359 51.8325 13.5439C51.1445 14.5359 50.8005 15.8479 50.8005 17.4799C50.8005 19.0799 51.1765 20.3839 51.9285 21.3919C52.6805 22.3999 53.6805 22.9039 54.9285 22.9039C55.8565 22.9039 56.6165 22.6399 57.2085 22.1119C57.8165 21.5839 58.1685 20.8959 58.2645 20.0479H62.5125C62.3845 21.7759 61.6965 23.2399 60.4485 24.4399C59.1045 25.7359 57.2725 26.3839 54.9525 26.3839Z" fill="#1A5AFD"/>
<path d="M64.0273 26V8.83997H71.7553C73.7713 8.83997 75.3313 9.36797 76.4353 10.424C77.5873 11.496 78.1633 12.904 78.1633 14.648C78.1633 16.312 77.6273 17.664 76.5553 18.704C75.4993 19.744 74.0993 20.264 72.3553 20.264H68.3473V26H64.0273ZM68.3473 16.904H71.4913C72.2433 16.904 72.8273 16.696 73.2433 16.28C73.6753 15.864 73.8913 15.312 73.8913 14.624C73.8913 13.936 73.6753 13.4 73.2433 13.016C72.8273 12.616 72.2433 12.416 71.4913 12.416H68.3473V16.904Z" fill="#1A5AFD"/>
<path d="M76.7969 26L82.9649 8.83997H87.3329L93.5249 26H89.0609L88.0529 22.904H82.0529L81.0689 26H76.7969ZM83.0369 19.856H87.0689L85.7729 15.704L85.1009 13.28H85.0529C84.7809 14.304 84.5489 15.112 84.3569 15.704L83.0369 19.856Z" fill="#1A5AFD"/>
<path d="M96.9955 26V19.664L91.1875 8.83997H95.8195L98.0275 13.28L99.1555 15.896H99.2035C99.6035 14.936 99.9955 14.064 100.38 13.28L102.564 8.83997H107.052L101.244 19.664V26H96.9955Z" fill="#1A5AFD"/>
</g>
<defs>
<linearGradient id="paint0_linear_10693_47686" x1="6.44297" y1="25.8867" x2="8.01488" y2="36.99" gradientUnits="userSpaceOnUse">
<stop stop-color="#1A5AFD"/>
<stop offset="1" stop-color="#5986F9"/>
</linearGradient>
<linearGradient id="paint1_linear_10693_47686" x1="35.8389" y1="-1.27347e-06" x2="11.2285" y2="33.9186" gradientUnits="userSpaceOnUse">
<stop stop-color="#5986F9"/>
<stop offset="1" stop-color="#1A5AFD"/>
</linearGradient>
<clipPath id="clip0_10693_47686">
<rect width="108" height="36" fill="white"/>
</clipPath>
</defs>
</svg>
