<svg xmlns="http://www.w3.org/2000/svg" fill="#FFFFFF" viewBox="0 0 275 22">
<path d="M87.288.144c-.888 0-1.73.402-2.288 1.097l-7.014 8.734a.893.893 0 0 1-1.394 0L69.578 1.24A2.932 2.932 0 0 0 67.29.144h-4.05L75.184 14.53v7.612h4.21V14.53L91.337.144h-4.048ZM178.459.144h-9.101c-6.126 0-9.641 4.007-9.641 10.999 0 6.992 3.518 10.998 9.641 10.998h9.101c6.126 0 9.641-4.006 9.641-10.998 0-6.992-3.508-10.999-9.641-10.999Zm-.414 17.993h-8.266c-3.611 0-5.37-2.287-5.37-6.994 0-6.092 2.916-7.375 5.37-7.375h8.266c2.447 0 5.37 1.278 5.37 7.375 0 4.709-1.751 6.994-5.37 6.994ZM274.88.144h-3.235c-1.428 0-2.798.6-3.769 1.656l-6.403 6.93a.953.953 0 0 1-.699.294.962.962 0 0 1-.7-.293l-6.175-6.692a5.872 5.872 0 0 0-4.315-1.895h-2.914l9.328 10.14c.445.48.445 1.23 0 1.71l-9.328 10.145h3.616a4.255 4.255 0 0 0 3.126-1.373l6.659-7.214a.964.964 0 0 1 .7-.292c.269 0 .529.104.7.292l6.762 7.324a3.918 3.918 0 0 0 2.877 1.263h3.77L265.551 12a1.262 1.262 0 0 1 0-1.71L274.88.144ZM156.181.144h-24.824c-1.353 0-2.634.63-3.459 1.7l-1.49 1.934h12.572v18.361h4.629V3.78h6.987c1.754 0 3.41-.812 4.477-2.202l1.103-1.432h.003l.002-.002ZM238.717.144h-4.629v21.995h4.629V.144ZM222.196 22.14V.145h-4.597v16.022L203.52 1.93a6.022 6.022 0 0 0-4.279-1.788h-3.156v21.993h4.567V5.417l15.237 15.174a5.312 5.312 0 0 0 3.75 1.549h2.559-.002ZM111.911.149H97.582v21.99h4.538V3.836h11.56c3.525 0 4.266 1.876 4.266 3.444v.102c0 1.27-.56 3.405-4.266 3.405h-4.502a4.359 4.359 0 0 0-3.444 1.687l-1.498 1.932h7.672c6.855 0 10.332-2.356 10.332-7.007v-.314c0-4.734-3.284-6.941-10.332-6.941v.005h.003ZM54.068 13.162l.377-.19c2.588-1.073 3.843-2.966 3.843-5.802v-.302c.003-4.585-3.18-6.722-10.02-6.722h-13.93v21.995h4.21V3.785h11.347c3.434 0 4.156 1.822 4.156 3.356v.012c0 1.236-.543 3.314-4.156 3.314h-4.05a4.886 4.886 0 0 0-3.926 1.976l-1.2 1.617h8.921l4.768 8.082h4.773l-5.12-8.98h.007ZM10.377 17.88c-2.535 0-5.12-1.035-5.12-6.74 0-5.703 2.588-6.83 5.12-6.83h10.53c2.054 0 4.002-.92 5.303-2.507l1.36-1.66H9.985C4.197.144.88 4.15.88 11.142s3.317 10.999 9.105 10.999h10.53a7.593 7.593 0 0 0 5.92-2.836l1.145-1.425H10.377v-.002Z"/>
</svg>
