<svg width="64" height="64" viewBox="0 0 64 64" fill="none" xmlns="http://www.w3.org/2000/svg">
<rect width="64" height="64" rx="12" fill="#FFFD53"/>
<path fill-rule="evenodd" clip-rule="evenodd" d="M33.238 49.4503L52.5673 28.0044C53.1341 27.3754 53.1453 26.4253 52.5934 25.7833L44.5873 16.4709C44.3303 16.172 43.9551 16 43.5602 16H20.4419C20.0471 16 19.6719 16.172 19.415 16.4707L11.4067 25.7831C10.8547 26.4251 10.8658 27.3755 11.4328 28.0045L30.7641 49.4504C31.4248 50.1832 32.5774 50.1832 33.238 49.4503ZM12.8662 27.2872L32.0861 48.8034L18.5698 27.254L12.8662 27.2872ZM32.0861 48.8034L26.3849 27.2872L37.7867 27.2541L32.0861 48.8034ZM32.0861 48.8034L45.5239 27.2872L51.2761 27.2541L32.0861 48.8034ZM45.5239 27.2872L40.7406 17.1229H34.3007L37.7867 27.2541L45.5239 27.2872ZM26.3849 27.254L29.871 17.1229H23.4271L18.5698 27.254H26.3849Z" fill="black"/>
</svg>
