<svg xmlns="http://www.w3.org/2000/svg" width="32" height="32"><g fill="none" fill-rule="evenodd"><circle cx="16" cy="16" r="16" fill="#5bc1d4"/><path fill="#fff" d="m13.785 16.928-1.65 1.724c-.297.31-.588.623-.886.931-.05.052-.121.083-.182.124-.13-.021-.23-.102-.247-.22a17 17 0 0 1-.074-.54c-.03-.238-.103-.304-.344-.334q-.745-.091-1.49-.19l-1.134-.147c-.226-.03-.308-.192-.19-.385q.409-.656.819-1.31l1.67-2.668c.066-.108.14-.182.282-.178.09.002.184-.02.273-.043.106-.026.189.006.263.076q.198.184.394.369l1.508 1.431q.489.461.978.922c.168.158.168.272.01.438m11.09 2.319c.094.078.196.152.216.285.025.17-.043.293-.187.386q-1.275.826-2.55 1.654l-1.643 1.065a1.3 1.3 0 0 0-.148.109.34.34 0 0 0-.125.282c.008.205.02.41.023.614.003.235-.17.382-.406.355a.33.33 0 0 1-.215-.123l-.592-.685q-.37-.43-.741-.859a.47.47 0 0 1-.135-.394l.034-1.195c.004-.14.087-.23.199-.302l1.358-.868c.76-.485 1.522-.968 2.28-1.458.16-.103.309-.134.485-.044.13.066.277.078.418.034.211-.067.373-.008.536.136.39.344.795.672 1.194 1.008zm-7.298.992a.47.47 0 0 1 .127.22c.037.187-.037.314-.213.399-.585.282-1.169.567-1.759.84-.106.048-.239.054-.36.06-.489.022-.978.035-1.467.055-.289.011-.577.029-.843.043h-.196a.33.33 0 0 1-.24-.095q-.094-.084-.187-.17c-.344-.327-.682-.66-1.033-.98-.196-.178-.199-.417-.012-.608q.63-.652 1.255-1.31.677-.709 1.352-1.42a.386.386 0 0 1 .562-.028l1.8 1.789c.404.402.812.8 1.214 1.205m2.478-8.049c-.193-.298.025-.71.346-.763.858-.143 1.713-.307 2.57-.456.189-.033.339.054.443.21q.269.405.535.812.566.855 1.125 1.712c.05.077.075.17.112.255l-.022.01a.66.66 0 0 1-.154.398c-.524.704-1.054 1.405-1.577 2.11a.49.49 0 0 1-.807-.055c-.765-1.27-1.538-2.536-2.308-3.803-.087-.144-.172-.29-.263-.43m-1.505 3.532-.15 1.335q-.065.554-.129 1.108l-.148 1.3c-.01.091-.011.184-.03.272-.01.043-.042.098-.078.112s-.1-.006-.132-.033q-.211-.187-.413-.382-.733-.697-1.467-1.391-.639-.604-1.281-1.203c-.142-.132-.143-.174-.006-.317l1.958-2.05 1.337-1.404.656-.69c.019-.02.035-.047.058-.055.047-.017.105-.04.146-.027.034.012.05.073.06.09l-.1.88-.129 1.131zm3.806 1.02c.064.103.074.201.004.308a.62.62 0 0 0-.092.404c.012.126-.04.203-.147.27q-1.254.798-2.504 1.6-.393.252-.787.501c-.104.066-.211.061-.268-.023-.032-.046-.036-.11-.045-.142l.11-.808.245-1.782.27-1.95.263-1.907.1-.71c.002-.019.003-.041.013-.055.026-.033.055-.082.088-.088.036-.006.092.022.115.053.061.082.11.173.164.261l1.955 3.216q.256.427.516.851zm-4.053-4.904c.031.02.091.041.123.084.049.066.006.128-.045.181l-.68.715-1.982 2.074q-.62.654-1.24 1.306c-.15.156-.27.156-.426.008q-.724-.688-1.45-1.375-.706-.666-1.414-1.33c-.063-.06-.113-.125-.106-.217.01-.125.082-.196.225-.22q.392-.07.785-.138l2.515-.44 2.97-.521zm-6.739.632q.699-.478 1.399-.953l4.51-3.072c.15-.102.245-.081.32.081q.466 1 .93 2 .059.13.119.26c.033.07.011.127-.031.19a1.3 1.3 0 0 0-.138.247c-.033.083-.083.128-.173.144q-.996.179-1.99.358l-2.354.423-2.57.462c-.036.006-.073 0-.11 0l-.022-.041c.037-.033.07-.071.11-.099m-4.69 1.526c-.294-.006-.469-.292-.328-.555.119-.222.251-.436.379-.653q.553-.942 1.104-1.885a.66.66 0 0 1 .25-.245q1.463-.843 2.926-1.687a.6.6 0 0 1 .201-.08.35.35 0 0 1 .354.144.36.36 0 0 1 .034.389c-.147.314-.3.625-.45.937q-.42.857-.837 1.716a.43.43 0 0 1-.3.256.69.69 0 0 0-.512.51.36.36 0 0 1-.249.259c-.802.282-1.603.57-2.404.855-.054.02-.111.026-.167.04zm4.153-1.826a.4.4 0 0 1 .034-.12l1.048-2.297c.218-.478.439-.955.654-1.434.05-.11.123-.165.247-.17.327-.01.654-.027.981-.04l1.93-.073c.226-.01.453-.025.68-.036.162-.007.273.091.274.25.007.097-.055.16-.135.215l-.618.421-3.694 2.513-1.18.804a.5.5 0 0 1-.088.054c-.07.03-.137-.012-.133-.087m-1.363 1.65q-.245.394-.492.786-.92 1.47-1.84 2.94a.4.4 0 0 1-.1.123c-.106.076-.247.023-.297-.11q-.119-.322-.233-.645l-.669-1.882c-.016-.047-.027-.095-.033-.118.001-.127.043-.181.162-.22q.534-.172 1.068-.341l2.015-.64.265-.082c.063-.02.126-.047.178.023.047.063.008.115-.024.166m16.118 2.609.202 1.156c.006.037.01.075.016.124-.01.05-.021.11-.037.168l-.265.956c-.076.275-.294.34-.514.154q-.677-.57-1.357-1.138c-.103-.086-.146-.185-.122-.321a.63.63 0 0 0-.046-.402c-.062-.123-.042-.232.039-.34q.554-.745 1.106-1.49l.225-.304c.075-.103.174-.153.3-.125.132.03.2.12.222.249zm-7.564-7.944-.02-.042c-.027-.06-.038-.13.023-.164a.24.24 0 0 1 .17-.01c.088.027.167.077.25.118l3.362 1.679.597.3c.067.033.12.072.106.156-.014.083-.077.101-.15.114q-1.212.217-2.422.435l-.079.016c-.023-.015-.067-.032-.095-.064a.8.8 0 0 0-.597-.303c-.09-.004-.136-.057-.17-.132q-.214-.461-.43-.921z"/></g></svg>