<svg width="254" height="60" viewBox="0 0 254 60" fill="none" xmlns="http://www.w3.org/2000/svg">
<g clip-path="url(#clip0_939_772)">
<path d="M66.1123 22.8672C67.5301 22.8672 68.8339 23.1939 70.0343 23.8526C71.2349 24.5112 72.1856 25.4046 72.8863 26.533C73.5871 27.6612 73.9347 28.8916 73.9347 30.2191C73.9347 31.0156 73.8044 31.7916 73.5436 32.5421C73.2829 33.2926 72.9081 33.9665 72.4246 34.569C71.9411 35.1714 71.3761 35.7024 70.7351 36.1568C70.0941 36.6113 69.377 36.9635 68.5785 37.2085C67.7799 37.4537 66.9597 37.5761 66.1069 37.5761H62.7986V35.0336H66.1069C66.6556 35.0336 67.1933 34.9519 67.7148 34.7937C68.2362 34.6303 68.7034 34.4006 69.1217 34.0993C69.5401 33.7981 69.9094 33.4509 70.23 33.0578C70.5504 32.6647 70.7949 32.2256 70.9687 31.7354C71.1372 31.2453 71.224 30.7399 71.224 30.2242C71.224 28.8916 70.7242 27.7583 69.7248 26.8188C68.7252 25.8795 67.5193 25.4097 66.1014 25.4097H62.7932V22.8672H66.1014H66.1123Z" fill="#FFFFFF"/>
<path d="M89.6668 25.4097H78.6502V22.8672H89.6668V25.4097ZM87.809 31.5006H78.6448V28.9377H87.809V31.5006ZM89.6668 37.571H78.6502V35.0285H89.6668V37.571Z" fill="#FFFFFF"/>
<path d="M97.0869 35.0285H105.404V37.571H94.3872V22.8672H97.0924V35.0285H97.0869Z" fill="#FFFFFF"/>
<path d="M116.556 22.8672C117.822 22.8672 118.903 23.2859 119.799 24.1282C120.695 24.9706 121.141 25.9815 121.141 27.1762C121.141 28.3709 120.695 29.3818 119.799 30.2242C118.903 31.0666 117.827 31.4853 116.556 31.4853H112.825V37.5761H110.119V28.9428H116.556C117.077 28.9428 117.523 28.7692 117.887 28.4271C118.251 28.0851 118.436 27.6663 118.436 27.1762C118.436 26.6861 118.251 26.2675 117.887 25.9254C117.523 25.5833 117.077 25.4097 116.556 25.4097H110.119V22.8672H116.556Z" fill="#FFFFFF"/>
<path d="M135.107 22.8672H137.812V37.571H135.107V31.5006H128.562V37.571H125.856V22.8672H128.562V28.9377H135.107V22.8672Z" fill="#FFFFFF"/>
<path d="M145.233 37.571H142.527V22.8672H145.233V37.571Z" fill="#FFFFFF"/>
<path d="M162.415 22.8672C163.833 22.8672 165.137 23.1939 166.337 23.8526C167.538 24.5112 168.489 25.4046 169.19 26.533C169.89 27.6612 170.238 28.8916 170.238 30.2191C170.238 31.0156 170.107 31.7916 169.846 32.5421C169.586 33.2926 169.211 33.9665 168.727 34.569C168.244 35.1714 167.679 35.7024 167.038 36.1568C166.397 36.6113 165.68 36.9635 164.882 37.2085C164.083 37.4537 163.262 37.5761 162.41 37.5761H159.102V35.0336H162.41C162.958 35.0336 163.496 34.9519 164.018 34.7937C164.539 34.6303 165.007 34.4006 165.425 34.0993C165.843 33.7981 166.213 33.4509 166.533 33.0578C166.854 32.6647 167.098 32.2256 167.272 31.7354C167.44 31.2453 167.527 30.7399 167.527 30.2242C167.527 28.8916 167.027 27.7583 166.027 26.8188C165.028 25.8795 163.822 25.4097 162.405 25.4097H159.096V22.8672H162.405H162.415Z" fill="#FFFFFF"/>
<path d="M177.658 37.571H174.953V22.8672H177.658V37.571Z" fill="#FFFFFF"/>
<path d="M198.024 28.9581V30.2191C198.024 31.5517 197.676 32.777 196.975 33.9053C196.274 35.0336 195.324 35.9271 194.124 36.5856C192.922 37.2443 191.614 37.571 190.201 37.571C188.789 37.571 187.48 37.2443 186.279 36.5856C185.078 35.9271 184.128 35.0336 183.427 33.9053C182.726 32.777 182.379 31.5517 182.379 30.2191C182.379 28.8865 182.726 27.6612 183.427 26.533C184.128 25.4046 185.078 24.5112 186.279 23.8526C187.48 23.1939 188.783 22.8672 190.201 22.8672C190.738 22.8672 191.261 22.9182 191.777 23.0153C192.292 23.1123 192.782 23.2552 193.254 23.4441C193.721 23.6331 194.167 23.8628 194.585 24.1282C195.003 24.3937 195.384 24.695 195.725 25.032L193.824 26.8188C192.825 25.8795 191.619 25.4097 190.201 25.4097C188.783 25.4097 187.577 25.8795 186.578 26.8188C185.579 27.7583 185.078 28.8916 185.078 30.2242C185.078 31.5568 185.579 32.6902 186.578 33.6296C187.577 34.569 188.783 35.0387 190.201 35.0387C191.364 35.0387 192.396 34.7068 193.308 34.0432C194.216 33.3795 194.818 32.5319 195.117 31.5108H192.412V28.9683H198.024V28.9581Z" fill="#FFFFFF"/>
<path d="M205.422 37.571H202.716V22.8672H205.422V37.571Z" fill="#FFFFFF"/>
<path d="M210.138 22.8672H221.154V25.4097H216.998V37.571H214.293V25.4097H210.138V22.8672Z" fill="#FFFFFF"/>
<path d="M231.996 22.8672L237.695 37.571H234.81L230.541 26.584L226.293 37.571H223.408L229.107 22.8672H231.991H231.996Z" fill="#FFFFFF"/>
<path d="M245.093 35.0285H253.411V37.571H242.394V22.8672H245.099V35.0285H245.093Z" fill="#FFFFFF"/>
<path d="M29.4662 12.5082C28.9661 12.7328 28.4556 13.0034 27.93 13.3353C27.6901 13.4782 27.4656 13.6263 27.2461 13.7743C26.9041 13.1055 25.4293 10.5528 22.9284 10.5528H22.9131C22.1884 10.5987 18.8966 11.0429 17.9217 15.4234L17.9115 15.4591C17.7993 15.9135 17.7176 16.3985 17.6308 16.9091C17.391 18.3131 17.1205 19.901 16.0691 21.4071C14.6656 23.4493 12.4863 24.3478 11.1134 24.7256C10.9144 24.4295 10.7154 24.1487 10.5214 23.873C10.2356 23.4697 9.96514 23.0867 9.73037 22.6987L9.70996 22.663C9.66402 22.5916 9.62319 22.52 9.58236 22.4486C9.76099 22.4231 12.5476 22.0197 13.9715 19.9469C14.7014 18.9054 14.9054 17.726 15.1147 16.4802C15.2066 15.9493 15.2984 15.403 15.4363 14.8567C16.5131 10.0269 20.0806 8.14806 22.806 8H22.857C22.857 8 22.9029 8 22.9284 8C26.746 8 28.8384 11.3237 29.4611 12.5082H29.4662ZM7.66849 25.8999C8.39831 26.9312 9.09241 27.9064 9.31187 29.1623C9.7661 31.6385 8.08699 33.89 7.97471 34.0381C8.05638 34.0585 8.13293 34.0789 8.21969 34.0993L8.25542 34.1095C8.69433 34.2219 9.15366 34.2984 9.63851 34.3802C9.97024 34.4363 10.3173 34.4975 10.6694 34.564C11.3686 33.3232 12.2719 31.1484 11.8228 28.713C11.5064 26.9006 10.5725 25.5884 9.75079 24.4295C9.44967 24.0058 9.16896 23.6075 8.92909 23.2042L8.90868 23.1736C6.49976 19.3904 8.5157 16.7406 8.99544 16.1994C10.7613 14.4176 13.6245 15.1834 14.339 15.4132C14.39 15.1528 14.4461 14.8873 14.5125 14.6218C14.6452 14.0194 14.8187 13.4629 15.0127 12.9523C13.7265 12.5541 9.85796 11.676 7.15302 14.438L7.1173 14.4789C5.29019 16.5109 4.10104 20.3604 6.74473 24.5316C7.03564 25.0116 7.35717 25.4659 7.66849 25.905V25.8999ZM13.9868 36.8818C12.4812 35.825 10.894 35.5543 9.4905 35.3195C8.98014 35.2328 8.50039 35.151 8.04106 35.0387L8.00533 35.0285C3.62639 34.0534 3.18238 30.7603 3.13645 30.0353C3.12624 27.5234 5.68828 26.0429 6.35685 25.7008C6.20885 25.4812 6.06085 25.2566 5.91794 25.0167C5.5862 24.4908 5.31571 23.9803 5.09114 23.4799C3.9071 24.1129 0.548895 26.2267 0.589725 30.0915V30.1426C0.73773 32.8689 2.61587 36.4377 7.43883 37.5149C7.98492 37.6528 8.53101 37.7446 9.0618 37.8366C10.3071 38.051 11.486 38.2501 12.5272 38.9802C14.5992 40.4046 15.0025 43.1922 15.028 43.3709C15.0994 43.3301 15.1709 43.2893 15.2423 43.2433L15.278 43.2228C15.6659 42.988 16.0487 42.7225 16.4519 42.4366C16.7275 42.2426 17.0133 42.0435 17.3043 41.8443C16.9215 40.471 16.0232 38.291 13.9868 36.8869V36.8818ZM21.2953 41.1296C19.4834 41.4461 18.1718 42.3804 17.0133 43.2024C16.5897 43.5037 16.1916 43.7845 15.7885 44.0244L15.7577 44.0448C11.976 46.4546 9.32719 44.438 8.78619 43.9581C7.00502 42.1915 7.77057 39.3274 8.00023 38.6125C7.73994 38.5615 7.47455 38.5054 7.20917 38.439C6.60694 38.3063 6.05063 38.1327 5.54027 37.9386C5.14219 39.2253 4.26436 43.0953 7.02544 45.8012L7.06626 45.8369C8.25031 46.8988 10.0468 47.7514 12.1699 47.7514C13.6908 47.7514 15.375 47.3174 17.1205 46.2096C17.6002 45.9185 18.0544 45.5969 18.4934 45.2854C19.5243 44.5554 20.4991 43.861 21.7546 43.6415C24.2299 43.1871 26.4805 44.8668 26.6286 44.9792C26.649 44.8974 26.6694 44.8209 26.6898 44.7341L26.7 44.6983C26.8123 44.2541 26.8888 43.7947 26.9706 43.2995C27.0267 42.9676 27.0828 42.6306 27.1542 42.2835C25.9141 41.584 23.7399 40.6804 21.3055 41.1296H21.2953ZM35.8203 37.7038L35.7999 37.6681C35.5702 37.2801 35.2946 36.8971 35.0088 36.4938C34.8148 36.2181 34.6157 35.9373 34.4168 35.6412C33.0438 36.0241 30.8646 36.9226 29.4611 38.9597C28.4046 40.4659 28.1342 42.0537 27.8994 43.4577C27.8126 43.9683 27.731 44.4482 27.6186 44.9076L27.6084 44.9434C26.6337 49.3239 23.3418 49.7681 22.6171 49.8141C20.1112 49.8294 18.626 47.2562 18.2841 46.5925C18.0646 46.7405 17.835 46.8886 17.6002 47.0316C17.0949 47.3533 16.5795 47.6238 16.064 47.8536C16.6867 49.0329 18.7791 52.3668 22.6018 52.3668C22.6273 52.3668 22.6477 52.3668 22.6732 52.3668H22.7243C25.4497 52.2187 29.012 50.3399 30.094 45.5152C30.2317 44.969 30.3236 44.4226 30.4155 43.8916C30.6298 42.6459 30.8289 41.4666 31.5588 40.425C32.9877 38.3522 35.7692 37.9489 35.9478 37.9233C35.907 37.8519 35.8662 37.7804 35.8203 37.7089V37.7038ZM38.7905 35.8352C38.4997 35.3552 38.1782 34.9009 37.8668 34.4618C37.137 33.4305 36.4429 32.4553 36.2235 31.1994C35.7641 28.7232 37.4483 26.4717 37.5606 26.3236C37.479 26.3032 37.4024 26.2828 37.3157 26.2624L37.2799 26.2522C36.841 26.1398 36.3816 26.0633 35.8968 25.9815C35.5651 25.9254 35.218 25.8642 34.8659 25.7977C34.1666 27.0385 33.2633 29.2133 33.7124 31.6487C34.0289 33.4611 34.9628 34.7733 35.7846 35.9322C36.0856 36.3559 36.3663 36.7542 36.6063 37.1575L36.6267 37.1882C39.0356 40.9713 37.0196 43.6211 36.5399 44.1623C34.774 45.9441 31.9108 45.1783 31.1964 44.9486C31.1453 45.2089 31.0891 45.4744 31.0228 45.7399C30.8901 46.3424 30.7166 46.8988 30.5227 47.4094C31.0993 47.5881 32.1966 47.8638 33.4726 47.8638C35.0445 47.8638 36.8869 47.4502 38.3772 45.9236L38.4129 45.8828C40.24 43.8508 41.4291 40.0013 38.7854 35.8301L38.7905 35.8352ZM44.9404 30.214C44.7976 27.4877 42.9143 23.9189 38.0965 22.8417C37.5504 22.7038 37.0043 22.612 36.4735 22.52C35.2282 22.3056 34.0493 22.1065 33.0081 21.3764C30.9361 19.952 30.5329 17.1644 30.5074 16.9857C30.4359 17.0265 30.3644 17.0674 30.293 17.1133L30.2624 17.1337C29.8694 17.3686 29.4866 17.6392 29.0834 17.9302C28.8129 18.1242 28.5272 18.3233 28.2362 18.5173C28.619 19.8907 29.5172 22.0707 31.5536 23.4748C33.0591 24.5316 34.6465 24.8022 36.0499 25.0371C36.5603 25.1238 37.0401 25.2056 37.4994 25.3178L37.5351 25.3281C41.914 26.3032 42.3581 29.5963 42.404 30.3213C42.4142 32.8332 39.8521 34.3137 39.1835 34.6558C39.3316 34.8753 39.4796 35.1 39.6225 35.3399C39.9542 35.8658 40.2247 36.3763 40.4493 36.8767C41.6385 36.2488 44.9966 34.1299 44.9558 30.2703V30.2191L44.9404 30.214ZM36.7491 16.3985C38.5303 18.1651 37.7648 21.0292 37.5351 21.7441C37.7954 21.7951 38.0607 21.8512 38.3261 21.9176C38.9284 22.0503 39.4847 22.2239 39.995 22.4179C40.3932 21.1314 41.271 17.2614 38.5099 14.5555L38.4691 14.5197C36.4378 12.692 32.5896 11.5024 28.4199 14.147C27.9402 14.438 27.486 14.7597 27.0471 15.0711C26.0161 15.8012 25.0414 16.4956 23.7858 16.7151C21.3157 17.1695 19.0598 15.4898 18.9119 15.3774C18.8915 15.4591 18.8711 15.5357 18.8507 15.6225L18.8403 15.6583C18.7281 16.1024 18.6516 16.5619 18.5699 17.0572C18.5138 17.389 18.4576 17.726 18.3861 18.0732C19.6264 18.7726 21.8005 19.6813 24.235 19.227C26.0416 18.9105 27.3584 17.9762 28.517 17.1542C28.9406 16.8529 29.3386 16.5721 29.7418 16.3322L29.7724 16.3118C33.5543 13.902 36.2031 15.9186 36.744 16.3985H36.7491Z" fill="#FFFFFF"/>
</g>
<defs>
<clipPath id="clip0_939_772">
<rect width="254" height="44.3668" fill="#001100" transform="translate(0 8)"/>
</clipPath>
</defs>
</svg>
