<svg xmlns="http://www.w3.org/2000/svg" width="32" height="32" viewBox="0 0 32 32"><g fill="none" fill-rule="evenodd"><circle cx="16" cy="16" r="16" fill="#136485"/><path fill="#fff" d="M10.436 31.006a16 16 0 0 1-5.604-3.548l.147-.257c2.388-3.773 4.533-7.678 6.148-11.85 1.713-4.425 3.084-8.967 4.39-13.527.117-.407.256-.807.384-1.21.138.158.188.305.23.454.82 2.926 1.613 5.86 2.464 8.776 1.55 5.313 3.73 10.353 6.617 15.077q.505.826 1.72 2.762a16 16 0 0 1-6.035 3.554 4320 4320 0 0 0-5.002-15.17l-.154-.002q-1.749 4.915-5.305 14.941M16.075.049h-.124L16 0z"/></g></svg>