<svg xmlns="http://www.w3.org/2000/svg" width="1500" height="1500" fill="none" viewBox="0 0 1500 1500"><path fill="#000" d="M1500 750c0 414.21-335.79 750-750 750-414.214 0-750-335.79-750-750C0 335.786 335.786 0 750 0c414.21 0 750 335.786 750 750"/><path stroke="url(#a)" d="M1500 750c0 414.21-335.79 750-750 750-414.214 0-750-335.79-750-750C0 335.786 335.786 0 750 0c414.21 0 750 335.786 750 750Z"/><path fill="url(#b)" d="M750.325 110 110 749.327 750.711 1389 1390 750.181zM1240 717.847l-156.1 18.108a97.26 97.26 0 0 0-47.81-36.711 97.3 97.3 0 0 0-60.269-1.497L846.638 568.573a99 99 0 0 0 .895-12.58 97.42 97.42 0 0 0-55.109-87.715V270.37zM708.633 270.37v197.318a97.56 97.56 0 0 0-40.918 35.948 97.5 97.5 0 0 0-15.268 52.275 95 95 0 0 0 1.057 13.495L525.012 697.869a97.6 97.6 0 0 0-60.609 1.161 97.57 97.57 0 0 0-48.226 36.721l-155.121-17.945zM284.819 804.911l117.901 13.678a97.55 97.55 0 0 0 35.096 50.592 97.58 97.58 0 0 0 58.412 19.502h.163l113.835 241.687zm465.71 426.439L572.193 852.549a97.195 97.195 0 0 0 14.616-97.978l114.323-114.298a96.924 96.924 0 0 0 98.387-.406l113.937 113.931a97.53 97.53 0 0 0 15.022 99.584zm140.058-100.98 113.833-241.727a97.57 97.57 0 0 0 57.85-19.697 97.56 97.56 0 0 0 34.79-50.235l119.08-13.8z"/><defs><linearGradient id="a" x1="750" x2="750" y1="1496.02" y2="13.133" gradientUnits="userSpaceOnUse"><stop stop-color="#00b1ff"/><stop offset=".93" stop-color="#00f5e4"/></linearGradient><linearGradient id="b" x1="750" x2="750" y1="1385.61" y2="121.198" gradientUnits="userSpaceOnUse"><stop stop-color="#00b1ff"/><stop offset=".93" stop-color="#00f5e4"/></linearGradient></defs></svg>