<svg xmlns="http://www.w3.org/2000/svg" fill="#36364c" viewBox="0 0 162 38"><title>Devcon logo</title><path d="M42.535 12.037h6.617c5.046 0 8.478 3.185 8.478 7.85s-3.432 7.85-8.479 7.85h-6.616zm6.482 13.749c3.88 0 6.37-2.378 6.37-5.9 0-3.52-2.49-5.898-6.37-5.898h-4.24v11.797zM76.942 25.786v1.95H65.55v-15.7h11.08v1.952h-8.837v4.822h7.872v1.906h-7.872v5.069h9.15M98.475 12.037l-6.885 15.7h-2.22l-6.91-15.7h2.423l5.652 12.897 5.697-12.897zM103.523 19.887c0-4.643 3.544-8.03 8.322-8.03 2.422 0 4.53.83 5.966 2.445l-1.458 1.413c-1.211-1.278-2.691-1.862-4.418-1.862-3.544 0-6.169 2.557-6.169 6.034s2.625 6.034 6.169 6.034c1.727 0 3.207-.606 4.418-1.884l1.458 1.413c-1.435 1.614-3.544 2.467-5.989 2.467-4.755 0-8.299-3.387-8.299-8.03M123.891 19.887c0-4.598 3.544-8.03 8.366-8.03 4.777 0 8.321 3.409 8.321 8.03s-3.543 8.03-8.321 8.03c-4.822 0-8.366-3.432-8.366-8.03m14.444 0c0-3.477-2.602-6.034-6.078-6.034-3.521 0-6.123 2.557-6.123 6.034s2.602 6.034 6.123 6.034c3.476 0 6.078-2.558 6.078-6.034M161.998 12.037v15.7h-1.839l-9.42-11.708v11.708h-2.243v-15.7h1.839l9.42 11.707V12.037zM22 19.091 10.997 0 0 19.091l11.003 7.004zm-10.204-6.394V4.59l6.95 12.057zm7.6 6.157-7.6 4.84v-9.158zm-9.198-6.157-6.942 3.945L10.198 4.59zm0 1.84v9.15L2.6 18.853z"/><path d="M10.997 28.358.005 21.354l10.99 16.064L22 21.354zm-.86 1.348.06.039v3.674L5.74 26.904zm6.126-2.805-4.467 6.521v-3.678l.06-.038z"/></svg>