<svg xmlns="http://www.w3.org/2000/svg" xmlns:xlink="http://www.w3.org/1999/xlink" xml:space="preserve" id="Layer_1" x="0" y="0" viewBox="0 0 1920 1920"><style>.st2{fill:#242d49}.st4{fill:#88ca34}.st5{fill:#050e2d}.st6{fill:#d9e021}.st7{fill:#fff}</style><circle cx="960" cy="960" r="960" style="fill:#b8df85"/><path d="M960 1746.2c-106.1 0-209.1-20.8-306-61.8-93.6-39.6-177.7-96.3-249.9-168.5S275.2 1359.6 235.6 1266c-41-96.9-61.8-199.9-61.8-306s20.8-209.1 61.8-306c39.6-93.6 96.3-177.7 168.5-249.9S560.4 275.2 654 235.6c96.9-41 199.9-61.8 306-61.8s209.1 20.8 306 61.8c93.6 39.6 177.7 96.3 249.9 168.5s128.9 156.3 168.5 249.9c41 96.9 61.8 199.9 61.8 306s-20.8 209.1-61.8 306c-39.6 93.6-96.3 177.7-168.5 249.9s-156.3 128.9-249.9 168.5c-96.9 41-199.9 61.8-306 61.8" class="st2"/><path d="M960 180.2c430.7 0 779.8 349.1 779.8 779.8s-349.1 779.8-779.8 779.8S180.2 1390.7 180.2 960 529.3 180.2 960 180.2m0-12.8c-53.8 0-107.5 5.4-159.7 16.1-50.9 10.4-101 25.9-148.8 46.2-47 19.9-92.3 44.5-134.6 73.1-42 28.4-81.4 60.9-117.3 96.8s-68.4 75.3-96.8 117.3c-28.6 42.4-53.2 87.7-73.1 134.6-20.2 47.8-35.8 97.9-46.2 148.8-10.7 52.2-16.1 106-16.1 159.7s5.4 107.5 16.1 159.7c10.4 50.9 25.9 100.9 46.2 148.8 19.9 47 44.4 92.3 73.1 134.6 28.4 42 60.9 81.4 96.8 117.3s75.3 68.4 117.3 96.8c42.4 28.6 87.7 53.2 134.6 73.1 47.8 20.2 97.9 35.8 148.8 46.2 52.2 10.7 106 16.1 159.7 16.1s107.5-5.4 159.7-16.1c50.9-10.4 100.9-25.9 148.8-46.2 47-19.9 92.3-44.4 134.6-73.1 42-28.3 81.4-60.9 117.3-96.8s68.4-75.3 96.8-117.3c28.6-42.4 53.2-87.7 73.1-134.6 20.2-47.8 35.8-97.9 46.2-148.8 10.7-52.2 16.1-106 16.1-159.7s-5.4-107.5-16.1-159.7c-10.4-50.9-25.9-101-46.2-148.8-19.9-47-44.4-92.3-73.1-134.6-28.3-42-60.9-81.4-96.8-117.3s-75.3-68.4-117.3-96.8c-42.4-28.6-87.7-53.2-134.6-73.1-47.8-20.2-97.9-35.8-148.8-46.2-52.2-10.6-105.9-16.1-159.7-16.1" class="st2"/><defs><path id="SVGID_1_" d="M1739.8 960c0 430.7-349.1 779.8-779.8 779.8S180.2 1390.7 180.2 960 433.7 0 960 0c525.9 0 779.8 529.3 779.8 960"/></defs><clipPath id="SVGID_2_"><use xlink:href="#SVGID_1_" style="overflow:visible"/></clipPath><g style="clip-path:url(#SVGID_2_)"><path d="M479.9 493.7c10.3-15.6 25.8-37.8 37.2-52.3 38-48 73.2-83 107.6-106.9 30.1-21 54.7-30.2 76.8-37 57.5-17.8 132.9-17.6 220.2-17.4h76.8c87.3-.2 162.7-.3 220.2 17.4 22.1 6.8 46.6 16 76.8 37 34.4 24 69.6 58.9 107.6 106.9 11.4 14.4 26.9 36.7 37.2 52.3 2.7 4.1 5.4 8.5 8.3 13.2.6 1 1.3 2 1.9 3-8.8-48.7-21-92.9-36.2-131.6-11.2-28.6-27.1-57.9-48.5-89.5l-1.2-1.7 1.4-1.5c6.6-7.3 11-17.1 12.8-28.5 1.4-9.4 1.1-19.6-.9-32.2-2.5-15-6.4-26.2-12.4-35.1-11.9-17.7-24.6-29.1-42.5-37.9-10.2-5-22.2-7.6-36.6-7.6-8.2 0-17.2.8-27 2.5-21.3 3.6-41.4 12.4-58.3 25.6l-1.8 1.4-1.6-1.6c-35.4-35.4-64.2-50.8-110.1-59-38.4-6.8-85.4-9.6-127.3-7.9-42-1.6-88.9 1.1-127.3 7.9-45.9 8.1-74.7 23.6-110.1 59l-1.6 1.6-1.8-1.4c-16.8-13.1-37-21.9-58.3-25.6-9.8-1.6-18.7-2.5-27-2.5-14.3 0-26.4 2.5-36.6 7.6-17.8 8.9-30.5 20.2-42.5 37.9-6 8.9-10 20.1-12.5 35.1-2.1 12.6-2.4 22.8-1 32.2 1.7 11.4 6.1 21.2 12.8 28.5l1.4 1.5-1.2 1.7c-21.4 31.6-37.3 60.9-48.5 89.5-15.2 38.7-27.4 83-36.2 131.6.6-1 1.3-2 1.9-3 2.6-4.7 5.4-9.1 8.1-13.2M1328.6 1242.7c-104 42.3-218.8 63.9-341 64.4h-4.2c-7.8 0-15.6-.1-23.3-.3-7.7.2-15.5.3-23.3.3h-4.2c-122.3-.4-237-22.1-341-64.4-17.8-7.2-39.1-16.8-60.1-29.8-28.8.7-57.4 2.4-81.5 17.8-21.5 13.7-36.3 36.6-41.9 61.4-5.7 24.8-2.6 51.2 6.7 74.8 2.1 5.4 4.8 10.9 9.8 13.8 2.4 1.3 4.9 1.9 7.5 1.9 5.5 0 11.1-2.5 15.6-5.9 6-4.6 10.8-10.6 16.8-15.2 2.8-3.1 4.8-5.9 6.1-9.5l.1-.2c.9-2.5 2.3-6.2-.4-12.5l-6.4-15.1 14.9 6.9c.8.4 1.6.7 2.2 1.1 3 1.5 3.5 1.7 8 1.2 6.6-.8 13.2-3.9 19.6-6.8 4.3-2 8.7-4 11.4-7.2 2-2.4 2.7-5.7 1.6-7.5l-8.4-12.6 14.9 2.9c12 2.4 24.9-.2 35.5-7 10.4-6.7 18.1-17.4 21.3-29.4.9-3.4 4.3-5.4 7.7-4.5s5.4 4.3 4.5 7.7c-3.9 15-13.7 28.4-26.6 36.8-10.6 6.9-23.2 10.3-35.7 9.8-.4 4.2-2.1 8.4-5.1 11.9-4.5 5.3-10.7 8.1-15.7 10.4-6.9 3.2-14.7 6.8-23.3 7.8-2.4.3-4.4.4-6.1.3 0 4.7-1.3 8.1-2 10l-.1.2c-1.7 4.6-4.1 8.3-7.1 11.8 17.3 13.9 38.6 24.1 60.6 30.8 26.2 8 53.5 11.4 80.8 13-4.2 38.1-6.4 77.3-5.2 116.3-32.7 34.1-54.7 77.6-60.9 123.4-3.6 26.2-1.8 53.3 6.7 78.4s24 48 45.1 63.9c7.4 5.6 16.4 10.4 25.4 10.4 1.8 0 3.7-.2 5.5-.6 9.8-2.3 16.8-10.6 23.1-18.5 1.2 12.5 8.4 25 19.4 31.8 3.8 2.3 8.1 4 12.5 4 .6 0 1.1 0 1.7-.1 5.5-.6 10.4-4 13.9-8.3s5.8-9.4 8.2-14.4c.1 5.6 1.2 11.3 4.1 16.1s7.5 8.7 13 9.8c1 .2 2 .3 3.1.3 4.6 0 9.2-2 11.9-5.7 2.7-3.8 3.2-8.7 3.5-13.4 4.3 8.7 12 15.6 21 19 3.1 1.2 6.5 1.9 9.8 1.9 2.5 0 4.9-.4 7.2-1.4 4.8-2 8.4-6.2 11.1-10.7 9.3-15.5 8.9-34.3 8.9-52.4 17.4 6 35.6 10 53.3 13.2 27.8 5.1 56.4 7.6 85 7.6q8.1 0 16.2-.3 8.1.3 16.2.3c28.6 0 57.2-2.5 85-7.6 17.7-3.2 35.9-7.2 53.3-13.2 0 18.1-.4 36.9 8.9 52.4 2.7 4.5 6.3 8.7 11.1 10.7 2.3.9 4.7 1.4 7.2 1.4 3.3 0 6.7-.8 9.8-1.9 9.1-3.4 16.7-10.3 21-19 .3 4.7.7 9.6 3.4 13.4 2.7 3.7 7.3 5.7 11.9 5.7 1 0 2.1-.1 3.1-.3 5.5-1.1 10.2-5 13-9.8s4-10.5 4.1-16.1c2.3 5.1 4.6 10.2 8.2 14.4 3.5 4.3 8.4 7.7 13.9 8.3.6.1 1.1.1 1.7.1 4.4 0 8.7-1.7 12.4-4 11-6.8 18.2-19.2 19.4-31.8 6.3 7.8 13.3 16.2 23.1 18.5 1.8.4 3.7.6 5.5.6 9.1 0 18-4.8 25.4-10.4 21.2-15.9 36.6-38.9 45.1-63.9s10.2-52.2 6.7-78.4c-6.2-45.8-28.3-89.3-60.9-123.4 1.2-39.1-1-78.3-5.2-116.3 27.3-1.6 54.6-5 80.8-13 22.1-6.7 43.3-16.9 60.6-30.8-3-3.5-5.4-7.2-7.1-11.8l-.1-.2c-.7-1.9-2-5.3-2-10-1.7.1-3.7 0-6.1-.3-8.6-1.1-16.4-4.7-23.3-7.8-5-2.3-11.2-5.2-15.7-10.4-3-3.5-4.8-7.8-5.1-11.9-12.4.5-25.1-2.9-35.7-9.8-13-8.4-22.7-21.8-26.6-36.8-.9-3.4 1.1-6.8 4.5-7.7s6.8 1.1 7.7 4.5c3.2 12 10.9 22.7 21.3 29.4 10.5 6.8 23.4 9.3 35.4 7l14.9-2.9-8.4 12.6c-1.2 1.7-.4 5.1 1.6 7.5 2.7 3.2 7.1 5.2 11.4 7.2 6.4 2.9 12.9 6 19.6 6.8 4.5.6 5 .3 8-1.2.7-.3 1.4-.7 2.2-1.1l14.9-6.9-6.4 15.1c-2.7 6.3-1.3 10-.4 12.5l.1.2c1.3 3.6 3.3 6.4 6.1 9.5 6 4.6 10.8 10.6 16.8 15.2 4.4 3.4 10.2 5.9 15.6 5.9 2.6 0 5.2-.6 7.6-1.9 5-2.9 7.7-8.4 9.8-13.8 9.3-23.7 12.4-50.1 6.7-74.8-5.7-24.8-20.5-47.8-41.9-61.4-24.1-15.3-52.7-17.1-81.5-17.8-21.2 13.1-42.6 22.6-60.3 29.8" class="st4"/><path d="M1526.9 700.1c-13.3-59.3-35-113.7-64.5-161.9-30.2-49.3-64.2-96.8-93.3-130.4-11.9-13.7-74.9-83.2-147.6-104.1-60.7-17.5-124.4-18.4-186.5-18.4h-10.4c-11.2 0-22.2 0-33.2-.1-10.5-.1-21 0-31.5.1-10.5-.1-21-.2-31.5-.1-11 .1-22 .1-33.2.1h-10.4c-62 0-125.8.9-186.5 18.4-72.7 20.9-135.7 90.4-147.6 104.1-29.1 33.6-63.1 81.1-93.3 130.4-29.5 48.1-51.2 102.6-64.5 161.8-36 160.8-7.8 324.9 77.5 450 32 47 85.4 72.6 122.8 87.8 103.4 42 217.5 63.6 339.1 64h4.2c7.8 0 15.6-.1 23.3-.3 7.7.2 15.5.3 23.3.3h4.2c121.6-.4 235.7-22 339.1-64 37.4-15.2 90.7-40.8 122.8-87.8 85.5-125 113.8-289.1 77.7-449.9M1448.1 1632.8c22.6-31.3 37.1-65.1 40.8-95.3 4.1-32.6 6.3-65.5-10.4-108.2-30.6 26-46.9 38.1-74 55-35.5 22.1-51.9 32.1-90.3 47.7 15.7 24.6 31.8 52 44.8 86.1 15 39.7 16.5 64.5 15.9 76.3 28.7-14 54.5-35.7 73.2-61.6" class="st4"/><path d="M1483 1210.5c-10.3-6.6-21.2-11.1-32.2-14.2 8.6-8.7 16.7-18.3 24-28.9 90.1-132.1 120-304.9 82.1-474-14-62.6-37-120.2-68.3-171.2-2.3-3.7-4.6-7.5-6.9-11.1-9.3-53.2-22.4-101.6-39-144-10.2-25.9-23.8-52.2-41.4-80 3.7-7.8 6.3-16.4 7.7-25.5 1.9-12.5 1.6-26.2-1-41.9-3.2-19.5-8.7-34.6-17.3-47.3-14.9-22.1-31.7-37-54.3-48.3-22-10.9-48.9-13.5-82.3-7.9-18.2 3.1-35.7 9.2-51.7 18.1-33.3-29.2-64.9-43.8-109.7-51.7-40-7.1-88.8-10-132.7-8.4-43.9-1.6-92.7 1.3-132.7 8.4-44.8 7.9-76.4 22.5-109.7 51.7-16-8.9-33.5-15.1-51.7-18.1-33.4-5.6-60.3-3.1-82.3 7.9-22.6 11.2-39.4 26.1-54.3 48.3-8.5 12.7-14 27.7-17.3 47.3-2.6 15.7-2.9 29.4-1 41.9 1.4 9.1 4 17.7 7.7 25.5-17.6 27.7-31.3 54-41.4 80-16.6 42.3-29.7 90.8-39 144-2.3 3.7-4.6 7.4-6.9 11.2-31.3 51-54.2 108.6-68.3 171.2-37.9 169.1-8 341.9 82.1 474 7.2 10.6 15.3 20.2 24 28.9-11 3.1-21.9 7.6-32.2 14.2-26 16.6-45.1 44.3-52.4 76.2-6.4 28.1-3.7 59.7 7.7 88.9 3.4 8.6 8.7 19.2 20.1 25.8 5.8 3.3 12.5 5.1 19.5 5.1 10.3 0 20.9-3.8 30.1-10.8 1.7-1.3 3.3-2.6 4.7-3.9 17.4 12.6 38.6 22.9 62.2 30.1 18.5 5.6 38.5 9.5 61.6 12-2.5 29.8-3.6 58.4-3.2 85.4-32.8 37-54.1 82.5-60.5 129.2-4.2 31.1-1.6 62 7.7 89.3 10.3 30.5 29.3 57.2 53.3 75.3 13.4 10.1 26.8 15.3 39.8 15.3 3.7 0 7.4-.4 11-1.3 3.2-.8 6.3-1.8 9.1-3.1 4.4 5.3 9.6 9.9 15.4 13.5 8.2 5 16.6 7.6 25 7.6 1.4 0 2.8-.1 4.2-.2 5.3-.6 10.5-2.2 15.3-4.7 5 3.7 10.6 6.3 16.7 7.5 2.6.5 5.2.8 7.9.8 7.2 0 14-1.9 19.9-5.4 2.6 1.4 5.3 2.7 8 3.7 6.1 2.3 12.2 3.4 18.2 3.4 5.8 0 11.3-1.1 16.4-3.2 9-3.7 16.5-10.6 22.4-20.4 6.5-10.9 9.6-22.3 11-33.5 9.6 2.3 18.6 4 26.4 5.4 29 5.3 59 8 89.3 8 5.3 0 10.8-.1 16.2-.3q8.1.3 16.2.3c30.3 0 60.3-2.7 89.3-8 7.8-1.4 16.8-3.2 26.4-5.4 1.4 11.2 4.5 22.6 11.1 33.5 5.9 9.8 13.4 16.7 22.4 20.4 5.1 2.1 10.6 3.2 16.4 3.2 6 0 12.1-1.2 18.2-3.4 2.8-1 5.5-2.3 8.1-3.7 5.9 3.4 12.8 5.4 19.9 5.4 2.7 0 5.3-.3 7.9-.8 6-1.2 11.7-3.8 16.7-7.5 4.8 2.6 9.9 4.2 15.3 4.7 1.4.1 2.8.2 4.2.2 8.4 0 16.8-2.6 25-7.6 5.8-3.6 11-8.2 15.4-13.5 2.8 1.3 5.8 2.4 9.1 3.1 3.6.8 7.3 1.3 11 1.3 13 0 26.4-5.1 39.8-15.3 24.1-18.1 43-44.9 53.3-75.3 3.8-11.3 6.5-23.3 8.1-35.6 26.3-15 49.8-35.9 67.3-60.2 24.1-33.4 39.6-69.8 43.7-102.6 4.4-35.6 6.8-71.6-12.8-119.5l-5.5-13.5h1.9c6.9 0 13.6-1.8 19.5-5.1 11.5-6.6 16.8-17.3 20.1-25.8 11.4-29.2 14.2-60.8 7.7-88.9-7.6-31.8-26.7-59.6-52.7-76.2M505.9 378.3c11.2-28.6 27.1-57.9 48.5-89.5l1.2-1.7-1.4-1.5c-6.6-7.3-11-17.1-12.8-28.5-1.4-9.4-1.1-19.6 1-32.2 2.5-15 6.4-26.2 12.5-35.1 11.9-17.7 24.6-29.1 42.5-37.9 10.2-5 22.2-7.6 36.6-7.6 8.2 0 17.2.8 27 2.5 21.3 3.6 41.4 12.4 58.3 25.6l1.8 1.4 1.6-1.6c35.4-35.4 64.2-50.8 110.1-59 38.4-6.8 85.4-9.6 127.3-7.9 42-1.6 88.9 1.1 127.3 7.9 45.9 8.1 74.7 23.6 110.1 59l1.6 1.6 1.8-1.4c16.8-13.1 37-21.9 58.3-25.6 9.8-1.6 18.7-2.5 27-2.5 14.3 0 26.4 2.5 36.6 7.6 17.8 8.9 30.5 20.2 42.5 37.9 6 8.9 10 20.1 12.4 35.1 2.1 12.6 2.4 22.8.9 32.2-1.7 11.4-6.1 21.2-12.8 28.5l-1.4 1.5 1.2 1.7c21.4 31.6 37.3 60.9 48.5 89.5 15.2 38.7 27.4 83 36.2 131.6-.6-1-1.3-2-1.9-3-2.9-4.6-5.6-9-8.3-13.2-10.3-15.6-25.8-37.8-37.2-52.3-38-48-73.2-83-107.6-106.9-30.1-21-54.7-30.2-76.8-37-57.5-17.8-132.9-17.6-220.2-17.4h-76.8c-87.3-.2-162.7-.3-220.2 17.4-22.1 6.8-46.6 16-76.8 37-34.4 24-69.6 58.9-107.6 106.9-11.4 14.4-26.9 36.7-37.2 52.3-2.7 4.1-5.5 8.5-8.3 13.2-.6 1-1.3 2-1.9 3 9-48.7 21.2-92.9 36.4-131.6M393.1 700.1c13.3-59.3 35-113.7 64.5-161.9 30.2-49.3 64.2-96.8 93.3-130.4 11.9-13.7 74.9-83.2 147.6-104.1 60.7-17.5 124.4-18.4 186.5-18.4h10.4c11.2 0 22.2 0 33.2-.1 10.5-.1 21 0 31.5.1 10.5-.1 21-.2 31.5-.1 11 .1 22 .1 33.2.1h10.4c62.1 0 125.8.9 186.5 18.4 72.7 20.9 135.7 90.4 147.6 104.1 29.1 33.6 63.1 81.1 93.3 130.4 29.5 48.1 51.2 102.6 64.5 161.8 36 160.8 7.8 324.9-77.5 450-32 47-85.4 72.6-122.8 87.8-103.4 42-217.5 63.6-339.1 64h-4.2c-7.8 0-15.6-.1-23.3-.3-7.7.2-15.5.3-23.3.3h-4.2c-121.6-.4-235.7-22-339.1-64-37.4-15.2-90.7-40.8-122.8-87.8-85.5-125-113.8-289.1-77.7-449.9m403.6 1114.2c-2.7 4.5-6.3 8.7-11.1 10.7-2.3.9-4.7 1.4-7.2 1.4-3.3 0-6.7-.8-9.8-1.9-9-3.4-16.7-10.3-21-19-.3 4.7-.7 9.6-3.5 13.4-2.7 3.7-7.3 5.7-11.9 5.7-1 0-2.1-.1-3.1-.3-5.5-1.1-10.2-5-13-9.8s-4-10.5-4.1-16.1c-2.3 5.1-4.6 10.2-8.2 14.4-3.5 4.3-8.4 7.7-13.9 8.3-.6.1-1.1.1-1.7.1-4.4 0-8.7-1.7-12.5-4-11-6.8-18.2-19.2-19.4-31.8-6.3 7.8-13.3 16.2-23.1 18.5-1.8.4-3.7.6-5.5.6-9.1 0-18-4.8-25.4-10.4-21.2-15.9-36.6-38.9-45.1-63.9-8.5-25.1-10.2-52.2-6.7-78.4 6.2-45.8 28.3-89.3 60.9-123.4-1.2-39.1 1-78.3 5.2-116.3-27.3-1.6-54.6-5-80.8-13-22.1-6.7-43.4-16.9-60.6-30.8 3-3.5 5.4-7.2 7.1-11.8l.1-.2c.7-1.9 2-5.3 2-10 1.7.1 3.6 0 6.1-.3 8.6-1.1 16.4-4.7 23.3-7.8 5-2.3 11.2-5.2 15.7-10.4 3-3.5 4.8-7.8 5.1-11.9 12.4.5 25-2.9 35.7-9.8 13-8.4 22.7-21.8 26.6-36.8.9-3.4-1.1-6.8-4.5-7.7s-6.8 1.1-7.7 4.5c-3.2 12-10.9 22.7-21.3 29.4-10.5 6.8-23.4 9.3-35.5 7l-14.9-2.9 8.4 12.6c1.2 1.7.5 5.1-1.6 7.5-2.7 3.2-7.1 5.2-11.4 7.2-6.4 2.9-12.9 6-19.6 6.8-4.5.6-5 .3-8-1.2-.7-.3-1.4-.7-2.2-1.1l-14.9-6.9 6.4 15.1c2.7 6.3 1.3 10 .4 12.5l-.1.2c-1.3 3.6-3.3 6.4-6.1 9.5-6 4.6-10.8 10.6-16.8 15.2-4.5 3.4-10.1 5.9-15.6 5.9-2.6 0-5.2-.6-7.5-1.9-5-2.9-7.7-8.4-9.8-13.8-9.3-23.7-12.4-50.1-6.7-74.8 5.7-24.8 20.5-47.8 41.9-61.4 24.1-15.3 52.7-17.1 81.5-17.8 21 13.1 42.4 22.6 60.1 29.8 96 39 201.2 60.5 312.9 63.9-7.4 1.1-15 2.4-22.7 4-37.6 7.5-64.6 18.9-82.7 34.8-58.8 52-62.7 117.2-65.3 160.3v.3c-3.1 51.8 8.8 117 12.5 135.7 7.6 38.3 30.3 93.2 58.9 124.1l.5.5c0 16.4-.3 33.5-8.8 47.7m311.9-56.2c-50.1 14.9-99.8 21.5-148.6 19.9-48.9 1.6-98.5-5.1-148.6-19.9-26.7-29.4-48.5-82.7-55.6-118.3-3.7-18.4-15.4-82.6-12.3-133.2v-.3c2.5-41.5 6.2-104.2 62-153.5 16.7-14.8 42.3-25.4 78.1-32.6 27.2-5.4 52.5-8.2 76.4-8.3 23.9.2 49.2 2.9 76.4 8.3 35.8 7.1 61.4 17.8 78.1 32.6 55.8 49.3 59.5 112 62 153.5v.3c3 50.6-8.7 114.8-12.3 133.2-7.1 35.6-28.9 88.9-55.6 118.3m380.3-220.6c-3.8 30.2-18.3 64-40.8 95.3-14.2 19.6-32.5 36.8-53.1 50.1.3-11.3-.3-22.8-1.9-34.4-6.2-45.3-26.4-89.4-57.5-125.8 24.6-11.1 40.8-21 68.9-38.5 27.1-16.9 43.4-29 74-55 16.7 42.8 14.5 75.7 10.4 108.3m-151.1-22.3c2.3-9.8 6.8-31.1 6.8-44.3 15.2 4.5 26.1 10.5 40.2 19.5-16.1 9.7-31.3 17.7-47 24.8m54.4-62c13.1 1.3 22.7 2.6 37.5 7.3-14.4 10.4-27.7 19.3-40.5 27.2 5.5-17.7 4.3-26.8 3-34.5m78.9-38.2c-15.3 13.1-27 22.5-37.3 30.3-17.2-5.3-28.2-6.6-43.6-8.1l-17.1-1.7 2.9 16.9c.1.8.3 1.5.4 2.3.7 4 1.4 7.7 1 12.9-9.9-5.4-19.7-9.5-32.2-12.9l-14.5-3.9c-.4-5.6-.8-11.2-1.3-16.8 23.2-2.4 43.1-6.3 61.6-12 23.6-7.2 44.8-17.5 62.2-30.1 1.5 1.3 3.1 2.6 4.7 3.9 7.2 5.5 15.4 9 23.6 10.3zm34.3-48.1c-2.1 5.4-4.8 10.9-9.8 13.8-2.3 1.3-4.9 1.9-7.6 1.9-5.4 0-11.1-2.5-15.6-5.9-6-4.6-10.8-10.6-16.8-15.2-2.8-3.1-4.8-5.9-6.1-9.5l-.1-.2c-.9-2.5-2.3-6.2.4-12.5l6.4-15.1-14.9 6.9c-.8.4-1.6.7-2.2 1.1-3 1.5-3.5 1.7-8 1.2-6.7-.8-13.2-3.9-19.6-6.8-4.3-2-8.7-4-11.4-7.2-2-2.4-2.7-5.7-1.6-7.5l8.4-12.6-14.9 2.9c-12 2.4-24.9-.2-35.4-7-10.4-6.7-18.1-17.4-21.3-29.4-.9-3.4-4.3-5.4-7.7-4.5s-5.4 4.3-4.5 7.7c3.9 15 13.7 28.4 26.6 36.8 10.6 6.9 23.2 10.3 35.7 9.8.4 4.2 2.1 8.4 5.1 11.9 4.5 5.3 10.7 8.1 15.7 10.4 6.9 3.2 14.7 6.8 23.3 7.8 2.4.3 4.4.4 6.1.3 0 4.7 1.3 8.1 2 10l.1.2c1.7 4.6 4.1 8.3 7.1 11.8-17.3 13.9-38.6 24.1-60.6 30.8-26.2 8-53.5 11.4-80.8 13 3.8 34.4 5.9 69.7 5.5 105-.1 3.8-.1 7.5-.2 11.3 2.1 2.2 4.1 4.3 6.1 6.6 2 2.2 3.9 4.5 5.8 6.8 25.7 31.3 43.1 68.9 48.8 108.2l.3 1.8.6 4.5c.1.5.1 1 .2 1.4.1 1 .2 2.1.3 3.1.1.6.1 1.1.1 1.7.1 1 .2 2 .2 2.9 0 .6.1 1.1.1 1.7.1 1.2.1 2.3.2 3.5 0 .4 0 .9.1 1.3 0 1.3.1 2.7.1 4.1v4.4c0 .7 0 1.4-.1 2.2 0 .8-.1 1.5-.1 2.3s-.1 1.5-.1 2.3c0 .7-.1 1.5-.1 2.2-.1 1.4-.2 2.9-.3 4.3-.1.7-.1 1.3-.2 2-.1.9-.2 1.7-.3 2.6-.1.6-.2 1.2-.2 1.8-.1.9-.2 1.7-.4 2.6-.1.6-.2 1.2-.3 1.7-.1.9-.3 1.8-.4 2.7l-.3 1.5c-.4 2.2-.9 4.4-1.4 6.6-1.2 5-2.6 10-4.2 14.9-8.5 25.1-23.9 48-45.1 63.9-7.4 5.6-16.4 10.4-25.4 10.4-1.8 0-3.7-.2-5.5-.6-9.8-2.3-16.8-10.6-23.1-18.5-1.2 12.5-8.4 25-19.4 31.8-3.8 2.3-8.1 4-12.4 4-.6 0-1.1 0-1.7-.1-5.5-.6-10.4-4-13.9-8.3s-5.8-9.4-8.2-14.4c-.1 5.6-1.2 11.3-4.1 16.1-2.8 4.8-7.5 8.7-13 9.8-1 .2-2.1.3-3.1.3-4.6 0-9.2-2-11.9-5.7-2.7-3.8-3.2-8.7-3.4-13.4-4.3 8.7-12 15.6-21 19-3.1 1.2-6.5 1.9-9.8 1.9-2.5 0-4.9-.4-7.2-1.4-4.8-2-8.4-6.2-11.1-10.7-8.6-14.2-8.9-31.3-8.9-48l.5-.5c28.7-30.9 51.3-85.8 58.9-124.1 3.7-18.7 15.6-83.9 12.5-135.7v-.3c-2.6-43.1-6.5-108.3-65.3-160.3-18.1-16-45.1-27.4-82.7-34.8-7.7-1.5-15.3-2.8-22.7-4 111.8-3.4 216.9-24.8 312.9-63.9 17.8-7.2 39.1-16.8 60.1-29.8 28.8.7 57.4 2.4 81.5 17.8 21.4 13.7 36.3 36.6 41.9 61.4 5.2 25.2 2.1 51.6-7.2 75.2" class="st5"/><path d="M1392.2 1453.2c1.4 7.7 2.6 16.8-3 34.4 12.7-7.9 26-16.8 40.5-27.2-14.9-4.5-24.4-5.9-37.5-7.2M1344.6 1470.8c0 13.3-4.5 34.6-6.8 44.3 15.7-7.1 30.9-15.1 47-24.8-14.1-9-25-15-40.2-19.5" class="st6"/><g id="mouth_00000183214197015396064940000004958399080369809561_"><path d="M1363.2 747.6c-4.2-.7-8.3 1.8-9.5 5.9-11.9 39.7-39.3 76-77.1 102.2-10.3 7.2-23.7 10.9-38.7 10.8-10-.1-19.9-1.4-30.4-2.8-4.9-.6-9.9-1.3-14.9-1.8-19-2-35.1-.9-49.3 3.5-54.9 16.8-109.9 20.8-156.5 22.5-9.2.3-18.2.5-27 .3q-13.2.15-27-.3c-46.5-1.7-101.5-5.7-156.5-22.5-14.2-4.3-30.3-5.5-49.3-3.5-5 .5-10 1.2-14.9 1.8-10.5 1.4-20.4 2.7-30.4 2.8-14.9.2-28.3-3.6-38.7-10.8-37.8-26.2-65.1-62.5-77.1-102.2-1.2-4.1-5.3-6.6-9.5-5.9s-7.2 4.5-7 8.8c.3 5.7 8.1 139.8 24.3 206.7.7 3 1.4 5.9 2.1 8.8 13.4 55.8 21.5 89.5 93.2 147.6 99.7 80.8 207.5 85.9 272.5 85.9 4.9 0 9.6 0 14-.1h8.2c4.4 0 9.1.1 14 .1 65 0 172.8-5.1 272.5-85.9 71.7-58.1 79.8-91.8 93.2-147.6.7-2.9 1.4-5.8 2.1-8.8 16.3-66.9 24-201 24.3-206.7.6-4.3-2.4-8.1-6.6-8.8" class="st5"/><path d="M1320.5 888.2c-3.6 15.3-9.9 31-19.7 48.9-5.9-25.2-15.9-48.4-28.7-66.4 16.6-8 28.3-18.5 47.1-37.3 5.4 15.9 5.9 35.6 1.3 54.8M1117.8 883.4c.8-.2 1.6-.4 2.3-.5-3 27.9-16.3 58.5-35.9 82.9-18.3-16.9-33.2-42.2-41.3-70.3 15.5-1.1 23.9-2.5 30.8-3.6 2.3-.4 4.4-.7 6.5-1 15-2.2 29.7-5.6 37.6-7.5M599.5 888.2c3.6 15.3 9.9 31 19.7 48.9 5.9-25.2 15.9-48.4 28.7-66.4-16.6-8-28.3-18.5-47.1-37.3-5.3 15.9-5.9 35.6-1.3 54.8M802.2 883.4c-.8-.2-1.6-.4-2.3-.5 3 27.9 16.3 58.5 35.9 82.9 18.3-16.9 33.2-42.2 41.3-70.3-15.5-1.1-23.9-2.5-30.8-3.6-2.3-.4-4.4-.7-6.5-1-15-2.2-29.7-5.6-37.6-7.5" class="st7"/><path d="M1160.2 1045.8c-27.5-16.7-59.8-34.9-96.1-38.5-31.1-3.1-80.1 6.6-104.1 31.6-24-25.1-73-34.7-104.1-31.6-36.3 3.6-68.6 21.8-96.1 38.5-30.3 18.5-61.2 39.7-82 69.6 106.4 84.4 221 81.8 282.2 81.5 61.1.3 175.8 2.9 282.2-81.5-20.8-29.9-51.7-51.1-82-69.6" style="fill:#c1272d"/><path d="M1155.1 1054.2c-28.5-17.3-58.7-33.8-91.9-37.1s-87.3 8.9-103.2 38.2c-15.9-29.3-70-41.5-103.2-38.2s-63.5 19.8-91.9 37.1c-29.8 18.2-59.8 38.8-79.3 67.2 104.2 78.3 214.8 75.8 274.4 75.5 59.6.3 170.2 2.8 274.4-75.5-19.6-28.4-49.6-49.1-79.3-67.2" style="fill:#e7666a"/></g><g id="nose_00000035514417953421269310000015325806636038896519_"><path id="nose_00000052083470965921791390000011252158712214480827_" d="M760.2 440c-3-16.9-10.5-32.7-21.7-45.8-3-3.5-7.1-7.8-12.5-10.6-5.6-3-11.8-3.6-17-1.9-6.8 2.3-12.2 9.1-13.9 17.5-1.4 6.8-.7 13.6-.1 19.6l.1 1c1.9 18.2 8.7 35.7 19.6 50.4 3.7 4.9 8.8 10.9 16.2 12.8 1.7.4 3.3.6 5 .6 9.3 0 17.7-6.7 21.5-14.1 4-7.7 4.9-17.4 2.8-29.5" class="st5"/><path id="nose_00000010309184849611979990000013184513962010832826_" d="M1159.8 440c3-16.9 10.5-32.7 21.7-45.8 3-3.5 7.1-7.8 12.4-10.6 5.6-3 11.8-3.6 17-1.9 6.8 2.3 12.2 9.1 13.9 17.5 1.4 6.8.7 13.6.1 19.6l-.1 1c-1.9 18.2-8.7 35.7-19.6 50.4-3.7 4.9-8.8 10.9-16.2 12.8-1.7.4-3.3.6-5 .6-9.3 0-17.7-6.7-21.5-14.1-3.9-7.7-4.8-17.4-2.7-29.5" class="st5"/></g><g id="eyes_00000181045679049062215050000013177906330441368710_"><g id="eye_00000070081793111817478710000003342172553818003625_"><path d="M784.9 236.5c-20.3.9-33.5-5.8-45.8-15.9-22.3-15.3-52.4-27.7-79.6-28.4-28.8-1.1-58.3 12.3-74.2 36.7 13.7-11 28.1-17.8 43.2-21.2-10.1 6.7-18.5 16-23.9 26.9-7.8 15.8-10.1 34.3-6.8 54.9 2.4 15.1 8.7 31.3 14.2 45.6 1.1 2.9 2.2 5.8 3.3 8.6l1.2 3.3 2.8-2.1c46.1-34.4 72.9-45.3 130.4-53.1l2.6-.4-.4-2.6c-3.7-24.2-13.9-46.3-29.8-64.6 3.7 1.7 7.3 3.5 10.9 5.4l.3.1s.1 0 0 0c-.2-.2-.5-.4-.7-.6 3.5 2.5 8.3 5 12.7 6.9 12.6 5.3 27.1 5.4 39.6.5" class="st5"/><path d="M699 231.5c-3.5-2.6-7.9-4.6-13.5-6.2-4.1-1.1-7.8-1.7-11.2-1.7-2.8 0-5.3.4-7.6 1.1-6 1.9-10.6 7-11.2 12.3-.5 5 2.2 9.6 4.5 12.6 3.9 5 9.4 9 15.4 11.1s12.7 2.5 18.9 1.1c5.2-1.2 8.8-3.3 11-6.3 2.5-3.4 3.2-8.3 1.8-12.8-1-4.2-4-8.2-8.1-11.2" class="st7"/></g><g id="eye_00000096746589244887343670000015648482360018414976_"><path d="M1135.1 236.5c20.3.9 33.5-5.8 45.8-15.9 22.3-15.3 52.4-27.7 79.6-28.4 28.8-1.1 58.3 12.3 74.2 36.7-13.7-11-28.1-17.8-43.2-21.2 10.1 6.7 18.5 16 23.9 26.9 7.8 15.8 10.1 34.3 6.8 54.9-2.4 15.1-8.7 31.3-14.2 45.6-1.1 2.9-2.2 5.8-3.3 8.6l-1.2 3.3-2.8-2.1c-46.1-34.4-72.9-45.3-130.4-53.1l-2.6-.4.4-2.6c3.7-24.2 13.9-46.3 29.8-64.6-3.7 1.7-7.3 3.5-10.9 5.4l-.3.1h-.1c.2-.2.5-.4.7-.6-3.5 2.5-8.3 5-12.7 6.9-12.5 5.3-27 5.4-39.5.5" class="st5"/><path d="M1221 231.5c3.5-2.6 7.9-4.6 13.5-6.2 4.1-1.1 7.8-1.7 11.2-1.7 2.8 0 5.3.4 7.6 1.1 6 1.9 10.6 7 11.2 12.3.5 5-2.2 9.6-4.5 12.6-3.9 5-9.4 9-15.4 11.1s-12.7 2.5-18.9 1.1c-5.2-1.2-8.8-3.3-11-6.3-2.5-3.4-3.2-8.3-1.8-12.8 1-4.2 4-8.2 8.1-11.2" class="st7"/></g></g><path id="belly_00000038375002836213529910000015902349173709507210_" d="M1164.2 1639.8c-7.1 35.7-28.9 88.9-55.6 118.3-50.1 14.9-99.8 21.5-148.6 19.9-48.9 1.6-98.5-5.1-148.6-19.9-26.7-29.4-48.5-82.7-55.6-118.3-3.7-18.4-15.4-82.6-12.3-133.2v-.3c2.5-41.5 6.2-104.2 62-153.5 16.7-14.8 42.3-25.4 78.1-32.6 27.2-5.4 52.5-8.2 76.4-8.3 23.9.2 49.2 2.9 76.4 8.3 35.8 7.1 61.4 17.8 78.1 32.6 55.8 49.3 59.5 112 62 153.5v.3c3.1 50.6-8.6 114.7-12.3 133.2" class="st6"/></g></svg>