<svg xmlns="http://www.w3.org/2000/svg" id="Layer_1" data-name="Layer 1" viewBox="0 0 3000 1124"><defs><style>.cls-1{fill:#fff}.cls-2{fill:#121e59}</style></defs><path d="M1700.68 689.03h-92.75V438.1h92.63c25.57 0 47.6 5 66.1 15.01s32.78 24.38 42.82 43.13c10.05 18.74 15.07 41.15 15.07 67.2s-5 48.6-15.01 67.39-24.28 33.18-42.82 43.19-40.56 15.01-66.04 15.01m-32.1-51.7h29.77c14.05 0 25.95-2.39 35.72-7.17 9.76-4.78 17.15-12.58 22.18-23.4 5.02-10.82 7.53-25.26 7.53-43.31s-2.53-32.45-7.6-43.19-12.52-18.5-22.36-23.28q-14.76-7.17-36.33-7.17h-28.92v147.52ZM1859.83 689.03V438.1h104.64c18.79 0 34.53 2.65 47.23 7.96s22.26 12.74 28.67 22.3 9.62 20.63 9.62 33.21c0 9.56-2 18.07-6 25.55-4 7.47-9.52 13.66-16.54 18.56-7.03 4.9-15.15 8.33-24.38 10.29v2.45c10.13.49 19.5 3.23 28.12 8.21s15.54 11.91 20.77 20.77c5.23 8.87 7.84 19.34 7.84 31.43 0 13.48-3.43 25.51-10.29 36.08-6.86 10.58-16.79 18.91-29.77 25-12.99 6.08-28.75 9.13-47.29 9.13h-112.6Zm60.65-147.77h33.57c6.62 0 12.5-1.1 17.64-3.31 5.15-2.21 9.17-5.39 12.07-9.56s4.35-9.19 4.35-15.07c0-8.41-2.98-15.03-8.94-19.85s-14.01-7.23-24.14-7.23h-34.55v55.01Zm0 98.88h37.49q19.725 0 29.1-7.47c6.25-4.98 9.37-11.92 9.37-20.83 0-6.45-1.51-12.03-4.53-16.72-3.02-4.7-7.31-8.33-12.86-10.9-5.56-2.57-12.21-3.86-19.97-3.86h-38.6v59.79ZM2088.95 689.03V438.1h103.66c18.79 0 35.02 3.37 48.7 10.11s24.24 16.38 31.67 28.92 11.15 27.38 11.15 44.54-3.8 32.16-11.39 44.29c-7.6 12.13-18.38 21.36-32.35 27.69s-30.51 9.49-49.62 9.49h-65.55v-47.78h54.28c9.15 0 16.8-1.2 22.97-3.61s10.84-6.08 14.03-11.03c3.19-4.94 4.78-11.29 4.78-19.05s-1.59-14.19-4.78-19.3-7.88-8.94-14.09-11.52c-6.21-2.57-13.84-3.86-22.91-3.86h-29.9v202.04zm141.27-114.68 62.49 114.68h-66.16l-61.26-114.68h64.94Z" class="cls-2"/><circle cx="1009.15" cy="562" r="301.86" class="cls-2"/><path d="M869.57 687.37c-18.03-1.12-31.68-5.16-40.95-12.13-9.26-6.96-16.26-16.42-20.99-28.35-10.32-25.74-8.08-55.03 6.72-87.86 19.9-37.43 52.36-57.52 97.37-60.25h48.13l16.6-62.49h59.69l-29.89 120.8c-8.63 34.89-39.94 59.39-75.88 59.39l16.42-65.85H916.2c-14.92.5-26.99 4.66-36.19 12.5-9.2 7.34-15.23 16.29-18.09 26.86-8.46 28.98.12 43.65 25.74 44.02h99.61l-13.06 54.1-104.65-.75ZM999.4 688.11c7.33-30.42 34.55-51.86 65.84-51.86h37.88c14.92-.5 26.99-4.66 36.19-12.5 9.08-7.34 15.11-16.29 18.09-26.86 8.46-28.98-.12-43.65-25.74-44.02h-38.05l-17.91 65.85h-59.51l45.14-182.44h59.51l-14.36 63.05 43.28.19c18.03 1.12 31.68 5.16 40.95 12.13 9.26 6.96 16.26 16.42 20.99 28.35 10.32 25.87 8.08 55.15-6.72 87.86-19.9 37.43-52.36 57.52-97.37 60.25H999.42Z" class="cls-1"/></svg>