<?xml version="1.0" encoding="UTF-8"?>
<svg id="Layer_1" data-name="Layer 1" xmlns="http://www.w3.org/2000/svg" viewBox="0 0 3000 3000">
  <defs>
    <style>
      .cls-1 {
        fill: #fff;
      }

      .cls-2 {
        fill: #121e59;
      }
    </style>
  </defs>
  <circle class="cls-2" cx="1500" cy="1500" r="1181"/>
  <g>
    <path class="cls-1" d="m953.89,1990.48c-70.55-4.38-123.95-20.19-160.19-47.44-36.25-27.25-63.62-64.22-82.1-110.93-40.38-100.71-31.63-215.29,26.27-343.74,77.85-146.45,204.83-225.02,380.96-235.73h188.29l64.95-244.49h233.54l-116.93,472.62c-33.77,136.49-156.26,232.37-296.87,232.37h0l64.22-257.62h-119.69c-58.38,1.95-105.58,18.25-141.58,48.9-36,28.71-59.6,63.74-70.79,105.09-33.08,113.36.49,170.78,100.71,172.23h389.72l-51.09,211.64-409.42-2.92Z"/>
    <path class="cls-1" d="m1461.84,1993.39c28.68-119.02,135.17-202.89,257.59-202.89h148.18c58.38-1.95,105.58-18.25,141.58-48.9,35.52-28.71,59.11-63.74,70.79-105.09,33.08-113.36-.49-170.78-100.71-172.23h-148.88l-70.06,257.62h-232.81l176.61-713.75h232.81l-56.2,246.68,169.32.73c70.55,4.38,123.95,20.19,160.19,47.44,36.25,27.25,63.62,64.22,82.1,110.93,40.38,101.2,31.63,215.78-26.27,343.74-77.85,146.45-204.83,225.02-380.96,235.73h-423.29,0Z"/>
  </g>
</svg>