<?xml version="1.0" encoding="UTF-8"?>
<svg id="Layer_1" data-name="Layer 1" xmlns="http://www.w3.org/2000/svg" viewBox="0 0 3000 1110">
  <defs>
    <style>
      .cls-1 {
        fill: #ffbb51;
      }

      .cls-2 {
        fill: #121e59;
      }

      .cls-3 {
        fill: #161e53;
      }
    </style>
  </defs>
  <g>
    <circle class="cls-3" cx="852.91" cy="555" r="304.41"/>
    <path class="cls-1" d="m957.19,451.13l21.33-56.77h-35.05l-14.07,37.34c-7.71-4.05-15.81-7.3-24.18-9.72l10.41-27.64h-35.05l-8.5,22.55c-1.11,0-2.24-.06-3.38-.06h-40.73c-5.41-.68-10.74-1.9-15.9-3.64-1.8-.6-3.55-1.24-5.28-1.96l-11.57,30.66h0l-89.54,237.64h67.45l-13.63,36.15h35.05l13.64-36.15h27.85l-13.63,36.15h35.05l13.63-36.17c72.49-1.24,130.25-61,129.02-133.5-.62-36.19-16.15-70.51-42.92-94.87Zm-204.1,195.59l74.29-197.06c3.34.31,6.68.45,10.03.45s6.86-.16,10.19-.48h12.19l-74.28,197.09h-32.42Zm67.45,0l73.15-193.91c8.44,2.22,16.54,5.55,24.11,9.91l-69.41,184h-27.84Zm117.92-28.89c-14.76,14.86-33.89,24.58-54.59,27.73l60.52-160.52c32.72,39.11,30.15,96.74-5.93,132.78h0Z"/>
  </g>
  <g>
    <path class="cls-2" d="m1557.66,681.37h-98.27v-255.39h97.27c26.27,0,48.99,5.09,68.15,15.28,19.16,10.18,33.96,24.83,44.39,43.89,10.43,19.08,15.65,41.92,15.65,68.53s-5.2,49.43-15.59,68.52c-10.39,19.08-25.11,33.71-44.14,43.89-19.04,10.18-41.52,15.28-67.46,15.28Zm-28.93-58.86h26.44c12.64,0,23.42-2.02,32.36-6.1,8.93-4.08,15.75-11.09,20.45-21.07,4.69-9.98,7.04-23.87,7.04-41.65s-2.39-31.69-7.17-41.65c-4.78-9.98-11.77-17.01-20.95-21.07-9.19-4.08-20.43-6.12-33.73-6.12h-24.44v137.67Z"/>
    <path class="cls-2" d="m1964.18,553.68c0,28.43-5.53,52.4-16.58,71.88-11.06,19.5-25.98,34.26-44.76,44.27-18.79,10.03-39.74,15.04-62.85,15.04s-44.29-5.06-63.04-15.16c-18.75-10.1-33.63-24.9-44.64-44.39-11.02-19.5-16.52-43.38-16.52-71.64s5.51-52.4,16.52-71.89c11.01-19.5,25.9-34.26,44.64-44.27,18.75-10.01,39.76-15.02,63.04-15.02s44.06,5.01,62.85,15.02c18.78,10.01,33.71,24.78,44.76,44.27,11.06,19.5,16.58,43.47,16.58,71.89Zm-71.33,0c0-15.29-2.01-28.21-6.05-38.72-4.03-10.53-9.97-18.5-17.83-23.95-7.85-5.44-17.52-8.16-28.99-8.16s-21.14,2.73-28.99,8.16c-7.86,5.45-13.8,13.43-17.83,23.95-4.03,10.51-6.05,23.42-6.05,38.72s2.01,28.21,6.05,38.72c4.03,10.51,9.97,18.5,17.83,23.94,7.86,5.45,17.52,8.18,28.99,8.18s21.14-2.73,28.99-8.18c7.86-5.44,13.8-13.43,17.83-23.94,4.03-10.51,6.05-23.42,6.05-38.72Z"/>
    <path class="cls-2" d="m1996.1,681.37v-255.39h69.34v199.53h103.25v55.86h-172.59Z"/>
    <path class="cls-2" d="m2262.95,681.37h-74.82l84.3-255.39h94.77l84.3,255.39h-74.82l-55.86-185.06h-2l-55.87,185.06Zm-13.97-100.75h140.66v51.87h-140.66v-51.87Z"/>
  </g>
</svg>