<svg xmlns="http://www.w3.org/2000/svg" data-name="Layer 1" viewBox="0 0 3000 3000"><circle cx="1500" cy="1500" r="1183.97" style="fill:#161e53"/><path d="m1905.6 1096.03 82.98-220.81h-136.32l-54.74 145.21a502.6 502.6 0 0 0-94.03-37.81l40.48-107.52h-136.32l-33.07 87.72c-4.33 0-8.71-.24-13.13-.24h-158.4a316 316 0 0 1-61.85-14.17c-6.99-2.34-13.81-4.83-20.54-7.62l-44.99 119.25L927.4 1984.3h262.33l-53.02 140.59h136.32l53.05-140.59h108.32l-53.02 140.59h136.32l53.02-140.68c281.95-4.81 506.61-237.27 501.8-519.22-2.4-140.75-62.8-274.26-166.93-368.98Zm-793.84 760.73 288.94-766.42c12.98 1.21 25.99 1.75 39 1.75s26.67-.62 39.65-1.87h47.42l-288.91 766.54zm262.33 0 284.5-754.18a384.4 384.4 0 0 1 93.77 38.53l-269.98 715.66h-108.29Zm458.63-112.35a380 380 0 0 1-212.34 107.87l235.39-624.32c127.27 152.13 117.27 376.27-23.06 516.45Z" style="fill:#ffbb51"/></svg>