<svg xmlns="http://www.w3.org/2000/svg" width="181" height="53" fill="none" viewBox="0 0 181 53"><mask id="a" width="181" height="53" x="0" y="0" maskUnits="userSpaceOnUse" style="mask-type:luminance"><path fill="#fff" d="M180.461 0H.765v52.983h179.696z"/></mask><g fill="#fff" mask="url(#a)"><path d="M4.29 10.741C14.455 8.56 23.443 9.67 29.591 13.875c4.306 2.942 7.073 7.224 8.012 12.387 1.069 5.894-.404 11.74-4.142 16.463-4.935 6.234-13.274 9.97-22.876 10.258h-.136l-.01-.005c-2.387 0-4.357-1.942-4.427-4.392-.066-2.33 1.609-4.303 3.823-4.614L7.326 19.354q-.6.113-1.21.243c-2.398.512-4.752-1.053-5.254-3.497-.507-2.445 1.032-4.847 3.428-5.359m14.313 31.704c3.314-1.18 6.058-3.023 7.949-5.409 2.115-2.674 2.917-5.832 2.321-9.133-.497-2.746-1.918-4.938-4.221-6.512-2.197-1.5-5.079-2.385-8.463-2.635z"/><path d="M48.92 46.151c-7.673 0-13.911-6.97-13.911-15.535 0-8.564 6.243-15.535 13.912-15.535s13.912 6.971 13.912 15.535S56.59 46.151 48.92 46.151m0-22.018c-2.776 0-5.037 2.91-5.037 6.483 0 3.574 2.261 6.483 5.038 6.483s5.038-2.909 5.038-6.483-2.261-6.483-5.038-6.483"/><path d="M73.204 48.735q-.515 0-1.023-.048c-7.345-.67-12.697-8.31-11.932-17.028.764-8.722 7.359-15.267 14.704-14.597s12.697 8.31 11.933 17.028c-.357 4.042-1.96 7.77-4.526 10.492-2.52 2.674-5.808 4.158-9.152 4.158zm.708-22.669c-2.303 0-4.526 2.904-4.831 6.402-.32 3.621 1.496 6.99 3.883 7.205 1.365.124 2.458-.804 2.993-1.368 1.154-1.225 1.914-3.053 2.087-5.024.32-3.622-1.496-6.99-3.883-7.205-.08-.01-.165-.01-.25-.01"/><path d="M109.86 2.436c1.248-2.153 4.344-3.12 6.487-1.904 2.144 1.215 2.885 3.899 1.6 6.856-.577 1.334-6.605 12.382-4.733 34.285.211 2.488-1.595 4.683-4.034 4.899-.131.01-.263.02-.389.02l-.005-.005c-1.968 0-3.684-1.33-4.241-3.216a12.7 12.7 0 0 1-5.989 1.498c-7.34 0-13.312-6.273-13.312-13.98s5.971-13.98 13.312-13.98c2.272 0 4.413.601 6.287 1.66 1.019-6.878 2.808-12.324 5.017-16.133M98.842 24.655c-2.533-.216-4.798 2.205-5.056 5.392-.258 3.186 1.59 5.956 4.123 6.167s4.798-2.206 5.056-5.392-1.59-5.957-4.123-6.167"/><path d="M120.667 47.098c-2.28 0-4.217-1.78-4.414-4.139-.53-6.253-2.008-20.683 4.817-34.61 1.229-2.502 4.517-3.426 6.693-2.278 2.177 1.149 3.683 3.699 2.008 6.77-6.168 11.32-5.314 23.66-4.855 29.133.211 2.488-1.421 4.89-3.865 5.105q-.196.017-.384.019"/><path d="M141.235 46.429c-7.632 0-13.457-6.206-13.847-14.755-.286-6.22 2.022-10.057 4.006-12.177 2.571-2.746 6.107-4.258 9.958-4.258 5.694 0 11.923 4.177 12.12 10.392.038 1.115-.272 2.794-1.941 4.46-2.533 2.525-8.533 4.678-13.697 5.827.558 1.33 1.834 2.272 3.096 2.387 1.839.172 3.63-.837 5.103-2.387 1.675-1.756 4.677-1.972 6.403-.264 1.721 1.708 1.168 3.795.042 5.474-2.538 3.775-7.087 5.31-11.239 5.31zm.276-23.104c-4.559.215-5.605 5.033-5.314 7.043 2.439-.598 6.839-2.134 9.25-3.565a.594.594 0 0 0 .267-.68c-.717-2.415-3.391-2.793-4.203-2.793zM165.963 52.103c-6.801.096-10.807-4.966-11.463-8.243-1.014-5.048 5.619-7.364 7.772-2.953.708 1.45 1.637 2.938 3.968 2.565 1.557-.249 2.04-1.818 2.101-2.182.221-1.315-.736-3.062-2.603-4.153-10.235-6.004-10.671-12.042-9.916-15.798 1.234-6.11 6.478-9.454 12.688-9.205 6.229.244 11.178 4.837 11.914 11.177.314 2.693-1.417 4.746-3.846 5.057s-4.653-1.445-4.958-3.924c-.352-2.837-2.533-3.23-3.452-3.267-.507-.02-3.265-.015-3.612 2.736-.127 1.005-.3 3.354 4.77 6.488 5.427 3.35 7.58 7.832 7.088 12.846-.493 5.048-4.156 8.268-9.264 8.79q-.608.061-1.187.066"/></g></svg>