<svg xmlns="http://www.w3.org/2000/svg" viewBox="0 0 197.9 264"><defs><radialGradient id="radial-gradient" cx="98.95" cy="85.48" r="90.84" gradientUnits="userSpaceOnUse"><stop offset="0" stop-color="#5e464d"/><stop offset="1" stop-color="#5e464d"/></radialGradient><style>.cls-4{fill:#5e464d}</style></defs><title>drizzle-logo-dark</title><g id="Layer_2" data-name="Layer 2"><g id="Layer_8" data-name="Layer 8"><path d="M195 93.74c0-49.68-46.56-90.2-96.24-90.2S2.5 44.19 2.5 93.87C2.5 94 0 139.58 0 139.58c.52 14.68 49.58 27.84 98.94 27.84 49.69 0 99-13.16 99-27.84-.04 0-2.94-45.33-2.94-45.84" style="fill:url(#radial-gradient)"/><path d="M45.37 102.26A111 111 0 0 0 43.22 86 114 114 0 0 0 39 70.84c-.9-2.42-1.8-4.8-2.84-7.09s-3.7-9.11-4.1-10.25-.91-2.25-1.43-3.34a70 70 0 0 0-3.34-6.39l-.17-.29a8.74 8.74 0 0 1 10.2-12.67l1 .32.89.3L41 32c1.13.42 2.24.84 3.34 1.28q3.28 1.34 6.46 2.83a134 134 0 0 1 12.37 6.64A123 123 0 0 1 85.48 60 105.6 105.6 0 0 1 103 82.51a100.3 100.3 0 0 1 10.61 26.62l-16.8-1.07.41-1.2.44-1.43c.29-1 .56-2 .82-3 .51-2 1-4.06 1.34-6.13a103 103 0 0 0 1.55-12.54 98.4 98.4 0 0 0-1.59-25 88.5 88.5 0 0 0-8.14-23.5 94 94 0 0 0-14.33-20.48l-.12-.12A8.76 8.76 0 0 1 84.8.07l.75.1.61.09 1.17.2c.76.13 1.51.27 2.25.43 1.47.3 2.92.64 4.35 1 2.87.73 5.68 1.57 8.45 2.51A125.7 125.7 0 0 1 147.15 31a127.8 127.8 0 0 1 22.08 26.91 148 148 0 0 1 14.45 31.32l-16.33-1 .29-.7.36-1c.24-.66.46-1.35.67-2a36 36 0 0 0 1.06-4.28c.25-1.46.34-2.94.53-4.39s.5-2.9.75-4.36a44.7 44.7 0 0 0-.61-17.92 47.5 47.5 0 0 0-3.19-8.86 55 55 0 0 0-5-8.4 71 71 0 0 0-6.58-7.74 96 96 0 0 0-7.74-7 76 76 0 0 1 9.66 4.42 65 65 0 0 1 9.14 5.91 56.5 56.5 0 0 1 8.17 7.7 52.8 52.8 0 0 1 6.63 9.49 57 57 0 0 1 6.66 22.83 30.5 30.5 0 0 1 0 6 49 49 0 0 1-1.15 5.91c-.45 2-.92 3.89-1.51 5.82-.29 1-.61 1.93-1 2.9L184 94l-.32.77-.41.93A8.72 8.72 0 0 1 167 95l-.08-.26a130.7 130.7 0 0 0-12.73-27.59A109.8 109.8 0 0 0 135.2 44a107.9 107.9 0 0 0-38.47-22.91 97 97 0 0 0-7.14-2.12c-1.19-.31-2.38-.58-3.56-.83l-1.75-.33-.83-.14-.65-.09 7.49-14.71a112 112 0 0 1 17 24.32 106.4 106.4 0 0 1 9.75 28.15A116 116 0 0 1 119 84.88a123 123 0 0 1-1.8 14.66c-.46 2.43-1 4.84-1.6 7.26-.3 1.21-.63 2.42-1 3.64l-.58 1.84-.31 1-.39 1.1a8.75 8.75 0 0 1-16.74-.82l-.06-.25a82.4 82.4 0 0 0-8.74-21.94 87.6 87.6 0 0 0-14.64-18.78A105.8 105.8 0 0 0 54 57.84a116 116 0 0 0-10.7-5.76c-1.83-.86-3.69-1.67-5.54-2.42-.93-.37-1.86-.73-2.78-1.07l-1.37-.48-1.19-.38 10-13a89 89 0 0 1 4.2 8c.67 1.35 1.19 2.76 1.81 4.13s1.26 2.74 1.77 4.15a21 21 0 0 1 .67 2.15c.17.74.29 1.48.39 2.23.21 1.49.34 3 .49 4.48.24 3 .37 5.94.33 8.88A96.5 96.5 0 0 1 50.28 86c-.56 2.8-1.23 5.56-2.06 8.27a62 62 0 0 1-2.85 7.99" style="fill:#fff"/><path d="M45.37 102.26a102 102 0 0 0 0-16.21A111 111 0 0 0 43 70.22q-.89-3.87-2.08-7.64c-.8-2.5-1.77-4.93-2.59-7.4-.4-1.24-.83-2.47-1.28-3.69s-1-2.41-1.54-3.58c-1.06-2.37-2.32-4.64-3.6-6.89l-.06-.1a3.4 3.4 0 0 1 1.27-4.64 3.36 3.36 0 0 1 2.69-.3c2.33.71 4.36 1.48 6.49 2.33s4.15 1.75 6.18 2.7a129 129 0 0 1 11.86 6.38 117.2 117.2 0 0 1 21.37 16.47 99.5 99.5 0 0 1 16.64 21.35 94.6 94.6 0 0 1 10 25.18l-6.53-.42c.32-.88.67-2 1-3s.6-2.11.88-3.18c.54-2.13 1-4.3 1.42-6.47a111 111 0 0 0 1.62-13.19 103.5 103.5 0 0 0-1.68-26.42 94 94 0 0 0-8.63-24.92 99.3 99.3 0 0 0-15.16-21.65 3.41 3.41 0 0 1 3-5.68c1.58.2 2.89.45 4.3.74s2.76.6 4.12 1q4.08 1 8 2.39A120.1 120.1 0 0 1 143.5 35a122.3 122.3 0 0 1 21.14 25.78 142.3 142.3 0 0 1 13.93 30.18l-6.35-.38c.26-.57.58-1.4.84-2.13s.53-1.52.77-2.3a48 48 0 0 0 1.17-4.8c.59-3.22.93-6.46 1.23-9.72a47.8 47.8 0 0 0-2.46-19.42A52 52 0 0 0 163.56 35a77.2 77.2 0 0 0-15.7-13.38 75.4 75.4 0 0 1 17.45 11.66 54.2 54.2 0 0 1 12.78 17.21 53.6 53.6 0 0 1 4.82 21.33 41 41 0 0 1-.21 5.52c-.21 1.83-.56 3.64-.94 5.44s-.84 3.58-1.38 5.35q-.4 1.32-.87 2.64c-.33.9-.63 1.7-1.09 2.71a3.41 3.41 0 0 1-6.33-.31v-.07a135.5 135.5 0 0 0-13.26-28.73 115.5 115.5 0 0 0-20-24.35 113.2 113.2 0 0 0-40.4-24c-2.48-.84-5-1.6-7.53-2.24-1.27-.32-2.54-.62-3.81-.88s-2.59-.5-3.7-.64l2.91-5.72a106.3 106.3 0 0 1 16.22 23.14 101 101 0 0 1 9.26 26.73 111 111 0 0 1 1.79 28.17 116 116 0 0 1-1.73 14c-.43 2.31-.93 4.62-1.51 6.91-.3 1.15-.61 2.29-.95 3.44s-.68 2.24-1.14 3.5a3.42 3.42 0 0 1-6.52-.35V112a88.1 88.1 0 0 0-9.32-23.36 92.5 92.5 0 0 0-15.5-19.88 111 111 0 0 0-20.08-15.52 121 121 0 0 0-11.23-6q-2.88-1.35-5.82-2.54-1.5-.6-3-1.14c-1.5-.54-2-.71-2.9-1l3.91-5A95 95 0 0 1 45 52.89a49.5 49.5 0 0 1 2 8.22c.49 2.77.84 5.55 1.09 8.33a99 99 0 0 1 0 16.62q-.32 4.13-1 8.19a70 70 0 0 1-1.72 8.01" style="fill:#e911bd"/><path d="M16.35 241.89a15.43 15.43 0 0 1-5.84-6 20 20 0 0 1 0-18.34 15.46 15.46 0 0 1 5.84-6 15.2 15.2 0 0 1 7.61-2 14.9 14.9 0 0 1 11.09 4.93v-15.86a2.87 2.87 0 0 1 .87-2.14 3 3 0 0 1 2.11-.84 2.74 2.74 0 0 1 2.07.88 2.88 2.88 0 0 1 .85 2.1v42.08a2.78 2.78 0 0 1-.85 2.07 2.8 2.8 0 0 1-2.07.84 3 3 0 0 1-2.11-.84 2.76 2.76 0 0 1-.87-2.07V239A14.9 14.9 0 0 1 24 243.94a15.1 15.1 0 0 1-7.65-2.05m14.06-4.79a16.1 16.1 0 0 0 4.64-3.54V220a15.9 15.9 0 0 0-4.64-3.53 12.2 12.2 0 0 0-5.6-1.33 10.2 10.2 0 0 0-7.72 3c-1.94 2-2.92 4.9-2.92 8.62s1 6.59 2.92 8.62a10.2 10.2 0 0 0 7.72 3.05 12.3 12.3 0 0 0 5.6-1.33M52 242.77a2.8 2.8 0 0 1-.84-2.07v-27.81a2.92 2.92 0 0 1 .84-2.11 2.8 2.8 0 0 1 2.08-.88 2.87 2.87 0 0 1 2.1.88 2.84 2.84 0 0 1 .88 2.11v2.78q4.53-6.09 10.18-6.09h.32a2.7 2.7 0 0 1 2 .84 2.9 2.9 0 0 1 .81 2.08 2.62 2.62 0 0 1-.84 2 3.05 3.05 0 0 1-2.14.77h-.32a11 11 0 0 0-5.71 1.53 13.1 13.1 0 0 0-4.27 4.2v19.7a2.74 2.74 0 0 1-.88 2.07 2.9 2.9 0 0 1-2.1.84 2.84 2.84 0 0 1-2.11-.84M76.47 202.51a3.15 3.15 0 0 1-1-2.33v-.26a3.15 3.15 0 0 1 1-2.33 3.2 3.2 0 0 1 2.34-1h.38a3.2 3.2 0 0 1 2.34 1 3.15 3.15 0 0 1 1 2.33v.26a3.15 3.15 0 0 1-1 2.33 3.2 3.2 0 0 1-2.34 1h-.38a3.2 3.2 0 0 1-2.34-1m.39 40.26a2.8 2.8 0 0 1-.86-2.07v-27.81a2.92 2.92 0 0 1 .84-2.11 2.78 2.78 0 0 1 2.08-.88 2.89 2.89 0 0 1 3 3v27.8a2.74 2.74 0 0 1-.88 2.07 2.9 2.9 0 0 1-2.1.84 2.82 2.82 0 0 1-2.08-.84M137.4 249.65a2.15 2.15 0 0 0-2 0l-16.66 6.91 18.15-28.79a5.56 5.56 0 0 0 .91-3 2.36 2.36 0 0 0-1-2.22 3 3 0 0 0-2.72.09L113.94 231l-16.66 6.9 18.15-28.78a5.56 5.56 0 0 0 .91-3 2.37 2.37 0 0 0-1-2.23 3 3 0 0 0-2.72.1l-19.64 8.13a4.34 4.34 0 0 0-2 1.62 4 4 0 0 0-.78 2.3 1.71 1.71 0 0 0 .78 1.62 2.15 2.15 0 0 0 2 0l16.4-6.79-18.71 29.19a5.7 5.7 0 0 0-1 3.09 1.9 1.9 0 0 0 1.17 2 4 4 0 0 0 2.92-.3l20.7-8.58 16.4-6.79-18.67 29.19a5.7 5.7 0 0 0-1 3.09 1.9 1.9 0 0 0 1.17 2 4 4 0 0 0 2.91-.3l20.23-8.38a4.6 4.6 0 0 0 2-1.59 3.85 3.85 0 0 0 .81-2.28 1.73 1.73 0 0 0-.91-1.56M145.41 242.77a2.8 2.8 0 0 1-.84-2.07v-42.08a2.9 2.9 0 0 1 .84-2.1 2.76 2.76 0 0 1 2.08-.88 2.87 2.87 0 0 1 3 3v42.06a2.74 2.74 0 0 1-.88 2.07 2.9 2.9 0 0 1-2.1.84 2.84 2.84 0 0 1-2.1-.84M163.14 239.43q-4.44-4.5-4.44-12.67a21 21 0 0 1 1.69-8.49 14.4 14.4 0 0 1 5.18-6.29 14.9 14.9 0 0 1 8.62-2.4 15.1 15.1 0 0 1 8.3 2.23 14.53 14.53 0 0 1 5.32 6 18.35 18.35 0 0 1 1.81 8.13 2.83 2.83 0 0 1-3 2.92h-22a10.6 10.6 0 0 0 3.38 7.04c1.9 1.68 4.56 2.53 8 2.53a18.2 18.2 0 0 0 8.75-2 2.64 2.64 0 0 1 1.17-.26 2.6 2.6 0 0 1 1.81.71 2.36 2.36 0 0 1 .78 1.82 2.78 2.78 0 0 1-1.68 2.39 22.7 22.7 0 0 1-5 2.14 23.2 23.2 0 0 1-6.35.72q-7.9-.01-12.34-4.52M183.79 224a10.43 10.43 0 0 0-1.65-5.31 9 9 0 0 0-3.6-3.14 9.85 9.85 0 0 0-8.69 0 8.7 8.7 0 0 0-3.56 3.14 10.5 10.5 0 0 0-1.62 5.31Z" class="cls-4"/></g></g></svg>