<svg xmlns="http://www.w3.org/2000/svg" width="156" height="37" fill="none"><path fill="#F3F5F0" d="M58.745 12.518c-1.238-1.934-3.483-3.16-6.592-3.16-2.693 0-4.897.915-6.634 2.744-1.746 1.82-2.62 4.045-2.62 7.102 0 3.057.863 5.438 2.579 7.184 1.715 1.747 3.888 2.63 6.675 2.63 2.786 0 4.99-1.101 6.592-3.305l.426 3.088h2.672V2.423h-3.098v10.095Zm-1.716 11.78c-1.175 1.31-2.693 1.966-4.585 1.966s-3.442-.666-4.606-1.965c-1.175-1.31-1.768-3.016-1.768-5.116 0-2.1.593-3.805 1.768-5.115 1.164-1.31 2.724-1.966 4.606-1.966 1.882 0 3.41.666 4.585 1.986 1.165 1.342 1.747 3.11 1.747 5.168 0 2.058-.593 3.732-1.747 5.043Zm13.236-11.894h4.99V9.586h-4.99V4.201h-3.078v5.385h-3.483v2.818h3.483v11.385c0 3.452 1.383 5.001 5.012 5.001h3.347v-2.828H72.49c-1.643 0-2.225-.593-2.225-2.204V12.404Zm15.844-.291c2.797 0 4.679 1.529 5.271 4.097h3.265c-.405-2.153-1.341-3.827-2.797-5.043-1.476-1.217-3.368-1.82-5.698-1.82-2.786 0-5.053.915-6.779 2.745-1.746 1.82-2.62 4.138-2.62 7.133 0 2.994.843 5.365 2.548 7.132 1.694 1.768 3.961 2.652 6.779 2.652 2.318 0 4.242-.603 5.75-1.82 1.497-1.195 2.432-2.849 2.817-4.949H91.35c-.603 2.495-2.506 4.024-5.23 4.024-1.84 0-3.337-.645-4.48-1.944-1.145-1.31-1.716-2.995-1.716-5.095 0-2.1.571-3.806 1.715-5.126 1.144-1.32 2.63-1.986 4.481-1.986h-.01Zm27.979-.135c-1.716-1.747-3.889-2.63-6.675-2.63-2.787 0-4.991 1.101-6.592 3.306l-.426-3.067h-2.672v26.731h3.098v-10.48c1.237 1.933 3.483 3.16 6.592 3.16 2.693 0 4.897-.915 6.654-2.745 1.737-1.82 2.599-4.023 2.599-7.08 0-3.057-.862-5.459-2.578-7.205v.01Zm-2.339 12.32c-1.186 1.3-2.745 1.966-4.627 1.966-1.882 0-3.411-.666-4.575-2.007-1.175-1.32-1.768-3.088-1.768-5.147 0-2.058.593-3.753 1.768-5.053 1.164-1.31 2.672-1.944 4.575-1.944 1.902 0 3.441.665 4.627 1.965 1.164 1.31 1.746 3.015 1.746 5.116 0 2.1-.592 3.805-1.746 5.115v-.01Zm23.924.385v-8.4c0-4.471-2.797-6.936-7.735-6.936-2.319 0-4.201.53-5.636 1.58-1.435 1.05-2.266 2.517-2.506 4.41h3.078c.364-1.966 2.246-3.234 4.918-3.234 3.026 0 4.793 1.486 4.793 3.992v1.32h-5.656c-5.032 0-7.736 2.132-7.736 5.98 0 1.725.645 3.087 1.955 4.096 1.289 1.008 3.005 1.507 5.147 1.507 2.797 0 4.959-1.07 6.446-3.202.052 1.965 1.009 2.974 3.462 2.974h1.716v-2.828h-.998c-.905 0-1.237-.292-1.237-1.269l-.011.01Zm-3.088-3.732c0 1.632-.53 2.942-1.622 3.93-1.092.998-2.568 1.487-4.46 1.487-2.527 0-4.18-1.269-4.18-3.161 0-2.131 1.435-3.202 4.294-3.202h5.968v.946Zm19.671-11.365-5.728 15.315-5.937-15.315h-3.275l7.517 19.308-.936 2.34c-.281.665-.499 1.143-.665 1.413-.364.572-.957.842-2.132.842h-2.745v2.829h3.681c1.341 0 2.173-.219 2.89-1.01.354-.384.645-.83.884-1.288.239-.458.52-1.144.863-2.007l8.859-22.427h-3.276ZM24.162 24.984h7.725V10.023l-7.725 2.953v12.008ZM.3 27.293l11.022 6.343V2.756L.3 9.098v18.195Zm15.597 8.983.197.115 14.67-8.453H15.898v8.338ZM16.095 0l-.198.114-.02 7.975H30.14L16.096 0Z"/></svg>