<svg xmlns="http://www.w3.org/2000/svg" width="150" height="36" fill="none" viewBox="0 0 150 36"><path fill="#01b1e9" d="M56.209 2.828h2.976v25.358h-2.569l-.407-2.97c-1.542 2.12-3.668 3.183-6.345 3.183s-4.767-.85-6.415-2.53-2.48-3.977-2.48-6.913.833-5.076 2.516-6.825c1.665-1.751 3.793-2.636 6.379-2.636 2.995 0 5.157 1.186 6.345 3.042zM54.56 23.87c1.116-1.255 1.685-2.864 1.685-4.845s-.567-3.679-1.684-4.969q-1.702-1.909-4.413-1.91c-1.807 0-3.314.638-4.43 1.893-1.134 1.255-1.701 2.9-1.701 4.916 0 2.015.567 3.66 1.701 4.915 1.116 1.256 2.605 1.893 4.43 1.893s3.278-.637 4.412-1.893M64.334 12.43h-3.35V9.724h3.35v-5.18h2.96v5.182h4.802v2.705h-4.803v10.91c0 1.556.567 2.122 2.145 2.122h2.942v2.723h-3.225c-3.491 0-4.82-1.486-4.82-4.81V12.43zM75.973 25.852c-1.63-1.698-2.446-3.98-2.446-6.86 0-2.882.834-5.111 2.516-6.862 1.666-1.75 3.846-2.635 6.522-2.635q3.35 0 5.475 1.75c1.4 1.167 2.304 2.776 2.694 4.846h-3.137c-.567-2.475-2.374-3.943-5.068-3.943q-2.658 0-4.307 1.91-1.647 1.908-1.648 4.933c0 2.017.55 3.643 1.648 4.899 1.1 1.255 2.535 1.873 4.307 1.873 2.622 0 4.448-1.467 5.032-3.872h3.171c-.371 2.016-1.275 3.608-2.71 4.757q-2.18 1.75-5.53 1.75c-2.71 0-4.89-.848-6.52-2.546z"/><path fill="#000" d="M109.441 12.023c1.648 1.68 2.48 3.997 2.48 6.932s-.833 5.058-2.499 6.808c-1.684 1.751-3.81 2.636-6.398 2.636-2.995 0-5.157-1.186-6.344-3.042v10.08h-2.977V9.724h2.57l.407 2.953c1.542-2.121 3.668-3.183 6.344-3.183s4.767.848 6.415 2.529zm-2.251 11.848c1.116-1.255 1.684-2.9 1.684-4.916 0-2.015-.566-3.66-1.684-4.915-1.135-1.255-2.622-1.892-4.448-1.892s-3.278.618-4.395 1.873c-1.135 1.256-1.702 2.883-1.702 4.863s.567 3.679 1.702 4.951c1.116 1.291 2.587 1.927 4.395 1.927s3.313-.637 4.448-1.893zM132.348 25.463v2.722H130.7c-2.357 0-3.278-.972-3.331-2.864-1.436 2.051-3.509 3.078-6.203 3.078-2.055 0-3.704-.479-4.945-1.45-1.258-.972-1.877-2.282-1.877-3.944 0-3.696 2.605-5.747 7.442-5.747h5.441v-1.273c0-2.405-1.701-3.837-4.608-3.837-2.569 0-4.376 1.22-4.731 3.111h-2.959c.231-1.82 1.029-3.236 2.41-4.244 1.383-1.007 3.19-1.52 5.422-1.52 4.75 0 7.442 2.37 7.442 6.666v8.082c0 .938.319 1.22 1.188 1.22zm-5.121-5.712h-5.742c-2.747 0-4.129 1.027-4.129 3.078 0 1.82 1.595 3.042 4.022 3.042 1.825 0 3.244-.477 4.29-1.433s1.559-2.21 1.559-3.785zM139.003 28.291l-7.23-18.567h3.155l5.706 14.73 5.512-14.73h3.154l-8.524 21.573c-.337.832-.602 1.486-.833 1.927a6 6 0 0 1-.851 1.238c-.691.76-1.489.972-2.783.972h-3.544v-2.722h2.641c1.134 0 1.701-.265 2.055-.814.159-.264.372-.725.639-1.36z"/><path fill="#01b1e9" d="M30.377 24.53h-7.424V12.98l7.424-2.84zM10.595 32.854 0 26.75V9.25l10.595-6.103zM15.185 35.5l-.189-.11v-8.023h14.306zM15.19.5 15 .609l-.016 7.674h13.714z"/></svg>