<svg xmlns="http://www.w3.org/2000/svg" xml:space="preserve" id="Layer_1" x="0" y="0" viewBox="0 0 2007.5 1008.5"><style>.st0{fill:#6c8add}</style><path d="M800.4 474v-21.7h-86v131.3h86v-21.7h-61.5v-33.7h52.4v-21.7h-52.4V474zM842.1 452.3v131.3h84.7v-21.7h-60.2V452.3zM1050.2 474v-21.7h-86v131.3h86v-21.7h-61.5v-33.7h52.4v-21.7h-52.4V474zM1344 474v-21.7h-86v131.3h86v-21.7h-61.5v-33.7h52.4v-21.7h-52.4V474zM1485.9 583.6V452.3h-24.5v82.9l-53.6-82.9h-22.1v131.3h24.5v-83.1l53.7 83.1zM1523.3 452.3V474h34.7v109.6h24.5V474h34.7v-21.7zM1738.9 545.2c0-12-3.4-21.3-10-27.6-5.7-5.4-13.5-8.5-25-10.1l-15.7-2.2c-5.1-.7-9.7-2.7-12.7-5.4-2.7-2.5-4.1-6.1-4.1-10 0-10.6 8.3-17.5 21.2-17.5 8.7 0 18.7 1.1 27.2 8.9l15.4-15.2c-10.8-10.2-23.8-14.8-41.9-14.8-27.7 0-45.5 15.5-45.5 39.6 0 11 3 19.3 9.3 25.6 5.8 5.6 14.1 9.1 25.3 10.8l16 2.2c6 .9 9.3 2.2 12.1 4.8s4.3 6.7 4.3 11.7c0 11-8.6 17.1-24.2 17.1-13.9 0-24.4-3.6-32-10.9l-15.8 15.8c11.9 11.8 26.1 16.8 47.5 16.8 29.5-.1 48.6-15.6 48.6-39.6M1211 584.4V452.3h-23.7l-36 59.7-35.9-59.7h-23.8v132.1h23.5v-88.3l36.3 61.9 36.1-62v88.4z" class="st0"/><path d="m369.8 463.3 152-87.7-102.9-59.4-150.2 86.6z" style="fill:#fff"/><path d="m369.8 463.3-.1 169.1-101.1-58.5.1-171.1z" class="st0"/><path d="m522.2 545.2-152 87.7 102.9 59.4 150.2-86.6z" style="fill:#5351af"/><path d="m522.2 545.2.1-169.1 101.1 58.5-.1 171.1z" style="fill:#7d3fa5"/></svg>