<?xml version="1.0" encoding="utf-8"?>
<!-- Generator: Adobe Illustrator 24.1.2, SVG Export Plug-In . SVG Version: 6.00 Build 0)  -->
<svg version="1.1" id="Layer_1" xmlns="http://www.w3.org/2000/svg" xmlns:xlink="http://www.w3.org/1999/xlink" x="0px" y="0px"
	 viewBox="0 0 2007.5 1008.5" style="enable-background:new 0 0 2007.5 1008.5;" xml:space="preserve">
<style type="text/css">
	.st0{fill:#6C8ADD;}
	.st1{fill:#FFFFFF;}
	.st2{fill:#5351AF;}
	.st3{fill:#7D3FA5;}
</style>
<g>
	<g>
		<polygon class="st0" points="800.4,474 800.4,452.3 714.4,452.3 714.4,583.6 800.4,583.6 800.4,561.9 738.9,561.9 738.9,528.2 
			791.3,528.2 791.3,506.5 738.9,506.5 738.9,474 		"/>
		<polygon class="st0" points="842.1,452.3 842.1,583.6 926.8,583.6 926.8,561.9 866.6,561.9 866.6,452.3 		"/>
		<polygon class="st0" points="1050.2,474 1050.2,452.3 964.2,452.3 964.2,583.6 1050.2,583.6 1050.2,561.9 988.7,561.9 
			988.7,528.2 1041.1,528.2 1041.1,506.5 988.7,506.5 988.7,474 		"/>
		<polygon class="st0" points="1344,474 1344,452.3 1258,452.3 1258,583.6 1344,583.6 1344,561.9 1282.5,561.9 1282.5,528.2 
			1334.9,528.2 1334.9,506.5 1282.5,506.5 1282.5,474 		"/>
		<polygon class="st0" points="1485.9,583.6 1485.9,452.3 1461.4,452.3 1461.4,535.2 1407.8,452.3 1385.7,452.3 1385.7,583.6 
			1410.2,583.6 1410.2,500.5 1463.9,583.6 		"/>
		<polygon class="st0" points="1523.3,452.3 1523.3,474 1558,474 1558,583.6 1582.5,583.6 1582.5,474 1617.2,474 1617.2,452.3 		"/>
		<path class="st0" d="M1738.9,545.2c0-12-3.4-21.3-10-27.6c-5.7-5.4-13.5-8.5-25-10.1l-15.7-2.2c-5.1-0.7-9.7-2.7-12.7-5.4
			c-2.7-2.5-4.1-6.1-4.1-10c0-10.6,8.3-17.5,21.2-17.5c8.7,0,18.7,1.1,27.2,8.9l15.4-15.2c-10.8-10.2-23.8-14.8-41.9-14.8
			c-27.7,0-45.5,15.5-45.5,39.6c0,11,3,19.3,9.3,25.6c5.8,5.6,14.1,9.1,25.3,10.8l16,2.2c6,0.9,9.3,2.2,12.1,4.8
			c2.8,2.6,4.3,6.7,4.3,11.7c0,11-8.6,17.1-24.2,17.1c-13.9,0-24.4-3.6-32-10.9l-15.8,15.8c11.9,11.8,26.1,16.8,47.5,16.8
			C1719.8,584.7,1738.9,569.2,1738.9,545.2z"/>
		<polygon class="st0" points="1211,584.4 1211,452.3 1187.3,452.3 1151.3,512 1115.4,452.3 1091.6,452.3 1091.6,584.4 
			1115.1,584.4 1115.1,496.1 1151.4,558 1187.5,496 1187.5,584.4 		"/>
	</g>
	<g>
		<polygon class="st1" points="369.8,463.3 521.8,375.6 418.9,316.2 268.7,402.8 		"/>
		<polygon class="st0" points="369.8,463.3 369.7,632.4 268.6,573.9 268.7,402.8 		"/>
		<polygon class="st2" points="522.2,545.2 370.2,632.9 473.1,692.3 623.3,605.7 		"/>
		<polygon class="st3" points="522.2,545.2 522.3,376.1 623.4,434.6 623.3,605.7 		"/>
	</g>
</g>
</svg>
