<svg width="250" height="60" viewBox="0 0 250 60" fill="none" xmlns="http://www.w3.org/2000/svg">
<path d="M19.8075 14.1414C20.3125 13.2323 21.2216 12.2222 22.1307 11.5152L38.6964 0L21.7267 27.8788C21.7267 27.8788 20.3125 25.2525 19.6054 24.1414C18.8984 22.5253 18.3933 20.8081 18.3933 19.1919C18.8984 17.4747 19.1004 15.7576 19.8075 14.1414ZM13.2418 33.5354C13.4438 36.1616 14.1509 38.6869 15.363 41.1111C16.5751 43.5354 18.3933 45.5556 20.5145 47.2727L38.6964 60C38.6964 60 27.3832 43.5354 17.6862 27.1717C16.7772 25.5556 16.0701 23.6364 15.7671 21.5152C15.565 20.6061 15.565 19.596 15.7671 18.8889C15.565 19.3939 15.06 20.303 15.06 20.303C14.1509 22.2222 13.4438 24.3434 13.1408 26.6667C12.9388 28.7879 12.9388 31.1111 13.2418 33.5354ZM59.7065 35.6566C59.2014 34.4444 57.5852 31.9192 57.5852 31.9192L40.5145 59.697L56.9792 48.1818C57.8883 47.4747 58.8984 46.5657 59.3024 45.5556C60.0095 43.9394 60.5145 42.2222 60.5145 40.6061C60.8176 38.8889 60.4135 37.2727 59.7065 35.6566ZM66.2721 26.4646C66.0701 23.8384 65.363 21.3131 64.1509 18.8889C62.9388 16.5657 61.1206 14.4444 58.9994 12.7273L40.8176 0C40.8176 0 52.1307 16.4646 61.8277 32.8283C62.7368 34.4444 63.4438 36.3636 63.7469 38.4848C63.9489 39.3939 63.9489 40.404 63.7469 41.1111C63.9489 40.6061 64.4539 39.697 64.4539 39.697C65.363 37.7778 66.0701 35.6566 66.3731 33.3333C66.7772 31.1111 66.7772 28.7879 66.2721 26.4646Z" fill="#FFFFFF"/>
<path d="M96.6762 42.4244V37.677H85.3631V31.5153H95.4641V27.0709H85.3631V21.2123H96.6762V16.4648H80.4136V42.6265H96.6762V42.4244Z" fill="#FFFFFF"/>
<path d="M123.848 42.4272V16.2656H118.899V33.4373L108.091 16.2656H101.727V42.4272H106.879V23.8414L118.596 42.4272H123.848Z" fill="#FFFFFF"/>
<path d="M147.686 22.6265C147.181 19.7982 144.656 15.7578 138.292 15.7578C133.343 15.7578 129.1 19.2932 129.1 24.0406C129.1 28.081 131.727 30.6063 135.969 31.6164L139.504 32.3235C141.626 32.8285 142.535 33.9396 142.535 35.3538C142.535 37.273 141.121 38.6871 138.292 38.6871C134.555 38.6871 132.838 36.3639 132.636 33.7376L127.888 34.9497C128.393 38.6871 131.424 43.2326 138.292 43.2326C144.454 43.2326 147.686 39.1922 147.686 35.2528C147.686 31.5154 145.06 28.3841 140.413 27.475L136.878 26.7679C134.959 26.2629 134.05 25.3538 134.05 23.9396C134.05 22.3235 135.666 20.6063 138.09 20.6063C141.424 20.6063 142.535 22.9295 142.838 24.3437L147.686 22.6265Z" fill="#FFFFFF"/>
<path d="M174.049 42.4272H164.15V16.2656H173.847C176.474 16.2656 178.595 16.7707 180.716 17.8818C182.635 19.0939 184.251 20.508 185.16 22.6293C186.373 24.5485 186.777 26.8717 186.777 29.4979C186.777 32.1242 186.272 34.2454 185.16 36.3666C184.251 38.2858 182.534 39.902 180.716 41.1141C178.797 41.7202 176.676 42.4272 174.049 42.4272ZM169.605 18.5889V39.801L166.979 37.1747H173.544C175.16 37.1747 176.575 36.9727 177.585 36.2656C178.797 35.5586 179.504 34.6495 180.211 33.4373C180.918 32.2252 181.12 30.8111 181.12 29.1949C181.12 27.5788 180.918 26.1646 180.211 24.7505C179.504 23.5384 178.595 22.6293 177.383 21.9222C176.171 21.2151 174.756 21.0131 173.14 21.0131H166.777L169.605 18.5889Z" fill="#FFFFFF"/>
<path d="M192.736 42.4272H187.282L196.474 16.2656H201.625L210.817 42.4272H205.161L203.241 36.5687H194.251L192.736 42.4272ZM198.393 25.7606L196.272 32.3262H202.13L200.009 25.7606C199.807 25.2555 199.807 25.0535 199.504 24.5485C198.999 24.0434 198.999 23.6394 198.999 23.3363C198.999 23.5384 198.797 24.0434 198.797 24.5485C198.595 24.7505 198.595 25.2555 198.393 25.7606Z" fill="#FFFFFF"/>
<path d="M236.576 29.2937C236.576 31.92 236.071 34.2432 234.96 36.3644C234.051 38.4856 232.333 39.8998 230.515 41.1119C228.596 42.324 226.475 42.7281 223.95 42.7281C221.323 42.7281 219.202 42.223 217.384 41.1119C215.566 40.0008 214.051 38.2836 212.939 36.3644C212.03 34.2432 211.323 31.92 211.323 29.2937C211.323 26.6675 211.828 24.3442 212.939 22.223C214.152 20.1018 215.566 18.6877 217.384 17.4755C219.202 16.2634 221.424 15.8594 223.95 15.8594C226.576 15.8594 228.697 16.3644 230.515 17.4755C232.434 18.6877 233.849 20.3038 234.96 22.223C236.071 24.3442 236.576 26.6675 236.576 29.2937ZM231.121 29.2937C231.121 27.6776 230.919 25.9604 230.212 24.8493C229.707 23.6372 228.798 22.7281 227.889 22.021C226.98 21.3139 225.566 21.1119 224.152 21.1119C222.737 21.1119 221.323 21.3139 220.414 22.021C219.505 22.7281 218.495 23.6372 218.091 24.8493C217.687 26.0614 217.182 27.6776 217.182 29.2937C217.182 30.9099 217.384 32.6271 218.091 33.7382C218.596 34.9503 219.505 35.8594 220.414 36.5664C221.323 37.2735 222.737 37.4755 224.152 37.4755C225.566 37.4755 226.98 37.2735 227.889 36.5664C228.798 35.8594 229.808 34.9503 230.212 33.7382C230.717 32.526 231.121 30.9099 231.121 29.2937Z" fill="#FFFFFF"/>
</svg>
