<svg xmlns="http://www.w3.org/2000/svg" xml:space="preserve" id="Layer_1" x="0" y="0" viewBox="0 0 41.6 48"><style>.st0{fill:#fba219}.st1{fill:#323232}.st2{fill:#f8691a}</style><path d="M8.3 21.6v9.6l-4.2 2.4V19.2zM41.6 12v24l-4.2 2.4V19.2l-4.2 2.4v19.2L20.8 48V24l4.2-2.4v19.2l4.2-2.4V19.2zM12.5 9.6 8.3 12l4.2 2.4zM20.8 4.8l-4.2 2.4 4.2 2.4z" class="st0"/><path d="m41.6 12-4.2 2.4-16.6-9.6-4.2 2.4 4.2 2.4 12.5 7.2-4.2 2.4-16.6-9.6L8.3 12l16.6 9.6-4.1 2.4L0 12 20.8 0zM16.6 36v4.8L4.2 33.6l4.2-2.4zM24.9 40.8l4.2-2.4-4.2-2.4z" class="st1"/><path d="M0 12v24l20.8 12V24zm16.6 28.8L4.2 33.6V19.2l12.5 7.2v14.4zM37.4 38.4 33.3 36V21.6l4.2-2.4zM37.4 14.4l-4.2 2.4-12.4-7.2V4.8z" class="st2"/><path d="M12.5 9.6v4.8L25 21.6V36l4.2 2.4V19.2z" class="st2"/></svg>