<svg xmlns="http://www.w3.org/2000/svg" width="180" height="24" fill="none"><path fill="#F3F5F0" d="M25.526 23.574v-5.137c-4.347 3.648-10.485.52-10.737-4.994-.27-5.897 6.042-9.665 10.736-5.738V6.513h3.12v17.06h-3.12ZM21.1 9.288c-4.657.635-4.009 8.08 1.066 7.579 4.904-.486 4.225-8.3-1.066-7.579ZM62.675 0c2.877.759 1.556 4.934-1.167 3.873-1.819-.71-1.493-3.498.433-3.873h.734ZM47.54 0c2.895.726 1.602 4.95-1.15 3.856-1.788-.71-1.447-3.455.416-3.856h.734Zm77.418 19.63v-1.193c-5.419 4.32-12.243-.945-10.481-7.408 1.269-4.653 6.772-6.522 10.48-3.324V6.513h3.119V19.63h-3.118Zm-4.423-10.34c-4.641.561-4.086 8.086 1.064 7.577 4.796-.475 4.304-8.225-1.064-7.577Zm49.644 5.295h-10.273c.226.84 1.075 1.596 1.863 1.942.153.067.932.35 1.026.35h4.265v3.12h-4.357c-2.615 0-5.413-2.605-6.055-5.045-1.609-6.127 4.9-11.112 10.313-7.836 2.607 1.578 3.715 4.486 3.218 7.469Zm-3.394-3.12c-1.281-2.923-5.624-2.954-6.879 0h6.879Zm-87.14 3.12H69.37c.284.822 1.024 1.55 1.8 1.915.156.073.986.378 1.09.378h4.265v3.119h-4.357c-2.52 0-5.286-2.516-5.962-4.863-1.642-5.706 3.814-10.73 9.335-8.509 3.098 1.247 4.777 4.71 4.103 7.959Zm-3.394-3.12c-1.245-2.977-5.566-2.91-6.88 0h6.88Z"/><path fill="#F3F5F0" d="M147.247 2.568v8.623l4.724-4.678h4.449l-5.311 5.379 4.944 7.738h-3.623l-3.58-5.412-1.603 1.513v3.899h-3.118V2.568h3.118Zm-55.036 8.347h-3.119c.123-1.625-1.653-1.785-2.879-1.64-1.485.175-2.358 1.418-.565 2.012 2.25.746 5.81.29 6.594 3.22 1.682 6.275-9.493 7.415-10.735 2.114-.12-.513-.12-.976-.21-1.487h3.118c-.16 1.994 2.874 2.018 4.127 1.513 1.268-.512.825-1.443-.294-1.814-2.354-.78-6.267-.283-6.666-3.7-.767-6.567 10.953-6.73 10.63-.218ZM34.515 6.513v8.117c0 .671.91 1.7 1.497 1.99 1.66.818 3.823-.498 3.823-2.357v-7.75h3.027v8.76c0 .85-1.079 2.65-1.693 3.26-1.861 1.846-5.513 2.012-7.564.401-1.077-.846-2.209-2.725-2.209-4.12V6.513h3.119Zm107.768 2.924-2.512 1.548c-.787-.82-1.741-1.627-2.931-1.724-3.727-.305-5.693 4.299-2.844 6.697 1.914 1.611 4.246.907 5.788-.814l2.47 1.548c.091.143-.154.398-.238.504-3.985 5.021-12.012 2.777-12.471-3.576-.481-6.652 7.399-10.03 12.063-5.183.152.158.767.843.675 1Z"/><path fill="#F3F5F0" d="M104.686 2.568v3.12h-5.137V19.63h-3.118V5.687h-5.229V2.568h13.484ZM56.346 3.76v2.753h2.385V9.63h-2.385v9.999h-3.119V9.63h-2.385V6.513h2.385V3.76h3.119Zm56.137 2.477v3.578c-1.338-.876-2.91-.762-3.89.558-.201.271-.513.911-.513 1.23v8.027h-3.119V6.513h3.119c.03.118-.105.644.136.55.24-.095.601-.45.966-.594 1.065-.423 2.184-.376 3.301-.232Zm67.327 0v3.578c-1.311-.99-3.299-.65-4.052.855a7.722 7.722 0 0 0-.259.658v8.302h-3.119V6.513h3.119l.045.55c1.237-.952 2.767-1.061 4.266-.826Zm-131.077.276h-3.12V19.63h3.12V6.513Zm15.134 0H60.75V19.63h3.118V6.513ZM12.409 2.568H.3v3.12h12.108v-3.12Zm0 6.972H.3v3.118h12.108V9.54Zm0 6.88H.3v3.118h12.108v-3.119Z"/></svg>