<svg xmlns="http://www.w3.org/2000/svg" width="1061" height="248" fill="none" viewBox="0 0 1061 248"><rect width="247.402" height="247.402" fill="#135df3" rx="84.842"/><path fill="#fff" d="M96.204 100.917H78.928c-4.38 0-8.03-3.655-8.03-8.04V76.062c0-4.387 3.65-8.285 8.273-8.285h17.033c4.38 0 7.787 3.411 7.787 7.797V93.12c0 4.386-3.407 7.797-7.787 7.797M132.46 100.917h-17.277c-4.38 0-8.03-3.655-8.03-8.04V76.062c0-4.63 3.65-8.285 8.274-8.285h17.033c4.38 0 7.787 3.411 7.787 7.797V93.12c0 4.386-3.65 7.797-7.787 7.797M132.46 179.625h-17.277c-4.38 0-8.03-3.655-8.03-8.041V154.77c0-4.63 3.65-8.285 8.274-8.285h17.033c4.38 0 7.787 3.411 7.787 7.798v17.544c0 4.143-3.65 7.798-7.787 7.798M168.477 179.625H151.2c-4.38 0-8.03-3.655-8.03-8.041V154.77c0-4.63 3.65-8.285 8.273-8.285h17.034c4.38 0 7.787 3.411 7.787 7.798v17.544c.243 4.143-3.407 7.798-7.787 7.798M87.444 179.625c-9.003 0-16.547-7.554-16.547-16.57s7.544-16.57 16.547-16.57 16.547 7.554 16.547 16.57-7.543 16.57-16.547 16.57M159.959 100.917c-9.003 0-16.547-7.553-16.547-16.57 0-9.015 7.544-16.57 16.547-16.57s16.547 7.555 16.547 16.57c0 9.26-7.544 16.57-16.547 16.57M115.915 140.393h-28.47c-9.004 0-16.547-7.554-16.547-16.57s7.543-16.57 16.546-16.57h28.471c9.003 0 16.547 7.554 16.547 16.57s-7.301 16.57-16.547 16.57"/><path fill="#135df3" d="M375.722 205.368c-43.635 0-74.32-28.724-74.32-77.443 0-43.93 25.618-77.442 74.038-77.442 48.702 0 68.127 34.075 68.127 67.304 0 5.633-.563 11.265-1.971 18.023H341.377c2.534 25.627 16.61 38.018 34.345 38.018 18.017 0 28.433-12.673 32.092-24.5l34.627 10.419c-7.601 23.092-28.152 45.621-66.719 45.621m-33.5-93.494h64.748c-.845-16.897-11.824-29.851-31.53-29.851-16.609 0-29.277 9.293-33.218 29.851M557.459 199.736c0-9.575.563-18.587 3.941-32.104h-3.66c-6.475 19.431-19.143 37.736-47.294 37.736-36.597 0-62.778-31.822-62.778-78.006 0-43.368 23.085-76.88 61.933-76.88 30.967 0 41.946 20.84 48.421 34.92h3.659c-3.378-5.632-5.067-14.08-5.067-22.528 0-3.38.282-5.633.845-8.167h38.004V246.2h-38.004zm-35.753-28.161c22.24 0 34.345-19.15 34.345-44.495s-12.386-43.649-33.782-43.649-34.626 17.741-34.626 44.494c0 26.472 13.231 43.65 34.063 43.65M662.837 205.368c-26.181 0-48.983-15.489-48.983-59.701v-90.96h38.004v81.948c0 27.316 13.231 34.638 27.307 34.638 23.365 0 31.811-19.994 31.811-45.902V54.707h38.004v132.075c0 6.477 1.126 10.138 1.689 12.109v2.253h-39.412c-.844-2.253-1.689-5.069-1.689-9.857 0-6.477 1.689-11.264 5.349-20.557h-4.223c-8.445 19.713-22.239 34.638-47.857 34.638M771.202 201.144V54.707h38.005v146.437zm-1.689-161.362V1.202h41.383v38.58zM881.241 205.368c-27.588 0-43.916-17.178-43.916-45.902V89.063h-22.521V54.707c28.996 0 35.752-16.052 35.752-38.017h38.849c0 19.43-10.698 32.948-22.24 34.638v3.379h45.606v34.356h-37.442V151.3c0 12.672 5.349 17.741 14.076 17.741 6.756 0 12.949-2.816 16.328-5.35l10.134 32.103c-7.038 4.224-19.143 9.575-34.626 9.575"/><path fill="#135df3" d="M986.364 205.368c-44.76 0-74.319-30.414-74.319-77.443 0-47.31 29.559-77.442 74.319-77.442 44.476 0 74.036 30.132 74.036 77.442 0 47.029-29.56 77.443-74.036 77.443m0-33.23c21.676 0 34.066-17.178 34.066-44.213 0-27.316-12.39-44.212-34.066-44.212-21.958 0-34.344 16.896-34.344 44.212 0 27.035 12.386 44.213 34.344 44.213"/></svg>