<svg xmlns="http://www.w3.org/2000/svg" width="632" height="221" fill="none" viewBox="0 0 632 221"><path fill="#e7efff" d="M119.682 147.679V69.144h16.461v15.104h.755c2.266-8.005 9.061-15.104 21.596-15.104h4.38v15.859h-6.494c-12.99 0-20.237 4.38-20.237 12.535v50.141zM208.724 179.44c-25.675 0-35.644-6.946-35.644-18.879 0-8.61 5.135-13.29 13.441-15.104v-1.661c-5.74-1.814-8.911-6.191-8.911-12.084 0-8.155 6.344-12.081 13.895-13.894v-.605c-9.211-4.38-14.346-12.686-14.346-23.26 0-16.009 11.326-26.88 31.264-26.88 5.285 0 10.119.754 14.196 2.415v-2.115c0-6.949 3.321-11.176 10.27-11.176h12.081v13.29h-16.01v3.172c7.1 4.683 11.025 12.234 11.025 21.295 0 15.859-11.479 26.58-31.414 26.58-3.776 0-7.4-.454-10.27-1.209-3.926 1.36-7.551 3.926-7.551 7.854 0 4.23 4.076 5.89 11.025 5.89h19.331c19.331 0 27.486 8.156 27.486 21.75 0 16.31-11.63 24.616-39.871 24.616zm10.117-31.715H192.26c-3.625 2.114-5.436 5.285-5.436 9.06 0 6.345 4.681 10.725 16.915 10.725h10.27c12.839 0 19.181-3.625 19.181-10.875 0-5.436-3.625-8.91-14.347-8.91zm4.984-52.406v-3.02c0-8.911-5.586-13.29-15.254-13.29s-15.255 4.379-15.255 13.29v3.02c0 8.91 5.587 13.29 15.255 13.29s15.254-4.38 15.254-13.29M258.454 106.645c0-25.07 14.195-41.08 36.095-41.08s36.096 16.01 36.096 41.08-14.196 41.08-36.096 41.08-36.095-16.01-36.095-41.08m54.824 6.645V100c0-13.895-7.551-20.841-18.726-20.841-11.176 0-18.726 6.946-18.726 20.84v13.291c0 13.895 7.55 20.841 18.726 20.841s18.726-6.946 18.726-20.841M350.553 147.658V69.122h16.461v12.99h.755c3.321-8.46 9.969-14.8 22.05-14.8 16.01 0 25.525 11.175 25.525 30.506v49.84h-16.461V99.932c0-12.234-4.684-18.425-14.801-18.425-8.609 0-17.065 4.38-17.065 13.591v52.56h-16.464M435.021 69.144h16.461v78.535h-16.461zM534.86 145.911c-8.61 0-13.14-5.436-14.196-13.14h-.755c-3.021 9.819-11.479 14.954-22.959 14.954-16.16 0-25.371-9.214-25.371-23.41 0-15.556 11.63-23.56 33.529-23.56h14.196V94.11c0-9.515-5.135-15.105-16.16-15.105-9.214 0-14.8 4.53-18.726 10.725l-9.819-8.91c5.135-8.76 14.349-15.255 29.601-15.255 20.239 0 31.565 9.969 31.565 27.486v39.419h8.306v13.441h-9.214zm-15.556-23.257v-11.326h-13.895c-11.479 0-17.065 3.776-17.065 10.571v2.72c0 6.946 5.135 10.57 13.29 10.57 10.119 0 17.67-4.834 17.67-12.535M601.905 132.398h-42.182v13.532h42.182zM75.257 86.588H41.83v13.532h33.427zM92.704 132.406H41.83v13.532h50.874zM92.868 40.771H41.83v13.532h51.038zM451.482 40.771h-16.461v13.532h16.461z"/></svg>