<svg xmlns="http://www.w3.org/2000/svg" width="92" height="27" fill="none" viewBox="0 0 92 27"><g fill="#fff" clip-path="url(#a)"><path d="M14.515 8.113c-.192-.117-.377-.246-.577-.349-.937-.482-1.76-1.128-2.578-1.778a2.8 2.8 0 0 1-.459-.451c-.22-.282-.281-.605-.1-.929.182-.328.497-.447.849-.39.325.053.647.152.96.26 1.072.373 2.166.61 3.3.731 2.045.219 3.89-.282 5.605-1.358q.465-.292.946-.552a2.05 2.05 0 0 1 1.158-.237c.576.049 1.012.321 1.257.846.247.528.156 1.035-.178 1.498-.337.467-.816.74-1.37.84-.85.15-1.706.322-2.565.366-1.46.075-2.925.067-4.388.075-.431.002-.862-.06-1.294-.088-.124-.008-.25-.001-.455-.001.11.154.157.258.236.324.444.372.895.736 1.347 1.1.515.414 1.037.823 1.552 1.24.175.14.333.308.194.548-.135.231-.354.173-.577.136-1.36-.226-2.718-.485-4.087-.645-1.82-.214-3.618-.006-5.388.455-1.402.365-2.477 1.18-3.28 2.359-.48.706-.68 1.498-.62 2.354.046.657.313 1.21.767 1.68.54.557 1.19.947 1.905 1.243 1.796.742 3.605.84 5.446.157.645-.24 1.175-.604 1.575-1.162.598-.835 1.204-1.665 1.96-2.372.48-.448 1-.83 1.646-.993.285-.072.599-.132.883-.09 1.064.158 1.949.644 2.566 1.544.436.635.485 1.323.226 2.037-.26.72-.725 1.295-1.298 1.791-.858.743-1.787 1.39-2.838 1.825-1.32.546-2.644 1.09-3.998 1.54a9.7 9.7 0 0 1-4.928.34c-2.13-.41-4.01-1.312-5.388-3.05C.821 16.806.6 13.67 2.036 11.465c1.033-1.587 2.475-2.67 4.347-3.107 1.958-.458 3.942-.605 5.946-.35q.841.105 1.685.192c.155.016.312.003.469.003z"/><path d="M37.694 6.933c-.43.577-1.063.821-1.77.915a4.9 4.9 0 0 1-1.51-.052c-.79-.142-2.361-.463-3.94-.341-.128.254-.266.536-.42.857-.96 2.003-1.344 3.844-.934 3.954.993.138 1.502-1.354 3.482-1.83.864-.095 1.263.344 1.34 1.087.034.324-.02.662-.066.985q-.071.502-.174 1c-.214 1.047-.232 2.095-.124 3.153.043.423.024.861-.028 1.285-.053.435-.268.813-.598 1.12-.823.766-2.17.545-2.692-.448-.29-.553-.315-1.136-.172-1.732a9 9 0 0 1 .968-2.393c.269-.467.585-.908.874-1.363.173-.273.35-.546.499-.832a.8.8 0 0 0 .067-.195c.047-.201-.143-.403-.337-.33l-.003.001c-.225.088-.433.224-.637.353a10.3 10.3 0 0 0-2.349 2.003c-.7.816-1.354 1.671-2.018 2.517-.267.34-.495.71-.769 1.043-.132.162-.31.313-.498.396-.467.205-.9-.113-.853-.61.018-.186.084-.367.127-.551.335-1.453 2.388-6.73 3.258-8.774q.05-.117.1-.249a3.9 3.9 0 0 0-1.611 1.224c-.948 1.24-2.159 4.838-2.657 7.585-.175.966.031 2.395-.333 3.487-.332.996-1.2 1.71-2.052 1.586-1.702-.247-1.648-1.703-.77-2.931.566-.794 1.786-2.333 2.324-3.924.61-1.804 2.248-6.867-1.196-6.46-1.188-.11-1.273-1.636.954-1.552 1.121-.104 1.136-.409 1.364-1.269.1-.376.492-2.138 1.421-2.137 2.195-.061-.93 3.253 3.118 2.738.337-1.004.725-2.028 1.217-2.5 1.49-1.428 2.758-.012 2.008.888a15 15 0 0 0-.78.993c.969-.312 2.024-.7 2.643-1.033.541-.291 1.143-.413 1.761-.415.564-.002 1.084.138 1.52.516.66.575.771 1.534.248 2.235z"/><path d="M39.151 17.509c.32.227.577.198.816.17.776-.088 1.556-.168 2.322-.314a95 95 0 0 0 3.56-.761c.912-.21 1.78-.56 2.596-1.008.476-.261.93-.583 1.336-.943.737-.657.854-1.407.401-2.286-.444-.864-1.133-1.503-1.962-1.996-1.419-.843-2.923-1.514-4.47-2.078-1.825-.667-3.678-1.263-5.522-1.878-.273-.09-.557-.228-.93-.077.076.173.133.336.217.483a3.8 3.8 0 0 1 .505 1.743c.075 1.507-1.429 2.685-3.088 2.12-.617-.21-1.041-.637-1.298-1.228a3 3 0 0 1-.194-.562c-.205-.923-.648-1.727-1.212-2.478-.407-.544-.788-1.107-1.187-1.657-.81-1.116-.073-1.981.993-2.061.39-.03.802.017 1.184.11.726.176 1.45.374 2.152.63q3.539 1.284 7.058 2.619c2.13.809 4.23 1.685 6.224 2.798 1.072.599 2.015 1.346 2.74 2.342 1.224 1.678 1.017 3.491-.54 4.876-1.155 1.028-2.475 1.772-3.922 2.318-1.8.68-3.673 1.054-5.568 1.333-1.859.273-3.721.526-5.585.768-.442.057-.901.087-1.342.036a3.2 3.2 0 0 1-1.128-.35c-.832-.45-1.016-1.364-.432-2.106.242-.307.559-.567.877-.8.588-.433 1.21-.82 1.803-1.244 1.755-1.257 3.255-2.773 4.583-4.463.35-.445.734-.859 1.249-1.122.6-.308 1.225-.421 1.877-.178.93.345 1.318 1.196.885 2.082-.23.469-.553.904-.894 1.304-1.08 1.265-2.321 2.365-3.633 3.388-.16.125-.29.288-.47.47"/><path d="M61.131 11.16a2.6 2.6 0 0 1-.338.317c-.111.088-1.9 1.391-3.79 2.356a32 32 0 0 1-3.477 1.486c-.003.46.065.929.217 1.408.039.122.094.244.163.353.236.369.647.475 1.057.277.328-.158.55-.42.71-.723.183-.344.335-.704.497-1.058.198-.433.455-.824.876-1.092.785-.5 1.758-.238 2.104.566.152.351.164.718-.001 1.055-.16.322-.348.649-.595.912a25 25 0 0 1-1.654 1.599 4 4 0 0 1-1.003.646c-1.04.468-2.127.21-2.84-.652a4 4 0 0 1-.459-.727c-.352-.699-.572-1.692-.578-2.683a6.9 6.9 0 0 1 .971-3.193c.46-.768 1.113-1.29 1.866-1.536.5-.163 2.198-.247 3.505-.51.658-.133.897-.373 1.47-.563a1.23 1.23 0 0 1 1.36.46c.27.387.273.904-.06 1.301m-4.223.138c-1.174-.004-2.17.536-2.767 1.696a5.8 5.8 0 0 0-.469 1.217c.66-.178 1.587-.47 2.393-.887 1.57-.811 2.695-2.02.843-2.026"/><path d="M67.722 19.884c-.538.743-1.488.759-2.127.29-.44-.324-.665-.758-.743-1.26a3.1 3.1 0 0 1 .102-1.325c.422-1.322 2.005-1.932 2.23-4.013.153-1.184-.456-1.733-1.765-1.2-1.235.504-1.996 1.639-2.295 2.446-.238.39-.119 2.622-.846 3.862-.33.563-1.276 1.12-2.006.856-.673-.242-1.022-.876-.833-1.444.307-.925 1.854-2.06 2.076-3.452.312-1.966-.638-3.424-.054-4.214.44-.593.994-.601 1.548-.102.81.73.364 1.941.213 2.419-.046.144.152.245.266.135.686-.659 1.947-1.855 2.291-2.077a3.5 3.5 0 0 1 1.07-.442c.93-.22 1.789.174 2.184.96q.107.211.164.44c.237 1.154-1.194 2.355-1.312 3.036-.567 2.089 1.194 3.212-.163 5.085"/><path d="M81.086 6.824c-.154.464-.483.824-.874 1.135a5 5 0 0 1-.72.48 6.1 6.1 0 0 0-1.833 1.55c-.808 1.019-1.614 2.04-2.37 3.091-1.2 1.67-2.349 3.371-3.295 5.177a2 2 0 0 1-.345.497c-.436.443-1.105.383-1.43-.132a1.9 1.9 0 0 1-.248-.621 71 71 0 0 1-.43-2.256c-.133-.753-.252-1.51-.37-2.265-.057-.365-.118-.731-.142-1.1a2.2 2.2 0 0 1 .238-1.15 1.7 1.7 0 0 1 .668-.727c.881-.514 1.946-.11 2.114.831.055.306.009.64-.06.948-.08.36-.234.707-.356 1.059-.198.567-.326 1.145-.324 1.742 0 .145-.01.3.204.408.064-.048.16-.093.21-.165.118-.165.22-.34.317-.516a60 60 0 0 1 3.835-6.004 20 20 0 0 0 1.417-2.24c.198-.371.476-.716.768-1.035.32-.35.763-.547 1.266-.605 1.181-.137 2.105.86 1.76 1.898"/><path d="M84.617 11.16a2.6 2.6 0 0 1-.338.317c-.111.088-1.9 1.391-3.79 2.356a32 32 0 0 1-3.477 1.486c-.003.46.065.929.217 1.408.039.122.094.244.163.353.236.369.647.475 1.056.277.328-.158.552-.42.712-.723.182-.344.334-.704.496-1.058.198-.433.455-.824.876-1.092.785-.5 1.758-.238 2.104.566.152.351.164.718-.002 1.055-.158.322-.347.649-.594.912a25 25 0 0 1-1.654 1.599 4 4 0 0 1-1.003.646c-1.04.468-2.127.21-2.84-.652a4 4 0 0 1-.46-.727c-.35-.699-.572-1.692-.577-2.683a6.9 6.9 0 0 1 .97-3.193c.461-.768 1.114-1.29 1.866-1.536.501-.163 2.2-.247 3.506-.51.658-.133.897-.373 1.47-.563a1.23 1.23 0 0 1 1.36.46c.27.387.273.904-.061 1.301m-4.224.138c-1.173-.004-2.17.536-2.766 1.696a5.8 5.8 0 0 0-.469 1.217c.66-.178 1.587-.47 2.393-.887 1.57-.811 2.694-2.02.842-2.026"/><path d="M91.369 12.115c-.46.639-1.354.985-1.7.722-.376-.287-.844-.44-1.306-.327-2.269.553-2.523 2.792-2.42 3.66.04.337.046.682.028 1.022-.022.418-.13.82-.38 1.17-.634.884-1.855.798-2.359-.163-.188-.36-.232-.74-.184-1.138.066-.547.282-1.036.591-1.483.366-.527.616-1.107.866-1.692a3.43 3.43 0 0 0 .262-1.788 12 12 0 0 1-.068-1.095c-.01-.494.06-.982.314-1.413.146-.247.33-.497.554-.67.878-.67 2.072-.21 2.268.878.055.303-.003.627-.022.941-.011.187-.139.372.025.608.32.026.539-.154.773-.276.551-.289 1.09-.618 1.684-.796 1.779-.534 1.76.884 1.073 1.84"/><path fill-rule="evenodd" d="M44.236 5.423c.026-.023.062-.052.05-.092zM44.278 5.69l-.03-.002c.004.015-.017.05.005.051.032.014.019-.03.025-.048M45.111 6.07c.041-.101-.03-.176-.092-.125-.075.063.003.212.092.125M48.181 7.047c-.005.029-.007.055.025.053 0-.018.015-.02.014-.039q-.012-.013-.039-.014M46.243 7.493c.001.03.041.06.07.039.004-.035-.05-.082-.07-.039M49.845 8.212c-.04-.003-.071.006-.069.056.005.015.04.006.04.025.027-.005.048-.054.029-.08M47.773 8.32c-.026-.005-.05-.008-.043.027.026.006.044 0 .043-.026M46.297 8.178c-.031-.011-.023.026-.054.015-.038.129-.249.106-.219.28.178.015.17-.196.29-.252.01-.027-.019-.023-.017-.043M44.255 8.206c-.052.001-.118.056-.073.107.026-.034.07-.046.073-.107M49.762 8.893q-.067-.013-.077.044c.033.034.08.004.077-.044M45.831 8.704q-.038-.003-.045.036l.04.005zM45.136 8.736c-.02.023-.04.045-.042.09.01.005.018.01.019.023.097.03.143-.123.022-.113M47.49 9.022c-.04-.01-.055.01-.076.024q-.007.035.005.053.071.006.07-.077M47.398 9.19l-.051-.005a.15.15 0 0 0-.009.082c.058.01.067-.033.06-.077M43.411 8.839c-.038-.004-.042.049.006.041.007-.02-.004-.027-.006-.041M48.19 9.346l-.04-.004c-.014.046.049.058.04.004M44.677 9.294c-.285-.064.165-.262 0 0M46.249 9.343c-.038.035-.078.067-.08.148a.05.05 0 0 1 .029.034c.15.07.24-.202.05-.182M45.163 9.271c-.03.048-.064.08-.036.143.136.07.204-.177.036-.143M46.974 9.731c-.07.003-.113.04-.136.101.049.015.135-.018.136-.1M43.295 9.349c-.053.047-.133.062-.143.163.022.014.04.03.081.029.015-.065.094-.107.062-.192M44.683 9.545c.001.026-.022.02-.016.051.009.006.017.011.018.023.026.004.034-.013.054-.015.008-.041-.014-.059-.056-.059M44.902 9.756c.01 0 .01.005.01.012.14.02 0-.155-.01-.012M46.11 10.258c.072.009.156-.044.163-.15-.085-.105-.249.045-.163.15M48.841 10.364c-.09.037-.189.064-.227.165.114.011.153-.07.231-.102.004-.025.007-.05-.004-.063M45.929 10.187c-.15-.173.258-.087 0 0M42.095 9.872c.03.016.066.003.105 0 .083-.169-.189-.166-.105 0M47.951 10.439q.017 0 .02.012.065-.008.072-.086c-.05-.045-.126.017-.092.074M44.751 10.284c-.026-.006-.044-.001-.044.026.017.022.048.01.044-.026M43.089 10.414c.035.02.075-.004.107-.02.053-.193-.213-.101-.107.02M42.009 10.187c-.039-.004-.043.049.006.041.006-.02-.005-.027-.006-.041M50.848 11.168c-.047-.06-.157-.03-.16.025-.006.083.142.062.16-.025M45.415 10.77l-.03-.003c-.007.021.003.028.005.042q.026-.001.025-.039M43.801 10.613c-.048-.01-.06.036-.036.058.022-.007.038-.021.036-.058M46.99 10.976q-.047.005-.058.057c.05.014.067-.011.078-.044q-.018 0-.02-.013M44.861 10.828c-.018.011-.041.017-.045.046.028.038.07-.018.045-.046M42.21 10.583l-.053-.005c-.008.062-.082.098-.059.161.077-.003.082-.095.111-.156M41.927 10.575a.17.17 0 0 0-.026.144c.17.143.213-.21.026-.144M43.87 10.871q-.034-.008-.052.005l-.005.041c.011.014.036.016.061.017.004-.025.007-.05-.004-.063M42.538 10.952c.147-.048.03-.24-.049-.13-.026.036-.014.116.05.13M41.256 10.756q-.013.072.032.097c.118.014.06-.176-.032-.097M41.662 10.788a.05.05 0 0 1-.032.007c-.016.16-.17.21-.145.382.154-.027.167-.27.177-.39M43.715 11.053c-.048-.015-.06.012-.059.057q.058.013.067-.035c-.01-.001-.007-.013-.008-.022M44.757 11.235c-.003.1.112.058.096-.011-.029-.033-.077-.026-.096.01M48.946 11.963c-.026 0-.046.025-.026.049.021-.006.045-.027.026-.05M45.574 11.664a.062.062 0 0 0-.074.097c.048.009.065-.022.089-.043-.003-.02-.028-.021-.016-.053M43.025 11.619c-.14-.077-.149.15-.048.162.066.008.14-.112.048-.162M47.099 12.042c-.046-.013-.06.013-.068.046.033.032.09-.005.068-.046M42.675 11.75c-.214-.059.119-.187 0 0M45.958 12.101a.05.05 0 0 1 .028.034c.06.015.084-.014.11-.04-.004-.078-.136-.077-.138.006M45.442 12.006q-.046-.012-.045.036.034.008.052-.005a.05.05 0 0 1-.007-.031M44.905 12.023c-.28-.074-.309.348-.068.348.202 0 .307-.285.068-.348M40.591 11.585c-.089-.067-.16.129-.045.131.062.002.102-.088.045-.13M45.33 12.182c.032.042.096.046.135.014.048-.14-.15-.14-.135-.014M43.946 12.039l-.04-.005-.004.04q.046.014.044-.036M41.462 11.78c-.031-.004-.037.023-.045.046.03.028.067-.013.045-.046M49.393 12.699q-.034-.008-.052.005c-.002.03.058.033.052-.005M41.951 12.03c-.06-.012-.081.023-.082.085.037.026.045-.012.085-.012.002-.027.01-.059-.003-.073M43.24 12.174c-.031.005-.053.02-.05.068.026.004.05.007.064-.004.01-.033.002-.052-.014-.064M47.32 12.734c-.007.037.006.059.013.085.028.015.07.018.113.022a.3.3 0 0 0 .064-.108c-.049-.063-.144-.056-.19 0M50.182 12.98c-.027-.012-.027.01-.05.004-.013.045.062.045.05-.005M41.254 12.28c.071-.005.151-.096.112-.165-.075.01-.178.087-.112.166M42.07 12.512c.045-.048.091-.056.105-.104.052-.175-.18-.298-.268-.143-.05.089.018.264.163.247M46.513 12.713l-.04-.005c-.016.04.025.054.047.036a.05.05 0 0 1-.007-.031M41.062 12.198c-.147-.002-.32.186-.178.295q.152-.07.178-.295M50.952 13.268c-.052-.011-.144.01-.156.088-.024.158.25.146.26.017.004-.04-.018-.086-.104-.105M43.775 12.679c.047.064.143.04.16-.015.035-.12-.188-.169-.16.014M44.129 12.61c-.093.03-.239.047-.209.188.123.01.194-.104.209-.187M42.807 12.495l-.02-.003c-.088.045-.102.18-.192.22-.081.243-.326.286-.375.568q.026.002.03.024c.212-.051.346-.246.367-.495.076-.077.212-.193.19-.314M46.459 12.926c-.029.003-.059.005-.057.047q.015.016.05.015c.016-.011.02-.047.007-.062M46.584 12.95c-.04.01-.074.026-.091.063.052.018.066-.012.097-.02.003-.02-.011-.024-.007-.043M48.851 13.259c-.019.007-.037.015-.036.047q.035.008.052-.004c-.004-.016-.012-.028-.016-.043M49.592 13.409l-.02-.003c0 .01-.006.01-.012.01l-.002.02q.012 0 .01.011l.02.002c-.002-.008.004-.009.01-.009l.003-.02q-.012-.001-.01-.011M48.845 13.425l-.006.062q.03.004.039.025c.11-.001.065-.16-.033-.087M42.94 12.832c-.1 0-.21.042-.195.147.108.049.178-.045.194-.147M40 12.6a.3.3 0 0 0-.086.022c-.026.073.001.106.072.122.054-.04.047-.09.015-.144M45.277 13.18c-.065.016-.142.02-.185.064.044.04.148-.022.185-.064M44.867 13.189c-.046-.002-.08.01-.08.065.008.005.017.01.018.023.063.011.091-.05.062-.088M43.689 13.088c-.033.017-.068.031-.071.085.024-.024.09-.044.07-.085M42.141 13.031a.2.2 0 0 0 .048-.058c-.04-.121-.18.033-.048.058M45.08 13.253l-.02-.002c-.094.022-.123.121-.197.168-.096.04-.194.08-.22.206.138.026.203-.117.283-.2.056-.058.143-.087.154-.172M49.756 13.854c-.013.038.042.042.06.027l.003-.031c-.015-.02-.053-.015-.063.004M45.306 13.506l.04.004a.022.022 0 0 0-.04-.004M43.9 13.381c-.095.019-.15.088-.233.122.08.063.159-.067.24-.08.003-.018-.01-.023-.006-.042M52.24 14.32c.025.02.07.016.096-.02-.004-.03-.099-.047-.097.02M45.64 13.917c-.032.015-.081.008-.08.064.04.04.11-.016.08-.064M41.263 13.462c-.042-.017-.066.019-.045.046.029.002.049-.007.045-.046M39.893 13.528c.028-.027.036-.08.063-.108-.061-.263-.38.096-.063.108M38.992 13.28l.001.008c.022.002.027-.025.02-.042zM41.154 13.524c-.037.025-.097.021-.094.095q.015.006.019.022c.071.008.13-.071.075-.117M47.377 14.202l-.006.052c.028.033.083.023.115.001.023-.073-.072-.082-.11-.053M49.506 14.424c-.026-.006-.044-.001-.044.026.026.005.05.009.044-.026M39.038 13.356l-.03-.003a.27.27 0 0 0-.033.206c.103-.006.076-.125.063-.203M46.095 14.194c0 .019-.015.02-.014.04.027.023.03.02.07.018l.005-.041c-.01-.013-.035-.016-.06-.017M45.545 14.231c-.08-.014-.125.017-.182.033-.01.041-.009.03-.008.073.07-.016.044.046.101.042.015-.032.008-.027-.005-.053.05-.01.093-.027.094-.095M44.828 14.355c.071-.301-.358-.03-.141.048.052.018.1-.027.141-.048M41.785 13.913c-.038-.013-.051.03-.036.048.028.005.032-.022.036-.048M43.849 14.17c-.01.007-.009.027-.023.028-.002.036.025.048.055.058.037-.032.053-.09-.032-.086M40.534 13.825q-.028.002-.025.038l.03.004c.007-.021-.004-.028-.006-.042M40.827 13.939c-.01.033.013.039.036.045a.05.05 0 0 0 .013-.03.07.07 0 0 0-.05-.015M48.443 14.95c.07.035.224.003.27-.066a.33.33 0 0 0-.27.066M44.212 14.615q.129.018.144-.069c.027-.166-.271-.091-.144.069M42.285 14.258c-.04-.006-.058.014-.068.045q.064.015.068-.045M39.905 14.01c-.03.015-.08.003-.08.055.021.019.099-.024.08-.055M44.646 14.587q.016.006.019.023c.046.001.08-.01.08-.065-.033-.04-.101-.027-.099.042M50.632 15.22c.01.013.008.037.003.062.048.055.163.044.155-.067-.053-.033-.123-.037-.158.004M40.263 14.204c-.261.106-.018-.29 0 0M43.525 14.45c-.026-.007-.035.01-.035.037.027.005.035-.01.035-.038M42.837 14.503c-.019.185.255.067.179-.096-.108-.027-.126.056-.179.096M43.306 14.646c.09-.007.162-.035.19-.116a.25.25 0 0 0-.19.116M42.463 14.569c.026.007.028.034.059.037q.027-.02.056-.036c.034-.118-.124-.124-.115-.001M43.771 14.61c-.026-.005-.035.011-.035.038.026.006.044 0 .044-.026-.009 0-.009-.005-.009-.011M45.823 14.886c.02.037.077.021.085-.022-.029-.034-.075-.025-.085.022M42.064 14.465q-.015.06.023.075.043-.006.048-.057c-.024-.018-.038-.03-.071-.018M45.111 14.855a.15.15 0 0 0-.056.14c.118.016.072-.08.056-.14M41.737 15.277c-.052.043-.023.121.027.138-.042.07-.152.055-.183.138.08.086.22.005.288-.033.107.025.19-.044.29-.064.076-.015.187.008.168-.097-.13-.046-.21.058-.35.036.141-.088.359-.253.533-.372.021-.016.045.004.085-.012.045-.019.08-.067.125-.092.058-.033.156-.034.18-.107.017-.055-.008-.111-.048-.15q-.199.018-.282.179c-.066.004-.1.06-.175.065-.125.01-.265-.07-.376-.018-.131.068-.148.277-.26.37-.032.004-.028-.021-.06-.017q-.004.026-.006.052c.027.01.023-.019.044-.016M38.518 14.21a4 4 0 0 0-.464.517c-.026.012-.044-.009-.053.004-.003.027.007.014.02.013-.063.1-.106.275.02.305.08.019.133-.048.198-.084.036-.13-.054-.158-.08-.238.161-.118.254-.318.395-.46.006-.033-.012-.047-.036-.056M38.372 14.29c-.027 0-.037.023-.046.046.029 0 .063-.024.046-.046M39.96 14.486q-.045-.003-.047.047c.029.012.03.012.061.006.005-.025-.012-.033-.015-.053M40.278 14.864c.03.014.05.035.102.031.006.023.005.05.01.095.056.039.095.067.165.038-.057.215-.206.316-.228.572.03.01.038.038.056.058.2-.019.201-.232.235-.435.05-.08.19-.217.097-.324-.06-.016-.076.022-.109.04-.023-.04-.022-.101-.083-.113 0-.096.09-.143.054-.213-.14.035-.282.065-.3.25M45.78 15.206c-.016.028-.008.043.002.073.06.015.083-.014.09-.063-.015-.018-.074-.024-.093-.01M40.717 14.68a.05.05 0 0 1-.032.007c-.01.037.011.046.046.046.013-.032-.012-.034-.014-.053M39.023 14.504c-.029-.005-.032.021-.036.047.036 0 .045-.017.036-.047M40.922 14.732c-.093.071-.042.2.053.194.1-.006.138-.212-.053-.194M45.987 15.624c.072.018.096-.022.131-.049-.001-.161-.227-.075-.13.05M38.933 14.755c-.02.003-.022.028-.053.016 0 .024.012.04.002.073.035.023.035-.004.064-.014.004-.032-.008-.05-.013-.075M47.63 15.89c.08-.15-.17-.22-.211-.096-.028.086.039.125.143.14a.2.2 0 0 1 .068-.045" clip-rule="evenodd"/><path fill-rule="evenodd" d="M40.226 15.056c.02.009.026.029.059.027.006-.008.01-.017.022-.018.022-.072-.09-.094-.081-.008M37.733 14.986c.098.025.179-.112.16-.234l-.02-.004-.179.218a.1.1 0 0 0 .039.02M44.614 15.492l-.004.04a.022.022 0 0 0 .004-.04M44.061 15.456c-.082-.035-.164-.01-.183.043-.075.205.308.17.183-.043M38.296 14.93c.03.019.045.008.083.008.042-.104-.101-.116-.084-.009M46.769 15.988c.008.005.017.01.018.022.173.022-.001-.187-.018-.023M41.45 15.915l.249.026c.135-.075.249-.177.393-.241.043-.192-.157-.097-.206-.042-.175-.003-.416.1-.437.257M37.601 15.233c.021-.033.005-.074-.01-.105q-.009-.012-.018-.011l-.056.07c.013.026.043.046.084.046M39.793 15.367l-.051-.006c-.014.04-.017.061.035.067.013-.01.015-.035.016-.061M43.53 15.818c.001.037.057.023.08.02.003-.033-.064-.032-.08-.02M40.841 15.601a.35.35 0 0 0-.114.187c.084.006.11-.122.132-.154.008-.022-.019-.016-.018-.033M39.989 15.513c-.026.036-.047.071-.022.112.052.003.078-.028.092-.073-.024-.013-.024-.045-.07-.039M37.872 15.763c.007.048.019.091.05.12.035-.004.051-.03.069-.056.033-.004.009.037.05.026.212-.082.035-.313.102-.47-.062-.116-.066-.009-.083.086-.007.04-.06.093-.079.148-.02.064-.038.144-.11.145M44.355 16.05q0-.018.012-.02c-.015-.051-.072.014-.012.02M37.524 15.371c-.054.014-.105.086-.108.125.068.003.11-.08.108-.125M40.566 15.719c-.014.04-.053.052-.044.12.134.186.286-.169.044-.12M39.795 15.66c.024-.002.02.02.05.015.008-.037-.048-.067-.05-.016M39.82 15.923c.143-.042.286-.084.404-.156.018-.046-.032-.037-.034-.067-.088.05-.291.035-.38.107-.03.026-.031.087.01.116M48.24 16.569c-.02-.007-.028.004-.041.006q.002.026.038.024zM37.338 15.436c-.032-.002-.032.073-.02.092.035-.016.04-.066.02-.092M41.149 15.873c.003.036.02.06.067.06.006-.01.011-.018.023-.019.018-.067-.065-.084-.09-.04M40.464 16.387c-.117.019-.218-.117-.272-.007-.09-.016-.18-.026-.244.017-.023.067.056.061.096.083.027.014.062.052.089.061.103.037.216-.01.317-.02.025.012.038.033.058.049.129-.013.176-.127.243-.215.123.116.276-.16.162-.245.025-.074.132-.076.141-.142.017-.123-.124-.063-.179.003-.055.238-.352.181-.411.416M47.46 16.603c-.042-.009-.066.003-.068.045.013.016.057.021.072.008q.008-.035-.005-.053M42.386 16.096c-.153-.077-.178.14-.092.178.09.041.219-.114.092-.178M38.616 15.777c-.032-.008-.035.019-.036.048.04.016.053-.026.035-.048M41.337 16.07c-.016.008-.034.012-.035.038q.013.014.04.015c.014-.031.008-.027-.005-.052M38.442 15.833c.012.015.044.014.071.018.043-.06-.069-.115-.07-.018M39.545 15.937c-.039.111.082.13.128.076.032-.095-.08-.126-.128-.076M37.833 15.727c-.048.02-.102.03-.096.115.073.055.142-.06.096-.115M38.36 15.813c-.163-.014-.173.231-.058.255.147.031.137-.176.058-.255M40.419 16.121c.056.015.077-.013.099-.041-.015-.07-.108-.024-.1.041M37.486 15.733c-.05.002-.055.083-.033.111.033.007.033-.028.056-.035.01-.04-.022-.046-.024-.076M46.5 16.733l-.04-.005c-.038.044.045.08.04.005M38.98 16.014c-.059-.014-.069.032-.1.052.016.085.121.006.1-.052M37.022 15.867c.007.011.016.021.015.039q.049.008.056-.036-.02-.022-.053-.03zM42.062 16.585c.082.02.112-.025.162-.046.07-.255-.358-.124-.162.046M43.494 16.556c-.071-.032-.194.002-.23.08-.064.14.094.32.299.261.105-.095.069-.292-.07-.341M39.336 16.228c.022-.011.05-.014.075-.023-.014-.05-.068-.006-.075.023M41.83 16.487c.025.004.049.007.062-.003.003-.032-.069-.038-.062.003M41.536 16.488c.013.085.15.016.209.012-.045-.06-.151-.013-.21-.012M45.524 16.933q.033.007.05-.005c.008-.049-.06-.06-.05.005M46.718 17.058c-.022.046.052.062.05.016a.07.07 0 0 0-.05-.016M40.782 16.567c.06.07.153-.02.115-.103-.056-.026-.1.042-.115.103M49.031 17.35c.018.001.02.015.04.015.038-.036-.038-.066-.04-.014M41.133 16.52c-.033-.007-.042.04-.027.059q.049.008.055-.036c-.007-.01-.027-.009-.029-.023M42.197 16.693c-.077.162.168.253.21.105.032-.114-.098-.201-.21-.105M46.948 17.176c-.017.073.108.05.105 0-.02-.019-.092-.026-.105 0M41.275 16.868c.03.017.078.02.124.024.006-.02.025-.024.026-.05-.049-.032-.131-.016-.15.026M48.226 17.601c-.005-.023-.058-.01-.053.015.031.013.04-.004.053-.015M39.932 16.948c-.006.06.108.084.133.035.011-.09-.104-.093-.133-.035M42.495 17.257c-.098-.14-.31-.094-.341.048-.06.28.425.28.341-.049M48.506 17.84c-.006.019-.024.023-.025.049.018.014.053.04.08.019q.015-.07-.055-.068M40.188 17.017c-.104.048-.184.187-.21.291.062.019.087-.082.12-.134.036-.056.096-.107.09-.157M41.435 17.345c.11-.158-.124-.235-.147-.099-.012.067.043.124.147.099M46.255 17.772c.03.015.026.008.051-.005.003-.03-.057-.033-.051.005M42.548 17.555c-.166-.123.19-.133 0 0M44.643 17.804c-.046.002-.059.062.004.062.004-.025.007-.049-.004-.062M39.694 17.415c.017-.002.017.011.03.013q.049.002.048-.058c-.032-.038-.084-.025-.078.045M42.546 17.67c.057.09.197.05.31.052.133.002.262.044.363.049l.003-.031a4.5 4.5 0 0 0-.676-.07M47 18.174c.033.009.043-.01.065-.014-.001-.036-.073-.031-.064.014M39.681 17.539q.059.014.076-.024c0-.062-.088-.053-.076.024M45.056 18.087c-.004.025-.007.049.003.062.037 0 .067-.01.077-.044-.013-.017-.051-.014-.08-.018M40.11 17.656c.03.002.066.012.083-.002-.008-.043-.08-.066-.083.002M43.331 18.095c-.033-.014-.02.03-.026.05.022-.006.045-.027.026-.05M45.19 18.3c-.011.032-.034.035-.037.058-.022.186.338-.04.038-.059" clip-rule="evenodd"/><path fill-rule="evenodd" d="M42.845 18.327c.188.125.387-.018.494-.106.074.01.149.02.144-.068-.055-.072-.1.017-.17.024-.043.004-.068-.027-.113-.032-.152-.018-.324.038-.355.182M41.313 18.105c-.001.033-.015.075 0 .094.177.042.242-.054.329-.122-.064-.065-.245.004-.329.028M44.268 18.58c.03.038.08.061.14.076.196-.097-.127-.357-.14-.077M42.28 18.3c-.029.12.04.153.134.128.039-.11-.049-.175-.134-.128M39.218 18.044c-.003.016 0 .04-.015.04.005.02.025.03.048.036.045-.024.024-.11-.033-.076M44.24 18.744l.063.006c.012-.02.035-.027.038-.059-.042-.02-.104-.03-.1.053M41.314 18.398c.105.104.254.14.427.138.167-.002.295.129.44.109-.024-.107-.17-.081-.302-.126-.145-.049-.375-.19-.565-.121M43.9 18.677c-.003.025.013.033.016.052.061 0 .039-.083-.015-.052M44.534 18.743a.1.1 0 0 0-.066.034c-.016.032.032.011.016.043.037.015.032-.022.063-.014.012-.034-.006-.044-.014-.063M45.952 18.953c.012.016.047.02.062.007l.004-.042c-.027-.015-.065-.013-.066.035M44.789 18.926c.11.036.245.045.334.024-.084-.02-.31-.12-.334-.024M45.778 19.008c.002.035.091.033.113.022-.006-.04-.088-.051-.113-.022M42.874 18.748q-.055-.01-.057.046c.032.04.086-.01.057-.046M40.773 18.54c-.021-.007-.028.004-.042.006-.007.02.004.027.006.041.031.009.035-.018.036-.047M44.936 19.025l-.008.072c.148.139.18-.182.008-.072M43.26 18.861c-.031-.012-.017.032-.043.026.013.026.023.018.05.016.006-.021-.005-.028-.007-.042M40.826 18.629c-.02-.007-.027.004-.041.006q.002.026.038.024zM40.432 18.588l-.003.03c.019 0 .05.016.043-.015q-.013-.014-.04-.015M39.306 18.512c.009 0 .009.005.009.011.09.008.002-.102-.01-.01M45.853 19.183c-.026-.006-.044 0-.044.026.026.006.05.009.044-.026M39.69 18.542q-.034-.007-.052.005c.007.02.015.038.047.036zM36.14 18.3c-.008-.05-.027-.078.007-.126-.025.004-.05.009-.056.036-.03-.017-.044-.047-.101-.042l-.016.015q.082.06.166.117M45.938 19.286c-.019.071.016.1.084.102.011-.012.02-.03.035-.038.004-.065-.067-.098-.119-.065M39.15 18.58c-.026-.006-.034.01-.034.038l.04.004c.007-.02-.004-.027-.006-.042M44.78 19.207l-.02-.002c0 .009-.006.009-.012.009l-.002.02c.009 0 .009.005.009.012l.02.002c0-.01.005-.01.011-.01l.002-.02c-.008.001-.009-.005-.009-.01zM40.877 18.958c.002.057.091.057.104.011.007-.072-.091-.067-.104-.01M40.534 18.902l-.05-.006c.006.024.016.043.046.046zM39.981 18.865a.07.07 0 0 0-.051.005c.011.018.017.041.046.045zM36.63 18.642q.012 0 .023.002c.024-.027.023-.04.019-.081q-.07-.01-.086.048zM48.388 20.073c.047.072.154.065.243.088.117.03.232.103.336.097-.139-.093-.428-.194-.58-.185M40.283 19.21c0 .035-.035.027-.047.047-.035.106.07.149.146.109.05-.083.024-.164-.099-.156M51.48 20.426a.022.022 0 0 0-.004.04c.002-.027.02-.018.005-.04M39.549 19.196c-.007.024.016.024.005.052q.021-.008.042-.016c-.007-.019-.015-.037-.047-.036M47.717 20.16c.03.096.226.057.314.106-.004-.033.03-.017.026-.05-.111-.008-.223-.064-.34-.056M37.558 19.27a.24.24 0 0 0 .133-.09c-.067-.039-.22-.075-.266.001zM45.936 20.11l-.005.042c.023.008.05.026.072.008.015-.047-.036-.07-.068-.05M40.44 19.717c.024-.015.059-.06.04-.09-.049-.065-.143.068-.04.09M38.04 19.363l-.005.04c.028.005.055.007.053-.025q-.014-.016-.049-.015M44.25 20.447c.011-.033.024-.064.032-.101-.132-.257-.335.166-.032.101M46.84 20.602c-.012.06.044.091.097.072a.062.062 0 0 0-.097-.072M48.502 20.785c-.012.038.008.05.002.084.052.026.079.025.135.014.006-.071-.07-.146-.137-.098M42.532 20.206c-.1-.043-.109.13-.025.133.069.003.097-.103.025-.133M39.851 20.115c.022.038.086.053.1.053.136-.007.104-.233-.019-.222-.063.006-.139.071-.08.17M41.847 20.229c0 .017-.012.016-.014.03-.002.06.064.082.11.053.015-.062-.035-.114-.096-.083" clip-rule="evenodd"/><path fill-rule="evenodd" d="M39.664 20.002c-.02.127.1.14.168.195.022.021.04.082.09.051.022-.065-.052-.052-.064-.09-.02-.085-.092-.17-.194-.156M44.348 20.52c-.002.01-.014.007-.022.008q-.015.065.045.068c.025-.023.016-.076-.023-.076M39.97 20.19c-.023.033.001.053.023.075.07-.009.06-.11-.023-.075M44.718 20.799q-.012.045.036.044c.034-.024-.005-.073-.036-.044M39.688 20.266c-.03-.002-.05.007-.046.047.018 0 .02.014.04.014.015-.012.018-.047.006-.062M48.861 21.26q-.016.016-.015.051c.032-.014.051.01.073-.002 0-.033-.033-.037-.058-.048M48.028 21.195c.208.17.569.209.806.324.03-.06-.04-.054-.066-.07-.083-.047-.205-.076-.323-.127-.128-.055-.257-.158-.417-.127M41.196 20.516c-.003.018.01.023.006.042.05.011.08-.002.078-.054-.022-.024-.073-.014-.084.012M47.709 21.235c.02.056.102.062.158.09 0-.069-.118-.086-.158-.09M47.418 21.299c.012.074.156.087.2.104-.014-.074-.147-.092-.2-.104M40.588 20.61l-.006.051c.017.016.098.034.105 0-.011-.043-.054-.059-.1-.051M39.857 20.555c-.014.009-.039.006-.053.015-.012.031.026.023.015.054q.019-.012.052-.005c.009-.032-.01-.042-.014-.064M46.294 21.495c-.029-.034.026-.043.029-.07.011-.113-.109-.22-.232-.201-.15.116.029.333.203.271M42.945 20.96c-.018-.004-.023.01-.042.005q-.012.048.037.045a.04.04 0 0 0 .005-.05M49.867 21.877c-.013.003-.017.017-.032.018.002.013.016.017.017.032.014-.002.018-.016.032-.017-.002-.014-.016-.018-.017-.033M40.97 21.266l-.041-.005c-.016.04.026.054.047.036a.05.05 0 0 1-.007-.031M43.404 21.602c-.026.07.05.093.109.064.015-.078-.064-.11-.11-.064M41.616 21.416c-.051-.002-.056.066.003.063-.001-.025.021-.02.016-.05q-.017 0-.02-.013M42.891 21.58c.012.029.034.049.08.05.005-.008.01-.017.022-.018-.001-.037-.066-.022-.102-.031M41.109 21.539a.04.04 0 0 0-.007-.03.05.05 0 0 0-.029.007zM41.38 21.664c-.007.05.05.047.1.052.043-.05-.084-.134-.1-.053M51.644 22.772c.013.017.052.015.053-.015-.014-.018-.056-.021-.053.015M42.062 21.776l-.003.03c.02.007.027-.004.041-.005q-.002-.026-.038-.025M47.254 22.556a.43.43 0 0 0 .091.333c.042-.038.106-.049.165-.066.026-.053.048-.113.09-.148-.039-.107-.24-.207-.346-.12zM47.028 22.501c-.027.01-.034.018-.026.049q.034.006.051-.005c.013-.032-.023-.024-.025-.044M46.965 22.61c-.019.071.016.1.084.102.012-.012.02-.03.035-.038-.008-.043-.06-.091-.119-.064M45.736 22.597c-.014.002-.018.016-.032.017q.002.026.038.024c.007-.02-.004-.027-.006-.041M44.377 22.738c0-.038.032-.038.057-.047.043-.174-.206-.303-.247-.14-.023.088.047.188.19.187M46.824 22.752c-.071-.022-.118.01-.131.049-.042.125.182.251.229.117.03-.082-.04-.148-.098-.166M48.06 22.995q-.003.039.035.045c.03-.021-.01-.07-.036-.045M42.915 22.554c.002.027.027.06.057.037-.003-.027-.03-.057-.057-.037M46.965 23.006c-.003.031.07.038.063-.003-.02-.025-.045-.007-.063.003M43.447 22.683c-.02.006-.04.032-.025.049.034.01.04-.032.025-.05M45.969 22.987c.017.018.028.04.069.038q0-.018.013-.02c-.006-.04-.052-.014-.082-.018M46.8 23.177c.002.04.031.056.077.06.021-.064-.055-.113-.077-.06M49.747 23.63c-.013.042.01.055.046.057 0-.018.015-.02.014-.04-.025-.016-.028-.026-.06-.017M49.734 23.953c-.013.051.014.07.066.07.013-.056-.028-.083-.066-.07M47.716 23.763q0 .019-.013.02c.002.04.026.06.066.07.058-.032.012-.131-.054-.09M45.503 23.816c-.031-.005-.05.03-.036.047.032.008.035-.018.036-.047M45.86 24.03c.007.016.011.034.037.035a.05.05 0 0 0 .013-.03.04.04 0 0 0-.05-.005M49 24.639c-.027-.002-.025.032-.028.06.024.005.041.024.062.006l.002-.02c.012-.035-.036-.022-.037-.047M50.583 24.97c-.016-.004-.019.008-.032.008.001.042.05.048.065.08.023-.007.04-.022.038-.06-.046-.026-.06.027-.071-.028M51.255 25.082c-.005.025-.007.05.003.063.049.013.063-.015.069-.056-.018-.022-.049-.01-.072-.007M48.791 25.923c.06-.143-.108-.386-.252-.298-.138.084.03.392.252.298M47.326 25.561c-.05-.002-.056.066.004.063.018-.014 0-.04-.004-.063M47.529 25.74q-.025.01-.026.05c.02.001.01.029.039.024.005-.009.01-.018.023-.018.008-.036-.028-.035-.036-.057M49.188 26.35c.01.1.13.162.219.117.057-.13-.16-.206-.22-.117M49.559 26.713c-.038-.013-.052.029-.036.047.031.009.034-.018.035-.047M43.998 14.854q-.026-.004-.029-.024c-.069.074-.195.079-.24.184.17.033.28-.11.425-.144.018-.125-.132-.09-.156-.016M36.728 16.435l.01.014c-.005.036-.034.043-.04.08l-.01.002a14 14 0 0 1-.275.632l-.106.223c.042.006.083.011.102-.01-.05-.095.111-.15.048-.256.029-.043.123-.005.162-.036.06.095-.06.157-.105.198-.03.065.021.094-.025.133-.025-.014.02-.084-.034-.076-.04-.011-.033.036-.038.069-.12-.03-.143.108-.127.206-.012.013-.03.017-.036.038l-.06-.029-.134.276c.029.008.059.005.086-.018.046.05-.112.09-.08.16.046.038.094-.006.119-.03.034.019.03.093-.002.114.04.024.142.057.189.104-.035.062-.129.05-.15.13l.243.17c.07-.003.136-.012.175-.053a.22.22 0 0 0 .177.018c-.007.095-.05.154-.066.231l.219.15.03-.017c.015.004.006.028.008.043l.01.006a.54.54 0 0 0 .07-.301c.016-.024.066-.006.06-.057.2.027.188.227.347.287-.002.04-.03.048-.04.08-.12-.03-.17-.006-.273.003a.3.3 0 0 1 .026.117l.163.109c.052-.026.108-.043.157-.023.02-.044-.03-.052-.002-.074.097.114.338.07.365-.076.07.11.149.213.253.297l-.008.073c.013.02.052.02.046.056-.021.017-.067.003-.086.023-.034.066-.005.127.047.151-.002.02-.03.01-.025.04a.14.14 0 0 0-.058-.012 106 106 0 0 0 1.24.798l.038.009c.035-.083.059-.12.065-.224.036-.021.08-.034.102-.072.057-.002.075.067.133.034-.005-.049-.058-.06-.12-.064.11-.185.041-.437-.064-.581.003-.123-.082-.174-.154-.236a.2.2 0 0 0-.032-.097c-.03-.013-.03-.013-.062-.007-.061-.11-.207-.11-.3-.146.034-.044.02-.078.014-.134-.038-.01-.057-.036-.089-.051.023-.048.039-.007.084-.002.023-.046.063-.071.059-.15-.071-.075-.206-.033-.168.097-.035-.007-.038-.04-.046-.068.005-.052.044-.063.054-.11-.013-.023-.017-.055-.057-.057.006-.04.077.001.097-.022.02-.054-.023-.057-.022-.096.02-.052.065-.076.087-.127.036.001.083.017.105 0 .016-.043.003-.033-.003-.073a.2.2 0 0 0-.095.001c-.002-.057.025-.079.044-.11-.006-.03-.007-.064-.023-.086.023-.05.066-.074.068-.15.088-.056.126-.133.193-.23.013-.02.044-.027.057-.047.065-.097.057-.249.177-.284.002-.064.039-.085.065-.119.03.008.029.04.07.039.128-.058.22-.355.112-.47.035-.018.066-.042.064-.108-.013-.026-.085-.038-.114-.022.015-.059.12-.009.143-.058.03.002.068.013.084-.002.023-.075-.072-.055-.072-.112.003-.043.042-.042.05-.078.05-.006-.02.033.017.044.047-.037.057-.117.063-.203q.025-.027.067-.035c-.041-.044.02-.098.045-.13.181.188.43-.297.118-.218-.005.098-.116.068-.123.164-.038-.007-.022-.057-.067-.059-.098-.008-.184.164-.086.22-.029.024-.049-.05-.093-.02-.031.122-.112.182-.23.196-.09-.083-.171.083-.263-.006.02-.01.045-.016.057-.036-.037-.084-.107.011-.178-.008-.021-.005.002-.046-.015-.054-.066.015-.154.016-.174-.05-.075.002-.069.103-.138.112-.094-.01-.117-.076-.211-.085l-.008.072c-.107-.002-.027-.076-.009-.116.106.069.221-.032.15-.13l-.072-.008c.1-.148.262-.222.383-.346.026.004.05.006.064-.004.01-.021.03-.033.028-.07-.084-.082-.118.011-.195.053-.028.015-.069.008-.096.02-.033.016-.046.052-.07.067-.045.025-.12.04-.154.067-.042.032-.064.086-.107.115a.8.8 0 0 0-.312.364c-.088-.04.003-.138 0-.198-.017-.011-.027-.028-.048-.037-.052-.009-.056.04-.1.042-.063-.009-.048-.08-.094-.104-.041.018-.064-.01-.114-.011-.008-.057-.007-.12-.093-.115a.25.25 0 0 0-.066.13c-.028.008-.054.02-.096.01-.053-.04.026-.152-.077-.165-.038.016-.045.07-.064.109-.056-.027-.052-.103-.147-.1-.03.074-.057.15-.133.165-.045.001-.039-.038-.08-.04-.06.039-.12.001-.18.013l-.007.002-.09.15zm2.874.26c.036.044-.017.057-.023.112-.034-.01-.044-.04-.044-.077.024-.01.034-.036.067-.035M36.97 18.53c-.005.02.012.022.017.033-.017.015-.043.003-.05-.016.016.001.01-.025.033-.017M40.845 21.373a.26.26 0 0 1 .035-.148c-.044-.015-.034.036-.067.035-.12-.11-.245-.246-.442-.192l-.008.002zM1.202 18.597c-.037-.009-.084-.02-.112.014zM1.406 18.39l.016.028c.01-.013.054-.017.04-.037-.008-.036-.036.003-.056.01M1.207 17.44c-.113.03-.133.137-.049.158.101.024.181-.136.05-.157M.11 14.2c.028-.014.052-.03.03-.056-.015.011-.025 0-.041.013q-.004.019.012.042M1.72 15.574c.026-.02.025-.072-.01-.084-.032.018-.038.093.01.083M.067 12.044c.023.037.05.058.091.023.01-.013-.02-.037-.003-.049-.022-.02-.077-.008-.088.026M1.47 13.744c.011.026.024.049.05.02-.012-.026-.028-.038-.05-.02M2.279 15.095c.01.034.037.003.047.037.135-.049.25.145.38.01-.098-.162-.276-.021-.4-.088-.03.008-.008.03-.027.041M3.593 16.82c.035.046.124.067.14-.003-.046-.001-.084-.032-.14.004M.707 11.683q.03.067.086.04c.007-.05-.047-.072-.086-.04M3.028 15.16q.022.034.058.015l-.021-.037zM3.496 15.735c.032.002.063.005.103-.022 0-.011-.002-.022.008-.03-.036-.102-.196-.045-.111.052M2.255 13.543c.016.04.043.041.068.05q.034-.015.042-.038-.04-.065-.11-.012M2.458 13.514l.028.048a.17.17 0 0 0 .077-.045c-.03-.056-.072-.036-.105-.003M4.674 17.141c.021.036.069.006.032-.031-.022.007-.021.02-.032.031M2.091 12.739l.022.038c.049-.018.02-.079-.022-.038M4.268 15.773c-.331.026.125.285 0 0M3.317 14.4c.054.01.107.025.178-.026a.06.06 0 0 1 .012-.045c-.035-.172-.328-.077-.19.072M3.941 15.373c.06-.006.109.004.146-.06-.024-.16-.281-.062-.146.06M3.193 13.535c.048.058.107.071.174.053-.019-.051-.102-.104-.174-.053M5.188 16.919c.075.015.138.074.232.02-.002-.028.001-.054-.026-.088-.066.028-.152-.013-.206.068M4.48 15.61c.021-.018.031.005.053-.019 0-.011-.001-.022.008-.03-.012-.025-.032-.02-.046-.037-.04.02-.04.049-.014.085M4.524 15.29c-.006-.008-.001-.012.004-.016-.073-.134-.133.097-.004.016M4.195 13.94c-.038-.066-.136-.105-.233-.044-.037.139.196.184.233.045M2.56 11.541c.09.054.175.121.286.09-.062-.104-.156-.087-.233-.133-.025.012-.048.025-.052.043M4.248 14.14c-.238-.166-.055.237 0 0M6.399 17.613c-.005-.035-.039-.058-.066-.09-.199.037-.025.267.066.09M3.188 12.254q-.011-.015-.002-.024-.048-.05-.12-.007c-.008.07.094.097.122.031M5.076 15.084c.011.026.027.038.05.02.008-.028-.021-.048-.05-.02M6.24 16.422c-.005-.044-.052-.062-.086-.078-.2.076.048.246.085.078M6.725 17.487c.021.036.069.006.032-.032-.022.008-.021.022-.032.032M1.987 9.32c-.023.077.073.152.123.12.075-.047-.037-.16-.123-.12M5.077 14.21l.016.028c.022-.008.021-.021.032-.032q-.018-.021-.048.004M5.96 15.686c.023.05.072.031.074-.005-.02-.016-.043-.02-.074.005M4.259 12.734q.034.037.084.015c-.019-.051-.05-.05-.086-.04q.012.016.002.025M5.475 14.645c.022.01.042.027.07.01.015-.05-.061-.05-.07-.01M6.942 17.066l.028.048c.06-.032.136.008.176-.052-.051-.064-.133-.01-.204.004M7.113 17.313a.19.19 0 0 0 .14-.07c.016-.235-.316-.049-.14.07M6.14 15.465q.016.034.037.042l.038-.022c.004-.018-.009-.04-.024-.063-.024.013-.046.026-.05.043M7.052 16.552c-.135-.095-.226.126-.082.125.048 0 .11-.061.082-.125M7.693 17.771c.049-.022.067-.053.064-.089-.063-.11-.19.06-.064.089M7.463 17.404q.016.005.027.023c.148-.087.289.014.422-.117-.12-.115-.34.028-.449.094M6.396 15.483c.016.05.047.043.084.014q-.025-.057-.07-.035c.005.01-.008.015-.014.021M5.894 14.479c.088-.06-.02-.133-.07-.075-.01.045.026.08.07.075M3.875 10.44c.016.023.05.023.058-.008-.018-.015-.05-.022-.058.008M5.749 13.51c.023.08.118.061.129 0-.023-.045-.06-.04-.092-.047-.016.014-.002.037-.037.047M7.32 15.715c.023.168.224.033.171-.061-.035-.062-.185-.049-.17.06M5.112 11.968c.017.048.048.043.08.03.008-.05-.06-.075-.08-.03M7.655 15.931c-.236.017.084.22 0 0M5.883 12.904a.06.06 0 0 1 .012-.045c-.025-.06-.065-.062-.104-.067-.064.052.02.163.092.113M6.127 13.405q.019.047.059.015-.015-.034-.037-.04a.05.05 0 0 1-.022.025M6.481 13.854c.113.286.496.043.344-.162-.127-.172-.44-.083-.344.162M8.83 17.815c-.001.118.213.055.142-.044-.038-.054-.14-.032-.142.044M6.35 13.39c.017-.053-.02-.11-.073-.124-.15.047-.026.217.074.125M7.1 14.662l.022.037.037-.022q-.019-.048-.059-.015M8.447 16.946c.016.031.044.019.07.01.004-.045-.055-.05-.07-.01M4.228 9.593c.01.024.023.035.037.042.027-.018-.008-.071-.037-.042M8.354 16.371c.028.058.071.055.125.017 0-.048-.039-.032-.064-.065-.025.015-.057.028-.061.048M7.665 15.18c.023.024.05.033.088 0-.013-.025-.026-.047-.043-.052-.034.013-.046.03-.045.052M5.57 11.342c.036-.018.046-.042.065-.064a.3.3 0 0 0-.053-.11.3.3 0 0 0-.134.013c-.023.081.043.159.121.16M3.971 8.74c.008.032.027.017.037.042.046-.017-.002-.083-.037-.041M9.012 16.81c-.05-.058-.18-.069-.214.009.057.057.188.097.214-.01M8.696 15.967c-.07-.008-.106-.043-.157-.025-.183.067-.143.343.047.32.108-.013.216-.182.11-.295M6.06 12.044l.023.039c.045-.012.03-.057 0-.065a.05.05 0 0 1-.022.026M9.062 17.025c.09.127.362.155.367-.034q-.157-.086-.367.034M3.735 7.903c.024.052.1.117.175.077.151-.079-.032-.305-.15-.233-.038.023-.063.071-.025.156M7.762 14.404c.027-.08-.056-.147-.113-.126-.125.045-.027.267.113.126M7.48 14.145c.084.06.191.175.294.06-.07-.111-.212-.1-.294-.06M8.215 15.348l.011.019c.094.046.22-.027.312.024.26-.083.452.098.726-.038q-.013-.024.003-.04c-.179-.15-.431-.14-.66-.001-.114-.017-.301-.06-.392.036M6.28 11.955c.02.024.04.048.075.02a.07.07 0 0 0-.018-.053c-.02-.006-.053.013-.058.033M6.221 11.835c.034.027.07.046.113.037-.018-.056-.053-.048-.08-.07-.018.01-.013.024-.033.033M5.055 9.702c.018.012.037.023.064.001a.07.07 0 0 0-.037-.042c-.012.013-.016.028-.027.041M4.716 8.975l.011.018c.007-.006.011-.001.015.004l.019-.01c-.007-.008-.002-.012.004-.016l-.011-.018c-.007.006-.011.001-.015-.004l-.019.01c.007.008.002.012-.004.016M5.203 9.603l.057-.033q-.015-.03-.003-.05c-.07-.092-.179.045-.054.083M8.423 15.021c.064.085.169.153.25.073-.026-.122-.152-.123-.25-.073M10.08 17.678a.3.3 0 0 0 .073.06c.08-.025.091-.068.06-.139-.07-.02-.107.017-.134.079M7.246 12.805c.056.045.107.11.172.118.006-.063-.111-.113-.172-.118M7.513 13.15c.028.04.06.062.107.027 0-.01-.002-.022.008-.03-.03-.061-.1-.046-.115.003M8.17 14.219c.035.017.07.038.12.007-.038-.005-.097-.05-.12-.007M9.1 15.577a.2.2 0 0 0-.08-.004c-.081.11.142.133.08.004M7.434 12.927l.011.019c.078.066.182.029.269.061.096.057.192.116.318.059-.065-.135-.23-.1-.352-.116-.086-.011-.166-.068-.246-.023M4.997 8.554c.041-.013.01-.063-.014-.068l-.029.016c-.007.025.02.055.043.052M7.509 12.574l-.022-.038a.023.023 0 0 0 .022.037M8.29 13.853c.076.07.17.073.253.123.003-.109-.159-.093-.22-.155-.018.009-.014.024-.033.032M3.83 6.138c0-.034-.032-.07-.078-.069-.022.023.022.113.078.069M7.653 12.028c.033.018.059.066.107.028.01-.06-.085-.085-.107-.028M10.025 16.052c.013.05.06.047.07.01-.017-.026-.038-.038-.07-.01M10.95 17.183c-.041-.006-.092.02-.134.014-.187.219.324.264.134-.014M11.304 18.109l.006-.006c-.012-.02-.038-.008-.048.009zM10.15 16.109c.044.015.079.069.14.02 0-.011-.001-.022.008-.03-.038-.066-.144-.066-.149.01M6.802 10.366l.047-.028c.012-.045-.032-.085-.07-.1-.077.027-.025.114.023.128M5.647 8.407c.012.026.027.038.05.02-.011-.026-.024-.048-.05-.02M11.341 18.021l.017.029a.3.3 0 0 0 .198-.103c-.07-.085-.156.014-.215.074M7.605 11.465c.016-.012.027 0 .043-.013.001-.038-.002-.039-.03-.072l-.037.022c-.004.018.009.04.024.063M7.985 11.912c.04.077.094.096.144.134.041-.017.032-.011.067-.039-.057-.05.013-.067-.027-.112-.037.007-.028.01-.043.037-.039-.036-.08-.062-.14-.02zM8.545 12.446c-.305.13.202.324.131.09-.017-.055-.086-.068-.13-.09M10.086 15.323c.013.041.058.026.064 0-.014-.027-.039-.013-.064 0M9.003 13.398c.012.004.03-.01.04.002.03-.02.024-.052.013-.084-.05-.012-.11.01-.053.082M10.801 16.447c.012.016.029.012.049-.003l-.017-.028c-.022.007-.021.02-.032.031M10.714 16.124c.035-.011.025-.035.015-.059q-.014-.002-.033.007a.07.07 0 0 0 .018.052M6.775 8.983c-.014-.082-.14-.193-.228-.189a.35.35 0 0 0 .228.189M9.159 12.807q-.065-.121-.15-.079c-.161.082.092.29.15.08M10.068 14.679c.02.037.05.04.082.03-.02-.042-.045-.056-.082-.03M11.359 16.868c.031.015.053.066.097.033.003-.029-.083-.069-.097-.033M8.86 12.455c0-.011-.001-.022.008-.03-.027-.04-.06-.063-.106-.028-.014.054.04.103.098.058M5.624 6.944c.005-.018.027-.031.052-.044.017-.075-.065-.166-.156-.089.005.066.046.128.104.133M11.3 16.44c-.24.199.257.156 0 0M9.45 13.498c.011.026.03.023.053.006-.012-.026-.03-.023-.053-.006M9.932 14.052c.171-.1-.104-.26-.196-.09.044.108.127.07.196.09M9.759 13.562c-.063-.072-.133-.116-.221-.09.037.051.14.104.22.09M10.225 14.33c-.01-.026.011-.045-.005-.073q-.034-.011-.067-.025c-.123.045-.028.184.072.099M9.434 13.186c.011.026.03.023.053.006-.011-.026-.027-.038-.05-.02.007.006.002.01-.003.014M8.375 11.26c.019-.04-.03-.08-.073-.06-.011.048.026.081.073.06M10.386 14.737q.06-.026.05-.068-.032-.032-.08-.004c0 .032 0 .05.03.072M8.797 11.888a.16.16 0 0 0 .158-.04c-.062-.112-.116-.013-.158.04M11.295 14.503c.07.017.12-.057.103-.11.086-.01.143.094.234.068.025-.122-.134-.192-.21-.224-.046-.108-.158-.135-.238-.208-.06-.055-.112-.164-.19-.082.043.14.182.142.253.277-.166-.066-.446-.147-.66-.22-.026-.01-.024-.041-.064-.065-.044-.027-.107-.027-.158-.05-.065-.029-.128-.112-.206-.085-.06.02-.092.076-.1.136q.141.157.333.126c.045.055.116.048.167.108.087.102.106.271.222.334.142.069.333-.049.484-.013.024.026 0 .038.024.063l.048-.028c-.008-.03-.03-.008-.042-.027M12.409 17.926q.36.064.739.07c.027.014.02.043.037.042.025-.014.008-.014-.001-.025.125-.009.304-.084.25-.21-.034-.08-.125-.083-.197-.116-.135.051-.102.146-.155.219-.204-.063-.436-.016-.648-.047-.032.016-.032.04-.025.067M12.568 18c.018.023.044.017.07.01-.018-.025-.061-.04-.07-.01M11.735 16.52c.018.026.04.032.07.01-.008-.033-.008-.034-.034-.057-.024.012-.02.032-.036.047M11.86 16.01c-.005-.034-.001-.065-.036-.106.016-.02.04-.037.075-.07-.002-.071-.002-.123-.071-.164.221-.088.403-.025.638-.167-.011-.032.009-.057.014-.085-.142-.159-.327-.025-.524.074-.1.008-.307-.024-.342.122.025.062.068.051.105.068-.021.046-.074.083-.046.142-.083.06-.18.014-.219.089.119.097.236.2.406.097M8.68 11.096c.033-.005.041-.022.061-.049-.025-.06-.065-.062-.112-.037-.005.024.027.079.05.086M11.424 15.752q.015.005.026.023c.04-.014.033-.04.01-.07-.035.009-.02.032-.036.046M12.343 17.31c.014.027.039.013.064 0q-.035-.045-.065 0M11.34 15.543c.12.035.198-.09.133-.168-.067-.08-.27.017-.133.168M8.91 10.654c-.03-.072-.08-.068-.126-.081-.138.103.079.242.126.081M12.617 17.227c.015.015.037 0 .047.036.021-.016.027-.036.062-.049-.002-.044-.026-.027-.053-.046-.03.017-.04.039-.056.059M8.1 9.084c-.18.025-.08.283.051.24.092-.03.084-.112.03-.211a.2.2 0 0 1-.081-.03" clip-rule="evenodd"/><path fill-rule="evenodd" d="M12.06 15.933c-.007-.024.007-.042-.015-.069-.011 0-.022.002-.03-.008-.076.027-.024.139.044.076M13.575 18.107c-.04-.1-.21-.083-.304.01l.01.02.3.015a.1.1 0 0 0-.006-.046M9.663 11.91l.037-.023c-.013-.04-.066-.01-.037.022M9.981 12.406c.022.092.096.145.153.128.225-.065-.048-.37-.153-.129M13.17 17.662c-.003-.04-.021-.044-.045-.077-.116.03-.036.16.045.076M8.73 9.757c-.001-.01-.002-.022.008-.03-.091-.162-.161.119-.008.03M12.03 14.345l-.136-.229c-.15-.068-.31-.101-.457-.183-.192.084.016.194.094.202.108.15.35.292.498.21M13.871 18.062c-.042.004-.067.043-.085.075q-.002.015.003.023l.096.003c.014-.028.012-.066-.014-.1M12.601 16.105l.028.048c.043-.013.062-.024.035-.072-.018-.004-.04.01-.063.024M10.63 12.631c.03-.025-.017-.065-.035-.082-.029.017.014.075.035.082M12.142 15.063a.4.4 0 0 0 .233-.02c-.048-.076-.174-.017-.216-.016-.024.007-.003.026-.017.036M12.604 15.847c.048 0 .092-.005.112-.052-.032-.047-.074-.05-.122-.032.004.028-.024.048.01.084M14.158 17.497c.037-.036.067-.075.072-.12-.025-.027-.059-.023-.091-.023-.025-.025.026-.03-.01-.059-.205-.129-.292.168-.47.21-.061.126.034.062.126.017.04-.02.118-.007.178-.027.07-.023.148-.058.195.002M10.308 11.778q-.015.011-.024.002c-.035.045.056.053.024-.002M14.04 18.041c.046.037.14.036.176.013-.04-.06-.14-.042-.176-.013M12.417 15.224c.045-.014.079.012.133-.039.075-.231-.328-.137-.133.038M12.852 15.918c-.017-.02.005-.03-.018-.052-.036.015-.026.082.018.052M13.066 15.732c-.127-.096-.254-.192-.391-.247-.051.014-.01.051-.036.072.098.043.214.226.332.256.042.01.095-.028.095-.081M8.301 8.132c.008.022.021.02.032.032q.021-.02-.004-.049zM14.213 18.159c.02.029.084-.02.092-.041-.036-.02-.082.007-.092.04M12.182 14.628c.028-.025.037-.055.009-.095-.011.001-.022.002-.03-.008-.068.028-.032.11.021.103M13.06 14.888c.089.088.036.26.165.237.043.087.091.17.168.198.072-.023.018-.087.011-.135-.005-.032.006-.085-.003-.114-.034-.111-.145-.179-.217-.259-.006-.029.004-.053.005-.08-.093-.102-.22-.07-.34-.071.024-.18-.312-.136-.313.015-.08.026-.15-.064-.213-.03-.116.063.025.146.116.151.241-.103.38.186.62.088M8.824 8.778c.019.041.045.054.081.03.006-.022-.018-.063-.039-.068q-.034.015-.042.038M11.593 13.43c.03.18.233.065.213-.033-.022-.103-.238-.114-.213.034M13.7 16.852c.014.032.039.018.065 0-.012-.045-.057-.03-.065 0M12.234 14.34c.016.01.03.022.053.007q.003-.019-.012-.043c-.036.007-.027.01-.041.037M13.856 16.965c.006-.02-.014-.047-.03-.072-.077 0-.053.13.03.072M13.25 15.958c.122-.037.061-.152-.015-.158-.102.034-.058.147.016.158M14.152 17.552c.047.029.09.067.16.01.003-.099-.142-.084-.16-.01M13.894 17.048c.09.148.308.001.257-.112-.067-.145-.24-.005-.257.112M12.858 15.095c-.023-.057-.06-.057-.099-.058-.05.057.049.107.1.058M14.376 17.845c.033.042.107-.005.117-.043-.016-.032-.046-.01-.066-.025-.04.017-.026.048-.05.068zM9.542 9.514l.022.037c.06.005.038-.089-.022-.037M13.675 16.392c.025.06.071.038.108.052.063-.067-.072-.107-.108-.052M14.785 18.157c.005-.013.008-.027.024-.038q-.025-.048-.067-.025-.006.03.008.065zM12.22 13.4c-.035-.084-.093-.081-.142-.11-.264.101.12.383.142.11M11.29 12.195c.017.08.124.163.215.144.161-.034.217-.283.037-.42-.15-.03-.297.126-.252.276M13.635 15.953c-.024-.012-.045-.035-.068-.05-.034.043.038.061.067.05M12.28 13.657c-.011-.024-.024-.046-.041-.05-.028.016.011.082.042.05M12.47 13.91c.064-.066-.083-.14-.123-.186-.023.075.085.137.122.185M10.332 10.22q-.015-.032-.036-.04c-.047.024-.014.09.036.04M9.685 9.122c.055-.01.02-.085-.018-.053a.07.07 0 0 0 .018.053M13.014 14.504c.022-.095-.115-.119-.163-.034.014.064.1.058.162.034M8.476 6.962c-.01-.016 0-.026-.012-.043-.056-.01-.033.075.012.043M12.75 14.233c.016.033.063.01.07-.014q-.026-.048-.067-.026c-.004.013.01.03-.002.04M12.228 13.215c.189-.036.113-.303-.042-.246-.119.045-.112.211.042.246M9.643 8.852c.074-.031-.026-.122-.066-.09-.004.03.035.095.066.09M12.963 13.891c-.004-.036-.033-.078-.058-.12-.02.006-.036-.007-.06.009.003.062.07.122.118.111M9.202 7.491c-.017.02.027.057.046.036-.01-.035-.029-.03-.046-.036M13.88 14.988c.055-.032.004-.145-.054-.136-.084.048-.014.148.054.136M12.527 12.604c-.059.173.116.324.257.261.281-.126-.026-.54-.257-.26M9.23 7.101c.02-.006.036.007.059-.009 0-.025 0-.071-.035-.081q-.068.03-.023.09M13.778 14.726c.106.059.277.038.384-.005-.023-.065-.126-.022-.191-.018-.071.005-.154-.015-.193.023M13.273 13.454c-.206.005-.124.254.008.188.065-.033.08-.115-.008-.188M10.595 9.067c-.007-.036-.01-.028-.037-.042-.027.017.008.071.037.042M12.75 12.37c-.234-.078 0 .22 0 0M11.641 10.424c.032.039.091.011.052-.044-.024.013-.047.026-.052.044M14.432 14.896c-.012-.014 0-.022-.007-.034q-.03-.044-.08-.005c-.012.051.032.088.087.039M12.851 12.3c.042-.106-.08-.2-.15-.298-.082-.115-.128-.252-.187-.34l-.03.016c.094.195.242.445.367.622M10.47 8.177c-.012-.033-.034-.03-.051-.046-.03.023.019.082.052.046M14.547 14.829q-.024-.06-.067-.05c-.053.038.011.108.067.05M11.625 9.892c.024-.012.046-.025.051-.042-.024-.032-.05-.052-.086-.039-.006.022.02.053.035.081M14.38 14.389c-.018-.027-.032-.066-.055-.071-.032.034-.007.112.054.07M12.723 11.36c.009.036.037-.003.057-.01-.018-.014-.05-.021-.057.01M11.724 9.643c.036-.01.054.007.075-.005.174-.098-.249-.262-.075.005" clip-rule="evenodd"/><path fill-rule="evenodd" d="M13.23 11.63c-.01-.241-.259-.32-.403-.357-.039-.068-.077-.138-.15-.079-.027.092.078.075.129.13.03.035.019.076.042.117.082.142.239.252.382.188M14.007 13.077c.029-.02.074-.034.08-.06-.075-.177-.198-.172-.313-.202-.015.094.159.206.233.262M12.55 10.254a.26.26 0 0 0-.022-.168c-.208-.106-.229.334.021.168M13.564 12.128c.123-.051.108-.13.027-.195-.12.036-.121.153-.027.195M15.278 14.905c.015-.008.034-.026.044-.012.015-.018.01-.041 0-.065-.05-.024-.11.048-.044.078M12.709 10.174l-.034-.057c-.026.003-.046-.013-.075.005.008.048.038.107.109.052M14.26 12.892c.024-.156-.04-.306-.15-.452-.108-.141-.076-.333-.185-.445-.077.088.037.196.082.337.05.155.072.44.252.56M12.866 10.506c.024-.012.02-.032.036-.047-.04-.054-.099.02-.036.047M12.522 9.923a.1.1 0 0 0 .072.035c.038-.006-.01-.035.027-.041-.01-.042-.04-.014-.053-.046-.037.011-.034.034-.046.052M11.807 8.58c.006-.02-.013-.053-.033-.057l-.039.022c.005.034.03.065.072.035M12.52 9.59a.7.7 0 0 0-.19-.3c.035.085.091.34.19.3M11.965 8.694c.028-.024-.029-.099-.052-.111-.03.03.012.108.051.11M13.576 11.338q.027.053.075.02c.015-.053-.064-.068-.075-.02M14.724 13.263c.007.023.02.022.031.033.023-.008.022-.021.033-.032-.013-.033-.038-.019-.064 0M12.512 9.402l.067-.039c.027-.213-.27-.038-.067.04M13.429 10.935c.01.034.038-.005.05.02.013-.026 0-.03-.018-.051-.022.007-.021.02-.032.03M14.767 13.16c.007.023.02.022.03.033q.022-.019-.002-.049zM14.98 13.524l.029-.017c-.012-.015-.018-.053-.04-.027q-.005.02.012.044M15.626 14.533q-.007-.01.004-.014c-.05-.083-.088.062-.004.014M12.068 8.518c.012.026.027.038.05.02-.011-.025-.024-.048-.05-.02M15.41 14.186q.015.034.037.043c.012-.019.023-.038.001-.065zM17.446 17.372c-.039.038-.051.072-.115.074.02.019.04.037.067.025.005.036-.012.067.028.112l.023.004zM12.104 8.381c.074-.03.077-.077.036-.136-.019-.002-.039.001-.056-.006-.057.038-.042.119.02.142M15.784 14.623c.011.026.03.023.053.006l-.022-.037c-.021.007-.02.02-.031.03M12.768 9.42l.01.019c.008-.007.012-.002.016.004l.018-.011c-.006-.007-.001-.011.004-.015l-.01-.019c-.008.006-.012.001-.016-.004l-.018.011c.006.007.001.011-.004.015M15.02 12.911c.048-.038-.009-.114-.056-.095-.067.038-.001.12.056.095M15.187 13.238l.028.048c.016-.02.027-.042.01-.07zM15.504 13.733q.015.034.038.043c.009-.022.026-.042.01-.07zM17.43 16.737l-.012-.022c-.039-.003-.05.006-.083.035q.037.067.098.044zM11.236 5.792c.033-.086-.041-.173-.077-.263-.048-.119-.058-.263-.129-.349.008.177.103.489.206.612M15.612 13.26c.031-.024.046.01.071.01.113-.038.084-.155.002-.194-.103.01-.157.083-.073.183M9.586 2.927c.013.04.066.01.037-.022-.025.016-.028-.005-.037.022M16.064 13.895c.026-.01.011-.03.043-.038-.014-.011-.029-.016-.042-.027-.012.018-.023.037 0 .065M11.736 6.31c.064-.085-.094-.23-.108-.335-.025.024-.034-.016-.06.009.064.1.086.23.168.327M17.387 15.549a.25.25 0 0 0-.161-.058c.008.082.074.235.168.227zM12.818 7.862l.037-.022c-.008-.025-.01-.06-.038-.067-.048.017-.036.075 0 .089M15.952 12.805c-.029-.012-.089-.013-.104.021-.025.084.15.08.104-.021M17.163 15.078l.037-.022c-.014-.029-.029-.053-.056-.031a.07.07 0 0 0 .018.053M14.175 9.089c-.036.011-.071.02-.108.037-.139.275.355.18.107-.037M12.671 6.78c.06-.029.05-.096.001-.13a.066.066 0 0 0-.001.13M11.779 5.245c.04-.014.039-.038.071-.055-.01-.062-.028-.083-.073-.124-.065.04-.082.152.002.179M15.052 10.71c.027.111.18.01.13-.064-.04-.06-.149-.018-.13.063M16.668 13.055c.018-.043-.008-.106-.018-.118-.092-.112-.267.058-.18.156.045.05.15.074.198-.038M15.505 11.28c.014-.012.022 0 .034-.007.054-.037.031-.107-.023-.128-.063.027-.076.101-.011.135" clip-rule="evenodd"/><path fill-rule="evenodd" d="M16.689 13.287c.122-.062.058-.174.061-.267.005-.032.046-.086-.012-.109-.07.023-.012.078-.037.112-.061.07-.089.185-.012.264M14.176 8.96c.01-.005.014.007.02.013.042-.018.055-.045.03-.081-.036-.007-.075.034-.05.068M16.657 12.906c.043-.002.044-.035.05-.067-.053-.056-.132.017-.05.067M14.182 8.467q.049-.02.016-.06c-.043-.015-.06.05-.016.06M16.9 13.1c.018.026.039.038.07.01-.01-.017 0-.027-.012-.044-.02-.006-.053.013-.058.034M11.963 4.637q.023.004.053-.018c-.033-.019-.025-.05-.048-.062-.028.02-.01.052-.005.08M12.433 5.39c.016-.285-.179-.618-.23-.893-.07.011-.021.068-.018.1.011.1.064.224.094.357.033.144.026.32.154.436M16.164 11.653c.018-.008.014-.023.033-.032-.022-.05-.052-.068-.097-.033-.007.035.035.073.064.065M12.669 5.638c.034-.053-.011-.127-.023-.193-.059.043 0 .155.023.193M12.907 5.845c.056-.056-.023-.188-.035-.236-.055.059.012.183.035.236M16.63 12.114l.047-.028c.002-.024-.033-.105-.065-.09-.031.038-.017.084.017.118M17.043 12.772c.017.007.03.03.047.036.033-.01.003-.037.036-.047q-.021-.008-.037-.041c-.032.012-.03.035-.046.052M13.788 6.681c-.012.047-.054.006-.078.02-.105.061-.122.232-.029.325.196.055.27-.235.107-.345M15.44 9.879c.01.017.024.013.033.032q.047-.02.015-.06a.04.04 0 0 0-.047.028M11.86 3.387c.01.01.024.005.035.017.01-.01.005-.025.017-.035-.01-.011-.025-.006-.035-.018-.01.01-.006.025-.017.036M16.955 11.373l.022.038c.045-.012.03-.057 0-.065a.05.05 0 0 1-.022.027M15.707 9.082c.077-.022.05-.102-.014-.134-.076.037-.054.125.014.134M16.677 10.726c.03.046.092.007.051-.044-.02.018-.03-.005-.053.019q.011.015.002.025M16.012 9.533c.017-.028.02-.06-.007-.099-.01 0-.021.002-.03-.008-.03.025.023.07.037.107M17.102 11.082a.04.04 0 0 0-.02.024q.01.015.023.02 0-.023-.003-.044M17.038 10.771c.048-.025.009-.073-.017-.118-.07-.005-.062.156.017.118M11.509 1.304c.006-.022-.02-.054-.046-.036-.007.023.017.062.046.036M16.706 10.117l.028-.016c-.008-.023-.021-.021-.032-.033q-.021.019.004.05M14.098 5.19a.46.46 0 0 0 .23-.288c-.059-.011-.109-.06-.16-.098-.063.01-.128.03-.184.017-.07.1-.03.334.114.37M14.193 5.418c.027.017.037.018.059-.009q-.015-.034-.038-.042c-.035.01-.005.036-.021.05M14.327 5.404c.074-.03.077-.077.036-.137-.019-.002-.038.002-.055-.006-.032.035-.041.11.02.143M15.092 6.46c.01.01.025.005.036.017q.02-.018-.004-.048c-.022.007-.02.02-.032.03zM16.073 7.533c-.033.023-.053-.004-.076-.02-.178.074-.132.368.035.3.09-.036.133-.158.041-.28M14.539 5.435c.026.074.083.094.125.08.135-.043.103-.314-.043-.27-.09.028-.104.128-.082.19M13.968 4.225q.036-.022.016-.06c-.037-.012-.054.053-.016.06M16.839 8.898c.022-.02.035-.063-.005-.075-.022.02-.03.065.005.075M14.668 5.151c.028-.017-.011-.082-.042-.05-.009.031.022.042.042.05M16.613 8.36c.018.014.052.015.057-.008-.012-.036-.052-.015-.057.008M15.281 6.015c.005-.025.017-.049-.01-.083q-.015.011-.024.002c-.032.03.02.052.034.081M14.921 5.186c.034-.027.03-.063.003-.105-.068.022-.063.12-.003.105M13.45 2.384c.044-.016.04-.044.02-.077-.016.012-.027 0-.043.013.002.032-.005.041.024.064M13.737 2.19c.052-.021.051-.056.018-.1-.056.024-.052.076-.018.1M14.849 4.034q.015-.012.025-.002c.032-.027.035-.061.018-.1-.063-.03-.12.072-.043.102M16.293 5.89c.015.03.058.023.064 0-.013-.032-.038-.019-.064 0M16.253 5.449c.008-.016.02-.032.006-.054q-.015-.002-.034.007a.04.04 0 0 0 .027.047M14.794 2.384c.015.024.043 0 .068-.015-.01-.024-.004-.05-.033-.057l-.02.011c-.036.012.006.045-.015.06M14.08.822c.006.017.018.011.026.023.036-.029.01-.073.027-.106-.02-.016-.043-.02-.073.005.005.056.06.034.02.078M13.752.178c.025-.012.047-.025.052-.043-.02-.05-.053-.045-.091-.024-.009.03.022.048.039.067M16.035 1.75c-.161.04-.265.336-.097.404.16.065.32-.274.097-.404M16.649 3.23c.03.045.092.006.052-.044-.024-.007-.036.025-.052.043M16.675 2.945q.024.014.058-.01c-.01-.018.02-.027-.003-.049-.01 0-.022.002-.03-.008-.035.015-.012.046-.025.067M16.154 1.141c.08-.07.058-.212-.037-.26-.149.033-.077.266.037.26M16.233.595c.013.041.057.026.064 0-.013-.032-.038-.018-.064 0M9.5 12.84q.014.022-.002.04c.108.01.192.116.31.088-.078-.167-.27-.17-.392-.272-.12.063.006.17.084.143M15.462 18.049l.006-.018c.034-.019.059.002.093-.016l.009.007c.239-.06.478-.118.72-.165l.26-.05c-.021-.04-.043-.078-.074-.081-.05.104-.2 0-.252.12-.055.003-.081-.101-.132-.115.044-.111.173-.048.237-.035.076-.015.068-.078.131-.064.004.031-.085.038-.045.078.017.041.053.006.085-.01.049.12.183.053.258-.023.018.003.034.015.055.007q.006.028.013.07l.323-.06a.09.09 0 0 0-.07-.062c.014-.071.148.039.188-.033.005-.064-.063-.077-.1-.082-.005-.041.06-.085.1-.072-.005-.05-.04-.156-.03-.226.075-.01.125.078.207.045l-.007-.314c-.047-.059-.096-.108-.156-.116a.23.23 0 0 0-.096-.163c.086-.053.165-.055.241-.09l-.009-.28-.033-.016c-.007-.016.02-.023.031-.034v-.013a.6.6 0 0 0-.305.13c-.031.003-.047-.052-.086-.014-.105-.19.076-.304.027-.479.036-.023.06-.003.094-.016.05.121.102.149.175.232a.4.4 0 0 1 .085-.096l-.008-.208c-.056-.029-.106-.066-.12-.12-.05.01-.025.058-.062.049.037-.155-.153-.333-.297-.264.052-.13.09-.262.098-.404l.067-.039c.01-.024-.015-.058.02-.076.027.008.045.056.073.06.08-.013.114-.076.101-.136.02-.01.028.02.05-.003a.2.2 0 0 0 .027.057 108 108 0 0 0-.093-1.563l-.017-.038c-.094.023-.14.025-.234.085-.042-.017-.08-.046-.128-.041-.037-.048.01-.106-.054-.136-.04.036-.015.088.02.143-.23.023-.404.242-.462.423-.108.074-.098.18-.106.28a.2.2 0 0 0-.064.089c.008.033.009.034.034.057-.056.121.036.247.063.349-.06-.002-.08.032-.125.073.015.038.006.071.013.108-.056.01-.03-.029-.055-.07-.054.008-.101-.009-.167.045-.02.108.102.196.19.082.016.033-.01.057-.03.081-.048.03-.081.002-.128.024-.012.026-.037.05-.014.085-.038.02-.048-.067-.08-.07-.06.018-.035.056-.07.08-.057.015-.106-.008-.164.006-.021-.031-.038-.082-.066-.09-.048.014-.031.018-.061.049a.24.24 0 0 0 .06.08c-.048.038-.084.03-.123.033-.022.024-.051.046-.06.074-.057.011-.106-.01-.172.036-.104-.04-.195-.024-.321-.019-.025.001-.051-.02-.076-.02-.125.007-.251.11-.358.03-.056.038-.098.02-.143.019-.012-.03.016-.05-.011-.084-.131-.072-.445.037-.476.2-.039-.018-.08-.03-.134.014-.015.028.02.097.052.111-.06.024-.083-.096-.14-.085-.018-.027-.032-.066-.055-.07-.08.027-.002.096-.05.132-.04.025-.064-.01-.1.006-.037-.039.041-.003.027-.041-.06-.017-.137.025-.215.074a.12.12 0 0 1-.072-.035c-.012.062-.098.044-.142.044.049-.274-.528-.18-.263.037.09-.058.132.056.22 0 .018.038-.035.056-.008.095.054.09.257.054.245-.066.038.01-.013.074.041.092.124-.05.227-.019.315.074-.015.13.18.093.16.227-.022-.01-.042-.028-.067-.025-.05.084.077.084.106.157.009.021-.041.027-.037.047.054.046.11.121.067.18.048.063.132-.007.183.047.051.086.009.148.06.234l.068-.04c.066.094-.049.073-.095.082-.008-.134-.168-.168-.208-.046l.04.067c-.192.008-.358-.084-.542-.108-.013-.025-.026-.047-.043-.052-.026.004-.048-.006-.079.02-.017.124.084.093.169.133.03.015.05.053.08.069.033.018.072.006.1.018.05.022.11.076.156.09.054.014.114-.001.166.018a.86.86 0 0 0 .512.036c.021.1-.121.084-.171.125 0 .022-.007.042-.001.065.025.05.07.022.099.058.032.06-.04.092-.03.146.041.024.031.061.062.105-.044.043-.1.082-.04.151a.27.27 0 0 0 .153-.025c.025.02.05.034.07.075-.001.07-.148.075-.094.17.038.023.089-.005.134-.014.012.066-.055.11.008.189.081-.021.164-.046.225.01.03.037-.008.057.017.093.07.026.077.102.124.145l.007.006.187-.018.317-.079zM13.87 15.43c.016-.059.06-.022.111-.052.013.036-.006.063-.039.087-.023-.013-.052-.007-.072-.035m3.25 1.086c.02-.008.01-.024.017-.036.023.006.03.035.018.054-.01-.015-.028.007-.036-.018M17.127 11.412a.3.3 0 0 1-.15.063c.014.047.052.007.072.035-.018.173-.057.365.113.5l.007.005z" clip-rule="evenodd"/></g><defs><clipPath id="a"><path fill="#fff" d="M.067.096H91.8v26.667H.067z"/></clipPath></defs></svg>