<svg xmlns="http://www.w3.org/2000/svg" fill="none" viewBox="0 0 133 181"><path fill="#092294" d="M123.299 126.798c-1.861-4.353-3.617-8.469-2.018-12.964.577-1.49 1.363-2.838 2.15-4.139l8.965-11.308-34.63-51.879-.131-.189-2.858-4.282-.524-.78-1.625-2.437L66.7 0l-23.41 35.035-.13.213-.394.568-2.097 3.146-2.438 3.572-.131.19-.42.59L.981 98.34l37.33 46.934h-3.67l2.804 3.524h-8.31l1.992 2.508h14.89l4.169 5.252h-2.91l19.399 24.389 14.104-17.718a597 597 0 0 1 4.09-5.086h11.744l.917-2.319h-5.243c.918-.567 1.835-1.159 2.857-1.537l1.783-.663-5.426-.284a22 22 0 0 0 1.337-.662c.681-.355 1.415-.733 2.202-.993h.052c1.18.118 2.333.26 3.487.402 3.591.426 7.235.851 10.905.851 1.992 0 3.985-.118 5.977-.449l3.041-.497-3.067-.284c-2.857-.26-5.872-.426-8.782-.568-1.94-.094-3.906-.212-5.846-.354l1.022-.284c1.337-.379 2.622-.757 3.906-.947l1.731-.26-1.652-.497c-.262-.071-.498-.141-.76-.212 6.947-.545 14.077-1.988 17.957-5.678 2.15-2.058 3.172-4.66 2.989-7.736-.341-2.862-1.547-5.677-2.701-8.374m-76.364 22.024h-3.67l-2.176-2.744h3.67l-33.03-41.824 20.473 10.929c1.862.97 3.513 1.845 5.165 2.72l.708.379c7.969 4.684 16.331 8.776 24.406 12.751 3.276 1.608 6.684 3.288 10.04 4.967-3.277 3.005-5.872 6.269-7.786 9.699l-.314.568h.707c.603 0 1.285.024 1.914.071a43 43 0 0 0-.472 1.727l-2.018-.047v.615h-.053v1.206l-.052 4.235h-9.15v1.679l-4.115-5.204h-2.884zM45.572 39.577l.131-.166.42-.615 2.333-3.477 15.99-23.94v59.4L9.789 93.16l33.32-49.986zm20.107 61.01c.078.307.13.639.21.946l.157.757c.786 4.779 2.621 9.368 4.404 13.792 1.888 4.684 3.827 9.533 4.588 14.643 0 .686-.027 1.183-.079 1.538-4.22-2.413-8.756-4.566-13.553-6.837-4.824-2.295-9.805-4.637-14.628-7.381l-.393-.213c-1.573-.828-3.172-1.656-5.453-2.838L9.002 97.961l55.445-22.734v13.768a52.2 52.2 0 0 0 1.232 11.592m47.37 3.643c-6.868 2.886-8.126 8.705-9.332 14.359-.839 3.88-1.678 7.902-4.3 11.071-2.91 2.626-6.553 2.863-10.092 3.099-1.678.119-3.408.213-4.981.568-1.127.118-1.966.213-2.464.26-.21-6.316-3.041-12.088-5.794-17.647-2.15-4.377-4.404-8.895-5.321-13.65l-.341-1.443a53 53 0 0 1-1.495-12.443v-13.13l55.445 22.734-5.138 2.768c-1.756.946-3.958 2.105-6.187 3.454m-44.067 53.936h10.119l-10.119 12.822zm-13.684-.804h9.149v13.626l-10.748-13.626zM89.456 42.037l2.857 4.282.525.78 30.776 46.06-54.632-22.403V11.38l18.849 28.198zm2.516 108.11c-2.988-.118-5.976.946-8.152 3.004l-.656.615 5.007.213a23 23 0 0 0-2.28 1.869H68.117v.733h-2.831v-.922h3.67l.34-6.742 1.94.047.08-.331c.104-.544.654-1.585.838-1.94l.288-.497-3.145-.307c5.583-7.901 13.526-8.824 21.968-9.77 3.591-.402 7.287-.828 10.905-1.846.131-.071.289-.118.446-.189 2.648-1.112 4.509-3.241 5.033-5.725.393-1.868.603-3.808.813-5.701.603-5.701 1.179-11.095 6.475-14.761 2.543-1.372 4.666-2.508 6.16-3.312l.603-.331c-.917 1.182-2.333 3.004-4.011 5.204l-.052.071c-2.857 5.819-.655 11.118 1.442 16.228 1.704 4.116 3.303 8.02 2.359 12.041-1.914 6.529-8.677 7.428-15.86 8.375-3.329.449-6.79.899-9.673 1.987l-2.019.757h2.229z"/></svg>