<svg xmlns="http://www.w3.org/2000/svg" width="121" height="41" fill="none" viewBox="0 0 121 41"><path fill="#1d1d1b" d="M30.41 14.803q0-1.211.468-2.145a3.47 3.47 0 0 1 1.31-1.444q.842-.51 1.945-.51 1.062 0 1.896.525.834.524 1.303 1.472.47.949.469 2.16v.612h-5.42q.042.73.524 1.182.483.453 1.27.452a2.1 2.1 0 0 0 1.02-.255q.468-.254 1.02-.883l1.227 1.329q-.634.743-1.461 1.16a4 4 0 0 1-1.807.415q-1.117 0-1.972-.51a3.45 3.45 0 0 1-1.324-1.436q-.469-.928-.469-2.123zm5.405-.847a1.55 1.55 0 0 0-.53-1.064 1.67 1.67 0 0 0-1.152-.423q-.704 0-1.159.409-.454.408-.565 1.08h3.406zM43.8 12.79v3.107q0 .393.172.568.173.175.572.175h1.669v2.014h-1.848q-1.213 0-1.875-.606-.663-.605-.662-1.728v-3.53h-1.793v-1.868h1.793v-1.97H43.8v1.97h2.868v1.868zm5.378-4.785h1.972v3.632h.028q.772-.933 2.11-.933a2.53 2.53 0 0 1 1.42.408q.62.41.965 1.153t.345 1.721v4.668h-1.972v-4.39q0-.774-.372-1.211-.374-.438-1.02-.438-.705 0-1.104.43t-.4 1.19v4.42h-1.972V8.004Zm8.867 6.798q0-1.211.469-2.145a3.47 3.47 0 0 1 1.31-1.444q.84-.51 1.944-.51 1.062 0 1.896.525.835.524 1.304 1.472.468.949.469 2.16v.612h-5.42q.041.73.524 1.182.483.453 1.269.452a2.1 2.1 0 0 0 1.02-.255q.47-.254 1.02-.883l1.228 1.329a4.7 4.7 0 0 1-1.461 1.16 4 4 0 0 1-1.806.415q-1.118 0-1.972-.51a3.45 3.45 0 0 1-1.324-1.436q-.47-.928-.47-2.123zm5.406-.847a1.55 1.55 0 0 0-.53-1.064 1.67 1.67 0 0 0-1.152-.423q-.703 0-1.159.409-.455.408-.565 1.08h3.406zm4.689-3.034h1.889v.715h.027q.47-.495.973-.715t1.152-.22q.951 0 1.64.592.69.59.966 1.611l-1.848.642q-.316-.948-1.31-.949-.744 0-1.13.46-.387.46-.387 1.262v4.333H68.14v-7.73Zm8.329 3.881q0-1.211.468-2.145a3.47 3.47 0 0 1 1.31-1.444q.84-.51 1.944-.51 1.062 0 1.897.525.834.524 1.303 1.472.468.949.468 2.16v.612h-5.418q.04.73.524 1.182.482.453 1.269.452.55 0 1.02-.255.469-.254 1.02-.883l1.228 1.329q-.634.743-1.462 1.16a4 4 0 0 1-1.806.415q-1.117 0-1.972-.51a3.45 3.45 0 0 1-1.324-1.436q-.468-.928-.469-2.123zm5.406-.847a1.55 1.55 0 0 0-.531-1.064 1.67 1.67 0 0 0-1.152-.423q-.702 0-1.158.409-.456.408-.566 1.08h3.406v-.002Zm4.219 2.072v-5.106h1.97v4.624q0 1.416 1.325 1.415.593 0 .945-.387.352-.386.352-1.028v-4.624h1.97v7.73h-1.888v-.686h-.028a2.14 2.14 0 0 1-.834.657 2.6 2.6 0 0 1-1.11.248q-1.297 0-2-.75-.703-.753-.703-2.094Zm8.591-5.106h1.738v.671h.028q.233-.393.599-.605a1.6 1.6 0 0 1 .807-.212q.87 0 1.392.86h.028q.55-.86 1.517-.86.799 0 1.295.598.498.598.497 1.56v5.72h-1.821V13.3q0-.334-.165-.51-.166-.175-.469-.175a.59.59 0 0 0-.463.196q-.172.198-.172.533v5.31h-1.724V13.3q0-.321-.158-.503a.57.57 0 0 0-.449-.183.62.62 0 0 0-.482.197q-.18.198-.18.533v5.31h-1.82v-7.732zM32.616 29.047h-1.93V27.18h1.93v-1.137q0-1.021.641-1.612.641-.59 1.772-.591h2.124v1.852h-1.89q-.289 0-.44.16-.152.161-.152.453v.875h2.923v1.867h-2.923v5.004h-2.055zm7.005 1.138q0-1.196.47-2.122a3.5 3.5 0 0 1 1.316-1.444q.848-.518 1.938-.518 1.103 0 1.951.518a3.5 3.5 0 0 1 1.317 1.444q.47.926.469 2.122 0 1.196-.469 2.123a3.5 3.5 0 0 1-1.317 1.443q-.848.518-1.951.518-1.09 0-1.938-.518a3.5 3.5 0 0 1-1.317-1.443q-.469-.928-.469-2.123m5.489 0q0-1.02-.462-1.598-.462-.576-1.303-.576-.828 0-1.29.576-.462.578-.462 1.598t.462 1.598q.462.576 1.29.576.826 0 1.296-.584.47-.583.469-1.59m4.136 1.239V26.32h1.972v4.624q0 1.415 1.324 1.415.593 0 .945-.387.351-.386.351-1.029v-4.624h1.972v7.731h-1.889v-.685h-.028a2.15 2.15 0 0 1-.834.656 2.6 2.6 0 0 1-1.11.248q-1.295 0-2-.751-.703-.752-.703-2.093Zm9.143-5.105h1.973v.73h.027q.443-.468.951-.708.51-.24 1.16-.24.715-.001 1.336.356.621.358 1.007 1.095.386.735.386 1.83v4.668h-1.972v-4.39q0-.744-.359-1.197-.358-.452-1.034-.453-.704 0-1.103.43-.4.43-.4 1.19v4.42H58.39zm8.716 3.866q0-1.167.428-2.1.427-.934 1.2-1.46a3.04 3.04 0 0 1 1.75-.524q1.242 0 1.945.7h.027v-3.399h1.971v10.649h-1.82v-.671h-.027q-.813.89-2.123.89-.966 0-1.73-.51-.767-.512-1.194-1.437-.428-.926-.428-2.137h.001Zm5.35.495v-1.005q0-.437-.22-.818a1.7 1.7 0 0 0-.614-.613 1.7 1.7 0 0 0-.876-.233q-.773 0-1.22.59-.45.592-.449 1.584 0 .977.455 1.574.456.598 1.2.598t1.234-.488q.49-.49.49-1.19zm4.468 1.3q0-1.08.696-1.678.697-.597 2.324-.875.856-.146 1.165-.328.311-.182.31-.49a.64.64 0 0 0-.303-.553q-.302-.205-.827-.205a1.5 1.5 0 0 0-1.028.38q-.434.38-.558 1.006l-1.835-.437a3.1 3.1 0 0 1 .621-1.402 3.3 3.3 0 0 1 1.214-.955 3.7 3.7 0 0 1 1.585-.343q1.406 0 2.249.83.84.834.84 2.218v4.901h-1.764v-.86h-.028q-.317.51-.89.794-.57.284-1.289.284-.718 0-1.282-.29a2.16 2.16 0 0 1-.883-.818 2.24 2.24 0 0 1-.317-1.181zm4.578-.803v-.875h-.026a.86.86 0 0 1-.414.35q-.29.132-.91.263-.773.175-1.062.372a.63.63 0 0 0-.29.547.58.58 0 0 0 .255.511q.255.175.738.175.441 0 .841-.183.4-.184.635-.495.234-.312.234-.664Zm8.357-2.99v3.107q0 .393.173.568.17.176.572.176h1.669v2.012h-1.848q-1.215 0-1.875-.605-.662-.606-.662-1.729v-3.53h-1.793V26.32h1.793v-1.97h1.972v1.97h2.868v1.868H89.86Zm12.356 3.953v1.91H95.03v-1.91h2.606v-3.91h-2.47v-1.91h4.442v5.82zm-4.62-9.088h2.028v2.056h-2.028zm6.51 7.133q0-1.196.468-2.122a3.5 3.5 0 0 1 1.317-1.444q.848-.518 1.937-.518 1.104 0 1.952.518a3.5 3.5 0 0 1 1.317 1.444q.468.926.468 2.122t-.468 2.123a3.5 3.5 0 0 1-1.317 1.443q-.848.518-1.952.518-1.089 0-1.937-.518a3.5 3.5 0 0 1-1.317-1.443q-.468-.928-.468-2.123m5.488 0q0-1.02-.463-1.598-.462-.576-1.303-.576-.827 0-1.289.576-.462.578-.462 1.598t.462 1.598q.462.576 1.289.576.828 0 1.296-.584.47-.583.469-1.59zm4.069-3.866h1.971v.73h.028a3.2 3.2 0 0 1 .951-.708 2.7 2.7 0 0 1 1.158-.24q.718-.001 1.338.356.621.358 1.007 1.095.386.735.386 1.83v4.668h-1.972v-4.39q0-.744-.359-1.197-.359-.452-1.035-.453-.702 0-1.102.43t-.4 1.19v4.42h-1.971z"/><path fill="#18abd3" d="M11.656 30.432v9.722L.5 22.916z"/><path fill="#6b7aba" d="M22.813 22.916 11.656 40.154v-9.722z"/><path fill="#a566a6" d="m22.813 20.487-11.157-6.705v14.222z"/><path fill="#f08a78" d="M22.813 20.487 11.656 0v13.781z"/><path fill="#ffeb5c" d="M11.656 0v13.781L.5 20.488z"/><path fill="#58b36f" d="M11.656 13.781v14.223L.5 20.487z"/></svg>