<svg xmlns="http://www.w3.org/2000/svg" width="536" height="122" fill="none" viewBox="0 0 536 122"><g clip-path="url(#a)"><mask id="b" width="536" height="122" x="0" y="0" maskUnits="userSpaceOnUse" style="mask-type:luminance"><path fill="#fff" d="M535.015 0H0v121.639h535.015z"/></mask><g mask="url(#b)"><path fill="#fff" d="M158.247 39.447v16.794h20.4v6.906h-20.4v17.187h22.759v7.3h-31.705v-55.4h31.7v7.22zm53.208 40.412v7.77h-5.494q-6.906 0-10.477-3.336t-3.57-11.1v-21.19h-6.2v-7.612h6.2v-10.75h9.025v10.75h10.437v7.612h-10.437V73.35q0 3.689 1.373 5.1 1.373 1.412 4.826 1.41zm32.568-36.174q7.534 0 12.085 4.866 4.55 4.866 4.552 13.89v25.191h-8.946V63.383q0-5.807-2.982-8.986a10.65 10.65 0 0 0-8.162-3.178 11.2 11.2 0 0 0-8.554 3.414q-3.218 3.414-3.218 10.006v22.993h-8.946V29.56h8.946v24.328a14.5 14.5 0 0 1 5.807-7.534 16.8 16.8 0 0 1 9.418-2.668m67.255 20.247a20.7 20.7 0 0 1-.314 3.845h-33.275q.235 6.67 3.688 9.888a12.07 12.07 0 0 0 8.554 3.218 12.45 12.45 0 0 0 7.573-2.276 9.4 9.4 0 0 0 3.806-6.043h9.574a18.6 18.6 0 0 1-3.61 8.083 18.66 18.66 0 0 1-7.141 5.533 23.4 23.4 0 0 1-9.81 2 22.6 22.6 0 0 1-11.1-2.668 19 19 0 0 1-7.573-7.69 24.34 24.34 0 0 1-2.747-11.85 24.16 24.16 0 0 1 2.747-11.773 19 19 0 0 1 7.573-7.69 22.6 22.6 0 0 1 11.1-2.669 22.56 22.56 0 0 1 11.1 2.63 18.3 18.3 0 0 1 7.3 7.22 20.7 20.7 0 0 1 2.554 10.242zm-9.025-.235a13.3 13.3 0 0 0-1.452-7.1 10.1 10.1 0 0 0-4.395-4.238 13.6 13.6 0 0 0-6.082-1.373 12.56 12.56 0 0 0-8.789 3.218q-3.531 3.218-3.845 9.5zm26.6-10.83a16.67 16.67 0 0 1 6.278-6.71 17.8 17.8 0 0 1 9.417-2.472v9.731h-2.668q-5.886 0-9.456 2.864-3.57 2.865-3.563 9.457v21.9h-8.946V44.391h8.946zm36.57-9.025q7.612 0 12.2 3.885a16.43 16.43 0 0 1 5.611 10.4h-8.473a9.15 9.15 0 0 0-3.021-5.69 9.6 9.6 0 0 0-6.553-2.158 7.7 7.7 0 0 0-5.219 1.61 5.486 5.486 0 0 0-1.844 4.355 4.32 4.32 0 0 0 1.334 3.3 9.3 9.3 0 0 0 3.335 1.961 58 58 0 0 0 5.69 1.57 57 57 0 0 1 7.887 2.276 12.8 12.8 0 0 1 5.179 3.728 10.4 10.4 0 0 1 2.158 6.945 10.8 10.8 0 0 1-1.02 4.882 10.8 10.8 0 0 1-3.1 3.907q-4.12 3.375-11.1 3.375-8.083 0-13.066-3.767a15.51 15.51 0 0 1-6-10.516h8.711a8.22 8.22 0 0 0 3.139 5.73 11.2 11.2 0 0 0 7.22 2.2 7.22 7.22 0 0 0 5.062-1.688 5.55 5.55 0 0 0 1.84-4.288 4.74 4.74 0 0 0-1.413-3.61 9.8 9.8 0 0 0-3.531-2.08 49 49 0 0 0-5.807-1.53 64 64 0 0 1-7.651-2.2 11.93 11.93 0 0 1-5.023-3.57 10.1 10.1 0 0 1-2.08-6.71 11.023 11.023 0 0 1 4.12-8.907q4.12-3.41 11.418-3.41zm46.458 0q8.4 0 13.89 4.434a19.13 19.13 0 0 1 6.827 12.046h-9.5a10.15 10.15 0 0 0-3.806-6.4 12.1 12.1 0 0 0-7.573-2.315 11.4 11.4 0 0 0-8.632 3.65q-3.453 3.648-3.453 10.711t3.453 10.751a11.34 11.34 0 0 0 8.632 3.688 11.95 11.95 0 0 0 7.582-2.348 10.3 10.3 0 0 0 3.806-6.435h9.5a19.28 19.28 0 0 1-6.827 12.085q-5.493 4.473-13.89 4.473a22.6 22.6 0 0 1-11.1-2.668 19 19 0 0 1-7.573-7.69 24.3 24.3 0 0 1-2.756-11.852 24.16 24.16 0 0 1 2.747-11.772 19 19 0 0 1 7.573-7.69 22.6 22.6 0 0 1 11.104-2.668zm46.694 0a17.1 17.1 0 0 1 10.045 2.9 15.63 15.63 0 0 1 5.886 7.691V44.391h8.946v43.241h-8.946V77.587a15.63 15.63 0 0 1-5.886 7.691 17.1 17.1 0 0 1-10.045 2.9 19.17 19.17 0 0 1-10.084-2.668 18.24 18.24 0 0 1-6.945-7.69 26.2 26.2 0 0 1-2.511-11.85 26 26 0 0 1 2.511-11.773 18.24 18.24 0 0 1 6.945-7.69 19.17 19.17 0 0 1 10.088-2.665zm2.747 7.848a12.45 12.45 0 0 0-9.535 3.806q-3.571 3.806-3.571 10.477t3.574 10.476a12.45 12.45 0 0 0 9.535 3.81 13 13 0 0 0 6.749-1.766 12.54 12.54 0 0 0 4.709-4.983 15.7 15.7 0 0 0 1.727-7.534 15.76 15.76 0 0 0-1.727-7.495 12.5 12.5 0 0 0-4.709-5.023 13 13 0 0 0-6.749-1.769zm57.053-8q7.534 0 12.085 4.866 4.55 4.866 4.552 13.89v25.186h-8.946V63.383q0-5.807-2.982-8.986a10.65 10.65 0 0 0-8.162-3.178 11.2 11.2 0 0 0-8.554 3.414q-3.218 3.414-3.218 10.006v22.993h-8.946v-43.24h8.946v9.5a14.5 14.5 0 0 1 5.807-7.535 16.8 16.8 0 0 1 9.421-2.672zM25.29 57.914a5.156 5.156 0 0 1 5.181-5.156l8.59.028a5.164 5.164 0 0 1 5.164 5.164v32.48c.967-.287 2.209-.593 3.568-.913a4.3 4.3 0 0 0 3.317-4.187V45.04a5.165 5.165 0 0 1 5.164-5.165h8.607a5.165 5.165 0 0 1 5.164 5.165v37.393s2.155-.872 4.254-1.758a4.31 4.31 0 0 0 2.632-3.967V32.13a5.164 5.164 0 0 1 5.163-5.164H90.7a5.164 5.164 0 0 1 5.164 5.164v36.709c7.462-5.408 15.024-11.912 21.025-19.733a8.66 8.66 0 0 0 1.319-8.092A60.79 60.79 0 0 0 15.361 20.577a60.79 60.79 0 0 0-7.284 70.67 7.69 7.69 0 0 0 7.334 3.8c1.628-.142 3.655-.345 6.065-.628a4.3 4.3 0 0 0 3.815-4.27z"/><path fill="#8b8b8b" d="M25.102 110.009a60.81 60.81 0 0 0 63.371 5.013 60.82 60.82 0 0 0 33.212-54.203c0-1.4-.065-2.785-.158-4.162-22.219 33.138-63.244 48.63-96.423 53.347"/></g></g><defs><clipPath id="a"><path fill="#fff" d="M0 0h536v122H0z"/></clipPath></defs></svg>