<svg xmlns="http://www.w3.org/2000/svg" width="123" height="123" fill="none" viewBox="0 0 123 123"><path fill="#21325b" d="M25.79 58.415a5.157 5.157 0 0 1 5.181-5.156l8.59.028a5.164 5.164 0 0 1 5.164 5.164v32.48c.967-.287 2.209-.593 3.568-.913a4.3 4.3 0 0 0 3.317-4.187V45.54a5.165 5.165 0 0 1 5.164-5.165h8.607a5.165 5.165 0 0 1 5.164 5.165v37.393s2.155-.872 4.254-1.758a4.31 4.31 0 0 0 2.632-3.967V32.63a5.164 5.164 0 0 1 5.163-5.164H91.2a5.164 5.164 0 0 1 5.164 5.164V69.34c7.462-5.408 15.024-11.912 21.025-19.733a8.66 8.66 0 0 0 1.319-8.092A60.79 60.79 0 0 0 60.567.686 60.788 60.788 0 0 0 8.577 91.75a7.69 7.69 0 0 0 7.334 3.8c1.628-.143 3.655-.346 6.065-.63a4.3 4.3 0 0 0 3.815-4.268z"/><path fill="#979695" d="M25.602 110.51a60.81 60.81 0 0 0 63.371 5.013 60.82 60.82 0 0 0 33.212-54.203c0-1.4-.065-2.785-.158-4.162-22.219 33.138-63.244 48.63-96.423 53.347"/></svg>