<svg xmlns="http://www.w3.org/2000/svg" xml:space="preserve" id="Layer_1" x="0" y="0" viewBox="0 0 41.4 46.1"><style>.st2{fill:#062f4f}</style><path d="M22.7.5c-1.1-.6-2.9-.6-4 0L2 10c-1.1.6-2 2.2-2 3.4v19.2c0 1.3.9 2.8 2 3.4l16.7 9.6c1.1.6 2.9.6 4 0L39.4 36c1.1-.6 2-2.2 2-3.4V13.5c0-1.3-.9-2.8-2-3.4z" style="fill:#87f96e"/><linearGradient id="SVGID_1_" x1="20.677" x2="20.677" y1="47.89" y2="1.78" gradientTransform="matrix(1 0 0 -1 0 47.89)" gradientUnits="userSpaceOnUse"><stop offset="0" style="stop-color:#fff"/><stop offset=".98" style="stop-color:#389e20"/><stop offset="1" style="stop-color:#000"/></linearGradient><path d="M22.7.5c-1.1-.6-2.9-.6-4 0L2 10c-1.1.6-2 2.2-2 3.4v19.2c0 1.3.9 2.8 2 3.4l16.7 9.6c1.1.6 2.9.6 4 0L39.4 36c1.1-.6 2-2.2 2-3.4V13.5c0-1.3-.9-2.8-2-3.4z" style="fill:url(#SVGID_1_)"/><path d="M22.3 10.1c0-.8-.7-1.5-1.5-1.5s-1.5.7-1.5 1.5v27c0 .8.7 1.5 1.5 1.5s1.5-.7 1.5-1.5z" class="st2"/><path d="M33.9 23.2c-.2-.3-.5-.6-.9-.7s-.8 0-1.1.1l-9.7 5.6v3.4l11.1-6.4c.3-.2.6-.5.7-.9.2-.4.1-.8-.1-1.1M7.7 23.4c.2-.3.5-.6.9-.7s.8 0 1.1.1l9.7 5.6v3.4L8.3 25.4c-.3-.2-.6-.5-.7-.9s-.1-.8.1-1.1M33.9 15.6c-.2-.3-.5-.6-.9-.7s-.8 0-1.1.1l-9.7 5.6V24l11.1-6.4c.3-.2.6-.5.7-.9s.1-.8-.1-1.1M7.7 15.8c.2-.3.5-.6.9-.7s.8 0 1.1.1l9.7 5.6v3.4L8.3 17.8c-.3-.2-.6-.5-.7-.9s-.1-.8.1-1.1" class="st2"/></svg>