<svg width="790" height="234" viewBox="0 0 790 234" fill="none" xmlns="http://www.w3.org/2000/svg">
<path d="M154.708 155.1C147.708 157.9 140.108 159.5 132.808 159.5C118.351 159.5 104.721 153.343 98.2075 138.5H130.008L136.208 123.5H94.5065C94.3095 121.434 94.2075 119.269 94.2075 117C94.2075 114.731 94.3095 112.566 94.5065 110.5H141.508L147.708 95.5H98.2075C104.721 80.657 118.351 74.5 132.808 74.5C140.108 74.5 147.708 76.1 154.708 78.9L161.108 63.7C152.508 59.2 142.808 57 133.108 57C109.696 57 86.0295 70.089 77.4625 95.5H62.1075V110.5H74.3865C74.2035 112.606 74.1075 114.773 74.1075 117C74.1075 119.227 74.2025 121.394 74.3865 123.5H62.1075V138.5H77.4625C86.0295 163.911 109.696 177 133.108 177C142.808 177 152.508 174.8 161.108 170.3L154.708 155.1Z" fill="black"/>
<path d="M20.7075 117C20.7075 71.7 50.8075 33.5 91.9075 21.1V0.5C39.5075 13.3 0.70752 60.6 0.70752 117C0.70752 173.4 39.5075 220.7 91.9075 233.5V212.9C50.8075 200.6 20.7075 162.3 20.7075 117Z" fill="black"/>
<path d="M149.508 0.5V21.1C190.608 33.5 220.708 71.7 220.708 117C220.708 162.3 190.608 200.5 149.508 212.9V233.5C201.908 220.7 240.708 173.4 240.708 117C240.708 60.6 201.908 13.3 149.508 0.5Z" fill="black"/>
<path d="M280.289 187H377.493V168.2H302.489V125.8H370.093V106.8H302.489V65.8H377.493V47H280.289V187Z" fill="black"/>
<path d="M640.893 154.2V152.8C640.893 143.734 638.759 136.534 634.493 131.2C631.657 127.658 627.613 124.91 622.365 122.954C627.711 120.888 632.321 117.538 636.193 112.9C641.593 106.434 644.293 98.334 644.293 88.6C644.293 77 641.659 68.134 636.393 62C631.125 55.868 624.525 51.834 616.593 49.9C608.659 47.968 599.359 47 588.693 47H538.893V187H561.093V130.6H589.493C596.825 130.6 602.625 131.4 606.893 133C611.159 134.6 614.225 137.1 616.093 140.5C617.959 143.9 618.893 148.6 618.893 154.6V155.4C618.893 164.334 619.259 170.934 619.993 175.2C620.725 179.468 622.293 183.4 624.693 187H648.693L648.893 186.4C645.693 182.268 643.559 177.8 642.493 173C641.425 168.2 640.893 161.934 640.893 154.2ZM605.493 111.1C600.559 112.1 594.625 112.6 587.693 112.6H561.093V65.2H587.893C595.225 65.2 601.225 65.668 605.893 66.6C610.559 67.534 614.493 69.768 617.693 73.3C620.893 76.834 622.493 82.2 622.493 89.4C622.493 96.068 620.893 101.1 617.693 104.5C614.493 107.9 610.425 110.1 605.493 111.1Z" fill="black"/>
<path d="M730.093 170.2C714.493 170.2 704.293 165.7 696.893 155.3C690.893 146.3 688.193 134.7 688.193 117C688.193 99.3 691.293 86.8 698.093 77.5C704.993 67.9 714.893 64 730.393 64C749.093 64 762.493 75.7 765.893 94.7H789.293C786.393 64.7 763.393 45 730.793 45C687.393 45 663.893 70.5 663.893 117C663.893 163.5 686.793 189 730.693 189C763.093 189 786.393 169.4 789.293 139.5H765.893C762.493 158.6 748.893 170.2 730.093 170.2Z" fill="black"/>
<path d="M456.693 189C492.593 189 512.793 171.7 512.793 140.7V47H490.493V141.5C490.493 159.6 478.093 170.2 456.693 170.2C435.293 170.2 422.793 159.6 422.793 141.5V47H400.393V140.7C400.393 171.7 420.493 189 456.693 189Z" fill="black"/>
</svg>
