<svg xmlns="http://www.w3.org/2000/svg" width="55" height="55" viewBox="0 0 55 55" fill="none"><path d="M27.5003 52.7077C41.4225 52.7077 52.7087 41.4215 52.7087 27.4993C52.7087 13.5772 41.4225 2.29102 27.5003 2.29102M27.5003 52.7077C13.5781 52.7077 2.29199 41.4215 2.29199 27.4993C2.29199 13.5772 13.5781 2.29102 27.5003 2.29102M27.5003 52.7077C32.5629 52.7077 36.667 41.4215 36.667 27.4993C36.667 13.5772 32.5629 2.29102 27.5003 2.29102M27.5003 52.7077C22.4377 52.7077 18.3337 41.4215 18.3337 27.4993C18.3337 13.5772 22.4377 2.29102 27.5003 2.29102M4.58366 18.3327H50.417M4.58366 34.3744H50.417" stroke="white" stroke-width="2.85714" stroke-linecap="round"></path></svg>