<svg xmlns="http://www.w3.org/2000/svg" width="190" height="18" fill="none"><path fill="#f3f5f0" fill-rule="evenodd" d="M158.77.474C158.322.163 157.726 0 156.913 0c-.814 0-1.437.163-1.871.474-.447.312-.813.732-1.138 1.234L143.535 17.89h4.581l2.548-4.026h12.334l2.589 4.026h4.608L159.894 1.708a4.5 4.5 0 0 0-1.138-1.234zm-6.249 10.396 4.324-6.912 4.324 6.912h-8.661zM184.318.393l-7.332 6.248-7.197-6.248h-5.368l10.45 9.244v8.281h4.012V9.691L189.387.393zm-39.454 9.717c.203-.677.325-1.544.325-2.588V6.004c0-1.017-.108-1.884-.325-2.616a3.55 3.55 0 0 0-1.111-1.748c-.515-.461-1.207-.773-2.06-.976-.854-.204-1.925-.298-3.199-.298h-14.272V17.89h3.985v-5l-.027-.028h10.3c1.302 0 2.386-.095 3.24-.244.854-.162 1.545-.46 2.06-.867s.881-.95 1.084-1.64Zm-3.659-3.943v1.206c0 .935-.204 1.545-.597 1.87-.42.312-1.138.475-2.182.475H128.18V3.727h10.205c1.071 0 1.803.176 2.223.528.42.34.624 1.003.624 1.939zM112.267.488c-.379-.325-.894-.488-1.613-.488-.718 0-1.26.176-1.64.488a4.4 4.4 0 0 0-.976 1.22l-9 16.101h3.972l1.83-3.32 5.746-10.572 5.964 10.951 1.654 2.941h3.998l-8.959-16.101c-.271-.488-.596-.908-.976-1.22M101.668.38H85.186v3.362h6.493v14.082h3.483V3.742h6.506z" clip-rule="evenodd"/><path fill="#f3f5f0" d="M83.371.38h-3.456v17.43h3.456z"/><path fill="#f3f5f0" fill-rule="evenodd" d="M67.552 14.34c-.353-.108-.637-.27-.854-.5a1.96 1.96 0 0 1-.447-.868 5.8 5.8 0 0 1-.122-1.288V.38h-3.43v11.453q0 1.668.285 2.806c.19.759.515 1.369.963 1.843s1.057.813 1.816 1.03 1.694.325 2.832.325h9.502v-3.32h-9.203c-.542 0-.99-.04-1.356-.15z" clip-rule="evenodd"/><path fill="#f3f5f0" d="M60.045.38h-3.456v17.43h3.456z"/><path fill="#f3f5f0" fill-rule="evenodd" d="M40.745.692c-.759.217-1.355.556-1.816 1.03-.447.475-.772 1.084-.962 1.857-.19.759-.285 1.708-.285 2.792v5.476q0 1.666.285 2.805c.19.76.515 1.37.962 1.844s1.057.813 1.816 1.03 1.695.325 2.833.325h10.748v-3.32H43.768c-.529 0-.962-.041-1.315-.123a1.55 1.55 0 0 1-.813-.46c-.203-.217-.325-.516-.407-.868-.081-.366-.122-.813-.122-1.355V6.6c0-.542.041-.975.122-1.341.068-.366.204-.664.407-.881s.46-.38.8-.475c.339-.095.772-.135 1.3-.135h10.586V.38H43.578c-1.125 0-2.087.109-2.833.326zM27.23.488C26.85.163 26.336 0 25.617 0c-.718 0-1.26.176-1.64.488a4.4 4.4 0 0 0-.975 1.22l-9 16.101h3.971l1.83-3.32L25.55 3.917l5.963 10.951 1.654 2.941h3.998l-8.959-16.1c-.27-.488-.596-.908-.976-1.22Zm-23.514 6.1q0-1.525.57-2.196c.38-.447 1.043-.664 2.006-.664h10.517V.38H6.197c-1.125 0-2.088.11-2.833.326-.76.216-1.355.555-1.816 1.03C1.1 2.21.775 2.82.585 3.593.395 4.352.301 5.3.301 6.385v11.452H3.73v-6.546h-.027 8.755V7.984H3.716z" clip-rule="evenodd"/></svg>