<svg xmlns="http://www.w3.org/2000/svg" width="720" height="177" fill="none" viewBox="0 0 720 177"><g fill="#343433" clip-path="url(#a)"><path d="M159.503 26.805A26.68 26.68 0 0 0 132.829.132C119.891 0 109.204 9.244 106.553 21.39h-.66a26.69 26.69 0 0 0-52.268-.13h-.66a26.753 26.753 0 1 0-31.293 31.687v.528a26.772 26.772 0 0 0 0 52.553v.525a26.712 26.712 0 1 0 31.162 31.56h.66c2.509 12.146 13.335 21.375 26.145 21.375a26.523 26.523 0 0 0 26.141-21.375h.66c2.509 12.146 13.335 21.375 26.145 21.375a26.721 26.721 0 0 0 21.328-42.729 26.72 26.72 0 0 0-16.31-10.221v-.525a26.77 26.77 0 0 0 21.647-26.276 26.77 26.77 0 0 0-21.647-26.277v-.528a26.5 26.5 0 0 0 21.9-26.127m-36.84 89.652a6.2 6.2 0 0 1-1.815 4.391 6.19 6.19 0 0 1-4.392 1.815H43.178a6.19 6.19 0 0 1-5.737-3.83 6.2 6.2 0 0 1-.47-2.376v-73.28a6.194 6.194 0 0 1 6.207-6.205h73.278a6.19 6.19 0 0 1 5.737 3.83c.312.753.471 1.56.47 2.376zM242.421 48.195h58.887V27.99h-82.523v115.271h23.636V92.824h49.647V72.885h-49.647zM368.649 67.47c-5.28-7.92-15.975-13.07-26.936-13.07-25.35 0-42.514 17.558-42.514 45.154s17.164 45.158 42.514 45.289c10.961 0 21.787-5.411 26.936-13.069v11.625h22.05V55.852h-22.05zm-23.625 58.499c-13.875 0-23.505-10.826-23.625-26.407 0-15.844 9.773-26.408 23.625-26.408s23.625 10.564 23.625 26.408c0 15.442-9.772 26.4-23.647 26.4zM510.06 54.4c-11.625 0-21.375 5.15-27.99 15.71-4.875-9.638-14.79-15.71-27.067-15.71-12.15 0-20.205 5.94-25.223 13.598V55.852h-22.05v87.397h22.05V92.294c0-11.486 6.867-18.619 17.43-18.619 10.564 0 17.415 8.187 17.415 18.62v51.097h22.05V92.294c0-9.641 4.875-18.619 17.43-18.619 11.625 0 17.562 8.453 17.562 18.62v50.954h22.083V86.485c0-19.807-15.337-32.085-33.69-32.085M570.531 44.366c8.24 0 14.921-6.68 14.921-14.921s-6.681-14.922-14.921-14.922c-8.241 0-14.922 6.68-14.922 14.922 0 8.24 6.681 14.92 14.922 14.92M581.624 55.852h-22.05v87.54h22.05zM619.785 115.534v-87.54H597.75v89.918c0 22.841 15.052 28.65 32.625 26.403v-19.012c-6.101.529-10.59-1.583-10.59-9.769" style="fill:#343433;fill:color(display-p3 .2039 .2039 .2);fill-opacity:1"/><path d="m696.499 55.852-22.05 56.647-21.525-56.625H629.16l34.215 85.271-2.625 6.473c-3.037 7.657-9.112 9.769-14.79 9.769-3.96 0-8.977-1.189-15.446-4.358v19.41a46.8 46.8 0 0 0 16.736 3.964c17.168 0 27.596-6.75 33.54-21.525L720 55.852z" style="fill:#343433;fill:color(display-p3 .2039 .2039 .2);fill-opacity:1"/></g><defs><clipPath id="a"><path fill="#fff" d="M0 0h720v176.404H0z" style="fill:#fff;fill-opacity:1"/></clipPath></defs></svg>