<svg xmlns="http://www.w3.org/2000/svg" width="400" height="400" fill="none" viewBox="0 0 400 400"><g clip-path="url(#a)"><path fill="#fff" d="M400 67.221A66.91 66.91 0 0 0 333.108.33c-32.445-.33-59.247 22.852-65.896 53.313h-1.655a66.93 66.93 0 0 0-107.696-38.599 66.92 66.92 0 0 0-23.38 38.27h-1.655A67.1 67.1 0 0 0 86.152 2.58a67.09 67.09 0 1 0-31.805 130.197v1.326a67.138 67.138 0 0 0 0 131.791v1.317a66.99 66.99 0 0 0-51.451 45.886 66.988 66.988 0 0 0 83.066 84.126 66.98 66.98 0 0 0 46.534-50.866h1.656c6.291 30.46 33.441 53.604 65.566 53.604a66.515 66.515 0 0 0 65.557-53.604h1.655c6.291 30.46 33.441 53.604 65.566 53.604a67.007 67.007 0 0 0 66.549-60.684 67.007 67.007 0 0 0-53.966-72.104v-1.316a67.136 67.136 0 0 0 0-131.791v-1.326A66.46 66.46 0 0 0 400 67.221M307.613 292.05a15.54 15.54 0 0 1-15.564 15.564H108.28a15.545 15.545 0 0 1-14.386-9.604 15.5 15.5 0 0 1-1.178-5.96V108.28a15.53 15.53 0 0 1 9.604-14.386c1.89-.781 3.915-1.181 5.96-1.178h183.769a15.53 15.53 0 0 1 14.387 9.604c.78 1.89 1.18 3.915 1.177 5.96z"/></g><defs><clipPath id="a"><path fill="#fff" d="M0 0h400v400H0z"/></clipPath></defs></svg>