<svg xmlns="http://www.w3.org/2000/svg" width="69" height="88" fill="none" viewBox="0 0 69 88"><path fill="#1ce7c2" fill-opacity=".9" d="M5.729 65.777a2.429 2.429 0 1 0 4.858 0 2.429 2.429 0 0 0-4.858 0"/><path fill="#1ce7c2" fill-opacity=".9" d="M5.729 60.919a2.429 2.429 0 1 0 4.858 0 2.429 2.429 0 0 0-4.858 0"/><path fill="#1ce7c2" fill-opacity=".9" d="M5.729 56.061a2.429 2.429 0 1 0 4.858 0 2.429 2.429 0 0 0-4.858 0"/><path fill="#1ce7c2" fill-opacity=".9" d="M5.729 51.203a2.429 2.429 0 1 0 4.858 0 2.429 2.429 0 0 0-4.858 0"/><path fill="#1ce7c2" fill-opacity=".9" d="M5.729 46.345a2.429 2.429 0 1 0 4.858 0 2.429 2.429 0 0 0-4.858 0M10.587 70.635a2.429 2.429 0 1 0 4.858 0 2.429 2.429 0 0 0-4.858 0"/><path fill="#1ce7c2" fill-opacity=".7" d="M10.587 65.777a2.429 2.429 0 1 0 4.858 0 2.429 2.429 0 0 0-4.858 0"/><path fill="#1ce7c2" fill-opacity=".7" d="M10.587 60.919a2.429 2.429 0 1 0 4.858 0 2.429 2.429 0 0 0-4.858 0"/><path fill="#1ce7c2" fill-opacity=".7" d="M10.587 56.061a2.429 2.429 0 1 0 4.858 0 2.429 2.429 0 0 0-4.858 0"/><path fill="#1ce7c2" fill-opacity=".7" d="M10.587 51.203a2.429 2.429 0 1 0 4.858 0 2.429 2.429 0 0 0-4.858 0"/><path fill="#1ce7c2" fill-opacity=".9" d="M10.587 46.345a2.429 2.429 0 1 0 4.858 0 2.429 2.429 0 0 0-4.858 0"/><path fill="#1ce7c2" fill-opacity=".9" d="M10.587 41.487a2.429 2.429 0 1 0 4.858 0 2.429 2.429 0 0 0-4.858 0"/><path fill="#1ce7c2" fill-opacity=".9" d="M10.587 36.629a2.429 2.429 0 1 0 4.858 0 2.429 2.429 0 0 0-4.858 0"/><path fill="#1ce7c2" fill-opacity=".7" d="M15.445 75.518a2.429 2.429 0 1 0 4.858 0 2.429 2.429 0 0 0-4.858 0"/><path fill="#1ce7c2" fill-opacity=".5" d="M15.445 70.635a2.429 2.429 0 1 0 4.858 0 2.429 2.429 0 0 0-4.858 0"/><path fill="#1ce7c2" fill-opacity=".5" d="M15.445 65.777a2.429 2.429 0 1 0 4.858 0 2.429 2.429 0 0 0-4.858 0"/><path fill="#1ce7c2" fill-opacity=".5" d="M15.445 60.919a2.429 2.429 0 1 0 4.858 0 2.429 2.429 0 0 0-4.858 0"/><path fill="#1ce7c2" fill-opacity=".7" d="M15.445 56.061a2.429 2.429 0 1 0 4.858 0 2.429 2.429 0 0 0-4.858 0"/><path fill="#1ce7c2" fill-opacity=".7" d="M15.445 51.203a2.429 2.429 0 1 0 4.858 0 2.429 2.429 0 0 0-4.858 0"/><path fill="#1ce7c2" fill-opacity=".7" d="M15.445 46.345a2.429 2.429 0 1 0 4.858 0 2.429 2.429 0 0 0-4.858 0"/><path fill="#1ce7c2" fill-opacity=".7" d="M15.445 41.487a2.429 2.429 0 1 0 4.858 0 2.429 2.429 0 0 0-4.858 0"/><path fill="#1ce7c2" fill-opacity=".9" d="M15.445 36.629a2.429 2.429 0 1 0 4.858 0 2.429 2.429 0 0 0-4.858 0"/><path fill="#1ce7c2" fill-opacity=".9" d="M15.445 31.746a2.429 2.429 0 1 0 4.858 0 2.429 2.429 0 0 0-4.858 0"/><path fill="#1ce7c2" fill-opacity=".9" d="M15.445 26.9a2.44 2.44 0 0 0 2.43 2.442 2.44 2.44 0 0 0 2.428-2.441 2.44 2.44 0 0 0-2.429-2.442 2.44 2.44 0 0 0-2.429 2.442"/><path fill="#1ce7c2" fill-opacity=".7" d="M20.303 80.376a2.429 2.429 0 1 0 4.858 0 2.429 2.429 0 0 0-4.858 0"/><path fill="#1ce7c2" fill-opacity=".5" d="M20.303 75.518a2.429 2.429 0 1 0 4.858 0 2.429 2.429 0 0 0-4.858 0"/><path fill="#1ce7c2" fill-opacity=".4" d="M20.303 70.635a2.429 2.429 0 1 0 4.858 0 2.429 2.429 0 0 0-4.858 0M20.303 60.919a2.429 2.429 0 1 0 4.858 0 2.429 2.429 0 0 0-4.858 0"/><path fill="#1ce7c2" fill-opacity=".5" d="M20.303 56.061a2.429 2.429 0 1 0 4.858 0 2.429 2.429 0 0 0-4.858 0"/><path fill="#1ce7c2" fill-opacity=".5" d="M20.303 51.203a2.429 2.429 0 1 0 4.858 0 2.429 2.429 0 0 0-4.858 0"/><path fill="#1ce7c2" fill-opacity=".5" d="M20.303 46.345a2.429 2.429 0 1 0 4.858 0 2.429 2.429 0 0 0-4.858 0"/><path fill="#1ce7c2" fill-opacity=".7" d="M20.303 41.487a2.429 2.429 0 1 0 4.858 0 2.429 2.429 0 0 0-4.858 0"/><path fill="#1ce7c2" fill-opacity=".7" d="M20.303 36.629a2.429 2.429 0 1 0 4.858 0 2.429 2.429 0 0 0-4.858 0"/><path fill="#1ce7c2" fill-opacity=".7" d="M20.303 31.746a2.429 2.429 0 1 0 4.858 0 2.429 2.429 0 0 0-4.858 0"/><path fill="#1ce7c2" fill-opacity=".9" d="M20.303 26.9a2.44 2.44 0 0 0 2.43 2.442 2.44 2.44 0 0 0 2.428-2.441 2.44 2.44 0 0 0-2.429-2.442 2.44 2.44 0 0 0-2.429 2.442"/><path fill="#1ce7c2" fill-opacity=".9" d="M20.303 22.03a2.429 2.429 0 1 0 4.858 0 2.429 2.429 0 0 0-4.858 0"/><path fill="#1ce7c2" fill-opacity=".5" d="M25.186 80.376a2.429 2.429 0 1 0 4.858 0 2.429 2.429 0 0 0-4.858 0"/><path fill="#1ce7c2" fill-opacity=".4" d="M25.186 75.518a2.429 2.429 0 1 0 4.858 0 2.429 2.429 0 0 0-4.858 0M25.186 65.777a2.429 2.429 0 1 0 4.858 0 2.429 2.429 0 0 0-4.858 0"/><path fill="#1ce7c2" fill-opacity=".4" d="M25.186 60.919a2.429 2.429 0 1 0 4.858 0 2.429 2.429 0 0 0-4.858 0"/><path fill="#1ce7c2" fill-opacity=".5" d="M25.186 41.487a2.429 2.429 0 1 0 4.858 0 2.429 2.429 0 0 0-4.858 0"/><path fill="#1ce7c2" fill-opacity=".5" d="M25.186 36.629a2.429 2.429 0 1 0 4.858 0 2.429 2.429 0 0 0-4.858 0"/><path fill="#1ce7c2" fill-opacity=".7" d="M25.186 31.746a2.429 2.429 0 1 0 4.858 0 2.429 2.429 0 0 0-4.858 0"/><path fill="#1ce7c2" fill-opacity=".7" d="M25.186 26.9a2.44 2.44 0 0 0 2.43 2.442 2.44 2.44 0 0 0 2.428-2.441 2.44 2.44 0 0 0-2.429-2.442 2.44 2.44 0 0 0-2.429 2.442"/><path fill="#1ce7c2" fill-opacity=".9" d="M25.186 22.03a2.429 2.429 0 1 0 4.858 0 2.429 2.429 0 0 0-4.858 0"/><path fill="#1ce7c2" fill-opacity=".9" d="M25.186 17.147a2.429 2.429 0 1 0 4.858 0 2.429 2.429 0 0 0-4.858 0"/><path fill="#1ce7c2" fill-opacity=".5" d="M30.044 80.376a2.429 2.429 0 1 0 4.858 0 2.429 2.429 0 0 0-4.858 0"/><path fill="#1ce7c2" fill-opacity=".4" d="M30.044 75.518a2.429 2.429 0 1 0 4.858 0 2.429 2.429 0 0 0-4.858 0M30.044 65.777a2.429 2.429 0 1 0 4.858 0 2.429 2.429 0 0 0-4.858 0"/><path fill="#1ce7c2" fill-opacity=".4" d="M30.044 60.919a2.429 2.429 0 1 0 4.858 0 2.429 2.429 0 0 0-4.858 0"/><path fill="#1ce7c2" fill-opacity=".4" d="M30.044 56.061a2.429 2.429 0 1 0 4.858 0 2.429 2.429 0 0 0-4.858 0"/><path fill="#1ce7c2" fill-opacity=".4" d="M30.044 51.203a2.429 2.429 0 1 0 4.858 0 2.429 2.429 0 0 0-4.858 0"/><path fill="#1ce7c2" fill-opacity=".5" d="M30.044 46.345a2.429 2.429 0 1 0 4.858 0 2.429 2.429 0 0 0-4.858 0"/><path fill="#1ce7c2" fill-opacity=".5" d="M30.044 41.487a2.429 2.429 0 1 0 4.858 0 2.429 2.429 0 0 0-4.858 0"/><path fill="#1ce7c2" fill-opacity=".7" d="M30.044 36.629a2.429 2.429 0 1 0 4.858 0 2.429 2.429 0 0 0-4.858 0"/><path fill="#1ce7c2" fill-opacity=".7" d="M30.044 31.746a2.429 2.429 0 1 0 4.858 0 2.429 2.429 0 0 0-4.858 0"/><path fill="#1ce7c2" fill-opacity=".7" d="M30.044 26.9a2.44 2.44 0 0 0 2.43 2.442 2.44 2.44 0 0 0 2.428-2.441 2.44 2.44 0 0 0-2.429-2.442 2.44 2.44 0 0 0-2.429 2.442"/><path fill="#1ce7c2" fill-opacity=".7" d="M30.044 22.03a2.429 2.429 0 1 0 4.858 0 2.429 2.429 0 0 0-4.858 0"/><path fill="#1ce7c2" fill-opacity=".9" d="M30.044 17.147a2.429 2.429 0 1 0 4.858 0 2.429 2.429 0 0 0-4.858 0"/><path fill="#1ce7c2" fill-opacity=".9" d="M30.044 12.289a2.429 2.429 0 1 0 4.858 0 2.429 2.429 0 0 0-4.858 0"/><path fill="#1ce7c2" fill-opacity=".5" d="M34.902 80.376a2.429 2.429 0 1 0 4.858 0 2.429 2.429 0 0 0-4.858 0"/><path fill="#1ce7c2" fill-opacity=".4" d="M34.902 75.518a2.429 2.429 0 1 0 4.858 0 2.429 2.429 0 0 0-4.858 0M34.902 65.777a2.429 2.429 0 1 0 4.858 0 2.429 2.429 0 0 0-4.858 0"/><path fill="#1ce7c2" fill-opacity=".4" d="M34.902 60.919a2.429 2.429 0 1 0 4.858 0 2.429 2.429 0 0 0-4.858 0"/><path fill="#1ce7c2" fill-opacity=".4" d="M34.902 56.061a2.429 2.429 0 1 0 4.858 0 2.429 2.429 0 0 0-4.858 0"/><path fill="#1ce7c2" fill-opacity=".5" d="M34.902 51.203a2.429 2.429 0 1 0 4.858 0 2.429 2.429 0 0 0-4.858 0"/><path fill="#1ce7c2" fill-opacity=".7" d="M34.902 46.345a2.429 2.429 0 1 0 4.858 0 2.429 2.429 0 0 0-4.858 0"/><path fill="#1ce7c2" fill-opacity=".7" d="M34.902 41.487a2.429 2.429 0 1 0 4.858 0 2.429 2.429 0 0 0-4.858 0"/><path fill="#1ce7c2" fill-opacity=".7" d="M34.902 36.629a2.429 2.429 0 1 0 4.858 0 2.429 2.429 0 0 0-4.858 0"/><path fill="#1ce7c2" fill-opacity=".7" d="M34.902 31.746a2.429 2.429 0 1 0 4.858 0 2.429 2.429 0 0 0-4.858 0"/><path fill="#1ce7c2" fill-opacity=".9" d="M34.902 26.9a2.44 2.44 0 0 0 2.43 2.442 2.44 2.44 0 0 0 2.428-2.441 2.44 2.44 0 0 0-2.429-2.442 2.44 2.44 0 0 0-2.429 2.442"/><path fill="#1ce7c2" fill-opacity=".9" d="M34.902 22.03a2.429 2.429 0 1 0 4.858 0 2.429 2.429 0 0 0-4.858 0"/><path fill="#1ce7c2" fill-opacity=".9" d="M34.902 17.147a2.429 2.429 0 1 0 4.858 0 2.429 2.429 0 0 0-4.858 0"/><path fill="#1ce7c2" fill-opacity=".9" d="M34.902 12.289a2.429 2.429 0 1 0 4.858 0 2.429 2.429 0 0 0-4.858 0"/><path fill="#1ce7c2" fill-opacity=".9" d="M34.902 7.431a2.429 2.429 0 1 0 4.858 0 2.429 2.429 0 0 0-4.858 0"/><path fill="#1ce7c2" fill-opacity=".5" d="M39.76 80.376a2.44 2.44 0 0 0 2.442 2.43 2.44 2.44 0 0 0 2.441-2.43 2.44 2.44 0 0 0-2.441-2.429 2.44 2.44 0 0 0-2.442 2.43"/><path fill="#1ce7c2" fill-opacity=".4" d="M39.76 75.518a2.44 2.44 0 0 0 2.442 2.429 2.44 2.44 0 0 0 2.441-2.429 2.44 2.44 0 0 0-2.441-2.429 2.44 2.44 0 0 0-2.442 2.429M39.76 65.777a2.44 2.44 0 0 0 2.442 2.429 2.44 2.44 0 0 0 2.441-2.429 2.44 2.44 0 0 0-2.441-2.429 2.44 2.44 0 0 0-2.442 2.429"/><path fill="#1ce7c2" fill-opacity=".4" d="M39.76 60.919a2.44 2.44 0 0 0 2.442 2.429 2.44 2.44 0 0 0 2.441-2.429 2.44 2.44 0 0 0-2.441-2.429 2.44 2.44 0 0 0-2.442 2.429"/><path fill="#1ce7c2" fill-opacity=".7" d="M39.76 41.487a2.44 2.44 0 0 0 2.442 2.429 2.44 2.44 0 0 0 2.441-2.429 2.44 2.44 0 0 0-2.441-2.429 2.44 2.44 0 0 0-2.442 2.429"/><path fill="#1ce7c2" fill-opacity=".7" d="M39.76 36.629a2.44 2.44 0 0 0 2.442 2.429 2.44 2.44 0 0 0 2.441-2.43 2.44 2.44 0 0 0-2.441-2.428 2.44 2.44 0 0 0-2.442 2.429"/><path fill="#1ce7c2" fill-opacity=".9" d="M39.76 31.746a2.44 2.44 0 0 0 2.442 2.429 2.44 2.44 0 0 0 2.441-2.43 2.44 2.44 0 0 0-2.441-2.428 2.44 2.44 0 0 0-2.442 2.429"/><path fill="#1ce7c2" fill-opacity=".9" d="M39.76 26.9a2.442 2.442 0 1 0 4.883 0 2.442 2.442 0 0 0-4.883 0"/><path fill="#1ce7c2" fill-opacity=".9" d="M39.76 22.03a2.44 2.44 0 0 0 2.442 2.429 2.44 2.44 0 0 0 2.441-2.43 2.44 2.44 0 0 0-2.441-2.428 2.44 2.44 0 0 0-2.442 2.429"/><path fill="#1ce7c2" fill-opacity=".7" d="M44.643 80.376a2.429 2.429 0 1 0 4.858 0 2.429 2.429 0 0 0-4.858 0"/><path fill="#1ce7c2" fill-opacity=".5" d="M44.643 75.518a2.429 2.429 0 1 0 4.858 0 2.429 2.429 0 0 0-4.858 0"/><path fill="#1ce7c2" fill-opacity=".4" d="M44.643 70.635a2.429 2.429 0 1 0 4.858 0 2.429 2.429 0 0 0-4.858 0"/><path fill="#1ce7c2" fill-opacity=".5" d="M44.643 60.919a2.429 2.429 0 1 0 4.858 0 2.429 2.429 0 0 0-4.858 0"/><path fill="#1ce7c2" fill-opacity=".5" d="M44.643 56.061a2.429 2.429 0 1 0 4.858 0 2.429 2.429 0 0 0-4.858 0"/><path fill="#1ce7c2" fill-opacity=".5" d="M44.643 51.203a2.429 2.429 0 1 0 4.858 0 2.429 2.429 0 0 0-4.858 0"/><path fill="#1ce7c2" fill-opacity=".5" d="M44.643 46.345a2.429 2.429 0 1 0 4.858 0 2.429 2.429 0 0 0-4.858 0"/><path fill="#1ce7c2" fill-opacity=".5" d="M44.643 41.487a2.429 2.429 0 1 0 4.858 0 2.429 2.429 0 0 0-4.858 0"/><path fill="#1ce7c2" fill-opacity=".7" d="M44.643 36.629a2.429 2.429 0 1 0 4.858 0 2.429 2.429 0 0 0-4.858 0"/><path fill="#1ce7c2" fill-opacity=".9" d="M44.643 31.746a2.429 2.429 0 1 0 4.858 0 2.429 2.429 0 0 0-4.858 0"/><path fill="#1ce7c2" fill-opacity=".7" d="M49.502 75.518a2.429 2.429 0 1 0 4.857 0 2.429 2.429 0 0 0-4.858 0"/><path fill="#1ce7c2" fill-opacity=".5" d="M49.502 70.635a2.429 2.429 0 1 0 4.857 0 2.429 2.429 0 0 0-4.858 0"/><path fill="#1ce7c2" fill-opacity=".5" d="M49.502 65.777a2.429 2.429 0 1 0 4.857 0 2.429 2.429 0 0 0-4.858 0"/><path fill="#1ce7c2" fill-opacity=".5" d="M49.502 60.919a2.429 2.429 0 1 0 4.857 0 2.429 2.429 0 0 0-4.858 0"/><path fill="#1ce7c2" fill-opacity=".7" d="M49.502 56.061a2.429 2.429 0 1 0 4.857 0 2.429 2.429 0 0 0-4.858 0"/><path fill="#1ce7c2" fill-opacity=".7" d="M49.502 51.203a2.429 2.429 0 1 0 4.857 0 2.429 2.429 0 0 0-4.858 0"/><path fill="#1ce7c2" fill-opacity=".7" d="M49.502 46.345a2.429 2.429 0 1 0 4.857 0 2.429 2.429 0 0 0-4.858 0"/><path fill="#1ce7c2" fill-opacity=".7" d="M49.502 41.487a2.429 2.429 0 1 0 4.857 0 2.429 2.429 0 0 0-4.858 0"/><path fill="#1ce7c2" fill-opacity=".7" d="M49.502 36.629a2.429 2.429 0 1 0 4.857 0 2.429 2.429 0 0 0-4.858 0"/><path fill="#1ce7c2" fill-opacity=".9" d="M54.36 70.635a2.429 2.429 0 1 0 4.857 0 2.429 2.429 0 0 0-4.858 0"/><path fill="#1ce7c2" fill-opacity=".7" d="M54.36 65.777a2.429 2.429 0 1 0 4.857 0 2.429 2.429 0 0 0-4.858 0"/><path fill="#1ce7c2" fill-opacity=".7" d="M54.36 60.919a2.429 2.429 0 1 0 4.857 0 2.429 2.429 0 0 0-4.858 0"/><path fill="#1ce7c2" fill-opacity=".7" d="M54.36 56.061a2.429 2.429 0 1 0 4.857 0 2.429 2.429 0 0 0-4.858 0"/><path fill="#1ce7c2" fill-opacity=".7" d="M54.36 51.203a2.429 2.429 0 1 0 4.857 0 2.429 2.429 0 0 0-4.858 0"/><path fill="#1ce7c2" fill-opacity=".7" d="M54.36 46.345a2.429 2.429 0 1 0 4.857 0 2.429 2.429 0 0 0-4.858 0"/><path fill="#1ce7c2" fill-opacity=".7" d="M54.36 41.487a2.429 2.429 0 1 0 4.857 0 2.429 2.429 0 0 0-4.858 0"/><path fill="#1ce7c2" fill-opacity=".9" d="M59.217 65.777a2.429 2.429 0 1 0 4.858 0 2.429 2.429 0 0 0-4.858 0"/><path fill="#1ce7c2" fill-opacity=".9" d="M59.217 60.919a2.429 2.429 0 1 0 4.858 0 2.429 2.429 0 0 0-4.858 0"/><path fill="#1ce7c2" fill-opacity=".9" d="M59.217 56.061a2.429 2.429 0 1 0 4.858 0 2.429 2.429 0 0 0-4.858 0"/><path fill="#1ce7c2" fill-opacity=".9" d="M59.217 51.203a2.429 2.429 0 1 0 4.858 0 2.429 2.429 0 0 0-4.858 0"/><path fill="#1ce7c2" fill-opacity=".9" d="M59.217 46.345a2.429 2.429 0 1 0 4.858 0 2.429 2.429 0 0 0-4.858 0"/><path fill="#1ce7c2" fill-opacity=".9" d="M59.217 41.487a2.429 2.429 0 1 0 4.858 0 2.429 2.429 0 0 0-4.858 0"/><path fill="#1ce7c2" d="M.871 65.777a2.429 2.429 0 1 0 4.858 0 2.429 2.429 0 0 0-4.858 0"/><path fill="#1ce7c2" d="M.871 60.919a2.429 2.429 0 1 0 4.858 0 2.429 2.429 0 0 0-4.858 0"/><path fill="#1ce7c2" d="M.871 56.061a2.429 2.429 0 1 0 4.858 0 2.429 2.429 0 0 0-4.858 0"/><path fill="#1ce7c2" d="M.871 51.203a2.429 2.429 0 1 0 4.858 0 2.429 2.429 0 0 0-4.858 0"/><path fill="#1ce7c2" d="M.871 46.345a2.429 2.429 0 1 0 4.858 0 2.429 2.429 0 0 0-4.858 0M5.729 70.635a2.429 2.429 0 1 0 4.858 0 2.429 2.429 0 0 0-4.858 0M5.729 41.487a2.429 2.429 0 1 0 4.858 0 2.429 2.429 0 0 0-4.858 0"/><path fill="#1ce7c2" d="M5.729 36.629a2.429 2.429 0 1 0 4.858 0 2.429 2.429 0 0 0-4.858 0M10.587 75.518a2.429 2.429 0 1 0 4.858 0 2.429 2.429 0 0 0-4.858 0M10.587 31.746a2.429 2.429 0 1 0 4.858 0 2.429 2.429 0 0 0-4.858 0"/><path fill="#1ce7c2" d="M10.587 26.9a2.44 2.44 0 0 0 2.43 2.442 2.44 2.44 0 0 0 2.428-2.441 2.44 2.44 0 0 0-2.429-2.442 2.44 2.44 0 0 0-2.429 2.442M15.445 80.376a2.429 2.429 0 1 0 4.858 0 2.429 2.429 0 0 0-4.858 0M15.445 22.03a2.429 2.429 0 1 0 4.858 0 2.429 2.429 0 0 0-4.858 0M20.303 85.234a2.429 2.429 0 1 0 4.858 0 2.429 2.429 0 0 0-4.858 0"/><path fill="#1ce7c2" fill-opacity=".4" d="M20.303 65.777a2.429 2.429 0 1 0 4.858 0 2.429 2.429 0 0 0-4.858 0"/><path fill="#1ce7c2" d="M20.303 17.147a2.429 2.429 0 1 0 4.858 0 2.429 2.429 0 0 0-4.858 0M25.186 85.234a2.429 2.429 0 1 0 4.858 0 2.429 2.429 0 0 0-4.858 0"/><path fill="#1ce7c2" fill-opacity=".4" d="M25.186 70.635a2.429 2.429 0 1 0 4.858 0 2.429 2.429 0 0 0-4.858 0M25.186 56.061a2.429 2.429 0 1 0 4.858 0 2.429 2.429 0 0 0-4.858 0"/><path fill="#1ce7c2" fill-opacity=".5" d="M25.186 51.203a2.429 2.429 0 1 0 4.858 0 2.429 2.429 0 0 0-4.858 0"/><path fill="#1ce7c2" fill-opacity=".5" d="M25.186 46.345a2.429 2.429 0 1 0 4.858 0 2.429 2.429 0 0 0-4.858 0"/><path fill="#1ce7c2" d="M25.186 12.289a2.429 2.429 0 1 0 4.858 0 2.429 2.429 0 0 0-4.858 0M30.044 85.234a2.429 2.429 0 1 0 4.858 0 2.429 2.429 0 0 0-4.858 0"/><path fill="#1ce7c2" fill-opacity=".4" d="M30.044 70.635a2.429 2.429 0 1 0 4.858 0 2.429 2.429 0 0 0-4.858 0"/><path fill="#1ce7c2" d="M30.044 7.431a2.429 2.429 0 1 0 4.858 0 2.429 2.429 0 0 0-4.858 0M34.902 85.234a2.429 2.429 0 1 0 4.858 0 2.429 2.429 0 0 0-4.858 0"/><path fill="#1ce7c2" fill-opacity=".4" d="M34.902 70.635a2.429 2.429 0 1 0 4.858 0 2.429 2.429 0 0 0-4.858 0"/><path fill="#1ce7c2" d="M34.902 2.573a2.429 2.429 0 1 0 4.858 0 2.429 2.429 0 0 0-4.858 0M39.76 85.234a2.44 2.44 0 0 0 2.442 2.429 2.44 2.44 0 0 0 2.441-2.429 2.44 2.44 0 0 0-2.441-2.429 2.44 2.44 0 0 0-2.442 2.429"/><path fill="#1ce7c2" fill-opacity=".4" d="M39.76 70.635a2.44 2.44 0 0 0 2.442 2.429 2.44 2.44 0 0 0 2.441-2.43 2.44 2.44 0 0 0-2.441-2.428 2.44 2.44 0 0 0-2.442 2.429M39.76 56.061a2.44 2.44 0 0 0 2.442 2.429 2.44 2.44 0 0 0 2.441-2.429 2.44 2.44 0 0 0-2.441-2.429 2.44 2.44 0 0 0-2.442 2.429"/><path fill="#1ce7c2" fill-opacity=".5" d="M39.76 51.203a2.44 2.44 0 0 0 2.442 2.429 2.44 2.44 0 0 0 2.441-2.429 2.44 2.44 0 0 0-2.441-2.429 2.44 2.44 0 0 0-2.442 2.429"/><path fill="#1ce7c2" fill-opacity=".5" d="M39.76 46.345a2.44 2.44 0 0 0 2.442 2.429 2.44 2.44 0 0 0 2.441-2.43 2.44 2.44 0 0 0-2.441-2.428 2.44 2.44 0 0 0-2.442 2.429"/><path fill="#1ce7c2" d="M39.76 17.147a2.44 2.44 0 0 0 2.442 2.429 2.44 2.44 0 0 0 2.441-2.43 2.44 2.44 0 0 0-2.441-2.428 2.44 2.44 0 0 0-2.442 2.429"/><path fill="#1ce7c2" d="M39.76 12.289a2.44 2.44 0 0 0 2.442 2.429 2.44 2.44 0 0 0 2.441-2.43 2.44 2.44 0 0 0-2.441-2.428 2.44 2.44 0 0 0-2.442 2.429"/><path fill="#1ce7c2" d="M39.76 7.431a2.44 2.44 0 0 0 2.442 2.429 2.44 2.44 0 0 0 2.441-2.429 2.44 2.44 0 0 0-2.441-2.429 2.44 2.44 0 0 0-2.442 2.429M44.643 85.234a2.429 2.429 0 1 0 4.858 0 2.429 2.429 0 0 0-4.858 0"/><path fill="#1ce7c2" fill-opacity=".4" d="M44.643 65.777a2.429 2.429 0 1 0 4.858 0 2.429 2.429 0 0 0-4.858 0"/><path fill="#1ce7c2" d="M44.643 26.9a2.44 2.44 0 0 0 2.43 2.442 2.44 2.44 0 0 0 2.428-2.441 2.44 2.44 0 0 0-2.429-2.442 2.44 2.44 0 0 0-2.429 2.442"/><path fill="#1ce7c2" d="M44.643 22.03a2.429 2.429 0 1 0 4.858 0 2.429 2.429 0 0 0-4.858 0M49.502 80.376a2.429 2.429 0 1 0 4.857 0 2.429 2.429 0 0 0-4.858 0M54.36 75.518a2.429 2.429 0 1 0 4.857 0 2.429 2.429 0 0 0-4.858 0M59.217 70.635a2.429 2.429 0 1 0 4.858 0 2.429 2.429 0 0 0-4.858 0M59.217 36.629a2.429 2.429 0 1 0 4.858 0 2.429 2.429 0 0 0-4.858 0M64.075 65.777a2.429 2.429 0 1 0 4.858 0 2.429 2.429 0 0 0-4.858 0"/><path fill="#1ce7c2" d="M64.075 60.919a2.429 2.429 0 1 0 4.858 0 2.429 2.429 0 0 0-4.858 0"/><path fill="#1ce7c2" d="M64.075 56.061a2.429 2.429 0 1 0 4.858 0 2.429 2.429 0 0 0-4.858 0"/><path fill="#1ce7c2" d="M64.075 51.203a2.429 2.429 0 1 0 4.858 0 2.429 2.429 0 0 0-4.858 0"/><path fill="#1ce7c2" d="M64.075 46.345a2.429 2.429 0 1 0 4.858 0 2.429 2.429 0 0 0-4.858 0"/><path fill="#1ce7c2" d="M64.075 41.487a2.429 2.429 0 1 0 4.858 0 2.429 2.429 0 0 0-4.858 0"/></svg>