<svg baseProfile="basic" xmlns="http://www.w3.org/2000/svg" viewBox="0 0 200 200"><path fill="#FFF" d="M115 95l-12.4-12.4-12.4-12.4C89 69 87.5 68.5 86 68.5s-3 .5-4.2 1.7L65.9 86.1 50 102l-5-5-5-5c-.9-.9-2-1-3-.6-.9.4-1.7 1.3-1.7 2.5v55.2c0 .8.3 1.5.8 2s1.2.8 2 .8h55.2c1.2 0 2.1-.7 2.5-1.7s.3-2.1-.6-3l-6-6-6-6 15.9-15.9 15.9-15.9c1.2-1.2 1.7-2.7 1.7-4.2.1-1.5-.5-3-1.7-4.2z"/><path fill="#F9943C" d="M109.2 143.3c-1.5 0-3-.6-4.1-1.7-2.3-2.3-2.3-6 0-8.3l35.7-35.7c2.3-2.3 6-2.3 8.3 0l3.9 3.9V59.7h-41.8l4 4c2.3 2.3 2.3 6 0 8.3-2.3 2.3-6 2.3-8.3 0L93 58c-1.7-1.7-2.2-4.2-1.3-6.4.9-2.2 3-3.6 5.4-3.6h61.8c3.2 0 5.9 2.6 5.9 5.9v61.8c0 2.4-1.4 4.5-3.6 5.4-2.2.9-4.7.4-6.4-1.3L145 110l-31.6 31.6c-1.2 1.1-2.7 1.7-4.2 1.7z"/></svg>