<svg baseProfile="basic" xmlns="http://www.w3.org/2000/svg" viewBox="0 0 851 315"><path fill="#263E4F" d="M501.3 142v12.9h38.1c2.6 0 4.7 2.1 4.7 4.7s-2.1 4.7-4.7 4.7h-38.1v18.2c0 2.6-2.1 4.7-4.7 4.7s-4.7-2.1-4.7-4.7v-44.3c0-3.1 2.5-5.7 5.7-5.7h41.9c2.6 0 4.7 2.1 4.7 4.7s-2.1 4.7-4.7 4.7h-38.2zm52.3 36.5v-41.3c0-2.6 2.1-4.7 4.7-4.7s4.7 2.1 4.7 4.7v40.5h26.2c2.6 0 4.7 2.1 4.7 4.7s-2.1 4.7-4.7 4.7h-27c-4.7.1-8.6-3.8-8.6-8.6zm82.3-46h-12.7c-10.9 0-19.8 8.9-19.8 19.8v15.1c0 10.9 8.9 19.8 19.8 19.8h12.7c10.9 0 19.8-8.9 19.8-19.8v-15.1c-.1-10.9-8.9-19.8-19.8-19.8zm10.3 34.9c0 5.7-4.6 10.4-10.4 10.4h-12.7c-5.7 0-10.4-4.6-10.4-10.4v-15.1c0-5.7 4.6-10.4 10.4-10.4h12.7c5.7 0 10.4 4.6 10.4 10.4v15.1zM778 141.9h-17v40.5c0 2.6-2.1 4.7-4.7 4.7s-4.7-2.1-4.7-4.7v-40.5h-17.1c-2.6 0-4.7-2.1-4.7-4.7s2.1-4.7 4.7-4.7H778c2.6 0 4.7 2.1 4.7 4.7s-2.1 4.7-4.7 4.7zm-50.4 44.6c2.2-1.4 2.9-4.3 1.6-6.5l-27.7-45.2c-.9-1.4-2.4-2.3-4-2.3s-3.2.9-4 2.3L665.8 180c-.9 1.5-.9 3.3-.1 4.8s2.4 2.4 4.1 2.4h27.7c2.6 0 4.7-2.1 4.7-4.7s-2.1-4.7-4.7-4.7h-19.3l19.3-31.5 23.6 38.7c.9 1.5 2.4 2.3 4 2.3.8-.1 1.7-.4 2.5-.8zm-303.5 4.4l25.4-25.4 7.9 7.9c1.3 1.3 3.4 1.7 5.1 1 1.8-.7 2.9-2.4 2.9-4.4v-49.7c0-2.6-2.1-4.7-4.7-4.7H411c-1.9 0-3.6 1.1-4.4 2.9-.7 1.8-.3 3.8 1 5.1l11.2 11.2c1.8 1.8 4.8 1.8 6.7 0 1.8-1.8 1.8-4.8 0-6.7l-3.2-3.2H456v33.6l-3.2-3.2c-1.8-1.8-4.8-1.8-6.7 0L417.4 184c-1.8 1.8-1.8 4.8 0 6.7.9.9 2.1 1.4 3.3 1.4 1.3.2 2.5-.2 3.4-1.2z"/><path fill="#F9943C" d="M77.8 142v12.9h38.1c2.6 0 4.7 2.1 4.7 4.7s-2.1 4.7-4.7 4.7H77.8v18.2c0 2.6-2.1 4.7-4.7 4.7s-4.7-2.1-4.7-4.7v-44.3c0-3.1 2.5-5.7 5.7-5.7H116c2.6 0 4.7 2.1 4.7 4.7s-2.1 4.7-4.7 4.7H77.8zm56.9-9.5c2.6 0 4.7 2.1 4.7 4.7v45.2c0 2.6-2.1 4.7-4.7 4.7s-4.7-2.1-4.7-4.7v-45.2c0-2.6 2.1-4.7 4.7-4.7zm152.9 54.7c-2.6 0-4.7-2.1-4.7-4.7v-45.2c0-1.2.5-2.4 1.4-3.3.9-.9 2.1-1.4 3.3-1.4h21.3c14.7 0 26.3 12 26.3 27.3 0 14.8-12.7 27.3-27.7 27.3h-19.9zm19.9-9.5c9.7 0 18.3-8.4 18.3-17.9 0-10-7.4-17.9-16.8-17.9h-16.6v35.8h15.1zm-69-40.5c0-2.6 2.1-4.7 4.7-4.7h25.5c2.6 0 4.7 2.1 4.7 4.7s-2.1 4.7-4.7 4.7h-25.5c-2.6.1-4.7-2.1-4.7-4.7zm30.3 40.5h-38.1v-13.5h38.1c2.6 0 4.7-2.1 4.7-4.7s-2.1-4.7-4.7-4.7h-42.9c-.3 0-.6 0-.9.1-.6.1-1.2.4-1.7.7-1.3.8-2.1 2.3-2.1 3.9v22.9c0 1 .3 1.9.8 2.6.3.5.8.9 1.3 1.3.8.5 1.7.8 2.6.8h42.9c2.6 0 4.7-2.1 4.7-4.7 0-2.5-2.1-4.7-4.7-4.7zm-90.2-13.6c2.4-2.4 2.4-6.2 0-8.6l-21.7-21.7c-1.4-1.4-3.5-1.9-5.7-.8-.8.4-1.4 1-1.8 1.8-1.1 2.2-.6 4.3.8 5.7l19.3 19.3-19.3 19.3c-1.4 1.3-1.9 3.5-.8 5.7.4.8 1 1.4 1.8 1.8 2.2 1.1 4.3.6 5.7-.8l21.7-21.7zm25.2 21.7c1.4 1.4 3.5 1.9 5.7.8.8-.4 1.4-1 1.8-1.8 1.1-2.2.5-4.3-.8-5.7l-19.3-19.3 19.3-19.3c1.4-1.4 1.9-3.5.8-5.7-.4-.8-1-1.4-1.8-1.8-2.2-1.1-4.3-.6-5.7.8l-21.7 21.7c-2.4 2.4-2.4 6.2 0 8.6l21.7 21.7zm221.7-32.3l-10-10-10-10c-.9-.9-2.2-1.4-3.4-1.4s-2.5.5-3.4 1.4l-12.8 12.8-12.8 12.8-4-4-4-4c-.7-.7-1.6-.8-2.4-.5s-1.4 1-1.4 2V197c0 .6.3 1.2.7 1.6.4.4 1 .7 1.6.7H408c1 0 1.7-.6 2-1.4.3-.8.2-1.7-.5-2.4l-4.8-4.8-4.8-4.8 12.8-12.8 12.8-12.8c.9-.9 1.4-2.2 1.4-3.4 0-1.3-.5-2.5-1.4-3.4z"/></svg>