<svg xmlns="http://www.w3.org/2000/svg" overflow="visible" viewBox="0 0 81.012 26.392"><path fill="#fff" d="M16.192 0H6.999L5.681 5.283h-3.97L.042 11.984a1.41 1.41 0 0 0 1.362 1.75h3.36L1.611 26.392l10.716-11.336c.847-.898.214-2.378-1.018-2.378H6.185l1.578-6.339h8.647l1.141-4.588A1.411 1.411 0 0 0 16.191 0Zm12.499 19.851h-3.185V6.136h9.992v2.777h-6.807v2.64h6.198v2.777h-6.198Zm14.893.204q-2.116 0-3.701-.872a6.16 6.16 0 0 1-2.463-2.456q-.88-1.582-.88-3.732c0-1.434.294-2.696.88-3.75a6.1 6.1 0 0 1 2.463-2.447q1.583-.863 3.701-.863c1.413 0 2.661.285 3.718.854a6 6 0 0 1 2.455 2.439q.873 1.583.872 3.767c0 1.456-.294 2.68-.881 3.742a6.1 6.1 0 0 1-2.463 2.456q-1.583.863-3.701.863Zm.017-2.777q1.845 0 2.844-1.168 1-1.168 1.001-3.115c0-1.3-.335-2.35-1.001-3.123q-.998-1.16-2.861-1.16c-1.241 0-2.182.386-2.854 1.159q-1.007 1.16-1.007 3.106c0 1.298.336 2.354 1.007 3.134q1.007 1.168 2.871 1.167m15.069 2.777q-2 0-3.522-.889a6.2 6.2 0 0 1-2.379-2.481q-.853-1.59-.853-3.673c0-1.388.293-2.664.88-3.725a6.2 6.2 0 0 1 2.48-2.473q1.599-.88 3.717-.881 1.745 0 3.083.601a5.5 5.5 0 0 1 2.184 1.719q.846 1.119 1.067 2.674h-3.316q-.168-1.03-.966-1.608-.795-.576-2.048-.576-1.184.002-2.066.524a3.5 3.5 0 0 0-1.353 1.491q-.474.963-.473 2.285c0 .881.163 1.666.489 2.321a3.6 3.6 0 0 0 1.388 1.516q.897.533 2.117.533.899 0 1.599-.278.702-.279 1.109-.762c.264-.302.409-.691.407-1.092v-.407h-3.37v-2.437h4.25q1.116 0 1.677.534.556.531.558 1.6v5.282h-2.912v-1.455h-.085a3.08 3.08 0 0 1-1.405 1.244q-.913.416-2.253.415l-.003-.001Zm15.298 0q-2.117 0-3.702-.872a6.16 6.16 0 0 1-2.463-2.456q-.88-1.582-.88-3.732c0-1.434.294-2.696.88-3.75a6.1 6.1 0 0 1 2.463-2.447q1.584-.863 3.702-.863c1.412 0 2.661.285 3.716.854a6 6 0 0 1 2.457 2.439q.871 1.583.871 3.767c0 1.456-.295 2.68-.881 3.742a6.1 6.1 0 0 1-2.463 2.456q-1.582.863-3.7.863Zm.016-2.777q1.844 0 2.845-1.168.999-1.168.999-3.115c0-1.3-.334-2.35-1-3.123q-.999-1.16-2.86-1.16c-1.242 0-2.183.386-2.854 1.159q-1.007 1.16-1.007 3.106c0 1.298.335 2.354 1.007 3.134q1.006 1.168 2.87 1.167"/></svg>