<svg xmlns="http://www.w3.org/2000/svg" width="160" height="31" fill="none"><path fill="#F3F5F0" d="M15.909 0c.226.075.497.019.737.035C22.254.419 27.35 4 29.578 9.125c4.039 9.294-1.816 19.738-11.702 21.263l-1.521.176h-1.51l-1.522-.176C6.242 29.297.975 23.555.37 16.448c-.015-.175.047-.385-.07-.531v-1.27c.107-.156.055-.356.07-.531C1.03 6.326 7.327.206 15.208.036L15.291 0h.618ZM8.43 20.616H6.938l-.036.07c.255.35.563.657.842.986 1.075 1.27 2.119 2.584 3.227 3.822.035.04.235.276.272.233l-.001-12.676c.298-5.253 7.301-6.477 9.771-2.084 1.565 2.783.25 6.54-2.86 7.486-1.694.515-4.34.24-5.659-1.026-.159-.153-.275-.321-.42-.47-.034-.035-.034-.098-.11-.08.095.724.405 1.335.879 1.883.913 1.057 2.498 1.899 3.905 1.96 6.21.273 9.675-6.967 6.22-11.915-4.16-5.96-13.778-3.871-14.537 3.459v8.352Zm8.026-9.502c-.082-.019-.055.015-.076.045-.03.042-.076.124-.101.172-.083.156-.524 1.153-.588 1.178l-1.096.157-.437.112 1.091 1.105-.268 1.553a.264.264 0 0 0 .135-.019c.366-.136.8-.5 1.184-.634.175-.062.435.09.609.177.205.102.433.267.638.37.035.017.263.125.281.106l-.234-1.553 1.092-1.105c-.033-.052-.069-.045-.12-.052-.481-.067-.974-.115-1.443-.237-.223-.463-.468-.914-.667-1.375Zm143.491.48c-1.411 3.69-2.828 7.38-4.255 11.063-.654 1.69-1.117 3.371-2.264 4.802-.886 1.104-2.31 2.12-3.689 2.485-.401.107-.684.224-.957-.17-.18-.262-.339-.617-.502-.897-.128-.219-.417-.545-.442-.8-.021-.208.027-.401.214-.507.408-.23 1.019-.382 1.468-.623 1.129-.606 2.03-1.554 2.286-2.845-1.618-4.063-3.387-8.076-4.966-12.138-.027-.07-.138-.206-.161-.326-.062-.324.126-.592.455-.627.772-.083 1.683.062 2.47 0a.514.514 0 0 1 .376.207c.959 2.49 1.936 4.972 2.901 7.46.163.419.308.96.496 1.355.026.054.059.116.12.137.062-.194.113-.4.182-.59.951-2.616 1.86-5.276 2.862-7.876.122-.318.176-.65.576-.693.739-.08 1.612.06 2.367 0 .262.03.388.172.463.412v.171ZM78.752 24.372c-.03.137-.254.305-.398.323-.762.094-1.734-.044-2.512-.02a.502.502 0 0 1-.347-.374l-.004-18.145c.034-.302.203-.436.498-.463.937-.085 2 .067 2.952 0 .14.015.257.103.34.209 1.995 4.626 4.085 9.207 6.09 13.84l.087.085 1.166-2.676C88.252 13.407 89.92 9.64 91.6 5.902a.493.493 0 0 1 .374-.21c.92-.088 1.982.07 2.918.001.186.023.358.17.405.35l.02 18.223a.492.492 0 0 1-.429.429c-.751-.045-1.59.07-2.33.004-.163-.014-.343-.076-.42-.232a2.527 2.527 0 0 1-.077-.232V12.52c-.098-.017-.056.024-.077.076-1.134 2.772-2.47 5.53-3.692 8.253-.517 1.152-.985 2.436-1.552 3.553-.112.222-.251.28-.491.297-.418.031-1.351.05-1.748-.004a.507.507 0 0 1-.358-.225c-.255-.413-.47-1.114-.686-1.579-1.464-3.15-2.851-6.365-4.277-9.547-.11-.247-.22-.512-.349-.75-.024-.046.019-.093-.079-.074v11.852ZM71.801 7.843c2.232 2.358 2.745 5.846 2.388 8.982-.467 4.11-3.57 7.787-7.87 8.012-2.76.144-5.093-.476-7.005-2.518-3.801-4.058-3.304-12.627 1.575-15.674 3.504-2.187 8.038-1.84 10.912 1.198Zm-3.56 1.124c-2.026-1.325-4.792-.836-6.353.96-2.018 2.321-2.109 7.044-.495 9.583 1.16 1.824 2.462 2.458 4.65 2.342 3.016-.16 4.624-3.24 4.752-5.951.123-2.61-.193-5.392-2.553-6.934Zm42.64-1.613c2.808 2.44 3.461 6.377 2.937 9.926-.62 4.195-3.725 7.498-8.086 7.694-2.703.121-5.008-.649-6.833-2.655-3.323-3.655-3.161-10.83.25-14.39 3.023-3.156 8.412-3.457 11.732-.575Zm-2.547 2.066c-2.273-1.867-5.487-1.24-7.147 1.103-1.55 2.186-1.567 6.54-.282 8.848 1.172 2.105 3.042 2.934 5.435 2.54 2.547-.419 3.946-3.338 4.141-5.67.213-2.539-.1-5.139-2.147-6.821Zm15.354 14.884c-.031.189-.237.373-.431.391-.791-.053-1.692.08-2.469.005a.51.51 0 0 1-.459-.399l-.004-18.077c0-.214.19-.372.37-.453 3.676-.522 9.427-1.138 11.291 2.963.686 1.511.722 3.5.054 5.02-1.242 2.828-3.958 3.703-6.86 3.843-.507.025-.989-.07-1.491-.068v6.775h-.001Zm-.034-15.934v6.226l.058.045c.444.042.882.135 1.331.109 1.85-.106 3.801-.678 4.065-2.796.147-1.178.009-2.098-.895-2.912-1.288-.87-3.065-.842-4.559-.672Zm18.867 15.265c-.06-.015-.069.024-.104.05-1.396 1.079-2.516 1.447-4.338 1.253-7.738-.822-7.674-13.812.549-14.27 1.057-.058 2.326.288 3.216.859l.711.548v-.704c0-.116.315-.402.461-.362.747.068 1.637-.085 2.366.005a.473.473 0 0 1 .389.331l.01 12.926c-.018.265-.209.407-.463.429-.755.063-1.601-.048-2.366-.005-.168.003-.431-.236-.431-.391v-.67Zm-1.351-9.524c-.901-.667-2.492-.726-3.504-.288-2.533 1.095-2.6 6.037-.597 7.63.958.763 2.697.884 3.772.314 2.302-1.222 2.352-6.158.329-7.655Z"/><path fill="#F3F5F0" d="M55.1 13.344c.152 0 .336.245.357.397.092.683-.05 1.578-.013 2.28-.04.15-.26.341-.413.341h-7.975v7.976c0 .019-.148.227-.189.257a.568.568 0 0 1-.243.1c-.785-.047-1.661.073-2.434.005-.255-.023-.426-.147-.494-.399l.014-18.265c.083-.216.213-.32.445-.343l12.206.01c.208.046.307.19.366.388-.045.683.066 1.454.003 2.126-.018.19-.196.462-.396.462h-9.227l-.051.051v4.614H55.1Z"/></svg>