<svg xmlns="http://www.w3.org/2000/svg" width="284" height="140" fill="none" viewBox="0 0 284 140"><path fill="#fff" d="M0 0h284v140H0z"/><path fill="#fff" d="M0 0h284v140H0z"/><path fill="#4353ff" d="M108.001 64.74c0-3.444-3.349-7.102-9.144-7.102-6.507 0-13.656 4.774-14.749 14.298-1.116 9.619 4.87 13.894 10.902 13.894s9.191-2.352 12.421-5.487c-2.779-3.49-6.365-1.876-7.054-1.52-.76.38-1.733.903-3.728.903-2.328 0-4.703-1.045-4.703-5.391C106.86 72.862 108 68.183 108 64.739m-7.386.57c-.095 1.068-.523 2.897-8.075 3.918 1.59-5.652 4.631-6.08 6.032-6.08 1.306 0 2.138 1.021 2.043 2.161m-25.27.926s-3.207 10.07-3.468 10.901c-.095-.855-2.447-18.93-2.447-18.93-5.462 0-8.384 3.896-9.927 8.005 0 0-3.895 10.094-4.228 10.949-.024-.784-.594-10.83-.594-10.83-.332-5.036-4.94-8.1-8.669-8.1l4.513 27.385c5.724-.024 8.811-3.895 10.427-8.004 0 0 3.443-8.906 3.586-9.31.023.38 2.47 17.314 2.47 17.314 5.748 0 8.835-3.634 10.498-7.6l8.051-19.784c-5.676 0-8.669 3.871-10.213 8.004m53.747-8.646c-3.539 0-6.247 1.924-8.527 4.75v-.023l2.043-16.46c-4.703 0-8.527 4.086-9.263 10.166l-3.562 29.38c2.707 0 5.581-.785 7.125-2.78 1.377 1.782 3.443 3.207 6.507 3.207 7.933 0 13.372-9.215 13.372-17.86-.048-7.886-3.872-10.38-7.695-10.38m-.737 14.132c-.831 4.821-3.515 8.099-6.103 8.099-2.613 0-3.729-1.164-3.729-1.164.498-4.227.807-6.816 1.757-9.049s3.207-5.795 5.558-5.795c2.304 0 3.349 3.064 2.517 7.909m28.24-13.49h-5.534l.024-.285c.38-3.61 1.235-5.51 4.061-5.82 1.924-.19 2.779-1.187 2.993-2.28.166-.854.688-3.823.688-3.823-11.115-.071-14.606 4.726-15.509 12.041l-.024.167h-.118c-1.805 0-3.8 2.042-4.133 4.631l-.119.95h3.705l-3.111 25.698-.95 4.608c.119 0 .261.023.38.023 5.201-.19 8.527-4.298 9.263-10.26l2.422-20.069h1.734c1.71 0 3.705-1.71 4.061-4.56zm28.785-.475c-6.389 0-12.421 4.702-14.274 12.089-1.852 7.386.95 16.126 10.356 16.126 9.381 0 14.796-9.096 14.796-16.673 0-7.529-5.106-11.542-10.878-11.542m2.589 13.728c-.332 3.348-1.805 8.43-5.842 8.43-4.062 0-3.492-5.937-3.088-8.763.427-3.016 2.114-7.315 5.748-7.315 3.253 0 3.562 3.871 3.182 7.647m39.854-5.25s-3.207 10.07-3.468 10.902c-.095-.855-2.446-18.93-2.446-18.93-5.463 0-8.384 3.896-9.928 8.005 0 0-3.895 10.094-4.228 10.949-.023-.784-.593-10.83-.593-10.83-.333-5.036-4.941-8.1-8.669-8.1l4.489 27.385c5.723-.024 8.811-3.895 10.426-8.004 0 0 3.444-8.906 3.563-9.31.047.38 2.47 17.314 2.47 17.314 5.747 0 8.835-3.634 10.497-7.6l8.052-19.784c-5.653 0-8.645 3.871-10.165 8.004M161.82 46.025l-4.655 37.55-.95 4.63c.118 0 .261.025.38.025 5.011-.072 8.574-4.466 9.239-10l2.684-21.541c.807-6.579-3.112-10.664-6.698-10.664"/></svg>