<svg xmlns="http://www.w3.org/2000/svg" width="676" height="150" fill="none" viewBox="0 0 676 150"><g clip-path="url(#a)"><path fill="#fff" d="M75 150c-10.123 0-19.945-1.984-29.195-5.895-8.932-3.778-16.95-9.186-23.839-16.071a74.8 74.8 0 0 1-16.071-23.839C1.985 94.945 0 85.123 0 75s1.984-19.945 5.895-29.195c3.778-8.932 9.186-16.95 16.071-23.839a74.8 74.8 0 0 1 23.84-16.071C55.055 1.985 64.875 0 75 0s19.945 1.984 29.195 5.895c8.932 3.778 16.949 9.186 23.839 16.071a74.7 74.7 0 0 1 16.071 23.84C148.016 55.055 150 64.875 150 75s-1.984 19.945-5.895 29.195c-3.778 8.932-9.186 16.949-16.071 23.839a74.8 74.8 0 0 1-23.839 16.071C94.945 148.016 85.123 150 75 150"/><path fill="#000" d="M74.999 146.026c39.226 0 71.025-31.799 71.025-71.026S114.225 3.974 74.999 3.974 3.973 35.774 3.973 75s31.799 71.026 71.026 71.026"/><path fill="#fff" d="M124.297 51.335h-13.594a19.25 19.25 0 0 0-4.779-7.906 19.2 19.2 0 0 0-7.906-4.789V25.056h-9.657v13.161a18.2 18.2 0 0 0-9.038 4.943l-6.435 6.434a4.835 4.835 0 0 0 0 6.832 4.835 4.835 0 0 0 6.831 0l6.435-6.435c1.672-1.672 3.932-2.572 6.35-2.545 2.471.032 4.81 1.032 6.594 2.815 3.64 3.64 3.762 9.451.27 12.944l-13.531 13.53c-3.493 3.493-9.303 3.371-12.944-.27a4.836 4.836 0 0 0-6.832 0 4.836 4.836 0 0 0 0 6.832 19.14 19.14 0 0 0 13.552 5.636c4.752 0 9.473-1.783 13.055-5.366l13.531-13.53a18.26 18.26 0 0 0 4.932-9.039h13.177v-9.657z"/><path fill="#fff" d="m69.524 93.05-6.434 6.435c-3.493 3.493-9.298 3.371-12.944-.27-3.64-3.64-3.762-9.451-.27-12.944l13.531-13.53c3.493-3.493 9.303-3.371 12.944.27a4.835 4.835 0 0 0 6.831 0 4.835 4.835 0 0 0 0-6.832c-7.408-7.409-19.34-7.53-26.601-.27L43.05 79.439a18.26 18.26 0 0 0-4.932 9.04H24.94v9.656h13.595a19.24 19.24 0 0 0 4.778 7.906 19.2 19.2 0 0 0 7.906 4.779v13.6h9.658v-13.177a18.18 18.18 0 0 0 9.038-4.932l6.435-6.435a4.836 4.836 0 0 0 0-6.831 4.835 4.835 0 0 0-6.832 0z"/></g><path fill="#000" d="M196.953 114V34h52.969v13.945h-36.055v19.063h32.539v13.945h-32.539V114zM260.02 114V54h16.132v10.469h.625q1.641-5.586 5.508-8.438 3.867-2.89 8.906-2.89 1.25 0 2.696.156 1.445.156 2.539.43v14.765q-1.172-.351-3.242-.625a29 29 0 0 0-3.789-.273q-3.672 0-6.563 1.601a11.8 11.8 0 0 0-4.531 4.375q-1.641 2.813-1.641 6.485V114zM320.42 115.133q-5.743 0-10.234-1.992-4.493-2.032-7.11-5.977-2.578-3.984-2.578-9.922 0-5 1.836-8.398 1.836-3.399 5-5.469t7.187-3.125a55 55 0 0 1 8.516-1.484q5.235-.548 8.438-1.016 3.203-.507 4.648-1.484t1.445-2.891v-.234q0-3.71-2.343-5.743-2.305-2.03-6.563-2.03-4.492 0-7.148 1.991-2.656 1.954-3.516 4.922l-15.391-1.25q1.172-5.469 4.61-9.453 3.437-4.024 8.867-6.172 5.47-2.187 12.656-2.187 5 0 9.571 1.172 4.608 1.171 8.164 3.632a17.7 17.7 0 0 1 5.664 6.329q2.07 3.827 2.07 9.18V114h-15.781v-8.32h-.469a17 17 0 0 1-3.867 4.961q-2.422 2.11-5.821 3.32-3.397 1.172-7.851 1.172m4.766-11.485q3.671 0 6.484-1.445 2.812-1.484 4.414-3.984t1.602-5.664v-6.368q-.781.508-2.149.938-1.328.39-3.008.742a150 150 0 0 1-3.359.586q-1.68.234-3.047.43-2.93.43-5.117 1.367t-3.399 2.54q-1.21 1.561-1.211 3.905 0 3.399 2.461 5.196 2.5 1.757 6.329 1.757M381.025 54l11.016 20.977L403.33 54h17.07l-17.382 30 17.851 30h-16.992l-11.836-20.742L380.4 114h-17.187l17.812-30-17.187-30zM480.205 71.11l-15.234.937a7.9 7.9 0 0 0-1.68-3.516q-1.289-1.602-3.398-2.539-2.071-.976-4.961-.976-3.867 0-6.524 1.64-2.656 1.602-2.656 4.297 0 2.148 1.719 3.633t5.898 2.383l10.86 2.187q8.75 1.797 13.046 5.781 4.297 3.985 4.297 10.47 0 5.898-3.476 10.351-3.438 4.453-9.453 6.953-5.977 2.461-13.789 2.461-11.914 0-18.985-4.961-7.031-5-8.242-13.594l16.367-.86q.743 3.634 3.594 5.548 2.852 1.875 7.305 1.875 4.374 0 7.031-1.68 2.695-1.719 2.734-4.414-.039-2.266-1.914-3.711-1.875-1.485-5.781-2.266l-10.391-2.07q-8.788-1.758-13.086-6.094-4.257-4.335-4.257-11.054 0-5.782 3.125-9.961 3.164-4.18 8.867-6.446 5.742-2.265 13.437-2.265 11.367 0 17.891 4.804 6.563 4.805 7.656 13.086M519.16 115.172q-9.219 0-15.859-3.906-6.602-3.946-10.156-10.938-3.516-6.992-3.516-16.094 0-9.218 3.555-16.171 3.593-6.993 10.195-10.899 6.601-3.945 15.703-3.945 7.851 0 13.75 2.851 5.898 2.851 9.336 8.008t3.789 12.11h-15.703q-.664-4.493-3.516-7.227-2.812-2.773-7.383-2.773-3.867 0-6.757 2.109-2.852 2.07-4.453 6.055T506.543 84q0 5.742 1.562 9.766 1.602 4.023 4.493 6.132t6.757 2.11q2.852 0 5.118-1.172 2.304-1.172 3.789-3.398 1.523-2.265 1.992-5.43h15.703q-.39 6.875-3.75 12.109-3.32 5.196-9.18 8.125t-13.867 2.93M573.721 115.133q-5.742 0-10.235-1.992-4.491-2.032-7.109-5.977-2.578-3.984-2.578-9.922 0-5 1.836-8.398 1.836-3.399 5-5.469t7.187-3.125a55 55 0 0 1 8.516-1.484q5.234-.548 8.437-1.016 3.203-.507 4.649-1.484 1.445-.977 1.445-2.891v-.234q0-3.71-2.344-5.743-2.305-2.03-6.562-2.03-4.493 0-7.149 1.991-2.655 1.954-3.515 4.922l-15.391-1.25q1.172-5.469 4.61-9.453 3.437-4.024 8.867-6.172 5.468-2.187 12.656-2.187 5 0 9.57 1.172 4.61 1.171 8.164 3.632a17.65 17.65 0 0 1 5.664 6.329q2.071 3.827 2.071 9.18V114h-15.781v-8.32h-.469a17 17 0 0 1-3.867 4.961q-2.422 2.11-5.821 3.32-3.398 1.172-7.851 1.172m4.765-11.485q3.672 0 6.485-1.445 2.812-1.484 4.414-3.984 1.6-2.5 1.601-5.664v-6.368q-.781.508-2.148.938-1.328.39-3.008.742-1.68.313-3.359.586-1.68.234-3.047.43-2.93.43-5.117 1.367-2.188.937-3.399 2.54-1.21 1.561-1.211 3.905 0 3.399 2.461 5.196 2.5 1.757 6.328 1.757M637.061 79.313V114H620.42V54h15.859v10.586h.703q1.993-5.235 6.68-8.281 4.688-3.087 11.367-3.086 6.25 0 10.899 2.734t7.226 7.813q2.578 5.04 2.578 12.03V114h-16.64V78.766q.039-5.508-2.813-8.594-2.851-3.126-7.851-3.125-3.36 0-5.938 1.445-2.539 1.446-3.984 4.219-1.406 2.734-1.445 6.602"/><defs><clipPath id="a"><path fill="#fff" d="M0 0h150v150H0z"/></clipPath></defs></svg>