<?xml version="1.0" encoding="UTF-8"?>
<svg id="Layer_1" xmlns="http://www.w3.org/2000/svg" version="1.1" viewBox="0 0 140 64">
  <!-- Generator: Adobe Illustrator 30.2.1, SVG Export Plug-In . SVG Version: 2.1.1 Build 1)  -->
  <defs>
    <style>
      .st0 {
        fill: #fff;
      }

      .st1 {
        fill: #7f7f7f;
      }
    </style>
  </defs>
  <g>
    <rect class="st0" x="49.8" y="17.6" width="17.2" height="2.8"/>
    <rect class="st0" x="105.8" y="17.6" width="17.2" height="2.8"/>
    <polygon class="st0" points="49.8 35 52.6 35 52.6 27.6 65.1 27.6 65.1 24.8 49.8 24.8 49.8 35"/>
    <path class="st0" d="M82.5,26.7c0,3.1-2.5,5.7-5.7,5.7s-5.7-2.6-5.7-5.7v-9.1h-2.8v9.1c0,4.7,3.8,8.5,8.5,8.5s8.5-3.8,8.5-8.5v-9.1h-2.8v9.1Z"/>
    <polygon class="st0" points="108.7 27.8 120.9 27.8 120.9 25 105.9 25 105.9 35 123 35 123 32.2 108.7 32.2 108.7 27.8"/>
    <polygon class="st0" points="87.5 17.6 87.5 20.6 98.4 20.6 86.3 35 104.3 35 104.3 32.2 92.6 32.2 105 17.6 87.5 17.6"/>
  </g>
  <path class="st1" d="M26.7,49c-.7,0-1.5,0-2.4-.2l1.5-1.7h0c.3,0,.5,0,.8,0,8.3,0,15.1-6.8,15.1-15.1s-2.7-10-7.1-12.8l.7-1.7c5.1,3.1,8.3,8.6,8.3,14.5,0,9.3-7.6,16.9-16.9,16.9Z"/>
  <path class="st0" d="M17.8,46.5c-5-3.1-8.1-8.6-8.1-14.4,0-9.3,7.6-16.9,16.9-16.9s1.3,0,2,.1l-1.5,1.7h-.1c-.1,0-.3,0-.4,0-8.3,0-15.1,6.8-15.1,15.1s2.6,9.9,6.9,12.7l-.7,1.7Z"/>
  <polygon class="st1" points="17.6 32.1 35.5 32.1 23.7 25.1 17.6 32.1"/>
  <polygon class="st0" points="26.6 32.1 18.4 51.8 35.5 32.1 26.6 32.1"/>
  <polygon class="st0" points="23.7 25.1 34.9 12.1 28.3 27.9 23.7 25.1"/>
  <g>
    <path class="st0" d="M49.7,46v-6.5h4.1v.9h-3.1v1.8h2.5v.9h-2.5v2.8h-1Z"/>
    <path class="st0" d="M60.5,46v-6.5h1v6.5h-1Z"/>
    <path class="st0" d="M68.8,46v-6.5h1l3.4,4.8v-4.8h1v6.5h-1l-3.4-4.8v4.8h-1Z"/>
    <path class="st0" d="M80.8,46l2.2-6.5h1.4l2.2,6.5h-1l-2.1-5.9h.3l-2,5.9h-1ZM82,44.5v-.9h3.6v.9h-3.6Z"/>
    <path class="st0" d="M93.4,46v-6.5h1l3.4,4.8v-4.8h1v6.5h-1l-3.4-4.8v4.8h-1Z"/>
    <path class="st0" d="M108.8,46.1c-.7,0-1.3-.1-1.8-.4-.5-.3-.9-.7-1.1-1.2-.3-.5-.4-1.1-.4-1.8s.1-1.3.4-1.8.6-.9,1.1-1.2c.5-.3,1.1-.4,1.8-.4s1.4.2,2,.6.9.9,1.1,1.5l-1,.3c-.1-.5-.4-.8-.7-1.1-.3-.3-.8-.4-1.3-.4s-.9.1-1.2.3c-.3.2-.6.5-.7.9-.2.4-.2.8-.2,1.3,0,.5,0,.9.2,1.3.2.4.4.7.7.9.3.2.7.3,1.2.3s1-.1,1.3-.4c.3-.3.6-.6.7-1.1l1,.3c-.2.6-.6,1.1-1.1,1.5s-1.2.6-2,.6Z"/>
    <path class="st0" d="M118.6,46v-6.5h4.4v.9h-3.4v1.8h2.8v.9h-2.8v2h3.4v.9h-4.4Z"/>
  </g>
</svg>