<svg xmlns="http://www.w3.org/2000/svg" id="Layer_1" data-name="Layer 1" viewBox="0 0 144 62"><defs><style>.cls-1,.cls-2{stroke-width:0;fill:#fff}</style></defs><path d="M55.4 22.6h17.2v2.8H55.4zm56 0h17.2v2.8h-17.2zM55.4 40h2.8v-7.4h12.5v-2.8H55.4zm32.8-8.3c0 3.1-2.5 5.7-5.7 5.7s-5.7-2.6-5.7-5.7v-9.1H74v9.1c0 4.7 3.8 8.5 8.5 8.5s8.5-3.8 8.5-8.5v-9.1h-2.8zm26.2 1.1h12.2V30h-15v10h17v-2.8h-14.2zM93.2 22.6v3H104L91.9 40h18v-2.8H98.2l12.4-14.6z" class="cls-2"/><path d="M32.3 48c-.7 0-1.5 0-2.4-.2l1.5-1.7h.8c8.3 0 15.1-6.8 15.1-15.1s-2.7-10-7.1-12.8l.7-1.7c5.1 3.1 8.3 8.6 8.3 14.5 0 9.3-7.6 16.9-16.9 16.9Z" class="cls-1"/><path d="M23.5 45.5c-5-3.1-8.1-8.6-8.1-14.4 0-9.3 7.6-16.9 16.9-16.9s1.3 0 2 .1L32.8 16h-.5c-8.3 0-15.1 6.8-15.1 15.1s2.6 9.9 6.9 12.7l-.7 1.7Z" class="cls-2"/><path d="M23.2 31.1h17.9l-11.8-7z" class="cls-1"/><path d="M32.2 31.1 24 50.8l17.1-19.7zm-2.9-7 11.2-13L34 26.9z" class="cls-2"/></svg>