<svg xmlns="http://www.w3.org/2000/svg" id="Layer_1" viewBox="0 0 140 64"><defs><style>.st0{fill:#fff}.st1{fill:#7f7f7f}</style></defs><path d="M49.8 17.6H67v2.8H49.8zM105.8 17.6H123v2.8h-17.2zM49.8 35h2.8v-7.4h12.5v-2.8H49.8zM82.5 26.7c0 3.1-2.5 5.7-5.7 5.7s-5.7-2.6-5.7-5.7v-9.1h-2.8v9.1c0 4.7 3.8 8.5 8.5 8.5s8.5-3.8 8.5-8.5v-9.1h-2.8zM108.7 27.8h12.2V25h-15v10H123v-2.8h-14.3zM87.5 17.6v3h10.9L86.3 35h18v-2.8H92.6L105 17.6z" class="st0"/><path d="M26.7 49c-.7 0-1.5 0-2.4-.2l1.5-1.7h.8c8.3 0 15.1-6.8 15.1-15.1S39 22 34.6 19.2l.7-1.7c5.1 3.1 8.3 8.6 8.3 14.5 0 9.3-7.6 16.9-16.9 16.9Z" class="st1"/><path d="M17.8 46.5c-5-3.1-8.1-8.6-8.1-14.4 0-9.3 7.6-16.9 16.9-16.9s1.3 0 2 .1L27.1 17h-.5c-8.3 0-15.1 6.8-15.1 15.1s2.6 9.9 6.9 12.7l-.7 1.7Z" class="st0"/><path d="M17.6 32.1h17.9l-11.8-7z" class="st1"/><path d="m26.6 32.1-8.2 19.7 17.1-19.7zM23.7 25.1l11.2-13-6.6 15.8zM49.7 46v-6.5h4.1v.9h-3.1v1.8h2.5v.9h-2.5v2.8h-1ZM60.5 46v-6.5h1V46zM68.8 46v-6.5h1l3.4 4.8v-4.8h1V46h-1l-3.4-4.8V46zM80.8 46l2.2-6.5h1.4l2.2 6.5h-1l-2.1-5.9h.3l-2 5.9zm1.2-1.5v-.9h3.6v.9zM93.4 46v-6.5h1l3.4 4.8v-4.8h1V46h-1l-3.4-4.8V46zM108.8 46.1c-.7 0-1.3-.1-1.8-.4s-.9-.7-1.1-1.2c-.3-.5-.4-1.1-.4-1.8s.1-1.3.4-1.8.6-.9 1.1-1.2 1.1-.4 1.8-.4 1.4.2 2 .6.9.9 1.1 1.5l-1 .3c-.1-.5-.4-.8-.7-1.1s-.8-.4-1.3-.4-.9.1-1.2.3-.6.5-.7.9c-.2.4-.2.8-.2 1.3s0 .9.2 1.3.4.7.7.9q.45.3 1.2.3c.75 0 1-.1 1.3-.4s.6-.6.7-1.1l1 .3c-.2.6-.6 1.1-1.1 1.5s-1.2.6-2 .6M118.6 46v-6.5h4.4v.9h-3.4v1.8h2.8v.9h-2.8v2h3.4v.9z" class="st0"/></svg>