<svg xmlns="http://www.w3.org/2000/svg" data-name="Layer 1" viewBox="0 0 3602 1031.02"><path d="M1524.27 906c-100.43 1.69-179.75-41.24-187.35-135.53a5.76 5.76 0 0 1 5.91-5.89H1407c3.38 0 5.91 2.52 6.76 5.89 7.59 54.72 51.47 80 112.23 80 70.89 0 119.83-42.09 119.83-139.75V661.9c-27.85 48-74.26 76.6-135 76.6-121.52 0-185.65-91.75-185.65-215.5 0-122.91 65.82-222.24 183.12-222.24 60.76 0 107.17 26.09 135.87 74.08l-2.54-61.46a5.76 5.76 0 0 1 5.91-5.89h65a5.76 5.76 0 0 1 5.91 5.89l-1.69 167.52.84 230.67c.77 124.59-69.28 194.43-193.32 194.43m3.37-222.23c70.89 0 117.3-50.52 118.14-157.43.85-103.54-39.66-165.83-111.39-170.89H1520c-77.63 2.53-117.29 66.5-117.29 165 .04 104.41 42.23 164.18 124.93 163.34ZM2096.06 741a5.76 5.76 0 0 1-5.9-5.89l1.68-64c-29.53 48.83-76 78.3-139.24 78.3-117.3 0-179.75-98.5-179.75-223.93s66.67-226.45 181.44-226.45c61.6 0 108 26.1 136.71 74.08l-1.69-59.77a5.76 5.76 0 0 1 5.91-5.89H2161a5.76 5.76 0 0 1 5.91 5.89l-2.53 207.09 2.62 214.71a5.76 5.76 0 0 1-6 5.86Zm-124-48c75.1 0 120.68-55.56 121.52-165 .84-105.23-39.66-167.52-111.39-172.58h-14.35c-79.32 2.53-116.45 69-116.45 164.16C1851.34 623.17 1890.15 693 1972 693ZM2246.07 741a5.76 5.76 0 0 1-5.9-5.89L2242.7 443l-2.53-285.38a5.76 5.76 0 0 1 5.9-5.89h65a5.76 5.76 0 0 1 5.91 5.89l-2.53 284.54 2.53 293a5.76 5.76 0 0 1-5.91 5.89ZM2695.18 741a5.77 5.77 0 0 1-5.91-5.89l1.69-64c-29.53 48.83-75.95 78.3-139.24 78.3-117.3 0-179.75-98.5-179.75-223.93s66.67-226.45 181.44-226.45c61.6 0 108 26.1 136.7 74.08l-1.68-59.77a5.76 5.76 0 0 1 5.91-5.89h65.82a5.76 5.76 0 0 1 5.91 5.89l-2.54 207.09 2.54 214.67a5.77 5.77 0 0 1-5.91 5.89Zm-124-48c75.1 0 120.68-55.56 121.52-165 .84-105.23-39.66-167.52-111.39-172.58h-14.35c-79.33 2.53-116.45 69-116.45 164.16-.05 103.59 38.76 173.42 120.62 173.42ZM3111.11 741c-3.38 0-7.6-1.69-9.29-5l-108-176.78L2885.79 736c-1.69 3.36-5.91 5-9.29 5h-68.35a3.09 3.09 0 0 1-2.53-5l140.93-224.77-129.12-198.69a3.09 3.09 0 0 1 2.53-5.05h75.11c3.37 0 7.6 1.68 9.28 5.05l97.89 159.1 94.52-159.1a11.65 11.65 0 0 1 9.28-5.05h65.82a3.09 3.09 0 0 1 2.53 5.05l-124.89 201.2L3188.74 736a3.09 3.09 0 0 1-2.53 5ZM3403.32 878.24a8.1 8.1 0 0 1-7.6 5.9h-61.6a4.6 4.6 0 0 1-4.22-5.9l47.26-136.37-170.46-428.49c-1.7-3.37 0-5.89 3.37-5.89h75.1a8.1 8.1 0 0 1 7.6 5.89l124.05 328.31 104.64-328.31a8.1 8.1 0 0 1 7.59-5.89h67.52c3.37 0 5.06 2.52 4.21 5.89ZM152.75 151.75h732.73v732.68c93.75-93.75 151.75-223.25 151.75-366.31C1037.23 232 805.26 0 519.12 0S1 232 1 518.12c0 143 58 272.44 151.75 366.18ZM152.92 884.48h-.17v146.54h732.73V884.48H152.92"/></svg>