<svg xmlns="http://www.w3.org/2000/svg" width="181" height="29" fill="none" viewBox="0 0 181 29"><path fill="#ff0035" d="M24.002.498v4.895H12.557q-4.035 0-5.888 2.158-1.81 2.116-1.811 6.97 0 4.812 1.811 6.97 1.812 2.115 5.888 2.116h4.61q2.058 0 2.965-1.08.905-1.119.905-2.862 0-1.701-.864-2.613-.824-.955-2.553-.955h-6.175v-4.273h6.67q3.746 0 5.557 2.157 1.812 2.116 1.812 5.767a11.7 11.7 0 0 1-.494 3.444 7.06 7.06 0 0 1-1.524 2.78q-1.029 1.161-2.676 1.866-1.605.664-3.952.664h-4.281q-6.094 0-9.346-3.443Q.001 21.574 0 14.52 0 7.426 3.211 3.983 6.464.498 12.557.498zM32.614 28.502h-5.352L37.019 3.61q.783-1.99 2.182-2.78Q40.641.002 42.865 0q2.183 0 3.582.83 1.44.788 2.182 2.78l9.386 24.892h-5.393l-8.44-22.528q-.37-.954-1.358-.954t-1.4.954zM66.915 28.502h-4.817V6.265q0-2.822 1.647-4.523Q65.392 0 68.768 0q2.964 0 4.693 1.452 1.729 1.41 2.306 4.066l3.91 17.134q.371 1.577 1.853 1.577 1.44 0 1.853-1.577l3.91-17.134q.577-2.655 2.183-4.066Q91.123 0 94.128 0q3.376 0 5.023 1.742 1.646 1.701 1.646 4.523v22.237h-4.816V6.514q0-.83-.536-1.287-.494-.497-1.44-.497-.865 0-1.318.414-.453.374-.617 1.08l-3.994 17.134q-.658 2.78-2.182 4.231Q84.371 29 81.49 29q-2.923 0-4.529-1.452-1.564-1.452-2.181-4.19L70.825 6.223q-.165-.705-.658-1.079-.453-.414-1.277-.414-.946 0-1.482.497-.494.457-.494 1.287zM112.266 28.502h-4.817V6.265q0-2.822 1.647-4.523Q110.742 0 114.118 0q2.965 0 4.693 1.452 1.73 1.41 2.306 4.066l3.911 17.134q.37 1.577 1.853 1.577 1.44 0 1.852-1.577l3.911-17.134q.577-2.655 2.182-4.066Q136.473 0 139.478 0q3.376 0 5.023 1.742 1.647 1.701 1.647 4.523v22.237h-4.817V6.514q0-.83-.535-1.287-.495-.497-1.441-.497-.865 0-1.318.414-.452.374-.617 1.08l-3.993 17.134q-.66 2.78-2.182 4.231Q129.721 29 126.839 29q-2.922 0-4.528-1.452-1.564-1.452-2.182-4.19l-3.952-17.135q-.165-.705-.659-1.079-.453-.414-1.276-.414-.948 0-1.482.497-.495.457-.494 1.287zM155.599 28.502h-5.352l9.757-24.893q.782-1.99 2.182-2.78 1.44-.828 3.664-.829 2.181 0 3.581.83 1.441.788 2.182 2.78L181 28.501h-5.393l-8.44-22.528q-.37-.954-1.358-.954t-1.4.954z"/></svg>