<svg xmlns="http://www.w3.org/2000/svg" width="500" height="500" fill="none" viewBox="0 0 500 500"><path fill="#ff0025" d="M250 500c138.071 0 250-111.929 250-250S388.071 0 250 0 0 111.929 0 250s111.929 250 250 250"/><path fill="#fff" d="M248.547 126.323a8.65 8.65 0 0 0-8.652 8.652v230.663a8.652 8.652 0 1 0 17.304 0V134.975a8.65 8.65 0 0 0-8.652-8.652"/><path stroke="#fff" d="M248.547 126.323a8.65 8.65 0 0 1 8.652 8.652v230.663a8.652 8.652 0 1 1-17.304 0V134.975a8.65 8.65 0 0 1 8.652-8.652Z"/><path fill="#fff" d="M374.506 249.91a8.65 8.65 0 0 0-8.652-8.652H135.191a8.652 8.652 0 1 0 0 17.304h230.663a8.65 8.65 0 0 0 8.652-8.652"/><path stroke="#fff" d="M374.506 249.91a8.65 8.65 0 0 1-8.652 8.652H135.191a8.652 8.652 0 1 1 0-17.304h230.663a8.65 8.65 0 0 1 8.652 8.652Z"/><path fill="#fff" d="M338.304 338.419a8.65 8.65 0 0 0 0-12.236L175.201 163.08a8.65 8.65 0 0 0-12.236 0 8.65 8.65 0 0 0 0 12.235l163.103 163.104a8.653 8.653 0 0 0 12.236 0"/><path stroke="#fff" d="M338.304 338.419a8.653 8.653 0 0 1-12.236 0L162.965 175.315a8.65 8.65 0 0 1 0-12.235 8.65 8.65 0 0 1 12.236 0l163.103 163.103a8.65 8.65 0 0 1 0 12.236Z"/><path fill="#fff" d="M126.737 371.115a8.653 8.653 0 0 0 12.235 0L370.307 139.78a8.65 8.65 0 0 0 0-12.236 8.65 8.65 0 0 0-12.236 0L126.737 358.879a8.65 8.65 0 0 0 0 12.236"/><path stroke="#fff" d="M126.737 371.115a8.65 8.65 0 0 1 0-12.236l231.334-231.335a8.65 8.65 0 0 1 12.236 0 8.65 8.65 0 0 1 0 12.236L138.972 371.115a8.653 8.653 0 0 1-12.235 0Z"/></svg>