<svg xmlns="http://www.w3.org/2000/svg" viewBox="0 0 198.41 305.77"><defs><style>.cls-1{fill:#5e464d}</style></defs><title>ganache-logo-v-dark</title><g id="Layer_2" data-name="Layer 2"><g id="Layer_8" data-name="Layer 8"><path d="M26.54 277.25a18.8 18.8 0 0 1-5.35 5 12.24 12.24 0 0 1-6.43 1.78 12.7 12.7 0 0 1-6.28-1.54 13.36 13.36 0 0 1-4.63-4.36A21.5 21.5 0 0 1 1 271.36a37.2 37.2 0 0 1-1-8.84 33.4 33.4 0 0 1 .78-7.06 35.8 35.8 0 0 1 2.29-7A36.4 36.4 0 0 1 6.73 242a27 27 0 0 1 4.9-5.27 23.1 23.1 0 0 1 6.06-3.56 19 19 0 0 1 7.1-1.32 12.2 12.2 0 0 1 3.83.59 8.9 8.9 0 0 1 3.07 1.71 8 8 0 0 1 2 2.7 8.3 8.3 0 0 1 .75 3.58 9.7 9.7 0 0 1-.71 3.65 13.8 13.8 0 0 1-1.91 3.31 16.8 16.8 0 0 1-2.82 2.86 21 21 0 0 1-3.34 2.22 18 18 0 0 1-3.57 1.43 13 13 0 0 1-3.5.51 3.66 3.66 0 0 1-2.36-.8 3 3 0 0 1-1-2.51 8 8 0 0 1 .05-.81 5.5 5.5 0 0 1 .17-.81 2.7 2.7 0 0 1 .26-.63.42.42 0 0 1 .37-.25.7.7 0 0 1 .36.11 2.5 2.5 0 0 0 .44.24 5 5 0 0 0 .76.24 6 6 0 0 0 1.34.12 8 8 0 0 0 3.11-.71 12.5 12.5 0 0 0 3.06-1.9 10.7 10.7 0 0 0 2.39-2.7 6.07 6.07 0 0 0 .93-3.19 3.8 3.8 0 0 0-.24-1.28 3.5 3.5 0 0 0-.78-1.25 4.2 4.2 0 0 0-1.43-1 5.5 5.5 0 0 0-2.19-.39 10.7 10.7 0 0 0-4.61 1 15.5 15.5 0 0 0-4.16 2.89 24.7 24.7 0 0 0-3.56 4.31 30.3 30.3 0 0 0-2.76 5.31A33.4 33.4 0 0 0 7 256.37a30.3 30.3 0 0 0-.63 6.08 32 32 0 0 0 .63 6.74 18.7 18.7 0 0 0 1.8 5.09 9.6 9.6 0 0 0 2.73 3.23 5.78 5.78 0 0 0 3.41 1.13 8.6 8.6 0 0 0 3.56-.73 10.5 10.5 0 0 0 2.91-1.91 13.3 13.3 0 0 0 2.27-2.81 21 21 0 0 0 1.62-3.27 20.7 20.7 0 0 0 1-3.37 16 16 0 0 0 .33-3.09 11 11 0 0 0-.07-1.23 10 10 0 0 1-.07-1.07 1.24 1.24 0 0 1 .2-.77 1.3 1.3 0 0 1 .54-.41 2.5 2.5 0 0 1 .78-.17h.93a4.3 4.3 0 0 1 1.19.2 6 6 0 0 1 1.28.56 4.1 4.1 0 0 1 1 .83 1.5 1.5 0 0 1 .43 1c-.2 1.87-.32 3.65-.37 5.33s-.08 3.38-.08 5.12v10.88c.72-.12 1.42-.19 2.1-.24l1.95-.13c.89 0 1.47.2 1.73.76a2.63 2.63 0 0 1 .11 1.87 4.8 4.8 0 0 1-1.06 1.93 2.45 2.45 0 0 1-1.78.91h-1.62c-.51 0-1 .06-1.58.11-.07 1.3-.19 2.62-.33 3.95a27 27 0 0 1-.73 3.87 19.3 19.3 0 0 1-1.3 3.51 10.7 10.7 0 0 1-2 2.86 8.7 8.7 0 0 1-2.86 1.92 9.85 9.85 0 0 1-3.91.71 9.5 9.5 0 0 1-3.51-.62 8 8 0 0 1-2.6-1.71 7.4 7.4 0 0 1-1.71-2.59 8.6 8.6 0 0 1-.6-3.24 9.15 9.15 0 0 1 1.19-4.68 12.6 12.6 0 0 1 3.14-3.6 19.3 19.3 0 0 1 4.48-2.64 42 42 0 0 1 5.17-1.82v-.68c0-1.49 0-2.8-.08-3.95s-.05-2.14-.05-2.98m-5.17 23.19a3.1 3.1 0 0 0 2.18-.85 6.2 6.2 0 0 0 1.5-2.3A16 16 0 0 0 26 294a36 36 0 0 0 .49-4 14 14 0 0 0-5.82 3 6 6 0 0 0-2 4.49 2.61 2.61 0 0 0 2.75 3Zm39.29-21.8a2.9 2.9 0 0 0 2-.74 7 7 0 0 0 1.44-1.9 12.5 12.5 0 0 0 1-2.42c.26-.87.47-1.68.65-2.45a3.16 3.16 0 0 1 .76-1.57 1.52 1.52 0 0 1 1.1-.49 1.9 1.9 0 0 1 .91.25 3.6 3.6 0 0 1 1.48 1.61 2.4 2.4 0 0 1 .25 1v.17a1 1 0 0 1-.08.3 26 26 0 0 1-1.31 3.6 15.2 15.2 0 0 1-2.14 3.48 11 11 0 0 1-3.14 2.63 8.5 8.5 0 0 1-4.29 1.05 7.46 7.46 0 0 1-3.5-.78 6.2 6.2 0 0 1-2.34-2.06 10.4 10.4 0 0 1-2.77 2 8.15 8.15 0 0 1-3.77.83 9 9 0 0 1-3.92-.81 8.2 8.2 0 0 1-2.84-2.21 9.4 9.4 0 0 1-1.73-3.32 14 14 0 0 1-.58-4.1 18.9 18.9 0 0 1 1.53-7.71 18 18 0 0 1 4.05-5.87 17.7 17.7 0 0 1 5.78-3.7 18.3 18.3 0 0 1 6.74-1.28 3.88 3.88 0 0 1 2.53.78 2.54 2.54 0 0 1 1 2.12 2.6 2.6 0 0 1-.21 1.24.79.79 0 0 1-.76.35 10 10 0 0 1-1.08-.06 9 9 0 0 0-1.15-.07 12.1 12.1 0 0 0-4.38.86 11.6 11.6 0 0 0-4 2.64 13.6 13.6 0 0 0-3 4.49 16.5 16.5 0 0 0-1.18 6.5 6.68 6.68 0 0 0 1.16 4.21 3.78 3.78 0 0 0 3.13 1.43 3.5 3.5 0 0 0 2.6-1.07 8.3 8.3 0 0 0 1.67-2.51v-10.68a7 7 0 0 0 0-.85q-.06-.33-.12-.57c0-.16-.07-.3-.09-.42a2.5 2.5 0 0 1 0-.36 1 1 0 0 1 .58-.86A2.86 2.86 0 0 1 54 261a4.74 4.74 0 0 1 3 .89 2.7 2.7 0 0 1 1.1 2.11v11.42a4.3 4.3 0 0 0 .15 1.13 3.8 3.8 0 0 0 .44 1 2.3 2.3 0 0 0 2 1Z" class="cls-1"/><path d="M66.09 258.23a4.1 4.1 0 0 0-.17-1.42 2.3 2.3 0 0 1-.16-.81 1 1 0 0 1 .59-.83 3 3 0 0 1 1.41-.32 4.64 4.64 0 0 1 3 .89 2.7 2.7 0 0 1 1.09 2.15V261a25 25 0 0 1 1.69-2.71 13.8 13.8 0 0 1 2-2.17 8.9 8.9 0 0 1 2.27-1.46 6.5 6.5 0 0 1 2.62-.52 6.6 6.6 0 0 1 3.12.64 5.3 5.3 0 0 1 1.94 1.66 6.2 6.2 0 0 1 1 2.26 11 11 0 0 1 .28 2.43v15.09a4.2 4.2 0 0 0 .22 1.07 2.6 2.6 0 0 0 .58.94 1.5 1.5 0 0 0 1.13.41 2.92 2.92 0 0 0 2-.74 7 7 0 0 0 1.43-1.9 13 13 0 0 0 1-2.42c.25-.87.47-1.68.65-2.45a2.85 2.85 0 0 1 .74-1.57 1.55 1.55 0 0 1 1.08-.49 2 2 0 0 1 .93.25 3.5 3.5 0 0 1 .87.66 3.5 3.5 0 0 1 .63.91 2.4 2.4 0 0 1 .24 1v.17a1 1 0 0 1-.07.3 26 26 0 0 1-1.31 3.64 15 15 0 0 1-2.16 3.48 11.4 11.4 0 0 1-3.14 2.63 8.4 8.4 0 0 1-4.27 1.05 6.5 6.5 0 0 1-2.7-.52 6.3 6.3 0 0 1-2-1.41 5.8 5.8 0 0 1-1.26-2.06 7.4 7.4 0 0 1-.43-2.5v-15.53a5.5 5.5 0 0 0-.21-1.25 2.1 2.1 0 0 0-.48-.86 1.2 1.2 0 0 0-.88-.32 3.44 3.44 0 0 0-2 1 14 14 0 0 0-2.36 2.64 19 19 0 0 0-2 3.65 14.5 14.5 0 0 0-1.1 4.1v11.11a2.4 2.4 0 0 1-.23.94 1.7 1.7 0 0 1-.63.71 2.26 2.26 0 0 1-1.25.29 6.6 6.6 0 0 1-1.2-.12 3.4 3.4 0 0 1-1.19-.44 2.5 2.5 0 0 1-.89-.91 3 3 0 0 1-.36-1.57Z" class="cls-1"/><path d="M115.08 278.64a2.9 2.9 0 0 0 2-.74 7 7 0 0 0 1.45-1.86 12.5 12.5 0 0 0 1-2.42c.26-.87.47-1.68.65-2.45a3.16 3.16 0 0 1 .76-1.57 1.52 1.52 0 0 1 1.1-.49 1.9 1.9 0 0 1 .91.25 3.6 3.6 0 0 1 1.48 1.57 2.26 2.26 0 0 1 .25 1v.17a1 1 0 0 1-.08.3 26 26 0 0 1-1.32 3.62 15.2 15.2 0 0 1-2.14 3.48 11 11 0 0 1-3.14 2.63 8.47 8.47 0 0 1-4.29 1.05 7.46 7.46 0 0 1-3.5-.78 6.2 6.2 0 0 1-2.34-2.06 10.4 10.4 0 0 1-2.77 2 8.15 8.15 0 0 1-3.77.83 9 9 0 0 1-3.92-.81 8.2 8.2 0 0 1-2.84-2.21 9.4 9.4 0 0 1-1.73-3.32 14 14 0 0 1-.58-4.1 18.9 18.9 0 0 1 1.53-7.73 18 18 0 0 1 4-5.87 17.7 17.7 0 0 1 5.78-3.7 18.3 18.3 0 0 1 6.74-1.28 3.9 3.9 0 0 1 2.53.78 2.54 2.54 0 0 1 1 2.12 2.6 2.6 0 0 1-.21 1.24.79.79 0 0 1-.76.35 10 10 0 0 1-1.08-.06 9 9 0 0 0-1.15-.07 12.1 12.1 0 0 0-4.38.86 11.6 11.6 0 0 0-4 2.64 13.6 13.6 0 0 0-2.95 4.49 16.5 16.5 0 0 0-1.18 6.5 6.68 6.68 0 0 0 1.16 4.21 3.78 3.78 0 0 0 3.16 1.47 3.5 3.5 0 0 0 2.6-1.07 8.3 8.3 0 0 0 1.67-2.51v-10.72a7 7 0 0 0 0-.85q-.06-.33-.12-.57t-.09-.42a2.5 2.5 0 0 1 0-.36 1 1 0 0 1 .58-.86 2.86 2.86 0 0 1 1.39-.32 4.7 4.7 0 0 1 3 .89 2.68 2.68 0 0 1 1.12 2.15v11.42a4.3 4.3 0 0 0 .15 1.13 3.8 3.8 0 0 0 .44 1 2.3 2.3 0 0 0 2 1Z" class="cls-1"/><path d="M132.67 283.2a14.7 14.7 0 0 1-4.91-.84 12.5 12.5 0 0 1-4.22-2.51 12.1 12.1 0 0 1-2.94-4.08 13.7 13.7 0 0 1-1.09-5.65 18.8 18.8 0 0 1 .93-5.84 18 18 0 0 1 2.56-5.12 13.6 13.6 0 0 1 3.92-3.64 9.5 9.5 0 0 1 5-1.38 7 7 0 0 1 3.35.73 7.4 7.4 0 0 1 2.23 1.75 6.8 6.8 0 0 1 1.24 2.22 6.7 6.7 0 0 1 .39 2.09 2 2 0 0 1-.39 1.22 3.7 3.7 0 0 1-.94.91 4.4 4.4 0 0 1-1.23.56 3.8 3.8 0 0 1-1.19.15 1.3 1.3 0 0 1-.84-.34.93.93 0 0 1-.2-.91 9 9 0 0 1-.28-1.08 4.7 4.7 0 0 0-.45-1.24 3.1 3.1 0 0 0-.87-1 2.47 2.47 0 0 0-1.52-.42 3 3 0 0 0-2 .89 8.2 8.2 0 0 0-1.75 2.45 17 17 0 0 0-1.22 3.62 20 20 0 0 0-.47 4.39 10.5 10.5 0 0 0 .58 3.65 7.3 7.3 0 0 0 1.62 2.67 6.7 6.7 0 0 0 2.47 1.64 8.5 8.5 0 0 0 3.1.56 9.1 9.1 0 0 0 3.88-.76 8.8 8.8 0 0 0 2.81-2 10.6 10.6 0 0 0 1.86-2.81 14.8 14.8 0 0 0 1-3.14 2.11 2.11 0 0 1 1.06-1.54 2.34 2.34 0 0 1 1.64-.18 2.87 2.87 0 0 1 1.45.86 1.87 1.87 0 0 1 .5 1.57 18 18 0 0 1-.54 2.4 14 14 0 0 1-1.14 2.74 15.7 15.7 0 0 1-1.87 2.72 12.4 12.4 0 0 1-2.77 2.38 14.8 14.8 0 0 1-3.81 1.69 17.5 17.5 0 0 1-4.95.62" class="cls-1"/><path d="M143.11 238.63a4.1 4.1 0 0 0-.13-1.18 3.4 3.4 0 0 0-.26-.7 2 2 0 0 0-.26-.4.47.47 0 0 1-.13-.32.4.4 0 0 1 .22-.34 2.5 2.5 0 0 1 .6-.24 5 5 0 0 1 .8-.15 8 8 0 0 1 .84-.05 4.63 4.63 0 0 1 3 .89 2.7 2.7 0 0 1 1.09 2.15V261a25 25 0 0 1 1.69-2.71 13.4 13.4 0 0 1 2-2.17 8.6 8.6 0 0 1 2.26-1.46 6.5 6.5 0 0 1 2.62-.52 6.7 6.7 0 0 1 3.13.64 5.3 5.3 0 0 1 1.93 1.66 6.2 6.2 0 0 1 1 2.26 11 11 0 0 1 .28 2.43v15.09a4.2 4.2 0 0 0 .22 1.07 2.6 2.6 0 0 0 .58.94 1.5 1.5 0 0 0 1.13.41 2.92 2.92 0 0 0 2-.74 7 7 0 0 0 1.45-1.86 13 13 0 0 0 1-2.42c.25-.87.47-1.68.65-2.45a3 3 0 0 1 .68-1.52 1.58 1.58 0 0 1 1-.52 1.84 1.84 0 0 1 1.09.25 3.2 3.2 0 0 1 1 .79 3.4 3.4 0 0 1 .61 1.1 1.9 1.9 0 0 1 .06 1.15 32 32 0 0 1-1.36 3.62 14.8 14.8 0 0 1-2.14 3.48 11 11 0 0 1-3.12 2.63 8.4 8.4 0 0 1-4.27 1.05 6.5 6.5 0 0 1-2.7-.52 6.3 6.3 0 0 1-2-1.41 5.9 5.9 0 0 1-1.26-2.06 7.4 7.4 0 0 1-.43-2.5v-15.53a5.5 5.5 0 0 0-.21-1.25 2.1 2.1 0 0 0-.48-.86 1.18 1.18 0 0 0-.87-.32 3.43 3.43 0 0 0-2 1 14 14 0 0 0-2.34 2.64 19 19 0 0 0-2 3.67 14.5 14.5 0 0 0-1.1 4.1v11.11a2.2 2.2 0 0 1-.22.94 1.7 1.7 0 0 1-.63.71 2.26 2.26 0 0 1-1.25.29 6.6 6.6 0 0 1-1.2-.12 3.4 3.4 0 0 1-1.19-.44 2.5 2.5 0 0 1-.89-.91 3 3 0 0 1-.36-1.57Z" class="cls-1"/><path d="M188.65 261.13a11.6 11.6 0 0 1-.73 4 13.4 13.4 0 0 1-2.15 3.83 16.2 16.2 0 0 1-3.53 3.25 15.9 15.9 0 0 1-4.85 2.18 7.3 7.3 0 0 0 1 1.67 6.2 6.2 0 0 0 1.47 1.37 7.1 7.1 0 0 0 2 .91 9 9 0 0 0 2.62.34 8.84 8.84 0 0 0 3.83-.76 8.4 8.4 0 0 0 2.69-2 10.8 10.8 0 0 0 1.77-2.81 16.6 16.6 0 0 0 1-3.14 2.09 2.09 0 0 1 1.06-1.54 2.34 2.34 0 0 1 1.64-.18 2.87 2.87 0 0 1 1.45.86 1.91 1.91 0 0 1 .5 1.57 23 23 0 0 1-.5 2.4 14 14 0 0 1-1.06 2.74 15.3 15.3 0 0 1-1.81 2.72 12 12 0 0 1-2.69 2.38 14.3 14.3 0 0 1-3.76 1.69 17.2 17.2 0 0 1-4.94.64 14.1 14.1 0 0 1-5-.93 13.2 13.2 0 0 1-4.31-2.67 13 13 0 0 1-3-4.29 14.1 14.1 0 0 1-1.13-5.8 18.1 18.1 0 0 1 1-6.1 17 17 0 0 1 2.64-4.88 12.7 12.7 0 0 1 3.72-3.23 8.7 8.7 0 0 1 4.27-1.16 7.7 7.7 0 0 1 2.88.51 6 6 0 0 1 2.18 1.43 6.3 6.3 0 0 1 1.35 2.21 8.3 8.3 0 0 1 .39 2.79m-12.27 8.18a4 4 0 0 0 0 .61v.64A10.5 10.5 0 0 0 179 269a9.7 9.7 0 0 0 2-2.17 9.95 9.95 0 0 0 1.71-5.64 3.2 3.2 0 0 0-.43-1.79 1.32 1.32 0 0 0-1.17-.64 2.58 2.58 0 0 0-1.65.57 5.3 5.3 0 0 0-1.27 1.51 10 10 0 0 0-.89 2.09 22 22 0 0 0-.57 2.35 19 19 0 0 0-.3 2.25 16 16 0 0 0-.05 1.78" class="cls-1"/><path d="M168.24 160.31c2.23 0 3-.52 4.06-2.33s.55-4.75.51-5.55c-.1-1.76-.69-3.72-.77-4.7 0-.6 0-4.43.09-6 1.34-24.84 12-30.75 15.08-31.42a8.6 8.6 0 0 1 5.94.4V62.09c0-5.49-3.9-12.24-8.66-15l-77.86-45C101.83-.69 94-.69 89.28 2.06L11.5 47c-4.75 2.75-8.65 9.5-8.64 15v9.82a1 1 0 0 0 0 .17v14.34c.45.25.9.51 1.35.79 1.51 1 3 1.55 4.52 2.6a68.5 68.5 0 0 1 12 9.28c.71.68 3.08 3.66 3.64 4.36a48 48 0 0 0 5.78 6.6 21 21 0 0 0 3.85 2.78c2.29 1.19 6.07.92 8 .07 14.82-6.42 24.12-3.2 28.41-.62 10.61 6.37 14.15 15.28 15.28 26.1a29 29 0 0 1 .14 4.22c0 2.57-.09 6.7 2.62 7.39 3.89 1 4.83-3.16 5.41-5.92 1.31-6.25 9.63-10.35 15.72-7.2 4.2 2.17 5.92 3.4 10.07 1.57 5.19-2.29 7.87-8.12 9.68-11.22a19 19 0 0 1 7.48-7.12c8.1-5.05 28.46-3.74 29.2 18.7v6.24c0 2.14.07 4.23-.07 6.44-.09 1.47-.35 3-.49 4.51-.04 0-.8 4.39 2.79 4.41" style="fill:#e4a663"/><path d="M193.13 110.75c-.55-.17-2.15-1.22-5.92-.4-3.09.67-13.74 6.58-15.08 31.42-.08 1.53-.13 5.36-.09 6 .08 1 .67 2.94.77 4.7 0 .8.61 3.7-.51 5.55s-1.83 2.34-4.06 2.33c-3.59 0-2.83-4.41-2.83-4.41.14-1.49.4-3 .49-4.51.14-2.21.07-4.3.07-6.44v-6.24c-.74-22.44-21.1-23.75-29.2-18.7a19 19 0 0 0-7.48 7.12c-1.81 3.1-4.49 8.93-9.68 11.22-4.15 1.83-5.87.6-10.07-1.57-6.09-3.15-14.41.95-15.72 7.2-.58 2.76-1.52 6.91-5.41 5.92-2.71-.69-2.62-4.82-2.62-7.39a29 29 0 0 0-.14-4.22c-1.13-10.82-4.67-19.73-15.28-26.1-4.29-2.58-13.59-5.8-28.41.62-2 .85-5.74 1.12-8-.07a21 21 0 0 1-3.85-2.78 48 48 0 0 1-5.78-6.6c-.56-.7-2.93-3.68-3.64-4.36a68.5 68.5 0 0 0-12-9.28c-1.52-1-3-1.64-4.52-2.6-.45-.28-.9-.54-1.35-.79v65.57c0 5.5 3.9 12.25 8.66 15l77.86 45c4.76 2.76 12.55 2.76 17.31 0L184.52 167c4.76-2.75 8.65-9.5 8.64-15Z" class="cls-1"/><path d="M107.88 99.73c-5.38 3.11-14.19 3.11-19.57 0l-79.62-42c.9.89 80.74 47.27 80.74 47.27 4.76 2.76 12.55 2.76 17.31 0 0 0 79.73-46.24 80.63-47.13ZM88.18 8.08C93.57 5 102.37 5 107.76 8.09l9.65 4c-.9-.89-10.78-7.29-10.78-7.29-4.76-2.75-12.54-2.76-17.3 0 0 0-15.78 9.27-16.67 10.15Z" style="fill:#fff"/></g></g></svg>