<svg xmlns="http://www.w3.org/2000/svg" width="129" height="30" fill="none"><path fill="#f3f5f0" d="M15.14 22.898a8.103 8.103 0 0 1-8.137-8.133 8.104 8.104 0 0 1 8.137-8.137V0A14.82 14.82 0 0 0 .3 14.84a14.82 14.82 0 0 0 14.84 14.839 14.82 14.82 0 0 0 14.84-14.84h-6.63a8.197 8.197 0 0 1-8.21 8.06Z"/><path fill="#f3f5f0" d="M23.277 6.628H15.14v8.137h8.137zm23.492 11.295h7.53l-.057.132a8.19 8.19 0 0 1-7.58 5.053c-4.526 0-8.212-3.685-8.212-8.21 0-4.527 3.686-8.212 8.212-8.212A8.17 8.17 0 0 1 53.245 10h6.001a13.49 13.49 0 0 0-12.58-8.61c-7.449 0-13.508 6.059-13.508 13.507 0 7.449 6.06 13.508 13.508 13.508 3.607 0 6.995-1.405 9.538-3.957a13.44 13.44 0 0 0 3.945-9.55c0-.673-.041-1.283-.12-1.872H46.77v4.897Zm81.468-.647c.071-.524.075-1.052.075-1.596 0-6.467-5.198-11.715-11.666-11.715-6.467 0-11.711 5.244-11.711 11.715 0 6.472 5.244 11.715 11.711 11.715 5.058 0 9.361-3.21 10.998-7.704h-5.289a6.97 6.97 0 0 1-5.713 2.976c-3.31 0-6.072-2.304-6.793-5.391zm-17.996-4.378a6.98 6.98 0 0 1 6.405-4.2 6.98 6.98 0 0 1 6.406 4.2zM81.332 6.2a11.64 11.64 0 0 0-7.213-2.494c-6.46 0-11.715 5.255-11.715 11.715 0 6.459 5.255 11.71 11.715 11.71 2.72 0 5.222-.935 7.213-2.493v2.316h4.766V4.716h-4.766zM74.12 22.296c-3.793 0-6.876-3.087-6.876-6.875s3.084-6.876 6.876-6.876 6.875 3.088 6.875 6.876-3.083 6.875-6.875 6.875M97.049.548h-5.197v4.168h-2.44v4.769h2.44v10.742a6.92 6.92 0 0 0 6.913 6.913h4.348v-5.103h-4.254c-.997 0-1.81-.813-1.81-1.81V9.485h6.069v-4.77H97.05V.549Z"/></svg>