<svg width="250" height="60" viewBox="0 0 250 60" fill="none" xmlns="http://www.w3.org/2000/svg">
<g clip-path="url(#clip0_504_20477)">
<path d="M61.7519 44.5398L58.6803 41.6729C61.0352 39.5227 62.2639 36.4511 62.2639 33.3794C62.2639 31.434 61.7519 29.591 60.8304 27.9528C60.1137 26.7241 59.397 25.8026 58.4755 24.8811L56.7349 23.3453L58.3731 21.707L59.8065 23.1405L61.24 21.707C64.6188 24.7787 66.4618 28.8743 66.4618 33.3794C66.5642 37.5773 64.8236 41.4681 61.7519 44.5398Z" fill="#FFFFFF" stroke="#FFFFFF" stroke-width="0.849522"/>
<path d="M61.7522 54.7789H46.4962C34.8239 54.7789 25.3017 45.0519 25.3017 33.0724C25.3017 21.0929 34.8239 11.4683 46.4962 11.4683C51.3085 11.4683 56.0184 13.1065 59.8068 16.2806L49.5679 26.0076C48.6464 25.4956 47.6225 25.4956 46.701 25.4956C42.4007 25.4956 39.1242 29.0792 39.1242 33.3796C39.1242 37.6799 42.5031 41.2635 46.701 41.2635C47.4177 41.2635 48.1345 41.2635 48.8512 41.0588L61.7522 51.0929V54.7789ZM46.4962 36.1441C44.858 36.1441 43.4246 34.7106 43.4246 33.0724C43.4246 31.4342 44.858 30.0007 46.4962 30.0007C48.1345 30.0007 49.5679 31.4342 49.5679 33.0724C49.6703 34.813 48.2368 36.1441 46.4962 36.1441ZM54.1754 33.0724C54.1754 31.639 53.6635 30.2055 52.9467 28.9768L59.0901 23.2431L66.4621 16.383L64.8239 14.7448C59.9092 9.7277 53.4587 7.16797 46.4962 7.16797C32.2642 7.16797 20.5918 19.0451 20.5918 33.5844C20.5918 47.9188 32.0594 59.796 46.0867 60.0007H66.3597V48.5332L52.742 38.0895C53.6635 36.4512 54.1754 34.813 54.1754 33.0724Z" fill="#FFFFFF"/>
<path d="M46.4967 25.1875C42.1964 25.1875 38.9199 28.5663 38.9199 32.7643C38.9199 36.9622 42.2988 40.3411 46.4967 40.3411C50.7971 40.3411 54.0735 36.9622 54.0735 32.7643C54.0735 28.5663 50.7971 25.1875 46.4967 25.1875ZM46.4967 35.9384C44.8585 35.9384 43.425 34.5049 43.425 32.8667C43.425 31.2285 44.8585 29.795 46.4967 29.795C48.1349 29.795 49.5684 31.2285 49.5684 32.8667C49.6708 34.5049 48.2373 35.9384 46.4967 35.9384Z" fill="#FFFFFF"/>
<path d="M71.5818 5.01713L69.9436 6.65536L68.3054 5.01713L69.9436 3.37891L71.5818 5.01713ZM58.476 5.01713L56.7354 6.65536L55.0972 5.01713L56.7354 3.37891L58.476 5.01713Z" fill="#FFFFFF"/>
<path d="M38.7139 23.1399C37.7924 23.1399 37.0757 22.4232 37.0757 21.1945V1.94539C37.0757 1.02389 37.7924 0 38.7139 0C39.6354 0 40.3521 0.716724 40.3521 1.94539V21.1945C40.3521 22.4232 39.6354 23.1399 38.7139 23.1399ZM48.4409 19.0444C47.5194 19.0444 46.8026 18.3276 46.8026 17.6109V1.63823C46.8026 0.921502 47.5194 0.204778 48.4409 0.204778C49.3624 0.204778 50.0791 0.921502 50.0791 1.63823V17.4061C50.0791 18.3276 49.3624 19.0444 48.4409 19.0444Z" fill="#FFFFFF"/>
<path d="M97.486 32.6608H108.442C108.442 33.8895 108.442 34.811 108.237 35.7325C108.237 36.654 108.032 37.6778 107.725 38.3946C107.213 39.6232 106.803 40.5447 106.087 41.4662C105.37 42.3877 104.653 43.1045 103.732 43.6164C102.81 44.1284 101.786 44.5379 100.66 44.8451C99.5338 45.1522 98.5099 45.357 97.0764 45.357C95.4382 45.357 94.0048 45.1522 92.5713 44.6403C91.1379 44.1284 89.9092 43.2069 88.9877 42.2854C88.0662 41.3639 87.3495 40.1352 86.6327 38.7017C86.1208 37.2683 85.916 35.8348 85.916 33.8895C85.916 32.2512 86.1208 30.8178 86.6327 29.3843C87.1447 27.9509 88.0662 26.7222 88.9877 25.8007C89.9092 24.8792 91.1379 24.1625 92.5713 23.4458C94.0048 22.729 95.4382 22.729 97.3836 22.729C99.5338 22.729 101.684 23.241 103.322 24.1625C104.96 25.084 106.394 26.5174 107.418 28.6676L101.991 30.7154C101.479 29.4867 100.762 28.77 100.046 28.0533C99.329 27.5413 98.4075 27.3366 97.3836 27.3366C96.6669 27.3366 95.7454 27.5413 95.2334 27.8485C94.5167 28.0533 94.0048 28.5652 93.5952 29.2819C93.0833 29.7939 92.6737 30.5106 92.3665 31.4321C92.1618 32.1488 91.8546 33.0703 91.8546 34.0942C91.8546 35.1181 91.8546 35.7325 92.0594 36.7563C92.2641 37.7802 92.7761 38.1898 93.288 38.7017C93.8 39.2137 94.5167 39.6232 94.9263 40.1352C95.643 40.34 96.3597 40.6471 97.2812 40.6471C97.7931 40.6471 98.5099 40.6471 98.9194 40.4424C99.329 40.2376 99.8409 40.2376 100.353 39.7256C100.865 39.5208 101.07 39.0089 101.274 38.497C101.479 37.985 101.786 37.5755 101.786 36.8587H97.2812L97.486 32.6608ZM136.087 27.6437V45.2546H130.148V27.6437H125.336V22.6267H140.797V27.6437H136.087ZM161.786 30.2034C160.558 28.5652 158.919 27.8485 156.974 27.8485C156.053 27.8485 155.336 28.0533 154.619 28.3604C153.902 28.5652 153.39 29.0772 152.674 29.5891C152.162 30.1011 151.752 30.8178 151.445 31.5345C151.24 32.2512 150.933 32.9679 150.933 33.8895C150.933 34.811 151.138 35.5277 151.445 36.2444C151.65 36.9611 152.162 37.6778 152.674 38.1898C153.186 38.7017 153.902 39.1113 154.619 39.4185C155.336 39.6232 156.053 39.9304 156.974 39.9304C158.919 39.9304 160.353 39.2137 161.786 37.5755V44.026L161.274 44.2307C160.353 44.4355 159.636 44.7427 158.919 44.9475C158.203 45.1523 157.486 45.1522 156.769 45.1522C155.336 45.1522 153.902 44.9475 152.469 44.4355C151.035 43.9236 149.807 43.0021 148.885 42.0806C147.964 41.1591 146.94 39.9304 146.53 38.497C145.814 37.0635 145.609 35.6301 145.609 33.9918C145.609 32.3536 145.814 30.9202 146.53 29.4867C147.247 28.0533 147.964 26.8246 148.885 25.9031C149.807 24.9816 151.035 23.9577 152.469 23.5482C153.902 23.1386 155.336 22.6267 156.769 22.6267C157.691 22.6267 158.407 22.6267 159.431 22.8314C160.455 23.0362 161.07 23.3434 162.093 23.5482L161.786 30.2034ZM173.254 33.7871C173.254 34.7086 173.459 35.4253 173.766 36.142C173.971 36.8587 174.483 37.5755 174.995 38.0874C175.506 38.5993 176.223 39.0089 176.94 39.3161C177.657 39.6232 178.373 39.828 179.295 39.828C180.012 39.828 180.933 39.6232 181.65 39.3161C182.367 39.1113 183.083 38.5993 183.595 38.0874C184.107 37.5755 184.517 36.8587 185.029 36.142C185.233 35.4253 185.541 34.7086 185.541 33.7871C185.541 32.8656 185.336 32.1488 185.029 31.4321C184.824 30.7154 184.312 29.9987 183.595 29.4867C183.083 28.9748 182.367 28.5652 181.65 28.2581C180.933 28.0533 180.216 27.7461 179.295 27.7461C178.578 27.7461 177.657 27.9509 176.94 28.2581C176.223 28.5652 175.506 28.9748 174.995 29.4867C174.483 29.9987 174.073 30.7154 173.766 31.4321C173.459 32.1488 173.254 33.0703 173.254 33.7871ZM167.52 33.7871C167.52 32.1488 167.725 30.7154 168.442 29.2819C169.158 27.8485 169.875 26.6198 170.797 25.6983C171.718 24.7768 173.152 23.7529 174.585 23.3434C176.018 22.6267 177.657 22.4219 179.397 22.4219C181.035 22.4219 182.776 22.6267 184.21 23.3434C185.643 23.8553 186.872 24.7768 187.998 25.6983C189.227 26.6198 189.943 27.8485 190.353 29.2819C191.07 30.7154 191.274 32.1488 191.274 33.7871C191.274 35.4253 191.07 36.8587 190.353 38.2922C189.636 39.7256 188.919 40.9543 187.998 41.8758C187.076 42.7973 185.643 43.8212 184.21 44.2307C182.776 44.7427 181.138 45.1522 179.397 45.1522C177.759 45.1522 176.018 44.9475 174.585 44.2307C173.152 43.514 171.923 42.7973 170.797 41.8758C169.875 40.9543 168.851 39.7256 168.442 38.2922C167.725 36.8587 167.52 35.4253 167.52 33.7871ZM202.947 22.6267V45.2546H197.008V22.6267H202.947ZM119.909 22.6267V45.2546H113.971V22.6267H119.909ZM209.192 45.2546V22.6267H214.926L225.882 36.4492V22.6267H231.82V45.2546H226.087L215.131 31.4321V45.2546H209.192Z" fill="#FFFFFF"/>
</g>
<defs>
<clipPath id="clip0_504_20477">
<rect width="250" height="60" fill="#001100"/>
</clipPath>
</defs>
</svg>
