<svg width="100" height="60" viewBox="0 0 100 60" fill="none" xmlns="http://www.w3.org/2000/svg">
<g clip-path="url(#clip0_504_20511)">
<path d="M74.6117 30.6098C74.5632 31.3055 74.5462 32.0056 74.4613 32.6961C73.561 40.029 70.151 45.9049 64.1649 50.2076C59.6933 53.4226 54.6464 54.923 49.1493 54.7321C42.7926 54.5129 37.3123 52.14 32.7169 47.7279C32.6746 47.6872 32.6756 47.5248 32.7169 47.4813C38.4485 41.7235 44.1855 35.9715 49.9279 30.2254C50.0637 30.1007 50.2393 30.0286 50.4233 30.0222C58.4868 30.0122 66.5501 30.0093 74.6134 30.0136L74.6117 30.6098Z" fill="#001100"/>
<path d="M50.5295 5.25C51.2074 5.30164 51.8867 5.33174 52.5622 5.40494C56.5179 5.83497 60.161 7.14468 63.4915 9.33406C63.5141 9.35109 63.5357 9.36936 63.5563 9.38879L61.4509 11.496C60.9926 11.9546 60.5374 12.4164 60.0736 12.8692C60.0443 12.8882 60.0108 12.8997 59.976 12.9028C59.9413 12.9058 59.9063 12.9003 59.8741 12.8866C56.5211 10.9519 52.9119 10.0621 49.0465 10.2172C40.3982 10.5667 32.8589 16.7097 30.7852 25.1334C29.5017 30.3526 30.2158 35.3109 32.8589 39.9907C32.8841 40.0352 32.8855 40.1333 32.8552 40.1617C31.7078 41.3209 30.5564 42.4772 29.4011 43.6305C29.3898 43.6418 29.3759 43.651 29.3496 43.6722C29.2408 43.5033 29.1314 43.3398 29.0284 43.1729C26.1779 38.5515 24.9196 33.5286 25.3267 28.1069C26.1755 16.8363 34.5397 7.60276 45.6695 5.64196C46.7948 5.44393 47.9457 5.39365 49.0843 5.27497L49.3169 5.25H50.5295Z" fill="#001100"/>
<path d="M63.0391 20.1889C63.041 19.1597 63.3986 18.1629 64.0508 17.3682C64.7031 16.5736 65.6098 16.0302 66.6165 15.8306C67.6232 15.631 68.6679 15.7874 69.5725 16.2734C70.4772 16.7593 71.186 17.5446 71.5783 18.4957C71.9707 19.4468 72.0223 20.5049 71.7243 21.4898C71.4264 22.4748 70.7973 23.3257 69.9442 23.8978C69.0912 24.47 68.0668 24.7279 67.0454 24.6277C66.024 24.5276 65.0688 24.0755 64.3424 23.3485C63.9287 22.9337 63.6006 22.4411 63.377 21.8989C63.1533 21.3567 63.0385 20.7757 63.0391 20.1889Z" fill="#001100"/>
</g>
<defs>
<clipPath id="clip0_504_20511">
<rect width="50" height="50" fill="white" transform="translate(25 5)"/>
</clipPath>
</defs>
</svg>
