<svg xmlns="http://www.w3.org/2000/svg" width="127" height="32" fill="none" viewBox="0 0 127 32"><path fill="#a3e050" d="M10 0h2v2h-2zM12 0h2v2h-2z"/><path fill="#457f2c" d="M14 0h2v2h-2z"/><path fill="#a3e050" d="M22 0h2v2h-2zM24 0h2v2h-2z"/><path fill="#457f2c" d="M26 0h2v2h-2zM10 2v2H8V2z"/><path fill="#d5f86b" d="M10 2h2v2h-2zM12 2h2v2h-2z"/><path fill="#a3e050" d="M14 2h2v2h-2z"/><path fill="#457f2c" d="M18 2v2h-2V2zM22 2v2h-2V2z"/><path fill="#d5f86b" d="M22 2h2v2h-2zM24 2h2v2h-2z"/><path fill="#a3e050" d="M26 2h2v2h-2z"/><path fill="#457f2c" d="M30 2v2h-2V2zM10 4v2H8V4z"/><path fill="#fff" d="M10 4h2v2h-2zM12 4h2v2h-2z"/><path fill="#a3e050" d="M14 4h2v2h-2z"/><path fill="#457f2c" d="M18 4v2h-2V4zM22 4v2h-2V4z"/><path fill="#fff" d="M22 4h2v2h-2zM24 4h2v2h-2z"/><path fill="#5da040" d="M26 4h2v2h-2z"/><path fill="#457f2c" d="M30 4v2h-2V4zM10 6v2H8V6z"/><path fill="#000" d="M10 6h2v2h-2z"/><path fill="#fff" d="M12 6h2v2h-2z"/><path fill="#a3e050" d="M14 6h2v2h-2z"/><path fill="#457f2c" d="M18 6v2h-2V6zM18 6h2v2h-2zM22 6v2h-2V6z"/><path fill="#000" d="M22 6h2v2h-2z"/><path fill="#fff" d="M24 6h2v2h-2z"/><path fill="#5da040" d="M26 6h2v2h-2z"/><path fill="#457f2c" d="M30 6v2h-2V6zM2 8h2v2H2zM4 8h2v2H4zM10 8v2H8V8z"/><path fill="#000" d="M10 8h2v2h-2z"/><path fill="#fff" d="M12 8h2v2h-2z"/><path fill="#a3e050" d="M14 8h2v2h-2zM16 8h2v2h-2zM18 8h2v2h-2z"/><path fill="#5da040" d="M20 8h2v2h-2z"/><path fill="#000" d="M22 8h2v2h-2z"/><path fill="#fff" d="M24 8h2v2h-2z"/><path fill="#5da040" d="M26 8h2v2h-2z"/><path fill="#457f2c" d="M30 8v2h-2V8zM2 10v2H0v-2z"/><path fill="#d5f86b" d="M2 10h2v2H2zM4 10h2v2H4z"/><path fill="#457f2c" d="M6 10h2v2H6z"/><path fill="#5da040" d="M8 10h2v2H8z"/><path fill="#a3e050" d="M10 10h2v2h-2zM12 10h2v2h-2zM14 10h2v2h-2zM16 10h2v2h-2zM18 10h2v2h-2zM20 10h2v2h-2zM22 10h2v2h-2zM24 10h2v2h-2zM26 10h2v2h-2zM28 10h2v2h-2z"/><path fill="#457f2c" d="M32 10v2h-2v-2zM2 12v2H0v-2z"/><path fill="#a3e050" d="M2 12h2v2H2z"/><path fill="#d5f86b" d="M4 12h2v2H4zM6 12h2v2H6zM8 12h2v2H8z"/><path fill="#a3e050" d="M10 12h2v2h-2zM12 12h2v2h-2zM14 12h2v2h-2zM16 12h2v2h-2zM18 12h2v2h-2zM20 12h2v2h-2zM22 12h2v2h-2zM24 12h2v2h-2zM26 12h2v2h-2z"/><path fill="#5da040" d="M28 12h2v2h-2z"/><path fill="#457f2c" d="M32 12v2h-2v-2zM2 14v2H0v-2z"/><path fill="#a3e050" d="M2 14h2v2H2zM4 14h2v2H4zM6 14h2v2H6zM8 14h2v2H8zM10 14h2v2h-2zM12 14h2v2h-2zM14 14h2v2h-2zM16 14h2v2h-2zM18 14h2v2h-2zM20 14h2v2h-2zM22 14h2v2h-2zM24 14h2v2h-2zM26 14h2v2h-2z"/><path fill="#5da040" d="M28 14h2v2h-2z"/><path fill="#457f2c" d="M32 14v2h-2v-2zM2 16v2H0v-2z"/><path fill="#5da040" d="M2 16h2v2H2zM4 16h2v2H4z"/><path fill="#000" d="M6 16h2v2H6zM8 16h2v2H8zM10 16h2v2h-2z"/><path fill="#a3e050" d="M12 16h2v2h-2zM14 16h2v2h-2zM16 16h2v2h-2zM18 16h2v2h-2zM20 16h2v2h-2zM22 16h2v2h-2zM24 16h2v2h-2z"/><path fill="#5da040" d="M26 16h2v2h-2zM28 16h2v2h-2z"/><path fill="#457f2c" d="M32 16v2h-2v-2zM2 18h2v2H2zM4 18h2v2H4zM6 18h2v2H6z"/><path fill="#5da040" d="M8 18h2v2H8zM10 18h2v2h-2zM12 18h2v2h-2z"/><path fill="#a3e050" d="M14 18h2v2h-2zM16 18h2v2h-2zM18 18h2v2h-2zM20 18h2v2h-2zM22 18h2v2h-2z"/><path fill="#5da040" d="M24 18h2v2h-2zM26 18h2v2h-2z"/><path fill="#457f2c" d="M30 18v2h-2v-2zM8 20h2v2H8zM10 20h2v2h-2z"/><path fill="#5da040" d="M12 20h2v2h-2zM14 20h2v2h-2z"/><path fill="#a3e050" d="M16 20h2v2h-2zM18 20h2v2h-2z"/><path fill="#5da040" d="M20 20h2v2h-2zM22 20h2v2h-2zM26 20v2h-2v-2z"/><path fill="#457f2c" d="M28 20v2h-2v-2zM12 22h2v2h-2z"/><path fill="#5da040" d="M14 22h2v2h-2z"/><path fill="#dfc855" d="M16 22h2v2h-2zM18 22h2v2h-2z"/><path fill="#a3e050" d="M20 22h2v2h-2z"/><path fill="#5da040" d="M22 22h2v2h-2z"/><path fill="#457f2c" d="M26 22v2h-2v-2zM10 24h2v2h-2z"/><path fill="#5da040" d="M12 24h2v2h-2z"/><path fill="#dfc855" d="M14 24h2v2h-2zM16 24h2v2h-2zM18 24h2v2h-2zM20 24h2v2h-2z"/><path fill="#a3e050" d="M22 24h2v2h-2z"/><path fill="#5da040" d="M24 24h2v2h-2z"/><path fill="#457f2c" d="M26 24h2v2h-2zM10 26h2v2h-2z"/><path fill="#5da040" d="M12 26h2v2h-2z"/><path fill="#dfc855" d="M14 26h2v2h-2zM16 26h2v2h-2zM18 26h2v2h-2zM20 26h2v2h-2z"/><path fill="#a3e050" d="M22 26h2v2h-2z"/><path fill="#5da040" d="M24 26h2v2h-2z"/><path fill="#457f2c" d="M26 26h2v2h-2zM8 28h2v2H8z"/><path fill="#5da040" d="M10 28h2v2h-2z"/><path fill="#a3e050" d="M12 28h2v2h-2z"/><path fill="#dfc855" d="M14 28h2v2h-2zM16 28h2v2h-2zM18 28h2v2h-2zM20 28h2v2h-2z"/><path fill="#a3e050" d="M22 28h2v2h-2zM24 28h2v2h-2z"/><path fill="#5da040" d="M26 28h2v2h-2z"/><path fill="#457f2c" d="M28 28h2v2h-2zM8 30h2v2H8z"/><path fill="#5da040" d="M10 30h2v2h-2z"/><path fill="#a3e050" d="M12 30h2v2h-2z"/><path fill="#dfc855" d="M14 30h2v2h-2zM16 30h2v2h-2zM18 30h2v2h-2zM20 30h2v2h-2z"/><path fill="#a3e050" d="M22 30h2v2h-2zM24 30h2v2h-2z"/><path fill="#5da040" d="M26 30h2v2h-2z"/><path fill="#457f2c" d="M28 30h2v2h-2z"/><path fill="#fff" d="M45.494 25.67v-2.763h-2.747v-2.762H40v-8.288h2.747V9.094h2.746V6.332H59.23v2.762H48.242v2.763h-2.747v8.288h2.747v2.762h5.494v-5.525h-2.747V14.62h8.24v11.05zm16.482 0V6.33h5.493v2.762h2.747v2.763h2.747V9.092h2.747V6.33h5.493v19.34H75.71V14.62h-2.747v5.525h-2.747V14.62H67.47v11.05zm27.47 0v-2.763h-2.748v-2.762h-2.746v-8.288h2.746V9.094h2.747V6.332h13.736v2.762H92.194v2.763h-2.747v8.288h2.747v2.762h5.493v-5.525h-2.746V14.62h8.24v11.05zm16.482 0V6.33h5.493v2.762h2.747v2.763h2.747v2.763h2.746V6.33h5.494v19.34h-5.494v-5.525h-2.746v-2.763h-2.747V14.62h-2.747v11.05z"/></svg>