<svg width="127" height="32" viewBox="0 0 127 32" fill="none" xmlns="http://www.w3.org/2000/svg">
<rect x="10" width="2" height="2" fill="#A3E050"/>
<rect x="12" width="2" height="2" fill="#A3E050"/>
<rect x="14" width="2" height="2" fill="#457F2C"/>
<rect x="22" width="2" height="2" fill="#A3E050"/>
<rect x="24" width="2" height="2" fill="#A3E050"/>
<rect x="26" width="2" height="2" fill="#457F2C"/>
<rect x="10" y="2" width="2" height="2" transform="rotate(90 10 2)" fill="#457F2C"/>
<rect x="10" y="2" width="2" height="2" fill="#D5F86B"/>
<rect x="12" y="2" width="2" height="2" fill="#D5F86B"/>
<rect x="14" y="2" width="2" height="2" fill="#A3E050"/>
<rect x="18" y="2" width="2" height="2" transform="rotate(90 18 2)" fill="#457F2C"/>
<rect x="22" y="2" width="2" height="2" transform="rotate(90 22 2)" fill="#457F2C"/>
<rect x="22" y="2" width="2" height="2" fill="#D5F86B"/>
<rect x="24" y="2" width="2" height="2" fill="#D5F86B"/>
<rect x="26" y="2" width="2" height="2" fill="#A3E050"/>
<rect x="30" y="2" width="2" height="2" transform="rotate(90 30 2)" fill="#457F2C"/>
<rect x="10" y="4" width="2" height="2" transform="rotate(90 10 4)" fill="#457F2C"/>
<rect x="10" y="4" width="2" height="2" fill="white"/>
<rect x="12" y="4" width="2" height="2" fill="white"/>
<rect x="14" y="4" width="2" height="2" fill="#A3E050"/>
<rect x="18" y="4" width="2" height="2" transform="rotate(90 18 4)" fill="#457F2C"/>
<rect x="22" y="4" width="2" height="2" transform="rotate(90 22 4)" fill="#457F2C"/>
<rect x="22" y="4" width="2" height="2" fill="white"/>
<rect x="24" y="4" width="2" height="2" fill="white"/>
<rect x="26" y="4" width="2" height="2" fill="#5DA040"/>
<rect x="30" y="4" width="2" height="2" transform="rotate(90 30 4)" fill="#457F2C"/>
<rect x="10" y="6" width="2" height="2" transform="rotate(90 10 6)" fill="#457F2C"/>
<rect x="10" y="6" width="2" height="2" fill="black"/>
<rect x="12" y="6" width="2" height="2" fill="white"/>
<rect x="14" y="6" width="2" height="2" fill="#A3E050"/>
<rect x="18" y="6" width="2" height="2" transform="rotate(90 18 6)" fill="#457F2C"/>
<rect x="18" y="6" width="2" height="2" fill="#457F2C"/>
<rect x="22" y="6" width="2" height="2" transform="rotate(90 22 6)" fill="#457F2C"/>
<rect x="22" y="6" width="2" height="2" fill="black"/>
<rect x="24" y="6" width="2" height="2" fill="white"/>
<rect x="26" y="6" width="2" height="2" fill="#5DA040"/>
<rect x="30" y="6" width="2" height="2" transform="rotate(90 30 6)" fill="#457F2C"/>
<rect x="2" y="8" width="2" height="2" fill="#457F2C"/>
<rect x="4" y="8" width="2" height="2" fill="#457F2C"/>
<rect x="10" y="8" width="2" height="2" transform="rotate(90 10 8)" fill="#457F2C"/>
<rect x="10" y="8" width="2" height="2" fill="black"/>
<rect x="12" y="8" width="2" height="2" fill="white"/>
<rect x="14" y="8" width="2" height="2" fill="#A3E050"/>
<rect x="16" y="8" width="2" height="2" fill="#A3E050"/>
<rect x="18" y="8" width="2" height="2" fill="#A3E050"/>
<rect x="20" y="8" width="2" height="2" fill="#5DA040"/>
<rect x="22" y="8" width="2" height="2" fill="black"/>
<rect x="24" y="8" width="2" height="2" fill="white"/>
<rect x="26" y="8" width="2" height="2" fill="#5DA040"/>
<rect x="30" y="8" width="2" height="2" transform="rotate(90 30 8)" fill="#457F2C"/>
<rect x="2" y="10" width="2" height="2" transform="rotate(90 2 10)" fill="#457F2C"/>
<rect x="2" y="10" width="2" height="2" fill="#D5F86B"/>
<rect x="4" y="10" width="2" height="2" fill="#D5F86B"/>
<rect x="6" y="10" width="2" height="2" fill="#457F2C"/>
<rect x="8" y="10" width="2" height="2" fill="#5DA040"/>
<rect x="10" y="10" width="2" height="2" fill="#A3E050"/>
<rect x="12" y="10" width="2" height="2" fill="#A3E050"/>
<rect x="14" y="10" width="2" height="2" fill="#A3E050"/>
<rect x="16" y="10" width="2" height="2" fill="#A3E050"/>
<rect x="18" y="10" width="2" height="2" fill="#A3E050"/>
<rect x="20" y="10" width="2" height="2" fill="#A3E050"/>
<rect x="22" y="10" width="2" height="2" fill="#A3E050"/>
<rect x="24" y="10" width="2" height="2" fill="#A3E050"/>
<rect x="26" y="10" width="2" height="2" fill="#A3E050"/>
<rect x="28" y="10" width="2" height="2" fill="#A3E050"/>
<rect x="32" y="10" width="2" height="2" transform="rotate(90 32 10)" fill="#457F2C"/>
<rect x="2" y="12" width="2" height="2" transform="rotate(90 2 12)" fill="#457F2C"/>
<rect x="2" y="12" width="2" height="2" fill="#A3E050"/>
<rect x="4" y="12" width="2" height="2" fill="#D5F86B"/>
<rect x="6" y="12" width="2" height="2" fill="#D5F86B"/>
<rect x="8" y="12" width="2" height="2" fill="#D5F86B"/>
<rect x="10" y="12" width="2" height="2" fill="#A3E050"/>
<rect x="12" y="12" width="2" height="2" fill="#A3E050"/>
<rect x="14" y="12" width="2" height="2" fill="#A3E050"/>
<rect x="16" y="12" width="2" height="2" fill="#A3E050"/>
<rect x="18" y="12" width="2" height="2" fill="#A3E050"/>
<rect x="20" y="12" width="2" height="2" fill="#A3E050"/>
<rect x="22" y="12" width="2" height="2" fill="#A3E050"/>
<rect x="24" y="12" width="2" height="2" fill="#A3E050"/>
<rect x="26" y="12" width="2" height="2" fill="#A3E050"/>
<rect x="28" y="12" width="2" height="2" fill="#5DA040"/>
<rect x="32" y="12" width="2" height="2" transform="rotate(90 32 12)" fill="#457F2C"/>
<rect x="2" y="14" width="2" height="2" transform="rotate(90 2 14)" fill="#457F2C"/>
<rect x="2" y="14" width="2" height="2" fill="#A3E050"/>
<rect x="4" y="14" width="2" height="2" fill="#A3E050"/>
<rect x="6" y="14" width="2" height="2" fill="#A3E050"/>
<rect x="8" y="14" width="2" height="2" fill="#A3E050"/>
<rect x="10" y="14" width="2" height="2" fill="#A3E050"/>
<rect x="12" y="14" width="2" height="2" fill="#A3E050"/>
<rect x="14" y="14" width="2" height="2" fill="#A3E050"/>
<rect x="16" y="14" width="2" height="2" fill="#A3E050"/>
<rect x="18" y="14" width="2" height="2" fill="#A3E050"/>
<rect x="20" y="14" width="2" height="2" fill="#A3E050"/>
<rect x="22" y="14" width="2" height="2" fill="#A3E050"/>
<rect x="24" y="14" width="2" height="2" fill="#A3E050"/>
<rect x="26" y="14" width="2" height="2" fill="#A3E050"/>
<rect x="28" y="14" width="2" height="2" fill="#5DA040"/>
<rect x="32" y="14" width="2" height="2" transform="rotate(90 32 14)" fill="#457F2C"/>
<rect x="2" y="16" width="2" height="2" transform="rotate(90 2 16)" fill="#457F2C"/>
<rect x="2" y="16" width="2" height="2" fill="#5DA040"/>
<rect x="4" y="16" width="2" height="2" fill="#5DA040"/>
<rect x="6" y="16" width="2" height="2" fill="black"/>
<rect x="8" y="16" width="2" height="2" fill="black"/>
<rect x="10" y="16" width="2" height="2" fill="black"/>
<rect x="12" y="16" width="2" height="2" fill="#A3E050"/>
<rect x="14" y="16" width="2" height="2" fill="#A3E050"/>
<rect x="16" y="16" width="2" height="2" fill="#A3E050"/>
<rect x="18" y="16" width="2" height="2" fill="#A3E050"/>
<rect x="20" y="16" width="2" height="2" fill="#A3E050"/>
<rect x="22" y="16" width="2" height="2" fill="#A3E050"/>
<rect x="24" y="16" width="2" height="2" fill="#A3E050"/>
<rect x="26" y="16" width="2" height="2" fill="#5DA040"/>
<rect x="28" y="16" width="2" height="2" fill="#5DA040"/>
<rect x="32" y="16" width="2" height="2" transform="rotate(90 32 16)" fill="#457F2C"/>
<rect x="2" y="18" width="2" height="2" fill="#457F2C"/>
<rect x="4" y="18" width="2" height="2" fill="#457F2C"/>
<rect x="6" y="18" width="2" height="2" fill="#457F2C"/>
<rect x="8" y="18" width="2" height="2" fill="#5DA040"/>
<rect x="10" y="18" width="2" height="2" fill="#5DA040"/>
<rect x="12" y="18" width="2" height="2" fill="#5DA040"/>
<rect x="14" y="18" width="2" height="2" fill="#A3E050"/>
<rect x="16" y="18" width="2" height="2" fill="#A3E050"/>
<rect x="18" y="18" width="2" height="2" fill="#A3E050"/>
<rect x="20" y="18" width="2" height="2" fill="#A3E050"/>
<rect x="22" y="18" width="2" height="2" fill="#A3E050"/>
<rect x="24" y="18" width="2" height="2" fill="#5DA040"/>
<rect x="26" y="18" width="2" height="2" fill="#5DA040"/>
<rect x="30" y="18" width="2" height="2" transform="rotate(90 30 18)" fill="#457F2C"/>
<rect x="8" y="20" width="2" height="2" fill="#457F2C"/>
<rect x="10" y="20" width="2" height="2" fill="#457F2C"/>
<rect x="12" y="20" width="2" height="2" fill="#5DA040"/>
<rect x="14" y="20" width="2" height="2" fill="#5DA040"/>
<rect x="16" y="20" width="2" height="2" fill="#A3E050"/>
<rect x="18" y="20" width="2" height="2" fill="#A3E050"/>
<rect x="20" y="20" width="2" height="2" fill="#5DA040"/>
<rect x="22" y="20" width="2" height="2" fill="#5DA040"/>
<rect x="26" y="20" width="2" height="2" transform="rotate(90 26 20)" fill="#5DA040"/>
<rect x="28" y="20" width="2" height="2" transform="rotate(90 28 20)" fill="#457F2C"/>
<rect x="12" y="22" width="2" height="2" fill="#457F2C"/>
<rect x="14" y="22" width="2" height="2" fill="#5DA040"/>
<rect x="16" y="22" width="2" height="2" fill="#DFC855"/>
<rect x="18" y="22" width="2" height="2" fill="#DFC855"/>
<rect x="20" y="22" width="2" height="2" fill="#A3E050"/>
<rect x="22" y="22" width="2" height="2" fill="#5DA040"/>
<rect x="26" y="22" width="2" height="2" transform="rotate(90 26 22)" fill="#457F2C"/>
<rect x="10" y="24" width="2" height="2" fill="#457F2C"/>
<rect x="12" y="24" width="2" height="2" fill="#5DA040"/>
<rect x="14" y="24" width="2" height="2" fill="#DFC855"/>
<rect x="16" y="24" width="2" height="2" fill="#DFC855"/>
<rect x="18" y="24" width="2" height="2" fill="#DFC855"/>
<rect x="20" y="24" width="2" height="2" fill="#DFC855"/>
<rect x="22" y="24" width="2" height="2" fill="#A3E050"/>
<rect x="24" y="24" width="2" height="2" fill="#5DA040"/>
<rect x="26" y="24" width="2" height="2" fill="#457F2C"/>
<rect x="10" y="26" width="2" height="2" fill="#457F2C"/>
<rect x="12" y="26" width="2" height="2" fill="#5DA040"/>
<rect x="14" y="26" width="2" height="2" fill="#DFC855"/>
<rect x="16" y="26" width="2" height="2" fill="#DFC855"/>
<rect x="18" y="26" width="2" height="2" fill="#DFC855"/>
<rect x="20" y="26" width="2" height="2" fill="#DFC855"/>
<rect x="22" y="26" width="2" height="2" fill="#A3E050"/>
<rect x="24" y="26" width="2" height="2" fill="#5DA040"/>
<rect x="26" y="26" width="2" height="2" fill="#457F2C"/>
<rect x="8" y="28" width="2" height="2" fill="#457F2C"/>
<rect x="10" y="28" width="2" height="2" fill="#5DA040"/>
<rect x="12" y="28" width="2" height="2" fill="#A3E050"/>
<rect x="14" y="28" width="2" height="2" fill="#DFC855"/>
<rect x="16" y="28" width="2" height="2" fill="#DFC855"/>
<rect x="18" y="28" width="2" height="2" fill="#DFC855"/>
<rect x="20" y="28" width="2" height="2" fill="#DFC855"/>
<rect x="22" y="28" width="2" height="2" fill="#A3E050"/>
<rect x="24" y="28" width="2" height="2" fill="#A3E050"/>
<rect x="26" y="28" width="2" height="2" fill="#5DA040"/>
<rect x="28" y="28" width="2" height="2" fill="#457F2C"/>
<rect x="8" y="30" width="2" height="2" fill="#457F2C"/>
<rect x="10" y="30" width="2" height="2" fill="#5DA040"/>
<rect x="12" y="30" width="2" height="2" fill="#A3E050"/>
<rect x="14" y="30" width="2" height="2" fill="#DFC855"/>
<rect x="16" y="30" width="2" height="2" fill="#DFC855"/>
<rect x="18" y="30" width="2" height="2" fill="#DFC855"/>
<rect x="20" y="30" width="2" height="2" fill="#DFC855"/>
<rect x="22" y="30" width="2" height="2" fill="#A3E050"/>
<rect x="24" y="30" width="2" height="2" fill="#A3E050"/>
<rect x="26" y="30" width="2" height="2" fill="#5DA040"/>
<rect x="28" y="30" width="2" height="2" fill="#457F2C"/>
<path d="M45.4935 25.67V22.9074H42.7467V20.1448H40V11.857H42.7467V9.09435H45.4935V6.33174H59.2291V9.09435H48.2421V11.857H45.4954V20.1448H48.2421V22.9074H53.7356V17.3822H50.9889V14.6196H59.2291V25.67H45.4935ZM61.9759 25.67V6.32983H67.4694V9.09245H70.2161V11.8551H72.9629V9.09245H75.7096V6.32983H81.2031V25.67H75.7096V14.6196H72.9629V20.1448H70.2161V14.6196H67.4694V25.67H61.9759ZM89.4453 25.67V22.9074H86.6985V20.1448H83.9518V11.857H86.6985V9.09435H89.4453V6.33174H103.181V9.09435H92.1939V11.857H89.4472V20.1448H92.1939V22.9074H97.6874V17.3822H94.9407V14.6196H103.181V25.67H89.4453ZM105.928 25.67V6.32983H111.421V9.09245H114.168V11.8551H116.915V14.6177H119.661V6.32983H125.155V25.67H119.661V20.1448H116.915V17.3822H114.168V14.6196H111.421V25.67H105.928Z" fill="white"/>
</svg>
