<svg xmlns="http://www.w3.org/2000/svg" width="576" height="108" fill="none" viewBox="0 0 576 108"><path fill="#efebdf" d="M126.817 53.383v.125c0 29.367 23.774 53.177 53.105 53.177h22.441V92.891h-22.079c-22.036 0-39.849-18.122-39.374-40.298.459-21.559 18.558-38.572 40.097-38.572h21.356V.357h-22.587c-29.249 0-52.959 23.74-52.959 53.026M526.761.357h-49.493V106.68h13.65V49.844c0-19.784 16.016-35.823 35.773-35.823s35.778 16.04 35.778 35.823v56.841H576V49.66C576.005 22.43 553.959.357 526.761.357m-247.043 35.64q0 4.406-3.11 7.44c-2.074 2.03-4.525 3.036-7.355 3.036h-31.55q-4.398 0-7.435-3.036t-3.034-7.44V.356h-13.651V106.68h13.651V70.326q-.002-4.406 3.034-7.44 3.03-3.036 7.435-3.036h31.55c2.83 0 5.287 1.012 7.355 3.035q3.11 3.043 3.11 7.441v36.354h13.499V.357h-13.499zM409.028.356v106.328h57.025V.357zm28.51 50.488c-10.173 0-18.424-8.263-18.424-18.463 0-10.195 8.245-18.464 18.424-18.464s18.423 8.263 18.423 18.464-8.245 18.463-18.423 18.463M359.054 6.012C357.251 2.008 354.702 0 351.403 0s-5.853 2.008-7.651 6.012L298.287 106.68h105.789zm-7.651 83.21c-10.173 0-18.423-8.263-18.423-18.463 0-10.195 8.245-18.464 18.423-18.464 10.173 0 18.424 8.264 18.424 18.464 0 10.195-8.251 18.464-18.424 18.464M17.743 47.448c0-3.263 1.075-6.24 2.927-8.599l19.638 19.676a13.9 13.9 0 0 1-8.58 2.933c-7.76.005-14.028-6.277-13.985-14.01M76.162 61.42c7.716.043 13.984-6.24 13.984-14.01a14 14 0 0 0-2.926-8.599L67.582 58.486c2.348 1.856 5.318 2.933 8.58 2.933m15.183-26.656c2.89 3.474 4.622 7.852 4.622 12.727 0 10.953-8.871 19.838-19.805 19.838-4.828 0-9.24-1.737-12.706-4.626l-9.53 9.545-9.53-9.545c-3.467 2.895-7.84 4.626-12.706 4.626-10.934 0-19.806-8.885-19.806-19.838 0-4.838 1.734-9.259 4.623-12.727l-4.455-4.465-4.25-4.258A53.76 53.76 0 0 0 0 54.022C0 83.865 24.136 108 53.883 108c29.746 0 53.882-24.178 53.882-53.978a52.8 52.8 0 0 0-7.716-27.982zm1.566-18.026C83.132 6.45 69.271 0 53.921 0 38.575 0 24.75 6.45 14.935 16.737a68 68 0 0 0-3.796 4.421l42.744 42.82 42.743-42.857a37 37 0 0 0-3.715-4.384m-38.99 37.241L20.793 20.791C29.622 11.905 41.296 7.024 53.92 7.024S78.262 11.9 87.047 20.785z"/></svg>