<svg xmlns="http://www.w3.org/2000/svg" width="72" height="72" fill="none" viewBox="0 0 72 72"><circle cx="36" cy="36" r="36" fill="#1e1e1e"/><path fill="#f1ebdd" d="M60.862 21.102q-2.298 2.31-4.6 4.628c3.796 4.834 2.787 10.84-.72 14.34-3.605 3.594-9.636 4.397-14.425.598l-5.154 5.234-4.982-5.183c-4.748 3.65-10.442 2.91-13.942-.187-1.69-1.496-2.838-3.33-3.333-5.53-.773-3.444-.017-6.573 2.155-9.348l-4.663-4.591C4.65 31.38 5.324 47.119 16.341 57.313c10.994 10.176 28.042 10.246 39.076.225C66.69 47.3 67.352 31.245 60.862 21.102m-47.746-2.786c7.63 7.64 15.258 15.273 22.974 22.998l22.965-22.838c-11.552-15.414-34.863-15.136-45.94-.16M36.07 35.821l-17.7-17.728c8.727-9.337 25.393-10.237 35.386.03zm17.894-7.864L43.49 38.417c2.369 2.372 7.377 2.012 9.956-.745 3.103-3.314 2.272-7.977.518-9.715m-35.928.071c-2.22 2.522-1.95 6.972.622 9.697 2.54 2.69 7.027 3.03 9.824.814-3.494-3.514-6.97-7.015-10.446-10.51"/><path fill="#f1ebdd" d="M13.117 18.316c7.63 7.64 15.258 15.273 22.975 22.998l22.965-22.838c-11.553-15.414-34.863-15.136-45.94-.16m22.956 17.505-17.7-17.728c8.727-9.337 25.393-10.237 35.386.03zM43.49 38.417q5.236-5.23 10.474-10.46c1.754 1.738 2.585 6.4-.518 9.716-2.58 2.756-7.587 3.118-9.956.745zM28.481 38.54c-2.796 2.215-7.282 1.877-9.822-.815-2.573-2.725-2.841-7.175-.622-9.697 3.475 3.496 6.952 6.997 10.446 10.511z"/></svg>