<svg xmlns="http://www.w3.org/2000/svg" width="64" height="64" fill="none" viewBox="0 0 64 64"><circle cx="32" cy="32" r="32" fill="#000"/><path fill="#001a17" d="M44.046 11.001c.303 0 .549-.229.549-.512 0-.282-.246-.511-.55-.511-.303 0-.548.229-.548.511s.245.512.549.512M20 14.173c.303 0 .55-.23.55-.512s-.247-.512-.55-.512-.549.23-.549.512.246.512.55.512M16.435 26.879c0 .667-.552 1.03-1.127 1.03s-.998-.494-.998-1.03.51-1.03 1.085-1.03c.574 0 1.04.383 1.04 1.03M13.67 31.566c.121.825-.499 1.758-.824 2.122-.443.627-1.604.89-2.06.243s.477-1.718 1.28-2.77c.802-1.05 1.452-.626 1.604.405M12.674 53.334c.381-1.358 2.168-1.313 2.71-1.415.542-.1 1.626 0 2.233.91.82 1.228-.434 1.759-1.561 2.001-1.128.243-3.86.202-3.383-1.496M52.253 31.367c-1.336.679-1.699-.162-1.713-.667 0-.89 1.202-.899 1.995-1.173.954-.33 1.387.99-.282 1.84"/><path fill="#001a17" fill-rule="evenodd" d="M49.803 13.498c-.704 1.214-1.901 1.287-5.856.274-1.971-.264-1.931 1.084 1.671 3.223 2.914 1.73 4.727 4.211 5.269 5.235 1.681 3.603.296 5.665-.255 6.485a4 4 0 0 0-.157.246c-.092.166-.271.392-.48.655-.527.666-1.242 1.569-1.211 2.336.04.993.899.945 1.974.884l.259-.014c1.192-.061 1.67.707.91 2.223-.758 1.516-3.143 2.628-4.553 2.304-1.409-.323-.845-1.354-.628-1.718.054-.092.155-.221.267-.366.333-.429.772-.994.448-1.13-.315-.132-.413-.029-1.227.83-.305.322-.71.75-1.266 1.313-1.25 1.264-1.864 2.84-2.447 4.335-.367.944-.723 1.856-1.218 2.638-1.258 1.988-5.6 1.356-6.67 1.2l-.051-.007c-.976-.142-2.255-.303-2.667.768s.434 1.657 1.691 2.061c1.258.405 3.535 2.103 2.255 4.79-1.279 2.69-6.548 3.862-8.607 3.942-2.06.081-3.838-.485-4.814-2.203s.89-3.658 1.713-4.406c.582-.529 1.306-.815 2.247-1.187.39-.155.817-.324 1.287-.531 1.605-.708 1.475-1.435 1.28-1.718s-.716-.667-2.407.727c-1.353 1.116-2.718 1.894-3.23 2.143-4.858 2.284-8.305-.566-9.844-2.405-1.54-1.84-1.388-6.873 1.756-10.693s2.537-7.458 1.951-9.722c-.198-.768-.534-1.477-.856-2.158-.628-1.328-1.206-2.55-.618-3.886.829-1.884 2.355-2.45 2.98-2.683l.12-.045c.52-.202.586-.324.564-.445-.017-.097-.31-.135-.455-.141l.004-.005c-1.393-.123-2.324-1.402-2.324-2.805 0-1.63 1.656-3.072 3.404-3.072s2.927 1.2 2.927 2.83c0 .821-.394 1.58-1.008 2.13-.273.656.82.179 1.875-.635.354-.273.6-.825.895-1.491.646-1.456 1.534-3.458 4.33-4.29 4.024-1.197 6.357.678 8.523 2.418l.085.069c2.082 1.671 2.302 1.608 2.822 1.458l.084-.023c.545-.151-.001-.986-.482-1.72l-.104-.16-.009-.014c-.853-.96-1.166-1.926-.741-2.66.762-1.314 3.948-2.3 6.8-.863 3.794 1.718 4.555 4.365 3.794 5.68m-18.3-2.567c-.788.128-2.314.726-3.014 1.557-.477.566-2.103 2.587 1.518 2.648s4.293-1.961 4.185-2.426-.564-2.001-2.689-1.779m16.576 1.101c-.345.893-2.288 1.058-4.34.369s-3.323-2.174-2.978-3.066c.345-.893 1.83-1.397 3.881-.708 2.052.69 3.782 2.513 3.437 3.405M19.882 15.48c1.018 0 1.843-.769 1.843-1.718s-.825-1.718-1.843-1.718-1.843.77-1.843 1.718c0 .949.825 1.718 1.843 1.718m15.806-1.435c.19-.89.773-1.03 1.04-.99.434 0 .955.444.933 1.111s-.455.99-.846 1.112c-.39.121-1.366-.121-1.127-1.233M14.526 44.04c-.156-1.131.008-1.832.109-2.04.325-.567.932-.365 1.56.423.63.789.998 1.456 1.107 2.123s-.044 1.354-.976 1.415-1.604-.506-1.8-1.92m23.135-1.455c.397.054 1.331-.008 1.886-.687.694-.849-.021-1.98-.65-2.223s-1.756-.445-2.212.202c-.455.647-.824 1.334-.412 2.021.33.55 1.063.687 1.388.687m-4.25-25.63a2.684 2.684 0 0 1 3.253.85c2.97 2.97 3.23 8.065 3.23 9.641s.91 6.246 3.209 4.386c2.178-1.762 2.156-5.284 2.148-6.612l-.001-.2c0-1.131-.65-3.516-3.404-4.77s-2.906-3.517-1.952-4.487 2.602-.384 4.705 2.608 2.559 8.752 2.515 10.086c-.043 1.334-1.214 3.112-2.211 4.143-.906.937-1.472 1.773-2.186 2.827l-.221.326c-.856 1.26-2.602 1.739-4.206 1.011-1.49-.676-1.622-3.72-1.736-6.381-.02-.456-.039-.9-.064-1.32-.173-2.87-2.363-6.205-3.296-7.56s-1.843-3.698.217-4.547m-9.02 7.055c1.302-1.536 2.104-2.235 4.38-2.506 1.865-.223 2.06-2.102 1.822-2.89-.407-1.344-3.21-2.062-5.833-.668-2.623 1.395-4.661 3.052-4.835 6.226-.046.84-.082 1.676-.118 2.477-.097 2.225-.183 4.186-.424 5.244-.236 1.038-.556 2-.863 2.92-.677 2.034-1.286 3.861-.763 5.852.759 2.89 2.342 4.892 5.139 4.609 2.023-.205 3.32-1.182 4.261-1.89.36-.272.666-.503.942-.637.998-.485 2.038-.91 3.079-1.071 1.04-.162 4.204-2.192 3.946-4.548-.135-1.231-.143-2.528-.15-3.812-.012-1.815-.024-3.603-.392-5.142-.629-2.628-2.146-4.79-4.987-4.952-2.84-.162-4.987 4.063-4.358 5.417s2.429 1.354 3.773-.87c.868-1.436 2.118-.606 2.97.87.304.525 1.171 3.82.282 6.65s-2.71 5.518-5.269 5.376c-2.228-.123-3.62-1.03-4.574-4.467s-.015-9.84 1.973-12.188" clip-rule="evenodd"/><path fill="#44ffd2" d="M14.635 41.998c.325-.566.932-.364 1.56.425.63.788.998 1.455 1.107 2.122s-.044 1.354-.976 1.415-1.604-.506-1.8-1.92c-.156-1.132.008-1.833.109-2.042M24.76 17.945c2.624-1.394 5.426-.676 5.833.667.238.789.043 2.668-1.822 2.89-2.276.272-3.079.971-4.38 2.507-1.987 2.348-2.926 8.752-1.972 12.188s2.346 4.344 4.575 4.467c2.558.142 4.38-2.547 5.268-5.376.89-2.83.022-6.125-.282-6.65-.852-1.476-2.102-2.306-2.97-.87-1.344 2.224-3.144 2.224-3.773.87-.628-1.355 1.518-5.58 4.358-5.417 2.84.161 4.358 2.324 4.987 4.952.368 1.539.38 3.327.391 5.142.008 1.284.016 2.58.151 3.812.258 2.356-2.905 4.386-3.946 4.548-1.04.161-2.081.586-3.079 1.071-.275.134-.583.366-.942.636-.94.709-2.238 1.686-4.261 1.89-2.797.284-4.38-1.718-5.139-4.608-.523-1.99.086-3.818.763-5.852.307-.92.627-1.882.863-2.92.241-1.058.327-3.019.425-5.244.035-.801.071-1.637.117-2.477.174-3.174 2.212-4.831 4.835-6.226M36.685 39.876c.456-.647 1.583-.445 2.212-.202.629.242 1.344 1.374.65 2.223-.555.68-1.488.741-1.886.687-.325 0-1.058-.137-1.388-.687-.412-.687-.043-1.374.412-2.021M39.894 15.762c.954-.97 2.602-.384 4.705 2.608s2.559 8.752 2.515 10.086c-.043 1.334-1.214 3.112-2.211 4.143-.906.937-1.472 1.773-2.186 2.827l-.221.326c-.856 1.26-2.602 1.739-4.206 1.011-1.49-.676-1.621-3.72-1.736-6.381-.02-.456-.038-.9-.064-1.32-.173-2.87-2.363-6.205-3.295-7.56-.933-1.354-1.843-3.698.216-4.547a2.684 2.684 0 0 1 3.253.849c2.97 2.97 3.23 8.065 3.23 9.641s.91 6.246 3.21 4.386c2.177-1.762 2.155-5.284 2.147-6.612l-.001-.2c0-1.131-.65-3.516-3.404-4.77s-2.906-3.517-1.952-4.487M22.2 16.017a.44.44 0 0 1-.225.01zM19.882 12.043c1.018 0 1.843.77 1.843 1.718 0 .949-.825 1.718-1.843 1.718s-1.843-.769-1.843-1.718.825-1.718 1.843-1.718M35.688 14.044c.19-.89.773-1.03 1.04-.99.434 0 .955.444.933 1.111s-.455.99-.846 1.112c-.39.121-1.366-.121-1.127-1.233M31.503 10.931c2.125-.222 2.58 1.314 2.689 1.779s-.564 2.486-4.185 2.425c-3.62-.06-1.995-2.081-1.518-2.647.7-.83 2.227-1.429 3.014-1.557M40.761 9.335c.345-.893 1.83-1.397 3.881-.708 2.052.69 3.782 2.513 3.437 3.406-.345.892-2.288 1.057-4.34.367-2.051-.689-3.323-2.173-2.978-3.065"/></svg>