<svg xmlns="http://www.w3.org/2000/svg" width="249.43" height="92.23" viewBox="0 0 249.43 93.23"><circle cx="179.92" cy="28.16" r="8.49" fill="#d62825"/><path fill="#fff" d="M192.36 46.75h-26.75V9.57h26.75a.37.37 0 00.37-.38V1.12a.36.36 0 00-.37-.37h-38.05a.36.36 0 00-.37.37v54.07a.37.37 0 00.37.38h38.05a.38.38 0 00.37-.38v-8.07a.36.36 0 00-.37-.37zM147.83 1.33L126.4 33.45v22.06a.38.38 0 01-.38.37H115.1a.37.37 0 01-.37-.38v-22L93.3 1.33a.37.37 0 01.31-.58h12.9a.37.37 0 01.31.16l13.74 20.59L134.3.91a.38.38 0 01.31-.16h12.91a.37.37 0 01.31.58zm101.6-.21v54.07a.38.38 0 01-.38.38h-10.69a.4.4 0 01-.31-.16l-26-35.6v35.38a.38.38 0 01-.37.38h-10.95a.38.38 0 01-.37-.38V1.12a.37.37 0 01.37-.37h11.44a.36.36 0 01.3.15l25.29 34.28V1.12a.36.36 0 01.37-.37h10.92a.37.37 0 01.38.37z"/><path d="M93.75 28.16c0 15.55-21 28.19-46.86 28.19S0 43.71 0 28.16 21 0 46.89 0c17.5 0 32.76 5.81 40.86 14.36.07 0 .07.13.07.22a.32.32 0 01-.32.32H68.63a.72.72 0 01-.22 0c-5.22-4.31-12.93-7-21.49-7-15.75 0-28.5 9.12-28.5 20.32s12.75 20.32 28.5 20.32c13.12 0 24.17-6.39 27.48-15H46.89a4.42 4.42 0 110-8.83h46.18c.18 0 .35.06.35.26a15.06 15.06 0 01.33 3.19zm155.68 64.7V70.52a.38.38 0 00-.38-.37H.37a.38.38 0 00-.37.37v22.34a.37.37 0 00.37.37h248.68a.37.37 0 00.38-.37z" fill="#005bac"/><path d="M122.56 88.63a3.79 3.79 0 002.91-1.18l.13-.15v1.1h2.32v-6c0-1.3-.53-3.48-4-3.48a6.05 6.05 0 00-4 1.42l.85 1.51a4 4 0 012.72-1.06c1.3 0 2.13.64 2.13 1.65V84l-.13-.16a3.71 3.71 0 00-2.91-1.11 2.89 2.89 0 00-3.19 2.91 3.05 3.05 0 003.17 2.99zm1-4.47a2.53 2.53 0 012 .85v1.24a2.53 2.53 0 01-2 .85c-1.09 0-1.84-.6-1.84-1.45s.73-1.49 1.83-1.49zm-13.38-5v9.24h-2.31v-9.23zm3.35 7v-5H112v-2h1.55v-2.55h2.34v2.56h1.9v2h-1.9v4.3c0 .66.37 1.11.93 1.11a1.53 1.53 0 00.81-.22l.48 1.71a3.12 3.12 0 01-2 .55 2.27 2.27 0 01-2.59-2.48zm19.53-10.56v12.8h-2.31V75.6zm10.47 8.58V75.6h2.6v8.62c0 2.8-1.63 4.41-4.48 4.41a4.69 4.69 0 01-3.38-1.2l1.12-2a2.94 2.94 0 002 .88 2 2 0 002.14-2.13zM81.86 75.6h-5v12.8h5c4.07 0 6.8-2.57 6.8-6.39s-2.73-6.41-6.8-6.41zm0 10.52h-2.42v-8.24h2.42A3.87 3.87 0 0186 82a3.94 3.94 0 01-4.14 4.12zm77.67-6.42a4 4 0 00-4.27-4.1h-6v12.8h2.61v-4.6h3.37a4 4 0 004.29-4.1zm-7.64 1.82v-3.64h3a1.8 1.8 0 012 1.82 1.82 1.82 0 01-2 1.82zm20.64-5.92l-4.87 7.53v5.27H165v-5.25l-4.93-7.55h3l3.2 5.17.06.1 3.23-5.27zm-79.14 3.57v9.23h-2.31v-9.23zM105 87.83v-8.66h-2.34v1.35l-.13-.17a3.56 3.56 0 00-2.84-1.41c-2.46 0-4 1.84-4 4.7s1.55 4.7 4 4.7a3.62 3.62 0 002.84-1.45l.13-.17v1.17a2.39 2.39 0 01-2.66 2.44 3.79 3.79 0 01-2.91-1.11l-1 1.64A5.6 5.6 0 00100 92.2c1.88 0 5-.57 5-4.37zm-2.35-2.64a2.78 2.78 0 01-2.18 1.1 2.66 2.66 0 010-5.31 2.78 2.78 0 012.18 1.1v3.1zm-9-8.58a1.4 1.4 0 01-2.8 0 1.4 1.4 0 012.8 0zm16.78 0a1.4 1.4 0 11-2.8 0 1.4 1.4 0 012.8 0z" fill="#fff"/></svg>