<svg xmlns="http://www.w3.org/2000/svg" width="1004" height="1004" fill="none" viewBox="0 0 1004 1004"><g clip-path="url(#a)"><path fill="#ff4600" d="M1004 502C1004 224.753 779.247 0 502 0S0 224.753 0 502s224.753 502 502 502 502-224.753 502-502"/><path fill="#fff" d="M565.694 170.78c-3.409-.612-6.617 1.635-7.219 5.107L517.346 413.45h-30.693l-41.127-237.563c-.602-3.472-3.812-5.719-7.223-5.107-146.049 28.802-257.994 155.448-267.222 310.283 0 .204-.401 6.74-.401 10.009v10.826c0 164.231 115.154 300.885 267.824 331.116 3.411.612 6.621-1.632 7.223-5.106l41.126-237.561h30.694l40.928 237.767c.602 3.469 3.81 5.718 7.219 5.106 146.051-29.006 257.797-155.651 267.224-310.487 0-.206.402-6.742.402-10.01v-10.825c.201-164.231-114.953-300.886-267.626-331.118"/></g><defs><clipPath id="a"><path fill="#fff" d="M0 0h1004v1004H0z"/></clipPath></defs></svg>