<svg xmlns="http://www.w3.org/2000/svg" width="3000" height="866" fill="none" viewBox="0 0 3000 866"><path fill="#ff4600" d="m502.875 7.154-52.5 309.877H410.25L357.75 7.154c-.75-4.142-4.5-6.777-8.625-6.024C146.625 39.535 0 218.006 0 433s146.625 393.465 349.5 431.871c4.125.753 7.875-1.883 8.625-6.025l52.5-309.877h40.125l52.5 309.877c.75 4.142 4.5 6.778 8.625 6.025 202.875-38.029 349.5-216.877 349.5-431.871S714.375 39.535 511.5 1.13c-4.125-.753-7.875 1.882-8.625 6.024"/><path fill="#fff" d="M1471.87 269.59c-24-13.932-51.75-20.709-83.62-20.709s-63.75 7.907-87 23.344-39.75 36.899-50.25 64.009h-5.25V100.908H1122v614.483h127.12V448.814c0-19.956 4.13-36.899 11.63-50.83 7.5-13.932 18-24.851 31.12-32.381 13.13-7.531 28.51-10.919 45.75-10.919 25.88 0 46.13 7.907 60.38 23.72 14.25 15.814 21.37 38.029 21.37 66.268v270.719h127.13v-293.31c0-36.146-6.38-67.021-19.5-93.001s-31.88-45.936-55.5-59.867zm516.38 37.275c-19.5-19.579-42.38-33.887-68.63-43.676s-54.37-14.685-84.75-14.685c-45 0-84.37 10.167-117.75 30.122-33.37 19.956-59.24 47.818-77.62 83.588s-27.38 77.563-27.38 124.629c0 47.065 9 90.741 27.38 126.135 18.38 35.393 44.62 62.879 78.37 82.081 34.13 19.203 74.63 28.992 121.88 28.992s71.25-6.024 100.12-17.696c28.88-11.672 52.5-28.239 71.25-49.324 18.38-21.086 30.75-45.936 36.75-74.175l-117.75-7.907c-4.5 11.672-10.87 21.462-19.12 29.369-8.25 7.906-18.38 13.931-30 18.073-11.63 4.141-24.75 6.024-39 6.024-21.37 0-39.75-4.518-55.13-13.555q-23.055-13.554-36-38.405c-8.62-16.567-12.75-36.146-12.75-59.114h312.38v-35.017c0-39.158-5.62-73.421-16.5-102.79-10.87-29.369-26.25-53.843-45.75-73.045zm-250.13 131.783c.75-16.567 4.88-31.628 12.75-45.559 8.25-15.061 19.88-26.733 34.88-35.77 15-9.036 31.87-13.178 51.37-13.178s34.88 4.142 48.75 12.049c13.88 8.283 25.13 19.202 33.01 33.51 7.87 14.308 12 30.498 12 48.948h-192.76m1193.26-243.233c18.74 0 35.24-6.401 48.37-19.203 13.5-12.801 20.25-27.862 20.25-45.935s-6.75-32.758-20.25-45.56-29.63-19.202-48.37-19.202c-18.76 0-35.26 6.4-48.38 19.203-13.5 12.801-20.25 27.862-20.25 45.559s6.75 33.134 20.25 45.935 29.62 19.203 48.38 19.203m-292.13 53.089c-33.75 0-62.63 7.907-87.38 23.721s-41.62 36.899-50.99 63.632H2496c-7.5-26.733-22.13-48.194-44.25-63.632-22.13-15.814-48.75-23.721-80.25-23.721s-57.75 7.907-80.25 23.345c-22.13 15.437-38.25 36.899-47.63 64.008h-5.24v-81.328h-121.13v460.862h127.12V438.648c0-16.944 3.38-32.004 9.75-44.43 6.38-12.801 15.38-22.591 26.63-29.745s24-10.542 38.25-10.542c21 0 37.88 6.777 50.63 19.955 12.75 13.555 19.12 31.251 19.12 53.843v287.286h123.38V433.753c0-24.097 6.37-43.3 19.49-57.984 13.13-14.685 31.13-22.215 54-22.215 22.88 0 37.13 6.401 50.63 19.203q20.25 19.202 20.25 57.607v284.651h127.12V405.137c0-50.077-13.5-88.482-40.12-115.968-26.63-27.486-61.5-41.041-104.25-41.041zm228 466.887h127.12V254.529h-127.12z"/></svg>