<svg xmlns="http://www.w3.org/2000/svg" width="156" height="29" fill="none"><path fill="#F3F5F0" d="m34.421 20.829 1.708-1.708a1.434 1.434 0 0 0 0-2.032l-9.26-9.247a1.434 1.434 0 0 0-2.032 0L23.129 9.55a1.434 1.434 0 0 0 0 2.032l9.26 9.247c.563.563 1.47.563 2.032 0Z"/><path fill="#F3F5F0" d="m28.709 24.569-7.546-7.54-1.715-1.707-3.713-3.714a1.434 1.434 0 0 1 0-2.032l5.421-5.414a1.434 1.434 0 0 0 0-2.032L19.442.422a1.434 1.434 0 0 0-2.032 0L.723 17.096a1.434 1.434 0 0 0 0 2.032l1.714 1.708c.563.562 1.47.562 2.032 0l5.494-5.488a1.434 1.434 0 0 1 2.032 0l1.682 1.681c.562.563.562 1.47 0 2.033l-5.494 5.487a1.434 1.434 0 0 0 0 2.032l1.714 1.708c.563.562 1.47.562 2.032 0l5.494-5.488a1.434 1.434 0 0 1 2.032 0l5.514 5.508c.563.562 1.47.562 2.032 0l1.714-1.708a1.434 1.434 0 0 0 0-2.032h-.006ZM47.514 5.214h3.045a.51.51 0 0 1 .51.51v5.924c0 .285.231.51.509.51h7.738a.51.51 0 0 0 .51-.51V5.724a.51.51 0 0 1 .51-.51h3.044a.51.51 0 0 1 .51.51v17.468a.51.51 0 0 1-.51.51h-3.045a.506.506 0 0 1-.51-.51l-.04-6.877a.51.51 0 0 0-.509-.51h-7.698a.51.51 0 0 0-.51.51v6.87a.51.51 0 0 1-.51.51h-3.044a.51.51 0 0 1-.51-.51V5.724a.51.51 0 0 1 .51-.51Zm21.373 0H82.47a.51.51 0 0 1 .51.51v2.66a.51.51 0 0 1-.51.51h-9.538a.51.51 0 0 0-.51.51v2.211c0 .285.231.51.51.51l6.394.013a.51.51 0 0 1 .51.51v2.548a.51.51 0 0 1-.51.51h-6.394a.51.51 0 0 0-.51.51v3.27a.51.51 0 0 0 .51.509h9.564a.51.51 0 0 1 .51.51v2.667a.51.51 0 0 1-.51.51H68.887a.51.51 0 0 1-.51-.51V5.724a.51.51 0 0 1 .51-.51Zm28.489 18.322L91.32 16.93a.51.51 0 0 0-.887.344v5.911a.51.51 0 0 1-.51.51h-3.045a.51.51 0 0 1-.51-.51V5.724a.51.51 0 0 1 .51-.51h8.307c4.283 0 6.99 2.178 6.99 5.885s-2.184 5.507-6.195 5.64c0 0 4.223 4.222 6.096 6.089a.512.512 0 0 1-.364.874H97.76a.511.511 0 0 1-.377-.166h-.007Zm-6.95-10.67c0 .285.232.51.51.51h4.567c1.536 0 2.515-.761 2.515-2.277s-.98-2.264-2.515-2.264h-4.567a.51.51 0 0 0-.51.51v3.521Zm14.284 1.609c0-5.19 4.15-9.26 9.565-9.26 2.866 0 5.375 1.138 7.102 2.978a.497.497 0 0 1-.053.728l-2.224 1.734a.491.491 0 0 1-.662-.053c-1.039-1.092-2.521-1.734-4.176-1.734-3.131 0-5.673 2.323-5.673 5.6 0 3.276 2.542 5.6 5.673 5.6 1.681 0 3.19-.669 4.229-1.794a.49.49 0 0 1 .662-.06l2.257 1.702c.232.172.265.51.073.721-1.734 1.9-4.282 3.071-7.208 3.071-5.415 0-9.565-4.037-9.565-9.233Zm23.809-9.261a.51.51 0 0 1 .51.51l-.02 13.774c0 .285.232.51.51.51h8.347a.51.51 0 0 1 .509.51v2.667a.51.51 0 0 1-.509.51h-12.391a.51.51 0 0 1-.51-.51V5.724a.51.51 0 0 1 .51-.51h3.044Zm12.895 0h13.582a.51.51 0 0 1 .51.51v2.66a.51.51 0 0 1-.51.51h-9.538a.51.51 0 0 0-.51.51v2.211c0 .285.232.51.51.51l6.394.013a.51.51 0 0 1 .51.51v2.548a.51.51 0 0 1-.51.51h-6.394a.51.51 0 0 0-.51.51v3.27a.51.51 0 0 0 .51.509h9.565a.51.51 0 0 1 .509.51v2.667a.51.51 0 0 1-.509.51H141.42a.51.51 0 0 1-.509-.51V5.724a.51.51 0 0 1 .509-.51h-.006Z"/></svg>