<svg xmlns="http://www.w3.org/2000/svg" width="72" height="72" fill="none" viewBox="0 0 72 72"><g clip-path="url(#a)"><circle cx="36" cy="36" r="36" fill="#000"/><path fill="#00f3a7" d="M46.884 48.021V41.53l-7.134-5.596 7.134-5.596v-6.602H42.09v4.14l-6.354 4.925-6.245-4.925v-4.14h-4.794v6.603l7.134 5.596-7.134 5.596v6.49h4.794v-4.14l6.243-4.925 6.355 4.924v4.141zM29.493 14h-7.246L15 21.275v7.274h4.794v-5.26l4.459-4.476h5.24zM51.794 48.47l-4.462 4.479h-5.24v4.812h7.247l7.246-7.277v-7.275h-4.79z"/></g><defs><clipPath id="a"><path fill="#fff" d="M0 0h72v72H0z"/></clipPath></defs></svg>