<svg width="72" height="72" viewBox="0 0 72 72" fill="none" xmlns="http://www.w3.org/2000/svg">
<g clip-path="url(#clip0_254_8350)">
<circle cx="36" cy="36" r="36" fill="black"/>
<path d="M46.8841 48.0212V41.53L39.7501 35.934L46.8841 30.3379V23.7357H42.09V27.8765L35.7358 32.8008L29.4913 27.8765V23.7357H24.6973V30.3387L31.8313 35.9347L24.6973 41.5307V48.0219H29.4913V43.8804L35.7343 38.9561L42.0886 43.8804V48.0212H46.8841Z" fill="#00F3A7"/>
<path d="M29.4928 14H22.2468L15 21.2747V28.5487H19.7941V23.2885L24.2528 18.8126H29.4928V14Z" fill="#00F3A7"/>
<path d="M51.7941 48.4692L47.3317 52.9487H42.0918V57.7613H49.3385L56.5846 50.4837V43.209H51.7941V48.4692Z" fill="#00F3A7"/>
</g>
<defs>
<clipPath id="clip0_254_8350">
<rect width="72" height="72" fill="white"/>
</clipPath>
</defs>
</svg>
