<svg xmlns="http://www.w3.org/2000/svg" width="100" height="100" fill="none" viewBox="0 0 100 100"><path fill="#fff" d="m48.322 80.551 32.23-32.229a11.41 11.41 0 0 1 16.116 0 11.41 11.41 0 0 1 0 16.117l-32.23 32.229a11.41 11.41 0 0 1-16.116 0 11.41 11.41 0 0 1 0-16.117M3.332 51.678a11.41 11.41 0 0 0 16.113 0l32.233-32.233a11.41 11.41 0 0 0 0-16.113 11.41 11.41 0 0 0-16.117 0L3.332 35.562a11.41 11.41 0 0 0 0 16.116M37.906 62.08a11.41 11.41 0 0 0 16.117 0l8.058-8.058a11.41 11.41 0 0 0 0-16.117 11.41 11.41 0 0 0-16.117 0l-8.058 8.059a11.41 11.41 0 0 0 0 16.116"/></svg>