<svg xmlns="http://www.w3.org/2000/svg" width="154" height="78" fill="none" viewBox="0 0 154 78"><path fill="#fff" d="M50.517 1.094H60.82v76.708H50.517V43.063H10.412v34.739H0V1.094h10.412V34.08h40.105zM87.225 11.506V1.094H76.707v10.412zm-.33 66.292V22.793h-9.858v55.005zM114.955 22.789v-7.34c0-4.492 2.413-7.23 6.132-7.23 3.038 0 4.808 1.508 5.586 3.287h7.957A13.965 13.965 0 0 0 120.981 0c-9.533 0-15.888 6.338-15.888 15.888v6.9H96.32v8.325h8.768v46.689h9.867V31.113h27.864v46.689h9.862V22.789zm27.538-21.695v10.412h10.518V1.094z"/></svg>