<svg xmlns="http://www.w3.org/2000/svg" width="46" height="46" fill="none" viewBox="0 0 46 46"><path fill="#83c2e9" d="M45.283 22.999C45.283 10.692 35.307.715 23 .715S.716 10.692.716 22.999 10.693 45.282 23 45.282 45.283 35.306 45.283 23"/><path fill="#ffcd4d" fill-rule="evenodd" d="M16.822 14.199a4.015 4.015 0 0 1 4.015-4.015h4.324a4.015 4.015 0 0 1 4.015 4.015zm-4.323 4.94a4.015 4.015 0 0 1 4.015-4.015h12.971a4.015 4.015 0 0 1 4.016 4.016zm.618.927a2.78 2.78 0 1 0 0 5.56h19.766a2.78 2.78 0 1 0 0-5.56zm-.31 6.796a4.015 4.015 0 0 0 4.015 4.015h12.972a4.015 4.015 0 0 0 4.015-4.015zm8.03 8.956a4.015 4.015 0 0 1-4.015-4.015h12.663a4.015 4.015 0 0 1-4.015 4.015z" clip-rule="evenodd"/><path fill="#000" d="M16.866 31.643h-.18v.18a4.195 4.195 0 0 0 4.194 4.195h4.634a4.193 4.193 0 0 0 4.198-4.198v-.178H16.866zm8.648 4.015H20.88A3.83 3.83 0 0 1 17.054 32H29.34a3.83 3.83 0 0 1-3.827 3.658M29.398 14.396v-.179a4.194 4.194 0 0 0-4.193-4.194H20.88a4.194 4.194 0 0 0-4.193 4.194v.18zm-8.518-4.015h4.325a3.83 3.83 0 0 1 3.826 3.657H17.054a3.83 3.83 0 0 1 3.826-3.657M32.933 19.905H13.161a2.959 2.959 0 1 0 0 5.918h19.772a2.959 2.959 0 1 0 0-5.918m0 5.56H13.161a2.6 2.6 0 0 1 0-5.202h19.772a2.601 2.601 0 1 1 0 5.202M33.723 19.331v-.179a4.194 4.194 0 0 0-4.19-4.188H16.558a4.194 4.194 0 0 0-4.194 4.188v.179zm-17.165-4.01h12.975a3.83 3.83 0 0 1 3.823 3.652H12.729a3.836 3.836 0 0 1 3.829-3.651M12.672 26.701v.18a4.194 4.194 0 0 0 4.194 4.193h12.973a4.193 4.193 0 0 0 4.193-4.194v-.179zm17.167 4.015H16.866a3.83 3.83 0 0 1-3.827-3.657h20.626a3.833 3.833 0 0 1-3.826 3.657"/></svg>