<svg xmlns="http://www.w3.org/2000/svg" width="40" height="40" fill="none" viewBox="0 0 40 40"><path fill="#ca61ff" fill-rule="evenodd" d="M34.386 16.154H20.54a4.386 4.386 0 0 0-4.386 4.386v13.846a4.386 4.386 0 0 0 4.386 4.386h13.846a4.386 4.386 0 0 0 4.386-4.386V20.539a4.386 4.386 0 0 0-4.386-4.385M20.54 14.925a5.614 5.614 0 0 0-5.614 5.615v13.846c0 3.1 2.513 5.614 5.614 5.614h13.846c3.1 0 5.614-2.514 5.614-5.614V20.539c0-3.1-2.513-5.614-5.614-5.614z" clip-rule="evenodd"/><path fill="#616eff" fill-rule="evenodd" d="M26.924 8.69H13.077a4.386 4.386 0 0 0-4.386 4.387v13.846a4.386 4.386 0 0 0 4.386 4.386h13.847a4.386 4.386 0 0 0 4.386-4.386V13.077a4.386 4.386 0 0 0-4.386-4.386M13.077 7.464a5.614 5.614 0 0 0-5.614 5.614v13.846c0 3.1 2.514 5.614 5.614 5.614h13.847c3.1 0 5.614-2.513 5.614-5.614V13.077c0-3.1-2.514-5.614-5.614-5.614z" clip-rule="evenodd"/><path fill="#61dfff" fill-rule="evenodd" d="M19.46 1.228H5.615a4.386 4.386 0 0 0-4.386 4.386v13.847a4.386 4.386 0 0 0 4.386 4.386h13.847a4.386 4.386 0 0 0 4.386-4.386V5.614a4.386 4.386 0 0 0-4.386-4.386M5.615 0A5.614 5.614 0 0 0 0 5.614v13.847c0 3.1 2.513 5.614 5.614 5.614h13.847c3.1 0 5.614-2.514 5.614-5.614V5.614C25.075 2.514 22.56 0 19.46 0z" clip-rule="evenodd"/></svg>