<svg xmlns="http://www.w3.org/2000/svg" width="110" height="32" fill="none" class="css-1jfqjnx" viewBox="0 0 110 32"><path fill="#b246ff" d="M11.268 14.531h11.233v3.796H11.268z"/><path fill="url(#a)" fill-rule="evenodd" d="M19.55 4.361C13.871 2.708 7.678 5.393 5.1 10.914c-2.58 5.522-.661 11.989 4.255 15.276l5.87-12.566z" clip-rule="evenodd"/><path fill="url(#b)" fill-rule="evenodd" d="M22.758 5.81c4.916 3.288 6.834 9.755 4.255 15.276-2.58 5.522-8.772 8.206-14.452 6.553l5.87-12.565z" clip-rule="evenodd"/><path fill="#fbfbfc" d="M61.798 25.478c-1.429 0-2.245-.252-3.366-.757-.907-.635-1.634-1.373-2.144-2.136-.615-.92-.923-2.432-.923-3.137v-6.41l4.532-.81v7.139c0 .458.163 1.017.489 1.36.343.324.988.533 1.494.533.489 0 1.162-.209 1.47-.534.325-.342.487-.819.487-1.359v-6.89l4.507-.832v7.803c0 .95-.308 2.245-.923 3.164-.597.901-1.224 1.604-2.31 2.11-1.084.504-1.902.756-3.313.756M77.085 11.386c1.43 0 2.08.253 3.202.757.907.636 1.634 1.373 2.144 2.137.615.92.922 2.432.922 3.137v7.733h-4.531v-7.652q0-.892-.489-1.407-.515-.486-1.275-.486-.732 0-1.194.486-.488.514-.488 1.407v7.652H70.87v-7.733c0-.951.308-2.245.922-3.164.597-.902 1.224-1.605 2.31-2.11 1.085-.504 1.572-.757 2.983-.757"/><path fill="#fbfbfc" d="M85.331 11.386c1.43 0 2.08.253 3.202.757.907.636 1.634 1.373 2.144 2.137.615.92.923 2.432.923 3.137v7.733h-4.532v-7.652q0-.892-.489-1.407-.515-.486-1.275-.486-.732 0-1.194.486-.488.514-.488 1.407v7.652h-4.506v-7.733c0-.951.308-2.245.923-3.164.596-.902 1.224-1.605 2.309-2.11s1.573-.757 2.983-.757"/><path fill="#fbfbfc" fill-rule="evenodd" d="M105.156 23.626a6.98 6.98 0 0 1-4.383 1.538c-3.854 0-6.978-3.104-6.978-6.933s3.124-6.932 6.978-6.932c1.677 0 3.217.588 4.42 1.568l3.922-.727v13.023h-3.959zm-1.136-5.345a3.205 3.205 0 0 1-3.216 3.196c-1.776 0-3.216-1.431-3.216-3.196 0-1.764 1.44-3.195 3.216-3.195a3.205 3.205 0 0 1 3.216 3.195" clip-rule="evenodd"/><path fill="#fbfbfc" d="M35.902 6.635h4.948v18.516h-4.948zM47.447 6.635h4.948v18.516h-4.948z"/><path fill="#fbfbfc" d="m38.693 15.365 10.002-1.752.63 3.55-10.001 1.753z"/><defs><linearGradient id="a" x1="18.568" x2="-11.379" y1="6.465" y2="2.806" gradientUnits="userSpaceOnUse"><stop stop-color="#b246ff"/><stop offset="1" stop-color="#ff6a8a"/></linearGradient><linearGradient id="b" x1="21.775" x2="43.794" y1="7.914" y2="28.521" gradientUnits="userSpaceOnUse"><stop stop-color="#b246ff"/><stop offset="1" stop-color="#ff6a8a"/></linearGradient></defs></svg>