<svg xmlns="http://www.w3.org/2000/svg" width="32" height="32"><g fill="none" fill-rule="evenodd"><circle cx="16" cy="16" r="16" fill="#292929"/><path fill="#fff" d="M15.007 18.657q.002-.69-.001-1.378c-.001-.128.036-.226.155-.278.11-.048.225-.014.321.098q.428.502.855 1.006.151.174.298.354a.18.18 0 0 1 .038.1q.003.728.001 1.454a.85.85 0 0 1-.771.855.84.84 0 0 1-.888-.726c-.009-.055-.008-.112-.008-.168zm.003-9.01q-.002-.03-.003-.059V6.856c.001-.42.289-.774.679-.843a.83.83 0 0 1 .983.821c.01.931.004 1.863.006 2.794l-.005.048c-.194-.332-.462-.498-.828-.497-.362 0-.632.16-.832.468m-.003 12.613c.204.31.476.468.841.467.364-.001.629-.167.827-.475v2.314c-.001.227.006.456-.014.68a.83.83 0 0 1-.87.753.84.84 0 0 1-.782-.832c-.005-.893-.002-1.786-.002-2.68zm1.668-8.826v1.661c0 .158-.05.244-.17.292a.31.31 0 0 1-.36-.094l-.724-.848q-.188-.218-.373-.44a.17.17 0 0 1-.04-.1q-.004-1.072 0-2.143a.84.84 0 0 1 .766-.842c.395-.044.787.25.879.664q.021.105.02.212.003.819.002 1.638m1.731-3.377v-2.22c.002-.402.231-.73.587-.842.54-.171 1.08.237 1.083.825.003.554 0 1.108 0 1.661v2.795c0 .413-.248.747-.627.85-.493.133-.996-.23-1.037-.749a2 2 0 0 1-.005-.153v-2.167zM13.362 20.76v2.565a.845.845 0 0 1-.693.847c-.48.092-.959-.298-.973-.797-.004-.143-.001-.286-.001-.429v-4.753c0-.399.256-.736.628-.832a.834.834 0 0 1 1.038.812c.003.862 0 1.725 0 2.587zm0-9.446v3.499a.845.845 0 0 1-.656.84.836.836 0 0 1-1.01-.81c-.005-.506-.001-1.011-.002-1.517V7.82c0-.412.268-.756.653-.843a.835.835 0 0 1 1.014.821c.003.899 0 1.797 0 2.696zm5.044 8.186v-3.8c0-.379.162-.66.5-.818.542-.251 1.15.15 1.17.763v7.648c0 .418-.239.75-.616.858-.494.142-1.006-.22-1.048-.741a2 2 0 0 1-.005-.16v-3.752zm5.094-3.866v5.94a.85.85 0 0 1-.671.852c-.492.107-.982-.286-.996-.799V9.707c0-.385.193-.692.519-.828.55-.23 1.147.184 1.147.798v5.956zm-13.333-.009v5.949c0 .42-.26.757-.652.85-.5.12-1.001-.274-1.015-.799V9.688c0-.409.245-.741.62-.845a.834.834 0 0 1 1.046.802c.005.655.001 1.311.001 1.967v4.012z"/></g></svg>