<svg width="722" height="121" viewBox="0 0 722 121" fill="none" xmlns="http://www.w3.org/2000/svg">
<path d="M25.1752 57.4745C25.1754 56.7983 25.309 56.1288 25.5686 55.5044C25.8282 54.8801 26.2086 54.3131 26.6878 53.8361C27.1671 53.3592 27.7359 52.9816 28.3616 52.725C28.9872 52.4685 29.6573 52.338 30.3335 52.3412L38.8853 52.3691C40.2489 52.3691 41.5566 52.9108 42.5208 53.875C43.4849 54.8392 44.0266 56.1469 44.0266 57.5104V89.8494C44.9898 89.5639 46.2225 89.2595 47.5789 88.9401C48.5187 88.719 49.3562 88.1869 49.9557 87.4302C50.5552 86.6734 50.8815 85.7364 50.8817 84.7709V44.6597C50.8817 43.296 51.4233 41.9882 52.3875 41.0239C53.3516 40.0596 54.6593 39.5177 56.023 39.5174H64.6008C65.9644 39.5177 67.2721 40.0596 68.2363 41.0239C69.2004 41.9882 69.7421 43.296 69.7421 44.6597V81.8894C69.7421 81.8894 71.888 81.021 73.9771 80.1387C74.7533 79.8104 75.4158 79.2607 75.8817 78.5584C76.3477 77.856 76.5964 77.032 76.5971 76.1892V31.806C76.5971 30.4426 77.1387 29.135 78.1026 28.1709C79.0666 27.2067 80.374 26.6649 81.7374 26.6647H90.3062C91.6689 26.666 92.9753 27.2083 93.9384 28.1723C94.9015 29.1363 95.4425 30.4433 95.4425 31.806V68.354C102.871 62.9701 110.4 56.4943 116.375 48.708C117.242 47.5778 117.815 46.2506 118.045 44.8448C118.274 43.439 118.151 41.9983 117.689 40.6513C114.923 32.6944 110.527 25.4025 104.781 19.2423C99.0355 13.082 92.0672 8.18891 84.3221 4.87622C76.577 1.56354 68.2256 -0.0958463 59.8024 0.0042754C51.3792 0.104397 43.0696 1.96181 35.4054 5.45766C27.7413 8.95351 20.8913 14.0108 15.2938 20.3059C9.69626 26.6011 5.47454 33.9954 2.89876 42.0157C0.322968 50.0361 -0.55016 58.5058 0.335237 66.8829C1.22063 75.2601 3.84506 83.3601 8.04058 90.6648C8.77153 91.9249 9.84694 92.9503 11.1404 93.6204C12.4339 94.2904 13.8918 94.5775 15.3428 94.4477C16.9637 94.305 18.9819 94.1033 21.3814 93.8218C22.4257 93.703 23.3898 93.2043 24.0902 92.4206C24.7905 91.6368 25.1781 90.6229 25.1792 89.5719V57.4745" fill="white"/>
<path d="M24.9922 109.338C34.0243 115.908 44.6982 119.852 55.8327 120.733C66.9673 121.614 78.1285 119.398 88.0816 114.329C98.0347 109.261 106.392 101.537 112.228 92.014C118.064 82.4907 121.152 71.5384 121.15 60.369C121.15 58.9717 121.085 57.5963 120.992 56.2249C98.8707 89.2175 58.0258 104.641 24.9922 109.338Z" fill="#0EC9AC"/>
<path d="M189.246 5.76V58.808H178.606V36.236H155.882V58.808H145.242V5.76H155.882V27.572H178.606V5.76H189.246Z" fill="white"/>
<path d="M239.999 16.704L213.931 78.72H202.607L211.727 57.744L194.855 16.704H206.787L217.655 46.116L228.675 16.704H239.999Z" fill="white"/>
<path d="M256.374 22.784C257.742 20.8587 259.617 19.2627 261.998 17.996C264.43 16.6787 267.192 16.02 270.282 16.02C273.88 16.02 277.122 16.9067 280.01 18.68C282.949 20.4533 285.254 22.9867 286.926 26.28C288.649 29.5227 289.51 33.2973 289.51 37.604C289.51 41.9107 288.649 45.736 286.926 49.08C285.254 52.3733 282.949 54.932 280.01 56.756C277.122 58.58 273.88 59.492 270.282 59.492C267.192 59.492 264.456 58.8587 262.074 57.592C259.744 56.3253 257.844 54.7293 256.374 52.804V78.872H245.734V16.704H256.374V22.784ZM278.642 37.604C278.642 35.0707 278.11 32.892 277.046 31.068C276.033 29.1933 274.665 27.7747 272.942 26.812C271.27 25.8493 269.446 25.368 267.47 25.368C265.545 25.368 263.721 25.8747 261.998 26.888C260.326 27.8507 258.958 29.2693 257.894 31.144C256.881 33.0187 256.374 35.2227 256.374 37.756C256.374 40.2893 256.881 42.4933 257.894 44.368C258.958 46.2427 260.326 47.6867 261.998 48.7C263.721 49.6627 265.545 50.144 267.47 50.144C269.446 50.144 271.27 49.6373 272.942 48.624C274.665 47.6107 276.033 46.1667 277.046 44.292C278.11 42.4173 278.642 40.188 278.642 37.604Z" fill="white"/>
<path d="M336.382 36.844C336.382 38.364 336.281 39.732 336.078 40.948H305.298C305.552 43.988 306.616 46.3693 308.49 48.092C310.365 49.8147 312.67 50.676 315.406 50.676C319.358 50.676 322.17 48.9787 323.842 45.584H335.318C334.102 49.6373 331.772 52.9813 328.326 55.616C324.881 58.2 320.65 59.492 315.634 59.492C311.581 59.492 307.933 58.6053 304.69 56.832C301.498 55.008 298.99 52.4493 297.166 49.156C295.393 45.8627 294.506 42.0627 294.506 37.756C294.506 33.3987 295.393 29.5733 297.166 26.28C298.94 22.9867 301.422 20.4533 304.614 18.68C307.806 16.9067 311.48 16.02 315.634 16.02C319.637 16.02 323.209 16.8813 326.35 18.604C329.542 20.3267 332 22.784 333.722 25.976C335.496 29.1173 336.382 32.74 336.382 36.844ZM325.362 33.804C325.312 31.068 324.324 28.8893 322.398 27.268C320.473 25.596 318.117 24.76 315.33 24.76C312.696 24.76 310.466 25.5707 308.642 27.192C306.869 28.7627 305.78 30.9667 305.374 33.804H325.362Z" fill="white"/>
<path d="M354.788 23.24C356.156 21.0107 357.93 19.2627 360.108 17.996C362.338 16.7293 364.871 16.096 367.708 16.096V27.268H364.896C361.552 27.268 359.019 28.0533 357.296 29.624C355.624 31.1947 354.788 33.9307 354.788 37.832V58.808H344.148V16.704H354.788V23.24Z" fill="white"/>
<path d="M385.515 14.348V27.648H403.375V36.084H385.515V50.144H405.655V58.808H374.875V5.684H405.655V14.348H385.515Z" fill="white"/>
<path d="M462.976 5.76L443.52 58.808H430.6L411.144 5.76H422.544L437.136 47.94L451.652 5.76H462.976Z" fill="white"/>
<path d="M527.191 5.76V58.808H516.551V24.304L502.339 58.808H494.283L479.995 24.304V58.808H469.355V5.76H481.439L498.311 45.204L515.183 5.76H527.191Z" fill="white"/>
<path d="M556.027 59.34C552.328 59.34 548.984 58.7067 545.995 57.44C543.056 56.1733 540.726 54.3493 539.003 51.968C537.28 49.5867 536.394 46.7747 536.343 43.532H547.743C547.895 45.7107 548.655 47.4333 550.023 48.7C551.442 49.9667 553.367 50.6 555.799 50.6C558.282 50.6 560.232 50.0173 561.651 48.852C563.07 47.636 563.779 46.0653 563.779 44.14C563.779 42.5693 563.298 41.2773 562.335 40.264C561.372 39.2507 560.156 38.4653 558.687 37.908C557.268 37.3 555.292 36.6413 552.759 35.932C549.314 34.9187 546.502 33.9307 544.323 32.968C542.195 31.9547 540.346 30.46 538.775 28.484C537.255 26.4573 536.495 23.772 536.495 20.428C536.495 17.2867 537.28 14.5507 538.851 12.22C540.422 9.88933 542.626 8.116 545.463 6.9C548.3 5.63333 551.543 5 555.191 5C560.663 5 565.096 6.34267 568.491 9.028C571.936 11.6627 573.836 15.3613 574.191 20.124H562.487C562.386 18.3 561.6 16.8053 560.131 15.64C558.712 14.424 556.812 13.816 554.431 13.816C552.354 13.816 550.682 14.348 549.415 15.412C548.199 16.476 547.591 18.0213 547.591 20.048C547.591 21.4667 548.047 22.6573 548.959 23.62C549.922 24.532 551.087 25.292 552.455 25.9C553.874 26.4573 555.85 27.116 558.383 27.876C561.828 28.8893 564.64 29.9027 566.819 30.916C568.998 31.9293 570.872 33.4493 572.443 35.476C574.014 37.5027 574.799 40.1627 574.799 43.456C574.799 46.2933 574.064 48.928 572.595 51.36C571.126 53.792 568.972 55.7427 566.135 57.212C563.298 58.6307 559.928 59.34 556.027 59.34Z" fill="#0EC9AC"/>
<path d="M581.287 37.756C581.287 33.3987 582.174 29.5987 583.947 26.356C585.721 23.0627 588.178 20.5293 591.319 18.756C594.461 16.932 598.058 16.02 602.111 16.02C607.33 16.02 611.637 17.3373 615.031 19.972C618.477 22.556 620.782 26.204 621.947 30.916H610.471C609.863 29.092 608.825 27.6733 607.355 26.66C605.937 25.596 604.163 25.064 602.035 25.064C598.995 25.064 596.589 26.1787 594.815 28.408C593.042 30.5867 592.155 33.7027 592.155 37.756C592.155 41.7587 593.042 44.8747 594.815 47.104C596.589 49.2827 598.995 50.372 602.035 50.372C606.342 50.372 609.154 48.4467 610.471 44.596H621.947C620.782 49.156 618.477 52.7787 615.031 55.464C611.586 58.1493 607.279 59.492 602.111 59.492C598.058 59.492 594.461 58.6053 591.319 56.832C588.178 55.008 585.721 52.4747 583.947 49.232C582.174 45.9387 581.287 42.1133 581.287 37.756Z" fill="#0EC9AC"/>
<path d="M627.006 37.604C627.006 33.348 627.842 29.5733 629.514 26.28C631.237 22.9867 633.542 20.4533 636.43 18.68C639.369 16.9067 642.637 16.02 646.234 16.02C649.376 16.02 652.112 16.6533 654.442 17.92C656.824 19.1867 658.724 20.7827 660.142 22.708V16.704H670.858V58.808H660.142V52.652C658.774 54.628 656.874 56.2747 654.442 57.592C652.061 58.8587 649.3 59.492 646.158 59.492C642.612 59.492 639.369 58.58 636.43 56.756C633.542 54.932 631.237 52.3733 629.514 49.08C627.842 45.736 627.006 41.9107 627.006 37.604ZM660.142 37.756C660.142 35.172 659.636 32.968 658.622 31.144C657.609 29.2693 656.241 27.8507 654.518 26.888C652.796 25.8747 650.946 25.368 648.97 25.368C646.994 25.368 645.17 25.8493 643.498 26.812C641.826 27.7747 640.458 29.1933 639.394 31.068C638.381 32.892 637.874 35.0707 637.874 37.604C637.874 40.1373 638.381 42.3667 639.394 44.292C640.458 46.1667 641.826 47.6107 643.498 48.624C645.221 49.6373 647.045 50.144 648.97 50.144C650.946 50.144 652.796 49.6627 654.518 48.7C656.241 47.6867 657.609 46.268 658.622 44.444C659.636 42.5693 660.142 40.34 660.142 37.756Z" fill="#0EC9AC"/>
<path d="M704.582 16.096C709.598 16.096 713.651 17.692 716.742 20.884C719.833 24.0253 721.378 28.4333 721.378 34.108V58.808H710.738V35.552C710.738 32.208 709.902 29.6493 708.23 27.876C706.558 26.052 704.278 25.14 701.39 25.14C698.451 25.14 696.121 26.052 694.398 27.876C692.726 29.6493 691.89 32.208 691.89 35.552V58.808H681.25V16.704H691.89V21.948C693.309 20.124 695.107 18.7053 697.286 17.692C699.515 16.628 701.947 16.096 704.582 16.096Z" fill="#0EC9AC"/>
<path d="M157.465 105.964H149.343L148.041 109.808H142.492L150.366 88.0461H156.504L164.378 109.808H158.767L157.465 105.964ZM156.101 101.872L153.404 93.9051L150.738 101.872H156.101Z" fill="#CECECF"/>
<path d="M181.218 110.025C179.627 110.025 178.201 109.767 176.94 109.25C175.679 108.733 174.667 107.969 173.902 106.956C173.158 105.943 172.765 104.724 172.724 103.298H178.366C178.449 104.104 178.728 104.724 179.203 105.158C179.678 105.571 180.298 105.778 181.063 105.778C181.848 105.778 182.468 105.602 182.923 105.251C183.378 104.879 183.605 104.373 183.605 103.732C183.605 103.195 183.419 102.75 183.047 102.399C182.696 102.048 182.251 101.758 181.714 101.531C181.197 101.304 180.453 101.045 179.482 100.756C178.077 100.322 176.93 99.8881 176.041 99.4541C175.152 99.0201 174.388 98.3794 173.747 97.5321C173.106 96.6847 172.786 95.5791 172.786 94.2151C172.786 92.1897 173.52 90.6087 174.987 89.4721C176.454 88.3147 178.366 87.7361 180.722 87.7361C183.119 87.7361 185.052 88.3147 186.519 89.4721C187.986 90.6087 188.772 92.2001 188.875 94.2461H183.14C183.099 93.5434 182.84 92.9957 182.365 92.6031C181.89 92.1897 181.28 91.9831 180.536 91.9831C179.895 91.9831 179.379 92.1587 178.986 92.5101C178.593 92.8407 178.397 93.3264 178.397 93.9671C178.397 94.6697 178.728 95.2174 179.389 95.6101C180.05 96.0027 181.084 96.4264 182.489 96.8811C183.894 97.3564 185.031 97.8111 185.899 98.2451C186.788 98.6791 187.552 99.3094 188.193 100.136C188.834 100.963 189.154 102.027 189.154 103.329C189.154 104.569 188.834 105.695 188.193 106.708C187.573 107.721 186.664 108.527 185.465 109.126C184.266 109.725 182.851 110.025 181.218 110.025Z" fill="#CECECF"/>
<path d="M191.362 101.159C191.362 99.3611 191.724 97.7904 192.447 96.4471C193.191 95.1037 194.214 94.0704 195.516 93.3471C196.839 92.6237 198.348 92.2621 200.042 92.2621C202.212 92.2621 204.021 92.8304 205.467 93.9671C206.935 95.1037 207.896 96.7054 208.35 98.7721H202.708C202.233 97.4494 201.313 96.7881 199.949 96.7881C198.978 96.7881 198.203 97.1704 197.624 97.9351C197.046 98.6791 196.756 99.7537 196.756 101.159C196.756 102.564 197.046 103.649 197.624 104.414C198.203 105.158 198.978 105.53 199.949 105.53C201.313 105.53 202.233 104.869 202.708 103.546H208.35C207.896 105.571 206.935 107.163 205.467 108.32C204 109.477 202.192 110.056 200.042 110.056C198.348 110.056 196.839 109.694 195.516 108.971C194.214 108.248 193.191 107.214 192.447 105.871C191.724 104.528 191.362 102.957 191.362 101.159Z" fill="#CECECF"/>
<path d="M210.132 101.128C210.132 99.3507 210.462 97.7904 211.124 96.4471C211.806 95.1037 212.725 94.0704 213.883 93.3471C215.04 92.6237 216.332 92.2621 217.758 92.2621C218.977 92.2621 220.041 92.5101 220.951 93.0061C221.881 93.5021 222.594 94.1531 223.09 94.9591V92.5101H228.391V109.808H223.09V107.359C222.573 108.165 221.85 108.816 220.92 109.312C220.01 109.808 218.946 110.056 217.727 110.056C216.321 110.056 215.04 109.694 213.883 108.971C212.725 108.227 211.806 107.183 211.124 105.84C210.462 104.476 210.132 102.905 210.132 101.128ZM223.09 101.159C223.09 99.8364 222.718 98.7927 221.974 98.0281C221.25 97.2634 220.362 96.8811 219.308 96.8811C218.254 96.8811 217.355 97.2634 216.611 98.0281C215.887 98.7721 215.526 99.8054 215.526 101.128C215.526 102.451 215.887 103.505 216.611 104.29C217.355 105.055 218.254 105.437 219.308 105.437C220.362 105.437 221.25 105.055 221.974 104.29C222.718 103.525 223.09 102.482 223.09 101.159Z" fill="#CECECF"/>
<path d="M242.766 92.3241C244.791 92.3241 246.403 92.9854 247.602 94.3081C248.821 95.6101 249.431 97.4081 249.431 99.7021V109.808H244.161V100.415C244.161 99.2577 243.861 98.3587 243.262 97.7181C242.662 97.0774 241.856 96.7571 240.844 96.7571C239.831 96.7571 239.025 97.0774 238.426 97.7181C237.826 98.3587 237.527 99.2577 237.527 100.415V109.808H232.226V92.5101H237.527V94.8041C238.064 94.0394 238.787 93.4401 239.697 93.0061C240.606 92.5514 241.629 92.3241 242.766 92.3241Z" fill="#CECECF"/>
<path d="M269.976 110.025C267.93 110.025 266.049 109.55 264.334 108.599C262.639 107.648 261.285 106.326 260.273 104.631C259.281 102.916 258.785 100.994 258.785 98.8651C258.785 96.7364 259.281 94.8247 260.273 93.1301C261.285 91.4354 262.639 90.1127 264.334 89.1621C266.049 88.2114 267.93 87.7361 269.976 87.7361C272.022 87.7361 273.892 88.2114 275.587 89.1621C277.302 90.1127 278.645 91.4354 279.617 93.1301C280.609 94.8247 281.105 96.7364 281.105 98.8651C281.105 100.994 280.609 102.916 279.617 104.631C278.625 106.326 277.281 107.648 275.587 108.599C273.892 109.55 272.022 110.025 269.976 110.025ZM269.976 105.189C271.712 105.189 273.096 104.61 274.13 103.453C275.184 102.296 275.711 100.766 275.711 98.8651C275.711 96.9431 275.184 95.4137 274.13 94.2771C273.096 93.1197 271.712 92.5411 269.976 92.5411C268.219 92.5411 266.814 93.1094 265.76 94.2461C264.726 95.3827 264.21 96.9224 264.21 98.8651C264.21 100.787 264.726 102.327 265.76 103.484C266.814 104.621 268.219 105.189 269.976 105.189Z" fill="#CECECF"/>
<path d="M289.355 95.3931C289.975 94.4424 290.75 93.6984 291.68 93.1611C292.61 92.6031 293.643 92.3241 294.78 92.3241V97.9351H293.323C292 97.9351 291.008 98.2244 290.347 98.8031C289.686 99.3611 289.355 100.353 289.355 101.779V109.808H284.054V92.5101H289.355V95.3931Z" fill="#CECECF"/>
<path d="M299.98 90.7121C299.05 90.7121 298.285 90.4434 297.686 89.9061C297.107 89.3481 296.818 88.6661 296.818 87.8601C296.818 87.0334 297.107 86.3514 297.686 85.8141C298.285 85.2561 299.05 84.9771 299.98 84.9771C300.889 84.9771 301.633 85.2561 302.212 85.8141C302.811 86.3514 303.111 87.0334 303.111 87.8601C303.111 88.6661 302.811 89.3481 302.212 89.9061C301.633 90.4434 300.889 90.7121 299.98 90.7121ZM302.615 92.5101V109.808H297.314V92.5101H302.615Z" fill="#CECECF"/>
<path d="M313.028 92.2621C314.248 92.2621 315.312 92.5101 316.221 93.0061C317.151 93.5021 317.864 94.1531 318.36 94.9591V92.5101H323.661V109.777C323.661 111.368 323.341 112.805 322.7 114.086C322.08 115.388 321.119 116.421 319.817 117.186C318.536 117.951 316.934 118.333 315.012 118.333C312.45 118.333 310.373 117.723 308.781 116.504C307.19 115.305 306.281 113.673 306.053 111.606H311.292C311.458 112.267 311.85 112.784 312.47 113.156C313.09 113.549 313.855 113.745 314.764 113.745C315.86 113.745 316.728 113.425 317.368 112.784C318.03 112.164 318.36 111.162 318.36 109.777V107.328C317.844 108.134 317.131 108.795 316.221 109.312C315.312 109.808 314.248 110.056 313.028 110.056C311.602 110.056 310.311 109.694 309.153 108.971C307.996 108.227 307.076 107.183 306.394 105.84C305.733 104.476 305.402 102.905 305.402 101.128C305.402 99.3507 305.733 97.7904 306.394 96.4471C307.076 95.1037 307.996 94.0704 309.153 93.3471C310.311 92.6237 311.602 92.2621 313.028 92.2621ZM318.36 101.159C318.36 99.8364 317.988 98.7927 317.244 98.0281C316.521 97.2634 315.632 96.8811 314.578 96.8811C313.524 96.8811 312.625 97.2634 311.881 98.0281C311.158 98.7721 310.796 99.8054 310.796 101.128C310.796 102.451 311.158 103.505 311.881 104.29C312.625 105.055 313.524 105.437 314.578 105.437C315.632 105.437 316.521 105.055 317.244 104.29C317.988 103.525 318.36 102.482 318.36 101.159Z" fill="#CECECF"/>
<path d="M330.162 90.7121C329.232 90.7121 328.468 90.4434 327.868 89.9061C327.29 89.3481 327 88.6661 327 87.8601C327 87.0334 327.29 86.3514 327.868 85.8141C328.468 85.2561 329.232 84.9771 330.162 84.9771C331.072 84.9771 331.816 85.2561 332.394 85.8141C332.994 86.3514 333.293 87.0334 333.293 87.8601C333.293 88.6661 332.994 89.3481 332.394 89.9061C331.816 90.4434 331.072 90.7121 330.162 90.7121ZM332.797 92.5101V109.808H327.496V92.5101H332.797Z" fill="#CECECF"/>
<path d="M347.179 92.3241C349.204 92.3241 350.816 92.9854 352.015 94.3081C353.234 95.6101 353.844 97.4081 353.844 99.7021V109.808H348.574V100.415C348.574 99.2577 348.274 98.3587 347.675 97.7181C347.076 97.0774 346.27 96.7571 345.257 96.7571C344.244 96.7571 343.438 97.0774 342.839 97.7181C342.24 98.3587 341.94 99.2577 341.94 100.415V109.808H336.639V92.5101H341.94V94.8041C342.477 94.0394 343.201 93.4401 344.11 93.0061C345.019 92.5514 346.042 92.3241 347.179 92.3241Z" fill="#CECECF"/>
<path d="M356.474 101.128C356.474 99.3507 356.804 97.7904 357.466 96.4471C358.148 95.1037 359.067 94.0704 360.225 93.3471C361.382 92.6237 362.674 92.2621 364.1 92.2621C365.319 92.2621 366.383 92.5101 367.293 93.0061C368.223 93.5021 368.936 94.1531 369.432 94.9591V92.5101H374.733V109.808H369.432V107.359C368.915 108.165 368.192 108.816 367.262 109.312C366.352 109.808 365.288 110.056 364.069 110.056C362.663 110.056 361.382 109.694 360.225 108.971C359.067 108.227 358.148 107.183 357.466 105.84C356.804 104.476 356.474 102.905 356.474 101.128ZM369.432 101.159C369.432 99.8364 369.06 98.7927 368.316 98.0281C367.592 97.2634 366.704 96.8811 365.65 96.8811C364.596 96.8811 363.697 97.2634 362.953 98.0281C362.229 98.7721 361.868 99.8054 361.868 101.128C361.868 102.451 362.229 103.505 362.953 104.29C363.697 105.055 364.596 105.437 365.65 105.437C366.704 105.437 367.592 105.055 368.316 104.29C369.06 103.525 369.432 102.482 369.432 101.159Z" fill="#CECECF"/>
<path d="M383.869 86.8681V109.808H378.568V86.8681H383.869Z" fill="#CECECF"/>
</svg>
