<svg xmlns="http://www.w3.org/2000/svg" width="722" height="121" fill="none" viewBox="0 0 722 121"><path fill="#fff" d="M25.175 57.475a5.136 5.136 0 0 1 5.159-5.134l8.551.028a5.14 5.14 0 0 1 5.142 5.141v32.34c.963-.286 2.195-.59 3.552-.91a4.284 4.284 0 0 0 3.303-4.17V44.66a5.14 5.14 0 0 1 5.141-5.143h8.578a5.143 5.143 0 0 1 5.141 5.143v37.23s2.146-.869 4.235-1.751a4.29 4.29 0 0 0 2.62-3.95V31.806a5.14 5.14 0 0 1 5.14-5.141h8.57a5.14 5.14 0 0 1 5.135 5.141v36.548c7.429-5.384 14.958-11.86 20.933-19.646a8.64 8.64 0 0 0 1.314-8.057A60.52 60.52 0 0 0 59.802.004a60.522 60.522 0 0 0-51.761 90.66 7.65 7.65 0 0 0 7.302 3.784c1.62-.143 3.639-.345 6.038-.626a4.28 4.28 0 0 0 3.798-4.25V57.474"/><path fill="#0ec9ac" d="M24.992 109.338a60.55 60.55 0 0 0 63.09 4.991 60.54 60.54 0 0 0 33.068-53.96c0-1.397-.065-2.773-.158-4.144-22.121 32.993-62.966 48.416-96 53.113"/><path fill="#fff" d="M189.246 5.76v53.048h-10.64V36.236h-22.724v22.572h-10.64V5.76h10.64v21.812h22.724V5.76zm50.753 10.944L213.931 78.72h-11.324l9.12-20.976-16.872-41.04h11.932l10.868 29.412 11.02-29.412zm16.375 6.08q2.052-2.888 5.624-4.788 3.649-1.976 8.284-1.976 5.397 0 9.728 2.66 4.408 2.66 6.916 7.6 2.584 4.864 2.584 11.324t-2.584 11.476q-2.508 4.94-6.916 7.676-4.332 2.736-9.728 2.736-4.635 0-8.208-1.9-3.495-1.9-5.7-4.788v26.068h-10.64V16.704h10.64zm22.268 14.82q0-3.8-1.596-6.536-1.52-2.812-4.104-4.256-2.508-1.444-5.472-1.444-2.888 0-5.472 1.52-2.508 1.444-4.104 4.256-1.52 2.812-1.52 6.612t1.52 6.612q1.596 2.813 4.104 4.332 2.584 1.444 5.472 1.444 2.964 0 5.472-1.52 2.585-1.52 4.104-4.332 1.596-2.812 1.596-6.688m57.74-.76q0 2.28-.304 4.104h-30.78q.381 4.56 3.192 7.144t6.916 2.584q5.928 0 8.436-5.092h11.476q-1.823 6.08-6.992 10.032-5.168 3.876-12.692 3.876-6.08 0-10.944-2.66-4.788-2.736-7.524-7.676-2.66-4.94-2.66-11.4 0-6.536 2.66-11.476t7.448-7.6 11.02-2.66q6.005 0 10.716 2.584 4.788 2.584 7.372 7.372 2.66 4.712 2.66 10.868m-11.02-3.04q-.075-4.104-2.964-6.536-2.887-2.508-7.068-2.508-3.951 0-6.688 2.432-2.66 2.356-3.268 6.612zm29.426-10.564q2.053-3.344 5.32-5.244 3.345-1.9 7.6-1.9v11.172h-2.812q-5.016 0-7.6 2.356-2.508 2.356-2.508 8.208v20.976h-10.64V16.704h10.64zm30.727-8.892v13.3h17.86v8.436h-17.86v14.06h20.14v8.664h-30.78V5.684h30.78v8.664zm77.461-8.588L443.52 58.808H430.6L411.144 5.76h11.4l14.592 42.18 14.516-42.18zm64.215 0v53.048h-10.64V24.304l-14.212 34.504h-8.056l-14.288-34.504v34.504h-10.64V5.76h12.084l16.872 39.444L515.183 5.76z"/><path fill="#0ec9ac" d="M556.027 59.34q-5.548 0-10.032-1.9-4.408-1.9-6.992-5.472t-2.66-8.436h11.4q.228 3.268 2.28 5.168 2.128 1.9 5.776 1.9 3.724 0 5.852-1.748 2.128-1.824 2.128-4.712 0-2.356-1.444-3.876t-3.648-2.356q-2.128-.912-5.928-1.976-5.167-1.52-8.436-2.964-3.192-1.52-5.548-4.484-2.28-3.04-2.28-8.056 0-4.712 2.356-8.208 2.356-3.495 6.612-5.32 4.256-1.9 9.728-1.9 8.208 0 13.3 4.028 5.168 3.952 5.7 11.096h-11.704q-.152-2.736-2.356-4.484-2.128-1.824-5.7-1.824-3.116 0-5.016 1.596-1.824 1.596-1.824 4.636 0 2.129 1.368 3.572 1.444 1.368 3.496 2.28 2.128.836 5.928 1.976 5.168 1.52 8.436 3.04t5.624 4.56 2.356 7.98q0 4.256-2.204 7.904t-6.46 5.852q-4.256 2.128-10.108 2.128m25.26-21.584q0-6.535 2.66-11.4 2.66-4.94 7.372-7.6 4.713-2.736 10.792-2.736 7.829 0 12.92 3.952 5.169 3.876 6.916 10.944h-11.476q-.911-2.736-3.116-4.256-2.127-1.596-5.32-1.596-4.56 0-7.22 3.344-2.66 3.268-2.66 9.348 0 6.005 2.66 9.348 2.66 3.268 7.22 3.268 6.46 0 8.436-5.776h11.476q-1.747 6.84-6.916 10.868-5.168 4.028-12.92 4.028-6.08 0-10.792-2.66-4.711-2.736-7.372-7.6-2.66-4.94-2.66-11.476m45.719-.152q0-6.384 2.508-11.324 2.584-4.94 6.916-7.6 4.408-2.66 9.804-2.66 4.713 0 8.208 1.9 3.573 1.9 5.7 4.788v-6.004h10.716v42.104h-10.716v-6.156q-2.052 2.964-5.7 4.94-3.571 1.9-8.284 1.9-5.32 0-9.728-2.736-4.332-2.736-6.916-7.676-2.508-5.017-2.508-11.476m33.136.152q0-3.876-1.52-6.612-1.52-2.812-4.104-4.256a10.76 10.76 0 0 0-5.548-1.52q-2.964 0-5.472 1.444t-4.104 4.256q-1.52 2.736-1.52 6.536t1.52 6.688q1.596 2.813 4.104 4.332 2.584 1.52 5.472 1.52a11.2 11.2 0 0 0 5.548-1.444q2.584-1.52 4.104-4.256 1.52-2.812 1.52-6.688m44.44-21.66q7.524 0 12.16 4.788 4.636 4.712 4.636 13.224v24.7h-10.64V35.552q0-5.016-2.508-7.676-2.508-2.736-6.84-2.736-4.408 0-6.992 2.736-2.508 2.66-2.508 7.676v23.256h-10.64V16.704h10.64v5.244q2.128-2.736 5.396-4.256 3.343-1.596 7.296-1.596"/><path fill="#cececf" d="M157.465 105.964h-8.122l-1.302 3.844h-5.549l7.874-21.762h6.138l7.874 21.762h-5.611zm-1.364-4.092-2.697-7.967-2.666 7.967zm25.117 8.153q-2.386 0-4.278-.775t-3.038-2.294q-1.116-1.52-1.178-3.658h5.642q.124 1.209.837 1.86.713.62 1.86.62 1.178 0 1.86-.527.682-.558.682-1.519 0-.806-.558-1.333-.527-.527-1.333-.868-.775-.341-2.232-.775-2.107-.651-3.441-1.302t-2.294-1.922q-.961-1.27-.961-3.317 0-3.038 2.201-4.743 2.2-1.736 5.735-1.736 3.596 0 5.797 1.736 2.201 1.705 2.356 4.774h-5.735q-.062-1.054-.775-1.643-.713-.62-1.829-.62-.961 0-1.55.527-.59.495-.589 1.457 0 1.054.992 1.643t3.1 1.271q2.108.713 3.41 1.364a6.5 6.5 0 0 1 2.294 1.891q.961 1.24.961 3.193 0 1.86-.961 3.379-.93 1.52-2.728 2.418t-4.247.899m10.144-8.866q0-2.697 1.085-4.712 1.116-2.015 3.069-3.1 1.985-1.085 4.526-1.085 3.256 0 5.425 1.705 2.202 1.705 2.883 4.805h-5.642q-.713-1.984-2.759-1.984-1.457 0-2.325 1.147-.868 1.116-.868 3.224t.868 3.255q.869 1.116 2.325 1.116 2.046 0 2.759-1.984h5.642q-.681 3.038-2.883 4.774-2.2 1.736-5.425 1.736-2.541 0-4.526-1.085-1.953-1.085-3.069-3.1-1.085-2.015-1.085-4.712m18.77-.031q0-2.666.992-4.68 1.022-2.017 2.759-3.1 1.736-1.086 3.875-1.086 1.828 0 3.193.744 1.395.744 2.139 1.953V92.51h5.301v17.298h-5.301v-2.449q-.775 1.209-2.17 1.953-1.365.744-3.193.744-2.109 0-3.844-1.085-1.737-1.116-2.759-3.131-.993-2.046-.992-4.712m12.958.031q0-1.984-1.116-3.13-1.085-1.148-2.666-1.148t-2.697 1.147q-1.085 1.116-1.085 3.1t1.085 3.162q1.116 1.147 2.697 1.147t2.666-1.147q1.116-1.147 1.116-3.131m19.676-8.835q3.038 0 4.836 1.984 1.829 1.953 1.829 5.394v10.106h-5.27v-9.393q0-1.736-.899-2.697-.9-.96-2.418-.96-1.52 0-2.418.96-.9.96-.899 2.697v9.393h-5.301V92.51h5.301v2.294q.805-1.147 2.17-1.798 1.363-.682 3.069-.682m27.21 17.701q-3.07 0-5.642-1.426a10.83 10.83 0 0 1-4.061-3.968q-1.488-2.573-1.488-5.766t1.488-5.735a10.83 10.83 0 0 1 4.061-3.968q2.573-1.425 5.642-1.426t5.611 1.426a10.34 10.34 0 0 1 4.03 3.968q1.488 2.542 1.488 5.735t-1.488 5.766a10.6 10.6 0 0 1-4.03 3.968q-2.542 1.426-5.611 1.426m0-4.836q2.603 0 4.154-1.736 1.581-1.736 1.581-4.588 0-2.883-1.581-4.588-1.55-1.736-4.154-1.736-2.635 0-4.216 1.705-1.55 1.705-1.55 4.62 0 2.882 1.55 4.618 1.58 1.705 4.216 1.705m19.379-9.796q.93-1.426 2.325-2.232 1.395-.837 3.1-.837v5.611h-1.457q-1.985 0-2.976.868-.992.837-.992 2.976v8.029h-5.301V92.51h5.301zm10.625-4.681q-1.395 0-2.294-.806a2.73 2.73 0 0 1-.868-2.046q0-1.24.868-2.046.899-.837 2.294-.837 1.364 0 2.232.837.899.806.899 2.046 0 1.209-.899 2.046-.868.806-2.232.806m2.635 1.798v17.298h-5.301V92.51zm10.413-.248q1.83 0 3.193.744 1.395.744 2.139 1.953V92.51h5.301v17.267q0 2.387-.961 4.309-.93 1.953-2.883 3.1-1.922 1.147-4.805 1.147-3.843 0-6.231-1.829-2.386-1.798-2.728-4.898h5.239q.248.992 1.178 1.55.93.59 2.294.589 1.644 0 2.604-.961.993-.93.992-3.007v-2.449q-.774 1.209-2.139 1.984-1.363.744-3.193.744-2.139 0-3.875-1.085-1.736-1.116-2.759-3.131-.992-2.046-.992-4.712t.992-4.68q1.023-2.017 2.759-3.1 1.736-1.086 3.875-1.086m5.332 8.897q0-1.984-1.116-3.13-1.085-1.148-2.666-1.148t-2.697 1.147q-1.085 1.116-1.085 3.1t1.085 3.162q1.116 1.147 2.697 1.147t2.666-1.147q1.116-1.147 1.116-3.131m11.802-10.447q-1.395 0-2.294-.806A2.74 2.74 0 0 1 327 87.86q0-1.24.868-2.046.9-.837 2.294-.837 1.365 0 2.232.837.9.806.899 2.046 0 1.209-.899 2.046-.867.806-2.232.806m2.635 1.798v17.298h-5.301V92.51zm14.382-.186q3.037 0 4.836 1.984 1.829 1.953 1.829 5.394v10.106h-5.27v-9.393q0-1.736-.899-2.697-.898-.96-2.418-.96t-2.418.96-.899 2.697v9.393h-5.301V92.51h5.301v2.294q.806-1.147 2.17-1.798 1.364-.682 3.069-.682m9.295 8.804q0-2.666.992-4.68 1.022-2.017 2.759-3.1 1.736-1.086 3.875-1.086 1.828 0 3.193.744 1.395.744 2.139 1.953V92.51h5.301v17.298h-5.301v-2.449q-.775 1.209-2.17 1.953-1.365.744-3.193.744-2.109 0-3.844-1.085-1.737-1.116-2.759-3.131-.992-2.046-.992-4.712m12.958.031q0-1.984-1.116-3.13-1.086-1.148-2.666-1.148-1.581 0-2.697 1.147-1.085 1.116-1.085 3.1t1.085 3.162q1.116 1.147 2.697 1.147t2.666-1.147q1.116-1.147 1.116-3.131m14.437-14.291v22.94h-5.301v-22.94z"/></svg>