<svg xmlns="http://www.w3.org/2000/svg" width="370" height="57" fill="none" viewBox="0 0 370 57"><path fill="#97fce4" d="M65.3 23.999c0 21.5-13.2 28.4-20.2 22.3-5.7-5-7.4-15.6-16-16.7-10.9-1.3-11.9 13.2-19.1 13.2-8.4 0-10-12.1-10-18.4 0-6.4 1.8-15.1 8.9-15.1 8.3 0 8.8 12.5 19.2 11.8 10.3-.7 10.5-13.7 17.3-19.2 5.9-4.9 19.9.3 19.9 22.1"/><path fill="#fff" d="M96.3 43.999v-41.7h4v18.1h24.4v-18.1h3.9v41.8h-3.9v-20.3h-24.4v20.3h-4zM139 56.699l5.4-13.4-11.7-28.1h4.1l7.7 19c.4 1.2 1.1 2.7 1.9 4.6.1-.3.2-.6.4-.9.1-.3.2-.6.4-.9.2-.5.5-1 .6-1.5s.3-.9.5-1.4l7.2-19h3.9l-16.4 41.5h-4zM163.2 56.699v-41.5h3.7v5.3c1-1.8 2.3-3.3 4.2-4.4 1.8-1.1 3.8-1.7 6.1-1.7 2.7 0 5 .7 7 2s3.5 3.1 4.6 5.4 1.6 4.9 1.6 7.8c0 3-.5 5.6-1.6 7.9s-2.7 4.1-4.6 5.5c-2 1.3-4.3 2-6.8 2-2.2 0-4.1-.5-6-1.6-1.8-1-3.2-2.6-4.3-4.6v18h-3.9zm13.4-14.8c2 0 3.7-.5 5.2-1.6s2.6-2.5 3.5-4.4c.8-1.9 1.2-4 1.2-6.4q0-3.6-1.2-6.3c-.8-1.8-2-3.3-3.5-4.3s-3.2-1.5-5.2-1.5q-2.85 0-5.1 1.5c-1.5 1-2.7 2.4-3.5 4.3-.8 1.8-1.3 4-1.3 6.4s.4 4.6 1.3 6.4c.8 1.9 2 3.3 3.5 4.4s3.2 1.5 5.1 1.5M208.1 44.899q-4.05 0-7.2-1.8c-2.1-1.2-3.7-3-4.8-5.3s-1.7-5.1-1.7-8.3q0-4.35 1.8-7.8t4.8-5.4c2-1.3 4.3-2 6.8-2 2.7 0 5 .6 7 1.9 1.9 1.2 3.4 3 4.4 5.2 1 2.3 1.5 4.9 1.5 7.9v.8h-22.6c0 2.5.4 4.6 1.3 6.4s2 3.1 3.5 4 3.3 1.4 5.2 1.4c2.3 0 4.2-.5 5.8-1.6 1.5-1.1 2.5-2.8 2.8-5h3.7c-.3 1.8-.9 3.5-2 4.9-1 1.4-2.4 2.6-4.2 3.4-1.6.8-3.7 1.3-6.1 1.3m8.6-17.6q0-4.5-2.4-7.2c-1.6-1.8-3.7-2.7-6.5-2.7-2.7 0-4.9.9-6.6 2.8s-2.7 4.2-3 7.1zM226.4 43.999v-28.8h3.7v5.8c.8-1.9 2-3.5 3.8-4.7 1.7-1.2 3.7-1.9 6-1.9.6 0 1.1 0 1.6.1v3.6c-.7-.1-1.3-.1-1.8-.1-1.9 0-3.6.4-5 1.3s-2.5 2.1-3.3 3.7-1.2 3.5-1.2 5.6v15.5h-3.8zM250.7 43.199l-.2.8h-11.7l.2-.8c3.2-.3 4.6-1.3 5.1-3.7l6.6-31.1c.7-3.2-.3-3.7-3.7-3l.2-.8 7.2-2.4h.8l-7.9 37.4c-.6 2.3.3 3.3 3.4 3.6M264 43.199l-.2.8H252l.2-.8c3.2-.3 4.6-1.3 5.1-3.7l4-19c.7-3.2-.2-3.7-3.7-3l.2-.8 7.2-2.4h.8l-5.3 25.2c-.5 2.4.4 3.4 3.5 3.7m2-39.4c1.6 0 2.6 1.2 2.4 2.8s-1.6 2.7-3.1 2.7c-1.6 0-2.7-1.2-2.5-2.7.1-1.6 1.5-2.8 3.2-2.8M284.2 52.399l3.2-14.9c-2 4.4-6.3 7.4-10.7 7.4-7.2 0-10.6-6.8-8.4-16.9 1.5-7.4 8.1-13.7 15.9-13.7 3.6 0 6.6 1.6 7.8 4l2.7-4h.8l-8.2 38.1c-.6 2.6 1.5 3.1 3.6 3.5l-.2.8h-13.5l.2-.8c4-.4 6.3-.9 6.8-3.5m-5.5-9.6c3.7 0 7.4-3.2 9.2-7l2.4-11.4c.6-4.1-1.3-8.4-7-8.4-5.4 0-10 4.9-11.5 12-1.8 8.7.8 14.8 6.9 14.8M335.8 43.199l-.2.8h-11.8l.2-.8c3.2-.3 4.6-1.3 5.1-3.7l4-19c.7-3.2-.2-3.7-3.7-3l.2-.8 7.2-2.4h.8l-5.3 25.2c-.5 2.4.4 3.4 3.5 3.7m2-39.4c1.6 0 2.6 1.2 2.4 2.8s-1.6 2.7-3.1 2.7c-1.6 0-2.7-1.2-2.5-2.7.2-1.6 1.6-2.8 3.2-2.8M319.1 39.399l2.7-12.7 2.6-12.4h-.8l-7.2 2.4-.2.8c3.4-.7 4.3-.2 3.7 3l-3.4 16.2c-3.8 3.5-6.4 5.6-9.7 5.6-4 0-6.1-2.7-5.1-7.4l4.4-20.6h-.8l-7.2 2.4-.2.8c3.4-.7 4.4-.2 3.7 3l-3.1 14.8c-1.2 5.5 1.6 9.5 6.7 9.5 3.4 0 6.4-1.9 11.1-6.9l-.2 1-1 4.9h7.5l.2-.9c-3.3-.1-4.2-1-3.7-3.5M367.2 13.199l2.3-11.1h-.8l-7.2 2.4-.2.8c3.4-.7 4.3-.2 3.7 3l-2 9.5c-1.3-2.1-4.1-3.5-7.3-3.5-7.9 0-14.4 6.3-16.1 14.2-2 9.6 1.3 16.4 8.5 16.4 4.5 0 8.8-3.1 10.8-7.5l-.5 2.5-.9 4.1 7.5-.1.2-.8c-3.1-.3-4-1.3-3.5-3.7zm-8 22.5c-1.7 3.9-5.5 7.1-9.2 7.1-6.1 0-8.7-6.1-7-14.3 1.6-7.7 6.3-12.5 11.7-12.5 5.8 0 7.7 4.6 6.9 8.7l-.3 1.3z"/></svg>