<svg xmlns="http://www.w3.org/2000/svg" width="256" height="256" fill="none" viewBox="0 0 256 256"><path fill="#fff" d="M53.198 121.678a10.88 10.88 0 0 1 6.733-10.055 10.8 10.8 0 0 1 4.167-.812l18.071.059c2.881 0 5.645 1.147 7.682 3.188a10.9 10.9 0 0 1 3.182 7.696v68.465c2.035-.605 4.64-1.249 7.507-1.925a9.06 9.06 0 0 0 5.022-3.197 9.1 9.1 0 0 0 1.957-5.63V94.548c0-2.887 1.144-5.655 3.182-7.697a10.85 10.85 0 0 1 7.682-3.19h18.126a10.86 10.86 0 0 1 7.682 3.19 10.9 10.9 0 0 1 3.182 7.697v78.819s4.534-1.839 8.949-3.707a9.08 9.08 0 0 0 5.536-8.361V67.336c0-2.886 1.145-5.655 3.182-7.696a10.85 10.85 0 0 1 7.68-3.189h18.107c2.88.003 5.64 1.151 7.675 3.192a10.9 10.9 0 0 1 3.179 7.693v77.375c15.698-11.398 31.607-25.108 44.232-41.592a18.3 18.3 0 0 0 2.776-17.057 128.2 128.2 0 0 0-27.275-45.324 127.9 127.9 0 0 0-43.232-30.415 127.68 127.68 0 0 0-103.366 1.231A127.9 127.9 0 0 0 32.317 42.99 128.2 128.2 0 0 0 6.125 88.951a128.4 128.4 0 0 0-5.417 52.646 128.3 128.3 0 0 0 16.283 50.348 16.2 16.2 0 0 0 6.55 6.257 16.15 16.15 0 0 0 8.88 1.752c3.425-.303 7.69-.729 12.76-1.325a9.05 9.05 0 0 0 5.724-2.967 9.07 9.07 0 0 0 2.301-6.031v-67.953"/><path fill="#0b9f88" d="M52.805 231.477a127.8 127.8 0 0 0 65.169 24.126 127.74 127.74 0 0 0 68.146-13.558 128 128 0 0 0 51.023-47.244 128.34 128.34 0 0 0 18.853-66.995c0-2.958-.137-5.87-.333-8.773-46.745 69.848-133.055 102.502-202.858 112.444"/></svg>