<svg xmlns="http://www.w3.org/2000/svg" viewBox="0 0 16 16" shape-rendering="crispEdges" width="512" height="512"><defs><linearGradient id="grad" x1="0%" y1="60%" x2="60%" y2="0%"><stop offset="0%" stop-color="pink" /><stop offset="100%" stop-color="orange" /></linearGradient></defs><rect width="16" height="16" fill="url(#grad)" /><rect x="6" y="5" width="4" height="1" fill="rgb(156,90,60)" /><rect x="4" y="7" width="1" height="4" fill="rgb(156,90,60)" /><rect x="6" y="12" width="4" height="1" fill="rgb(156,90,60)" /><rect x="11" y="7" width="1" height="4" fill="rgb(156,90,60)" /><rect x="5" y="6" width="6" height="6" fill="rgb(156,90,60)" /><rect x="9" y="5" width="1" height="1" fill="rgb(77,34,15)" /><rect x="5" y="7" width="1" height="1" fill="rgb(77,34,15)" /><rect x="7" y="6" width="1" height="1" fill="rgb(77,34,15)" /><rect x="7" y="12" width="1" height="1" fill="rgb(77,34,15)" /><rect x="6" y="10" width="1" height="1" fill="rgb(77,34,15)" /><rect x="11" y="9" width="1" height="1" fill="rgb(77,34,15)" /><rect x="4" y="9" width="1" height="1" fill="rgb(77,34,15)" /><rect x="6" y="8" width="1" height="1" fill="rgb(238,238,238)" /><rect x="6" y="9" width="1" height="1" fill="rgb(238,238,238)" /><rect x="7" y="8" width="1" height="1" fill="rgb(1,34,15)" /><rect x="7" y="9" width="1" height="1" fill="rgb(103,78,167)" /><rect x="9" y="8" width="1" height="1" fill="rgb(238,238,238)" /><rect x="9" y="9" width="1" height="1" fill="rgb(238,238,238)" /><rect x="10" y="8" width="1" height="1" fill="rgb(1,34,15)" /><rect x="10" y="9" width="1" height="1" fill="rgb(103,78,167)" /><rect x="0" y="0" width="0" height="0" fill="rgb(0,0,0)"/><rect x="8" y="11" width="1" height="1" fill="rgb(1,34,15)" /><rect x="0" y="0" width="0" height="0" fill="rgb(0,0,0)"/></svg>