<svg xmlns="http://www.w3.org/2000/svg" width="800" height="800" viewBox="0 0 80 80" shape-rendering="crispEdges" style="image-rendering: pixelated;"><path fill="#fab9db" d="M0 0h80v80H0Z"/><path fill="#37231a" d="M26 21h6v1h-6Zm-2 1h2v1h-2Zm8 0h2v1h-2Zm27 0h6v1h-6Zm-37 1h2v1h-2Zm12 0h1v1h-1Zm23 0h2v1h-2Zm8 0h1v1h-1Zm-44 1h1v1h-1Zm14 0h1v1h-1Zm31 0h1v1h-1Zm-46 1h1v1h-1Zm47 0h1v1h-1Zm-48 1h1v2h-1Zm-1 2h1v2h-1Zm35 0h1v1h-1Zm-1 1h1v1h-1Zm-2 1h1v2h-1Zm-3 1h3v1h-3Zm1 1h2v1h-2Zm17 12h2v1h-2Zm-1 1h1v1h-1Zm-28 7h3v1h-3Zm18 0h4v1h-4Zm11 0h1v2h-1Zm-37 1h5v1h-5Zm30 0h3v1h-3Zm-35 1h3v1h-3Zm36 0h6v1h-6Zm-37 1h2v1h-2Zm33 0h2v1h-2Zm-34 1h2v3h-2Zm30 0h1v1h-1Zm-28 2h2v4h-2Zm25 0h1v1h-1Zm-26 1h1v1h-1Zm3 0h2v5h-2Zm22 0h1v1h-1Zm-20 1h3v5h-3Zm18 0h1v2h-1Zm-15 1h3v5h-3Zm13 0h2v3h-2Zm-19 1h1v1h-1Zm9 0h10v5H33Zm-7 2h1v1h-1Zm17 0h1v4h-1Zm-15 1h2v1h-2Zm16 7h1v1h-1Zm1 3h1v1h-1Zm1 3h1v1h-1Z"/><path fill="#643a2e" d="M26 22h1v1h-1Zm-2 1h2v1h-2Zm37 0h4v1h-4Zm-38 1h1v1h-1Zm-1 1h1v1h-1Zm-1 1h1v1h-1Zm15 0h1v1h-1Zm-16 1h1v1h-1Zm17 0h1v1h-1Zm17 0h2v1h-2Zm-35 1h1v2h-1Zm19 0h2v1h-2Zm16 0h1v1h-1Zm-15 1h1v1h-1Zm14 0h1v1h-1Zm-35 1h1v6h-1Zm22 0h1v2h-1Zm3 0h1v1h-1Zm3 1h1v1h-1Zm1 1h1v1h-1Zm-6 1h1v3h-1Zm7 0h1v1h-1Zm2 1h1v1h-1Zm-31 2h1v8h-1Zm21 1h1v1h-1Zm14 0h1v1h-1Zm-34 4h1v3h-1Zm14 0h1v1h-1Zm33 0h1v1h-1Zm-46 1h1v2h-1Zm4 0h1v1h-1Zm7 0h1v1h-1Zm27 0h1v1h-1Zm6 0h2v1h-2Zm-43 1h1v2h-1Zm38 0h5v1h-5Zm-37 1h2v2h-2Zm10 0h1v1h-1Zm-8 1h8v1h-8Zm0 1h5v1h-5Zm18 2h7v1h-7Zm-11 2h1v1h-1Zm-9 1h1v3h-1Zm18 0h2v1h-2Zm12 0h2v1h-2Zm-29 1h1v2h-1Zm9 0h2v1h-2Zm25 0h2v1h-2Zm-33 1h2v1h-2Zm36 0h1v1h-1Zm3 0h1v1h-1ZM29 66h2v14h-2Zm-1 1h1v13h-1Zm3 0h9v13h-9Zm-4 1h1v12h-1Zm13 0h1v11h-1Zm1 1h1v9h-1Zm-15 1h1v10h-1Zm-1 7h1v3h-1Z"/><path fill="#9a6d61" d="M27 22h3v1h-3Zm5 1h2v1h-2Zm2 1h1v1h-1Zm23 0h2v1h-2Zm-22 1h1v1h-1Zm21 0h2v1h-2Zm-1 1h2v1h-2Zm-16 4h1v9h-1Zm1 2h1v5h-1Zm5 1h3v1h-3Zm-1 1h1v1h-1Zm5 0h1v1h-1Zm-11 3h1v3h-1Zm-18 2h1v2h-1Zm17 0h1v2h-1Zm-16 1h1v2h-1Zm15 0h1v2h-1Zm-14 1h1v2h-1Zm13 0h1v2h-1Zm-12 1h2v2h-2Zm10 0h2v2h-2Zm-8 1h2v2h-2Zm6 0h2v2h-2Zm-4 1h4v1h-4Zm12 5h5v1h-5Zm14 0h1v1h-1Zm-20 1h6v2h-6Zm25 0h2v2h-2Zm-34 1h9v1h-9Zm15 0h2v1h-2Zm16 0h3v1h-3Zm5 0h3v2h-3Zm-35 1h8v1h-8Zm38 0h2v1h-2Zm-1 1h2v1h-2Z"/><path fill="#b3827d" d="M30 22h2v1h-2Zm-3 21h4v1h-4Zm17 6h9v2h-9Zm-5 1h5v1h-5Zm14 0h5v1h-5Z"/><path fill="#8a2a1c" d="M26 23h6v1h-6Zm-2 1h2v1h-2Zm38 0h3v1h-3Zm-39 1h1v1h-1Zm42 0h2v1h-2Zm-43 1h1v1h-1Zm45 0h1v1h-1Zm-46 1h1v1h-1Zm47 0h1v1h-1Zm-48 1h1v2h-1Zm49 0h1v2h-1Zm-50 2h1v6h-1Zm51 0h1v7h-1Zm-50 6h1v2h-1Zm49 1h1v2h-1Zm-48 1h1v1h-1Zm1 1h1v1h-1Zm46 0h1v1h-1Zm-1 1h1v1h-1Z"/><path fill="#783e2e" d="M59 23h2v1h-2Zm-19 6h2v1h-2Zm1 1h2v3h-2Zm2 1h3v2h-3Zm3 1h1v1h-1Zm-4 1h3v1h-3Zm0 1h2v1h-2Z"/><path fill="#482e23" d="M22 24h1v1h-1Zm37 0h1v1h-1Zm-38 1h1v1h-1Zm-1 1h1v1h-1Zm17 0h1v1h-1Zm1 1h1v1h-1Zm0 2h1v1h-1Zm16 0h1v1h-1Zm-3 1h3v5h-3Zm-1 2h1v2h-1Zm-1 1h1v1h-1Zm3 2h2v1h-2Zm-34 1h1v1h-1Zm20 0h1v1h-1Zm15 0h1v1h-1Zm-33 2h1v1h-1Zm17 0h1v1h-1Zm-19 1h1v5h-1Zm3 0h1v1h-1Zm15 0h1v1h-1Zm33 0h1v1h-1Zm-47 1h1v1h-1Zm13 0h1v1h-1Zm33 0h1v2h-1Zm-51 1h1v2h-1Zm6 0h1v1h-1Zm44 1h1v1h-1Zm-2 1h2v1h-2Zm-3 1h3v1h-3Zm1 1h1v1h-1Zm-24 3h4v1h-4Zm11 0h4v1h-4Zm-17 1h6v1h-6Zm21 0h6v1h-6Zm-31 1h9v1h-9Zm37 0h3v1h-3Zm-17 1h10v5H43Zm20 0h2v1h-2Zm-28 1h1v10h-1Zm4 0h4v10h-4Zm14 0h1v4h-1Zm-26 1h1v7h-1Zm6 0h2v9h-2Zm3 0h3v9h-3Zm18 0h4v2h-4Zm-28 1h1v5h-1Zm2 0h5v6h-5Zm30 0h1v1h-1Zm-34 1h2v3h-2Zm30 0h1v1h-1Zm-31 1h1v2h-1Zm20 0h8v1h-8Zm0 1h7v1h-7Zm-18 1h1v1h-1Zm18 0h5v1h-5Zm0 1h4v1h-4Zm-13 1h3v1h-3Zm13 0h2v1h-2Zm-19 3h1v1h-1Zm1 1h1v2h-1Zm1 1h2v2h-2Zm2 1h1v1h-1Zm3 0h2v1h-2Zm-4 1h1v1h-1Zm13 0h3v1h-3Zm1 1h3v1h-3Zm1 1h2v11h-2Zm2 4h1v7h-1Zm1 3h1v4h-1Zm-4 2h1v2h-1Zm-1 1h1v1h-1Zm6 0h1v1h-1Z"/><path fill="#f78717" d="M26 24h5v1h-5Zm-2 1h2v1h-2Zm7 0h2v1h-2Zm30 0h4v1h-4Zm-38 1h1v1h-1Zm11 0h1v1h-1Zm25 0h2v1h-2Zm7 0h1v1h-1Zm-44 1h1v1h-1Zm13 0h1v2h-1Zm23 0h1v1h-1Zm9 0h1v1h-1Zm-46 1h1v2h-1Zm36 0h1v1h-1Zm11 0h1v1h-1Zm-32 1h1v8h-1Zm20 0h1v9h-1Zm-36 1h1v6h-1Zm49 0h1v1h-1Zm-32 1h1v4h-1Zm18 0h1v5h-1Zm-34 4h1v3h-1Zm14 0h1v3h-1Zm-13 1h1v3h-1Zm12 0h1v3h-1Zm23 0h1v3h-1Zm12 0h1v1h-1Zm-46 1h1v3h-1Zm10 0h1v3h-1Zm25 0h1v3h-1Zm10 0h1v2h-1Zm-44 1h1v2h-1Zm8 0h1v3h-1Zm27 0h1v3h-1Zm8 0h1v2h-1Zm-42 1h7v2h-7Zm35 0h1v2h-1Zm6 0h1v1h-1Zm-5 1h5v1h-5Zm-34 1h4v1h-4Zm34 0h3v1h-3Z"/><path fill="#bb561f" d="M31 24h1v1h-1Zm2 1h1v1h-1Zm27 0h1v1h-1Zm-2 1h1v1h-1Zm-1 1h1v1h-1Zm-21 1h1v1h-1Zm20 0h1v1h-1Zm-19 2h1v1h-1Zm18 0h1v1h-1Zm-18 5h1v1h-1Zm18 1h1v1h-1Zm-19 1h1v1h-1Zm-1 1h1v1h-1Zm21 0h1v1h-1Zm-22 1h1v1h-1Zm23 0h1v1h-1Zm-33 1h1v1h-1Zm9 0h1v1h-1Zm25 0h1v1h-1Zm8 0h1v1h-1Zm-40 1h1v1h-1Zm5 0h1v1h-1Zm29 0h1v1h-1Zm4 0h1v1h-1Z"/><path fill="#030303" d="M32 24h2v1h-2Zm24 0h1v1h-1Zm4 0h2v1h-2Zm-26 1h1v1h-1Zm2 0h2v1h-2Zm19 0h1v1h-1Zm3 0h2v1h-2Zm-23 1h1v1h-1Zm3 0h1v1h-1Zm16 0h1v1h-1Zm3 0h1v1h-1Zm-21 1h1v1h-1Zm3 0h1v1h-1Zm14 0h1v1h-1Zm3 0h1v1h-1Zm-19 1h1v2h-1Zm3 0h2v1h-2Zm12 0h1v1h-1Zm3 0h1v2h-1Zm-13 1h2v1h-2Zm8 0h2v1h-2Zm-33 1h1v7h-1Zm21 0h1v6h-1Zm6 0h6v1h-6Zm10 0h1v7h-1Zm-17 6h1v2h-1Zm-19 1h1v2h-1Zm37 0h1v2h-1Zm15 0h1v3h-1Zm-34 1h1v1h-1Zm-19 1h1v2h-1Zm18 0h1v1h-1Zm21 0h1v1h-1Zm-33 1h1v1h-1Zm11 0h1v1h-1Zm23 0h1v1h-1Zm12 0h1v2h-1Zm-53 1h1v2h-1Zm8 0h2v1h-2Zm8 0h2v1h-2Zm26 0h2v1h-2Zm7 0h2v1h-2Zm-39 1h6v1h-6Zm34 0h5v1h-5Zm8 0h1v1h-1Zm-53 1h1v4h-1Zm52 0h1v1h-1Zm-53 4h1v1h-1Zm-1 1h1v4h-1Zm1 4h1v4h-1Zm1 1h1v1h-1Zm42 2h5v1h-5Zm-44 1h1v4h-1Zm39 0h5v1h-5Zm-2 1h2v1h-2Zm-1 1h1v1h-1Zm-1 1h1v9h-1Zm-36 1h1v3h-1Zm35 0h1v1h-1Zm-1 1h1v2h-1Zm-35 2h1v4h-1Zm34 0h1v2h-1Zm-26 1h1v3h-1Zm25 1h1v6h-1Zm-34 2h1v7h-1Zm8 0h1v6h-1Zm8 0h1v3h-1Zm23 1h1v4h-1Zm-24 2h1v7h-1Zm20 2h1v2h-1Zm5 0h1v2h-1Zm-33 1h1v7h-1Zm-8 1h1v6H9Zm42 0h1v2h-1Zm-5 1h1v3h-1Zm6 1h1v2h-1Zm-28 1h1v3h-1Zm23 1h1v2h-1Zm6 0h1v1h-1Zm1 1h1v1h-1Z"/><path fill="#816e5a" d="M65 24h1v1h-1Z"/><path fill="#f9d02b" d="M26 25h5v1h-5Zm-2 1h3v1h-3Zm9 0h1v1h-1Zm32 0h1v1h-1Zm-42 1h3v1h-3Zm11 0h1v1h-1Zm25 0h1v1h-1Zm7 0h1v2h-1Zm-44 1h3v1h-3Zm36 0h1v1h-1Zm9 0h1v10h-1Zm-45 1h2v7h-2Zm13 0h1v1h-1Zm22 0h1v1h-1Zm11 0h1v8h-1Zm-47 1h1v1h-1Zm5 2h8v4h-8Zm33 0h6v5h-6Zm-38 1h1v2h-1Zm4 0h1v6h-1Zm9 0h1v2h-1Zm24 0h1v4h-1Zm7 0h1v7h-1Zm-41 1h1v4h-1Zm11 0h1v1h-1Zm22 0h1v2h-1Zm9 0h1v5h-1Zm3 1h1v1h-1Zm-46 1h1v1h-1Zm3 0h7v1h-7Zm0 1h6v1h-6Zm34 0h5v1h-5Zm-34 1h3v1h-3Zm35 0h4v1h-4Z"/><path fill="#f8f668" d="M27 26h6v1h-6Zm34 0h4v6h-4Zm-35 1h6v5h-6Zm34 0h1v1h-1Zm5 0h1v6h-1Zm-40 1h1v5h-1Zm-1 1h1v5h-1Zm8 0h1v3h-1Zm34 0h1v5h-1Zm-33 1h3v2h-3Zm24 0h1v4h-1Zm3 0h1v2h-1Zm-39 1h1v2h-1Zm37 0h2v1h-2Zm11 0h1v4h-1Zm-35 1h2v1h-2Zm24 0h1v1h-1Zm-23 1h1v1h-1Zm-1 2h1v1h-1Zm-1 1h1v1h-1Zm-1 1h1v1h-1Zm27 0h1v1h-1Zm-30 1h3v1h-3Zm31 0h1v1h-1Zm1 1h4v1h-4Z"/><path fill="#ffffea" d="M32 27h2v2h-2Zm2 1h1v2h-1Zm25 0h2v2h-2Zm-26 1h1v1h-1Zm25 0h1v2h-1Zm1 1h1v1h-1Z"/><path fill="#d83232" d="M45 34h4v1h-4Zm-3 1h4v4h-4Zm6 0h4v1h-4Zm-7 1h1v3h-1Zm8 0h4v4h-4Zm-3 1h1v4h-1Zm7 0h1v2h-1Zm-13 1h1v2h-1Zm7 0h2v3h-2Zm7 0h1v1h-1Zm-15 1h1v4h-1Zm5 0h2v2h-2Zm-6 1h1v2h-1Zm13 0h3v1h-3Zm4 0h1v2h-1Zm-18 1h1v1h-1Zm6 0h2v1h-2Zm5 0h1v1h-1Zm3 0h1v1h-1Zm3 0h1v1h-1Zm2 0h1v1h-1Zm-20 1h1v1h-1Zm4 0h2v1h-2Zm9 0h2v1h-2Zm8 0h1v1h-1Zm-22 1h1v1h-1Zm23 0h2v1h-2Zm-37 1h1v4h-1Zm39 0h1v1h-1Zm-40 1h1v2h-1Zm2 0h1v4h-1Zm39 0h1v1h-1Zm-38 1h2v3h-2Zm7 0h1v1h-1Zm32 0h1v1h-1Zm-37 1h5v1h-5Zm0 1h3v1h-3Zm-4 4h2v1h-2Zm1 1h1v1h-1Zm-8 5h1v3h-1Zm1 1h1v1h-1Z"/><path fill="#fb6b1d" d="M46 35h2v2h-2Zm2 1h1v2h-1Zm-1 1h1v1h-1Zm-6 2h3v2h-3Zm12 0h2v1h-2Zm-13 1h1v2h-1Zm9 0h2v2h-2Zm5 0h1v1h-1Zm-13 1h2v1h-2Zm4 0h1v3h-1Zm7 0h2v4h-2Zm-15 1h2v3h-2Zm7 0h1v3h-1Zm2 0h3v2h-3Zm5 0h1v1h-1Zm3 0h1v2h-1Zm-18 1h1v3h-1Zm3 0h3v2h-3Zm10 0h1v2h-1Zm6 0h3v1h-3Zm-21 1h2v3h-2Zm8 0h2v2h-2Zm5 0h2v1h-2Zm9 0h4v1h-4Zm-23 1h1v3h-1Zm4 0h1v1h-1Zm10 0h1v1h-1Zm3 0h2v1h-2Zm7 0h4v1h-4Zm-26 1h2v2h-2Zm27 0h4v1h-4Zm-28 1h1v1h-1Zm30 0h3v1h-3Zm-32 1h2v1h-2Zm34 0h1v1h-1Z"/><path fill="#822121" d="M55 39h1v1h-1Zm1 1h1v1h-1Zm1 1h1v1h-1Zm1 1h1v1h-1Zm-39 2h2v1h-2Zm42 0h1v1h-1Zm-43 1h2v5h-2Zm44 0h1v1h-1Zm-45 1h1v3h-1Zm3 1h1v2h-1Zm1 1h1v1h-1Zm-5 4h5v1h-5Zm1 1h5v1h-5Zm-3 3h1v2h-1Zm1 1h1v2h-1Z"/><path fill="#fbaa1d" d="M46 41h2v1h-2Zm-4 1h2v2h-2Zm13 0h2v1h-2Zm-5 1h2v1h-2Zm-5 1h2v2h-2Zm5 0h1v1h-1Zm4 0h2v1h-2Zm-16 1h1v2h-1Zm6 0h1v1h-1Zm4 0h2v1h-2Zm4 0h1v1h-1Zm3 0h2v1h-2Zm-19 1h2v1h-2Zm3 0h1v1h-1Zm3 0h1v1h-1Zm14 0h2v1h-2Zm-22 1h2v1h-2Zm24 0h2v1h-2Zm-28 1h2v1h-2Zm31 0h1v1h-1Z"/><path fill="#521f2f" d="M16 43h2v3h-2Zm2 1h1v1h-1Zm-2 2h1v4h-1Zm-1 1h1v3h-1Zm-1 1h1v2h-1Zm3 1h1v1h-1Z"/><path fill="#fbed1d" d="M51 44h1v1h-1Zm-12 1h3v1h-3Zm14 0h2v2h-2Zm-13 1h2v1h-2Zm12 0h1v1h-1Zm3 0h1v1h-1Z"/><path fill="#6ccf2b" d="M43 46h2v1h-2Zm8 0h1v1h-1Zm-15 1h2v1h-2Zm20 0h2v1h-2Z"/><path fill="#0eaf9b" d="M45 46h6v1h-6Zm-7 1h7v1h-7Zm15 0h3v1h-3Zm-16 1h2v1h-2Zm17 0h3v1h-3ZM15 60h1v3h-1Zm1 1h1v7h-1Zm-2 1h1v3h-1Zm1 4h1v3h-1Z"/><path fill="#470b0b" d="M63 46h1v2h-1Z"/><path fill="#30e1b9" d="M45 47h8v1h-8ZM15 63h1v3h-1Z"/><path fill="#599231" d="M32 48h3v1h-3Zm27 0h2v1h-2Zm-38 1h12v1H21Zm39 0h4v1h-4Zm-42 1h4v1h-4Zm45 0h1v1h-1Z"/><path fill="#0b8a8f" d="M35 48h2v1h-2Zm22 0h2v1h-2ZM16 60h3v1h-3Zm-2 1h1v1h-1Zm3 0h2v6h-2Zm-4 3h1v1h-1Zm1 1h1v1h-1Zm3 2h1v2h-1Zm28 0h1v2h-1Zm2 0h1v2h-1Zm-31 1h1v3h-1Zm30 0h1v2h-1Zm-31 1h1v4h-1Zm-1 3h1v2h-1Z"/><path fill="#233815" d="M63 48h2v1h-2Zm2 1h1v1h-1Zm1 1h1v2h-1Z"/><path fill="#676633" d="M20 49h1v1h-1Zm44 0h1v2h-1Zm-50 1h4v1h-4Zm8 0h1v1h-1Zm43 0h1v2h-1Z"/><path fill="#2b1a13" d="M14 51h9v1h-9Zm32 9h1v1h-1Zm-1 2h1v1h-1Zm-1 2h1v1h-1Z"/><path fill="#5c1616" d="M15 52h1v1h-1Zm1 1h1v4h-1Zm-1 1h1v3h-1Zm2 0h3v1h-3Zm0 1h1v1h-1Z"/><path fill="#45293f" d="M20 54h3v1h-3Zm-1 1h3v1h-3Zm0 1h2v3h-2Zm1 3h2v1h-2Zm1 1h2v2h-2Z"/><path fill="#2e222f" d="M18 55h1v4h-1Zm-1 1h1v2h-1Zm-1 1h1v1h-1Zm3 2h1v1h-1Zm1 1h1v4h-1Zm27 1h1v3h-1Zm-28 1h1v2h-1Zm2 0h3v1h-3Zm25 1h1v4h-1Zm-1 2h1v1h-1Z"/><path fill="#0b5e65" d="M16 58h2v2h-2Zm2 1h1v1h-1Zm1 1h1v2h-1Zm28 4h1v3h-1Zm-2 2h1v1h-1Zm1 1h1v1h-1Zm-1 4h2v1h-2Zm1 1h1v3h-1Zm-33 2h1v3h-1Zm-1 1h1v5h-1Zm35 0h1v3h-1Zm-37 1h2v4h-2Zm38 1h1v3h-1Zm-28 1h3v2h-3Zm-4 1h1v1h-1Zm2 0h2v1h-2Zm5 0h1v1h-1Z"/><path fill="#672d84" d="M13 60h1v4h-1Zm-1 3h1v2h-1Zm-1 4h1v2h-1Zm3 3h1v2h-1Zm-4 4h1v2h-1Z"/><path fill="#323353" d="M21 63h1v1h-1Zm-1 1h1v1h-1Zm5 5h1v1h-1Z"/><path fill="#4d65b4" d="M22 63h1v1h-1Zm-1 1h1v1h-1Zm-1 1h1v2h-1Zm1 3h1v8h-1Zm27 0h1v2h-1Zm-31 1h1v4h-1Zm2 0h1v1h-1Zm26 0h1v2h-1Zm1 1h1v1h-1Zm-30 1h1v3h-1Zm4 0h1v4h-1Zm2 1h1v1h-1Zm27 0h1v1h-1Zm-34 1h1v5h-1Zm4 0h1v2h-1Zm-5 1h1v6h-1Zm4 0h1v4h-1Zm4 1h3v1h-3Zm1 1h2v1h-2Zm-10 1h1v3h-1Z"/><path fill="#484a77" d="M23 63h1v10h-1Zm-1 1h1v8h-1Zm2 0h1v11h-1Zm-3 1h1v3h-1Zm4 1h1v3h-1Zm-6 1h1v2h-1Zm28 5h1v3h-1Zm3 2h1v1h-1Zm-2 1h1v2h-1Zm3 1h1v2h-1Zm-2 1h1v3h-1Zm1 1h1v2h-1Zm1 1h1v1h-1Zm2 0h1v1h-1Z"/><path fill="#8f38a2" d="M12 65h2v9h-2Zm2 1h1v4h-1Zm-3 3h1v7h-1Zm1 5h1v1h-1Z"/><path fill="#4d9be6" d="M20 67h1v4h-1Zm27 2h1v3h-1Zm-28 1h1v3h-1Zm29 0h1v5h-1Zm-30 3h1v1h-1Zm31 0h1v3h-1Zm-33 1h1v5h-1Zm-1 4h1v2h-1Z"/><path fill="#070605" d="M44 71h1v1h-1Z"/><path fill="#2baf82" d="M22 73h2v2h-2Zm-3 2h2v3h-2Zm31 0h1v3h-1Zm-29 1h2v2h-2Zm28 0h1v1h-1Zm-26 1h1v2h-1Zm-5 1h2v1h-2Zm33 0h2v1h-2Zm1 1h1v1h-1Z"/><path fill="#0a0905" d="M45 74h1v1h-1Z"/><path fill="#030303" d="M14 55h1v1h-1Zm-1 1h1v4h-1Zm2 0h1v1h-1Zm1 1h1v1h-1Zm1 1h1v1h-1Zm1 1h1v1h-1Zm-6 1h1v3h-1Zm7 0h2v1h-2Zm28 0h2v1h-2Zm-26 1h2v1h-2Zm25 0h1v2h-1Zm2 0h1v7h-1Zm-25 1h2v1h-2Zm-12 1h1v4h-1Zm14 0h3v1h-3Zm18 0h3v1h-3Zm-15 1h15v1H28Zm17 0h1v1h-1Zm-1 1h1v7h-1Zm-34 2h1v7h-1Zm8 0h1v6h-1Zm8 0h1v3h-1Zm23 1h1v4h-1Zm-24 2h1v7h-1Zm20 2h1v3h-1Zm5 0h1v2h-1Zm-33 1h1v7h-1Zm-8 1h1v6H9Zm42 0h1v2h-1Zm-5 1h1v3h-1Zm6 1h1v2h-1Zm-28 1h1v3h-1Zm23 1h1v2h-1Zm6 0h1v1h-1Zm1 1h1v1h-1Z"/><path fill="#1f202e" d="M14 56h1v1h-1Zm1 1h1v1h-1Zm1 1h1v1h-1Zm1 1h1v1h-1Zm-4 1h1v1h-1Zm5 0h1v1h-1Zm2 1h1v1h-1Zm27 0h1v11h-1Zm-25 1h1v1h-1Zm-10 1h2v17h-2Zm12 0h1v1h-1Zm22 0h1v12h-1Zm-27 1h1v4h-1Zm8 0h1v1h-1Zm1 1h2v1h-2Zm17 0h1v7h-1Zm-16 1h1v2h-1Zm-18 1h1v13h-1Zm3 1h1v12h-1Zm34 0h1v2h-1Zm-23 1h1v1h-1Zm5 0h1v4h-1Zm-15 1h1v10h-1Zm1 1h1v9h-1Zm1 1h1v1h-1Zm2 0h1v2h-1Zm25 0h1v5h-1Zm5 0h1v1h-1Zm-29 1h1v2h-1Zm11 0h1v7h-1Zm-21 1h1v6h-1Zm11 0h2v1h-2Zm3 0h1v1h-1Zm21 1h1v1h-1Zm-19 1h1v4h-1Zm17 0h1v4h-1Zm-18 1h1v3h-1Zm2 0h1v3h-1Zm5 0h1v3h-1Zm-4 1h3v2h-3Zm18 0h1v1h-1Z"/><path fill="#33343f" d="M14 57h1v11h-1Zm1 1h1v12h-1Zm1 1h1v12h-1Zm1 1h1v12h-1Zm-4 1h1v2h-1Zm5 0h2v3h-2Zm2 1h2v11h-2Zm2 1h2v11h-2Zm-4 1h1v3h-1Zm6 0h3v3h-3Zm3 1h1v12h-1Zm1 1h1v12h-1Zm-4 1h2v2h-2Zm-5 1h1v4h-1Zm10 0h1v10h-1Zm-5 1h1v5h-1Zm2 1h1v6h-1Zm22 0h1v5h-1Zm-1 2h1v4h-1Zm-26 1h1v1h-1Zm9 0h1v5h-1Zm19 0h1v2h-1Zm-26 1h1v1h-1Zm22 2h1v4h-1Zm-1 1h1v3h-1Zm2 2h1v1h-1Z"/><path fill="#4e4e68" d="M43 64h2v1h-2Zm-2 1h1v1h-1Zm2 0h1v1h-1Zm0 9h1v2h-1Zm-1 5h1v1h-1Z"/><path fill="#989ab5" d="M30 65h2v3h-2Zm2 1h1v10h-1Zm-1 2h1v4h-1Zm2 0h1v3h-1Zm1 1h1v1h-1Zm-1 5h1v6h-1Zm17 0h1v2h-1Zm-31 2h6v1h-6Zm15 0h1v4h-1Zm17 0h1v2h-1Zm-32 1h5v2h-5Zm16 1h1v2h-1Zm17 0h1v1h-1Zm-33 1h4v1h-4Zm34 0h1v1h-1Z"/><path fill="#b9bbd8" d="M32 65h1v1h-1Zm1 1h1v2h-1Zm1 2h1v1h-1Zm1 1h1v1h-1Zm-1 1h1v1h-1Zm-1 1h1v3h-1Zm-14 3h1v2h-1Zm15 0h1v2h-1Zm-16 1h1v5h-1Zm2 0h4v1h-4Zm15 1h1v2h-1Zm1 2h1v2h-1Z"/><path fill="#686981" d="M33 65h1v1h-1Zm9 0h1v14h-1Zm-1 1h1v5h-1Zm2 0h1v8h-1Zm-9 1h1v1h-1Zm6 0h1v3h-1Zm-10 1h1v1h-1Zm5 0h1v1h-1Zm-4 4h1v1h-1Zm-13 1h1v2h-1Zm23 1h1v6h-1Zm-17 1h1v1h-1Zm24 0h2v5h-2Zm-16 1h1v1h-1Zm8 0h1v4h-1Zm7 0h1v2h-1Zm3 0h1v4h-1Zm-11 2h1v2h-1Zm12 0h1v2h-1Zm-28 1h1v1h-1Zm29 0h1v1h-1Z"/><path fill="#d83232" d="M34 65h7v1h-7Zm1 1h3v1h-3Zm1 1h1v1h-1Zm0 3h1v8h-1Zm-2 1h2v3h-2Zm5 0h1v1h-1Zm-2 1h1v8h-1Zm-2 2h1v2h-1Zm4 0h1v1h-1Zm-1 1h1v3h-1Z"/><path fill="#801d1d" d="M34 66h1v1h-1Zm6 0h1v1h-1Zm-5 1h1v1h-1Zm4 0h1v4h-1Zm-3 1h3v2h-3Zm-1 2h1v1h-1Zm5 0h1v6h-1Zm1 1h1v3h-1Zm-2 4h1v3h-1Zm-1 3h1v2h-1Z"/><path fill="#de5f74" d="M38 66h2v1h-2Zm-1 1h2v1h-2Zm0 3h2v2h-2Zm1 2h2v2h-2Zm0 2h1v1h-1Z"/><path fill="#030303" d="M46 9h1v1h-1Zm-1 1h1v2h-1Zm2 0h1v4h-1Zm-14 2h2v1h-2Zm11 0h1v3h-1Zm-11 1h1v5h-1Zm2 0h1v1h-1Zm1 1h1v2h-1Zm12 0h1v5h-1Zm-5 1h1v4h-1Zm-6 1h1v3h-1Zm-11 1h2v1h-2Zm0 1h1v4h-1Zm2 0h1v1h-1Zm4 0h1v3h-1Zm-3 1h1v1h-1Zm9 0h1v2h-1Zm4 0h1v3h-1Zm7 0h1v4h-1Zm-25 1h2v1h-2Zm6 0h1v2h-1Zm-6 1h1v1h-1Zm3 0h3v1h-3Zm4 0h1v1h-1Zm8 0h1v2h-1Zm-7 1h2v1h-2Zm9 0h1v3h-1Zm-7 1h1v1h-1Zm6 0h1v4h-1Zm10 0h1v4h-1Zm-15 1h1v1h-1Zm1 1h2v1h-2Zm2 1h1v1h-1Zm1 1h1v1h-1Zm12 0h1v2h-1Zm-11 1h2v1h-2Zm1 1h2v1h-2Zm9 0h1v1h-1Zm-6 1h6v1h-6Z"/><path fill="#714378" d="M46 10h1v1h-1Zm-11 4h1v1h-1Zm10 0h1v14h-1Zm2 1h1v1h-1Zm-12 2h1v5h-1Zm-8 1h1v1h-1Zm1 1h1v1h-1Zm18 0h1v10h-1Zm-9 1h1v1h-1Zm11 0h1v1h-1Zm-12 1h1v3h-1Zm1 3h1v1h-1Zm2 0h1v1h-1Zm10 0h1v5h-1Zm-11 1h1v1h-1Zm9 0h1v5h-1Zm3 2h1v1h-1Zm-2 1h1v2h-1Z"/><path fill="#8f5198" d="M46 11h1v8h-1Zm-11 4h1v2h-1Zm12 1h1v9h-1Zm-11 1h1v4h-1Zm1 4h1v3h-1Zm11 0h1v7h-1Zm-10 1h1v3h-1Z"/><path fill="#4d2552" d="M45 12h1v2h-1Zm-11 1h1v9h-1Zm13 1h1v1h-1Zm-11 2h1v1h-1Zm8 0h1v13h-1Zm-17 3h1v1h-1Zm6 0h1v3h-1Zm4 0h1v1h-1Zm11 0h1v1h-1Zm-20 1h2v1h-2Zm15 0h1v9h-1Zm-18 1h1v1h-1Zm13 0h1v1h-1Zm-3 1h1v1h-1Zm4 1h1v1h-1Zm10 0h1v1h-1Zm-13 1h1v1h-1Zm3 1h1v2h-1Zm6 3h1v2h-1Zm5 0h1v1h-1Zm-4 1h1v1h-1Zm3 0h1v1h-1Z"/><path fill="#2b112e" d="M44 15h1v1h-1Zm-11 3h1v1h-1Zm10 1h1v1h-1Zm-16 1h1v1h-1Zm5 1h1v1h-1Zm2 1h1v1h-1Zm8 0h1v7h-1Zm-7 1h1v1h-1Zm6 2h1v3h-1Zm-1 2h1v1h-1Zm3 2h2v1h-2Z"/><path fill="#010101" d="M20 23h19v1H20Zm34 0h18v1H54Zm-38 1h4v1h-4Zm23 0h4v1h-4Zm11 0h4v1h-4Zm22 0h4v1h-4Zm-56 1h1v18h-1Zm26 0h1v18h-1Zm8 0h1v6h-1Zm25 0h1v18h-1Zm-54 1h17v1H21Zm34 0h16v1H55Zm-35 1h1v13h-1Zm18 0h1v13h-1Zm16 0h1v13h-1Zm17 0h2v1h-2Zm0 1h1v12h-1Zm-28 2h6v1h-6Zm20 0h1v1h-1Zm-1 2h4v1h-4Zm-47 1h1v1h-1Zm48 0h3v1h-3Zm-49 1h1v1h-1Zm50 0h1v1h-1Zm-51 1h1v1h-1Zm-1 1h1v1h-1Zm31 0h7v1h-7Zm-32 1h1v1h-1Zm39 0h1v6h-1Zm-40 1h1v6h-1Zm5 2h1v1h-1Zm6 0h17v1H21Zm34 0h15v1H55Zm-41 1h1v1h-1Zm-1 1h1v1h-1Zm4 0h3v1h-3Zm22 0h3v1h-3Zm12 0h3v1h-3Zm20 0h4v1h-4Zm-60 1h2v1h-2Zm9 0h19v1H20Zm34 0h17v1H54Z"/><path fill="#131719" d="M20 24h1v1h-1Zm18 0h1v1h-1Zm16 0h1v1h-1Zm17 0h1v1h-1Zm-30 1h1v1h-1Zm33 0h1v1h-1Zm-57 1h1v15h-1Zm3 0h1v1h-1Zm18 0h1v1h-1Zm13 0h1v15h-1Zm3 0h1v1h-1Zm17 0h1v1h-1Zm-32 1h1v13h-1Zm33 3h1v9h-1Zm-22 1h1v1h-1Zm-7 1h1v1h-1Zm-28 2h1v3h-1Zm-1 1h1v3h-1Zm29 0h7v1h-7Zm-30 1h1v3h-1Zm37 0h1v1h-1Zm-38 1h1v3h-1Zm-1 1h1v4h-1Zm9 2h1v1h-1Zm18 0h1v1h-1Zm16 0h1v1h-1Zm16 0h1v1h-1Zm-29 1h1v1h-1Zm33 0h1v1h-1Zm-54 1h1v1h-1Zm18 0h1v1h-1Zm16 0h1v1h-1Zm16 0h1v1h-1Z"/><path fill="#1f2124" d="M21 24h10v1H21Zm13 0h4v1h-4Zm21 0h5v1h-5Zm8 0h8v1h-8Zm-45 1h5v1h-5Zm21 0h2v1h-2Zm13 0h7v1h-7Zm12 0h10v1H64Zm-45 1h1v1h-1Zm21 0h2v1h-2Zm13 0h1v4h-1Zm19 0h3v1h-3Zm-31 1h1v4h-1Zm33 0h1v6h-1Zm-55 3h1v12h-1Zm25 2h7v1h-7Zm-1 1h1v2h-1Zm-2 1h1v7h-1Zm3 0h7v1h-7Zm6 1h1v1h-1Zm3 1h1v6h-1Zm21 0h1v5h-1Zm-59 1h1v1h-1Zm-1 1h1v1h-1Zm-1 1h1v1h-1Zm-1 1h1v1h-1Zm27 0h2v2h-2Zm32 0h3v2h-3Zm-53 1h1v1h-1Zm2 0h2v1h-2Zm18 0h1v1h-1Zm16 0h4v1h-4Zm9 0h8v1h-8Zm-42 1h3v1h-3Zm6 0h8v1h-8Zm10 0h1v1h-1Zm18 0h4v1h-4Zm7 0h8v1h-8Z"/><path fill="#a74472" d="M31 24h3v2h-3Zm-1 1h1v1h-1Z"/><path fill="#c95151" d="M60 24h3v2h-3Zm-1 1h1v1h-1Zm4 0h1v1h-1Z"/><path fill="#0c0e0e" d="M17 25h1v1h-1Zm34 0h1v1h-1Zm21 3h1v2h-1Zm-29 3h7v1h-7Zm29 8h1v1h-1Zm-55 2h1v1h-1Zm34 0h1v1h-1Z"/><path fill="#262a2e" d="M23 25h7v1h-7Zm11 0h5v1h-5Zm-16 1h1v1h-1Zm21 0h1v1h-1Zm13 0h1v5h-1Zm-12 1h1v3h-1Zm33 0h1v5h-1Zm-55 3h1v11h-1Zm26 3h7v1h-7Zm-4 2h1v5h-1Zm12 0h1v7h-1Zm21 2h1v3h-1Zm-51 4h1v1h-1Zm5 0h7v1h-7Z"/><path fill="#436c8f" d="M18 27h2v3h-2Zm16 14h4v1h-4Zm1 1h2v1h-2Z"/><path fill="#030303" d="M27 27h1v9h-1Zm-1 1h1v8h-1Zm2 1h2v1h-2Zm-3 1h1v3h-1Zm3 0h1v5h-1Zm1 1h1v2h-1Z"/><path fill="#bb561f" d="M28 27h1v1h-1Zm1 1h1v1h-1Zm34 0h1v1h-1Zm-38 1h1v1h-1Zm37 0h1v1h-1Zm3 0h1v1h-1Zm-36 4h1v1h-1Zm-4 1h1v1h-1Zm37 0h1v1h-1Zm-34 1h1v1h-1Zm37 0h1v1h-1Zm-39 1h1v1h-1Zm37 0h1v1h-1Zm-36 1h1v1h-1Z"/><path fill="#8a2a1c" d="M28 28h1v1h-1Zm-3 5h1v1h-1Zm2 3h1v1h-1Z"/><path fill="#0e0a04" d="M64 28h1v1h-1Z"/><path fill="#000002" d="M63 29h1v1h-1Z"/><path fill="#020300" d="M64 29h1v1h-1Z"/><path fill="#ffffea" d="M29 30h1v1h-1Zm33 1h1v1h-1Z"/><path fill="#d67e59" d="M40 30h1v5h-1Zm1 1h1v3h-1Z"/><path fill="#8e438f" d="M53 30h1v6h-1Zm-1 1h1v4h-1Z"/><path fill="#0b0c13" d="M62 30h1v1h-1Z"/><path d="M64 30h1v2h-1Zm-1 1h1v1h-1Zm2 0h1v1h-1Z"/><path fill="#020202" d="M65 30h1v1h-1Z"/><path fill="#3f7c3f" d="M73 32h1v5h-1Zm1 1h1v3h-1Z"/><path fill="#030505" d="M62 33h1v1h-1Z"/><path fill="#020204" d="M63 34h1v2h-1Zm1 1h1v1h-1Z"/><path fill="#050300" d="M65 34h1v1h-1Z"/><path fill="#080808" d="M64 36h1v1h-1Z"/><path fill="#141115" d="M64 37h1v1h-1Z"/><path fill="#0c0e11" d="M15 38h1v2h-1Zm-1 1h1v2h-1Zm-1 1h1v2h-1Zm-1 1h1v2h-1Zm-1 1h1v1h-1Z"/><path fill="#42bc43" d="M23 41h4v1h-4Zm1 1h2v1h-2Z"/><path fill="#737dd3" d="M58 41h5v1h-5Zm1 1h3v1h-3Z"/><path fill="#327f33" d="M26 42h1v1h-1Z"/></svg>