<?xml version="1.0" encoding="utf-8"?>
<svg xmlns="http://www.w3.org/2000/svg" viewBox="113.746 0 21.255 25.3" width="21.255px" height="25.3px"><g id="object-0" transform="matrix(1, 0, 0, 1, 0, -3.552713678800501e-15)"><path fill="#BD2738" d="M115.55 20.998c.887-.721 1.637-1.354 2.435-2.014.665-.552 1.322-1.075 1.954-1.662.608-.568 1.747-1.216 1.702-2.181-.024-.52-.405-1.026-.79-1.35l-7.093-5.96-.008-5.188V0l9.934 8.35v2.291l-8.138-6.859v2.769c2.127 1.784 4.243 3.591 6.375 5.355.648.535 1.199 1.208 1.507 1.998.556 1.431.11 3.122-1.167 4.022l-8.515 7.155v-7.54l4.843-4.046 1.321 1.111-4.36 3.648c.008 0 0 2.744 0 2.744zM135.001 7.532V.045a10.72 10.72 0 01-.243.202c-1.046.872-2.088 1.748-3.133 2.62l-3.733 3.12c-.292.244-.6.479-.883.738-.013.012-.025.025-.037.033-.454.41-.932.721-1.277 1.252-.344.535-.591 1.164-.612 1.8-.028.831.292 1.642.738 2.335.482.742 1.159 1.245 1.824 1.804.6.503 1.228.985 1.803 1.512l2.562 2.149c.401.336.806.673 1.207 1.013v2.635l-8.146-6.92v2.68l9.93 8.282v-7.946l-5.844-4.913c-.803-.677-1.99-1.366-2.047-2.546-.024-.539.231-1.062.583-1.471.503-.58 1.2-1.014 1.784-1.504l2.083-1.743 1.714-1.435-.02 5.27 1.747-1.48z"/><path fill="#BD2738" d="M128.716 10.41l1.398 1.208 3.145-2.602.012-2.502-4.555 3.896z"/></g></svg>