<?xml version="1.0" encoding="utf-8"?>
<!-- Generator: Adobe Illustrator 27.7.0, SVG Export Plug-In . SVG Version: 6.00 Build 0)  -->
<svg version="1.1" id="Layer_1" xmlns="http://www.w3.org/2000/svg" xmlns:xlink="http://www.w3.org/1999/xlink" x="0px" y="0px"
	 width="613.3px" height="528.8px" viewBox="0 0 613.3 528.8" style="enable-background:new 0 0 613.3 528.8;" xml:space="preserve"
	>
<style type="text/css">
	.st0{fill:#FFFFFF;}
	.st1{fill:#FF9C03;}
	.st2{fill:#049ADE;}
	.st3{fill:#03BAEC;}
</style>
<g>
	<g>
		<path class="st0" d="M29.1,528.8c-2.2,0-4.6-0.1-7.1-0.2c-2.5-0.1-5.1-0.3-7.7-0.6c-2.6-0.3-5-0.6-7.3-0.9c-2.3-0.3-4.4-0.6-6.2-1
			v-12c2.3,0.2,5,0.3,8.1,0.5c3.1,0.2,6.3,0.3,9.7,0.4c3.4,0.1,6.6,0.1,9.8,0.1c3.3,0,6.2-0.3,8.8-0.9c2.6-0.6,4.5-1.7,5.9-3.3
			c1.4-1.6,2.1-3.8,2.1-6.7v-4.3c0-3.2-0.9-5.7-2.7-7.4c-1.8-1.7-4.5-2.6-8-2.6h-8.5c-8.3,0-14.7-1.8-19.2-5.4
			c-4.5-3.6-6.7-9.8-6.7-18.6v-4.7c0-8.8,2.4-15.2,7.3-19.1c4.9-3.9,11.9-5.9,21-5.9c3.1,0,6.4,0.1,9.7,0.4c3.3,0.3,6.5,0.6,9.6,1
			c3,0.4,5.6,0.9,7.8,1.4v12c-3.6-0.2-7.8-0.5-12.4-0.7c-4.7-0.2-9-0.4-12.9-0.4c-3.1,0-5.9,0.3-8.3,1c-2.4,0.7-4.2,1.8-5.4,3.5
			c-1.2,1.7-1.9,4.2-1.9,7.5v3c0,3.9,1,6.6,3.1,8.1c2.1,1.6,5.1,2.3,9.1,2.3h9.5c5.3,0,9.8,1,13.2,3c3.5,2,6,4.7,7.7,8.1
			c1.7,3.4,2.5,7.3,2.5,11.7v5.8c0,6.7-1.3,11.9-4,15.6c-2.6,3.6-6.3,6.1-10.9,7.4C40.3,528.1,35.1,528.8,29.1,528.8z"/>
		<path class="st0" d="M106.5,528.7c-2,0-4.2-0.2-6.6-0.6c-2.4-0.4-4.8-1.2-7-2.5c-2.2-1.3-4-3.2-5.4-5.7c-1.4-2.6-2.1-6-2.1-10.5
			v-52.6c0-3.9,0.6-7.1,1.7-9.7c1.2-2.6,2.7-4.6,4.6-6.1c1.9-1.5,4.1-2.5,6.4-3.1s4.7-0.9,7-0.9c5.8,0,10.9,0.1,15.6,0.2
			c4.6,0.2,8.8,0.3,12.7,0.5c3.8,0.2,7.4,0.4,10.7,0.6V451h-34.4c-2.8,0-5,0.7-6.6,2.1c-1.6,1.4-2.4,3.6-2.4,6.5v16.2l37.9,0.9v12
			l-37.9,0.9v15.7c0,2.5,0.4,4.4,1.3,5.7c0.9,1.3,2,2.2,3.3,2.7c1.4,0.5,2.8,0.7,4.3,0.7H144V527c-3.6,0.3-7.6,0.6-11.9,0.8
			c-4.3,0.2-8.6,0.4-13,0.5C114.7,528.5,110.5,528.6,106.5,528.7z"/>
		<path class="st0" d="M196.5,528.8c-5.4,0-10.1-0.6-14.1-1.9c-4.1-1.2-7.5-3.5-10.2-6.8c-2.8-3.3-4.8-8-6.2-14.1
			c-1.4-6.1-2.1-14.1-2.1-23.9c0-9.3,0.7-17,2.2-23c1.4-6,3.6-10.7,6.4-14.1c2.8-3.4,6.3-5.7,10.4-7c4.1-1.3,8.8-2,14.1-2
			c3.6,0,7.1,0.2,10.6,0.6c3.4,0.4,6.6,0.9,9.5,1.5c2.9,0.6,5.5,1.2,7.6,1.9v11.7c-1.4-0.3-3.4-0.6-5.9-0.9
			c-2.6-0.3-5.4-0.5-8.6-0.7c-3.2-0.2-6.5-0.3-10-0.3c-3.8,0-7,0.4-9.7,1.3c-2.7,0.9-4.8,2.4-6.5,4.8c-1.6,2.3-2.8,5.6-3.6,9.9
			c-0.7,4.3-1.1,9.8-1.1,16.7c0,6.7,0.3,12.3,1,16.5c0.7,4.3,1.8,7.6,3.3,9.9c1.5,2.3,3.6,4,6.3,4.9c2.7,0.9,6,1.4,10.1,1.4
			c6.2,0,11.2-0.1,15.2-0.4c4-0.3,7.1-0.6,9.5-0.9v11.7c-2.3,0.7-4.9,1.2-7.8,1.7c-2.9,0.5-6,0.9-9.4,1.2
			C204,528.6,200.4,528.8,196.5,528.8z"/>
		<path class="st0" d="M279.2,528.7c-5,0-9.7-0.4-14-1.3c-4.3-0.9-8-2.4-11.1-4.6c-3.1-2.2-5.5-5.2-7.2-9c-1.7-3.8-2.5-8.7-2.5-14.8
			v-62.1h15.2V499c0,4,0.8,7.1,2.3,9.4c1.6,2.3,3.8,4,6.7,5c2.9,1,6.4,1.5,10.6,1.5c4.1,0,7.6-0.5,10.6-1.5c2.9-1,5.2-2.7,6.7-5
			c1.6-2.3,2.3-5.5,2.3-9.4v-62.1H314V499c0,6-0.8,10.9-2.5,14.8c-1.7,3.8-4.1,6.8-7.2,9c-3.1,2.2-6.8,3.7-11,4.6
			C289,528.2,284.3,528.7,279.2,528.7z"/>
		<path class="st0" d="M337.2,528v-91.1h37c3.4,0,6.6,0.4,9.6,1.2c3,0.8,5.7,2.2,8,4.3c2.3,2.1,4.2,4.9,5.6,8.6
			c1.4,3.7,2,8.4,2,14.3c0,4.5-0.5,8.3-1.4,11.3c-0.9,3-2.1,5.5-3.6,7.3c-1.5,1.9-3.1,3.4-5,4.4c-1.9,1-3.7,1.9-5.5,2.5l17.5,37.3
			h-15.4L370.3,493c-1.2,0-2.5,0-4,0c-1.5,0-3.1,0-4.8-0.1c-1.6,0-3.3-0.1-4.8-0.1c-1.6,0-3-0.1-4.3-0.1V528H337.2z M352.4,480.8
			h19.3c1.8,0,3.5-0.2,4.9-0.7c1.5-0.5,2.8-1.3,4-2.4c1.2-1.2,2-2.7,2.7-4.7c0.6-2,0.9-4.5,0.9-7.7c0-3-0.3-5.5-0.9-7.5
			c-0.6-1.9-1.5-3.4-2.7-4.4c-1.2-1-2.5-1.7-4-2.2c-1.5-0.4-3.1-0.6-4.9-0.6h-19.3V480.8z"/>
		<path class="st0" d="M423.4,528v-91.1h15.2V528H423.4z"/>
		<path class="st0" d="M486.1,528v-77.4h-26.2v-13.7h67.5v13.7h-26V528H486.1z"/>
		<path class="st0" d="M570,528v-28.5l-27.9-62.6h15.8l20,47l20-47h15.4l-28,62.6V528H570z"/>
	</g>
	<g>
		<polygon class="st1" points="414.1,132.2 463.5,132.4 390.2,5.4 365.8,48.6 		"/>
		<polygon class="st2" points="414.2,146.1 362.4,235.9 295.7,235.9 352.2,139.3 333.5,105.7 260.1,235.9 259.7,235.9 235.5,278.6 
			387.1,278.6 463.4,146.3 		"/>
		<polygon class="st1" points="149.8,146.2 222.9,272.8 247.3,229.6 199.2,146.4 		"/>
		<polygon class="st3" points="377.3,0 342.5,0 342.5,0 226.2,0 149.9,132.3 199.1,132.5 250.9,42.7 317.5,42.7 261,139.3 
			279.7,172.9 353.1,42.7 353.1,42.7 377.3,0 377.3,0 		"/>
	</g>
	<g>
		<path class="st0" d="M62.6,401.6v-43.9h7.1l18.4,29v-29h8.8v43.9h-7.1l-18.3-29v29H62.6z"/>
		<path class="st0" d="M127.9,401.9c-0.9,0-2-0.1-3.3-0.3c-1.2-0.2-2.4-0.6-3.5-1.2c-1.1-0.6-2.1-1.6-2.8-2.9
			c-0.7-1.3-1.1-3.1-1.1-5.3v-24.5c0-1.9,0.3-3.6,0.9-4.9c0.6-1.3,1.4-2.3,2.4-3.1c1-0.8,2.1-1.3,3.3-1.6c1.2-0.3,2.4-0.5,3.5-0.5
			c3,0,5.6,0,7.9,0.1c2.3,0.1,4.3,0.2,6.1,0.3c1.8,0.1,3.5,0.2,5,0.4v7.4h-16.4c-1.2,0-2.2,0.3-2.8,0.9c-0.7,0.6-1,1.5-1,2.7v6.3
			l17.4,0.5v6.9l-17.4,0.5v6.1c0,1,0.2,1.8,0.5,2.4c0.3,0.6,0.8,1,1.4,1.2c0.6,0.2,1.2,0.3,1.8,0.3h16.6v7.4
			c-1.7,0.2-3.7,0.4-5.8,0.5c-2.1,0.1-4.3,0.2-6.4,0.3C131.8,401.8,129.8,401.9,127.9,401.9z"/>
		<path class="st0" d="M174.9,401.6v-36h-12v-7.9h32.9v7.9h-12.1v36H174.9z"/>
		<path class="st0" d="M213.5,401.6v-43.9h8.8v18.3h16.6v-18.3h8.8v43.9h-8.8v-17.7h-16.6v17.7H213.5z"/>
		<path class="st0" d="M279,401.9c-0.9,0-2-0.1-3.3-0.3c-1.2-0.2-2.4-0.6-3.5-1.2c-1.1-0.6-2.1-1.6-2.8-2.9
			c-0.7-1.3-1.1-3.1-1.1-5.3v-24.5c0-1.9,0.3-3.6,0.9-4.9c0.6-1.3,1.4-2.3,2.4-3.1c1-0.8,2.1-1.3,3.3-1.6c1.2-0.3,2.4-0.5,3.5-0.5
			c3,0,5.6,0,7.9,0.1c2.3,0.1,4.3,0.2,6.1,0.3c1.8,0.1,3.5,0.2,5,0.4v7.4H281c-1.2,0-2.2,0.3-2.8,0.9c-0.7,0.6-1,1.5-1,2.7v6.3
			l17.4,0.5v6.9l-17.4,0.5v6.1c0,1,0.2,1.8,0.5,2.4c0.3,0.6,0.8,1,1.4,1.2c0.6,0.2,1.2,0.3,1.8,0.3h16.6v7.4
			c-1.7,0.2-3.7,0.4-5.8,0.5c-2.1,0.1-4.3,0.2-6.4,0.3C283,401.8,280.9,401.9,279,401.9z"/>
		<path class="st0" d="M316.8,401.6v-43.9h18.2c1.7,0,3.4,0.2,4.9,0.6c1.5,0.4,2.8,1.1,4,2.2c1.1,1,2,2.5,2.7,4.3c0.7,1.8,1,4.2,1,7
			c0,2-0.2,3.7-0.6,5.2c-0.4,1.4-0.9,2.6-1.6,3.5c-0.7,0.9-1.4,1.6-2.2,2.2c-0.8,0.6-1.7,1-2.6,1.4l8.2,17.6h-9l-7.1-16.3
			c-0.5,0-1,0-1.6,0c-0.6,0-1.2,0-1.9,0c-0.6,0-1.3,0-1.9,0c-0.6,0-1.2,0-1.7-0.1v16.4H316.8z M325.6,378.3h7.8
			c0.8,0,1.5-0.1,2.1-0.3c0.6-0.2,1.2-0.5,1.7-1c0.5-0.5,0.8-1.2,1.1-2c0.3-0.8,0.4-1.9,0.4-3.2c0-1.2-0.1-2.2-0.4-3.1
			c-0.3-0.8-0.6-1.4-1.1-1.9c-0.5-0.5-1-0.8-1.7-0.9c-0.6-0.2-1.3-0.3-2.1-0.3h-7.8V378.3z"/>
		<path class="st0" d="M365.9,401.6l5.1-43.9h8.4l10.1,33.6l10-33.6h8.4l5.2,43.9h-8.5l-3.8-32.3l1.4,0.1l-8.6,32.2h-8.2l-8.7-32.2
			l1.5-0.1l-3.7,32.3H365.9z"/>
		<path class="st0" d="M432.5,401.6v-43.9h8.8v43.9H432.5z"/>
		<path class="st0" d="M462.2,401.6v-43.9h7.1l18.4,29v-29h8.8v43.9h-7.1l-18.3-29v29H462.2z"/>
		<path class="st0" d="M516.8,401.6v-43.9h18.6c3,0,5.4,0.5,7.4,1.6c2,1,3.5,2.6,4.7,4.5c1.2,2,2,4.3,2.5,7c0.5,2.7,0.7,5.7,0.7,8.9
			c0,4.9-0.6,9-1.7,12.3s-2.8,5.7-5.1,7.3c-2.3,1.6-5.1,2.4-8.5,2.4H516.8z M525.5,393.7h8.9c1.8,0,3.3-0.5,4.3-1.6
			c1.1-1,1.8-2.6,2.3-4.7c0.5-2.1,0.7-4.7,0.7-7.8c0-2.8-0.2-5.2-0.5-7c-0.3-1.8-0.8-3.3-1.4-4.3c-0.6-1-1.4-1.7-2.3-2.1
			c-0.9-0.4-2-0.6-3.2-0.6h-8.9V393.7z"/>
	</g>
</g>
</svg>
