<?xml version="1.0" standalone="no"?>
<!DOCTYPE svg PUBLIC "-//W3C//DTD SVG 20010904//EN"
 "http://www.w3.org/TR/2001/REC-SVG-20010904/DTD/svg10.dtd">
<svg version="1.0" xmlns="http://www.w3.org/2000/svg"
 width="2001.000000pt" height="2000.000000pt" viewBox="0 0 2001.000000 2000.000000"
 preserveAspectRatio="xMidYMid meet">

<g transform="translate(0.000000,2000.000000) scale(0.100000,-0.100000)"
fill="#000000" stroke="none">
<path d="M10 12395 l0 -955 210 0 210 0 0 740 0 740 1235 0 1235 0 0 215 0
215 -1445 0 -1445 0 0 -955z"/>
<path d="M17110 13135 l0 -215 1235 0 1235 0 0 -740 0 -740 210 0 210 0 0 955
0 955 -1445 0 -1445 0 0 -215z"/>
<path d="M11052 11469 c-242 -37 -466 -172 -612 -370 -183 -246 -273 -566
-287 -1014 -15 -502 74 -904 259 -1172 58 -84 170 -203 190 -203 7 0 19 -9 26
-20 7 -11 19 -20 27 -20 8 0 15 -4 15 -9 0 -5 16 -15 35 -22 19 -7 35 -16 35
-20 0 -10 135 -62 220 -85 49 -14 102 -18 215 -19 130 0 160 3 225 23 86 28
170 68 170 82 0 6 7 10 16 10 20 0 159 139 168 168 6 17 15 22 42 22 l34 0 0
-135 0 -135 190 0 190 0 0 745 0 745 -560 0 -560 0 0 -190 0 -190 361 0 362 0
-6 -187 c-3 -127 -10 -207 -21 -246 -46 -167 -119 -244 -281 -294 -88 -27
-472 -27 -560 0 -130 40 -201 99 -253 207 -40 83 -59 159 -72 289 -13 134 -13
998 0 1132 32 317 141 462 376 504 93 17 342 19 432 5 146 -24 231 -79 282
-183 34 -70 60 -190 60 -278 l0 -59 223 0 c123 0 226 2 229 5 9 9 -13 152 -37
237 -96 341 -325 567 -664 655 -77 20 -126 25 -251 28 -85 2 -183 -1 -218 -6z"/>
<path d="M2900 9995 l0 -1445 950 0 950 0 0 190 0 190 -740 0 -740 0 0 1255 0
1255 -210 0 -210 0 0 -1445z"/>
<path d="M5340 9995 l0 -1445 940 0 940 0 0 190 0 190 -730 0 -730 0 0 440 0
440 635 0 635 0 0 190 0 190 -635 0 -635 0 0 435 0 435 700 0 700 0 0 190 0
190 -910 0 -910 0 0 -1445z"/>
<path d="M7750 9995 l0 -1445 499 0 c294 0 532 4 578 11 96 13 233 48 233 60
0 5 9 9 20 9 23 0 70 20 70 30 0 4 13 10 29 13 16 3 36 13 44 22 9 8 19 15 23
15 14 0 131 102 169 147 52 61 115 155 115 171 0 6 4 12 9 12 11 0 72 143 104
245 116 373 125 941 20 1340 -123 469 -397 736 -823 800 -73 12 -210 15 -592
15 l-498 0 0 -1445z m1148 1041 c129 -33 229 -103 286 -200 14 -24 38 -83 53
-132 l28 -89 0 -615 c0 -604 -1 -616 -22 -693 -31 -109 -65 -171 -126 -232
-121 -121 -231 -145 -668 -145 l-279 0 0 1066 0 1066 333 -5 c261 -3 345 -8
395 -21z"/>
<path d="M12770 9995 l0 -1445 940 0 940 0 0 190 0 190 -730 0 -730 0 0 445 0
445 635 0 635 0 0 185 0 185 -632 2 -633 3 -3 433 -2 432 700 0 700 0 0 190 0
190 -910 0 -910 0 0 -1445z"/>
<path d="M15210 9995 l0 -1445 205 0 205 0 0 575 0 575 353 0 c213 0 377 -4
413 -11 87 -16 158 -53 206 -109 86 -100 98 -183 98 -672 l0 -358 210 0 210 0
0 343 c0 353 -10 519 -36 621 -31 120 -96 213 -183 264 -25 14 -48 29 -51 33
-3 3 -35 12 -72 19 -38 8 -68 17 -68 22 0 4 -7 8 -15 8 -9 0 -15 9 -15 25 0
18 7 26 25 31 14 3 25 10 25 14 0 4 16 10 35 13 70 11 233 140 297 233 108
160 152 380 114 574 -17 87 -104 286 -132 303 -8 4 -14 12 -14 17 0 28 -181
179 -281 234 -69 38 -220 95 -251 96 -10 0 -18 4 -18 8 0 20 -280 32 -757 32
l-503 0 0 -1445z m1288 1049 c4 -6 25 -17 47 -25 22 -8 58 -32 79 -54 81 -83
100 -170 94 -431 -5 -205 -15 -253 -67 -329 -37 -55 -131 -101 -234 -115 -43
-5 -240 -10 -438 -10 l-359 0 0 491 0 491 435 -4 c305 -2 438 -6 443 -14z"/>
<path d="M10 7605 l0 -945 1445 0 1445 0 0 205 0 205 -1235 0 -1235 0 0 740 0
740 -210 0 -210 0 0 -945z"/>
<path d="M19580 7810 l0 -740 -1235 0 -1235 0 0 -205 0 -205 1445 0 1445 0 0
945 0 945 -210 0 -210 0 0 -740z"/>
</g>
</svg>
