<svg xmlns="http://www.w3.org/2000/svg" width="880" height="880"><title>solidity_intellij_plugin</title><title>Layer 1</title><path d="M405.155 31.456 274.45 263.758H13.225L143.839 31.456z" opacity=".45"/><path d="M274.45 263.758H535.77L405.155 31.456H143.839z" opacity=".6"/><path d="M143.839 495.97 274.45 263.758 143.839 31.456 13.225 263.758z" opacity=".8"/><path d="M472.215 849.164 602.919 616.86h261.318L733.532 849.164z" opacity=".45"/><path d="M602.918 616.862H341.6l130.613 232.303H733.53z" opacity=".6"/><path d="M733.532 384.65 602.918 616.862l130.614 232.303 130.704-232.303z" opacity=".8"/><text xml:space="preserve" x="344" y="442.667" fill="#fff" stroke-dasharray="null" stroke-linecap="null" stroke-linejoin="null" stroke-width="0" font-family="Sans-serif" font-size="24" text-anchor="middle" transform="translate(-3865.275 -5002.37)scale(12.42857)">SL</text><path d="M209.753 221.222h450.33v450.33h-450.33z"/><path d="M332.496 625.208H347.6v15.103h-15.103zm1.762-13.341v11.579h11.58v-11.58z"/><path fill="#fff" d="M236.642 580.802h212v23.247h-212z"/><text xml:space="preserve" x="409.996" y="479.669" fill="#fff" stroke-dasharray="null" stroke-linecap="null" stroke-linejoin="null" stroke-width="0" font-family="Sans-serif" font-size="24" text-anchor="middle" transform="translate(-4381.36 -5089.978)scale(11.65457)">SL</text></svg>