<svg xmlns="http://www.w3.org/2000/svg" id="Layer_1" data-name="Layer 1" viewBox="0 0 3000 3000"><defs><style>.cls-2{fill:#4d77c5}</style></defs><circle cx="1500" cy="1500" r="1173.04" style="fill:#252327"/><path d="M765.59 1118.26v978.97H874.2V901.29c-68.47 50.98-108.61 131.51-108.61 216.97M1853.41 901.29v870.85c68.47-51.47 108.86-132.01 108.86-217.71v-544.77h163.53v544.28c0 240.12-195.05 434.69-434.69 434.69V901.29h-108.86c-300.71 0-544.28 243.57-544.28 544.28v652.64h380.75v-870.85c-68.47 51.47-108.86 132.01-108.61 217.71v544.28h-163.53v-544.28c0-240.12 195.05-434.69 434.69-434.69v1088.31h108.61c300.71 0 544.28-243.57 544.28-544.28V901.77l-380.75-.49Z" class="cls-2"/></svg>