<svg xmlns="http://www.w3.org/2000/svg" id="Layer_1" data-name="Layer 1" viewBox="0 0 3000 3000"><defs><style>.cls-2{fill:#161e53}</style></defs><path d="M1177.95 1822.05V1176.6h278.27c48.19 0 89.59 8.82 125.56 26.47s63.8 42.76 84.16 75.34 29.86 71.94 29.86 118.1-10.18 84.84-30.54 116.74-48.87 55.65-86.2 71.94c-36.65 16.29-80.09 24.43-128.96 24.43h-166.28V1473.2h130.99c20.36 0 38.01-2.72 52.94-7.47s25.79-13.57 33.94-24.43c8.14-10.86 11.54-26.47 11.54-44.12s-4.07-33.26-11.54-45.47c-8.14-11.54-19-20.36-33.94-25.79-14.25-5.43-31.9-8.14-52.94-8.14h-61.76v505.64h-175.11v-1.36Zm378.04-296.6 161.53 296.6H1526.8l-157.46-296.6z" class="cls-2"/><path d="M1699.2 1176.59h217.87l150 365.83h7.47l150-365.83h218.54v645.45h-171.71v-373.29h-4.75l-143.89 373.29h-103.16l-143.89-376.01h-4.75v376.01h-171.71v-645.45ZM556.93 1822.05V1176.6h599.98v141.17H732.04v110.63h107.91c78.05 0 141.17 63.12 141.17 141.17H732.03v252.48H556.92ZM981.8 1570.25h174.43v251.8H981.8z" class="cls-2"/><circle cx="1068.68" cy="1442.65" r="86.87" style="fill:#ffbb51" transform="rotate(-88.09 1068.748 1442.659)"/></svg>