<svg xmlns="http://www.w3.org/2000/svg" id="Layer_2" data-name="Layer 2" viewBox="0 0 1165 225"><defs><style>.cls-1{fill:#f3f5f0}</style></defs><g id="Layer_1-2" data-name="Layer 1"><path d="M809 224.92c-3.406-.369-11.319-2.482-14.993-3.503-15.413-4.281-26.891-11.803-38.574-22.462-.89-1.043-.015-1.783.334-2.696.7-1.827 16.187-25.264 17.733-25.26 13.988 15.517 60.252 30.998 75.514 12.482 11.777-14.289-3.788-22.44-16.63-24.37-27.888-4.189-68.413-5.325-72.261-42.69-5.922-57.489 84.161-64.66 117.792-36.755l5.066 4.887-20.627 23.344c-6.39-3.057-11.512-8.03-18.554-10.133-9.642-2.88-23.932-3.734-33.622-1.02-18.927 5.301-16.9 23.075 1.815 27.798 26.048 6.572 63.907.185 75.465 33.496 12.788 36.857-17.193 63.265-51.458 66.882h-4c-5.277-.845-10.725-.864-16 0-2.286-.17-4.74.245-7 0ZM993 .175c2.893.265 8.934 1.696 12.009 2.489 3.573.92 23.453 7.937 22.581 11.54-1.74 7.192-10.984 18.714-12.605 26.923-12.603-7.609-31.374-13.624-41.421 1.065C971.762 44.826 969 52.68 969 55.612v14.484h45v32.963h-45v115.868h-37V103.06h-28V70.096h28V49.62c0-26.22 27.598-47.15 52-49.444 2.522-.237 6.473-.23 9 0Zm172 77.912v.999l-17.5 31.946c-16.975-16.304-51.343-12.292-60.26 10.746-1.085 2.803-3.24 10.126-3.24 12.745v84.404h-37V68.098h35l2.01 15.981c18.276-26.583 57.874-25.539 80.99-5.992Z" class="cls-1"/><path d="M832 224.92h-16c4.054-1.663 11.737-1.687 16 0ZM1 31.14H0v-9.988h1c2.954.776 2.582 8.685 0 9.988ZM538 5.17v36.958H179v177.798h-40V42.128H71V5.17h467zm187 213.757h-37v-84.404c0-31.314-38.324-45.426-61.475-25.447C620.763 114.048 613 126.98 613 134.523v84.404h-38V68.098h34l2.01 19.978c33.6-35.491 91.576-28.293 109.011 19.456 1.447 3.964 4.979 16.374 4.979 19.999v91.396Z" class="cls-1"/><path d="M281 218.927h-37V68.098h35l2.01 15.981c17.653-26.166 58.838-26.167 80.712-5.505L344.5 111.032c-16.975-16.304-51.343-12.292-60.26 10.746-1.085 2.803-3.24 10.126-3.24 12.745v84.404ZM890 23.15c.031 6.31-.023 12.667 0 18.978H575c.023-6.311-.031-12.668 0-18.979l.953-1.997H888.76l1.24 1.997Z" class="cls-1"/><path d="M575 23.15c.03-5.979-.022-12.002 0-17.98h315c.022 5.978-.03 12.001 0 17.98H575ZM4 68.098h37v151.828H4zM1 31.14c-.3-2.667-.249-7.275 0-9.988C2.93.12 36.676-2.546 43.491 18.165c6.454 19.613-11.79 35.43-30.78 27.748C6.325 43.331 1.777 38.052 1 31.14Zm502 36.958-1.01 19.973-7.98-9.495c-73.802-48.622-148.027 31.876-109.83 107.708 20.264 40.228 85.492 52.126 114.829 16.172 1.293-1.585 1.344-4.086 2.98-4.5.853 5.406.103 13.473 1.01 18.475.165.91.626 2.227 1.501 2.496H539V68.098h-36ZM456.5 189.4c-57.641.003-59.807-86.385-3.71-91.036 61.262-5.08 65.057 91.033 3.71 91.036Z" class="cls-1"/></g></svg>