<svg xmlns="http://www.w3.org/2000/svg" width="132" height="26" fill="none" viewBox="0 0 132 26"><path fill="#fff" d="M16.304 13.818q0 5.001-3.353 8.382-3.354 3.387-8.172 3.385H0v-4.833h4.78c1.901 0 3.5-.66 4.798-1.99 1.298-1.323 1.947-2.973 1.947-4.937L11.486.362h4.818zM19.74.591h4.78l-.077 4.754h-4.74zm0 6.68h4.78v18.307h-4.818zM32.86 5.58h8.21v4.872h-8.288v6.744q-.001 1.501.932 2.521a3.04 3.04 0 0 0 2.332 1.028h4.978v4.833h-4.933q-3.392.001-5.724-2.462c-1.555-1.644-2.332-3.641-2.332-6.005V.427h4.741l.077 5.147zM59.854 22.71q-2.852 2.877-6.977 2.875c-2.75 0-5.107-.963-6.995-2.895-1.889-1.931-2.833-4.295-2.833-7.104s.95-5.18 2.852-7.124q2.852-2.916 6.976-2.914 4.125-.002 6.977 2.914c1.901 1.944 2.852 4.315 2.852 7.124s-.95 5.212-2.852 7.124m-3.45-10.85c-.938-.963-2.113-1.44-3.527-1.44q-2.12-.002-3.584 1.499c-.977 1.002-1.465 2.22-1.465 3.667q0 2.172 1.465 3.667 1.464 1.502 3.584 1.5c1.414 0 2.64-.492 3.604-1.48.964-.99 1.446-2.214 1.446-3.687l-.116-.197c0-1.394-.469-2.566-1.407-3.529M79.904 23.48q.24 0 .377.14a.53.53 0 0 1 .137.385v1.015a.53.53 0 0 1-.137.385.5.5 0 0 1-.378.14h-10.95a.5.5 0 0 1-.379-.14.53.53 0 0 1-.137-.385V1.575q0-.246.138-.385a.5.5 0 0 1 .377-.14h1.133q.24 0 .378.14a.53.53 0 0 1 .137.385V23.48zM98.086 8.398q.24 0 .378.14a.53.53 0 0 1 .137.385V25.02a.53.53 0 0 1-.137.385.5.5 0 0 1-.378.14h-.927q-.446 0-.515-.525l-.171-2.274a7.27 7.27 0 0 1-2.575 2.38q-1.58.84-3.57.839-2.37 0-4.257-1.19-1.889-1.19-2.953-3.22-1.064-2.063-1.064-4.548t1.064-4.514q1.065-2.065 2.953-3.255t4.257-1.19q2.025 0 3.604.875a6.87 6.87 0 0 1 2.575 2.38l.137-2.38q.07-.525.515-.525zM90.465 24.04q2.334 0 4.051-1.574 1.716-1.575 2.163-3.99l.068-1.47-.068-1.504q-.447-2.415-2.163-3.99-1.717-1.574-4.051-1.574-1.82 0-3.296.91-1.475.909-2.3 2.52t-.824 3.604q0 1.995.824 3.639.824 1.61 2.3 2.52t3.296.91M110.113 8.048q2.368 0 4.257 1.19t2.952 3.255q1.065 2.029 1.064 4.514 0 2.484-1.064 4.549a8.27 8.27 0 0 1-2.952 3.22q-1.888 1.189-4.257 1.189-1.992 0-3.571-.84a7.26 7.26 0 0 1-2.574-2.38l-.172 2.275q-.07.525-.515.525h-.927a.5.5 0 0 1-.378-.14.53.53 0 0 1-.137-.385V.525q0-.245.137-.385a.5.5 0 0 1 .378-.14h1.03q.24 0 .378.14a.53.53 0 0 1 .137.385v10.323l.034.455a6.87 6.87 0 0 1 2.575-2.38q1.579-.875 3.605-.875m-.138 15.992q1.82 0 3.296-.91t2.3-2.519q.825-1.645.824-3.64 0-1.993-.824-3.604t-2.3-2.52-3.296-.909q-2.334 0-4.051 1.575-1.716 1.575-2.162 3.989l-.069 1.505.069 1.47q.446 2.415 2.162 3.989 1.717 1.575 4.051 1.574M122.456 12.563q0 1.26.996 1.96 1.03.7 3.124 1.469 1.785.664 2.849 1.225a5.4 5.4 0 0 1 1.82 1.574q.755.98.755 2.52 0 1.364-.79 2.45-.789 1.05-2.094 1.644a6.5 6.5 0 0 1-2.746.595 7.75 7.75 0 0 1-3.571-.84q-1.647-.84-2.643-2.03-.172-.245-.172-.35t.138-.314l.618-.7q.171-.21.274-.21.138 0 .412.28.756.84 2.06 1.575 1.305.7 2.849.7 1.683 0 2.678-.736.996-.769.996-2.064 0-.98-.584-1.645a4.3 4.3 0 0 0-1.442-1.12 31 31 0 0 0-2.3-.98q-1.682-.63-2.746-1.154a5.7 5.7 0 0 1-1.751-1.47q-.721-.945-.721-2.38 0-1.294.687-2.309a4.94 4.94 0 0 1 1.922-1.645q1.236-.594 2.712-.595 1.34 0 2.781.7a7 7 0 0 1 2.506 1.89.44.44 0 0 1 .137.315q0 .175-.171.42l-.378.49q-.137.21-.343.21-.172 0-.412-.245-1.065-1.015-2.026-1.47t-2.197-.455q-1.202 0-2.231.665-.996.63-.996 2.03"/></svg>