<svg xmlns="http://www.w3.org/2000/svg" xml:space="preserve" id="CIRCLE_OUTLINE_BLACK" x="0" y="0" viewBox="0 0 511.8 512"><style>.st1{fill-rule:evenodd;clip-rule:evenodd;fill:#ff7b7c}</style><g id="layer1"><path id="path1845" d="M511.8 256c0 141.4-114.6 256-255.9 256S0 397.4 0 256 114.6 0 255.9 0s255.9 114.6 255.9 256" style="fill:#1e1e1e"/><path id="path1828" d="M256.1 45.6C140.1 45.6 46 139.9 46 256.2s94.1 210.7 210.2 210.7 210.2-94.3 210.2-210.7c-.1-116.3-94.2-210.6-210.3-210.6M24.7 256.2c0-128.2 103.6-232 231.5-232s231.5 103.9 231.5 232c0 128.2-103.7 232-231.5 232S24.7 384.4 24.7 256.2" class="st1"/><path id="path1830" d="m347.5 200.9-58.4-2.4 39.7-43.1-16-16-43 39.6-2.3-58.5H245l-2.4 58.5-43-39.8-15.9 16 39.6 43.1-58.4 2.3v22.6l58.4 2.4-39.7 43.1 16 16 42.3-39 1.9 94.8L210 343v21.1l34.3 2.6.6 32.9h22.5l.7-32.9 34.6-2.6V343l-34.1-2.5 1.9-94.8 42.3 39.1 15.9-16-39.6-43.1 58.4-2.3z" class="st1"/></g></svg>