<svg xmlns="http://www.w3.org/2000/svg" width="2001" height="591" fill="none"><path fill="#F4FBFD" stroke="#F4FBFD" stroke-miterlimit="10" stroke-width="1.867" d="M949.301 86.57h15.823l4.325 56.611h.294l26.045-56.61h15.042l4.42 56.61h.29l26.15-56.61H1058l-37.35 74.595h-15.52l-4.82-56.905h-.3l-26.925 56.905h-15.529l-8.255-74.596Zm134.549-12.576c-4.81 0-9.04-3.342-8.05-9.239.98-4.717 5.4-6.978 9.23-6.978 4.82 0 9.05 3.342 7.87 9.042-.89 4.816-5.21 7.175-9.05 7.175Zm-11.02 12.576h15.23l-14.54 74.596h-15.34l14.65-74.596Zm67.65 12.595h-14.06l-8.05 40.886c-1.58 8.452 2.06 9.042 12.08 8.452l-1.57 12.678c-3.34.688-6.58.983-10.32.983-12.68 0-18.67-6.093-15.62-21.72l8.05-41.279h-10.81l2.46-12.58h10.81l4.72-23.49h15.33l-4.52 23.49h14.05l-2.45 12.58h-.1Zm54.33-14.648c14.74 0 24.37 8.649 21.03 25.652l-9.93 50.91h-15.43l9.34-47.569c1.87-10.221-.59-16.02-10.81-16.02-11.79 0-21.62 7.568-23.79 18.674l-8.94 44.915h-15.33l20.25-104.376h15.33l-7.57 39.411.29-.393c4.92-5.799 13.57-11.204 25.56-11.204Z"/><g fill="#F4FBFD" clip-path="url(#a)"><path d="M1760.79 50.096h-56.58l16.51-50.09h-50.09l-54.24 166.967h104.27c11.75 0 23.2-3.722 32.71-10.632a55.647 55.647 0 0 0 20.22-27.833l13.67-41.927a27.827 27.827 0 0 0 1.04-12.97 27.83 27.83 0 0 0-4.96-12.028 27.908 27.908 0 0 0-9.9-8.454 27.81 27.81 0 0 0-12.65-3.033ZM1737.6 85.22l-11.32 34.692a27.766 27.766 0 0 1-10.11 13.916 27.809 27.809 0 0 1-16.35 5.316h-24.31l19.92-61.221h37.1a5.62 5.62 0 0 1 5.26 4.765c.13.848.07 1.714-.19 2.532ZM1848.71.006l-10.82 33.393h50.09L1898.8.006h-50.09Zm-54.24 166.947h50.09l37.97-116.877h-50.09l-37.97 116.877Zm163.26-89.029h33.7l9.03-27.828h-33.71l16.21-50.09h-49.97l-42.42 130.543a27.901 27.901 0 0 0 3.97 24.904 27.88 27.88 0 0 0 22.43 11.52h55.66l9.03-27.828h-36.3a5.554 5.554 0 0 1-4.45-2.294 5.582 5.582 0 0 1-.81-4.941l17.63-53.986Zm-543.37-19.665L1469.21.006h-58.75l-45.2 139.139h-37.6a5.572 5.572 0 0 1-2.52-.619 5.519 5.519 0 0 1-1.96-1.694 5.672 5.672 0 0 1-.99-2.399 5.662 5.662 0 0 1 .21-2.585L1365.2.006h-50.09l-42.42 130.543a27.749 27.749 0 0 0-1.02 12.952c.68 4.337 2.39 8.45 4.97 12.002a27.831 27.831 0 0 0 22.51 11.47h107.17l38.16-116.877-30.12 8.163ZM1599.71.006h-115.08l16.94 58.253-24.74-8.163-37.78 116.877h50.09l18.06-55.656h54.17a55.634 55.634 0 0 0 52.93-38.464l11.88-36.486a27.927 27.927 0 0 0 .99-12.933 27.792 27.792 0 0 0-4.98-11.977 27.805 27.805 0 0 0-9.87-8.42 27.813 27.813 0 0 0-12.61-3.031Zm-23.19 35.063L1567 64.257a27.884 27.884 0 0 1-10.11 13.917 27.838 27.838 0 0 1-16.36 5.315h-24.3l18.12-55.655h37.1a5.541 5.541 0 0 1 4.32 2.366c.49.7.81 1.503.94 2.347.13.844.07 1.707-.19 2.522Z"/></g><path fill="#F4FBFD" d="M992.551 475.36c-23.407 19.596-54.524 52.055-54.524 107.402v1.754c0 1.212.975 2.187 2.187 2.187h237.496c1.21 0 2.19-.975 2.19-2.187v-64.03c0-1.213-.98-2.187-2.19-2.187l-102.27-.498c-2.86 0-5.3-1.776-6.21-4.482-.91-2.707-.05-5.565 2.23-7.319 4.93-3.79 9.87-7.427 14.63-10.935l1.3-.953c13.82-10.199 28.09-20.744 41.49-32.762 21.5-19.272 50.22-50.107 51.02-95.298v-1.905c0-24.014-7.45-45.235-21.55-61.41-13.68-15.677-33.65-26.677-57.77-31.787l-1.23-.26a3.254 3.254 0 0 0-.46-.044c-.78 0-1.49.412-1.9 1.105l-34.65 60.262c-.56.953-.19 1.819-.02 2.144.17.324.71 1.082 1.82 1.147l2.86.152c9.83.498 17.45 3.681 22.6 9.462 5.13 5.739 7.73 13.88 7.73 24.187 0 16.371-9.37 31.268-31.31 49.782-9.53 8.034-21.05 16.522-32.18 24.729l-1.58 1.169c-14.05 10.372-26.72 19.813-39.709 30.597v-.022Zm477.409-46.686c0-45.949-11.48-85.402-33.16-114.093-24.12-31.809-60.06-48.612-103.95-48.612-43.9 0-79.99 16.803-104.24 48.612-21.92 28.756-33.48 68.209-33.48 114.093s11.58 84.882 33.48 113.552c24.27 31.766 60.32 48.547 104.24 48.547 43.91 0 79.9-16.717 103.93-48.331 21.7-28.518 33.18-67.841 33.18-113.768Zm-95.3 70.006c-4.35 8.185-9.79 14.118-16.59 18.168-7.03 4.2-15.74 6.344-25.85 6.344-10.11 0-18.8-2.165-25.94-6.431-6.78-4.049-12.43-10.221-16.83-18.341-8.4-15.612-12.47-38.413-12.47-69.746s4.09-54.177 12.47-69.746c4.38-8.12 10.03-14.27 16.83-18.341 7.12-4.266 15.85-6.431 25.94-6.431 10.09 0 18.79 2.144 25.85 6.345 6.82 4.07 12.26 10.025 16.59 18.167 8.18 15.374 12.17 38.262 12.17 70.006s-3.99 54.589-12.17 70.006Zm112.62 89.257h237.5c1.21 0 2.18-.975 2.18-2.187v-64.03c0-1.213-.97-2.187-2.18-2.187l-102.27-.498c-2.86 0-5.31-1.776-6.22-4.483-.91-2.706-.04-5.586 2.23-7.318 5.03-3.855 10.14-7.622 14.64-10.936l3.7-2.75v.065c13.08-9.657 26.51-19.683 39.09-30.986 21.89-19.618 51.01-51.037 51.01-97.203 0-29.384-10.89-53.983-31.52-71.132-20.06-16.652-48.31-25.465-81.7-25.465-41.21 0-72.85 10.914-94.05 32.437-20.11 20.441-30.31 49.804-30.31 87.286v3.335a2.18 2.18 0 0 0 2.19 2.187h73.88c1.21 0 2.19-.975 2.19-2.187v-1.754c0-18.752 4.07-32.741 12.08-41.597 7.14-7.882 17.73-11.888 31.5-11.909 10.77 0 19.08 2.966 24.71 8.834 5.57 5.76 8.38 14.14 8.38 24.902 0 16.37-9.37 31.268-31.31 49.782-9.29 7.838-20.25 15.915-31.87 24.49l-1.89 1.407c-13.27 9.788-26.29 19.489-39.71 30.597-23.39 19.575-54.5 52.034-54.5 107.38v1.754c0 1.213.97 2.187 2.18 2.187l.07-.021Zm388.04-321.967c-40.32 0-73.71 14.378-96.58 41.553-24.29 28.843-36.62 70.851-36.62 124.833 0 44.412 10.16 82.133 29.37 109.048 23.36 32.74 59.11 49.349 106.27 49.349 36.4 0 67.15-10.827 88.91-31.312 21.74-20.462 33.24-49.305 33.24-83.409 0-61.302-44.86-106.081-106.77-106.731h-1.35c-21.69.108-39.82 4.504-55.45 13.512-2.27 1.299-5 1.169-7.15-.347-2.12-1.515-3.11-4.027-2.62-6.561 2.13-10.978 5.59-20.181 10.29-27.392 8.38-12.797 20.9-19.293 37.2-19.293 11.11 0 19.94 3.075 26.31 9.138 5.87 5.608 8.21 12.494 9.07 16.11l.33 1.364c.24.997 1.1 1.689 2.14 1.689h77.65c.65 0 1.28-.303 1.69-.801a2.21 2.21 0 0 0 .45-1.819l-.41-2.1c-10.46-51.947-57.08-86.853-115.95-86.853l-.02.022Zm-38.5 180.223c8.96-8.856 21.43-13.555 36.05-13.555 14.62 0 26.89 4.677 35.71 13.512 8.4 8.445 13.01 20.376 13.01 33.606l-.06 2.187c-.48 12.429-4.96 23.516-12.76 31.42-8.75 8.856-21.15 13.533-35.92 13.533-14.77 0-27.37-4.677-36.27-13.555-8.45-8.402-13.08-20.333-13.08-33.585 0-13.252 4.72-25.118 13.29-33.563h.03ZM259.021 266.906h-77.52a4.336 4.336 0 0 0-3.746 2.165L87.914 424.696c-3.313 5.76-12.126 3.4-12.126-3.248V270.392a4.343 4.343 0 0 0-4.331-4.33H4.33a4.343 4.343 0 0 0-4.33 4.33v316.143a4.344 4.344 0 0 0 4.33 4.331h67.127a4.344 4.344 0 0 0 4.33-4.331V453.019a4.344 4.344 0 0 1 4.331-4.331h78.949a4.34 4.34 0 0 0 3.747-2.165l13.468-23.343c2.209-3.832 8.077-2.273 8.077 2.166v161.189a4.344 4.344 0 0 0 4.331 4.331h67.126a4.344 4.344 0 0 0 4.331-4.331V400.964a4.344 4.344 0 0 0-4.331-4.331h-56.711c-3.335 0-5.413-3.616-3.746-6.496l67.408-116.735c1.667-2.88-.412-6.496-3.746-6.496Zm303.262 62.597-62.226-62.205a4.295 4.295 0 0 0-3.054-1.277H303.652a4.345 4.345 0 0 0-4.332 4.331v316.223a4.346 4.346 0 0 0 4.332 4.332h193.351a4.26 4.26 0 0 0 3.054-1.278l62.226-62.227a4.296 4.296 0 0 0 1.278-3.054v-56.443a4.344 4.344 0 0 0-4.332-4.332h-49.837c-3.856 0-5.783-4.657-3.054-7.386l55.967-55.967a4.296 4.296 0 0 0 1.278-3.054v-64.565a4.258 4.258 0 0 0-1.278-3.054l-.022-.044Zm-90.946 7.148 21.594 21.594a4.296 4.296 0 0 1 1.278 3.054v7.126a4.26 4.26 0 0 1-1.278 3.054l-21.594 21.594a4.296 4.296 0 0 1-3.054 1.278h-95.322a4.346 4.346 0 0 1-4.332-4.332v-50.314a4.345 4.345 0 0 1 4.332-4.332h95.322a4.26 4.26 0 0 1 3.054 1.278Zm-3.054 184.903h-95.322a4.345 4.345 0 0 1-4.332-4.331v-49.188a4.345 4.345 0 0 1 4.332-4.332h116.916a4.345 4.345 0 0 1 4.332 4.332v27.593a4.258 4.258 0 0 1-1.278 3.054l-21.594 21.594a4.291 4.291 0 0 1-3.054 1.278Zm211.861 67.187 75.655-131.059c2.21-3.834 8.079-2.274 8.079 2.166v126.727a4.346 4.346 0 0 0 4.332 4.332h72.515a4.34 4.34 0 0 0 3.747-2.166l182.568-316.223c1.66-2.88-.42-6.497-3.75-6.497h-75.028a4.34 4.34 0 0 0-3.747 2.165L845.62 439.488c-2.21 3.834-8.079 2.274-8.079-2.166v-36.365a4.345 4.345 0 0 0-4.332-4.332h-34.633c-3.335 0-5.415-3.617-3.747-6.498l67.88-117.609c1.667-2.88-.412-6.497-3.747-6.497h-75.027a4.338 4.338 0 0 0-3.747 2.165l-98.896 171.302c-2.209 3.834-8.079 2.274-8.079-2.166v-166.97a4.344 4.344 0 0 0-4.331-4.331h-64.999a4.344 4.344 0 0 0-4.332 4.331v316.223a4.345 4.345 0 0 0 4.332 4.332h72.514a4.337 4.337 0 0 0 3.747-2.166Z"/><defs><clipPath id="a"><path fill="#fff" d="M1271.29.004h729.088V166.97H1271.29z"/></clipPath></defs></svg>