<svg xmlns="http://www.w3.org/2000/svg" width="152" height="24" fill="none"><path fill="#F3F5F0" d="M132.277 22.593V.639h3.752v2.813C137.265 1.322 139.865 0 142.806 0c4.816 0 8.312 2.558 8.312 9.165v13.428h-3.835V9.72c0-4.093-2.003-6.096-5.33-6.096-3.752 0-5.84 2.558-5.84 6.224v12.745h-3.838.002Zm-13.214.639c-6.776 0-11.084-4.56-11.084-11.723C107.979 4.347 112.37 0 118.722 0c6.351 0 10.742 4.263 10.742 10.359 0 1.747 0 2.13-.086 2.516h-17.391c.255 4.305 2.941 6.949 7.118 6.949 2.941 0 4.988-1.278 6.01-3.625h3.966c-1.153 4.391-4.86 7.035-10.018 7.035v-.002ZM111.987 9.72h13.428c-.17-3.921-2.728-6.351-6.693-6.351-3.966 0-6.31 2.344-6.735 6.351ZM74.184 23.232c-4.432 0-7.673-2.389-7.673-6.521 0-4.133 2.941-6.01 6.393-6.65l5.371-1.022c1.833-.341 2.9-.81 2.9-2.471 0-1.92-1.62-3.197-4.86-3.197-2.644 0-4.946 1.066-5.244 3.496h-3.963c.255-4.305 4.177-6.862 9.25-6.862 6.139 0 8.655 3.069 8.655 6.693V17.95c0 1.022.469 1.536 1.322 1.536.724 0 1.15-.17 1.535-.425v3.11c-.597.511-1.62.853-2.855.853-1.791 0-3.325-1.15-3.708-3.027-1.022 1.45-3.155 3.24-7.118 3.24l-.005-.006Zm-3.707-6.65c0 2.217 1.874 3.283 4.39 3.283 3.538 0 6.31-2.002 6.31-5.115v-3.538c-.425.469-1.747.852-3.324 1.15l-3.58.683c-2.558.469-3.794 1.577-3.794 3.538h-.002Zm-15.491 6.011V.639h3.752v3.666C59.803 1.705 61.72.17 64.748.17c.638 0 1.28.127 1.619.213v3.922a8.123 8.123 0 0 0-1.791-.214c-3.752 0-5.755 2.941-5.755 7.63v10.87h-3.835v.002ZM48.263.639h4.946L44.34 9.334l9.334 13.259H49.2l-7.46-10.615-3.666 3.497v7.118h-3.835V.639h3.835v10.06L48.263.638Z"/><path fill="#F3F5F0" d="M103.67.639h4.946l-8.867 8.695 9.334 13.259h-4.477l-7.46-10.615-3.665 3.497v7.118h-3.836V.639h3.836v10.06L103.67.638ZM14.895 0C6.835 0 .3 6.619.3 14.785v6.335c0 1.166.931 2.11 2.084 2.11 1.152 0 2.09-.944 2.09-2.11v-6.335c0-1.169.93-2.114 2.084-2.114 1.155 0 2.084.943 2.084 2.114v6.335c0 1.166.932 2.11 2.084 2.11a2.097 2.097 0 0 0 2.086-2.11v-6.335c0-1.169.932-2.114 2.084-2.114 1.152 0 2.091.943 2.091 2.114v6.335c0 1.166.932 2.11 2.084 2.11 1.152 0 2.084-.944 2.084-2.11v-6.335a2.1 2.1 0 0 1 2.09-2.114c1.16 0 2.085.943 2.085 2.114v6.335c0 1.166.931 2.11 2.086 2.11a2.094 2.094 0 0 0 2.084-2.11v-6.335C29.498 6.619 22.96 0 14.895 0Z"/></svg>