<svg xmlns="http://www.w3.org/2000/svg" id="Layer_2" data-name="Layer 2" viewBox="0 0 1258.502 256.76"><defs><style>.cls-1{fill:#f3f5f0}</style></defs><g id="Layer_1-2" data-name="Layer 1"><path d="M366.2 42.196v73.737l68.446-73.737h45.464l-66.959 74.218 67.958 95.179h-40.968l-50.46-70.73L366.2 164.76v46.833h-34.972V42.196zm259.796 78.72c1.233-43.267 47.988-49.554 82.42-46.818 35.391 2.812 54.246 19.657 56.514 55.246 1.684 26.43-1.343 54.64-.042 81.252h-26.48l-5.509-13.951-2.755.284c-19.835 20.898-68.437 22.993-92.371 9.397-13.047-7.412-18.657-22.598-17.753-37.07 3.063-49 76.416-39.488 109.9-40.364 1.969-16.15-8.589-25.243-23.589-27.804-15.285-2.608-45.357-1.118-45.362 19.828zm104.923 31.882c-19.764 1.17-44.824-2.644-63.737 3.709-6.625 2.225-10.53 5.579-11.123 12.869-1.852 22.754 36.511 20.11 50.656 15.593 14.778-4.72 24.938-16.04 24.204-32.171m444.648-32.878h-32.974c-1.105-12.116-6.116-17.833-17.932-20.483-8.947-2.006-33.576-2.521-36.547 8.495-2.982 11.06 6.446 15.098 15.294 17.682 26.38 7.707 76.892 6.562 77.234 45.606.365 41.713-51.014 46.156-82.499 43.347-28.918-2.581-51.328-18.927-50.476-49.807h33.973c-.24 24.535 24.19 26.614 43.45 24.895 9.215-.822 19.972-4.382 19.59-15.44-.25-7.293-5.053-9.603-11.092-11.934-24.912-9.619-72.202-4.235-79.83-37.974-4.589-20.295 5.877-36.604 24.513-44.118 33.171-13.376 98.707-7.915 97.296 39.73Z" class="cls-1"/><path d="M505.09 77.072v79.218c0 30.035 42.716 37.342 61.963 20.936 5.707-4.865 11.98-17.422 11.98-24.922V77.072h33.973v134.52h-27.978c-1.154-2.935-3.337-16.037-6.484-15.954-.778.02-.619 1.6-1.564 2.4-28.516 24.137-84.532 23.87-100.347-14.366-1.1-2.66-4.517-13.211-4.517-15.425V77.072h32.975Zm410.68 134.521h-33.974v-81.211c0-6.557-6.849-16.929-12.078-20.838-12.727-9.514-36.573-8.013-49.086 1.47-5.613 4.254-12.778 18.534-12.778 25.347v75.232H774.88V78.068h26.48l5.507 15.941c23.331-26.325 80.324-27.542 99.733 3.667 3.767 6.058 9.17 21.852 9.17 28.72zm-749.764-6.328c11.28-11.172 22.502-22.439 33.85-33.504 11.6-11.313 22.652-23.714 34.997-33.958l3 .996 40.309 40.61-.834 2.834c-16.456 15.44-31.074 33.123-49.706 46.105-26.404 18.399-64.38 30.445-96.78 28.127-2.61-.187-11.948-.885-12.397-3.647 14.482-16.924 31.688-31.843 47.56-47.563ZM70.82 92.398c-8.697 8.406-17.317 16.974-25.825 25.587l-2.842.832L1.431 78.62c-1.592-1.823-1.253-4.05.49-5.603 19.05-17.578 36.032-37.773 58.597-51.168C85.773 6.857 119.403-1.764 148.91.304c3.457.243 13.422.572 9.5 5.57-29.105 28.94-58.079 58.004-87.59 86.524m1159.704-50.202v35.872h26.48l1.498 1.495v26.406h-26.48l-1.498 1.494v72.742l1.499 1.494h26.48v29.894h-15.489c-20.65 0-45.464-24.791-45.464-45.339V105.97h-17.986v-27.9h17.986V42.195zM126.756 227.893l-24.3 24.142c-14.949-2.615-29.94-9.313-42.933-17.11-22.308-13.387-39.263-33.117-58.044-50.68L0 179.67l40.932-40.9 2.543-.539L128.434 222c2.007 2.622 1.09 4.695-1.678 5.893m103.203-113.605-81.483-80.762.833-2.835 26.065-25.89c43.397 7.941 72.662 39.87 102.181 69.556l.554 2.075-41.837 42.042c-2.686 1.148-5.242-2.244-6.313-4.186m808.715-36.22v132.528h-31.476c-.304 0-1.498.008-1.498.008V78.068zM1005.7 42.196h31.975v25.908H1005.7zm-36.948 0v35.872h26.48l1.498 1.495v26.406h-26.48l-1.498 1.494v72.742l1.499 1.494h26.48v29.894h-15.489c-20.65 0-45.464-24.791-45.464-45.339V105.97h-17.986v-27.9h17.986V42.195z" class="cls-1"/></g></svg>