<svg xmlns="http://www.w3.org/2000/svg" width="157" height="32" fill="none" viewBox="0 0 157 32"><path fill="#6d05f1" d="m19.6.702-6.742 6.73L5.627 14.6a.35.35 0 0 1-.491 0L.174 9.646a.347.347 0 0 1 0-.493L3.85 5.512A19.02 19.02 0 0 1 19.404.124a.338.338 0 0 1 .196.578M5.063 17.096a.35.35 0 0 1 .492 0L15.9 27.352a.347.347 0 0 1 .002.492l-3.14 3.139a.34.34 0 0 1-.328.09 19 19 0 0 1-8.692-4.922l-3.64-3.607a.35.35 0 0 1 0-.493l4.962-4.954m14.866 8.62-5.224 5.22a.337.337 0 0 0 .195.577 19.02 19.02 0 0 0 15.561-5.388l3.683-3.65a.346.346 0 0 0 0-.492l-4.962-4.954a.347.347 0 0 0-.49 0l-8.763 8.684zM18.368 4.313a.346.346 0 0 1-.002-.492l3.141-3.14a.34.34 0 0 1 .328-.091 19 19 0 0 1 8.688 4.92l3.643 3.613a.346.346 0 0 1 0 .493l-4.961 4.954a.347.347 0 0 1-.49 0zM96.07 14.05q.614 1.554.614 3.573v9.088h-3.17l-.562-1.69c-1.351 1.487-3.465 2.217-6.135 2.217q-2.308.002-3.91-.709l-.002-.001c-1.05-.497-1.78-1.229-2.178-2.196q-.374-.888-.373-2.022-.001-1.195.373-2.086c.541-1.269 1.54-2.129 2.978-2.582q2.166-.671 5.461-.67h3.567v-.141a5 5 0 0 0-.058-.798 3.5 3.5 0 0 0-.2-.696c-.489-1.101-1.7-1.687-3.73-1.687-2.019 0-3.183.547-3.609 1.56l-.005.01q-.194.382-.194.787v.145h-3.961l.011-.156q.09-1.25.432-2.104v-.002l.001-.001c.518-1.2 1.42-2.068 2.694-2.609q1.9-.835 4.6-.834 2.851-.002 4.694.867c1.255.563 2.146 1.476 2.662 2.736zm-3.625 7.566q.318-.726.319-1.682v-.045h-3.447q-2.009 0-3.254.282c-.8.185-1.294.535-1.53 1.028a2 2 0 0 0-.138.731q0 .452.11.768c.202.46.58.795 1.15.995q.879.309 2.066.31 1.721-.001 2.983-.62c.839-.431 1.415-1.021 1.74-1.767M45 5v21.721h4.24v-5.888l3.166-3.39 6.647 9.278h4.937l-8.8-12.285L63.959 5h-5.729l-8.99 9.848V5zM126.601 8.483V5h3.797v3.483zM126.601 26.72V10.89h3.797v15.83zM140.045 16.756l-.215-.049h-.001a61 61 0 0 0-.854-.188l-.066-.014h-.003q-.374-.079-.713-.156c-.496-.112-.925-.226-1.278-.37-.353-.145-.612-.313-.782-.522-.168-.205-.265-.466-.265-.83 0-.483.222-.885.677-1.178.467-.299 1.184-.485 2.155-.485 1.258 0 1.999.314 2.452.743.456.431.657 1.013.764 1.625l.034.197h3.684l-.019-.256c-.116-1.463-.717-2.823-1.871-3.815-1.152-.99-2.833-1.596-5.076-1.596-2.065 0-3.719.54-4.863 1.444-1.146.906-1.767 2.168-1.767 3.574 0 .957.228 1.724.621 2.34.393.614.942 1.065 1.562 1.41 1.053.584 2.349.877 3.492 1.136h.002l.551.126q.44.104.836.192.418.093.835.194c.511.126.957.258 1.325.43.366.17.643.376.83.64.185.262.295.6.295 1.067 0 .83-.814 1.916-3.054 1.916-1.68 0-2.654-.366-3.229-.898-.574-.532-.794-1.268-.87-2.116l-.02-.215h-3.694l.012.248c.081 1.761.703 3.294 1.999 4.383 1.291 1.084 3.22 1.701 5.865 1.701 1.998 0 3.698-.49 4.906-1.401 1.213-.915 1.915-2.243 1.915-3.87 0-1-.209-1.808-.583-2.466-.372-.657-.899-1.15-1.515-1.536-1.161-.724-2.661-1.075-4.074-1.405M98.432 10.89v15.832h3.798v-9.404c0-2.122 1.551-3.515 3.861-3.515s3.861 1.393 3.861 3.515v9.404h3.798v-9.847c0-3.863-2.88-6.428-7.216-6.428-1.551 0-3.26.633-4.304 1.615l-.803-1.171zM116.953 10.89h-2.532v3.166h2.532V20.7a6.02 6.02 0 0 0 6.019 6.022h1.381v-.008l.001.008h.355v-3.167h-2.837a1.12 1.12 0 0 1-1.121-1.122v-8.377h3.988v-3.167h-3.988V5h-3.798zm29.169 0h2.533V5h3.797v5.89h3.988v3.166h-3.988v8.377c0 .62.502 1.122 1.121 1.122h2.837v3.167h-.355l-.001-.008v.008h-1.38a6.02 6.02 0 0 1-6.019-6.022v-6.644h-2.533zM154.389 5h.897v.236h-.301v.72h-.295v-.72h-.301zm1.028 0h.388l.15.582.149-.582h.386v.956h-.241v-.729l-.186.729h-.218l-.187-.729v.729h-.241z"/><path fill="#6d05f1" d="M78.687 26.72V10.89H74.89v9.404c0 2.122-1.552 3.515-3.862 3.515s-3.861-1.393-3.861-3.515V10.89H63.37v9.847c0 3.863 2.879 6.428 7.215 6.428 1.55 0 3.26-.634 4.304-1.615l.803 1.171z"/></svg>