<svg xmlns="http://www.w3.org/2000/svg" data-name="Layer 2" viewBox="0 0 448.6 103.7"><path d="M353.1 51.85c0-2.7 0-5.2-.1-7.5s-.3-4.5-.6-6.4c-.3-2-.9-3.8-1.8-5.6-.8-1.8-2.1-3.4-3.6-5-2.2-2.2-4.6-3.8-7.3-5-2.7-1.1-5.8-1.8-9.3-1.8s-6.6.6-9.3 1.8c-2.7 1.1-5.2 2.8-7.4 5-1.6 1.6-2.7 3.2-3.5 5s-1.5 3.6-1.8 5.6-.5 4.1-.6 6.4-.1 4.8-.1 7.5 0 5.1.1 7.5c.1 2.3.3 4.5.6 6.4.3 2 .9 3.8 1.8 5.6.8 1.8 2.1 3.4 3.5 5 2.2 2.2 4.6 3.8 7.4 5 2.7 1.1 5.8 1.8 9.3 1.8s6.5-.6 9.3-1.8c2.7-1.1 5.2-2.8 7.3-5 1.6-1.6 2.7-3.2 3.6-5 .8-1.8 1.5-3.6 1.8-5.6s.6-4.1.6-6.4c.1-2.5.1-4.8.1-7.5m-11.9 0c0 2.9 0 5.4-.1 7.4s-.2 3.5-.5 4.8c-.2 1.2-.5 2.3-.9 3-.4.8-.8 1.6-1.5 2.2-.8 1-2 1.8-3.2 2.4-1.3.6-2.8.8-4.5.9-1.7 0-3.1-.3-4.5-.9-1.3-.6-2.4-1.3-3.3-2.4-.6-.6-1-1.3-1.5-2.2q-.6-1.2-.9-3c-.2-1.2-.4-2.8-.4-4.8-.1-2-.1-4.4-.1-7.4 0-2.9 0-5.4.1-7.4s.2-3.5.4-4.8.5-2.3.9-3c.4-.8.8-1.6 1.5-2.2.8-1 2-1.8 3.3-2.4s2.8-.8 4.5-.9c1.7 0 3.1.3 4.5.9 1.2.6 2.4 1.3 3.2 2.4.6.6 1 1.3 1.5 2.2q.6 1.2.9 3c.3 1.8.4 2.8.5 4.8 0 2 .1 4.5.1 7.4m107.4-29.7c0-.6-.5-1-1-1h-9.8c-.6 0-1 .5-1 1v36.6l-24.1-37.3c-.2-.2-.3-.3-.6-.3h-9.2c-.5 0-1 .5-1 1v59.2c0 .6.5 1 1 1h9.8c.6 0 1-.5 1-1v-36.7l24.1 37.4c.2.2.3.3.6.3h9.2c.6 0 1-.5 1-1zm-66.3 0c0-.6-.5-1-1-1h-9.8c-.6 0-1 .5-1 1v59.2c0 .6.5 1 1 1h9.8c.6 0 1-.5 1-1zm-118.2 29.7c0-2.9 0-5.4.1-7.4s.2-3.5.4-4.8c.9-5.3 5-8.4 10.2-8.4 3.4 0 6.4 1.2 8.4 4.1.8 1.2 1.5 2.7 1.9 4.4q0 .3.3.3H297c.2 0 .2-.1.2-.3-1.2-7.1-5.1-13.7-11.9-16.9-3.1-1.5-6.7-2.3-10.7-2.3-6.5 0-12.1 2.3-16.6 6.7-2.6 2.6-4.2 5.7-5 9.2-.7 3.4-1 8.5-1 15.2s.3 11.8 1 15.2c.7 3.5 2.5 6.6 5 9.2 4.5 4.5 10 6.7 16.6 6.7 3.9 0 7.5-.7 10.7-2.3 6.7-3.2 10.7-9.6 11.9-16.9 0-.2 0-.3-.2-.3h-11.6q-.3 0-.3.3c-.4 1.7-1 3.1-1.9 4.4-2 2.8-5 4-8.4 4.1-5.2 0-9.2-3.1-10.2-8.4-.2-1.2-.4-2.8-.4-4.8-.1-1.6-.1-4.1-.1-7m-122.8-29.7c0-.6-.5-1-1-1h-9.8c-.6 0-1 .5-1 1v59.2c0 .6.5 1 1 1h9.8c.6 0 1-.5 1-1v-17.4l8-9.5 16.3 27.7q.15.3.6.3h12c.5 0 .6-.3.4-.8l-21.3-36.1 19.6-23.5c.4-.5.2-.9-.4-.9h-13.2c-.2 0-.3 0-.4.2l-21.6 25.7zm72 50.2c-5.6 0-10.6-5.2-10.6-11.3v-38.8c0-.6-.5-1-1-1h-9.8c-.6 0-1 .5-1 1v38.7c0 13.6 10.2 22.2 22.6 22.2s22.6-8.6 22.6-22.2v-38.7c0-.6-.5-1-1-1h-9.8c-.6 0-1 .5-1 1v38.8c-.5 6.1-5.5 11.3-11 11.3M29.9 51.85l30.7 30.7L80 63.15c3.4-3.4 9-3.4 12.4 0s3.4 9 0 12.4l-25.6 25.6c-3.4 3.4-9 3.4-12.4 0l-36.8-36.9v22c0 4.8-3.9 8.8-8.8 8.8S0 91.15 0 86.25v-68.6c0-4.9 3.9-8.8 8.8-8.8s8.8 3.9 8.8 8.8v21.8l36.9-36.9c3.4-3.4 9-3.4 12.4 0l25.6 25.6c3.4 3.4 3.4 9 0 12.4s-9 3.4-12.4 0l-19.4-19.4zm30.8-8.8c-4.9 0-8.8 3.9-8.8 8.8s3.9 8.8 8.8 8.8 8.8-3.9 8.8-8.8c-.1-4.9-4-8.8-8.8-8.8" data-name="图层 1" style="fill:#f3f5f0"/></svg>