<svg width="152" height="32" viewBox="0 0 152 32" fill="none" xmlns="http://www.w3.org/2000/svg">
<path d="M27.5418 24.6654L24.0464 21.1786L21.1686 24.0616L24.649 27.5484H20.2646V31.639H31.6098V20.2578H27.5418V24.6654Z" fill="#129A44"/>
<path d="M20.2646 4.40696H24.6491L21.1686 7.89374L24.0464 10.7767L27.5419 7.28997V11.6975H31.6099V0.316406H20.2646V4.40696Z" fill="#129A44"/>
<path d="M0.360352 11.6975H4.42833V7.28997L7.90871 10.7767L10.8015 7.89374L7.32111 4.40696H11.7055V0.316406H0.360352V11.6975Z" fill="#129A44"/>
<path d="M10.8015 24.0616L7.90871 21.1786L4.42833 24.6654V20.2578H0.360352V31.639H11.7055V27.5484H7.32111L10.8015 24.0616Z" fill="#129A44"/>
<path d="M144.595 18.7305L150.516 24.6625V18.7305H144.595Z" fill="#129A44"/>
<path d="M15.9857 21.734L11.8574 17.6133H6.08691L15.9857 27.5152L25.8693 17.6133H20.1139L15.9857 21.734Z" fill="white"/>
<path d="M6.08691 14.3394H11.8574L15.9857 10.2187L20.1139 14.3394H25.8693L15.9857 4.4375L6.08691 14.3394Z" fill="white"/>
<path d="M18.8333 27.5469H13.123V31.6374H18.8333V27.5469Z" fill="white"/>
<path d="M18.8333 0.316406H13.123V4.40699H18.8333V0.316406Z" fill="white"/>
<path d="M45.0792 2.35547H41.5234V23.3969H45.0792V2.35547Z" fill="white"/>
<path d="M53.1247 8.58931L46.646 13.827C46.4502 13.978 45.1846 15.1101 45.1846 15.1101C45.1846 15.1101 46.1488 16.1063 46.5406 16.4837L53.6972 23.3969H58.8199L50.4579 15.3214L58.8199 8.57422H53.1247V8.58931Z" fill="white"/>
<path d="M73.5254 19.8361H65.736C64.9977 19.8361 64.2745 19.2022 64.2745 18.4022V8.62109H60.7188V18.4173C60.7188 18.5531 60.7338 18.689 60.7489 18.8248V23.3984H65.7058H67.1824L67.3029 23.4889V23.3984H73.5254V24.8172C73.5254 25.2852 73.4049 25.6323 73.1638 25.8889C72.9228 26.1304 72.5762 26.2512 72.0941 26.2512H65.6908V29.8134H72.0941C72.4256 29.8134 72.7872 29.7682 73.1638 29.6927C73.5405 29.6172 73.9021 29.4965 74.2788 29.3304C74.6404 29.1644 75.002 28.9531 75.3335 28.6965C75.6649 28.4399 75.9663 28.1229 76.2224 27.7455C76.4785 27.3833 76.6744 26.9455 76.8401 26.4625C76.9908 25.9795 77.0661 25.421 77.0661 24.8172V8.62109H73.5254V19.8361Z" fill="white"/>
<path d="M84.2978 8.72675C83.9211 8.80222 83.5444 8.92298 83.1828 9.08902C82.8212 9.25505 82.4596 9.46637 82.1282 9.72297C81.7967 9.97957 81.4954 10.2966 81.2392 10.6739C80.9831 11.0362 80.7722 11.4739 80.6215 11.9569C80.4708 12.4399 80.3955 12.9833 80.3955 13.6022V23.4134H83.9211V13.738V13.5871C83.9211 13.1192 83.9211 12.1682 83.9211 12.1682C83.9211 12.1682 84.9005 12.1682 85.3826 12.1682H85.4881H93.383V8.62109H85.3675C85.036 8.62109 84.6745 8.65128 84.2978 8.72675Z" fill="white"/>
<path d="M99.4697 8.72675C99.093 8.80222 98.7163 8.92298 98.3547 9.08902C97.9931 9.25505 97.6315 9.46637 97.3 9.72297C96.9686 9.97957 96.6673 10.2966 96.4111 10.6739C96.155 11.0362 95.944 11.4739 95.7934 11.9569C95.6427 12.4399 95.5674 12.9833 95.5674 13.6022V23.4134H99.1231V13.738V13.5871C99.1231 13.1192 99.1231 12.1682 99.1231 12.1682C99.1231 12.1682 100.102 12.1682 100.585 12.1682H100.69H108.585V8.62109H100.57C100.193 8.62109 99.8463 8.65128 99.4697 8.72675Z" fill="white"/>
<path d="M126.696 13.5111C126.696 12.6205 126.531 11.8658 126.199 11.2319C125.868 10.613 125.461 10.0998 124.979 9.70735C124.497 9.3149 123.969 9.0432 123.397 8.86207C122.824 8.69603 122.297 8.60547 121.8 8.60547H115.411C115.366 8.60547 115.321 8.60547 115.276 8.60547H110.515V13.496V18.4922C110.515 19.3827 110.68 20.1375 111.012 20.7714C111.343 21.3903 111.75 21.9035 112.232 22.2959C112.714 22.6884 113.242 22.9601 113.814 23.1412C114.387 23.3072 114.914 23.3978 115.411 23.3978H121.815L125.129 20.0016H115.441C115.005 20.0016 114.643 19.8658 114.342 19.6092C114.04 19.3375 113.905 18.9752 113.905 18.5073V18.4167H121.83C122.719 18.4167 123.472 18.2507 124.105 17.9186C124.723 17.5865 125.235 17.179 125.627 16.696C126.018 16.213 126.289 15.6847 126.47 15.1111C126.606 14.5375 126.696 14.0092 126.696 13.5111ZM122.93 14.5828C122.658 14.8847 122.297 15.0205 121.815 15.0205H113.89V13.5262C113.89 13.0885 114.025 12.7262 114.281 12.4243C114.553 12.1224 114.914 11.9866 115.396 11.9866H121.8C122.221 11.9866 122.568 12.1224 122.869 12.379C123.171 12.6507 123.306 13.013 123.306 13.4658C123.321 13.9186 123.186 14.2809 122.93 14.5828Z" fill="white"/>
<path d="M138.101 15.5946L144.474 8.62109H139.593L135.645 12.8928L131.728 8.62109H126.861L133.205 15.5644L126.048 23.3983H130.945L135.675 18.2361L140.391 23.3983H145.273L138.101 15.5946Z" fill="white"/>
</svg>
