<svg xmlns="http://www.w3.org/2000/svg" width="912" height="241" fill="none" viewBox="0 0 912 241"><path fill="#f2f2f2" d="M109.911 139.756c16.401-9.507 27.426-27.259 27.426-47.593V68.837C137.337 31.1 106.752.5 69.015.5S.678 31.1.678 68.837v24.996h41.655v1.625a54 54 0 0 0-14.23 5.786C11.704 110.751.679 128.503.679 148.837v23.326C.678 209.9 31.262 240.5 69 240.5s68.337-30.6 68.337-68.337v-24.996H95.682v-1.625a54.1 54.1 0 0 0 14.229-5.786M82.348 180.5c0 7.365-5.968 13.333-13.333 13.333s-13.333-5.968-13.333-13.333v-120c0-7.365 5.968-13.333 13.333-13.333S82.348 53.135 82.348 60.5zM220.924 68.831h-20.246v103.271h59.426v-19.47h-39.177zM324.944 107.051a28.8 28.8 0 0 0-10.671-8.276 28.7 28.7 0 0 0-13.247-2.494 33.1 33.1 0 0 0-13.801 2.899 33.2 33.2 0 0 0-11.364 8.392 41.67 41.67 0 0 0-10.492 27.663 41.67 41.67 0 0 0 10.492 27.663 33.3 33.3 0 0 0 11.365 8.387 33.1 33.1 0 0 0 13.8 2.897q15.407 0 23.918-10.77v8.707h18.929V98.354h-18.929zm-5.794 43.156a19.8 19.8 0 0 1-6.701 4.431 19.7 19.7 0 0 1-7.9 1.395 19.4 19.4 0 0 1-7.869-1.388 19.6 19.6 0 0 1-6.661-4.437 22.43 22.43 0 0 1-5.724-14.976c0-5.533 2.04-10.867 5.724-14.977a19.6 19.6 0 0 1 6.661-4.434 19.5 19.5 0 0 1 7.868-1.39c2.7-.08 5.388.395 7.898 1.397a19.8 19.8 0 0 1 6.701 4.429 22.23 22.23 0 0 1 5.794 14.976 22.23 22.23 0 0 1-5.794 14.977zM392.643 147.926l-19.137-49.58h-20.69l30.072 71.408a22.7 22.7 0 0 1-7.118 10.918 18.96 18.96 0 0 1-12.108 3.248v17.707a34.7 34.7 0 0 0 23.523-6.424q9.444-7.165 15.171-22.963l26.749-73.886h-20.251l-16.211 49.575zM470.068 96.268c-5.16-.183-10.3.713-15.102 2.631a37.3 37.3 0 0 0-12.773 8.511 40.9 40.9 0 0 0-10.863 27.873 40.9 40.9 0 0 0 11.005 27.818q11.006 11.062 29.202 11.065 21.123 0 31.988-15.783l-15.262-8.855a19.35 19.35 0 0 1-7.314 5.725 19.26 19.26 0 0 1-9.122 1.651q-16.878-.001-20.688-13.865h55.319c.471-2.582.717-5.2.732-7.824a39.09 39.09 0 0 0-10.489-27.736 35 35 0 0 0-12.113-8.498 34.8 34.8 0 0 0-14.52-2.713m-19.219 32.015a18.68 18.68 0 0 1 6.597-10.995 19.87 19.87 0 0 1 12.618-3.909 19.07 19.07 0 0 1 11.524 3.69 17.88 17.88 0 0 1 6.676 11.209zM539.328 111.019v-12.69H520.4v73.766h18.928v-35.259q0-10.623 6.823-15.199a22.2 22.2 0 0 1 15.483-3.539v-21.24a26.5 26.5 0 0 0-13.575 3.542 19.83 19.83 0 0 0-8.731 10.619M653.919 84.804V68.832h-67.327V88.31h41.675l-42.759 67.532v16.261h69.23v-19.47h-43.583zM699.423 96.268a37.2 37.2 0 0 0-15.103 2.631 37.3 37.3 0 0 0-12.777 8.511 40.89 40.89 0 0 0-10.861 27.875 40.88 40.88 0 0 0 11.01 27.816q11.007 11.062 29.196 11.065 21.123 0 31.988-15.783l-15.262-8.855a19.4 19.4 0 0 1-7.309 5.725 19.3 19.3 0 0 1-9.122 1.651q-16.876-.001-20.688-13.865h55.32c.47-2.582.716-5.2.732-7.824a39.1 39.1 0 0 0-10.489-27.736 35 35 0 0 0-12.114-8.498 34.8 34.8 0 0 0-14.521-2.713M680.2 128.283a18.7 18.7 0 0 1 6.606-10.995 19.84 19.84 0 0 1 12.618-3.909 19.04 19.04 0 0 1 11.52 3.69 17.83 17.83 0 0 1 6.672 11.209zM768.678 111.019v-12.69H749.75v73.766h18.928v-35.259q0-10.623 6.823-15.199a22.2 22.2 0 0 1 15.482-3.539v-21.24a26.5 26.5 0 0 0-13.575 3.542 19.83 19.83 0 0 0-8.729 10.619zM834.139 96.254a38.34 38.34 0 0 0-24.265 9.017 38.72 38.72 0 0 0-13.097 22.433 38.84 38.84 0 0 0 4.003 25.698 38.54 38.54 0 0 0 19.285 17.336 38.27 38.27 0 0 0 25.845 1.133 38.47 38.47 0 0 0 20.712-15.586 38.83 38.83 0 0 0 6.208-25.249 38.74 38.74 0 0 0-11.107-23.493 37.4 37.4 0 0 0-12.625-8.524 37.2 37.2 0 0 0-14.959-2.765m14.234 53.555a19.3 19.3 0 0 1-6.528 4.353 19.2 19.2 0 0 1-7.707 1.393 19 19 0 0 1-7.681-1.385 19.1 19.1 0 0 1-6.483-4.361 21.7 21.7 0 0 1-5.652-14.608 21.7 21.7 0 0 1 5.652-14.606 19.014 19.014 0 0 1 14.164-5.748 19.3 19.3 0 0 1 7.707 1.393 19.3 19.3 0 0 1 6.528 4.354 21.49 21.49 0 0 1 5.722 14.606 21.5 21.5 0 0 1-5.722 14.609M911.322 150.517h-21.64v21.648h21.64z"/></svg>