<svg xmlns="http://www.w3.org/2000/svg" width="122" height="32" fill="none" viewBox="0 0 122 32"><path fill="#fff" d="M4.557 11.642h9.113v3.417H0V.246h4.557v11.396M29.168 3.664h-9.114v2.278h9.114V9.36h-9.114v2.278h9.114v3.418h-13.67V.246h13.67zM41.472 13.235h-5.674l-.707 1.824H30.08L36.118.246h5.012l6.038 14.81h-5.011s-.272-.774-.685-1.824zM39.763 8.79c-.957-2.55-.912-5.126-.912-5.126h-.454s.09 2.598-.912 5.126l-.387 1.024h3.075a23 23 0 0 0-.41-1.024M61.866 15.06h-4.557c0-2.12-.023-2.871-.455-3.873-.57-1.366-1.708-1.824-3.19-1.824H52.41v5.696h-4.557V.246h8.339c4.307 0 5.446 1.936 5.446 3.988 0 1.708-1.41 3.075-4.784 3.075H55.83v.454c5.812 0 6.039 4.445 6.039 7.293zM52.41 6.172h3.03c.867 0 1.642-.387 1.642-1.255s-.775-1.254-1.642-1.254h-3.03v2.509M79.437 15.06h-4.58l-3.19-4.263-5.219-6.903h-.454s2.05 2.394 2.05 5.242v5.923h-4.578V.246h4.556l.023-.022v.022l8.432 11.165h.454S74.88 9.018 74.88 6.17V.246h4.557V15.06M85.818.246v14.81H81.26V.246zM103.613 15.06h-4.58l-3.19-4.263-5.219-6.903h-.454s2.05 2.394 2.05 5.242v5.923h-4.578V.246h4.556l.023-.022v.022l8.432 11.165h.454s-2.051-2.393-2.051-5.241V.246h4.557V15.06M121.728 15.06h-4.374c-.09 0-.183-.09-.183-.206 0-.09.023-.182.09-.227.784-.63 1.321-1.488 1.667-2.297h-.502c-1.002 2.016-3.146 2.934-5.7 2.934-3.532 0-7.52-2.848-7.52-7.632 0-4.147 3.053-7.632 8.637-7.632 3.738 0 6.403 1.366 7.427 3.85l-4.307 1.664c-.592-1.322-1.526-2.096-3.097-2.096-2.279 0-3.872 1.619-3.872 4.214s1.481 4.214 3.76 4.214c1.571 0 2.758-.662 2.94-1.388h-2.94V7.062h7.974zM42.64 31.77h-4.557v-5.696h-6.835v5.696h-4.557V16.96h4.557v5.696h6.835V16.96h4.557zM58.138 20.378h-9.114v2.278h9.114v3.418h-9.114v2.278h9.114v3.418h-13.67V16.96h13.67zM73.974 31.77h-4.556c0-2.119-.023-2.87-.455-3.872-.57-1.367-1.709-1.824-3.19-1.824h-1.255v5.696h-4.556V16.96H68.3c4.307 0 5.446 1.936 5.446 3.987 0 1.709-1.411 3.075-4.784 3.075H67.94v.455c5.811 0 6.039 4.445 6.039 7.293zm-9.456-8.887h3.03c.868 0 1.642-.387 1.642-1.254s-.774-1.255-1.641-1.255h-3.03v2.509M74.205 24.365c0-4.147 3.053-7.632 8.637-7.632s8.681 3.485 8.681 7.632-3.097 7.632-8.681 7.632-8.637-3.485-8.637-7.632m8.656-4.218c-2.279 0-3.872 1.62-3.872 4.215s1.593 4.214 3.872 4.214 3.76-1.62 3.76-4.214c0-2.596-1.482-4.215-3.76-4.215M106.326 20.378h-9.113v2.278h9.113v3.418h-9.113v2.278h9.113v3.418h-13.67V16.96h13.67zM121.728 27.213c0 3.533-3.738 4.784-7.155 4.784-2.915 0-5.856-.912-7.427-1.936 1.593-3.075.204-.343 1.801-3.418.867.57 3.191 1.594 5.469 1.594 1.869 0 2.758-.365 2.758-1.255-.022-2.505-9.34.116-9.34-5.58 0-3.076 2.598-4.672 6.288-4.672 3.097 0 5.219.819 7.155 1.958-1.594 3.053-1.619 3.053-1.619 3.053-2.368-1.824-7.268-2.279-7.268-.455 0 2.19 9.341.116 9.341 5.924z"/></svg>