<svg xmlns="http://www.w3.org/2000/svg" fill-rule="evenodd" stroke-linejoin="round" stroke-miterlimit="2" clip-rule="evenodd" viewBox="0 0 2000 458"><path fill="#e7e7e9" fill-rule="nonzero" d="M764.649 281.368v73.222l-226.723.22-.441-251.866h73.221v178.644zm285.609-.221v73.222l-252.307.441-.44-252.087 252.085-.44v73.221l-178.864.221v16.32l179.085-.22v73.156l-179.085.22v16.321zm357.728-178.975.22 252.087h-73.221V247.734l-57.343 107.407h-64.4l-57.783-107.186V354.7h-73.001V102.613h78.074l84.91 157.957 84.47-158.133zm296.46 126.088v.22c0 69.085-56.848 125.933-125.933 125.933h-23.046c-69.147 0-126.044-56.897-126.044-126.043 0-69.02 56.692-125.863 125.712-126.044h23.334c69.093 0 125.953 56.84 125.977 125.934m-73.001 0c-.084-29.007-23.925-52.848-52.932-52.932h-22.716c-29.037 0-52.932 23.894-52.932 52.932 0 29.037 23.895 52.931 52.932 52.931h22.496c29.079.013 53.044-23.852 53.152-52.931m368.491 126.286h-83.147l-119.096-147.547.221 147.767h-73.222l-.44-252.087h83.146l119.095 147.988-.44-147.988h73.221zM228.505-.001C103.117-.001-.063 103.179-.063 228.567s103.18 228.569 228.568 228.569c125.387 0 228.568-103.18 228.568-228.569C456.963 103.22 353.852.108 228.505 0zm119.89 239.206a16.9 16.9 0 0 1-4.888 2.875 26 26 0 0 1-6.325 1.725 43.5 43.5 0 0 1-14.95-.287 97.3 97.3 0 0 1-31.626-12.65 190 190 0 0 1-28.463-21.564 410 410 0 0 1-12.938-12.937c-4.025-4.313-8.338-9.2-12.075-14.088-1.541-2.065-4.465-2.573-6.613-1.15-2.326 1.449-3.096 4.525-1.725 6.9 3.45 5.463 7.188 10.638 10.925 15.813s8.05 10.063 12.363 14.95a192.7 192.7 0 0 0 28.75 26.45 116.6 116.6 0 0 0 36.227 18.401 102 102 0 0 0 13.513 2.588 3.35 3.35 0 0 1 3.188 3.332q0 .202-.026.406a2.2 2.2 0 0 1-.575 1.437 176.4 176.4 0 0 1-27.025 34.789c-31.914 31.913-72.74 49.45-109.828 49.45a100.1 100.1 0 0 1-44.851-9.774l-3.163-1.438a3.65 3.65 0 0 0-3.45 0l-2.875 2.013a29.2 29.2 0 0 1-15.813 4.887 16.44 16.44 0 0 1-12.65-4.887c-6.038-6.038-6.325-17.538-.287-27.601l1.725-3.163a3.65 3.65 0 0 0 0-3.45l-1.725-3.162c-15.813-29.901-14.663-69.29 1.437-105.803a3.455 3.455 0 0 1 4.6-1.725c.825.25 1.475.9 1.725 1.725a132 132 0 0 0 12.075 22.713 179 179 0 0 0 25.014 30.188 154 154 0 0 0 14.375 12.938 307 307 0 0 0 15.238 11.788 4.93 4.93 0 0 0 3.019 1.035c2.696 0 4.916-2.22 4.916-4.916 0-1.516-.702-2.95-1.898-3.882-4.6-4.025-9.2-8.338-13.512-12.65s-8.338-8.913-12.363-13.513a185.3 185.3 0 0 1-20.126-29.613 92.5 92.5 0 0 1-10.637-32.201 43.5 43.5 0 0 1 0-14.95 46 46 0 0 1 2.012-5.75l1.15-1.726a136 136 0 0 1 10.638-11.5c46.863-47.151 112.127-62.677 158.129-37.951l3.45 1.725a3.65 3.65 0 0 0 3.45 0l3.162-2.013c10.638-6.9 22.713-7.187 29.326-.575 6.613 6.613 6.325 19.263-1.15 30.189l-2.3 2.875a3.71 3.71 0 0 0-.288 3.45l1.725 3.45c11.788 25.013 12.363 56.064 2.013 86.827"/></svg>