<svg viewBox="0 0 1200 1200" xmlns="http://www.w3.org/2000/svg" fill-rule="evenodd" clip-rule="evenodd" stroke-linejoin="round" stroke-miterlimit="2"><path d="M600.002 0c-329.149 0-600 270.852-600 600.001 0 329.15 270.851 600.001 600 600.001 329.15 0 600-270.851 600-600v-.265C1200.002 270.733 929.27 0 600.267 0h-.265zM915.57 628.356a82.928 82.928 0 0 1-13.23 8.335 73.765 73.765 0 0 1-16.624 4.807 123.172 123.172 0 0 1-39.424 0 261.325 261.325 0 0 1-83.081-33.206 457.504 457.504 0 0 1-74.703-56.755c-11.774-10.363-22.843-22.049-33.911-33.911-11.069-11.863-21.476-24.916-31.178-36.646a12.275 12.275 0 0 0-10.006-5.173c-2.619 0-5.172.838-7.28 2.395-5.993 3.858-7.845 11.902-4.145 17.992 8.996 13.847 18.684 27.694 29.06 41.54 10.363 13.803 20.77 26.46 31.84 39.424A479.486 479.486 0 0 0 739 646.348a311.712 311.712 0 0 0 94.81 49.831 203.37 203.37 0 0 0 35.985 6.924c4.908.44 8.621 4.785 8.29 9.702a9.613 9.613 0 0 1-1.367 4.145 459.955 459.955 0 0 1-71.968 91.327c-75.536 79.192-179.202 125.69-288.579 129.429a269.425 269.425 0 0 1-118.227-24.872l-8.334-4.145a10.358 10.358 0 0 0-8.82 0l-7.585 4.85a82.392 82.392 0 0 1-42.246 13.23 45.343 45.343 0 0 1-33.206-12.435c-15.88-21.547-15.88-51.128 0-72.674l4.85-8.335a10.358 10.358 0 0 0 0-8.82l-4.32-8.687c-42.247-78.892-38.763-182.699 4.144-278.877a8.833 8.833 0 0 1 8.212-5.6c1.225 0 2.443.255 3.563.749a8.477 8.477 0 0 1 4.85 4.85 316.466 316.466 0 0 0 29.061 57.328 510.227 510.227 0 0 0 65.707 78.23c11.774 11.73 24.915 23.505 37.395 33.912 12.48 10.407 26.459 21.432 40.13 31.134a13.25 13.25 0 0 0 6.543 1.733c7.259 0 13.23-5.971 13.23-13.23 0-3.14-1.116-6.178-3.149-8.568-11.774-10.407-23.548-21.476-35.278-32.545-11.069-11.774-22.05-23.504-32.5-35.278a455.844 455.844 0 0 1-52.61-78.23 260.71 260.71 0 0 1-29.06-84.405 126.118 126.118 0 0 1 0-39.688 97.834 97.834 0 0 1 4.85-15.214c0-1.367 2.073-3.44 2.778-4.85 8.82-10.364 17.992-20.727 27.65-30.429 124.577-124.577 294.84-164.707 415.229-99.662l8.82 4.851a8.346 8.346 0 0 0 9.701 0l8.29-5.556c22.296-17.961 54.232-18.38 76.996-1.014 17.882 23.61 17.013 56.732-2.073 79.376l-5.512 8.29a7.164 7.164 0 0 0 0 8.82l4.145 8.82c31.235 72.224 33.449 153.78 6.174 227.591z" fill="#00f068" fill-rule="nonzero"/></svg>