<svg xmlns="http://www.w3.org/2000/svg" width="106" height="42" fill="none" viewBox="0 0 106 42"><g fill="#000" clip-path="url(#a)"><path d="M28.586 30.353V11.359h2.302V28.31h8.835v2.04zm13.358 0V16.106h2.19v14.245zm1.113-16.62a1.57 1.57 0 0 1-1.106-.436 1.4 1.4 0 0 1-.452-1.049q0-.612.454-1.047a1.57 1.57 0 0 1 1.104-.437q.637 0 1.096.437.462.435.462 1.047t-.462 1.05a1.53 1.53 0 0 1-1.096.434m9.796 22.257q-1.587 0-2.729-.407a5.8 5.8 0 0 1-1.902-1.058 5.8 5.8 0 0 1-1.198-1.39l1.746-1.225q.296.39.752.89.454.51 1.242.882.8.379 2.089.379 1.725 0 2.848-.833 1.122-.836 1.123-2.617v-2.892h-.186q-.24.39-.686.965-.437.566-1.262 1.01-.816.438-2.208.438-1.726 0-3.1-.817-1.364-.816-2.162-2.375-.79-1.555-.79-3.783 0-2.189.771-3.812.771-1.633 2.144-2.523 1.372-.9 3.174-.9 1.392 0 2.209.465.823.453 1.262 1.037.444.577.686.947h.222v-2.262h2.117v14.653q0 1.836-.836 2.986-.826 1.157-2.228 1.697a8.3 8.3 0 0 1-3.098.545m-.075-7.826q1.319 0 2.229-.602.908-.603 1.381-1.734.473-1.133.473-2.709 0-1.538-.464-2.716t-1.373-1.847q-.91-.668-2.246-.666-1.391 0-2.319.703-.918.704-1.383 1.893a7.3 7.3 0 0 0-.454 2.633q0 1.483.463 2.626.474 1.13 1.393 1.78.927.64 2.3.64m11.39-6.38v8.569h-2.19V11.359h2.19v6.973h.185a4 4 0 0 1 1.504-1.752q1.01-.66 2.69-.66 1.458 0 2.552.586 1.095.574 1.7 1.771.611 1.188.612 3.023v9.05h-2.192v-8.902q0-1.697-.88-2.625-.874-.935-2.422-.935-1.077 0-1.93.454a3.3 3.3 0 0 0-1.336 1.326q-.483.873-.483 2.115m18.402-5.678v1.855h-7.387v-1.853zm-5.233-3.412h2.19V26.27q0 .929.269 1.393c.157.279.407.495.705.612q.435.148.92.148.36 0 .593-.038l.37-.073.446 1.966a5 5 0 0 1-.622.166q-.5.103-1.01.094a4.4 4.4 0 0 1-1.821-.4 3.57 3.57 0 0 1-1.465-1.214q-.575-.816-.575-2.059zm13.305 17.954q-2.06 0-3.555-.908a6.1 6.1 0 0 1-2.292-2.56q-.795-1.65-.797-3.84 0-2.187.799-3.859.806-1.677 2.246-2.613 1.446-.947 3.377-.947a6.8 6.8 0 0 1 2.198.37q1.086.373 1.977 1.207.89.824 1.42 2.189.528 1.361.527 3.356v.928H85.558V22.08h8.76q0-1.208-.484-2.15a3.64 3.64 0 0 0-1.354-1.495q-.873-.546-2.06-.546-1.31 0-2.265.648a4.3 4.3 0 0 0-1.458 1.67 4.9 4.9 0 0 0-.51 2.206v1.262q0 1.616.558 2.737.566 1.11 1.569 1.697 1 .575 2.329.575.862 0 1.558-.242a3.3 3.3 0 0 0 1.216-.743q.51-.5.788-1.24l2.116.593a4.7 4.7 0 0 1-1.123 1.89q-.789.809-1.95 1.262a7.3 7.3 0 0 1-2.606.445m8.189-.296V16.106h2.114v2.153h.148q.392-1.058 1.412-1.718 1.021-.657 2.3-.658.242 0 .604.01.363.009.548.028v2.227a7 7 0 0 0-.51-.085 5 5 0 0 0-.827-.065q-1.038 0-1.854.436a3.3 3.3 0 0 0-1.282 1.188q-.464.748-.464 1.716v9.014zM0 37.998l8.149-6.947V4L0 11.326zM10.633 38l8.149-6.933V20.292l-8.15 7.306z"/></g><defs><clipPath id="a"><path fill="#fff" d="M0 4h106v34H0z"/></clipPath></defs></svg>