<svg xmlns="http://www.w3.org/2000/svg" width="24" height="24" fill="none" class="web3icons" viewBox="0 0 24 24"><path fill="url(#a)" d="M10.557 12.44a.61.61 0 0 0 0 .888l1.896 1.778a.7.7 0 0 0 .948 0 .61.61 0 0 0 0-.889l-1.896-1.778a.71.71 0 0 0-.949 0"/><path fill="url(#b)" d="M17.003 11.73a.6.6 0 0 0 0-.89.71.71 0 0 0-.948 0L13.4 13.329l-.474.445c-.587.55-1.391.464-1.654.222l1.18 1.106a.71.71 0 0 0 .948 0z"/><path fill="url(#c)" d="M20.806 10.855a.71.71 0 0 0-.948 0l-1.89 1.778a.6.6 0 0 0 0 .889.71.71 0 0 0 .947 0l1.896-1.778a.61.61 0 0 0-.005-.889"/><path fill="url(#d)" d="M13.417 11.56a.61.61 0 0 0 0-.888L11.52 8.894a.7.7 0 0 0-.948 0 .61.61 0 0 0 0 .889l1.896 1.778a.71.71 0 0 0 .948 0"/><path fill="url(#e)" d="M6.97 12.276a.6.6 0 0 0 0 .888.71.71 0 0 0 .949 0l2.653-2.492.474-.445c.588-.55 1.392-.464 1.655-.222l-1.18-1.106a.71.71 0 0 0-.949 0z"/><path fill="url(#f)" d="M3.193 13.154a.71.71 0 0 0 .948 0l1.897-1.777a.6.6 0 0 0 0-.89.71.71 0 0 0-.949 0l-1.896 1.778a.61.61 0 0 0 0 .89"/><defs><linearGradient id="a" x1="8.774" x2="13.385" y1="10.803" y2="15.664" gradientUnits="userSpaceOnUse"><stop offset=".117" stop-color="#6978ff"/><stop offset=".188" stop-color="#6087ff"/><stop offset=".348" stop-color="#4da5ff"/><stop offset=".507" stop-color="#40baff"/><stop offset=".662" stop-color="#39c7ff"/><stop offset=".808" stop-color="#36cbff"/><stop offset="1" stop-color="#67fffc"/></linearGradient><linearGradient id="b" x1="7.718" x2="21.355" y1="19.05" y2="4.098" gradientUnits="userSpaceOnUse"><stop offset=".386" stop-color="#6978ff"/><stop offset=".443" stop-color="#6284ff"/><stop offset=".646" stop-color="#4aabff"/><stop offset=".809" stop-color="#3bc2ff"/><stop offset=".909" stop-color="#36cbff"/><stop offset="1" stop-color="#67fffc"/></linearGradient><linearGradient id="c" x1="20.459" x2="9.766" y1="11.25" y2="21.839" gradientUnits="userSpaceOnUse"><stop offset=".047" stop-color="#6978ff"/><stop offset=".124" stop-color="#6087ff"/><stop offset=".302" stop-color="#4da5ff"/><stop offset=".477" stop-color="#40baff"/><stop offset=".647" stop-color="#39c7ff"/><stop offset=".808" stop-color="#36cbff"/><stop offset="1" stop-color="#67fffc"/></linearGradient><linearGradient id="d" x1="11.255" x2="12.855" y1="9.305" y2="11.579" gradientUnits="userSpaceOnUse"><stop offset=".117" stop-color="#6978ff"/><stop offset=".188" stop-color="#6087ff"/><stop offset=".348" stop-color="#4da5ff"/><stop offset=".507" stop-color="#40baff"/><stop offset=".662" stop-color="#39c7ff"/><stop offset=".808" stop-color="#36cbff"/><stop offset="1" stop-color="#67fffc"/></linearGradient><linearGradient id="e" x1="4.708" x2="11.12" y1="16.793" y2="8.747" gradientUnits="userSpaceOnUse"><stop offset=".313" stop-color="#6978ff"/><stop offset=".363" stop-color="#6087ff"/><stop offset=".478" stop-color="#4da5ff"/><stop offset=".593" stop-color="#40baff"/><stop offset=".704" stop-color="#39c7ff"/><stop offset=".808" stop-color="#36cbff"/><stop offset="1" stop-color="#67fffc"/></linearGradient><linearGradient id="f" x1="11.425" x2="4.541" y1="4.504" y2="12.922" gradientUnits="userSpaceOnUse"><stop offset=".008" stop-color="#6978ff"/><stop offset=".089" stop-color="#6087ff"/><stop offset=".275" stop-color="#4da5ff"/><stop offset=".46" stop-color="#40baff"/><stop offset=".639" stop-color="#39c7ff"/><stop offset=".808" stop-color="#36cbff"/><stop offset="1" stop-color="#67fffc"/></linearGradient></defs></svg>