<svg xmlns="http://www.w3.org/2000/svg" width="422" height="122" fill="none" viewBox="0 0 422 122"><g fill="#fff" clip-path="url(#a)"><path d="M110.601 120.125H93.066V34.798h17.535zm63.357-87.002c9.679 0 17.587 3.394 23.714 10.182 6.118 6.788 9.186 15.419 9.186 25.883v50.928h-17.535V71.859c0-6.567-2.115-11.998-6.347-16.282q-6.345-6.427-15.692-6.427c-7.017 0-12.747 2.142-17.199 6.427-4.452 4.284-6.682 9.715-6.682 16.282v48.257h-17.534V34.798h17.534v22.04c2.336-7.344 6.206-13.136 11.61-17.367 5.395-4.232 11.716-6.348 18.954-6.348zm87.566 0c13.691 0 24.825 4.902 33.394 14.696 8.569 9.803 12.077 21.651 10.517 35.571h-70.631q1.838 10.356 9.521 16.785c5.122 4.284 11.293 6.427 18.53 6.427 5.563 0 10.544-1.367 14.943-4.091s7.819-6.426 10.27-11.108l14.696 6.515c-3.782 7.238-9.186 13.021-16.195 17.367-7.008 4.346-15.083 6.515-24.216 6.515-12.8 0-23.547-4.232-32.23-12.686s-13.029-18.98-13.029-31.56 4.257-23.123 12.773-31.648c8.516-8.516 19.06-12.774 31.648-12.774zm0 15.198c-6.462 0-12.051 1.975-16.785 5.933-4.734 3.95-7.881 9.098-9.432 15.445h52.435c-1.446-6.347-4.54-11.495-9.265-15.445-4.734-3.95-10.385-5.933-16.953-5.933m92.388-15.198q15.366 0 25.045 8.014c6.453 5.342 9.689 13.03 9.689 23.044v55.944h-17.535v-22.71c-5.236 16.257-15.753 24.385-31.56 24.385-7.352 0-13.47-2.195-18.371-6.594-4.902-4.399-7.344-10.156-7.344-17.28 0-8.347 2.945-14.615 8.851-18.785 5.898-4.17 13.417-6.762 22.542-7.767l16.529-1.675q9.351-.834 9.353-8.348c0-4.117-1.587-7.405-4.76-9.847-3.174-2.45-7.317-3.676-12.439-3.676s-9.662 1.34-13.276 4.01q-5.422 4.008-6.929 11.69L316.34 59.35c1.56-8.014 5.73-14.387 12.527-19.121 6.788-4.725 15.136-7.097 25.045-7.097zm-8.683 74.475c7.237 0 13.355-2.425 18.363-7.264q7.51-7.26 7.51-16.953V78.71c-1.331 2.23-4.566 3.614-9.688 4.17l-16.194 2c-4.232.565-7.599 1.808-10.103 3.756q-3.756 2.922-3.755 7.934t3.755 8.014c2.504 2.001 5.871 3.006 10.103 3.006zM80.99 120.125H0V34.798h18.53v68.797h62.46zm324.185-87.002c9.129 0 16.529-7.4 16.529-16.529s-7.4-16.53-16.529-16.53-16.529 7.401-16.529 16.53 7.4 16.53 16.529 16.53"/></g><defs><clipPath id="a"><path fill="#fff" d="M0 0h422v122H0z"/></clipPath></defs></svg>