<?xml version="1.0" encoding="UTF-8"?>
<svg xmlns="http://www.w3.org/2000/svg" version="1.1" viewBox="0 0 1329.6 424.4">
  <defs>
    <style>
      .cls-1 {
        fill: #14909c;
      }

      .cls-2 {
        fill: #fff;
      }

      .cls-3 {
        fill: #22e1c9;
      }

      .cls-4 {
        fill: #0d1437;
      }
    </style>
  </defs>
  <!-- Generator: Adobe Illustrator 28.6.0, SVG Export Plug-In . SVG Version: 1.2.0 Build 709)  -->
  <g>
    <g id="Layer_1">
      <g>
        <g>
          <path class="cls-2" d="M537.6,184.7V49h21.8v117.5h61.8v18.3h-83.6Z"/>
          <path class="cls-2" d="M653.1,167.7h34.2v-66.1h-34.2v-17.1h55.4v83.2h32.1v17.1h-87.5v-17.1h0ZM683.3,54.7v-4.1c0-6.4,3.9-11.5,14.4-11.5s14.6,5.1,14.6,11.5v4.1c0,6.4-3.9,11.5-14.4,11.5s-14.6-5.1-14.6-11.5h0Z"/>
          <path class="cls-2" d="M830.1,167.7h-1.2c-5.8,12.1-15.6,19.5-30.3,19.5-23.5,0-38.7-18.1-38.7-52.5s15.2-52.5,38.7-52.5,24.5,7.4,30.3,19.5h1.2v-17.1h21.2v139.2h-21.2v-56h0ZM830.1,151.3v-33.5c0-12.3-10.5-18.5-22.8-18.5s-25.1,10.7-25.1,27v16.3c0,16.3,9.1,27,25.1,27s22.8-6.2,22.8-18.5v.2Z"/>
          <path class="cls-2" d="M945.9,167.7h-1c-4.3,10.5-12.4,19.5-29,19.5s-33.8-13.8-33.8-38.1v-64.6h21.2v61.5c0,15.9,7.2,23.9,20.8,23.9s21.8-5.6,21.8-17.3v-68.1h21.2v100.4h-21.2v-17.1h0Z"/>
          <path class="cls-2" d="M1003.1,167.7h34.2v-66.1h-34.2v-17.1h55.4v83.2h32.1v17.1h-87.5v-17.1ZM1033.4,54.7v-4.1c0-6.4,3.9-11.5,14.4-11.5s14.6,5.1,14.6,11.5v4.1c0,6.4-3.9,11.5-14.4,11.5s-14.6-5.1-14.6-11.5Z"/>
          <path class="cls-2" d="M1180.1,167.7h-1.2c-5.8,12.1-15.6,19.5-30.3,19.5-23.5,0-38.7-18.1-38.7-52.5s15.2-52.5,38.7-52.5,24.5,7.4,30.3,19.5h1.2v-60.7h21.2v143.9h-21.2v-17.1h0ZM1180.1,151.3v-33.5c0-12.3-10.5-18.5-22.8-18.5s-25.1,10.7-25.1,27v16.3c0,16.3,9.1,27,25.1,27s22.8-6.2,22.8-18.5v.2Z"/>
          <path class="cls-2" d="M551.6,274.9h-1.7v104.4h-19.1v-135.7h28l39.9,104.4h1.7v-104.4h19.1v135.7h-28l-39.9-104.4Z"/>
          <path class="cls-2" d="M645.1,329.2c0-32.3,18.7-52.7,47.3-52.7s46.1,20.2,46.1,49.8v8h-72v3.3c0,15.8,10.5,26.8,27.8,26.8s22.2-6,27.8-15.4l13.2,11.7c-6.8,11.7-20.8,20.8-41.4,20.8-30.7,0-48.8-20.4-48.8-52.3h0ZM666.5,319.4v1.4h50.4v-1.9c0-15.8-9.7-26.1-24.5-26.1s-25.9,11.1-25.9,26.6Z"/>
          <path class="cls-2" d="M814.5,379.2c-17.5,0-25.7-10.5-25.7-25.5v-57.8h-30.9v-17.1h22c7.4,0,10.3-2.5,10.3-10.3v-25.1h19.8v35.4h42.8v17.1h-42.8v66.1h42.8v17.1h-38.3Z"/>
          <path class="cls-2" d="M870.6,278.9h18.1l9.7,84.4h1.7l15-84.4h20.6l14.8,84.4h1.7l9.9-84.4h17.3l-14,100.4h-26.1l-13.4-77.8h-1.7l-13.6,77.8h-26.1l-14-100.4h0Z"/>
          <path class="cls-2" d="M994.1,329c0-32.1,18.1-52.5,47.6-52.5s47.6,20.4,47.6,52.5-18.1,52.5-47.6,52.5-47.6-20.4-47.6-52.5ZM1067.2,336.7v-15.2c0-18.7-10.1-28.2-25.5-28.2s-25.5,9.5-25.5,28.2v15.2c0,18.7,10.1,28.2,25.5,28.2s25.5-9.5,25.5-28.2Z"/>
          <path class="cls-2" d="M1114.9,362.2h26.6v-66.1h-26.6v-17.1h47.8v26.6h1.2c3.9-14,12.6-26.6,33.1-26.6h12.1v20.2h-19.8c-17.3,0-26.5,11.5-26.5,25.5v37.5h36.4v17.1h-84.2v-17.1h0Z"/>
          <path class="cls-2" d="M1233.9,235.4h21.2v86.9h1l15.8-16.1,28.2-27.2h25.1l-40.6,39.5,45.1,60.9h-25.5l-35-48.8-14,13v35.8h-21.2v-143.9h0Z"/>
        </g>
        <g>
          <circle class="cls-4" cx="212.3" cy="212.2" r="212.2"/>
          <path class="cls-1" d="M197.5,175.7c10.1-60.4,74.6-52.4,82.3-51.2,8,2.4,15.8-5.5,11.3-13.2-17.8-30.4-53.2-50.2-80.1-51.6,6.7-5.3,29.1-8.2,52.9-7.2,8.4.3,11.9-10.7,4.8-15.2-.6-.4-1.2-.8-2.1-1.1-32.5-10-67.4-10.9-100.6-2.2-24.6,6.4-48.4,18-69.5,35.1-8.8,7.2-16.9,15-24,23.3-52.9,61.5-59.4,151.9-14.3,220.6.9,1.4,1.8,2.7,2.7,4.1.8,1,1.1,1.5,1.4,1.9,2.1,3.1,4.4,6.1,6.8,9.1,2.6,3.2,5.4,6.3,8.2,9.3.7.8,1.4,1.5,2.2,2.3,2.6,2.7,5.3,5.4,8.1,7.9.2.2.5.4.7.7,3,2.7,6.1,5.3,9.2,7.8.7.6,1.5,1.2,2.3,1.8,2.9,2.2,5.8,4.3,8.7,6.4.4.2.7.5,1.1.8,3.3,2.2,6.7,4.4,10.2,6.4.7.4,1.4.8,2,1.2,3.2,1.8,6.4,3.5,9.6,5.1.4.2.7.4,1.1.5,3.7,1.8,7.4,3.4,11.2,4.9.5.2,1,.4,1.5.6,3.6,1.4,7.2,2.7,10.8,3.8.3,0,.6.2.8.3,4,1.3,8,2.4,12.1,3.4.2,0,.4,0,.5,0,4,1,8,1.8,12.1,2.5h.5c8.5,1.4,17,2.2,25.6,2.5h.2c42.3,1.1,85.1-12.2,120.6-40.9,21.7-17.6,38.4-39,49.8-62.6.6-1.3,1.3-2.7,1.9-4,3.3-7.3,6.2-14.9,8.5-22.5-111,41.8-203.6-15.1-191-90.5v-.2Z"/>
          <path class="cls-3" d="M132.4,194.2c21.6-29.1,31.6-24,33.7-33,2.8-12.3-42.1-23-77.1,3.9,48.6-60.8,124.3-74.8,188.8-41.4,8.6,4.5,18.2-4.1,13.3-12.4-17.8-30.4-53.2-50.2-80.1-51.6,6.7-5.3,29.1-8.2,52.9-7.2,8.4.3,11.9-10.7,4.8-15.2-.6-.4-1.2-.8-2.1-1.1-32.5-10-67.4-10.9-100.6-2.2-24.6,6.4-48.4,18-69.5,35.1-8.8,7.2-16.9,15-24,23.3-52.9,61.5-59.4,151.9-14.3,220.6.9,1.4,1.8,2.7,2.7,4.1.8,1,1.1,1.5,1.4,1.9,2.1,3.1,4.4,6.1,6.8,9.1,47.1,58.2,122.3,80.1,190.2,62.2-173.6-25.7-147.1-168.8-126.9-196h0Z"/>
        </g>
      </g>
    </g>
  </g>
</svg>