<svg width="148" height="40" viewBox="0 0 148 40" fill="none" xmlns="http://www.w3.org/2000/svg">
<mask id="mask0_228_1389" style="mask-type:luminance" maskUnits="userSpaceOnUse" x="0" y="0" width="40" height="40">
<path d="M40 0H0V40H40V0Z" fill="white"/>
</mask>
<g mask="url(#mask0_228_1389)">
<path d="M40 20C40 31.0467 31.045 40 20 40C8.955 40 0 31.0467 0 20C0 8.955 8.955 0 20 0C31.045 0 40 8.955 40 20Z" fill="#95CBF3"/>
<path d="M0 19.9999C0 28.7082 5.56667 36.1165 13.3333 38.8615V1.13818C5.56667 3.88318 0 11.2915 0 19.9999ZM38.87 13.3582C38.5083 13.3415 38.145 13.3332 37.7783 13.3332C24.2783 13.3332 13.3333 24.2782 13.3333 37.7782C13.3333 38.1448 13.3417 38.5082 13.3583 38.8698C15.4367 39.6032 17.6717 39.9998 20 39.9998C31.045 39.9998 40 31.0465 40 19.9999C40 17.6715 39.6017 15.4365 38.87 13.3582Z" fill="#405AE5"/>
</g>
<path d="M56.2266 30.2606V7.76658C56.2266 7.66113 56.2846 7.6084 56.4006 7.6084H59.153C59.2585 7.6084 59.3112 7.66113 59.3112 7.76658V27.5081C59.3112 27.6136 59.364 27.6663 59.4694 27.6663H70.8113C70.9168 27.6663 70.9695 27.7191 70.9695 27.8245V30.2606C70.9695 30.366 70.9168 30.4188 70.8113 30.4188H56.4006C56.2846 30.4188 56.2266 30.366 56.2266 30.2606Z" fill="#121B44"/>
<path d="M72.7578 11.1676V7.76658C72.7578 7.66113 72.8106 7.6084 72.916 7.6084H76.317C76.433 7.6084 76.491 7.66113 76.491 7.76658V11.1676C76.491 11.2836 76.433 11.3416 76.317 11.3416H72.916C72.8106 11.3416 72.7578 11.2836 72.7578 11.1676ZM73.09 30.2606V14.1889C73.09 14.0835 73.1427 14.0307 73.2482 14.0307H76.0006C76.1061 14.0307 76.1588 14.0835 76.1588 14.1889V30.2606C76.1588 30.366 76.1061 30.4188 76.0006 30.4188H73.2482C73.1427 30.4188 73.09 30.366 73.09 30.2606Z" fill="#121B44"/>
<path d="M80.7364 28.3942C79.3444 26.8229 78.6484 24.7665 78.6484 22.2249C78.6484 19.6834 79.3444 17.627 80.7364 16.0557C82.139 14.4844 84.0109 13.6987 86.352 13.6987C87.1429 13.6987 88.0077 13.8886 88.9462 14.2682C89.8848 14.6479 90.565 15.075 90.9868 15.5495C91.029 15.6022 91.0817 15.6339 91.145 15.6444C91.2083 15.6444 91.261 15.6022 91.3032 15.5179L91.6354 14.1891C91.667 14.0837 91.7198 14.0309 91.7936 14.0309H94.2298C94.3348 14.0309 94.3878 14.0837 94.3878 14.1891V36.6673C94.3878 36.7833 94.3348 36.8413 94.2298 36.8413H91.4772C91.3612 36.8413 91.3032 36.7833 91.3032 36.6673V28.9636C91.3032 28.8898 91.2716 28.8424 91.2083 28.8213C91.145 28.7896 91.0712 28.816 90.9868 28.9004C90.6916 29.2484 90.0905 29.6438 89.1835 30.0868C88.2871 30.5191 87.3433 30.7353 86.352 30.7353C84.0109 30.7353 82.139 29.9549 80.7364 28.3942ZM83.0459 18.0488C82.1601 19.114 81.7172 20.506 81.7172 22.2249C81.7172 23.9439 82.1601 25.3359 83.0459 26.401C83.9318 27.4556 85.1392 27.9829 86.6684 27.9829C88.1131 27.9829 89.2468 27.4556 90.0694 26.401C90.8919 25.3359 91.3032 23.9439 91.3032 22.2249C91.3032 20.506 90.8919 19.114 90.0694 18.0488C89.2468 16.9837 88.1131 16.4512 86.6684 16.4512C85.1392 16.4512 83.9318 16.9837 83.0459 18.0488Z" fill="#121B44"/>
<path d="M97.6484 23.0949V14.189C97.6484 14.0836 97.7064 14.0308 97.8224 14.0308H100.575C100.68 14.0308 100.733 14.0836 100.733 14.189V23.0949C100.733 23.7487 100.807 24.3551 100.954 24.914C101.113 25.4729 101.35 25.9897 101.666 26.4642C101.993 26.9282 102.441 27.2973 103.011 27.5715C103.591 27.8457 104.266 27.9828 105.036 27.9828C105.911 27.9828 106.681 27.7508 107.345 27.2868C108.009 26.8122 108.505 26.2111 108.832 25.4835C109.159 24.7558 109.322 23.9596 109.322 23.0949V14.189C109.322 14.0836 109.375 14.0308 109.481 14.0308H112.233C112.338 14.0308 112.391 14.0836 112.391 14.189V30.2607C112.391 30.3661 112.338 30.4189 112.233 30.4189H109.797C109.723 30.4189 109.67 30.3661 109.639 30.2607L109.322 28.8054C109.28 28.721 109.217 28.6841 109.133 28.6946C109.059 28.6946 109.001 28.721 108.959 28.7737C108.611 29.2694 108.052 29.7228 107.282 30.1341C106.522 30.5349 105.668 30.7352 104.719 30.7352C103.422 30.7352 102.304 30.5401 101.366 30.1499C100.427 29.7492 99.6944 29.1903 99.1674 28.4732C98.6404 27.7561 98.2554 26.9599 98.0124 26.0846C97.7704 25.1987 97.6484 24.2022 97.6484 23.0949Z" fill="#121B44"/>
<path d="M115.43 11.1676V7.76658C115.43 7.66113 115.483 7.6084 115.588 7.6084H118.989C119.105 7.6084 119.163 7.66113 119.163 7.76658V11.1676C119.163 11.2836 119.105 11.3416 118.989 11.3416H115.588C115.483 11.3416 115.43 11.2836 115.43 11.1676ZM115.762 30.2606V14.1889C115.762 14.0835 115.815 14.0307 115.92 14.0307H118.673C118.778 14.0307 118.831 14.0835 118.831 14.1889V30.2606C118.831 30.366 118.778 30.4188 118.673 30.4188H115.92C115.815 30.4188 115.762 30.366 115.762 30.2606Z" fill="#121B44"/>
<path d="M121.008 16.2927V14.1888C121.008 14.0834 121.06 14.0306 121.166 14.0306H124.045C124.15 14.0306 124.203 13.9726 124.203 13.8566V9.49071C124.203 9.38525 124.261 9.33252 124.377 9.33252H127.129C127.235 9.33252 127.288 9.38525 127.288 9.49071V13.8566C127.288 13.9726 127.34 14.0306 127.446 14.0306H130.942C131.058 14.0306 131.116 14.0834 131.116 14.1888V16.2927C131.116 16.3981 131.058 16.4509 130.942 16.4509H127.446C127.34 16.4509 127.288 16.5089 127.288 16.6249V26.0527C127.288 27.1284 127.873 27.6662 129.043 27.6662H130.942C131.058 27.6662 131.116 27.719 131.116 27.8244V30.2605C131.116 30.3659 131.058 30.4187 130.942 30.4187H128.268C126.982 30.4187 125.99 30.1128 125.294 29.5012C124.556 28.8684 124.192 27.8982 124.203 26.5906V16.6249C124.203 16.5089 124.15 16.4509 124.045 16.4509H121.166C121.06 16.4509 121.008 16.3981 121.008 16.2927Z" fill="#121B44"/>
<path d="M132.404 14.189C132.393 14.1468 132.398 14.1152 132.419 14.0941C132.44 14.073 132.467 14.0572 132.498 14.0466C132.53 14.0361 132.562 14.0308 132.593 14.0308H135.536C135.62 14.0308 135.678 14.0836 135.71 14.189L139.949 27.2077C139.981 27.2815 140.033 27.3184 140.107 27.3184C140.181 27.3184 140.234 27.2815 140.265 27.2077L144.552 14.189C144.584 14.0836 144.637 14.0308 144.71 14.0308H147.653C147.705 14.0308 147.748 14.0466 147.779 14.0783C147.821 14.1099 147.837 14.1468 147.827 14.189L142.274 30.4189L141.341 33.2346C141.014 34.152 140.671 34.8586 140.313 35.3542C139.965 35.8499 139.511 36.219 138.952 36.4615C138.393 36.7146 137.676 36.8412 136.801 36.8412H132.593C132.488 36.8412 132.435 36.7832 132.435 36.6672V34.2469C132.435 34.1309 132.488 34.0729 132.593 34.0729H136.247C137.175 34.0729 137.803 33.804 138.13 33.2662C138.299 32.992 138.383 32.6651 138.383 32.2854C138.383 31.948 138.309 31.5631 138.161 31.1307L137.877 30.2607L132.404 14.189Z" fill="#121B44"/>
</svg>
