<svg width="1000" height="234" viewBox="0 0 1000 234" fill="none" xmlns="http://www.w3.org/2000/svg">
<path d="M340.223 24.2957C340.223 23.4981 340.679 23.1562 341.477 23.1562H361.303C362.101 23.1562 362.442 23.4981 362.442 24.2957V166.505C362.442 167.302 362.784 167.644 363.582 167.644H445.281C446.078 167.644 446.42 167.986 446.42 168.784V186.332C446.42 187.13 446.078 187.471 445.281 187.471H341.477C340.679 187.471 340.223 187.13 340.223 186.332V24.2957Z" fill="white"/>
<path d="M459.3 24.2957C459.3 23.4981 459.642 23.1562 460.44 23.1562H484.938C485.736 23.1562 486.192 23.4981 486.192 24.2957V48.7949C486.192 49.5925 485.736 50.0483 484.938 50.0483H460.44C459.642 50.0483 459.3 49.5925 459.3 48.7949V24.2957ZM461.693 186.332V70.5592C461.693 69.7616 462.035 69.4197 462.833 69.4197H482.659C483.457 69.4197 483.799 69.7616 483.799 70.5592V186.332C483.799 187.13 483.457 187.471 482.659 187.471H462.833C462.035 187.471 461.693 187.13 461.693 186.332Z" fill="white"/>
<path d="M557.184 67.0268C568.578 67.0268 584.531 73.5219 590.57 80.3589C591.14 81.1565 592.279 81.3844 592.849 80.131L595.242 70.5592C595.47 69.7616 595.811 69.4197 596.381 69.4197H613.929C614.726 69.4197 615.068 69.7616 615.068 70.5592V232.481C615.068 233.279 614.726 233.735 613.929 233.735H594.102C593.305 233.735 592.849 233.279 592.849 232.481V176.988C592.849 175.963 591.823 175.279 590.57 176.532C586.354 181.546 571.427 189.75 557.184 189.75C523.456 189.75 501.693 165.023 501.693 128.446C501.693 91.8678 523.456 67.0268 557.184 67.0268ZM523.798 128.446C523.798 153.173 537.471 169.923 559.463 169.923C580.315 169.923 592.849 153.173 592.849 128.446C592.849 103.719 580.315 86.854 559.463 86.854C537.471 86.854 523.798 103.719 523.798 128.446Z" fill="white"/>
<path d="M638.545 70.5592C638.545 69.7616 639.001 69.4197 639.799 69.4197H659.625C660.423 69.4197 660.765 69.7616 660.765 70.5592V134.713C660.765 144.171 662.93 152.147 667.601 158.87C672.159 165.707 680.705 169.923 691.758 169.923C698.025 169.923 703.608 168.214 708.394 164.795C717.965 158.072 722.637 147.133 722.637 134.713V70.5592C722.637 69.7616 722.979 69.4197 723.776 69.4197H743.603C744.401 69.4197 744.742 69.7616 744.742 70.5592V186.332C744.742 187.13 744.401 187.471 743.603 187.471H726.055C725.486 187.471 725.144 187.13 724.916 186.332L722.637 175.849C722.067 174.595 720.586 174.823 720.016 175.621C715.003 182.799 703.152 189.75 689.479 189.75C670.792 189.75 657.118 183.825 649.484 173.456C641.85 163.086 638.545 150.666 638.545 134.713V70.5592Z" fill="white"/>
<path d="M766.624 24.2957C766.624 23.4981 766.966 23.1562 767.764 23.1562H792.262C793.06 23.1562 793.515 23.4981 793.515 24.2957V48.7949C793.515 49.5925 793.06 50.0483 792.262 50.0483H767.764C766.966 50.0483 766.624 49.5925 766.624 48.7949V24.2957ZM769.017 186.332V70.5592C769.017 69.7616 769.359 69.4197 770.157 69.4197H789.983C790.781 69.4197 791.123 69.7616 791.123 70.5592V186.332C791.123 187.13 790.781 187.471 789.983 187.471H770.157C769.359 187.471 769.017 187.13 769.017 186.332Z" fill="white"/>
<path d="M806.852 70.5592C806.852 69.7616 807.193 69.4197 807.991 69.4197H828.729C829.527 69.4197 829.869 68.9639 829.869 68.1663V36.7162C829.869 35.9186 830.324 35.5767 831.122 35.5767H850.948C851.746 35.5767 852.088 35.9186 852.088 36.7162V68.1663C852.088 68.9639 852.43 69.4197 853.227 69.4197H878.409C879.207 69.4197 879.663 69.7616 879.663 70.5592V85.7145C879.663 86.5122 879.207 86.854 878.409 86.854H853.227C852.43 86.854 852.088 87.3098 852.088 88.1075V156.021C852.088 163.77 856.304 167.644 864.736 167.644H878.409C879.207 167.644 879.663 167.986 879.663 168.784V186.332C879.663 187.13 879.207 187.471 878.409 187.471H859.152C849.923 187.471 842.744 185.306 837.731 180.862C832.375 176.304 829.755 169.353 829.869 159.896V88.1075C829.869 87.3098 829.527 86.854 828.729 86.854H807.991C807.193 86.854 806.852 86.5122 806.852 85.7145V70.5592Z" fill="white"/>
<path d="M888.897 70.5592C888.669 69.7616 889.58 69.4197 890.264 69.4197H911.458C912.028 69.4197 912.483 69.7616 912.711 70.5592L943.249 164.34C943.477 164.909 943.818 165.137 944.388 165.137C944.958 165.137 945.3 164.909 945.528 164.34L976.407 70.5592C976.635 69.7616 976.976 69.4197 977.546 69.4197H998.74C999.538 69.4197 1000.11 69.9895 999.993 70.5592L959.999 187.471L953.276 207.754C950.883 214.364 948.49 219.491 945.983 223.024C940.856 230.202 933.221 233.735 920.573 233.735H890.264C889.466 233.735 889.125 233.279 889.125 232.481V215.047C889.125 214.25 889.466 213.794 890.264 213.794H916.585C923.308 213.794 927.752 211.857 930.145 207.982C931.398 206.045 931.968 203.652 931.968 200.917C931.968 198.525 931.398 195.676 930.373 192.599L928.322 186.332L888.897 70.5592Z" fill="white"/>
<ellipse cx="108.052" cy="108.049" rx="108.048" ry="108.049" fill="#95CBF3"/>
<path d="M108.052 216.098C167.725 216.098 216.1 167.723 216.1 108.049C216.1 95.4712 213.951 83.3957 210 72.1692C208.044 72.0833 206.078 72.0398 204.102 72.0398C129.828 72.0398 68.9162 135.905 72.1711 209.997C83.398 213.949 95.474 216.098 108.052 216.098Z" fill="#405AE5"/>
<path d="M72.0366 6.146V203.874L73.5533 210.168V210.427L72.0366 209.949C30.0707 195.116 0.00390625 155.093 0.00390625 108.047C0.00390625 61.0018 30.0707 20.9787 72.0366 6.146Z" fill="#405AE5"/>
</svg>
