<?xml version="1.0" encoding="utf-8"?>
<!-- Generator: Adobe Illustrator 23.0.1, SVG Export Plug-In . SVG Version: 6.00 Build 0)  -->
<svg version="1.1" id="Layer_1" xmlns="http://www.w3.org/2000/svg" xmlns:xlink="http://www.w3.org/1999/xlink" x="0px" y="0px"
	 viewBox="0 0 293.6 82.7" style="enable-background:new 0 0 293.6 82.7;" xml:space="preserve">
<style type="text/css">
	.st0{fill:#345D9D;}
</style>
<title>Artboard 31</title>
<path class="st0" d="M41.3,0C18.5,0,0,18.5,0,41.3s18.5,41.3,41.3,41.3s41.3-18.5,41.3-41.3l0,0C82.7,18.5,64.2,0,41.3,0z M42,42.7
	l-4.3,14.5h23c0.7,0,1.2,0.5,1.2,1.2c0,0.1,0,0.2,0,0.3l-2,6.9c-0.2,0.7-0.8,1.1-1.5,1.1H23.2l5.9-20.1l-6.6,2L24,44l6.6-2l8.3-28.2
	c0.2-0.7,0.8-1.1,1.5-1.1h8.9c0.7,0,1.2,0.5,1.2,1.2c0,0.1,0,0.2,0,0.3l-7,23.8l6.6-2l-1.4,4.8L42,42.7z"/>
<path class="st0" d="M106.6,12.5H104c-0.5,0-0.8,0.3-0.9,0.8c0,0,0,0,0,0L96.5,66c-0.1,0.5,0.1,0.8,0.6,0.8h2.6
	c0.4,0.1,0.8-0.2,0.9-0.7c0,0,0-0.1,0-0.1l6.7-52.7C107.4,12.8,107.1,12.5,106.6,12.5z"/>
<path class="st0" d="M120,27.7h-2.6c-0.4,0-0.8,0.3-0.9,0.7c0,0,0,0,0,0.1L111.8,66c-0.1,0.5,0.2,0.8,0.7,0.8h2.6
	c0.4,0.1,0.8-0.2,0.9-0.7c0,0,0-0.1,0-0.1l4.7-37.5C120.7,28,120.6,27.7,120,27.7z"/>
<path class="st0" d="M232.4,27.1c-6.8-0.2-12.8,4.4-14.5,11.1c-0.7,3-1.2,6-1.6,9.1c-0.4,3-0.7,6-0.7,9.1c-0.1,3,1.1,5.9,3.2,8
	c2.1,2,4.9,3,8.6,3c3.3,0.1,6.6-1,9.2-3c2.6-2,4.4-4.8,5.2-8c0.7-3,1.3-6,1.6-9.1c0.4-3,0.6-6.1,0.7-9.1c0.1-3-1-5.9-3.1-8
	C238.5,28,235.5,26.9,232.4,27.1z M239.6,43.6c-0.2,1.9-0.4,3.1-0.4,3.6c-0.5,3.9-0.9,6.6-1.3,8.3c-0.5,2.4-1.8,4.5-3.7,6
	c-1.8,1.5-4.1,2.3-6.5,2.2c-4.2,0.3-7.8-2.9-8.1-7.1c0-0.3,0-0.6,0-0.9c0-1.6,0.1-3.2,0.4-4.8c0.2-1.9,0.4-3.1,0.4-3.6
	c0.5-3.7,0.9-6.5,1.3-8.3c0.5-2.4,1.8-4.5,3.7-6c1.8-1.5,4.1-2.3,6.5-2.2c4.2-0.3,7.8,2.9,8.1,7.1c0,0.3,0,0.6,0,0.9
	C239.9,40.4,239.8,42,239.6,43.6z"/>
<path class="st0" d="M258.7,27.7h-2.5c-0.5,0-0.8,0.3-0.9,0.8L250.4,66c-0.1,0.5,0.2,0.8,0.7,0.8h2.6c0.4,0,0.8-0.3,0.9-0.7
	c0,0,0,0,0,0l4.7-37.5C259.4,28,259.2,27.7,258.7,27.7z"/>
<path class="st0" d="M291,29.9c-1.8-1.8-4.2-2.8-7.4-2.8c-2,0-3.9,0.4-5.8,1.2c-1.8,0.8-3.3,2-4.5,3.6c-0.2,0.2-0.3,0.2-0.3-0.2
	l0.4-3.3c0.1-0.5-0.1-0.8-0.6-0.8h-2.5c-0.4,0-0.8,0.3-0.9,0.7c0,0,0,0,0,0L264.6,66c-0.1,0.5,0.1,0.8,0.6,0.8h2.6
	c0.5,0,0.8-0.3,0.9-0.8c0,0,0,0,0,0l3.4-26.9c0.5-2.3,1.7-4.4,3.5-6c1.8-1.5,4-2.3,6.3-2.3c2-0.1,4,0.7,5.4,2.2
	c1.4,1.6,2.1,3.7,2,5.8c0,0.6,0,1.1-0.1,1.7L286.1,66c0,0.2,0,0.4,0.1,0.5c0.2,0.2,0.4,0.2,0.6,0.2h2.5c0.4,0,0.8-0.3,0.9-0.7
	c0,0,0,0,0,0l3.3-26.2c0.1-1,0.2-1.8,0.2-2.3C293.8,34.7,292.9,32,291,29.9z"/>
<path class="st0" d="M121.7,12.6c-1.5-0.8-3.4-0.2-4.3,1.3c-0.8,1.5-0.2,3.4,1.3,4.3c1.5,0.8,3.4,0.2,4.3-1.3c0,0,0,0,0,0
	C123.8,15.3,123.2,13.4,121.7,12.6z"/>
<path class="st0" d="M260.5,12.6c-1.5-0.8-3.4-0.2-4.3,1.3c-0.8,1.5-0.2,3.4,1.3,4.3c1.5,0.8,3.4,0.2,4.3-1.3c0,0,0,0,0,0
	C262.6,15.3,262,13.4,260.5,12.6z"/>
<path class="st0" d="M198.9,27.1c-3.3-0.1-6.6,1-9.3,3.1c-2.6,2-4.4,4.8-5.2,8c-0.7,3-1.2,6-1.6,9.1c-0.4,3-0.6,6-0.7,9.1
	c-0.1,3,1.1,5.9,3.2,8c2.1,2,4.9,3,8.6,3c3.3,0.1,6.6-1,9.2-3c2.6-2,4.4-4.8,5.2-8c0.1-0.3,0.1-0.5,0.2-0.8c0-0.2-0.1-0.4-0.3-0.4
	c0,0-0.1,0-0.1,0H205c-0.2,0-0.4,0.1-0.5,0.4c0,0,0,0.1,0,0.2c-0.5,2.4-1.8,4.5-3.7,6c-1.8,1.5-4.1,2.3-6.5,2.2
	c-4.2,0.3-7.8-2.9-8.1-7.1c0-0.3,0-0.6,0-0.9c0-1.6,0.1-3.2,0.4-4.8c0.2-1.6,0.4-3.1,0.4-3.6c0.5-3.7,0.9-6.5,1.3-8.3
	c0.5-2.4,1.8-4.5,3.6-6c1.8-1.5,4.1-2.3,6.5-2.2c4.2-0.3,7.8,2.9,8.1,7.1c0,0.3,0,0.6,0,0.9v0.1c0,0.3,0.2,0.6,0.6,0.6c0,0,0,0,0,0
	h3c0.3,0,0.5-0.2,0.5-0.4c0,0,0,0,0,0c0-0.3,0-0.6,0-0.9c0.1-3-1-5.9-3.2-8C205.1,28,202.1,26.9,198.9,27.1z"/>
<path class="st0" d="M173.1,30.1c-2.3-2.1-5.4-3.2-8.5-3c-6.8-0.2-12.8,4.4-14.5,11.1c-0.7,3-1.2,6-1.6,9.1c-0.5,3-0.7,6-0.7,9.1
	c-0.1,3,1.1,5.9,3.2,8c2.1,2,4.9,3,8.6,3c3.3,0.1,6.6-1,9.2-3c2.6-2,4.4-4.8,5.2-8c0.1-0.3,0.1-0.5,0.2-0.8c0-0.2-0.1-0.4-0.3-0.4
	c0,0-0.1,0-0.1,0h-3.2c-0.2,0-0.4,0.1-0.5,0.4c0,0.1,0,0.2,0,0.2c-0.5,2.4-1.8,4.5-3.7,6c-1.8,1.5-4.1,2.2-6.5,2.2
	c-4.2,0.3-7.8-2.9-8.1-7.1c0-0.3,0-0.6,0-0.9c0-1.4,0.1-2.8,0.3-4.2l23.1-7.2c0.4-0.1,0.7-0.5,0.7-0.9c0.1-1.2,0.2-3.2,0.2-5.3
	C176.4,35.2,175.2,32.3,173.1,30.1z M172.2,40.9c0,0.2-0.2,0.4-0.4,0.5l-19.1,5.9v-0.1c0.5-3.7,0.9-6.5,1.3-8.3
	c0.5-2.4,1.8-4.5,3.7-6c1.8-1.5,4.1-2.3,6.5-2.2c2.2-0.1,4.3,0.7,5.9,2.3C172.4,35.3,172.4,37.8,172.2,40.9z"/>
<path class="st0" d="M139.1,62.6c0.3-0.2,0.7-0.1,0.8,0.2c0.1,0.1,0.1,0.2,0.1,0.4l-0.3,2.6c0,0.3-0.3,0.6-0.6,0.8
	c-2.6,1-5.4,1.1-8,0.1c-2.9-1.3-3.7-4.2-3.3-7.8l3.4-27.5l0.5-4l1.1-8.8c0-0.4,0.4-0.8,0.8-0.8c0,0,0,0,0.1,0h2.5
	c0.6,0,0.7,0.3,0.6,0.8l-1.5,12.4h8c0.5,0,0.7,0.3,0.6,0.8l-0.2,1.8c0,0.2-0.1,0.4-0.2,0.6c-0.2,0.1-0.4,0.2-0.6,0.2h-8l-2.8,22.5
	c-0.3,2.4-0.6,4.6,0.6,5.8C134.4,64.1,137.5,63.4,139.1,62.6z"/>
</svg>
