<svg xmlns="http://www.w3.org/2000/svg" id="Layer_1" data-name="Layer 1" viewBox="0 0 293.65 82.67"><defs><style>.cls-1{fill:#fff}</style></defs><title>Artboard 31 copy</title><path d="M41.33 0a41.34 41.34 0 1 0 41.34 41.34A41.34 41.34 0 0 0 41.33 0M42 42.7l-4.3 14.51h23a1.18 1.18 0 0 1 1.13 1.51l-2 6.89a1.58 1.58 0 0 1-1.52 1.14H23.18l5.94-20.06-6.57 2L24 44l6.58-2 8.34-28.18a1.57 1.57 0 0 1 1.51-1.15h8.9a1.18 1.18 0 0 1 1.14 1.5l-7 23.83 6.57-2-1.41 4.77ZM106.58 12.55H104a.82.82 0 0 0-.87.78L96.51 66c-.06.5.11.77.64.77h2.56a.77.77 0 0 0 .88-.77l6.71-52.65c.08-.58-.22-.8-.72-.8M120 27.73h-2.55a.8.8 0 0 0-.88.77L111.79 66c-.06.51.24.77.72.77h2.56A.8.8 0 0 0 116 66l4.71-37.48c.02-.52-.15-.79-.71-.79M232.35 27.11a14.56 14.56 0 0 0-14.47 11.07 76 76 0 0 0-1.59 9.06 81 81 0 0 0-.72 9.06 11 11 0 0 0 3.19 8q3.12 3 8.55 3a14.57 14.57 0 0 0 9.19-3 14.34 14.34 0 0 0 5.2-8 72 72 0 0 0 1.59-9.06 82 82 0 0 0 .71-9.14 10.53 10.53 0 0 0-3.15-8 11.82 11.82 0 0 0-8.5-2.99m7.23 16.49c-.24 1.91-.39 3.13-.44 3.64-.48 3.87-.91 6.64-1.28 8.29a10.5 10.5 0 0 1-3.67 6 10.05 10.05 0 0 1-6.48 2.24 7.58 7.58 0 0 1-8.07-8 40 40 0 0 1 .36-4.8c.24-1.91.39-3.12.44-3.64.48-3.71.91-6.48 1.28-8.28a10.56 10.56 0 0 1 3.67-6 10.1 10.1 0 0 1 6.48-2.24 7.58 7.58 0 0 1 8.07 8 40 40 0 0 1-.36 4.79M258.66 27.73h-2.55a.83.83 0 0 0-.88.77l-4.8 37.5c-.07.54.24.77.72.77h2.56a.81.81 0 0 0 .88-.77l4.71-37.5c.07-.5-.14-.77-.64-.77M291 29.94c-1.76-1.84-4.23-2.75-7.43-2.75a13.7 13.7 0 0 0-5.75 1.2 11.7 11.7 0 0 0-4.48 3.6c-.21.2-.32.15-.32-.16l.4-3.33c.06-.47-.15-.77-.64-.77h-2.55a.81.81 0 0 0-.88.77L264.64 66c-.06.49.11.77.64.77h2.56a.82.82 0 0 0 .88-.77l3.43-26.87a10.93 10.93 0 0 1 3.52-6 9.4 9.4 0 0 1 6.33-2.3 7.08 7.08 0 0 1 5.41 2.17 8 8 0 0 1 2 5.76 13 13 0 0 1-.08 1.71L286.06 66a.62.62 0 0 0 .12.54.75.75 0 0 0 .6.23h2.55a.81.81 0 0 0 .88-.77l3.28-26.17c.11-1 .16-1.81.16-2.32a10.43 10.43 0 0 0-2.65-7.57M121.7 12.57a3.15 3.15 0 1 0 1.3 4.25 3.15 3.15 0 0 0-1.3-4.25M260.49 12.57a3.15 3.15 0 1 0 1.33 4.25 3.15 3.15 0 0 0-1.33-4.25M198.94 27.11a14.6 14.6 0 0 0-9.27 3.06 14.45 14.45 0 0 0-5.19 8 84 84 0 0 0-1.6 9.06 84 84 0 0 0-.72 9.06 10.92 10.92 0 0 0 3.2 8q3.12 3 8.55 3a14.6 14.6 0 0 0 9.19-3 14.24 14.24 0 0 0 5.19-8c.07-.27.14-.55.21-.85a.36.36 0 0 0-.35-.44H205a.49.49 0 0 0-.49.37 1 1 0 0 0 0 .15 10.53 10.53 0 0 1-3.68 6 10 10 0 0 1-6.47 2.24 7.58 7.58 0 0 1-8.07-8 40 40 0 0 1 .36-4.8c.2-1.59.38-3.12.44-3.64.48-3.71.9-6.48 1.28-8.28A10.5 10.5 0 0 1 192 33a10.08 10.08 0 0 1 6.47-2.24 7.58 7.58 0 0 1 8.08 8v.06a.59.59 0 0 0 .59.61h3a.46.46 0 0 0 .47-.46v-.91a10.5 10.5 0 0 0-3.16-8 11.8 11.8 0 0 0-8.51-2.95M173.14 30.13a11.82 11.82 0 0 0-8.51-3 14.56 14.56 0 0 0-14.47 11.07 77 77 0 0 0-1.59 9.06 61 61 0 0 0-.72 9.06 11 11 0 0 0 3.19 8q3.12 3 8.55 3a14.57 14.57 0 0 0 9.19-3 14.3 14.3 0 0 0 5.2-8c.07-.27.14-.55.21-.85a.36.36 0 0 0-.35-.44h-3.18a.5.5 0 0 0-.49.37v.15a10.5 10.5 0 0 1-3.67 6 10.05 10.05 0 0 1-6.5 2.18 7.58 7.58 0 0 1-8.07-8 38 38 0 0 1 .29-4.19l23.09-7.15a.94.94 0 0 0 .74-.93c.14-1.2.23-3.23.25-5.31a11 11 0 0 0-3.16-8.02m-.91 10.79a.53.53 0 0 1-.38.49l-19.14 5.91v-.08c.48-3.71.91-6.48 1.28-8.28a10.56 10.56 0 0 1 3.67-6 10.1 10.1 0 0 1 6.48-2.24A7.87 7.87 0 0 1 170 33c2.36 2.31 2.37 4.78 2.23 7.92M139.12 62.62a.62.62 0 0 1 .92.6l-.32 2.59a.94.94 0 0 1-.59.75 11.2 11.2 0 0 1-8 .11c-2.93-1.34-3.68-4.23-3.26-7.84l3.38-27.46.48-3.95 1.12-8.75a.8.8 0 0 1 .88-.77h2.47c.59 0 .71.33.64.77l-1.52 12.4h8c.46 0 .67.28.64.77l-.22 1.78a.85.85 0 0 1-.24.6 1 1 0 0 1-.64.18h-8l-2.8 22.53c-.29 2.42-.61 4.6.63 5.8 1.66 1.4 4.79.66 6.43-.11" class="cls-1"/></svg>