<svg xmlns="http://www.w3.org/2000/svg" xml:space="preserve" id="Layer_1" x="0" y="0" viewBox="0 0 293.6 82.7"><style>.st0{fill:#345d9d}</style><title>Artboard 31</title><path d="M41.3 0C18.5 0 0 18.5 0 41.3s18.5 41.3 41.3 41.3 41.3-18.5 41.3-41.3C82.7 18.5 64.2 0 41.3 0m.7 42.7-4.3 14.5h23c.7 0 1.2.5 1.2 1.2v.3l-2 6.9c-.2.7-.8 1.1-1.5 1.1H23.2l5.9-20.1-6.6 2L24 44l6.6-2 8.3-28.2c.2-.7.8-1.1 1.5-1.1h8.9c.7 0 1.2.5 1.2 1.2v.3l-7 23.8 6.6-2-1.4 4.8zM106.6 12.5H104c-.5 0-.8.3-.9.8L96.5 66c-.1.5.1.8.6.8h2.6c.4.1.8-.2.9-.7V66l6.7-52.7c.1-.5-.2-.8-.7-.8M120 27.7h-2.6c-.4 0-.8.3-.9.7v.1L111.8 66c-.1.5.2.8.7.8h2.6c.4.1.8-.2.9-.7V66l4.7-37.5c0-.5-.1-.8-.7-.8M232.4 27.1c-6.8-.2-12.8 4.4-14.5 11.1-.7 3-1.2 6-1.6 9.1-.4 3-.7 6-.7 9.1-.1 3 1.1 5.9 3.2 8 2.1 2 4.9 3 8.6 3 3.3.1 6.6-1 9.2-3s4.4-4.8 5.2-8c.7-3 1.3-6 1.6-9.1.4-3 .6-6.1.7-9.1s-1-5.9-3.1-8c-2.5-2.2-5.5-3.3-8.6-3.1m7.2 16.5c-.2 1.9-.4 3.1-.4 3.6-.5 3.9-.9 6.6-1.3 8.3-.5 2.4-1.8 4.5-3.7 6a9.5 9.5 0 0 1-6.5 2.2c-4.2.3-7.8-2.9-8.1-7.1v-.9c0-1.6.1-3.2.4-4.8.2-1.9.4-3.1.4-3.6.5-3.7.9-6.5 1.3-8.3.5-2.4 1.8-4.5 3.7-6 1.8-1.5 4.1-2.3 6.5-2.2 4.2-.3 7.8 2.9 8.1 7.1v.9c-.1 1.6-.2 3.2-.4 4.8M258.7 27.7h-2.5c-.5 0-.8.3-.9.8L250.4 66c-.1.5.2.8.7.8h2.6c.4 0 .8-.3.9-.7l4.7-37.5q.15-.9-.6-.9M291 29.9c-1.8-1.8-4.2-2.8-7.4-2.8-2 0-3.9.4-5.8 1.2q-2.7 1.2-4.5 3.6c-.2.2-.3.2-.3-.2l.4-3.3c.1-.5-.1-.8-.6-.8h-2.5c-.4 0-.8.3-.9.7L264.6 66c-.1.5.1.8.6.8h2.6c.5 0 .8-.3.9-.8l3.4-26.9c.5-2.3 1.7-4.4 3.5-6 1.8-1.5 4-2.3 6.3-2.3 2-.1 4 .7 5.4 2.2 1.4 1.6 2.1 3.7 2 5.8 0 .6 0 1.1-.1 1.7L286.1 66c0 .2 0 .4.1.5.2.2.4.2.6.2h2.5c.4 0 .8-.3.9-.7l3.3-26.2c.1-1 .2-1.8.2-2.3.1-2.8-.8-5.5-2.7-7.6M121.7 12.6c-1.5-.8-3.4-.2-4.3 1.3-.8 1.5-.2 3.4 1.3 4.3 1.5.8 3.4.2 4.3-1.3.8-1.6.2-3.5-1.3-4.3M260.5 12.6c-1.5-.8-3.4-.2-4.3 1.3-.8 1.5-.2 3.4 1.3 4.3 1.5.8 3.4.2 4.3-1.3.8-1.6.2-3.5-1.3-4.3M198.9 27.1c-3.3-.1-6.6 1-9.3 3.1-2.6 2-4.4 4.8-5.2 8-.7 3-1.2 6-1.6 9.1-.4 3-.6 6-.7 9.1-.1 3 1.1 5.9 3.2 8 2.1 2 4.9 3 8.6 3 3.3.1 6.6-1 9.2-3s4.4-4.8 5.2-8c.1-.3.1-.5.2-.8 0-.2-.1-.4-.3-.4H205c-.2 0-.4.1-.5.4v.2c-.5 2.4-1.8 4.5-3.7 6a9.5 9.5 0 0 1-6.5 2.2c-4.2.3-7.8-2.9-8.1-7.1V56c0-1.6.1-3.2.4-4.8.2-1.6.4-3.1.4-3.6.5-3.7.9-6.5 1.3-8.3.5-2.4 1.8-4.5 3.6-6s4.1-2.3 6.5-2.2c4.2-.3 7.8 2.9 8.1 7.1v1c0 .3.2.6.6.6h3c.3 0 .5-.2.5-.4v-.9c.1-3-1-5.9-3.2-8-2.3-2.5-5.3-3.6-8.5-3.4M173.1 30.1c-2.3-2.1-5.4-3.2-8.5-3-6.8-.2-12.8 4.4-14.5 11.1-.7 3-1.2 6-1.6 9.1-.5 3-.7 6-.7 9.1-.1 3 1.1 5.9 3.2 8 2.1 2 4.9 3 8.6 3 3.3.1 6.6-1 9.2-3s4.4-4.8 5.2-8c.1-.3.1-.5.2-.8 0-.2-.1-.4-.3-.4h-3.3c-.2 0-.4.1-.5.4v.2c-.5 2.4-1.8 4.5-3.7 6-1.8 1.5-4.1 2.2-6.5 2.2-4.2.3-7.8-2.9-8.1-7.1V56q0-2.1.3-4.2l23.1-7.2c.4-.1.7-.5.7-.9.1-1.2.2-3.2.2-5.3.3-3.2-.9-6.1-3-8.3m-.9 10.8c0 .2-.2.4-.4.5l-19.1 5.9v-.1c.5-3.7.9-6.5 1.3-8.3.5-2.4 1.8-4.5 3.7-6 1.8-1.5 4.1-2.3 6.5-2.2 2.2-.1 4.3.7 5.9 2.3 2.3 2.3 2.3 4.8 2.1 7.9M139.1 62.6c.3-.2.7-.1.8.2.1.1.1.2.1.4l-.3 2.6c0 .3-.3.6-.6.8-2.6 1-5.4 1.1-8 .1-2.9-1.3-3.7-4.2-3.3-7.8l3.4-27.5.5-4 1.1-8.8c0-.4.4-.8.8-.8h2.6c.6 0 .7.3.6.8L135.3 31h8c.5 0 .7.3.6.8l-.2 1.8c0 .2-.1.4-.2.6-.2.1-.4.2-.6.2h-8l-2.8 22.5c-.3 2.4-.6 4.6.6 5.8 1.7 1.4 4.8.7 6.4-.1" class="st0"/></svg>