<svg xmlns="http://www.w3.org/2000/svg" id="Layer_1" viewBox="0 0 500 500"><defs><style>.cls-2{fill:#fff}</style></defs><path d="M0 0h500v500H0z" style="fill:#02b14f"/><path d="M326.62 112.66c-2.17-7.23-5.7-13.95-10.74-18.64-73.62 73.74-147.71 147.93-221 221.33 25.07.02 56.28.02 75.21-.09 45.69-45.48 95.78-95.19 141.31-140.77 17.52-17.53 22.27-38.34 15.23-61.84ZM321.88 350.13c-3.49-11.53-10.62-20.53-19.19-28.67-3.16-3-6.49-6.25-6.49-6.25s3.45-3.43 6.6-6.57c6.21-6.21 12.25-12.6 18.66-18.59 16.14-15.09 22.83-33.49 19.43-55.29-1.64-10.47-6.06-19.83-12.71-27.01-36.5 36.48-72.51 72.46-108 107.91 29.38 29.47 59.45 59.64 89.73 90.01 13.54-15.84 17.9-35.97 11.99-55.52Z" class="cls-2"/><path d="M309.9 405.65c-.66.9.48-.42 0 0" class="cls-2"/></svg>