<svg id="Layer_1" data-name="Layer 1" xmlns="http://www.w3.org/2000/svg" viewBox="0 0 293.65 82.67"><defs><style>.cls-1{fill:#fff;}</style></defs><title>Artboard 31 copy</title><path class="cls-1" d="M41.33,0A41.34,41.34,0,1,0,82.67,41.34,41.34,41.34,0,0,0,41.33,0ZM42,42.7,37.7,57.21h23a1.18,1.18,0,0,1,1.13,1.51l-2,6.89a1.58,1.58,0,0,1-1.52,1.14H23.18l5.94-20.06-6.57,2L24,44l6.58-2,8.34-28.18a1.57,1.57,0,0,1,1.51-1.15h8.9a1.18,1.18,0,0,1,1.14,1.5l-7,23.83,6.57-2-1.41,4.77Z"/><path class="cls-1" d="M106.58,12.55H104a.82.82,0,0,0-.87.78L96.51,66c-.06.5.11.77.64.77h2.56a.77.77,0,0,0,.88-.77l6.71-52.65C107.38,12.77,107.08,12.55,106.58,12.55Z"/><path class="cls-1" d="M120,27.73h-2.55a.8.8,0,0,0-.88.77L111.79,66c-.06.51.24.77.72.77h2.56A.8.8,0,0,0,116,66l4.71-37.48C120.73,28,120.56,27.73,120,27.73Z"/><path class="cls-1" d="M232.35,27.11a14.56,14.56,0,0,0-14.47,11.07,76,76,0,0,0-1.59,9.06,80.51,80.51,0,0,0-.72,9.06,11,11,0,0,0,3.19,8c2.08,2,4.93,3,8.55,3a14.57,14.57,0,0,0,9.19-3,14.34,14.34,0,0,0,5.2-8,72.17,72.17,0,0,0,1.59-9.06A82.16,82.16,0,0,0,244,38.1a10.53,10.53,0,0,0-3.15-8A11.82,11.82,0,0,0,232.35,27.11Zm7.23,16.49c-.24,1.91-.39,3.13-.44,3.64-.48,3.87-.91,6.64-1.28,8.29a10.51,10.51,0,0,1-3.67,6,10.05,10.05,0,0,1-6.48,2.24,7.58,7.58,0,0,1-8.07-8,39.67,39.67,0,0,1,.36-4.8c.24-1.91.39-3.12.44-3.64.48-3.71.91-6.48,1.28-8.28a10.56,10.56,0,0,1,3.67-6,10.11,10.11,0,0,1,6.48-2.24,7.58,7.58,0,0,1,8.07,8A39.67,39.67,0,0,1,239.58,43.6Z"/><path class="cls-1" d="M258.66,27.73h-2.55a.83.83,0,0,0-.88.77L250.43,66c-.07.54.24.77.72.77h2.56a.81.81,0,0,0,.88-.77L259.3,28.5C259.37,28,259.16,27.73,258.66,27.73Z"/><path class="cls-1" d="M291,29.94c-1.76-1.84-4.23-2.75-7.43-2.75a13.68,13.68,0,0,0-5.75,1.2,11.7,11.7,0,0,0-4.48,3.6c-.21.2-.32.15-.32-.16l.4-3.33c.06-.47-.15-.77-.64-.77h-2.55a.81.81,0,0,0-.88.77L264.64,66c-.06.49.11.77.64.77h2.56a.82.82,0,0,0,.88-.77l3.43-26.87a10.93,10.93,0,0,1,3.52-6A9.39,9.39,0,0,1,282,30.83,7.08,7.08,0,0,1,287.41,33a8,8,0,0,1,2,5.76,12.9,12.9,0,0,1-.08,1.71L286.06,66a.62.62,0,0,0,.12.54.75.75,0,0,0,.6.23h2.55a.81.81,0,0,0,.88-.77l3.28-26.17c.11-1,.16-1.81.16-2.32A10.43,10.43,0,0,0,291,29.94Z"/><path class="cls-1" d="M121.7,12.57A3.15,3.15,0,1,0,123,16.82,3.15,3.15,0,0,0,121.7,12.57Z"/><path class="cls-1" d="M260.49,12.57a3.15,3.15,0,1,0,1.33,4.25A3.15,3.15,0,0,0,260.49,12.57Z"/><path class="cls-1" d="M198.94,27.11a14.61,14.61,0,0,0-9.27,3.06,14.45,14.45,0,0,0-5.19,8,83.52,83.52,0,0,0-1.6,9.06,84.28,84.28,0,0,0-.72,9.06,10.92,10.92,0,0,0,3.2,8c2.08,2,4.93,3,8.55,3a14.59,14.59,0,0,0,9.19-3,14.24,14.24,0,0,0,5.19-8c.07-.27.14-.55.21-.85a.36.36,0,0,0-.35-.44H205a.49.49,0,0,0-.49.37.9.9,0,0,0,0,.15,10.53,10.53,0,0,1-3.68,6,10,10,0,0,1-6.47,2.24,7.58,7.58,0,0,1-8.07-8,39.67,39.67,0,0,1,.36-4.8c.2-1.59.38-3.12.44-3.64.48-3.71.9-6.48,1.28-8.28A10.51,10.51,0,0,1,192,33a10.08,10.08,0,0,1,6.47-2.24,7.58,7.58,0,0,1,8.08,8v.06a.59.59,0,0,0,.59.61h3a.46.46,0,0,0,.47-.46c0-.32,0-.62,0-.91a10.5,10.5,0,0,0-3.16-8A11.8,11.8,0,0,0,198.94,27.11Z"/><path class="cls-1" d="M173.14,30.13a11.82,11.82,0,0,0-8.51-3,14.56,14.56,0,0,0-14.47,11.07,77.22,77.22,0,0,0-1.59,9.06,61,61,0,0,0-.72,9.06,11,11,0,0,0,3.19,8c2.08,2,4.93,3,8.55,3a14.57,14.57,0,0,0,9.19-3,14.31,14.31,0,0,0,5.2-8c.07-.27.14-.55.21-.85a.36.36,0,0,0-.35-.44h-3.18a.5.5,0,0,0-.49.37c0,.06,0,.15,0,.15a10.51,10.51,0,0,1-3.67,6A10.05,10.05,0,0,1,160,63.73a7.58,7.58,0,0,1-8.07-8,37.49,37.49,0,0,1,.29-4.19l23.09-7.15a.94.94,0,0,0,.74-.93c.14-1.2.23-3.23.25-5.31A11,11,0,0,0,173.14,30.13Zm-.91,10.79a.53.53,0,0,1-.38.49l-19.14,5.91v-.08c.48-3.71.91-6.48,1.28-8.28a10.56,10.56,0,0,1,3.67-6,10.11,10.11,0,0,1,6.48-2.24A7.87,7.87,0,0,1,170,33C172.36,35.31,172.37,37.78,172.23,40.92Z"/><path class="cls-1" d="M139.12,62.62a.62.62,0,0,1,.92.6l-.32,2.59a.94.94,0,0,1-.59.75,11.2,11.2,0,0,1-8,.11c-2.93-1.34-3.68-4.23-3.26-7.84l3.38-27.46.48-3.95,1.12-8.75a.8.8,0,0,1,.88-.77h2.47c.59,0,.71.33.64.77l-1.52,12.4h8c.46,0,.67.28.64.77l-.22,1.78a.85.85,0,0,1-.24.6,1,1,0,0,1-.64.18h-8l-2.8,22.53c-.29,2.42-.61,4.6.63,5.8C134.35,64.13,137.48,63.39,139.12,62.62Z"/></svg>