<?xml version="1.0" encoding="utf-8"?>
<!-- Generator: Adobe Illustrator 23.0.1, SVG Export Plug-In . SVG Version: 6.00 Build 0)  -->
<svg version="1.1" id="Layer_1" xmlns="http://www.w3.org/2000/svg" xmlns:xlink="http://www.w3.org/1999/xlink" x="0px" y="0px"
	 viewBox="0 0 82.7 82.7" style="enable-background:new 0 0 82.7 82.7;" xml:space="preserve">
<style type="text/css">
	.st0{fill:#345D9D;}
</style>
<title>Artboard 26</title>
<path class="st0" d="M41.3,0C18.5,0,0,18.5,0,41.3s18.5,41.3,41.3,41.3s41.3-18.5,41.3-41.3l0,0C82.7,18.5,64.2,0,41.3,0z M42,42.7
	l-4.3,14.5h23c0.7,0,1.2,0.5,1.2,1.2c0,0.1,0,0.2,0,0.3l-2,6.9c-0.2,0.7-0.8,1.1-1.5,1.1H23.2l5.9-20.1l-6.6,2L24,44l6.6-2l8.3-28.2
	c0.2-0.7,0.8-1.1,1.5-1.1h8.9c0.7,0,1.2,0.5,1.2,1.2c0,0.1,0,0.2,0,0.3l-7,23.8l6.6-2l-1.4,4.8L42,42.7z"/>
</svg>
