<svg width="250" height="60" viewBox="0 0 250 60" fill="none" xmlns="http://www.w3.org/2000/svg">
<g clip-path="url(#clip0_504_20516)">
<path d="M20 22.8769L20 18.3164H24.5605V22.8769H20Z" fill="#FFFFFF"/>
<path d="M28.3789 28.205V23.6445H32.9394V28.205H28.3789Z" fill="#FFFFFF"/>
<path d="M36.7432 33.4941V28.9336H41.3037V33.4941H36.7432Z" fill="#FFFFFF"/>
<path d="M28.3789 38.8143V34.2539H32.9394V38.8143H28.3789Z" fill="#FFFFFF"/>
<path d="M20 44.1152L20 39.5547H24.5605V44.1152H20Z" fill="#FFFFFF"/>
<path d="M20 33.4941L20 28.9336H24.5605V33.4941H20Z" fill="#FFFFFF"/>
<path d="M54.9805 41.8064V16H59.989V37.3793H74.6697V41.8064H54.9805Z" fill="#FFFFFF"/>
<path d="M77.6465 41.8064V16H82.655V41.8064H77.6465Z" fill="#FFFFFF"/>
<path d="M105.81 16H111.308L101.564 41.8064H95.0671L85.1045 16H90.7119L98.4241 36.5875L105.81 16Z" fill="#FFFFFF"/>
<path d="M113.869 41.8064V31.1683H118.878V26.634H113.869V16H133.558V20.427H118.878V26.634H131.326V31.1683H118.878V37.3793H133.939V41.8064H113.869Z" fill="#FFFFFF"/>
<path d="M137.695 41.8064V16H149.4C154.463 16 157.766 18.5477 157.766 23.6333C157.766 28.1515 154.463 31.1954 149.4 31.1954H142.704V41.8064H137.695ZM142.704 26.6074H148.838C151.378 26.6074 152.739 25.3884 152.739 23.5797C152.739 21.6327 151.378 20.427 148.838 20.427H142.704V26.6074Z" fill="#FFFFFF"/>
<path d="M161.196 41.8064V31.1683H166.205V26.634H161.196V16H180.885V20.427H166.205V26.634H178.653V31.1683H166.205V37.3793H181.267V41.8064H161.196Z" fill="#FFFFFF"/>
<path d="M185.023 41.8064V31.1683H190.032V26.634H185.023V16H204.712V20.427H190.032V26.634H202.48V31.1683H190.032V37.3793H205.094V41.8064H185.023Z" fill="#FFFFFF"/>
<path d="M208.853 41.8064V16H220.937C225.518 16.0009 228.923 18.2257 228.923 22.4283C228.923 25.6298 227.471 27.5768 224.494 28.6746C227.198 28.6746 228.542 29.8983 228.542 32.3278V41.8064H223.532V33.5695C223.532 31.7159 222.988 31.1761 221.119 31.1761H213.861V41.8064H208.853ZM213.861 26.6244H219.45C222.371 26.6244 223.896 25.6567 223.896 23.543C223.896 21.4294 222.426 20.427 219.45 20.427H213.861V26.6244Z" fill="#FFFFFF"/>
</g>
<defs>
<clipPath id="clip0_504_20516">
<rect width="210" height="28.125" fill="#001100" transform="translate(20 16)"/>
</clipPath>
</defs>
</svg>
