<svg xmlns="http://www.w3.org/2000/svg" width="180" height="31" fill="none"><path fill="#f3f5f0" d="M129.16 26.41c-.933 2.41-2.59 3.975-4.638 4.215l-.663-2.53c1.325-.12 2.349-.782 2.891-2.166l.843-2.168-5.903-14.574h2.83l4.397 11.564.002-.002 4.095-11.564h2.772z"/><path fill="#f3f5f0" fill-rule="evenodd" d="M85.342 8.825c3.793 0 6.565 3.283 6.565 7.77 0 4.486-2.68 8.01-6.325 8.01-1.836 0-3.431-.874-4.577-2.32v7.983H76.79V9.188h3.253l.722 1.926c1.085-1.446 2.681-2.288 4.578-2.289Zm-1.024 4.037c-1.927 0-3.313 1.595-3.313 3.823s1.386 3.825 3.313 3.825 3.313-1.597 3.313-3.825-1.386-3.823-3.313-3.823m61.405-4.037c4.036 0 7.167 3.253 7.167 7.83 0 4.578-3.282 7.951-7.167 7.951-2.258 0-4.125-1.085-5.3-2.89v8.552h-2.41V9.188h2.048l.301 2.528c1.144-1.805 3.012-2.89 5.361-2.89Zm-.362 2.352c-2.89 0-4.999 2.319-4.999 5.54 0 3.223 2.109 5.48 4.999 5.481 2.891 0 5-2.289 5-5.48s-2.109-5.541-5-5.541" clip-rule="evenodd"/><path fill="#f3f5f0" d="M5.206.024A3.014 3.014 0 0 1 8.19 3.03v23.79h14.266v-3.169c0-.846-.688-1.533-1.534-1.533h-8.605l1.991 1.852-.78.837-3.681-3.423 3.682-3.425.78.837-1.99 1.85h8.602a3.01 3.01 0 0 1 3.008 3.008v3.678a.964.964 0 0 1-.963.963H7.68a.964.964 0 0 1-.963-.963V3.03c0-.838-.683-1.527-1.522-1.533l-3.42-.02v19.166h3.34v1.475h-3.85a.964.964 0 0 1-.963-.963V.963A.94.94 0 0 1 .585.28.98.98 0 0 1 1.268 0z"/><path fill="#f3f5f0" fill-rule="evenodd" d="M49.928 8.825c4.428 0 7.65 3.314 7.65 7.891s-3.222 7.89-7.65 7.89-7.65-3.313-7.65-7.89 3.222-7.89 7.65-7.89Zm0 3.976c-1.927 0-3.313 1.626-3.313 3.884s1.386 3.885 3.313 3.885 3.313-1.626 3.313-3.885-1.386-3.884-3.313-3.884m17.044-3.976c4.428 0 7.65 3.314 7.65 7.891s-3.223 7.89-7.65 7.89-7.65-3.313-7.65-7.89 3.222-7.89 7.65-7.89Zm0 3.976c-1.927 0-3.313 1.626-3.313 3.884s1.386 3.885 3.313 3.885 3.313-1.626 3.313-3.885-1.386-3.884-3.313-3.884" clip-rule="evenodd"/><path fill="#f3f5f0" d="M101.485 8.825c3.403 0 6.204 2.229 6.806 5.301l-2.651.843c-.24-2.168-1.957-3.794-4.155-3.794-2.65 0-4.698 2.29-4.698 5.541s2.048 5.48 4.698 5.48c2.288 0 4.095-1.566 4.277-3.975l2.771.842c-.542 3.253-3.432 5.541-6.927 5.541l-.002.002c-4.125 0-7.407-3.161-7.407-7.89s3.191-7.89 7.288-7.89Z"/><path fill="#f3f5f0" fill-rule="evenodd" d="M172.282 8.825c4.368 0 7.529 3.314 7.529 7.891s-3.162 7.89-7.529 7.89-7.528-3.313-7.528-7.89 3.161-7.89 7.528-7.89Zm0 2.35c-2.89 0-4.999 2.32-4.999 5.541s2.109 5.48 4.999 5.48c2.891 0 5-2.288 5-5.48 0-3.191-2.109-5.541-5-5.541" clip-rule="evenodd"/><path fill="#f3f5f0" d="M159.212 9.187h3.313v2.35h-3.313v8.732c0 1.115.814 1.867 2.049 1.867.422 0 .903-.062 1.264-.18l.06 2.409a6 6 0 0 1-1.686.24c-2.44 0-4.095-1.535-4.095-3.854v-9.215h-2.469v-2.35h.962c.934 0 1.626-.783 1.626-1.866V5.332h2.289zM39.99 24.244h-4.216V3.767h4.215zm77.786-15.419c.601 0 1.173.152 1.686.363l-.121 2.83c-.602-.362-1.325-.483-1.806-.483-2.109 0-3.614 1.686-3.614 4.035v8.673h-2.41V9.188h2.049l.301 2.498c.723-1.747 2.167-2.86 3.915-2.86Z"/></svg>