<svg xmlns="http://www.w3.org/2000/svg" width="84" height="32" fill="#fff" data-sentry-component="Logo" data-sentry-element="svg" data-sentry-source-file="Logo.tsx" viewBox="0 0 84 32"><path d="M51.103 21.383h-8.828V7.117a.286.286 0 0 0-.286-.288h-3.652a.286.286 0 0 0-.286.288V24.86c0 .16.127.288.286.288h12.766a.286.286 0 0 0 .286-.288V21.64c-.032-.128-.127-.256-.286-.256M64.24 6.86H48.965a.286.286 0 0 0-.286.289v2.909c0 .16.127.288.285.288h5.558v14.578c0 .16.127.288.286.288h3.652a.286.286 0 0 0 .286-.288v-14.61h5.557a.286.286 0 0 0 .286-.288v-2.91c-.064-.16-.19-.255-.35-.255M81.508 9.93c-.635-.99-1.556-1.758-2.731-2.302-1.175-.543-2.573-.799-4.192-.799h-7.59a.286.286 0 0 0-.286.288V24.86c0 .16.127.288.286.288h3.652a.286.286 0 0 0 .286-.288v-4.763h3.652c1.62 0 3.048-.256 4.192-.8 1.175-.543 2.096-1.31 2.73-2.301.636-.991.953-2.174.953-3.517q0-2.062-.952-3.549m-10.607.384h3.43c1.302 0 2.254.288 2.921.831.635.544.953 1.343.953 2.366 0 .99-.318 1.758-.953 2.334-.635.543-1.62.831-2.921.831H70.9z" data-sentry-element="path" data-sentry-source-file="Logo.tsx"/><path fill="#0049f5" d="M21.855 24.347a.34.34 0 0 0-.35 0l-3.557 2.078c-.095.064-.19.192-.19.32v4.124c0 .128.063.256.19.32.064.032.127.032.191.032a.45.45 0 0 0 .19-.064l3.557-2.078c.096-.064.19-.192.19-.32v-4.092c-.031-.128-.095-.256-.221-.32" data-sentry-element="path" data-sentry-source-file="Logo.tsx"/><path fill="#ff9600" d="m3.755 8.044 3.684 2.142a.45.45 0 0 0 .19.064.45.45 0 0 0 .191-.064l3.62-2.11a.4.4 0 0 0 .16-.32.35.35 0 0 0-.191-.32l-3.652-2.11a.34.34 0 0 0-.35 0l-3.62 2.078a.35.35 0 0 0-.19.32c0 .128.063.256.158.32" data-sentry-element="path" data-sentry-source-file="Logo.tsx"/><path d="m14.71 26.778-8.257-4.827v-9.048a.35.35 0 0 0-.19-.32l-3.59-2.078a.34.34 0 0 0-.349 0c-.095.064-.19.192-.19.32v13.46c0 .128.063.255.19.32l12.036 6.969c.064.032.127.032.19.032.064 0 .128-.032.191-.064.095-.064.19-.192.19-.32v-4.156a.48.48 0 0 0-.221-.288" data-sentry-element="path" data-sentry-source-file="Logo.tsx"/><path d="M19.822 22.015a.35.35 0 0 0-.19-.32l-6.32-3.645.031-7.385a.35.35 0 0 0-.19-.32.34.34 0 0 0-.35 0l-3.588 2.078a.35.35 0 0 0-.19.32v7.481c0 .128.063.256.19.32l6.574 3.836a.4.4 0 0 0 .38-.032l3.462-1.982a.44.44 0 0 0 .19-.351M29.637 8.267 16.172.435a.34.34 0 0 0-.349 0l-3.588 2.078c-.096.064-.191.192-.191.32 0 .127.063.255.19.32l13.338 7.736-.031 15.474c0 .127.063.255.19.32a.45.45 0 0 0 .19.063c.064 0 .128 0 .16-.032l3.588-2.078a.35.35 0 0 0 .19-.32V8.651c-.031-.192-.095-.32-.222-.384" data-sentry-element="path" data-sentry-source-file="Logo.tsx"/></svg>