<svg xmlns="http://www.w3.org/2000/svg" width="72" height="72" fill="none" viewBox="0 0 72 72"><path fill="#7e7070" d="M32.093 25.252 17.984 35.363c-.408.302-.408.958 0 1.26l14.24 10.199c.72.514 1.16 1.401 1.16 2.341v16.018c0 .639-.67 1.029-1.16.657L7.031 46.768a2.7 2.7 0 0 1-1.047-2.163V27.399c0-.87.393-1.668 1.047-2.165L32.224 6.149c.49-.372 1.16 0 1.16.656v15.859c0 1.046-.49 2.022-1.29 2.607zM65.983 27.396v17.206c0 .87-.392 1.667-1.046 2.164l-25.21 19.086c-.49.373-1.16 0-1.16-.656V49.178c0-.94.44-1.827 1.16-2.341l14.24-10.2c.409-.301.409-.958 0-1.259l-14.11-10.11c-.8-.586-1.29-1.562-1.29-2.608V6.802c0-.639.67-1.03 1.16-.657l25.21 19.087a2.7 2.7 0 0 1 1.046 2.164"/></svg>