<svg xmlns="http://www.w3.org/2000/svg" width="270" height="42" fill="none" viewBox="0 0 270 42"><path fill="#fff" d="m36.197 13.147 2.992 3.667c.342.412.646.75.769.943a5.02 5.02 0 0 1 1.396 3.487c-.084 1.541-1.047 2.59-1.939 3.713l-2.094 2.564-1.092 1.329a.32.32 0 0 0-.046.34.3.3 0 0 0 .285.178h10.916c1.667 0 3.767 1.461 3.644 3.68a3.87 3.87 0 0 1-1.088 2.688 3.67 3.67 0 0 1-2.615 1.118H30.232c-1.125 0-4.15.127-4.996-2.564a3.3 3.3 0 0 1-.07-1.74 7.7 7.7 0 0 1 1.15-2.365c.859-1.328 1.79-2.657 2.707-3.945 1.183-1.688 2.398-3.322 3.594-5.042a.324.324 0 0 0 0-.392l-4.343-5.314a.3.3 0 0 0-.243-.124.3.3 0 0 0-.242.124c-1.163 1.614-6.256 8.761-7.342 10.21-1.085 1.447-3.76 1.527-5.24 0l-6.793-7.008a.31.31 0 0 0-.338-.07.3.3 0 0 0-.14.118.33.33 0 0 0-.052.177v13.478a4.68 4.68 0 0 1-.788 2.681 4.48 4.48 0 0 1-2.159 1.71 3.62 3.62 0 0 1-3.371-.492 3.8 3.8 0 0 1-1.15-1.36A3.9 3.9 0 0 1 0 33.189V8.956a4.23 4.23 0 0 1 .874-2.397 4.04 4.04 0 0 1 2.073-1.416 4 4 0 0 1 2.143.005 4.1 4.1 0 0 1 1.85 1.11l10.444 10.748a.3.3 0 0 0 .242.093.3.3 0 0 0 .224-.133l7.419-10.554a3.7 3.7 0 0 1 1.259-1.015 3.6 3.6 0 0 1 1.558-.374h19.298c.527.001 1.05.118 1.53.343s.91.552 1.257.961.606.89.758 1.409c.152.52.195 1.067.125 1.605a3.93 3.93 0 0 1-1.297 2.395c-.7.61-1.591.94-2.51.926H36.443a.3.3 0 0 0-.153.047.318.318 0 0 0-.092.438M199.268 27.328h-5.322a1.59 1.59 0 0 1-1.095-.484 1.67 1.67 0 0 1-.47-1.125V24.43c.011-.423.178-.826.47-1.125.291-.3.684-.473 1.095-.483h4.55c.416 0 .813-.17 1.108-.472.293-.302.457-.71.457-1.137s-.164-.836-.457-1.138a1.55 1.55 0 0 0-1.108-.471h-4.591a1.59 1.59 0 0 1-1.096-.484c-.291-.299-.46-.702-.471-1.125v-1.287c.011-.424.18-.827.471-1.126.292-.3.683-.473 1.096-.483h5.217c.416 0 .813-.17 1.108-.472.293-.301.458-.71.458-1.137s-.165-.836-.458-1.138a1.55 1.55 0 0 0-1.108-.471h-6.261a1.02 1.02 0 0 0-.673.235c-.19.156-.322.377-.371.623l-3.34 16.197v.321c.06.376.253.716.541.954.29.238.656.357 1.025.334h9.183c.416 0 .813-.17 1.108-.472a1.635 1.635 0 0 0 0-2.275 1.55 1.55 0 0 0-1.108-.471zM83.43 11.989h-2.087a1.6 1.6 0 0 0-.865.267 1.67 1.67 0 0 0-.596.698l-4.592 11.37a.1.1 0 0 1-.03.076.1.1 0 0 1-.074.031c-.105 0-.105 0-.105-.107l-4.591-11.37a1.9 1.9 0 0 0-.522-.75c-.418-.322-.94.107-1.044.643L65.48 29.258a.82.82 0 0 0 .105.537c.125.259.318.477.558.629.24.151.517.23.798.229h.626c.405-.022.787-.2 1.07-.498.282-.298.444-.695.454-1.111V18.532c0-.028.011-.056.03-.076a.103.103 0 0 1 .148 0q.03.032.03.076l4.28 11.048c.113.299.316.553.578.726s.571.257.883.24h.417c.307-.005.607-.097.865-.268a1.67 1.67 0 0 0 .596-.698l4.279-10.94a.1.1 0 0 1 .03-.077.103.103 0 0 1 .148 0q.03.032.03.076v10.405c.01.423.18.826.47 1.125.292.3.684.473 1.096.484h.626c.412-.011.804-.184 1.095-.483.292-.3.46-.703.47-1.126V13.598a1.96 1.96 0 0 0-.595-1.113 1.86 1.86 0 0 0-1.137-.496M131.226 20.677h-4.592c-.387 0-.759.158-1.033.44a1.52 1.52 0 0 0-.428 1.062c0 .398.154.78.428 1.062.274.281.646.44 1.033.44h.835c.835 0 1.67.75 1.253 1.608-.627 1.395-1.879 2.146-3.862 2.146-2.922 0-4.696-2.253-4.696-6.114 0-3.862 1.879-6.114 4.696-6.114a3.7 3.7 0 0 1 1.89.406c.585.3 1.085.752 1.45 1.31.163.313.403.576.696.764s.628.295.973.309h.94c.211.017.423-.018.618-.104a1.3 1.3 0 0 0 .5-.387 1.371 1.371 0 0 0 .238-1.225 7.84 7.84 0 0 0-2.991-3.386 7.54 7.54 0 0 0-4.314-1.12c-4.8 0-8.453 3.54-8.453 9.547 0 6.006 3.444 9.546 8.558 9.546 4.592 0 7.827-3.003 7.827-7.83v-.75a1.6 1.6 0 0 0-.111-.622 1.541 1.541 0 0 0-.851-.874 1.5 1.5 0 0 0-.604-.114M104.093 13.062a1.6 1.6 0 0 0-.565-.773 1.54 1.54 0 0 0-.896-.3h-2.713a1.54 1.54 0 0 0-.895.3 1.6 1.6 0 0 0-.566.773L93.24 28.507a1.67 1.67 0 0 0 .206 1.451c.142.208.329.38.547.5.218.121.46.188.708.195h.835c.321-.003.634-.108.895-.3s.459-.462.566-.773l.626-2.038c.107-.311.305-.581.566-.773.262-.192.574-.296.895-.3h4.279c.321.003.634.108.895.3s.459.462.566.773l.626 2.038c.107.311.305.581.566.773.262.192.574.297.895.3h.835a1.55 1.55 0 0 0 .708-.195c.218-.12.406-.292.548-.5a1.66 1.66 0 0 0 .205-1.45zm-2.65 10.19h-.313a1.55 1.55 0 0 1-.708-.195 1.6 1.6 0 0 1-.548-.5 1.66 1.66 0 0 1-.205-1.45l1.565-4.935a.107.107 0 0 1 .104-.107q.044 0 .074.031.03.032.031.076l1.565 4.934a1.8 1.8 0 0 1-.295 1.449c-.149.204-.34.373-.56.493-.219.12-.462.19-.71.204M143.332 11.989h-.731c-.412.01-.803.184-1.095.483-.291.3-.459.703-.47 1.126v15.446c.011.423.179.826.47 1.125.292.3.683.473 1.095.484h.731c.412-.011.804-.184 1.095-.483.291-.3.46-.703.47-1.126V13.598a1.75 1.75 0 0 0-.488-1.107 1.66 1.66 0 0 0-1.077-.502M161.595 15.207a4 4 0 0 1 2.02.486 4.1 4.1 0 0 1 1.528 1.445c.135.373.376.696.692.926.318.23.695.355 1.082.36h.73c.212.018.423-.017.618-.103s.367-.218.5-.387c.134-.17.226-.369.267-.582a1.4 1.4 0 0 0-.027-.643c-1.045-3.218-3.862-5.042-7.514-5.042-4.8 0-8.454 3.433-8.454 9.547s3.549 9.546 8.454 9.546c3.861 0 6.469-2.145 7.409-4.827a1.358 1.358 0 0 0-.239-1.225 1.3 1.3 0 0 0-.5-.388 1.3 1.3 0 0 0-.618-.103h-.835c-.38.034-.744.172-1.055.398-.312.226-.56.533-.718.89a3.84 3.84 0 0 1-1.461 1.458 3.7 3.7 0 0 1-1.983.472c-2.714 0-4.592-2.145-4.592-6.114s1.878-6.114 4.696-6.114M215.653 11.989h-4.906c-.411.01-.804.184-1.095.483-.292.3-.459.703-.47 1.126v15.446c.011.423.178.826.47 1.125.291.3.684.473 1.095.484h4.906c5.531 0 8.87-3.54 8.87-9.332s-3.444-9.332-8.87-9.332m-.21 15.231h-.834a1.6 1.6 0 0 1-1.096-.483 1.68 1.68 0 0 1-.469-1.126v-8.688c.011-.423.178-.826.469-1.126.292-.299.684-.472 1.096-.483h.834c3.444 0 5.219 1.824 5.219 5.9s-1.775 6.006-5.219 6.006M243.308 27.327h-5.323a1.59 1.59 0 0 1-1.095-.483 1.67 1.67 0 0 1-.47-1.126v-1.287c.011-.423.178-.826.47-1.125.291-.3.684-.473 1.095-.484h4.592c.415 0 .814-.17 1.107-.47.293-.303.459-.712.459-1.139 0-.426-.166-.835-.459-1.137a1.54 1.54 0 0 0-1.107-.471h-4.592a1.59 1.59 0 0 1-1.095-.484 1.67 1.67 0 0 1-.47-1.125v-1.288c.011-.423.178-.826.47-1.125.291-.3.684-.473 1.095-.483h5.219c.414 0 .813-.17 1.106-.472s.459-.71.459-1.137-.166-.836-.459-1.138a1.54 1.54 0 0 0-1.106-.471h-9.08a1.6 1.6 0 0 0-1.096.483c-.291.3-.458.702-.469 1.126v15.445c.011.424.178.827.469 1.126.292.3.685.472 1.096.483h9.184c.411-.01.804-.184 1.094-.483.292-.3.46-.702.471-1.126a1.6 1.6 0 0 0-.11-.62 1.57 1.57 0 0 0-.852-.875 1.5 1.5 0 0 0-.603-.114M266.893 11.989h-.732c-.411.01-.804.184-1.095.483-.29.3-.459.703-.469 1.126v9.975c0 .108 0 .108-.105.108h-.104l-7.305-10.941a1.5 1.5 0 0 0-.548-.482 1.46 1.46 0 0 0-.704-.162h-.982c-.411.011-.804.184-1.095.484-.292.299-.459.702-.47 1.125v15.446c.011.423.178.826.47 1.126.291.299.684.472 1.095.483h.73c.413-.01.804-.184 1.096-.483.291-.3.46-.703.47-1.126V19.068a.107.107 0 0 1 .105-.107h.104l7.41 10.94c.141.205.33.37.547.483s.461.168.705.162h.938c.413-.011.804-.184 1.096-.484.291-.3.46-.702.471-1.126V13.491a1.85 1.85 0 0 0-.565-1.038 1.76 1.76 0 0 0-1.063-.464"/></svg>