<svg xmlns="http://www.w3.org/2000/svg" width="256" height="256" fill="none" viewBox="0 0 256 256"><path fill="#fff" d="M52.693 89.762 13.87 69.995c-3.046 5.962-5.606 12.216-7.68 18.6l41.446 13.416a82.5 82.5 0 0 1 5.056-12.25M85.646 54.926l21.517 37.04a42 42 0 0 1 9.98-4.149L106.028 46.47c2.82-.746 5.704-1.394 8.62-1.847l-6.837-43.034a126 126 0 0 0-19.54 4.698l13.286 40.766a87 87 0 0 0-12.314 5.12l-19.54-38.14c-5.93 3.045-11.699 6.578-17.078 10.53l25.697 35.193c2.333-1.75 4.796-3.338 7.324-4.829M201.039 85.614 164 107.131c1.815 3.143 3.241 6.513 4.18 9.981l41.349-11.148a78 78 0 0 1 1.847 8.588l43.034-6.838a123 123 0 0 0-4.731-19.54l-40.733 13.319a87 87 0 0 0-5.12-12.314l38.14-19.573c-3.046-5.93-6.578-11.698-10.531-17.077l-35.16 25.697a111 111 0 0 1 4.764 7.388M185.941 13.837c-5.963-3.046-12.217-5.606-18.601-7.68l-13.383 41.446a85.5 85.5 0 0 1 12.249 5.055zM170.447 54.181l-21.744 37.752a41.8 41.8 0 0 1 8.62 6.61l60.986-61.213a129.6 129.6 0 0 0-15.263-13.026L177.9 59.009c-2.398-1.75-4.861-3.37-7.453-4.828M54.18 85.484 91.9 107.26a42.8 42.8 0 0 1 6.611-8.652L37.363 37.59a129.6 129.6 0 0 0-13.027 15.262l34.673 25.18a95 95 0 0 0-4.828 7.452M141.193 43.876l6.579-42.353A130 130 0 0 0 127.972 0h-.097v86.392h.097c3.63 0 7.259.453 10.726 1.393l11.18-42.094c-2.852-.778-5.736-1.361-8.685-1.815M87.785 117.274l-42.094-11.212a88 88 0 0 0-1.815 8.684l-42.353-6.611A131 131 0 0 0 0 128h86.392c0-3.662.486-7.259 1.393-10.726M203.309 166.238l38.821 19.767c3.046-5.963 5.606-12.217 7.68-18.601l-41.446-13.415a82.6 82.6 0 0 1-5.055 12.249M170.321 201.04l-21.485-37.038a42 42 0 0 1-9.981 4.147l11.115 41.349c-2.819.745-5.703 1.394-8.619 1.847l6.837 43.034a126 126 0 0 0 19.54-4.699l-13.286-40.765a87 87 0 0 0 12.314-5.12l19.54 38.141c5.93-3.046 11.699-6.579 17.078-10.532l-25.665-35.192a69 69 0 0 1-7.388 4.828M54.96 170.385 92 148.868c-1.815-3.143-3.24-6.513-4.18-9.98l-41.35 11.147a78 78 0 0 1-1.846-8.587L1.59 148.285a122.6 122.6 0 0 0 4.731 19.54l40.733-13.318a89 89 0 0 0 5.12 12.314l-38.14 19.572c3.045 5.931 6.578 11.699 10.531 17.078l35.16-25.697a110 110 0 0 1-4.764-7.389M70.059 242.162c5.962 3.047 12.216 5.607 18.6 7.68l13.383-41.446a85.5 85.5 0 0 1-12.249-5.055zM85.518 201.818l21.744-37.752a41.7 41.7 0 0 1-8.62-6.61l-60.986 61.213a129.7 129.7 0 0 0 15.263 13.027l25.146-34.706a95 95 0 0 0 7.453 4.828M201.787 170.515l-37.719-21.776a42.8 42.8 0 0 1-6.611 8.652l61.181 61.019a129.7 129.7 0 0 0 13.026-15.263l-34.673-25.179c1.718-2.43 3.338-4.893 4.796-7.453M117.273 168.214l-11.179 42.094a88 88 0 0 0 8.684 1.815l-6.578 42.353a130 130 0 0 0 19.8 1.523h.097v-86.391H128c-3.63 0-7.259-.486-10.727-1.394M169.608 128c0 3.662-.453 7.258-1.393 10.726l42.094 11.212a88 88 0 0 0 1.815-8.685l42.353 6.611A131 131 0 0 0 256 128z"/></svg>