<svg xmlns="http://www.w3.org/2000/svg" width="597" height="158" fill="none" viewBox="0 0 597 158"><path fill="#000" d="M220.456 54.08h-20.94v49.84h10.8V64.88h3.1l17.26 39.04h11.8zM408.953 103.92h10.8V54.08h-10.8zM264.497 54.08l-22.02 49.84h11.82l17.24-39.04h3.1v39.04h10.8V54.08zM333.733 54.08h-19.76l-22.02 49.84h11.8l7.18-16.24h25.84l7.18 16.24h11.8zm-18.02 22.8 5.3-12h5.68l5.3 12z"/><path fill="#000" d="M386.936 54.08h-24.94v49.84h10.8V64.88h7.1l17.26 39.04h11.8zM425.758 54.08v10.8h25.2v39.04h10.8V64.88h25.2v-10.8zM503.753 54.08h-10.8v49.84h47v-10.8h-36.2zM596.957 64.88v-10.8h-51v49.84h51v-10.8h-40.2v-9.44h34.86v-10.8h-34.86v-8zM32.52 55.4 8.56 43.2a79 79 0 0 0-4.74 11.48l25.58 8.28c.84-2.6 1.88-5.14 3.12-7.56M52.86 33.9l13.28 22.86c1.94-1.12 4.02-1.98 6.16-2.56l-6.86-25.52c1.74-.46 3.52-.86 5.32-1.14L66.54.98c-4.08.64-8.14 1.62-12.06 2.9l8.2 25.16c-2.62.86-5.16 1.92-7.6 3.16L43.02 8.66a78 78 0 0 0-10.54 6.5l15.86 21.72c1.44-1.08 2.96-2.06 4.52-2.98M124.079 52.84l-22.86 13.28c1.12 1.94 2 4.02 2.58 6.16l25.52-6.88c.48 1.74.86 3.52 1.14 5.3l26.56-4.22c-.64-4.08-1.62-8.14-2.92-12.06l-25.14 8.22c-.86-2.62-1.92-5.16-3.16-7.6l23.54-12.08a78 78 0 0 0-6.5-10.54l-21.7 15.86q1.56 2.22 2.94 4.56M114.76 8.54a79 79 0 0 0-11.48-4.74l-8.26 25.58c2.58.84 5.12 1.88 7.56 3.12zM105.197 33.44l-13.42 23.3c1.94 1.12 3.74 2.5 5.32 4.08l37.64-37.78c-2.92-2.92-6.1-5.62-9.42-8.04l-15.52 21.42c-1.48-1.08-3-2.08-4.6-2.98M33.44 52.76 56.72 66.2c1.12-1.94 2.5-3.74 4.08-5.34L23.06 23.2c-2.92 2.92-5.62 6.1-8.04 9.42l21.4 15.54a58 58 0 0 0-2.98 4.6M87.142 27.08 91.202.94C87.182.32 83.082 0 78.982 0h-.06v53.32h.06c2.24 0 4.48.28 6.62.86l6.9-25.98a48 48 0 0 0-5.36-1.12M54.18 72.38 28.2 65.46c-.46 1.76-.84 3.56-1.12 5.36L.94 66.74C.32 70.76 0 74.9 0 79h53.32c0-2.26.3-4.48.86-6.62M125.48 102.6l23.96 12.2c1.88-3.68 3.46-7.54 4.74-11.48l-25.58-8.28c-.84 2.6-1.88 5.14-3.12 7.56M105.119 124.08l-13.26-22.86a26 26 0 0 1-6.16 2.56l6.86 25.52c-1.74.46-3.52.86-5.32 1.14L91.46 157c4.08-.64 8.14-1.62 12.06-2.9l-8.2-25.16c2.62-.86 5.16-1.92 7.6-3.16l12.06 23.54c3.66-1.88 7.22-4.06 10.54-6.5l-15.84-21.72c-1.46 1.1-2.98 2.08-4.56 2.98M33.92 105.16l22.86-13.28c-1.12-1.94-2-4.02-2.58-6.16L28.68 92.6c-.48-1.74-.86-3.52-1.14-5.3L.98 91.52c.64 4.08 1.62 8.14 2.92 12.06l25.14-8.22c.86 2.6 1.92 5.16 3.16 7.6L8.66 115.04c1.88 3.66 4.06 7.22 6.5 10.54l21.7-15.86q-1.56-2.22-2.94-4.56M43.238 149.46c3.68 1.88 7.54 3.46 11.48 4.74l8.26-25.58c-2.58-.84-5.12-1.88-7.56-3.12zM52.782 124.56l13.42-23.3c-1.94-1.12-3.74-2.5-5.32-4.08l-37.64 37.78c2.92 2.92 6.1 5.62 9.42 8.04l15.52-21.42c1.48 1.06 3.02 2.06 4.6 2.98M124.54 105.24 101.26 91.8a26.4 26.4 0 0 1-4.08 5.34l37.76 37.66c2.92-2.92 5.62-6.1 8.04-9.42l-21.4-15.54c1.06-1.5 2.06-3.02 2.96-4.6M72.38 103.82l-6.9 25.98c1.76.46 3.56.84 5.36 1.12l-4.06 26.14c4.02.62 8.12.94 12.22.94h.06v-53.32H79c-2.24 0-4.48-.3-6.62-.86M104.68 79c0 2.26-.28 4.48-.86 6.62l25.98 6.92c.46-1.76.84-3.56 1.12-5.36l26.14 4.08c.62-4.02.94-8.16.94-12.26z"/></svg>