<svg xmlns="http://www.w3.org/2000/svg" width="133" height="42" fill="none" viewBox="0 0 133 42"><path fill="#fff" d="M1.234 18.83c5.86-.17 19.834-.813 22.953-5.365 2.371-3.458-2.862-7.06-5.35-8.36-2.486-1.306-5.946-1.889-5.946-1.889 6.963.788 17.97 4.613 14.544 11.568-3.068 6.225-19.065 7.07-26.205 7.07V18.83h.004zM1.23 34.453v-2.977c8.862-.297 20.704-.555 26.846-6.447.167 5.19-6.918 7.532-12.34 8.508-4.693.845-9.69 1.051-14.504.916z"/><path fill="#fff" d="M28.08 18.585c-4.864 5.04-14.623 6.44-26.943 6.44v3.018c12.955 0 26.906-1.907 26.943-9.458M113.844 24.472c0-5.616 3.478-10.208 9.264-10.208 6.619 0 9.076 4.933 8.774 9.866h-14.068c.075 4.78 2.76 7.55 6.353 7.55 2.799 0 4.765-1.555 5.712-4.325l2.155.607c-.907 4.06-4.047 6.755-8.584 6.755-5.901 0-9.606-4.59-9.606-10.245m4.084-2.24h9.907c-.189-3.225-1.853-5.958-4.727-5.958-2.873 0-4.726 2.58-5.18 5.958M111.759 32.253l1.323 1.783v.303h-6.543v-.303l1.323-1.783v-22.09l-1.323-1.935v-.303l5.218-.947v25.275zM85.593 41.436v-.303l1.323-1.972V16.809l-1.323-1.685-.027-.665h5.207v3.795c1.06-2.428 3.518-3.985 6.277-3.985 5.106 0 8.736 4.173 8.736 10.245 0 6.073-4.009 10.208-9.53 10.208-2.156 0-4.161-.872-5.485-2.505v6.944l1.815 1.972v.303h-6.997zm10.286-8.88c3.516 0 5.861-3.453 5.861-8.044 0-4.59-2.23-7.475-5.597-7.475-7.252 0-7.922 15.519-.264 15.519M73.357 34.717c-5.105 0-8.736-4.212-8.736-10.245s4.01-10.208 9.53-10.208c2.46 0 4.69 1.025 5.901 2.428l1.513-2.238h1.928v17.758l1.324 1.82v.305h-5.18v-3.605c-1.06 2.39-3.519 3.985-6.278 3.985zm.945-2.77c7.619 0 7.555-15.519.227-15.519-3.516 0-5.861 3.453-5.861 8.046 0 4.592 2.23 7.475 5.634 7.475zM32.82 34.337v-.303l1.626-1.897.006-22.842-1.702-2.01v-.303h6.234l7.752 17.606c1.286 2.845 1.929 5.236 1.929 5.236s.643-2.39 1.853-5.275l7.45-17.57h6.278v.304l-1.702 2.01v22.73l1.702 2.01v.302h-7.563v-.302l1.702-2.01v-14.23c0-3.112.19-5.615.19-5.615s-.87 2.353-2.119 5.235l-7.373 16.924h-2.42l-7.45-16.848c-1.286-2.846-2.119-5.198-2.119-5.198s.19 2.505.19 5.615l.075 14.229 1.627 1.898v.302H32.82z"/></svg>