<svg xmlns="http://www.w3.org/2000/svg" width="400" height="222" fill="none" viewBox="0 0 400 222"><path fill="#000" d="M289.181 30.446C289.181 12.52 273.948 0 252.142 0c-17.731 0-29.951 8.766-44.103 18.918-2.368 1.696-4.815 3.455-7.339 5.205-7.28 5.044-14.846 9.965-21.748 14.312a2.41 2.41 0 0 1-2.288.156c-5.491-2.5-16.368-6.506-29.741-6.506C117.23 32.085 111 48.414 111 62.114c0 10.88 6.529 19.94 18.874 26.196 3.796 1.923 7.574 3.29 10.654 4.224a7.76 7.76 0 0 1 5.1 4.907c.805 2.362 1.758 4.893 2.937 7.496 1.304 2.877 2.862 6.035 4.619 9.388 1.883 3.579 5.608 5.675 9.457 5.675 1.389 0 2.795-.271 4.135-.844 19.732-8.424 50.666-18.918 85.993-21.076a11.24 11.24 0 0 0 10.601-11.622 160 160 0 0 0-.432-7.953 126 126 0 0 0-.547-5.227 9.11 9.11 0 0 1 3.288-8.198c2.439-1.985 5.238-4.4 8.087-7.19 10.231-10.013 15.42-19.246 15.42-27.444zm-121.506 77.768c-.948.378-1.963.595-2.982.52a6.8 6.8 0 0 1-5.75-4.117c-.538-1.27-1.046-2.496-1.575-3.655-1.117-2.465-2.047-4.991-2.759-7.132a4.346 4.346 0 0 1 2.198-5.28c4.361-2.145 11.455-4.747 18.317-6.559.664-.173 1.242-.604 1.549-1.212 2.515-4.956-1.522-8.829-5.358-7.763-.245.067-6.084 1.683-12.167 4.019-3.609 1.386-6.506 2.696-8.785 4.001-3.324 1.905-7.303 2.305-10.894.96-8.247-3.091-18.807-9.149-18.807-19.873 0-9.486 2.981-20.37 26.243-20.37 5.75 0 10.997.879 15.389 2.02 2.114.55 2.515 3.375.637 4.499-5.968 3.575-9.813 5.773-9.911 5.83a4.826 4.826 0 0 0-1.798 6.59 4.85 4.85 0 0 0 6.604 1.795c.156-.089 9.88-5.653 22.639-13.598q.1-.062.2-.124c7.882-4.907 16.898-10.716 25.532-16.693 2.59-1.794 5.073-3.575 7.472-5.294 13.319-9.552 23.84-17.101 38.455-17.101 16.368 0 27.365 8.353 27.365 20.787 0 9.024-12.021 20.725-20.343 27.471-2.278 1.847-5.224 2.638-8.139 2.265q-1.256-.16-2.519-.28a2.473 2.473 0 0 1-1.941-3.655c4.157-7.536 5.902-12.176 6-12.438a4.82 4.82 0 0 0-2.853-6.2 4.843 4.843 0 0 0-6.222 2.838c-.026.075-2.754 7.26-9.586 18.278a2.48 2.48 0 0 1-1.913 1.16 2.444 2.444 0 0 1-2.546-3.091c1.193-4.277 1.398-6.235 1.424-6.55.227-2.656-1.74-5.028-4.406-5.254-2.674-.222-5.006 1.71-5.233 4.37 0 .035-.378 3.21-3.053 11.053a2.55 2.55 0 0 1-1.909 1.67c-6.235 1.225-10.405 2.464-10.846 2.597a4.823 4.823 0 0 0-3.231 6.018 4.84 4.84 0 0 0 6.031 3.228c.115-.035 5.077-1.5 12.291-2.789l.223-.03c.423-.036 2.612-.445 2.71-.463 6.911-1.079 15.34-1.851 23.48-1.18 3.075.252 5.563 2.602 5.932 5.657.16 1.34.307 2.753.427 4.174.107 1.297.196 2.682.272 4.144.076 1.46-.329 4.658-3.636 4.813-2.924.138-15.723.205-41.339 6.329-19.546 4.671-36.978 12.07-40.903 13.637zM262.479 212.15c-8.362 0-14.128-7.192-14.128-17.454 0-10.261 5.864-17.262 14.32-17.262s14.034 7.001 14.034 17.067-5.864 17.644-14.226 17.644zm-2.115 9.59c5.864 0 10.286-2.683 13.647-7.289.481-.671.962-.96 1.443-.96.672 0 1.251.671 1.251 1.919v2.492c0 1.44.962 2.399 2.405 2.399h6.536c1.536 0 2.405-.862 2.405-2.399v-46.03c0-1.532-.864-2.398-2.405-2.398h-6.536c-1.536 0-2.405.861-2.405 2.398v.862c0 1.248-.481 2.012-1.153 2.012-.481 0-.962-.288-1.536-.959-3.558-4.029-8.46-5.85-14.035-5.85-13.554 0-23.26 10.932-23.26 26.657 0 15.726 9.898 27.138 23.643 27.138zM2.387 220.301h6.728a2.38 2.38 0 0 0 2.404-2.399v-34.231c0-1.821.77-2.781 1.732-2.781.77 0 1.536.578 2.115 2.012l12.882 32.508c1.25 3.261 3.557 4.891 7.017 4.891s5.673-1.63 6.92-4.891l12.88-32.601c.58-1.439 1.346-2.012 2.116-2.012.962 0 1.732.959 1.732 2.781v34.329a2.38 2.38 0 0 0 2.404 2.399h6.728a2.38 2.38 0 0 0 2.405-2.399v-56.576c0-5.273-2.596-8.151-7.307-8.151-4.71 0-7.69 2.11-9.417 6.423l-18.457 46.892-18.55-46.892c-1.731-4.313-4.71-6.423-9.417-6.423h-.191c-4.613 0-7.111 2.878-7.111 8.151v56.576a2.38 2.38 0 0 0 2.404 2.399zm99.098-8.151c-8.362 0-14.129-7.192-14.129-17.454 0-10.261 5.865-17.262 14.32-17.262s14.035 7.001 14.035 17.067-5.864 17.644-14.226 17.644zm-2.115 9.59c5.864 0 10.285-2.683 13.647-7.289.481-.671.962-.96 1.443-.96.672 0 1.251.671 1.251 1.919v2.492c0 1.44.962 2.399 2.404 2.399h6.537c1.536 0 2.404-.862 2.404-2.399v-46.03c0-1.532-.864-2.398-2.404-2.398h-6.537c-1.536 0-2.404.861-2.404 2.398v.862c0 1.248-.481 2.012-1.153 2.012-.481 0-.962-.288-1.536-.959-3.558-4.029-8.461-5.85-14.035-5.85-13.554 0-23.26 10.932-23.26 26.657 0 15.726 9.897 27.138 23.643 27.138zm219.72-9.59c-8.362 0-14.128-7.192-14.128-17.454 0-10.261 5.864-17.262 14.319-17.262s14.035 7.001 14.035 17.067-5.864 17.644-14.226 17.644zm-2.115 9.59c5.864 0 10.286-2.683 13.647-7.289.481-.671.962-.96 1.443-.96.672 0 1.251.671 1.251 1.919v2.492c0 1.44.962 2.399 2.405 2.399h6.536c1.536 0 2.405-.862 2.405-2.399v-67.126c0-1.532-.864-2.398-2.405-2.398h-6.536c-1.536 0-2.405.861-2.405 2.398v21.958c0 1.248-.481 2.012-1.153 2.012-.481 0-.962-.288-1.536-.959-3.558-4.029-8.46-5.85-14.035-5.85-13.554 0-23.261 10.932-23.261 26.657 0 15.726 9.899 27.138 23.644 27.138zm68.054-32.508h-20.375c-1.345 0-2.209-.67-2.209-1.728 0-.288 0-.67.192-1.052 2.208-5.562 6.728-8.92 12.592-8.92s9.898 3.358 11.822 9.013c.098.382.191.671.191.959 0 1.053-.864 1.728-2.208 1.728zm-8.843 32.508c11.052 0 19.129-5.561 22.397-14.956.098-.382.192-.671.192-.96 0-1.053-.481-1.63-1.826-1.63h-6.826c-1.345 0-2.017.577-2.596 1.821-2.115 3.931-6.153 6.139-11.247 6.139-7.788 0-13.073-4.891-14.609-12.371-.383-1.631.579-2.59 2.208-2.59h33.257c1.536 0 2.404-.862 2.404-2.399v-.289c0-16.494-9.898-26.56-24.315-26.56s-25.278 10.355-25.278 27.138c0 15.534 10.668 26.657 26.239 26.657m-187.621-1.439h6.537c1.536 0 2.404-.862 2.404-2.399v-28.096c0-6.615 5.094-11.986 12.494-11.986 6.345 0 10.094 3.741 10.094 9.396v30.686c0 1.533.864 2.399 2.405 2.399h6.536c1.536 0 2.405-.862 2.405-2.399v-31.259c0-11.412-6.92-18.698-17.014-18.698-7.017 0-10.575 2.399-14.128 5.944-.672.671-1.251.96-1.732.96-.673 0-1.055-.578-1.055-1.728v-1.44c0-1.532-1.056-2.203-2.498-2.203h-6.439c-1.536 0-2.404.862-2.404 2.399v46.03c0 1.532.863 2.399 2.404 2.399zm-17.877 0h6.536c1.536 0 2.405-.862 2.405-2.399v-46.03c0-1.532-.864-2.398-2.405-2.398h-6.536c-1.536 0-2.405.861-2.405 2.398v46.03c0 1.533.864 2.399 2.405 2.399m3.268-57.628c4.23 0 7.307-3.261 7.307-7.383 0-4.123-3.077-7.29-7.307-7.29s-7.307 3.163-7.307 7.29c0 4.126 3.17 7.383 7.307 7.383m-37.968 57.628h6.537c1.536 0 2.404-.862 2.404-2.399v-23.876c0-9.493 4.52-14.095 16.533-14.095 1.251 0 1.923-.862 1.923-2.399v-6.233c0-1.532-.672-2.398-1.923-2.398-6.345 0-10.286 1.439-13.839 6.041-.579.768-1.153 1.15-1.634 1.15-.672 0-1.055-.577-1.055-1.728v-2.683c0-1.532-1.056-2.203-2.498-2.203h-6.439c-1.536 0-2.404.862-2.404 2.399v46.03c0 1.532.864 2.399 2.404 2.399z"/><path fill="#000" d="M9.115 220.301H2.387l.017.005A2.38 2.38 0 0 1 0 217.907v-56.576c0-5.273 2.498-8.151 7.11-8.151h.192c4.707 0 7.686 2.11 9.418 6.423l18.55 46.892 18.456-46.892c1.727-4.313 4.706-6.423 9.417-6.423s7.307 2.878 7.307 8.151v56.576a2.38 2.38 0 0 1-2.405 2.399h-6.728a2.38 2.38 0 0 1-2.404-2.399v-34.329c0-1.822-.77-2.781-1.732-2.781-.77 0-1.536.573-2.115 2.012L42.184 215.41c-1.246 3.261-3.46 4.891-6.919 4.891-3.46 0-5.766-1.63-7.017-4.891l-12.882-32.508c-.579-1.434-1.345-2.012-2.115-2.012-.962 0-1.732.96-1.732 2.781v34.231a2.38 2.38 0 0 1-2.404 2.399"/></svg>