<svg xmlns="http://www.w3.org/2000/svg" width="169" height="32" fill="none" viewBox="0 0 169 32"><path fill="#fff" d="M48.373 8.119C48.373 3.339 44.32 0 38.522 0c-4.716 0-7.966 2.338-11.73 5.045-.63.452-1.28.921-1.951 1.388a160 160 0 0 1-5.785 3.816.64.64 0 0 1-.608.042c-1.46-.667-4.353-1.735-7.91-1.735-7.897 0-9.554 4.354-9.554 8.008 0 2.901 1.737 5.317 5.02 6.985 1.01.513 2.014.878 2.833 1.127a2.06 2.06 0 0 1 1.357 1.308c.214.63.467 1.305.781 2 .347.766.761 1.608 1.229 2.503A2.85 2.85 0 0 0 14.719 32c.369 0 .743-.072 1.1-.225 5.247-2.246 13.474-5.045 22.87-5.62a2.994 2.994 0 0 0 2.819-3.1 43 43 0 0 0-.115-2.12c-.04-.481-.091-.956-.146-1.394a2.43 2.43 0 0 1 .875-2.186 32 32 0 0 0 2.15-1.918c2.722-2.67 4.102-5.132 4.102-7.318zM16.057 28.857a1.8 1.8 0 0 1-.793.139c-.659-.05-1.26-.461-1.529-1.098-.143-.339-.278-.666-.419-.975a20 20 0 0 1-.734-1.902 1.16 1.16 0 0 1 .585-1.408c1.16-.572 3.047-1.266 4.872-1.749a.64.64 0 0 0 .412-.323c.668-1.322-.405-2.354-1.426-2.07a39 39 0 0 0-3.235 1.072c-.96.37-1.73.719-2.337 1.067a3.4 3.4 0 0 1-2.897.255c-2.193-.824-5.002-2.44-5.002-5.299 0-2.53.793-5.432 6.98-5.432 1.529 0 2.924.234 4.092.539.563.147.669.9.17 1.2-1.588.953-2.61 1.539-2.636 1.554a1.289 1.289 0 0 0 1.278 2.236c.041-.023 2.627-1.507 6.02-3.626q.028-.016.054-.033a170 170 0 0 0 6.79-4.452c.69-.478 1.35-.953 1.988-1.411 3.542-2.547 6.34-4.56 10.227-4.56 4.353 0 7.278 2.227 7.278 5.543 0 2.406-3.197 5.526-5.41 7.325a2.85 2.85 0 0 1-2.165.604 21 21 0 0 0-.67-.074.66.66 0 0 1-.516-.975c1.105-2.01 1.57-3.247 1.595-3.317a1.287 1.287 0 0 0-2.413-.896c-.007.02-.733 1.936-2.55 4.874a.66.66 0 0 1-.508.309.65.65 0 0 1-.677-.824c.317-1.14.371-1.663.378-1.747a1.294 1.294 0 0 0-1.171-1.4 1.28 1.28 0 0 0-1.392 1.164c0 .01-.1.857-.812 2.948a.68.68 0 0 1-.508.445 32 32 0 0 0-2.884.693 1.287 1.287 0 0 0-.86 1.605c.205.68.922 1.066 1.604.86.03-.009 1.35-.4 3.27-.743l.058-.009c.113-.009.695-.118.721-.123 1.838-.287 4.08-.494 6.245-.315.817.068 1.48.694 1.577 1.509a33 33 0 0 1 .186 2.218c.02.39-.087 1.242-.967 1.284-.777.037-4.181.054-10.994 1.687-5.198 1.246-9.834 3.219-10.878 3.637zM127.831 23.336c-2.224 0-3.758-1.918-3.758-4.655s1.56-4.603 3.809-4.603 3.732 1.867 3.732 4.551-1.559 4.705-3.783 4.705zm-.563 2.557c1.56 0 2.736-.715 3.63-1.944.128-.179.256-.256.384-.256.178 0 .332.18.332.512v.665c0 .383.256.64.64.64h1.738c.409 0 .64-.23.64-.64V12.595c0-.409-.23-.64-.64-.64h-1.738c-.409 0-.64.23-.64.64v.23c0 .333-.127.536-.306.536-.128 0-.256-.077-.409-.256-.946-1.074-2.25-1.56-3.732-1.56-3.605 0-6.187 2.916-6.187 7.11 0 4.193 2.633 7.236 6.288 7.236zm-68.61-.384h1.79c.357 0 .639-.28.639-.64v-9.128c0-.486.205-.741.46-.741.206 0 .41.154.563.536l3.426 8.67c.333.869.946 1.303 1.866 1.303s1.509-.434 1.84-1.304l3.426-8.694c.154-.383.358-.536.563-.536.256 0 .46.256.46.741v9.155c0 .358.281.64.64.64h1.79c.357 0 .639-.281.639-.64V9.784c0-1.406-.69-2.174-1.943-2.174s-2.045.563-2.505 1.713l-4.909 12.505L62.47 9.323c-.46-1.15-1.253-1.713-2.504-1.713h-.051c-1.227 0-1.892.768-1.892 2.174V24.87c0 .358.281.64.64.64zm26.356-2.173c-2.224 0-3.758-1.918-3.758-4.655s1.56-4.603 3.809-4.603 3.732 1.867 3.732 4.551-1.56 4.705-3.783 4.705zm-.563 2.557c1.56 0 2.736-.715 3.63-1.944.128-.179.256-.256.383-.256.18 0 .333.18.333.512v.665c0 .383.256.64.64.64h1.738c.409 0 .64-.23.64-.64V12.595c0-.409-.23-.64-.64-.64h-1.738c-.409 0-.64.23-.64.64v.23c0 .333-.128.536-.306.536-.128 0-.256-.077-.409-.256-.946-1.074-2.25-1.56-3.733-1.56-3.604 0-6.186 2.916-6.186 7.11 0 4.193 2.633 7.236 6.288 7.236zm58.436-2.557c-2.224 0-3.758-1.918-3.758-4.655s1.56-4.603 3.809-4.603 3.732 1.867 3.732 4.551-1.559 4.705-3.783 4.705zm-.563 2.557c1.56 0 2.736-.715 3.63-1.944.128-.179.256-.256.384-.256.178 0 .332.18.332.512v.665c0 .383.256.64.64.64h1.738c.409 0 .64-.23.64-.64V6.97c0-.41-.23-.64-.64-.64h-1.738c-.409 0-.64.23-.64.64v5.855c0 .333-.128.536-.306.536-.128 0-.256-.077-.409-.256-.946-1.074-2.25-1.56-3.733-1.56-3.604 0-6.186 2.916-6.186 7.11 0 4.193 2.633 7.236 6.288 7.236zm18.1-8.669h-5.419c-.358 0-.588-.178-.588-.46 0-.078 0-.18.051-.281.588-1.483 1.79-2.379 3.349-2.379s2.633.896 3.144 2.404c.026.102.051.178.051.256 0 .28-.23.46-.587.46zm-2.352 8.67c2.939 0 5.087-1.484 5.956-3.99.026-.101.051-.178.051-.255 0-.281-.128-.435-.485-.435h-1.816c-.357 0-.536.154-.69.486-.562 1.048-1.637 1.637-2.991 1.637-2.071 0-3.477-1.304-3.886-3.3-.101-.434.154-.69.588-.69h8.845c.408 0 .639-.23.639-.64v-.077c0-4.398-2.632-7.082-6.467-7.082s-6.723 2.761-6.723 7.236c0 4.143 2.838 7.11 6.979 7.11m-49.899-.385h1.739c.408 0 .639-.23.639-.64v-7.492c0-1.764 1.355-3.196 3.323-3.196 1.687 0 2.684.998 2.684 2.505v8.184c0 .408.23.64.64.64h1.738c.409 0 .64-.23.64-.64v-8.336c0-3.043-1.84-4.986-4.525-4.986-1.866 0-2.812.64-3.757 1.585-.179.179-.333.256-.461.256-.179 0-.281-.154-.281-.461v-.384c0-.409-.28-.588-.664-.588h-1.712c-.409 0-.64.23-.64.64v12.275c0 .409.23.64.64.64zm-4.754 0h1.738c.409 0 .639-.23.639-.64V12.596c0-.409-.229-.64-.639-.64h-1.738c-.409 0-.64.23-.64.64V24.87c0 .408.23.64.64.64m.869-15.367c1.125 0 1.943-.87 1.943-1.97 0-1.098-.818-1.943-1.943-1.943s-1.943.843-1.943 1.944.843 1.969 1.943 1.969M94.19 25.509h1.739c.408 0 .639-.23.639-.64v-6.366c0-2.532 1.202-3.76 4.397-3.76.333 0 .512-.229.512-.639v-1.662c0-.409-.179-.64-.512-.64-1.687 0-2.736.384-3.68 1.612-.154.204-.307.306-.435.306-.179 0-.28-.154-.28-.46v-.716c0-.409-.281-.588-.665-.588h-1.713c-.408 0-.639.23-.639.64v12.275c0 .409.23.64.64.64z"/></svg>