<?xml version="1.0" encoding="UTF-8"?>
<svg xmlns="http://www.w3.org/2000/svg" version="1.1" viewBox="0 0 604.5 125.04">
  <defs>
    <style>
      .cls-1 {
        fill: #9e75fe;
      }

      .cls-2 {
        fill: #fff;
      }
    </style>
  </defs>
  <!-- Generator: Adobe Illustrator 28.7.1, SVG Export Plug-In . SVG Version: 1.2.0 Build 142)  -->
  <g>
    <g id="Layer_1">
      <g>
        <path class="cls-2" d="M55.59,74.35l46.73-29.18v-22.9c0-1.67-1.84-2.68-3.25-1.79l-44.53,28.12c-.69.44-1.57.44-2.26,0L7.75,20.49c-1.41-.89-3.25.12-3.25,1.79v40.8l15.48-8.96c.69-.4,1.54-.38,2.21.06l31.12,20.16c.69.45,1.58.45,2.27.02Z"/>
        <path class="cls-1" d="M4.5,82.64v20.12c0,1.67,1.84,2.68,3.25,1.79l31.4-19.83-16.96-10.98c-.67-.43-1.52-.45-2.21-.06l-15.48,8.96Z"/>
        <path class="cls-1" d="M102.31,65.05l-33.26,20.55,30.01,18.95c1.41.89,3.25-.12,3.25-1.79v-37.71Z"/>
      </g>
      <g>
        <path class="cls-2" d="M243.37,18.87h.03c-1.42-.91-3.03-1.25-4.7-1.25s-3.27.32-4.7,1.25c-2.75,1.8-4.45,5.97-5.77,8.88l-15.05,33.05h-8.28v-29.95c0-.4-.02-.8-.05-1.18-.3-5.67-4.35-10.48-9.88-11.73-.92-.2-1.88-.32-2.85-.32-.25,0-.48,0-.72.02-3.93.22-7.55,2.25-9.78,5.5l-.58.82-14.67,32.23-14.7-32.23-.58-.82c-2.25-3.25-5.85-5.27-9.78-5.5-.25-.02-.48-.02-.72-.02-.95,0-1.9.1-2.85.32-5.53,1.25-9.58,6.05-9.88,11.73-.02.4-.05.8-.05,1.18v41.95h12.2V30.85c0-.08,0-.18.02-.25l.02-.1v-.15c0-.25.18-.48.42-.52.05,0,.08-.02.12-.02.15,0,.3.08.42.2l14.87,32.65c1.32,2.9,3,7.08,5.77,8.88,1.42.92,3.03,1.25,4.7,1.25s3.27-.32,4.7-1.25c2.75-1.8,4.45-5.97,5.77-8.88l14.87-32.65c.1-.12.25-.2.4-.2.05,0,.08,0,.12.02.25.05.42.28.42.52v.15l.02.1c.02.08.02.18.02.25v41.95h.35v.22h28l4.93-10.8h25.5l4.93,10.8h13.43l-20.7-45.28c-1.32-2.9-3.03-7.05-5.77-8.88ZM231.51,50.03l7.2-15.8,7.2,15.8h-14.4Z"/>
        <path class="cls-2" d="M315.91,20.32l-12.67,15.4v-.02l-7.9,9.6h0s7.9-9.6,7.9-9.6l-12.65-15.38c-1.42-1.7-3.53-2.7-5.75-2.7h-12.3l22.8,27.7-22.8,27.7h12.3c2.23,0,4.33-1,5.73-2.7l12.67-15.4-7.88-9.6,20.55,24.98c1.4,1.7,3.5,2.7,5.73,2.7h12.27l-22.77-27.68v-.05l22.77-27.65h-12.27c-2.23,0-4.33,1-5.73,2.7Z"/>
        <polygon class="cls-2" points="333.92 17.63 333.92 17.62 333.91 17.63 333.92 17.63"/>
        <path class="cls-2" d="M501.58,34.49c0-7.17-4.57-13.57-11.3-15.97-1.81-.65-3.72-.98-5.65-.98h-28.15c-6.41.03-11.62,5.2-11.62,11.62v13h.09v18.66h-31.36c-.42,0-.78-.35-.78-.78V17.63h-55.05c-11.58,0-21.05,9.48-21.05,21.05v13.3c0,11.58,9.48,21.05,21.05,21.05h35.42v-12.2h-35.42c-4.87,0-8.85-3.97-8.85-8.85v-.55h33.48v-12.2h-33.45v-.55c0-4.87,3.97-8.85,8.85-8.85h42.86v31.6c0,6.4,5.2,11.6,11.6,11.6h32.7v.06h12.24v-21.65h27.44c9.32,0,16.95-7.62,16.95-16.95ZM489.33,34.52c-.02,2.57-2.14,4.67-4.7,4.67h-27.44v-9c.14-.25.4-.41.68-.41h26.75c2.57,0,4.68,2.1,4.7,4.67v.08Z"/>
        <path class="cls-2" d="M531.23,18.8c-1.43-.94-3.03-1.26-4.71-1.26s-3.29.32-4.71,1.25h0c-2.77,1.82-4.46,5.99-5.79,8.91l-20.67,45.38h13.45l4.93-10.83h25.57l4.93,10.83h13.45l-20.67-45.38c-1.33-2.91-3.02-7.09-5.79-8.9ZM519.31,50.01l7.21-15.83,7.21,15.83h-14.42Z"/>
        <polygon class="cls-2" points="588.65 17.54 573.73 35.68 558.81 17.54 542.97 17.54 567.62 47.5 567.62 73.08 579.85 73.08 579.85 47.5 604.5 17.54 588.65 17.54"/>
      </g>
      <g>
        <path class="cls-2" d="M144.25,102.76h-9.24l-1.53,4.42h-4.89l8.35-23.24h5.42l8.35,23.24h-4.92l-1.53-4.42ZM142.99,99.04l-3.36-9.71-3.36,9.71h6.72Z"/>
        <path class="cls-2" d="M162.55,89.41c1.03-1.81,2.44-3.21,4.22-4.22s3.78-1.51,6-1.51c2.59,0,4.87.66,6.82,1.99s3.31,3.17,4.09,5.52h-5.35c-.53-1.11-1.28-1.94-2.24-2.49-.96-.55-2.08-.83-3.34-.83-1.35,0-2.56.32-3.61.95-1.05.63-1.87,1.53-2.46,2.68-.59,1.15-.88,2.51-.88,4.06s.29,2.88.88,4.04c.59,1.16,1.41,2.06,2.46,2.69,1.05.63,2.26.95,3.61.95,1.26,0,2.38-.28,3.34-.85.96-.56,1.71-1.4,2.24-2.51h5.35c-.78,2.37-2.13,4.22-4.07,5.54-1.94,1.32-4.22,1.98-6.83,1.98-2.22,0-4.22-.5-6-1.51s-3.19-2.41-4.22-4.21c-1.03-1.79-1.55-3.83-1.55-6.12s.52-4.33,1.55-6.13Z"/>
        <path class="cls-2" d="M194.87,89.33c.96-.55,2.07-.83,3.31-.83v4.89h-1.23c-1.46,0-2.57.34-3.31,1.03-.74.69-1.11,1.88-1.11,3.59v9.18h-4.65v-18.42h4.65v2.86c.6-.98,1.38-1.74,2.34-2.29Z"/>
        <path class="cls-2" d="M219.13,88.76l-11.4,27.13h-4.95l3.99-9.18-7.38-17.95h5.22l4.75,12.87,4.82-12.87h4.95Z"/>
        <path class="cls-2" d="M228.95,89.31c1.05-.56,2.26-.85,3.61-.85,1.57,0,3,.39,4.27,1.16,1.27.78,2.28,1.88,3.03,3.31.74,1.43,1.11,3.09,1.11,4.97s-.37,3.55-1.11,5c-.74,1.45-1.75,2.58-3.03,3.38-1.27.8-2.7,1.2-4.27,1.2-1.35,0-2.54-.28-3.57-.83-1.03-.55-1.87-1.25-2.51-2.09v11.4h-4.65v-27.2h4.65v2.66c.6-.84,1.42-1.55,2.48-2.11ZM235.53,95.03c-.45-.81-1.05-1.42-1.8-1.85-.74-.42-1.55-.63-2.41-.63s-1.64.22-2.38.65c-.74.43-1.34,1.06-1.8,1.88s-.68,1.78-.68,2.89.23,2.07.68,2.89c.45.82,1.05,1.45,1.8,1.88s1.53.65,2.38.65,1.67-.22,2.41-.66c.74-.44,1.34-1.08,1.8-1.9.45-.82.68-1.79.68-2.93s-.23-2.07-.68-2.88Z"/>
        <path class="cls-2" d="M249.98,92.59v8.91c0,.62.15,1.07.45,1.35.3.28.8.42,1.51.42h2.16v3.92h-2.93c-3.92,0-5.88-1.91-5.88-5.72v-8.88h-2.19v-3.82h2.19v-4.56h4.69v4.56h4.12v3.82h-4.12Z"/>
        <path class="cls-2" d="M261.05,106.3c-1.42-.79-2.53-1.9-3.34-3.34-.81-1.44-1.21-3.1-1.21-4.99s.42-3.55,1.25-4.99,1.97-2.56,3.41-3.34,3.05-1.18,4.82-1.18,3.38.39,4.82,1.18,2.58,1.9,3.41,3.34,1.25,3.1,1.25,4.99-.43,3.55-1.28,4.99-2.01,2.55-3.46,3.34-3.07,1.18-4.87,1.18-3.37-.39-4.79-1.18ZM268.22,102.81c.74-.41,1.34-1.02,1.78-1.85.44-.82.66-1.82.66-2.99,0-1.75-.46-3.1-1.38-4.04-.92-.94-2.04-1.41-3.37-1.41s-2.44.47-3.34,1.41c-.9.94-1.35,2.29-1.35,4.04s.44,3.1,1.31,4.04c.88.94,1.98,1.41,3.31,1.41.84,0,1.63-.2,2.38-.62Z"/>
        <path class="cls-2" d="M303.23,94.65c-.59,1.09-1.51,1.96-2.76,2.63-1.25.67-2.83,1-4.74,1h-3.89v8.91h-4.65v-23.21h8.55c1.8,0,3.32.31,4.59.93,1.26.62,2.21,1.47,2.84,2.56.63,1.09.95,2.32.95,3.69,0,1.24-.29,2.4-.88,3.49ZM298.39,93.64c.62-.59.93-1.41.93-2.48,0-2.26-1.26-3.39-3.79-3.39h-3.69v6.75h3.69c1.29,0,2.24-.29,2.86-.88Z"/>
        <path class="cls-2" d="M307.52,92.95c.74-1.44,1.75-2.55,3.03-3.32s2.7-1.16,4.27-1.16c1.37,0,2.58.28,3.61.83s1.86,1.25,2.48,2.09v-2.63h4.69v18.42h-4.69v-2.69c-.6.86-1.42,1.58-2.48,2.14s-2.27.85-3.64.85c-1.55,0-2.96-.4-4.24-1.2-1.27-.8-2.28-1.92-3.03-3.38-.74-1.45-1.11-3.12-1.11-5s.37-3.51,1.11-4.95ZM320.23,95.07c-.44-.81-1.04-1.43-1.8-1.86-.75-.43-1.56-.65-2.43-.65s-1.66.21-2.39.63-1.32,1.04-1.78,1.85-.68,1.77-.68,2.88.23,2.08.68,2.91,1.05,1.47,1.8,1.91c.74.44,1.53.66,2.38.66s1.67-.22,2.43-.65,1.35-1.05,1.8-1.86c.44-.81.67-1.78.67-2.91s-.22-2.1-.67-2.91Z"/>
        <path class="cls-2" d="M347.96,88.76l-11.4,27.13h-4.95l3.99-9.18-7.38-17.95h5.22l4.75,12.87,4.82-12.87h4.95Z"/>
        <path class="cls-2" d="M379,90.58c1.39,1.39,2.08,3.32,2.08,5.8v10.81h-4.65v-10.17c0-1.44-.37-2.54-1.1-3.31s-1.73-1.15-2.99-1.15-2.27.38-3.01,1.15-1.11,1.87-1.11,3.31v10.17h-4.66v-10.17c0-1.44-.37-2.54-1.1-3.31s-1.73-1.15-2.99-1.15-2.3.38-3.04,1.15c-.74.77-1.11,1.87-1.11,3.31v10.17h-4.65v-18.42h4.65v2.23c.6-.77,1.37-1.38,2.31-1.83.94-.44,1.98-.67,3.11-.67,1.44,0,2.73.31,3.86.91,1.13.61,2.01,1.48,2.63,2.61.6-1.06,1.47-1.92,2.61-2.56,1.14-.64,2.38-.96,3.71-.96,2.26,0,4.08.69,5.47,2.08Z"/>
        <path class="cls-2" d="M402.69,99.37h-13.47c.11,1.33.58,2.37,1.4,3.12.82.75,1.83,1.13,3.03,1.13,1.73,0,2.96-.74,3.69-2.23h5.02c-.53,1.77-1.55,3.23-3.06,4.37-1.51,1.14-3.36,1.71-5.55,1.71-1.77,0-3.36-.39-4.77-1.18-1.41-.79-2.51-1.9-3.29-3.34s-1.18-3.1-1.18-4.99.39-3.58,1.16-5.02,1.86-2.55,3.26-3.32c1.4-.78,3-1.16,4.82-1.16s3.32.38,4.7,1.13c1.38.75,2.46,1.82,3.23,3.21.76,1.39,1.15,2.98,1.15,4.77,0,.66-.04,1.26-.13,1.8ZM398,96.24c-.02-1.2-.45-2.15-1.3-2.88-.84-.72-1.87-1.08-3.09-1.08-1.15,0-2.12.35-2.91,1.05s-1.27,1.67-1.45,2.91h8.74Z"/>
        <path class="cls-2" d="M421.94,90.58c1.35,1.39,2.03,3.32,2.03,5.8v10.81h-4.66v-10.17c0-1.46-.37-2.59-1.1-3.37s-1.73-1.18-2.99-1.18-2.3.39-3.04,1.18c-.74.79-1.11,1.91-1.11,3.37v10.17h-4.65v-18.42h4.65v2.29c.62-.8,1.41-1.42,2.38-1.88.96-.45,2.02-.68,3.18-.68,2.19,0,3.97.69,5.32,2.08Z"/>
        <path class="cls-2" d="M434.01,92.59v8.91c0,.62.15,1.07.45,1.35.3.28.8.42,1.51.42h2.16v3.92h-2.93c-3.92,0-5.88-1.91-5.88-5.72v-8.88h-2.19v-3.82h2.19v-4.56h4.69v4.56h4.12v3.82h-4.12Z"/>
        <path class="cls-2" d="M465.96,90.96c-.53-.98-1.26-1.72-2.19-2.23-.93-.51-2.02-.76-3.26-.76-1.38,0-2.59.31-3.66.93-1.06.62-1.9,1.51-2.49,2.66s-.9,2.48-.9,3.99.3,2.9.91,4.06c.61,1.15,1.46,2.04,2.54,2.66,1.09.62,2.35.93,3.79.93,1.77,0,3.23-.47,4.36-1.41,1.13-.94,1.87-2.26,2.23-3.94h-7.98v-3.56h12.57v4.06c-.31,1.62-.98,3.11-1.99,4.49-1.02,1.37-2.33,2.48-3.94,3.31s-3.41,1.25-5.4,1.25c-2.24,0-4.26-.5-6.07-1.51-1.81-1.01-3.23-2.41-4.26-4.21-1.03-1.79-1.55-3.83-1.55-6.12s.52-4.33,1.55-6.13c1.03-1.81,2.45-3.21,4.26-4.22,1.81-1.01,3.82-1.51,6.04-1.51,2.61,0,4.89.64,6.82,1.91,1.93,1.27,3.26,3.07,3.99,5.37h-5.35Z"/>
        <path class="cls-2" d="M475.46,92.95c.74-1.44,1.75-2.55,3.03-3.32s2.7-1.16,4.27-1.16c1.37,0,2.58.28,3.61.83s1.86,1.25,2.48,2.09v-2.63h4.69v18.42h-4.69v-2.69c-.6.86-1.42,1.58-2.48,2.14s-2.27.85-3.64.85c-1.55,0-2.96-.4-4.24-1.2-1.27-.8-2.28-1.92-3.03-3.38-.74-1.45-1.11-3.12-1.11-5s.37-3.51,1.11-4.95ZM488.17,95.07c-.44-.81-1.04-1.43-1.8-1.86-.75-.43-1.56-.65-2.43-.65s-1.66.21-2.39.63-1.32,1.04-1.78,1.85-.68,1.77-.68,2.88.23,2.08.68,2.91,1.05,1.47,1.8,1.91c.74.44,1.53.66,2.38.66s1.67-.22,2.43-.65,1.35-1.05,1.8-1.86c.44-.81.67-1.78.67-2.91s-.22-2.1-.67-2.91Z"/>
        <path class="cls-2" d="M503.7,92.59v8.91c0,.62.15,1.07.45,1.35.3.28.8.42,1.51.42h2.16v3.92h-2.93c-3.92,0-5.88-1.91-5.88-5.72v-8.88h-2.19v-3.82h2.19v-4.56h4.69v4.56h4.12v3.82h-4.12Z"/>
        <path class="cls-2" d="M528.37,99.37h-13.47c.11,1.33.58,2.37,1.4,3.12.82.75,1.83,1.13,3.03,1.13,1.73,0,2.96-.74,3.69-2.23h5.02c-.53,1.77-1.55,3.23-3.06,4.37-1.51,1.14-3.36,1.71-5.55,1.71-1.77,0-3.36-.39-4.77-1.18-1.41-.79-2.51-1.9-3.29-3.34s-1.18-3.1-1.18-4.99.39-3.58,1.16-5.02,1.86-2.55,3.26-3.32c1.4-.78,3-1.16,4.82-1.16s3.32.38,4.7,1.13c1.38.75,2.46,1.82,3.23,3.21.76,1.39,1.15,2.98,1.15,4.77,0,.66-.04,1.26-.13,1.8ZM523.68,96.24c-.02-1.2-.45-2.15-1.3-2.88-.84-.72-1.87-1.08-3.09-1.08-1.15,0-2.12.35-2.91,1.05s-1.27,1.67-1.45,2.91h8.74Z"/>
        <path class="cls-2" d="M557.63,88.76l-5.39,18.42h-5.02l-3.36-12.87-3.36,12.87h-5.05l-5.42-18.42h4.72l3.26,14.03,3.52-14.03h4.92l3.46,14,3.26-14h4.46Z"/>
        <path class="cls-2" d="M560.27,92.95c.74-1.44,1.75-2.55,3.03-3.32s2.7-1.16,4.27-1.16c1.37,0,2.58.28,3.61.83s1.86,1.25,2.48,2.09v-2.63h4.69v18.42h-4.69v-2.69c-.6.86-1.42,1.58-2.48,2.14s-2.27.85-3.64.85c-1.55,0-2.96-.4-4.24-1.2-1.27-.8-2.28-1.92-3.03-3.38-.74-1.45-1.11-3.12-1.11-5s.37-3.51,1.11-4.95ZM572.99,95.07c-.44-.81-1.04-1.43-1.8-1.86-.75-.43-1.56-.65-2.43-.65s-1.66.21-2.39.63-1.32,1.04-1.78,1.85-.68,1.77-.68,2.88.23,2.08.68,2.91,1.05,1.47,1.8,1.91c.74.44,1.53.66,2.38.66s1.67-.22,2.43-.65,1.35-1.05,1.8-1.86c.44-.81.67-1.78.67-2.91s-.22-2.1-.67-2.91Z"/>
        <path class="cls-2" d="M600.72,88.76l-11.4,27.13h-4.95l3.99-9.18-7.38-17.95h5.22l4.75,12.87,4.82-12.87h4.95Z"/>
      </g>
    </g>
  </g>
</svg>