<svg xmlns="http://www.w3.org/2000/svg" data-name="Layer 2" viewBox="0 0 102.001 23.639"><path d="M48.24 6.846a5.67 5.67 0 0 0-2.375.494 4.75 4.75 0 0 0-1.795 1.398 3.923 3.923 0 0 0-1.59-1.408c-.66-.323-1.398-.484-2.214-.484-.746 0-1.43.13-2.053.387a4.242 4.242 0 0 0-1.58 1.118V7.018H33.43v11.565h3.353v-5.804c0-1.003.23-1.76.688-2.268.459-.509 1.075-.763 1.849-.763 1.462 0 2.192.91 2.192 2.73v6.105h3.354v-5.804c0-1.003.228-1.76.687-2.268.459-.509 1.082-.763 1.87-.763.702 0 1.244.225 1.624.677.379.452.57 1.136.57 2.053v6.105h3.352v-6.621c0-1.705-.426-2.984-1.279-3.837-.852-.852-2.003-1.28-3.45-1.28Zm16.251.731c-.917-.487-1.942-.731-3.074-.731-1.16 0-2.21.255-3.15.763a5.644 5.644 0 0 0-2.213 2.128c-.538.91-.806 1.931-.806 3.063 0 1.147.272 2.171.817 3.074.544.903 1.318 1.609 2.321 2.117 1.003.51 2.157.764 3.46.764 2.093 0 3.684-.624 4.773-1.87l-1.784-1.936a3.866 3.866 0 0 1-1.3.85c-.467.18-1 .269-1.602.269-.874 0-1.605-.208-2.193-.624a2.722 2.722 0 0 1-1.117-1.698h8.748c.043-.559.065-.86.065-.903 0-1.204-.262-2.26-.785-3.17a5.346 5.346 0 0 0-2.16-2.096Zm-5.912 4.213c.115-.745.43-1.333.946-1.763.516-.43 1.154-.645 1.914-.645.745 0 1.375.22 1.891.656.516.438.83 1.021.946 1.752H58.58Zm19.863-4.18c-.96-.51-2.049-.764-3.267-.764s-2.31.255-3.278.763a5.669 5.669 0 0 0-2.268 2.117c-.545.903-.817 1.928-.817 3.074s.272 2.171.817 3.074a5.662 5.662 0 0 0 2.268 2.117c.967.51 2.06.764 3.278.764s2.307-.255 3.267-.764a5.69 5.69 0 0 0 2.258-2.117c.543-.903.816-1.927.816-3.074s-.273-2.17-.816-3.074a5.696 5.696 0 0 0-2.258-2.117Zm-1.15 7.522c-.551.58-1.257.871-2.117.871-.86 0-1.57-.29-2.128-.87-.56-.58-.839-1.358-.839-2.333 0-.974.28-1.752.84-2.332.558-.58 1.267-.87 2.127-.87.86 0 1.566.29 2.117.87.552.58.828 1.358.828 2.332 0 .975-.276 1.752-.828 2.332Zm21.742-8.114-2.815 7.825-2.752-7.825H90.63l-2.837 7.825-2.73-7.825h-3.16l4.17 11.565h3.224l2.687-7.18 2.601 7.18h3.225l4.191-11.565h-2.967ZM22.643.37c-.217.048-5.236 1.163-10.484 3.08A91.407 91.407 0 0 0 1.676.37L0 0v13.079a9.249 9.249 0 0 0 .852 3.884c1.785 3.906 6.18 6.676 11.307 6.676 5.887 0 10.81-3.651 11.924-8.483a9.155 9.155 0 0 0 .22-1.535c.01-.18.016-13.621.016-13.621l-1.676.37Zm-1.082 3.097v4.816c-1.338-1.112-3.165-2.193-5.495-3.25a96.48 96.48 0 0 1 5.495-1.566ZM12.16 20.882c-5.184 0-9.401-3.5-9.401-7.803 0-.936.928-3.44 9.401-6.686 8.474 3.246 9.402 5.75 9.402 6.686a6.553 6.553 0 0 1-.296 1.948c-1.046 3.362-4.732 5.855-9.106 5.855ZM2.758 3.467c1.321.334 3.303.867 5.495 1.565-2.33 1.058-4.158 2.14-5.495 3.25V3.468Z" data-name="Layer 1" style="fill:#f3f5f0"/></svg>