<svg xmlns="http://www.w3.org/2000/svg" data-name="Layer 2" viewBox="0 0 102.001 23.639"><path d="M48.24 6.846a5.7 5.7 0 0 0-2.375.494 4.75 4.75 0 0 0-1.795 1.398 3.9 3.9 0 0 0-1.59-1.408q-.99-.484-2.214-.484-1.119 0-2.053.387a4.24 4.24 0 0 0-1.58 1.118V7.018H33.43v11.565h3.353v-5.804q0-1.505.688-2.268t1.849-.763q2.193 0 2.192 2.73v6.105h3.354v-5.804q0-1.505.687-2.268t1.87-.763q1.053 0 1.624.677.57.678.57 2.053v6.105h3.352v-6.621q0-2.557-1.279-3.837-1.279-1.279-3.45-1.28Zm16.251.731q-1.376-.73-3.074-.731-1.74 0-3.15.763a5.64 5.64 0 0 0-2.213 2.128q-.806 1.365-.806 3.063 0 1.72.817 3.074.816 1.355 2.321 2.117 1.505.765 3.46.764 3.14 0 4.773-1.87l-1.784-1.936a3.9 3.9 0 0 1-1.3.85q-.7.27-1.602.269-1.311 0-2.193-.624a2.72 2.72 0 0 1-1.117-1.698h8.748q.065-.838.065-.903 0-1.806-.785-3.17a5.35 5.35 0 0 0-2.16-2.096m-5.912 4.213q.172-1.118.946-1.763t1.914-.645q1.117.001 1.891.656.773.656.946 1.752zm19.863-4.18q-1.44-.765-3.267-.764c-1.827.001-2.31.255-3.278.763a5.67 5.67 0 0 0-2.268 2.117q-.817 1.355-.817 3.074c0 1.719.272 2.171.817 3.074a5.66 5.66 0 0 0 2.268 2.117q1.45.765 3.278.764c1.828-.001 2.307-.255 3.267-.764a5.7 5.7 0 0 0 2.258-2.117q.815-1.354.816-3.074c.001-1.72-.273-2.17-.816-3.074a5.7 5.7 0 0 0-2.258-2.117Zm-1.15 7.522q-.827.87-2.117.871-1.29 0-2.128-.87-.84-.87-.839-2.333 0-1.462.84-2.332.837-.87 2.127-.87t2.117.87.828 2.332-.828 2.332m21.742-8.114-2.815 7.825-2.752-7.825H90.63l-2.837 7.825-2.73-7.825h-3.16l4.17 11.565h3.224l2.687-7.18 2.601 7.18h3.225l4.191-11.565zM22.643.37c-.217.048-5.236 1.163-10.484 3.08A91 91 0 0 0 1.676.37L0 0v13.079a9.25 9.25 0 0 0 .852 3.884c1.785 3.906 6.18 6.676 11.307 6.676 5.887 0 10.81-3.651 11.924-8.483a9 9 0 0 0 .22-1.535c.01-.18.016-13.621.016-13.621zm-1.082 3.097v4.816c-1.338-1.112-3.165-2.193-5.495-3.25a97 97 0 0 1 5.495-1.566M12.16 20.882c-5.184 0-9.401-3.5-9.401-7.803 0-.936.928-3.44 9.401-6.686 8.474 3.246 9.402 5.75 9.402 6.686a6.6 6.6 0 0 1-.296 1.948c-1.046 3.362-4.732 5.855-9.106 5.855M2.758 3.467c1.321.334 3.303.867 5.495 1.565-2.33 1.058-4.158 2.14-5.495 3.25z" data-name="Layer 1" style="fill:#f3f5f0"/></svg>