<svg xmlns="http://www.w3.org/2000/svg" width="102" height="24" fill="none" viewBox="0 0 102 24"><g clip-path="url(#a)"><mask id="b" width="103" height="34" x="0" y="-5" maskUnits="userSpaceOnUse" style="mask-type:luminance"><path fill="#fff" d="M102-4.286H0v32.64h102z"/></mask><g mask="url(#b)"><path fill="currentColor" d="M48.24 7.06q-1.29 0-2.375.495a4.75 4.75 0 0 0-1.794 1.397 3.9 3.9 0 0 0-1.591-1.408q-.99-.483-2.214-.483-1.119 0-2.053.387a4.24 4.24 0 0 0-1.58 1.117V7.233H33.43v11.564h3.354v-5.803q0-1.505.687-2.268t1.849-.763q2.193 0 2.193 2.73v6.104h3.353v-5.803q0-1.505.688-2.268t1.87-.763q1.053 0 1.623.677t.57 2.053v6.104h3.353v-6.62q0-2.559-1.28-3.838-1.278-1.278-3.45-1.278M64.491 7.792q-1.376-.73-3.074-.731-1.74 0-3.149.763a5.64 5.64 0 0 0-2.214 2.128q-.806 1.365-.806 3.063 0 1.719.817 3.074.816 1.355 2.321 2.117 1.505.763 3.461.763 3.138 0 4.772-1.87l-1.784-1.935q-.602.58-1.3.85-.699.268-1.602.268-1.311 0-2.193-.623a2.72 2.72 0 0 1-1.117-1.698h8.749q.064-.84.064-.903 0-1.806-.784-3.17a5.35 5.35 0 0 0-2.16-2.096m-5.911 4.213q.171-1.118.946-1.763.773-.645 1.913-.645 1.118 0 1.892.656.772.655.945 1.752zM78.442 7.824q-1.44-.763-3.267-.763t-3.278.763a5.67 5.67 0 0 0-2.268 2.117q-.817 1.354-.817 3.074t.817 3.074a5.66 5.66 0 0 0 2.268 2.117q1.45.763 3.278.763 1.827 0 3.267-.763a5.7 5.7 0 0 0 2.258-2.117q.816-1.355.816-3.074 0-1.72-.816-3.074a5.7 5.7 0 0 0-2.258-2.117m-1.15 7.523q-.827.87-2.117.871-1.29 0-2.128-.87-.838-.872-.838-2.333t.838-2.332q.838-.87 2.128-.87t2.118.87.827 2.332-.827 2.332M99.035 7.233l-2.816 7.824-2.751-7.824H90.63l-2.837 7.824-2.73-7.824h-3.16l4.17 11.564h3.225l2.687-7.18 2.6 7.18h3.225L102 7.233z"/><path fill="#ff6631" d="M22.644.584c-.218.048-5.236 1.164-10.485 3.08C6.911 1.748 1.893.632 1.676.584L0 .214v13.08c0 .91.133 1.793.383 2.636q.191.64.469 1.247c1.785 3.907 6.18 6.677 11.307 6.677 5.887 0 10.81-3.651 11.924-8.483q.054-.234.096-.471.093-.524.124-1.064c.01-.18.016-13.621.016-13.621zm-1.082 3.097v4.817c-1.338-1.112-3.165-2.193-5.495-3.251a97 97 0 0 1 5.495-1.566m-9.403 17.415c-5.184 0-9.401-3.5-9.401-7.802 0-.937.928-3.44 9.401-6.686 8.474 3.246 9.403 5.75 9.403 6.686q0 .403-.05.796a6.5 6.5 0 0 1-.247 1.151c-1.045 3.363-4.732 5.855-9.106 5.855M2.758 3.681c1.321.335 3.303.868 5.495 1.566-2.33 1.058-4.157 2.14-5.495 3.25z"/></g></g><defs><clipPath id="a"><path fill="#fff" d="M0 0h102v24H0z"/></clipPath></defs></svg>