<svg xmlns="http://www.w3.org/2000/svg" id="Layer_2" data-name="Layer 2" viewBox="0 0 1904.364 541.772"><defs><style>.cls-1{fill:#f3f5f0}</style></defs><g id="Layer_1-2" data-name="Layer 1"><path d="M1821.182 377.548c-4.354.275-9.976.275-14.33 0-20.77-1.312-44.201-8.458-59.719-23.277-2.318-2.214-5.781-4.273-4.202-7.747.776-1.707 22.287-19.13 23.893-19.168.572-.014 1.581 3.058 2.941 4.263 32.679 28.975 97.987 17.934 97.987-33.494V191.233h34.033c.989 0 2.112 2.896 1.852 4.12-3.37 74.77 23.488 175.5-82.455 182.195ZM829.47 191.233l80.021 100.34 4.13-3.037 78.249-97.303h38.212c.126 0 1.79 1.665 1.79 1.791v176.761c0 .127-1.664 1.791-1.79 1.791h-34.033V235.423l-86.572 105.078-86.574-105.078v134.362c0 .127-1.665 1.791-1.791 1.791h-31.047c-.127 0-1.792-1.664-1.792-1.791v-176.76c0-.127 1.665-1.792 1.792-1.792h39.405Zm623.925 1.791c.406-1.313 2.746-1.97 4.118-1.852 41.196 1.97 84.49-2.434 125.432.072 28.531 1.747 62.932 12.828 70.502 44.14 9.271 38.343-17.461 64.937-53.17 71.096l54.339 62.707c1.181.653-1.07 2.39-1.207 2.39h-38.212l-53.735-63.3h-72.244v61.508c0 .127-1.664 1.791-1.79 1.791h-32.242c-.127 0-1.791-1.664-1.791-1.791v-176.76Zm34.63 86.59h98.514c5.568 0 19.375-4.72 23.7-8.544 12.126-10.722 11.04-35.338-3.169-44.24-2.234-1.398-12.578-5.739-14.56-5.739h-104.486v58.522Zm-296.141-58.523v44.19h121.202c.127 0 1.792 1.665 1.792 1.792v26.275c0 .127-1.665 1.791-1.792 1.791h-121.202v47.774h149.264v28.663h-183.296c-.127 0-1.791-1.664-1.791-1.791v-176.76c0-.127 1.664-1.792 1.79-1.792h179.118c.126 0 1.79 1.665 1.79 1.791V219.3c0 .126-1.664 1.791-1.79 1.791h-145.085Zm-880.38-41.927 67.491.123c1.262.633 2.657 1.581 2.649 3.182l-.26 67.647c-.608 1.878-3.215 2.774-4.832 1.587l-67.866-68.4c-.601-1.781 1.097-3.755 2.818-4.14Zm65.719-87.476c2.567-.781 4.218.78 4.406 3.329-1.457 21.005 1.895 44.536.013 65.24-.125 1.379-.228 2.449-1.311 3.46h-70.568c-1.588-1.612-1.63-3.243.029-4.822l67.43-67.207Zm-76.851 186.604 58.201-.124c2.412.195 4.88 2.245 3.679 4.759-19.491 20.514-39.747 40.58-60.107 60.218-2.867.932-4.478-.292-4.812-3.195-2.053-17.861 1.588-39.555-.02-57.826-.215-1.988 1.345-3.222 3.059-3.832Zm-.041-80.025c.937-.103 2.148.572 2.868 1.172l58.022 58.056c1.729 1.654 1.7 3.644.029 5.351h-62.619c-1.083-1.01-1.186-2.08-1.311-3.46-1.669-18.358 1.322-39.206-.002-57.833-.128-1.358 1.79-3.15 3.013-3.286Zm-99.071-19.105 66.151-.123c1.96.044 3.657 1.51 3.927 3.458l-69.645 69.75c-2.35-.094-3.594-1.698-3.484-3.993l-.003-65.785c.022-1.703 1.584-2.783 3.054-3.307Zm-1.067-87.48c1.012-.311 2.256-.254 3.106.405l66.76 66.808c1.658 1.579 1.616 3.21.029 4.822h-70.569c-.934-.946-1.369-2.126-1.311-3.46 1.464-20.85-1.86-44.17 0-64.723.124-1.368.435-3.375 1.985-3.852Zm78.96 106.586c1.407-.063 3.474 1.786 3.379 3.285-1.324 18.627 1.667 39.475-.002 57.834-.125 1.379-.228 2.449-1.311 3.46H218.6c-1.671-1.708-1.7-3.698.029-5.352l58.022-58.056c.648-.539 1.67-1.135 2.502-1.171Zm-58.813 80.024 58.202-.124c2.058.144 4.21 1.682 3.995 3.956-1.32 18.46 1.645 39.112-.007 57.309-.291 3.215-1.76 5.039-5.09 3.446l-59.622-59.632c-1.528-2.232.322-4.199 2.522-4.955Zm178.074 11.655c1.103-.339 2.694-.286 3.638.398l66.231 66.28c1.729 1.654 1.7 3.644.029 5.35h-70.569c-.934-.945-1.37-2.124-1.311-3.458 1.465-20.85-1.86-44.17 0-64.724.123-1.367.43-3.37 1.982-3.846Zm1.071 87.476 66.15-.125c1.773.064 4.016 1.552 4.019 3.458l-69.737 69.75c-2.708-.233-3.264-1.546-3.484-3.993-1.863-20.727 1.453-44.218.013-65.239.047-1.835 1.274-3.37 3.04-3.85ZM398.42 91.679c1.557-.474 3.308.066 4.408 1.218l65.455 65.469c1.729 1.654 1.7 3.644.029 5.35h-70.569c-.934-.945-1.37-2.125-1.311-3.459 1.464-20.85-1.86-44.17 0-64.723.123-1.364.439-3.384 1.987-3.855Zm1.065 87.485 66.15-.125c2.188.086 3.91 1.744 3.979 3.968l-69.697 69.24c-2.708-.233-3.264-1.546-3.484-3.993-1.863-20.727 1.453-44.218.013-65.24.047-1.835 1.274-3.37 3.04-3.85Zm179.687 1.082c.614.655.63 1.89.69 2.758l.005 66.312c.02 1.888-1.823 2.805-3.485 2.932l-69.446-69.751c.172-2.079 1.663-3.365 3.726-3.458 20.839 1.439 44.157-1.871 64.7-.017 1.049.095 3.12.489 3.81 1.224Zm-69.444 197.178 65.628-.134 3.682 1.088.312 70.8c-1.707 1.671-3.697 1.7-5.35-.03l-65.996-65.982c-1.951-2.126-1.002-4.973 1.724-5.742Zm65.718-285.736c1.721-.524 3.181.037 4.117 1.497l.305 68.135c-.057 1.809-1.706 3.123-3.44 2.92-21.19-1.5-44.887 1.884-65.778-.008-3.542-.32-5.05-2.503-2.634-5.338l67.43-67.206ZM507.895 361.8c-1.236-1.186-1.42-3.552.121-4.646l66.493-66.546c2.056-1.814 5.16-.57 5.359 2.123l-.14 67.768-.901 1.219-70.932.082Zm-9.298 114.753 58.187-.112c3.91.033 5.303 3.522 2.662 6.37l-59.077 58.594c-2.868.931-4.478-.293-4.812-3.196 1.273-18.46-1.65-39.09-.013-57.289.2-2.234.758-3.65 3.053-4.367Zm61.493-197.178c1.34 1.432.613 4.309-.908 5.443l-57.242 57.25c-3.363 2.638-6.011 1.608-6.396-2.635-1.637-18.024 1.296-38.486 0-56.772-.123-2.674 1.828-4.628 4.505-4.506 18.118 1.28 38.372-1.614 56.233-.003 1.05.095 3.117.487 3.807 1.223ZM499.14 80.047l57.657-.138c3.639.428 5.397 3.548 2.649 6.384l-58.015 58.067c-2.602 1.925-5.747.634-5.874-2.67 1.261-18.472-1.635-39.072-.013-57.289.23-2.585.922-3.84 3.596-4.354Zm-22.275 316.441c2.02-.316 3.993 1.241 3.872 3.343l.02 58.878c0 1.299-.893 2.247-1.995 2.775l-60.336.139c-2.988-.313-3.8-3.901-1.573-5.868l57.768-57.782c.61-.58 1.391-1.351 2.244-1.485Zm21.739-198.268c.425-.066.82-.06 1.216.125l60.436 59.926c.943 1.394.761 3.243-.51 4.317l-62.891.258c-1.083-1.01-1.186-2.08-1.311-3.46-1.653-18.18 1.297-38.84.013-57.287-.035-1.627 1.432-3.632 3.047-3.88Zm-18.542 1.11-.082 62.993-1.218.902-60.336.139c-3.207-.408-3.773-4.17-1.31-6.135l57.759-57.79c2.027-1.469 3.079-1.453 5.187-.109Zm18.542 197.148c.425-.065.82-.058 1.216.126l60.436 59.926c1.388 2.172.184 4.892-2.383 5.094l-60.215-.261c-1.806-.672-1.957-1.996-2.114-3.718-1.657-18.176 1.3-38.844.013-57.287-.035-1.627 1.432-3.632 3.047-3.88ZM498.557.01c.944-.1 2.142.566 2.866 1.17l58.833 58.832c.943 1.394.761 3.243-.51 4.317l-62.891.258c-1.083-1.01-1.186-2.08-1.311-3.46-1.638-18.021 1.297-38.487 0-56.771-.212-1.739 1.232-4.156 3.013-4.346Zm-79.991 476.543 57.678-.134c3.231.268 4.21.629 4.509 3.972 1.65 18.387-1.31 39.191.009 57.839.173 2.815-2.66 4.416-5.099 2.908l-59.915-60.447c-.601-1.78 1.097-3.754 2.818-4.138ZM477.278.095c1.468-.05 3.567 1.557 3.478 3.199V62.19c.002 1.3-.892 2.248-1.994 2.776l-60.336.138c-2.988-.313-3.8-3.9-1.573-5.868l57.502-57.517c.719-.566 2.043-1.594 2.923-1.624Zm-58.712 278.199 58.2-.126c2.506.332 3.747 1.428 3.995 3.956 1.784 18.215-1.428 39.32 0 57.846.174 2.816-2.66 4.416-5.098 2.909l-59.915-60.447c-.601-1.78 1.097-3.754 2.818-4.138Zm0-198.26 58.2-.125c2.506.332 3.747 1.427 3.995 3.955 1.784 18.216-1.428 39.32 0 57.847.174 2.816-2.66 4.416-5.098 2.909l-59.915-60.447c-.601-1.78 1.097-3.755 2.818-4.139ZM.54 250.615c-.408-22.799-.585-45.77-.53-68.914v-.53c.832-1.345 2.447-1.943 3.963-2.134 20.863 1.42 44.122-1.84 64.698-.012 3.703.33 5.507 2.72 3.176 5.881L5.074 251.703c-1.491 1.09-3.679.456-4.534-1.088Zm0 198.259c-.408-22.799-.585-45.77-.53-68.914v-.53c1.089-1.772 2.56-1.974 4.485-2.14 20.476-1.766 43.435 1.383 64.176-.006 3.484-.136 5.566 3.153 3.176 5.882l-67.579 67.08c-1.459.553-2.979-.03-3.728-1.372Zm0-286.257c-.408-22.798-.585-45.77-.53-68.913v-.53c1.616-1.428 2.89-2.348 5.065-1.087l66.497 66.54c2.72 2.775 1.423 5.261-2.372 5.605-21.055 1.907-44.943-1.499-66.3.003-1.175.037-1.904-.587-2.36-1.618ZM.01 291.433c1.616-1.428 2.89-2.348 5.065-1.086l66.497 66.54c2.716 2.72 1.282 5.287-2.373 5.601-21.157 1.82-44.87-1.427-66.3.006-1.174.037-1.903-.587-2.36-1.617-.407-22.799-.584-45.77-.53-68.914v-.53Z" class="cls-1"/><path d="M.54 360.877H.01v-68.914l.53 68.914zm0 87.997H.01V379.96l.53 68.914zm0-198.259H.01V181.7l.53 68.914zm0-87.998H.01V93.704l.53 68.913zm177.926 127.336c2.763-.84 4.767.516 4.94 3.323-1.507 20.948 1.96 44.616.013 65.24-.117 1.233-.154 2.21-1.056 3.185l-70.825.275c-1.671-1.707-1.7-3.697.029-5.351l66.899-66.672Zm-65.188 87.468 67.493.126a4.186 4.186 0 0 1 2.385 2.386l.003 68.442c-.607 1.879-3.214 2.775-4.83 1.587l-67.573-67.586c-1.528-2.23.322-4.198 2.522-4.955ZM179.004 91.69c2.742-.617 4.086.602 4.401 3.327-1.456 21.005 1.895 44.536.014 65.24-.126 1.379-.229 2.449-1.312 3.46h-70.569c-1.671-1.707-1.7-3.697.029-5.351l65.455-65.469c.566-.538 1.199-1.031 1.982-1.208Zm-65.724 87.474 67.49.124a4.186 4.186 0 0 1 2.386 2.385l.003 68.443c-.607 1.878-3.214 2.774-4.83 1.587l-67.578-67.59c-1.395-1.859.509-4.497 2.53-4.95ZM22.134 476.568c18.518 1.037 39.423-1.818 57.667-.154 2.9.265 4.458 1.424 4.506 4.506-1.297 18.286 1.636 38.748 0 56.772-.385 4.243-3.034 5.274-6.396 2.636l-57.507-57.517c-2.258-2.263-1.675-5.831 1.73-6.243Zm-2.373-197.193c.69-.736 2.758-1.128 3.807-1.223 17.861-1.611 38.115 1.283 56.233.003 2.678-.122 4.628 1.832 4.506 4.506-1.297 18.286 1.636 38.748 0 56.772-.385 4.243-3.034 5.273-6.396 2.636l-57.243-57.25c-1.52-1.135-2.248-4.012-.907-5.444Zm2.356-199.343 57.15-.132c2.862.01 5.16 1.34 5.04 4.501-1.298 18.286 1.637 38.75 0 56.772-.327 3.592-2.063 4.977-5.62 3.448L20.403 86.293c-2.43-2.495-1.407-5.201 1.713-6.26Zm80.056 316.465c.416-.035.806-.08 1.2.108l59.625 59.15c2.226 1.967 1.414 5.555-1.574 5.868l-60.335-.139c-1.102-.528-1.997-1.476-1.995-2.775l.019-58.878c-.003-1.893 1.183-3.179 3.06-3.334ZM99.788 199.33c1.282-1.337 3.883-1.286 5.187.11l57.76 57.79c2.462 1.964 1.896 5.726-1.311 6.134l-60.335-.139-1.218-.902-.083-62.993Zm-19.363-1.112c1.95-.305 3.894 1.928 3.868 3.88-1.284 18.447 1.666 39.108.014 57.289-.126 1.379-.229 2.449-1.312 3.46l-62.89-.259c-1.272-1.074-1.454-2.923-.51-4.317l58.579-58.558c.606-.572 1.412-1.364 2.25-1.495Zm0 198.259c1.95-.305 3.894 1.929 3.868 3.88-1.286 18.444 1.67 39.112.013 57.288-.157 1.722-.307 3.046-2.114 3.718l-60.214.261c-2.568-.202-3.771-2.922-2.384-5.094l58.58-58.558c.606-.572 1.412-1.364 2.25-1.495Zm21.74 80.091 58.184-.14c1.96.044 3.657 1.51 3.927 3.458l-61.71 61.812c-2.494.013-3.264-1.255-3.477-3.468-1.77-18.402 1.398-39.647.024-58.354.08-2.127 1.055-2.943 3.052-3.308ZM80.836.112c1.975-.004 3.432 1.822 3.457 3.727-1.284 18.447 1.666 39.107.014 57.289-.126 1.378-.229 2.448-1.312 3.459l-62.89-.258c-1.272-1.074-1.454-2.923-.51-4.317L78.425 1.18C79.07.606 79.965.113 80.836.112Zm21.191-.028c.991-.045 2.699.929 3.469 1.632l57.502 57.52c2.226 1.967 1.414 5.555-1.574 5.868l-60.335-.138c-1.102-.528-1.997-1.477-1.995-2.776V3.294c-.145-1.303 1.75-3.156 2.933-3.21Zm.121 79.948 58.201-.123c1.96.044 3.657 1.51 3.927 3.458l-61.71 61.813c-1.543.149-2.703-.696-3.332-2.024l-.14-59.816c.022-1.704 1.584-2.784 3.054-3.308Zm0 198.26 58.201-.123c1.96.043 3.657 1.509 3.927 3.457l-61.71 61.813c-1.543.15-2.703-.696-3.332-2.023l-.14-59.817c.022-1.703 1.584-2.783 3.054-3.307Z" class="cls-1"/></g></svg>