<svg xmlns="http://www.w3.org/2000/svg" width="120" height="34" fill="none" viewBox="0 0 120 34"><g clip-path="url(#a)"><g fill="#fff" clip-path="url(#b)"><path d="M53.08 8.59c-7.508 0-12.466 5.039-12.466 12.718s4.864 12.574 12.845 12.574c6.517 0 10.814-3.839 11.57-8.542h-6.612c-.566 2.207-2.503 3.407-5.195 3.407-3.352 0-5.714-2.111-5.714-5.615v-.288h17.71c.046-.863.046-1.584.046-2.303 0-7.295-5.006-11.95-12.183-11.95zm-5.477 9.742c.473-2.879 2.645-4.607 5.478-4.607 3.023 0 5.053 1.68 5.478 4.655zM75.467 12.622l-.615-3.647h-5.809v24.62h6.659V21.5c0-3.695 1.51-6.383 5.431-6.383h2.692V8.976h-1.37c-3.825 0-5.714 1.488-6.988 3.647M93.554 0h-6.658l.046 33.595h6.66l-.048-14.254zM120 0h-6.659v33.595H120zM18.512 6.91H24.9l-6.387 17.71L9.35 0H.047L0 18.378h6.754v-7.292l8.594 22.509h5.761l8.596-22.509v22.509h6.8V0H18.512z"/><path d="M98.534 18.378h-.178a6.24 6.24 0 0 0 4.615-2.051l6.691-7.352h-4.88a6.24 6.24 0 0 0-4.641 2.078l-6.589 7.325 7.962 12.334a6.27 6.27 0 0 0 5.261 2.883h4.25l-7.086-12.099a6.27 6.27 0 0 0-5.406-3.118zM0 25.342v8.252l2.603-.956c2.491-.915 4.15-3.317 4.15-6.009v-8.252l-2.603.956C1.66 20.248 0 22.65 0 25.342"/></g></g><defs><clipPath id="a"><path fill="#fff" d="M0 0h120v33.882H0z"/></clipPath><clipPath id="b"><path fill="#fff" d="M0 0h120v33.882H0z"/></clipPath></defs></svg>