<svg xmlns="http://www.w3.org/2000/svg" width="24" height="24" fill-rule="evenodd" clip-rule="evenodd"><path d="M12 0c6.623 0 12 5.377 12 12s-5.377 12-12 12S0 18.623 0 12 5.377 0 12 0m0 2c5.52 0 10 4.481 10 10s-4.48 10-10 10S2 17.52 2 12 6.481 2 12 2m-2 2.252V5.29C7.11 6.152 5 8.832 5 12c0 3.863 3.137 7 7 7a6.98 6.98 0 0 0 4.949-2.051l.706.706A7.97 7.97 0 0 1 12 20c-4.416 0-8-3.585-8-8 0-3.725 2.551-6.859 6-7.748m0 3.165v1.119a4 4 0 1 0 4.828 6.292l.707.707A5 5 0 0 1 12 17c-2.76 0-5-2.24-5-5a5 5 0 0 1 3-4.583m1 2.851V4a.997.997 0 0 1 1-1 .997.997 0 0 1 1 1v6.268A1.999 1.999 0 0 1 12 14a2 2 0 0 1-1-3.732"/></svg>