<?xml version="1.0" encoding="UTF-8"?>
<svg xmlns="http://www.w3.org/2000/svg" version="1.1" viewBox="0 0 127 63">
  <defs>
    <style>
      .cls-1 {
        fill: #fff;
      }
    </style>
  </defs>
  <!-- Generator: Adobe Illustrator 28.7.1, SVG Export Plug-In . SVG Version: 1.2.0 Build 142)  -->
  <g>
    <g id="Layer_1">
      <path class="cls-1" d="M71.6,48.6v13.8h-7.1v-9.6l-8.1.9c-1.8.2-2.5.8-2.5,1.9,0,1.6,1.5,2.2,4.6,2.2s4.1-.3,6-.8l-3.7,5.2c-1.5.3-2.9.5-4.4.5-6.4,0-10.1-2.6-10.1-7.1s2.9-6.1,9.4-6.9l8.6-1c-.5-2.5-2.4-3.6-6.1-3.6s-7.4.9-10.9,2.6l1.1-6.2c3.2-1.4,7-2.1,10.7-2.1,8.2,0,12.5,3.4,12.5,10.1h0s0,0,0,0ZM7.9,31.3L.2,62.4h7.7l3.8-15.6,6.6,8h8.1l6.7-8,3.8,15.6h7.7l-7.7-31.1-14.5,17.4L7.9,31.3h0ZM37,.2l-14.5,17.4L7.9.2.2,31.3h7.7l3.8-15.6,6.6,8h8.1l6.7-8,3.8,15.6h7.7L37,.2ZM90.1,48.3l-6.2-.9c-1.6-.2-2.2-.7-2.2-1.6,0-1.4,1.5-2,4.6-2s6.9.7,10.3,2.4l-.9-6.1c-2.8-1-5.9-1.5-9.2-1.5-7.7,0-11.9,2.7-11.9,7.5s2.3,5.9,7.2,6.6l6.3,1c1.6.2,2.3.9,2.3,1.9,0,1.4-1.5,2.1-4.5,2.1s-8.2-1-11.7-2.7l.7,6.1c3,1.1,6.9,1.8,10.6,1.8,7.9,0,12-2.8,12-7.7s-2.3-6.1-7.4-6.8h0s0,0,0,0ZM100.3,34.1v28.3h7.1v-28.3h-7.1ZM115.6,49.7l9.8-10.7h-8.8l-9.3,11.1,9.9,12.4h8.9l-10.6-12.7s0,0,0,0ZM99.3,24.6c0,4.6,3.7,7.1,10.1,7.1s3-.2,4.4-.5l3.7-5.2c-1.9.5-4,.8-6,.8-3.2,0-4.6-.7-4.6-2.2s.8-1.7,2.5-1.9l8.1-.9v9.6h7.1v-13.8c0-6.6-4.2-10.1-12.5-10.1s-7.4.7-10.7,2.1l-1.1,6.2c3.5-1.7,7.4-2.6,10.9-2.6s5.7,1.1,6.1,3.6l-8.6,1c-6.5.7-9.4,2.9-9.4,6.9h0s0,0,0,0ZM79.5,23.1c0,5.7,3.3,8.6,9.8,8.6s4.7-.4,6.8-1.4l.9-6.3c-2,1.2-4,1.8-6,1.8-3,0-4.4-1.2-4.4-4v-8.3h10.7v-5.8h-10.7V2.9l-13.4,7.2v3.5h6.4v9.5h0s0,0,0,0ZM72.6,20.5v1.4h-19.1c.9,2.9,3.4,4.2,8,4.2s7-.7,10-2.2l-.9,6.1c-2.8,1.2-6.3,1.8-9.8,1.8-9.5,0-14.7-4.2-14.7-12.1s5.3-12.2,13.4-12.2,13.1,4.8,13.1,13.1h0s0,0,0,0ZM53.4,17.1h12.1c-.6-2.8-2.7-4.2-6.1-4.2s-5.3,1.4-6,4.2Z"/>
    </g>
  </g>
</svg>