<svg xmlns="http://www.w3.org/2000/svg" width="64" height="64" fill="none" viewBox="0 0 64 64"><circle cx="32" cy="32" r="32" fill="#000"/><path fill="#f2f2f2" d="M8.155 31.98v7.527H6.54v-9.393h1.528zm-.33 2.475-.747-.026q.009-.964.252-1.78.243-.825.72-1.432a3.2 3.2 0 0 1 1.19-.938q.711-.338 1.649-.338.66 0 1.215.19.555.183.964.582.408.4.633 1.025t.226 1.51v6.259h-1.606v-6.18q0-.739-.252-1.181a1.44 1.44 0 0 0-.694-.643 2.5 2.5 0 0 0-1.059-.208q-.71 0-1.19.252a2 2 0 0 0-.763.694q-.287.443-.417 1.016a5.7 5.7 0 0 0-.121 1.198m6.085-.886-1.077.33q.009-.773.252-1.484a4 4 0 0 1 .72-1.268 3.4 3.4 0 0 1 1.172-.876q.695-.33 1.589-.33.756 0 1.337.2.59.2.99.616.407.408.616 1.05.208.643.208 1.528v6.172h-1.614v-6.19q0-.79-.252-1.223a1.3 1.3 0 0 0-.695-.617q-.443-.182-1.059-.182-.53 0-.937.182-.408.183-.686.504a2.2 2.2 0 0 0-.425.72 2.7 2.7 0 0 0-.14.868m12.135 6.111a4.6 4.6 0 0 1-1.78-.33 4 4 0 0 1-1.362-.946 4.2 4.2 0 0 1-.868-1.44 5.3 5.3 0 0 1-.304-1.823v-.365q0-1.146.338-2.04a4.6 4.6 0 0 1 .92-1.528 3.9 3.9 0 0 1 1.32-.946 3.8 3.8 0 0 1 1.528-.321q1.007 0 1.736.347.738.348 1.207.972.468.616.694 1.459.226.833.226 1.823v.72h-7.014v-1.31h5.408v-.122a4 4 0 0 0-.26-1.215 2.2 2.2 0 0 0-.695-.973q-.477-.382-1.302-.382a2.19 2.19 0 0 0-1.797.912q-.33.45-.512 1.102a5.6 5.6 0 0 0-.182 1.502v.364q0 .669.182 1.26.191.58.547 1.023.364.443.877.695.52.252 1.18.252.85 0 1.441-.347a3.6 3.6 0 0 0 1.033-.93l.972.773a4.5 4.5 0 0 1-.772.877 3.7 3.7 0 0 1-1.155.677q-.676.26-1.606.26M48.137 30.111l2.058 3.42 2.083-3.42h1.884l-3.073 4.635 3.168 4.758H52.4l-2.17-3.525-2.17 3.525h-1.867l3.16-4.757-3.065-4.636z"/><path fill="#fff" d="M55.704 21.976a.74.74 0 1 1 0 1.481H45.35l-6.102 15.957c-.271.711-1.23.76-1.593.14l-.065-.132-5.292-13.472a.741.741 0 0 1 1.38-.542l4.732 12.048 5.701-14.91.058-.122a.89.89 0 0 1 .773-.448z"/></svg>