<svg xmlns="http://www.w3.org/2000/svg" data-name="Layer 2" viewBox="0 0 325.719 79.88"><g data-name="Layer 1"><path d="M38.889 57.204v21.262a1.413 1.413 0 0 1-2.123 1.22L1.406 59.135A2.83 2.83 0 0 1 0 56.69V12.738c0-1.09 1.18-1.77 2.123-1.222L19.779 21.78v23.823zm38.889 1.218v20.044a1.413 1.413 0 0 0 2.123 1.22l35.36-20.552a2.83 2.83 0 0 0 1.406-2.443V12.738a1.412 1.412 0 0 0-2.122-1.222l-15.651 9.097v24.989z" style="fill:rgba(243,245,240,.4499999881);fill-rule:evenodd"/><path d="M19.78 1.415A1.413 1.413 0 0 1 21.892.188l36.743 20.996c.434.248.967.248 1.402 0L96.78.188a1.412 1.412 0 0 1 2.113 1.227v44.187L60.07 69.174a1.41 1.41 0 0 1-1.466 0L19.779 45.602V1.415Zm159.555 17.497L167.88 47.457l-11.571-28.545h-11.864v41.234h10.043V35.36l9.279 24.786h8.105l9.223-24.731v24.73h10.043V18.913zm18.995 0v41.234h10.042V18.912zm32.547 0h-15.452v41.234h15.452c13.154 0 21.613-8.4 21.613-20.618s-8.46-20.616-21.613-20.616m-.648 32.542h-4.755V27.487h4.755c7.579 0 12.04 4.462 12.04 12.041s-4.461 11.926-12.04 11.926m48.575-32.542h-11.626l-14.92 41.234h10.513l2.464-7.286h15.39l2.47 7.286h10.629zM267.88 45.109l5.049-15.097 5.11 15.097h-10.16Zm37.46-14.975c0-2.585 1.82-3.82 4.23-3.759 2.7.056 4.578 1.645 4.755 4.285h10.868c-.415-7.872-6.461-12.334-15.452-12.334s-15.036 4.346-15.036 12.157c-.116 14.627 20.5 10.513 20.5 18.154 0 2.408-1.876 3.875-4.816 3.875s-4.816-1.528-5.11-4.7h-10.69c.293 8.343 7.224 12.744 16.093 12.744 9.633 0 15.037-5.752 15.037-12.683 0-13.808-20.38-10.575-20.38-17.739Z" style="fill:#f3f5f0"/></g></svg>