<svg xmlns="http://www.w3.org/2000/svg" width="500" height="500" fill="none" viewBox="0 0 500 500"><g clip-path="url(#a)"><circle cx="250" cy="250" r="250" fill="#dcff1c"/><path fill="#000" d="m174 177.9 34.16 22.91 18.73 12.56a43 43 0 0 0 48 0l104.23-70a5.8 5.8 0 0 0 2.11-7 43.51 43.51 0 0 0-27.617-24.974 43.52 43.52 0 0 0-36.823 5.524l-60.37 40.49a10 10 0 0 1-11.09 0L185 116.92a43.53 43.53 0 0 0-39.188-4.785A43.52 43.52 0 0 0 118.88 141L174 177.92z"/><path fill="#000" d="m123.08 322.09 30-20.89A48.67 48.67 0 0 0 174 261.26v-83.34L118.88 141a43.6 43.6 0 0 0-1.7 12v166a3.76 3.76 0 0 0 5.9 3.09M376.92 177.91l-30 20.89a48.654 48.654 0 0 0-20.86 39.94v83.34L381.12 359a43.6 43.6 0 0 0 1.7-12.05V181a3.752 3.752 0 0 0-2.016-3.329 3.76 3.76 0 0 0-3.884.239M326.05 322.1l-34.16-22.91-18.73-12.56a43 43 0 0 0-48 0l-104.23 70a5.8 5.8 0 0 0-2.11 7 43.526 43.526 0 0 0 64.44 19.45l60.37-40.49a10.005 10.005 0 0 1 11.09 0l60.37 40.49a43.54 43.54 0 0 0 18.999 7.048 43.53 43.53 0 0 0 37.03-13.504A43.5 43.5 0 0 0 381.12 359z"/></g><defs><clipPath id="a"><path fill="#fff" d="M0 0h500v500H0z"/></clipPath></defs></svg>