<svg xmlns="http://www.w3.org/2000/svg" width="32" height="32" viewBox="0 0 32 32"><g fill="none" fill-rule="evenodd"><circle cx="16" cy="16" r="16" fill="#00316d"/><path fill="#fff" fill-rule="nonzero" d="M18.156 19.887c-.013-.024-.015-.034-.02-.037q-.93-.441-1.862-.876c-.033-.016-.1-.012-.121.011-.27.29-.534.587-.802.884.194.143 2.643.144 2.805.018m-5.674-7.163-.062-.13c-.052.037-.12.064-.154.114a372 372 0 0 0-1.708 2.564c-.035.054-.033.133-.05.2.07-.014.148-.011.205-.046a57 57 0 0 0 1.444-.898.4.4 0 0 0 .161-.249c.064-.5.108-1.003.164-1.555m11.997 7.25h.826c.159 0 .22-.06.119-.213q-.786-1.204-1.575-2.404c-.028-.044-.092-.063-.14-.093-.025.05-.068.1-.073.153-.061.782-.116 1.564-.176 2.346-.011.149.041.216.193.213.275-.006.55-.002.826-.002m-17.734-.06c.126.03.188.058.249.059q1.34.001 2.678.002c.173 0 .217-.061.144-.228a108 108 0 0 1-.822-1.914c-.078-.187-.15-.178-.273-.046q-.716.77-1.434 1.534c-.167.18-.33.36-.542.593m13.195-4.613c.058.113.077.162.106.204l1.208 1.754q.747 1.088 1.5 2.172c.034.05.1.077.15.114.026-.06.068-.117.076-.179.02-.17.024-.34.035-.51.054-.775.114-1.549.16-2.323.02-.33-.123-.5-.436-.578q-1.252-.314-2.506-.626c-.075-.018-.154-.015-.293-.028m-.212-5.135-.076.013c-.01.153-.025.307-.03.462l-.111 3.771c-.005.138.036.21.179.244.866.21 1.73.431 2.596.644.075.018.158.001.237 0-.02-.077-.024-.164-.061-.232q-1.295-2.356-2.595-4.708c-.038-.069-.092-.13-.139-.194m-3.885 7.707c.024-.133.047-.213.05-.293.013-.419.014-.838.033-1.257a1.36 1.36 0 0 0-.268-.891 970 970 0 0 1-2.375-3.31c-.036-.05-.051-.115-.076-.173l-.094.056c-.023.084-.059.167-.068.252-.07.68-.13 1.36-.205 2.038a.46.46 0 0 0 .127.396c.895.997 1.784 2 2.677 3 .048.054.106.098.199.182m.577-.209.06.04c.055-.043.12-.077.164-.13a620 620 0 0 0 2.273-2.776.37.37 0 0 0 .078-.205q.053-1.853.095-3.705c.002-.068-.037-.137-.058-.205-.055.053-.132.096-.163.16-.7 1.482-1.369 2.979-2.103 4.442-.388.774-.326 1.573-.346 2.38m-3.503 2.31c.481 0 .963.007 1.444-.006a.46.46 0 0 0 .294-.125c.335-.351.649-.723.983-1.075.125-.13.097-.21-.009-.326a153 153 0 0 1-1.678-1.85c-.134-.15-.211-.149-.331.015-.761 1.041-1.53 2.075-2.295 3.114-.038.052-.052.121-.078.182.067.024.134.067.202.067.49.006.978.004 1.468.004m.498-3.966c-.266-.309-.527-.6-.774-.905-.104-.127-.184-.14-.324-.053-.836.526-1.681 1.038-2.515 1.567-.151.096-.27.245-.398.376-.119.122-.103.256-.038.406.325.743.642 1.489.963 2.234.122.28.168.285.355.035q.742-.991 1.481-1.984zm5.795-.788c-.065.105-.096.169-.14.221q-1.187 1.45-2.383 2.894c-.13.157-.063.219.084.286.917.42 1.83.847 2.749 1.265a1 1 0 0 0 .374.084q1.134.009 2.27.001c.07 0 .141-.032.212-.05-.025-.074-.036-.159-.08-.222a916 916 0 0 0-2.099-3.052c-.31-.45-.622-.9-.987-1.427m-3.217 5.777Q10.83 20.997 5.667 21c-.268 0-.51-.03-.626-.318-.11-.273.018-.475.197-.666 1.028-1.098 2.07-2.184 3.07-3.306.382-.428.677-.937 1-1.418 1.035-1.548 2.062-3.102 3.102-4.646.102-.151.258-.304.422-.364.226-.084.419.046.563.252.837 1.196 1.68 2.388 2.521 3.582.173.244.235.236.363-.042l2.594-5.65c.102-.222.237-.411.5-.423.275-.013.442.154.571.39 1.302 2.362 2.574 4.744 3.927 7.076.818 1.41 1.765 2.741 2.654 4.108q.166.251.329.505c.13.205.207.43.085.657-.12.22-.342.262-.575.262q-5.186-.002-10.371-.001"/></g></svg>