<svg xmlns="http://www.w3.org/2000/svg" width="32" height="32" viewBox="0 0 32 32"><g fill="none"><circle cx="16" cy="16" r="16" fill="#1eb5fa"/><path fill="#fff" d="m26.405 7.151-3.63 1.61a.67.67 0 0 0-.35.59v12.98a.66.66 0 0 0 .36.59l3.63 1.57a.338.338 0 0 0 .5-.3V7.451a.35.35 0 0 0-.51-.3M9.02 8.741l-3.52-1.6a.338.338 0 0 0-.5.3v16.74a.341.341 0 0 0 .52.29l3.54-1.87a.67.67 0 0 0 .32-.57v-12.7a.7.7 0 0 0-.36-.59m11.04 4.43-3.79-2.17a.67.67 0 0 0-.67 0l-3.86 2.15a.68.68 0 0 0-.34.59v4.4c0 .243.13.468.34.59l3.86 2.22c.207.12.463.12.67 0l3.79-2.2a.68.68 0 0 0 .34-.59v-4.4a.67.67 0 0 0-.34-.59"/></g></svg>