<svg xmlns="http://www.w3.org/2000/svg" width="202" height="200" fill="none" viewBox="0 0 202 200"><path fill="url(#a)" d="M200.416 100c0 55.228-44.772 100-100 100s-100-44.772-100-100 44.771-100 100-100 100 44.772 100 100"/><circle cx="133.279" cy="128.045" r="29.845" fill="#fff" fill-opacity=".4"/><path fill="#fff" fill-rule="evenodd" d="M121.24 42.11H57.055a5.35 5.35 0 0 0-5.349 5.348v96.277a5.35 5.35 0 0 0 5.35 5.349h44.153a37.44 37.44 0 0 1 46.775-55.231v-25zM65.448 65.303a2.64 2.64 0 0 1 2.64-2.64h35.791a2.64 2.64 0 1 1 0 5.28h-35.79a2.64 2.64 0 0 1-2.64-2.64m2.64 11.777a2.64 2.64 0 1 0 0 5.28h22.366a2.64 2.64 0 1 0 0-5.28z" clip-rule="evenodd"/><path fill="url(#b)" fill-opacity=".3" d="m121.24 42.11 2.298-2.298-.952-.952h-1.346zM53.273 147.517l-2.298 2.297zm47.936 1.566v3.25h6.225l-3.559-5.108zm-6.683-23.167 3.246.152zm8.828-22.438-2.479-2.1zm44.63-9.626-1.394 2.935 4.643 2.205v-5.14zm0-25h3.249v-1.346l-.951-.952zM57.055 45.359h64.185v-6.5H57.055zm-1.484.614a2.1 2.1 0 0 1 1.484-.614v-6.5c-2.28 0-4.467.907-6.08 2.52zm-.615 1.485a2.1 2.1 0 0 1 .615-1.484l-4.596-4.596a8.6 8.6 0 0 0-2.518 6.08zm0 96.277V47.458h-6.499v96.277zm.615 1.485a2.1 2.1 0 0 1-.615-1.485h-6.499c0 2.281.906 4.468 2.518 6.08zm1.484.615c-.556 0-1.09-.221-1.484-.615l-4.596 4.595a8.6 8.6 0 0 0 6.08 2.519zm44.154 0H57.055v6.499h44.154zm-9.928-20.071a40.7 40.7 0 0 0 7.262 25.178l5.332-3.716a34.2 34.2 0 0 1-6.103-21.157zm9.594-24.385a40.7 40.7 0 0 0-9.594 24.385l6.491.305a34.2 34.2 0 0 1 8.062-20.49zM123.347 87.9a40.7 40.7 0 0 0-22.472 13.479l4.959 4.2a34.2 34.2 0 0 1 18.883-11.326zm26.031 3.018a40.7 40.7 0 0 0-26.031-3.018l1.37 6.353a34.2 34.2 0 0 1 21.873 2.535zm-4.643-22.065v25h6.498v-25zm-25.792-24.446 26.743 26.744 4.596-4.596-26.744-26.743zM68.088 59.415a5.89 5.89 0 0 0-5.889 5.889h6.499a.61.61 0 0 1-.61.61zm35.791 0h-35.79v6.498h35.79zm5.889 5.889a5.89 5.89 0 0 0-5.889-5.89v6.5a.61.61 0 0 1-.61-.61zm-5.889 5.89a5.89 5.89 0 0 0 5.889-5.89h-6.499a.61.61 0 0 1 .61-.61zm-35.79 0h35.79v-6.5h-35.79zm-5.89-5.89a5.89 5.89 0 0 0 5.89 5.89v-6.5a.61.61 0 0 1 .609.61zm6.499 14.417a.61.61 0 0 1-.61.61v-6.5a5.89 5.89 0 0 0-5.889 5.89zm-.61-.61a.61.61 0 0 1 .61.61h-6.499a5.89 5.89 0 0 0 5.89 5.89zm22.366 0H68.088v6.5h22.366zm-.61.61a.61.61 0 0 1 .61-.61v6.5a5.89 5.89 0 0 0 5.89-5.89zm.61.61a.61.61 0 0 1-.61-.61h6.5a5.89 5.89 0 0 0-5.89-5.89zm-22.366 0h22.366v-6.5H68.088z"/><path fill="#fff" d="M125.779 119.712c0 4.135 3.365 7.5 7.5 7.5s7.5-3.365 7.5-7.5-3.365-7.5-7.5-7.5-7.5 3.365-7.5 7.5m20.833 24.167h1.667v-1.667c0-6.432-5.235-11.667-11.667-11.667h-6.666c-6.434 0-11.667 5.235-11.667 11.667v1.667z"/><defs><linearGradient id="a" x1="92.572" x2="-10.674" y1="-154.722" y2="202.339" gradientUnits="userSpaceOnUse"><stop offset=".233" stop-color="#ff9c27"/><stop offset="1" stop-color="#fd48ce"/></linearGradient><linearGradient id="b" x1="99.845" x2="99.845" y1="42.109" y2="149.084" gradientUnits="userSpaceOnUse"><stop stop-color="#fff"/><stop offset="1" stop-color="#fff" stop-opacity=".55"/></linearGradient></defs></svg>