<svg xmlns="http://www.w3.org/2000/svg" xmlns:xlink="http://www.w3.org/1999/xlink" width="282" height="75"><path d="M37.3.353C16.923.353.397 16.877.397 37.255c0 4.074.66 7.992 1.88 11.657h11.036V17.863L37.3 41.85l23.987-23.987v31.05h11.037a36.8 36.8 0 0 0 1.88-11.658C74.204 16.877 57.678.353 37.3.353" style="fill:#f60"/><path d="M21.316 36.896v19.537H5.766C12.244 67.061 23.944 74.159 37.3 74.159s25.056-7.098 31.533-17.726H53.283V36.896L37.3 52.88z" style="fill:#4c4c4c"/><path id="a" d="M272.709 47.761c-1.951 2.01-4.317 3.01-7.1 3.01-2.457 0-4.63-.772-6.532-2.324q-3.667-2.969-3.666-8.084c0-3.053.972-5.576 2.916-7.556 1.937-1.987 4.33-2.974 7.184-2.974q4.227 0 7.177 3.045 2.96 3.044 2.959 7.45c0 2.944-.978 5.417-2.938 7.433m4.097-18.937c-3.132-3.15-6.877-4.73-11.238-4.73-2.874 0-5.561.722-8.048 2.165q-3.744 2.165-5.877 5.876-2.136 3.71-2.137 8.127 0 6.594 4.59 11.39c3.058 3.201 6.898 4.795 11.514 4.795 4.41 0 8.165-1.55 11.26-4.668 3.095-3.11 4.639-6.919 4.639-11.416q.001-6.799-4.703-11.539" style="fill:#4c4c4c"/><path d="M238.306 35.97c-.743.518-1.094.773-3.06.773h-7.736v-6.618h7.496c1.503 0 1.77.113 2.385.345a3.05 3.05 0 0 1 1.47 1.118c.368.518.548 1.133.548 1.838q0 1.779-1.103 2.544m.93 6.093q3.076-1.104 4.607-3.24c1.021-1.434 1.524-3.206 1.524-5.336 0-2.019-.457-3.775-1.38-5.253q-1.388-2.217-3.662-3.174-2.272-.959-7.639-.96h-11.329v32.34h6.153V42.746h5.37l7.28 13.694h6.73zM193.775 24.093h20.968v6.025h-14.852v6.62h14.852v5.92h-14.852v7.727h14.852v6.05h-20.968zM161.287 24.093h5.89l13.875 21.28v-21.28h6.153v32.34h-5.913L167.44 35.221v21.212h-6.153z" style="fill:#4c4c4c"/><use xlink:href="#a" width="282" height="75" transform="translate(-125.059)"/><path d="M89.688 24.093h6.025l7.473 22.557 7.587-22.557h5.935l5.45 32.34h-5.937l-3.474-20.424-6.88 20.425h-5.427l-6.79-20.425-3.542 20.425h-6.003z" style="fill:#4c4c4c"/></svg>