<svg xmlns="http://www.w3.org/2000/svg" width="668" height="582" fill="none" viewBox="0 0 668 582"><g filter="url(#a)"><path fill="url(#b)" fill-opacity=".4" d="M336.185 557.376c149.772 0 271.185-120.967 271.185-270.188S485.957 17 336.185 17C186.414 17 65 137.967 65 287.188s121.414 270.188 271.185 270.188"/><path fill="url(#c)" fill-opacity=".5" d="M336.185 557.376c149.772 0 271.185-120.967 271.185-270.188S485.957 17 336.185 17C186.414 17 65 137.967 65 287.188s121.414 270.188 271.185 270.188"/><path stroke="url(#d)" stroke-width="4" d="M605.37 287.188c0 148.109-120.511 268.188-269.185 268.188S67 435.297 67 287.188 187.511 19 336.185 19 605.37 139.079 605.37 287.188Z"/></g><g filter="url(#e)"><path fill="#041836" d="m465.52 383.284-.155-.076c-.465.686-1.008 1.372-1.472 2.058.542-.686 1.162-1.296 1.627-1.982"/><path fill="#041836" d="M507.67 259.35c-1.394-54.802-46.875-98.782-102.816-98.782-27.506 0-52.377 10.671-70.895 27.973-18.363-17.302-43.156-27.973-70.43-27.973-55.94 0-101.421 44.513-102.816 100.002v.762c0 42.226 15.573 79.727 29.83 105.489a283 283 0 0 0 19.99 31.25c2.712 3.735 5.114 6.708 6.818 8.842a64 64 0 0 0 2.092 2.515c.233.305.465.534.62.763l.232.228.078.076.077.077c11.932 13.643 32.697 15.015 46.411 3.125 13.637-11.891 15.031-32.547 3.177-46.19v-.076q0-.115-.233-.229c-.232-.305-.619-.762-1.239-1.448-1.085-1.372-2.79-3.506-4.882-6.403-4.184-5.716-9.84-14.024-15.418-24.238-11.467-20.732-21.54-46.875-21.695-73.4.698-19.817 17.046-35.671 37.036-35.671 20.145 0 36.571 16.006 37.036 36.052a33.5 33.5 0 0 0 3.641 14.177c4.649 12.272 16.658 21.037 30.76 21.037 18.13 0 32.852-14.482 32.852-32.394v-4.344c.697-19.589 17.045-35.214 37.035-35.214s36.339 15.701 37.036 35.214c-.078 21.341-7.051 42.302-14.876 58.918a212 212 0 0 1-10.46 19.36c-1.395 2.287-2.557 3.964-3.254 5.031-.388.533-.62.914-.775 1.067-.078.076-.078.152-.155.152-.078.153-.31.458-.31.458 6.043-7.47 15.264-12.196 25.724-12.196 18.13 0 32.851 14.482 32.851 32.318 0 6.478-1.937 12.424-5.268 17.53l.155.077v-.077l.077-.076c.077-.076.077-.152.155-.228q.232-.23.465-.686c.387-.534.852-1.22 1.472-2.135 1.24-1.753 2.867-4.268 4.804-7.393a255 255 0 0 0 14.101-25.991c10.073-21.342 20.92-52.135 20.92-86.587v-.381z"/><path fill="#b7e803" d="M437.783 333.36c-10.382 0-19.68 4.802-25.723 12.196-4.494 5.488-7.128 12.5-7.128 20.122 0 17.835 14.721 32.317 32.851 32.317 10.693 0 20.068-5.03 26.111-12.729.543-.685 1.008-1.371 1.472-2.057a31.63 31.63 0 0 0 5.269-17.531c0-17.836-14.644-32.318-32.852-32.318"/></g><defs><linearGradient id="c" x1="336.185" x2="336.185" y1="17" y2="557.376" gradientUnits="userSpaceOnUse"><stop stop-color="#fff"/><stop offset="1" stop-color="#fff" stop-opacity="0"/></linearGradient><linearGradient id="d" x1="181.447" x2="454.909" y1="64.768" y2="534.68" gradientUnits="userSpaceOnUse"><stop stop-color="#fff"/><stop offset="1" stop-color="#fff" stop-opacity="0"/></linearGradient><filter id="a" width="622.37" height="620.376" x="25" y="-23" color-interpolation-filters="sRGB" filterUnits="userSpaceOnUse"><feFlood flood-opacity="0" result="BackgroundImageFix"/><feGaussianBlur in="BackgroundImage" stdDeviation="20"/><feComposite in2="SourceAlpha" operator="in" result="effect1_backgroundBlur"/><feBlend in="SourceGraphic" in2="effect1_backgroundBlur" result="shape"/></filter><filter id="e" width="666.958" height="581.215" x=".713" y=".568" color-interpolation-filters="sRGB" filterUnits="userSpaceOnUse"><feFlood flood-opacity="0" result="BackgroundImageFix"/><feColorMatrix in="SourceAlpha" values="0 0 0 0 0 0 0 0 0 0 0 0 0 0 0 0 0 0 127 0"/><feOffset/><feGaussianBlur stdDeviation="80"/><feColorMatrix values="0 0 0 0 1 0 0 0 0 1 0 0 0 0 1 0 0 0 1 0"/><feBlend in2="BackgroundImageFix" result="effect1_dropShadow"/><feBlend in="SourceGraphic" in2="effect1_dropShadow" result="shape"/></filter><radialGradient id="b" cx="0" cy="0" r="1" gradientTransform="rotate(85.816 125.088 124.706)scale(576.776 618.653)" gradientUnits="userSpaceOnUse"><stop offset=".005" stop-color="#ecf5fc"/><stop offset="1" stop-color="#cee4f3"/></radialGradient></defs></svg>