<svg xmlns="http://www.w3.org/2000/svg" width="338" height="338" fill="none" viewBox="0 0 338 338"><circle cx="169" cy="169" r="169" fill="url(#a)"/><path fill="url(#b)" d="M169.496 38C97.54 38 39 96.54 39 168.504 39 240.467 97.54 299 169.496 299S300 240.46 300 168.504 241.46 38 169.496 38m62.034 98.656c5.951 1.423 11.536 3.063 16.691 4.916 21.319 7.655 25.988 15.494 25.988 17.874 0 2.381-4.669 10.213-25.988 17.868a145 145 0 0 1-9.071 2.916q.17-2.472.169-4.987c0-11.838-2.768-25.431-7.789-38.587m-62.034-73.302c40.497 0 75.725 23.016 93.283 56.66a129 129 0 0 0-5.987-2.303c-11.888-4.268-25.692-7.564-40.672-9.776-5.057-6.909-10.818-12.987-17.149-17.734-8.818-6.592-18.748-10.592-29.467-10.592-10.72 0-20.65 4-29.468 10.592-6.338 4.747-12.092 10.825-17.149 17.734-14.98 2.212-28.784 5.508-40.672 9.776a144 144 0 0 0-5.994 2.303C93.772 86.37 129 63.354 169.496 63.354m44.469 111.889c0 3.635-.387 7.177-1.113 10.579-13.494 2.028-28.164 3.085-43.348 3.085-15.185 0-29.862-1.057-43.356-3.085a50.7 50.7 0 0 1-1.113-10.579c0-13.099 4.916-29.826 12.705-43.651a87 87 0 0 1 2.113-3.578c9.135-14.649 19.938-23.051 29.651-23.051 9.712 0 20.515 8.402 29.65 23.051a86 86 0 0 1 2.113 3.578c7.789 13.825 12.698 30.552 12.698 43.651M99.85 180.23a145 145 0 0 1-9.071-2.916C69.46 169.659 64.79 161.82 64.79 159.446s4.67-10.219 25.988-17.874c5.155-1.853 10.74-3.493 16.691-4.916-5.021 13.156-7.789 26.749-7.789 38.587q0 2.515.169 4.987m69.646 93.416c-26.826 0-51.335-10.1-69.935-26.7 21.615 5.691 45.391 8.691 69.943 8.691 24.551 0 48.32-3 69.935-8.691-18.6 16.6-43.116 26.7-69.943 26.7m96.41-63.181c-13.544 6.578-29.073 11.62-45.856 14.973-15.924 3.183-32.982 4.845-50.546 4.845-17.565 0-34.63-1.662-50.554-4.845-16.783-3.353-32.312-8.395-45.856-14.973a104 104 0 0 1-5.36-15.48c4.353 2.225 9.185 4.289 14.48 6.19 7.614 2.733 16.01 5.071 25.003 6.973 11.085 2.359 23.072 4.063 35.594 5.063a337 337 0 0 0 26.693 1.05c9.071 0 18.008-.359 26.685-1.05 12.522-1 24.509-2.704 35.594-5.063 8.994-1.902 17.389-4.24 25.009-6.973 5.465-1.958 10.262-4.028 14.466-6.162a104 104 0 0 1-5.352 15.452"/><defs><linearGradient id="a" x1="169" x2="169" y1="0" y2="338" gradientUnits="userSpaceOnUse"><stop stop-color="#ebf7ec"/><stop offset="1" stop-color="#bdc4be"/></linearGradient><linearGradient id="b" x1="169.5" x2="169.5" y1="38" y2="299" gradientUnits="userSpaceOnUse"><stop stop-color="#49a078"/><stop offset="1" stop-color="#285f46"/></linearGradient></defs></svg>