<svg xmlns="http://www.w3.org/2000/svg" xml:space="preserve" id="Layer_1" width="613.3" height="528.8" x="0" y="0" viewBox="0 0 613.3 528.8"><style>.st0{fill:#fff}.st1{fill:#ff9c03}</style><path d="M29.1 528.8c-2.2 0-4.6-.1-7.1-.2s-5.1-.3-7.7-.6-5-.6-7.3-.9-4.4-.6-6.2-1v-12c2.3.2 5 .3 8.1.5s6.3.3 9.7.4 6.6.1 9.8.1c3.3 0 6.2-.3 8.8-.9s4.5-1.7 5.9-3.3 2.1-3.8 2.1-6.7v-4.3c0-3.2-.9-5.7-2.7-7.4s-4.5-2.6-8-2.6H26q-12.45 0-19.2-5.4c-4.5-3.6-6.7-9.8-6.7-18.6v-4.7c0-8.8 2.4-15.2 7.3-19.1s11.9-5.9 21-5.9c3.1 0 6.4.1 9.7.4s6.5.6 9.6 1c3 .4 5.6.9 7.8 1.4v12c-3.6-.2-7.8-.5-12.4-.7-4.7-.2-9-.4-12.9-.4-3.1 0-5.9.3-8.3 1s-4.2 1.8-5.4 3.5-1.9 4.2-1.9 7.5v3c0 3.9 1 6.6 3.1 8.1 2.1 1.6 5.1 2.3 9.1 2.3h9.5c5.3 0 9.8 1 13.2 3 3.5 2 6 4.7 7.7 8.1s2.5 7.3 2.5 11.7v5.8c0 6.7-1.3 11.9-4 15.6-2.6 3.6-6.3 6.1-10.9 7.4-4.5 1.2-9.7 1.9-15.7 1.9M106.5 528.7q-3 0-6.6-.6c-2.4-.4-4.8-1.2-7-2.5q-3.3-1.95-5.4-5.7c-1.4-2.6-2.1-6-2.1-10.5v-52.6c0-3.9.6-7.1 1.7-9.7 1.2-2.6 2.7-4.6 4.6-6.1s4.1-2.5 6.4-3.1 4.7-.9 7-.9c5.8 0 10.9.1 15.6.2 4.6.2 8.8.3 12.7.5 3.8.2 7.4.4 10.7.6V451h-34.4q-4.2 0-6.6 2.1c-1.6 1.4-2.4 3.6-2.4 6.5v16.2l37.9.9v12l-37.9.9v15.7c0 2.5.4 4.4 1.3 5.7q1.35 1.95 3.3 2.7c1.4.5 2.8.7 4.3.7H144V527c-3.6.3-7.6.6-11.9.8s-8.6.4-13 .5c-4.4.2-8.6.3-12.6.4M196.5 528.8c-5.4 0-10.1-.6-14.1-1.9-4.1-1.2-7.5-3.5-10.2-6.8-2.8-3.3-4.8-8-6.2-14.1s-2.1-14.1-2.1-23.9c0-9.3.7-17 2.2-23 1.4-6 3.6-10.7 6.4-14.1s6.3-5.7 10.4-7 8.8-2 14.1-2c3.6 0 7.1.2 10.6.6 3.4.4 6.6.9 9.5 1.5s5.5 1.2 7.6 1.9v11.7c-1.4-.3-3.4-.6-5.9-.9-2.6-.3-5.4-.5-8.6-.7s-6.5-.3-10-.3c-3.8 0-7 .4-9.7 1.3s-4.8 2.4-6.5 4.8q-2.4 3.45-3.6 9.9c-.7 4.3-1.1 9.8-1.1 16.7 0 6.7.3 12.3 1 16.5q1.05 6.45 3.3 9.9c1.5 2.3 3.6 4 6.3 4.9s6 1.4 10.1 1.4c6.2 0 11.2-.1 15.2-.4s7.1-.6 9.5-.9v11.7c-2.3.7-4.9 1.2-7.8 1.7s-6 .9-9.4 1.2c-3.5.1-7.1.3-11 .3M279.2 528.7c-5 0-9.7-.4-14-1.3s-8-2.4-11.1-4.6q-4.65-3.3-7.2-9c-1.7-3.8-2.5-8.7-2.5-14.8v-62.1h15.2V499c0 4 .8 7.1 2.3 9.4 1.6 2.3 3.8 4 6.7 5s6.4 1.5 10.6 1.5c4.1 0 7.6-.5 10.6-1.5 2.9-1 5.2-2.7 6.7-5 1.6-2.3 2.3-5.5 2.3-9.4v-62.1H314V499c0 6-.8 10.9-2.5 14.8q-2.55 5.7-7.2 9c-3.1 2.2-6.8 3.7-11 4.6-4.3.8-9 1.3-14.1 1.3M337.2 528v-91.1h37q5.1 0 9.6 1.2c3 .8 5.7 2.2 8 4.3s4.2 4.9 5.6 8.6 2 8.4 2 14.3c0 4.5-.5 8.3-1.4 11.3s-2.1 5.5-3.6 7.3c-1.5 1.9-3.1 3.4-5 4.4s-3.7 1.9-5.5 2.5l17.5 37.3H386L370.3 493h-4c-1.5 0-3.1 0-4.8-.1-1.6 0-3.3-.1-4.8-.1-1.6 0-3-.1-4.3-.1V528zm15.2-47.2h19.3c1.8 0 3.5-.2 4.9-.7 1.5-.5 2.8-1.3 4-2.4 1.2-1.2 2-2.7 2.7-4.7.6-2 .9-4.5.9-7.7q0-4.5-.9-7.5c-.6-1.9-1.5-3.4-2.7-4.4s-2.5-1.7-4-2.2c-1.5-.4-3.1-.6-4.9-.6h-19.3zM423.4 528v-91.1h15.2V528zM486.1 528v-77.4h-26.2v-13.7h67.5v13.7h-26V528zM570 528v-28.5l-27.9-62.6h15.8l20 47 20-47h15.4l-28 62.6V528z" class="st0"/><path d="m414.1 132.2 49.4.2-73.3-127-24.4 43.2z" class="st1"/><path d="m414.2 146.1-51.8 89.8h-66.7l56.5-96.6-18.7-33.6-73.4 130.2h-.4l-24.2 42.7h151.6l76.3-132.3z" style="fill:#049ade"/><path d="m149.8 146.2 73.1 126.6 24.4-43.2-48.1-83.2z" class="st1"/><path d="M377.3 0H226.2l-76.3 132.3 49.2.2 51.8-89.8h66.6L261 139.3l18.7 33.6 73.4-130.2z" style="fill:#03baec"/><path d="M62.6 401.6v-43.9h7.1l18.4 29v-29h8.8v43.9h-7.1l-18.3-29v29zM127.9 401.9q-1.35 0-3.3-.3c-1.2-.2-2.4-.6-3.5-1.2s-2.1-1.6-2.8-2.9-1.1-3.1-1.1-5.3v-24.5c0-1.9.3-3.6.9-4.9s1.4-2.3 2.4-3.1 2.1-1.3 3.3-1.6 2.4-.5 3.5-.5c3 0 5.6 0 7.9.1s4.3.2 6.1.3 3.5.2 5 .4v7.4h-16.4c-1.2 0-2.2.3-2.8.9-.7.6-1 1.5-1 2.7v6.3l17.4.5v6.9l-17.4.5v6.1c0 1 .2 1.8.5 2.4s.8 1 1.4 1.2q.9.3 1.8.3h16.6v7.4c-1.7.2-3.7.4-5.8.5s-4.3.2-6.4.3c-2.4 0-4.4.1-6.3.1M174.9 401.6v-36h-12v-7.9h32.9v7.9h-12.1v36zM213.5 401.6v-43.9h8.8V376h16.6v-18.3h8.8v43.9h-8.8v-17.7h-16.6v17.7zM279 401.9q-1.35 0-3.3-.3c-1.2-.2-2.4-.6-3.5-1.2s-2.1-1.6-2.8-2.9-1.1-3.1-1.1-5.3v-24.5c0-1.9.3-3.6.9-4.9s1.4-2.3 2.4-3.1 2.1-1.3 3.3-1.6 2.4-.5 3.5-.5c3 0 5.6 0 7.9.1s4.3.2 6.1.3 3.5.2 5 .4v7.4H281c-1.2 0-2.2.3-2.8.9-.7.6-1 1.5-1 2.7v6.3l17.4.5v6.9l-17.4.5v6.1c0 1 .2 1.8.5 2.4s.8 1 1.4 1.2q.9.3 1.8.3h16.6v7.4c-1.7.2-3.7.4-5.8.5s-4.3.2-6.4.3c-2.3 0-4.4.1-6.3.1M316.8 401.6v-43.9H335c1.7 0 3.4.2 4.9.6s2.8 1.1 4 2.2c1.1 1 2 2.5 2.7 4.3s1 4.2 1 7c0 2-.2 3.7-.6 5.2-.4 1.4-.9 2.6-1.6 3.5s-1.4 1.6-2.2 2.2-1.7 1-2.6 1.4l8.2 17.6h-9l-7.1-16.3h-5.4c-.6 0-1.2 0-1.7-.1v16.4h-8.8zm8.8-23.3h7.8q1.2 0 2.1-.3c.6-.2 1.2-.5 1.7-1s.8-1.2 1.1-2 .4-1.9.4-3.2c0-1.2-.1-2.2-.4-3.1-.3-.8-.6-1.4-1.1-1.9s-1-.8-1.7-.9q-.9-.3-2.1-.3h-7.8zM365.9 401.6l5.1-43.9h8.4l10.1 33.6 10-33.6h8.4l5.2 43.9h-8.5l-3.8-32.3 1.4.1-8.6 32.2h-8.2l-8.7-32.2 1.5-.1-3.7 32.3zM432.5 401.6v-43.9h8.8v43.9zM462.2 401.6v-43.9h7.1l18.4 29v-29h8.8v43.9h-7.1l-18.3-29v29zM516.8 401.6v-43.9h18.6c3 0 5.4.5 7.4 1.6 2 1 3.5 2.6 4.7 4.5 1.2 2 2 4.3 2.5 7s.7 5.7.7 8.9c0 4.9-.6 9-1.7 12.3s-2.8 5.7-5.1 7.3-5.1 2.4-8.5 2.4h-18.6zm8.7-7.9h8.9c1.8 0 3.3-.5 4.3-1.6 1.1-1 1.8-2.6 2.3-4.7s.7-4.7.7-7.8c0-2.8-.2-5.2-.5-7s-.8-3.3-1.4-4.3-1.4-1.7-2.3-2.1-2-.6-3.2-.6h-8.9v28.1z" class="st0"/></svg>