<svg xmlns="http://www.w3.org/2000/svg" width="136" height="42" fill="none" viewBox="0 0 136 42"><g clip-path="url(#a)"><path fill="#000" d="M41.646 13.02h1.163L53.37 27.12V13.02h1.163v15.96H53.37L42.81 14.88V28.98h-1.164zm24.334 1.138v6.133h8.84v1.115h-8.84v6.435h9.63v1.138H64.795v-15.96h10.817v1.139zm23.774 6.854 6.094 7.968h-1.441l-5.373-7.04-5.398 7.04h-1.442l6.118-7.968-6.118-7.992h1.442l5.398 7.04 5.396-7.04h1.442zm16.795 7.259a6 6 0 0 1-2.256-2.347q-.814-1.499-.814-3.403V12.88h1.163v9.64q0 1.581.662 2.835a4.84 4.84 0 0 0 1.85 1.951q1.187.698 2.676.698c.992 0 1.902-.233 2.687-.698a4.86 4.86 0 0 0 1.838-1.951q.663-1.256.662-2.834V12.88h1.163v9.64q0 1.907-.814 3.404a6 6 0 0 1-2.256 2.347q-1.442.848-3.28.848t-3.281-.848m20.529.313a8.5 8.5 0 0 1-2.849-1.87l.721-.906a8 8 0 0 0 2.547 1.707q1.455.616 3.059.616 1.278 0 2.245-.42.966-.418 1.499-1.16a2.76 2.76 0 0 0 .536-1.65q0-1.3-1.094-2.091-1.092-.79-3.582-1.371c-1.83-.42-3.16-.94-3.991-1.569q-1.243-.941-1.243-2.59 0-1.301.674-2.334t1.861-1.614 2.676-.581c.992 0 2.005.198 2.943.592a8.9 8.9 0 0 1 2.593 1.684l-.722.906a7.8 7.8 0 0 0-2.291-1.523 6.5 6.5 0 0 0-2.593-.546q-1.14 0-2.046.43-.907.431-1.407 1.185a3 3 0 0 0-.501 1.707q0 1.162 1.082 1.86 1.082.697 3.548 1.3 2.723.652 3.989 1.673Q136 23.042 136 24.807q0 1.255-.674 2.265t-1.908 1.592q-1.232.58-2.885.58a9.2 9.2 0 0 1-3.454-.661z"/><path fill="#000" d="M13.874 21 0 29V13z" opacity=".2"/><path fill="url(#b)" d="M13.874 21V5l13.875 8z"/><path fill="#000" d="M27.748 13v15.998L13.874 21z" opacity=".8"/><path fill="#000" d="M13.874 21v16L0 29z" opacity=".5"/><path fill="url(#c)" d="M13.874 21 0 13l13.874-8z"/><path fill="#000" d="M13.874 37V21l13.874 7.998.001.002z"/></g><defs><radialGradient id="b" cx="0" cy="0" r="1" gradientTransform="matrix(-11.8968 0 0 -11.8812 7.604 20.637)" gradientUnits="userSpaceOnUse"><stop offset=".1" stop-opacity=".1"/><stop offset="1" stop-opacity=".5"/></radialGradient><radialGradient id="c" cx="0" cy="0" r="1" gradientTransform="matrix(-14.0621 0 0 -14.0437 7.764 21.116)" gradientUnits="userSpaceOnUse"><stop offset=".1" stop-opacity=".29"/><stop offset="1"/></radialGradient><clipPath id="a"><path fill="#fff" d="M0 5h136v32H0z"/></clipPath></defs></svg>