<svg xmlns="http://www.w3.org/2000/svg" width="32" height="32"><g fill="none" fill-rule="evenodd"><circle cx="16" cy="16" r="16" fill="#4099cd"/><path fill="#fff" d="M2.005 23.76c.605-1.764 1.771-3.674 3.395-5.56a2 2 0 0 1 2.788-2.81 35 35 0 0 1 4.104-3.109c6.934-4.503 14.262-5.94 17.836-3.798a15.9 15.9 0 0 1 1.821 6.236c-1.154 3.778-4.966 8.292-10.398 11.82-3.747 2.433-7.61 3.972-10.933 4.533a16.05 16.05 0 0 1-8.613-7.312m3.75-5.195c-2.344 2.708-3.283 5.494-2.147 7.244 1.716 2.643 7.52 1.92 12.961-1.613s8.462-8.542 6.746-11.185c-1.717-2.643-7.52-1.92-12.962 1.613q-.906.59-1.717 1.225a2 2 0 0 1-2.881 2.716"/></g></svg>