<svg xmlns="http://www.w3.org/2000/svg" width="114" height="30" fill="none" viewBox="0 0 114 30"><path fill="#9ba1b0" d="M93.025.793v15.308L88.218.793h-4.75v28.073h4.75V15.113l4.293 13.753h5.26V.793zM.205.793v28.073h4.75V16.83h4.404v-4.753H4.954V5.549h6.831V.793zM61.877.793h-13.16V5.55h4.206v23.317h4.748V5.549h4.206zM102.422.793v28.073H114V24.11h-6.829v-7.28h4.403v-4.753h-4.403V5.549H114V.793zM46.54 28.866h-4.906l-3.511-13.33s3.019-.543 3.019-3.76V7.388c0-1.017-.823-1.84-1.838-1.84h-1.826v23.317h-4.75V.793H39.3c3.54 0 6.422 2.799 6.575 6.307h.014v4.588h-.014c0 2.77-.904 4.77-2.561 6.04zM74.225.793v21.869a1.844 1.844 0 1 1-3.687 0V.793H65.79v21.869c0 3.644 2.951 6.599 6.59 6.599a6.595 6.595 0 0 0 6.592-6.6V.794zM14.854 6.997v15.665c0 3.644 2.95 6.599 6.59 6.599s6.591-2.955 6.591-6.6V6.997A6.59 6.59 0 0 0 21.446.398h-.002a6.595 6.595 0 0 0-6.59 6.6M19.6 22.662V6.997c0-1.018.824-1.845 1.843-1.845h.006c1.015 0 1.838.823 1.838 1.84v15.67a1.844 1.844 0 1 1-3.687 0"/></svg>