<svg xmlns="http://www.w3.org/2000/svg" data-name="Layer 2" viewBox="0 0 297 78"><g data-name="Layer 2"><path d="M43.431 39.003c15.027 7.537 31.835 12.524 31.835 12.524l-8.013 13.938S54.54 53.343 40.529 44.045C41.54 60.875 45.645 78 45.645 78H29.62s4.1-17.12 5.116-33.955c-14.01 9.298-26.723 21.42-26.723 21.42L0 51.521s16.808-4.986 31.834-12.524L3.014 21.543l1.947-3.387 30.058 16.657L35.685 0h3.895l.666 34.813 30.059-16.657 1.947 3.387-28.82 17.454v.006Zm77.835-21.922c-8.079 0-13.8 2.568-18.173 8.245l-.943-7.164h-4.844v47.303h5.787V41.543c0-12.095 6.997-19.599 18.24-19.599 9.827 0 14.271 5.744 14.271 17.906v25.61h5.788V39.85c0-15.41-6.531-22.775-20.126-22.775v.006Zm155.614 0c-8.08 0-13.8 2.568-18.173 8.245V6.468h-5.788V65.46h5.788V41.538c0-12.095 7.003-19.6 18.239-19.6 9.827 0 14.266 5.745 14.266 17.906v25.61H297v-25.61c0-15.41-6.531-22.774-20.126-22.774l.006.01Zm-30.691 22.368v26.016h-5.788v-7.097c-2.242 2.796-7.763 8.312-20.059 8.312-12.297 0-20.531-4.596-20.531-14.123 0-12.317 13.495-15.315 40.485-15.337-.816-10.09-6.476-15.276-16.658-15.276-10.704 0-17.435 5.744-17.901 15.27h-5.993c.472-12.367 9.628-20.139 23.894-20.139s22.412 7.972 22.545 22.368l.006.006Zm-5.788 2.635c-21.286.005-34.525 1.041-34.525 10.674 0 5.07 5.382 8.986 14.604 8.986 8.008 0 19.921-4.463 19.921-13.855v-5.811.006ZM194.9 41.81c0 15.676-9.894 24.735-24.232 24.735s-24.299-9.053-24.299-24.735c0-15.683 9.894-24.73 24.299-24.73S194.9 26.067 194.9 41.81Zm-6.054 0c0-12.301-7.607-19.867-18.173-19.867-10.565 0-18.239 7.571-18.239 19.867s7.608 19.866 18.239 19.866c10.632 0 18.173-7.638 18.173-19.866Z" data-name="Layer 1-2" style="fill:#f3f5f0"/></g></svg>