<svg xmlns="http://www.w3.org/2000/svg" width="99" height="33" fill="none"><path fill="#F3F5F0" d="M14.87 19.64c0-2.642-1.356-3.57-3.499-3.57s-3.357 1.143-4.214 2.071v13.856H.301V10.57h6.856v1.857L6.3 14c1.286-1.5 4.643-4 8.285-4 3.643 0 7.142 2.857 7.142 6.785v15.213h-6.856V19.64Zm23.498 9.286c-1.357 1.5-4.5 3.713-8.142 3.713-3.642 0-7.07-2.785-7.07-6.713V10.57h6.856v12.5c0 2.571 1.357 3.5 3.571 3.5 2.214 0 3.286-1.072 4.071-2.072V10.57h6.857v21.498h-6.857v-1.571l.714-1.571ZM78.436 10.07c6.356 0 10.998 4.643 10.998 12v1.5H74.65l-.571-.787c0 .286.071.643.143.929.5 1.928 2.357 3.643 5.428 3.643 3.07 0 4.07-.786 5.285-1.858l2.857 4.286c-2.143 1.928-5.714 2.857-9 2.857-6.642 0-11.713-4.286-11.713-11.285-.142-6.285 4.572-11.285 11.357-11.285Zm-4.429 9h8.857c-.143-1.5-1.286-3.714-4.428-3.714-3.143 0-4.143 2.142-4.429 3.714Zm23.641-8.5h-6.856v21.498h6.856V10.57Zm-36.211 0-4.57 12.856.142 1.929-5.285-14.785h-5.856v3.5l7.07 17.998h7.357l8.427-21.498h-7.285Zm28.855-6.642C90.292 1.714 92.006 0 94.22 0s3.928 1.714 3.928 3.928-1.714 3.928-3.928 3.928-3.928-1.714-3.928-3.928Z"/></svg>