<svg xmlns="http://www.w3.org/2000/svg" width="256" height="256" fill="none" viewBox="0 0 256 256"><path fill="#081f2c" d="M0 0h256v256H0z"/><path fill="#fff" d="M121.789 120.525c0-16.221-8.716-22.014-22.16-22.014a34.06 34.06 0 0 0-14.727 3.467 33.4 33.4 0 0 0-11.666 9.471V194H30V64.355h43.21v11.683l-5.293 9.655C76.042 76.352 97.463 61 120.09 61 150.966 61 165 78.597 165 103.097V194h-43.211z"/><path fill="#e40046" d="M179 170.5c0-6.233 2.423-12.21 6.737-16.617C190.05 149.476 195.9 147 202 147s11.95 2.476 16.263 6.883S225 164.267 225 170.5s-2.423 12.21-6.737 16.617C213.95 191.524 208.1 194 202 194s-11.95-2.476-16.263-6.883S179 176.733 179 170.5"/></svg>