<svg xmlns="http://www.w3.org/2000/svg" width="32" height="32"><g fill="none" fill-rule="evenodd"><circle cx="16" cy="16" r="16" fill="#008fbb"/><path fill="#fff" d="M26.082 16.833c-.507 0-.918-.373-.918-.833v-.834h-4.612c-.507 0-.918-.373-.918-.833s.411-.833.918-.833h5.53c.507 0 .918.373.918.833V16c0 .46-.41.833-.918.833m-4.549 0h1.835c.507 0 .918.373.918.833s-.41.834-.918.834h-2.816a1 1 0 0 1-.423-.094l-5.352-3.24h-1.542c-.507 0-.918-.373-.918-.833s.41-.833.918-.833h1.835c.198 0 .381.057.531.154l5.232 3.18zm-6.463 0c.507 0 .918.373.918.833s-.411.834-.918.834h-1.835a1 1 0 0 1-.423-.094l-5.352-3.24H5.918c-.507 0-.918-.373-.918-.833s.41-.833.918-.833h1.835a1 1 0 0 1 .531.154l5.232 3.18zm-9.152 0h1.835c.507 0 .918.373.918.834s-.411.833-.918.833H5.918c-.507 0-.918-.373-.918-.833s.41-.834.918-.834"/></g></svg>