<svg xmlns="http://www.w3.org/2000/svg" width="72" height="72" fill="none" viewBox="0 0 72 72"><g clip-path="url(#a)"><circle cx="36" cy="36" r="36" fill="#fbfbfb"/><path fill="#ff5100" d="M35.004 57.998c-1.382-.218-2.774-.38-4.141-.666a22.67 22.67 0 0 1-9.857-4.8l1.584-1.402c7.823 5.59 15.95 6.05 24.58 1.223l-1.972-1.631c-4.744 2.706-9.977 3.376-15.428 1.59-4.047-1.33-7.25-3.832-9.585-7.392-4.569-6.95-3.56-16.07 1.413-21.65l1.359 1.568c-4.243 5.83-4.756 11.994-1.197 18.563l1.745-1.631c-3.852-7.687-.577-14.787 4.074-18.04 4.88-3.407 12.22-3.37 16.327.223L42.5 25.471q-4.402-2.97-9.533-1.798a11.44 11.44 0 0 0-6.283 3.87c-3.2 3.762-3.857 9.623-.233 14.644l-3.424 2.749c4.098 5.641 14.093 9.086 22.65 2.9.824.813 1.699 1.588 2.474 2.457.576.65.953.594 1.568.03 8.122-7.425 9.176-19.32 2.456-28.005l-.618-.805 1.462-1.524a19.5 19.5 0 0 1 3.566 5.256 21 21 0 0 1 2.127 7.753q.067.398.218.771v2.67c-.146.824-.305 1.66-.437 2.493-1.405 8.997-8.83 16.694-17.796 18.42-1.34.257-2.696.434-4.043.646z"/><path fill="#ff5100" d="M12.522 33.563c.206-1.132.373-2.269.618-3.397a22.76 22.76 0 0 1 19.405-17.874c6.62-.854 12.555.903 17.84 5.074l-1.65 1.443c-4.46-3.506-9.724-4.997-15.59-4.36-2.941.318-6.918 1.795-8.993 3.51.549.413 1.032.867 1.603 1.143.274.132.763 0 1.075-.163 4.702-2.475 9.638-3.009 14.644-1.3 7.06 2.416 11.31 7.391 12.477 14.78.841 5.319-.66 10.048-4.004 14.266-.534-.518-1.013-.982-1.524-1.48 4.3-5.88 4.79-12.034 1.188-18.77-.576.64-1.085 1.093-1.444 1.65-.138.216 0 .685.136.988 2.151 4.95 1.797 9.67-1.35 14.075-4.297 6.022-13.166 7.456-19.168 3.176a5 5 0 0 1-.361-.336l1.52-1.398c5.818 3.735 12.132 1.975 15.527-1.778 3.168-3.5 4.457-9.41.66-14.845l3.195-2.908c-3.373-5.126-13.46-9.467-22.643-2.867l-3-3.156c-7.23 5.035-11.87 18.51-2.802 29.483l-1.487 1.477a22.3 22.3 0 0 1-5.202-10.066c-.279-1.22-.45-2.475-.67-3.7z"/><path fill="#ff5100" d="M27.785 29.533h15.837c-2.636 5.035-5.227 9.985-7.906 15.08zm13.444 2.213h-9.822l4.888 9.304z"/></g><defs><clipPath id="a"><path fill="#fff" d="M0 0h72v72H0z"/></clipPath></defs></svg>