<svg xmlns="http://www.w3.org/2000/svg" width="98" height="28" fill="none"><path fill="#f3f5f0" d="M28.755.002H.946A.66.66 0 0 0 .49.18.58.58 0 0 0 .3.61v26.019c0 .16.068.315.19.428a.67.67 0 0 0 .456.176h27.806a.67.67 0 0 0 .457-.176.58.58 0 0 0 .19-.428V.607a.58.58 0 0 0-.19-.429.67.67 0 0 0-.457-.178zM19.7 17.55c0 .16-.068.315-.19.428a.67.67 0 0 1-.456.178h-8.407a.66.66 0 0 1-.457-.178.58.58 0 0 1-.189-.428V9.683c0-.16.068-.315.19-.428a.67.67 0 0 1 .456-.178h8.407a.66.66 0 0 1 .457.178.59.59 0 0 1 .189.428v7.866Zm67.265-8.471h-8.407c-.357 0-.646.272-.646.604v7.866c0 .335.289.604.645.604h8.407c.357 0 .646-.271.646-.604V9.683c0-.335-.289-.604-.645-.604M77.268.002h-8.407c-.356 0-.645.272-.645.605v7.865c0 .335.289.605.645.605h8.407c.357 0 .648-.272.648-.605V.61c0-.335-.289-.605-.648-.605zm19.404 0h-8.407c-.357 0-.646.272-.646.605v7.865c0 .335.289.605.646.605h8.407c.356 0 .645-.272.645-.605V.61c0-.335-.289-.605-.645-.605zM77.268 18.155h-8.407c-.356 0-.645.272-.645.605v7.865c0 .335.289.605.645.605h8.407c.357 0 .648-.272.648-.605V18.76c0-.335-.289-.605-.648-.605m19.404 0h-8.407c-.357 0-.646.272-.646.605v7.865c0 .335.289.605.646.605h8.407c.356 0 .645-.272.645-.605V18.76c0-.335-.289-.605-.645-.605M62.707.002H54.3c-.357 0-.648.272-.648.605v7.865c0 .335.289.605.648.605h8.407c.356 0 .645-.272.645-.605V.61c0-.335-.289-.605-.645-.605zm0 18.153H54.3c-.357 0-.648.272-.648.605v7.865c0 .335.289.605.648.605h8.407c.356 0 .645-.272.645-.605V18.76c0-.335-.289-.605-.645-.605M53.65 9.677a.58.58 0 0 0-.19-.429.67.67 0 0 0-.456-.178H43.95V.607a.58.58 0 0 0-.189-.429.67.67 0 0 0-.457-.178h-8.407a.66.66 0 0 0-.456.178.58.58 0 0 0-.19.429v26.005c0 .161.068.316.19.429a.67.67 0 0 0 .456.178h8.407a.66.66 0 0 0 .457-.178.6.6 0 0 0 .19-.429V18.15h9.052a.66.66 0 0 0 .456-.178.58.58 0 0 0 .19-.429z"/></svg>