<svg xmlns="http://www.w3.org/2000/svg" width="124" height="42" fill="none" viewBox="0 0 124 42"><g clip-path="url(#a)"><path fill="#fff" fill-rule="evenodd" d="M22.504 41.05h-1.417c-11.033 0-19.978-8.955-19.978-20s8.945-20 19.978-20 19.978 8.954 19.978 20q-.002 1.483-.21 2.913h-2.797c.16-.947.245-1.92.245-2.914 0-9.518-7.708-17.234-17.216-17.234S3.872 11.53 3.872 21.049s7.707 17.235 17.215 17.235h10.24a19.9 19.9 0 0 1-8.823 2.765m12.65-5.73H21.086c-7.873 0-14.256-6.389-14.256-14.27 0-7.883 6.383-14.272 14.256-14.272s14.256 6.39 14.256 14.271c0 .998-.103 1.973-.298 2.914H32.21c.242-.93.371-1.906.371-2.914 0-6.354-5.145-11.506-11.493-11.506-6.347 0-11.493 5.152-11.493 11.506 0 6.355 5.146 11.506 11.493 11.506H37.49a20 20 0 0 1-2.337 2.766m-14.067-5.727H39.21q.63-1.334 1.06-2.766H21.087a5.775 5.775 0 0 1-5.771-5.778 5.775 5.775 0 0 1 5.771-5.777 5.775 5.775 0 0 1 5.772 5.777 5.75 5.75 0 0 1-.787 2.914h3.04c.329-.91.509-1.891.509-2.914 0-4.718-3.82-8.543-8.534-8.543-4.713 0-8.534 3.825-8.534 8.543 0 4.719 3.821 8.544 8.534 8.544m37.986 2.957c-6.573 0-10.566-4.704-10.566-11.5 0-7.01 4.208-11.5 10.566-11.5 6.542 0 10.597 4.643 10.597 11.47 0 7.072-4.239 11.53-10.597 11.53m0-19.956c-4.3 0-6.972 3.352-6.972 8.425 0 5.197 2.734 8.425 6.972 8.425 4.362 0 7.003-3.351 7.003-8.394 0-5.166-2.764-8.456-7.003-8.456m16.354 19.649h-3.225V16.069h2.826l.43 3.013h.215c1.013-2.122 2.979-3.32 5.405-3.32 3.624 0 5.59 2.613 5.59 6.61v9.87h-3.255v-9.531c0-2.83-1.29-4.152-3.563-4.152-2.672 0-4.423 2.122-4.423 5.197zm29.241 0V9.612h-3.255v9.593h-.185c-.829-1.999-2.733-3.444-5.497-3.444-4.086 0-6.85 3.26-6.85 8.518 0 5.073 2.672 8.271 6.819 8.271 2.518 0 4.668-1.2 5.528-3.167h.185l.369 2.86zm-3.255-7.134c0 2.675-1.905 4.674-4.73 4.674-2.704 0-4.485-1.876-4.485-5.504 0-3.475 1.597-5.72 4.546-5.72 2.672 0 4.669 1.815 4.669 4.766zm13.569 7.441c-4.73 0-7.863-3.413-7.863-8.364 0-4.98 3.133-8.425 7.863-8.425s7.832 3.444 7.832 8.425c0 4.95-3.102 8.364-7.832 8.364m0-13.99c-2.795 0-4.546 2.152-4.546 5.596 0 3.382 1.659 5.565 4.546 5.565 2.764 0 4.515-2.09 4.515-5.596 0-3.32-1.628-5.566-4.515-5.566" clip-rule="evenodd"/></g><defs><clipPath id="a"><path fill="#fff" d="M0 1h124v40H0z"/></clipPath></defs></svg>