<svg xmlns="http://www.w3.org/2000/svg" width="138" height="32" fill="none" viewBox="0 0 138 32"><g clip-path="url(#a)"><g clip-path="url(#b)"><path fill="#151515" fill-rule="evenodd" d="M24.507 10.48v16.307l2.22-2.734V4.271L11.655 20.104h3.238zm-8.239 9.624h3.785v-3.79zm4.758-4.764v9.545H1.673v3.07h21.86V12.83zM24.02 28.93H.7v-4.53L22.529 2.543h5.17v21.854z" clip-rule="evenodd"/></g><path fill="#151515" d="M111.811 9.492h3.657q.966 0 1.742.174t1.329.57q.555.395.855 1.013.301.617.301 1.488 0 .934-.348 1.567a2.87 2.87 0 0 1-.95 1.029q-.586.38-1.377.554a7.8 7.8 0 0 1-1.678.174h-1.536V20.7h-1.995zm3.388 4.891q.491 0 .934-.063a3 3 0 0 0 .792-.253 1.5 1.5 0 0 0 .554-.507q.206-.317.206-.823 0-.49-.206-.792a1.4 1.4 0 0 0-.554-.49 2.2 2.2 0 0 0-.776-.222 6 6 0 0 0-.887-.063h-1.456v3.213zM94.716 9.492h3.118l2.913 7.962h.048l2.881-7.962h3.134V20.7h-1.979v-9.008h-.031l-3.404 9.008h-1.393l-3.356-9.008h-.032V20.7h-1.9z"/><path fill="#151515" fill-rule="evenodd" d="M86.245 9.492H84.52L79.644 20.7h2.232l3.451-8.834 3.467 8.834h2.28z" clip-rule="evenodd"/><path fill="#151515" d="M68.358 9.492h3.895q.792 0 1.535.174a3.8 3.8 0 0 1 1.314.538q.585.38.934.997.349.618.349 1.504 0 1.22-.697 1.995-.681.76-1.868 1.029l2.992 4.97h-2.406l-2.597-4.749h-1.456v4.75h-1.995zm3.626 4.828q.428 0 .854-.063.428-.064.76-.238.349-.175.57-.49.222-.333.222-.84 0-.459-.206-.744a1.5 1.5 0 0 0-.522-.475 2.2 2.2 0 0 0-.729-.237 5 5 0 0 0-.775-.063h-1.805v3.15zM53.473 9.492h2.644l5.208 8.39h.032v-8.39h1.994V20.7H60.82l-5.32-8.66h-.031v8.66h-1.995zM37.205 15.064q0-1.345.443-2.422a5.5 5.5 0 0 1 1.25-1.852 5.6 5.6 0 0 1 1.9-1.172 6.9 6.9 0 0 1 2.407-.411q1.314 0 2.422.411a5.6 5.6 0 0 1 1.915 1.172 5.2 5.2 0 0 1 1.251 1.852q.46 1.077.46 2.422 0 1.314-.46 2.406a5.5 5.5 0 0 1-1.25 1.868 5.9 5.9 0 0 1-1.916 1.22 6.7 6.7 0 0 1-2.422.427 6.6 6.6 0 0 1-2.406-.428 5.9 5.9 0 0 1-1.9-1.219 5.9 5.9 0 0 1-1.25-1.868q-.444-1.092-.444-2.406m2.169 0q0 .902.269 1.662.285.744.791 1.298.523.555 1.22.87.711.303 1.567.302.855 0 1.567-.301a3.6 3.6 0 0 0 1.219-.87q.522-.555.791-1.299.285-.759.285-1.662 0-.87-.285-1.615a3.8 3.8 0 0 0-.775-1.298 3.6 3.6 0 0 0-1.22-.87 3.86 3.86 0 0 0-1.582-.317q-.87 0-1.583.316a3.7 3.7 0 0 0-1.203.871q-.507.554-.792 1.298a4.7 4.7 0 0 0-.27 1.615"/></g><defs><clipPath id="a"><path fill="#fff" d="M0 0h138v32H0z"/></clipPath><clipPath id="b"><path fill="#fff" d="M.423 2.368H37.36v27.264H.423z"/></clipPath></defs></svg>