<svg xmlns="http://www.w3.org/2000/svg" width="234" height="52" fill="none"><path fill="#FDFDFD" fill-rule="evenodd" d="M45.934 15.47v31.103l4.236-5.214V3.63L21.422 33.828H27.6L45.934 15.47ZM30.221 33.827h7.22v-7.228l-7.22 7.228Zm9.075-9.086v18.204H2.383v5.858H44.08v-28.85l-4.783 4.788Zm5.71 25.917H.529v-8.64L42.162.335h9.863v41.683l-7.018 8.64Z" clip-rule="evenodd" style="fill:#fdfdfd;fill:color(display-p3 .9922 .9922 .9922);fill-opacity:1"/><path fill="#FDFDFD" d="M212.45 13.586h6.975c1.228 0 2.335.111 3.321.333.986.221 1.832.583 2.536 1.086a5.062 5.062 0 0 1 1.631 1.933c.382.785.573 1.731.573 2.838 0 1.188-.221 2.184-.664 2.99a5.477 5.477 0 0 1-1.811 1.962c-.745.483-1.621.835-2.627 1.057a14.878 14.878 0 0 1-3.201.332h-2.929v8.847h-3.804V13.586Zm6.461 9.33c.624 0 1.218-.04 1.782-.12a5.55 5.55 0 0 0 1.51-.484 2.88 2.88 0 0 0 1.056-.966c.262-.402.393-.926.393-1.57 0-.624-.131-1.127-.393-1.51a2.644 2.644 0 0 0-1.056-.936c-.423-.221-.916-.362-1.48-.422a11.594 11.594 0 0 0-1.691-.121h-2.778v6.13h2.657Zm-39.068-9.33h5.948l5.556 15.188h.091l5.495-15.188h5.978v21.378h-3.774v-17.18h-.06l-6.492 17.18h-2.657l-6.401-17.18h-.06v17.18h-3.624V13.586Z" style="fill:#fdfdfd;fill:color(display-p3 .9922 .9922 .9922);fill-opacity:1"/><path fill="#FDFDFD" fill-rule="evenodd" d="M163.688 13.586h-3.291l-9.299 21.378h4.257l6.582-16.848 6.612 16.848h4.348l-9.209-21.378Z" clip-rule="evenodd" style="fill:#fdfdfd;fill:color(display-p3 .9922 .9922 .9922);fill-opacity:1"/><path fill="#FDFDFD" d="M129.572 13.586H137c1.007 0 1.983.111 2.929.333.946.2 1.781.543 2.506 1.026a5.383 5.383 0 0 1 1.781 1.902c.443.785.665 1.741.665 2.869 0 1.55-.443 2.818-1.329 3.804-.865.966-2.053 1.62-3.563 1.963l5.707 9.48h-4.59l-4.951-9.058h-2.778v9.059h-3.805V13.586Zm6.915 9.21c.543 0 1.087-.04 1.63-.121a4.536 4.536 0 0 0 1.45-.453 2.872 2.872 0 0 0 1.086-.936c.282-.423.423-.956.423-1.6 0-.584-.131-1.057-.392-1.42a2.867 2.867 0 0 0-.997-.905 4.168 4.168 0 0 0-1.389-.453 9.351 9.351 0 0 0-1.479-.121h-3.442v6.009h3.11Zm-35.305-9.21h5.042l9.934 16.003h.06V13.586h3.805v21.378h-4.831l-10.145-16.516h-.061v16.516h-3.804V13.586ZM70.154 24.215c0-1.711.282-3.251.846-4.62.583-1.389 1.379-2.566 2.385-3.533 1.026-.966 2.234-1.71 3.623-2.234 1.41-.523 2.939-.785 4.59-.785 1.67 0 3.21.262 4.62.785 1.408.523 2.626 1.268 3.653 2.234 1.026.966 1.821 2.144 2.385 3.533.584 1.369.876 2.909.876 4.62 0 1.67-.292 3.2-.876 4.589a10.56 10.56 0 0 1-2.385 3.563c-1.027.986-2.245 1.761-3.654 2.325-1.409.543-2.949.815-4.62.815-1.65 0-3.18-.272-4.589-.815a11.302 11.302 0 0 1-3.623-2.325A11.184 11.184 0 0 1 71 28.804c-.564-1.389-.846-2.919-.846-4.59Zm4.137 0c0 1.147.17 2.204.513 3.17a7.717 7.717 0 0 0 1.51 2.476 7.34 7.34 0 0 0 2.325 1.66c.905.383 1.902.574 2.989.574s2.083-.191 2.989-.574a6.915 6.915 0 0 0 2.325-1.66 7.07 7.07 0 0 0 1.51-2.476c.362-.966.543-2.023.543-3.17 0-1.107-.181-2.134-.544-3.08a7.31 7.31 0 0 0-1.479-2.476 6.916 6.916 0 0 0-2.325-1.66c-.906-.403-1.912-.604-3.02-.604-1.106 0-2.113.2-3.019.603a7 7 0 0 0-2.294 1.661 7.718 7.718 0 0 0-1.51 2.476c-.342.946-.513 1.973-.513 3.08Z" style="fill:#fdfdfd;fill:color(display-p3 .9922 .9922 .9922);fill-opacity:1"/></svg>