<svg xmlns="http://www.w3.org/2000/svg" width="234" height="52" fill="none"><path fill="#fdfdfd" fill-rule="evenodd" d="M45.934 15.47v31.103l4.236-5.214V3.63L21.422 33.828H27.6zM30.221 33.827h7.22v-7.228zm9.075-9.086v18.204H2.383v5.858H44.08v-28.85zm5.71 25.917H.529v-8.64L42.162.335h9.863v41.683z" clip-rule="evenodd" style="fill:#fdfdfd;fill:color(display-p3 .9922 .9922 .9922);fill-opacity:1"/><path fill="#fdfdfd" d="M212.45 13.586h6.975q1.842 0 3.321.333 1.48.331 2.536 1.086a5.06 5.06 0 0 1 1.631 1.933q.573 1.178.573 2.838 0 1.782-.664 2.99a5.5 5.5 0 0 1-1.811 1.962q-1.118.724-2.627 1.057a15 15 0 0 1-3.201.332h-2.929v8.847h-3.804zm6.461 9.33q.936 0 1.782-.12a5.6 5.6 0 0 0 1.51-.484 2.9 2.9 0 0 0 1.056-.966q.393-.604.393-1.57 0-.936-.393-1.51a2.64 2.64 0 0 0-1.056-.936q-.634-.332-1.48-.422a11.6 11.6 0 0 0-1.691-.121h-2.778v6.13zm-39.068-9.33h5.948l5.556 15.188h.091l5.495-15.188h5.978v21.378h-3.774v-17.18h-.06l-6.492 17.18h-2.657l-6.401-17.18h-.06v17.18h-3.624z" style="fill:#fdfdfd;fill:color(display-p3 .9922 .9922 .9922);fill-opacity:1"/><path fill="#fdfdfd" fill-rule="evenodd" d="M163.688 13.586h-3.291l-9.299 21.378h4.257l6.582-16.848 6.612 16.848h4.348z" clip-rule="evenodd" style="fill:#fdfdfd;fill:color(display-p3 .9922 .9922 .9922);fill-opacity:1"/><path fill="#fdfdfd" d="M129.572 13.586H137q1.51 0 2.929.333 1.419.3 2.506 1.026a5.4 5.4 0 0 1 1.781 1.902q.665 1.177.665 2.869 0 2.325-1.329 3.804-1.298 1.449-3.563 1.963l5.707 9.48h-4.59l-4.951-9.058h-2.778v9.059h-3.805zm6.915 9.21q.815 0 1.63-.121a4.5 4.5 0 0 0 1.45-.453 2.9 2.9 0 0 0 1.086-.936q.423-.634.423-1.6 0-.876-.392-1.42a2.9 2.9 0 0 0-.997-.905 4.2 4.2 0 0 0-1.389-.453 9.4 9.4 0 0 0-1.479-.121h-3.442v6.009zm-35.305-9.21h5.042l9.934 16.003h.06V13.586h3.805v21.378h-4.831l-10.145-16.516h-.061v16.516h-3.804zM70.154 24.215q0-2.567.846-4.62.875-2.083 2.385-3.533 1.54-1.448 3.623-2.234 2.114-.785 4.59-.785 2.505 0 4.62.785 2.112.785 3.653 2.234 1.539 1.45 2.385 3.533.876 2.053.876 4.62 0 2.505-.876 4.589a10.6 10.6 0 0 1-2.385 3.563q-1.54 1.479-3.654 2.325-2.114.815-4.62.815-2.475 0-4.589-.815a11.3 11.3 0 0 1-3.623-2.325A11.2 11.2 0 0 1 71 28.804q-.846-2.083-.846-4.59Zm4.137 0q0 1.72.513 3.17a7.7 7.7 0 0 0 1.51 2.476 7.3 7.3 0 0 0 2.325 1.66q1.358.574 2.989.574c1.631 0 2.083-.191 2.989-.574a6.9 6.9 0 0 0 2.325-1.66 7.1 7.1 0 0 0 1.51-2.476q.543-1.45.543-3.17 0-1.66-.544-3.08a7.3 7.3 0 0 0-1.479-2.476 6.9 6.9 0 0 0-2.325-1.66q-1.359-.604-3.02-.604-1.66 0-3.019.603a7 7 0 0 0-2.294 1.661 7.7 7.7 0 0 0-1.51 2.476q-.513 1.42-.513 3.08" style="fill:#fdfdfd;fill:color(display-p3 .9922 .9922 .9922);fill-opacity:1"/></svg>