<svg xmlns="http://www.w3.org/2000/svg" width="5605" height="2000" fill="none" viewBox="0 0 5605 2000"><path fill="#18272b" fill-rule="evenodd" d="M979.064 500h255.586c276.13 0 500 223.869 500 500s-223.87 500-500 500H979.064c-276.13 0-499.999-223.87-499.999-500s223.869-500 499.999-500m23.136 459.178c-27.036 165.102 113.63 306.032 279 278.992 100.1-16.64 180.96-97.24 197.34-197.35 27.04-165.105-113.62-306.031-278.99-278.99-100.1 16.641-180.96 97.244-197.35 197.348M2076.33 500h-219.44c-20.54 0-37.18 16.641-36.92 36.921v926.159c0 20.28 16.38 36.92 36.92 36.92h218.14c20.29 0 36.93-16.38 36.93-36.92v-362.72c0-17.42 0-58.24-1.56-95.94l7.28-2.86c2.23 3.16 4.47 6.35 6.73 9.58v.01c18.63 26.54 39.03 55.6 68.93 89.21l339.31 387.16c7.02 7.8 17.16 12.48 27.82 12.48h218.15c20.28 0 36.92-16.38 36.92-36.92V536.921c0-20.28-16.64-36.921-37.18-36.921h-218.15c-20.28 0-36.92 16.641-36.92 36.921v322.16c0 27.564 0 87.101 1.56 140.919l-7.28 2.86c-24.7-34.841-87.1-114.664-113.36-143.786l-300.05-346.333C2097.14 504.68 2087 500 2076.33 500m1157.79 0c-20.28 0-36.92 16.641-36.92 36.921h.52v926.159c0 20.28 16.38 36.92 36.92 36.92h247.27c20.28 0 36.92-16.38 36.92-36.92v-298.75h158.35l142.74 314.09c5.98 13 18.98 21.58 33.54 21.58h276.65c27.57 0 45.51-28.86 33.03-53.56l-154.45-306.55c-8.32-16.12-3.64-35.89 11.18-46.29 86.58-61.1 140.93-157.303 140.93-273.787C4160.8 651.066 4046.13 500 3823.56 500zm599.84 332.813c0 65.263-40.82 108.945-90.22 108.945v.26h-225.17V728.289h225.17c50.96 0 90.22 44.982 90.22 104.524M4287.92 500h790.95c20.54 0 36.92 16.641 36.92 36.921v165.887c0 20.541-16.64 36.922-36.92 36.922h-506.76v138.065h428.24c20.54 0 36.92 16.641 36.92 36.922v155.743c0 20.54-16.64 36.92-36.92 36.92h-428.24v152.63h516.9c20.54 0 36.92 16.64 36.92 36.92v165.89c0 20.54-16.64 36.92-36.92 36.92h-801.09c-20.54 0-36.92-16.64-36.92-36.92V536.921c0-20.28 16.64-36.921 36.92-36.921" clip-rule="evenodd"/></svg>