<svg width="159" height="56" viewBox="0 0 159 56" fill="none" xmlns="http://www.w3.org/2000/svg">
<g clip-path="url(#clip0_1044_2225)">
<path d="M12.1733 31.0766C5.49577 31.0766 0.081543 36.4962 0.081543 43.1817C0.081543 49.8673 5.49443 55.2869 12.1733 55.2869C18.0127 55.2869 22.8855 51.1427 24.0165 45.6322H31.3785V40.7313H24.0165C22.8855 35.2208 18.014 31.0766 12.1733 31.0766ZM12.1733 50.4381C8.1708 50.4381 4.92494 47.1896 4.92494 43.1817C4.92494 39.1739 8.16946 35.9253 12.1733 35.9253C16.1758 35.9253 19.4217 39.1739 19.4217 43.1817C19.4217 47.1883 16.1772 50.4381 12.1733 50.4381Z" fill="#011DC6"/>
<path d="M58.42 37.1282C55.5003 32.0655 49.4792 29.9132 44.1465 31.6872L40.4661 25.3051L36.227 27.7556L39.9073 34.1377C35.7056 37.8741 34.5573 44.1707 37.4769 49.2333C40.8164 55.0232 48.2105 57.0071 53.9937 53.6636C59.7769 50.3215 61.7581 42.9181 58.42 37.1282ZM51.5727 49.4646C48.1062 51.4685 43.6732 50.2788 41.672 46.8083C39.6707 43.3378 40.8578 38.8995 44.3256 36.8956C47.7921 34.8916 52.225 36.0814 54.2263 39.5519C56.2262 43.0237 55.0391 47.4607 51.5727 49.4646Z" fill="#011DC6"/>
<path d="M22.0203 21.2078L18.34 27.5899L22.5791 30.0403L26.2608 23.6582C31.5935 25.4322 37.6146 23.2799 40.5343 18.2172C43.8737 12.4274 41.8912 5.0239 36.108 1.68178C30.3248 -1.66033 22.9307 0.323549 19.5912 6.1121C16.6702 11.1747 17.8186 17.4713 22.0203 21.2078ZM23.7836 8.5358C25.7849 5.06535 30.2178 3.87555 33.6843 5.87949C37.1507 7.88342 38.3392 12.3204 36.3379 15.7922C34.3367 19.2627 29.9037 20.4525 26.4372 18.4485C22.9708 16.4446 21.7823 12.0063 23.7836 8.5358Z" fill="#011DC6"/>
<path d="M75.3784 16.2217C69.1099 16.2217 64.0312 21.3017 64.0312 27.5688C64.0312 33.8373 69.1099 38.9173 75.3784 38.9173C81.6469 38.9173 86.7256 33.8373 86.7256 27.5688C86.7256 21.3004 81.6469 16.2217 75.3784 16.2217ZM75.3784 35.0271C71.2716 35.0271 67.9215 31.677 67.9215 27.5702C67.9215 23.4634 71.2716 20.1132 75.3784 20.1132C79.4852 20.1132 82.8353 23.4634 82.8353 27.5702C82.8353 31.6756 79.4852 35.0271 75.3784 35.0271Z" fill="#FF6376"/>
<path d="M99.8047 16.2217C93.5362 16.2217 88.4575 21.3017 88.4575 27.5688C88.4575 33.8373 93.6445 38.9173 99.8047 38.9173C105.965 38.9173 111.152 33.8373 111.152 27.5688C111.152 21.3004 106.072 16.2217 99.8047 16.2217ZM99.9116 35.0271C95.8048 35.0271 92.4547 31.677 92.4547 27.5702C92.4547 23.4634 95.8048 20.1132 99.9116 20.1132C104.018 20.1132 107.369 23.4634 107.369 27.5702C107.369 31.6756 104.018 35.0271 99.9116 35.0271Z" fill="#FF6376"/>
<path d="M158.055 20.544V16.6538H148.545V9.84521H144.654V31.4607C144.654 35.1357 147.681 38.161 151.355 38.161H157.948V34.2707H151.355C149.734 34.2707 148.436 32.974 148.436 31.3524V20.5453H158.055V20.544Z" fill="#FF6376"/>
<path d="M140.333 9.95331C138.82 9.95331 137.631 11.1418 137.631 12.6551C137.631 14.1684 138.82 15.3568 140.333 15.3568C141.846 15.3568 143.035 14.1684 143.035 12.6551C143.035 11.1418 141.845 9.95331 140.333 9.95331Z" fill="#FF6376"/>
<path d="M124.444 16.1135C122.499 16.1135 120.554 16.6536 118.824 17.6268V18.9235V22.4903C120.229 20.8687 122.282 19.8968 124.444 19.8968C128.551 19.8968 131.901 23.2469 131.901 27.462C131.901 31.5688 128.551 35.0272 124.444 35.0272C120.337 35.0272 116.987 31.6771 116.987 27.462V9.95331H113.097V27.5689C113.097 33.8374 118.175 39.0244 124.444 39.0244C130.712 39.0244 135.791 33.9444 135.791 27.5689C135.899 21.1935 130.712 16.1135 124.444 16.1135Z" fill="#FF6376"/>
<path d="M142.275 16.6534H138.385V38.1606H142.275V16.6534Z" fill="#FF6376"/>
</g>
<defs>
<clipPath id="clip0_1044_2225">
<rect width="158.149" height="55.3455" fill="white"/>
</clipPath>
</defs>
</svg>
