<svg width="159" height="56" viewBox="0 0 159 56" fill="none" xmlns="http://www.w3.org/2000/svg">
<g clip-path="url(#clip0_3857_5565)">
<path d="M12.1738 31.0767C5.49626 31.0767 0.0820312 36.4962 0.0820312 43.1818C0.0820312 49.8674 5.49492 55.287 12.1738 55.287C18.0132 55.287 22.886 51.1427 24.0169 45.6322H31.379V40.7314H24.0169C22.886 35.2209 18.0145 31.0767 12.1738 31.0767ZM12.1738 50.4382C8.17129 50.4382 4.92543 47.1897 4.92543 43.1818C4.92543 39.1739 8.16995 35.9254 12.1738 35.9254C16.1763 35.9254 19.4222 39.1739 19.4222 43.1818C19.4222 47.1883 16.1777 50.4382 12.1738 50.4382Z" fill="white"/>
<path d="M58.4205 37.1285C55.5008 32.0659 49.4796 29.9135 44.147 31.6875L40.4666 25.3054L36.2275 27.7559L39.9078 34.138C35.7061 37.8745 34.5578 44.171 37.4774 49.2336C40.8169 55.0235 48.211 57.0074 53.9942 53.664C59.7774 50.3218 61.7586 42.9184 58.4205 37.1285ZM51.5732 49.4649C48.1067 51.4689 43.6737 50.2791 41.6725 46.8086C39.6712 43.3382 40.8583 38.8998 44.3261 36.8959C47.7925 34.892 52.2255 36.0817 54.2268 39.5522C56.2267 43.024 55.0396 47.461 51.5732 49.4649Z" fill="white"/>
<path d="M22.0208 21.208L18.3404 27.5901L22.5796 30.0405L26.2613 23.6584C31.5939 25.4324 37.6151 23.2801 40.5348 18.2174C43.8742 12.4275 41.8917 5.02408 36.1085 1.68197C30.3253 -1.66015 22.9312 0.323732 19.5917 6.11228C16.6707 11.1749 17.8191 17.4715 22.0208 21.208ZM23.7841 8.53598C25.7853 5.06553 30.2183 3.87574 33.6848 5.87967C37.1512 7.8836 38.3397 12.3206 36.3384 15.7924C34.3372 19.2628 29.9042 20.4526 26.4377 18.4487C22.9713 16.4448 21.7828 12.0064 23.7841 8.53598Z" fill="white"/>
<path d="M75.3784 16.2219C69.1099 16.2219 64.0312 21.3019 64.0312 27.5691C64.0312 33.8376 69.1099 38.9176 75.3784 38.9176C81.6469 38.9176 86.7256 33.8376 86.7256 27.5691C86.7256 21.3006 81.6469 16.2219 75.3784 16.2219ZM75.3784 35.0274C71.2716 35.0274 67.9215 31.6772 67.9215 27.5704C67.9215 23.4636 71.2716 20.1135 75.3784 20.1135C79.4852 20.1135 82.8353 23.4636 82.8353 27.5704C82.8353 31.6759 79.4852 35.0274 75.3784 35.0274Z" fill="white"/>
<path d="M99.8042 16.2219C93.5357 16.2219 88.457 21.3019 88.457 27.5691C88.457 33.8376 93.644 38.9176 99.8042 38.9176C105.964 38.9176 111.151 33.8376 111.151 27.5691C111.151 21.3006 106.071 16.2219 99.8042 16.2219ZM99.9111 35.0274C95.8043 35.0274 92.4542 31.6772 92.4542 27.5704C92.4542 23.4636 95.8043 20.1135 99.9111 20.1135C104.018 20.1135 107.368 23.4636 107.368 27.5704C107.368 31.6759 104.018 35.0274 99.9111 35.0274Z" fill="white"/>
<path d="M158.055 20.5442V16.654H148.545V9.84546H144.654V31.4609C144.654 35.1359 147.681 38.1612 151.355 38.1612H157.948V34.271H151.355C149.734 34.271 148.436 32.9742 148.436 31.3527V20.5456H158.055V20.5442Z" fill="white"/>
<path d="M140.333 9.95361C138.819 9.95361 137.631 11.1421 137.631 12.6554C137.631 14.1687 138.819 15.3571 140.333 15.3571C141.846 15.3571 143.034 14.1687 143.034 12.6554C143.034 11.1421 141.845 9.95361 140.333 9.95361Z" fill="white"/>
<path d="M124.445 16.1138C122.5 16.1138 120.555 16.6539 118.825 17.6271V18.9239V22.4906C120.23 20.869 122.283 19.8971 124.445 19.8971C128.552 19.8971 131.902 23.2472 131.902 27.4623C131.902 31.5691 128.552 35.0275 124.445 35.0275C120.338 35.0275 116.988 31.6774 116.988 27.4623V9.95361H113.098V27.5692C113.098 33.8377 118.176 39.0247 124.445 39.0247C130.713 39.0247 135.792 33.9447 135.792 27.5692C135.9 21.1938 130.713 16.1138 124.445 16.1138Z" fill="white"/>
<path d="M142.275 16.6536H138.385V38.1608H142.275V16.6536Z" fill="white"/>
</g>
<defs>
<clipPath id="clip0_3857_5565">
<rect width="158.149" height="55.3455" fill="white"/>
</clipPath>
</defs>
</svg>
