<svg xmlns="http://www.w3.org/2000/svg" width="379" height="122" fill="none" viewBox="0 0 379 122"><path fill="#414549" d="M158.97 103.608h-7.86l-1.26 3.72h-5.37l7.62-21.06h5.94l7.62 21.06h-5.43zm-1.32-3.96-2.61-7.71-2.58 7.71zM181.957 107.538q-2.31 0-4.14-.75t-2.94-2.22q-1.08-1.47-1.14-3.54h5.46q.12 1.17.81 1.8.69.6 1.8.6 1.14 0 1.8-.51.66-.54.66-1.47 0-.78-.54-1.29-.51-.51-1.29-.84-.75-.33-2.16-.75-2.04-.63-3.33-1.26t-2.22-1.86-.93-3.21q0-2.94 2.13-4.59 2.13-1.68 5.55-1.68 3.48 0 5.61 1.68 2.13 1.65 2.28 4.62h-5.55q-.06-1.02-.75-1.59-.69-.6-1.77-.6-.93 0-1.5.51-.57.48-.57 1.41 0 1.02.96 1.59t3 1.23q2.04.69 3.3 1.32 1.29.63 2.22 1.83t.93 3.09q0 1.8-.93 3.27-.9 1.47-2.64 2.34t-4.11.87M191.774 98.958q0-2.61 1.05-4.56 1.08-1.95 2.97-3 1.92-1.05 4.38-1.05 3.15 0 5.25 1.65 2.13 1.65 2.79 4.65h-5.46q-.69-1.92-2.67-1.92-1.41 0-2.25 1.11-.84 1.08-.84 3.12t.84 3.15q.84 1.08 2.25 1.08 1.98 0 2.67-1.92h5.46q-.66 2.94-2.79 4.62t-5.25 1.68q-2.46 0-4.38-1.05-1.89-1.05-2.97-3-1.05-1.95-1.05-4.56M209.938 98.928q0-2.58.96-4.53.99-1.95 2.67-3t3.75-1.05q1.77 0 3.09.72 1.35.72 2.07 1.89v-2.37h5.13v16.74h-5.13v-2.37q-.75 1.17-2.1 1.89-1.32.72-3.09.72-2.04 0-3.72-1.05-1.68-1.08-2.67-3.03-.96-1.98-.96-4.56m12.54.03q0-1.92-1.08-3.03-1.05-1.11-2.58-1.11t-2.61 1.11q-1.05 1.08-1.05 3t1.05 3.06q1.08 1.11 2.61 1.11t2.58-1.11q1.08-1.11 1.08-3.03M241.519 90.408q2.94 0 4.68 1.92 1.77 1.89 1.77 5.22v9.78h-5.1v-9.09q0-1.68-.87-2.61t-2.34-.93-2.34.93-.87 2.61v9.09h-5.13v-16.74h5.13v2.22q.78-1.11 2.1-1.74 1.32-.66 2.97-.66M267.852 107.538q-2.97 0-5.46-1.38-2.46-1.38-3.93-3.84-1.44-2.49-1.44-5.58t1.44-5.55q1.47-2.46 3.93-3.84 2.49-1.38 5.46-1.38t5.43 1.38q2.49 1.38 3.9 3.84 1.44 2.46 1.44 5.55t-1.44 5.58a10.27 10.27 0 0 1-3.9 3.84q-2.46 1.38-5.43 1.38m0-4.68q2.52 0 4.02-1.68 1.53-1.68 1.53-4.44 0-2.79-1.53-4.44-1.5-1.68-4.02-1.68-2.55 0-4.08 1.65-1.5 1.65-1.5 4.47 0 2.79 1.5 4.47 1.53 1.65 4.08 1.65M286.606 93.378q.9-1.38 2.25-2.16 1.35-.81 3-.81v5.43h-1.41q-1.92 0-2.88.84-.96.81-.96 2.88v7.77h-5.13v-16.74h5.13zM296.888 88.848q-1.35 0-2.22-.78-.84-.81-.84-1.98 0-1.2.84-1.98.87-.81 2.22-.81 1.32 0 2.16.81.87.78.87 1.98 0 1.17-.87 1.98-.84.78-2.16.78m2.55 1.74v16.74h-5.13v-16.74zM309.515 90.348q1.77 0 3.09.72 1.35.72 2.07 1.89v-2.37h5.13v16.71q0 2.31-.93 4.17-.9 1.89-2.79 3-1.86 1.11-4.65 1.11-3.72 0-6.03-1.77-2.31-1.74-2.64-4.74h5.07q.24.96 1.14 1.5.9.57 2.22.57 1.59 0 2.52-.93.96-.9.96-2.91v-2.37q-.75 1.17-2.07 1.92-1.32.72-3.09.72-2.07 0-3.75-1.05-1.68-1.08-2.67-3.03-.96-1.98-.96-4.56t.96-4.53q.99-1.95 2.67-3t3.75-1.05m5.16 8.61q0-1.92-1.08-3.03-1.05-1.11-2.58-1.11t-2.61 1.11q-1.05 1.08-1.05 3t1.05 3.06q1.08 1.11 2.61 1.11t2.58-1.11q1.08-1.11 1.08-3.03M326.097 88.848q-1.35 0-2.22-.78-.84-.81-.84-1.98 0-1.2.84-1.98.87-.81 2.22-.81 1.32 0 2.16.81.87.78.87 1.98 0 1.17-.87 1.98-.84.78-2.16.78m2.55 1.74v16.74h-5.13v-16.74zM342.564 90.408q2.94 0 4.68 1.92 1.77 1.89 1.77 5.22v9.78h-5.1v-9.09q0-1.68-.87-2.61t-2.34-.93-2.34.93-.87 2.61v9.09h-5.13v-16.74h5.13v2.22q.78-1.11 2.1-1.74 1.32-.66 2.97-.66M351.559 98.928q0-2.58.96-4.53.99-1.95 2.67-3t3.75-1.05q1.77 0 3.09.72 1.35.72 2.07 1.89v-2.37h5.13v16.74h-5.13v-2.37q-.75 1.17-2.1 1.89-1.32.72-3.09.72-2.04 0-3.72-1.05-1.68-1.08-2.67-3.03-.96-1.98-.96-4.56m12.54.03q0-1.92-1.08-3.03-1.05-1.11-2.58-1.11t-2.61 1.11q-1.05 1.08-1.05 3t1.05 3.06q1.08 1.11 2.61 1.11t2.58-1.11q1.08-1.11 1.08-3.03M378.071 85.128v22.2h-5.13v-22.2z"/><path fill="#000" d="M162.679 56.976q-5.76 0-10.368-2.52-4.608-2.592-7.272-7.272-2.592-4.68-2.592-10.8t2.664-10.8q2.736-4.68 7.416-7.2 4.68-2.592 10.44-2.592t10.44 2.592q4.68 2.52 7.344 7.2 2.736 4.68 2.736 10.8t-2.808 10.8q-2.736 4.68-7.488 7.272-4.68 2.52-10.512 2.52m0-8.784a10.5 10.5 0 0 0 5.112-1.296q2.448-1.368 3.888-4.032t1.44-6.48q0-5.688-3.024-8.712-2.952-3.096-7.272-3.096t-7.272 3.096q-2.88 3.024-2.88 8.712t2.808 8.784q2.88 3.024 7.2 3.024M200.961 22.2q1.944-2.736 5.328-4.536 3.456-1.872 7.848-1.872 5.112 0 9.216 2.52 4.176 2.52 6.552 7.2 2.448 4.608 2.448 10.728t-2.448 10.872q-2.376 4.68-6.552 7.272-4.104 2.592-9.216 2.592-4.392 0-7.776-1.8-3.312-1.8-5.4-4.536v24.696h-10.08V16.44h10.08zm21.096 14.04q0-3.6-1.512-6.192-1.44-2.664-3.888-4.032-2.376-1.368-5.184-1.368-2.736 0-5.184 1.44-2.376 1.368-3.888 4.032-1.44 2.664-1.44 6.264t1.44 6.264q1.512 2.664 3.888 4.104 2.448 1.368 5.184 1.368 2.808 0 5.184-1.44 2.448-1.44 3.888-4.104 1.512-2.664 1.512-6.336M268.19 30.552q4.248.792 6.984 4.248t2.736 7.92q0 4.032-2.016 7.128-1.944 3.024-5.688 4.752t-8.856 1.728h-21.672V6.072h20.736q5.112 0 8.784 1.656 3.744 1.656 5.616 4.608 1.944 2.952 1.944 6.696 0 4.392-2.376 7.344-2.304 2.952-6.192 4.176m-18.432-3.744h9.216q3.6 0 5.544-1.584 1.944-1.656 1.944-4.68t-1.944-4.68-5.544-1.656h-9.216zM259.91 48.12q3.672 0 5.688-1.728 2.088-1.728 2.088-4.896 0-3.24-2.16-5.04-2.16-1.872-5.832-1.872h-9.936V48.12zM328.928 56.328h-10.08L296.024 21.84v34.488h-10.08V6h10.08l22.824 34.56V6h10.08zM367.401 30.552q4.248.792 6.984 4.248t2.736 7.92q0 4.032-2.016 7.128-1.944 3.024-5.688 4.752t-8.856 1.728h-21.672V6.072h20.736q5.112 0 8.784 1.656 3.744 1.656 5.616 4.608 1.944 2.952 1.944 6.696 0 4.392-2.376 7.344-2.304 2.952-6.192 4.176m-18.432-3.744h9.216q3.6 0 5.544-1.584 1.944-1.656 1.944-4.68t-1.944-4.68-5.544-1.656h-9.216zm10.152 21.312q3.672 0 5.688-1.728 2.088-1.728 2.088-4.896 0-3.24-2.16-5.04-2.16-1.872-5.832-1.872h-9.936V48.12z"/><path fill="#12161c" d="M25.223 57.583a5.143 5.143 0 0 1 5.168-5.143l8.568.028a5.15 5.15 0 0 1 5.15 5.151v32.4c.966-.286 2.2-.591 3.56-.911a4.29 4.29 0 0 0 3.309-4.177V44.744a5.15 5.15 0 0 1 5.15-5.152h8.595a5.15 5.15 0 0 1 5.15 5.152v37.3s2.15-.87 4.244-1.754a4.3 4.3 0 0 0 2.625-3.957V31.866a5.15 5.15 0 0 1 5.15-5.151h8.585a5.15 5.15 0 0 1 5.146 5.151v36.617c7.443-5.394 14.986-11.882 20.972-19.683a8.652 8.652 0 0 0 1.316-8.072 60.64 60.64 0 0 0-33.43-35.843A60.636 60.636 0 0 0 8.056 90.836a7.67 7.67 0 0 0 7.316 3.79c1.624-.143 3.646-.345 6.05-.627a4.29 4.29 0 0 0 3.805-4.258V57.583"/><path fill="#f0b90b" d="M25.04 109.544a60.65 60.65 0 0 0 63.208 5.001 60.65 60.65 0 0 0 33.13-54.062c0-1.4-.065-2.778-.158-4.152-22.163 33.055-63.085 48.508-96.18 53.213"/></svg>