<svg xmlns="http://www.w3.org/2000/svg" width="72" height="72" fill="none" viewBox="0 0 72 72"><g clip-path="url(#a)"><circle cx="36" cy="36" r="36" fill="#000"/><path fill="#f3ba2f" d="M41.103 52.044v5.26L36.479 60l-4.492-2.695v-5.26l4.492 2.695zM16.363 33.85l4.492 2.695v9.021l7.736 4.587v5.26l-12.228-7.151zm40.232 0v14.434l-12.358 7.151v-5.26l7.735-4.587v-9.02zm-12.38-7.152 4.623 2.696v5.26l-7.735 4.587v9.151l-4.492 2.696-4.47-2.696V39.22l-8.02-4.586v-5.26l4.623-2.696 7.735 4.586zM24.12 38.416l4.493 2.695v5.26l-4.492-2.695zm24.718 0v5.26l-4.492 2.696v-5.26zM20.855 22.112l4.624 2.695-4.624 2.696v5.26l-4.492-2.695v-5.26zm31.248 0 4.624 2.695v5.26l-4.624 2.696v-5.26l-4.492-2.696zm-15.624 0 4.624 2.695-4.624 2.696-4.492-2.696zm0-9.021 12.36 7.152-4.493 2.695-7.735-4.587-7.889 4.587-4.492-2.695z"/></g><defs><clipPath id="a"><path fill="#fff" d="M0 0h72v72H0z"/></clipPath></defs></svg>