<svg xmlns="http://www.w3.org/2000/svg" xml:space="preserve" id="Layer_1" x="0" y="0" viewBox="0 0 60 60"><style>.st1{fill:#141beb}</style><g id="icon_logo" transform="translate(-347.682 -127.304)"><g id="Group_40313" transform="translate(347.682 127.304)"><g id="Group_40312"><g id="Group_39074"><path id="Path_32914" d="M29.6 0C13.1.2-.2 13.8 0 30.4S13.8 60.2 30.4 60C46.8 59.8 60 46.5 60 30 59.9 13.3 46.3-.1 29.6 0" style="fill:#00edbe"/></g></g></g><g id="Group_45823" transform="translate(59.986)"><g id="Group_45822"><path id="Path_95273" d="M329.4 146.2c-.1-1.5.3-3 1.1-4.3H306c-.9 0-1.7.7-1.7 1.7v5.2c0 .9.8 1.7 1.7 1.7h24.5c-.9-1.3-1.2-2.8-1.1-4.3" class="st1"/><path id="Path_95274" d="M300.4 157.4c.1 1.5-.3 3-1.1 4.3h24.5c.9 0 1.7-.7 1.7-1.7v-5.2c0-.9-.8-1.7-1.7-1.7h-24.5c.8 1.3 1.2 2.8 1.1 4.3" class="st1"/><path id="Path_95275" d="M329.4 168.6c-.1-1.5.3-3 1.1-4.3H306c-.9 0-1.7.7-1.7 1.7v5.2c0 .9.8 1.7 1.7 1.7h24.5c-.9-1.3-1.2-2.8-1.1-4.3" class="st1"/></g></g></g></svg>