<svg xmlns="http://www.w3.org/2000/svg" width="256" height="256" fill="none" viewBox="0 0 256 256"><path fill="#fff" d="M53.197 121.677a10.9 10.9 0 0 1 3.197-7.703 10.84 10.84 0 0 1 7.703-3.165l18.071.059c2.881 0 5.645 1.147 7.682 3.188a10.9 10.9 0 0 1 3.182 7.697v68.463c2.035-.604 4.64-1.249 7.506-1.925a9.05 9.05 0 0 0 5.023-3.196 9.08 9.08 0 0 0 1.956-5.63V94.547c0-2.887 1.145-5.656 3.182-7.697a10.86 10.86 0 0 1 7.682-3.19h18.126c2.881.001 5.645 1.148 7.682 3.19a10.9 10.9 0 0 1 3.182 7.697v78.817s4.534-1.838 8.949-3.706a9.08 9.08 0 0 0 5.536-8.361V67.335c0-2.886 1.145-5.654 3.181-7.696a10.86 10.86 0 0 1 7.681-3.188h18.107c2.879.002 5.64 1.15 7.675 3.191a10.9 10.9 0 0 1 3.178 7.693v77.374c15.698-11.398 31.607-25.107 44.232-41.591a18.297 18.297 0 0 0 2.776-17.057 128.2 128.2 0 0 0-27.275-45.324 127.9 127.9 0 0 0-43.231-30.414A127.7 127.7 0 0 0 126.367.01a127.7 127.7 0 0 0-51.552 11.545A127.9 127.9 0 0 0 32.317 42.99a128.2 128.2 0 0 0-26.192 45.96A128.36 128.36 0 0 0 16.99 191.944a16.2 16.2 0 0 0 6.55 6.257 16.15 16.15 0 0 0 8.88 1.751c3.426-.302 7.69-.729 12.76-1.325a9.04 9.04 0 0 0 5.724-2.966 9.08 9.08 0 0 0 2.302-6.031v-67.952"/><path fill="#ff0823" d="M52.813 231.474a127.725 127.725 0 0 0 133.314 10.567 128 128 0 0 0 51.022-47.242 128.35 128.35 0 0 0 18.852-66.994c0-2.959-.137-5.871-.333-8.774-46.744 69.848-133.053 102.501-202.855 112.443"/></svg>