<svg xmlns="http://www.w3.org/2000/svg" width="72" height="72" fill="none" viewBox="0 0 72 72"><g clip-path="url(#a)"><circle cx="36" cy="36" r="36" fill="#e72d2b"/><path fill="#fff" d="M35.168 31.26q0 1.79-.597 4.772-.686 3.52-1.312 5.28a8.2 8.2 0 0 1-1.85 3.073q-2.267 2.445-5.996 2.446-2.983 0-4.713-1.73Q19 43.37 19 40.805q0-1.79.597-4.773.685-3.519 1.282-5.28a8.5 8.5 0 0 1 1.88-3.072q2.266-2.445 5.995-2.446 2.983 0 4.684 1.73 1.73 1.73 1.73 4.296m-3.938.328q0-1.372-.805-2.118-.776-.776-1.94-.776-1.67 0-2.833 1.283-.627.686-1.104 1.999-.447 1.282-1.014 4.056-.596 2.984-.596 4.445 0 1.372.775 2.148.805.745 1.969.745 1.67 0 2.834-1.282.625-.687 1.074-1.969.477-1.312 1.044-4.087.596-2.923.596-4.444M54 31.021q0 3.043-2.118 5.22-2.088 2.178-5.727 2.178h-4.087l-1.64 8.233H36.49l4.266-21.239h7.547q2.655 0 4.176 1.551Q54 28.485 54 31.021m-3.967.328q0-2.445-2.387-2.446h-3.639l-1.223 6.026h3.52q1.79 0 2.744-1.104.985-1.104.985-2.476"/></g><defs><clipPath id="a"><path fill="#fff" d="M0 0h72v72H0z"/></clipPath></defs></svg>