<svg width="250" height="60" viewBox="0 0 250 60" fill="none" xmlns="http://www.w3.org/2000/svg">
<path d="M29.9 43.6C26.8 43.6 24.3 42.9 22.1 41.5C20.2 40.1 19 38 19 35.2C19 34.7 19 34 19.2 33.1C19.4 31.2 20.1 28.9 20.6 26.3C22.5 19 26.9 15.5 34.5 15.5C36.6 15.5 38.3 15.7 39.9 16.4C41.5 17.1 42.7 18 43.7 19.5C44.6 20.9 45.1 22.3 45.1 24.2C45.1 24.7 45.1 25.4 44.9 26.3C44.4 28.7 44 31 43.5 33.1C42.6 36.6 40.9 39.4 38.8 41.3C36.9 42.7 33.9 43.6 29.9 43.6ZM30.6 37.7C32 37.7 33.4 37.2 34.4 36.3C35.3 35.4 36.3 34.2 36.8 32.3C37.5 29.7 38 27.6 38.2 25.7C38.2 25.2 38.4 24.5 38.4 24.1C38.4 21.7 37.2 20.6 34.6 20.6C33.2 20.6 31.8 21.1 30.8 22C29.9 22.9 28.9 24.1 28.7 26C28.2 27.9 27.8 30 27.3 32.6C27.3 33.1 27.1 33.8 27.1 34.2C26.8 36.6 28 37.7 30.6 37.7Z" fill="#001100"/>
<path d="M49.6002 43.0992C49.4002 43.0992 49.1002 43.0992 48.9002 42.8992C48.7002 42.6992 48.7002 42.3992 48.7002 42.1992L54.1002 16.5992C54.1002 16.3992 54.3002 16.0992 54.6002 15.8992C54.9002 15.6992 55.1002 15.6992 55.3002 15.6992H65.9002C68.7002 15.6992 71.1002 16.3992 73.0002 17.5992C74.9002 18.7992 75.6002 20.6992 75.6002 22.7992C75.6002 23.4992 75.6002 24.1992 75.4002 24.8992C74.7002 27.9992 73.5002 30.0992 71.4002 31.6992C69.5002 33.0992 66.7002 33.7992 63.2002 33.7992H57.8002L55.9002 42.4992C55.9002 42.6992 55.7002 42.9992 55.4002 43.1992C55.1002 43.3992 54.9002 43.3992 54.7002 43.3992H49.8002C49.6002 43.3992 49.6002 43.0992 49.6002 43.0992ZM63.5002 28.0992C64.7002 28.0992 65.6002 27.8992 66.3002 27.1992C67.2002 26.4992 67.7002 25.7992 67.9002 24.5992C67.9002 24.0992 68.1002 23.6992 68.1002 23.3992C68.1002 22.6992 67.9002 21.9992 67.4002 21.7992C66.9002 21.2992 66.2002 21.0992 65.0002 21.0992H60.3002L58.9002 28.1992H63.5002V28.0992Z" fill="#001100"/>
<path d="M84.6002 43.0992C84.4002 43.0992 84.1002 43.0992 83.9002 42.8992C83.7002 42.6992 83.7002 42.3992 83.7002 42.1992L88.2002 21.6992H81.1002C80.9002 21.6992 80.6002 21.6992 80.4002 21.4992C80.2002 21.2992 80.2002 20.9992 80.2002 20.7992L81.1002 16.5992C81.1002 16.3992 81.3002 16.0992 81.6002 15.8992C81.9002 15.6992 82.1002 15.6992 82.3002 15.6992H103.7C103.9 15.6992 104.2 15.6992 104.4 15.8992C104.4 16.0992 104.6 16.0992 104.6 16.3992V16.5992L103.7 20.7992C103.7 20.9992 103.5 21.2992 103.2 21.4992C102.9 21.6992 102.7 21.6992 102.5 21.6992H95.4002L90.9002 42.1992C90.9002 42.3992 90.7002 42.6992 90.4002 42.8992C90.2002 43.0992 89.9002 43.0992 89.7002 43.0992H84.6002Z" fill="#001100"/>
<path d="M105.5 43.0992C105.3 43.0992 105 43.0992 104.8 42.8992C104.6 42.6992 104.6 42.3992 104.6 42.1992L110 16.5992C110 16.3992 110.2 16.0992 110.5 15.8992C110.7 15.6992 111 15.6992 111.2 15.6992H116.6C116.8 15.6992 117.1 15.6992 117.3 15.8992C117.3 16.0992 117.5 16.0992 117.5 16.3992V16.5992L112.1 42.1992C112.1 42.3992 111.9 42.6992 111.6 42.8992C111.4 43.0992 111.1 43.0992 110.9 43.0992C111 43.0992 105.5 43.0992 105.5 43.0992Z" fill="#001100"/>
<path d="M120.6 43.1016C120.4 43.1016 120.1 43.1016 119.9 42.9016C119.7 42.7016 119.7 42.4016 119.7 42.2016L125.1 16.6016C125.1 16.4016 125.3 16.1016 125.6 15.9016C125.8 15.7016 126.1 15.7016 126.3 15.7016H130.5C131.2 15.7016 131.4 15.9016 131.7 16.6016L135.9 29.0016L145.5 16.5016C145.7 16.3016 145.7 16.0016 146 15.8016C146.2 15.6016 146.5 15.6016 146.9 15.6016H151.1C151.3 15.6016 151.6 15.6016 151.8 15.8016C151.8 16.0016 152 16.0016 152 16.3016V16.5016L146.6 42.1016C146.6 42.3016 146.4 42.6016 146.1 42.8016C145.8 43.0016 145.6 43.0016 145.4 43.0016H140.7C140.5 43.0016 140.2 43.0016 140 42.8016C139.8 42.6016 139.8 42.3016 139.8 42.1016L142.9 27.5016L136.8 35.5016C136.6 35.7016 136.3 36.0016 136.1 36.2016C135.9 36.4016 135.6 36.4016 135.2 36.4016H133.1C132.6 36.4016 132.2 36.2016 131.9 35.5016L129.1 27.0016L126 42.0016C126 42.2016 125.8 42.5016 125.5 42.7016C125.3 42.9016 125 42.9016 124.8 42.9016H120.6V43.1016Z" fill="#001100"/>
<path d="M155.4 43.0992C155.2 43.0992 154.9 43.0992 154.7 42.8992C154.5 42.6992 154.5 42.3992 154.5 42.1992L159.9 16.5992C159.9 16.3992 160.1 16.0992 160.4 15.8992C160.7 15.6992 160.9 15.6992 161.1 15.6992H166.5C166.7 15.6992 167 15.6992 167.2 15.8992C167.2 16.0992 167.4 16.0992 167.4 16.3992V16.5992L162 42.1992C162 42.3992 161.8 42.6992 161.5 42.8992C161.2 43.0992 161 43.0992 160.8 43.0992H155.4Z" fill="#001100"/>
<path d="M180.3 43.5992C177.9 43.5992 176.1 43.3992 174.4 42.6992C172.8 41.9992 171.6 41.2992 170.6 40.0992C169.9 39.1992 169.4 37.9992 169.4 36.5992C169.4 36.3992 169.4 36.0992 169.4 35.6992C169.4 35.4992 169.6 35.1992 169.6 34.9992C169.8 34.7992 170.1 34.7992 170.3 34.7992H175.5C175.7 34.7992 176 34.7992 176.2 34.9992C176.4 34.9992 176.7 35.1992 176.7 35.4992C176.9 36.1992 177.4 36.6992 177.9 37.0992C178.6 37.5992 179.5 37.7992 180.7 37.7992C182.1 37.7992 183.5 37.5992 184.2 37.0992C185.1 36.5992 185.6 35.8992 185.8 35.1992C185.8 35.1992 185.8 34.9992 185.8 34.6992C185.8 33.9992 185.3 33.4992 184.6 33.0992C183.9 32.6992 182.2 32.1992 180.1 31.6992C177.5 31.1992 175.6 30.2992 174.2 29.0992C172.8 27.8992 172.3 26.4992 172.3 24.5992C172.3 23.8992 172.3 23.3992 172.5 22.6992C173 20.2992 174.4 18.1992 176.5 16.7992C178.6 15.3992 181.4 14.6992 184.7 14.6992C186.8 14.6992 188.5 15.1992 190.1 15.8992C191.7 16.5992 192.9 17.4992 193.6 18.6992C194.5 19.8992 195 20.7992 195 21.9992C195 22.1992 195 22.4992 195 22.6992C195 22.8992 194.8 23.1992 194.5 23.3992C194.2 23.5992 194 23.5992 193.8 23.5992H188.4C187.9 23.5992 187.5 23.3992 187.2 22.8992C187.2 22.1992 187 21.6992 186.3 21.2992C185.6 20.7992 184.9 20.5992 183.9 20.5992C182.7 20.5992 181.8 20.7992 181.1 21.2992C180.4 21.7992 179.9 22.1992 179.7 23.1992C179.7 23.3992 179.7 23.3992 179.7 23.6992C179.7 24.3992 180.2 24.8992 180.9 25.2992C181.6 25.7992 183 25.9992 184.9 26.4992C188 26.9992 190.1 27.8992 191.2 29.0992C192.6 30.2992 193.3 31.6992 193.3 33.2992C193.3 33.9992 193.3 34.4992 193.1 35.1992C192.6 37.7992 191.2 39.8992 188.9 41.2992C186.9 42.8992 184.1 43.5992 180.3 43.5992Z" fill="#001100"/>
<path d="M198.9 43.0992C198.7 43.0992 198.4 43.0992 198.2 42.8992C198 42.6992 198 42.3992 198 42.1992L203.4 16.5992C203.4 16.3992 203.6 16.0992 203.9 15.8992C204.2 15.6992 204.4 15.6992 204.6 15.6992H208.8C209.5 15.6992 209.7 15.8992 210 16.5992L214.2 29.0992L223.8 16.5992C224 16.3992 224 16.0992 224.3 15.8992C224.5 15.6992 224.8 15.6992 225.2 15.6992H229.4C229.6 15.6992 229.9 15.6992 230.1 15.8992C230.1 16.0992 230.3 16.0992 230.3 16.3992V16.5992L224.9 42.1992C224.9 42.3992 224.7 42.6992 224.4 42.8992C224.1 43.0992 223.9 43.0992 223.7 43.0992H219C218.8 43.0992 218.5 43.0992 218.3 42.8992C218.1 42.6992 218.1 42.3992 218.1 42.1992L221.2 27.5992L215.6 35.5992C215.4 35.7992 215.1 36.0992 214.9 36.2992C214.7 36.4992 214.4 36.4992 214 36.4992H211.9C211.4 36.4992 211 36.2992 210.7 35.5992L207.9 27.0992L204.8 42.0992C204.8 42.2992 204.6 42.5992 204.3 42.7992C204 42.9992 203.8 42.9992 203.6 42.9992C203.6 43.0992 198.9 43.0992 198.9 43.0992Z" fill="#001100"/>
</svg>
