<svg xmlns="http://www.w3.org/2000/svg" width="583" height="122" fill="none" viewBox="0 0 583 122"><path fill="#000" d="M172.864 65.116q-7.448 0-13.68-3.496t-9.88-9.652q-3.648-6.232-3.648-14.06 0-7.752 3.648-13.908 3.649-6.232 9.88-9.728t13.68-3.496q7.524 0 13.68 3.496 6.232 3.495 9.804 9.728 3.648 6.156 3.648 13.908 0 7.828-3.648 14.06-3.572 6.156-9.804 9.652-6.231 3.496-13.68 3.496m0-9.5q4.788 0 8.436-2.128 3.648-2.205 5.7-6.232t2.052-9.348T187 28.636q-2.052-4.027-5.7-6.156t-8.436-2.128-8.512 2.128q-3.648 2.128-5.7 6.156-2.052 3.952-2.052 9.272t2.052 9.348 5.7 6.232q3.724 2.128 8.512 2.128M246.596 27.952q0 4.255-2.052 7.98-1.976 3.724-6.308 6.004-4.256 2.28-10.792 2.28h-8.892v20.368h-10.64V11.536h19.532q6.156 0 10.488 2.128t6.46 5.852q2.204 3.724 2.204 8.436m-19.608 7.676q4.408 0 6.536-1.976 2.128-2.052 2.128-5.7 0-7.752-8.664-7.752h-8.436v15.428zM330.096 11.536v53.048h-10.64V30.08l-14.212 34.504h-8.056L282.9 30.08v34.504h-10.64V11.536h12.084l16.872 39.444 16.872-39.444zM337.879 43.38q0-6.383 2.508-11.324 2.584-4.94 6.916-7.6 4.409-2.66 9.804-2.66 4.713 0 8.208 1.9 3.573 1.9 5.7 4.788V22.48h10.716v42.104h-10.716v-6.156q-2.052 2.964-5.7 4.94-3.571 1.9-8.284 1.9-5.32 0-9.728-2.736-4.332-2.736-6.916-7.676-2.508-5.017-2.508-11.476m33.136.152q0-3.876-1.52-6.612-1.52-2.812-4.104-4.256a10.76 10.76 0 0 0-5.548-1.52q-2.964 0-5.472 1.444t-4.104 4.256q-1.52 2.736-1.52 6.536t1.52 6.688q1.596 2.813 4.104 4.332 2.584 1.52 5.472 1.52a11.2 11.2 0 0 0 5.548-1.444q2.584-1.52 4.104-4.256 1.52-2.812 1.52-6.688M397.519 17.464q-2.812 0-4.712-1.748-1.824-1.823-1.824-4.484t1.824-4.408Q394.707 5 397.519 5t4.636 1.824q1.9 1.748 1.9 4.408t-1.9 4.484q-1.824 1.748-4.636 1.748m5.244 5.016v42.104h-10.64V22.48zM436.607 21.872q7.524 0 12.16 4.788 4.636 4.712 4.636 13.224v24.7h-10.64V41.328q0-5.016-2.508-7.676-2.508-2.736-6.84-2.736-4.407 0-6.992 2.736-2.508 2.66-2.508 7.676v23.256h-10.64V22.48h10.64v5.244q2.129-2.736 5.396-4.256 3.345-1.596 7.296-1.596M486.854 21.872q7.524 0 12.159 4.788 4.637 4.712 4.637 13.224v24.7h-10.641V41.328q0-5.016-2.508-7.676-2.508-2.736-6.84-2.736-4.407 0-6.992 2.736-2.508 2.66-2.508 7.676v23.256h-10.639V22.48h10.639v5.244q2.129-2.736 5.396-4.256 3.345-1.596 7.297-1.596M552.908 42.62q0 2.28-.304 4.104h-30.78q.38 4.56 3.192 7.144 2.811 2.584 6.916 2.584 5.928 0 8.436-5.092h11.476q-1.824 6.08-6.992 10.032-5.168 3.876-12.692 3.876-6.081 0-10.944-2.66-4.788-2.736-7.524-7.676-2.66-4.94-2.66-11.4 0-6.536 2.66-11.476t7.448-7.6 11.02-2.66q6.003 0 10.716 2.584 4.788 2.584 7.372 7.372 2.66 4.712 2.66 10.868m-11.02-3.04q-.077-4.104-2.964-6.536-2.889-2.508-7.068-2.508-3.952 0-6.688 2.432-2.66 2.356-3.268 6.612zM573.062 31.22v20.368q0 2.128.988 3.116 1.064.912 3.496.912h4.94v8.968h-6.688q-13.452 0-13.452-13.072V31.22h-5.016v-8.74h5.016V12.068h10.716V22.48h9.424v8.74z"/><path fill="#414549" d="M158.465 105.74h-8.122l-1.302 3.844h-5.549l7.874-21.762h6.138l7.874 21.762h-5.611zm-1.364-4.092-2.697-7.967-2.666 7.967zM182.218 109.801q-2.386 0-4.278-.775t-3.038-2.294q-1.116-1.52-1.178-3.658h5.642q.124 1.209.837 1.86.713.62 1.86.62 1.178 0 1.86-.527.682-.558.682-1.519 0-.806-.558-1.333-.527-.527-1.333-.868-.775-.341-2.232-.775-2.107-.651-3.441-1.302t-2.294-1.922q-.961-1.27-.961-3.317 0-3.037 2.201-4.743 2.2-1.736 5.735-1.736 3.596 0 5.797 1.736 2.201 1.705 2.356 4.774h-5.735q-.062-1.054-.775-1.643-.713-.62-1.829-.62-.961 0-1.55.527-.59.495-.589 1.457 0 1.054.992 1.643t3.1 1.271q2.108.713 3.41 1.364a6.5 6.5 0 0 1 2.294 1.891q.961 1.24.961 3.193 0 1.86-.961 3.379-.93 1.52-2.728 2.418t-4.247.899M192.362 100.935q0-2.697 1.085-4.712 1.116-2.015 3.069-3.1 1.985-1.085 4.526-1.085 3.256 0 5.425 1.705 2.202 1.705 2.883 4.805h-5.642q-.713-1.984-2.759-1.984-1.457 0-2.325 1.147-.868 1.116-.868 3.224t.868 3.255q.869 1.116 2.325 1.116 2.046 0 2.759-1.984h5.642q-.681 3.038-2.883 4.774-2.2 1.736-5.425 1.736-2.541 0-4.526-1.085-1.953-1.085-3.069-3.1-1.085-2.015-1.085-4.712M211.132 100.904q0-2.666.992-4.681 1.022-2.015 2.759-3.1t3.875-1.085q1.828 0 3.193.744 1.395.744 2.139 1.953v-2.449h5.301v17.298h-5.301v-2.449q-.775 1.209-2.17 1.953-1.365.744-3.193.744-2.109 0-3.844-1.085-1.737-1.116-2.759-3.131-.993-2.046-.992-4.712m12.958.031q0-1.984-1.116-3.131-1.085-1.147-2.666-1.147t-2.697 1.147q-1.085 1.116-1.085 3.1t1.085 3.162q1.116 1.147 2.697 1.147t2.666-1.147q1.116-1.147 1.116-3.131M243.766 92.1q3.038 0 4.836 1.984 1.829 1.953 1.829 5.394v10.106h-5.27v-9.393q0-1.735-.899-2.697-.9-.96-2.418-.961-1.52 0-2.418.961-.9.96-.899 2.697v9.393h-5.301V92.286h5.301v2.294q.805-1.147 2.17-1.798 1.363-.682 3.069-.682M270.976 109.801q-3.07 0-5.642-1.426a10.83 10.83 0 0 1-4.061-3.968q-1.488-2.573-1.488-5.766t1.488-5.735a10.83 10.83 0 0 1 4.061-3.968q2.573-1.425 5.642-1.426t5.611 1.426a10.34 10.34 0 0 1 4.03 3.968q1.488 2.542 1.488 5.735t-1.488 5.766a10.6 10.6 0 0 1-4.03 3.968q-2.542 1.426-5.611 1.426m0-4.836q2.603 0 4.154-1.736 1.581-1.736 1.581-4.588 0-2.883-1.581-4.588-1.55-1.736-4.154-1.736-2.635 0-4.216 1.705-1.55 1.705-1.55 4.619 0 2.883 1.55 4.619 1.58 1.705 4.216 1.705M290.355 95.169q.93-1.426 2.325-2.232 1.395-.837 3.1-.837v5.611h-1.457q-1.985 0-2.976.868-.992.837-.992 2.976v8.029h-5.301V92.286h5.301zM300.98 90.488q-1.395 0-2.294-.806a2.73 2.73 0 0 1-.868-2.046q0-1.24.868-2.046.899-.837 2.294-.837 1.364 0 2.232.837.899.806.899 2.046 0 1.209-.899 2.046-.868.806-2.232.806m2.635 1.798v17.298h-5.301V92.286zM314.028 92.038q1.83 0 3.193.744 1.395.744 2.139 1.953v-2.449h5.301v17.267q0 2.387-.961 4.309-.93 1.953-2.883 3.1-1.922 1.147-4.805 1.147-3.843 0-6.231-1.829-2.386-1.798-2.728-4.898h5.239q.248.992 1.178 1.55.93.59 2.294.589 1.644 0 2.604-.961.993-.93.992-3.007v-2.449q-.774 1.209-2.139 1.984-1.363.744-3.193.744-2.139 0-3.875-1.085-1.736-1.116-2.759-3.131-.992-2.046-.992-4.712t.992-4.681q1.023-2.015 2.759-3.1t3.875-1.085m5.332 8.897q0-1.984-1.116-3.131-1.085-1.147-2.666-1.147t-2.697 1.147q-1.085 1.116-1.085 3.1t1.085 3.162q1.116 1.147 2.697 1.147t2.666-1.147q1.116-1.147 1.116-3.131M331.162 90.488q-1.395 0-2.294-.806a2.74 2.74 0 0 1-.868-2.046q0-1.24.868-2.046.9-.837 2.294-.837 1.365 0 2.232.837.9.806.899 2.046 0 1.209-.899 2.046-.867.806-2.232.806m2.635 1.798v17.298h-5.301V92.286zM348.179 92.1q3.037 0 4.836 1.984 1.829 1.953 1.829 5.394v10.106h-5.27v-9.393q0-1.735-.899-2.697-.898-.96-2.418-.961-1.52 0-2.418.961-.899.96-.899 2.697v9.393h-5.301V92.286h5.301v2.294q.806-1.147 2.17-1.798 1.364-.682 3.069-.682M357.474 100.904q0-2.666.992-4.681 1.022-2.015 2.759-3.1t3.875-1.085q1.828 0 3.193.744 1.395.744 2.139 1.953v-2.449h5.301v17.298h-5.301v-2.449q-.775 1.209-2.17 1.953-1.365.744-3.193.744-2.109 0-3.844-1.085-1.737-1.116-2.759-3.131-.992-2.046-.992-4.712m12.958.031q0-1.984-1.116-3.131-1.086-1.147-2.666-1.147-1.581 0-2.697 1.147-1.085 1.116-1.085 3.1t1.085 3.162q1.116 1.147 2.697 1.147t2.666-1.147q1.116-1.147 1.116-3.131M384.869 86.644v22.94h-5.301v-22.94z"/><path fill="#12161c" d="M25.223 57.583a5.143 5.143 0 0 1 5.168-5.143l8.568.028a5.15 5.15 0 0 1 5.15 5.151v32.4c.966-.286 2.2-.591 3.56-.911a4.29 4.29 0 0 0 3.309-4.177V44.744a5.15 5.15 0 0 1 5.15-5.152h8.595a5.15 5.15 0 0 1 5.15 5.152v37.3s2.15-.87 4.244-1.754a4.3 4.3 0 0 0 2.625-3.957V31.866a5.15 5.15 0 0 1 5.15-5.151h8.585a5.15 5.15 0 0 1 5.146 5.151v36.617c7.443-5.394 14.986-11.882 20.972-19.683a8.652 8.652 0 0 0 1.316-8.072 60.64 60.64 0 0 0-33.43-35.843A60.636 60.636 0 0 0 8.056 90.836a7.67 7.67 0 0 0 7.316 3.79c1.624-.143 3.646-.345 6.05-.627a4.29 4.29 0 0 0 3.805-4.258V57.583"/><path fill="#ff0823" d="M25.04 109.544a60.65 60.65 0 0 0 63.208 5.001 60.65 60.65 0 0 0 33.13-54.062c0-1.4-.065-2.778-.158-4.152-22.163 33.055-63.085 48.508-96.18 53.213"/></svg>