<svg xmlns="http://www.w3.org/2000/svg" fill="none" viewBox="0 0 112 26"><path fill="currentcolor" fill-rule="evenodd" d="M13.034 21.463c4.686 0 8.485-3.789 8.485-8.463s-3.799-8.463-8.485-8.463S4.549 8.326 4.549 13s3.799 8.463 8.485 8.463m0 4.537c7.198 0 13.034-5.82 13.034-13S20.232 0 13.034 0 0 5.82 0 13s5.835 13 13.034 13m37.698-.035c-2.52 0-4.304-1.082-5.354-2.757h-.07v2.234h-4.583V.489h4.758v9.213h.105c.98-1.5 2.52-2.652 5.004-2.652 4.514 0 7.733 3.874 7.733 9.457 0 5.794-3.08 9.458-7.593 9.458m-1.05-3.979c2.45 0 3.814-2.024 3.814-5.479 0-3.315-1.33-5.618-3.989-5.618-3.009 0-4.129 2.408-4.129 5.723 0 3.28 1.645 5.375 4.304 5.375m48.826 3.456V.489h4.759v24.953zm-7.05 0c-.28-.35-.454-1.187-.56-1.99h-.07c-.909 1.361-2.203 2.408-5.283 2.408-3.674 0-6.263-1.92-6.263-5.479 0-3.943 3.22-5.2 7.208-5.758 2.974-.419 4.339-.663 4.339-2.024 0-1.292-1.015-2.13-3.01-2.13-2.239 0-3.323.803-3.463 2.514h-4.234c.14-3.141 2.484-5.898 7.733-5.898 5.388 0 7.558 2.408 7.558 6.596v9.108c0 1.361.21 2.164.63 2.478v.175zM86.7 22.545c2.73 0 4.234-1.675 4.234-3.42v-2.687c-.78.453-1.95.726-3.066.986l-.147.034-.111.027c-2.484.558-3.71 1.116-3.71 2.791 0 1.676 1.12 2.269 2.8 2.269M67.32 7.538v3.141h2.484v10.505c0 3.385 2.554 4.293 4.864 4.293 1.889 0 2.974-.07 2.974-.07v-3.49s-.805.035-1.4.035c-1.05 0-1.784-.454-1.784-1.78v-9.493h3.079V7.54h-3.08V1.953h-4.653v5.584zM33.04 10.4V7.538h-4.583v17.904h4.758v-8.725c0-3.77 2.24-5.41 5.354-5.095h.105V7.467c-.28-.104-.595-.14-1.12-.14-2.1 0-3.324 1.048-4.409 3.072zm27.502 15.042V7.538h4.759v17.904z" clip-rule="evenodd"/><path fill="#4eb1ba" d="M112 22.883a2.893 2.893 0 0 1-2.897 2.89 2.894 2.894 0 0 1-2.898-2.89 2.894 2.894 0 0 1 2.898-2.89c1.6 0 2.897 1.294 2.897 2.89"/><path fill="currentcolor" d="M65.664 2.734a2.737 2.737 0 0 1-2.741 2.733 2.737 2.737 0 0 1-2.741-2.733A2.737 2.737 0 0 1 62.922 0a2.737 2.737 0 0 1 2.742 2.734"/></svg>