<svg xmlns="http://www.w3.org/2000/svg" viewBox="0 0 1442.97 606.42"><defs><style>.cls-1,.cls-2,.cls-3{fill:#fff}</style></defs><g id="Layer_2" data-name="Layer 2"><g id="Design"><path d="M159.08 447.34C69.87 358.13 33.65 245 66.12 174.39a105.11 105.11 0 0 0-30.67 21.22c-64 64-31.91 200 71.75 303.62S346.78 635 410.81 571A105.07 105.07 0 0 0 432 540.31c-70.58 32.46-183.7-3.76-272.92-92.97Z" class="cls-1"/><path d="M87.34 143.73a104.94 104.94 0 0 0-21.22 30.66c70.61-32.46 183.73 3.75 273 93S464.5 469.7 432 540.31a105.31 105.31 0 0 0 30.67-21.22c64-64 31.91-200-71.75-303.62S151.37 79.7 87.34 143.73Z" class="cls-2"/><path d="M322.29 606.42a213.48 213.48 0 0 1-49-6.06c-57.78-13.65-117.38-49-167.83-99.4S19.72 390.9 6.06 333.12c-13.75-58.2-3.93-107.65 27.66-139.24s81-41.41 139.24-27.66c57.78 13.66 117.39 49 167.83 99.41s85.76 110.05 99.41 167.83c13.75 58.2 3.93 107.65-27.66 139.24-22.27 22.3-53.41 33.72-90.25 33.72ZM124.15 165.13c-34.72 0-65.15 10.39-87 32.21C6.84 227.69-2.52 275.51 10.83 332c13.44 56.91 48.28 115.68 98.1 165.5 67 67 147.72 104 213.18 104 34.72 0 65.15-10.39 87-32.22 30.35-30.34 39.71-78.16 26.36-134.65-13.45-56.91-48.29-115.69-98.1-165.5-67.03-67.04-147.75-104-213.22-104Z" class="cls-2"/><path d="M374.18 554.54a213.51 213.51 0 0 1-49-6.07c-57.78-13.65-117.39-49-167.84-99.4S71.6 339 58 281.24C44.2 223 54 173.59 85.61 142s81-41.42 139.24-27.66c57.78 13.65 117.38 48.95 167.83 99.4s85.75 110.05 99.41 167.84c13.75 58.2 3.93 107.65-27.66 139.24-22.27 22.27-53.43 33.72-90.25 33.72ZM176 113.24c-34.72 0-65.15 10.39-87 32.22-30.28 30.34-39.64 78.16-26.29 134.65C76.16 337 111 395.8 160.81 445.61s108.59 84.66 165.5 98.1c56.49 13.35 104.31 4 134.66-26.35 63-63 30.78-197.62-71.75-300.16-67-67-147.72-103.96-213.22-103.96Z" class="cls-3"/><path d="M267.36 339.06c-89.21-89.21-125.43-202.33-93-272.95a105.29 105.29 0 0 0-30.66 21.23c-64 64-31.91 200 71.74 303.61s239.62 135.78 303.65 71.75a105.11 105.11 0 0 0 21.22-30.7c-70.61 32.5-183.74-3.72-272.95-92.94Z" class="cls-1"/><path d="M195.61 35.45a105.39 105.39 0 0 0-21.22 30.66c70.61-32.46 183.74 3.76 273 93s125.44 202.34 93 272.95A104.94 104.94 0 0 0 571 410.81c64-64 31.91-200-71.74-303.61S259.64-28.58 195.61 35.45Z" class="cls-2"/><path d="M430.57 498.15a214 214 0 0 1-49-6.06c-57.78-13.66-117.39-49-167.83-99.41s-85.76-110-99.41-167.83c-13.74-58.2-3.92-107.65 27.67-139.24S223 44.19 281.24 58c57.78 13.65 117.38 49 167.83 99.4s85.75 110.06 99.41 167.84c13.75 58.2 3.93 107.65-27.66 139.24-22.27 22.22-53.42 33.67-90.25 33.67ZM232.43 56.85c-34.72 0-65.15 10.39-87 32.22-30.35 30.34-39.71 78.16-26.36 134.65 13.45 56.91 48.29 115.69 98.1 165.5s108.59 84.66 165.5 98.1c56.49 13.35 104.31 4 134.66-26.35s39.7-78.17 26.35-134.66c-13.44-56.91-48.28-115.68-98.1-165.5-66.97-67-147.69-103.96-213.15-103.96Z" class="cls-2"/><path d="M482.46 446.26a213.56 213.56 0 0 1-49-6.06c-57.78-13.66-117.38-49-167.83-99.41s-85.75-110-99.4-167.83c-13.76-58.2-3.94-107.65 27.65-139.24s81-41.41 139.24-27.66C390.9 19.72 450.51 55 501 105.47s85.75 110.05 99.4 167.83c13.76 58.2 3.93 107.65-27.66 139.24-22.3 22.27-53.45 33.72-90.28 33.72ZM284.31 5c-34.72 0-65.14 10.4-87 32.22C167 67.53 157.64 115.35 171 171.84c13.45 56.91 48.29 115.68 98.1 165.5 102.54 102.53 237.18 134.71 300.16 71.74 30.34-30.34 39.7-78.17 26.35-134.65-13.45-56.91-48.29-115.69-98.1-165.5C430.5 41.93 349.78 5 284.31 5Z" class="cls-3"/><path d="M1047.02 277.15h57.89v-32.11h-89.66v186.97h31.77V277.15zm360.33-62.28a20.31 20.31 0 0 0 15-6.17 22.25 22.25 0 0 0 0-30.76 20.31 20.31 0 0 0-15-6.17 21.55 21.55 0 1 0 0 43.1Zm15.7 30.17-31.95.02v186.95h51.86V399.9h-19.91V245.04zM1305 251c-13.75-8.15-29.34-12.28-46.33-12.28a86.76 86.76 0 0 0-39.48 8.94c-11.74 5.93-21.12 13.65-27.87 22.95l-1.56 2.15-3.45 4.76v-99.11h-51.68v32.1h19.91V432h31.77v-31.27l3.45 4.64 1.56 2.09c6.74 9.06 16 16.61 27.51 22.42s24.93 8.77 39.84 8.77a86.87 86.87 0 0 0 46.14-12.81c13.85-8.49 24.89-20.54 32.82-35.81s11.95-32.85 11.95-52.22-4-36.82-11.95-51.87-18.89-26.77-32.63-34.94Zm-.21 124.29c-5.9 10.81-13.83 19.18-23.57 24.87a61.88 61.88 0 0 1-86-24.32 66.7 66.7 0 0 1-5.42-12.85 88.43 88.43 0 0 1 0-48.92 65.65 65.65 0 0 1 5.43-12.76 62.23 62.23 0 0 1 54.62-32.69 63.53 63.53 0 0 1 31.33 8.17 61.6 61.6 0 0 1 23.62 24c5.9 10.42 8.89 22.88 8.89 37s-3.01 26.77-8.89 37.52ZM844.35 172.21c-69.7 0-126.41 59.76-126.41 133.22s56.71 133.22 126.41 133.22 126.41-59.76 126.41-133.22-56.71-133.22-126.41-133.22Zm0 233.55c-51.57 0-93.52-45-93.52-100.33s41.95-100.34 93.52-100.34 93.52 45 93.52 100.34-41.95 100.33-93.52 100.33Z" style="fill:#fff"/></g></g></svg>