<svg xmlns="http://www.w3.org/2000/svg" data-name="Lager 1" viewBox="0 0 96.39 37.55"><path d="M13.52 11.37c-7.8 0-13.3 5.51-13.3 13s5.5 13 13.3 13 13.31-5.5 13.31-13-5.51-13-13.31-13m0 19c-3.4 0-5.7-2.45-5.7-6s2.3-6 5.7-6 5.7 2.45 5.7 6-2.3 6.01-5.7 6.01Z"/><circle cx="91.37" cy="4.9" r="4.8"/><path d="M87.62 11.95h7.5v24.7h-7.5zM70.9 11.37a14.4 14.4 0 0 0-5.8 1.18V.22h-7.5v24.16c0 7.5 5.5 13 13.3 13s13.3-5.5 13.3-13-5.5-13.01-13.3-13.01m0 19c-3.4 0-5.7-2.45-5.7-6s2.3-6 5.7-6 5.7 2.45 5.7 6-2.3 6.01-5.7 6.01ZM55 24c0-7-5.38-12.63-12-12.63h-1.5c-6.63 0-12 5.7-12 12.69v12.67h7.58V24.06a6.1 6.1 0 0 1 .36-2 5.18 5.18 0 0 1 9.66 0 5.7 5.7 0 0 1 .36 2h7.58V24Z"/></svg>