<svg id="Lager_1" data-name="Lager 1" xmlns="http://www.w3.org/2000/svg" viewBox="0 0 96.39 37.55"><path d="M13.52,11.37c-7.8,0-13.3,5.51-13.3,13s5.5,13,13.3,13,13.31-5.5,13.31-13S21.32,11.37,13.52,11.37Zm0,19c-3.4,0-5.7-2.45-5.7-6s2.3-6,5.7-6,5.7,2.45,5.7,6S16.92,30.38,13.52,30.38Z"/><circle cx="91.37" cy="4.9" r="4.8"/><rect x="87.62" y="11.95" width="7.5" height="24.7"/><path d="M70.9,11.37a14.44,14.44,0,0,0-5.8,1.18V.22H57.6V24.31h0s0,0,0,.07c0,7.5,5.5,13,13.3,13s13.3-5.5,13.3-13S78.7,11.37,70.9,11.37Zm0,19c-3.4,0-5.7-2.45-5.7-6s2.3-6,5.7-6,5.7,2.45,5.7,6S74.3,30.38,70.9,30.38Z"/><path d="M55,24C55,17,49.62,11.37,43,11.37h-1.5c-6.63,0-12,5.7-12,12.69l0,12.67h7.58l0-12.67a6.08,6.08,0,0,1,.36-2,5.18,5.18,0,0,1,9.66,0,5.72,5.72,0,0,1,.36,2h7.58V24Z"/></svg>