<svg xmlns="http://www.w3.org/2000/svg" width="14" height="14" fill="none" viewBox="0 0 14 14"><path fill="#fff" d="M6.999 13.667a6.667 6.667 0 1 1 0-13.334 6.667 6.667 0 0 1 0 13.334M5.472 12.11A11.9 11.9 0 0 1 4.35 7.667H1.707a5.34 5.34 0 0 0 3.765 4.445m.214-4.444c.1 1.625.565 3.153 1.313 4.5a10.6 10.6 0 0 0 1.313-4.5zm6.605 0H9.647a11.9 11.9 0 0 1-1.122 4.445 5.34 5.34 0 0 0 3.766-4.445M1.707 6.333H4.35c.087-1.583.48-3.084 1.122-4.445a5.34 5.34 0 0 0-3.765 4.445m3.979 0h2.626a10.6 10.6 0 0 0-1.313-4.501 10.6 10.6 0 0 0-1.313 4.501m2.84-4.445a11.9 11.9 0 0 1 1.121 4.445h2.644a5.34 5.34 0 0 0-3.766-4.445"/></svg>