<svg xmlns="http://www.w3.org/2000/svg" xml:space="preserve" id="CIRCLE_OUTLINE_BLACK" x="0" y="0" viewBox="0 0 512 512"><style>.st0{fill:#fff}</style><circle cx="256" cy="256" r="256"/><path d="M166.2 153.6h69.5v-40.5H140c-7.9 0-14.3 6.4-14.3 14.3v108h-21.3v40.5h21.3v109.9c0 7.9 6.4 14.3 14.3 14.3h95.7v-40.5h-69.5zM407.5 275.9v-40.5h-21.2V126.1c0-7.9-6.4-14.3-14.3-14.3h-95.7v40.5h69.5v205.9h-69.5v40.5H372c7.9 0 14.3-6.4 14.3-14.3V275.8h21.2z" class="st0"/><path d="M314.9 254.5c0-32.8-26.7-59.5-59.5-59.5S196 221.7 196 254.5s26.7 59.5 59.5 59.5 59.4-26.8 59.4-59.5m-59.4 21.4c-11.8 0-21.5-9.6-21.5-21.5s9.6-21.5 21.5-21.5c11.8 0 21.5 9.6 21.5 21.5-.1 11.9-9.7 21.5-21.5 21.5" class="st0"/></svg>