<svg xmlns="http://www.w3.org/2000/svg" xml:space="preserve" id="Capa_1" x="0" y="0" viewBox="0 0 2000 2000"><style>.st1{fill:#fff}</style><path d="M0 0h2000v2000H0z" style="fill:#fb0001"/><path d="M456.445 371.245c2.55 0 4.675 0 7.225.425s5.1 0 7.65.425c2.975 0 5.95.85 8.925 1.275 2.55.425 5.1.85 7.225 1.275 2.975.85 5.95 1.275 8.925 2.125 2.125.85 4.675 1.275 6.8 1.7 2.975.85 5.95 2.125 8.5 2.975l6.375 2.55 8.925 3.825c2.125.85 4.25 1.7 5.95 2.55l9.35 4.675c1.7.85 3.4 1.7 5.1 2.975 3.4 1.7 6.8 3.825 10.2 5.95l3.825 2.55 13.6 9.35c8.075 5.525 16.15 11.475 23.8 17.425 23.375 18.275 45.475 37.825 68.85 55.675 1.7 1.275 3.4 2.125 5.95 2.55.85 0 1.275 0 2.125.425 1.7.425 2.975.85 4.675.85h5.1c1.7-.425 3.4-.85 4.675-1.7 58.225-34 120.7-55.25 187-65.45 20.825-3.4 42.075-5.1 62.9-8.075 20.825 0 42.075-.425 62.9-.425 62.475 3.4 124.1 13.6 181.475 37.825 38.25 16.15 74.375 36.55 111.35 56.1 1.7.85 3.4 1.7 4.675 2.55 0 0 1.275.85 2.125.85.85.425 1.7.85 2.55.85.425.425 1.275.425 1.7.85.85.425 1.7.425 2.125.85.85 0 1.275 0 1.7.425h2.125c.85 0 1.7 0 2.55-.425h1.7l2.55-1.275c.425 0 .85-.425 1.7-.85s2.125-1.275 2.975-2.125c.425-.425.85-.85 1.7-1.275 1.275-.85 2.55-2.55 4.25-3.825l.85-.85c43.35-47.6 88.4-93.5 150.875-119 9.775-4.25 19.975-7.65 29.75-9.775 6.375-1.7 12.75-2.975 18.7-3.825.85 0 1.275 0 2.125-.425q8.925-1.275 17.85-1.275h10.625c1.7 0 3.4.425 5.1.425 2.55.425 4.675.85 7.225.85 1.7 0 2.975.425 4.675.85 2.55.425 5.1 1.275 8.075 1.7 1.275.425 2.55.425 4.25.85 3.825 1.275 8.075 2.55 11.9 3.825q19.762 7.65 33.15 19.125c27.2 23.375 36.125 58.225 37.825 96.05 2.55 57.8-9.775 115.175-24.65 170.425-22.1 82.025-48.45 163.2-75.225 243.95-8.5 25.075-4.25 47.6-2.55 72.675 3.4 50.575 14.025 101.15 4.25 153.425-5.95 31.45-1.7 66.3 5.525 98.175 2.125 9.35 3.825 18.275 5.1 27.2.425 2.125.425 4.25.425 5.95.85 6.8 1.7 13.6 2.125 20.825v8.5c0 5.95.425 11.9 0 17.85 0 3.4-.425 6.8-.85 10.2-.425 5.1-.85 10.625-1.275 15.725-.425 1.7-.425 3.825-.85 5.525s-.425 3.825-.85 5.525c-.85 5.1-1.7 9.775-2.55 14.45-.85 4.25-1.7 8.075-2.55 11.9-.85 4.675-2.125 9.35-3.4 13.6-.85 4.25-2.55 8.075-3.4 11.9-1.275 4.25-2.975 8.925-4.25 13.6-1.275 3.825-2.975 7.65-4.25 11.475-.425 1.275-.85 2.55-1.7 3.825-.425 1.275-.85 2.55-1.7 4.25 0 0-5.525 25.925-38.675 69.275-.425.425-.85.85-1.275 1.7-3.4 4.675-7.65 9.35-11.9 14.45-.85 1.7-1.7 3.4-2.55 4.25-3.4 3.4-6.375 6.8-10.2 10.2-1.7 1.7-2.975 3.4-4.675 5.1-8.075 8.925-16.15 17.85-25.5 25.5-12.325 10.2-25.075 19.55-38.25 28.9h-.425c-4.675 3.4-56.95 38.675-153.85 71.825-53.975 18.275-121.975 36.125-203.15 46.75q-7.65 1.275-16.575 2.55c-4.25 0-18.7 3.4-22.95 3.825h-6.375c-24.225 2.975-48.45 4.25-72.25 4.25-9.775 0-19.55 0-28.9-.85-23.8-.85-47.6-2.975-70.125-5.95-68-8.5-128.35-24.65-169.575-37.4-2.975-.85-5.95-1.7-8.5-2.55-3.825-1.275-7.225-2.55-10.625-3.4-5.95-2.125-11.475-4.25-16.15-5.525-2.55-.85-4.675-1.7-6.8-2.55-8.5-3.4-13.6-5.1-14.875-5.95-40.8-16.575-79.9-38.25-116.025-67.15-39.1-31.025-70.125-66.3-94.775-105.825-8.5-13.6-16.15-27.2-22.95-41.65l-1.275-2.55c-62.05-111.35-25.5-222.7-22.95-230.35v-.425c1.275-5.95 2.55-11.475 4.25-17s3.4-11.05 5.1-17l1.275-5.1c.85-4.675 1.7-9.775 1.7-14.875 0-14.45-1.275-29.325-2.125-44.2-.425-21.25-.425-42.5-.85-63.75-.425-5.525-.425-11.05-.425-17 0-14.875.85-29.325 2.975-44.2 2.975-19.975 7.65-39.95 14.025-59.075 1.275-3.4 1.7-6.8 2.55-9.775 1.7-9.775 0-19.125-2.125-28.475-1.7-5.95-3.4-12.325-5.525-18.275-1.7-5.95-3.825-11.9-5.1-18.275-15.3-78.2-32.725-156.4-51.425-233.75-8.5-35.275-11.9-70.975-11.9-106.675 0-6.8 0-13.6.425-19.975 2.55-75.65 44.625-120.7 121.125-126.225 2.55 0 5.1-.425 7.65-.425z" class="st1"/><path d="M1836.2 1031.7c-7 20.5-5 40-3 62.5.5 5 1 10 1 15 1 15 2.5 30 4 44.5 5 45.5 10 92 .5 141-5.5 28-3.5 63.5 6.5 107 2.5 12 5 23.5 6 33 .5 2.5.5 4.5.5 7v1c1 9 2 17 2.5 27v9.5c0 7.5.5 15 0 22.5 0 2 0 4-.5 6.5 0 2-.5 3.5-.5 5.5v1c-.5 6-1 12.5-1.5 18.5v1.5s-.5 1.5-.5 2.5c0 1.5-.5 3-.5 4s0 1.5-.5 2.5c0 1.5-.5 3-.5 3.5-1 6-2 12-3 18.5-1 5-2 10-3 14-1 5.5-2.5 11-4 17-1 3-2 6.5-3 9.5l-1.5 5c-2 5.5-3.5 11-5.5 17-1.5 4.5-3.5 9.5-5 13.5l-1 2.5-1 2c-.5 1.5-1 3-2 4.5-1 4.5-4.5 14.5-12 29.5s-19 34-37 57.5v.5l-1.5 1.5c-4 5-8 10-13 15.5-2 3-4 5.5-6 8-2 2-3.5 4-5.5 5.5-2 2-4 4.5-6 6l-5 6c-10 11.5-20.5 22.5-32.5 32-14 11-29 22.5-44.5 34l-5 5h-1.5c-17.5 12-78 48.5-180.5 83.5-76 26-157.5 44.5-242.5 56-7 1.5-14 2.5-22 3-2.5 0-6.5 1-11 2-8 1.5-12.5 2.5-17 2.5h-5c-28 3.5-57.5 5-87.5 5-11.5 0-23-.5-35-1-28-1-56-3.5-84-7-66-8.5-134.5-23.5-202.5-44.5-2.5-.5-5-1.5-7-2l-3.5-1-5-2c-2.5-1-4.5-1.5-7-2h-.5l-.5-.5c-7-2.5-13-4.5-19-6.5-2.5-1-5.5-2-7.5-2.5l-1-.5h-.5c-12.5-5-16.5-6.5-18.5-7.5l-1-.5c-50.5-21-97.5-48-138.5-80.5-46.5-37-84.5-79.5-116-129.5-10-16.5-19.5-33.5-28-51.5l-1-1.5c-74.5-134-34-269.5-28.5-287 1.5-7 3-13.5 5-20 2-7 4-14 6.5-20.5v-1c.5-1 .5-2.5 1-3.5 1-4.5 1.5-9 1.5-12.5 0-11-1-22.5-1.5-34-.5-6-1-11.5-1-18-.5-25-.5-50-1-74.5-.5-7-.5-13.5-.5-20.5 0-19.5 1-37 3.5-54.5 3.5-24.5 9.5-49 17.5-73.5 1-2 1.5-5 2-8 1-7 .5-15-2-25.5-1-5-3-10-4.5-15l-2-5.5-.5-1.5c-2-7-4-14-6-22-17-86.5-36.5-176-60-274-10-40-14.5-82.5-14.5-130.5 0-8 0-16 .5-24 3-99 62-160.5 162-168 3.5 0 6.5-.5 10-.5h4.5c3 0 6 0 10 .5h2.5c2.5 0 4.5.5 7 .5 4 0 7.5 1 11 1.5h1c3 .5 6 1 9.5 2s7 2 11.5 3c1 .5 2.5.5 3.5 1 1.5.5 3 1 4.5 1 3 1 5.5 2 8 3l2.5 1c3 1 6.5 2 9 3 4 1.5 8 3.5 11 5 3 1 6 2.5 8.5 4 4 2 7.5 4 12 6.5.5.5 1 1 2 1 1.5.5 3 1.5 3.5 2 4 2.5 8.5 5 12.5 7.5l.5.5.5.5s1.5 1 2 1l1 .5 1 .5 6.5 4.5 10 6.5c9.5 7 19 13.5 29 21.5 12.5 9.5 24.5 20 36.5 29.5 14 12 29 24 44 35.5.5 0 1.5 0 2 .5.5 0 1 .5 1 .5h3c68.5-39.5 144.5-66 226-79 16-2.5 32.5-4.5 48-6 9-1 18-2 26.5-3h2l75.5-2h1c85 4.5 157 19.5 220 46 36 15 71 34 104.5 52 9.5 5 19 10 28 15l2 1s2 1 2.5 1l3 1.5 2 .5.5 1h.5l1-.5 1-1v-.5l1-1 2-2 .5-.5.5-.5.5-.5c50.5-56 106.5-113 185-145 13-5.5 26-9.5 37.5-12.5 7.5-2 15.5-3.5 24-5h3q11.25-1.5 24-1.5h15.5s2 .5 3 .5h3l8 1.5c1 0 2.5.5 4 .5h3.5c3 1 6 1.5 9 2l1.5.5h1c1 .5 2.5.5 4.5 1l1.5.5c4.5 1.5 9.5 3 13.5 4.5 18 6.5 33 15.5 45 26 32 28 48.5 68.5 51 127.5 3 72.5-12.5 142-29.5 206.5-26.5 100-58.5 198-88.5 290z" style="fill:#fff;stroke:#fff;stroke-width:69.6218;stroke-linejoin:round;stroke-miterlimit:42.5" transform="matrix(.85 0 0 .85 30 40)"/><path d="M649.395 1671.32c4.675 1.7 10.2 3.4 16.15 5.525-5.1-1.7-10.625-3.4-16.15-5.525" class="st1"/><path d="M1108.2 1688.7c-21-.5-67 35-67 51.5 0 26.5 34.5 52 71 52 38 0 59.5-17.5 58.5-47.5-.5-21-39.5-56-62.5-56" style="fill:#be251e" transform="matrix(.85 0 0 .85 30 40)"/><path d="M1497.27 1537.445c3.4-3.4 6.8-7.225 10.2-10.625q1.275-1.275 2.55-3.825c-3.825 4.675-8.075 9.775-12.75 14.45M649.395 1671.32c5.1 2.125 11.05 3.825 16.15 5.525-5.95-2.125-11.05-4.25-16.15-5.525"/><path d="M1649.845 667.47c14.875-55.25 27.2-112.625 24.65-170.425-1.7-38.25-10.625-72.675-37.825-96.05-8.925-7.65-19.975-14.45-33.15-19.125-3.825-1.7-8.075-2.55-11.9-3.825-1.275-.425-2.55-.425-4.25-.85-2.55-.85-5.1-1.275-8.075-1.7-1.7 0-2.975-.425-4.675-.85-2.55-.425-5.1-.85-7.225-.85-1.7 0-3.4 0-5.1-.425h-10.625q-8.925 0-17.85 1.275c-.85 0-1.7 0-2.125.425-6.375.85-12.75 2.125-18.7 3.825-9.775 2.55-19.975 5.95-29.75 9.775-62.475 25.5-107.525 70.975-150.875 119l-.85.85c-1.275 1.7-2.55 2.975-4.25 3.825-.425.425-.85.85-1.7 1.275-.85.85-2.125 1.7-2.975 2.125-.425.425-.85.425-1.7.85l-2.55 1.275h-1.7c-.85 0-1.7.425-2.55.425h-2.125c-.85 0-1.275 0-1.7-.425-.85 0-1.7-.425-2.125-.85-.85 0-1.275-.425-1.7-.85-.85 0-1.7-.85-2.55-.85-.85-.425-1.275-.425-2.125-.85-1.7-.85-2.975-1.7-4.675-2.55-36.55-19.55-73.1-39.95-111.35-56.1-57.8-24.225-119-34.85-181.475-37.825-21.25 0-42.075.425-62.9.425-21.25 2.55-42.075 4.675-62.9 8.075-66.3 10.2-128.775 31.45-187 65.45-1.275.85-2.975 1.275-4.675 1.7h-5.1c-1.7 0-3.4-.425-4.675-.85-.85 0-1.7 0-2.125-.425-2.125-.85-4.25-1.7-5.95-2.55-23.8-17.85-45.9-37.4-68.85-55.675-7.65-5.95-15.725-11.9-23.8-17.425l-13.6-9.35-3.825-2.55c-3.4-2.125-6.8-4.25-10.2-5.95-1.7-.85-3.4-1.7-5.1-2.975-2.975-1.7-5.95-3.4-9.35-4.675-1.7-.85-3.825-1.7-5.95-2.55l-8.925-3.825-6.375-2.55c-2.975-.85-5.95-2.125-8.5-2.975s-4.675-1.275-6.8-1.7c-2.975-.85-5.95-1.7-8.925-2.125-2.55-.425-5.1-.85-7.225-1.275l-8.925-1.275c-2.55-.425-5.1-.425-7.65-.425s-5.1-.425-7.225-.425h-3.825c-2.55 0-5.1 0-7.65.425-76.5 5.95-118.575 51-121.125 126.225 0 6.8-.425 13.175-.425 19.975 0 35.7 3.4 71.4 11.9 106.675 18.7 77.35 36.125 155.55 51.425 233.75 1.275 5.95 2.975 11.9 5.1 18.275 1.7 5.95 3.825 12.325 5.525 18.275 2.125 9.35 3.4 18.7 2.125 28.475-.425 3.4-1.275 6.375-2.55 9.775-6.375 19.55-11.05 39.1-14.025 59.075-2.125 14.45-2.975 29.325-2.975 44.2 0 5.525 0 11.05.425 17 0 21.25.425 42.5.85 63.75.85 14.45 1.7 29.325 2.125 44.2 0 5.1-.85 10.2-1.7 14.875l-1.275 5.1c-1.7 5.525-3.825 11.05-5.1 17-1.7 5.525-2.975 11.05-4.25 17v.425c-2.55 7.65-39.1 119.425 22.95 230.35l1.275 2.55c6.8 14.45 14.45 28.475 22.95 41.65 24.65 39.525 55.675 74.8 94.775 105.825 36.125 28.475 75.225 50.15 116.025 66.725 1.275.85 6.8 2.975 14.875 5.95 2.125.85 4.25 1.7 6.8 2.55 4.675 1.7 10.2 3.4 16.15 5.525 3.4.85 6.8 2.125 10.625 3.4 2.55.85 5.95 1.7 8.5 2.55 41.225 12.75 101.15 28.475 169.575 37.4 22.525 2.975 45.9 5.1 70.125 5.95 33.15 1.275 67.15.425 101.15-3.4h6.375c4.25 0 18.7-3.4 22.95-3.825q8.925-.638 16.575-2.55c81.6-11.05 149.175-28.475 203.15-46.75 96.9-33.15 148.75-68.425 153.85-71.825h.425c12.75-9.35 25.5-19.125 38.25-28.9 9.35-7.65 17.425-16.15 25.5-25.5 1.7-1.7 3.4-3.4 4.675-5.1 4.675-5.1 8.925-9.775 12.75-14.45 4.25-5.1 8.075-9.775 11.9-14.45.425-.85.85-1.275 1.275-1.7 33.15-43.35 38.675-69.275 38.675-69.275.85-1.275 1.275-2.55 1.7-4.25.425-1.275.85-2.55 1.7-3.825 1.7-3.825 2.975-7.65 4.25-11.475 1.7-4.25 2.975-8.925 4.25-13.6 1.275-4.25 2.55-8.075 3.4-11.9 1.275-4.25 2.55-8.925 3.4-13.6.85-3.825 1.7-7.65 2.55-11.9.85-4.675 1.7-9.35 2.55-14.45.425-1.7.425-3.825.85-5.525s.425-3.825.85-5.525c.425-5.1.85-10.625 1.275-15.725 0-3.4.425-6.8.85-10.2v-26.35c-.425-6.8-1.275-14.025-2.125-20.825 0-2.125 0-4.25-.425-5.95-1.275-8.925-2.975-18.275-5.1-27.2-7.225-31.45-11.9-66.725-5.525-98.175 10.2-52.275-.425-102.85-4.25-153.425-1.7-25.075-5.95-47.6 2.55-72.675 24.65-82.45 51-163.2 72.675-245.225M406.72 631.77c-1.7-8.075-2.975-16.575-4.25-24.65-.425-2.975-.85-5.525-1.275-8.5-13.175-86.275-2.55-121.55 1.7-131.325.85-2.125 1.7-2.975 1.7-2.975 12.75-24.225 31.45-31.875 59.925-27.625 5.1.425 11.05 1.7 17 2.975 40.8 10.2 73.1 35.7 104.975 62.05 10.2 8.5 21.675 16.575 30.6 26.35 6.8 7.225 8.5 15.725-2.55 22.95-38.25 25.5-68.85 59.075-98.6 93.5-7.65 8.925-11.05 10.625-14.45 1.275-.425-.85-.85-2.125-1.275-3.4-3.4-11.9-7.65-23.8-11.475-35.7-5.95-17-17-23.8-35.7-22.95s-25.925 8.925-22.95 25.5c4.25 23.8 10.2 47.175 15.3 70.55s9.775 46.75 14.025 70.55c.85 5.525.85 11.9-.85 17.425-2.125 5.95-6.8 10.625-10.625 15.725-3.825-5.1-9.775-9.775-11.05-15.725-11.05-44.625-21.25-90.1-30.175-136m1095.65 752.25c-12.325 56.1-45.05 102.425-86.275 138.975-34 30.6-76.075 53.55-116.45 75.65-14.025 7.65-28.475 14.45-42.925 20.825-39.95 17.425-82.025 29.75-124.95 37.825-55.675 10.625-89.25 21.25-168.3 23.8-88.4-4.25-171.7-20.4-250.75-51-48.025-18.7-94.35-42.5-138.55-72.25-72.675-48.45-121.55-113.9-135.15-199.75-8.5-53.55-10.625-110.5 22.95-160.225 4.25-6.375 3.825-16.575 3.4-25.075-1.275-44.625-8.925-90.1-3.4-133.875 8.5-66.3 29.325-129.625 67.15-187 2.975-4.25 5.95-8.925 9.35-13.175 33.575-47.175 74.375-86.275 121.55-119.85 22.525-16.15 45.05-2.55 65.875 4.25 19.55 6.375 39.1 15.725 55.25 28.475 17.425 13.6 34.425 29.75 45.05 48.875 23.8 42.925 44.2 87.55 65.45 131.75 3.825 7.65 4.675 17 9.35 23.375 10.625 15.3 19.125 32.725 44.2 30.6 32.3-2.975 64.6 1.275 96.9-1.7 18.7-1.7 26.775-20.4 31.45-37.4 5.525-19.125 8.075-39.1 16.15-56.95 28.9-64.6 70.55-119 132.175-155.55 14.45-8.5 30.6-15.725 46.75-19.55 23.375-5.525 43.35 7.225 60.35 21.25 36.975 31.025 71.825 64.6 97.75 105.4 2.55 3.825 5.1 8.075 7.65 11.9 25.925 44.2 47.6 90.525 52.7 142.8 3.4 37.4 9.35 74.8 11.05 112.2 1.275 22.1-3.4 44.2-5.1 66.725-.85 10.625-1.7 21.675.425 31.875 5.1 22.95 10.625 45.9 17.85 68.425 10.2 36.975-1.275 72.675-8.925 108.375m63.75-663c-8.5 33.575-18.275 66.725-27.2 100.3-.85 2.55-5.1 3.825-7.65 5.525-4.675-13.6-15.3-28.9-12.75-41.225 9.35-48.025 22.95-94.775 34.85-142.375 1.7-6.375 3.825-13.6 3.4-19.975 0-1.275 3.4-17.85-5.95-25.5-16.15-13.175-31.45-.425-40.375 7.65-11.475 11.05-16.575 29.325-23.8 45.05-2.55 5.95-3.4 13.175-5.95 19.55-5.1 13.175-10.625 10.625-19.125 1.275-.85-.85-1.275-1.7-2.125-2.125-29.325-32.3-59.075-64.6-90.525-95.2-6.8-6.8-8.075-8.5-2.125-15.3 39.525-41.65 81.6-79.9 133.025-106.25 8.5-4.25 17-8.5 25.925-11.9 24.65-10.2 53.55-2.55 68.85 23.8.425.425.85 1.275.85 1.7.85 1.275 1.275 2.55 2.125 3.825.425.85.85 1.7 1.275 2.975 6.8 18.275 5.95 49.3 1.7 83.725-8.925 75.225-34.425 164.475-34.425 164.475"/><path d="M1510.02 1275.22c-6.8-22.525-12.75-45.475-17.85-68.425-2.125-10.2-.85-21.25-.425-31.875 1.7-22.525 6.375-44.625 5.1-66.725-1.7-37.4-7.225-74.8-11.05-112.2-5.1-52.275-26.775-98.6-52.7-142.8-2.55-4.25-5.1-8.075-7.65-11.9-26.35-40.8-60.775-74.375-97.75-105.4-17-14.025-36.975-26.775-60.35-21.25-16.15 3.825-32.3 11.05-46.75 19.55-62.05 36.55-103.275 90.95-132.175 155.55-8.075 17.85-10.2 38.25-16.15 56.95-5.1 17-13.175 35.7-31.45 37.4-31.875 3.4-64.6-.85-96.9 1.7-25.5 2.125-34-14.875-44.2-30.6-4.675-6.8-5.95-15.725-9.35-23.375-21.25-44.2-41.65-89.25-65.45-131.75-10.625-18.7-27.625-35.275-45.05-48.875-16.15-12.75-35.7-22.1-55.25-28.475-20.825-6.8-43.35-19.975-65.875-4.25-47.175 33.575-87.975 72.675-121.55 119.85-3.4 4.25-6.375 8.925-9.35 13.175-37.825 57.375-58.65 120.7-67.15 187-5.525 43.775 2.125 89.25 3.4 133.875.425 8.5.85 18.7-3.4 25.075-33.575 49.725-31.45 106.675-22.95 160.225 13.6 85.425 62.475 150.875 135.15 199.75 44.625 29.75 90.95 53.55 138.55 72.25 79.05 30.6 162.35 51.425 250.75 51 71.4-.425 106.25-5.95 168.725-21.25 42.925-8.075 85-22.95 124.95-40.375 14.45-6.375 28.9-13.175 42.925-20.825 40.8-22.1 82.45-45.05 116.45-75.65 41.225-36.55 73.95-82.875 86.275-138.975 8.5-35.275 19.975-70.975 8.5-108.375m-336.175-325.975c17-44.625 74.8-56.95 107.95-22.95 8.925 8.925 15.725 19.125 23.375 28.9 1.7 2.125 2.55 5.1 5.95 12.325-7.65-2.55-12.75-2.55-16.15-5.1-22.95-17.425-48.45-25.075-76.925-17.85-11.9 2.975-22.525 9.775-34 14.45-2.975 1.275-6.8.85-10.2 1.275.425-3.4-1.275-7.65 0-11.05m-243.1 299.625c18.7-17 72.675-20.825 93.925-6.375 8.5 5.95 17.85 18.7 17 27.2-.425 7.65-13.6 17.425-22.95 20.825-11.475 4.25-25.075 2.975-40.375 4.25-11.05-.85-25.075-.425-37.825-4.25-8.075-2.125-18.275-10.2-19.975-17.425-1.275-6.8 3.825-18.7 10.2-24.225M656.62 946.695c16.575-22.95 34.85-43.775 66.725-42.5 17 0 56.525 31.025 59.5 46.75.425 2.55-5.95 9.775-8.5 9.35-6.375-.425-12.325-4.25-18.275-6.8-29.75-12.75-58.65-17-85.85 5.95-4.25 3.4-11.475 2.55-17.425 3.4 1.275-5.525.85-11.9 3.825-16.15m68.425 147.9c-11.9-14.45-25.925-14.025-35.275 1.7-13.6 22.525-25.5 46.75-35.275 71.4-5.95 15.3 0 19.125 18.275 15.725 8.5-1.7 17.425-3.4 25.925-2.55 6.375.85 18.7 2.55 18.275 9.35-.425 6.375-11.475 5.525-17.85 6.8-17.85 4.25-35.7 5.95-53.125 11.05-11.9 3.4-22.525 9.775-33.15 15.725-8.5 4.675-12.75 3.4-12.75-6.8 0-69.275 10.2-135.15 60.35-188.275 14.45-15.3 32.3-19.125 51.85-20.4 28.05-.85 64.6 24.65 82.025 68 12.325 30.6 20.4 62.9 29.75 95.2 1.7 6.375 1.7 13.6 1.275 20.4-.85 14.45-9.775 17-20.4 10.625-20.4-12.75-37.4-27.2-45.05-52.7-6.8-19.975-21.25-38.25-34.85-55.25m435.625 328.95c-22.525 8.075-45.05 16.15-68 20.825-12.75 2.55-18.275 5.1-19.975 19.125-3.4 30.6-14.45 59.5-31.45 85-15.725 23.8-39.95 33.15-75.225 31.875-29.75 0-62.9-24.65-76.075-62.9-6.375-18.7-13.175-37.825-16.15-57.375-2.125-12.75-7.225-16.15-18.7-14.875-25.5 2.975-48.025-6.375-70.55-17.425-11.475-5.525-14.025-13.175-11.9-22.95.85-4.675 6.375-10.2 11.05-11.475 2.975-.85 9.35 3.4 11.9 7.225 10.2 15.3 25.925 19.125 42.075 21.25 48.45 5.95 89.25-9.35 123.25-44.2 10.625-11.05 14.875-17.85 31.025 0 32.3 36.125 73.95 58.65 126.225 39.1 8.5-3.4 16.15-9.35 23.8-14.025 5.1-2.975 11.05-10.2 13.6-8.925 6.8 3.4 13.6 9.35 16.15 15.725 1.275 2.55-5.95 12.325-11.05 14.025m177.65-210.8c-3.4 5.1-14.875 11.475-17.85 9.775-26.35-17-55.25-23.8-86.275-25.075-5.525 0-10.625-3.4-16.15-5.525-2.55-.85-4.675-2.125-6.8-2.975 2.55-1.275 5.1-3.4 7.65-3.4 16.15-1.275 33.575-5.525 48.875-2.125 17 3.825 21.675-1.275 17-14.45a560.6 560.6 0 0 0-33.15-72.675c-7.65-14.025-23.8-17-34-3.4-14.45 18.7-28.475 39.1-36.975 60.775-10.2 25.925-29.75 39.1-52.7 49.3-1.7.85-9.775-5.1-9.775-7.225 5.95-55.25 19.975-108.375 54.4-152.15 43.35-54.825 99.025-41.65 130.05 14.45 22.95 41.65 34 87.55 36.55 131.325 0 9.775 2.55 18.275-.85 23.375M1600.97 556.545c-9.35 74.8-34.85 164.475-34.85 164.475-8.5 33.575-18.275 66.725-27.2 100.3-.85 2.55-5.1 3.825-7.65 5.525-4.675-13.6-15.3-28.9-12.75-41.225 9.35-48.025 22.95-94.775 34.85-142.375 1.7-6.375 3.825-13.6 3.4-19.975 0-1.275 3.4-17.85-5.95-25.5-16.15-13.175-31.45-.425-40.375 7.65-11.475 11.05-16.575 29.325-23.8 45.05-2.55 5.95-3.4 13.175-5.95 19.55-5.1 13.175-10.625 10.625-19.125 1.275-.85-.85-1.275-1.7-2.125-2.125-29.325-32.3-59.075-64.6-90.525-95.2-6.8-6.8-8.075-8.5-2.125-15.3 39.525-41.65 81.6-79.9 133.025-106.25 8.5-4.25 17-8.5 25.925-11.9 24.65-10.2 53.55-2.55 68.85 23.8.425.425.85 1.275.85 1.7.85 1.275 1.275 2.55 2.125 3.825.425.85.85 1.7 1.275 2.975 7.225 18.7 6.375 49.725 2.125 83.725M614.12 551.02c-38.25 25.5-68.85 59.075-98.6 93.5-7.65 8.925-11.05 10.625-14.45 1.275-.425-.85-.85-2.125-1.275-3.4-3.4-11.9-7.65-23.8-11.475-35.7-5.95-17-17-23.8-35.7-22.95s-25.925 8.925-22.95 25.5c4.25 23.8 10.2 47.175 15.3 70.55s9.775 46.75 14.025 70.55c.85 5.525.85 11.9-.85 17.425-2.125 5.95-6.8 10.625-10.625 15.725-3.825-5.1-9.775-9.775-11.05-15.725-10.625-45.475-20.825-90.95-29.75-136.85-1.7-8.075-2.975-16.575-4.25-24.65-.425-2.975-.85-5.525-1.275-8.5-13.175-86.275-2.55-121.55 1.7-131.325.85-2.125 1.7-2.975 1.7-2.975 12.75-24.225 31.45-31.875 59.925-27.625 5.1.425 11.05 1.7 17 2.975 40.8 10.2 73.1 35.7 104.975 62.05 10.2 8.5 21.675 16.575 30.6 26.35 5.95 7.65 7.65 16.575-2.975 23.8" class="st1"/><path d="M1155.995 1392.945c-2.55-1.275-8.925 5.95-13.6 8.925-7.65 5.1-15.3 11.05-23.8 14.025-51.85 19.55-93.925-2.975-126.225-39.1-16.15-17.85-20.4-11.05-31.025 0-34 34.85-74.8 50.15-123.25 44.2-16.15-2.125-31.875-5.95-42.075-21.25-2.55-3.825-8.925-8.075-11.9-7.225-4.675 1.7-9.775 6.8-11.05 11.475-2.125 9.775 0 17.425 11.9 22.95 22.525 11.05 45.05 20.4 70.55 17.425 11.475-1.275 16.575 2.125 18.7 14.875 3.4 19.55 9.775 38.675 16.15 57.375 13.175 38.25 46.325 62.9 76.075 62.9 35.275 1.275 59.5-8.075 75.225-31.875 17-25.5 28.05-54.4 31.45-85 1.7-14.025 7.225-16.575 19.975-19.125 22.95-4.675 45.9-12.75 68-20.825 5.1-1.7 12.325-11.475 11.05-14.875-2.55-5.525-9.775-11.475-16.15-14.875m-135.575 151.3c-.85 1.275-1.7 2.125-2.55 3.4-.85.85-1.275 1.7-2.125 2.125-.85.85-1.7 1.7-2.975 2.55s-2.125 1.7-3.4 2.55c-8.5 5.1-19.55 7.65-33.575 7.65-30.6 0-60.35-21.25-60.35-44.2 0-1.7.85-3.825 1.7-5.95 2.125-4.25 6.375-9.35 11.475-14.025l7.65-6.375c11.9-9.775 26.775-17.425 35.7-17.425 19.55.425 52.7 29.75 53.55 47.6.425 8.925-1.275 16.15-5.1 22.1M824.92 1192.345c-.85 14.45-9.775 17-20.4 10.625-20.4-12.75-37.4-27.2-45.05-52.7-6.375-19.975-20.825-38.675-34.425-55.25-11.9-14.45-25.925-14.025-35.275 1.7-13.6 22.525-25.5 46.75-35.275 71.4-5.95 15.3 0 19.125 18.275 15.725 8.5-1.7 17.425-3.4 25.925-2.55 6.375.85 18.7 2.55 18.275 9.35-.425 6.375-11.475 5.525-17.85 6.8-17.85 4.25-35.7 5.95-53.125 11.05-11.9 3.4-22.525 9.775-33.15 15.725-8.5 4.675-12.75 3.4-12.75-6.8 0-69.275 10.2-135.15 60.35-188.275 14.45-15.3 32.3-19.125 51.85-20.4 28.05-.85 64.6 24.65 82.025 68 12.325 30.6 20.4 62.9 29.75 95.2 1.275 6.375 1.275 13.6.85 20.4M1338.32 1212.745c-3.4 5.1-14.875 11.475-17.85 9.775-26.35-17-55.25-23.8-86.275-25.075-5.525 0-10.625-3.4-16.15-5.525-2.55-.85-4.675-2.125-6.8-2.975 2.55-1.275 5.1-3.4 7.65-3.4 16.15-1.275 33.575-5.525 48.875-2.125 17 3.825 21.675-1.275 17-14.45a560.6 560.6 0 0 0-33.15-72.675c-7.65-14.025-23.8-17-34-3.4-14.45 18.7-28.475 39.1-36.975 60.775-10.2 25.925-29.75 39.1-52.7 49.3-1.7.85-9.775-5.1-9.775-7.225 5.95-55.25 19.975-108.375 54.4-152.15 43.35-54.825 99.025-41.65 130.05 14.45 22.95 41.65 34 87.55 36.55 131.325 0 9.775 2.55 18.275-.85 23.375M1041.67 1270.12c-.425 7.65-13.6 17.425-22.95 20.825-11.475 4.25-25.075 2.975-40.375 4.25-11.05-.85-25.075-.425-37.825-4.25-8.075-2.125-18.275-10.2-19.975-17.425s3.825-19.125 9.775-24.65c18.7-17 72.675-20.825 93.925-6.375 8.925 5.95 18.275 18.7 17.425 27.625M782.845 950.945c.425 2.55-5.95 9.775-8.5 9.35-6.375-.425-12.325-4.25-18.275-6.8-29.75-12.75-58.65-17-85.85 5.95-4.25 3.4-11.475 2.55-17.425 3.4 1.275-5.525.85-12.325 3.825-16.575 16.575-22.95 34.85-43.775 66.725-42.5 17 .425 56.525 31.025 59.5 47.175M1311.12 967.52c-7.65-2.55-12.75-2.55-16.15-5.1-22.95-17.425-48.45-25.075-76.925-17.85-11.9 2.975-22.525 9.775-34 14.45-2.975 1.275-6.8.85-10.2 1.275-.425-3.4-1.7-7.65-.425-11.05 17-44.625 74.8-56.95 107.95-22.95 8.925 8.925 15.725 19.125 23.375 28.9 2.125 2.55 2.975 5.1 6.375 12.325"/></svg>