<svg xmlns="http://www.w3.org/2000/svg" width="32" height="32" viewBox="0 0 32 32"><g fill="none"><circle cx="16" cy="16" r="16" fill="#34445b"/><g fill="#fff"><path d="m15.937 10.222 2.01-3.136a2.03 2.03 0 0 0 .83-3.97 2.03 2.03 0 0 0-2.04 3.2l-2.494 3.891a7.96 7.96 0 0 0-7.142 8.707 7.965 7.965 0 0 0 8.706 7.142 7.965 7.965 0 0 0 7.143-8.706 7.97 7.97 0 0 0-7.013-7.128m-.915 12.122a4.22 4.22 0 0 1-4.224-4.223 4.22 4.22 0 0 1 4.224-4.224 4.22 4.22 0 0 1 3.95 2.732 2.44 2.44 0 0 0-3.424-.433 2.44 2.44 0 0 0-.433 3.424 2.44 2.44 0 0 0 3.849.007 4.21 4.21 0 0 1-3.942 2.717"/><path d="m15.937 10.222 2.01-3.136a2.03 2.03 0 0 0 .83-3.97 2.03 2.03 0 0 0-2.04 3.2l-2.494 3.891a7.96 7.96 0 0 0-7.142 8.707 7.965 7.965 0 0 0 8.706 7.142 7.965 7.965 0 0 0 7.143-8.706 7.97 7.97 0 0 0-7.013-7.128m-.915 12.122a4.22 4.22 0 0 1-4.224-4.223 4.22 4.22 0 0 1 4.224-4.224 4.22 4.22 0 0 1 3.95 2.732 2.44 2.44 0 0 0-3.424-.433 2.44 2.44 0 0 0-.433 3.424 2.44 2.44 0 0 0 3.849.007 4.21 4.21 0 0 1-3.942 2.717"/></g></g></svg>