<svg xmlns="http://www.w3.org/2000/svg" width="500" height="500" fill="none" viewBox="0 0 500 500"><path fill="#0f0d12" d="M442.739 395.192c-23.287 24.212-51.719 43.289-83.348 55.926-72.819 28.53-138.808 12.062-162.452 4.743-20.587-6.374-58.057-18.448-90.78-52.557-28.63-29.85-38.84-61.115-43.448-75.789-17.275-54.943-6.579-102.704.154-125.034 0 .5-.335 4.339-.63 10.634-.99 21.737-2.61 67.703 20.49 112.472 7.624 14.783 24.411 41.978 59.048 66.235 25.367 19.039 54.979 32.117 86.492 38.198a214.3 214.3 0 0 0 95.066-3.159c22.904-5.526 62.721-18.517 98.46-50.537 14.561-13.141 27.242-28.096 37.709-44.47 7.233-11.295 17.485-27.56 23.741-51.21 3.883-14.689 8.855-34.459 2.792-57.948-1.913-7.426-5.459-20.498-16.757-32.344-6.146-6.427-12.137-9.945-18.157-13.475-13.239-7.763-24.593-10.916-39.104-14.824a315 315 0 0 0-40.502-8.086l-8.826-.889a164 164 0 0 1 18.602 42.179 159 159 0 0 1 5.867 49.998c-.504 10.632-1.049 22.304-6.412 36.265-8.281 21.561-22.666 34.526-31.688 42.463-16.982 14.726-37.321 25.382-59.369 31.104-10.991 2.761-22.457 4.918-22.457 4.918 6.066.069 12.131-.25 18.155-.957 6.285-.687 10.796-1.172 16.759-2.344a180 180 0 0 0 22.486-6.267c9.594-3.437 35.235-12.87 53.824-32.572 14.329-15.202 20.209-30.443 24.707-42.611 0 0 15.92-43.124-1.398-95.682a161.6 161.6 0 0 1 19.93 36.385 128.6 128.6 0 0 1 6.983 45.821c-.972 21.744-7.187 42.97-18.156 61.989-11.755 19.846-27.983 36.887-47.485 49.863-43.224 29-88.068 28.65-99.157 28.3-14.68-.473-55.935-2.358-93.378-31.845-50.878-40.078-54.02-98.524-54.355-107.931-.391-10.647-1.523-82.677 59.677-122.633 50.863-33.206 108.404-18.57 117.063-16.172l-17.165 37.073 5.323 5.094 23.029-42.395a52089 52089 0 0 1-7.094 42.395l7.094-3.395 9.484-36.009c4.859 1.576 30.625 9.433 52.594-2.991 11.898-7.571 21.58-17.966 28.113-30.187 0-.095 1.398-2.615 3.213-6.011a439 439 0 0 0 3.548-6.738 500 500 0 0 0-14.052-4.192c-1.772-.498-3.839-1.064-7.722-2.17l-8.017-2.29a157 157 0 0 1-5.209-3.019c-20.489-12.344-22.276-19.176-37.107-28.421a122.3 122.3 0 0 0-31.898-13.57 147.3 147.3 0 0 0-27.597-5.566s-4.916-.593-9.163-.957c-7.178-.634-21.55-.553-40.04.795-2.449-6.907-7.365-12.747-13.867-16.477-6.504-3.73-14.169-5.106-21.628-3.883-7.457 1.224-14.222 4.967-19.082 10.561s-7.499 12.674-7.446 19.974c-27.342 11.053-52.515 26.55-74.424 45.819C8.844 142.876 1.29 229.865.492 241.226c-1.075 15.254-5.167 95.061 53.155 166.161 80.123 97.637 214.546 101.504 277.001 85.372a260.4 260.4 0 0 0 58.476-23.731c26.426-15.828 49.319-36.576 67.345-61.034a234 234 0 0 0 19.788-34.364 284 284 0 0 0 12.571-30.997 223.6 223.6 0 0 0 8.072-28.824 170 170 0 0 0 3.1-19.689s-19.776 62.26-57.261 101.072"/></svg>