<svg xmlns="http://www.w3.org/2000/svg" width="146" height="27" fill="none" viewBox="0 0 146 27"><path fill="#fff" fill-rule="evenodd" d="M21.186 4.338H5.508V.426h15.678C23.293.426 25 2.178 25 4.338zm0 1.304V26.07c2.107 0 3.814-1.752 3.814-3.912V6.076h-3.814zm-1.27 16.516h-.424v3.912H3.814C1.707 26.07 0 24.318 0 22.158h19.915M3.813.426V20.42H0V4.338C0 2.178 1.707.426 3.814.426M12.14 8.25a.7.7 0 0 0-.7.7v2.777H8.75a.7.7 0 0 0-.7.7v1.207a.7.7 0 0 0 .7.7h2.69v2.777a.7.7 0 0 0 .7.7h1.143a.7.7 0 0 0 .7-.7v-2.777h2.69a.7.7 0 0 0 .7-.7v-1.207a.7.7 0 0 0-.7-.7h-2.69V8.949a.7.7 0 0 0-.7-.7z" clip-rule="evenodd"/><path fill="#fff" d="M38.327 18.797q-1.17 0-2.175-.405a5.7 5.7 0 0 1-1.77-1.155q-.75-.75-1.185-1.725-.42-.99-.42-2.13t.42-2.115q.435-.99 1.185-1.725.765-.75 1.77-1.155 1.005-.42 2.175-.42t2.175.42q1.02.405 1.77 1.155.765.735 1.185 1.725.42.975.42 2.115t-.42 2.13a5.4 5.4 0 0 1-1.185 1.725q-.75.735-1.77 1.155-1.005.405-2.175.405m0-1.995q.72 0 1.32-.255.6-.27 1.05-.72.45-.465.705-1.095t.255-1.35q0-.735-.255-1.35a3.2 3.2 0 0 0-.705-1.08q-.45-.465-1.05-.72-.6-.27-1.32-.27-.705 0-1.305.27-.6.255-1.05.72-.45.45-.705 1.08-.255.615-.255 1.335 0 .735.255 1.365t.705 1.095q.45.45 1.05.72.6.255 1.305.255m9.726 1.83-4.26-10.5h2.355l3.21 8.265 3.285-8.265h2.25l-4.32 10.5zm7.732 0v-10.5h8.07v1.89H57.96v2.4h3.885v1.83H57.96v2.49h5.955v1.89zm9.668 0v-10.5h5.13q1.065 0 1.875.42.825.405 1.275 1.14.465.735.465 1.695 0 1.005-.555 1.77t-1.485 1.14l2.325 4.335h-2.43l-2.055-4.02h-2.37v4.02zm2.175-5.805h2.76q.735 0 1.17-.39.45-.39.45-1.02t-.45-1.02q-.435-.39-1.17-.39h-2.76zm8.005 5.805v-10.5h2.07l5.22 6.78v-6.78h2.04v10.5h-1.92l-5.355-7.02v7.02zm11.236 0v-10.5h2.175v10.5zm9.247.165q-1.17 0-2.175-.405a5.7 5.7 0 0 1-1.77-1.155q-.765-.75-1.2-1.725-.42-.99-.42-2.13t.42-2.115q.435-.99 1.185-1.725.75-.75 1.755-1.155 1.02-.42 2.175-.42 1.305 0 2.46.525 1.155.51 1.905 1.44l-1.515 1.395a3.56 3.56 0 0 0-2.85-1.365q-.705 0-1.305.27-.6.255-1.05.72-.45.45-.705 1.08-.24.615-.24 1.35t.255 1.365.705 1.095q.465.45 1.065.72.615.255 1.335.255.75 0 1.35-.27.6-.285 1.005-.78.42-.51.555-1.14H95.95v-1.89h5.43v.66q0 1.17-.405 2.16-.39.975-1.095 1.71a5.05 5.05 0 0 1-1.665 1.125q-.96.405-2.1.405m6.749-.165v-10.5h2.175v4.23h4.83v-4.23h2.175v10.5h-2.175v-4.305h-4.83v4.305zm13.954 0v-8.58h-3.54v-1.92h9.24v1.92h-3.525v8.58z"/></svg>