<svg xmlns="http://www.w3.org/2000/svg" width="150" height="150" fill="none" viewBox="0 0 150 150"><path fill="#0497ec" fill-rule="evenodd" d="M127.118 22.881H33.051V0h94.068C139.756 0 150 10.244 150 22.881zm.001 10.17V150C139.756 150 150 139.756 150 127.119v-96.61 2.541zM22.881 0v116.949H0V22.881C0 10.244 10.244 0 22.881 0m96.611 127.119H0C0 139.756 10.244 150 22.881 150h94.068v-22.881zM69.35 45.762a.7.7 0 0 0-.7.7v19.64H49.008a.7.7 0 0 0-.7.7v13.855a.7.7 0 0 0 .7.7h19.644v19.637a.7.7 0 0 0 .7.7h13.854a.7.7 0 0 0 .7-.7V81.357h19.634a.7.7 0 0 0 .7-.7V66.803a.7.7 0 0 0-.7-.7H83.905V46.462a.7.7 0 0 0-.7-.7z" clip-rule="evenodd"/></svg>