<svg id="Layer_1" data-name="Layer 1" xmlns="http://www.w3.org/2000/svg" viewBox="0 0 1365.48 643.91"><defs><style>.cls-1{fill:#1c39bb;}.cls-2{fill:#fff;}</style></defs><path class="cls-1" d="M31.08,322c0-236.43,68.1-304.54,304.54-304.54S640.16,85.52,640.16,322,572.05,626.5,335.62,626.5,31.08,558.39,31.08,322Z"/><path class="cls-2" d="M408.93,235.6h76.21a48.58,48.58,0,0,1,48.57,48.57v94.56a29.58,29.58,0,0,1-29.58,29.58h0V283.74a19,19,0,0,0-19-19H409.72a19,19,0,0,0-14.7,7L373.5,298.32l-19.1-23.38,17.78-21.88A47.38,47.38,0,0,1,408.93,235.6Z"/><path class="cls-2" d="M298,390.85a47.41,47.41,0,0,1-36.75,17.46H186.1a48.58,48.58,0,0,1-48.58-48.57V284.17A48.58,48.58,0,0,1,186.1,235.6h75.42a47.4,47.4,0,0,1,36.75,17.46l97,119.11a19,19,0,0,0,14.7,7H474.5v29.16H409.21a47.4,47.4,0,0,1-36.75-17.46l-97-119.09a19,19,0,0,0-14.7-7H186.07a19,19,0,0,0-19,19v76.45a19,19,0,0,0,19,19h74.37a18.94,18.94,0,0,0,14.69-7L297,345.39l19,23.37Z"/><path d="M714.64,260.27a1,1,0,0,1,.32-.69,1,1,0,0,1,.69-.32H858A35.75,35.75,0,0,1,893.69,295v12.54A35.75,35.75,0,0,1,858,343.4H739.72v40.12a1.09,1.09,0,0,1-.31.81,1.12,1.12,0,0,1-.82.32H715.65a1,1,0,0,1-.69-.32,1.1,1.1,0,0,1-.32-.81ZM858,322a10.17,10.17,0,0,0,7.53-3.19,10.46,10.46,0,0,0,3.13-7.59V291.49a10.4,10.4,0,0,0-3.13-7.65A10.27,10.27,0,0,0,858,280.7H739.72V322Z"/><path d="M931.3,295a35.75,35.75,0,0,1,35.86-35.74h107.45A35.85,35.85,0,0,1,1110.47,295v88.52a1.08,1.08,0,0,1-1.13,1.13H1086.4a1,1,0,0,1-.69-.32,1.1,1.1,0,0,1-.32-.81V343.4h-129v40.12a1.1,1.1,0,0,1-.32.81,1,1,0,0,1-.69.32H932.43a1.07,1.07,0,0,1-.81-.32,1.1,1.1,0,0,1-.32-.81ZM1085.39,322V291.49a10.31,10.31,0,0,0-3.19-7.65,10.47,10.47,0,0,0-7.59-3.14H967.16a10.7,10.7,0,0,0-10.78,10.79V322Z"/><path d="M1309.33,260.27a1,1,0,0,1,.31-.69,1.1,1.1,0,0,1,.81-.32h22.82a1.11,1.11,0,0,1,.82.32,1,1,0,0,1,.31.69v35.1a24.44,24.44,0,0,1-4.14,13.86,24.81,24.81,0,0,1-11.15,9.21l-65.33,27.71v37.37a1.09,1.09,0,0,1-.31.81,1,1,0,0,1-.69.32h-23a1.09,1.09,0,0,1-1.13-1.13V346.15l-65.32-27.71a25,25,0,0,1-15.29-23.07v-35.1a1,1,0,0,1,.31-.69,1.1,1.1,0,0,1,.81-.32h23a1,1,0,0,1,.69.32,1,1,0,0,1,.31.69v30.21q0,6.52,6.65,9.91l61.43,25.83,61.57-25.83q6.51-3.39,6.52-9.91Z"/></svg>