<svg xmlns="http://www.w3.org/2000/svg" width="74" height="74" fill="none" viewBox="0 0 74 74"><circle cx="37" cy="37" r="37" fill="#fff"/><path fill="#8c6edf" d="M47.37 26.195V36.72c0 2.878-.96 5.828-2.701 8.303-1.561 2.221-3.68 3.992-6.316 5.283 1.16.486 2.728 1.083 3.348 1.317 2.099-1.346 3.854-3.014 5.248-4.995 2.07-2.942 3.21-6.461 3.21-9.908V26.638a87 87 0 0 0-2.788-.443M37.003 50.908c-3.27-1.32-5.844-3.296-7.664-5.885-1.743-2.475-2.702-5.425-2.702-8.303V30.3c-.901.135-2.789.488-2.789.488v5.932c0 3.447 1.14 6.966 3.209 9.908 2.331 3.314 5.674 5.754 9.946 7.26h.002a23 23 0 0 0 3.549-1.584c-.066-.024-2.19-.818-3.55-1.396m0-25.511c-5.146 0-10.181.72-13.155 1.241v2.863s1.888-.353 2.789-.489c2.924-.433 6.618-.827 10.366-.827 3.22 0 6.397.29 9.081.648v-2.812c-2.661-.34-5.85-.624-9.08-.624"/><path fill="url(#a)" d="M38.867 6.87c-.032.447.255.799.703.863a.78.78 0 0 0 .83-.704c.033-.447-.255-.83-.702-.863h-.064a.77.77 0 0 0-.767.704m-4.571-.704c-.416.032-.735.416-.703.863.032.416.415.736.863.704a.81.81 0 0 0 .703-.863c-.032-.384-.383-.704-.8-.704zm9.78 1.503a.73.73 0 0 0 .544.927c.416.127.831-.128.959-.544.096-.415-.16-.83-.575-.959h-.192c-.352 0-.671.224-.735.576M28.99 7.093c-.415.128-.671.544-.543.96a.76.76 0 0 0 .959.543c.415-.096.639-.512.543-.927a.79.79 0 0 0-.767-.576zm7 2.078a1.03 1.03 0 0 0 1.023 1.023c.543 0 1.023-.48 1.023-1.023a1.03 1.03 0 0 0-1.023-1.023 1.01 1.01 0 0 0-1.023 1.023m4.858.224c-.096.575.256 1.087.8 1.182.575.096 1.086-.255 1.182-.799.096-.575-.256-1.087-.799-1.182-.064-.032-.128-.032-.192-.032-.48 0-.927.351-.99.83m-8.853-.8a1.02 1.02 0 0 0-.831 1.183c.095.544.639.895 1.182.8.544-.096.927-.608.831-1.183a1.02 1.02 0 0 0-.99-.831c-.064 0-.128 0-.192.032m17.068.736c-.192.383-.032.863.351 1.023.416.191.863.032 1.055-.352.16-.416 0-.863-.383-1.055a1.1 1.1 0 0 0-.32-.064.77.77 0 0 0-.703.448m-25.155-.384c-.384.192-.543.64-.352 1.055.16.384.64.543 1.023.352.384-.16.544-.64.384-1.023a.77.77 0 0 0-.703-.448c-.128 0-.224.032-.352.064m21.67 1.535c-.19.543.065 1.118.608 1.31a1.02 1.02 0 0 0 1.31-.607c.192-.512-.095-1.12-.607-1.31-.128-.033-.255-.065-.351-.065-.416 0-.831.256-.96.672m-18.442-.608c-.543.192-.799.8-.607 1.31.192.544.767.8 1.31.608.512-.192.8-.767.608-1.31a1.03 1.03 0 0 0-.96-.672c-.127 0-.223.032-.35.064m10.9 1.726a1.19 1.19 0 0 0 1.086 1.31c.64.065 1.215-.447 1.279-1.086a1.19 1.19 0 0 0-1.087-1.31h-.096c-.607 0-1.15.479-1.182 1.086m-3.356-1.087c-.64.064-1.12.64-1.087 1.311.064.64.64 1.15 1.31 1.087.64-.064 1.119-.64 1.087-1.31-.064-.608-.575-1.088-1.183-1.088zm7.735 1.663c-.16.639.223 1.278.863 1.47.639.16 1.278-.224 1.438-.863a1.14 1.14 0 0 0-.831-1.438 1.1 1.1 0 0 0-.32-.064c-.511 0-.99.351-1.15.895m-12.306-.832c-.607.16-.991.8-.831 1.439.16.64.83 1.023 1.47.863.64-.192 1.023-.831.831-1.47a1.164 1.164 0 0 0-1.15-.895c-.096 0-.192.031-.32.063m23.557.512c-.224.351-.16.831.191 1.055.352.255.831.16 1.087-.192a.734.734 0 0 0-.192-1.055.76.76 0 0 0-.447-.16.82.82 0 0 0-.64.352m-34.424-.192c-.352.224-.416.703-.192 1.055.255.352.735.447 1.087.192a.734.734 0 0 0 .191-1.055c-.16-.224-.383-.352-.639-.352-.16 0-.288.064-.448.16m30.812.735a.997.997 0 0 0 .351 1.375c.512.287 1.119.128 1.407-.384.287-.48.096-1.087-.384-1.374a.94.94 0 0 0-.511-.128.95.95 0 0 0-.863.511m-27.488-.383a.997.997 0 0 0-.352 1.374c.256.512.895.671 1.375.384.479-.288.67-.895.383-1.375-.192-.351-.543-.511-.895-.511-.16 0-.352.032-.511.128m24.1 1.47a1.19 1.19 0 0 0 .575 1.598c.575.256 1.31 0 1.566-.575a1.19 1.19 0 0 0-.575-1.598 1.3 1.3 0 0 0-.512-.096 1.16 1.16 0 0 0-1.054.671m-20.904-.575c-.575.287-.863.99-.575 1.598.287.575.99.831 1.598.575.575-.287.863-.99.575-1.598-.192-.415-.64-.671-1.087-.671-.16 0-.351.032-.511.096m9.844 1.278c0 .8.64 1.407 1.407 1.407s1.374-.608 1.374-1.407c0-.767-.607-1.374-1.374-1.374s-1.407.607-1.407 1.374m3.996.128c-.16.735.351 1.47 1.119 1.598a1.407 1.407 0 0 0 1.63-1.118c.127-.768-.384-1.47-1.151-1.63h-.224c-.671 0-1.278.479-1.374 1.15m-6.808-1.15a1.433 1.433 0 0 0-1.119 1.63c.128.767.863 1.246 1.598 1.118a1.4 1.4 0 0 0 1.15-1.598 1.4 1.4 0 0 0-1.373-1.15zm10.707 1.95c-.287.702.096 1.502.831 1.757.703.288 1.503-.096 1.79-.83.256-.704-.128-1.503-.83-1.759a1.3 1.3 0 0 0-.48-.096c-.575 0-1.119.352-1.31.927m-14.766-.832a1.363 1.363 0 0 0-.832 1.758 1.36 1.36 0 0 0 1.79.831c.703-.255 1.087-1.054.831-1.758-.223-.575-.735-.927-1.31-.927q-.24 0-.48.096m25.378.735a1.044 1.044 0 0 0 .128 1.439c.447.351 1.087.32 1.438-.128.352-.416.32-1.087-.128-1.438a.98.98 0 0 0-.639-.224c-.288 0-.575.128-.799.351m-35.67-.127c-.416.351-.48 1.022-.128 1.438a1.02 1.02 0 0 0 1.438.128.99.99 0 0 0 .128-1.439 1.02 1.02 0 0 0-.767-.351c-.224 0-.48.064-.672.223m39.346.223a.833.833 0 0 0 0 1.119c.32.288.799.288 1.086 0 .32-.32.32-.8 0-1.119-.127-.16-.351-.223-.543-.223a.75.75 0 0 0-.543.223m-42.67 0c-.32.32-.32.8 0 1.119.319.288.798.288 1.086 0 .32-.32.32-.8 0-1.119-.128-.16-.351-.223-.543-.223a.75.75 0 0 0-.544.223m35.478.416a1.185 1.185 0 0 0 .288 1.662c.543.384 1.278.224 1.662-.288.383-.543.256-1.31-.288-1.662a1.15 1.15 0 0 0-.703-.224c-.352 0-.735.16-.959.512m-28.83-.288c-.544.352-.672 1.119-.288 1.662a1.21 1.21 0 0 0 1.662.288c.511-.384.671-1.119.288-1.662a1.19 1.19 0 0 0-.991-.512c-.224 0-.48.064-.671.224M37.3 17.066c-.064.8.51 1.502 1.31 1.566.8.096 1.502-.511 1.566-1.31.064-.8-.511-1.47-1.31-1.566h-.128c-.735 0-1.375.575-1.438 1.31m-2.142-1.31c-.8.095-1.406.767-1.31 1.566.064.799.767 1.406 1.534 1.31.799-.064 1.406-.767 1.31-1.566a1.424 1.424 0 0 0-1.406-1.31zm12.05.799a1.406 1.406 0 0 0 .511 1.918c.64.383 1.503.16 1.886-.512a1.406 1.406 0 0 0-1.214-2.11c-.48 0-.927.256-1.183.704m-22.31-.512a1.406 1.406 0 0 0-.512 1.918 1.406 1.406 0 0 0 1.918.512 1.406 1.406 0 0 0-.703-2.622c-.224 0-.48.064-.703.192m15.853 1.407a1.46 1.46 0 0 0 1.023 1.758c.767.191 1.567-.256 1.758-1.023.224-.767-.255-1.566-1.023-1.758a1.7 1.7 0 0 0-.351-.064c-.64 0-1.247.415-1.407 1.087m-9.269-1.023c-.767.192-1.214.99-1.023 1.758.224.767.991 1.214 1.758 1.023.8-.224 1.247-.991 1.023-1.758a1.396 1.396 0 0 0-1.374-1.087c-.128 0-.256.032-.384.064m12.626 1.95c-.352.735-.032 1.598.67 1.917a1.414 1.414 0 0 0 1.919-.703c.351-.703.032-1.566-.672-1.918-.223-.064-.415-.127-.607-.127-.543 0-1.087.32-1.31.83m-16.11-.704a1.46 1.46 0 0 0-.703 1.918c.352.735 1.183 1.055 1.918.703.735-.32 1.023-1.182.703-1.917a1.48 1.48 0 0 0-1.31-.831c-.192 0-.416.063-.608.127m26.114.544c-.48.447-.48 1.214 0 1.694.48.447 1.215.447 1.694 0 .447-.48.447-1.247 0-1.694-.256-.224-.543-.352-.863-.352-.288 0-.607.128-.831.352m-35.894 0c-.48.447-.48 1.214 0 1.694a1.197 1.197 0 0 0 1.662 0c.48-.48.48-1.247 0-1.694a1.16 1.16 0 0 0-.831-.352c-.288 0-.608.128-.831.352m39.474.128a.954.954 0 0 0-.128 1.406.954.954 0 0 0 1.406.128.99.99 0 0 0 .128-1.439 1.02 1.02 0 0 0-.767-.351.95.95 0 0 0-.64.256m-42.798.096a1.044 1.044 0 0 0 .127 1.438c.416.383 1.087.32 1.439-.128a1.01 1.01 0 0 0-.128-1.406 1.03 1.03 0 0 0-.671-.256 1.02 1.02 0 0 0-.767.352m35.702.191c-.511.608-.416 1.47.16 1.982.607.48 1.47.416 1.982-.192.479-.575.415-1.47-.192-1.95a1.34 1.34 0 0 0-.895-.32c-.384 0-.8.16-1.055.48m-29.15-.16c-.575.48-.671 1.375-.16 1.95.48.608 1.375.671 1.95.192a1.416 1.416 0 0 0 .192-1.982 1.43 1.43 0 0 0-1.087-.48c-.32 0-.64.097-.895.32m39.826.576c-.352.256-.448.735-.192 1.087.256.351.735.447 1.087.191.351-.223.447-.735.191-1.086a.83.83 0 0 0-.639-.32c-.16 0-.32.032-.447.128m-49.607.192c-.255.351-.191.863.16 1.086.352.256.863.16 1.087-.191.256-.352.16-.832-.192-1.087a.73.73 0 0 0-.447-.128.77.77 0 0 0-.608.32m35.32 1.47c0 .767.639 1.406 1.406 1.406.799 0 1.438-.639 1.438-1.406 0-.8-.64-1.438-1.438-1.438-.768 0-1.407.639-1.407 1.438m-22.79 0c0 .767.639 1.406 1.406 1.406s1.407-.639 1.407-1.406c0-.8-.64-1.438-1.407-1.438s-1.406.639-1.406 1.438m28.926 1.63c0 .767.64 1.407 1.407 1.407.799 0 1.406-.64 1.406-1.407 0-.799-.607-1.438-1.407-1.438-.767 0-1.406.639-1.406 1.438m-35 0c0 .767.64 1.407 1.407 1.407.8 0 1.439-.64 1.439-1.407 0-.799-.64-1.438-1.439-1.438-.767 0-1.406.639-1.406 1.438m38.996-.863c-.544.352-.672 1.119-.288 1.662a1.185 1.185 0 0 0 1.662.288 1.185 1.185 0 0 0 .288-1.662c-.224-.352-.608-.512-.991-.512-.224 0-.48.064-.672.224m-41.904.288a1.22 1.22 0 0 0 .32 1.662 1.185 1.185 0 0 0 1.662-.288c.351-.543.224-1.31-.32-1.662a1.06 1.06 0 0 0-.671-.224c-.383 0-.735.16-.99.512m34.872.895c0 .607.48 1.087 1.086 1.087.608 0 1.087-.48 1.087-1.087 0-.608-.48-1.087-1.087-1.087s-1.086.48-1.086 1.087m-28.32 0c0 .607.48 1.087 1.055 1.087.608 0 1.087-.48 1.087-1.087 0-.608-.48-1.087-1.087-1.087-.575 0-1.054.48-1.054 1.087m38.835-.448a.997.997 0 0 0-.351 1.375 1 1 0 0 0 1.374.383c.48-.287.64-.895.384-1.406a1.06 1.06 0 0 0-.895-.512c-.16 0-.352.064-.512.16m-48.583.352c-.288.511-.128 1.119.351 1.406a1.036 1.036 0 0 0 1.407-.383c.287-.48.128-1.087-.384-1.375a.97.97 0 0 0-.511-.16c-.352 0-.671.192-.863.512m52.003.99a.8.8 0 0 0-.383 1.024c.192.383.64.575 1.055.383a.757.757 0 0 0 .351-1.023.77.77 0 0 0-.703-.447c-.096 0-.224 0-.32.064m-55.072.384c-.191.384 0 .831.384 1.023a.76.76 0 0 0 1.023-.383c.192-.384.032-.831-.384-1.023-.096-.064-.191-.064-.32-.064a.77.77 0 0 0-.703.447m47.114.448a1.406 1.406 0 0 0-.512 1.918 1.37 1.37 0 0 0 1.886.511 1.406 1.406 0 0 0 .512-1.918c-.256-.447-.704-.671-1.215-.671-.224 0-.448.032-.671.16m-40.018.511a1.406 1.406 0 0 0 .512 1.918c.67.384 1.534.16 1.917-.511a1.406 1.406 0 0 0-.511-1.918c-.224-.128-.48-.16-.703-.16-.48 0-.96.224-1.215.671m36.438.448c0 .575.48 1.087 1.087 1.087s1.086-.512 1.086-1.087c0-.608-.48-1.087-1.086-1.087-.608 0-1.087.48-1.087 1.087m-33.146 0c0 .575.512 1.087 1.087 1.087.607 0 1.087-.512 1.087-1.087 0-.608-.48-1.087-1.087-1.087-.575 0-1.087.48-1.087 1.087m40.178-.16a1.19 1.19 0 0 0-.576 1.598c.256.607.991.863 1.566.575a1.19 1.19 0 0 0 .576-1.598 1.16 1.16 0 0 0-1.055-.671c-.192 0-.352.032-.511.096m-46.602.575a1.19 1.19 0 0 0 .575 1.598 1.19 1.19 0 0 0 1.598-.575c.256-.607 0-1.31-.575-1.598a1.5 1.5 0 0 0-.511-.096c-.448 0-.895.256-1.087.671m49.894.767c-.512.192-.8.767-.607 1.31.191.512.799.8 1.31.608.543-.192.8-.767.607-1.31a1.03 1.03 0 0 0-.959-.672c-.095 0-.223.032-.351.064m-52.93.608a1.03 1.03 0 0 0 .607 1.31 1.03 1.03 0 0 0 1.31-.607c.192-.544-.064-1.119-.607-1.31-.128-.033-.224-.064-.352-.064-.415 0-.799.255-.959.67m43.789 1.47c0 .767.639 1.407 1.438 1.407.767 0 1.406-.64 1.406-1.407s-.64-1.406-1.406-1.406c-.8 0-1.438.639-1.438 1.406m-36.15 0c0 .767.639 1.407 1.406 1.407s1.406-.64 1.406-1.407-.639-1.406-1.406-1.406-1.407.639-1.407 1.406m40.433-.703c-.704.256-1.087 1.055-.831 1.79.255.703 1.054 1.087 1.79.83.734-.255 1.086-1.054.83-1.79a1.37 1.37 0 0 0-1.31-.926q-.24 0-.48.096m-43.694.83c-.255.736.128 1.535.831 1.79.736.257 1.535-.127 1.79-.83a1.36 1.36 0 0 0-.83-1.79 1.3 1.3 0 0 0-.48-.096c-.544 0-1.087.352-1.31.927m51.684-.287c-.415.096-.639.544-.543.96a.8.8 0 0 0 .959.543.76.76 0 0 0 .543-.96.78.78 0 0 0-.735-.575c-.096 0-.16 0-.224.032m-58.843.544c-.096.415.16.863.575.959s.831-.128.927-.544a.76.76 0 0 0-.543-.959c-.064-.032-.128-.032-.192-.032a.79.79 0 0 0-.767.576m54.113.287a1.21 1.21 0 0 0-.831 1.47 1.17 1.17 0 0 0 1.47.832c.64-.16.99-.8.831-1.439-.128-.543-.64-.895-1.15-.895-.097 0-.192 0-.32.032m-49.894.863c-.16.64.224 1.279.863 1.439.639.192 1.278-.192 1.47-.831.16-.64-.224-1.279-.863-1.47-.096-.033-.192-.033-.32-.033-.511 0-.99.352-1.15.895m44.524.32c-.767.224-1.247 1.023-1.023 1.79a1.4 1.4 0 0 0 1.758.99c.767-.19 1.215-.99 1.023-1.757-.16-.64-.767-1.055-1.407-1.055-.095 0-.223 0-.351.032m-39.41 1.023a1.4 1.4 0 0 0 .99 1.758 1.446 1.446 0 0 0 1.79-.991 1.49 1.49 0 0 0-1.022-1.79c-.128-.032-.256-.032-.384-.032-.64 0-1.214.416-1.374 1.055m47.816-.32c-.543.096-.927.64-.83 1.183.095.543.638.927 1.182.83.543-.095.927-.638.83-1.182a1.02 1.02 0 0 0-.99-.83zm-55.647.831c-.128.544.256 1.087.799 1.183a1.02 1.02 0 0 0 1.183-.831 1.015 1.015 0 0 0-.831-1.183h-.16c-.48 0-.927.352-.991.831m50.629-.32a1.413 1.413 0 0 0-1.15 1.63c.127.736.862 1.247 1.63 1.12.767-.128 1.246-.864 1.118-1.63a1.4 1.4 0 0 0-1.374-1.151c-.064 0-.16.032-.224.032m-46.058 1.12a1.413 1.413 0 0 0 1.15 1.63c.735.127 1.47-.384 1.598-1.12.128-.766-.351-1.501-1.118-1.63-.096 0-.16-.031-.256-.031-.671 0-1.247.48-1.374 1.15m53.825.798a.81.81 0 0 0-.703.864.78.78 0 0 0 .83.703.75.75 0 0 0 .704-.863.77.77 0 0 0-.767-.704zm-60.825.704c-.032.447.287.83.703.863.447.032.799-.288.863-.703.032-.448-.288-.8-.735-.864h-.064a.79.79 0 0 0-.767.704m56.03-.704c-.67.064-1.15.64-1.086 1.311.064.64.64 1.15 1.278 1.087a1.19 1.19 0 0 0 1.087-1.31c-.064-.608-.575-1.088-1.183-1.088zm-51.683 1.087a1.214 1.214 0 0 0 1.086 1.31 1.214 1.214 0 0 0 1.31-1.086c.033-.671-.447-1.247-1.086-1.31h-.128c-.607 0-1.118.479-1.182 1.086m46.154-.83c-.8.063-1.374.766-1.31 1.565.063.768.767 1.375 1.566 1.31.799-.095 1.374-.766 1.31-1.565a1.43 1.43 0 0 0-1.438-1.31zm-40.912 1.31c-.064.799.543 1.47 1.31 1.566.8.064 1.502-.543 1.566-1.31a1.44 1.44 0 0 0-1.31-1.567h-.128a1.43 1.43 0 0 0-1.438 1.31m42.638 1.854c0 .767.64 1.374 1.406 1.374.767 0 1.407-.607 1.407-1.374s-.64-1.407-1.407-1.407-1.406.64-1.406 1.407m-45.579 0c0 .767.607 1.374 1.374 1.374s1.407-.607 1.407-1.374-.64-1.407-1.407-1.407-1.374.64-1.374 1.407m51.013 0a1.03 1.03 0 0 0 1.023 1.022c.543 0 1.022-.479 1.022-1.022a1.03 1.03 0 0 0-1.022-1.023 1.01 1.01 0 0 0-1.023 1.023m-55.68 0a1.03 1.03 0 0 0 1.023 1.022c.544 0 .991-.479.991-1.022 0-.576-.447-1.023-.99-1.023a1.01 1.01 0 0 0-1.024 1.023m47.21 1.598c-.064.799.51 1.502 1.31 1.566s1.502-.511 1.566-1.31a1.44 1.44 0 0 0-1.31-1.567h-.128c-.735 0-1.375.576-1.439 1.31M17.067 37.3c-.767.063-1.374.766-1.31 1.566.064.799.767 1.374 1.566 1.31a1.44 1.44 0 0 0 1.31-1.566 1.454 1.454 0 0 0-1.438-1.31zm44.045 1.821c-.064.64.415 1.215 1.087 1.279.639.064 1.214-.416 1.278-1.087.064-.64-.415-1.215-1.087-1.279h-.096c-.607 0-1.118.448-1.182 1.087m-49.51-1.087c-.64.064-1.151.64-1.087 1.279.064.671.639 1.15 1.31 1.087a1.23 1.23 0 0 0 1.087-1.279c-.064-.64-.575-1.087-1.215-1.087zM66.29 39.57a.78.78 0 0 0 .703.83c.415.065.8-.255.831-.702.064-.416-.256-.8-.703-.832h-.064a.766.766 0 0 0-.767.704m-59.42-.704a.78.78 0 0 0-.702.832c.032.447.415.767.83.703a.784.784 0 0 0 .736-.831c-.064-.416-.384-.704-.8-.704zm51.205 1.854c-.127.767.384 1.47 1.151 1.63a1.4 1.4 0 0 0 1.598-1.15c.128-.735-.351-1.47-1.119-1.598-.095-.032-.16-.032-.255-.032-.672 0-1.247.48-1.375 1.15M14.32 39.601a1.4 1.4 0 0 0-1.15 1.598 1.413 1.413 0 0 0 1.63 1.15 1.402 1.402 0 0 0-.256-2.78c-.064 0-.16 0-.224.032m40.497 2.173c-.224.767.256 1.566 1.023 1.758.767.224 1.534-.223 1.758-1.023a1.46 1.46 0 0 0-1.023-1.758c-.128-.032-.256-.032-.383-.032-.64 0-1.215.416-1.375 1.055M17.42 40.751c-.768.224-1.215.991-.991 1.758.192.8.99 1.247 1.758 1.023.767-.191 1.214-.99 1.022-1.758a1.47 1.47 0 0 0-1.406-1.055c-.128 0-.256 0-.383.032m45.994.927c-.096.544.288 1.055.831 1.151.544.128 1.087-.256 1.183-.8a1.02 1.02 0 0 0-.831-1.182c-.064-.032-.16-.032-.16-.032a1.03 1.03 0 0 0-1.023.863m-54.017-.83a.98.98 0 0 0-.8 1.182c.097.543.608.927 1.152.799a.984.984 0 0 0 .83-1.15 1 1 0 0 0-.99-.864c-.064 0-.128 0-.192.032m50.98 2.428c-.16.64.192 1.28.832 1.439a1.17 1.17 0 0 0 1.47-.831 1.21 1.21 0 0 0-.831-1.47c-.128 0-.224-.032-.32-.032-.543 0-1.023.351-1.15.895m-48.2-.863c-.638.192-1.022.832-.862 1.47.192.64.83 1.024 1.47.832.64-.16 1.023-.8.863-1.439-.16-.543-.64-.895-1.15-.895-.128 0-.224.032-.32.032m44.94 1.918c-.255.735.128 1.535.832 1.79.735.256 1.534-.128 1.79-.83.255-.736-.096-1.535-.832-1.79a1.3 1.3 0 0 0-.48-.097c-.574 0-1.086.352-1.31.927m-42.03-.83c-.704.255-1.087 1.054-.832 1.79.288.703 1.087 1.086 1.79.83a1.36 1.36 0 0 0 .831-1.79 1.37 1.37 0 0 0-1.31-.927q-.24 0-.48.096m38.61 1.31c-.32.703 0 1.566.704 1.918.735.32 1.598 0 1.917-.704a1.414 1.414 0 0 0-.703-1.917 1.3 1.3 0 0 0-.607-.16c-.543 0-1.055.32-1.31.863m-35.318-.703c-.704.32-1.023 1.182-.704 1.917.352.704 1.215 1.023 1.918.704.735-.352 1.055-1.215.703-1.918-.255-.544-.767-.863-1.31-.863-.192 0-.416.064-.608.16m47.017.511a.8.8 0 0 0 .543.959c.416.096.863-.16.96-.575a.73.73 0 0 0-.544-.927c-.064-.032-.128-.032-.192-.032a.79.79 0 0 0-.767.575M7.67 44.076a.77.77 0 0 0-.575.927c.127.415.543.67.959.575.415-.128.67-.544.543-.959a.75.75 0 0 0-.735-.575c-.064 0-.128 0-.192.032m54.529 2.11c-.192.51.095 1.118.607 1.31a1.03 1.03 0 0 0 1.31-.608c.192-.543-.064-1.118-.607-1.31a1.2 1.2 0 0 0-.352-.064c-.415 0-.799.256-.958.671m-51.716-.608c-.512.192-.8.767-.608 1.31.192.512.8.8 1.31.608.544-.192.8-.8.608-1.31a1.03 1.03 0 0 0-.959-.672c-.096 0-.224.032-.351.064m48.455 1.662a1.155 1.155 0 0 0 .576 1.566c.607.288 1.31.032 1.566-.575a1.155 1.155 0 0 0-.576-1.566.9.9 0 0 0-.479-.128c-.447 0-.895.256-1.087.703m-45.45-.575c-.608.255-.864.99-.576 1.566.287.607.99.863 1.598.575.575-.255.831-.99.575-1.566-.223-.447-.639-.703-1.086-.703-.16 0-.352.032-.512.128m38.61.927a1.43 1.43 0 0 0 .352 1.981c.671.48 1.566.32 2.014-.351a1.43 1.43 0 0 0-.352-1.982 1.38 1.38 0 0 0-.831-.288c-.447 0-.895.224-1.183.64m-32.218-.352a1.43 1.43 0 0 0-.352 1.982c.48.671 1.375.83 2.014.351a1.376 1.376 0 0 0 .351-1.981 1.37 1.37 0 0 0-1.182-.64 1.38 1.38 0 0 0-.831.288m35.67.48a1.37 1.37 0 0 0 .512 1.885c.67.384 1.502.16 1.886-.511a1.37 1.37 0 0 0-.512-1.886 1.34 1.34 0 0 0-.671-.192 1.37 1.37 0 0 0-1.215.703m-38.994-.512a1.37 1.37 0 0 0-.512 1.886 1.406 1.406 0 0 0 1.918.511 1.37 1.37 0 0 0 .511-1.886 1.41 1.41 0 0 0-1.214-.703c-.256 0-.48.064-.703.192m47.08 2.238c-.159.383 0 .83.384 1.022a.76.76 0 0 0 1.023-.383c.192-.384.032-.863-.351-1.023a.73.73 0 0 0-.352-.096.8.8 0 0 0-.703.48m-54.304-.384a.76.76 0 0 0-.384 1.023c.192.383.64.575 1.023.383.416-.191.576-.639.384-1.022a.8.8 0 0 0-.703-.48.6.6 0 0 0-.32.096m40.72.99a1.39 1.39 0 0 0 0 2.015 1.39 1.39 0 0 0 2.014 0 1.39 1.39 0 0 0 0-2.014 1.38 1.38 0 0 0-1.023-.448c-.351 0-.735.16-.99.448m-28.127 0a1.39 1.39 0 0 0 0 2.015c.576.575 1.47.575 2.046 0a1.39 1.39 0 0 0 0-2.014c-.288-.288-.64-.448-1.023-.448s-.735.16-1.023.448m38.324.352c-.288.512-.128 1.12.351 1.407.48.288 1.12.128 1.407-.384a1.036 1.036 0 0 0-.384-1.374.94.94 0 0 0-.511-.128c-.352 0-.703.16-.863.48m-47.88-.351a.997.997 0 0 0-.352 1.374c.288.512.895.672 1.374.384.512-.288.672-.895.384-1.407-.192-.32-.543-.479-.895-.479-.16 0-.352.032-.511.128m41.04.703c-.512.607-.416 1.47.16 1.982.607.48 1.47.415 1.981-.192.48-.575.416-1.47-.192-1.95a1.34 1.34 0 0 0-.894-.32c-.384 0-.8.16-1.055.48m-34.776-.16c-.575.48-.671 1.375-.16 1.95.48.607 1.375.671 1.95.192a1.416 1.416 0 0 0 .192-1.982 1.43 1.43 0 0 0-1.087-.48c-.32 0-.64.096-.895.32m38.196.288a1.185 1.185 0 0 0 .288 1.662 1.185 1.185 0 0 0 1.661-.288 1.185 1.185 0 0 0-.287-1.662 1.15 1.15 0 0 0-.703-.223c-.352 0-.736.191-.96.511m-41.296-.288a1.22 1.22 0 0 0-.32 1.662c.384.544 1.15.672 1.662.288a1.22 1.22 0 0 0 .32-1.662c-.256-.32-.607-.511-.991-.511-.224 0-.48.064-.671.223m31.451 2.685c0 .8.64 1.407 1.407 1.407.799 0 1.438-.608 1.438-1.407 0-.767-.64-1.406-1.438-1.406-.768 0-1.407.64-1.407 1.406m-22.79 0c0 .8.64 1.407 1.407 1.407s1.407-.608 1.407-1.407c0-.767-.64-1.406-1.407-1.406s-1.406.64-1.406 1.406m26.562.128c-.575.48-.671 1.375-.16 1.95.48.607 1.374.671 1.95.192a1.416 1.416 0 0 0 .192-1.982 1.43 1.43 0 0 0-1.087-.48c-.32 0-.64.096-.895.32m-29.47.16c-.511.607-.415 1.47.16 1.982.607.48 1.47.415 1.982-.192.48-.575.415-1.47-.192-1.95a1.34 1.34 0 0 0-.895-.32c-.384 0-.8.16-1.055.48m39.794.288c-.256.351-.16.863.192 1.086.351.256.83.16 1.086-.191.256-.352.16-.832-.191-1.087a.73.73 0 0 0-.448-.128.83.83 0 0 0-.64.32m-49.255-.192a.77.77 0 0 0-.16 1.087.734.734 0 0 0 1.055.191c.352-.223.448-.735.192-1.086-.128-.192-.384-.32-.64-.32a.9.9 0 0 0-.447.128m42.287.447c-.48.48-.48 1.215 0 1.694.48.448 1.215.448 1.694 0a1.237 1.237 0 0 0 0-1.694c-.256-.223-.543-.351-.863-.351-.288 0-.607.128-.831.351m-35.894 0c-.48.48-.48 1.215 0 1.694a1.197 1.197 0 0 0 1.662 0c.48-.48.48-1.214 0-1.694a1.16 1.16 0 0 0-.831-.351c-.288 0-.608.128-.831.351m39.346.128a.99.99 0 0 0 .128 1.439c.415.351 1.055.32 1.406-.128.384-.416.32-1.055-.128-1.439-.16-.16-.415-.223-.639-.223-.288 0-.575.127-.767.351m-42.543-.128c-.415.384-.479 1.023-.127 1.439.351.447.99.48 1.438.128.415-.352.48-.991.128-1.439a1.04 1.04 0 0 0-.8-.351.98.98 0 0 0-.639.223m29.31 1.183a1.16 1.16 0 0 0 1.183 1.183 1.18 1.18 0 0 0 1.183-1.183 1.2 1.2 0 0 0-1.183-1.183 1.18 1.18 0 0 0-1.183 1.183m-17.132 0a1.16 1.16 0 0 0 1.183 1.183 1.18 1.18 0 0 0 1.183-1.183 1.2 1.2 0 0 0-1.183-1.183 1.18 1.18 0 0 0-1.183 1.183m20.52.256c-.67.383-.895 1.246-.511 1.886a1.37 1.37 0 0 0 1.886.511 1.37 1.37 0 0 0 .511-1.886 1.41 1.41 0 0 0-1.214-.703c-.224 0-.48.064-.672.192m-23.332.511a1.37 1.37 0 0 0 .51 1.886c.672.384 1.535.16 1.919-.511.383-.64.16-1.503-.512-1.886a1.46 1.46 0 0 0-.703-.192c-.48 0-.959.256-1.215.703m17.132.991c0 .448.351.831.83.831.48 0 .864-.383.864-.831a.86.86 0 0 0-.863-.863c-.48 0-.831.384-.831.863m-10.74 0c0 .448.384.831.831.831.48 0 .863-.383.863-.831a.86.86 0 0 0-.863-.863c-.447 0-.83.384-.83.863m20.105-.224a1.185 1.185 0 0 0-.288 1.662 1.185 1.185 0 0 0 1.662.288 1.185 1.185 0 0 0 .288-1.662 1.23 1.23 0 0 0-.991-.511c-.224 0-.48.063-.671.223m-29.406.288a1.185 1.185 0 0 0 .288 1.662 1.185 1.185 0 0 0 1.662-.288c.383-.543.223-1.278-.288-1.662a1.15 1.15 0 0 0-.703-.224c-.384 0-.735.192-.96.512m22.853 0a1.36 1.36 0 0 0-.83 1.79c.255.735 1.054 1.087 1.79.831.702-.256 1.086-1.055.83-1.79a1.42 1.42 0 0 0-1.31-.895c-.16 0-.32 0-.48.064m-16.429.831c-.255.735.096 1.534.832 1.79a1.41 1.41 0 0 0 1.79-.831c.255-.735-.128-1.534-.832-1.79-.16-.064-.32-.064-.48-.064-.574 0-1.118.352-1.31.895m26.338-.384c-.416.352-.48.991-.128 1.439.383.415 1.023.48 1.438.128a1.02 1.02 0 0 0 .128-1.439.95.95 0 0 0-.767-.383c-.256 0-.48.096-.671.255m-35.926.128c-.352.416-.288 1.055.127 1.439a1.044 1.044 0 0 0 1.439-.128.99.99 0 0 0-.128-1.439 1 1 0 0 0-.64-.255 1.06 1.06 0 0 0-.798.383m39.474.096a.833.833 0 0 0 0 1.119c.32.288.799.288 1.086 0 .32-.32.32-.8 0-1.119-.127-.16-.351-.224-.543-.224a.75.75 0 0 0-.543.224m-42.67 0c-.32.32-.32.8 0 1.119.319.288.798.288 1.086 0 .32-.32.32-.8 0-1.119-.128-.16-.352-.224-.543-.224a.75.75 0 0 0-.544.224m25.602.288c-.768.16-1.279.863-1.12 1.63.129.767.832 1.247 1.599 1.119a1.38 1.38 0 0 0 1.15-1.598 1.43 1.43 0 0 0-1.374-1.151zm-9.046 1.15a1.383 1.383 0 0 0 1.119 1.599c.767.128 1.502-.352 1.63-1.119s-.384-1.47-1.15-1.63h-.224c-.672 0-1.247.48-1.375 1.15m3.931.576c0 .767.64 1.406 1.407 1.406s1.374-.639 1.374-1.406-.607-1.374-1.374-1.374-1.407.607-1.407 1.374m11.635-.863c-.607.288-.863.99-.575 1.566.255.607.99.863 1.566.607a1.19 1.19 0 0 0 .575-1.598 1.18 1.18 0 0 0-1.087-.703c-.16 0-.32.064-.479.128m-22.054.575c-.288.607 0 1.31.575 1.598.607.256 1.31 0 1.598-.607.288-.575 0-1.278-.575-1.566-.16-.064-.352-.128-.512-.128-.447 0-.863.256-1.086.703m25.218.735c-.48.256-.639.895-.351 1.375a1 1 0 0 0 1.374.383c.48-.287.671-.895.384-1.406a1.06 1.06 0 0 0-.895-.511c-.16 0-.352.063-.512.16m-28.19.352c-.289.511-.129 1.119.35 1.406.48.288 1.12.096 1.407-.383a1 1 0 0 0-.384-1.375.97.97 0 0 0-.51-.16c-.352 0-.704.192-.864.512m21.063-.224c-.64.16-1.023.831-.863 1.47.191.64.83.992 1.47.832s1.023-.831.83-1.47c-.127-.512-.606-.864-1.15-.864-.096 0-.192 0-.287.032m-14 .831c-.16.64.224 1.31.83 1.47.64.16 1.311-.191 1.471-.83a1.17 1.17 0 0 0-.83-1.47c-.097-.033-.225-.033-.32-.033-.512 0-.991.352-1.151.863m24.58-.127a.805.805 0 0 0-.192 1.086c.255.352.735.448 1.086.192s.448-.735.192-1.087a.75.75 0 0 0-.64-.32c-.16 0-.319.033-.447.129m-34.808.191a.805.805 0 0 0 .191 1.087c.352.256.832.16 1.087-.192.256-.351.16-.83-.191-1.087a.73.73 0 0 0-.448-.127.79.79 0 0 0-.64.32m20.072-.16c-.67.064-1.15.64-1.086 1.279.064.671.639 1.15 1.278 1.087.671-.032 1.15-.64 1.087-1.279a1.183 1.183 0 0 0-1.183-1.087zm-5.53 1.087c-.031.64.448 1.247 1.088 1.279a1.19 1.19 0 0 0 1.31-1.087 1.227 1.227 0 0 0-1.087-1.279h-.128c-.607 0-1.118.448-1.182 1.087m12.594 0c-.543.192-.799.8-.607 1.31.192.544.767.8 1.31.608.512-.192.8-.767.608-1.31a1.05 1.05 0 0 0-.96-.64c-.127 0-.255 0-.35.032m-19.657.608c-.192.543.064 1.118.607 1.31a1.02 1.02 0 0 0 1.31-.607c.193-.512-.095-1.119-.607-1.31-.127-.033-.255-.033-.351-.033-.416 0-.8.256-.959.64m15.119.607c-.544.096-.896.64-.8 1.183.096.575.608.927 1.183.83.543-.095.895-.639.8-1.182-.065-.48-.512-.831-.992-.831zm-10.484.83a1.04 1.04 0 0 0 .83 1.184 1.015 1.015 0 0 0 1.183-.831 1.04 1.04 0 0 0-.83-1.183h-.193c-.479 0-.895.351-.99.83m18.25-.606a.793.793 0 0 0-.351 1.054c.16.384.64.544 1.023.352.383-.16.543-.64.383-1.023a.77.77 0 0 0-.703-.447c-.128 0-.224.032-.352.064m-25.857.383c-.192.384-.032.863.351 1.023.416.192.863.032 1.055-.352a.837.837 0 0 0-.384-1.054 1.1 1.1 0 0 0-.32-.064.77.77 0 0 0-.703.447m12.433.831a1.03 1.03 0 0 0 1.023 1.023c.543 0 1.023-.48 1.023-1.023a1.03 1.03 0 0 0-1.023-1.023 1.01 1.01 0 0 0-1.023 1.023m8.63.544c-.415.127-.671.543-.543.959a.73.73 0 0 0 .927.543c.415-.096.67-.543.575-.959a.83.83 0 0 0-.767-.575c-.064 0-.128.032-.192.032m-16.173.543a.76.76 0 0 0 .543.959c.416.128.831-.128.96-.543a.8.8 0 0 0-.544-.96c-.064 0-.16-.031-.224-.031-.32 0-.64.255-.735.575m11.123.352a.76.76 0 0 0-.703.83c.032.448.415.768.83.704.448-.032.736-.384.704-.831a.766.766 0 0 0-.767-.703zm-5.977.703c-.032.447.287.799.703.83a.75.75 0 0 0 .863-.702.78.78 0 0 0-.703-.831h-.096a.766.766 0 0 0-.767.703"/><defs><radialGradient id="a" cx="0" cy="0" r="1" gradientTransform="matrix(0 -31.2076 31.2065 0 37.004 37.007)" gradientUnits="userSpaceOnUse"><stop stop-color="#bfade7"/><stop offset=".69" stop-color="#c0ace7"/><stop offset="1" stop-color="#7f59eb"/></radialGradient></defs></svg>