<svg width="74" height="74" viewBox="0 0 74 74" fill="none" xmlns="http://www.w3.org/2000/svg">
<circle cx="37" cy="37" r="37" fill="white"/>
<path d="M47.3706 26.1951V36.7198C47.3706 39.5981 46.4101 42.5476 44.6689 45.0231C43.1075 47.2445 40.9896 49.0153 38.3534 50.3057C39.5133 50.7923 41.0812 51.3888 41.7008 51.6225C43.8 50.2774 45.5547 48.6091 46.9488 46.628C49.0185 43.6859 50.1589 40.1668 50.1589 36.7198V26.6382C49.3643 26.4983 48.422 26.345 47.3706 26.1951ZM37.0023 50.9083C33.7327 49.5879 31.1577 47.6116 29.3379 45.0231C27.5949 42.5476 26.6357 39.5981 26.6357 36.7198V30.3002C25.7346 30.4349 23.8474 30.7881 23.8474 30.7881V36.7198C23.8474 40.1668 24.9878 43.6859 27.0558 46.628C29.387 49.9416 32.73 52.3815 37.0023 53.8886H37.004C38.2695 53.4424 39.4534 52.9141 40.553 52.3037C40.4865 52.2803 38.3638 51.4856 37.0023 50.9083ZM37.0023 25.397C31.8563 25.397 26.8207 26.1173 23.8474 26.6382V29.5008C23.8474 29.5008 25.7346 29.1476 26.6357 29.0125C29.5603 28.5789 33.2539 28.1853 37.0023 28.1853C40.2211 28.1853 43.3986 28.4751 46.0834 28.8331V26.0213C43.4216 25.6807 40.2337 25.397 37.0023 25.397Z" fill="#8C6EDF"/>
<path d="M38.8667 6.86955C38.8347 7.31705 39.1224 7.66865 39.5699 7.73258C39.9854 7.76454 40.3689 7.4449 40.4009 7.02937C40.4329 6.58187 40.1452 6.19831 39.6977 6.16634H39.6338C39.2183 6.16634 38.8987 6.48599 38.8667 6.86955ZM34.296 6.16634C33.8805 6.19831 33.5609 6.58187 33.5928 7.02937C33.6248 7.4449 34.0083 7.76454 34.4558 7.73258C34.8713 7.66865 35.191 7.31705 35.159 6.86955C35.127 6.48599 34.7755 6.16634 34.3599 6.16634H34.296ZM44.0766 7.66865C43.9488 8.08418 44.2045 8.49971 44.62 8.59561C45.0355 8.72346 45.451 8.46775 45.5789 8.05222C45.6748 7.63669 45.4191 7.22116 45.0036 7.0933C44.9396 7.0933 44.8757 7.0933 44.8118 7.0933C44.4602 7.0933 44.1406 7.31704 44.0766 7.66865ZM28.9902 7.0933C28.5747 7.22116 28.319 7.63669 28.4468 8.05222C28.5427 8.46775 28.9902 8.72346 29.4057 8.59561C29.8212 8.49971 30.045 8.08418 29.9491 7.66865C29.8532 7.31704 29.5335 7.0933 29.182 7.0933C29.118 7.0933 29.0541 7.0933 28.9902 7.0933ZM35.99 9.17095C35.99 9.71434 36.4375 10.1938 37.0129 10.1938C37.5562 10.1938 38.0357 9.71434 38.0357 9.17095C38.0357 8.5956 37.5562 8.14811 37.0129 8.14811C36.4375 8.14811 35.99 8.5956 35.99 9.17095ZM40.8484 9.39471C40.7525 9.97006 41.1041 10.4815 41.6475 10.5774C42.2228 10.6733 42.7342 10.3217 42.8301 9.77827C42.926 9.20292 42.5744 8.6915 42.031 8.59561C41.9671 8.56364 41.9032 8.56364 41.8392 8.56364C41.3598 8.56364 40.9123 8.91525 40.8484 9.39471ZM31.9947 8.59561C31.4513 8.6915 31.0678 9.20292 31.1637 9.77827C31.2595 10.3217 31.8029 10.6733 32.3463 10.5774C32.8896 10.4815 33.2732 9.97006 33.1773 9.39471C33.0814 8.91525 32.6659 8.56364 32.1865 8.56364C32.1225 8.56364 32.0586 8.56364 31.9947 8.59561ZM49.0628 9.33078C48.8711 9.71435 49.0309 10.1938 49.4144 10.3536C49.8299 10.5454 50.2774 10.3856 50.4692 10.002C50.629 9.58649 50.4692 9.13899 50.0856 8.94721C49.9898 8.91524 49.8619 8.88328 49.766 8.88328C49.4784 8.88328 49.1907 9.0431 49.0628 9.33078ZM23.9081 8.94721C23.5245 9.13899 23.3647 9.58649 23.5565 10.002C23.7163 10.3856 24.1958 10.5454 24.5793 10.3536C24.9629 10.1938 25.1227 9.71435 24.9629 9.33078C24.835 9.0431 24.5473 8.88328 24.2597 8.88328C24.1318 8.88328 24.0359 8.91524 23.9081 8.94721ZM45.5789 10.4815C45.3871 11.0249 45.6428 11.6002 46.1862 11.792C46.6976 11.9838 47.3049 11.7281 47.4967 11.1847C47.6884 10.6733 47.4008 10.0659 46.8894 9.87416C46.7615 9.8422 46.6337 9.81024 46.5378 9.81024C46.1223 9.81024 45.7067 10.0659 45.5789 10.4815ZM27.1363 9.87416C26.593 10.0659 26.3373 10.6733 26.529 11.1847C26.7208 11.7281 27.2962 11.9838 27.8395 11.792C28.3509 11.6002 28.6386 11.0249 28.4468 10.4815C28.287 10.0659 27.9034 9.81024 27.4879 9.81024C27.3601 9.81024 27.2642 9.8422 27.1363 9.87416ZM38.0357 11.6002C37.9717 12.2715 38.4512 12.8468 39.1224 12.9107C39.7617 12.9747 40.337 12.4632 40.4009 11.824C40.4648 11.1527 39.9854 10.5774 39.3142 10.5134H39.2183C38.611 10.5134 38.0676 10.9929 38.0357 11.6002ZM34.6796 10.5134C34.0403 10.5774 33.5609 11.1527 33.5928 11.824C33.6568 12.4632 34.2321 12.9747 34.9033 12.9107C35.5426 12.8468 36.022 12.2715 35.99 11.6002C35.9261 10.9929 35.4147 10.5134 34.8074 10.5134C34.7435 10.5134 34.6796 10.5134 34.6796 10.5134ZM42.4146 12.1756C42.2548 12.8149 42.6383 13.4541 43.2776 13.6459C43.9168 13.8057 44.5561 13.4222 44.7159 12.7829C44.9077 12.1436 44.5241 11.5043 43.8849 11.3445C43.789 11.3125 43.6611 11.2806 43.5652 11.2806C43.0538 11.2806 42.5744 11.6322 42.4146 12.1756ZM30.1089 11.3445C29.5016 11.5043 29.118 12.1436 29.2778 12.7829C29.4377 13.4222 30.1089 13.8057 30.7481 13.6459C31.3874 13.4541 31.7709 12.8149 31.5792 12.1756C31.4513 11.6322 30.9719 11.2806 30.4285 11.2806C30.3326 11.2806 30.2367 11.3125 30.1089 11.3445ZM53.6655 11.8559C53.4417 12.2075 53.5057 12.687 53.8573 12.9107C54.2089 13.1665 54.6883 13.0706 54.944 12.719C55.1997 12.3674 55.1038 11.8879 54.7522 11.6641C54.6244 11.5683 54.4646 11.5043 54.3047 11.5043C54.081 11.5043 53.8253 11.6322 53.6655 11.8559ZM19.2415 11.6641C18.8899 11.8879 18.826 12.3674 19.0497 12.719C19.3054 13.0706 19.7849 13.1665 20.1365 12.9107C20.4881 12.687 20.584 12.2075 20.3283 11.8559C20.1684 11.6322 19.9447 11.5043 19.689 11.5043C19.5292 11.5043 19.4013 11.5683 19.2415 11.6641ZM50.0537 12.3993C49.766 12.8788 49.9258 13.4861 50.4053 13.7738C50.9167 14.0614 51.524 13.9016 51.8116 13.3902C52.0993 12.9107 51.9075 12.3034 51.4281 12.0158C51.2683 11.9199 51.1085 11.8879 50.9167 11.8879C50.5651 11.8879 50.2455 12.0477 50.0537 12.3993ZM22.5656 12.0158C22.0862 12.3034 21.9264 12.9107 22.2141 13.3902C22.4698 13.9016 23.109 14.0614 23.5885 13.7738C24.0679 13.4861 24.2597 12.8788 23.972 12.3993C23.7802 12.0477 23.4286 11.8879 23.0771 11.8879C22.9172 11.8879 22.7255 11.9199 22.5656 12.0158ZM46.6656 13.4861C46.378 14.0934 46.6337 14.7966 47.241 15.0843C47.8163 15.34 48.5514 15.0843 48.8071 14.5089C49.0948 13.9016 48.8391 13.1984 48.2318 12.9107C48.072 12.8468 47.9122 12.8149 47.7204 12.8149C47.2729 12.8149 46.8574 13.0706 46.6656 13.4861ZM25.7619 12.9107C25.1866 13.1984 24.8989 13.9016 25.1866 14.5089C25.4743 15.0843 26.1775 15.34 26.7847 15.0843C27.3601 14.7966 27.6477 14.0934 27.3601 13.4861C27.1683 13.0706 26.7208 12.8149 26.2733 12.8149C26.1135 12.8149 25.9217 12.8468 25.7619 12.9107ZM35.6065 14.1893C35.6065 14.9884 36.2457 15.5957 37.0129 15.5957C37.78 15.5957 38.3872 14.9884 38.3872 14.1893C38.3872 13.4222 37.78 12.8149 37.0129 12.8149C36.2457 12.8149 35.6065 13.4222 35.6065 14.1893ZM39.6018 14.3172C39.442 15.0523 39.9534 15.7875 40.7205 15.9154C41.4876 16.0432 42.1908 15.5638 42.3506 14.7966C42.4785 14.0295 41.9671 13.3263 41.2 13.1665C41.1361 13.1665 41.0402 13.1665 40.9762 13.1665C40.305 13.1665 39.6977 13.6459 39.6018 14.3172ZM32.7938 13.1665C32.0586 13.3263 31.5472 14.0295 31.6751 14.7966C31.8029 15.5638 32.5381 16.0432 33.2732 15.9154C34.0403 15.7875 34.5517 15.0523 34.4239 14.3172C34.296 13.6459 33.7207 13.1665 33.0495 13.1665C32.9536 13.1665 32.8896 13.1665 32.7938 13.1665ZM43.5013 15.1163C43.2136 15.8195 43.5972 16.6186 44.3323 16.8743C45.0355 17.162 45.8346 16.7784 46.1223 16.0432C46.378 15.34 45.9944 14.5409 45.2912 14.2852C45.1314 14.2213 44.9716 14.1893 44.8118 14.1893C44.2365 14.1893 43.6931 14.5409 43.5013 15.1163ZM28.7345 14.2852C27.9993 14.5409 27.6477 15.34 27.9034 16.0432C28.1591 16.7784 28.9582 17.162 29.6934 16.8743C30.3965 16.6186 30.7801 15.8195 30.5244 15.1163C30.3007 14.5409 29.7893 14.1893 29.2139 14.1893C29.0541 14.1893 28.8943 14.2213 28.7345 14.2852ZM54.113 15.0204C53.7614 15.4679 53.8253 16.1071 54.2408 16.4587C54.6883 16.8104 55.3276 16.7784 55.6791 16.3309C56.0307 15.9154 55.9988 15.2441 55.5513 14.8925C55.3595 14.7327 55.1358 14.6688 54.912 14.6688C54.6244 14.6688 54.3367 14.7966 54.113 15.0204ZM18.4424 14.8925C18.0269 15.2441 17.963 15.9154 18.3146 16.3309C18.6981 16.7784 19.3374 16.8104 19.7529 16.4587C20.2004 16.1071 20.2643 15.4679 19.8808 15.0204C19.689 14.7966 19.4013 14.6688 19.1137 14.6688C18.8899 14.6688 18.6342 14.7327 18.4424 14.8925ZM57.7887 15.1163C57.501 15.4359 57.501 15.9154 57.7887 16.235C58.1083 16.5227 58.5878 16.5227 58.8754 16.235C59.1951 15.9154 59.1951 15.4359 58.8754 15.1163C58.7476 14.9564 58.5238 14.8925 58.3321 14.8925C58.1403 14.8925 57.9485 14.9564 57.7887 15.1163ZM15.1183 15.1163C14.7987 15.4359 14.7987 15.9154 15.1183 16.235C15.4379 16.5227 15.9174 16.5227 16.205 16.235C16.5247 15.9154 16.5247 15.4359 16.205 15.1163C16.0772 14.9564 15.8535 14.8925 15.6617 14.8925C15.4699 14.8925 15.2781 14.9564 15.1183 15.1163ZM50.5971 15.5318C50.2135 16.0752 50.3414 16.8104 50.8847 17.1939C51.4281 17.5775 52.1632 17.4177 52.5468 16.9062C52.9303 16.3629 52.8025 15.5957 52.2591 15.2441C52.0354 15.0843 51.8116 15.0204 51.5559 15.0204C51.2043 15.0204 50.8208 15.1802 50.5971 15.5318ZM21.7666 15.2441C21.2232 15.5957 21.0954 16.3629 21.4789 16.9062C21.8305 17.4177 22.5976 17.5775 23.141 17.1939C23.6524 16.8104 23.8122 16.0752 23.4286 15.5318C23.1729 15.1802 22.8214 15.0204 22.4378 15.0204C22.2141 15.0204 21.9584 15.0843 21.7666 15.2441ZM37.3005 17.0661C37.2366 17.8652 37.8119 18.5684 38.611 18.6323C39.4101 18.7282 40.1132 18.1209 40.1772 17.3218C40.2411 16.5227 39.6658 15.8514 38.8667 15.7555H38.7388C38.0037 15.7555 37.3644 16.3309 37.3005 17.0661ZM35.159 15.7555C34.3599 15.8514 33.7526 16.5227 33.8485 17.3218C33.9125 18.1209 34.6156 18.7282 35.3827 18.6323C36.1818 18.5684 36.7891 17.8652 36.6932 17.0661C36.6293 16.3309 36.022 15.7555 35.2869 15.7555C35.2229 15.7555 35.159 15.7555 35.159 15.7555ZM47.209 16.5546C46.8254 17.2259 47.0492 18.0889 47.7204 18.4725C48.3597 18.856 49.2227 18.6323 49.6062 17.9611C49.9898 17.2898 49.766 16.4268 49.0948 16.0432C48.8711 15.9154 48.6473 15.8514 48.3916 15.8514C47.9122 15.8514 47.4647 16.1071 47.209 16.5546ZM24.8989 16.0432C24.2277 16.4268 24.004 17.2898 24.3875 17.9611C24.7711 18.6323 25.6341 18.856 26.3053 18.4725C26.9765 18.0889 27.2003 17.2259 26.8167 16.5546C26.561 16.1071 26.0816 15.8514 25.6021 15.8514C25.3784 15.8514 25.1227 15.9154 24.8989 16.0432ZM40.7525 17.4496C40.5607 18.2168 41.0082 18.9839 41.7753 19.2076C42.5424 19.3994 43.3415 18.9519 43.5333 18.1848C43.757 17.4177 43.2776 16.6186 42.5105 16.4268C42.3826 16.3948 42.2548 16.3629 42.1589 16.3629C41.5196 16.3629 40.9123 16.7784 40.7525 17.4496ZM31.4833 16.4268C30.7162 16.6186 30.2687 17.4177 30.4605 18.1848C30.6842 18.9519 31.4513 19.3994 32.2184 19.2076C33.0175 18.9839 33.465 18.2168 33.2412 17.4496C33.0814 16.7784 32.5061 16.3629 31.8668 16.3629C31.739 16.3629 31.6111 16.3948 31.4833 16.4268ZM44.1086 18.3766C43.757 19.1118 44.0766 19.9748 44.7798 20.2944C45.515 20.646 46.378 20.3264 46.6976 19.5912C47.0492 18.888 46.7296 18.025 46.0264 17.6734C45.8026 17.6094 45.6109 17.5455 45.4191 17.5455C44.8757 17.5455 44.3323 17.8652 44.1086 18.3766ZM27.9993 17.6734C27.2642 18.025 26.9765 18.888 27.2961 19.5912C27.6477 20.3264 28.4788 20.646 29.2139 20.2944C29.9491 19.9748 30.2367 19.1118 29.9171 18.3766C29.6614 17.8652 29.15 17.5455 28.6066 17.5455C28.4148 17.5455 28.1911 17.6094 27.9993 17.6734ZM54.113 18.2168C53.6335 18.6643 53.6335 19.4314 54.113 19.9109C54.5924 20.3584 55.3276 20.3584 55.807 19.9109C56.2545 19.4314 56.2545 18.6643 55.807 18.2168C55.5513 17.993 55.2636 17.8652 54.944 17.8652C54.6563 17.8652 54.3367 17.993 54.113 18.2168ZM18.2187 18.2168C17.7393 18.6643 17.7393 19.4314 18.2187 19.9109C18.6662 20.3584 19.4333 20.3584 19.8808 19.9109C20.3602 19.4314 20.3602 18.6643 19.8808 18.2168C19.657 17.993 19.3694 17.8652 19.0497 17.8652C18.7621 17.8652 18.4424 17.993 18.2187 18.2168ZM57.6928 18.3446C57.2453 18.6962 57.1814 19.3355 57.565 19.751C57.9165 20.1985 58.5558 20.2625 58.9713 19.8789C59.4188 19.5273 59.4827 18.888 59.0992 18.4405C58.9074 18.2168 58.6197 18.0889 58.3321 18.0889C58.1083 18.0889 57.8526 18.1848 57.6928 18.3446ZM14.8946 18.4405C14.543 18.888 14.6069 19.5273 15.0224 19.8789C15.4379 20.2625 16.1092 20.1985 16.4607 19.751C16.8123 19.3355 16.7484 18.6962 16.3329 18.3446C16.1411 18.1848 15.9174 18.0889 15.6617 18.0889C15.374 18.0889 15.0863 18.2168 14.8946 18.4405ZM50.5971 18.6323C50.0856 19.2396 50.1815 20.1026 50.7569 20.6141C51.3642 21.0935 52.2272 21.0296 52.7386 20.4223C53.218 19.8469 53.1541 18.9519 52.5468 18.4725C52.2911 18.2487 51.9715 18.1528 51.6518 18.1528C51.2683 18.1528 50.8528 18.3127 50.5971 18.6323ZM21.4469 18.4725C20.8716 18.9519 20.7757 19.8469 21.2871 20.4223C21.7666 21.0296 22.6615 21.0935 23.2369 20.6141C23.8442 20.1026 23.9081 19.2396 23.4286 18.6323C23.141 18.3127 22.7574 18.1528 22.3419 18.1528C22.0223 18.1528 21.7027 18.2487 21.4469 18.4725ZM61.2726 19.0478C60.9211 19.3035 60.8252 19.783 61.0809 20.1346C61.3366 20.4862 61.816 20.5821 62.1676 20.3264C62.5192 20.1026 62.6151 19.5912 62.3594 19.2396C62.1996 19.0478 61.9758 18.92 61.7201 18.92C61.5603 18.92 61.4005 18.9519 61.2726 19.0478ZM11.6663 19.2396C11.4106 19.5912 11.4745 20.1026 11.8261 20.3264C12.1777 20.5821 12.6891 20.4862 12.9129 20.1346C13.1686 19.783 13.0727 19.3035 12.7211 19.0478C12.5932 18.9519 12.4334 18.92 12.2736 18.92C12.0499 18.92 11.7942 19.0478 11.6663 19.2396ZM46.9853 20.71C46.9853 21.4771 47.6245 22.1164 48.3916 22.1164C49.1907 22.1164 49.8299 21.4771 49.8299 20.71C49.8299 19.9109 49.1907 19.2716 48.3916 19.2716C47.6245 19.2716 46.9853 19.9109 46.9853 20.71ZM24.1958 20.71C24.1958 21.4771 24.835 22.1164 25.6021 22.1164C26.3692 22.1164 27.0085 21.4771 27.0085 20.71C27.0085 19.9109 26.3692 19.2716 25.6021 19.2716C24.835 19.2716 24.1958 19.9109 24.1958 20.71ZM53.1221 22.3401C53.1221 23.1073 53.7614 23.7465 54.5285 23.7465C55.3276 23.7465 55.9348 23.1073 55.9348 22.3401C55.9348 21.541 55.3276 20.9017 54.5285 20.9017C53.7614 20.9017 53.1221 21.541 53.1221 22.3401ZM18.1228 22.3401C18.1228 23.1073 18.7621 23.7465 19.5292 23.7465C20.3282 23.7465 20.9675 23.1073 20.9675 22.3401C20.9675 21.541 20.3282 20.9017 19.5292 20.9017C18.7621 20.9017 18.1228 21.541 18.1228 22.3401ZM57.1175 21.4771C56.5741 21.8287 56.4463 22.5958 56.8298 23.1392C57.2134 23.6826 57.9485 23.8105 58.4919 23.4269C59.0352 23.0433 59.1631 22.3082 58.7795 21.7648C58.5558 21.4132 58.1722 21.2533 57.7887 21.2533C57.565 21.2533 57.3093 21.3173 57.1175 21.4771ZM15.2142 21.7648C14.8626 22.3082 14.9905 23.0433 15.5338 23.4269C16.0772 23.8105 16.8123 23.6826 17.1959 23.1392C17.5475 22.5958 17.4196 21.8287 16.8763 21.4771C16.6845 21.3173 16.4288 21.2533 16.205 21.2533C15.8215 21.2533 15.4699 21.4132 15.2142 21.7648ZM50.0856 22.6598C50.0856 23.2671 50.5651 23.7465 51.1724 23.7465C51.7797 23.7465 52.2591 23.2671 52.2591 22.6598C52.2591 22.0524 51.7797 21.573 51.1724 21.573C50.5651 21.573 50.0856 22.0524 50.0856 22.6598ZM21.7666 22.6598C21.7666 23.2671 22.246 23.7465 22.8214 23.7465C23.4286 23.7465 23.9081 23.2671 23.9081 22.6598C23.9081 22.0524 23.4286 21.573 22.8214 21.573C22.246 21.573 21.7666 22.0524 21.7666 22.6598ZM60.6014 22.2123C60.122 22.4999 59.9622 23.1073 60.2498 23.5867C60.5055 24.0662 61.1448 24.258 61.6242 23.9703C62.1037 23.6826 62.2635 23.0753 62.0078 22.5639C61.816 22.2442 61.4644 22.0524 61.1128 22.0524C60.953 22.0524 60.7612 22.1164 60.6014 22.2123ZM12.0179 22.5639C11.7302 23.0753 11.8901 23.6826 12.3695 23.9703C12.8809 24.258 13.4882 24.0662 13.7759 23.5867C14.0635 23.1073 13.9037 22.4999 13.3923 22.2123C13.2325 22.1164 13.0727 22.0524 12.8809 22.0524C12.5293 22.0524 12.2097 22.2442 12.0179 22.5639ZM64.0214 23.5547C63.6379 23.7465 63.4781 24.194 63.6379 24.5776C63.8297 24.9612 64.2771 25.153 64.6927 24.9612C65.0762 24.7694 65.236 24.3219 65.0443 23.9383C64.9164 23.6506 64.6287 23.4908 64.3411 23.4908C64.2452 23.4908 64.1173 23.4908 64.0214 23.5547ZM8.94948 23.9383C8.7577 24.3219 8.94948 24.7694 9.33304 24.9612C9.71659 25.153 10.196 24.9612 10.3558 24.5776C10.5476 24.194 10.3878 23.7465 9.97229 23.5547C9.8764 23.4908 9.78052 23.4908 9.65266 23.4908C9.365 23.4908 9.07733 23.6506 8.94948 23.9383ZM56.0627 24.3858C55.3915 24.7694 55.1677 25.6324 55.5513 26.3036C55.9348 26.9749 56.7659 27.1986 57.4371 26.8151C58.1083 26.4315 58.3321 25.5685 57.9485 24.8972C57.6928 24.4497 57.2453 24.226 56.7339 24.226C56.5102 24.226 56.2864 24.258 56.0627 24.3858ZM16.0452 24.8972C15.6617 25.5685 15.8854 26.4315 16.5566 26.8151C17.2279 27.1986 18.0908 26.9749 18.4744 26.3036C18.858 25.6324 18.6342 24.7694 17.963 24.3858C17.7393 24.258 17.4836 24.226 17.2598 24.226C16.7804 24.226 16.3009 24.4497 16.0452 24.8972ZM52.4829 25.3447C52.4829 25.9201 52.9623 26.4315 53.5696 26.4315C54.1769 26.4315 54.6563 25.9201 54.6563 25.3447C54.6563 24.7374 54.1769 24.258 53.5696 24.258C52.9623 24.258 52.4829 24.7374 52.4829 25.3447ZM19.3374 25.3447C19.3374 25.9201 19.8488 26.4315 20.4241 26.4315C21.0314 26.4315 21.5109 25.9201 21.5109 25.3447C21.5109 24.7374 21.0314 24.258 20.4241 24.258C19.8488 24.258 19.3374 24.7374 19.3374 25.3447ZM59.5147 25.1849C58.9074 25.4726 58.6517 26.1758 58.9394 26.7831C59.1951 27.3904 59.9302 27.6461 60.5055 27.3585C61.1128 27.0708 61.3685 26.3676 61.0809 25.7603C60.8891 25.3447 60.4736 25.089 60.0261 25.089C59.8343 25.089 59.6745 25.121 59.5147 25.1849ZM12.9129 25.7603C12.6252 26.3676 12.8809 27.0708 13.4882 27.3585C14.0955 27.6461 14.7987 27.3904 15.0863 26.7831C15.342 26.1758 15.0863 25.4726 14.511 25.1849C14.3512 25.121 14.1594 25.089 13.9996 25.089C13.5521 25.089 13.1046 25.3447 12.9129 25.7603ZM62.8069 26.5274C62.2955 26.7192 62.0078 27.2945 62.1996 27.8379C62.3913 28.3493 62.9986 28.637 63.51 28.4452C64.0534 28.2535 64.3091 27.6781 64.1173 27.1347C63.9575 26.7192 63.574 26.4635 63.1584 26.4635C63.0626 26.4635 62.9347 26.4954 62.8069 26.5274ZM9.8764 27.1347C9.68463 27.6781 9.97229 28.2535 10.4837 28.4452C11.0271 28.637 11.6024 28.3493 11.7942 27.8379C11.9859 27.2945 11.7302 26.7192 11.1869 26.5274C11.059 26.4954 10.9631 26.4635 10.8353 26.4635C10.4198 26.4635 10.0362 26.7192 9.8764 27.1347ZM53.6655 28.6051C53.6655 29.3722 54.3047 30.0115 55.1038 30.0115C55.8709 30.0115 56.5102 29.3722 56.5102 28.6051C56.5102 27.8379 55.8709 27.1986 55.1038 27.1986C54.3047 27.1986 53.6655 27.8379 53.6655 28.6051ZM17.5155 28.6051C17.5155 29.3722 18.1548 30.0115 18.9219 30.0115C19.689 30.0115 20.3283 29.3722 20.3283 28.6051C20.3283 27.8379 19.689 27.1986 18.9219 27.1986C18.1548 27.1986 17.5155 27.8379 17.5155 28.6051ZM57.9485 27.9019C57.2453 28.1576 56.8618 28.9567 57.1175 29.6918C57.3732 30.395 58.1722 30.7786 58.9074 30.5229C59.6425 30.2672 59.9941 29.4681 59.7384 28.7329C59.5466 28.1576 59.0033 27.806 58.4279 27.806C58.2681 27.806 58.1083 27.8379 57.9485 27.9019ZM14.2553 28.7329C13.9996 29.4681 14.3832 30.2672 15.0863 30.5229C15.8215 30.7786 16.6206 30.395 16.8763 29.6918C17.1639 28.9567 16.7804 28.1576 16.0452 27.9019C15.8854 27.8379 15.7256 27.806 15.5658 27.806C15.0224 27.806 14.479 28.1576 14.2553 28.7329ZM65.9392 28.4452C65.5237 28.5411 65.3 28.9886 65.3958 29.4042C65.5237 29.8197 65.9392 30.0434 66.3547 29.9475C66.7702 29.8517 67.026 29.4042 66.8981 28.9886C66.8022 28.637 66.4826 28.4133 66.163 28.4133C66.0671 28.4133 66.0031 28.4133 65.9392 28.4452ZM7.09563 28.9886C6.99975 29.4042 7.25545 29.8517 7.67097 29.9475C8.08648 30.0434 8.502 29.8197 8.59789 29.4042C8.72574 28.9886 8.47004 28.5411 8.05452 28.4452C7.99059 28.4133 7.92667 28.4133 7.86274 28.4133C7.51115 28.4133 7.19152 28.637 7.09563 28.9886ZM61.2087 29.2763C60.5695 29.4681 60.2179 30.1074 60.3777 30.7466C60.5375 31.3859 61.2087 31.7695 61.848 31.5777C62.4872 31.4179 62.8388 30.7786 62.679 30.1393C62.5512 29.5959 62.0397 29.2443 61.5283 29.2443C61.4325 29.2443 61.3366 29.2443 61.2087 29.2763ZM11.3147 30.1393C11.1549 30.7786 11.5385 31.4179 12.1777 31.5777C12.817 31.7695 13.4562 31.3859 13.648 30.7466C13.8078 30.1074 13.4243 29.4681 12.785 29.2763C12.6891 29.2443 12.5932 29.2443 12.4654 29.2443C11.954 29.2443 11.4745 29.5959 11.3147 30.1393ZM55.839 30.459C55.0719 30.6827 54.5924 31.4818 54.8161 32.249C55.0079 33.0161 55.807 33.4636 56.5741 33.2398C57.3412 33.0481 57.7887 32.249 57.5969 31.4818C57.4371 30.8425 56.8298 30.427 56.1905 30.427C56.0947 30.427 55.9668 30.427 55.839 30.459ZM16.4288 31.4818C16.205 32.249 16.6525 33.0481 17.4196 33.2398C18.1867 33.4636 18.9858 33.0161 19.2095 32.249C19.4013 31.4818 18.9538 30.6827 18.1867 30.459C18.0589 30.427 17.931 30.427 17.8032 30.427C17.1639 30.427 16.5886 30.8425 16.4288 31.4818ZM64.2452 31.1622C63.7018 31.2581 63.3183 31.8015 63.4142 32.3448C63.51 32.8882 64.0534 33.2718 64.5968 33.1759C65.1401 33.08 65.5237 32.5366 65.4278 31.9932C65.3319 31.5138 64.9164 31.1622 64.437 31.1622C64.373 31.1622 64.3091 31.1622 64.2452 31.1622ZM8.59789 31.9932C8.47004 32.5366 8.85359 33.08 9.39696 33.1759C9.97229 33.2718 10.4837 32.8882 10.5796 32.3448C10.6755 31.8015 10.3239 31.2581 9.74855 31.1622C9.74855 31.1622 9.65266 31.1622 9.58873 31.1622C9.10929 31.1622 8.66182 31.5138 8.59789 31.9932ZM59.227 31.6736C58.4599 31.8015 57.9485 32.5366 58.0764 33.3038C58.2042 34.0389 58.9394 34.5504 59.7065 34.4225C60.4736 34.2946 60.953 33.5595 60.8252 32.7923C60.6973 32.1211 60.122 31.6416 59.4508 31.6416C59.3868 31.6416 59.2909 31.6736 59.227 31.6736ZM13.1686 32.7923C13.0407 33.5595 13.5521 34.2946 14.3192 34.4225C15.0544 34.5504 15.7895 34.0389 15.9174 33.3038C16.0452 32.5366 15.5658 31.8015 14.7987 31.6736C14.7028 31.6736 14.6389 31.6416 14.543 31.6416C13.8718 31.6416 13.2964 32.1211 13.1686 32.7923ZM66.994 33.5914C66.5785 33.6554 66.2588 34.007 66.2908 34.4545C66.3228 34.87 66.7063 35.1896 67.1218 35.1577C67.5693 35.1257 67.8889 34.7421 67.825 34.2946C67.7931 33.9111 67.4734 33.5914 67.0579 33.5914H66.994ZM6.16871 34.2946C6.13675 34.7421 6.45638 35.1257 6.8719 35.1577C7.31938 35.1896 7.67096 34.87 7.73489 34.4545C7.76685 34.007 7.44723 33.6554 6.99975 33.5914H6.93582C6.55227 33.5914 6.20067 33.9111 6.16871 34.2946ZM62.1996 33.5914C61.5283 33.6554 61.0489 34.2307 61.1128 34.902C61.1768 35.5412 61.7521 36.0527 62.3913 35.9887C63.0626 35.9248 63.542 35.3495 63.4781 34.6782C63.4142 34.0709 62.9027 33.5914 62.2954 33.5914H62.1996ZM10.5157 34.6782C10.4517 35.3495 10.9631 35.9248 11.6024 35.9887C12.2736 36.0527 12.8489 35.5412 12.9129 34.902C12.9448 34.2307 12.4654 33.6554 11.8261 33.5914H11.6983C11.091 33.5914 10.5796 34.0709 10.5157 34.6782ZM56.67 33.8471C55.8709 33.9111 55.2956 34.6143 55.3595 35.4134C55.4234 36.1805 56.1266 36.7878 56.9257 36.7239C57.7248 36.628 58.3001 35.9568 58.2362 35.1577C58.1722 34.3905 57.533 33.8471 56.7978 33.8471C56.7978 33.8471 56.7339 33.8471 56.67 33.8471ZM15.7576 35.1577C15.6936 35.9568 16.3009 36.628 17.068 36.7239C17.8671 36.7878 18.5703 36.1805 18.6342 35.4134C18.6981 34.6143 18.1228 33.9111 17.3237 33.8471C17.3237 33.8471 17.2598 33.8471 17.1959 33.8471C16.4607 33.8471 15.8215 34.3905 15.7576 35.1577ZM58.396 37.0116C58.396 37.7787 59.0352 38.386 59.8023 38.386C60.5695 38.386 61.2087 37.7787 61.2087 37.0116C61.2087 36.2445 60.5695 35.6052 59.8023 35.6052C59.0352 35.6052 58.396 36.2445 58.396 37.0116ZM12.817 37.0116C12.817 37.7787 13.4243 38.386 14.1914 38.386C14.9585 38.386 15.5977 37.7787 15.5977 37.0116C15.5977 36.2445 14.9585 35.6052 14.1914 35.6052C13.4243 35.6052 12.817 36.2445 12.817 37.0116ZM63.8297 37.0116C63.8297 37.555 64.2771 38.0344 64.8525 38.0344C65.3958 38.0344 65.8753 37.555 65.8753 37.0116C65.8753 36.4362 65.3958 35.9887 64.8525 35.9887C64.2771 35.9887 63.8297 36.4362 63.8297 37.0116ZM8.15041 37.0116C8.15041 37.555 8.59789 38.0344 9.17322 38.0344C9.71659 38.0344 10.1641 37.555 10.1641 37.0116C10.1641 36.4362 9.71659 35.9887 9.17322 35.9887C8.59789 35.9887 8.15041 36.4362 8.15041 37.0116ZM55.3595 38.6098C55.2956 39.4089 55.8709 40.1121 56.67 40.176C57.4691 40.2399 58.1722 39.6646 58.2362 38.8655C58.3001 38.0664 57.7248 37.3632 56.9257 37.2993H56.7978C56.0627 37.2993 55.4234 37.8746 55.3595 38.6098ZM17.068 37.2993C16.3009 37.3632 15.6936 38.0664 15.7576 38.8655C15.8215 39.6646 16.5247 40.2399 17.3237 40.176C18.1228 40.1121 18.6981 39.4089 18.6342 38.6098C18.5703 37.8746 17.931 37.2993 17.1959 37.2993C17.1959 37.2993 17.132 37.2993 17.068 37.2993ZM61.1128 39.1212C61.0489 39.7605 61.5283 40.3358 62.1996 40.3998C62.8388 40.4637 63.4142 39.9842 63.4781 39.313C63.542 38.6737 63.0626 38.0984 62.3913 38.0344H62.2954C61.6882 38.0344 61.1768 38.4819 61.1128 39.1212ZM11.6024 38.0344C10.9631 38.0984 10.4517 38.6737 10.5157 39.313C10.5796 39.9842 11.1549 40.4637 11.8261 40.3998C12.4654 40.3358 12.9448 39.7605 12.9129 39.1212C12.8489 38.4819 12.3375 38.0344 11.6983 38.0344H11.6024ZM66.2908 39.5687C66.2588 39.9842 66.5785 40.3678 66.994 40.3998C67.4095 40.4637 67.7931 40.1441 67.825 39.6966C67.8889 39.281 67.5693 38.8975 67.1218 38.8655H67.0579C66.6744 38.8655 66.3228 39.1532 66.2908 39.5687ZM6.8719 38.8655C6.45638 38.8975 6.13675 39.281 6.16871 39.6966C6.20067 40.1441 6.58423 40.4637 6.99974 40.3998C7.44722 40.3678 7.76685 39.9842 7.73489 39.5687C7.67096 39.1532 7.35134 38.8655 6.93582 38.8655H6.8719ZM58.0764 40.7194C57.9485 41.4865 58.4599 42.1898 59.227 42.3496C59.9622 42.4774 60.6973 41.966 60.8252 41.1989C60.953 40.4637 60.4736 39.7285 59.7065 39.6007C59.6106 39.5687 59.5466 39.5687 59.4508 39.5687C58.7795 39.5687 58.2042 40.0482 58.0764 40.7194ZM14.3192 39.6007C13.5521 39.7285 13.0407 40.4637 13.1686 41.1989C13.2964 41.966 14.0316 42.4774 14.7987 42.3496C15.5658 42.1898 16.0452 41.4865 15.9174 40.7194C15.7895 40.0482 15.2142 39.5687 14.543 39.5687C14.4791 39.5687 14.3832 39.5687 14.3192 39.6007ZM54.8161 41.7742C54.5924 42.5414 55.0719 43.3405 55.839 43.5322C56.6061 43.756 57.3732 43.3085 57.5969 42.5094C57.7887 41.7423 57.3412 40.9751 56.5741 40.7514C56.4463 40.7194 56.3184 40.7194 56.1905 40.7194C55.5513 40.7194 54.976 41.1349 54.8161 41.7742ZM17.4196 40.7514C16.6525 40.9751 16.205 41.7423 16.4288 42.5094C16.6206 43.3085 17.4196 43.756 18.1867 43.5322C18.9538 43.3405 19.4013 42.5414 19.2095 41.7742C19.0178 41.1349 18.4424 40.7194 17.8032 40.7194C17.6753 40.7194 17.5475 40.7194 17.4196 40.7514ZM63.4142 41.6783C63.3183 42.2217 63.7018 42.7331 64.2452 42.829C64.7886 42.9569 65.3319 42.5733 65.4278 42.0299C65.5237 41.4546 65.1401 40.9432 64.5968 40.8473C64.5328 40.8153 64.437 40.8153 64.437 40.8153C63.9256 40.8153 63.51 41.1669 63.4142 41.6783ZM9.39696 40.8473C8.85359 40.9432 8.47004 41.4546 8.59789 42.0299C8.69378 42.5733 9.20518 42.9569 9.74855 42.829C10.3239 42.7331 10.6755 42.2217 10.5796 41.6783C10.5157 41.1669 10.0682 40.8153 9.58873 40.8153C9.52481 40.8153 9.46088 40.8153 9.39696 40.8473ZM60.3777 43.2765C60.2179 43.9158 60.5695 44.5551 61.2087 44.7149C61.848 44.9067 62.5192 44.5231 62.679 43.8838C62.8388 43.2446 62.4872 42.6053 61.848 42.4135C61.7201 42.4135 61.6242 42.3815 61.5283 42.3815C60.985 42.3815 60.5055 42.7331 60.3777 43.2765ZM12.1777 42.4135C11.5385 42.6053 11.1549 43.2446 11.3147 43.8838C11.5065 44.5231 12.1458 44.9067 12.785 44.7149C13.4243 44.5551 13.8078 43.9158 13.648 43.2765C13.4882 42.7331 13.0088 42.3815 12.4974 42.3815C12.3695 42.3815 12.2736 42.4135 12.1777 42.4135ZM57.1175 44.3313C56.8618 45.0665 57.2453 45.8656 57.9485 46.1213C58.6837 46.377 59.4827 45.9935 59.7384 45.2903C59.9941 44.5551 59.6425 43.756 58.9074 43.5003C58.7476 43.4363 58.5878 43.4044 58.4279 43.4044C57.8526 43.4044 57.3412 43.756 57.1175 44.3313ZM15.0863 43.5003C14.3832 43.756 13.9996 44.5551 14.2553 45.2903C14.543 45.9935 15.342 46.377 16.0452 46.1213C16.7804 45.8656 17.1639 45.0665 16.8763 44.3313C16.6845 43.756 16.1411 43.4044 15.5658 43.4044C15.406 43.4044 15.2462 43.4363 15.0863 43.5003ZM53.6974 44.8108C53.3778 45.514 53.6974 46.377 54.4006 46.7286C55.1358 47.0483 55.9988 46.7286 56.3184 46.0254C56.67 45.2903 56.3504 44.4272 55.6152 44.1076C55.4234 44.0117 55.2317 43.9478 55.0079 43.9478C54.4646 43.9478 53.9532 44.2674 53.6974 44.8108ZM18.3785 44.1076C17.6753 44.4272 17.3557 45.2903 17.6753 46.0254C18.0269 46.7286 18.8899 47.0483 19.5931 46.7286C20.3282 46.377 20.6479 45.514 20.2963 44.8108C20.0406 44.2674 19.5292 43.9478 18.9858 43.9478C18.794 43.9478 18.5703 44.0117 18.3785 44.1076ZM65.3958 44.619C65.3 45.0345 65.5237 45.4501 65.9392 45.5779C66.3547 45.6738 66.8022 45.4181 66.8981 45.0026C67.0259 44.5871 66.7702 44.1715 66.3547 44.0756C66.2908 44.0437 66.2269 44.0437 66.163 44.0437C65.8114 44.0437 65.4917 44.2674 65.3958 44.619ZM7.67096 44.0756C7.25545 44.1715 6.99975 44.5871 7.09563 45.0026C7.22348 45.4181 7.639 45.6738 8.05452 45.5779C8.47003 45.4501 8.72574 45.0345 8.59789 44.619C8.502 44.2674 8.21433 44.0437 7.86274 44.0437C7.79882 44.0437 7.73489 44.0437 7.67096 44.0756ZM62.1996 46.1852C62.0078 46.6967 62.2954 47.304 62.8069 47.4958C63.3502 47.6876 63.9256 47.3999 64.1173 46.8885C64.3091 46.3451 64.0534 45.7697 63.51 45.5779C63.4142 45.546 63.2863 45.514 63.1584 45.514C62.7429 45.514 62.3594 45.7697 62.1996 46.1852ZM10.4837 45.5779C9.97229 45.7697 9.68462 46.3451 9.8764 46.8885C10.0682 47.3999 10.6755 47.6876 11.1869 47.4958C11.7302 47.304 11.9859 46.6967 11.7942 46.1852C11.6344 45.7697 11.2508 45.514 10.8353 45.514C10.7394 45.514 10.6115 45.546 10.4837 45.5779ZM58.9394 47.2401C58.6517 47.8154 58.9074 48.5506 59.5147 48.8063C60.122 49.094 60.8252 48.8383 61.0809 48.2309C61.3685 47.6556 61.1128 46.9204 60.5055 46.6647C60.3457 46.5688 60.1859 46.5369 60.0261 46.5369C59.5786 46.5369 59.1311 46.7926 58.9394 47.2401ZM13.4882 46.6647C12.8809 46.9204 12.6252 47.6556 12.9129 48.2309C13.2005 48.8383 13.9037 49.094 14.511 48.8063C15.0863 48.5506 15.342 47.8154 15.0863 47.2401C14.8626 46.7926 14.4471 46.5369 13.9996 46.5369C13.8398 46.5369 13.648 46.5688 13.4882 46.6647ZM52.0993 47.5917C51.6518 48.2309 51.8116 49.1259 52.4509 49.5734C53.1221 50.0529 54.0171 49.8931 54.4646 49.2218C54.912 48.5825 54.7522 47.6876 54.113 47.2401C53.8573 47.0483 53.5696 46.9524 53.2819 46.9524C52.8345 46.9524 52.387 47.1761 52.0993 47.5917ZM19.8808 47.2401C19.2415 47.6876 19.0817 48.5825 19.5292 49.2218C20.0086 49.8931 20.9036 50.0529 21.5428 49.5734C22.2141 49.1259 22.3739 48.2309 21.8944 47.5917C21.6387 47.1761 21.1912 46.9524 20.7118 46.9524C20.4241 46.9524 20.1365 47.0483 19.8808 47.2401ZM55.5513 47.7195C55.1677 48.3908 55.3915 49.2218 56.0627 49.6054C56.7339 49.989 57.565 49.7652 57.9485 49.094C58.3321 48.4227 58.1083 47.5917 57.4371 47.2081C57.2134 47.0802 56.9896 47.0163 56.7659 47.0163C56.2545 47.0163 55.807 47.272 55.5513 47.7195ZM16.5566 47.2081C15.8854 47.5917 15.6617 48.4227 16.0452 49.094C16.4288 49.7652 17.2918 49.989 17.963 49.6054C18.6342 49.2218 18.858 48.3908 18.4744 47.7195C18.2187 47.272 17.7393 47.0163 17.2598 47.0163C17.0041 47.0163 16.7804 47.0802 16.5566 47.2081ZM63.6379 49.4456C63.4781 49.8291 63.6379 50.2766 64.0214 50.4684C64.405 50.6602 64.8844 50.4684 65.0443 50.0849C65.236 49.7013 65.0762 49.2218 64.6927 49.062C64.5648 48.9981 64.4689 48.9661 64.3411 48.9661C64.0534 48.9661 63.7657 49.1579 63.6379 49.4456ZM9.33303 49.062C8.94948 49.2218 8.7577 49.7013 8.94948 50.0849C9.14125 50.4684 9.58874 50.6602 9.97229 50.4684C10.3878 50.2766 10.5476 49.8291 10.3558 49.4456C10.228 49.1579 9.94033 48.9661 9.65266 48.9661C9.55677 48.9661 9.42892 48.9981 9.33303 49.062ZM50.0537 50.0529C49.4784 50.5963 49.4784 51.5232 50.0537 52.0666C50.5971 52.642 51.524 52.642 52.0673 52.0666C52.6427 51.5232 52.6427 50.5963 52.0673 50.0529C51.8116 49.7652 51.4281 49.6054 51.0445 49.6054C50.6929 49.6054 50.3094 49.7652 50.0537 50.0529ZM21.9264 50.0529C21.3511 50.5963 21.3511 51.5232 21.9264 52.0666C22.5017 52.642 23.3967 52.642 23.972 52.0666C24.5473 51.5232 24.5473 50.5963 23.972 50.0529C23.6843 49.7652 23.3328 49.6054 22.9492 49.6054C22.5656 49.6054 22.2141 49.7652 21.9264 50.0529ZM60.2498 50.4045C59.9622 50.9159 60.122 51.5232 60.6014 51.8109C61.0809 52.0986 61.7201 51.9388 62.0078 51.4273C62.2635 50.9479 62.1037 50.3406 61.6242 50.0529C61.4644 49.957 61.3046 49.925 61.1128 49.925C60.7612 49.925 60.4096 50.0849 60.2498 50.4045ZM12.3695 50.0529C11.8901 50.3406 11.7302 50.9479 12.0179 51.4273C12.3056 51.9388 12.9129 52.0986 13.3923 51.8109C13.9037 51.5232 14.0635 50.9159 13.7759 50.4045C13.5841 50.0849 13.2325 49.925 12.8809 49.925C12.7211 49.925 12.5293 49.957 12.3695 50.0529ZM53.4098 50.7561C52.8984 51.3634 52.9943 52.2264 53.5696 52.7379C54.1769 53.2173 55.0399 53.1534 55.5513 52.5461C56.0307 51.9707 55.9668 51.0757 55.3595 50.5963C55.1038 50.3725 54.7842 50.2766 54.4646 50.2766C54.081 50.2766 53.6655 50.4365 53.4098 50.7561ZM18.6342 50.5963C18.0589 51.0757 17.963 51.9707 18.4744 52.5461C18.9538 53.1534 19.8488 53.2173 20.4241 52.7379C21.0314 52.2264 21.0954 51.3634 20.6159 50.7561C20.3282 50.4365 19.9447 50.2766 19.5292 50.2766C19.2095 50.2766 18.8899 50.3725 18.6342 50.5963ZM56.8298 50.884C56.4462 51.4273 56.5741 52.1625 57.1175 52.5461C57.6608 52.9296 58.396 52.8018 58.7795 52.2584C59.1631 51.715 59.0352 50.9798 58.4919 50.5963C58.2681 50.4365 58.0444 50.3725 57.7887 50.3725C57.4371 50.3725 57.0535 50.5643 56.8298 50.884ZM15.5338 50.5963C14.9905 50.9798 14.8626 51.715 15.2142 52.2584C15.5977 52.8018 16.3649 52.9296 16.8763 52.5461C17.4196 52.1625 17.5475 51.4273 17.1959 50.884C16.9402 50.5643 16.5886 50.3725 16.205 50.3725C15.9813 50.3725 15.7256 50.4365 15.5338 50.5963ZM46.9853 53.2813C46.9853 54.0804 47.6245 54.6877 48.3916 54.6877C49.1907 54.6877 49.8299 54.0804 49.8299 53.2813C49.8299 52.5141 49.1907 51.8748 48.3916 51.8748C47.6245 51.8748 46.9853 52.5141 46.9853 53.2813ZM24.1957 53.2813C24.1957 54.0804 24.835 54.6877 25.6021 54.6877C26.3692 54.6877 27.0085 54.0804 27.0085 53.2813C27.0085 52.5141 26.3692 51.8748 25.6021 51.8748C24.835 51.8748 24.1957 52.5141 24.1957 53.2813ZM50.7569 53.4091C50.1815 53.8886 50.0856 54.7836 50.5971 55.3589C51.0765 55.9662 51.9715 56.0302 52.5468 55.5507C53.1541 55.0393 53.218 54.1762 52.7386 53.5689C52.4509 53.2493 52.0673 53.0895 51.6518 53.0895C51.3322 53.0895 51.0126 53.1854 50.7569 53.4091ZM21.2871 53.5689C20.7757 54.1762 20.8716 55.0393 21.4469 55.5507C22.0542 56.0302 22.9172 55.9662 23.4286 55.3589C23.9081 54.7836 23.8442 53.8886 23.2369 53.4091C22.9812 53.1854 22.6615 53.0895 22.3419 53.0895C21.9584 53.0895 21.5428 53.2493 21.2871 53.5689ZM61.0809 53.8566C60.8252 54.2082 60.921 54.7196 61.2726 54.9434C61.6242 55.1991 62.1037 55.1032 62.3594 54.7516C62.6151 54.4 62.5192 53.9205 62.1676 53.6648C62.0397 53.5689 61.8799 53.537 61.7201 53.537C61.4644 53.537 61.2407 53.6648 61.0809 53.8566ZM11.8261 53.6648C11.4745 53.9205 11.4106 54.4 11.6663 54.7516C11.8901 55.1032 12.3695 55.1991 12.7211 54.9434C13.0727 54.7196 13.1686 54.2082 12.9129 53.8566C12.785 53.6648 12.5293 53.537 12.2736 53.537C12.1458 53.537 11.9859 53.5689 11.8261 53.6648ZM54.113 54.1123C53.6335 54.5918 53.6335 55.3269 54.113 55.8064C54.5924 56.2539 55.3276 56.2539 55.807 55.8064C56.2545 55.3269 56.2545 54.5918 55.807 54.1123C55.5513 53.8886 55.2636 53.7607 54.944 53.7607C54.6563 53.7607 54.3367 53.8886 54.113 54.1123ZM18.2187 54.1123C17.7393 54.5918 17.7393 55.3269 18.2187 55.8064C18.6662 56.2539 19.4333 56.2539 19.8808 55.8064C20.3602 55.3269 20.3602 54.5918 19.8808 54.1123C19.657 53.8886 19.3694 53.7607 19.0497 53.7607C18.7621 53.7607 18.4424 53.8886 18.2187 54.1123ZM57.5649 54.2402C57.1814 54.6877 57.2453 55.3269 57.6928 55.6786C58.1083 56.0302 58.7476 55.9982 59.0992 55.5507C59.4827 55.1352 59.4188 54.4959 58.9713 54.1123C58.8115 53.9525 58.5558 53.8886 58.3321 53.8886C58.0444 53.8886 57.7567 54.0164 57.5649 54.2402ZM15.0224 54.1123C14.6069 54.4959 14.543 55.1352 14.8946 55.5507C15.2462 55.9982 15.8854 56.0302 16.3329 55.6786C16.7484 55.3269 16.8123 54.6877 16.4607 54.2402C16.269 54.0164 15.9813 53.8886 15.6617 53.8886C15.4379 53.8886 15.2142 53.9525 15.0224 54.1123ZM44.3323 55.295C44.3323 55.9662 44.8437 56.4776 45.515 56.4776C46.1542 56.4776 46.6976 55.9662 46.6976 55.295C46.6976 54.6557 46.1542 54.1123 45.515 54.1123C44.8437 54.1123 44.3323 54.6557 44.3323 55.295ZM27.2003 55.295C27.2003 55.9662 27.7117 56.4776 28.3829 56.4776C29.0221 56.4776 29.5655 55.9662 29.5655 55.295C29.5655 54.6557 29.0221 54.1123 28.3829 54.1123C27.7117 54.1123 27.2003 54.6557 27.2003 55.295ZM47.7204 55.5507C47.0492 55.9343 46.8254 56.7973 47.209 57.4366C47.5925 58.1078 48.4236 58.3316 49.0948 57.948C49.766 57.5644 49.9898 56.7334 49.6062 56.0621C49.3505 55.6146 48.8711 55.3589 48.3916 55.3589C48.1679 55.3589 47.9122 55.4228 47.7204 55.5507ZM24.3875 56.0621C24.004 56.7334 24.2277 57.5644 24.8989 57.948C25.5702 58.3316 26.4331 58.1078 26.8167 57.4366C27.2003 56.7973 26.9765 55.9343 26.3053 55.5507C26.0816 55.4228 25.8259 55.3589 25.6021 55.3589C25.1227 55.3589 24.6432 55.6146 24.3875 56.0621ZM41.5196 57.053C41.5196 57.5005 41.8712 57.8841 42.3506 57.8841C42.8301 57.8841 43.2136 57.5005 43.2136 57.053C43.2136 56.5735 42.8301 56.19 42.3506 56.19C41.8712 56.19 41.5196 56.5735 41.5196 57.053ZM30.7801 57.053C30.7801 57.5005 31.1636 57.8841 31.6111 57.8841C32.0906 57.8841 32.4741 57.5005 32.4741 57.053C32.4741 56.5735 32.0906 56.19 31.6111 56.19C31.1636 56.19 30.7801 56.5735 30.7801 57.053ZM50.8847 56.8293C50.3413 57.2128 50.2135 57.948 50.5971 58.4914C50.9806 59.0348 51.7157 59.1626 52.2591 58.7791C52.8025 58.3955 52.9303 57.6603 52.5468 57.1169C52.323 56.7973 51.9395 56.6055 51.5559 56.6055C51.3322 56.6055 51.0765 56.6694 50.8847 56.8293ZM21.4789 57.1169C21.0954 57.6603 21.2232 58.3955 21.7666 58.7791C22.3099 59.1626 23.0451 59.0348 23.4286 58.4914C23.8122 57.948 23.6524 57.2128 23.141 56.8293C22.9172 56.6694 22.6935 56.6055 22.4378 56.6055C22.0542 56.6055 21.7027 56.7973 21.4789 57.1169ZM44.3323 57.1169C43.5972 57.3726 43.2136 58.1717 43.5013 58.9069C43.757 59.6421 44.5561 59.9937 45.2912 59.738C45.9944 59.4823 46.378 58.6832 46.1223 57.948C45.8985 57.4046 45.3871 57.053 44.8118 57.053C44.652 57.053 44.4922 57.053 44.3323 57.1169ZM27.9034 57.948C27.6477 58.6832 27.9993 59.4823 28.7345 59.738C29.4377 59.9937 30.2367 59.6421 30.5244 58.9069C30.7801 58.1717 30.3965 57.3726 29.6934 57.1169C29.5335 57.053 29.3737 57.053 29.2139 57.053C28.6386 57.053 28.0952 57.4046 27.9034 57.948ZM54.2408 57.5644C53.8253 57.916 53.7614 58.5553 54.113 59.0028C54.4965 59.4183 55.1358 59.4823 55.5513 59.1307C55.9988 58.7471 56.0307 58.1078 55.6791 57.6923C55.4874 57.4366 55.1997 57.3087 54.912 57.3087C54.6563 57.3087 54.4326 57.4046 54.2408 57.5644ZM18.3146 57.6923C17.963 58.1078 18.0269 58.7471 18.4424 59.1307C18.8899 59.4823 19.5292 59.4183 19.8808 59.0028C20.2643 58.5553 20.2004 57.916 19.7529 57.5644C19.5611 57.4046 19.3374 57.3087 19.1137 57.3087C18.826 57.3087 18.5383 57.4366 18.3146 57.6923ZM57.7887 57.7882C57.501 58.1078 57.501 58.5873 57.7887 58.9069C58.1083 59.1946 58.5878 59.1946 58.8754 58.9069C59.1951 58.5873 59.1951 58.1078 58.8754 57.7882C58.7476 57.6284 58.5238 57.5644 58.3321 57.5644C58.1403 57.5644 57.9485 57.6284 57.7887 57.7882ZM15.1183 57.7882C14.7987 58.1078 14.7987 58.5873 15.1183 58.9069C15.4379 59.1946 15.9174 59.1946 16.205 58.9069C16.5247 58.5873 16.5247 58.1078 16.205 57.7882C16.0772 57.6284 15.8534 57.5644 15.6617 57.5644C15.4699 57.5644 15.2781 57.6284 15.1183 57.7882ZM40.7205 58.0758C39.9534 58.2357 39.442 58.9389 39.6018 59.706C39.7297 60.4731 40.4329 60.9526 41.2 60.8247C41.9671 60.6969 42.4785 59.9937 42.3506 59.2266C42.2228 58.5553 41.6155 58.0758 40.9762 58.0758C40.8803 58.0758 40.8164 58.0758 40.7205 58.0758ZM31.6751 59.2266C31.5472 59.9937 32.0586 60.6969 32.7938 60.8247C33.5609 60.9526 34.296 60.4731 34.4239 59.706C34.5517 58.9389 34.0403 58.2357 33.2732 58.0758C33.2093 58.0758 33.1134 58.0758 33.0495 58.0758C32.3782 58.0758 31.8029 58.5553 31.6751 59.2266ZM35.6065 59.8019C35.6065 60.569 36.2457 61.2083 37.0128 61.2083C37.78 61.2083 38.3872 60.569 38.3872 59.8019C38.3872 59.0348 37.78 58.4275 37.0128 58.4275C36.2457 58.4275 35.6065 59.0348 35.6065 59.8019ZM47.241 58.9389C46.6337 59.2266 46.378 59.9298 46.6656 60.5051C46.9213 61.1124 47.6565 61.3681 48.2318 61.1124C48.8391 60.8248 49.0948 60.1215 48.8071 59.5142C48.6154 59.0667 48.1679 58.811 47.7204 58.811C47.5606 58.811 47.4008 58.8749 47.241 58.9389ZM25.1866 59.5142C24.8989 60.1215 25.1866 60.8248 25.7619 61.1124C26.3692 61.3681 27.0724 61.1124 27.3601 60.5051C27.6477 59.9298 27.3601 59.2266 26.7847 58.9389C26.6249 58.8749 26.4331 58.811 26.2733 58.811C25.8259 58.811 25.4103 59.0667 25.1866 59.5142ZM50.4053 60.2494C49.9258 60.5051 49.766 61.1444 50.0537 61.6239C50.3094 62.1033 50.9486 62.2951 51.4281 62.0074C51.9075 61.7197 52.0993 61.1124 51.8116 60.601C51.6199 60.2814 51.2683 60.0896 50.9167 60.0896C50.7569 60.0896 50.5651 60.1535 50.4053 60.2494ZM22.2141 60.601C21.9264 61.1124 22.0862 61.7197 22.5656 62.0074C23.0451 62.2951 23.6843 62.1033 23.972 61.6239C24.2597 61.1444 24.0679 60.5051 23.5885 60.2494C23.4286 60.1535 23.2688 60.0896 23.0771 60.0896C22.7255 60.0896 22.3739 60.2814 22.2141 60.601ZM43.2776 60.3773C42.6383 60.5371 42.2547 61.2083 42.4146 61.8476C42.6063 62.4869 43.2456 62.8385 43.8849 62.6787C44.5241 62.5188 44.9077 61.8476 44.7159 61.2083C44.588 60.6969 44.1086 60.3453 43.5652 60.3453C43.4693 60.3453 43.3734 60.3453 43.2776 60.3773ZM29.2778 61.2083C29.118 61.8476 29.5016 62.5188 30.1089 62.6787C30.7481 62.8385 31.4193 62.4869 31.5792 61.8476C31.7709 61.2083 31.3874 60.5371 30.7481 60.3773C30.6522 60.3453 30.5244 60.3453 30.4285 60.3453C29.9171 60.3453 29.4377 60.6969 29.2778 61.2083ZM53.8573 61.0805C53.5057 61.3362 53.4417 61.8156 53.6655 62.1672C53.9212 62.5188 54.4006 62.6147 54.7522 62.359C55.1038 62.1033 55.1997 61.6239 54.944 61.2722C54.7842 61.0485 54.5604 60.9526 54.3047 60.9526C54.1449 60.9526 53.9851 60.9846 53.8573 61.0805ZM19.0497 61.2722C18.826 61.6239 18.8899 62.1033 19.2415 62.359C19.5931 62.6147 20.0725 62.5188 20.3282 62.1672C20.5839 61.8156 20.4881 61.3362 20.1365 61.0805C20.0086 60.9846 19.8488 60.9526 19.689 60.9526C19.4653 60.9526 19.2095 61.0485 19.0497 61.2722ZM39.1224 61.1124C38.4512 61.1764 37.9717 61.7517 38.0357 62.391C38.0996 63.0622 38.6749 63.5417 39.3142 63.4778C39.9854 63.4458 40.4648 62.8385 40.4009 62.1992C40.337 61.5599 39.8256 61.1124 39.2183 61.1124H39.1224ZM33.5928 62.1992C33.5609 62.8385 34.0403 63.4458 34.6796 63.4778C35.3508 63.5417 35.9261 63.0622 35.99 62.391C36.022 61.7517 35.5426 61.1764 34.9033 61.1124C34.9033 61.1124 34.8394 61.1124 34.7754 61.1124C34.1682 61.1124 33.6567 61.5599 33.5928 62.1992ZM46.1862 62.1992C45.6428 62.391 45.3871 62.9983 45.5789 63.5097C45.7707 64.0531 46.346 64.3088 46.8894 64.117C47.4008 63.9253 47.6884 63.3499 47.4967 62.8065C47.3368 62.4229 46.9533 62.1672 46.5378 62.1672C46.4099 62.1672 46.2821 62.1672 46.1862 62.1992ZM26.529 62.8065C26.3373 63.3499 26.593 63.9253 27.1363 64.117C27.6477 64.3088 28.255 64.0531 28.4468 63.5097C28.6386 62.9983 28.3509 62.391 27.8395 62.1992C27.7117 62.1672 27.5838 62.1672 27.4879 62.1672C27.0724 62.1672 26.6889 62.4229 26.529 62.8065ZM41.6475 63.4138C41.1041 63.5097 40.7525 64.0531 40.8484 64.5965C40.9443 65.1719 41.4557 65.5235 42.031 65.4276C42.5744 65.3317 42.926 64.7883 42.8301 64.2449C42.7662 63.7654 42.3187 63.4138 41.8392 63.4138C41.7753 63.4138 41.7114 63.4138 41.6475 63.4138ZM31.1636 64.2449C31.0678 64.7883 31.4513 65.3317 31.9947 65.4276C32.538 65.5235 33.0814 65.1719 33.1773 64.5965C33.2732 64.0531 32.8896 63.5097 32.3463 63.4138C32.2823 63.4138 32.2184 63.4138 32.1545 63.4138C31.6751 63.4138 31.2595 63.7654 31.1636 64.2449ZM49.4144 63.6376C49.0309 63.8294 48.8711 64.3088 49.0628 64.6924C49.2226 65.076 49.7021 65.2358 50.0856 65.044C50.4692 64.8842 50.629 64.4047 50.4692 64.0211C50.3413 63.7335 50.0537 63.5737 49.766 63.5737C49.6382 63.5737 49.5423 63.6056 49.4144 63.6376ZM23.5565 64.0211C23.3647 64.4047 23.5245 64.8842 23.9081 65.044C24.3236 65.2358 24.7711 65.076 24.9629 64.6924C25.1227 64.3088 24.9629 63.8294 24.5793 63.6376C24.4834 63.6056 24.3556 63.5737 24.2597 63.5737C23.972 63.5737 23.6843 63.7335 23.5565 64.0211ZM35.99 64.8522C35.99 65.3956 36.4375 65.8751 37.0128 65.8751C37.5562 65.8751 38.0357 65.3956 38.0357 64.8522C38.0357 64.2769 37.5562 63.8294 37.0128 63.8294C36.4375 63.8294 35.99 64.2769 35.99 64.8522ZM44.62 65.3956C44.2045 65.5235 43.9488 65.939 44.0766 66.3545C44.1725 66.7701 44.588 67.0258 45.0036 66.8979C45.4191 66.802 45.6748 66.3545 45.5789 65.939C45.483 65.6193 45.1634 65.3636 44.8118 65.3636C44.7479 65.3636 44.6839 65.3956 44.62 65.3956ZM28.4468 65.939C28.319 66.3545 28.5747 66.802 28.9902 66.8979C29.4057 67.0258 29.8212 66.7701 29.9491 66.3545C30.0449 65.939 29.8212 65.5235 29.4057 65.3956C29.3418 65.3956 29.2459 65.3636 29.182 65.3636C28.8623 65.3636 28.5427 65.6193 28.4468 65.939ZM39.5699 66.2906C39.1224 66.3226 38.8347 66.7061 38.8667 67.1217C38.8987 67.5691 39.2822 67.8888 39.6977 67.8249C40.1452 67.7929 40.4329 67.4413 40.4009 66.9938C40.3689 66.5783 40.0174 66.2906 39.6338 66.2906H39.5699ZM33.5928 66.9938C33.5609 67.4413 33.8805 67.7929 34.296 67.8249C34.7435 67.8888 35.127 67.5691 35.159 67.1217C35.191 66.7061 34.8713 66.3226 34.4558 66.2906H34.3599C33.9764 66.2906 33.6248 66.5783 33.5928 66.9938Z" fill="url(#paint0_radial_2201_7873)"/>
<defs>
<radialGradient id="paint0_radial_2201_7873" cx="0" cy="0" r="1" gradientUnits="userSpaceOnUse" gradientTransform="translate(37.0039 37.0065) rotate(-90) scale(31.2076 31.2065)">
<stop stop-color="#BFADE7"/>
<stop offset="0.69" stop-color="#C0ACE7"/>
<stop offset="1" stop-color="#7F59EB"/>
</radialGradient>
</defs>
</svg>
