<svg xmlns="http://www.w3.org/2000/svg" width="286" height="61" fill="none" viewBox="0 0 286 61"><mask id="a" width="266" height="41" x="10" y="10" maskUnits="userSpaceOnUse" style="mask-type:luminance"><path fill="#fff" d="M275.609 10H10v41h265.609z"/></mask><g mask="url(#a)"><path fill="#08060b" d="M61.217 41.543q-.927 0-1.31-.381-.351-.38-.351-1.207V21.573q0-.825.383-1.206.382-.413 1.278-.413h7.828q4.473 0 6.582 1.873t2.108 5.588q0 3.683-2.108 5.556-2.078 1.84-6.582 1.841H66.01v5.143q0 .825-.384 1.207-.383.38-1.31.38zm7.317-11.334q1.31 0 2.013-.699.734-.698.734-2.095 0-1.43-.734-2.127-.704-.699-2.013-.699h-2.525v5.62zM85.28 42.019q-3.002 0-4.824-1.905-1.79-1.936-1.789-5.429 0-2.667 1.214-4.667 1.247-2 3.483-3.08 2.268-1.11 5.208-1.11 2.428 0 4.281.539 1.885.508 3.451 1.492v12.7q0 .603-.224.793-.223.19-.894.19h-3.26q-.35 0-.542-.095a.96.96 0 0 1-.32-.38l-.415-.953a5.4 5.4 0 0 1-2.237 1.429q-1.278.476-3.131.476m2.397-4.318q1.246 0 1.95-.603.702-.603.702-1.715v-4.952q-.607-.286-1.533-.286-1.695 0-2.716 1.175-.99 1.174-.99 3.301 0 3.08 2.587 3.08M100.751 41.543q-.929 0-1.31-.381-.384-.381-.384-1.207V27.288q0-.572.192-.762.224-.222.894-.222h3.291q.383 0 .575.127.224.095.256.38l.16.953q.894-.889 2.332-1.397 1.47-.54 3.259-.54 2.587 0 4.185 1.46 1.599 1.43 1.598 4.255v8.413q0 .825-.384 1.207-.351.38-1.278.38h-3.099q-.926 0-1.341-.38-.384-.381-.383-1.207v-8q0-.953-.416-1.365-.416-.414-1.31-.413-.959 0-1.534.508-.543.507-.543 1.397v7.873q0 .825-.383 1.207-.351.38-1.278.38zM127.092 42.019q-4.471 0-6.901-2.064-2.428-2.063-2.428-6 0-2.413 1.119-4.254 1.118-1.842 3.226-2.858 2.14-1.016 5.049-1.016 2.204 0 3.706.413a8.2 8.2 0 0 1 2.715 1.27q.352.222.352.571 0 .255-.255.667l-1.311 2.254q-.222.445-.542.445-.193 0-.607-.254a7.7 7.7 0 0 0-1.631-.794q-.734-.255-1.853-.254-1.597 0-2.587 1.016-.959 1.015-.959 2.794 0 1.81.991 2.794.99.952 2.716.952 1.022 0 1.853-.286a9.3 9.3 0 0 0 1.693-.793q.447-.255.639-.254.288 0 .511.444l1.438 2.445q.16.316.159.508 0 .285-.383.54a10.1 10.1 0 0 1-2.939 1.27q-1.566.444-3.771.444M142.286 42.019q-3.002 0-4.823-1.905-1.79-1.936-1.79-5.429 0-2.667 1.214-4.667 1.247-2 3.482-3.08 2.27-1.11 5.209-1.11 2.428 0 4.281.539 1.885.508 3.451 1.492v12.7q0 .603-.224.793t-.894.19h-3.259q-.351 0-.544-.095a.96.96 0 0 1-.319-.38l-.415-.953a5.4 5.4 0 0 1-2.237 1.429q-1.278.476-3.132.476m2.397-4.318q1.247 0 1.949-.603t.703-1.715v-4.952q-.607-.286-1.534-.286-1.693 0-2.716 1.175-.99 1.174-.99 3.301 0 3.08 2.588 3.08M173.38 40.336q.223.255.223.572 0 .285-.191.476-.192.159-.511.159h-4.953q-.447 0-.67-.064a1.4 1.4 0 0 1-.416-.349l-4.346-5.873v4.698q0 .825-.383 1.207-.384.38-1.309.38h-3.1q-.928 0-1.309-.38-.353-.38-.353-1.207V21.573q0-.825.384-1.206.383-.413 1.278-.413h3.1q.925 0 1.309.413.383.381.383 1.206V32.21l4.218-5.461q.192-.255.415-.35.225-.094.672-.094h4.952q.32 0 .479.19a.55.55 0 0 1 .192.445.84.84 0 0 1-.224.571l-5.464 6.223zM183.754 42.019q-2.683 0-4.792-.889-2.077-.89-3.291-2.667-1.214-1.778-1.214-4.35 0-4.03 2.301-6.158 2.3-2.128 6.613-2.128 4.218 0 6.39 2.096 2.206 2.064 2.205 5.746 0 1.587-1.406 1.588h-10.032q0 1.365 1.022 2.095 1.054.73 3.163.73 1.31 0 2.173-.222a9 9 0 0 0 1.789-.73q.383-.16.511-.16.287 0 .48.382l1.086 2.032q.16.318.16.476 0 .285-.384.54-1.31.857-2.971 1.238-1.662.38-3.803.38m2.46-9.905q0-1.208-.702-1.874-.704-.666-2.109-.666t-2.141.698q-.735.667-.734 1.842zM202.918 42.018q-2.685 0-5.081-.54-2.396-.57-3.866-1.587-.543-.35-.543-.73 0-.255.191-.54l1.566-2.476q.256-.38.511-.38.16 0 .543.221 1.183.668 2.685 1.08 1.501.412 2.971.412 1.502 0 2.204-.444.736-.445.735-1.429 0-.952-.799-1.492-.766-.54-2.907-1.365-3.228-1.206-5.049-2.699-1.788-1.524-1.788-4.127 0-3.142 2.268-4.794 2.269-1.65 6.039-1.65 2.62 0 4.473.475 1.885.445 3.194 1.397.544.413.544.762 0 .223-.191.508l-1.566 2.477q-.288.38-.511.38-.16 0-.544-.222-1.853-1.206-4.409-1.206-1.374 0-2.109.444-.734.446-.734 1.46 0 .699.383 1.144.384.444 1.022.793.672.318 2.045.826l.607.222q2.364.921 3.707 1.778 1.373.825 2.076 2.064.702 1.206.703 3.047 0 2.826-2.14 4.509-2.11 1.682-6.23 1.682M218.077 41.542q-.478 0-.735-.158-.256-.16-.384-.635l-4.121-13.716a1 1 0 0 1-.064-.285q0-.445.639-.445h4.217q.416 0 .607.159.193.127.255.445l1.726 7.206 2.173-5.81q.161-.38.319-.508.192-.158.641-.158h2.011q.448 0 .607.159.192.126.353.508l2.14 5.81 1.758-7.207q.093-.318.255-.445.16-.159.574-.159h4.251q.638 0 .639.445 0 .095-.064.285L231.72 40.75q-.129.476-.383.635-.225.158-.703.158h-3.132q-.447 0-.671-.158-.224-.19-.384-.635l-2.109-5.747-2.108 5.747q-.128.444-.384.635-.223.158-.669.158zM244.036 42.019q-3.003 0-4.825-1.905-1.788-1.936-1.789-5.429 0-2.667 1.215-4.667 1.245-2 3.481-3.08 2.27-1.11 5.209-1.11 2.427 0 4.282.539 1.885.508 3.45 1.492v12.7q0 .603-.224.793t-.894.19h-3.259q-.352 0-.543-.095a.95.95 0 0 1-.32-.38l-.415-.953a5.4 5.4 0 0 1-2.237 1.429q-1.278.476-3.131.476m2.398-4.318q1.244 0 1.948-.603.703-.603.703-1.715v-4.952q-.608-.286-1.535-.286-1.693 0-2.715 1.175-.99 1.174-.991 3.301 0 3.08 2.59 3.08M259.473 47.956q-.925 0-1.311-.381-.35-.38-.35-1.207V28.177q1.438-1.016 3.61-1.683a15.4 15.4 0 0 1 4.537-.667q9.65 0 9.65 8.128 0 3.683-2.045 5.873t-5.783 2.19a8.2 8.2 0 0 1-2.046-.253q-.957-.254-1.597-.699v5.302q0 .825-.383 1.207-.383.38-1.311.38zm6.934-10.223q1.375 0 2.044-1.016.702-1.048.703-2.794 0-2.064-.829-2.89-.8-.855-2.493-.856-1.088 0-1.725.286v5.048q0 1.08.605 1.65.61.572 1.695.572"/><path fill="#633001" fill-rule="evenodd" d="M30.228 50.92c-6.053-.006-10.929-1.449-14.336-4.041-3.447-2.623-5.276-6.346-5.276-10.559 0-4.059 1.825-6.986 3.89-8.964 1.618-1.55 3.404-2.544 4.647-3.115a64 64 0 0 1-.946-3.14c-.42-1.55-.832-3.371-.832-4.705 0-1.58.347-3.165 1.28-4.397.988-1.302 2.473-1.999 4.26-1.999 1.398 0 2.584.515 3.512 1.403.887.85 1.478 1.977 1.886 3.152.717 2.065.996 4.66 1.074 7.25h1.712c.078-2.59.357-5.185 1.074-7.25.408-1.175.998-2.303 1.886-3.152A4.96 4.96 0 0 1 37.57 10c1.788 0 3.273.697 4.26 2 .934 1.231 1.28 2.817 1.28 4.396 0 1.334-.411 3.154-.831 4.706a64 64 0 0 1-.946 3.14c1.243.57 3.03 1.563 4.647 3.114 2.065 1.978 3.89 4.905 3.89 8.964 0 4.213-1.829 7.936-5.276 10.559-3.407 2.592-8.283 4.035-14.336 4.04z" clip-rule="evenodd"/><path fill="#d1884f" d="M22.916 11.502c-2.618 0-3.823 1.96-3.823 4.671 0 2.155 1.4 6.471 1.974 8.151a.756.756 0 0 1-.444.939c-2.098.83-8.29 3.87-8.29 10.835 0 7.335 6.292 12.866 17.896 12.874h.028c11.603-.008 17.895-5.54 17.895-12.874 0-6.964-6.191-10.005-8.29-10.835a.756.756 0 0 1-.444-.939c.575-1.68 1.975-5.996 1.975-8.15 0-2.712-1.205-4.672-3.823-4.672-3.768 0-4.708 5.358-4.775 11.108a.7.7 0 0 1-.696.696h-3.713a.7.7 0 0 1-.696-.696c-.067-5.75-1.006-11.108-4.774-11.108"/><path fill="#fedc90" d="M30.257 46.623c-8.526 0-17.909-4.581-17.924-10.512v.028c0 7.341 6.303 12.875 17.924 12.875S48.18 43.48 48.18 36.139v-.028c-.014 5.93-9.398 10.512-17.923 10.512"/><path fill="#633001" d="M25.52 34.29c0 2.002-.943 3.045-2.106 3.045s-2.105-1.043-2.105-3.045.942-3.045 2.105-3.045 2.106 1.043 2.106 3.045M39.205 34.29c0 2.002-.943 3.045-2.106 3.045s-2.105-1.043-2.105-3.045.943-3.045 2.105-3.045c1.163 0 2.106 1.043 2.106 3.045"/></g></svg>