<svg xmlns="http://www.w3.org/2000/svg" width="140" height="32" fill="none" viewBox="0 0 140 32"><path fill="#00e100" d="M28 9.846 10.77 0 8.614 1.232v2.46L6.462 2.462 4.308 3.693v2.46L2.154 4.923 0 6.154v19.692l2.154 1.232 2.154-1.232v2.461l2.154 1.232 2.153-1.232v2.461L10.77 32 28 22.154v-2.461l-2.154-1.232L28 17.229v-2.46l-2.154-1.232L28 12.305zM4.308 23.386l-2.154 1.231V7.385l2.154 1.232zm6.461 1.229v-2.461l8.616-4.922 2.153 1.231zM17.231 16l-6.462 3.693v-7.386zm2.154-1.232-8.616-4.922v-2.46l10.77 6.153zM6.462 4.922l2.153 1.232v2.46L6.462 7.384zm0 4.924 2.153 1.232v9.846l-2.153 1.232zm0 14.769 2.153-1.232v2.461l-2.153 1.232zm19.384-3.693L10.77 29.537v-2.461l12.923-7.386zm0-4.922-2.154 1.232L21.538 16l2.154-1.232zm-2.154-3.693L10.77 4.922V2.461l15.077 8.615z"/><g fill="#fff"><path d="M38.93 22.726c.002.26.738.537 1.78.668l.733.063.013 1.253-7.495.078-.013-1.253.567-.077c1.015-.176 1.603-.442 1.6-.702l-.142-13.714c-.002-.26-.596-.514-1.615-.67l-.568-.064-.013-1.253 6.243-.065c4.492-.047 7.913 1.479 7.95 4.978.034 3.31-2.873 5.776-7.668 6.299l-.297-1.274c2.88-.409 5.067-1.59 5.042-4.025-.027-2.625-1.796-4.498-5.603-4.459l-.662.007zM48.715 21.209c0-2.696 2.175-3.24 4.232-3.57 1.088-.19 1.797-.497 2.341-1.088l.024-1.135c.024-1.845-.78-2.578-1.939-2.578-1.064 0-1.442.473-1.442 1.064 0 .402.094.71.094.923 0 .307-.473.543-1.347.543-.733 0-1.466-.236-1.466-.52 0-1.064 2.577-3.76 5.13-3.76 2.176 0 3.524.875 3.477 3.43l-.119 5.438c-.047 2.128.544 2.672 1.585 2.672.26 0 .425-.024.662-.095l.07.047c-.283 1.159-1.205 1.94-2.34 1.94-1.206 0-1.892-.758-2.27-1.869-.71 1.23-1.726 1.987-3.145 1.987-1.939 0-3.547-1.23-3.547-3.429m4.35 1.632c.852 0 1.561-.45 2.129-1.017l.07-4.02c-.354.497-.898.757-1.726 1.017-1.276.402-2.34.78-2.34 2.175 0 1.206.756 1.845 1.868 1.845M62.762 14.564c0-.236-.19-.425-1.82-1.182v-.851l3.31-1.419h.591l.378 2.436c.97-1.585 1.821-2.412 3.24-2.412.757 0 1.442.284 1.442.567 0 1.159-.78 2.72-1.135 2.72-.07 0-.118-.024-.284-.119-.567-.33-1.111-.544-1.679-.544-.496 0-1.017.284-1.49.71v7.78c0 .26.615.52 1.774.685l.733.095v1.135h-6.834V23.03l.426-.095c1.017-.213 1.348-.426 1.348-.686zM70.35 21.209c0-2.696 2.175-3.24 4.232-3.57 1.088-.19 1.797-.497 2.341-1.088l.024-1.135c.023-1.845-.78-2.578-1.94-2.578-1.063 0-1.442.473-1.442 1.064 0 .402.095.71.095.923 0 .307-.473.543-1.348.543-.733 0-1.466-.236-1.466-.52 0-1.064 2.578-3.76 5.132-3.76 2.175 0 3.523.875 3.475 3.43l-.118 5.438c-.047 2.128.544 2.672 1.585 2.672.26 0 .425-.024.662-.095l.07.047c-.283 1.159-1.205 1.94-2.34 1.94-1.206 0-1.892-.758-2.27-1.869-.71 1.23-1.726 1.987-3.145 1.987-1.939 0-3.547-1.23-3.547-3.429m4.35 1.632c.852 0 1.561-.45 2.129-1.017l.07-4.02c-.354.497-.898.757-1.726 1.017-1.276.402-2.34.78-2.34 2.175 0 1.206.756 1.845 1.867 1.845M92.524 24.803h-.615l-.331-1.891c-1.371.946-2.838 1.726-4.209 1.726-2.956 0-5.297-2.53-5.297-6.337 0-4.375 2.885-7.165 6.385-7.165 1.23 0 2.128.237 2.837.686V7.808c0-.236-.212-.426-1.868-1.324v-.828l3.83-1.3h.568v15.553c0 2.057.592 2.6 1.466 2.6.213 0 .426-.023.662-.07l.071.047v1.277zm-3.571-2.199c.875 0 1.632-.213 2.34-.591v-5.864c0-2.105-1.323-3.476-3.167-3.476-1.892 0-3.382 1.371-3.382 4.35 0 3.595 1.632 5.581 4.209 5.581M96.944 24.165V23.03l.425-.095c1.017-.236 1.348-.45 1.348-.71v-7.66c0-.237-.189-.426-1.82-1.183v-.851l3.807-1.419h.567v11.114c0 .26.355.473 1.348.709l.425.095v1.135zm4.847-17.427c0 1.111-.756 1.797-1.868 1.797-1.111 0-1.868-.686-1.868-1.797 0-1.088.757-1.774 1.868-1.774 1.135 0 1.868.686 1.868 1.774M108.193 19.861c-.544.426-.97.922-.97 1.419 0 .473.426.686 1.774.78l3.831.284c2.317.19 3.641 1.348 3.641 3.216 0 2.814-2.956 5.462-7.259 5.462-3.523 0-5.226-1.3-5.226-3.263 0-1.253.875-2.057 2.956-3.57-1.017-.213-2.364-.946-2.364-1.892 0-.97.945-1.844 2.553-2.696-1.631-.614-2.766-1.962-2.766-3.83 0-2.79 2.175-4.635 5.202-4.635 1.158 0 2.175.355 2.932.946l3.901.095v1.229l-2.624.591c.283.45.473.97.473 1.632 0 2.506-2.152 4.303-5.155 4.303a6 6 0 0 1-.899-.07m1.75 9.671c2.199 0 3.996-1.3 3.996-3.145 0-1.135-.615-1.631-2.507-1.773l-3.121-.213c-1.017.686-1.892 1.68-1.892 2.625 0 1.419 1.277 2.507 3.524 2.507m1.915-13.36c0-1.82-.969-3.428-2.814-3.428-1.276 0-2.175.875-2.175 2.293 0 1.797.922 3.429 2.79 3.429 1.324 0 2.199-.875 2.199-2.294M119.59 14.565c0-.236-.189-.425-1.82-1.182v-.851l3.31-1.419h.591l.284 1.845c1.513-.946 3.121-1.845 4.658-1.845 1.371 0 2.365.473 2.861 1.939 1.585-.97 3.263-1.939 4.871-1.939 2.01 0 3.216 1.064 3.216 4.966v6.171c0 .26.355.473 1.371.686l.402.095v1.135h-6.077V23.03l.402-.095c1.017-.236 1.348-.425 1.348-.686v-5.817c0-2.246-.875-3.215-2.719-3.215-.899 0-1.821.283-2.578.685.118.592.166 1.325.166 2.176v6.171c0 .26.331.473 1.324.686l.425.095v1.135h-6.053V23.03l.402-.095c1.017-.236 1.348-.425 1.348-.686v-5.817c0-2.246-.875-3.215-2.743-3.215-.828 0-1.703.26-2.436.614v8.418c0 .26.331.45 1.348.686l.402.095v1.135h-6.077v-1.135l.426-.095c1.016-.212 1.347-.425 1.347-.686v-7.684z"/></g></svg>