<svg xmlns="http://www.w3.org/2000/svg" width="94" height="108" fill="none" viewBox="0 0 94 108"><path fill="#00e100" d="M94 33.231 36.154 0l-7.23 4.157v8.306l-7.232-4.157-7.23 4.157v8.306L7.23 16.612 0 20.769V87.23l7.23 4.157 7.231-4.157v8.306l7.231 4.157 7.231-4.157v8.306l7.23 4.157L94 74.769v-8.306l-7.23-4.157L94 58.149v-8.306l-7.23-4.157L94 41.53zM14.462 78.926 7.23 83.082V24.926l7.23 4.157zm21.692 4.148V74.77l28.923-16.612 7.23 4.157zM57.846 54 36.154 66.463V41.537zm7.23-4.157L36.155 33.231v-8.306l36.154 20.77zM21.693 16.612l7.231 4.157v8.306l-7.23-4.157zm0 16.62 7.231 4.156V70.62l-7.23 4.157zm0 49.843 7.231-4.157v8.305l-7.23 4.157zM86.77 70.612 36.154 99.686V91.38l43.384-24.925zm0-16.612-7.23 4.157L72.308 54l7.23-4.157zm-7.23-12.463L36.154 16.612V8.306L86.769 37.38z"/></svg>