<svg width="256" height="236" viewBox="0 0 256 236" fill="none" xmlns="http://www.w3.org/2000/svg">
<path d="M149.278 5.26826C139.655 2.68552 129.76 8.39322 127.177 18.0168L108.778 86.5721C106.195 96.1956 111.903 106.091 121.527 108.674L190.081 127.072C199.705 129.655 209.6 123.948 212.183 114.324L230.582 45.7685C233.165 36.1449 227.457 26.2496 217.833 23.6669L149.278 5.26826Z" fill="#F4F2EE"/>
<path d="M83.9906 87.4384C76.5289 81.3319 65.5846 82.1715 59.1418 89.3448L13.1775 140.52C6.30196 148.175 7.21084 160.022 15.1737 166.538L68.9848 210.576C76.4464 216.682 87.3906 215.842 93.8334 208.669L139.798 157.494C146.673 149.839 145.765 137.993 137.802 131.477L83.9906 87.4384Z" fill="#F4F2EE"/>
<path d="M255.965 149.781C255.965 139.817 247.887 131.739 237.923 131.739H170.462C160.497 131.739 152.42 139.817 152.42 149.781V217.243C152.42 227.207 160.497 235.284 170.462 235.284H237.923C247.887 235.284 255.965 227.207 255.965 217.243V149.781Z" fill="#F4F2EE"/>
</svg>
