<svg xmlns="http://www.w3.org/2000/svg" width="256" height="236" fill="none" viewBox="0 0 256 236"><path fill="#f4f2ee" d="M149.278 5.268c-9.623-2.582-19.518 3.125-22.101 12.749l-18.399 68.555c-2.583 9.624 3.125 19.519 12.749 22.102l68.554 18.398c9.624 2.583 19.519-3.124 22.102-12.748l18.399-68.555c2.583-9.624-3.125-19.52-12.749-22.102zM83.99 87.438c-7.461-6.106-18.405-5.267-24.848 1.907L13.178 140.52c-6.876 7.655-5.967 19.502 1.996 26.018l53.81 44.038c7.462 6.106 18.407 5.266 24.85-1.907l45.964-51.175c6.875-7.655 5.967-19.501-1.996-26.017zM255.965 149.781c0-9.964-8.078-18.042-18.042-18.042h-67.461c-9.965 0-18.042 8.078-18.042 18.042v67.462c0 9.964 8.077 18.041 18.042 18.041h67.461c9.964 0 18.042-8.077 18.042-18.041z"/></svg>