<svg xmlns="http://www.w3.org/2000/svg" width="116" height="24" fill="none"><path fill="#F3F5F0" d="M21.302 7.351c0-.941-.134-1.86-.427-2.725a6.392 6.392 0 0 0-1.363-2.333c-.62-.685-1.438-1.234-2.427-1.644C16.074.216 14.87 0 13.454 0H.3v3.918h2.936v6.86H.3v3.919h2.936v8.21H8.23V14.68h5.246c1.421 0 2.62-.216 3.614-.626.989-.409 1.807-.959 2.427-1.643a6.256 6.256 0 0 0 1.363-2.35 8.53 8.53 0 0 0 .427-2.703l-.006-.006Zm-5.187 1.743c-.252.45-.562.801-.971 1.041-.41.257-.872.41-1.398.491-.526.076-1.088.135-1.65.135H8.215V3.924h3.883a9.42 9.42 0 0 1 1.649.135c.526.076.988.257 1.398.491.41.257.72.59.97 1.041.252.45.369 1.041.369 1.766 0 .725-.134 1.31-.368 1.743v-.006ZM28.262.006 19.694 22.89h5.012l1.79-5.094h8.491l1.708 5.094h5.187L33.391.006h-5.13Zm-.468 14.03 2.953-8.387h.059l2.854 8.387h-5.866Zm32.171-1.626a6.256 6.256 0 0 0 1.363-2.35 8.53 8.53 0 0 0 .427-2.703 8.48 8.48 0 0 0-.41-2.725 6.46 6.46 0 0 0-1.356-2.334c-.62-.684-1.44-1.234-2.427-1.643-1.012-.433-2.217-.65-3.632-.65H43.847v22.903h4.837v-8.229h4.743l1.883 4.053 1.708 4.152h5.187l-4.146-9.07c.76-.38 1.403-.848 1.912-1.41l-.006.006Zm-6.404 2.27h.012l.433 1.017-.439-1.018h-.006Zm3.006-5.586c-.251.45-.561.801-.97 1.041-.41.257-.872.41-1.398.491-.527.076-1.088.135-1.65.135h-3.883V3.924h3.884c.561 0 1.128.041 1.649.135.526.076.988.257 1.398.491.409.257.719.59.97 1.041.252.45.369 1.041.369 1.766 0 .725-.117 1.31-.369 1.743v-.006ZM70.498.047h-4.994v4.72h4.994V.046Zm0 6.971h-4.994V22.89h4.994V7.018Zm19.212 3.41c1.029-.492 1.79-1.117 2.31-1.884.526-.766.778-1.725.778-2.877 0-1.059-.176-1.96-.527-2.684-.35-.726-.836-1.31-1.474-1.743C90.154.807 89.4.497 88.505.298 87.61.1 86.639.006 85.552.006H74.884V22.89H85.88c1.012 0 2-.134 2.971-.392a8.69 8.69 0 0 0 2.567-1.193 6.214 6.214 0 0 0 1.79-2.076c.45-.842.66-1.842.66-3 0-1.433-.35-2.643-1.028-3.661-.679-1.018-1.731-1.725-3.13-2.135v-.005Zm-9.831-6.504h4.66a7 7 0 0 1 1.282.117c.409.059.777.193 1.087.392.31.199.562.468.76.801.194.334.293.784.293 1.31 0 .96-.292 1.644-.854 2.076-.585.433-1.304.65-2.193.65h-5.03V3.924h-.005Zm8.725 13.498c-.21.392-.485.708-.813.918-.35.234-.736.392-1.187.492-.45.099-.912.134-1.397.134v.018h-5.322v-6.287h5.438c1.088 0 1.942.234 2.603.742.66.492.988 1.334.988 2.51 0 .59-.117 1.075-.31 1.467v.006ZM110.81.006v14.223c0 1.702-.333 2.96-1.011 3.76-.679.802-1.907 1.194-3.691 1.194-1.011 0-1.824-.135-2.427-.433-.602-.275-1.087-.667-1.415-1.117a3.733 3.733 0 0 1-.661-1.585 10.963 10.963 0 0 1-.158-1.825V.006h-4.994v14.246c0 3.117.836 5.428 2.526 6.919 1.69 1.491 4.059 2.234 7.129 2.234 3.071 0 5.398-.743 7.112-2.252 1.708-1.508 2.561-3.819 2.585-6.918V.005h-4.995Z"/></svg>