<svg xmlns="http://www.w3.org/2000/svg" width="140" height="36" fill="none" viewBox="0 0 140 36"><path fill="#1a1e27" d="M133.29 23.304h2.222v4.888h.445l1.086-4.889h2.37l-1.58 5.728 1.58 6.073h-2.37l-1.086-5.135h-.445v5.135h-2.222zM127.464 23.304h4.888v2.024h-2.715v2.913h2.073v1.827h-2.073v3.11h2.715v1.975h-4.888zM121.589 23.304h4.888v2.024h-2.716v2.913h2.074v1.827h-2.074v3.11h2.716v1.975h-4.888zM111.072 23.304h2.173l.889 7.603.888-7.603h1.926l.889 7.603.888-7.603h2.173l-1.876 11.8h-2.272l-.839-7.307-.839 7.307h-2.271zM101.287 23.46h2.074l1.58 5.876v-5.875h2.221v11.8h-2.073l-1.58-5.678v5.678h-2.222zM97.782 23.46h2.172v11.8h-2.172zM92.647 23.46h2.37l2.222 11.8h-2.173l-.345-1.974h-1.778l-.345 1.975h-2.173zm1.777 8.048-.592-4.443-.642 4.443zM84.055 23.46h2.222v4.889h1.333V23.46h2.173v11.8H87.61v-5.085h-1.333v5.086h-2.222zM70.873 23.46h2.222v4.889h.444l1.086-4.889h2.37l-1.53 5.728 1.58 6.073h-2.37l-1.087-5.135h-.444v5.135h-2.222v-11.8zM52.012 23.46h2.222v9.826h2.42v1.975H52.06zM45.1 23.46h2.715c1.728 0 2.913.84 2.913 2.321v1.777c0 .89-.296 1.432-.938 1.68.642.246 1.037.74 1.037 1.777v1.975c0 1.48-1.185 2.27-2.913 2.27H45.1zm2.666 4.987c.346 0 .84-.05.84-.592v-1.876c0-.494-.445-.593-.84-.593h-.444v3.061zm.05 4.839c.345 0 .839-.05.839-.593V30.62c0-.543-.445-.593-.84-.593h-.493v3.259zM57.098 32.545v-6.32c0-1.678 1.185-2.863 2.913-2.863s2.913 1.185 2.913 2.864v6.32c0 1.678-1.235 2.863-2.913 2.863-1.728 0-2.913-1.185-2.913-2.864m2.913.84c.296 0 .69-.099.69-.79v-6.468c0-.691-.394-.79-.69-.79-.297 0-.741.099-.741.79v6.517c.05.691.444.74.74.74M77.242 32.545v-6.369c0-1.678 1.185-2.863 2.913-2.863s2.913 1.185 2.913 2.863v.74h-2.172v-.79c0-.69-.395-.79-.692-.79s-.74.1-.74.79v6.518c0 .74.395.79.74.79.346 0 .692-.05.692-.79v-.84h2.221v.79c0 1.68-1.234 2.865-2.913 2.865-1.728-.05-2.962-1.235-2.962-2.914M64.06 32.545v-6.369c0-1.678 1.184-2.863 2.912-2.863s2.913 1.185 2.913 2.863v.74h-2.222v-.79c0-.69-.394-.79-.69-.79-.297 0-.741.1-.741.79v6.518c0 .74.395.79.74.79.346 0 .692-.05.692-.79v-.84h2.221v.79c0 1.68-1.234 2.865-2.913 2.865-1.728-.05-2.913-1.235-2.913-2.914M65.195 9.321h2.172V21.23h-2.172zM58.233 9.428h2.864c1.728 0 2.913 1.086 2.913 3.11v2.716c0 1.185-.395 2.025-1.136 2.568l1.185 3.456h-2.37l-.79-2.864h-.444v2.864h-2.222zm2.617 6.962c.444 0 1.037-.099 1.037-1.136V12.49c0-.987-.543-1.135-1.037-1.135h-.395v4.986h.395zM53.099 9.428h2.37l2.221 11.8h-2.172l-.296-1.975h-1.778l-.346 1.976h-2.172zm1.777 8.048-.593-4.493-.641 4.493zM45.1 9.428h2.863c1.728 0 2.913 1.086 2.913 3.11v2.815c0 1.975-1.184 3.061-2.913 3.061h-.641v2.864H45.1zm2.617 6.962c.444 0 1.036-.099 1.036-1.136V12.49c0-.987-.543-1.135-1.036-1.135h-.395v4.986h.395zM68.222 18.562h2.173c0 .692.444.84.84.84.345 0 .74-.198.74-.642 0-.346-.05-.593-.543-1.284l-2.173-3.012c-.84-1.185-.938-1.925-.938-2.616 0-1.531 1.185-2.519 2.864-2.519s2.864 1.136 2.864 2.765h-2.173c0-.641-.395-.79-.74-.79-.346 0-.642.198-.642.593 0 .296.197.691.543 1.136l2.172 3.011c.84 1.185.988 1.877.988 2.765 0 1.58-1.235 2.617-2.963 2.617-1.777-.05-3.012-1.185-3.012-2.864M22.24.604a2.33 2.33 0 0 0-2.855 1.646l-3.017 11.242a2.33 2.33 0 0 0 1.647 2.855l11.241 3.017a2.33 2.33 0 0 0 2.855-1.647l3.017-11.242a2.33 2.33 0 0 0-1.646-2.854zM12.395 12.97a2.33 2.33 0 0 0-3.21.246L1.63 21.628a2.33 2.33 0 0 0 .258 3.36l8.838 7.233a2.33 2.33 0 0 0 3.21-.246l7.555-8.412a2.33 2.33 0 0 0-.258-3.36zM38.886 22.298a2.33 2.33 0 0 0-2.33-2.33H25.451a2.33 2.33 0 0 0-2.33 2.33V33.4a2.33 2.33 0 0 0 2.33 2.33h11.103a2.33 2.33 0 0 0 2.33-2.33z"/></svg>