<svg xmlns="http://www.w3.org/2000/svg" width="120" height="120" fill="none" viewBox="0 0 120 120"><path fill="#fff" fill-rule="evenodd" d="M6.436 35.79a6.234 6.234 0 0 1 7.847-8.85 6.234 6.234 0 0 1 12.379 1.492l4.318-2.494a1.247 1.247 0 0 1 1.703.457l3.325 5.758c.344.597.14 1.36-.456 1.704l-1.8 1.038 5.195 8.998a2.91 2.91 0 0 1-1.065 3.974l-17.275 9.974a2.91 2.91 0 0 1-3.974-1.065l-5.195-8.997-1.8 1.039a1.247 1.247 0 0 1-1.703-.457L4.61 42.603a1.247 1.247 0 0 1 .457-1.703l4.318-2.494a6.2 6.2 0 0 1-2.95-2.616m.957 6.646 2.078 3.599L20.27 39.8l-2.078-3.599zm9.55-8.394-3.238 1.87a3.74 3.74 0 1 1 1.369-5.109zm3.407.913 2.078 3.6 10.797-6.234-2.078-3.6zm1.992-4.03-3.239 1.87-1.87-3.238a3.74 3.74 0 1 1 5.11 1.369m-.827 11.036-7.918 4.571 5.195 8.998a.416.416 0 0 0 .568.152l7.558-4.364zm7.562 8.11-5.402-9.357 7.918-4.572 5.195 8.998a.416.416 0 0 1-.152.568z" clip-rule="evenodd" opacity=".2"/><path fill="#fff" fill-rule="evenodd" d="M92.672 18.174a7.208 7.208 0 0 1 12.233 6.116 7.208 7.208 0 0 1 2.039 14.272l4.077 4.078a1.44 1.44 0 0 1 0 2.038l-5.437 5.437a1.44 1.44 0 0 1-2.039 0l-1.699-1.699-8.494 8.495a3.364 3.364 0 0 1-4.758 0L72.285 40.6a3.364 3.364 0 0 1 0-4.757l8.495-8.495-1.699-1.7a1.44 1.44 0 0 1 0-2.038l5.437-5.437a1.44 1.44 0 0 1 2.039 0l4.077 4.078a7.18 7.18 0 0 1 2.039-4.078m-7.136 3.059-3.398 3.398 10.194 10.193 3.398-3.398zm12.233 8.155-3.058-3.059a4.325 4.325 0 1 1 6.116 0zm0 4.077-3.398 3.398 10.194 10.194 3.398-3.398zm5.097 1.02-3.058-3.059 3.058-3.058a4.324 4.324 0 1 1 0 6.116m-12.573 2.378-7.475-7.475-8.495 8.494a.48.48 0 0 0 0 .68l7.136 7.136zm-6.795 10.873 8.834-8.834 7.476 7.475-8.495 8.495a.48.48 0 0 1-.68 0z" clip-rule="evenodd" opacity=".35"/><path fill="#fff" d="M10.29 67c6 5.186 8.5 5.5 15 0-6 6.5-6 7.5 0 15-7-6.5-9.836-4.791-15 0 4.508-6.248 6.158-9.677 0-15M40.29 13c6 5.186 8.5 5.5 15 0-6 6.5-6 7.5 0 15-7-6.5-9.836-4.791-15 0 4.508-6.248 6.158-9.677 0-15M60.078 41.797c3.981 3.44 5.64 3.65 9.953 0-3.981 4.313-3.981 4.976 0 9.953-4.645-4.313-6.526-3.18-9.953 0 2.992-4.146 4.087-6.42 0-9.953M100.289 66c4.998 4.203 7.799 3.743 12.797 0-3.254 4.998-4.854 6.178 0 12.797-5.77-5.343-8.391-4.088-12.797 0 3.847-5.33 5.255-8.255 0-12.797" opacity=".8"/><path fill="#fff" d="M41.621 73.334h-.788A4.667 4.667 0 0 0 36.167 78v4.667a4.667 4.667 0 0 0 4.666 4.667v13.999a7 7 0 0 0 7 7h23.333a7 7 0 0 0 7-7v-14a4.667 4.667 0 0 0 4.666-4.666v-4.666a4.667 4.667 0 0 0-4.666-4.667h-.788a8.166 8.166 0 0 0-7.358-11.666c-3.078-.047-5.884 1.46-8.084 3.906-.92 1.02-1.733 2.202-2.436 3.506-.703-1.304-1.518-2.485-2.436-3.506-2.201-2.445-5.006-3.953-8.085-3.906a8.166 8.166 0 0 0-7.358 11.666m7.42-7c1.415-.025 3.014.65 4.554 2.362 1.055 1.172 1.996 2.745 2.736 4.638h-7.374a3.5 3.5 0 0 1 .043-7zM48.934 78h8.231v4.666H40.833v-4.666zm21.03 0h8.2v4.666H61.834v-4.666zm.077-4.667H62.67c.739-1.893 1.68-3.466 2.735-4.638 1.54-1.712 3.14-2.387 4.555-2.362h.04a3.5 3.5 0 0 1 .043 7m-23.859 29.649a2.33 2.33 0 0 1-.683-1.65v-14h11.666v16.334h-9.333a2.33 2.33 0 0 1-1.65-.684m26.633 0a2.33 2.33 0 0 1-1.65.684h-9.333V87.334h11.666v13.999c0 .619-.245 1.213-.683 1.65"/></svg>