<svg xmlns="http://www.w3.org/2000/svg" width="125" height="144" fill="none" viewBox="0 0 125 144"><path fill="url(#a)" d="m60.37 142.435-58.25-33.63A4.24 4.24 0 0 1 0 105.132v-67.26c0-1.516.808-2.916 2.12-3.673L60.37.569a4.24 4.24 0 0 1 4.24 0l58.25 33.63a4.24 4.24 0 0 1 2.12 3.673v67.26a4.24 4.24 0 0 1-2.12 3.673l-58.25 33.63a4.24 4.24 0 0 1-4.24 0m-47.65-39.749 47.65 27.511a4.24 4.24 0 0 0 4.24 0l47.649-27.511a4.24 4.24 0 0 0 2.121-3.673v-55.02a4.24 4.24 0 0 0-2.121-3.673L64.61 12.81a4.24 4.24 0 0 0-4.24 0L12.72 40.32a4.24 4.24 0 0 0-2.12 3.673v55.02c0 1.516.809 2.915 2.12 3.673"/><path fill="url(#b)" d="M60.37 22.54 21.148 45.187a4.24 4.24 0 0 0-2.12 3.673v42.842c0 3.03 1.616 5.83 4.24 7.344l4.77 2.753a1.06 1.06 0 0 0 1.59-.917v-45.9c0-1.516.808-2.915 2.12-3.673L60.37 34.784a4.24 4.24 0 0 1 4.24 0L93.23 51.308a4.24 4.24 0 0 1 2.12 3.673v33.05a4.24 4.24 0 0 1-2.12 3.673L64.61 108.227a4.24 4.24 0 0 1-4.24 0l-9.54-5.507a4.24 4.24 0 0 1-2.121-3.673v-33.05c0-1.515.808-2.915 2.12-3.672l9.54-5.507a4.24 4.24 0 0 1 4.24 0l9.541 5.507a4.24 4.24 0 0 1 2.12 3.673v11.016a4.24 4.24 0 0 1-2.12 3.673l-4.77 2.754a1.06 1.06 0 0 1-1.59-.917V70.969a4.24 4.24 0 0 0-2.12-3.673l-2.12-1.224a2.12 2.12 0 0 0-2.12 0L58.78 67.6a3.18 3.18 0 0 0-1.59 2.753v23.841c0 1.521.816 2.926 2.135 3.68l1.023.584a4.24 4.24 0 0 0 4.225-.01l20.178-11.65a4.24 4.24 0 0 0 2.12-3.674V59.868a4.24 4.24 0 0 0-2.12-3.673L64.61 44.566a4.24 4.24 0 0 0-4.24 0L40.229 56.195a4.24 4.24 0 0 0-2.12 3.673v45.288c0 1.516.808 2.915 2.12 3.673l20.14 11.629a4.24 4.24 0 0 0 4.24 0l39.223-22.646a4.24 4.24 0 0 0 2.12-3.673V48.851a4.24 4.24 0 0 0-2.12-3.673L64.61 22.533a4.24 4.24 0 0 0-4.24 0z"/><defs><linearGradient id="a" x1="26.642" x2="91.601" y1="2.982" y2="140.752" gradientUnits="userSpaceOnUse"><stop stop-color="#4a47d3"/><stop offset="1" stop-color="#c1f6ff"/></linearGradient><linearGradient id="b" x1="37.557" x2="82.441" y1="24.03" y2="119.605" gradientUnits="userSpaceOnUse"><stop stop-color="#4a47d3"/><stop offset="1" stop-color="#c1f6ff"/></linearGradient></defs></svg>