<?xml version="1.0" encoding="UTF-8"?>
<svg id="Layer_2" data-name="Layer 2" xmlns="http://www.w3.org/2000/svg" viewBox="0 0 510.3103950192 144.5045378158">
  <defs>
    <style>
      .cls-1 {
        fill: #0094d8;
      }

      .cls-2 {
        fill: #4eaf46;
      }

      .cls-3 {
        fill: #ede80a;
      }

      .cls-4 {
        fill: #005222;
      }

      .cls-5 {
        fill-rule: evenodd;
      }

      .cls-5, .cls-6 {
        fill: #777776;
      }

      .cls-7 {
        fill: #00845e;
      }

      .cls-8 {
        fill: #b3d234;
      }
    </style>
  </defs>
  <g id="Layer_1-2" data-name="Layer 1">
    <g>
      <g>
        <g>
          <path class="cls-8" d="M42.6131071555,18.8263487729c2.9312210083-3.311706543,5.6017837524-6.1442871094,8.1595611572-8.5117797852C7.6287474143,8.905328265,20.1851820456,40.1058897885,6.1279997336,71.7997374447c-16.2062759399,36.4993896484,1.9095230103,50.4086303711,28.8894424438,54.7420349121-3.7682266235-4.4817199707-6.8397521973-9.5057067871-9.1108627319-14.9027404785-17.4957351685-22.0053100586-10.4636459351-62.0982666016,16.70652771-92.8126831055Z"/>
          <path class="cls-1" d="M146.4317640769,57.6157164486c-4.0163269043,11.3091430664-11.3793945312,23.9571533203-21.7937011719,36.4711914062-7.4653015137,9.0848388672-16.4133758545,16.8417358398-26.4655914307,22.9424438477-10.7666015625,6.975769043-24.1261749268,11.0907592773-39.0641326904,11.0907592773-8.0663757324.0762939453-16.1262359619-.4821166992-24.1050415039-1.6699829102,4.4387283325,5.2951660156,9.9376373291,9.601348877,16.1426239014,12.6409301758,39.0077972412,18.8556518555,41.4668731689-16.2062988281,82.7365112305-33.9556884766,23.1749725342-9.9844970703,23.2595672607-29.5025024414,12.549331665-47.5196533203Z"/>
          <path class="cls-3" d="M98.1651777732,21.2432799252c5.6460113525.9888305664,11.0863037109,2.9180908203,16.0937652588,5.7074584961,13.0989074707,7.4055786133,25.0349578857,18.7499389648,32.1727600098,30.7567138672,7.0462036133-19.7928466797,3.7556304932-35.3508300781-11.6262512207-38.1622924805-16.9108886719-3.0932617188-30.1013793945-4.0867919922-42.791595459-12.9438476562-15.6355438232-10.9216308594-29.3474731445-7.3210449219-41.2344360352,3.7133178711.8385009766,0,1.691192627.0634155273,2.5790252686.1127319336,16.4951782227.9794311523,32.2362976074,4.1854858398,44.8067321777,10.8159179688Z"/>
          <path class="cls-2" d="M42.6130690085,18.8262877377C15.435845803,49.5407042416,8.4035582053,89.6335997494,25.8852018821,111.638909808c-7.8494720459-18.418762207-7.3068618774-41.396484375,3.7556838989-59.7448120117,14.7336273193-24.4291992188,44.2714996338-35.0689697266,68.5175018311-30.6510009766-12.5633850098-6.6304931641-28.3115539551-9.8646850586-44.8067321777-10.8159179688-.8878173828-.0493164062-1.740524292-.0845336914-2.5790252686-.1127319336-2.5225372314,2.3675537109-5.2212905884,5.2000732422-8.1595611572,8.5118408203Z"/>
          <path class="cls-7" d="M114.2590498435,26.950616351c-5.0074615479-2.7893676758-10.4477539062-4.7186279297-16.0937652588-5.7074584961,16.5374450684,8.7373046875,27.5506134033,23.4075317383,27.4237823486,46.7727050781-.1127471924,20.2789916992-10.5690765381,38.1975097656-27.4165649414,49.1050415039,10.0522155762-6.1007080078,19.000289917-13.8575439453,26.4655914307-22.9424438477,10.4143066406-12.4859008789,17.7773742676-25.1619873047,21.7937011719-36.4711914062-7.137802124-12.0349121094-19.0738525391-23.3511352539-32.172744751-30.756652832Z"/>
          <path class="cls-4" d="M95.4597792136,106.009210101c-8.970916748,5.764831543-19.8604125977,7.741027832-30.284942627,5.49609375s-19.5350036621-8.5282592773-25.3377914429-17.4746704102c-12.0490188599-18.6019897461-6.0879211426-42.5590820312,11.978553772-55.4183959961,20.2226257324-14.3813476562,46.1665496826-8.7091064453,55.6296234131,11.9785766602,9.2164306641,20.1450805664,6.6729125977,43.4187011719-11.9854431152,55.4183959961ZM98.165406655,21.2432799252c-24.2460021973-4.41796875-53.7835235596,6.2218017578-68.5171508789,30.6510620117-11.0625457764,18.3201293945-11.6051559448,41.3259887695-3.7556838989,59.7448120117,2.2711181641,5.3969726562,5.3426361084,10.4209594727,9.1108703613,14.9026794434,7.9788131714,1.1878967285,16.0386734009,1.7462768555,24.1050491333,1.6699829102,14.9379577637,0,28.2975463867-4.1149902344,39.0641479492-11.0907287598,16.8333892822-10.9075317383,27.303817749-28.8260498047,27.4165649414-49.1050415039.1268310547-23.365234375-10.8863525391-38.0354614258-27.4237976074-46.7727661133Z"/>
        </g>
        <path class="cls-5" d="M208.0018019187,55.4807677182v19.6870727539c-.0000305176.1526489258.030090332.3037109375.0891113281.4444580078.0590515137.1407470703.145690918.2683105469.2546081543.3752441406.1088867188.1069335938.2380371094.1911010742.3798217773.2475585938.1418151855.0564575195.2933044434.0841064453.445892334.0812988281h14.5293884277c2.5596313477.0018310547,5.0155029297-1.0122070312,6.8280639648-2.819519043,1.8125915527-1.8073120117,2.8338928223-4.2600708008,2.8394775391-6.8197021484v-2.4802856445c0-2.6162719727-1.0393676758-5.1253662109-2.8893432617-6.975402832-1.8500061035-1.8499755859-4.3590698242-2.8892822266-6.9753417969-2.8892822266h-14.3532409668c-.3045959473,0-.5968933105.1210327148-.812286377.3364257812s-.336151123.5075073242-.336151123.8121337891ZM199.0811781394,107.3690123471v-60.2310180664c-.0009155273-.2269287109.0429382324-.4518432617.1293640137-.6616821289.0864257812-.2098999023.2135009766-.4005737305.3739929199-.5610351562.1604919434-.1605224609.3512878418-.2875976562.5611572266-.3740234375s.4346313477-.1304931641.6616210938-.1295166016h21.9210205078c2.5655822754-.0009765625,5.106048584.5035400391,7.4766235352,1.4847412109,2.3705444336.9811401367,4.5247192383,2.4197387695,6.3391723633,4.2335205078,1.814453125,1.8138427734,3.2536010742,3.9673461914,4.2356567383,6.3375854492.9819946289,2.3701782227,1.4876708984,4.9106445312,1.4876708984,7.4761962891v.528503418c0,5.2437744141-2.083190918,10.2727661133-5.7911071777,13.9806518555s-8.7368469238,5.791015625-13.9806213379,5.791015625h-13.345489502c-.3045959473,0-.5968933105.1209716797-.812286377.3363647461s-.336151123.5075683594-.336151123.8121337891v20.9765625c0,.4578857422-.1820068359.8969726562-.5057678223,1.220703125-.3237304688.3237304688-.7628479004.5056152344-1.220703125.5056152344h-5.4680175781c-.4578552246,0-.8966369629-.1818847656-1.2203674316-.5056152344-.3237609863-.3237304688-.5057678223-.7628173828-.5057678223-1.220703125ZM266.6190504538,87.1252989682l10.4141540527-22.0053100586c.0828552246-.1746826172.213684082-.3222045898.3770751953-.4255371094s.3526916504-.158203125.5460205078-.158203125c.1932983398,0,.3826293945.0548706055.5460205078.158203125s.2941894531.2508544922.3770751953.4255371094l10.3508300781,21.9277954102c.0687255859.1470336914.0992431641.3090820312.0887451172.4710083008-.0104675293.1619873047-.0615234375.3186645508-.1486206055.4556274414s-.2073059082.2497558594-.3495483398.3279418945c-.1422424316.0782470703-.302154541.1193237305-.4644775391.1194458008h-20.906036377c-.1536865234.0029296875-.3054199219-.0335083008-.4410705566-.1057739258-.1356811523-.072265625-.250793457-.1780395508-.3340759277-.3072509766-.0833129883-.1291503906-.1318969727-.2775268555-.1417541504-.4309082031s.0195922852-.3067626953.0856628418-.4455566406v-.007019043ZM300.6097731101,109.0883116635h6.2359619141c.2683410645.0004882812.5322570801-.0668334961.7676086426-.1957397461.2353210449-.12890625.4345703125-.3151245117.5786743164-.5415039062.1441040039-.2263183594.2284545898-.4854125977.2456665039-.7531738281.0171813965-.2677612305-.0336303711-.5355224609-.1476135254-.7784423828l-28.1848144531-60.4987182617c-.1280212402-.2748413086-.3319702148-.5072021484-.5879821777-.6695556641-.2560424805-.1623535156-.5532226562-.2478637695-.8563537598-.2465209961h-1.3105163574c-.2963867188.0046386719-.5855712891.0922851562-.8346557617.2529296875-.2491149902.1606445312-.4481506348.3879394531-.5745849609.6560668945l-28.5866699219,60.4987182617c-.1135864258.2434082031-.1638793945.5114746094-.1465759277.7794799805s.1017456055.52734375.2456665039.7540893555c.1438903809.2267456055.3424987793.4136352539.5776672363.5433349609.2351379395.1297607422.4993286133.1982421875.7679138184.1990356445h6.4613342285c.3025817871-.001159668.5987243652-.0877075195.8542785645-.2497558594.2555236816-.1620483398.4599914551-.3930053711.590057373-.6661987305l4.8267211914-10.2029418945c.1303710938-.2724609375.3354492188-.5023803711.5910644531-.663269043.2556152344-.1608276367.551574707-.2460327148.8536071777-.2457275391h29.9955749512c.2973327637.0044555664.5874023438.0927734375.836730957.2548217773s.4477539062.3912963867.5725097656.6611938477l4.8053894043,10.1959228516c.1284790039.2700195312.3299865723.4987792969.581451416.6606445312.2514648438.1618041992.5429077148.2502441406.8418884277.2553100586ZM351.8639845359,109.0883116635h7.4477233887c.1666259766-.0000610352.3306884766-.0419921875.4768676758-.1220703125.1461486816-.0800170898.2697143555-.1954956055.3595275879-.3358764648.0898132324-.1403198242.1430358887-.3010253906.1544799805-.4672851562.0114440918-.1661987305-.0190429688-.3326416016-.0887756348-.4840087891l-13.486541748-30.200012207c-.1811828613-.3958129883-.2748718262-.8259887695-.2748718262-1.2612915039s.0936889648-.8654785156.2748718262-1.2612915039l12.3167724609-27.4801635742c.1014099121-.2220458984.1452941895-.466003418.1279907227-.7094726562-.0173339844-.2435302734-.0952453613-.4787597656-.2270812988-.6842041016s-.313293457-.3745117188-.5274353027-.4917602539c-.2141113281-.1171875-.4539794922-.1787719727-.6980895996-.1791381836h-6.341583252c-.2901306152.0006103516-.5738830566.0872802734-.8147277832.2490844727s-.4282226562.3914794922-.5384521484.6599121094l-8.4131164551,20.2648925781c-.0513000488.1458740234-.1466369629.272277832-.272857666.3617553711-.1261901855.0893554688-.2770996094.1373901367-.4317626953.1373901367s-.3055725098-.048034668-.4317932129-.1373901367c-.1262207031-.0894775391-.2215270996-.2158813477-.2728271484-.3617553711l-8.3636169434-20.2437744141c-.1069335938-.2751464844-.2950439453-.5114135742-.5391235352-.6774291992-.2440795898-.1660766602-.5328979492-.2542114258-.828125-.2526855469h-6.2710571289c-.2584228516-.0035400391-.513458252.0584106445-.7414550781.1801757812-.2279663086.1217041016-.4214172363.2992553711-.5621643066.5159912109-.1407470703.216796875-.2240905762.465637207-.2425537109.723449707-.0184631348.2577514648.0285339355.5159912109.136932373.7506103516l12.2393493652,27.4309082031c.1809387207.393371582.2745666504.8212280273.2745666504,1.2542114258s-.0936279297.8608398438-.2745666504,1.2542724609l-13.5780639648,30.200012207c-.0694885254.1508178711-.0998840332.3165893555-.0887756348.4822998047.0111083984.1656494141.0634155273.3258666992.1524353027.4660644531.0889892578.1401367188.2115783691.2557373047.3567810059.3362426758s.3084106445.1234130859.4744262695.1246337891h7.4618530273c.1979370117-.0004882812.3913269043-.0596313477.5556335449-.1699829102.1643066406-.1104125977.292175293-.2670288086.3674621582-.4500732422l9.4772949219-22.6746826172c.0551147461-.1250610352.1452636719-.2313842773.259765625-.3059692383.114440918-.0746459961.2483215332-.1143798828.384979248-.1143798828.1366271973,0,.2701721191.0397338867.3846435547.1143798828.1144714355.0745849609.2049865723.1809082031.2601013184.3059692383l9.4418640137,22.6253662109c.0725402832.1854858398.1996154785.3446655273.3643493652.4566040039.1647644043.1119384766.3595581055.1713867188.5587463379.1704711914ZM406.9936537253,52.690484515c-4.2580566406.0426635742-8.4312744141,1.1954345703-12.1075439453,3.3443603516-3.6763000488,2.1489257812-6.7284545898,5.2196655273-8.8549194336,8.908996582-2.1540527344,3.8308105469-3.259765625,8.1618041992-3.205871582,12.5563354492-.0270385742,3.1880493164.5785827637,6.3497314453,1.7818603516,9.3021240234,1.2032470703,2.952331543,2.9800720215,5.6366577148,5.2278442383,7.8975830078,2.2478027344,2.2608642578,4.9218139648,4.0534057617,7.8671264648,5.2738037109s6.1033935547,1.8444213867,9.2915039062,1.8359375c4.3376464844.026550293,8.6056518555-1.0914916992,12.3731994629-3.2412719727,3.7024841309-2.0838012695,6.7633361816-5.1421508789,8.8500671387-8.8430175781,2.1373291016-3.8211669922,3.2355041504-8.1359863281,3.1849060059-12.5140380859.0539855957-4.3306274414-1.0428161621-8.5980224609-3.1780090332-12.3660888672-2.1441650391-3.6916503906-5.2391052246-6.7406005859-8.9625854492-8.828918457-3.725769043-2.1642456055-7.9588012695-3.3020629883-12.267578125-3.2976074219v-.0281982422ZM407.2193617331,110.624444476c-9.3714599609,0-17.3971557617-3.2553710938-23.8515014648-9.6815185547-3.1342773438-3.0333862305-5.6145629883-6.6762695312-7.2880554199-10.704284668s-2.5048522949-8.3558959961-2.442779541-12.7172851562c-.0319824219-5.9415893555,1.4963378906-11.7874755859,4.4320678711-16.9531860352,2.856628418-5.0808105469,7.0184631348-9.3063354492,12.0552978516-12.2397460938,5.0368652344-2.9334106445,10.7659912109-4.4682617188,16.5947265625-4.4457397461,9.561706543,0,17.6787719727,3.2412719727,24.1401367188,9.6322021484s9.7308349609,14.3742675781,9.7308349609,23.7175292969c.0280761719,4.3911743164-.8157958984,8.7442016602-2.4826660156,12.8068237305-1.6668701172,4.0625610352-4.1234130859,7.75390625-7.2275390625,10.8599243164-3.1040649414,3.1060791016-6.7940063477,5.5650634766-10.8555297852,7.2344970703-4.0615539551,1.6694335938-8.4138183594,2.5160522461-12.8049926758,2.4907836914ZM472.0369886863,110.6243834408c-3.848449707.0305175781-7.6195068359-1.0802001953-10.8370361328-3.1919555664-3.1848144531-2.1138916016-6.1442260742-5.5946655273-8.7794799805-10.4143066406-.1796875-.3290405273-.225769043-.7146606445-.1286621094-1.0767822266s.3297119141-.6729736328.6499023438-.867980957l5.1721191406-3.1003417969c.1685180664-.0995483398.3551635742-.1641845703.5491333008-.1900634766s.3913574219-.0124511719.580078125.0394897461.3650512695.1413574219.5184326172.262878418c.1534423828.1214599609.2805786133.2725830078.3743896484.4443969727,3.3469238281,6.1583862305,7.1520996094,9.2798461914,11.323425293,9.2798461914,1.7662963867.0054931641,3.5065307617-.4253540039,5.0662231445-1.2542114258,1.4615478516-.735534668,2.68359375-1.8720092773,3.5230712891-3.2764892578.7912597656-1.3118896484,1.2079467773-2.8154907227,1.2048339844-4.3475341797-.0416870117-1.8665771484-.6731567383-3.6720581055-1.8038330078-5.1578369141-1.8038330078-2.5577392578-5.2001953125-5.7355957031-10.0972900391-9.4277954102-5.2352905273-3.9529418945-8.4554443359-6.7644042969-9.7590332031-8.6104736328-2.2634277344-2.8999023438-3.5023193359-6.467956543-3.5230712891-10.1465454102-.0233154297-2.7957763672.7069091797-5.5461425781,2.1138305664-7.9622192383,1.4036254883-2.4057006836,3.448059082-4.3743286133,5.9049682617-5.6862792969,2.5134887695-1.3681640625,5.3330078125-2.0761108398,8.1947021484-2.0574951172,3.0725097656-.0113525391,6.0938720703.788269043,8.7585449219,2.3181762695,2.6986083984,1.5360717773,5.4323120117,4.227722168,8.3635253906,8.2299804688.2258300781.306640625.3220214844.6897583008.2680053711,1.0667724609-.0540161133.376953125-.2537841797.717590332-.5567016602.9484863281l-4.9323120117,3.7626342773c-.1520996094.1154785156-.3255004883.1998291016-.5101928711.2481689453-.1848144531.0483398438-.3775024414.0596923828-.5666503906.0335693359-.1892089844-.0262451172-.3713378906-.0894775391-.5360717773-.1861572266-.1646728516-.0967407227-.3085327148-.2249755859-.4235229492-.3774414062-2.1632080078-2.8677978516-3.9951171875-4.7561645508-5.4326171875-5.6369628906-1.3638916016-.8243408203-2.9299316406-1.2537231445-4.5235595703-1.2401123047-.9149169922-.0432739258-1.8295898438.0964355469-2.6898193359.4110107422s-1.6491088867.7977294922-2.3203125,1.4210205078c-.6129150391.5640869141-1.0983886719,1.2525634766-1.4240112305,2.0192871094s-.4837036133,1.5940551758-.4641113281,2.4268798828c.0034790039,1.120300293.2435913086,2.2271728516.7046508789,3.2482910156.6822509766,1.3565063477,1.6009521484,2.5805664062,2.7128295898,3.6146850586.5003051758.4791259766,2.2545776367,1.9165649414,7.6871948242,5.9329223633s9.1107788086,7.5394287109,11.1823730469,10.7525024414c2.0017089844,2.9244384766,3.1039428711,6.3707275391,3.1707763672,9.9140014648.0078125,2.3536987305-.4736328125,4.6834106445-1.4136962891,6.8412475586s-2.3181762695,4.096862793-4.0471191406,5.6939697266c-1.7443847656,1.7222900391-3.8156738281,3.0782470703-6.091796875,3.9882202148s-4.7112426758,1.3555908203-7.162109375,1.310546875Z"/>
      </g>
      <path class="cls-6" d="M510.3103950192,103.7500635296c0,3.7333509177-2.9307785444,6.6641294621-6.7458578097,6.6641294621-3.7742150915,0-6.7850874166-2.9307785444-6.7850874166-6.6641294621,0-3.6532571371,3.0108723251-6.5840356815,6.7850874166-6.5840356815,3.8150792653,0,6.7458578097,2.9307785444,6.7458578097,6.5840356815ZM498.4663228871,103.7500635296c0,2.9307785444,2.167435778,5.2600364506,5.1390784962,5.2600364506,2.8899143706,0,5.0181205418-2.3292579062,5.0181205418-5.2191722768,0-2.9324131114-2.1282061711-5.3009006244-5.0589847156-5.3009006244s-5.0982143224,2.368487513-5.0982143224,5.2600364506ZM502.5216834943,107.2022689316h-1.5266855329v-6.5840356815c.6031552052-.1209579544,1.4449571853-.2010517351,2.5303096412-.2010517351,1.2439054503,0,1.8061964816.2010517351,2.2883937324.4821972508.3612392963.2811455157.642384812.8025723733.642384812,1.4449571853,0,.7224785927-.5622910314,1.284769624-1.3648634047,1.5266855329v.0800937806c.6407502451.2402813419,1.0036241084.7224785927,1.2030412765,1.6051447466.2010517351,1.0036241084.3220096895,1.4057275785.4821972508,1.6460089204h-1.6460089204c-.2010517351-.2402813419-.3203751225-.8418019801-.5214268576-1.6051447466-.1209579544-.7224785927-.5230614245-1.0444882821-1.3648634047-1.0444882821h-.7224785927v2.6496330287ZM502.5609131011,103.4689180139h.7224785927c.8434365471,0,1.5266855329-.2811455157,1.5266855329-.9627599346,0-.6031552052-.4429676439-1.0052586753-1.4057275785-1.0052586753-.4021034701,0-.6832489858.0408641738-.8434365471.0817283476v1.8862902623Z"/>
    </g>
  </g>
</svg>