<?xml version="1.0" encoding="UTF-8"?>
<svg id="Layer_2" data-name="Layer 2" xmlns="http://www.w3.org/2000/svg" viewBox="0 0 507.3103920521 144.4821593125">
  <defs>
    <style>
      .cls-1 {
        fill-rule: evenodd;
      }

      .cls-1, .cls-2 {
        fill: #fff;
      }
    </style>
  </defs>
  <g id="Layer_1-2" data-name="Layer 1">
    <g>
      <path class="cls-1" d="M208.0017989516,55.4807879328v19.6870880127c-.0000305176.1526184082.0300598145.3037261963.0891113281.4444732666.0590515137.1407318115.145690918.2682952881.2546081543.3752288818.1088867188.1069335938.2380371094.1910858154.3798217773.2475585938.141784668.0564575195.2933044434.0840759277.445892334.0812683105h14.5293579102c2.5596618652.0018768311,5.0155029297-1.0121765137,6.8280944824-2.8194580078,1.8125610352-1.8073120117,2.8338623047-4.2601013184,2.8394775391-6.819732666v-2.4802703857c0-2.6162719727-1.0393676758-5.1254119873-2.8893737793-6.9753875732-1.8500061035-1.8499908447-4.3590393066-2.8892974854-6.9753112793-2.8892974854h-14.3532104492c-.3046264648,0-.5969238281.1210021973-.8123168945.3363952637s-.336151123.507522583-.336151123.8121337891ZM199.0811751723,107.3690554499v-60.2309951782c-.0009155273-.2269592285.04296875-.4518432617.1293945312-.6617126465s.2135009766-.4005584717.3739624023-.561050415c.1604919434-.1604919434.3512878418-.2875976562.5611572266-.3740234375s.4346313477-.1304473877.6616210938-.1295166016h21.9209899902c2.5655822754-.0009307861,5.106048584.5035858154,7.4766235352,1.4847564697s4.5246887207,2.4197387695,6.3391723633,4.2335510254,3.2536315918,3.9673461914,4.2356262207,6.3375549316c.9820556641,2.3701934814,1.487701416,4.9106445312,1.487701416,7.4762268066v.5284729004c0,5.2437591553-2.083190918,10.2727355957-5.7911071777,13.9806518555-3.7078857422,3.707901001-8.7368164062,5.7909851074-13.9805908203,5.7909851074h-13.3454589844c-.3046264648,0-.5969238281.1210021973-.8123168945.3363952637s-.336151123.5075378418-.336151123.8121490479v20.9765548706c0,.4578475952-.1820068359.8969497681-.5057678223,1.2206954956-.3237304688.3237533569-.7628479004.5056304932-1.220703125.5056304932h-5.4680175781c-.4578552246,0-.8966064453-.1818771362-1.2203674316-.5056304932-.3237609863-.3237457275-.5057678223-.7628479004-.5057678223-1.2206954956ZM266.6190474867,87.1253191828l10.4141235352-22.0052947998c.0828857422-.1746520996.213684082-.3222045898.3770751953-.4255371094.1633911133-.1033172607.3526916504-.1581726074.5460205078-.1581726074s.3826293945.0548553467.5460205078.1581726074c.1633911133.1033325195.2941894531.2508850098.3770751953.4255371094l10.3508300781,21.9277954102c.0687255859.1470489502.0992431641.3090515137.0887756348.4710388184-.0104980469.1619567871-.0615539551.3186645508-.148651123.4556274414s-.2073059082.2497558594-.3495483398.3279418945-.302154541.1192626953-.4644775391.1194152832h-20.906036377c-.1536865234.0029144287-.3054199219-.0335083008-.4410705566-.1057739258-.1356506348-.0722961426-.2507629395-.1780395508-.3340759277-.307220459-.0832824707-.1291809082-.1318969727-.2775268555-.1417541504-.4309387207-.0098571777-.1533813477.0195922852-.3067626953.0856933594-.4455413818v-.0070495605ZM300.6097396254,109.0883547663h6.2359619141c.2683410645.0004806519.5322570801-.0668563843.7676086426-.1957397461.2353210449-.1288833618.4345703125-.3151321411.5786743164-.5414733887.1441040039-.226348877.2284851074-.4854278564.2456665039-.7531967163.0171813965-.2677764893-.0336303711-.5355529785-.1476135254-.778465271l-28.1848144531-60.4987411499c-.1279907227-.274810791-.3319702148-.5071716309-.5879821777-.6695251465s-.5531921387-.2478942871-.8563537598-.2464904785h-1.3104858398c-.2963867188.0046234131-.5855712891.0922241211-.8346862793.2528991699-.2490844727.1606750488-.4481201172.3879699707-.5745544434.6560668945l-28.5866699219,60.4987335205c-.1135864258.2433700562-.1638793945.5114440918-.1465759277.7794570923s.1017456055.52734375.2456359863.7540969849c.1439208984.2267532349.3425292969.4136276245.5776977539.5433654785.2351379395.1297454834.4993286133.1981887817.7679138184.1990127563h6.4613342285c.3025817871-.0011444092.5986938477-.0877227783.8542480469-.2497787476s.4599914551-.3929901123.590057373-.6662139893l4.8267211914-10.2029190063c.1304016113-.2724304199.3354492188-.5023727417.5910949707-.663230896.2556152344-.1608581543.5515441895-.2460632324.8535766602-.2457351685h29.9955749512c.2973327637.0044250488.5874328613.0927505493.836730957.2548141479.2493286133.1620559692.4477539062.3912734985.5725097656.6612014771l4.8053894043,10.1958694458c.1285095215.2700195312.3299865723.4988174438.581451416.6606445312s.5429077148.2502670288.8418884277.2553482056ZM351.8640120863,109.0883852838h7.4477233887c.1666259766-.0000762939.3307189941-.0420532227.4768676758-.1220779419s.2697143555-.1955337524.3595275879-.3358840942c.0898132324-.1403427124.1430358887-.30103302.1544799805-.4672622681.0114440918-.1662368774-.0190429688-.3326797485-.0887756348-.4840164185l-13.486541748-30.200050354c-.1812133789-.3957824707-.2749023438-.8259735107-.2749023438-1.2612609863,0-.4353027344.0936889648-.8655090332.2749023438-1.2612915039l12.3167724609-27.4802093506c.1014099121-.2220306396.1452941895-.4659729004.1279907227-.7094573975-.0173339844-.2434844971-.0952453613-.4787445068-.2270812988-.6842041016-.1318359375-.2054443359-.3133239746-.3745117188-.5274353027-.4917297363s-.4539794922-.1788024902-.6980895996-.1791381836h-6.341583252c-.2901611328.000579834-.5738830566.0872497559-.8147277832.2490692139s-.4282226562.3914794922-.5384216309.6598968506l-8.4131469727,20.2648773193c-.0513000488.1459197998-.1466064453.2723236084-.2728271484.3617401123s-.277130127.1374359131-.4317932129.1374359131c-.1546936035,0-.3055725098-.0480194092-.4317932129-.1374359131s-.2215270996-.2158203125-.2728271484-.3617401123l-8.3635864258-20.2437438965c-.1069641113-.2751617432-.2950744629-.5113983154-.5391540527-.6774597168-.2440490723-.1660766602-.5329284668-.2541656494-.828125-.2526397705h-6.2710571289c-.2584228516-.0036010742-.513458252.058380127-.7414245605.1801300049-.2279968262.1217346191-.4214477539.2992858887-.5621948242.5160369873s-.2240905762.465637207-.2425537109.7234191895.0285339355.5160217285.136932373.7506256104l12.2393493652,27.4309234619c.1809082031.393371582.2745666504.8212280273.2745666504,1.2542114258s-.0936584473.8608398438-.2745666504,1.2542266846l-13.5780639648,30.2000427246c-.0694885254.1507949829-.0998840332.3166122437-.0887756348.4822769165.011138916.1656570435.0634155273.3258972168.1524353027.4660568237.0889892578.1401672363.2115783691.2557754517.3567810059.3362960815.1452026367.0805130005.3084106445.1233596802.4744567871.1246109009h7.4618225098c.1979370117-.0004653931.3913269043-.0596313477.5556335449-.1700057983s.292175293-.266998291.3674621582-.4500656128l9.4772949219-22.674697876c.0551147461-.1250305176.1452636719-.231338501.2597351074-.3059692383s.2483520508-.114364624.3850097656-.114364624.2701721191.0397338867.3846435547.114364624.2049865723.1809387207.2601013184.3059692383l9.4418640137,22.6253662109c.0725708008.1855010986.1995849609.3446884155.3643493652.4566268921.1647644043.1119308472.3595581055.1713790894.5587463379.170501709ZM472.0369857191,110.6244112848c-3.848449707.0305480957-7.6195068359-1.0802078247-10.8369750977-3.1919326782-3.1848754883-2.113861084-6.1442260742-5.5946884155-8.7795410156-10.4142990112-.1796875-.3290481567-.225769043-.7146530151-.1286621094-1.0767822266.0971069336-.362121582.3297119141-.672958374.6499023438-.867980957l5.1721801758-3.1003265381c.1684570312-.0995788574.3551025391-.1642150879.5490722656-.1900863647.1939697266-.0258789062.3913574219-.0124435425.580078125.0394973755s.3650512695.1413345337.5184326172.262840271c.1534423828.1215057373.2805786133.2726287842.3743896484.4444046021,3.3469238281,6.1583938599,7.1520996094,9.2798690796,11.3234863281,9.2798690796,1.7662353516.0055007935,3.5064697266-.4253311157,5.0661621094-1.2542190552,1.4615478516-.7355422974,2.68359375-1.8720169067,3.5230712891-3.276512146.7912597656-1.311882019,1.2079467773-2.8154678345,1.2048339844-4.3474960327-.0416870117-1.8665924072-.6731567383-3.672088623-1.8038330078-5.1578292847-1.8038330078-2.5577697754-5.2001953125-5.7356262207-10.0972900391-9.4278259277-5.2352905273-3.9529418945-8.4554443359-6.7643737793-9.7590332031-8.6104736328-2.2634277344-2.8998718262-3.5023193359-6.4679412842-3.5230712891-10.1465454102-.0233154297-2.7957458496.7069091797-5.5461425781,2.1138916016-7.9622039795,1.4035644531-2.4057159424,3.4479980469-4.3743133545,5.9049072266-5.6862945557,2.5135498047-1.3681640625,5.3330078125-2.0760955811,8.1947021484-2.057510376,3.0725097656-.0113525391,6.0938720703.7883148193,8.7585449219,2.3182220459,2.6986694336,1.5360717773,5.4323120117,4.227722168,8.3635253906,8.22996521.2258300781.306640625.3220825195.6897735596.2680664062,1.0667572021-.0540771484.3769836426-.2537841797.7176208496-.5567016602.9484710693l-4.9323120117,3.7626647949c-.1521606445.1154785156-.3255004883.1997833252-.5102539062.2481231689-.1848144531.0483398438-.3775024414.059753418-.5666503906.0335693359-.1892089844-.026184082-.3713378906-.0894470215-.5360107422-.1861572266-.1647338867-.0966949463-.3085327148-.2249298096-.4235839844-.3773803711-2.1632080078-2.8677978516-3.9951171875-4.7561950684-5.4326171875-5.6369628906-1.3638916016-.8243865967-2.9299316406-1.2537231445-4.5235595703-1.2401428223-.9149169922-.0432739258-1.8295898438.0964660645-2.6898193359.4110412598s-1.6490478516.797668457-2.3203125,1.4209747314c-.6129150391.5641326904-1.0983886719,1.2525482178-1.4239501953,2.0192718506-.3256835938.7667236328-.4837646484,1.5941162109-.4641723633,2.4268951416.0035400391,1.120300293.2436523438,2.2272186279.7046508789,3.2482910156.6822509766,1.356552124,1.6009521484,2.5806121826,2.7128295898,3.6147003174.5003051758.4791564941,2.2545776367,1.9165802002,7.6871948242,5.9329223633s9.1107788086,7.5394287109,11.1823730469,10.7525024414c2.0017089844,2.9244384766,3.1039428711,6.3707351685,3.1707763672,9.914024353.0078125,2.3537139893-.4736328125,4.6833724976-1.4136962891,6.8412399292-.9400634766,2.1578598022-2.3181762695,4.0968475342-4.0471191406,5.6939697266-1.7443847656,1.7222671509-3.8156738281,3.0782699585-6.091796875,3.988243103-2.2761230469.9099807739-4.7112426758,1.3555526733-7.162109375,1.3105010986ZM394.8860762953,56.0348650812c3.6763000488-2.1489257812,7.8495178223-3.301651001,12.1075744629-3.3443450928v.0281982422c4.3087463379-.0044708252,8.541809082,1.1333770752,12.267578125,3.2976074219,3.7234802246,2.0883483887,6.8184204102,5.1372680664,8.9625854492,8.8289031982,2.1351928711,3.768081665,3.2319946289,8.0354614258,3.1780090332,12.366104126.0505981445,4.3780517578-1.0475463867,8.6928405762-3.1849060059,12.5140609741-2.086730957,3.7008361816-5.1475830078,6.7592163086-8.8500671387,8.8430099487-3.7675476074,2.149772644-8.0355224609,3.2677993774-12.3731994629,3.2412643433-3.1881103516.0084991455-6.3461914062-.6155319214-9.2914733887-1.8359375-2.9453125-1.2203979492-5.619354248-3.0129241943-7.8671264648-5.2738189697-2.2478027344-2.2608947754-4.0246276855-4.9452362061-5.2279052734-7.8975906372-1.2032470703-2.9523468018-1.8088684082-6.1140594482-1.781829834-9.3020782471-.053894043-4.39453125,1.0518188477-8.7255859375,3.205871582-12.556350708,2.1264648438-3.6893157959,5.1786193848-6.7601013184,8.854888916-8.9090270996ZM383.3678878188,100.9429766535c6.4543151855,6.4261398315,14.4800109863,9.6814804077,23.8514709473,9.6814804077,4.3911743164.0252685547,8.7434387207-.8213348389,12.8049621582-2.4907531738,4.0615539551-1.669418335,7.7514953613-4.1284332275,10.8555908203-7.2344894409,3.1040649414-3.1060638428,5.5606384277-6.7973709106,7.2275085449-10.859954834,1.6668701172-4.0625762939,2.5107421875-8.4156341553,2.4826660156-12.8067779541,0-9.3432769775-3.2694702148-17.3266296387-9.7308349609-23.7175445557-6.4613647461-6.390914917-14.5784301758-9.6321868896-24.1401367188-9.6321868896-5.8287353516-.0225219727-11.5578918457,1.5122833252-16.5947265625,4.4456939697s-9.1986694336,7.1589660645-12.055267334,12.2397613525c-2.935760498,5.1657104492-4.4640808105,11.0115966797-4.4320983887,16.9531707764-.0620422363,4.3613739014.7692871094,8.6893157959,2.442779541,12.7173233032,1.6734924316,4.0280151367,4.1537780762,7.6708602905,7.2880859375,10.7042770386ZM13.8750594496,43.9339587091l.1764221191.0417785645c-1.6759872437,8.7002716064-3.5817871094,18.5704650879-7.9551315308,28.4174499512-6.8873138428,15.515625-7.9435272217,27.8557052612-3.1453781128,36.7022094727,4.2688827515,7.8785247803,13.4357299805,13.3219909668,27.2498321533,16.1934509277l-.3296356201-.4781723022c-.033454895-.0528793335-.0709228516-.1067657471-.1084442139-.1607208252-.043182373-.0620956421-.0864257812-.1242904663-.1236877441-.1851501465-.6098480225-.8656692505-1.1432800293-1.6886291504-1.677696228-2.5131225586l-.0261306763-.0403213501c-.2460632324-.3853378296-.4921188354-.7939071655-.7242507935-1.1815643311-.4921188354-.8356704712-.9981613159-1.7293624878-1.4833145142-2.6578903198l-.2181930542-.3876647949c-.0613555908-.125213623-.1281204224-.2463760376-.1944580078-.3667602539-.056640625-.1027908325-.1129684448-.2050170898-.1653594971-.3087234497-.6963882446-1.357963562-1.2581329346-2.5812911987-1.7572174072-3.7140884399-.1764144897-.218208313-.3319473267-.4364318848-.4921112061-.6615982056-.0475997925-.0617446899-.0966262817-.1306152344-.1450958252-.19871521-.0389938354-.0547866821-.0776367188-.1090698242-.1148910522-.158744812l-.2623138428-.3458709717c-.0578155518-.0799484253-.1165161133-.15990448-.1752166748-.2398605347l-.0001907349-.00025177c-.1321258545-.1799621582-.2642440796-.3599243164-.3863525391-.5398788452-.116607666-.171836853-.2291564941-.3497543335-.3430099487-.5297393799-.0584030151-.0923233032-.117149353-.1851882935-.1769638062-.2780532837l-.4503479004-.710319519c-.0551757812-.0863952637-.111038208-.1725616455-.1670761108-.2590103149l-.0007476807-.0011444092-.0007476807-.0011444092-.0001678467-.0002746582-.0003356934-.00050354-.0008087158-.0012588501c-.122215271-.1885299683-.245262146-.3783569336-.3639984131-.5746688843-.1741027832-.2878417969-.3180236816-.5478210449-.464263916-.8240585327l-.422492981-.7660293579-.0240707397-.0426254272c-.153793335-.2723617554-.3011856079-.5333862305-.4401931763-.8069839478-.0886917114-.1745758057-.1756820679-.3551177979-.2635574341-.5374984741l-.0001525879-.0003433228c-.0569610596-.1182250977-.1142883301-.2372207642-.1726989746-.3558578491l-.3597793579-.7544250488c-.1462478638-.2878417969-.2878570557-.5895996094-.420173645-.8774414062-.1027679443-.2235717773-.2041320801-.4821548462-.3030014038-.7344055176l-.000038147-.0000915527c-.0284118652-.0724945068-.0566253662-.1444625854-.084602356-.2149276733l-.3156967163-.7962036133c-.0516281128-.1306686401-.1042251587-.2613372803-.1569061279-.3922271729l-.0002212524-.0005264282-.000213623-.0005264282-.0002059937-.0005264282c-.0631637573-.1569061279-.126449585-.314125061-.1883468628-.472038269-.1137466431-.2901687622-.2321166992-.6453323364-.3296127319-.9633483887l-.1485671997-.4201583862c-.021270752-.0567321777-.040512085-.1144790649-.0597915649-.1723403931-.0312042236-.0936508179-.0625076294-.1875991821-.102684021-.2779922485-.0974960327-.2762374878-.1903610229-.5640716553-.2739334106-.8519210815-.0325164795-.1153640747-.0660705566-.2327957153-.0999603271-.3514328003-.0677337646-.2370452881-.1368408203-.4789047241-.2018127441-.7186965942l-.2181930542-.7938842773c-.0230712891-.0833129883-.0468521118-.166809082-.0706558228-.2503814697l-.0001983643-.0006942749c-.0623550415-.2188949585-.1248626709-.438331604-.1752166748-.6565551758l-.03465271-.1502151489c-.0750732422-.3248977661-.1510696411-.6537399292-.2113952637-.9895477295l-.1764221191-.8356704712c-.0319976807-.1666793823-.0693664551-.3325958252-.1072616577-.5008239746l-.000038147-.0001373291-.0000534058-.0002670288-.0000534058-.0002593994-.0000610352-.00025177c-.0279998779-.1243438721-.0562896729-.2499313354-.0828933716-.3780441284-.0279769897-.15574646-.0537033081-.3126220703-.0795898438-.4704666138-.0385437012-.2350311279-.0774459839-.4722213745-.1246566772-.7110748291l-.1462402344-.8519134521c-.0238876343-.1645355225-.0530853271-.3290710449-.0828170776-.4966506958l-.0000228882-.0001525879c-.022277832-.1255340576-.0448608398-.2527694702-.0657348633-.3829803467-.0326843262-.2342910767-.060585022-.4765625-.0883789062-.7179260254-.0195617676-.169960022-.0390853882-.3394622803-.0601806641-.5053939819l-.0975112915-.8658599854c-.0092849731-.0959472656-.0201187134-.1918945312-.0309448242-.2878265381l-.0000228882-.0001373291c-.0216522217-.1918487549-.0433120728-.3836975098-.0525894165-.5755615234-.0305557251-.2926940918-.0466308594-.5887145996-.0628890991-.888092041l-.0000152588-.0003967285c-.0072021484-.1326293945-.0144424438-.2658996582-.0229873657-.3998260498l-.0557098389-.8658599854c-.0067214966-.1389312744-.0166854858-.2778625488-.0267715454-.4183654785-.0108032227-.1505889893-.0217285156-.3029785156-.0289382935-.4590759277-.0069656372-.2251739502-.0104446411-.4486083984-.013923645-.6720275879s-.0069656372-.4468536377-.0139312744-.6720275879v-.422454834c0-.1764221191-.0000152588-.3435668945-.0139389038-.506072998,0-.1279602051-.0033721924-.2592773438-.0067901611-.3926086426l-.0000076294-.0001983643-.0000076294-.0001068115c-.0035247803-.1374816895-.0071105957-.2770385742-.0071105957-.4172058105,0-.4781951904.0139160156-.9494018555.0417709351-1.4276123047l.0278549194-.879776001c0-.2739105225.013923645-.5478210449.0278549194-.8078155518.0274200439-.5119171143.0683746338-1.0238342285.1095123291-1.537979126v-.0000915527l.0000076294-.0000915527.0000076294-.0000915527.0000076294-.0000915527.0000228882-.0003204346.0018844604-.0235595703.0301818848-.3574981689.0016708374-.0195007324c.0133514404-.1554718018.026184082-.3049316406.026184082-.458694458.013923645-.259979248.02784729-.5060424805.0557098389-.7683410645.0368347168-.4461975098.0953369141-.8923950195.153213501-1.3338317871l.0000076294-.0000305176.0000076294-.0000610352.0000076294-.0000305176.0000076294-.0000610352v-.0000305176l.0231781006-.1771240234.0557098389-.4503479004c.013923645-.1624755859.02784729-.3017578125.0557098389-.464263916.02784729-.259979248.0557098389-.5060424805.0858840942-.7660217285.0447311401-.3623657227.103843689-.7180175781.1631622314-1.0749664307.0330200195-.1986999512.0661087036-.3978118896.096824646-.5986785889l.0557098389-.4224853516c.0137786865-.0735015869.0241470337-.1486968994.0344772339-.2236328125.0105514526-.0765380859.0210647583-.1528015137.0351409912-.2266998291.0208969116-.1230316162.0388870239-.2460632324.0568847656-.3690948486.0179977417-.1230163574.0359954834-.2460479736.0568847656-.3690795898.0818481445-.4654998779.1762161255-.9347686768.2702255249-1.4022521973l.0000457764-.0002441406.0000457764-.000213623.0000457764-.0002441406.0000457764-.000213623c.0339202881-.1686401367.067779541-.3370361328.1009979248-.5049591064l.0417633057-.232131958c.0228729248-.110824585.0444107056-.2269897461.0656204224-.3414001465l.0000152588-.0000762939.0202560425-.1088562012c.0182723999-.0944061279.0365447998-.1919403076.0548248291-.2894439697.0235137939-.1254730225.0470275879-.2509460449.0705337524-.3697967529.1063766479-.4837036133.2234802246-.9709625244.3402099609-1.4566955566l.0002212524-.0009307861c.0462112427-.1922912598.0923614502-.3843536377.1377716064-.5758361816l.0580291748-.204284668c.0155944824-.0831604004.0355529785-.1634216309.054977417-.2415771484.0152816772-.0614624023.0302429199-.1216278076.0425033569-.1809082031.0230026245-.1124572754.0509262085-.2220916748.0795211792-.3343353271l.0000305176-.0001220703.0000152588-.0000762939.0000076294-.0000305176c.0233230591-.0915679932.0470962524-.1848907471.0689926147-.2828979492.1903457642-.7265625.3853302002-1.4438476562.6035308838-2.1681060791l.0418014526-.1462402344c.0468978882-.1476898193.0848770142-.2980804443.1137390137-.4503326416.0342636108-.1446685791.0778961182-.2940216064.1206512451-.4403686523l.0279159546-.0958557129.0171051025-.0556793213.0000610352-.0001983643c.2123718262-.6913452148.4228210449-1.3764343262.642074585-2.0681152344l.071975708-.2460632324c.0208282471-.0624847412.0416488647-.1272735596.0624694824-.1920623779l.0000076294-.0000152588.0000076294-.0000152588v-.0000152588l.0001678467-.0004882812.0000457764-.0001678467c.0208740234-.064956665.0417556763-.1299285889.0626373291-.192565918.0580291748-.1903533936.1137390137-.3598022461.1764221191-.5501556396.2244110107-.6859436035.483581543-1.3776855469.7369995117-2.0540771484l.000038147-.0001068115.073097229-.1951599121.0417938232-.1276702881.1253585815-.3876647949c.036567688-.1142883301.0801391602-.2325744629.1234893799-.3502807617.0226898193-.0615844727.0453109741-.1230163574.0668411255-.1836242676.3017730713-.8078155518.6197891235-1.604019165.9842376709-2.483795166.0417785645-.1114196777.0998153687-.2460632324.1485671997-.3574829102.0509643555-.159576416.1146011353-.3148193359.1903305054-.464263916.2816619873-.677734375.5846862793-1.35546875.8655395508-1.9835968018l.0000228882-.0000457764.0000915527-.000213623c.0894546509-.2000732422.1766586304-.395111084.2602081299-.5834960938.0426864624-.0871582031.0771865845-.1688537598.1129226685-.2534484863l.0000152588-.0000305176.0000305176-.0000915527.0000305176-.0000762939.0000305176-.0000457764.0000915527-.0002441406.0331192017-.0780181885c.0487442017-.1137390137.1137161255-.2599945068.1763916016-.385345459.3040390015-.6766204834.6360244751-1.353225708.9556503296-2.0046539307l.0000305176-.0000610352c.1025390625-.208984375.2038116455-.4153747559.302482605-.6183624268.0388259888-.0667877197.0703811646-.135635376.1016159058-.2038116455l.0000152588-.0000152588c.0154418945-.033706665.0308074951-.0672454834.0469360352-.1002655029l.0373840332-.0770263672h.0000076294c.0416107178-.0859680176.0896530151-.1852111816.1390304565-.2804412842.3901977539-.7860870361.8082275391-1.5690765381,1.182182312-2.26953125l.000038147-.0000762939.0002441406-.0004577637c.0842285156-.1577606201.1662139893-.3113250732.2451477051-.4598083496.0406341553-.0914306641.0904083252-.1785430908.1485595703-.259979248.04296875-.0942687988.0918197632-.185760498.1462478638-.2739105225.5501480103-1.0144195557,1.1118850708-1.99168396,1.5482940674-2.7437896729.0430679321-.0852661133.0919265747-.1674804688.1462402344-.2460632324.0333786011-.0649871826.0733947754-.1326293945.1120147705-.1979064941l.0000228882-.0000305176.036529541-.0620422363c.4781951904-.8240661621,1.0260238647-1.7316894531,1.7154541016-2.8273468018l.1137390137-.1764221191c.0208892822-.0348205566.0417861938-.0719604492.0626831055-.1091003418.0208892822-.0371398926.0417861938-.0742950439.0626754761-.1091003418l.129776001-.202911377c.4998245239-.7817077637,1.0418548584-1.6294250488,1.7272720337-2.6244506836l.2460403442-.3737182617c.5780105591-.8658599854,1.2256546021-1.7874298096,1.9777603149-2.8273773193.0188903809-.025177002.0349273682-.0503540039.0506896973-.0751037598h.0000076294c.0191116333-.0300140381.0378265381-.059387207.0607223511-.0873718262.0262451172-.0320739746.0479125977-.0678100586.0707473755-.1054992676h.0000076294c.0135192871-.0223083496.0274505615-.0452880859.0429840088-.0686035156.6409454346-.8995513916,1.3472595215-1.8187255859,2.118927002-2.8229522705l.0000152588-.0000152588.0747070312-.0972290039.1485748291-.204284668c.7521057129-.9633483887,1.548286438-1.9615020752,2.3839569092-2.9759216309l.0696487427-.0974884033c.865852356-1.0422668457,1.7316970825-2.0473937988,2.5836181641-3.0177001953.4002609253-.4443206787.7830886841-.8726654053,1.1588363647-1.2930908203l.2966308594-.331817627.357460022-.4015808105c.1946334839-.2159881592.3906326294-.4265289307.584312439-.6345825195l.0000152588-.0000152588.0000152588-.0000152588.0000152588-.0000152588.0003204346-.0003509521.0001449585-.0001525879c.1641921997-.1763763428.326713562-.3509521484.4853286743-.5255279541l.3435440063-.3714141846c.6904678345-.7379608154,1.3691329956-1.4455566406,2.0173187256-2.1213684082l.0003738403-.0003967285.0001831055-.0001983643.3336105347-.3479156494c-25.8385391235.3968658447-28.5163269043,14.2595367432-32.2154693604,33.4096984863l-.0019683838.0101776123h-.0765914917ZM51.2898848891,139.1029345392c-4.7927703857-2.3362884521-9.1644210815-5.4520568848-12.9366531372-9.2202301025,1.4833145142.1741027832,2.85521698.3226623535,4.1853256226.464263916l.3574676514.02784729c1.3092193604.1114196777,2.7229003906.2181854248,4.2990646362.3017578125l.3296432495.0139465332c.0806655884.0069122314.1630554199.0103759766.2451629639.0138397217h.0002746582l.0002746582.0000152588.000289917.0000305176c.0830078125.0034942627.165725708.0069732666.2461090088.013961792,1.5204620361.0765991211,3.0757293701.1485595703,4.6634979248.1903381348l.9865570068.0278778076c1.9197235107.0417938232,3.5237731934.0557098389,5.034942627.0557098389,1.8779296875,0,3.7999725342-.0765991211,5.7057647705-.2042694092,12.8159484863-.877456665,24.9285430908-4.8167266846,35.0285644531-11.3581695557,10.030380249-5.9657669067,19.2738342285-13.9765930176,27.4541168213-23.7887649536,1.1954956055-1.4299240112,2.4257659912-2.9411010742,3.6374816895-4.5172729492.0816955566-.1094818115.1624755859-.218963623.2433319092-.3285522461.1420135498-.1924819946.2842712402-.385307312.4321899414-.5790710449l.0746459961-.1019210815.0000762939-.0000762939c.1307220459-.1786956787.2527313232-.3454437256.3895263672-.5154800415l.3332214355-.4428482056c.6456451416-.857711792,1.3005065918-1.7276763916,1.9300537109-2.6027069092.1369628906-.1938171387.2745056152-.3928833008.4120483398-.5919189453.1375427246-.1990661621.2750854492-.3981018066.4120330811-.5919494629l.436416626-.6313934326c.5895996094-.8379974365,1.2581176758-1.808303833,1.8918304443-2.7577056885.3365936279-.5060577393.6685638428-1.0260314941.9842681885-1.5343933105l.259979248-.3992614746c.1575164795-.2514953613.3148498535-.501373291.4714508057-.7500610352l.0001373291-.000213623.0001373291-.000213623.0001373291-.0002288818.0001373291-.000213623.0001373291-.0002288818.0002746582-.0004577637.0002746582-.0004272461.0002746582-.0004577637c.4036712646-.6411132812.802444458-1.2744140625,1.1867523193-1.9077148438.3598022461-.5896148682.7103424072-1.1815490723,1.0562133789-1.7711486816l.1114196777-.204284668c.415512085-.7172851562.9494171143-1.6597290039,1.4856414795-2.609161377.3714141846-.6615600586.7242431641-1.3301086426,1.0677947998-1.9916687012.3583984375-.6791687012.6960449219-1.3500213623,1.0257568359-2.0051116943.0973968506-.1934967041.1941070557-.385635376.290435791-.5761871338.3296203613-.6615753174.647644043-1.3161621094.9494018555-1.9777526855.3946228027-.8356628418.7730102539-1.6875915527,1.16065979-2.5812835693.2878417969-.645324707.5617675781-1.2999420166.821762085-1.9336547852.0551300049-.108291626.1035766602-.2199249268.1510162354-.3292388916l.0254058838-.0584106445c.0125427246-.0282287598.0222473145-.0550384521.0316772461-.0810699463.0115203857-.0317840576.0226287842-.0624084473.0379333496-.0930328369,3.5260772705,6.7805480957,6.9941101074,16.6971588135,3.9462280273,26.0961303711-2.3770141602,7.3214111328-8.3265380859,13.0759353638-17.6976623535,17.1196594238-16.0944671631,6.9313964844-26.2778625488,16.1971435547-35.2572631836,24.3674163818l-.0000762939.0000610352-.0451202393.0410614014-.0057525635.0052337646c-14.4446105957,13.1426544189-23.9974365234,21.8344268799-47.8526916504,10.2990570068ZM73.6092818617,114.8290240167c-7.1496276855.0269546509-14.19140625-1.7432403564-20.4783630371-5.14793396s-11.6175079346-8.3347167969-15.5019302368-14.3371429443c-12.5838088989-19.4409484863-7.126411438-44.7292785645,12.6882858276-58.8172912598,10.8265838623-7.7090606689,23.8189239502-10.3042755127,35.6204681396-7.1473083496,10.6223144531,2.841293335,19.0347290039,9.9607391357,23.6146697998,20.0050354004,12.3029327393,26.9039459229,2.4118347168,48.8449554443-12.8600616455,58.6571273804-6.8794555664,4.4397735596-14.8953857422,6.7968444824-23.0830688477,6.7875137329ZM34.9618056654,126.1453997492l.928527832.1276550293.4781723022.0696487427.004737854.0006866455.0020904541.0002975464c.301574707.0437469482.5874786377.0852050781.9008102417.1266708374l1.0004959106.1253585815.7799606323.0998306274c.1578445435.0208969116.3197555542.0383071899.4816741943.0557098389.1619110107.0174026489.3238296509.0348129272.4816741943.0557098389.3156967163.0417861938.6615524292.0719451904.9981460571.0998001099l.8797836304.0835952759.9842300415.0835647583,1.0701217651.0858840942.9633560181.0696182251c.1528015137.0141067505.3097686768.0246353149.467590332.0352172852l.00050354.0000228882.0005187988.0000457764.0005340576.0000457764c.1533508301.0102844238.3074798584.0206222534.4593658447.034324646.4015960693.0301742554.8101348877.058013916,1.2093963623.0719451904l1.0283508301.0557098389.8217315674.0417938232c.4290924072.0273895264.8649291992.0413131714,1.2942581177.0550231934l.0009689331.0000228882.0209655762.0006637573,1.0538787842.0441207886c.262298584.013923645.5362243652.0278549194.8101348877.0278549194l1.8779296875.0417633057.6755065918.0139465332c.1230316162,0,.2425842285.0034790039.3621368408.0069580078.1195373535.0034790039.2390899658.0069503784.362121582.0069503784,1.0979614258.0139312744,2.2238006592.0278549194,3.3612365723.0278549194,14.3503417969,0,27.8417663574-3.8255004883,39.0188751221-11.0703048706,17.2194671631-11.1562042236,27.1593170166-28.9536819458,27.2637786865-48.8031845093,0-1.3161773682-.02784729-2.6230773926-.0835571289-3.8974761963-.0137939453-.1478881836-.0259399414-.3024597168-.0378112793-.4537811279l-.0063171387-.0801086426-.0052490234-.063369751-.0060424805-.068069458c-.0092773438-.1030426025-.0165557861-.1837158203-.0165557861-.2910461426-.0557098389-.9285125732-.1253509521-1.9057922363-.232131958-2.8273468018-.011138916-.0872955322-.022277832-.1768188477-.0334320068-.2663421631-.016708374-.134262085-.033416748-.2685089111-.0501251221-.3952484131-.0151062012-.0869140625-.0261230469-.172454834-.0375061035-.2607116699l-.0000305176-.0003814697c-.0095825195-.0742645264-.0193939209-.1504669189-.0321044922-.2310180664l-.0440979004-.3574676514c-.0835723877-.7103271484-.1880493164-1.4276123047-.3017883301-2.1240081787-.016418457-.0857086182-.0328063965-.1735687256-.0492248535-.2614746094l-.0009460449-.0049591064c-.0250549316-.1342163086-.0501098633-.2684326172-.0751647949-.3951416016-.0440979004-.1764068604-.0719604492-.3319396973-.099822998-.5060424805l-.0696411133-.3737182617-.021774292-.1105041504c-.1210021973-.6144256592-.2474212646-1.2563323975-.4007110596-1.8672485352-.0554656982-.2448120117-.1236572266-.486541748-.2042541504-.7242584229-.029083252-.1114196777-.0648803711-.2273406982-.1003875732-.3422851562l-.0000762939-.0001831055-.0001220703-.0004425049-.0187835693-.0608520508-.0153045654-.0500183105-.0115814209-.0383300781-.1137390137-.4364013672c-.0561065674-.1940155029-.1094665527-.3924560547-.1631011963-.5919799805-.1016845703-.3781890869-.2044067383-.7602844238-.3290100098-1.1234741211-.0835723877-.2599945068-.1764373779-.5199737549-.2739257812-.7799682617-.0387573242-.112991333-.0786132812-.2226257324-.1203918457-.3374938965l-.0002288818-.0006256104-.0010986328-.0030059814c-.017868042-.0491333008-.0360870361-.0992431641-.0547027588-.1509857178l-.1624908447-.4503326416c-.1740875244-.5083618164-.3574676514-1.0283508301-.5478210449-1.5134887695-.0658874512-.1851196289-.148727417-.363861084-.2306365967-.5405578613l-.0000610352-.0001373291c-.039276123-.0847167969-.0783081055-.1689605713-.1151733398-.2531890869-.0368347168-.0933227539-.0795135498-.1807861328-.1221923828-.2682495117l-.0001220703-.0002288818c-.0379638672-.0778198242-.075958252-.1556396484-.1098175049-.2375640869l-.2158966064-.4944458008c-.0476379395-.1085968018-.0948028564-.2186431885-.1422119141-.3292388916l-.0003051758-.0006866455-.000289917-.0007019043-.000289917-.0007019043-.0003051758-.0007019043-.0003051758-.0007019043-.000289917-.0007019043-.000289917-.0007019043-.0000610352-.0000915527-.0000152588-.0000762939c-.1413726807-.3298339844-.2847747803-.6643829346-.447555542-.9795684814-.1061859131-.2278289795-.2252502441-.4363861084-.3477783203-.6510620117l-.0000915527-.0001525879-.0312652588-.0547943115-.0433502197-.0762634277c-.0396270752-.0759429932-.0813293457-.1508483887-.1231536865-.2259368896l-.0000457764-.0000915527-.0001831055-.0003051758c-.046295166-.0831604004-.0927429199-.1665496826-.1366119385-.2518615723l-.2460479736-.464263916c-.0727386475-.133102417-.1454772949-.2703399658-.2189941406-.4090270996-.1470184326-.27734375-.2971191406-.5605163574-.4565124512-.8282165527-.0464782715-.0743713379-.0921936035-.148727417-.1379089355-.2230987549l-.0000457764-.0000762939-.0000457764-.0000915527-.0000457764-.0000762939-.0000457764-.0000915527-.0000457764-.0000762939-.0000457764-.0000915527-.0000457764-.0000762939c-.1140136719-.1854248047-.2280273438-.3708648682-.3538818359-.5562896729l-.0447540283-.0678405762-.0001068115-.0001831055-.0000762939-.0001068115-.0000915527-.0001373291c-.0844116211-.1277160645-.1719665527-.2601928711-.2428131104-.3959960938l-.2739257812-.4503326416c-.232131958-.3737335205-.4781799316-.7683410645-.7404937744-1.139755249l-.1022949219-.1418762207c-.153137207-.2126922607-.3062591553-.4253845215-.4733734131-.6380767822l-.3296356201-.436416626-.3040771484-.4224700928c-.0816650391-.1086273193-.1633148193-.2204742432-.2458190918-.3334960938l-.0007019043-.0009307861-.0000152588-.0000305176c-.1800079346-.2465515137-.3641204834-.4987335205-.5612945557-.7356567383l-.0008850098-.0010375977-.0000610352-.0000762939-.0000305176-.0000152588v-.0000152588c-.217880249-.2596130371-.435760498-.5192108154-.6605987549-.7649078369-.0568695068-.0742797852-.1183929443-.1427612305-.179901123-.211227417-.0615081787-.0684814453-.1230163574-.1369476318-.1798858643-.211227417l-.3435821533-.4016113281c-.2739105225-.3296203613-.5640563965-.6592407227-.8518981934-.9842224121-.2460479736-.259979248-.4921112061-.5060424805-.7521057129-.7521057129l-.3876647949-.3876495361-.385345459-.385345459-.0002593994-.0002593994c-.3039855957-.3039855957-.5917510986-.5917510986-.8934326172-.8795166016-.2393188477-.2149505615-.4910430908-.429901123-.742767334-.6448669434l-.0000915527-.0000915527-.0000915527-.0000762939-.0000915527-.0000915527-.0000915527-.0000915527-.0000915527-.0000762939-.0000915527-.0000915527-.0000915527-.0000915527-.1085205078-.0926971436c-.0700073242-.0544586182-.138961792-.1131591797-.208114624-.1720428467l-.0001068115-.0001068115-.0001220703-.0001068115c-.0752258301-.0640563965-.150680542-.1283111572-.2280426025-.1875457764-.0739898682-.056640625-.1422119141-.1179046631-.2101287842-.1788787842l-.0000762939-.0000610352-.0001373291-.0001220703c-.0683898926-.0614013672-.1364898682-.122543335-.2098388672-.1784210205-.3180084229-.2762298584-.6337127686-.5501556396-.9656677246-.8240661621-.264755249-.2184753418-.4999694824-.3926391602-.7421875-.571975708l-.0004882812-.0003662109-.0004882812-.0003662109-.0868225098-.0643310547-.0985412598-.0732727051c-.0749206543-.0521240234-.1488342285-.1062927246-.2229003906-.1605834961l-.0001831055-.0001220703-.0001525879-.0001068115-.0000610352-.0000457764-.0001831055-.0001220703-.0000610352-.0000457764c-.0840759277-.0615997314-.1683654785-.1233673096-.2546234131-.1825256348l-.4503479004-.3319549561c-.3296356201-.259979248-.6592559814-.5060424805-1.0120849609-.7521057129-.2149505615-.1499023438-.4264678955-.2894592285-.6366119385-.4281311035l-.0002441406-.0001678467-.0003509521-.0002288818c-.1346130371-.0888214111-.2686767578-.1772918701-.4027404785-.267868042-.0882110596-.0487518311-.1711883545-.1032867432-.2541656494-.1578369141s-.1659698486-.1091003418-.2541809082-.1578521729c-.1315002441-.0726776123-.2501220703-.1582489014-.3693084717-.2442169189-.0406951904-.0293731689-.0814666748-.0587768555-.1228485107-.0877380371-.343536377-.232131958-.675491333-.4503326416-1.039932251-.6615600586-.0922088623-.0534515381-.1878356934-.1095733643-.2857208252-.1670074463l-.000213623-.0001373291c-.2889099121-.1695556641-.597442627-.3506164551-.8955993652-.5083618164l-.4921264648-.2739105225c-.1764221191-.0975036621-.3319396973-.1903533936-.4921112061-.2878417969l-.1226959229-.0704345703-.0000305176-.0000152588-.0000610352-.0000305176-.0000305176-.0000305176-.0001831055-.0000915527-.0002746582-.0001678467-.0004882812-.0002746582c-.2876586914-.1652069092-.5679626465-.326171875-.876739502-.4907073975-.1317138672-.0250396729-.2679443359-.0448303223-.4060974121-.0649108887l-.0000305176-.0000152588c-.1052856445-.0153045654-.2117004395-.0307617188-.3181152344-.048828125l-.5338745117-.0835723877c-.123046875-.0208892822-.2425842285-.0388793945-.362121582-.0568695068-.1195526123-.0179901123-.2391052246-.0359802246-.362121582-.0568695068-.2133483887-.0362243652-.4703369141-.0619812012-.7134399414-.0863494873l-.1106567383-.011138916-.647644043-.0696411133-.696395874-.0859069824c-.1369476318-.0139160156-.2704162598-.0243682861-.4038848877-.0348052979-.1334838867-.0104522705-.2669677734-.0208892822-.4039306641-.0348205566l-.6615600586-.0557098389c-.1230316162-.0069732666-.2425842285-.0179901123-.3621368408-.0290222168-.1195526123-.0110168457-.2390899658-.0220489502-.3621063232-.0290222168l-.8078155518-.0417785645-.7265777588-.02784729c-.2321166992-.0139312744-.464263916-.0278625488-.7103271484-.0278625488-.2878112793-.0139160156-.589553833-.0139160156-.8773803711-.0139160156h-.6616516113c-.0820159912,0-.1640319824-.0015563965-.2460479736-.0030975342h-.0000457764c-.1640319824-.0030975342-.3280334473-.0061950684-.4920654297.0030975342-.2460632324.0139160156-.5501556396.0139160156-.8240661621.0139160156l-.696395874.0139312744c-.2473602295,0-.4947052002.0126037598-.7540740967.0258331299l-.0397949219.0020294189-.8519287109.0417785645-.666229248.0882110596-.7799377441.0417785645c-.1439208984.0139312744-.284942627.0243682861-.4259643555.0348205566-.1410217285.0104370117-.282043457.0208892822-.4259643555.0348205566l-.675491333.0557098389c-.1483306885.0163421631-.2925872803.027923584-.4371948242.0395202637l-.0000457764.0000152588h-.0001220703l-.0000305176.0000152588h-.0000762939c-.1223297119.0098114014-.2448883057.0196533203-.3703765869.032409668-.2739105225.0278625488-.6058349609.0696411133-.9076080322.1114196777l-.6755065918.0858917236c-.2599945068.0278625488-.5060577393.0557098389-.7660369873.0974884033-.2296142578.0315551758-.4579162598.0710449219-.6858825684.1104888916-.0739440918.0127868652-.1478271484.0255737305-.2217407227.0380859375l-.6755065918.1114196777-.7660369873.1276702881c-.2901611328.0557098389-.5780029297.1114196777-.8658447266.1740875244l-.7381591797.1485748291c-.1686401367.0286407471-.3438262939.0638122559-.5218200684.0995483398l-.0000305176.0000152588c-.0817108154.0164031982-.1639862061.0329284668-.2465209961.0489959717-.2623138428.051071167-.575668335.1253509521-.8635101318.204284668l-.7381896973.1741027832c-.088684082.020904541-.1794433594.041519165-.2708129883.0622558594l-.0000762939.0000305176-.0000762939.0000152588-.0000915527.0000152588c-.162109375.0368041992-.3260498047.0740203857-.4833679199.1141052246-.1439208984.0348052979-.2913208008.0754394531-.4387359619.1160583496l-.0000915527.0000305176c-.1473846436.0406036377-.2947540283.0812225342-.4386444092.116027832l-.6754760742.1903533936c-.1413879395.0356445312-.278503418.07371521-.415435791.1117401123l-.0001068115.0000305176c-.1305389404.0362548828-.2609100342.0724487305-.3945922852.1064300537-.1368865967.0348052979-.2772674561.0788879395-.4176483154.1229705811l-.0000305176.0000152588h-.0000305176l-.0000305176.0000152588h-.0000305176l-.0000152588.0000152588-.0000305176.0000152588h-.0000305176c-.1404418945.0440979004-.2808990479.0882110596-.4178466797.1230316162l-.7544250488.232131958c-.1299743652.0348205566-.2564697266.0754241943-.3829498291.1160430908l-.0000610352.0000152588c-.1264953613.0406341553-.2530212402.0812530518-.3829956055.1160736084-.1874084473.0501861572-.3965148926.1269226074-.6021118164.2023620605-.0796508789.0292205811-.1587524414.0582580566-.2358856201.0854797363l-.696395874.2460479736c-.1511993408.0470123291-.3017120361.0995941162-.4496154785.151260376l-.0000305176.0000152588h-.0000305176l-.0000152588.0000152588h-.0000152588l-.0000305176.0000152588c-.1222686768.0427093506-.242767334.0848083496-.3603973389.1226196289-.1995544434.0641326904-.415512085.1501464844-.6363372803.2381134033l-.0006103516.0002441406c-.0666809082.0265655518-.1337890625.0532989502-.2010345459.0796508789l-.7242584229.2739105225-.7660369873.2878417969-.8147735596.3528442383-.696395874.2878417969c-.1248321533.053024292-.2523040771.1050109863-.3796539307.1569213867l-.0000610352.0000305176-.0000457764.0000152588c-.1401977539.0571746826-.2802429199.1142730713-.4164581299.1726531982-.2599945068.1114196777-.5199737549.2321472168-.7799682617.3598175049l-.7102966309.3296203613c-.2395019531.0994567871-.4701538086.213104248-.6981201172.3254394531l-.0980987549.0482940674c-.0938568115.046081543-.1822662354.0909576416-.2684936523.1347351074h-.0000152588l-.0000305176.0000152588v.0000152588h-.0000305176l-.0000152588.0000152588-.0000152588.0000152588h-.0000152588c-.1526184082.0774841309-.2984466553.1515045166-.4556427002.2226867676l-.7520904541.3876495361c-.2599945068.1276702881-.5199737549.2599945068-.7799530029.4015960693-.2599945068.1415863037-.4782104492.259979248-.7103424072.3853302002l-.7683410645.4224700928c-.2460479736.1276702881-.4921264648.2739257812-.7381896973.4224853516l-.7242431641.4364013672-.696395874.4224853516c-.1167449951.0719146729-.2306747437.1400909424-.3443145752.2080993652-.1394500732.0834350586-.2784576416.1666259766-.4216995239.2561645508-.2599868774.1624755859-.4782028198.3017578125-.7103347778.4642486572l-.6615600586.436416626c-.0904388428.060546875-.1808624268.1188659668-.2712936401.1771697998l-.0000076294.0000152588c-.1695556641.1093139648-.3391113281.2186431885-.5086593628.3427734375-.218208313.1462554932-.436416626.3017730713-.6476516724.464263916l-.6754837036.4921264648c-.1299972534.0951690674-.2565078735.1845397949-.3830184937.2739105225-.1265182495.0893707275-.253036499.1787567139-.383026123.2739257812-.1970062256.146697998-.3939971924.2990875244-.5961303711.4554290771l-.0000457764.0000305176-.0001373291.0001068115-.0652542114.0504760742-.6197967529.494430542c-.0755615234.0587005615-.1511154175.1158294678-.2263412476.1726837158-.18359375.1388092041-.3651580811.2760772705-.5397033691.4308624268-.0653991699.0558166504-.1316223145.1108398438-.1981048584.1660461426-.1269989014.1054992676-.2549514771.2117919922-.3798980713.3260650635l-.6453018188.5501556396-.0423736572.0352325439-.0000534058.0000457764-.000038147.0000305176-.0000228882.0000305176c-.2478637695.206161499-.4931106567.41015625-.7258758545.6099853516l-.5478286743.5199737549-.6058578491.5617523193c-.1229705811.1159973145-.249420166.2320251465-.3758773804.3480224609l-.0000228882.0000305176-.0000305176.0000305176-.0000228882.0000152588-.0000228882.0000152588-.0000305176.0000305176-.0000228882.0000305176-.0000228882.0000152588c-.1265106201.1160736084-.2530212402.232131958-.3760528564.3481903076l-.5617675781.5617675781-.5919189453.5919342041c-.0768890381.0768890381-.1553039551.153793335-.2342453003.2311859131-.1593704224.1562652588-.3208389282.3145751953-.4760818481.4791412354-.1104278564.1104278564-.2117614746.2235717773-.3119659424.3354644775l-.0000305176.0000457764c-.0598754883.0668640137-.119354248.1332702637-.1801223755.1983795166-.0459060669.0523071289-.0927886963.1026611328-.1395339966.15284729-.0548934937.0589447021-.109588623.1176605225-.1622467041.179107666l-.3040771484.3296203613-.0192565918.0204162598c-.2264404297.2400054932-.4649581909.4927978516-.6771392822.7456054688l-.047668457.0559234619-.0000228882.0000152588-.0000228882.0000305176-.0000534058.0000610352-.0000762939.0000915527c-.1573181152.184463501-.3106460571.3642425537-.4582138062.5497589111l-.5756759644.6963806152c-.218208313.2460632324-.4364013672.5060424805-.6337127686.7660369873-.1112594604.1465911865-.21144104.2710418701-.308883667.392074585l-.0000228882.0000305176-.0000228882.0000305176c-.0753555298.0936126709-.1490707397.1851806641-.2249832153.2833557129l-.5362091064.7103271484-.1528244019.2002410889-.0001296997.0001678467c-.1403884888.1840820312-.283416748.3716125488-.4227294922.5516815186-.1952819824.2596893311-.3794174194.5286865234-.5573883057.7886657715l-.0624084473.0911254883-.232131958.3458709717c-.0417785645.0626831055-.0893630981.1276702881-.1369476318.1926574707-.0475769043.0650024414-.095161438.1300048828-.1369476318.1926727295-.1485595703.2042694092-.2878417969.4015960693-.4364089966.6197967529-.5060424805.7660369873-1.0121078491,1.5622406006-1.4694061279,2.3352355957-10.5224914551,17.4515991211-11.950088501,40.2700424194-3.7349777222,59.5577850342.5756835938,1.3417205811,1.1947021484,2.6687393188,1.8570480347,3.981048584.089012146.1747283936.1827163696.3424377441.2752761841.5081100464.0377883911.0676345825.075378418.1349334717.1123962402.2022247314.0330200195.059753418.0668411255.1184463501.1004638672.1767959595l.0003509521.0005950928c.065536499.1137084961.1303253174.2261199951.1870193481.3425827026l.1114196777.232131958c.0988388062.1792068481.1972885132.3600540161.2960739136.541519165l.0001373291.00025177c.3234405518.5941543579.6504364014,1.1948547363,1.0060424805,1.7655944824.1903457642.3156967163.3853302002.6197891235.6035308838.9285202026.0567626953.0880432129.1146850586.1737747192.1726074219.2595062256l.0003356934.0004806519.0003204346.0004806519c.0579223633.0857315063.1158447266.1714630127.1726074219.2595062256l.2599868774.422492981c.3598098755.5617523193.7381744385,1.1397628784,1.125831604,1.6875915527.1728668213.2472000122.3611907959.4853820801.547706604.7212677002.0639419556.0808639526.1276626587.1614608765.1904830933.2420578003.0638275146.0881958008.1288146973.1711730957.1938018799.2541503906.0650177002.0830001831.1300201416.1660003662.193862915.2542266846l.2739028931.3574905396c.3813247681.3962402344.7423629761.8115081787,1.0817337036,1.2442169189ZM50.7536910414,10.6347948908l.0719451904-.0580291748c.1854324341.0088653564.3704681396.0175170898.5562744141.0262298584l.0033111572.0001525879.0006332397.0000305176c.4455795288.0208587646.8956680298.0419158936,1.3664779663.0664367676,1.4276123047.0835723877,2.9178771973.183380127,4.6913604736.3435516357l1.0538787842.0858917236c1.6458129883.1462402344,3.1035919189.3017730713,4.4615631104.464263916l.5478210449.0696411133c1.2651062012.1624908447,2.5534362793.3458709717,3.9114074707.5478210449h.3714294434l.5919189453.0859069824c1.4275970459.2321166992,2.8134155273.4781799316,4.0994262695.7242431641l.4804992676.0835571289.3017883301.0580291748c1.1745910645.232131958,2.3561096191.4921264648,3.495880127.7521057129l.3017730713.0696411133c.0742645264.0139312744.1462249756.0313415527.2181854248.0487518311h.0000457764l.0000457764.0000152588.0000457764.0000152588.0000457764.0000152588h.0000457764l.0000457764.0000152588.0000457764.0000152588c.0718536377.0173797607.1437225342.0347747803.2179107666.0486755371,1.2442016602.2901611328,2.5116424561.6197814941,3.7697906494.9656524658.1237335205.0407409668.2386322021.0726623535.3561859131.1053009033l.0002441406.0000762939.0000610352.0000152588c.0632019043.0175476074.1271514893.0353240967.1936645508.0547790527l.2739257812.0858917236c1.2094116211.3505249023,2.2934570312.6824645996,3.333404541,1.0120849609l.190322876.0557098389c.032913208.013168335.0710296631.023223877.1094055176.0333557129.0428314209.0113067627.0860137939.0226898193.1227264404.0386047363.9215698242.3017730713,1.8431396484.6383666992,2.8273620605.9981842041-1.111907959-.0278625488-2.2098693848-.0278625488-3.2776794434,0-.0885009766,0-.1752471924.0034942627-.26171875.0069885254-.0858764648.0034790039-.1714935303.0069274902-.2582550049.0069274902l-.2599945068.0139312744c-1.4856262207.0557098389-2.7994995117.1346282959-4.01121521.2460632324-.1057281494.0023651123-.2111968994.0116729736-.3156890869.02784729-.0417938232.0069580078-.0858917236.0104522705-.1300048828.0139312744h-.0000610352c-.0440979004.0034790039-.0881652832.0069580078-.1299285889.0139312744-1.1954803467.1346282959-2.4141693115.2878417969-3.6374969482.4781799316l-.3017883301.0417785645c-.0880584717.0163574219-.1734008789.0279388428-.2589569092.0395507812l-.0001068115.0000152588c-.072265625.0098114014-.1447143555.0196380615-.2191162109.0323944092-1.1467285156.1903533936-2.3561096191.4224853516-3.7140808105.7242584229l-.2182312012.0417785645c-.0964508057.022064209-.1946411133.0435638428-.2934570312.0652008057-.1817474365.0397949219-.3655700684.0800323486-.5445288711.1251525879-1.1745873399.2808685303-2.3630639024.5826416016-3.5237236924.9285125732-.2587738037.0679321289-.5153045654.1471405029-.7727203369.2266082764l-.0000305176.0000152588h-.0000152588l-.0000152588.0000152588h-.0000610352l-.0000152588.0000152588h-.0000152588l-.0000915527.0000305176c-.1119689941.0345611572-.2240905762.0691680908-.3366394043.102935791-1.2674255371.3946228027-2.3932495117.7753143311-3.4471282959,1.16065979-.2112426758.0858917236-.4433746338.1764373779-.6615753174.2599945068l-.3296356201.1276702881c-1.0701141357.4224853516-2.1054382324.8379974365-3.0896759033,1.2720794678l-.9842224121.4364013672c-.9842376709.4573059082-1.99168396.9494171143-3.073425293,1.4995727539l-.3458709717.1741027832c-.2182006836.0998077393-.4131622314.2042694092-.6174468994.3180084229-1.0074462891.5408630371-2.0474243164,1.1397705078-3.159324646,1.8013458252-.1516189575.0970001221-.3069839478.1896972656-.4624938965.2824859619-.1682815552.1004333496-.3367462158.200958252-.5008239746.3071289062-1.0701217651.6615600586-2.0961532593,1.3440246582-3.0595016479,2.01953125l-.6058578491.4364013672-.2182235718.1601867676c-1.139755249.8240509033-2.1379241943,1.5831298828-3.0455474854,2.3073730469-.0622406006.0548248291-.1225738525.1058654785-.1834335327.1573486328l-.0000457764.0000305176-.0001449585.0001220703c-.0344238281.0291137695-.0690231323.058380127-.1042175293.0885620117l-.2181930542.190322876-.0730133057.0618743896c-.9052200317.7671508789-1.8286972046,1.5497589111-2.712562561,2.3499755859-.0696334839.0650024414-.1485748291.1346435547-.2182159424.1903381348-.077545166.0820007324-.1596832275.1595001221-.2460403442.2321472168-.893699646.8240661621-1.8152618408,1.7316894531-2.8134231567,2.7855682373l-.1625137329.1764221191c-.0458602905.0492553711-.0948257446.0991363525-.1446304321.1498565674-.0863189697.0879364014-.1751403809.1784057617-.2546234131.2726135254-.879776001.9424591064-1.7456283569,1.9336547852-2.5812988281,2.9457397461l-.1093292236.1356658936c-.133682251.1661529541-.2598419189.3229827881-.399017334.4841308594-.877456665,1.0979766846-1.6736831665,2.1309509277-2.4257888794,3.1871490479-.0464096069.0618896484-.0902786255.1288452148-.1325454712.1933746338-.0148086548.0226135254-.0294189453.044921875-.0438766479.0666046143l-.16015625.2182006836c-.8937072754,1.2999420166-1.6760025024,2.4675598145-2.3352508545,3.5794677734-.5640792847.9354858398-1.1397628784,1.9777526855-1.7734832764,3.1732330322-.1276779175.232131958-.2460403442.464263916-.3597869873.7103118896l-.1601867676.3017730713c-.4015884399.8101348877-.7683334351,1.5552825928-1.1118850708,2.3073883057-.1764221191.3737182617-.3458862305.7660369873-.5060577393,1.1397705078-.3319473267.7660217285-.6685256958,1.5831298828-1.0283279419,2.5116577148l-.1462402344.343536377c-.0330200195.0873413086-.0670166016.1702728271-.1008682251.2528381348l-.0000305176.0000610352-.0000152588.0000610352-.0000305176.0000610352-.0000152588.0000610352-.0000305176.0000457764-.0000152588.0000610352-.0000305176.0000610352-.0000152588.0000457764-.000038147.0000915527-.0000076294.0000305176-.0000076294.0000152588-.0000076294.0000305176-.0000152588.0000152588-.0000076294.0000305176-.0000076294.0000152588-.0000076294.0000305176c-.0398330688.09715271-.0794754028.1938323975-.1170730591.2966003418-.4224700928,1.1536865234-.8170928955,2.3050537109-1.1606521606,3.4308929443-.0217437744.084564209-.0441131592.1634521484-.0664596558.2422637939l-.0000076294.0000152588-.0000076294.0000305176v.0000305176l-.0000076294.0000152588-.0000076294.0000152588v.0000305176l-.0000076294.0000305176-.0000076294.0000152588c-.0205764771.072555542-.0411224365.1450653076-.0611495972.2218170166-.013923645.056854248-.0313415527.1148986816-.0487518311.1729431152-.0174102783.0580291748-.034828186.1160583496-.0487518311.1729431152-.2739181519.9842224121-.5199890137,1.8779296875-.7381896973,2.7437744141l-.0363769531.1452331543c-.088432312.3527526855-.1782836914.711151123-.2537841797,1.064163208-.1880264282.8356781006-.3574829102,1.6736602783-.5199737549,2.4814910889l-.0417709351.2460479736c-.0626678467.2971343994-.1207046509.6128234863-.1764221191.928527832-.1903457642,1.0213775635-.3505249023,2.0613250732-.4781951904,3.131439209l-.0278625488.232131958-.0417633057.2878417969c-.1276702881,1.1397705078-.2460708618,2.3352355957-.3319625854,3.6374969482-.0069656372.129989624-.013923645.2565155029-.0208816528.3830108643-.0069580078.1265258789-.0139160156.2530212402-.0208816528.383026123l-.0139465332.3458557129c-.0417785645.9355010986-.0696334839,1.7990112305-.0835647583,2.6230773926-.013923645.4224853516-.0139389038.849609375-.0139389038,1.2720947266,0,.8379974365.013923645,1.7316894531.0557098389,2.6602172852l.0139389038.385345459c.0069656372.1160583496.0104522705.2321243286.0139312744.3481903076v.0001907349c.0034866333.1160049438.0069656372.2320022583.013923645.3480072021.0719604492,1.3161849976.1624908447,2.5046844482.2878417969,3.6653442383.0089645386.061454773.0172271729.1292724609.0251693726.1944885254l.0000152588.0001373291.0000457764.0003204346c.0064315796.0528411865.0126647949.1039657593.0188903809.1485977173.0069580078.0498962402.0139160156.0974731445.0208740234.1450500488.0069656372.0475997925.0139312744.095199585.0208892822.1451187134.1114273071,1.0260162354.2530212402,2.0241775513.4015884399,2.9735946655-.1903457642-.645324707-.3737182617-1.3138504028-.5362091064-1.9893493652-.0222549438-.0908660889-.0445022583-.1935882568-.0667572021-.2963180542l-.0000076294-.0000305176-.0167999268-.0773925781-.0557098389-.2739181519-.0210266113-.0941238403c-.1466369629-.6563034058-.2735671997-1.2244186401-.3666381836-1.7629165649-.02003479-.1079406738-.0368652344-.2142715454-.0535583496-.3197784424l-.0000076294-.0000534058-.0000152588-.0000610352-.0000076294-.0000534058-.0000152588-.0000610352-.0000076294-.0000534058-.0000152588-.0000610352-.0000076294-.0000686646c-.0181121826-.114440918-.0360565186-.2279052734-.0577850342-.3413772583l-.0441207886-.2599868774c-.0325698853-.2189254761-.0683059692-.4382095337-.104057312-.6575622559l-.0000228882-.0001144409-.0000152588-.0001144409-.0000152588-.0001144409-.0000228882-.0001144409-.0000152588-.0001144409-.0000152588-.0001144409-.0000152588-.0001144409-.0000152588-.0001144409c-.0559463501-.3432006836-.1119232178-.6865921021-.1557922363-1.0291213989-.0257568359-.2074508667-.0514984131-.4078521729-.0772476196-.6082687378-.0160293579-.12474823-.0320510864-.2495117188-.0480804443-.3759613037-.077545166-.5610198975-.1326904297-1.1332550049-.1874313354-1.7012481689l-.0000152588-.0001525879-.0029220581-.0303039551-.0278549194-.2739105225c-.0239944458-.1819915771-.0376586914-.3691253662-.0513687134-.5569915771l-.0066604614-.090637207c-.0417861938-.6035461426-.0835647583-1.2511901855-.1114196777-2.0450744629,0-.0401611328-.0030441284-.0787963867-.0062942505-.119934082-.003692627-.0468597412-.0076446533-.0969848633-.0076446533-.1563110352,0-.0540466309-.0032730103-.1102905273-.0066452026-.168182373l-.0000076294-.0000610352c-.003578186-.0614318848-.0072631836-.1247253418-.0072631836-.189239502-.0278549194-.8728179932-.0417785645-1.8013305664-.0278549194-2.7298583984.0112915039-.1048278809.0159301758-.2102813721.0139160156-.3157043457.0115814209-.1055908203.0162506104-.2118225098.0139389038-.3180236816.0139312744-.8217468262.0417709351-1.504196167.0696258545-2.15184021.013923645-.211227417.0278701782-.4294586182.0417938232-.6476593018l.0278549194-.3156890869c.020324707-.2467498779.0391845703-.4931182861.0580368042-.7394256592l.0000076294-.0000610352v-.0000610352l.0000076294-.0000610352.0000076294-.0000610352v-.0000457764l.0000076294-.0000610352.0000076294-.0000457764.0000076294-.0000610352c.0284881592-.3722229004.056968689-.7442779541.0904846191-1.1171569824l.0077819824-.0964050293.0000076294-.0000762939.0000076294-.0000762939.0000076294-.0000610352v-.0000610352l.0000076294-.0000762939.0000076294-.0000762939v-.0000610352l.0000076294-.0000610352c.0253829956-.3149719238.0520095825-.6455078125.0920028687-.9569244385.0696411133-.6197967529.1462402344-1.2395782471.232131958-1.8570404053l.02784729-.2483825684c.0278625488-.259979248.0556945801-.5060577393.0974807739-.7660522461.0799407959-.5995483398.1874923706-1.2161102295.3267288208-2.014251709l.0000076294-.0000305176.0191345215-.1097106934.0557098389-.3156738281c.0151672363-.1512451172.0384292603-.301574707.0696487427-.4503479004.1694564819-.9494018555.3737487793-1.9359741211.5919494629-2.899307251.0165176392-.1065979004.0397644043-.2120513916.0696258545-.3157196045l.0557022095-.2321166992.018081665-.0760192871.0000228882-.0001220703c.1970443726-.8285217285.3751983643-1.5776062012.5599060059-2.2939147949.0236358643-.0928039551.0482711792-.1836547852.0727767944-.2740020752l.0000839233-.0003204346.0000152588-.0000305176c.0404205322-.1490478516.0804901123-.2967681885.1151580811-.4498901367l.0719451904-.2901611328c.1764221191-.645324707.3574829102-1.2999420166.5478286743-1.9475860596.0998153687-.3574829102.2182159424-.7381744385.3319625854-1.0979766846.194984436-.6314086914.399269104-1.2720794678.6174697876-1.9057922363l.0676345825-.2049865723c.0929946899-.2823638916.1895751953-.575592041.2921524048-.8628234863.2458724976-.6958618164.5056686401-1.3917388916.7654571533-2.087600708l.0005874634-.0015716553.1346282959-.3458862305c.0257644653-.0725097656.0527038574-.1411132812.0793762207-.2090148926.0382080078-.0972747803.0758514404-.1931152344.1086578369-.2970275879.3876647949-1.0120849609.7822799683-1.9986419678,1.1838684082-2.948059082.021484375-.04296875.0392837524-.0877838135.0571899414-.1328582764.0169143677-.0425872803.0339279175-.0854034424.0542297363-.1271209717l.0835571289-.204284668c.3598022461-.8495941162.7242431641-1.6875915527,1.0979766846-2.4954071045.0696792603-.1645202637.1555175781-.3435668945.2386398315-.5169525146l.0492324829-.1028289795.1763916016-.3737335205c.112739563-.2304534912.2240066528-.462097168.3354797363-.6941833496l.0000305176-.0000457764.0000228882-.0000610352.0000228882-.0000457764.0000305176-.0000610352.0000228882-.0000610352.0000228882-.0000457764.0000305176-.0000457764.0000228882-.0000610352c.2006149292-.4176635742.4019088745-.8367462158.6137466431-1.2529602051l.0714035034-.1457824707c.1543273926-.3152618408.3136367798-.6406860352.4764251709-.9521942139.1173477173-.2229766846.2353134155-.4489746094.353767395-.6759185791.2095794678-.4015350342.4207077026-.8060455322.6327896118-1.2020263672l.0975036621-.204284668c.0812454224-.1439208984.1601638794-.2913208008.2390899658-.4387207031.078918457-.1473999023.1578369141-.2947998047.2390823364-.4387207031.3729629517-.6747283936.7528915405-1.3432617188,1.1397705078-2.0056152344l.232131958-.4015808105c.0487518311-.0882110596.0998153687-.1741027832.1508789062-.2599945068l.0000228882-.0000305176c.0510559082-.0858764648.1021118164-.1717529297.1508560181-.2599487305.5988922119-1.0120849609,1.1815643311-1.961517334,1.7595672607-2.8691558838l.0835647583-.1485443115c.0369567871-.0469512939.0703048706-.0966033936.0998001099-.1485748291.5339050293-.8356628418,1.0956726074-1.7015075684,1.6736831665-2.5534362793.1249389648-.1893615723.2531661987-.3721618652.3874282837-.5635681152l.0000152588-.0000152588.0768127441-.1096038818.1903381348-.2762298584c.4364089966-.6313934326.8774490356-1.2581329346,1.3277893066-1.8918609619l.0185928345-.025970459.0000305176-.0000305176c.2406463623-.3360137939.4962997437-.6929779053.7497406006-1.0278778076l.1434020996-.1946411133c.3897705078-.5291900635.7848434448-1.0655822754,1.1983184814-1.5927734375l.0580368042-.0696258545c.1514434814-.1957550049.3081741333-.3958892822.463684082-.5944671631.0971374512-.1240539551.1938018799-.2474975586.2884140015-.3688812256.4851531982-.6406707764.9911880493-1.2604675293,1.4972305298-1.8779449463l.2182159424-.2762298584c.1007080078-.1152801514.1946105957-.2290496826.2890319824-.343460083l.000038147-.0000457764.0000610352-.0000762939.0000534058-.0000610352c.0709381104-.0859527588.1421813965-.1722869873.2168502808-.2598876953.8240661621-.9981689453,1.5901107788-1.8941955566,2.3073959351-2.7020111084.4328765869-.4875030518.8581314087-.9580993652,1.2727203369-1.4169006348l.0000457764-.0000457764c.2723846436-.3014221191.5401611328-.5977478027.8024749756-.8904266357l.1276855469-.1462554932c.3529510498-.3678131104.6893768311-.729675293,1.0163421631-1.0813598633l.0000305176-.0000305176.0002593994-.000289917.0000915527-.0000915527.0002288818-.0002441406.0000457764-.0000457764c.2856750488-.3072814941.5641174316-.6067810059.8400421143-.895690918.0313415527-.0382995605.0644226074-.0713806152.0969085693-.1038818359.0325012207-.0325012207.064414978-.0644226074.0934295654-.100402832.4067077637-.4268798828.8134231567-.8403625488,1.2104492188-1.2439880371l.0003662109-.0003814697.0001144409-.0001068115c.1511917114-.153717041.3009719849-.3059844971.4488143921-.45703125l.2181854248-.2182006836c.5199737549-.5199737549,1.0260467529-1.0051269531,1.5320892334-1.4833221436ZM108.749235475,24.7228228449c.1439208984.1160736084.2884216309.232131958.4329223633.3481903076.1445007324.1160736084.2890014648.2321472168.4329223633.3482055664.5478363037.4503326416,1.111907959.928527832,1.7711639404,1.5134887695l.276260376.2460632324c.1860656738.1585693359.3528442383.313293457.5249481201.4729309082l.0507202148.0470428467c.5765075684.5256347656,1.1346588135,1.0925598145,1.6968231201,1.6635437012.1304626465.132522583.2611694336.2652740479.392364502.3977813721.0208282471.0277709961.045715332.0520935059.071472168.0772705078.0258789062.0252990723.0526428223.0514831543.0770874023.082901001l.1764221191.1764068604c.7521057129.7962188721,1.483291626,1.6458129883,2.20753479,2.525604248.1276702881.1624755859.2460784912.3156890869.3598175049.4781799316.0435791016.0624694824.0953674316.1267700195.1490783691.1934509277l.0004730225.0006103516c.0319366455.0396728516.0645599365.0801696777.0965118408.1216430664.5617675781.7265625,1.0120849609,1.3161621094,1.4136657715,1.8941650391.0835266113.121673584.1633605957.2405853271.2430114746.3591918945.0996704102.1484375.1990203857.2963867188.3048248291.448638916l.1485748291.2042694092c.4364013672.6337127686.807800293,1.2233276367,1.1606445312,1.8013305664.2182006836.3574829102.4340820312.7242584229.645324707,1.0956726074.3180236816.5640716553.647644043,1.1606445312,1.0283203125,1.8918609619l.1253662109.2483825684c.1485595703.2739105225.2901611328.5478210449.4224700928.8356628418.3156890869.6476593018.6337127686,1.3719024658,1.0120849609,2.2656097412.0418548584.1086730957.091506958.2141723633.1485748291.3156890869.0245056152.0572052002.0501708984.1152801514.076171875.1741027832l.0004272461.0009307861c.0477294922.1079864502.0966186523.2185211182.1416015625.3310089111.4224853516,1.0561981201.8101501465,2.1402587891,1.16065979,3.2080535889.0417938232.1276702881.0835723877.2739105225.1114196777.4015808105.0187835693.0860900879.0386199951.1489562988.05809021.2106628418.0093994141.0298156738.0187225342.0593566895.0278015137.0911102295.2878417969.928527832.5339050293,1.8013305664.7381896973,2.6230773926.05859375.2324676514.1089782715.4534301758.1608123779.6808776855l.0001678467.0006561279.0293579102.128616333.0835571289.3876495361c.1903381348.8356781006.3458862305,1.5877838135.4782104492,2.2772064209.0858764648.4503326416.1624755859.8936920166.2321166992,1.3440246582.1137390137.7381896973.2321166992,1.5135040283.3319396973,2.2934570312l.0139465332.1485748291c.0366821289.2630004883.0673522949.5300445557.0979309082.7964630127l.0000305176.0002746582c.015838623.1379394531.0316467285.2757110596.0482788086.4126586914.0719604492.7242584229.1485595703,1.5320739746.2042694092,2.5395202637l.0278625488.3992614746c.0070037842.1388702393.0181121826.2736358643.0291900635.4081268311l.0000457764.0006103516c.0109558105.1328277588.0218811035.2653961182.028793335.4013824463.0557098389,1.3719024658.0835571289,2.6439819336.0835571289,3.8533935547,0,1.3301086426-.0557098389,2.7019958496-.1764068604,4.1783447266-.008972168.1778869629-.0294799805.3547821045-.0503845215.5350646973l-.0000305176.0001220703-.0000457764.0003967285-.0000457764.0003356934c-.0115203857.0994110107-.0231628418.1998596191-.0330657959.3020782471-.0066223145.0839385986-.0164031982.1694488525-.0263366699.2563018799-.0109558105.0956726074-.022064209.1929626465-.0293731689.2915344238-.0998077393,1.0283203125-.1903533936,1.8918609619-.304107666,2.7577056885-.0409851074.2954559326-.0894927979.5871429443-.138168335.8796844482l-.0000915527.0005187988-.0191955566.1155090332c-.0110168457.0664978027-.0220184326.1330566406-.0328674316.1997680664l-.0696716309.4015808105c-.1114196777.7381744385-.2738952637,1.5901031494-.4642486572,2.4698791504-.0921630859.4531097412-.2001953125.9062194824-.3057250977,1.3488311768l-.0656890869.2760772705c-.1903381348.8078308105-.4015808105,1.6040344238-.6058502197,2.3491668701-.0631866455.2075958252-.1228637695.4152069092-.1825714111.6229400635-.0938568115.3265075684-.1878051758.6533660889-.2956237793.9810791016-.2182006836.7103271484-.4781799316,1.4554595947-.7938842773,2.3213195801l-.099822998.2878417969c-.0516662598.1396484375-.1022033691.2815246582-.1529846191.424118042l-.0001983643.0005645752c-.0951843262.2672576904-.1912231445.5368881226-.2971343994.7986373901-.3157043457.8240661621-.6755371094,1.6458129883-1.0121154785,2.3979187012-.0091400146.0213241577-.018081665.0425262451-.0268859863.0635986328l-.0296020508.0713653564c-.0471496582.1139984131-.0926513672.2240524292-.1477966309.3292999268-.0448913574.1020507812-.0886535645.2038116455-.1320495605.3047790527l-.0000762939.0001525879c-.0800018311.1860733032-.1588439941.3694458008-.2415924072.5469818115-.4201660156.8937072754-.8913879395,1.8222351074-1.4833221436,2.920211792-.0384674072.0673370361-.0702972412.1313476562-.1031341553.1973953247-.0146942139.0295791626-.0296020508.0595703125-.0454101562.0904464722-.0119781494.0234146118-.0252380371.0501556396-.0395355225.078994751-.0466461182.0940628052-.1043243408.210395813-.1647338867.3063354492-.3853302002.696395874-.7938995361,1.3927841187-1.2233428955,2.0891799927.3180236816-.3296279907.6197967529-.659248352.928527832-.9981613159l.1137390137-.1253433228c.1020050049-.1208877563.210144043-.227935791.314453125-.3311538696l.0000915527-.0001068115c.0238342285-.0235977173.0474853516-.0470046997.0708007812-.0703277588.0809326172-.087852478.1601104736-.1705245972.2390136719-.2528991699.0795288086-.0830307007.1587524414-.1657562256.2391662598-.2531585693,1.0422668457-1.1606521606,2.0613250732-2.3352355957,3.0455627441-3.5098114014,1.2256469727-1.4717102051,2.4698638916-3.0037689209,3.6514129639-4.5451202393.1756286621-.2320785522.3512878418-.468421936.5226287842-.69896698.0822906494-.1107177734.1635894775-.220123291.2434082031-.3270568848.0647125244-.085144043.1266021729-.1702880859.1877441406-.2543945312.1055603027-.1452026367.2088928223-.2873382568.3206176758-.4211120605l.4201660156-.5501403809c.5780029297-.7660217285,1.16065979-1.5459899902,1.7177734375-2.3213043213.2234649658-.3111419678.4393005371-.6273803711.654083252-.9421081543l.0000457764-.0000762939.0021972656-.0032348633c.074508667-.109161377.1488952637-.2181396484.2234344482-.3266601562.0738983154-.1071014404.1468048096-.2171630859.2198638916-.3274536133.0852966309-.1287536621.1708068848-.2578430176.2583312988-.3828735352l.4781799316-.6755065918c.4036102295-.5804443359.7997741699-1.1664733887,1.1918029785-1.7464294434l.1360015869-.2011413574.091217041-.141494751.0001678467-.0002441406c.2591094971-.40184021.5153808594-.7992706299.7605133057-1.2022857666.0811462402-.1228790283.1564941406-.2457580566.231842041-.3686218262l.000289917-.0004730225c.0754547119-.1230316162.150894165-.2460479736.232131958-.3690948486l.436416626-.6963806152c.3876495361-.6058654785.7799682617-1.2233428955,1.1397705078-1.8361816406.2739105225-.4642486572.5339050293-.9285125732.7938842773-1.3927764893l.0580291748-.105758667c.1097259521-.2001953125.2232971191-.4073944092.3435516357-.6045532227l.3574676514-.6337280273.1420898438-.2434997559.0003814697-.0006561279c.3133239746-.536605835.627532959-1.0747528076.9137420654-1.6128845215.2157592773-.3968353271.4219207764-.7984771729.626449585-1.1969451904l.000289917-.000579834.1253509521-.2440185547.6476593018-1.272064209c.0406799316-.0798797607.0814056396-.1595306396.1221160889-.2390441895l.0736083984-.1436157227c.2503814697-.4885253906.4988861084-.9734191895.7328033447-1.474395752.232131958-.4781799316.436416626-.928527832.647644043-1.4136657715.0413665771-.0925598145.0843811035-.1851196289.1276550293-.278213501l.0004577637-.0009765625c.0586090088-.1260528564.1176605225-.2530670166.1736450195-.3823852539l.2739257812-.5919342041c.2878417969-.6174621582.5640716553-1.2372589111.8379974365-1.8570404053.1633911133-.3713531494.3030090332-.7427062988.4426422119-1.1140594482l.052444458-.1393737793.052734375-.1393585205.259979248-.6615753174.1276855469-.3296203613c.0697937012-.1796875.1410064697-.3581695557.2120513916-.5362243652l.0000457764-.0001220703.0000457764-.0001068115.0000457764-.0001220703.0000457764-.0001068115.0000457764-.0001220703.0000457764-.0001068115.0000457764-.0001220703.0000457764-.0001068115.0000457764-.0001220703c.1509399414-.3782958984.3011016846-.7546691895.4351654053-1.1363983154-.1485595703-.2460632324-.3040924072-.4921264648-.464263916-.7381896973l-.0858917236-.1276702881c-.1708374023-.2640228271-.3351745605-.5296630859-.5038757324-.8023529053l-.0996551514-.1609802246-.696395874-1.0260314941-.2181854248-.3180084229c-.1620178223-.2449951172-.3290710449-.479888916-.5011749268-.7218933105l-.0907745361-.1277008057c-.2420959473-.3403167725-.4976806641-.6851196289-.7402038574-1.0123138428l-.0003662109-.0004882812-.0115203857-.0155334473-.1903686523-.2460632324c-.2182006836-.3017730713-.4364013672-.589630127-.6615600586-.8797912598l-.095413208-.1231536865-.0001373291-.0001983643-.0005340576-.0006713867-.0001525879-.000213623-.0005340576-.0006866455-.000793457-.0010223389-.0004425049-.0005493164c-.196105957-.253326416-.4016265869-.5187683105-.6123046875-.7671966553l-.3435516357-.4340820312c-.2182006836-.2762451172-.436416626-.5501556396-.6476593018-.8101348877-.0984649658-.1212005615-.2060241699-.2484588623-.3162994385-.3789367676l-.0002593994-.000289917-.0000610352-.0000915527-.0002288818-.0002746582-.0005493164-.0006408691-.0010070801-.0011749268-.0004425049-.0005187988-.0012054443-.0014343262c-.1250915527-.1480407715-.2536315918-.3001708984-.3763275146-.4523162842l-.4015808105-.4805145264-.0812072754-.0959014893c-.2025146484-.2392272949-.3980102539-.4701385498-.6151885986-.7119140625l-.7799530029-.8658447266-.3017883301-.3296356201-.7962188721-.8797607422c-.078338623-.0830383301-.1582489014-.1660766602-.2386932373-.2496643066-.157913208-.1640625-.3178253174-.3302001953-.4716186523-.5024414062l-.5617675781-.5780029297c-.116027832-.1230010986-.2320709229-.2425231934-.3480987549-.3620300293l-.0001831055-.0001983643-.0006866455-.0007171631c-.1157989502-.1192626953-.2316131592-.2385559082-.3474121094-.3613128662-.232131958-.2460479736-.5199737549-.5199737549-.7799530029-.7660369873l-.5501556396-.5339050293c-.1159820557-.1159667969-.2354278564-.2319335938-.354888916-.3479003906l-.0000457764-.0000457764-.0000457764-.0000457764-.0000457764-.0000457764-.0000457764-.0000457764-.0000457764-.0000610352-.0000457764-.0000457764-.0000457764-.0000457764-.0000457764-.0000457764-.0007781982-.0007629395c-.1192474365-.1157836914-.238494873-.2315673828-.3542785645-.3473358154-.2739105225-.2599945068-.5339202881-.5060424805-.8078308105-.7544250488l-.5640563965-.5199737549c-.1088256836-.096496582-.2149200439-.1957244873-.3206939697-.2946472168l-.0004425049-.0004119873c-.1332550049-.1246337891-.2660217285-.2488098145-.4031219482-.3665161133-.128036499-.115020752-.2591247559-.2300415039-.3918457031-.3464813232l-.0001983643-.0001831055-.0003204346-.000289917-.0003204346-.0002746582-.0004882812-.0004272461c-.1507568359-.1322784424-.3035888672-.2664031982-.4564361572-.4044494629l-.6337127686-.5478363037c-.0865936279-.0762023926-.1712493896-.1495056152-.255065918-.2220611572l-.0003204346-.0002746582c-.1407318115-.1218566895-.2790527344-.2416229248-.4201202393-.3695983887-.25730896-.2199554443-.516494751-.4287872314-.7741851807-.6364440918l-.0000762939-.0000457764-.0001373291-.0001220703-.0914459229-.0736999512-.696395874-.5617523193c-.090057373-.0738525391-.1780395508-.1445770264-.2651367188-.2145843506l-.0003356934-.0002593994c-.1372528076-.1103210449-.2723388672-.2189025879-.4100341797-.3353118896-.1831817627-.1477203369-.3663635254-.2888793945-.5495605469-.4300384521h0l-.0029602051-.0022888184-.0001220703-.0000762939c-.1036071777-.0798492432-.207244873-.1597137451-.3108825684-.2407684326l-.7242431641-.5501556396c-.2321166992-.1764221191-.4503326416-.3435516357-.6755065918-.5199737549-.2310180664-.1787414551-.4681396484-.3501434326-.7025146484-.51953125l-.0001373291-.0000915527-.0001678467-.0001220703-.0001831055-.0001220703-.0010375977-.0007629395c-.0877532959-.0634155273-.1751098633-.1265563965-.2615966797-.1896972656l-.7103271484-.5199584961c-.2182006836-.1624908447-.43409729-.3180236816-.6453399658-.464263916-.3598022461-.259979248-.7242431641-.5060424805-1.0979766846-.7544250488l-.6336975098-.4108734131c-.1007080078-.0629425049-.1997375488-.1309661865-.2984619141-.1987762451-.1015014648-.069732666-.2026977539-.139251709-.3050842285-.2028198242l-.0867004395-.056350708-.0001220703-.0000915527-.000213623-.0001373291c-.4328613281-.2814788818-.8497009277-.552520752-1.284866333-.8092651367l-.5501556396-.3435516357c-.0725708008-.0452423096-.1441955566-.0914154053-.2159423828-.1376953125l-.0001831055-.0001068115-.0001831055-.0001220703-.0003662109-.0002441406-.0003662109-.0002288818c-.086227417-.0556182861-.1726379395-.1113433838-.2611236572-.1656951904-.8078155518-.4921264648-1.6249237061-.9842376709-2.42578125-1.4276123047-1.0840606689-.6035461426-2.2238006592-1.1954650879-3.495880127-1.7711486816-.1754302979-.0859680176-.3588104248-.1586761475-.5441436768-.2321472168-.0598907471-.0237426758-.1199951172-.0475769043-.1800994873-.0719604492-.1046600342-.0358734131-.200668335-.0775299072-.298538208-.120010376l-.0000610352-.0000305176-.0000762939-.0000305176-.0000762939-.0000152588c-.0540008545-.0234527588-.108581543-.0471343994-.165512085-.0702362061-.2599945068-.0858917236-.5501556396-.1950073242-.8240814209-.3110656738ZM99.1436751723,18.5411517023c.0139312744,0,.0243835449.0034790039.0348205566.0069580078.0104522705.0034942627.020904541.0069732666.0348205566.0069732666l.0719604492.0139160156c1.4833068848.2739257812,2.9178771973.6035461426,4.2549438477.9633483887l.1903686523.0557250977c1.4415283203.3876495361,2.8273620605.8240509033,4.1272888184,1.2883148193l.1276550293.0557098389c1.392791748.4921112061,2.7159423828,1.0399475098,3.9671325684,1.6040344238l.0557098389.02784729c1.344039917.6035461426,2.6230621338,1.2720794678,3.8417510986,1.9475860596.6175537109.3503112793,1.2351226807.7174682617,1.8865509033,1.1047668457l.0003509521.000213623c.1858978271.1105041504.3745422363.2226715088.5667419434.3365478516.0837097168.0539855957.1690063477.1058654785.2541351318.1576538086l.0003204346.0001831055.0004119873.0002746582.0001678467.0000915527c.0939331055.057144165.1876525879.1141662598.2788391113.1737365723l.304107666.1903533936c.3546447754.2189483643.703125.4389190674,1.0543212891.6605987549l.0020141602.0012664795c.1768493652.1116333008.354385376.2237091064.5337524414.3362884521.232131958.1485595703.464263916.3017730713.696395874.464263916l.4201660156.2878570557c.3060302734.2018432617.6017913818.4048309326.8968658447.6073608398l.000213623.0001373291.0001983643.0001373291c.125579834.0861968994.2510375977.1723022461.3771209717.2581939697.2739105225.1903533936.5339050293.3737335205.807800293.5756835938l.3598022461.2623138428c.1938171387.1439208984.3923034668.284362793.5907745361.4248046875s.3969573975.2808837891.5907745361.4248046875c.1280822754.0926055908.2536468506.1877288818.3789978027.2826843262l.0000762939.0000457764c.1699981689.1287841797.3396148682.2572631836.5146331787.3788452148l.16015625.1276550293c.4224853516.3157043457.8380126953.6314086914,1.2604827881.9633483887.0921020508.0734405518.1848602295.1478729248.278213501.2227630615.2548522949.2044830322.5140228271.4124298096.775680542.6129150391.1157073975.0956420898.2319946289.1899414062.3482055664.2841644287l.0001525879.0001525879.0000457764.0000305176c.2870025635.2327270508.5734710693.4650268555.8493652344.7161254883.0977325439.0818939209.1962432861.1637878418.2947387695.2456970215l.0001373291.0001068115.0001220703.0000915527.0001068115.0001068115.0001220703.0000915527.0001068115.0000915527.0001220703.0000915527.0001373291.0001068115.0001068115.0001068115.0001373291.0001068115c.2473449707.2056427002.4946899414.4113006592.7301940918.6169433594.3876495361.3319396973.7799530029.675491333,1.1606445312,1.0283355713.1871643066.1713256836.3750610352.338180542.5641326904.5060577393l.0007324219.0006408691.0003356934.0003204346.001449585.0012817383c.1431121826.1270599365.286895752.2547302246.4315338135.3854064941.2604675293.2308349609.517791748.4721679688.771270752.7098846436l.0001220703.0001068115c.1237182617.116027832.2465362549.2312011719.368347168.3438873291.087600708.0837402344.1764678955.1676483154.2658843994.2520904541l.0000457764.0000610352.0003204346.0003051758.0003356934.0003051758.0001220703.0001068115.0001068115.0001068115.0001220703.0001068115.0001373291.0001373291.0001068115.0000915527c.2323608398.2194824219.4684906006.4425048828.6961669922.675201416.3737335205.3598022461.7381896973.7242431641,1.111907959,1.0979766846l.0557098389.0557098389c.0741882324.0741882324.1494598389.1483764648.2250213623.2228393555l.0000610352.0000457764.0000457764.0000610352.0000457764.0000457764.0003509521.0003509521c.2174072266.2142944336.4371643066.4308929443.6403198242.6564331055l.0266265869.0276641846.0000457764.0000457764.0001678467.0001678467.0004272461.0004272461.0010070801.0010375977.0000762939.0000762939.0001373291.0001373291.0004272461.0004577637c.3483276367.361907959.7050323486.7325439453,1.0551452637,1.1097564697l.1741027832.1880187988c.232131958.2460632324.464263916.4944458008.696395874.7544250488.2901611328.3157043457.5780029297.6313934326.8658447266.9633331299l.4781646729.5339202881c.0810699463.0938568115.1636047363.1862487793.2460327148.2785186768.0969696045.1085510254.1937866211.2169189453.2878875732.327331543.3040924072.3435668945.6058502197.7103271484.8936920166,1.0678100586l.4782104492.5780029297c.045791626.0543823242.090927124.106552124.1353302002.1578826904l.0000762939.0000762939c.099609375.1151733398.1955566406.2260742188.2870483398.3480834961.4165496826.506729126.8271331787,1.039276123,1.3199310303,1.6784667969l.12159729.1576843262.0417938232.0557098389.3458709717.4503326416c.5339050293.696395874,1.0121002197,1.3579711914,1.4554748535,1.9916992188.1137390137.16015625.2321166992.3296203613.3319244385.4921112061l.4340820312.6174621582c.1157226562.1591186523.2272338867.3266906738.333404541.4862518311l.0000457764.0000610352c.0301208496.0452575684.0598144531.0898895264.089050293.1334838867,3.3055419922-10.8405151367,3.2358856201-20.0746765137-.2182159424-26.040435791-2.3491668701-4.0576477051-6.2164611816-6.6110839844-11.4858398438-7.574432373-1.9603729248-.3613891602-3.8843994141-.6887512207-5.6819915771-.9946136475l-.0001831055-.0000305176c-.7310638428-.1243896484-1.4412078857-.2452087402-2.1243743896-.3633270264-13.5843048096-2.2934570312-25.3022613525-4.2851257324-36.5489959717-12.1265106201-12.8437957764-8.9625701904-24.9726409912-8.6166992188-37.0852203369,1.0538635254,2.0891723633.1485748291,4.1296081543.304107666,6.0354003906.5060577393l.3598022461.0441131592.2460479736.02784729c2.0473937988.2182006836,4.008895874.464263916,5.8589935303.7242431641l.5060424805.0696411133c1.9916992188.2878417969,3.8974914551.6197814941,5.657043457.9494171143l.3992462158.0858917236c1.9359741211.3714141846,3.769821167.7799530029,5.4597320557,1.1815338135l.2878417969.0696411133c1.8570251465.464263916,3.623550415.928527832,5.2832946777,1.4415435791l.16015625.0417785645c1.787399292.5501556396,3.4959106445,1.111907959,5.092956543,1.7038421631,1.5970611572.5919342041,3.2359008789,1.2372436523,4.7911987305,1.9336395264l.16015625.0696563721c1.4577636719.6337127686,2.9201965332,1.344039917,4.3617401123,2.0891723633l.0858917236.0417785645c.0293426514.0087127686.057434082.021194458.0835571289.0371398926Z"/>
      <path class="cls-2" d="M507.3103920521,103.7500687091c0,3.7333509177-2.9307785444,6.6641294621-6.7458578097,6.6641294621-3.7742150915,0-6.7850874166-2.9307785444-6.7850874166-6.6641294621,0-3.6532571371,3.0108723251-6.5840356815,6.7850874166-6.5840356815,3.8150792653,0,6.7458578097,2.9307785444,6.7458578097,6.5840356815ZM495.46631992,103.7500687091c0,2.9307785444,2.167435778,5.2600364506,5.1390784962,5.2600364506,2.8899143706,0,5.0181205418-2.3292579062,5.0181205418-5.2191722768,0-2.9324131114-2.1282061711-5.3009006244-5.0589847156-5.3009006244s-5.0982143224,2.368487513-5.0982143224,5.2600364506ZM499.5216805272,107.2022741111h-1.5266855329v-6.5840356815c.6031552052-.1209579544,1.4449571853-.2010517351,2.5303096412-.2010517351,1.2439054503,0,1.8061964816.2010517351,2.2883937324.4821972508.3612392963.2811455157.642384812.8025723733.642384812,1.4449571853,0,.7224785927-.5622910314,1.284769624-1.3648634047,1.5266855329v.0800937806c.6407502451.2402813419,1.0036241084.7224785927,1.2030412765,1.6051447466.2010517351,1.0036241084.3220096895,1.4057275785.4821972507,1.6460089204h-1.6460089204c-.2010517351-.2402813419-.3203751225-.8418019801-.5214268576-1.6051447466-.1209579544-.7224785927-.5230614245-1.0444882821-1.3648634047-1.0444882821h-.7224785927v2.6496330287ZM499.560910134,103.4689231934h.7224785927c.8434365471,0,1.5266855329-.2811455157,1.5266855329-.9627599346,0-.6031552052-.4429676439-1.0052586753-1.4057275785-1.0052586753-.4021034701,0-.6832489858.0408641738-.8434365471.0817283476v1.8862902623Z"/>
    </g>
  </g>
</svg>