<?xml version="1.0" encoding="utf-8"?>
<!-- Generator: Adobe Illustrator 26.0.2, SVG Export Plug-In . SVG Version: 6.00 Build 0)  -->
<svg version="1.1" id="Layer_1" xmlns="http://www.w3.org/2000/svg" xmlns:xlink="http://www.w3.org/1999/xlink" x="0px" y="0px"
	 viewBox="0 0 458.1 225.1" style="enable-background:new 0 0 458.1 225.1;" xml:space="preserve">
<style type="text/css">
	.st0{fill:#EFE814;}
	.st1{fill:#ECE70A;}
	.st2{fill:#EDE708;}
	.st3{fill:#DFC21C;}
	.st4{fill:#E6CB22;}
	.st5{fill:#CCA627;}
	.st6{fill:#DBBA08;}
	.st7{fill:#808184;}
</style>
<g>
	<g>
		<path class="st0" d="M100.5,66.1c2.5-2.9,4.9-5.3,7.1-7.4C70.1,57.5,81,84.6,68.8,112.1c-14.1,31.7,1.7,43.8,25.1,47.6
			c-3.2-3.8-5.9-8.2-7.9-13C70.7,127.6,76.9,92.8,100.5,66.1"/>
		<path class="st1" d="M190.7,99.9c-3.5,9.8-9.9,20.9-18.9,31.7c-7.1,8.5-14.9,15.1-23,19.9c-9.4,6.1-21,9.6-34,9.6
			c-7.3,0-14.4-0.4-21-1.5c3.9,4.6,8.6,8.3,14,11c33.9,16.4,36-14.1,71.9-29.5C199.9,132.5,200,115.5,190.7,99.9"/>
		<path class="st2" d="M148.8,68.2c5,0.9,9.7,2.6,14,5c11.4,6.4,21.8,16.3,28,26.7c6.1-17.2,3.3-30.7-10.1-33.2
			c-14.7-2.7-26.2-3.5-37.2-11.3c-13.6-9.5-25.5-6.4-35.8,3.2c0.7,0,1.5,0.1,2.2,0.1C124.1,59.6,137.8,62.4,148.8,68.2"/>
		<path class="st3" d="M100.5,66.1c-23.6,26.7-29.7,61.5-14.5,80.7c-6.8-16-6.3-36,3.3-51.9c12.8-21.2,38.5-30.5,59.6-26.6
			c-10.9-5.8-24.6-8.6-38.9-9.4c-0.8,0-1.5-0.1-2.2-0.1C105.3,60.7,103,63.2,100.5,66.1"/>
		<path class="st4" d="M162.7,73.1c-4.2-2.4-9-4-14-5c14.4,7.6,23.9,20.3,23.8,40.7c-0.1,17.6-9.2,33.2-23.8,42.7
			c8.1-4.8,15.9-11.5,23-19.9c9.1-10.9,15.5-21.9,18.9-31.7C184.5,89.4,174.1,79.6,162.7,73.1"/>
		<path class="st5" d="M148.8,68.2c-21.1-3.8-46.8,5.4-59.6,26.6c-9.6,15.9-10.1,35.9-3.3,51.9c2,4.7,4.7,9.1,7.9,13
			c6.5,1.1,13.7,1.5,21,1.5c13,0,24.6-3.6,34-9.6c14.6-9.5,23.7-25.1,23.8-42.7C172.7,88.5,163.1,75.8,148.8,68.2 M146.4,141.8
			c-16.2,10.4-37.9,5.8-48.4-10.4s-5.3-37,10.4-48.2c17.6-12.5,40.1-7.6,48.4,10.4C164.8,111.2,162.6,131.4,146.4,141.8"/>
	</g>
	<g>
		<path class="st6" d="M254.4,141.2v18.8c-1.5,0.8-3.6,1.5-6.2,2c-2.6,0.5-5.3,0.8-7.9,0.8c-4,0-7.5-0.8-10.4-2.5
			c-2.9-1.7-5.1-4.1-6.6-7.3c-1.5-3.2-2.3-7-2.3-11.4c0-4.4,0.8-8.1,2.3-11.3c1.5-3.2,3.7-5.6,6.6-7.2s6.2-2.5,10.1-2.5
			c5.8,0,10.5,1.8,14,5.4l-1.5,2.8c-2-1.8-4-3.1-5.9-3.9c-2-0.8-4.2-1.2-6.6-1.2c-4.9,0-8.6,1.5-11.3,4.6c-2.6,3.1-4,7.5-4,13.2
			c0,5.8,1.3,10.3,4,13.4c2.7,3.1,6.6,4.6,11.6,4.6c3.9,0,7.5-0.6,10.8-1.9v-13.5h-10.9v-3.1H254.4z"/>
		<path class="st6" d="M278.6,160.3c-2.8-1.7-4.9-4.1-6.4-7.3c-1.5-3.2-2.2-6.9-2.2-11.2c0-4.3,0.7-8.1,2.2-11.2
			c1.5-3.2,3.6-5.6,6.3-7.3c2.8-1.7,6-2.5,9.8-2.5c3.8,0,7.1,0.9,9.8,2.5c2.8,1.7,4.9,4.1,6.4,7.3c1.5,3.1,2.2,6.9,2.2,11.2
			c0,4.3-0.7,8.1-2.2,11.3c-1.5,3.2-3.6,5.6-6.4,7.3c-2.8,1.7-6,2.6-9.8,2.6C284.6,162.8,281.3,162,278.6,160.3z M299.1,155
			c2.6-3.1,3.9-7.6,3.9-13.3c0-5.7-1.3-10.1-3.8-13.2c-2.5-3.1-6.2-4.6-10.8-4.6c-4.6,0-8.2,1.6-10.8,4.7c-2.6,3.1-3.9,7.5-3.9,13.2
			s1.3,10.1,3.9,13.2c2.6,3.1,6.2,4.7,10.8,4.7C293,159.6,296.6,158.1,299.1,155z"/>
		<path class="st6" d="M322.8,162.4v-41.3h3.6v38.1h21.3v3.1H322.8z"/>
		<path class="st6" d="M360.9,121.1h13.3c6.6,0,11.6,1.8,15.2,5.3c3.6,3.6,5.3,8.6,5.3,15.2c0,6.6-1.8,11.7-5.4,15.3
			c-3.6,3.6-8.6,5.4-15.2,5.4h-13.3V121.1z M374,159.2c5.6,0,9.8-1.5,12.6-4.4c2.8-3,4.2-7.3,4.2-13.1c0-11.6-5.6-17.4-16.9-17.4
			h-9.5v35H374z"/>
	</g>
	<path class="st7" d="M224.9,67.7H242c4.3,0,7.7,1.1,10.1,3.2s3.6,5,3.6,8.6c0,3.6-1.2,6.5-3.7,8.6c-2.5,2.1-5.8,3.2-10.1,3.2h-11.2
		V109h-6V67.7z M241.3,86.5c2.9,0,5-0.6,6.5-1.8s2.2-2.9,2.2-5.2c0-2.2-0.7-4-2.2-5.2c-1.4-1.2-3.6-1.8-6.5-1.8h-10.5v14H241.3z"/>
	<path class="st7" d="M292,109l-4.4-10.2h-20.9l-4.4,10.2h-6.1l18.4-41.3h5l18.4,41.3H292z M268.8,94h16.8l-8.4-19.6L268.8,94z"/>
	<path class="st7" d="M327.2,87.9l15.7,21h-7.1l-12-16.6L311.7,109h-7.1l15.7-21.1l-15-20.2h7l11.5,15.8l11.4-15.8h7.1L327.2,87.9z"
		/>
</g>
</svg>
