<svg xmlns="http://www.w3.org/2000/svg" data-name="Layer 2" viewBox="0 0 507.31 144.482"><g data-name="Layer 1"><path d="M208.002 55.48v19.688a1.15 1.15 0 0 0 1.17 1.148H223.7a9.66 9.66 0 0 0 9.667-9.639v-2.48a9.865 9.865 0 0 0-9.865-9.865H209.15a1.15 1.15 0 0 0-1.148 1.149m-8.92 51.89V47.137a1.72 1.72 0 0 1 1.725-1.726h21.921a19.53 19.53 0 0 1 19.54 19.532v.528a19.77 19.77 0 0 1-19.772 19.772H209.15a1.15 1.15 0 0 0-1.148 1.149v20.976a1.726 1.726 0 0 1-1.727 1.726h-5.468a1.726 1.726 0 0 1-1.726-1.726m67.537-20.245 10.414-22.005a1.022 1.022 0 0 1 1.846 0l10.351 21.928a.965.965 0 0 1-.874 1.374H267.45a.902.902 0 0 1-.831-1.29zm33.99 21.963h6.237a1.592 1.592 0 0 0 1.444-2.269l-28.185-60.498a1.59 1.59 0 0 0-1.444-.916h-1.31a1.59 1.59 0 0 0-1.41.909l-28.587 60.498a1.6 1.6 0 0 0 1.445 2.276h6.461a1.61 1.61 0 0 0 1.445-.916l4.827-10.203a1.6 1.6 0 0 1 1.444-.909h29.996a1.58 1.58 0 0 1 1.409.916l4.805 10.196a1.61 1.61 0 0 0 1.424.916m51.255 0h7.448a.994.994 0 0 0 .902-1.409l-13.487-30.2a3.03 3.03 0 0 1 0-2.522l12.317-27.48a1.46 1.46 0 0 0-1.325-2.065h-6.341a1.47 1.47 0 0 0-1.353.909l-8.413 20.265a.747.747 0 0 1-1.41 0l-8.363-20.244a1.46 1.46 0 0 0-1.368-.93h-6.27a1.528 1.528 0 0 0-1.41 2.17l12.24 27.43a3 3 0 0 1 0 2.51l-13.579 30.2a.993.993 0 0 0 .895 1.409h7.462a1 1 0 0 0 .923-.62l9.478-22.675a.704.704 0 0 1 1.29 0l9.44 22.625a.99.99 0 0 0 .924.627m120.173 1.536c-3.848.031-7.62-1.08-10.837-3.192-3.185-2.113-6.144-5.594-8.78-10.414a1.46 1.46 0 0 1 .522-1.945l5.172-3.1a1.457 1.457 0 0 1 2.022.557c3.347 6.158 7.152 9.28 11.323 9.28a10.7 10.7 0 0 0 5.067-1.255 8.6 8.6 0 0 0 3.523-3.276 8.4 8.4 0 0 0 1.204-4.348 8.84 8.84 0 0 0-1.803-5.157c-1.804-2.558-5.2-5.736-10.098-9.428-5.235-3.953-8.455-6.765-9.759-8.61a16.64 16.64 0 0 1-3.523-10.147 15.56 15.56 0 0 1 2.114-7.962 15.04 15.04 0 0 1 5.905-5.687 16.9 16.9 0 0 1 8.195-2.057 17.46 17.46 0 0 1 8.758 2.318c2.699 1.536 5.433 4.228 8.364 8.23a1.45 1.45 0 0 1-.289 2.015l-4.932 3.763a1.45 1.45 0 0 1-2.037-.282c-2.163-2.868-3.995-4.756-5.432-5.637a8.6 8.6 0 0 0-4.524-1.24 6.89 6.89 0 0 0-5.01 1.832 5.85 5.85 0 0 0-1.888 4.446 7.96 7.96 0 0 0 .705 3.248 12.8 12.8 0 0 0 2.712 3.615c.5.48 2.255 1.917 7.688 5.933s9.11 7.54 11.182 10.752a18.16 18.16 0 0 1 3.17 9.914 16.99 16.99 0 0 1-5.46 12.536 18.38 18.38 0 0 1-13.254 5.298m-77.15-54.59a24.5 24.5 0 0 1 12.107-3.343v.028a24.4 24.4 0 0 1 12.267 3.297 23.87 23.87 0 0 1 8.963 8.83 24.47 24.47 0 0 1 3.178 12.365 25.04 25.04 0 0 1-3.185 12.514 23.25 23.25 0 0 1-8.85 8.843 24.66 24.66 0 0 1-12.373 3.242 24.105 24.105 0 0 1-24.169-24.31 25 25 0 0 1 3.206-12.556 24.5 24.5 0 0 1 8.855-8.91m-11.52 44.909c6.455 6.426 14.48 9.681 23.852 9.681a33.18 33.18 0 0 0 33.371-33.392c0-9.343-3.27-17.326-9.73-23.717-6.462-6.391-14.58-9.632-24.14-9.632a32.72 32.72 0 0 0-28.65 16.685 33.94 33.94 0 0 0-4.433 16.953 31.96 31.96 0 0 0 9.73 23.422M13.876 43.934l.176.042c-1.676 8.7-3.581 18.57-7.955 28.417C-.79 87.91-1.847 100.25 2.951 109.095c4.269 7.879 13.436 13.322 27.25 16.194l-.33-.478a5 5 0 0 0-.108-.161 4 4 0 0 1-.124-.185 76 76 0 0 1-1.678-2.513l-.026-.04a49 49 0 0 1-.724-1.182 60 60 0 0 1-1.483-2.658l-.219-.388a9 9 0 0 0-.194-.367 10 10 0 0 1-.165-.308 68 68 0 0 1-1.758-3.714 13 13 0 0 1-.492-.662 7 7 0 0 1-.145-.199l-.115-.158-.262-.346-.175-.24c-.133-.18-.265-.36-.387-.54q-.173-.259-.343-.53l-.177-.278-.45-.71-.167-.26-.002-.002-.001-.002a16.048 16.048 0 0 1-.828-1.399l-.423-.765-.024-.043c-.154-.272-.301-.533-.44-.807a29 29 0 0 1-.264-.538l-.172-.356-.36-.754a25 25 0 0 1-.42-.878 15 15 0 0 1-.303-.734l-.085-.215-.316-.796-.157-.392v-.002l-.189-.472c-.113-.29-.232-.645-.33-.963l-.148-.42q-.03-.086-.06-.173a3 3 0 0 0-.102-.278c-.098-.276-.19-.564-.274-.852l-.1-.351a55 55 0 0 1-.202-.719l-.218-.794-.07-.25-.001-.001a14 14 0 0 1-.175-.657l-.035-.15c-.075-.325-.15-.653-.211-.99l-.177-.835q-.049-.25-.107-.5v-.001q-.042-.186-.083-.379-.042-.233-.08-.47a22 22 0 0 0-.124-.711l-.147-.852c-.023-.165-.053-.33-.082-.497q-.034-.189-.066-.383c-.033-.234-.06-.477-.088-.718l-.06-.505-.098-.866-.031-.288c-.022-.192-.043-.384-.053-.576-.03-.292-.046-.588-.063-.888l-.023-.4-.055-.866a18 18 0 0 0-.027-.418q-.017-.225-.029-.46-.01-.336-.014-.671a28 28 0 0 0-.014-.672v-.423c0-.176 0-.343-.014-.506q0-.193-.007-.392-.006-.208-.007-.418c0-.478.014-.95.042-1.428l.028-.88c0-.273.014-.547.028-.807.027-.512.068-1.024.11-1.538l.001-.024.03-.358.002-.02a5 5 0 0 0 .026-.458c.014-.26.028-.506.056-.768.037-.447.095-.893.153-1.334l.023-.178.056-.45a5 5 0 0 1 .056-.464c.028-.26.055-.506.086-.766.044-.363.103-.718.163-1.075q.05-.298.097-.599l.055-.422q.02-.112.035-.224.014-.116.035-.227l.057-.369q.026-.184.057-.369c.082-.465.176-.935.27-1.402v-.001l.101-.505.042-.232q.034-.168.066-.342l.02-.108.055-.29.07-.37c.107-.483.224-.97.34-1.456v-.001l.138-.576.058-.204q.025-.126.055-.242.024-.093.043-.181.035-.167.08-.334.036-.137.068-.283c.19-.727.386-1.444.604-2.169l.042-.146q.07-.221.114-.45c.034-.145.077-.294.12-.44l.028-.096.017-.056c.213-.692.423-1.377.642-2.068l.072-.246.063-.192v-.001q.03-.098.063-.193c.058-.19.113-.36.176-.55.224-.686.484-1.378.737-2.054l.073-.195.042-.128.125-.388q.057-.172.124-.35l.067-.183c.301-.808.62-1.604.984-2.484.042-.112.1-.246.148-.358q.077-.24.19-.464c.282-.678.585-1.355.866-1.984l.26-.583c.043-.088.078-.17.114-.254l.033-.078c.049-.114.114-.26.176-.386.304-.676.636-1.353.956-2.004l.302-.619c.04-.067.07-.135.102-.204q.023-.05.047-.1l.037-.077c.042-.086.09-.185.14-.28.39-.786.808-1.57 1.182-2.27l.245-.46q.06-.138.149-.26.064-.142.146-.274c.55-1.014 1.112-1.992 1.548-2.744a2 2 0 0 1 .146-.246c.034-.065.074-.133.112-.198l.037-.062a91 91 0 0 1 1.715-2.827l.114-.177q.032-.052.063-.109.03-.056.063-.109l.13-.203c.5-.781 1.041-1.63 1.727-2.624l.246-.374a92 92 0 0 1 1.977-2.827q.029-.037.051-.075.029-.045.06-.088a1 1 0 0 0 .072-.105q.02-.034.043-.069c.64-.9 1.347-1.819 2.118-2.823l.075-.097.149-.204c.752-.964 1.548-1.962 2.384-2.976l.07-.098a145 145 0 0 1 2.583-3.017c.4-.445.783-.873 1.159-1.294l.296-.331.358-.402q.293-.323.584-.635.248-.264.486-.526l.344-.371a234 234 0 0 1 2.017-2.121v-.001l.334-.348c-25.838.397-28.516 14.26-32.215 33.41l-.002.01zm37.415 95.169a48.2 48.2 0 0 1-12.937-9.22c1.484.174 2.855.322 4.186.464l.357.028c1.31.111 2.723.218 4.3.302l.329.014q.121.009.245.013.126.005.247.014c1.52.077 3.076.149 4.663.19l.987.029c1.92.041 3.524.055 5.035.055 1.878 0 3.8-.076 5.706-.204 12.816-.877 24.928-4.817 35.028-11.358 10.03-5.966 19.274-13.977 27.454-23.789a142 142 0 0 0 3.638-4.517l.243-.329q.211-.288.432-.579l.075-.102c.13-.179.253-.345.39-.515l.333-.443c.645-.858 1.3-1.728 1.93-2.603q.205-.292.412-.592.206-.3.412-.592l.436-.631c.59-.838 1.258-1.808 1.892-2.758a59 59 0 0 0 .984-1.534l.26-.4.472-.75v-.001h.001v-.001c.404-.641.803-1.274 1.187-1.908q.538-.886 1.056-1.77l.112-.205c.415-.717.95-1.66 1.485-2.61.372-.66.725-1.33 1.068-1.99.359-.68.696-1.351 1.026-2.006l.29-.576c.33-.662.648-1.316.95-1.978.394-.836.773-1.688 1.16-2.581.288-.646.562-1.3.822-1.934q.082-.163.151-.33l.026-.058q.018-.042.031-.08a1 1 0 0 1 .038-.094c3.526 6.78 6.994 16.697 3.946 26.096-2.377 7.322-8.326 13.076-17.697 17.12-16.095 6.932-26.278 16.197-35.257 24.368l-.046.04-.005.006c-14.445 13.143-23.998 21.834-47.853 10.299m22.32-24.274a42.67 42.67 0 0 1-35.981-19.485c-12.584-19.441-7.126-44.73 12.688-58.817 10.827-7.71 23.82-10.305 35.62-7.148 10.623 2.842 19.035 9.961 23.615 20.005 12.303 26.904 2.412 48.845-12.86 58.658a42.5 42.5 0 0 1-23.083 6.787m-38.648 11.316.928.128.479.07h.006c.302.044.588.086.901.127l1 .126.78.1q.238.03.482.055t.482.056c.316.042.662.072.998.1l.88.083.984.084 1.07.086.964.07q.23.02.467.035h.001q.231.014.46.034c.402.03.81.058 1.21.072l1.028.056.822.042c.429.027.865.04 1.294.055h.022l1.054.044c.262.014.536.028.81.028l1.878.042.675.014q.184 0 .362.007.18.006.362.007c1.098.014 2.224.028 3.362.028 14.35 0 27.841-3.826 39.019-11.07 17.22-11.157 27.159-28.954 27.263-48.804 0-1.316-.027-2.623-.083-3.897l-.038-.454-.006-.08-.006-.064-.006-.068c-.009-.103-.016-.183-.016-.29a52 52 0 0 0-.232-2.828l-.034-.266-.05-.396q-.021-.128-.037-.26l-.032-.232-.045-.357a48 48 0 0 0-.301-2.124l-.05-.262v-.005q-.038-.203-.076-.395a6 6 0 0 1-.1-.506l-.07-.374-.021-.11a38 38 0 0 0-.4-1.867 7 7 0 0 0-.205-.725 8 8 0 0 0-.1-.342l-.02-.061-.015-.05-.011-.039-.114-.436q-.084-.291-.163-.592c-.102-.378-.204-.76-.329-1.123q-.127-.39-.274-.78l-.12-.338-.002-.004-.054-.15-.163-.45a37 37 0 0 0-.548-1.514 6 6 0 0 0-.23-.54v-.001q-.06-.127-.116-.253c-.036-.094-.08-.181-.122-.269q-.058-.116-.11-.237l-.216-.495-.142-.329v-.002h-.001v-.003c-.142-.33-.286-.664-.449-.98-.106-.227-.225-.436-.347-.65l-.032-.056-.043-.076-.123-.226q-.07-.124-.137-.252l-.246-.464q-.11-.2-.219-.41c-.147-.277-.297-.56-.457-.828l-.137-.223c-.115-.186-.229-.371-.355-.557l-.044-.067a5 5 0 0 1-.243-.397l-.274-.45a23 23 0 0 0-.74-1.14l-.103-.142c-.153-.212-.306-.425-.474-.638l-.33-.436-.303-.423q-.123-.163-.246-.333v-.001c-.18-.247-.365-.499-.562-.736h-.001v-.001a24 24 0 0 0-.66-.765q-.088-.11-.18-.211-.094-.102-.18-.211l-.344-.402c-.274-.33-.564-.66-.852-.984-.246-.26-.492-.506-.752-.752l-.388-.388-.385-.385a53 53 0 0 0-.894-.88q-.362-.322-.743-.645l-.109-.093a6 6 0 0 1-.208-.172q-.112-.099-.228-.188-.11-.086-.21-.179-.102-.094-.21-.179c-.318-.276-.634-.55-.966-.824-.265-.218-.5-.392-.742-.572h-.001l-.087-.065-.098-.073-.223-.16-.001-.001q-.125-.093-.255-.182l-.45-.332a21 21 0 0 0-1.012-.753c-.215-.15-.427-.289-.637-.428l-.403-.268q-.13-.075-.254-.158a3 3 0 0 0-.254-.158c-.132-.072-.25-.158-.37-.244q-.06-.045-.123-.088c-.343-.232-.675-.45-1.04-.661l-.285-.167c-.29-.17-.598-.35-.896-.509l-.492-.274c-.177-.097-.332-.19-.492-.287l-.123-.07v-.001h-.001a31 31 0 0 0-.877-.491q-.198-.036-.406-.065-.158-.022-.318-.049l-.534-.083q-.183-.031-.362-.057-.18-.026-.362-.057c-.213-.036-.47-.062-.714-.087l-.11-.01-.648-.07-.696-.086q-.204-.02-.404-.035t-.404-.035l-.662-.056a10 10 0 0 1-.362-.029q-.179-.017-.362-.029l-.808-.041-.726-.028a12 12 0 0 0-.71-.028c-.288-.014-.59-.014-.878-.014h-.662l-.246-.003c-.164-.003-.328-.006-.492.003-.246.014-.55.014-.824.014l-.696.014c-.248 0-.495.012-.754.026l-.04.002-.852.041-.666.089-.78.041q-.215.02-.426.035-.21.015-.426.035l-.676.056q-.22.023-.437.04a17 17 0 0 0-1.278.143l-.676.086a14 14 0 0 0-.766.098q-.345.048-.685.11l-.222.038-.676.112-.766.127q-.434.082-.866.174l-.738.149q-.254.045-.522.1l-.246.048c-.262.052-.576.126-.864.205l-.738.174-.27.062c-.163.037-.327.074-.484.114q-.217.054-.439.116c-.147.04-.295.082-.439.116l-.675.19a18 18 0 0 0-.416.112q-.194.056-.394.107a8 8 0 0 0-.418.123c-.14.044-.281.088-.418.123l-.754.232q-.195.054-.383.116-.19.062-.383.116c-.188.05-.397.127-.603.203l-.235.085-.697.246q-.227.073-.45.151-.183.065-.36.123c-.2.064-.416.15-.636.238l-.202.08-.724.274-.766.288-.815.353-.696.287q-.188.08-.38.157-.21.086-.417.173-.39.168-.78.36l-.71.33c-.24.099-.47.213-.698.325l-.098.048q-.14.069-.269.135c-.152.078-.298.152-.455.223l-.752.387q-.39.19-.78.402l-.71.385-.77.423c-.245.127-.491.274-.737.422l-.725.437-.696.422q-.174.107-.344.208-.209.124-.422.256c-.26.163-.478.302-.71.465l-.662.436q-.135.09-.271.177c-.17.11-.34.219-.509.343q-.329.22-.647.464l-.676.492q-.194.142-.383.274l-.383.274q-.294.221-.596.456l-.066.05-.62.495-.226.172c-.183.14-.365.277-.54.431q-.097.084-.198.166-.19.157-.38.326l-.645.55-.042.036c-.248.206-.493.41-.726.61l-.548.52-.606.562q-.186.174-.376.348t-.376.348l-.562.562-.592.592q-.115.116-.234.23-.241.234-.476.48-.164.166-.312.336l-.18.198-.14.153q-.083.087-.162.179l-.304.33-.02.02c-.226.24-.464.493-.676.746l-.048.055c-.157.185-.31.365-.458.55l-.576.697c-.218.246-.436.506-.634.766-.111.146-.211.27-.309.392-.075.094-.149.185-.225.283l-.536.71-.153.2v.001c-.14.184-.283.372-.423.552-.195.26-.379.528-.557.788l-.062.092-.232.345q-.065.095-.137.193-.074.098-.137.193c-.149.204-.288.401-.437.62a56 56 0 0 0-1.47 2.335c-10.522 17.451-11.95 40.27-3.734 59.558a71 71 0 0 0 1.857 3.98q.135.261.275.509l.113.202.1.177q.1.17.187.343l.112.232.296.542c.323.594.65 1.195 1.006 1.765.19.316.385.62.604.929q.084.132.172.26.089.129.173.26l.26.422c.36.562.739 1.14 1.126 1.688.173.247.362.485.548.721l.19.242q.097.132.194.254.098.123.194.255l.274.357q.572.595 1.082 1.244m15.792-115.51.072-.058.556.026h.003c.446.021.897.042 1.367.067a144 144 0 0 1 4.692.343l1.054.086c1.645.146 3.103.302 4.461.464l.548.07c1.265.162 2.553.346 3.911.548h.372l.592.086c1.427.232 2.813.478 4.1.724l.48.083.301.059c1.175.232 2.357.492 3.496.752l.302.07q.11.02.218.048.108.027.218.049c1.245.29 2.512.62 3.77.965.124.041.239.073.356.106q.096.025.194.055l.274.085c1.21.351 2.294.683 3.334 1.013l.19.055q.05.02.11.034c.042.01.086.022.122.038.922.302 1.843.639 2.828.998a64 64 0 0 0-3.798.014l-.26.014a74 74 0 0 0-4.011.246 2.4 2.4 0 0 0-.316.028q-.064.01-.13.014a86.948 86.948 0 0 0-3.767.492l-.302.042q-.131.023-.26.04-.108.015-.218.032c-1.147.19-2.357.422-3.715.724l-.218.042-.293.065q-.275.059-.545.125c-1.174.281-2.363.583-3.523.929-.26.068-.516.147-.773.226q-.168.053-.337.103a74 74 0 0 0-3.447 1.161 36 36 0 0 1-.662.26l-.33.128c-1.07.422-2.105.838-3.09 1.272l-.983.436c-.985.458-1.992.95-3.074 1.5l-.346.174c-.218.1-.413.204-.617.318a83 83 0 0 0-3.16 1.801q-.227.145-.462.283-.254.148-.5.307a64 64 0 0 0-3.06 2.02l-.606.436-.218.16a80 80 0 0 0-3.046 2.307l-.183.158-.105.088-.218.19-.073.063c-.905.767-1.829 1.55-2.712 2.35-.07.065-.149.134-.219.19a3 3 0 0 1-.246.232 58 58 0 0 0-2.813 2.786l-.163.176q-.068.075-.144.15c-.087.088-.175.178-.255.273a65 65 0 0 0-2.581 2.945l-.11.136c-.133.166-.26.323-.399.484a72 72 0 0 0-2.425 3.187 4 4 0 0 0-.177.26l-.16.218c-.894 1.3-1.676 2.468-2.335 3.58a67 67 0 0 0-1.774 3.173c-.127.232-.246.464-.36.71l-.16.302a81 81 0 0 0-1.111 2.308 35 35 0 0 0-.507 1.14 69 69 0 0 0-1.028 2.511l-.146.344q-.05.13-.101.252v.001q-.06.144-.117.297a66 66 0 0 0-1.161 3.43q-.033.126-.066.243-.032.108-.062.222-.022.086-.048.173t-.05.173c-.273.984-.52 1.878-.737 2.744l-.037.145c-.088.353-.178.711-.253 1.064a111 111 0 0 0-.52 2.481l-.042.247c-.063.297-.12.612-.177.928a48 48 0 0 0-.478 3.131l-.028.233-.041.287a79 79 0 0 0-.332 3.638l-.021.383-.021.383-.014.346c-.042.935-.07 1.799-.084 2.623-.014.422-.014.85-.014 1.272 0 .838.014 1.732.056 2.66l.014.386q.01.174.014.348t.014.348c.072 1.316.162 2.505.288 3.665.009.062.017.13.025.195a9 9 0 0 0 .06.439c.112 1.026.254 2.024.402 2.974a41 41 0 0 1-.536-1.99c-.022-.09-.045-.193-.067-.296l-.017-.077-.055-.274-.021-.095a38 38 0 0 1-.367-1.762 12 12 0 0 1-.054-.32q-.026-.172-.057-.342l-.045-.26a48 48 0 0 0-.104-.658 31 31 0 0 1-.233-1.638l-.048-.376c-.077-.56-.133-1.133-.187-1.701l-.003-.03-.028-.274a10 10 0 0 1-.051-.557l-.007-.091a57 57 0 0 1-.118-2.165q-.006-.069-.007-.156-.001-.08-.007-.169a58.663 58.663 0 0 1-.035-2.92q.017-.156.014-.314.017-.159.014-.318a79 79 0 0 1 .07-2.152l.041-.648.028-.316q.03-.37.058-.739.041-.559.09-1.118l.008-.096c.026-.316.052-.646.092-.958q.105-.93.232-1.857l.028-.248c.028-.26.056-.506.098-.766.08-.6.187-1.216.327-2.014l.019-.11.055-.316q.024-.226.07-.45c.17-.95.374-1.936.592-2.9q.024-.159.07-.315l.055-.232.018-.076c.197-.829.376-1.578.56-2.294l.073-.274c.04-.15.08-.297.115-.45l.072-.29c.177-.646.358-1.3.548-1.948.1-.358.218-.738.332-1.098.195-.632.4-1.272.618-1.906l.067-.205c.093-.282.19-.576.292-.863.246-.696.506-1.392.766-2.087v-.002l.135-.346q.04-.108.08-.209c.038-.097.075-.193.108-.297a93 93 0 0 1 1.184-2.948q.032-.065.057-.133.025-.064.054-.127l.084-.204c.36-.85.724-1.688 1.098-2.496.07-.164.155-.343.238-.517l.05-.102.176-.374q.169-.346.336-.694.298-.629.614-1.254l.071-.146c.154-.315.314-.64.476-.952q.177-.335.354-.676c.21-.401.42-.806.633-1.202l.097-.204q.122-.216.24-.439.117-.221.239-.438.56-1.013 1.14-2.006l.232-.402q.074-.131.15-.26.078-.127.151-.26a103 103 0 0 1 1.76-2.869l.083-.148a1 1 0 0 0 .1-.149c.534-.835 1.096-1.701 1.674-2.553.125-.19.253-.372.387-.564l.077-.11.19-.276c.437-.631.878-1.258 1.328-1.892l.019-.025c.24-.337.496-.694.75-1.028l.143-.195c.39-.53.785-1.066 1.198-1.593l.058-.07.464-.594.288-.369c.486-.64.992-1.26 1.498-1.878l.218-.276q.149-.172.289-.343.105-.13.217-.26a99 99 0 0 1 2.307-2.703q.65-.73 1.273-1.416l.803-.89.127-.147q.528-.553 1.017-1.081v-.001q.428-.462.84-.896.048-.056.097-.104.05-.047.094-.1c.406-.427.813-.84 1.21-1.244l.45-.458.218-.218c.52-.52 1.026-1.005 1.532-1.483m57.995 14.088.433.348.433.348c.548.45 1.112.929 1.771 1.514l.277.246c.186.158.352.313.524.473l.051.047c.577.525 1.135 1.092 1.697 1.663l.392.398q.032.04.072.077a1 1 0 0 1 .077.083l.176.177a49 49 0 0 1 2.208 2.525c.128.163.246.316.36.478q.066.094.149.194.049.06.097.122a47 47 0 0 1 1.413 1.894q.125.181.243.36.149.221.305.448l.149.204c.436.634.808 1.224 1.16 1.802q.329.537.646 1.095c.318.564.647 1.161 1.028 1.892l.125.249c.149.274.29.547.423.835a47 47 0 0 1 1.012 2.266q.063.163.149.316l.076.174q.073.164.142.332c.422 1.056.81 2.14 1.16 3.208.042.127.084.274.112.401.019.086.039.15.058.21l.028.092q.432 1.392.738 2.623c.059.233.109.454.16.681h.001l.03.13.083.387c.19.836.346 1.588.478 2.277.086.45.163.894.232 1.344.114.738.232 1.514.332 2.294l.014.148c.037.263.067.53.098.797l.048.413c.072.724.149 1.532.205 2.54l.027.398q.012.208.03.409c.01.133.022.266.028.401.056 1.372.084 2.644.084 3.854 0 1.33-.056 2.702-.176 4.178-.01.178-.03.355-.05.535v.001q-.018.15-.034.302-.01.126-.026.257a7 7 0 0 0-.03.291c-.1 1.028-.19 1.892-.304 2.758-.04.295-.09.587-.138.88l-.02.115-.032.2-.07.402c-.111.738-.274 1.59-.464 2.47-.092.453-.2.906-.306 1.349l-.065.276c-.19.807-.402 1.604-.606 2.349q-.094.31-.183.623c-.094.326-.188.653-.295.98-.219.711-.479 1.456-.794 2.322l-.1.288q-.077.21-.153.424c-.096.268-.192.538-.297.8a48 48 0 0 1-1.04 2.46l-.03.072c-.046.114-.092.224-.147.33l-.132.304q-.119.28-.242.547c-.42.894-.891 1.823-1.483 2.92q-.055.1-.103.198l-.085.17c-.047.093-.104.21-.165.306a51 51 0 0 1-1.223 2.089c.318-.33.62-.66.928-.998l.114-.126c.102-.12.21-.227.315-.33l.07-.071q.12-.13.24-.253.119-.123.239-.253a136 136 0 0 0 3.045-3.51A145 145 0 0 0 128.093 89c.175-.232.351-.469.522-.7l.244-.326q.096-.127.187-.255c.106-.145.21-.287.321-.42l.42-.55c.578-.767 1.16-1.547 1.718-2.322q.334-.468.654-.942l.002-.004.224-.326q.11-.161.22-.328.127-.193.258-.383l.478-.675c.404-.58.8-1.166 1.192-1.746l.136-.202.091-.141c.26-.402.516-.8.76-1.203.082-.122.157-.245.233-.368q.11-.186.232-.37l.437-.696c.387-.606.78-1.224 1.14-1.836.273-.465.533-.929.793-1.393l.058-.106c.11-.2.224-.407.344-.604l.357-.634.142-.244a47 47 0 0 0 1.54-2.81h.001l.126-.245.647-1.272.122-.239.074-.143c.25-.489.499-.974.733-1.475a37 37 0 0 0 .647-1.414l.128-.278q.09-.19.174-.383l.274-.592c.288-.618.564-1.237.838-1.857.163-.371.303-.743.443-1.114l.052-.14.053-.139.26-.661.128-.33q.104-.27.212-.536v-.001c.151-.379.301-.755.435-1.137a26 26 0 0 0-.464-.738l-.086-.128c-.17-.264-.335-.53-.504-.802l-.1-.16-.696-1.027-.218-.318c-.162-.245-.33-.48-.501-.722l-.091-.128c-.242-.34-.498-.685-.74-1.012l-.012-.016-.19-.246a32 32 0 0 0-.662-.88l-.095-.123h-.001v-.001l-.002-.002a22 22 0 0 0-.612-.767l-.344-.435c-.218-.276-.436-.55-.648-.81q-.149-.181-.316-.379h-.001l-.001-.002-.002-.002q-.19-.223-.376-.452l-.402-.48-.08-.097c-.203-.239-.399-.47-.616-.712l-.78-.866-.302-.33-.796-.879-.239-.25c-.157-.164-.317-.33-.471-.502l-.562-.578q-.174-.184-.348-.362v-.001l-.348-.361c-.232-.246-.52-.52-.78-.766l-.55-.534-.355-.348-.001-.001-.355-.348c-.274-.26-.534-.506-.808-.754l-.564-.52q-.162-.146-.32-.295a44.704 44.704 0 0 0-.795-.713h-.001l-.001-.001q-.226-.199-.457-.405l-.633-.548-.255-.222c-.141-.122-.28-.241-.42-.37-.258-.22-.517-.428-.775-.636l-.092-.074-.696-.562-.265-.214q-.206-.163-.41-.336a31 31 0 0 0-.55-.43l-.003-.002-.311-.24-.724-.551c-.232-.176-.45-.344-.676-.52-.23-.179-.468-.35-.702-.52h-.002l-.261-.19-.71-.52a23 23 0 0 0-.646-.465 34 34 0 0 0-1.098-.754l-.634-.41q-.15-.097-.298-.2a8 8 0 0 0-.305-.202l-.087-.057c-.433-.281-.85-.553-1.285-.81l-.55-.343-.216-.138h-.001l-.262-.166a69 69 0 0 0-2.425-1.428 47 47 0 0 0-3.496-1.77 8 8 0 0 0-.544-.233l-.18-.072a4 4 0 0 1-.299-.12l-.166-.07c-.26-.086-.55-.195-.824-.311m-9.605-6.182q.02.001.034.007.015.007.035.007l.072.014c1.484.274 2.918.604 4.255.963l.19.056c1.442.388 2.828.824 4.128 1.288l.128.056a51 51 0 0 1 3.967 1.604l.055.028a51 51 0 0 1 3.842 1.948c.618.35 1.235.717 1.887 1.104l.567.337q.126.08.254.158.142.085.28.174l.304.19q.53.33 1.054.661l.002.001.534.337q.348.22.696.464l.42.288c.306.202.602.404.897.607l.378.258c.274.19.534.374.808.576l.36.262q.291.215.59.425c.3.21.397.281.591.425q.192.14.379.283.254.195.515.379l.16.127c.422.316.838.632 1.26.964l.279.222c.254.205.514.413.775.613l.348.285c.288.232.574.465.85.716l.295.246c.248.206.495.412.731.617.388.332.78.676 1.16 1.029q.282.255.565.506l.002.002.432.385c.26.231.518.473.771.71q.186.175.369.344l.265.252.001.001c.233.22.47.443.697.676.374.36.738.724 1.112 1.098l.056.055q.111.112.225.223c.217.215.437.432.64.657l.027.028.002.002c.349.362.705.733 1.055 1.11l.175.188c.232.246.464.494.696.754.29.316.578.632.866.964l.478.534q.122.14.246.278.146.163.288.328c.304.343.606.71.894 1.067l.478.578q.068.082.135.158c.1.116.196.226.287.348.417.507.827 1.04 1.32 1.679l.122.158.042.055.345.45a56 56 0 0 1 1.456 1.992c.114.16.232.33.332.492l.434.618c.116.159.227.327.333.486l.09.134c3.305-10.84 3.235-20.075-.219-26.04-2.349-4.058-6.216-6.612-11.486-7.575-1.96-.362-3.884-.689-5.682-.995-.73-.124-1.441-.245-2.124-.363-13.585-2.294-25.302-4.285-36.55-12.127-12.843-8.962-24.972-8.616-37.084 1.054 2.089.149 4.13.304 6.035.506l.36.044.246.028c2.047.218 4.009.464 5.859.724l.506.07c1.992.288 3.897.62 5.657.95l.4.085c1.935.372 3.769.78 5.459 1.182l.288.07c1.857.464 3.623.928 5.283 1.441l.16.042a96 96 0 0 1 5.093 1.704 79 79 0 0 1 4.791 1.933l.16.07a73 73 0 0 1 4.362 2.09l.086.041q.045.013.084.037" style="fill-rule:evenodd;fill:#fff"/><path d="M507.31 103.75c0 3.733-2.93 6.664-6.745 6.664-3.775 0-6.786-2.93-6.786-6.664 0-3.653 3.011-6.584 6.786-6.584 3.815 0 6.745 2.93 6.745 6.584m-11.844 0c0 2.93 2.168 5.26 5.14 5.26 2.89 0 5.018-2.33 5.018-5.22 0-2.931-2.129-5.3-5.06-5.3s-5.098 2.369-5.098 5.26m4.056 3.452h-1.527v-6.584c.603-.12 1.445-.2 2.53-.2 1.244 0 1.807.2 2.289.481.36.282.642.803.642 1.445 0 .723-.562 1.285-1.365 1.527v.08c.641.24 1.004.723 1.203 1.605.201 1.004.322 1.406.482 1.646h-1.646c-.2-.24-.32-.842-.521-1.605-.12-.722-.523-1.044-1.365-1.044h-.722zm.039-3.733h.722c.844 0 1.527-.281 1.527-.963 0-.603-.443-1.005-1.406-1.005-.402 0-.683.04-.843.082z" style="fill:#fff"/></g></svg>