<svg xmlns="http://www.w3.org/2000/svg" data-name="Layer 2" viewBox="0 0 510.31 144.505"><g data-name="Layer 1"><path d="M42.613 18.826c2.931-3.311 5.602-6.144 8.16-8.511C7.629 8.905 20.185 40.105 6.128 71.8c-16.206 36.5 1.91 50.408 28.89 54.742a58.3 58.3 0 0 1-9.111-14.903C8.41 89.634 15.443 49.541 42.613 18.826" style="fill:#b3d234"/><path d="M146.432 57.616c-4.017 11.309-11.38 23.957-21.794 36.47a104.3 104.3 0 0 1-26.466 22.943c-10.766 6.976-24.126 11.091-39.064 11.091a154 154 0 0 1-24.105-1.67 49.45 49.45 0 0 0 16.143 12.641c39.008 18.856 41.467-16.206 82.736-33.956 23.175-9.984 23.26-29.502 12.55-47.52" style="fill:#0094d8"/><path d="M98.165 21.243a51.2 51.2 0 0 1 16.094 5.708c13.099 7.405 25.035 18.75 32.173 30.756 7.046-19.792 3.755-35.35-11.627-38.162-16.91-3.093-30.1-4.087-42.791-12.944C76.378-4.32 62.666-.719 50.779 10.315c.839 0 1.692.063 2.58.112 16.495.98 32.236 4.186 44.806 10.816" style="fill:#ede80a"/><path d="M42.613 18.826C15.436 49.541 8.403 89.634 25.885 111.64c-7.85-18.419-7.307-41.397 3.756-59.745 14.734-24.43 44.271-35.069 68.517-30.65-12.563-6.631-28.311-9.866-44.806-10.817-.888-.05-1.74-.084-2.58-.113-2.522 2.368-5.22 5.2-8.159 8.512" style="fill:#4eaf46"/><path d="M114.259 26.95a51.2 51.2 0 0 0-16.094-5.707c16.538 8.737 27.55 23.408 27.424 46.773-.113 20.279-10.569 38.197-27.416 49.105 10.052-6.1 19-13.858 26.465-22.943 10.414-12.485 17.777-25.162 21.794-36.47-7.138-12.036-19.074-23.352-32.173-30.757" style="fill:#00845e"/><path d="M95.46 106.01a40.32 40.32 0 0 1-55.623-11.98C27.788 75.43 33.749 51.473 51.816 38.613c20.222-14.381 46.166-8.709 55.63 11.979 9.216 20.145 6.672 43.419-11.986 55.418m2.705-84.767c-24.246-4.418-53.783 6.222-68.517 30.651-11.062 18.32-11.605 41.326-3.755 59.745a58.3 58.3 0 0 0 9.11 14.903 154 154 0 0 0 24.105 1.67c14.938 0 28.298-4.115 39.065-11.09 16.833-10.908 27.303-28.827 27.416-49.106.127-23.365-10.886-38.035-27.424-46.773" style="fill:#005222"/><path d="M208.002 55.48v19.688a1.15 1.15 0 0 0 1.17 1.148H223.7a9.66 9.66 0 0 0 9.667-9.639v-2.48a9.865 9.865 0 0 0-9.865-9.865H209.15a1.15 1.15 0 0 0-1.148 1.149m-8.92 51.889V47.138a1.72 1.72 0 0 1 1.725-1.726h21.921a19.53 19.53 0 0 1 19.54 19.532v.528a19.77 19.77 0 0 1-19.772 19.772H209.15a1.15 1.15 0 0 0-1.148 1.148v20.977a1.726 1.726 0 0 1-1.727 1.726h-5.468a1.726 1.726 0 0 1-1.726-1.726m67.537-20.244 10.414-22.005a1.022 1.022 0 0 1 1.846 0l10.351 21.928a.965.965 0 0 1-.874 1.374H267.45a.9.9 0 0 1-.83-1.29zm33.99 21.963h6.237a1.592 1.592 0 0 0 1.444-2.269l-28.185-60.498a1.59 1.59 0 0 0-1.444-.916h-1.31a1.59 1.59 0 0 0-1.41.909l-28.587 60.498a1.6 1.6 0 0 0 1.445 2.276h6.461a1.61 1.61 0 0 0 1.445-.916l4.827-10.203a1.6 1.6 0 0 1 1.444-.909h29.996a1.58 1.58 0 0 1 1.409.916l4.805 10.196a1.61 1.61 0 0 0 1.424.916m51.255 0h7.448a.993.993 0 0 0 .902-1.409l-13.487-30.2a3.03 3.03 0 0 1 0-2.523l12.317-27.48a1.46 1.46 0 0 0-1.325-2.064h-6.341a1.47 1.47 0 0 0-1.353.909l-8.413 20.265a.747.747 0 0 1-1.41 0l-8.363-20.244a1.46 1.46 0 0 0-1.368-.93h-6.27a1.53 1.53 0 0 0-1.41 2.17l12.24 27.43a3 3 0 0 1 0 2.51l-13.579 30.2a.993.993 0 0 0 .895 1.409h7.462a1 1 0 0 0 .923-.62l9.478-22.675a.704.704 0 0 1 1.289 0l9.442 22.625a.99.99 0 0 0 .923.627m55.13-56.398a24.48 24.48 0 0 0-20.963 12.254 25 25 0 0 0-3.206 12.556 24.105 24.105 0 0 0 24.169 24.31 24.66 24.66 0 0 0 12.373-3.242 23.25 23.25 0 0 0 8.85-8.843 25.04 25.04 0 0 0 3.185-12.514 24.47 24.47 0 0 0-3.178-12.366 23.87 23.87 0 0 0-8.963-8.829 24.4 24.4 0 0 0-12.267-3.297zm.225 57.934c-9.371 0-17.397-3.255-23.851-9.681a31.96 31.96 0 0 1-9.731-23.422 33.94 33.94 0 0 1 4.432-16.953 32.72 32.72 0 0 1 28.65-16.685c9.562 0 17.679 3.241 24.14 9.632s9.731 14.374 9.731 23.717a33.18 33.18 0 0 1-33.37 33.392m64.818 0c-3.848.03-7.62-1.08-10.837-3.192-3.185-2.113-6.144-5.594-8.78-10.414a1.46 1.46 0 0 1 .522-1.945l5.172-3.1a1.46 1.46 0 0 1 2.022.557c3.347 6.158 7.152 9.28 11.323 9.28a10.7 10.7 0 0 0 5.067-1.255 8.6 8.6 0 0 0 3.523-3.276 8.4 8.4 0 0 0 1.204-4.348 8.84 8.84 0 0 0-1.803-5.158c-1.804-2.557-5.2-5.735-10.098-9.427-5.235-3.953-8.455-6.765-9.759-8.61a16.64 16.64 0 0 1-3.523-10.147 15.57 15.57 0 0 1 2.114-7.963 15.04 15.04 0 0 1 5.905-5.686 16.9 16.9 0 0 1 8.195-2.057 17.46 17.46 0 0 1 8.758 2.318c2.699 1.536 5.433 4.228 8.364 8.23a1.45 1.45 0 0 1-.289 2.015l-4.932 3.763a1.45 1.45 0 0 1-2.037-.282c-2.163-2.868-3.995-4.756-5.432-5.637a8.6 8.6 0 0 0-4.524-1.24 6.89 6.89 0 0 0-5.01 1.832 5.86 5.86 0 0 0-1.888 4.446 7.95 7.95 0 0 0 .705 3.248 12.8 12.8 0 0 0 2.712 3.615c.5.48 2.255 1.917 7.688 5.933s9.11 7.54 11.182 10.752a18.16 18.16 0 0 1 3.17 9.914 16.99 16.99 0 0 1-5.46 12.536 18.38 18.38 0 0 1-13.254 5.298" style="fill-rule:evenodd;fill:#777776"/><path d="M510.31 103.75c0 3.733-2.93 6.664-6.745 6.664-3.775 0-6.786-2.93-6.786-6.664 0-3.653 3.011-6.584 6.786-6.584 3.815 0 6.745 2.93 6.745 6.584m-11.844 0c0 2.93 2.168 5.26 5.14 5.26 2.89 0 5.018-2.33 5.018-5.22 0-2.931-2.129-5.3-5.06-5.3s-5.098 2.369-5.098 5.26m4.056 3.452h-1.527v-6.584c.603-.12 1.445-.2 2.53-.2 1.244 0 1.807.2 2.289.481.36.282.642.803.642 1.445 0 .723-.562 1.285-1.365 1.527v.08c.641.24 1.004.723 1.203 1.605.201 1.004.322 1.406.482 1.646h-1.646c-.2-.24-.32-.842-.521-1.605-.12-.722-.523-1.044-1.365-1.044h-.722zm.039-3.733h.722c.844 0 1.527-.281 1.527-.963 0-.603-.443-1.005-1.406-1.005-.402 0-.683.04-.843.082z" style="fill:#777776"/></g></svg>