<svg xmlns="http://www.w3.org/2000/svg" width="162" height="44" fill="none"><path fill="#F3F5F0" fill-rule="evenodd" d="m4.746 13.33.058.011c-.538 2.642-1.147 5.64-2.55 8.631-2.207 4.713-2.544 8.46-1.01 11.145 1.369 2.394 4.306 4.046 8.73 4.917l-.105-.146a.473.473 0 0 0-.036-.048c-.012-.019-.028-.037-.038-.058-.195-.264-.365-.513-.538-.762l-.01-.012a17.628 17.628 0 0 1-.705-1.166l-.07-.119c-.02-.04-.042-.076-.06-.112-.02-.03-.036-.064-.055-.094a20.276 20.276 0 0 1-.564-1.127c-.058-.067-.106-.134-.157-.2l-.048-.061a.462.462 0 0 1-.035-.049l-.084-.106-.057-.073-.125-.164c-.039-.052-.074-.106-.11-.161l-.057-.085-.144-.216-.055-.079c-.038-.057-.08-.115-.115-.176a5.349 5.349 0 0 1-.147-.249l-.135-.234-.006-.012c-.048-.082-.096-.16-.141-.246a2.65 2.65 0 0 1-.083-.164c-.02-.036-.036-.073-.055-.11l-.115-.227a5.223 5.223 0 0 1-.135-.267c-.032-.067-.064-.146-.096-.222a.415.415 0 0 1-.026-.067l-.102-.242c-.016-.04-.032-.08-.051-.119l-.061-.143a6.304 6.304 0 0 1-.106-.291l-.048-.128-.02-.051c-.009-.028-.018-.058-.031-.085a3.498 3.498 0 0 1-.087-.259l-.032-.106a5.685 5.685 0 0 1-.064-.218l-.07-.24-.023-.076-.057-.2-.01-.046a4.181 4.181 0 0 1-.067-.301l-.058-.255c-.01-.052-.022-.1-.035-.152-.01-.04-.02-.076-.026-.115-.01-.049-.016-.095-.025-.143l-.039-.216-.048-.258a2.978 2.978 0 0 0-.048-.267l-.029-.219-.019-.155-.032-.264c0-.03-.006-.057-.01-.088-.006-.058-.012-.115-.016-.176a3.706 3.706 0 0 1-.019-.27c0-.04-.003-.082-.006-.122l-.02-.264c0-.043-.006-.085-.01-.128a29.338 29.338 0 0 1-.009-.14c0-.07-.003-.136-.003-.203s0-.136-.003-.203v-.128c0-.054 0-.103-.003-.155v-.246c0-.145.003-.288.012-.434l.01-.267c0-.082.003-.167.01-.246.01-.155.022-.31.035-.468v-.006l.01-.11v-.005c.006-.049.01-.091.01-.14.002-.079.009-.155.018-.234.013-.137.032-.27.048-.404l.007-.054.019-.137a.963.963 0 0 1 .02-.14l.028-.234c.013-.109.032-.218.051-.325.01-.06.023-.121.032-.182l.02-.127.01-.067a.534.534 0 0 1 .012-.07l.02-.112.018-.113c.026-.142.058-.282.087-.425l.032-.155.013-.07a1.26 1.26 0 0 1 .022-.103l.007-.033a.724.724 0 0 0 .016-.088c.006-.04.016-.076.022-.113.035-.145.07-.294.109-.443.016-.058.029-.119.045-.176l.02-.06c.005-.025.012-.05.015-.074a.335.335 0 0 0 .013-.054c.006-.034.016-.067.026-.1.006-.028.016-.058.022-.086.06-.221.125-.437.192-.659l.013-.045a.984.984 0 0 0 .035-.137c.01-.042.026-.088.039-.133l.01-.03.006-.02c.067-.209.134-.418.205-.628l.022-.076.02-.057a.565.565 0 0 1 .019-.058c.019-.058.035-.11.057-.167.07-.21.154-.42.237-.623l.023-.06.013-.04.041-.118.039-.107c.006-.018.016-.036.022-.054a23.144 23.144 0 0 1 .362-.863.778.778 0 0 1 .061-.14c.09-.206.186-.412.279-.6l.083-.177c.013-.027.026-.052.035-.076l.01-.024c.016-.034.035-.08.057-.119.097-.206.205-.41.308-.607l.096-.188c.013-.021.023-.043.032-.06 0 0 .01-.022.016-.031l.013-.025c.013-.027.029-.057.045-.085.125-.24.26-.476.378-.689.025-.049.054-.094.08-.14a.406.406 0 0 1 .048-.079.429.429 0 0 1 .048-.082 30.642 30.642 0 0 1 .58-.968l.013-.019c.153-.249.33-.525.55-.86l.036-.054.02-.033.018-.034.042-.06c.16-.237.333-.495.554-.796l.08-.112c.186-.265.394-.544.635-.86l.016-.024.019-.027a.125.125 0 0 0 .022-.034l.013-.021c.205-.273.433-.553.68-.856l.022-.03.048-.062c.24-.291.496-.595.762-.905l.023-.03a52.9 52.9 0 0 1 .826-.917l.372-.392.096-.1.115-.121c.061-.067.125-.131.186-.192.051-.054.106-.106.157-.16l.109-.113c.221-.225.439-.44.647-.644l.106-.106c-8.278.121-9.137 4.33-10.322 10.146h-.026l-.016.015Zm11.985 28.904a15.52 15.52 0 0 1-4.146-2.8c.474.052.917.097 1.343.14l.115.009c.42.033.871.067 1.378.091h.105c.026.006.052.006.08.01.026 0 .055 0 .08.002.487.025.987.046 1.493.058l.317.009c.616.012 1.128.018 1.612.018.602 0 1.217-.024 1.829-.06 4.107-.268 7.986-1.464 11.222-3.45 3.213-1.813 6.173-4.246 8.794-7.225a40.03 40.03 0 0 0 1.166-1.373l.077-.1c.045-.058.09-.118.138-.176l.022-.03c.042-.055.08-.107.125-.159l.106-.133c.208-.261.416-.526.618-.79.045-.057.087-.118.131-.179l.132-.179.14-.191c.19-.255.404-.55.606-.838.109-.155.215-.313.314-.465l.083-.122c.052-.076.1-.151.15-.227l.382-.58c.115-.18.228-.359.34-.538l.035-.06c.135-.22.304-.505.477-.793.119-.2.23-.404.343-.605.115-.206.224-.41.33-.61.032-.058.06-.119.093-.176.106-.2.208-.401.304-.602a39.28 39.28 0 0 0 .635-1.37c.019-.033.032-.066.048-.1l.01-.018.009-.024a.084.084 0 0 1 .013-.027c1.13 2.059 2.239 5.071 1.265 7.926-.762 2.223-2.669 3.972-5.67 5.2-5.155 2.104-8.42 4.919-11.296 7.4l-.016.012c-4.626 3.994-7.689 6.633-15.329 3.128l-.003-.003Zm7.15-7.37a14.245 14.245 0 0 1-6.56-1.564 13.393 13.393 0 0 1-4.966-4.355C8.325 23.04 10.07 15.36 16.42 11.082c3.47-2.342 7.63-3.128 11.411-2.172 3.402.863 6.097 3.025 7.564 6.077 3.94 8.17.772 14.832-4.12 17.815a14.16 14.16 0 0 1-7.394 2.062ZM11.5 38.3l.298.04.154.021c.096.012.189.027.288.04l.32.039.25.03.154.019c.052.006.103.009.154.018.103.012.212.021.32.03l.282.025.314.024.343.027.308.021c.048.003.099.007.15.013l.148.009c.128.009.26.018.387.02l.33.02.263.011c.138.01.275.012.413.019h.007l.336.012c.083.003.173.009.26.009l.602.012h.218c.038.003.076.006.115.006h.115c.353.003.711.01 1.077.01 4.597 0 8.918-1.164 12.5-3.363 5.516-3.389 8.7-8.791 8.733-14.82 0-.4-.01-.795-.026-1.184-.003-.046-.01-.091-.013-.137v-.042l-.006-.021c0-.03-.007-.055-.007-.088-.019-.283-.041-.58-.073-.86l-.01-.082-.016-.121a.675.675 0 0 1-.013-.08c0-.02-.006-.045-.01-.07l-.012-.109c-.026-.215-.06-.434-.096-.643l-.016-.08c-.01-.042-.016-.081-.026-.12a2.679 2.679 0 0 1-.032-.156l-.022-.112-.007-.034c-.038-.185-.08-.382-.128-.567-.019-.073-.038-.15-.064-.219-.01-.033-.02-.07-.032-.103l-.006-.019-.007-.015v-.012l-.041-.133c-.02-.058-.036-.119-.052-.18a3.866 3.866 0 0 0-.105-.34c-.026-.079-.058-.158-.087-.237l-.038-.103-.016-.046-.052-.136a8.799 8.799 0 0 0-.176-.459c-.022-.057-.048-.109-.073-.164l-.039-.076-.038-.082c-.013-.024-.026-.048-.035-.072l-.071-.15c-.016-.033-.029-.066-.045-.1-.045-.1-.09-.203-.144-.297a2.965 2.965 0 0 0-.112-.197l-.01-.016-.013-.024-.038-.07c-.016-.024-.029-.051-.045-.076l-.08-.14c-.022-.039-.048-.082-.07-.124-.048-.085-.096-.17-.148-.252-.016-.021-.029-.046-.045-.067-.035-.058-.073-.112-.112-.17l-.013-.021c-.025-.04-.054-.08-.077-.122l-.086-.136a7.408 7.408 0 0 0-.237-.346l-.032-.043c-.048-.064-.1-.13-.15-.194l-.106-.134-.096-.128a2.08 2.08 0 0 0-.08-.1 3.966 3.966 0 0 0-.18-.225 15.38 15.38 0 0 0-.27-.297l-.057-.064-.109-.121c-.086-.1-.179-.2-.272-.298a5.694 5.694 0 0 0-.24-.228l-.25-.237a22.95 22.95 0 0 0-.285-.267c-.077-.064-.157-.13-.237-.194l-.035-.028a.991.991 0 0 1-.068-.051c-.025-.018-.048-.04-.074-.058l-.067-.055-.067-.054a8.225 8.225 0 0 0-.31-.25c-.084-.066-.16-.118-.238-.172l-.029-.022-.032-.02-.07-.05-.08-.054-.144-.1a6.038 6.038 0 0 0-.324-.228c-.067-.046-.138-.088-.205-.13-.042-.028-.087-.055-.128-.083a.68.68 0 0 1-.08-.048c-.026-.018-.055-.034-.08-.049-.042-.021-.08-.048-.119-.073l-.038-.027a5.889 5.889 0 0 0-.334-.2l-.092-.052a8.516 8.516 0 0 0-.289-.155l-.157-.082a3.444 3.444 0 0 1-.157-.088L32 6.703a5.968 5.968 0 0 0-.282-.15c-.042-.008-.086-.011-.131-.017l-.103-.016-.17-.024-.115-.018-.115-.018c-.068-.012-.15-.018-.228-.028h-.035l-.208-.024-.224-.027a24.21 24.21 0 0 1-.129-.01l-.128-.008-.211-.019c-.039 0-.077-.006-.116-.009l-.115-.009-.26-.012-.233-.01c-.074-.002-.148-.008-.228-.008-.093-.003-.189-.003-.282-.003h-.449c-.08.003-.176.003-.263.003h-.224c-.08.003-.157.009-.24.012h-.013l-.272.012-.215.027-.25.013a30.107 30.107 0 0 1-.275.018l-.218.018c-.048.006-.093.01-.141.012-.039 0-.077.006-.119.01-.086.008-.195.02-.291.033l-.218.027c-.083.01-.163.018-.247.03-.073.01-.147.022-.22.034l-.071.012-.218.033-.247.04c-.093.018-.186.033-.278.051l-.238.046a3.97 3.97 0 0 0-.166.03c-.026.006-.051.01-.08.015-.084.016-.186.04-.276.061l-.237.052-.086.018c-.052.012-.106.021-.154.033-.045.01-.093.025-.141.037l-.141.036-.218.058c-.045.012-.09.021-.134.033-.042.013-.084.022-.125.034-.045.009-.09.024-.135.036-.045.012-.09.028-.134.037l-.24.07c-.042.009-.084.024-.123.036l-.121.036c-.061.016-.128.04-.192.061l-.077.028-.224.075-.145.046-.115.036a2.447 2.447 0 0 0-.205.073l-.064.025-.23.082-.247.088-.26.106-.224.088-.122.049c-.045.018-.09.033-.134.051a4.46 4.46 0 0 0-.25.11l-.228.1a2.94 2.94 0 0 0-.224.1l-.032.015a1.122 1.122 0 0 1-.087.04 2.137 2.137 0 0 1-.147.067l-.24.118c-.083.04-.167.079-.25.121l-.227.119-.247.127c-.08.04-.157.082-.237.128l-.23.134-.225.127a3.3 3.3 0 0 0-.11.064c-.044.024-.089.052-.134.079a4.723 4.723 0 0 0-.227.14l-.212.133-.086.055a4.887 4.887 0 0 0-.163.103c-.07.046-.141.091-.209.14l-.217.149c-.042.03-.084.054-.122.082-.042.027-.08.054-.122.082a8.28 8.28 0 0 0-.192.14l-.023.014-.198.15c-.026.018-.048.036-.074.05-.058.043-.118.086-.173.132l-.064.051c-.042.034-.08.064-.122.1l-.208.167-.013.012-.234.186-.176.158-.195.17c-.039.036-.08.07-.122.106l-.122.106-.368.35c-.026.024-.051.045-.074.07-.051.048-.102.094-.154.145a1.562 1.562 0 0 0-.099.104l-.058.06c-.016.015-.028.03-.044.046l-.052.054-.096.1-.006.007a5.13 5.13 0 0 0-.218.228l-.016.018c-.051.054-.1.109-.147.167l-.186.212c-.07.076-.141.155-.202.234a1.889 1.889 0 0 1-.1.119c-.025.027-.047.057-.07.085l-.173.215-.048.061-.134.167c-.065.079-.122.161-.18.24l-.019.027-.074.107a.687.687 0 0 1-.045.057c-.016.022-.032.04-.044.058-.049.06-.093.121-.141.188-.164.234-.324.474-.471.71-3.37 5.3-3.829 12.23-1.195 18.089.186.406.381.81.596 1.208.028.052.057.103.09.155.012.021.025.04.035.06l.032.055c.022.034.041.07.06.104l.036.07.096.164a9.2 9.2 0 0 0 .516.82l.054.078c.02.028.038.052.054.08l.084.127c.115.17.237.346.362.513.054.076.115.149.176.219.02.024.042.048.06.073.02.027.042.051.062.076.022.024.041.051.06.076l.087.109c.122.121.237.246.346.377l.02-.01Zm5.059-35.079.022-.018c.061 0 .119.006.18.01a44.928 44.928 0 0 1 1.941.125l.336.026c.529.046.993.091 1.43.14l.175.021c.407.049.817.106 1.253.167h.118l.19.027c.457.07.9.146 1.313.22l.154.023.096.019c.375.07.756.148 1.121.227l.096.022a.544.544 0 0 1 .07.015c.023.006.045.009.071.015.397.088.804.188 1.208.295.038.012.077.02.115.033a.45.45 0 0 0 .061.015l.087.028c.387.106.733.206 1.066.306l.061.018.035.01c.013.003.03.006.039.012.295.09.59.194.907.303a20.457 20.457 0 0 0-1.051 0h-.25a31.237 31.237 0 0 0-1.387.088c-.013 0-.03.004-.042.004 0 0-.029 0-.042.003-.384.039-.772.088-1.166.145l-.096.012a.79.79 0 0 1-.083.013c-.023 0-.045.006-.07.009a22.23 22.23 0 0 0-1.19.218l-.07.013-.093.02c-.057.013-.118.025-.172.04a21.051 21.051 0 0 0-1.375.353l-.109.03a25.52 25.52 0 0 0-1.105.352 4.02 4.02 0 0 1-.211.08l-.106.039c-.343.127-.676.255-.99.385l-.314.134c-.314.14-.637.288-.983.455l-.113.052c-.07.03-.13.06-.198.097a26.15 26.15 0 0 0-1.012.547c-.049.03-.1.058-.148.085-.054.03-.109.06-.16.094-.343.2-.673.407-.98.614l-.196.133-.07.049c-.365.249-.686.48-.977.701l-.058.049-.032.027-.07.058-.023.018c-.291.234-.586.47-.868.714-.023.021-.048.04-.07.057a16.4 16.4 0 0 0-.98.917l-.052.055-.045.046a.767.767 0 0 0-.08.082c-.282.285-.56.586-.827.896l-.035.042a2.824 2.824 0 0 1-.128.146c-.282.334-.535.647-.778.969-.016.018-.03.04-.042.058l-.013.02-.051.068c-.285.394-.538.75-.75 1.087a21.626 21.626 0 0 0-.682 1.178l-.051.091a23.12 23.12 0 0 0-.356.702c-.058.112-.112.233-.163.346-.106.234-.215.48-.33.762l-.048.103c-.01.028-.023.052-.032.076-.013.03-.026.058-.039.091-.134.35-.263.702-.372 1.042-.006.024-.012.049-.022.073l-.02.067c-.002.018-.009.033-.015.051-.007.019-.01.037-.016.052-.087.298-.167.57-.237.832l-.013.046a26.696 26.696 0 0 0-.247 1.075l-.013.076-.057.282c-.061.31-.112.626-.154.95l-.01.07-.012.088a19.971 19.971 0 0 0-.113 1.221c0 .04-.003.076-.006.116v.106c-.02.286-.026.547-.032.796-.003.127-.003.258-.003.385 0 .256.003.526.019.808v.119c.006.036.006.07.01.106a18.154 18.154 0 0 0 .096 1.22c0 .019.006.04.01.058 0 .016.003.03.006.046 0 .015.003.03.006.046 0 .015.003.03.007.045.035.313.08.614.128.902a14.291 14.291 0 0 1-.173-.604c-.007-.028-.013-.058-.023-.091l-.006-.025-.026-.109c-.048-.2-.086-.37-.118-.535a.785.785 0 0 1-.016-.097l-.02-.103-.012-.079c-.01-.067-.023-.134-.032-.2-.02-.104-.036-.21-.052-.313-.01-.064-.016-.125-.025-.185-.007-.037-.01-.076-.016-.116-.026-.17-.042-.343-.061-.516v-.01l-.01-.081a2.796 2.796 0 0 1-.016-.17v-.028c-.016-.182-.029-.38-.038-.622v-.194c-.01-.264-.013-.546-.01-.829.003-.03.007-.063.003-.097a.448.448 0 0 0 .004-.097c.003-.249.012-.455.022-.653.003-.064.01-.13.013-.197l.01-.097.019-.225.029-.34v-.03c.01-.098.016-.198.028-.292.023-.189.048-.377.074-.565l.01-.076c.01-.079.019-.155.032-.234.025-.182.06-.37.105-.61l.007-.034.019-.097c.006-.045.013-.09.022-.136a17.992 17.992 0 0 1 .212-.978l.02-.07.006-.024c.064-.253.121-.48.179-.696.006-.027.016-.055.022-.082l.039-.137.022-.088c.058-.197.116-.394.176-.592.032-.11.07-.225.106-.334.061-.191.128-.386.199-.58l.022-.06a8.15 8.15 0 0 1 .093-.262c.08-.212.163-.422.247-.634l.041-.107c.01-.021.016-.042.026-.064.013-.03.026-.057.035-.09.125-.307.25-.608.378-.897l.02-.04c.006-.011.01-.026.016-.038l.025-.061c.115-.258.23-.513.353-.76.022-.048.05-.103.076-.157l.016-.03.058-.113c.035-.07.07-.14.109-.21.064-.127.128-.255.195-.38l.023-.045c.048-.097.1-.194.154-.288a4.29 4.29 0 0 0 .112-.207c.067-.121.134-.246.202-.364l.032-.061a5.13 5.13 0 0 0 .077-.134l.076-.133c.119-.204.24-.407.366-.61l.073-.122.048-.08c.016-.027.032-.05.048-.078.193-.307.378-.595.564-.872l.026-.045.032-.046a33.609 33.609 0 0 1 .66-.944l.025-.034.061-.085c.141-.191.282-.382.426-.574l.007-.009c.077-.103.16-.21.24-.313l.045-.057c.125-.161.25-.325.384-.483l.02-.021c.048-.061.099-.122.147-.18.032-.036.06-.075.093-.112.157-.194.317-.383.48-.57l.07-.086c.033-.036.062-.07.094-.103.022-.027.045-.052.07-.08.263-.303.51-.573.74-.819.138-.149.276-.292.407-.431l.256-.27.042-.046.327-.328c.093-.094.18-.185.269-.273a.148.148 0 0 1 .032-.03c.01-.01.02-.019.029-.031.131-.13.26-.255.387-.377.048-.045.097-.094.144-.14l.071-.066c.167-.158.33-.307.49-.45l-.006.01Zm18.58 4.28c.045.036.093.07.138.106.045.036.093.07.138.106.176.137.355.282.567.459l.09.075c.06.049.112.095.166.143l.016.015c.186.161.362.331.545.504l.125.122c.006.01.016.015.022.024l.026.025.058.054c.24.243.474.501.707.769.042.048.08.097.116.145.013.019.032.04.048.058l.032.037c.18.221.323.4.452.573l.077.11.096.136.048.061c.14.192.26.37.371.547a16.433 16.433 0 0 1 .538.908l.042.076a12.936 12.936 0 0 1 .458.944.684.684 0 0 0 .048.097 1.421 1.421 0 0 1 .07.152c.135.322.26.65.372.975.013.04.026.082.036.121a.553.553 0 0 0 .019.064c0 .01.006.019.01.028a14.742 14.742 0 0 1 .288 1.002l.01.04.025.118c.06.255.112.483.154.692.029.137.051.27.073.407.036.225.074.459.106.695v.046c.016.079.026.161.035.243.007.043.01.085.016.125.023.218.048.464.064.77l.01.122c0 .043.006.082.01.125l.01.121c.019.416.025.802.025 1.17 0 .404-.02.82-.058 1.269 0 .055-.01.106-.016.164l-.01.091c0 .024-.006.052-.009.079l-.01.088c-.032.313-.06.574-.096.838-.012.091-.029.18-.044.268l-.007.036-.01.06-.022.122c-.035.225-.087.483-.147.75a8.718 8.718 0 0 1-.1.41l-.022.085c-.06.246-.128.486-.196.714l-.057.188a15.942 15.942 0 0 1-.35 1.002l-.031.088-.048.128c-.032.082-.061.164-.096.243a18.82 18.82 0 0 1-.324.729l-.01.018-.01.021c-.015.034-.028.067-.047.1-.013.03-.03.061-.042.092l-.077.167a18.678 18.678 0 0 1-.506.947.126.126 0 0 1-.016.027c-.003.007-.01.016-.013.025-.016.027-.032.064-.051.094-.125.213-.253.422-.391.635.102-.1.199-.2.298-.304l.035-.04c.032-.036.068-.07.1-.1l.022-.021c.026-.027.051-.052.077-.076.025-.024.051-.052.077-.076.333-.352.66-.71.977-1.066.394-.446.791-.91 1.17-1.382.057-.07.111-.142.166-.212a2.42 2.42 0 0 1 .077-.1c.019-.028.041-.052.06-.076.036-.046.068-.088.103-.128l.135-.167c.185-.234.371-.47.55-.704.071-.095.142-.192.209-.286l.07-.1.07-.1c.03-.04.055-.08.084-.116l.154-.206c.128-.176.256-.355.381-.532l.045-.06.029-.043c.083-.121.166-.243.243-.364a2.18 2.18 0 0 0 .074-.113c.025-.036.048-.076.074-.112l.14-.213c.125-.185.25-.37.366-.558.086-.14.17-.283.253-.423l.019-.033c.035-.06.07-.125.109-.182l.115-.191.045-.073c.1-.164.202-.328.292-.49.07-.12.134-.242.201-.364l.042-.073.208-.385.039-.073.022-.043c.08-.148.16-.294.234-.446.074-.146.141-.283.208-.428.013-.028.026-.058.042-.085.02-.04.038-.076.054-.116l.087-.179c.093-.188.18-.377.269-.565.051-.112.096-.224.14-.337l.033-.085.125-.3.067-.165c.048-.115.096-.23.141-.346a8.724 8.724 0 0 0-.147-.224l-.03-.04a6.745 6.745 0 0 1-.16-.243l-.031-.049-.225-.312-.07-.098a9.49 9.49 0 0 0-.16-.218l-.029-.04a11.65 11.65 0 0 0-.237-.306v-.006l-.064-.076c-.07-.091-.141-.18-.212-.268l-.032-.036c-.064-.079-.128-.158-.195-.234l-.109-.13c-.07-.085-.14-.168-.208-.246l-.103-.116a4.364 4.364 0 0 1-.121-.14l-.129-.145-.025-.03a6.089 6.089 0 0 0-.199-.216l-.25-.264-.352-.368c-.026-.024-.051-.052-.077-.076a3.424 3.424 0 0 1-.15-.152l-.18-.176-.112-.11-.112-.109c-.074-.075-.167-.158-.25-.233l-.176-.161c-.039-.037-.077-.07-.112-.107-.039-.036-.077-.07-.113-.106a5.937 5.937 0 0 0-.259-.228l-.18-.158c-.035-.03-.067-.06-.102-.088-.042-.04-.086-.076-.128-.112-.042-.037-.083-.07-.125-.106L41.8 11.6l-.202-.167a4.447 4.447 0 0 1-.218-.18l-.247-.193-.029-.022-.224-.17-.086-.063a3.821 3.821 0 0 1-.132-.104c-.057-.045-.118-.088-.176-.13-.032-.025-.067-.049-.1-.073l-.23-.167c-.074-.055-.144-.104-.218-.158-.073-.055-.15-.106-.224-.158-.029-.018-.058-.04-.083-.058l-.228-.158c-.07-.048-.137-.097-.208-.14a6.798 6.798 0 0 0-.352-.227l-.202-.125a1.682 1.682 0 0 1-.096-.06 1.06 1.06 0 0 0-.1-.061l-.028-.018a14.641 14.641 0 0 0-.41-.246l-.177-.104c-.022-.015-.044-.027-.07-.042l-.083-.052c-.26-.149-.52-.297-.779-.434a14.343 14.343 0 0 0-1.121-.538c-.058-.027-.115-.048-.173-.07-.02-.005-.038-.015-.058-.02l-.096-.037c-.016-.006-.035-.015-.054-.021a5.6 5.6 0 0 1-.263-.095l.006-.009ZM32.06 5.624h.04c.475.088.936.188 1.362.297l.06.018c.462.119.907.25 1.324.392l.041.018c.446.15.872.316 1.272.486l.02.01c.429.182.839.385 1.23.592.198.106.397.218.605.334.061.033.119.066.183.103l.08.048c.029.019.06.034.09.052l.096.058.336.2c.058.034.112.067.17.104.074.045.147.09.224.14l.135.087c.099.061.192.122.288.186l.122.078c.086.058.17.113.26.177l.114.079c.061.042.126.085.19.127.064.043.128.085.189.128.041.027.08.057.121.085.055.04.11.079.164.115l.05.04c.136.097.27.19.405.291.028.021.057.046.09.067.08.06.163.125.25.185.038.03.073.058.111.085.093.07.183.143.273.219a.977.977 0 0 1 .092.076c.08.064.157.124.234.188.125.1.25.207.372.313.06.052.122.103.18.155.044.04.092.079.137.118.083.07.167.143.247.216.038.036.08.07.118.103.03.024.058.052.087.076.073.067.15.134.224.207.119.109.237.218.356.334l.019.018a3.152 3.152 0 0 1 .279.267l.01.01c.111.109.227.22.339.336l.054.058c.074.076.148.149.224.228.093.097.186.191.28.291l.153.161c.026.027.051.058.08.085.032.034.06.067.093.1.096.104.195.216.285.325l.154.177c.016.015.029.033.045.048.032.037.064.07.093.106.134.155.266.316.422.51l.039.05.013.017.112.137c.17.213.323.413.468.604.035.049.073.1.105.15l.138.188c.038.048.074.1.106.148 0 0 .019.028.029.04 1.06-3.292 1.038-6.095-.07-7.908-.754-1.233-1.993-2.008-3.682-2.3-.628-.108-1.243-.209-1.82-.3-.233-.036-.46-.076-.679-.11-4.35-.695-8.105-1.302-11.709-3.683-4.113-2.72-7.999-2.618-11.882.319.67.046 1.323.091 1.935.155l.116.012.08.01c.656.066 1.284.139 1.877.218l.163.021c.638.088 1.25.188 1.814.289l.128.027c.621.112 1.208.237 1.749.358l.093.022c.596.14 1.16.282 1.691.437l.052.012c.573.167 1.12.337 1.63.516.513.18 1.038.377 1.535.586l.051.022c.468.19.935.407 1.397.634l.029.012s.019.007.025.013l-.006-.003Zm34.749 11.029v6.2c0 .047.01.094.028.138a.438.438 0 0 0 .079.12.354.354 0 0 0 .261.104h4.575a3.041 3.041 0 0 0 3.045-3.036v-.78a3.108 3.108 0 0 0-3.108-3.108h-4.518a.355.355 0 0 0-.255.107.374.374 0 0 0-.107.255ZM64 32.992V14.027c0-.073.013-.142.04-.208a.513.513 0 0 1 .294-.293.581.581 0 0 1 .208-.041h6.902a6.16 6.16 0 0 1 4.351 1.798 6.163 6.163 0 0 1 1.804 4.352v.166a6.225 6.225 0 0 1-6.225 6.226h-4.203a.355.355 0 0 0-.255.107.374.374 0 0 0-.107.255v6.606a.546.546 0 0 1-.545.545h-1.72a.533.533 0 0 1-.383-.16.557.557 0 0 1-.161-.388Zm21.267-6.376 3.278-6.931a.33.33 0 0 1 .293-.186c.063 0 .12.016.173.05a.331.331 0 0 1 .12.136l3.258 6.905a.304.304 0 0 1-.129.397.293.293 0 0 1-.144.038H85.53a.267.267 0 0 1-.138-.035.258.258 0 0 1-.104-.097.28.28 0 0 1-.016-.277h-.006Zm10.703 6.917h1.965a.506.506 0 0 0 .456-.714l-8.88-19.05a.502.502 0 0 0-.456-.29h-.413a.473.473 0 0 0-.26.079.478.478 0 0 0-.18.207l-9.003 19.05a.545.545 0 0 0-.047.246.451.451 0 0 0 .079.236.506.506 0 0 0 .425.233h2.034a.502.502 0 0 0 .453-.29l1.521-3.211a.516.516 0 0 1 .454-.287h9.446a.491.491 0 0 1 .444.287l1.515 3.212a.507.507 0 0 0 .447.29v.002Zm16.137 0h2.346a.314.314 0 0 0 .265-.144.306.306 0 0 0 .047-.148.31.31 0 0 0-.028-.151l-4.248-9.51a.962.962 0 0 1 0-.793l3.879-8.653a.454.454 0 0 0-.198-.592.443.443 0 0 0-.221-.057h-1.996a.461.461 0 0 0-.425.287l-2.648 6.379a.236.236 0 0 1-.221.157.233.233 0 0 1-.22-.157l-2.632-6.373a.48.48 0 0 0-.17-.214.45.45 0 0 0-.262-.079h-1.974a.498.498 0 0 0-.233.057.484.484 0 0 0-.208.627l3.854 8.636a.944.944 0 0 1 0 .788l-4.276 9.509a.318.318 0 0 0 .019.3.306.306 0 0 0 .261.144h2.349a.326.326 0 0 0 .177-.053.341.341 0 0 0 .116-.142l2.985-7.139a.246.246 0 0 1 .082-.097.225.225 0 0 1 .239 0 .226.226 0 0 1 .082.098l2.973 7.125c.022.06.063.107.113.145a.315.315 0 0 0 .176.054l-.003-.004Zm17.36-17.759a7.734 7.734 0 0 0-3.814 1.052 7.68 7.68 0 0 0-2.786 2.805 7.893 7.893 0 0 0-1.011 3.955 7.583 7.583 0 0 0 4.685 7.075c.929.385 1.921.58 2.926.58a7.742 7.742 0 0 0 3.895-1.02 7.324 7.324 0 0 0 2.786-2.784 7.844 7.844 0 0 0 1.002-3.939 7.714 7.714 0 0 0-1.002-3.895 7.514 7.514 0 0 0-2.821-2.78 7.706 7.706 0 0 0-3.864-1.04v-.009h.004Zm.072 18.241c-2.95 0-5.479-1.026-7.51-3.048a10.052 10.052 0 0 1-3.064-7.374 10.716 10.716 0 0 1 1.395-5.338A10.307 10.307 0 0 1 129.382 13c3.01 0 5.567 1.02 7.601 3.032s3.064 4.525 3.064 7.47a10.512 10.512 0 0 1-.781 4.033 10.466 10.466 0 0 1-2.277 3.42 10.347 10.347 0 0 1-3.419 2.276 10.414 10.414 0 0 1-4.031.784Zm20.411 0a6.14 6.14 0 0 1-3.414-1.004c-1.001-.665-1.933-1.76-2.764-3.278a.462.462 0 0 1 .163-.614l1.628-.976a.45.45 0 0 1 .356-.047.442.442 0 0 1 .28.22c1.055 1.94 2.252 2.922 3.565 2.922a3.43 3.43 0 0 0 1.596-.394 2.72 2.72 0 0 0 1.109-1.032c.248-.413.381-.888.377-1.37a2.785 2.785 0 0 0-.566-1.625c-.567-.806-1.638-1.807-3.181-2.97-1.65-1.243-2.663-2.128-3.073-2.71a5.249 5.249 0 0 1-1.108-3.196 4.912 4.912 0 0 1 .664-2.507 4.753 4.753 0 0 1 1.858-1.791 5.416 5.416 0 0 1 2.585-.643 5.508 5.508 0 0 1 2.758.73c.851.486 1.71 1.333 2.633 2.592a.46.46 0 0 1-.091.636l-1.553 1.184a.45.45 0 0 1-.51.029.432.432 0 0 1-.132-.12c-.68-.904-1.26-1.499-1.71-1.776a2.729 2.729 0 0 0-1.423-.39 2.156 2.156 0 0 0-1.578.576 1.812 1.812 0 0 0-.447.636c-.101.242-.151.5-.145.765 0 .353.076.702.221 1.023.214.428.503.813.853 1.137.157.151.708.605 2.421 1.867 1.713 1.263 2.869 2.374 3.521 3.385.63.92.976 2.006.998 3.12a5.322 5.322 0 0 1-1.719 3.945 5.805 5.805 0 0 1-1.918 1.257 5.752 5.752 0 0 1-2.254.413v.006Z" clip-rule="evenodd"/><path fill="#F3F5F0" d="M162 31.851c0 1.175-.923 2.097-2.126 2.097-1.202 0-2.138-.922-2.138-2.097 0-1.174.948-2.072 2.138-2.072 1.191 0 2.126.923 2.126 2.072Zm-3.728 0c0 .923.683 1.657 1.618 1.657s1.581-.734 1.581-1.644c0-.91-.671-1.67-1.593-1.67-.923 0-1.606.747-1.606 1.657Zm1.275 1.087h-.482v-2.072c.189-.038.454-.063.797-.063.39 0 .57.063.721.15a.574.574 0 0 1 .201.454c0 .227-.176.403-.428.482v.025c.202.076.315.227.378.507.063.315.101.444.151.52h-.519c-.063-.076-.101-.265-.164-.507-.038-.227-.164-.328-.428-.328h-.227v.835-.004Zm.012-1.175h.227c.265 0 .482-.088.482-.302 0-.19-.139-.318-.444-.318-.126 0-.214.012-.265.025v.595Z"/></svg>