<svg xmlns="http://www.w3.org/2000/svg" width="64" height="64" viewBox="0 0 64 64"><path fill="#b3d234" d="m17.788 9.523 3.406-3.582C3.182 5.357 8.424 18.477 2.556 31.811c-6.76 15.356.795 21.208 12.05 23.03-1.56-1.855-2.834-3.978-3.802-6.269-7.298-9.258-4.361-26.125 6.984-39.05"/><path fill="#0095d9" d="M61.127 25.88c-1.676 4.757-4.751 10.095-9.1 15.348-3.39 4.093-7.157 7.317-11.047 9.65-4.495 2.935-10.073 4.667-16.309 4.667-3.49 0-6.922-.195-10.065-.704 1.858 2.207 4.115 4.04 6.74 5.317 16.284 7.936 17.313-6.806 34.541-14.286 9.674-4.2 9.71-12.412 5.24-19.992"/><path fill="#eee809" d="M40.975 10.54c2.402.442 4.681 1.237 6.722 2.4 5.469 3.118 10.45 7.888 13.43 12.94 2.933-8.326 1.567-14.872-4.851-16.056-7.054-1.3-12.57-1.718-17.87-5.448C31.88-.218 26.159 1.298 21.194 5.94l1.076.048c6.889.409 13.462 1.76 18.707 4.55"/><path fill="#51b849" d="M17.788 9.523C6.443 22.447 3.505 39.314 10.804 48.573c-3.277-7.752-3.05-17.419 1.569-25.137C18.52 13.159 30.853 8.679 40.976 10.54 35.731 7.75 29.158 6.4 22.271 5.99l-1.077-.048c-1.066.997-2.181 2.187-3.406 3.582"/><path fill="#00845d" d="M47.697 12.94c-2.04-1.164-4.32-1.958-6.722-2.4 6.906 3.674 11.502 9.847 11.45 19.68-.045 8.53-4.418 16.068-11.444 20.659 3.89-2.334 7.659-5.558 11.047-9.651 4.35-5.253 7.424-10.59 9.1-15.347-2.98-5.053-7.961-9.825-13.43-12.941"/><path fill="#005121" d="M39.84 46.205c-7.799 5.049-18.195 2.797-23.225-5.031s-2.541-17.908 5.01-23.319c8.445-6.05 19.276-3.662 23.224 5.031 3.85 8.477 2.785 18.27-5.01 23.319m1.137-35.665c-10.123-1.86-22.455 2.618-28.603 12.895-4.62 7.718-4.848 17.387-1.57 25.136.97 2.291 2.242 4.416 3.804 6.272 3.143.509 6.575.702 10.063.702 6.237 0 11.815-1.732 16.31-4.666 7.027-4.589 11.4-12.13 11.444-20.66.053-9.832-4.544-16.005-11.449-19.679"/></svg>