<svg xmlns="http://www.w3.org/2000/svg" width="162" height="44" fill="none"><path fill="#f3f5f0" fill-rule="evenodd" d="m4.746 13.33.058.011c-.538 2.642-1.147 5.64-2.55 8.631-2.207 4.713-2.544 8.46-1.01 11.145 1.369 2.394 4.306 4.046 8.73 4.917l-.105-.146-.036-.048c-.012-.019-.028-.037-.038-.058-.195-.264-.365-.513-.538-.762l-.01-.012a18 18 0 0 1-.705-1.166l-.07-.119q-.031-.059-.06-.112-.028-.047-.055-.094a20 20 0 0 1-.564-1.127c-.058-.067-.106-.134-.157-.2l-.048-.061-.035-.049-.084-.106-.057-.073-.125-.164q-.057-.078-.11-.161l-.057-.085-.144-.216-.055-.079c-.038-.057-.08-.115-.115-.176a5 5 0 0 1-.147-.249l-.135-.234-.006-.012c-.048-.082-.096-.16-.141-.246a3 3 0 0 1-.083-.164q-.028-.054-.055-.11l-.115-.227a5 5 0 0 1-.135-.267c-.032-.067-.064-.146-.096-.222a.4.4 0 0 1-.026-.067l-.102-.242q-.023-.06-.051-.119l-.061-.143a6 6 0 0 1-.106-.291l-.048-.128-.02-.051q-.013-.043-.031-.085a4 4 0 0 1-.087-.259l-.032-.106a6 6 0 0 1-.064-.218l-.07-.24-.023-.076-.057-.2-.01-.046a4 4 0 0 1-.067-.301l-.058-.255q-.015-.076-.035-.152-.016-.058-.026-.115-.013-.072-.025-.143l-.039-.216-.048-.258a3 3 0 0 0-.048-.267l-.029-.219-.019-.155-.032-.264c0-.03-.006-.057-.01-.088q-.01-.086-.016-.176a4 4 0 0 1-.019-.27q0-.061-.006-.122l-.02-.264c0-.043-.006-.085-.01-.128l-.009-.14q-.002-.104-.003-.203c-.001-.099 0-.136-.003-.203v-.128q0-.079-.003-.155v-.246q0-.216.012-.434l.01-.267c0-.082.003-.167.01-.246q.015-.232.035-.468v-.006l.01-.11v-.005c.006-.049.01-.091.01-.14q.004-.117.018-.234c.013-.137.032-.27.048-.404l.007-.054.019-.137a1 1 0 0 1 .02-.14l.028-.234q.021-.164.051-.325.017-.09.032-.182l.02-.127.01-.067a1 1 0 0 1 .012-.07l.02-.112.018-.113c.026-.142.058-.282.087-.425l.032-.155.013-.07a1 1 0 0 1 .022-.103l.007-.033a1 1 0 0 0 .016-.088c.006-.04.016-.076.022-.113q.052-.218.109-.443.022-.089.045-.176l.02-.06q.009-.038.015-.074a.3.3 0 0 0 .013-.054q.01-.05.026-.1.011-.043.022-.086c.06-.221.125-.437.192-.659l.013-.045a1 1 0 0 0 .035-.137c.01-.042.026-.088.039-.133l.01-.03.006-.02q.1-.313.205-.628l.022-.076.02-.057.019-.058c.019-.058.035-.11.057-.167.07-.21.154-.42.237-.623l.023-.06.013-.04.041-.118.039-.107c.006-.018.016-.036.022-.054a23 23 0 0 1 .362-.863 1 1 0 0 1 .061-.14c.09-.206.186-.412.279-.6l.083-.177q.02-.04.035-.076l.01-.024c.016-.034.035-.08.057-.119.097-.206.205-.41.308-.607l.096-.188q.019-.033.032-.06s.01-.022.016-.031l.013-.025q.02-.042.045-.085c.125-.24.26-.476.378-.689q.04-.072.08-.14a.4.4 0 0 1 .048-.079.4.4 0 0 1 .048-.082 31 31 0 0 1 .58-.968l.013-.019c.153-.249.33-.525.55-.86l.036-.054.02-.033.018-.034.042-.06c.16-.237.333-.495.554-.796l.08-.112c.186-.265.394-.544.635-.86l.016-.024.019-.027a.1.1 0 0 0 .022-.034l.013-.021c.205-.273.433-.553.68-.856l.022-.03.048-.062q.362-.438.762-.905l.023-.03a53 53 0 0 1 .826-.917l.372-.392.096-.1.115-.121q.093-.1.186-.192.079-.08.157-.16l.109-.113q.333-.338.647-.644l.106-.106c-8.278.121-9.137 4.33-10.322 10.146h-.026l-.016.015Zm11.985 28.904a15.5 15.5 0 0 1-4.146-2.8c.474.052.917.097 1.343.14l.115.009c.42.033.871.067 1.378.091h.105c.026.006.052.006.08.01q.04 0 .08.002.732.039 1.493.058l.317.009c.616.012 1.128.018 1.612.018.602 0 1.217-.024 1.829-.06 4.107-.268 7.986-1.464 11.222-3.45 3.213-1.813 6.173-4.246 8.794-7.225a40 40 0 0 0 1.166-1.373l.077-.1q.067-.088.138-.176l.022-.03c.042-.055.08-.107.125-.159l.106-.133q.313-.393.618-.79.066-.087.131-.179l.132-.179.14-.191c.19-.255.404-.55.606-.838.109-.155.215-.313.314-.465l.083-.122q.076-.113.15-.227l.382-.58q.172-.27.34-.538l.035-.06c.135-.22.304-.505.477-.793.119-.2.23-.404.343-.605q.172-.31.33-.61c.032-.058.06-.119.093-.176q.16-.3.304-.602a39 39 0 0 0 .635-1.37c.019-.033.032-.066.048-.1l.01-.018.009-.024a.1.1 0 0 1 .013-.027c1.13 2.059 2.239 5.071 1.265 7.926-.762 2.223-2.669 3.972-5.67 5.2-5.155 2.104-8.42 4.919-11.296 7.4l-.016.012c-4.626 3.994-7.689 6.633-15.329 3.128zm7.15-7.37a14.25 14.25 0 0 1-6.56-1.564 13.4 13.4 0 0 1-4.966-4.355C8.325 23.04 10.07 15.36 16.42 11.082c3.47-2.342 7.63-3.128 11.411-2.172 3.402.863 6.097 3.025 7.564 6.077 3.94 8.17.772 14.832-4.12 17.815a14.16 14.16 0 0 1-7.394 2.062M11.5 38.3l.298.04.154.021c.096.012.189.027.288.04l.32.039.25.03.154.019c.052.006.103.009.154.018q.156.017.32.03l.282.025.314.024.343.027.308.021q.073.004.15.013l.148.009c.128.009.26.018.387.02l.33.02.263.011c.138.01.275.012.413.019h.007l.336.012c.083.003.173.009.26.009l.602.012h.218q.057.005.115.006h.115c.353.003.711.01 1.077.01 4.597 0 8.918-1.164 12.5-3.363 5.516-3.389 8.7-8.791 8.733-14.82q-.001-.6-.026-1.184-.006-.069-.013-.137v-.042l-.006-.021c0-.03-.007-.055-.007-.088-.019-.283-.041-.58-.073-.86l-.01-.082-.016-.121a1 1 0 0 1-.013-.08q-.002-.031-.01-.07l-.012-.109c-.026-.215-.06-.434-.096-.643l-.016-.08q-.013-.062-.026-.12a3 3 0 0 1-.032-.156l-.022-.112-.007-.034c-.038-.185-.08-.382-.128-.567-.019-.073-.038-.15-.064-.219-.01-.033-.02-.07-.032-.103l-.006-.019-.007-.015v-.012l-.041-.133q-.029-.088-.052-.18a4 4 0 0 0-.105-.34c-.026-.079-.058-.158-.087-.237l-.038-.103-.016-.046-.052-.136a9 9 0 0 0-.176-.459q-.034-.084-.073-.164l-.039-.076-.038-.082q-.02-.036-.035-.072l-.071-.15q-.023-.05-.045-.1c-.045-.1-.09-.203-.144-.297a3 3 0 0 0-.112-.197l-.01-.016-.013-.024-.038-.07q-.023-.037-.045-.076l-.08-.14c-.022-.039-.048-.082-.07-.124q-.071-.128-.148-.252-.022-.034-.045-.067c-.035-.058-.073-.112-.112-.17l-.013-.021c-.025-.04-.054-.08-.077-.122l-.086-.136a7 7 0 0 0-.237-.346l-.032-.043q-.074-.097-.15-.194l-.106-.134-.096-.128-.08-.1a4 4 0 0 0-.18-.225 15 15 0 0 0-.27-.297l-.057-.064-.109-.121q-.13-.15-.272-.298a6 6 0 0 0-.24-.228l-.25-.237-.285-.267q-.116-.097-.237-.194l-.035-.028-.068-.051q-.036-.029-.074-.058l-.067-.055-.067-.054a8 8 0 0 0-.31-.25c-.084-.066-.16-.118-.238-.172l-.029-.022-.032-.02-.07-.05-.08-.054-.144-.1a6 6 0 0 0-.324-.228q-.102-.068-.205-.13-.065-.041-.128-.083a1 1 0 0 1-.08-.048q-.04-.027-.08-.049c-.042-.021-.08-.048-.119-.073l-.038-.027a6 6 0 0 0-.334-.2l-.092-.052a9 9 0 0 0-.289-.155l-.157-.082a3 3 0 0 1-.157-.088L32 6.703a6 6 0 0 0-.282-.15c-.042-.008-.086-.011-.131-.017l-.103-.016-.17-.024-.115-.018-.115-.018c-.068-.012-.15-.018-.228-.028h-.035l-.208-.024-.224-.027-.129-.01-.128-.008-.211-.019c-.039 0-.077-.006-.116-.009l-.115-.009-.26-.012-.233-.01c-.074-.002-.148-.008-.228-.008q-.141-.004-.282-.003h-.449c-.08.003-.176.003-.263.003h-.224c-.08.003-.157.009-.24.012h-.013l-.272.012-.215.027-.25.013-.275.018-.218.018q-.07.009-.141.012-.057.002-.119.01c-.086.008-.195.02-.291.033l-.218.027q-.123.013-.247.03-.11.015-.22.034l-.071.012-.218.033-.247.04q-.14.025-.278.051l-.238.046-.166.03q-.038.008-.08.015c-.084.016-.186.04-.276.061l-.237.052-.086.018c-.052.012-.106.021-.154.033-.045.01-.093.025-.141.037l-.141.036-.218.058q-.068.017-.134.033-.063.018-.125.034c-.045.009-.09.024-.135.036s-.09.028-.134.037l-.24.07c-.042.009-.084.024-.123.036l-.121.036c-.061.016-.128.04-.192.061l-.077.028-.224.075-.145.046-.115.036a3 3 0 0 0-.205.073l-.064.025-.23.082-.247.088-.26.106-.224.088-.122.049q-.068.026-.134.051a5 5 0 0 0-.25.11l-.228.1a3 3 0 0 0-.224.1l-.032.015a1 1 0 0 1-.087.04 2 2 0 0 1-.147.067l-.24.118q-.125.059-.25.121l-.227.119-.247.127q-.118.06-.237.128l-.23.134-.225.127-.11.064q-.066.037-.134.079a5 5 0 0 0-.227.14l-.212.133-.086.055-.163.103q-.106.068-.209.14l-.217.149c-.042.03-.084.054-.122.082-.042.027-.08.054-.122.082l-.192.14-.023.014-.198.15c-.026.018-.048.036-.074.05q-.089.064-.173.132l-.064.051c-.042.034-.08.064-.122.1l-.208.167-.013.012-.234.186-.176.158-.195.17q-.059.053-.122.106l-.122.106-.368.35q-.04.034-.074.07-.076.07-.154.145a2 2 0 0 0-.099.104l-.058.06q-.022.022-.044.046l-.052.054-.096.1-.006.007a5 5 0 0 0-.218.228l-.016.018q-.076.08-.147.167l-.186.212c-.07.076-.141.155-.202.234a2 2 0 0 1-.1.119q-.037.042-.07.085l-.173.215-.048.061-.134.167c-.065.079-.122.161-.18.24l-.019.027-.074.107-.045.057q-.025.032-.044.058c-.049.06-.093.121-.141.188-.164.234-.324.474-.471.71-3.37 5.3-3.829 12.23-1.195 18.089.186.406.381.81.596 1.208q.041.078.09.155.019.03.035.06l.032.055q.032.052.06.104l.036.07.096.164a9 9 0 0 0 .516.82l.054.078q.03.04.054.08l.084.127c.115.17.237.346.362.513q.083.114.176.219.031.036.06.073.031.04.062.076.032.037.06.076l.087.109q.183.181.346.377l.02-.01Zm5.059-35.079.022-.018q.09.002.18.01a45 45 0 0 1 1.941.125l.336.026c.529.046.993.091 1.43.14l.175.021c.407.049.817.106 1.253.167h.118l.19.027c.457.07.9.146 1.313.22l.154.023.096.019c.375.07.756.148 1.121.227l.096.022a1 1 0 0 1 .07.015q.033.007.071.015c.397.088.804.188 1.208.295.038.012.077.02.115.033a1 1 0 0 0 .061.015l.087.028c.387.106.733.206 1.066.306l.061.018.035.01c.013.003.03.006.039.012.295.09.59.194.907.303a21 21 0 0 0-1.051 0h-.25a31 31 0 0 0-1.387.088c-.013 0-.03.004-.042.004 0 0-.029 0-.042.003q-.575.059-1.166.145l-.096.012a1 1 0 0 1-.083.013c-.023 0-.045.006-.07.009a22 22 0 0 0-1.19.218l-.07.013-.093.02c-.057.013-.118.025-.172.04a21 21 0 0 0-1.375.353l-.109.03a26 26 0 0 0-1.105.352 4 4 0 0 1-.211.08l-.106.039c-.343.127-.676.255-.99.385l-.314.134c-.314.14-.637.288-.983.455l-.113.052c-.07.03-.13.06-.198.097a26 26 0 0 0-1.012.547q-.075.045-.148.085-.082.044-.16.094c-.343.2-.673.407-.98.614l-.196.133-.07.049c-.365.249-.686.48-.977.701l-.058.049-.032.027-.07.058-.023.018c-.291.234-.586.47-.868.714q-.036.031-.07.057a16 16 0 0 0-.98.917l-.052.055-.045.046a1 1 0 0 0-.08.082q-.425.43-.827.896l-.035.042a3 3 0 0 1-.128.146c-.282.334-.535.647-.778.969q-.024.029-.042.058l-.013.02-.051.068c-.285.394-.538.75-.75 1.087a22 22 0 0 0-.682 1.178l-.051.091a23 23 0 0 0-.356.702c-.058.112-.112.233-.163.346-.106.234-.215.48-.33.762l-.048.103q-.017.041-.032.076-.02.043-.039.091c-.134.35-.263.702-.372 1.042q-.008.037-.022.073l-.02.067q-.005.025-.015.051-.009.029-.016.052c-.087.298-.167.57-.237.832l-.013.046a27 27 0 0 0-.247 1.075l-.013.076-.057.282q-.091.465-.154.95l-.01.07-.012.088a20 20 0 0 0-.113 1.221q0 .058-.006.116v.106c-.02.286-.026.547-.032.796q-.004.192-.003.385c0 .256.003.526.019.808v.119c.006.036.006.07.01.106a18 18 0 0 0 .096 1.22q.002.03.01.058 0 .023.006.046 0 .022.006.046 0 .023.007.045.054.47.128.902a14 14 0 0 1-.173-.604q-.01-.042-.023-.091l-.006-.025-.026-.109c-.048-.2-.086-.37-.118-.535a1 1 0 0 1-.016-.097l-.02-.103-.012-.079q-.017-.1-.032-.2-.029-.157-.052-.313-.013-.096-.025-.185-.009-.056-.016-.116c-.026-.17-.042-.343-.061-.516v-.01l-.01-.081a3 3 0 0 1-.016-.17v-.028c-.016-.182-.029-.38-.038-.622v-.194c-.01-.264-.013-.546-.01-.829.003-.03.007-.063.003-.097a.5.5 0 0 0 .004-.097c.003-.249.012-.455.022-.653.003-.064.01-.13.013-.197l.01-.097.019-.225.029-.34v-.03c.01-.098.016-.198.028-.292q.035-.283.074-.565l.01-.076q.014-.117.032-.234c.025-.182.06-.37.105-.61l.007-.034.019-.097q.009-.067.022-.136a18 18 0 0 1 .212-.978l.02-.07.006-.024c.064-.253.121-.48.179-.696q.011-.041.022-.082l.039-.137.022-.088q.086-.295.176-.592c.032-.11.07-.225.106-.334q.092-.288.199-.58l.022-.06a8 8 0 0 1 .093-.262q.12-.317.247-.634l.041-.107q.013-.031.026-.064c.013-.03.026-.057.035-.09q.187-.462.378-.897l.02-.04q.008-.018.016-.038l.025-.061q.17-.388.353-.76c.022-.048.05-.103.076-.157l.016-.03.058-.113q.052-.105.109-.21.095-.192.195-.38l.023-.045q.072-.146.154-.288a4 4 0 0 0 .112-.207c.067-.121.134-.246.202-.364l.032-.061.077-.134.076-.133q.178-.306.366-.61l.073-.122.048-.08c.016-.027.032-.05.048-.078.193-.307.378-.595.564-.872l.026-.045.032-.046a34 34 0 0 1 .66-.944l.025-.034.061-.085q.21-.286.426-.574l.007-.009c.077-.103.16-.21.24-.313l.045-.057c.125-.161.25-.325.384-.483l.02-.021q.074-.092.147-.18c.032-.036.06-.075.093-.112q.235-.29.48-.57l.07-.086q.048-.054.094-.103.033-.04.07-.08c.263-.303.51-.573.74-.819q.209-.223.407-.431l.256-.27.042-.046.327-.328c.093-.094.18-.185.269-.273a.2.2 0 0 1 .032-.03q.015-.014.029-.031.196-.195.387-.377.073-.07.144-.14l.071-.066q.25-.236.49-.45l-.006.01Zm18.58 4.28q.069.053.138.106t.138.106c.176.137.355.282.567.459l.09.075c.06.049.112.095.166.143l.016.015c.186.161.362.331.545.504l.125.122c.006.01.016.015.022.024l.026.025.058.054q.359.366.707.769.063.072.116.145c.013.019.032.04.048.058l.032.037c.18.221.323.4.452.573l.077.11.096.136.048.061c.14.192.26.37.371.547a16 16 0 0 1 .538.908l.042.076a13 13 0 0 1 .458.944 1 1 0 0 0 .048.097 1.4 1.4 0 0 1 .07.152c.135.322.26.65.372.975q.02.061.036.121a1 1 0 0 0 .019.064c0 .01.006.019.01.028a15 15 0 0 1 .288 1.002l.01.04.025.118q.09.38.154.692c.029.137.051.27.073.407q.056.34.106.695v.046q.023.12.035.243.009.065.016.125c.023.218.048.464.064.77l.01.122q.002.063.01.125l.01.121c.019.416.025.802.025 1.17 0 .404-.02.82-.058 1.269 0 .055-.01.106-.016.164l-.01.091c0 .024-.006.052-.009.079l-.01.088c-.032.313-.06.574-.096.838q-.02.136-.044.268l-.007.036-.01.06-.022.122c-.035.225-.087.483-.147.75a9 9 0 0 1-.1.41l-.022.085q-.092.37-.196.714l-.057.188a16 16 0 0 1-.35 1.002l-.031.088-.048.128c-.032.082-.061.164-.096.243a19 19 0 0 1-.324.729l-.01.018-.01.021c-.015.034-.028.067-.047.1-.013.03-.03.061-.042.092l-.077.167a19 19 0 0 1-.506.947l-.016.027q-.006.011-.013.025c-.016.027-.032.064-.051.094q-.186.317-.391.635.151-.149.298-.304l.035-.04c.032-.036.068-.07.1-.1l.022-.021q.039-.04.077-.076.038-.038.077-.076c.333-.352.66-.71.977-1.066.394-.446.791-.91 1.17-1.382q.084-.106.166-.212l.077-.1q.03-.041.06-.076.052-.069.103-.128l.135-.167c.185-.234.371-.47.55-.704q.108-.144.209-.286l.07-.1.07-.1c.03-.04.055-.08.084-.116l.154-.206q.193-.265.381-.532l.045-.06.029-.043q.126-.182.243-.364a2 2 0 0 0 .074-.113c.025-.036.048-.076.074-.112l.14-.213c.125-.185.25-.37.366-.558q.129-.212.253-.423l.019-.033c.035-.06.07-.125.109-.182l.115-.191.045-.073c.1-.164.202-.328.292-.49.07-.12.134-.242.201-.364l.042-.073.208-.385.039-.073.022-.043q.121-.22.234-.446c.074-.146.141-.283.208-.428q.019-.043.042-.085.03-.058.054-.116l.087-.179c.093-.188.18-.377.269-.565q.075-.168.14-.337l.033-.085.125-.3.067-.165q.073-.172.141-.346a9 9 0 0 0-.147-.224l-.03-.04a7 7 0 0 1-.16-.243l-.031-.049-.225-.312-.07-.098-.16-.218-.029-.04a12 12 0 0 0-.237-.306v-.006l-.064-.076q-.105-.136-.212-.268l-.032-.036q-.095-.12-.195-.234l-.109-.13q-.106-.128-.208-.246l-.103-.116-.121-.14-.129-.145-.025-.03a6 6 0 0 0-.199-.216l-.25-.264-.352-.368c-.026-.024-.051-.052-.077-.076a3 3 0 0 1-.15-.152l-.18-.176-.112-.11-.112-.109c-.074-.075-.167-.158-.25-.233l-.176-.161c-.039-.037-.077-.07-.112-.107q-.059-.053-.113-.106a6 6 0 0 0-.259-.228l-.18-.158q-.051-.045-.102-.088-.064-.059-.128-.112-.063-.054-.125-.106L41.8 11.6l-.202-.167a5 5 0 0 1-.218-.18l-.247-.193-.029-.022-.224-.17-.086-.063-.132-.104q-.087-.067-.176-.13-.05-.037-.1-.073l-.23-.167c-.074-.055-.144-.104-.218-.158q-.111-.081-.224-.158-.045-.029-.083-.058l-.228-.158q-.103-.074-.208-.14a7 7 0 0 0-.352-.227l-.202-.125-.096-.06a1 1 0 0 0-.1-.061l-.028-.018a15 15 0 0 0-.41-.246l-.177-.104q-.032-.021-.07-.042l-.083-.052c-.26-.149-.52-.297-.779-.434a14 14 0 0 0-1.121-.538q-.087-.039-.173-.07c-.02-.005-.038-.015-.058-.02l-.096-.037q-.025-.01-.054-.021a6 6 0 0 1-.263-.095zM32.06 5.624h.04c.475.088.936.188 1.362.297l.06.018c.462.119.907.25 1.324.392l.041.018c.446.15.872.316 1.272.486l.02.01c.429.182.839.385 1.23.592.198.106.397.218.605.334.061.033.119.066.183.103l.08.048q.044.027.09.052l.096.058.336.2q.085.05.17.104.11.066.224.14l.135.087c.099.061.192.122.288.186l.122.078c.086.058.17.113.26.177l.114.079q.093.063.19.127t.189.128q.06.042.121.085.083.06.164.115l.05.04c.136.097.27.19.405.291q.041.033.09.067c.08.06.163.125.25.185q.055.045.111.085.139.105.273.219a1 1 0 0 1 .092.076c.08.064.157.124.234.188.125.1.25.207.372.313q.092.077.18.155.068.06.137.118.126.106.247.216c.038.036.08.07.118.103q.044.038.087.076.111.099.224.207.178.162.356.334l.019.018a3 3 0 0 1 .279.267l.01.01c.111.109.227.22.339.336l.054.058c.074.076.148.149.224.228.093.097.186.191.28.291l.153.161c.026.027.051.058.08.085.032.034.06.067.093.1.096.104.195.216.285.325l.154.177q.023.024.045.048.049.054.093.106c.134.155.266.316.422.51l.039.05.013.017.112.137c.17.213.323.413.468.604.035.049.073.1.105.15l.138.188c.038.048.074.1.106.148 0 0 .019.028.029.04 1.06-3.292 1.038-6.095-.07-7.908-.754-1.233-1.993-2.008-3.682-2.3-.628-.108-1.243-.209-1.82-.3-.233-.036-.46-.076-.679-.11-4.35-.695-8.105-1.302-11.709-3.683-4.113-2.72-7.999-2.618-11.882.319.67.046 1.323.091 1.935.155l.116.012.08.01q.986.1 1.877.218l.163.021c.638.088 1.25.188 1.814.289l.128.027c.621.112 1.208.237 1.749.358l.093.022c.596.14 1.16.282 1.691.437l.052.012c.573.167 1.12.337 1.63.516.513.18 1.038.377 1.535.586l.051.022c.468.19.935.407 1.397.634l.029.012s.019.007.025.013l-.006-.003Zm34.749 11.029v6.2q0 .071.028.138a.4.4 0 0 0 .079.12.35.35 0 0 0 .261.104h4.575a3.04 3.04 0 0 0 3.045-3.036v-.78a3.11 3.11 0 0 0-3.108-3.108h-4.518a.36.36 0 0 0-.255.107.37.37 0 0 0-.107.255M64 32.992V14.027q0-.11.04-.208a.51.51 0 0 1 .294-.293.6.6 0 0 1 .208-.041h6.902a6.16 6.16 0 0 1 4.351 1.798 6.16 6.16 0 0 1 1.804 4.352v.166a6.225 6.225 0 0 1-6.225 6.226h-4.203a.36.36 0 0 0-.255.107.37.37 0 0 0-.107.255v6.606a.546.546 0 0 1-.545.545h-1.72a.53.53 0 0 1-.383-.16.56.56 0 0 1-.161-.388m21.267-6.376 3.278-6.931a.33.33 0 0 1 .293-.186q.094 0 .173.05a.33.33 0 0 1 .12.136l3.258 6.905a.304.304 0 0 1-.129.397.3.3 0 0 1-.144.038H85.53a.27.27 0 0 1-.138-.035.26.26 0 0 1-.104-.097.28.28 0 0 1-.016-.277h-.006Zm10.703 6.917h1.965a.506.506 0 0 0 .456-.714l-8.88-19.05a.5.5 0 0 0-.456-.29h-.413a.47.47 0 0 0-.26.079.5.5 0 0 0-.18.207l-9.003 19.05a.55.55 0 0 0-.047.246.45.45 0 0 0 .079.236.5.5 0 0 0 .425.233h2.034a.5.5 0 0 0 .453-.29l1.521-3.211a.52.52 0 0 1 .454-.287h9.446a.49.49 0 0 1 .444.287l1.515 3.212a.51.51 0 0 0 .447.29zm16.137 0h2.346a.31.31 0 0 0 .265-.144.3.3 0 0 0 .047-.148.3.3 0 0 0-.028-.151l-4.248-9.51a.96.96 0 0 1 0-.793l3.879-8.653a.454.454 0 0 0-.198-.592.44.44 0 0 0-.221-.057h-1.996a.46.46 0 0 0-.425.287l-2.648 6.379a.24.24 0 0 1-.221.157.23.23 0 0 1-.22-.157l-2.632-6.373a.5.5 0 0 0-.17-.214.45.45 0 0 0-.262-.079h-1.974a.5.5 0 0 0-.233.057.484.484 0 0 0-.208.627l3.854 8.636a.94.94 0 0 1 0 .788l-4.276 9.509a.32.32 0 0 0 .019.3.3.3 0 0 0 .261.144h2.349a.33.33 0 0 0 .177-.053.34.34 0 0 0 .116-.142l2.985-7.139a.25.25 0 0 1 .082-.097.23.23 0 0 1 .239 0 .23.23 0 0 1 .082.098l2.973 7.125c.022.06.063.107.113.145a.3.3 0 0 0 .176.054zm17.36-17.759a7.73 7.73 0 0 0-3.814 1.052 7.7 7.7 0 0 0-2.786 2.805 7.9 7.9 0 0 0-1.011 3.955 7.58 7.58 0 0 0 4.685 7.075c.929.385 1.921.58 2.926.58a7.74 7.74 0 0 0 3.895-1.02 7.3 7.3 0 0 0 2.786-2.784 7.84 7.84 0 0 0 1.002-3.939 7.7 7.7 0 0 0-1.002-3.895 7.5 7.5 0 0 0-2.821-2.78 7.7 7.7 0 0 0-3.864-1.04v-.009zm.072 18.241c-2.95 0-5.479-1.026-7.51-3.048a10.05 10.05 0 0 1-3.064-7.374 10.7 10.7 0 0 1 1.395-5.338A10.31 10.31 0 0 1 129.382 13c3.01 0 5.567 1.02 7.601 3.032s3.064 4.525 3.064 7.47a10.5 10.5 0 0 1-.781 4.033 10.5 10.5 0 0 1-2.277 3.42 10.35 10.35 0 0 1-3.419 2.276 10.4 10.4 0 0 1-4.031.784m20.411 0a6.14 6.14 0 0 1-3.414-1.004c-1.001-.665-1.933-1.76-2.764-3.278a.46.46 0 0 1 .163-.614l1.628-.976a.45.45 0 0 1 .356-.047.44.44 0 0 1 .28.22c1.055 1.94 2.252 2.922 3.565 2.922a3.4 3.4 0 0 0 1.596-.394 2.7 2.7 0 0 0 1.109-1.032c.248-.413.381-.888.377-1.37a2.8 2.8 0 0 0-.566-1.625c-.567-.806-1.638-1.807-3.181-2.97-1.65-1.243-2.663-2.128-3.073-2.71a5.25 5.25 0 0 1-1.108-3.196 4.9 4.9 0 0 1 .664-2.507 4.75 4.75 0 0 1 1.858-1.791 5.4 5.4 0 0 1 2.585-.643 5.5 5.5 0 0 1 2.758.73c.851.486 1.71 1.333 2.633 2.592a.46.46 0 0 1-.091.636l-1.553 1.184a.45.45 0 0 1-.51.029.4.4 0 0 1-.132-.12c-.68-.904-1.26-1.499-1.71-1.776a2.73 2.73 0 0 0-1.423-.39 2.16 2.16 0 0 0-1.578.576 1.8 1.8 0 0 0-.447.636c-.101.242-.151.5-.145.765 0 .353.076.702.221 1.023.214.428.503.813.853 1.137.157.151.708.605 2.421 1.867s2.869 2.374 3.521 3.385c.63.92.976 2.006.998 3.12a5.32 5.32 0 0 1-1.719 3.945 5.8 5.8 0 0 1-1.918 1.257 5.8 5.8 0 0 1-2.254.413z" clip-rule="evenodd"/><path fill="#f3f5f0" d="M162 31.851c0 1.175-.923 2.097-2.126 2.097s-2.138-.922-2.138-2.097.948-2.072 2.138-2.072c1.191 0 2.126.923 2.126 2.072m-3.728 0c0 .923.683 1.657 1.618 1.657s1.581-.734 1.581-1.644-.671-1.67-1.593-1.67c-.923 0-1.606.747-1.606 1.657m1.275 1.087h-.482v-2.072c.189-.038.454-.063.797-.063.39 0 .57.063.721.15a.57.57 0 0 1 .201.454c0 .227-.176.403-.428.482v.025c.202.076.315.227.378.507.063.315.101.444.151.52h-.519c-.063-.076-.101-.265-.164-.507-.038-.227-.164-.328-.428-.328h-.227v.835zm.012-1.175h.227c.265 0 .482-.088.482-.302 0-.19-.139-.318-.444-.318-.126 0-.214.012-.265.025z"/></svg>