<svg width="98" height="26" viewBox="0 0 98 26" fill="none" xmlns="http://www.w3.org/2000/svg">
  <path d="M12.2342 0.0714111C5.47739 0.0714111 0 5.87631 0 13.0357C0 20.1951 5.47739 26 12.2342 26V0.0714111Z" fill="black"/>
  <g transform="translate(17, 0)">
    <path d="M74.7658 21.4573C78.5783 21.4573 80.9971 19.8974 80.9971 16.4413C80.9971 13.3185 79.1552 12.2617 75.3427 11.7586C73.6606 11.5354 73.0295 11.2585 73.0295 10.5619C73.0295 9.86535 73.555 9.41882 74.5802 9.41882C75.6597 9.41882 76.1594 9.89215 76.3422 10.8686H80.6031C80.2861 7.38562 77.9215 6.15915 74.5288 6.15915C71.3475 6.15915 68.6373 7.71903 68.6373 10.9519C68.6373 13.9883 70.188 15.1314 73.8691 15.6345C75.7625 15.9144 76.4193 16.2478 76.4193 16.9444C76.4193 17.6409 75.8939 18.1411 74.7373 18.1411C73.3951 18.1411 72.9495 17.5546 72.7925 16.4978H68.4545C68.5602 19.7307 70.8477 21.4573 74.7658 21.4573ZM62.3546 21.1239H67.0609V6.54912H62.3546V21.1239ZM64.6963 5.15594C66.1699 5.15594 67.3008 4.06938 67.3008 2.59286C67.3008 1.11633 66.1699 0 64.6963 0C63.2228 0 62.1204 1.11335 62.1204 2.59286C62.1204 4.07236 63.2256 5.15594 64.6963 5.15594ZM53.4474 17.6409C51.7368 17.6409 50.7116 16.3877 50.7116 13.9079V13.6847C50.7116 11.2317 51.7368 9.92192 53.4474 9.92192C55.158 9.92192 56.1575 11.1484 56.1575 13.7115V13.9347C56.1575 16.3311 55.2094 17.6409 53.4474 17.6409ZM55.1038 21.4573C58.3394 21.4573 60.941 18.9478 60.941 13.9318V13.7085C60.941 8.71926 58.3365 6.15617 55.1295 6.15617C53.0505 6.15617 51.6311 7.32608 50.8429 8.71926V0.139913H46.1366V21.1239H50.8429V18.8674C51.5255 20.4273 53.0505 21.4603 55.1038 21.4603M33.08 26H37.5778L44.94 6.54912H40.4422L37.812 14.3247L34.9705 6.54912H29.8701L35.3646 19.6474L33.0771 26.003L33.08 26ZM20.8658 21.4573C23.0762 21.4573 24.2842 20.4809 24.941 19.4241V21.1239H29.5159V11.6753C29.5159 7.80238 27.0971 6.15617 23.3103 6.15617C19.5236 6.15617 16.9476 7.88276 16.7363 11.3955H21.1542C21.2599 10.4756 21.7339 9.66888 23.0219 9.66888C24.5212 9.66888 24.8353 10.5887 24.8353 11.9819V12.3153H23.5217C18.9467 12.3153 16.2109 13.6519 16.2109 17.0813C16.2109 20.1743 18.3927 21.4573 20.8658 21.4573ZM22.4964 18.0875C21.3912 18.0875 20.8658 17.5576 20.8658 16.7211C20.8658 15.5214 21.7082 15.1314 23.6016 15.1314H24.8382V16.0215C24.8382 17.2748 23.8387 18.0845 22.4964 18.0845M0.278442 26H4.98477V18.9776C5.6673 20.4273 7.16659 21.4573 9.2456 21.4573C12.4812 21.4573 15.0828 18.9478 15.0828 13.9318V13.7085C15.0828 8.71926 12.4783 6.15617 9.2713 6.15617C7.19515 6.15617 5.77297 7.32608 4.98477 8.71926V6.54614H0.278442V25.997V26ZM7.58925 17.6409C5.87863 17.6409 4.85341 16.3877 4.85341 13.9079V13.6847C4.85341 11.2317 5.87863 9.92192 7.58925 9.92192C9.29986 9.92192 10.2994 11.1484 10.2994 13.7115V13.9347C10.2994 16.3311 9.35126 17.6409 7.58925 17.6409Z" fill="black"/>
  </g>
</svg>