<svg xmlns="http://www.w3.org/2000/svg" width="98" height="26" fill="none" viewBox="0 0 98 26"><path fill="#fff" d="M12.234.071C5.477.071 0 5.876 0 13.036S5.477 26 12.234 26zM91.766 21.457c3.812 0 6.231-1.56 6.231-5.016 0-3.122-1.842-4.18-5.654-4.682-1.682-.224-2.314-.5-2.314-1.197s.526-1.143 1.551-1.143c1.08 0 1.58.473 1.762 1.45h4.261c-.317-3.483-2.681-4.71-6.074-4.71-3.181 0-5.892 1.56-5.892 4.793 0 3.036 1.551 4.18 5.232 4.682 1.894.28 2.55.614 2.55 1.31s-.525 1.197-1.682 1.197c-1.342 0-1.787-.586-1.944-1.643h-4.339c.106 3.233 2.394 4.96 6.312 4.96m-12.411-.333h4.706V6.549h-4.706zm2.341-15.968c1.474 0 2.605-1.087 2.605-2.563S83.17 0 81.696 0 79.12 1.113 79.12 2.593s1.106 2.563 2.576 2.563M70.447 17.64c-1.71 0-2.735-1.253-2.735-3.733v-.223c0-2.453 1.025-3.763 2.735-3.763 1.711 0 2.71 1.226 2.71 3.79v.223c0 2.396-.948 3.706-2.71 3.706m1.657 3.816c3.235 0 5.837-2.51 5.837-7.525v-.223c0-4.99-2.605-7.553-5.811-7.553-2.08 0-3.499 1.17-4.287 2.563V.14h-4.706v20.985h4.706v-2.257c.682 1.56 2.207 2.593 4.26 2.593M50.08 26h4.498L61.94 6.55h-4.498l-2.63 7.775-2.841-7.776h-5.1l5.494 13.098-2.288 6.356zm-12.214-4.543c2.21 0 3.418-.976 4.075-2.033v1.7h4.575v-9.449c0-3.873-2.419-5.519-6.206-5.519-3.786 0-6.362 1.727-6.574 5.24h4.418c.106-.92.58-1.727 1.868-1.727 1.5 0 1.813.92 1.813 2.313v.333h-1.313c-4.575 0-7.311 1.337-7.311 4.766 0 3.093 2.182 4.376 4.655 4.376m1.63-3.37c-1.105 0-1.63-.53-1.63-1.366 0-1.2.842-1.59 2.736-1.59h1.236v.89c0 1.254-1 2.063-2.342 2.063M17.278 26h4.707v-7.022c.682 1.45 2.182 2.48 4.26 2.48 3.236 0 5.838-2.51 5.838-7.526v-.223c0-4.99-2.605-7.553-5.812-7.553-2.076 0-3.498 1.17-4.286 2.563V6.546h-4.707V26m7.311-8.36c-1.71 0-2.736-1.252-2.736-3.732v-.223c0-2.453 1.026-3.763 2.736-3.763s2.71 1.226 2.71 3.79v.223c0 2.396-.948 3.706-2.71 3.706"/></svg>