<svg xmlns="http://www.w3.org/2000/svg" id="Layer_1" data-name="Layer 1" viewBox="0 0 190.71 79.71"><defs><style>.cls-1{fill:#fff}.cls-3{fill:#fdba58}.cls-4{fill:#fcb858}</style></defs><title>payerurl logo</title><path d="M53.42 47.62a4.8 4.8 0 0 1-1.4 1.37 3 3 0 0 1-1.59.48 2.17 2.17 0 0 1-1.51-.61 4 4 0 0 1-1-1.76 9.4 9.4 0 0 1-2.44 1.63 6 6 0 0 1-2.43.54 4.36 4.36 0 0 1-3-1.08 3.49 3.49 0 0 1-1.2-2.71 4.74 4.74 0 0 1 2.11-3.91 21.2 21.2 0 0 1 7-2.86v-2.44a3.47 3.47 0 0 0-.77-2.42 2.8 2.8 0 0 0-2.18-.86 3.35 3.35 0 0 0-1.91.49 1.47 1.47 0 0 0-.71 1.28 2.8 2.8 0 0 0 .37 1.27 4 4 0 0 1 .37.83c0 .21-.31.47-.92.78a3.75 3.75 0 0 1-1.73.48c-.29 0-.53-.24-.74-.72a4.7 4.7 0 0 1-.3-1.8 3.43 3.43 0 0 1 1.95-2.94 9.5 9.5 0 0 1 4.94-1.18 5.53 5.53 0 0 1 3.75 1 4.46 4.46 0 0 1 1.12 3.43v9.07a3.2 3.2 0 0 0 .16 1.23.56.56 0 0 0 .54.35 2.4 2.4 0 0 0 .76-.13 5 5 0 0 0 .79-.37Zm-5.49-7.18a14.1 14.1 0 0 0-4.31 1.76 2.74 2.74 0 0 0-1.33 2.25 2 2 0 0 0 .71 1.61 2.55 2.55 0 0 0 1.79.64 3.5 3.5 0 0 0 1.66-.41 4.9 4.9 0 0 0 1.48-1.25ZM54.91 33.28v-1.51h7.52v1.51h-.22a2 2 0 0 0-1.16.31 1 1 0 0 0-.42.81 4 4 0 0 0 .19 1.11 11 11 0 0 0 .55 1.46l3.38 7.52 2.73-7.56c.18-.52.31-.92.37-1.17a2.5 2.5 0 0 0 .1-.62 1.64 1.64 0 0 0-.55-1.26 2.22 2.22 0 0 0-1.39-.6v-1.51h6.4v1.51a3.47 3.47 0 0 0-1.78.95 6.6 6.6 0 0 0-1.31 2.27l-5.06 13.08a19 19 0 0 1-2.79 5.39 4 4 0 0 1-3.09 1.42 3.55 3.55 0 0 1-2.16-.6 1.86 1.86 0 0 1-.82-1.57 1.82 1.82 0 0 1 .46-1.25 1.44 1.44 0 0 1 1.12-.53 2.23 2.23 0 0 1 1.33.68 2.24 2.24 0 0 0 1.31.68 2 2 0 0 0 1.59-1 9.9 9.9 0 0 0 1.33-2.9l.37-1.1-5.48-12.55c0-.11-.12-.26-.2-.45-.59-1.5-1.41-2.34-2.32-2.52M88.02 45.26a10.7 10.7 0 0 1-3.07 3.16 6.9 6.9 0 0 1-3.66 1 7.07 7.07 0 0 1-5.57-2.4 9.1 9.1 0 0 1-2.12-6.29 10 10 0 0 1 2.2-6.63 6.85 6.85 0 0 1 5.49-2.65 6.34 6.34 0 0 1 4.7 2 7.88 7.88 0 0 1 2.19 5.06h-9.62a4.3 4.3 0 0 0-1.47.14c-.17.1-.26.32-.26.67a7.74 7.74 0 0 0 1.64 4.92 4.85 4.85 0 0 0 3.89 2.08 6 6 0 0 0 2.35-.5 9.1 9.1 0 0 0 2.36-1.52Zm-11.19-8.35h7.32a4.26 4.26 0 0 0-1.08-2.77 3.34 3.34 0 0 0-2.51-1 3.12 3.12 0 0 0-2.33 1 5.86 5.86 0 0 0-1.4 2.77M89.87 49.06v-1.62a2.46 2.46 0 0 0 2.06-.76 4.83 4.83 0 0 0 .59-2.82v-8.58l-2.54-1.17v-1l4.93-1.62h.92v3a16 16 0 0 1 2.39-2.31 3.22 3.22 0 0 1 1.81-.75 2.88 2.88 0 0 1 1.9.73 2.16 2.16 0 0 1 .86 1.66 2.73 2.73 0 0 1-.59 1.64c-.39.53-.76.79-1.1.79s-.65-.32-1.16-.95-.92-1-1.27-1a2.18 2.18 0 0 0-1.42.64 7.1 7.1 0 0 0-1.42 1.86v7.66a3.32 3.32 0 0 0 .64 2.28 2.73 2.73 0 0 0 2.09.7 2 2 0 0 0 .31 0h.32v1.62ZM104.42 24.49v-1.51h10.87v1.51a4 4 0 0 0-2.56 1.08c-.43.53-.65 1.65-.65 3.38V40.8a6.68 6.68 0 0 0 1.63 4.87 6.44 6.44 0 0 0 4.81 1.66 7.5 7.5 0 0 0 3.08-.61 5.7 5.7 0 0 0 2.26-1.75 4.5 4.5 0 0 0 .89-1.89 19 19 0 0 0 .27-3.9v-9.27c0-2.2-.27-3.64-.8-4.31a3.76 3.76 0 0 0-3-1.1v-1.51h9.17v1.51a4 4 0 0 0-2.75 1.31c-.51.69-.76 2-.76 4.09v10.27a13.7 13.7 0 0 1-.4 3.79 7.2 7.2 0 0 1-1.33 2.4 8.36 8.36 0 0 1-3.3 2.41 11.9 11.9 0 0 1-4.54.81q-4.76 0-7.06-2.24t-2.31-6.83v-11.6c0-1.72-.24-2.85-.71-3.41a4.2 4.2 0 0 0-2.81-1.01M132.93 49.06v-1.62a4.06 4.06 0 0 0 2.64-1.09 4.84 4.84 0 0 0 .74-3.09V28.98c0-1.91-.22-3.1-.67-3.57a4.54 4.54 0 0 0-2.71-.92v-1.51h9.13q5.46 0 8.14 1.63a5.36 5.36 0 0 1 2.69 4.93 5.9 5.9 0 0 1-1.61 4.26 9.3 9.3 0 0 1-4.81 2.4c.52.42 1 .85 1.46 1.29s.87.89 1.24 1.33l5.27 6.22.11.13c1.27 1.51 2.24 2.27 2.91 2.27h.07v1.62h-4.89l-8.22-9.88a12.7 12.7 0 0 0-2.13-2.15 2.8 2.8 0 0 0-1.52-.46h-.36v6.55a5.55 5.55 0 0 0 .66 3.26 3.72 3.72 0 0 0 2.57 1V49Zm7.55-14.27a9 9 0 0 0 .88.1h1.14a6.37 6.37 0 0 0 4.4-1.43 4.93 4.93 0 0 0 1.6-3.88 4.57 4.57 0 0 0-1.66-3.67 6.55 6.55 0 0 0-4.38-1.41 3.4 3.4 0 0 0-1.6.25c-.25.16-.38.55-.38 1.16v8.86ZM159.38 49.06v-1.62a4 4 0 0 0 2.8-.87 3.68 3.68 0 0 0 .84-2.71V27.69a3.12 3.12 0 0 0-.83-2.44 4.4 4.4 0 0 0-2.81-.76v-1.51h11.57v1.51a4.1 4.1 0 0 0-2.8.82 3.08 3.08 0 0 0-.92 2.45v15.5c0 1.72.34 2.86 1 3.43s2.07.85 4.17.85a10.6 10.6 0 0 0 5.52-1.3 8.44 8.44 0 0 0 3.35-4l1.65.45-1.58 6.41ZM74.46 51.64l.28 2.45h-.28a3.3 3.3 0 0 0-1.09-1.38 4.2 4.2 0 0 0-2.47-.67 4 4 0 0 0-3.13 1.18 3.4 3.4 0 0 0-.9 2.36 3.63 3.63 0 0 0 .6 2 3.54 3.54 0 0 0 1.56 1.34 4.7 4.7 0 0 0 2 .43 5.4 5.4 0 0 0 1.15-.11 6 6 0 0 0 1.08-.32v-2.25a1.5 1.5 0 0 0-.13-.76.8.8 0 0 0-.38-.28 3.1 3.1 0 0 0-.91-.09v-.22h4.17v.22h-.2a1 1 0 0 0-.85.3 1.55 1.55 0 0 0-.16.83v2.38a10.5 10.5 0 0 1-1.8.53 11 11 0 0 1-2 .16 6.93 6.93 0 0 1-4.74-1.44 3.28 3.28 0 0 1-1.21-2.5 3.33 3.33 0 0 1 .68-2 5.13 5.13 0 0 1 2.22-1.72 7.3 7.3 0 0 1 2.8-.5 7 7 0 0 1 1.07.07 13 13 0 0 1 1.36.3 3 3 0 0 0 .6.12.33.33 0 0 0 .25-.1.53.53 0 0 0 .13-.39ZM77.95 56.32a2.25 2.25 0 0 0 .79 1.83 2.8 2.8 0 0 0 1.87.67 2.6 2.6 0 0 0 1.24-.28 2.2 2.2 0 0 0 .88-1l.25.12a2.5 2.5 0 0 1-1 1.43 3.08 3.08 0 0 1-2 .64 3.5 3.5 0 0 1-2.24-.73 2.39 2.39 0 0 1-.93-2 2.54 2.54 0 0 1 .95-2.11 3.78 3.78 0 0 1 2.4-.75 3.26 3.26 0 0 1 2 .58 1.84 1.84 0 0 1 .79 1.56Zm0-.33h3.37a1.6 1.6 0 0 0-.17-.71 1.3 1.3 0 0 0-.59-.51 1.9 1.9 0 0 0-.82-.18 2 2 0 0 0-1.18.37 1.42 1.42 0 0 0-.61 1.03M86.06 52.61v1.73h1.7v.4h-1.7v3.41a.93.93 0 0 0 .2.69.76.76 0 0 0 .52.17 1.1 1.1 0 0 0 .51-.11.86.86 0 0 0 .38-.35h.31a1.85 1.85 0 0 1-.78.85 2.1 2.1 0 0 1-1.05.28 1.9 1.9 0 0 1-.72-.15 1 1 0 0 1-.51-.41 1.7 1.7 0 0 1-.17-.84v-3.54h-1.11v-.19a3.1 3.1 0 0 0 .89-.42 3.8 3.8 0 0 0 .82-.72 6 6 0 0 0 .51-.8ZM95.36 55.91v2.27c0 .49.08.79.22.91a1.4 1.4 0 0 0 .92.25h.41v.21H92.3v-.21h.4a1.3 1.3 0 0 0 1-.32 1.47 1.47 0 0 0 .16-.84v-5c0-.49-.07-.79-.22-.91a1.4 1.4 0 0 0-.92-.25h-.4v-.21h3.94a9.7 9.7 0 0 1 2.28.21 3.4 3.4 0 0 1 1.41.73 1.57 1.57 0 0 1 .57 1.21 1.82 1.82 0 0 1-.87 1.55 4.4 4.4 0 0 1-2.46.59 8 8 0 0 1-.84 0 10 10 0 0 1-.99-.19m0-.32.75.08h.55a2.27 2.27 0 0 0 1.43-.46 1.45 1.45 0 0 0 .6-1.2 1.65 1.65 0 0 0-.29-.93 1.7 1.7 0 0 0-.81-.65 3 3 0 0 0-1.19-.22 7 7 0 0 0-1 .11ZM105.7 58.84c-.75.41-1.21.65-1.4.72a2.8 2.8 0 0 1-.92.14 2 2 0 0 1-1.24-.37 1.17 1.17 0 0 1-.49-1 1 1 0 0 1 .24-.67 3 3 0 0 1 1.13-.73 22 22 0 0 1 2.68-.84v-.18a1.35 1.35 0 0 0-.34-1.08 1.5 1.5 0 0 0-1-.29 1.4 1.4 0 0 0-.79.19.55.55 0 0 0-.3.45v.33a.48.48 0 0 1-.19.41.78.78 0 0 1-.48.14.73.73 0 0 1-.48-.15.47.47 0 0 1-.19-.4c0-.33.23-.64.7-.91a3.8 3.8 0 0 1 2-.41 4.5 4.5 0 0 1 1.59.23 1.3 1.3 0 0 1 .69.56 2.4 2.4 0 0 1 .14 1v1.78a5.4 5.4 0 0 0 0 .92.4.4 0 0 0 .13.23.36.36 0 0 0 .21.05.6.6 0 0 0 .23 0 4 4 0 0 0 .64-.41v.32a2.55 2.55 0 0 1-1.7.86.92.92 0 0 1-.62-.2.87.87 0 0 1-.24-.69m0-.38v-2c-.8.23-1.31.39-1.55.49a2.4 2.4 0 0 0-.89.53.83.83 0 0 0-.27.6.85.85 0 0 0 .34.69 1.2 1.2 0 0 0 .78.27 3.4 3.4 0 0 0 1.59-.58M111.31 54.19v4.22a1.35 1.35 0 0 0 .1.65.6.6 0 0 0 .29.25 2.2 2.2 0 0 0 .71.08v.2h-3.53v-.2a2.2 2.2 0 0 0 .71-.08.62.62 0 0 0 .29-.24 1.4 1.4 0 0 0 .11-.66v-2a5 5 0 0 0-.07-1.1.44.44 0 0 0-.18-.26.6.6 0 0 0-.32-.07 2 2 0 0 0-.54.09l-.11-.21 2.19-.64Zm-.66-2.75a1 1 0 0 1 .57.17.48.48 0 0 1 0 .82 1 1 0 0 1-1.14 0 .49.49 0 0 1-.24-.41.5.5 0 0 1 .23-.41 1 1 0 0 1 .57-.17ZM118.46 59a4 4 0 0 1-1 .58 3.2 3.2 0 0 1-1.09.17 3.24 3.24 0 0 1-2.08-.71 2.29 2.29 0 0 1-.89-1.85 2.82 2.82 0 0 1 1-2.07 3.5 3.5 0 0 1 2.54-.94 2.74 2.74 0 0 1 1.59.44v-1a5.6 5.6 0 0 0-.06-1.1.5.5 0 0 0-.19-.29.8.8 0 0 0-.32-.07 2.3 2.3 0 0 0-.55.09l-.1-.2 2.17-.64h.36v6.07a6 6 0 0 0 .06 1.13.46.46 0 0 0 .19.28.5.5 0 0 0 .3.08 2.4 2.4 0 0 0 .57-.09l.09.2-2.16.64h-.36Zm0-.4v-2.69a1.6 1.6 0 0 0-.29-.71 1.5 1.5 0 0 0-.63-.48 2 2 0 0 0-.77-.16 1.94 1.94 0 0 0-1.25.45 2.14 2.14 0 0 0-.72 1.74 2.27 2.27 0 0 0 .7 1.78 2.3 2.3 0 0 0 1.56.61 2.25 2.25 0 0 0 1.4-.54M134.99 51.64l.28 2.45h-.28a3.3 3.3 0 0 0-1.09-1.38 4.2 4.2 0 0 0-2.47-.67 4 4 0 0 0-3.13 1.18 3.4 3.4 0 0 0-.89 2.36 3.6 3.6 0 0 0 .59 2 3.54 3.54 0 0 0 1.56 1.34 4.8 4.8 0 0 0 2 .43 5.6 5.6 0 0 0 1.16-.11 5.7 5.7 0 0 0 1.07-.32v-2.25a1.4 1.4 0 0 0-.15-.76.8.8 0 0 0-.38-.28 3.1 3.1 0 0 0-.91-.09v-.22h4.17v.22h-.2a1 1 0 0 0-.85.3 1.57 1.57 0 0 0-.15.83v2.38a10.6 10.6 0 0 1-1.81.53 11 11 0 0 1-2 .16 6.94 6.94 0 0 1-4.75-1.44 3.28 3.28 0 0 1-1.21-2.5 3.33 3.33 0 0 1 .68-2 5.1 5.1 0 0 1 2.23-1.72 7.2 7.2 0 0 1 2.79-.5 7 7 0 0 1 1.07.07 13 13 0 0 1 1.36.3 3 3 0 0 0 .6.12.37.37 0 0 0 .26-.1.63.63 0 0 0 .13-.39ZM139.76 51.44v7a1.5 1.5 0 0 0 .1.65.58.58 0 0 0 .31.24 2.2 2.2 0 0 0 .77.09v.2h-3.57v-.2a2.1 2.1 0 0 0 .69-.08.6.6 0 0 0 .28-.24 1.45 1.45 0 0 0 .1-.66v-4.77a6 6 0 0 0-.05-1.1.5.5 0 0 0-.18-.28.7.7 0 0 0-.31-.07 2 2 0 0 0-.53.09l-.13-.2 2.17-.64ZM145.34 54.19a3.82 3.82 0 0 1 2.65.9 2.34 2.34 0 0 1 .85 1.78 2.64 2.64 0 0 1-.47 1.43 2.94 2.94 0 0 1-1.29 1.09 4.5 4.5 0 0 1-1.83.36 3.57 3.57 0 0 1-2.61-.94 2.43 2.43 0 0 1-.82-1.79 2.54 2.54 0 0 1 .5-1.44 2.9 2.9 0 0 1 1.3-1 4.3 4.3 0 0 1 1.72-.39m-.25.37a2.1 2.1 0 0 0-.84.18 1.4 1.4 0 0 0-.69.63 2.3 2.3 0 0 0-.26 1.17 3.2 3.2 0 0 0 .63 2 2 2 0 0 0 1.66.83 1.82 1.82 0 0 0 1.27-.46 2.05 2.05 0 0 0 .5-1.58 2.9 2.9 0 0 0-.83-2.2 2 2 0 0 0-1.44-.57M151.91 55.25a3.16 3.16 0 0 1 2.28-1.06 3 3 0 0 1 1.95.69 2.31 2.31 0 0 1 .83 1.89 2.61 2.61 0 0 1-1.28 2.25 4.37 4.37 0 0 1-2.47.73 5.3 5.3 0 0 1-1.29-.16 7 7 0 0 1-1.33-.5v-5.44a5.6 5.6 0 0 0-.06-1.1.5.5 0 0 0-.19-.29.7.7 0 0 0-.32-.07 2.2 2.2 0 0 0-.55.09l-.11-.2 2.18-.64h.36Zm0 .36v3.15a3.5 3.5 0 0 0 .83.43 2.7 2.7 0 0 0 .89.15 2 2 0 0 0 1.35-.58 2.17 2.17 0 0 0 .62-1.67 2 2 0 0 0-.62-1.55 2.12 2.12 0 0 0-1.42-.54 2.3 2.3 0 0 0-.84.16 3.1 3.1 0 0 0-.81.45M162.17 58.84a16 16 0 0 1-1.41.72 2.7 2.7 0 0 1-.91.14 2 2 0 0 1-1.24-.37 1.17 1.17 0 0 1-.49-1 1 1 0 0 1 .23-.67 3.1 3.1 0 0 1 1.14-.73 21 21 0 0 1 2.68-.84v-.18a1.35 1.35 0 0 0-.35-1.08 1.47 1.47 0 0 0-1-.29 1.44 1.44 0 0 0-.8.19.55.55 0 0 0-.3.45v.33a.5.5 0 0 1-.19.41.8.8 0 0 1-.49.14.76.76 0 0 1-.48-.15.5.5 0 0 1-.19-.4c0-.33.24-.64.7-.91a3.85 3.85 0 0 1 2-.41 4.4 4.4 0 0 1 1.58.23 1.22 1.22 0 0 1 .69.56 2.2 2.2 0 0 1 .15 1v1.78a5.4 5.4 0 0 0 0 .92.34.34 0 0 0 .13.23.36.36 0 0 0 .21.05.5.5 0 0 0 .22 0 3.4 3.4 0 0 0 .64-.41v.32a2.55 2.55 0 0 1-1.7.86.9.9 0 0 1-.61-.2.81.81 0 0 1-.21-.69m0-.38v-2c-.8.23-1.32.39-1.55.49a2.6 2.6 0 0 0-.9.53.83.83 0 0 0-.27.6.85.85 0 0 0 .34.69 1.24 1.24 0 0 0 .79.27 3.4 3.4 0 0 0 1.59-.58M167.77 51.44v7a1.35 1.35 0 0 0 .1.65.53.53 0 0 0 .3.24 2.2 2.2 0 0 0 .77.09v.2h-3.56v-.2a2 2 0 0 0 .68-.08.55.55 0 0 0 .28-.24 1.4 1.4 0 0 0 .11-.66v-4.77a5.6 5.6 0 0 0-.06-1.1.45.45 0 0 0-.18-.28.7.7 0 0 0-.31-.07 2 2 0 0 0-.52.09l-.14-.2 2.17-.64ZM172.28 51.44v7a1.5 1.5 0 0 0 .1.65.58.58 0 0 0 .31.24 2.2 2.2 0 0 0 .77.09v.2h-3.57v-.2a2 2 0 0 0 .69-.08.6.6 0 0 0 .28-.24 1.4 1.4 0 0 0 .11-.66v-4.77a5.6 5.6 0 0 0-.06-1.1.5.5 0 0 0-.18-.28.7.7 0 0 0-.31-.07 2 2 0 0 0-.53.09l-.13-.2 2.17-.64ZM173.89 54.34h3.39v.21h-.17a1 1 0 0 0-.53.11.34.34 0 0 0-.18.28 1.3 1.3 0 0 0 .26.62l1.77 2.65 1.63-2.9a.9.9 0 0 0 .13-.46.19.19 0 0 0-.05-.16.5.5 0 0 0-.2-.1 2.3 2.3 0 0 0-.48 0v-.21h2.37v.21a1.8 1.8 0 0 0-.45.09 1.4 1.4 0 0 0-.35.26 3 3 0 0 0-.27.44l-3 5.25a3 3 0 0 1-1.13 1.15 2.73 2.73 0 0 1-1.34.39 1.4 1.4 0 0 1-.77-.2.55.55 0 0 1-.3-.44.45.45 0 0 1 .22-.39 1.07 1.07 0 0 1 .6-.15 3 3 0 0 1 .71.13 2.4 2.4 0 0 0 .4.09 1 1 0 0 0 .52-.18 1.9 1.9 0 0 0 .57-.69l.52-.91-2.62-4a4 4 0 0 0-.38-.44 2 2 0 0 0-.32-.27 2.6 2.6 0 0 0-.59-.16Z" class="cls-1"/><path d="M30.3 40.83a1.25 1.25 0 0 1 .89.07 4.6 4.6 0 0 1 1.37 1 20 20 0 0 1 2 2.37c.55.74 1.07 1.5 1.58 2.27a.6.6 0 0 1 .07.23l7.32 3.79a.32.32 0 0 1 .14.14q2.72 4.31 5.42 8.6a4.75 4.75 0 0 1 .68 3.21 3.86 3.86 0 0 1-1.29 2.35 6 6 0 0 1-.79.54l-3.72 2.34a3.75 3.75 0 0 1-2.68.42 4.64 4.64 0 0 1-2.88-2c-.2-.3-.38-.6-.58-.9l-4.91-7.81a.34.34 0 0 1-.07-.19l-.26-8.54a10.8 10.8 0 0 1-2.07-3.05 10 10 0 0 1-.83-2.61 3.4 3.4 0 0 1 .07-1.61 1 1 0 0 1 .54-.62m.11 1.23a4.7 4.7 0 0 0 .14 1.4 10.4 10.4 0 0 0 .92 2.4 10 10 0 0 0 1.1 1.71c0-.72 0-1.43-.06-2.15a.38.38 0 0 1 .54-.33l1.92 1c-.56-.83-1.14-1.64-1.77-2.41a14 14 0 0 0-1.26-1.37 4 4 0 0 0-.88-.64.46.46 0 0 0-.44 0 .55.55 0 0 0-.21.39m2.94 6.15v.21a8 8 0 0 0 .65.52 2.3 2.3 0 0 1 1-.82 2.2 2.2 0 0 1 1.54 0 2.18 2.18 0 0 1 1.18.93 2.22 2.22 0 0 1-.28 2.69 2.2 2.2 0 0 1-1.34.67 2.25 2.25 0 0 1-1.43-.31 2.24 2.24 0 0 1-1-2.44 4 4 0 0 1-.34-.23l.24 7.67c0 .08.05.15.1.22q2.65 4.22 5.32 8.44a3.9 3.9 0 0 0 2.43 1.67 3.06 3.06 0 0 0 1.84-.17 5.4 5.4 0 0 0 .73-.43l3.1-1.95a5.5 5.5 0 0 0 1-.74 3.26 3.26 0 0 0 .91-2.39 4 4 0 0 0-.36-1.84c-.18-.33-.39-.63-.59-.95q-1.85-2.93-3.68-5.85c-.41-.64-.81-1.29-1.23-1.93-.27-.16-.56-.29-.84-.44l-9-4.65c0 .68.03 1.4.05 2.12m1.45 3a1.49 1.49 0 0 0 1.22.44 1.46 1.46 0 1 0-1.33-2.32 3.4 3.4 0 0 0 1.34.32.5.5 0 0 1 .33.08.38.38 0 0 1 .09.51.39.39 0 0 1-.31.17 4.3 4.3 0 0 1-1.73-.38 1.5 1.5 0 0 0 .39 1.15Z" class="cls-1"/><path d="M39.76 55.26a3.64 3.64 0 1 1-1.64 5.31 3.64 3.64 0 0 1 1.64-5.31m-1.39 4a2.9 2.9 0 0 0 2.61 2.26 2.89 2.89 0 0 0 1.66-5.37 2.93 2.93 0 0 0-2.07-.33 2.88 2.88 0 0 0-2.07 1.76 2.84 2.84 0 0 0-.13 1.65Z" class="cls-1"/><path d="m40.09 57.2.18-.11.09.14a1.3 1.3 0 0 1 .43-.13.8.8 0 0 1 .77 1 1.34 1.34 0 0 1-.34.53c.2.32.39.64.6 1a.6.6 0 0 0 .17-.29.86.86 0 0 0-.08-.52l.33-.13a1 1 0 0 1 .11.66 1.05 1.05 0 0 1-.38.53l.19.29-.17.11c-.07-.1-.13-.2-.19-.3a.87.87 0 0 1-.83 0 .86.86 0 0 1-.45-.95 1.3 1.3 0 0 1 .36-.54l-.54-.86a.46.46 0 0 0-.15.26.6.6 0 0 0 0 .35l-.33.15a.87.87 0 0 1-.06-.55.84.84 0 0 1 .33-.46Zm.42.27c.17.28.35.56.53.84a.67.67 0 0 0 .18-.39.48.48 0 0 0-.39-.49.7.7 0 0 0-.32.04m.34 1.74a.57.57 0 0 0 .49.49.6.6 0 0 0 .3 0l-.58-.92a.73.73 0 0 0-.21.43" class="cls-1"/><path d="M149.62 162.8c.28.15.57.28.84.44.42.64.82 1.29 1.23 1.93q1.83 2.93 3.68 5.85c.2.32.41.62.59.95a4 4 0 0 1 .49 1.83 3.26 3.26 0 0 1-.91 2.39 5.5 5.5 0 0 1-1 .74l-3.1 1.95a5.4 5.4 0 0 1-.73.43 3.06 3.06 0 0 1-1.84.17 3.9 3.9 0 0 1-2.43-1.67q-2.67-4.22-5.32-8.44c-.05-.07-.11-.14-.1-.22l-.24-7.67a4 4 0 0 0 .34.23 2.21 2.21 0 0 0 2.41 2.75 2.2 2.2 0 0 0 1.34-.67 2.22 2.22 0 0 0 .28-2.69 2.18 2.18 0 0 0-1.18-.93 2.2 2.2 0 0 0-1.54 0 2.3 2.3 0 0 0-1 .82 8 8 0 0 1-.65-.52v-.21c0-.72-.05-1.44-.07-2.15Zm-4.14 9.86a3.64 3.64 0 1 0-.34-3.25 3.63 3.63 0 0 0 .34 3.25" style="fill:#00bdf2" transform="translate(-107.36 -112.09)"/><path d="M40.57 55.79a2.88 2.88 0 0 1 3.48 2.54 2.88 2.88 0 0 1-3.07 3.16 2.89 2.89 0 0 1-2.48-3.94 2.88 2.88 0 0 1 2.07-1.76m-.72 2a.87.87 0 0 0 .06.55l.33-.15a.6.6 0 0 1 0-.35.46.46 0 0 1 .15-.26l.54.86a1.3 1.3 0 0 0-.36.54.86.86 0 0 0 .45.95.87.87 0 0 0 .83 0c.06.1.12.2.19.3l.17-.11-.19-.29a1.05 1.05 0 0 0 .38-.53 1 1 0 0 0-.11-.66l-.33.13a.86.86 0 0 1 .08.52.6.6 0 0 1-.17.29c-.21-.32-.4-.64-.6-1a1.34 1.34 0 0 0 .34-.53.8.8 0 0 0-.77-1 1.3 1.3 0 0 0-.43.13l-.09-.14-.18.11.09.14a.84.84 0 0 0-.38.51Z" class="cls-3"/><path d="M40.83 57.43a.7.7 0 0 0-.32 0c.17.28.35.56.53.84a.67.67 0 0 0 .18-.39.48.48 0 0 0-.39-.45M41.06 58.74a.73.73 0 0 0-.21.47.57.57 0 0 0 .49.49.6.6 0 0 0 .3 0Z" class="cls-4"/><path d="M18.2 43.22v.27c0 2.58-.07 5.17-.06 7.76a11.6 11.6 0 0 0 .49 3.51 6 6 0 0 0 .24.6 1.34 1.34 0 0 0 1.73.8 5.3 5.3 0 0 1 .89-.15c.44 0 .63.31.35.67a4.2 4.2 0 0 1-.93.9 5.8 5.8 0 0 1-3.62 1 2.3 2.3 0 0 1-2.07-2c-.13-1.21-.26-2.44-.28-3.66 0-1.79 0-3.59.07-5.39 0-1.26.13-2.52.2-3.78v-.43a8.4 8.4 0 0 0-5.8 2.83.57.57 0 0 1-.67.17c-.25-.08-.26-.32-.12-.54a10.6 10.6 0 0 1 3.5-3.58 10.1 10.1 0 0 1 3.17-1.2 5 5 0 0 0 .06-.52l.14-15.08a6 6 0 0 0-.07-1c0-.22-.13-.56-.28-.6a.89.89 0 0 0-1 .14c-.78.72-1.56 1.46-2.37 2.14a5.75 5.75 0 0 1-2.4 1.24 2.94 2.94 0 0 1-3.54-1.88 4.67 4.67 0 0 1 .26-3.73 5.64 5.64 0 0 1 1.78-2.21 2.5 2.5 0 0 1 .57-.19 5 5 0 0 1-.1.74 6.8 6.8 0 0 0-.63 2.58 2.39 2.39 0 0 0 2.71 2.26 6.9 6.9 0 0 0 3.2-1.66c1.12-.93 2.23-1.87 3.36-2.78.71-.57 1.07-.45 1.24.44a16.5 16.5 0 0 1 .35 2.88c0 2.46-.07 4.93-.11 7.4 0 .85-.06 1.7-.08 2.55 0 2.17-.11 4.34-.16 6.52v.26h.19a24.8 24.8 0 0 1 6 .83c1.57.33 3.13.72 4.71 1a4 4 0 0 0 3.17-1 11.3 11.3 0 0 0 2.65-3.65 17.2 17.2 0 0 0 2-6.35 16.94 16.94 0 0 0-2.44-11.42 6.87 6.87 0 0 0-3.74-3 4.8 4.8 0 0 0-5.45 1.66 12.83 12.83 0 0 0-2.67 6.34 17 17 0 0 0 2.23 11.27c.46.77.36 1.33-.39 2.2-.6.69-.86.65-1.27-.18a18.4 18.4 0 0 1-1.66-5.52 28 28 0 0 1-.15-6.35 16 16 0 0 1 1.38-5.78A17.2 17.2 0 0 1 25.22 17a11 11 0 0 1 2.85-2.46 5.63 5.63 0 0 1 4-.58c3 .53 5 2.46 6.36 5.07a12.24 12.24 0 0 1 1.4 6.69c-.09 1.36-.15 2.74-.33 4.09a17.5 17.5 0 0 1-2.38 6.67 24.6 24.6 0 0 1-4.75 5.85 9.65 9.65 0 0 1-4.49 2.41 7.5 7.5 0 0 1-3.17-.09c-1.41-.31-2.8-.73-4.21-1.06-.77-.17-1.52-.25-2.3-.37"/><rect width="187.71" height="76.71" x="1.5" y="1.5" rx="4.42" style="fill:none;stroke:#fdba58;stroke-miterlimit:10;stroke-width:3px"/><circle cx="8.84" cy="7.94" r="2.63" class="cls-3"/><circle cx="8.88" cy="7.94" r="1.34" class="cls-1"/><circle cx="180.74" cy="7.94" r="2.63" class="cls-3"/><circle cx="180.79" cy="7.94" r="1.34" class="cls-1"/><circle cx="180.74" cy="71.05" r="2.63" class="cls-3"/><circle cx="180.79" cy="71.05" r="1.34" class="cls-1"/><circle cx="8.74" cy="71.05" r="2.63" class="cls-3"/><circle cx="8.79" cy="71.05" r="1.34" class="cls-1"/></svg>