<?xml version="1.0" encoding="UTF-8"?> <svg xmlns="http://www.w3.org/2000/svg" id="Layer_1" data-name="Layer 1" viewBox="0 0 190.71 79.71"><defs><style>.cls-1{fill:#231f20;}.cls-2{fill:#00bdf2;}.cls-3{fill:#fdba58;}.cls-4{fill:#fcb858;}.cls-5{fill:none;stroke:#fdba58;stroke-miterlimit:10;stroke-width:3px;}</style></defs><title>payerurl logo</title><path class="cls-1" d="M160.78,159.71a4.77,4.77,0,0,1-1.4,1.37,3,3,0,0,1-1.59.48,2.17,2.17,0,0,1-1.51-.61,4,4,0,0,1-1-1.76,9.36,9.36,0,0,1-2.44,1.63,6,6,0,0,1-2.43.54,4.36,4.36,0,0,1-3-1.08,3.49,3.49,0,0,1-1.2-2.71,4.74,4.74,0,0,1,2.11-3.91,21.2,21.2,0,0,1,7-2.86v-2.44a3.47,3.47,0,0,0-.77-2.42,2.8,2.8,0,0,0-2.18-.86,3.35,3.35,0,0,0-1.91.49,1.47,1.47,0,0,0-.71,1.28,2.8,2.8,0,0,0,.37,1.27,3.93,3.93,0,0,1,.37.83c0,.21-.31.47-.92.78a3.75,3.75,0,0,1-1.73.48c-.29,0-.53-.24-.74-.72a4.7,4.7,0,0,1-.3-1.8,3.43,3.43,0,0,1,1.95-2.94,9.48,9.48,0,0,1,4.94-1.18,5.53,5.53,0,0,1,3.75,1,4.46,4.46,0,0,1,1.12,3.43v9.07a3.19,3.19,0,0,0,.16,1.23.56.56,0,0,0,.54.35,2.38,2.38,0,0,0,.76-.13,5.07,5.07,0,0,0,.79-.37Zm-5.49-7.18a14.1,14.1,0,0,0-4.31,1.76,2.74,2.74,0,0,0-1.33,2.25,2,2,0,0,0,.71,1.61,2.55,2.55,0,0,0,1.79.64,3.49,3.49,0,0,0,1.66-.41,4.91,4.91,0,0,0,1.48-1.25Z" transform="translate(-107.36 -112.09)"></path><path class="cls-1" d="M162.27,145.37v-1.51h7.52v1.51h-.22a2,2,0,0,0-1.16.31,1,1,0,0,0-.42.81,4,4,0,0,0,.19,1.11,10.84,10.84,0,0,0,.55,1.46l3.38,7.52,2.73-7.56c.18-.52.31-.92.37-1.17a2.51,2.51,0,0,0,.1-.62,1.64,1.64,0,0,0-.55-1.26,2.22,2.22,0,0,0-1.39-.6v-1.51h6.4v1.51a3.47,3.47,0,0,0-1.78.95,6.58,6.58,0,0,0-1.31,2.27l-5.06,13.08a19,19,0,0,1-2.79,5.39,4,4,0,0,1-3.09,1.42,3.55,3.55,0,0,1-2.16-.6,1.86,1.86,0,0,1-.82-1.57,1.82,1.82,0,0,1,.46-1.25,1.44,1.44,0,0,1,1.12-.53,2.23,2.23,0,0,1,1.33.68,2.24,2.24,0,0,0,1.31.68,2,2,0,0,0,1.59-1,9.87,9.87,0,0,0,1.33-2.9l.37-1.1-5.48-12.55c0-.11-.12-.26-.2-.45C164,146.39,163.18,145.55,162.27,145.37Z" transform="translate(-107.36 -112.09)"></path><path class="cls-1" d="M195.38,157.35a10.68,10.68,0,0,1-3.07,3.16,6.88,6.88,0,0,1-3.66,1,7.07,7.07,0,0,1-5.57-2.4,9.09,9.09,0,0,1-2.12-6.29,10,10,0,0,1,2.2-6.63,6.85,6.85,0,0,1,5.49-2.65,6.34,6.34,0,0,1,4.7,2,7.88,7.88,0,0,1,2.19,5.06h-9.62a4.34,4.34,0,0,0-1.47.14c-.17.1-.26.32-.26.67a7.74,7.74,0,0,0,1.64,4.92,4.85,4.85,0,0,0,3.89,2.08,6,6,0,0,0,2.35-.5,9.12,9.12,0,0,0,2.36-1.52ZM184.19,149h7.32a4.26,4.26,0,0,0-1.08-2.77,3.34,3.34,0,0,0-2.51-1,3.12,3.12,0,0,0-2.33,1A5.86,5.86,0,0,0,184.19,149Z" transform="translate(-107.36 -112.09)"></path><path class="cls-1" d="M197.23,161.15v-1.62a2.46,2.46,0,0,0,2.06-.76,4.83,4.83,0,0,0,.59-2.82v-8.58l-2.54-1.17v-1l4.93-1.62h.92v3a15.93,15.93,0,0,1,2.39-2.31,3.22,3.22,0,0,1,1.81-.75,2.88,2.88,0,0,1,1.9.73,2.16,2.16,0,0,1,.86,1.66,2.73,2.73,0,0,1-.59,1.64c-.39.53-.76.79-1.1.79s-.65-.32-1.16-.95-.92-1-1.27-1a2.18,2.18,0,0,0-1.42.64,7.12,7.12,0,0,0-1.42,1.86v7.66a3.32,3.32,0,0,0,.64,2.28,2.73,2.73,0,0,0,2.09.7,2,2,0,0,0,.31,0h.32v1.62Z" transform="translate(-107.36 -112.09)"></path><path class="cls-1" d="M211.78,136.58v-1.51h10.87v1.51a4,4,0,0,0-2.56,1.08c-.43.53-.65,1.65-.65,3.38v11.85a6.68,6.68,0,0,0,1.63,4.87,6.44,6.44,0,0,0,4.81,1.66,7.49,7.49,0,0,0,3.08-.61,5.71,5.71,0,0,0,2.26-1.75,4.48,4.48,0,0,0,.89-1.89,19.12,19.12,0,0,0,.27-3.9V142c0-2.2-.27-3.64-.8-4.31a3.76,3.76,0,0,0-3-1.1v-1.51h9.17v1.51A4,4,0,0,0,235,137.9c-.51.69-.76,2-.76,4.09v10.27a13.73,13.73,0,0,1-.4,3.79,7.16,7.16,0,0,1-1.33,2.4,8.36,8.36,0,0,1-3.3,2.41,11.86,11.86,0,0,1-4.54.81q-4.76,0-7.06-2.24t-2.31-6.83V141c0-1.72-.24-2.85-.71-3.41A4.21,4.21,0,0,0,211.78,136.58Z" transform="translate(-107.36 -112.09)"></path><path class="cls-1" d="M240.29,161.15v-1.62a4.06,4.06,0,0,0,2.64-1.09,4.84,4.84,0,0,0,.74-3.09V141.07c0-1.91-.22-3.1-.67-3.57a4.54,4.54,0,0,0-2.71-.92v-1.51h9.13q5.46,0,8.14,1.63a5.36,5.36,0,0,1,2.69,4.93,5.89,5.89,0,0,1-1.61,4.26,9.29,9.29,0,0,1-4.81,2.4c.52.42,1,.85,1.46,1.29s.87.89,1.24,1.33l5.27,6.22.11.13c1.27,1.51,2.24,2.27,2.91,2.27h.07v1.62H260l-8.22-9.88a12.69,12.69,0,0,0-2.13-2.15,2.82,2.82,0,0,0-1.52-.46l-.18,0-.18,0v6.55a5.55,5.55,0,0,0,.66,3.26,3.72,3.72,0,0,0,2.57,1v1.62Zm7.55-14.27a8.46,8.46,0,0,0,.88.1q.45,0,1.14,0a6.37,6.37,0,0,0,4.4-1.43,4.93,4.93,0,0,0,1.6-3.88A4.57,4.57,0,0,0,254.2,138a6.55,6.55,0,0,0-4.38-1.41,3.38,3.38,0,0,0-1.6.25c-.25.16-.38.55-.38,1.16v8.86Z" transform="translate(-107.36 -112.09)"></path><path class="cls-1" d="M266.74,161.15v-1.62a4,4,0,0,0,2.8-.87,3.68,3.68,0,0,0,.84-2.71V139.78a3.12,3.12,0,0,0-.83-2.44,4.39,4.39,0,0,0-2.81-.76v-1.51h11.57v1.51a4.11,4.11,0,0,0-2.8.82,3.08,3.08,0,0,0-.92,2.45v15.5c0,1.72.34,2.86,1,3.43s2.07.85,4.17.85a10.59,10.59,0,0,0,5.52-1.3,8.44,8.44,0,0,0,3.35-4l1.65.45-1.58,6.41Z" transform="translate(-107.36 -112.09)"></path><path class="cls-1" d="M181.82,163.73l.28,2.45h-.28a3.28,3.28,0,0,0-1.09-1.38,4.19,4.19,0,0,0-2.47-.67,4,4,0,0,0-3.13,1.18,3.39,3.39,0,0,0-.9,2.36,3.63,3.63,0,0,0,.6,2,3.54,3.54,0,0,0,1.56,1.34,4.74,4.74,0,0,0,2,.43,5.41,5.41,0,0,0,1.15-.11,5.82,5.82,0,0,0,1.08-.32v-2.25a1.52,1.52,0,0,0-.13-.76.81.81,0,0,0-.38-.28,3.1,3.1,0,0,0-.91-.09v-.22h4.17v.22h-.2a1,1,0,0,0-.85.3,1.55,1.55,0,0,0-.16.83v2.38a10.47,10.47,0,0,1-1.8.53,10.87,10.87,0,0,1-2,.16,6.93,6.93,0,0,1-4.74-1.44,3.28,3.28,0,0,1-1.21-2.5,3.33,3.33,0,0,1,.68-2,5.13,5.13,0,0,1,2.22-1.72,7.26,7.26,0,0,1,2.8-.5,7,7,0,0,1,1.07.07,12.82,12.82,0,0,1,1.36.3,3,3,0,0,0,.6.12.33.33,0,0,0,.25-.1.53.53,0,0,0,.13-.39Z" transform="translate(-107.36 -112.09)"></path><path class="cls-1" d="M185.31,168.41a2.25,2.25,0,0,0,.79,1.83,2.79,2.79,0,0,0,1.87.67,2.58,2.58,0,0,0,1.24-.28,2.19,2.19,0,0,0,.88-1l.25.12a2.51,2.51,0,0,1-1,1.43,3.08,3.08,0,0,1-2,.64,3.5,3.5,0,0,1-2.24-.73,2.39,2.39,0,0,1-.93-2,2.54,2.54,0,0,1,.95-2.11,3.78,3.78,0,0,1,2.4-.75,3.26,3.26,0,0,1,2,.58,1.84,1.84,0,0,1,.79,1.56Zm0-.33h3.37a1.61,1.61,0,0,0-.17-.71,1.29,1.29,0,0,0-.59-.51,1.92,1.92,0,0,0-.82-.18,2,2,0,0,0-1.18.37A1.42,1.42,0,0,0,185.31,168.08Z" transform="translate(-107.36 -112.09)"></path><path class="cls-1" d="M193.42,164.7v1.73h1.7v.4h-1.7v3.41a.93.93,0,0,0,.2.69.76.76,0,0,0,.52.17,1.12,1.12,0,0,0,.51-.11.86.86,0,0,0,.38-.35h.31a1.85,1.85,0,0,1-.78.85,2.12,2.12,0,0,1-1.05.28,1.86,1.86,0,0,1-.72-.15,1,1,0,0,1-.51-.41,1.7,1.7,0,0,1-.17-.84v-3.54H191v-.19a3.11,3.11,0,0,0,.89-.42,3.75,3.75,0,0,0,.82-.72,5.74,5.74,0,0,0,.51-.8Z" transform="translate(-107.36 -112.09)"></path><path class="cls-1" d="M202.72,168v2.27c0,.49.08.79.22.91a1.4,1.4,0,0,0,.92.25h.41v.21h-4.61v-.21h.4a1.3,1.3,0,0,0,1-.32,1.47,1.47,0,0,0,.16-.84v-5c0-.49-.07-.79-.22-.91a1.4,1.4,0,0,0-.92-.25h-.4v-.21h3.94a9.68,9.68,0,0,1,2.28.21,3.38,3.38,0,0,1,1.41.73,1.57,1.57,0,0,1,.57,1.21,1.82,1.82,0,0,1-.87,1.55,4.38,4.38,0,0,1-2.46.59,8.39,8.39,0,0,1-.84,0A9.48,9.48,0,0,1,202.72,168Zm0-.32.75.08.55,0a2.27,2.27,0,0,0,1.43-.46,1.45,1.45,0,0,0,.6-1.2,1.65,1.65,0,0,0-.29-.93,1.7,1.7,0,0,0-.81-.65,3,3,0,0,0-1.19-.22,6.7,6.7,0,0,0-1,.11Z" transform="translate(-107.36 -112.09)"></path><path class="cls-1" d="M213.06,170.93c-.75.41-1.21.65-1.4.72a2.81,2.81,0,0,1-.92.14,2,2,0,0,1-1.24-.37,1.17,1.17,0,0,1-.49-1,1,1,0,0,1,.24-.67,3,3,0,0,1,1.13-.73,21.71,21.71,0,0,1,2.68-.84V168a1.35,1.35,0,0,0-.34-1.08,1.5,1.5,0,0,0-1-.29,1.4,1.4,0,0,0-.79.19.55.55,0,0,0-.3.45v.33a.48.48,0,0,1-.19.41.78.78,0,0,1-.48.14.73.73,0,0,1-.48-.15.47.47,0,0,1-.19-.4c0-.33.23-.64.7-.91a3.81,3.81,0,0,1,2-.41,4.49,4.49,0,0,1,1.59.23,1.29,1.29,0,0,1,.69.56,2.4,2.4,0,0,1,.14,1v1.78a5.43,5.43,0,0,0,0,.92.39.39,0,0,0,.13.23.36.36,0,0,0,.21.05.56.56,0,0,0,.23,0,3.82,3.82,0,0,0,.64-.41v.32a2.55,2.55,0,0,1-1.7.86.92.92,0,0,1-.62-.2A.87.87,0,0,1,213.06,170.93Zm0-.38v-2c-.8.23-1.31.39-1.55.49a2.44,2.44,0,0,0-.89.53.83.83,0,0,0-.27.6.85.85,0,0,0,.34.69,1.21,1.21,0,0,0,.78.27A3.37,3.37,0,0,0,213.06,170.55Z" transform="translate(-107.36 -112.09)"></path><path class="cls-1" d="M218.67,166.28v4.22a1.35,1.35,0,0,0,.1.65.6.6,0,0,0,.29.25,2.23,2.23,0,0,0,.71.08v.2h-3.53v-.2a2.15,2.15,0,0,0,.71-.08.62.62,0,0,0,.29-.24,1.42,1.42,0,0,0,.11-.66v-2a4.94,4.94,0,0,0-.07-1.1.44.44,0,0,0-.18-.26.58.58,0,0,0-.32-.07,2,2,0,0,0-.54.09l-.11-.21,2.19-.64Zm-.66-2.75a1,1,0,0,1,.57.17.48.48,0,0,1,0,.82,1,1,0,0,1-1.14,0,.49.49,0,0,1-.24-.41.5.5,0,0,1,.23-.41A1,1,0,0,1,218,163.53Z" transform="translate(-107.36 -112.09)"></path><path class="cls-1" d="M225.82,171.09a4,4,0,0,1-1,.58,3.2,3.2,0,0,1-1.09.17,3.24,3.24,0,0,1-2.08-.71,2.29,2.29,0,0,1-.89-1.85,2.82,2.82,0,0,1,1-2.07,3.51,3.51,0,0,1,2.54-.94,2.74,2.74,0,0,1,1.59.44v-1a5.56,5.56,0,0,0-.06-1.1.49.49,0,0,0-.19-.29.76.76,0,0,0-.32-.07,2.29,2.29,0,0,0-.55.09l-.1-.2,2.17-.64h.36v6.07a5.89,5.89,0,0,0,.06,1.13.46.46,0,0,0,.19.28.5.5,0,0,0,.3.08,2.42,2.42,0,0,0,.57-.09l.09.2-2.16.64h-.36Zm0-.4V168a1.62,1.62,0,0,0-.29-.71,1.52,1.52,0,0,0-.63-.48,2,2,0,0,0-.77-.16,1.94,1.94,0,0,0-1.25.45,2.14,2.14,0,0,0-.72,1.74,2.27,2.27,0,0,0,.7,1.78,2.31,2.31,0,0,0,1.56.61A2.25,2.25,0,0,0,225.82,170.69Z" transform="translate(-107.36 -112.09)"></path><path class="cls-1" d="M242.35,163.73l.28,2.45h-.28a3.28,3.28,0,0,0-1.09-1.38,4.19,4.19,0,0,0-2.47-.67,4,4,0,0,0-3.13,1.18,3.39,3.39,0,0,0-.89,2.36,3.62,3.62,0,0,0,.59,2,3.54,3.54,0,0,0,1.56,1.34,4.81,4.81,0,0,0,2,.43,5.57,5.57,0,0,0,1.16-.11,5.73,5.73,0,0,0,1.07-.32v-2.25A1.42,1.42,0,0,0,241,168a.81.81,0,0,0-.38-.28,3.1,3.1,0,0,0-.91-.09v-.22h4.17v.22h-.2a1,1,0,0,0-.85.3,1.57,1.57,0,0,0-.15.83v2.38a10.57,10.57,0,0,1-1.81.53,10.84,10.84,0,0,1-2,.16,6.94,6.94,0,0,1-4.75-1.44,3.28,3.28,0,0,1-1.21-2.5,3.33,3.33,0,0,1,.68-2,5.11,5.11,0,0,1,2.23-1.72,7.17,7.17,0,0,1,2.79-.5,7,7,0,0,1,1.07.07,12.82,12.82,0,0,1,1.36.3,3,3,0,0,0,.6.12.37.37,0,0,0,.26-.1.63.63,0,0,0,.13-.39Z" transform="translate(-107.36 -112.09)"></path><path class="cls-1" d="M247.12,163.53v7a1.49,1.49,0,0,0,.1.65.58.58,0,0,0,.31.24,2.19,2.19,0,0,0,.77.09v.2h-3.57v-.2a2.09,2.09,0,0,0,.69-.08.6.6,0,0,0,.28-.24,1.45,1.45,0,0,0,.1-.66v-4.77a6,6,0,0,0-.05-1.1.49.49,0,0,0-.18-.28.71.71,0,0,0-.31-.07,2,2,0,0,0-.53.09l-.13-.2,2.17-.64Z" transform="translate(-107.36 -112.09)"></path><path class="cls-1" d="M252.7,166.28a3.82,3.82,0,0,1,2.65.9,2.34,2.34,0,0,1,.85,1.78,2.64,2.64,0,0,1-.47,1.43,2.94,2.94,0,0,1-1.29,1.09,4.53,4.53,0,0,1-1.83.36,3.57,3.57,0,0,1-2.61-.94,2.43,2.43,0,0,1-.82-1.79,2.54,2.54,0,0,1,.5-1.44,2.91,2.91,0,0,1,1.3-1A4.33,4.33,0,0,1,252.7,166.28Zm-.25.37a2.12,2.12,0,0,0-.84.18,1.4,1.4,0,0,0-.69.63,2.28,2.28,0,0,0-.26,1.17,3.21,3.21,0,0,0,.63,2,2,2,0,0,0,1.66.83,1.82,1.82,0,0,0,1.27-.46,2.05,2.05,0,0,0,.5-1.58,2.89,2.89,0,0,0-.83-2.2A2,2,0,0,0,252.45,166.65Z" transform="translate(-107.36 -112.09)"></path><path class="cls-1" d="M259.27,167.34a3.16,3.16,0,0,1,2.28-1.06,3,3,0,0,1,1.95.69,2.31,2.31,0,0,1,.83,1.89,2.61,2.61,0,0,1-1.28,2.25,4.37,4.37,0,0,1-2.47.73,5.3,5.3,0,0,1-1.29-.16,7,7,0,0,1-1.33-.5v-5.44a5.56,5.56,0,0,0-.06-1.1.49.49,0,0,0-.19-.29.72.72,0,0,0-.32-.07,2.15,2.15,0,0,0-.55.09l-.11-.2,2.18-.64h.36Zm0,.36v3.15a3.46,3.46,0,0,0,.83.43,2.73,2.73,0,0,0,.89.15,2,2,0,0,0,1.35-.58,2.17,2.17,0,0,0,.62-1.67,2,2,0,0,0-.62-1.55,2.12,2.12,0,0,0-1.42-.54,2.28,2.28,0,0,0-.84.16A3.1,3.1,0,0,0,259.27,167.7Z" transform="translate(-107.36 -112.09)"></path><path class="cls-1" d="M269.53,170.93a15.71,15.71,0,0,1-1.41.72,2.71,2.71,0,0,1-.91.14,2,2,0,0,1-1.24-.37,1.17,1.17,0,0,1-.49-1,1,1,0,0,1,.23-.67,3.07,3.07,0,0,1,1.14-.73,21.15,21.15,0,0,1,2.68-.84V168a1.35,1.35,0,0,0-.35-1.08,1.47,1.47,0,0,0-1-.29,1.44,1.44,0,0,0-.8.19.55.55,0,0,0-.3.45l0,.33a.5.5,0,0,1-.19.41.81.81,0,0,1-.49.14.76.76,0,0,1-.48-.15.5.5,0,0,1-.19-.4c0-.33.24-.64.7-.91a3.85,3.85,0,0,1,2-.41,4.43,4.43,0,0,1,1.58.23,1.22,1.22,0,0,1,.69.56,2.21,2.21,0,0,1,.15,1v1.78a5.43,5.43,0,0,0,0,.92.34.34,0,0,0,.13.23.36.36,0,0,0,.21.05.51.51,0,0,0,.22,0,3.44,3.44,0,0,0,.64-.41v.32a2.55,2.55,0,0,1-1.7.86.91.91,0,0,1-.61-.2A.81.81,0,0,1,269.53,170.93Zm0-.38v-2c-.8.23-1.32.39-1.55.49a2.59,2.59,0,0,0-.9.53.83.83,0,0,0-.27.6.85.85,0,0,0,.34.69,1.24,1.24,0,0,0,.79.27A3.4,3.4,0,0,0,269.53,170.55Z" transform="translate(-107.36 -112.09)"></path><path class="cls-1" d="M275.13,163.53v7a1.35,1.35,0,0,0,.1.65.53.53,0,0,0,.3.24,2.19,2.19,0,0,0,.77.09v.2h-3.56v-.2a2,2,0,0,0,.68-.08.55.55,0,0,0,.28-.24,1.42,1.42,0,0,0,.11-.66v-4.77a5.64,5.64,0,0,0-.06-1.1.45.45,0,0,0-.18-.28.68.68,0,0,0-.31-.07,2,2,0,0,0-.52.09l-.14-.2,2.17-.64Z" transform="translate(-107.36 -112.09)"></path><path class="cls-1" d="M279.64,163.53v7a1.49,1.49,0,0,0,.1.65.58.58,0,0,0,.31.24,2.19,2.19,0,0,0,.77.09v.2h-3.57v-.2a2,2,0,0,0,.69-.08.6.6,0,0,0,.28-.24,1.42,1.42,0,0,0,.11-.66v-4.77a5.64,5.64,0,0,0-.06-1.1.49.49,0,0,0-.18-.28.68.68,0,0,0-.31-.07,2.08,2.08,0,0,0-.53.09l-.13-.2,2.17-.64Z" transform="translate(-107.36 -112.09)"></path><path class="cls-1" d="M281.25,166.43h3.39v.21h-.17a1,1,0,0,0-.53.11.34.34,0,0,0-.18.28,1.3,1.3,0,0,0,.26.62l1.77,2.65,1.63-2.9a.92.92,0,0,0,.13-.46.19.19,0,0,0-.05-.16.53.53,0,0,0-.2-.1,2.34,2.34,0,0,0-.48,0v-.21h2.37v.21a1.76,1.76,0,0,0-.45.09,1.43,1.43,0,0,0-.35.26,3.15,3.15,0,0,0-.27.44l-3,5.25a3,3,0,0,1-1.13,1.15,2.73,2.73,0,0,1-1.34.39,1.42,1.42,0,0,1-.77-.2.55.55,0,0,1-.3-.44.45.45,0,0,1,.22-.39,1.07,1.07,0,0,1,.6-.15,3.08,3.08,0,0,1,.71.13,2.36,2.36,0,0,0,.4.09,1,1,0,0,0,.52-.18,1.89,1.89,0,0,0,.57-.69l.52-.91-2.62-4a3.68,3.68,0,0,0-.38-.44,2,2,0,0,0-.32-.27,2.63,2.63,0,0,0-.59-.16Z" transform="translate(-107.36 -112.09)"></path><path class="cls-1" d="M137.66,152.92a1.25,1.25,0,0,1,.89.07,4.55,4.55,0,0,1,1.37,1,19.76,19.76,0,0,1,2,2.37c.55.74,1.07,1.5,1.58,2.27a.62.62,0,0,1,.07.23l7.32,3.79a.32.32,0,0,1,.14.14q2.72,4.31,5.42,8.6a4.75,4.75,0,0,1,.68,3.21,3.86,3.86,0,0,1-1.29,2.35,6.12,6.12,0,0,1-.79.54l-3.72,2.34a3.75,3.75,0,0,1-2.68.42,4.64,4.64,0,0,1-2.88-2c-.2-.3-.38-.6-.58-.9l-4.91-7.81a.34.34,0,0,1-.07-.19l-.26-8.54a10.75,10.75,0,0,1-2.07-3.05,9.93,9.93,0,0,1-.83-2.61,3.38,3.38,0,0,1,.07-1.61A1,1,0,0,1,137.66,152.92Zm.11,1.23a4.73,4.73,0,0,0,.14,1.4,10.44,10.44,0,0,0,.92,2.4,10.17,10.17,0,0,0,1.1,1.71c0-.72,0-1.43-.06-2.15a.38.38,0,0,1,.54-.33l1.92,1c-.56-.83-1.14-1.64-1.77-2.41a13.64,13.64,0,0,0-1.26-1.37,4,4,0,0,0-.88-.64.46.46,0,0,0-.44,0A.55.55,0,0,0,137.77,154.15Zm2.94,6.15c0,.07,0,.15,0,.21a7.79,7.79,0,0,0,.65.52,2.32,2.32,0,0,1,1-.82,2.21,2.21,0,0,1,1.54,0,2.18,2.18,0,0,1,1.18.93,2.22,2.22,0,0,1-.28,2.69,2.21,2.21,0,0,1-1.34.67,2.25,2.25,0,0,1-1.43-.31,2.24,2.24,0,0,1-1-2.44,4,4,0,0,1-.34-.23l.24,7.67c0,.08.05.15.1.22q2.65,4.22,5.32,8.44a3.9,3.9,0,0,0,2.43,1.67,3.06,3.06,0,0,0,1.84-.17,5.37,5.37,0,0,0,.73-.43l3.1-1.95a5.45,5.45,0,0,0,1-.74,3.26,3.26,0,0,0,.91-2.39A4,4,0,0,0,156,172c-.18-.33-.39-.63-.59-.95q-1.85-2.93-3.68-5.85c-.41-.64-.81-1.29-1.23-1.93-.27-.16-.56-.29-.84-.44l-9-4.65C140.66,158.86,140.69,159.58,140.71,160.3Zm1.45,3a1.49,1.49,0,0,0,1.22.44,1.46,1.46,0,1,0-1.33-2.32,3.42,3.42,0,0,0,1.34.32.49.49,0,0,1,.33.08.38.38,0,0,1,.09.51.39.39,0,0,1-.31.17,4.28,4.28,0,0,1-1.73-.38A1.5,1.5,0,0,0,142.16,163.27Z" transform="translate(-107.36 -112.09)"></path><path class="cls-1" d="M147.12,167.35a3.64,3.64,0,1,1-1.64,5.31,3.64,3.64,0,0,1,1.64-5.31Zm-1.39,4a2.9,2.9,0,0,0,2.61,2.26,2.89,2.89,0,0,0,1.66-5.37,2.93,2.93,0,0,0-2.07-.33,2.88,2.88,0,0,0-2.07,1.76A2.84,2.84,0,0,0,145.73,171.32Z" transform="translate(-107.36 -112.09)"></path><path class="cls-1" d="M147.45,169.29l.18-.11.09.14a1.26,1.26,0,0,1,.43-.13.8.8,0,0,1,.77,1,1.34,1.34,0,0,1-.34.53c.2.32.39.64.6,1a.58.58,0,0,0,.17-.29.86.86,0,0,0-.08-.52l.33-.13a1,1,0,0,1,.11.66,1.05,1.05,0,0,1-.38.53l.19.29-.17.11c-.07-.1-.13-.2-.19-.3a.87.87,0,0,1-.83,0,.86.86,0,0,1-.45-.95,1.32,1.32,0,0,1,.36-.54l-.54-.86a.46.46,0,0,0-.15.26.6.6,0,0,0,0,.35l-.33.15a.87.87,0,0,1-.06-.55.84.84,0,0,1,.33-.46Zm.42.27c.17.28.35.56.53.84a.67.67,0,0,0,.18-.39.48.48,0,0,0-.39-.49A.69.69,0,0,0,147.87,169.56Zm.34,1.74a.57.57,0,0,0,.49.49.59.59,0,0,0,.3,0l-.58-.92A.73.73,0,0,0,148.21,171.3Z" transform="translate(-107.36 -112.09)"></path><path class="cls-2" d="M149.62,162.8c.28.15.57.28.84.44.42.64.82,1.29,1.23,1.93q1.83,2.93,3.68,5.85c.2.32.41.62.59.95a4,4,0,0,1,.49,1.83,3.26,3.26,0,0,1-.91,2.39,5.45,5.45,0,0,1-1,.74l-3.1,1.95a5.37,5.37,0,0,1-.73.43,3.06,3.06,0,0,1-1.84.17,3.9,3.9,0,0,1-2.43-1.67q-2.67-4.22-5.32-8.44c-.05-.07-.11-.14-.1-.22l-.24-7.67a4,4,0,0,0,.34.23,2.21,2.21,0,0,0,2.41,2.75,2.21,2.21,0,0,0,1.34-.67,2.22,2.22,0,0,0,.28-2.69,2.18,2.18,0,0,0-1.18-.93,2.21,2.21,0,0,0-1.54,0,2.32,2.32,0,0,0-1,.82,7.79,7.79,0,0,1-.65-.52c0-.06,0-.14,0-.21,0-.72-.05-1.44-.07-2.15Zm-4.14,9.86a3.64,3.64,0,1,0-.34-3.25A3.63,3.63,0,0,0,145.48,172.66Z" transform="translate(-107.36 -112.09)"></path><path class="cls-3" d="M147.93,167.88a2.88,2.88,0,0,1,3.48,2.54,2.88,2.88,0,0,1-3.07,3.16,2.89,2.89,0,0,1-2.48-3.94A2.88,2.88,0,0,1,147.93,167.88Zm-.72,2a.87.87,0,0,0,.06.55l.33-.15a.6.6,0,0,1,0-.35.46.46,0,0,1,.15-.26l.54.86a1.32,1.32,0,0,0-.36.54.86.86,0,0,0,.45.95.87.87,0,0,0,.83,0c.06.1.12.2.19.3l.17-.11-.19-.29a1.05,1.05,0,0,0,.38-.53,1,1,0,0,0-.11-.66l-.33.13a.86.86,0,0,1,.08.52.58.58,0,0,1-.17.29c-.21-.32-.4-.64-.6-1a1.34,1.34,0,0,0,.34-.53.8.8,0,0,0-.77-1,1.26,1.26,0,0,0-.43.13l-.09-.14-.18.11.09.14A.84.84,0,0,0,147.21,169.89Z" transform="translate(-107.36 -112.09)"></path><path class="cls-4" d="M148.19,169.52a.69.69,0,0,0-.32,0c.17.28.35.56.53.84a.67.67,0,0,0,.18-.39A.48.48,0,0,0,148.19,169.52Z" transform="translate(-107.36 -112.09)"></path><path class="cls-4" d="M148.42,170.83a.73.73,0,0,0-.21.47.57.57,0,0,0,.49.49.59.59,0,0,0,.3,0Z" transform="translate(-107.36 -112.09)"></path><path d="M125.56,155.31c0,.15,0,.21,0,.27,0,2.58-.07,5.17-.06,7.76a11.63,11.63,0,0,0,.49,3.51,6.25,6.25,0,0,0,.24.6,1.34,1.34,0,0,0,1.73.8,5.34,5.34,0,0,1,.89-.15c.44,0,.63.31.35.67a4.18,4.18,0,0,1-.93.9,5.8,5.8,0,0,1-3.62,1,2.3,2.3,0,0,1-2.07-2c-.13-1.21-.26-2.44-.28-3.66,0-1.79,0-3.59.07-5.39,0-1.26.13-2.52.2-3.78,0-.13,0-.26,0-.43a8.39,8.39,0,0,0-5.8,2.83.57.57,0,0,1-.67.17c-.25-.08-.26-.32-.12-.54a10.6,10.6,0,0,1,3.5-3.58,10.14,10.14,0,0,1,3.17-1.2,4.88,4.88,0,0,0,.06-.52q.07-7.54.14-15.08a5.77,5.77,0,0,0-.07-1c0-.22-.13-.56-.28-.6a.89.89,0,0,0-1,.14c-.78.72-1.56,1.46-2.37,2.14a5.75,5.75,0,0,1-2.4,1.24,2.94,2.94,0,0,1-3.54-1.88,4.67,4.67,0,0,1,.26-3.73,5.64,5.64,0,0,1,1.78-2.21,2.47,2.47,0,0,1,.57-.19,5.12,5.12,0,0,1-.1.74,6.75,6.75,0,0,0-.63,2.58,2.39,2.39,0,0,0,2.71,2.26,6.89,6.89,0,0,0,3.2-1.66c1.12-.93,2.23-1.87,3.36-2.78.71-.57,1.07-.45,1.24.44a16.54,16.54,0,0,1,.35,2.88c0,2.46-.07,4.93-.11,7.4,0,.85-.06,1.7-.08,2.55,0,2.17-.11,4.34-.16,6.52v.26l.19,0a24.78,24.78,0,0,1,6,.83c1.57.33,3.13.72,4.71,1a4,4,0,0,0,3.17-1,11.27,11.27,0,0,0,2.65-3.65,17.19,17.19,0,0,0,2-6.35A16.94,16.94,0,0,0,141.86,132a6.87,6.87,0,0,0-3.74-3,4.8,4.8,0,0,0-5.45,1.66A12.83,12.83,0,0,0,130,137a17,17,0,0,0,2.23,11.27c.46.77.36,1.33-.39,2.2-.6.69-.86.65-1.27-.18a18.44,18.44,0,0,1-1.66-5.52,28.1,28.1,0,0,1-.15-6.35,16,16,0,0,1,1.38-5.78,17.22,17.22,0,0,1,2.44-3.55,11,11,0,0,1,2.85-2.46,5.63,5.63,0,0,1,4-.58c3,.53,5,2.46,6.36,5.07a12.24,12.24,0,0,1,1.4,6.69c-.09,1.36-.15,2.74-.33,4.09a17.51,17.51,0,0,1-2.38,6.67,24.58,24.58,0,0,1-4.75,5.85,9.65,9.65,0,0,1-4.49,2.41,7.53,7.53,0,0,1-3.17-.09c-1.41-.31-2.8-.73-4.21-1.06C127.09,155.51,126.34,155.43,125.56,155.31Z" transform="translate(-107.36 -112.09)"></path><rect class="cls-5" x="1.5" y="1.5" width="187.71" height="76.71" rx="4.42"></rect><circle class="cls-3" cx="8.84" cy="7.94" r="2.63"></circle><circle class="cls-1" cx="8.88" cy="7.94" r="1.34"></circle><circle class="cls-3" cx="180.74" cy="7.94" r="2.63"></circle><circle class="cls-1" cx="180.79" cy="7.94" r="1.34"></circle><circle class="cls-3" cx="180.74" cy="71.05" r="2.63"></circle><circle class="cls-1" cx="180.79" cy="71.05" r="1.34"></circle><circle class="cls-3" cx="8.74" cy="71.05" r="2.63"></circle><circle class="cls-1" cx="8.79" cy="71.05" r="1.34"></circle></svg> 