<svg xmlns="http://www.w3.org/2000/svg" width="114" height="25" fill="none"><path fill="#F3F5F0" d="M22.71 0h-7.778l-3.928 10.859H5.328L.301 24.655h7.761l3.732-10.283h5.715L22.71 0Zm32.103 19.796h3.093c3.757 0 7.058-3.205 7.058-7.468 0-4.264-3.306-7.469-7.058-7.469h-3.093v14.932m-4.972 4.864V0h8.065c6.678 0 12.03 5.496 12.03 12.328 0 6.831-5.494 12.327-12.03 12.327h-8.065Zm27.619-9.723 2.926-9.05 2.931 9.05h-5.858Zm9.396 9.723h5.017L82.897.015V0h-5.028v.015l-8.976 24.64h5.022l1.848-5.075h9.245l1.848 5.075Zm-48.361-12.82c1.95 0 3.58-1.48 3.58-3.488 0-2.009-1.636-3.488-3.58-3.488h-4.207v6.976h4.207ZM38.602 0c4.8 0 8.45 3.59 8.45 8.347 0 4.756-3.65 8.347-8.45 8.347h-4.309v7.961h-4.972V0h9.28Zm74.996 24.655-8.081-12.923L112.848 0h-5.564l-4.455 7.484L98.186 0h-5.564l7.336 11.732h-.005l-8.075 12.923h5.564l5.2-8.711 5.392 8.711h5.564Z"/></svg>