<svg xmlns="http://www.w3.org/2000/svg" xml:space="preserve" viewBox="0 0 24.9 12"><path d="M19.1 0h-.2c-3 0-4.8 1.9-6 3.5-.5.6-.9 1.3-1.3 1.9-.8 1.2-1.5 2.4-2.4 3.2-.9.9-2.1 1.4-3.3 1.4-1 0-2-.5-2.7-1.2C2.4 8 2 7.1 2 6c0-1 .4-2.1 1.2-2.8C4 2.4 5 2 6 2q.75 0 1.5.3c.1 0 .2.1.2.2v.3L5 6.5v.3c.1.2.2.2.3.2h1.5c.2 0 .4-.1.5-.2L10 2.9c.1-.1.2-.3.2-.5v-.5c0-.2-.1-.4-.2-.5L9.6 1C9.4.9 9.3.9 9.2.8 8.2.3 7.1 0 6 0 4.4 0 2.9.6 1.8 1.8.6 2.9 0 4.4 0 6s.6 3 1.7 4.2C2.8 11.3 4.2 12 5.8 12c1.7 0 3.2-.6 4.6-1.8 1.2-1.1 2.2-2.4 2.9-3.7.6-.9 1.2-1.8 1.8-2.6.2-.3.4-.5.6-.7 1-.9 2-1.3 3.2-1.3h.1c1 0 2 .5 2.7 1.2.6.6 1 1.5 1.1 2.4v.4c0 1.1-.4 2.1-1.2 2.8-.6.9-1.6 1.3-2.7 1.3-.6 0-1.1-.1-1.4-.2-.1 0-.2-.1-.2-.2v-.3l2.6-3.7c.1-.1.1-.2 0-.4-.1-.1-.2-.2-.3-.2h-1.5c-.2 0-.4.1-.5.3L15 9.1c-.1.2-.2.3-.2.5v.5c0 .2.1.4.2.5l.4.4c.1.1.2.1.3.2 1 .5 2.1.8 3.2.8 1.6 0 3.1-.6 4.3-1.8C24.3 9.1 25 7.6 25 6s-.6-3.1-1.7-4.2C22.1.7 20.7 0 19.1 0" style="fill:#6666fe"/></svg>