<svg xmlns="http://www.w3.org/2000/svg" width="222" height="67" fill="none" viewBox="0 0 222 67"><circle cx="30" cy="32.798" r="16.809" fill="#fff" fill-opacity=".5"/><circle cx="22.438" cy="48.764" r="9.248" fill="#fff"/><mask id="a" width="3" height="26" x="21" y="16" maskUnits="userSpaceOnUse" style="mask-type:alpha"><path fill="#fff" fill-rule="evenodd" d="M21.42 41.725V16.942h2.062v24.783z" clip-rule="evenodd"/></mask><g mask="url(#a)"><path fill="#fff" d="M46.81 32.798c0 9.284-7.526 16.81-16.81 16.81s-16.81-7.526-16.81-16.81 7.527-16.81 16.81-16.81c9.284 0 16.81 7.527 16.81 16.81"/></g><path fill="#fff" d="M69.501 34.81h-4.175v6.75h-3.025V24.333h7.3c2.05 0 4.95 1.7 4.95 5.1 0 4.55-3.3 5.375-5.05 5.375m-4.175-2.55h4.2c.675 0 2.05-.576 2.05-2.826 0-1.575-1.125-2.525-1.975-2.525h-4.275zm26.108 1.7v3.974c0 .575.2 1.075 1.175 1.075h6.775v2.55h-6.925c-2.775-.075-4-.925-4.05-3.5V24.334h10.975v2.55h-7.95v4.525h7.4v2.55zm25.452-4.926V41.56h-3.025V24.334h3c2.3 2.9 5.375 7.5 7.375 11.75v-11.75h3.025V41.56h-3.025c-2-4-4.225-8.05-7.35-12.525m31.597 12.525h-5.95V24.334h5.95c4.175 0 8.05 2.925 8.05 8.65 0 5.8-3.875 8.575-8.05 8.575m-2.925-2.55h1.875c3.9 0 5.95-2.05 5.95-6.025 0-3.925-1.875-6.1-5.95-6.1h-1.875zm28.281-14.675V37.71c0 .7.25 1.3 1.425 1.3h6.725v2.55h-7.125c-2.775-.075-4-.925-4.05-3.5V24.334zm24.644 9.625v3.975c0 .575.2 1.075 1.175 1.075h6.775v2.55h-6.925c-2.775-.075-4-.925-4.05-3.5V24.334h10.975v2.55h-7.95v4.525h7.4v2.55z"/></svg>