<svg xmlns="http://www.w3.org/2000/svg" width="192" height="160" fill="none" viewBox="0 0 192 160"><path fill="url(#a)" d="M95.84 91.397v67.047l-18.286-18.286-6.096-18.285a64.9 64.9 0 0 1 18.704-25.745z"/><path fill="url(#b)" d="M95.84 91.397v67.047l18.285-18.286 6.095-18.285a64.9 64.9 0 0 0-18.703-25.745z"/><path fill="url(#c)" d="m64.65 76.129-47.41 47.409v-25.86l8.62-17.24a64.9 64.9 0 0 1 31.429-4.978z"/><path fill="url(#d)" d="m64.65 76.129-47.41 47.409H43.1l17.24-8.619a64.9 64.9 0 0 0 4.978-31.43z"/><path fill="url(#e)" d="m127.129 76.129 47.41 47.409v-25.86l-8.62-17.24a64.9 64.9 0 0 0-31.429-4.978z"/><path fill="url(#f)" d="m127.129 76.129 47.41 47.409h-25.86l-17.24-8.619a64.9 64.9 0 0 1-4.979-31.43z"/><circle cx="95.839" cy="58.889" r="44.698" stroke="url(#g)" stroke-width="24.381"/><circle cx="95.839" cy="58.889" r="16.254" fill="#e0ebff"/><defs><linearGradient id="a" x1="95.839" x2="95.839" y1="91.397" y2="156.413" gradientUnits="userSpaceOnUse"><stop stop-color="#8100e7"/><stop offset=".536" stop-color="#3efff3"/><stop offset="1" stop-color="#00bbf5"/></linearGradient><linearGradient id="b" x1="95.839" x2="95.839" y1="91.397" y2="156.413" gradientUnits="userSpaceOnUse"><stop stop-color="#1d0aff"/><stop offset=".51" stop-color="#00c2ff"/></linearGradient><linearGradient id="c" x1="64.649" x2="18.676" y1="76.129" y2="122.102" gradientUnits="userSpaceOnUse"><stop stop-color="#8100e7"/><stop offset=".536" stop-color="#3efff3"/><stop offset="1" stop-color="#00bbf5"/></linearGradient><linearGradient id="d" x1="64.649" x2="18.676" y1="76.129" y2="122.102" gradientUnits="userSpaceOnUse"><stop stop-color="#1d0aff"/><stop offset=".51" stop-color="#00c2ff"/></linearGradient><linearGradient id="e" x1="127.129" x2="173.103" y1="76.129" y2="122.102" gradientUnits="userSpaceOnUse"><stop stop-color="#1d0aff"/><stop offset=".51" stop-color="#00c2ff"/></linearGradient><linearGradient id="f" x1="127.129" x2="173.102" y1="76.129" y2="122.102" gradientUnits="userSpaceOnUse"><stop stop-color="#8100e7"/><stop offset=".536" stop-color="#3efff3"/><stop offset="1" stop-color="#00bbf5"/></linearGradient><linearGradient id="g" x1="95.839" x2="95.839" y1="2" y2="115.778" gradientUnits="userSpaceOnUse"><stop stop-color="#57f5ff"/><stop offset=".51" stop-color="#e95fff"/><stop offset="1" stop-color="#01ffff"/></linearGradient></defs></svg>