<svg width="192" height="160" viewBox="0 0 192 160" fill="none" xmlns="http://www.w3.org/2000/svg">
<path d="M95.8393 91.3969L95.8393 158.444L77.5536 140.158L71.4583 121.873C75.4588 111.872 81.8866 103.024 90.1615 96.1283L95.8393 91.3969Z" fill="url(#paint0_linear_903_8)"/>
<path d="M95.8393 91.3969L95.8393 158.444L114.125 140.158L120.22 121.873C116.22 111.872 109.792 103.024 101.517 96.1283L95.8393 91.3969Z" fill="url(#paint1_linear_903_8)"/>
<path d="M64.6493 76.129L17.2398 123.538L17.2397 97.6786L25.8596 80.4388C35.7602 76.1957 46.5616 74.4846 57.2889 75.4598L64.6493 76.129Z" fill="url(#paint2_linear_903_8)"/>
<path d="M64.6494 76.1288L17.2399 123.538L43.0997 123.538L60.3396 114.919C64.5827 105.018 66.2938 94.2165 65.3185 83.4892L64.6494 76.1288Z" fill="url(#paint3_linear_903_8)"/>
<path d="M127.129 76.129L174.539 123.538L174.539 97.6786L165.919 80.4388C156.018 76.1957 145.217 74.4846 134.49 75.4598L127.129 76.129Z" fill="url(#paint4_linear_903_8)"/>
<path d="M127.129 76.1288L174.539 123.538L148.679 123.538L131.439 114.919C127.196 105.018 125.485 94.2165 126.46 83.4892L127.129 76.1288Z" fill="url(#paint5_linear_903_8)"/>
<circle cx="95.8393" cy="58.8889" r="44.6984" stroke="url(#paint6_linear_903_8)" stroke-width="24.381"/>
<circle cx="95.8393" cy="58.8889" r="16.254" fill="#E0EBFF"/>
<defs>
<linearGradient id="paint0_linear_903_8" x1="95.8393" y1="91.3969" x2="95.8393" y2="156.413" gradientUnits="userSpaceOnUse">
<stop stop-color="#8100E7"/>
<stop offset="0.536458" stop-color="#3EFFF3"/>
<stop offset="1" stop-color="#00BBF5"/>
</linearGradient>
<linearGradient id="paint1_linear_903_8" x1="95.8393" y1="91.3969" x2="95.8393" y2="156.413" gradientUnits="userSpaceOnUse">
<stop stop-color="#1D0AFF"/>
<stop offset="0.510417" stop-color="#00C2FF"/>
</linearGradient>
<linearGradient id="paint2_linear_903_8" x1="64.6493" y1="76.129" x2="18.6761" y2="122.102" gradientUnits="userSpaceOnUse">
<stop stop-color="#8100E7"/>
<stop offset="0.536458" stop-color="#3EFFF3"/>
<stop offset="1" stop-color="#00BBF5"/>
</linearGradient>
<linearGradient id="paint3_linear_903_8" x1="64.6494" y1="76.1288" x2="18.6762" y2="122.102" gradientUnits="userSpaceOnUse">
<stop stop-color="#1D0AFF"/>
<stop offset="0.510417" stop-color="#00C2FF"/>
</linearGradient>
<linearGradient id="paint4_linear_903_8" x1="127.129" y1="76.129" x2="173.103" y2="122.102" gradientUnits="userSpaceOnUse">
<stop stop-color="#1D0AFF"/>
<stop offset="0.510417" stop-color="#00C2FF"/>
</linearGradient>
<linearGradient id="paint5_linear_903_8" x1="127.129" y1="76.1288" x2="173.102" y2="122.102" gradientUnits="userSpaceOnUse">
<stop stop-color="#8100E7"/>
<stop offset="0.536458" stop-color="#3EFFF3"/>
<stop offset="1" stop-color="#00BBF5"/>
</linearGradient>
<linearGradient id="paint6_linear_903_8" x1="95.8393" y1="2" x2="95.8393" y2="115.778" gradientUnits="userSpaceOnUse">
<stop stop-color="#57F5FF"/>
<stop offset="0.510417" stop-color="#E95FFF"/>
<stop offset="1" stop-color="#01FFFF"/>
</linearGradient>
</defs>
</svg>
