<svg xmlns="http://www.w3.org/2000/svg" width="46" height="46" fill="none" viewBox="0 0 46 46"><path fill="#000" d="M45.283 22.999C45.283 10.692 35.307.715 23 .715S.716 10.692.716 22.999 10.693 45.282 23 45.282 45.283 35.306 45.283 23"/><path fill="#f9ff00" d="M12.746 8.405C11.967 8.12 11 8.477 11 9.05v27.515c0 .572.972.93 1.746.644l7.947-2.93c.359-.13.582-.377.582-.643v-5.798c0-.572.972-.93 1.747-.644l7.942 2.932c.363.135.81.132 1.173 0l8.982-3.37c.354-.134.573-.377.573-.64v-6.628c0-.266-.224-.512-.582-.644zM29.81 28.663 13.78 22.798c-.788-.29-.779-1.013.014-1.296l6.85-2.437c.367-.132.596-.378.596-.647l.031-4.47c0-.573.971-.928 1.746-.642l7.956 2.938c.358.132.582.378.582.644v11.13c0 .572-.967.93-1.741.646"/></svg>