<svg width="250" height="60" viewBox="0 0 250 60" fill="none" xmlns="http://www.w3.org/2000/svg">
<g clip-path="url(#clip0_504_20494)">
<g clip-path="url(#clip1_504_20494)">
<path d="M-1 20.6608C-1 20.6098 -1 20.6098 -0.9485 20.5588C-0.897 20.5078 -0.897 20.5078 -0.8455 20.5078H21.7115C23.2564 20.5078 24.5955 21.0688 25.7285 22.1398C26.8099 23.2619 27.3764 24.5879 27.3764 26.1179V28.107C27.3764 29.688 26.8099 31.014 25.7285 32.085C24.647 33.156 23.308 33.717 21.7115 33.717H2.96549V39.9901C2.96549 40.0411 2.96549 40.0921 2.91399 40.1431C2.8625 40.1941 2.8625 40.1941 2.7595 40.1941H-0.8455C-0.897 40.1941 -0.897 40.1941 -0.9485 40.1431C-1 40.0921 -1 40.0411 -1 39.9901V20.6608ZM21.7115 30.351C22.175 30.351 22.5869 30.198 22.896 29.841C23.2049 29.484 23.411 29.127 23.411 28.668V25.5569C23.411 25.0979 23.2564 24.6899 22.896 24.3329C22.5355 23.9759 22.175 23.8229 21.7115 23.8229H2.96549V30.3H21.7115V30.351Z" fill="#FFFFFF"/>
<path d="M61.6751 39.9901C61.6751 40.0411 61.6751 40.0411 61.6236 40.0921C61.5721 40.1431 61.5721 40.1431 61.5206 40.1431H39.0152C37.4186 40.1431 36.0797 39.5821 34.9981 38.5111C33.9166 37.4401 33.3501 36.1141 33.3501 34.533V20.6608C33.3501 20.6098 33.3501 20.5588 33.4016 20.5078H33.4531H37.1096C37.1611 20.5078 37.2127 20.5078 37.2642 20.5588C37.3157 20.6098 37.3157 20.6098 37.3157 20.7118V35.145C37.3157 35.6041 37.4701 36.0121 37.8307 36.3181C38.1911 36.6241 38.5516 36.8281 39.0667 36.8281H61.5721C61.6236 36.8281 61.6236 36.8281 61.6751 36.8791C61.7267 36.9301 61.7267 36.9301 61.7267 36.9811V39.9901H61.6751Z" fill="#FFFFFF"/>
<path d="M67.6492 26.1179C67.6492 24.5879 68.2157 23.2619 69.2971 22.1398C70.3786 21.0688 71.7176 20.5078 73.3141 20.5078H90.309C91.8541 20.5078 93.1931 21.0688 94.3261 22.1398C95.4591 23.2109 95.9741 24.5369 95.9741 26.1179V39.9901C95.9741 40.0411 95.9741 40.0921 95.9226 40.1431C95.8711 40.1941 95.8711 40.1941 95.768 40.1941H92.2146C92.163 40.1941 92.163 40.1941 92.1115 40.1431C92.0601 40.0921 92.0601 40.0921 92.0601 39.9901V33.717H71.6146V39.9901C71.6146 40.0411 71.6146 40.0921 71.5631 40.1431C71.5116 40.1941 71.5116 40.1941 71.4601 40.1941H67.8036C67.7521 40.1941 67.7007 40.1941 67.6492 40.1431C67.5977 40.0921 67.5977 40.0921 67.5977 39.9901V26.1179H67.6492ZM92.0086 30.351V25.5569C92.0086 25.0979 91.8541 24.6899 91.4937 24.3329C91.1331 24.0269 90.7726 23.8229 90.309 23.8229H73.3141C72.8506 23.8229 72.4387 23.9759 72.0781 24.3329C71.7176 24.6899 71.5631 25.0469 71.5631 25.5569V30.351H92.0086Z" fill="#FFFFFF"/>
<path d="M126.359 20.661C126.359 20.61 126.359 20.559 126.411 20.508C126.462 20.457 126.462 20.457 126.565 20.457H130.222C130.273 20.457 130.273 20.457 130.325 20.508C130.376 20.559 130.376 20.559 130.376 20.661V39.9904C130.376 40.0414 130.376 40.0414 130.325 40.0924C130.273 40.1434 130.273 40.1434 130.222 40.1434H122.857H122.806C121.261 40.0924 120.076 39.4804 119.201 38.2564L109.931 24.6391C109.57 24.1291 109.055 23.8741 108.489 23.8741H105.965V39.9904C105.965 40.0414 105.965 40.0414 105.914 40.0924C105.862 40.1434 105.862 40.1434 105.759 40.1434H102.103C102.051 40.1434 102.051 40.1434 102 40.0924C101.948 40.0414 101.948 40.0414 101.948 39.9904V20.661C101.948 20.61 101.948 20.559 102 20.508C102.051 20.457 102.051 20.457 102.103 20.457H109.467H109.519C111.064 20.508 112.248 21.171 113.124 22.3951L122.342 36.0124C122.703 36.5224 123.166 36.7774 123.784 36.7774H126.308V20.661H126.359Z" fill="#FFFFFF"/>
<path d="M140.264 28.668H161.637C161.688 28.668 161.741 28.668 161.792 28.719C161.843 28.77 161.843 28.77 161.843 28.872V31.881C161.843 31.932 161.843 31.983 161.792 32.034C161.741 32.085 161.741 32.085 161.637 32.085H140.264V35.196C140.264 35.6551 140.42 36.0631 140.779 36.3691C141.14 36.6751 141.501 36.8791 142.016 36.8791H164.521C164.572 36.8791 164.625 36.8791 164.676 36.9301C164.727 36.9811 164.727 36.9811 164.727 37.0321V40.0411C164.727 40.0921 164.727 40.1431 164.676 40.1941C164.625 40.2451 164.625 40.2451 164.521 40.2451H142.016C140.42 40.2451 139.08 39.6841 137.998 38.6131C136.917 37.5421 136.351 36.2161 136.351 34.635V26.1179C136.351 24.5369 136.917 23.2109 137.998 22.1398C139.08 21.0688 140.42 20.5078 142.016 20.5078H164.521C164.572 20.5078 164.625 20.5078 164.676 20.5588C164.727 20.6098 164.727 20.6098 164.727 20.7118V23.7209C164.727 23.7719 164.727 23.7719 164.676 23.8229C164.625 23.8739 164.625 23.8739 164.521 23.8739H142.016C141.552 23.8739 141.14 24.0269 140.779 24.3839C140.471 24.7409 140.264 25.0979 140.264 25.5569V28.668Z" fill="#FFFFFF"/>
<path d="M170.598 20.661C170.598 20.61 170.598 20.559 170.649 20.508C170.701 20.457 170.701 20.457 170.752 20.457H198.821C198.872 20.457 198.872 20.457 198.923 20.508C198.975 20.559 198.975 20.559 198.975 20.661V23.6701C198.975 23.7211 198.975 23.7211 198.923 23.7721C198.872 23.8231 198.872 23.8231 198.821 23.8231H186.769V39.9394C186.769 39.9904 186.769 40.0414 186.718 40.0924C186.666 40.1434 186.666 40.1434 186.615 40.1434H182.958C182.907 40.1434 182.855 40.1434 182.804 40.0924C182.751 40.0414 182.751 40.0414 182.751 39.9394V23.8741H170.701C170.649 23.8741 170.649 23.8741 170.598 23.8231C170.547 23.7721 170.547 23.7721 170.547 23.7211V20.661H170.598Z" fill="#FFFFFF"/>
<path d="M215.609 39.9901C215.609 40.0411 215.609 40.0411 215.558 40.0921C215.505 40.1431 215.505 40.1431 215.403 40.1431H211.747C211.694 40.1431 211.694 40.1431 211.643 40.0921C211.592 40.0411 211.592 40.0411 211.592 39.9901V20.6608C211.592 20.6098 211.592 20.5588 211.643 20.5078C211.694 20.5078 211.747 20.5078 211.798 20.5078H215.454C215.505 20.5078 215.558 20.5078 215.609 20.5588C215.661 20.6098 215.661 20.6098 215.661 20.7118V39.9901H215.609ZM244.191 23.8739C243.676 23.8739 243.213 24.0779 242.852 24.4859L238.063 30.351L242.852 36.2161C243.213 36.6241 243.676 36.8281 244.191 36.8281H249.754C249.805 36.8281 249.805 36.8281 249.856 36.8791C249.908 36.9301 249.908 36.9301 249.908 37.0321V40.0411C249.908 40.0921 249.908 40.1431 249.856 40.1941C249.805 40.2451 249.805 40.2451 249.754 40.2451H243.882C242.337 40.2451 240.998 39.6331 239.917 38.3581L235.745 33.258L231.573 38.3581C230.441 39.5821 229.153 40.2451 227.608 40.2451H221.738C221.685 40.2451 221.685 40.2451 221.634 40.1941C221.583 40.1431 221.583 40.1431 221.583 40.0411V37.0321C221.583 36.9811 221.583 36.9301 221.634 36.8791C221.685 36.8281 221.685 36.8281 221.738 36.8281H227.299C227.814 36.8281 228.277 36.6241 228.638 36.2161L233.428 30.351L228.638 24.4859C228.277 24.0779 227.814 23.8739 227.35 23.8739H221.789C221.738 23.8739 221.738 23.8739 221.685 23.8229C221.634 23.7719 221.634 23.7719 221.634 23.7209V20.6608C221.634 20.6098 221.634 20.6098 221.685 20.5588C221.738 20.5078 221.738 20.5078 221.789 20.5078H227.66C229.204 20.5078 230.544 21.1198 231.625 22.3949L235.797 27.4949L239.968 22.3949C241.049 21.1708 242.389 20.5078 243.933 20.5078H249.805C249.856 20.5078 249.856 20.5078 249.908 20.5588C249.959 20.6098 249.959 20.6098 249.959 20.6608V23.7209C249.959 23.7719 249.959 23.7719 249.908 23.8229C249.856 23.8739 249.856 23.8739 249.805 23.8739H244.191Z" fill="#FFFFFF"/>
</g>
</g>
<defs>
<clipPath id="clip0_504_20494">
<rect width="250" height="60" fill="#001100"/>
</clipPath>
<clipPath id="clip1_504_20494">
<rect width="251.18" height="20.4004" fill="#001100" transform="translate(-1 20)"/>
</clipPath>
</defs>
</svg>
