<svg xmlns="http://www.w3.org/2000/svg" width="256" height="256" fill="none" viewBox="0 0 256 256"><path fill="url(#a)" d="m186.384 171.561 57.113-32.973a9.83 9.83 0 0 0 4.9-8.489V64.143a9.84 9.84 0 0 0-4.9-8.489l-57.113-32.973a9.84 9.84 0 0 0-9.8 0L119.47 55.655a9.83 9.83 0 0 0-4.899 8.49V182l-40.05 23.116-40.048-23.116v-46.249l40.049-23.117 26.419 15.247V96.86L79.421 84.44a9.83 9.83 0 0 0-4.9-1.306 9.83 9.83 0 0 0-4.899 1.306l-57.119 32.978a9.83 9.83 0 0 0-4.9 8.489v65.951a9.84 9.84 0 0 0 4.9 8.489l57.114 32.977a9.85 9.85 0 0 0 9.8 0l57.113-32.972a9.84 9.84 0 0 0 4.9-8.489V74.004l.722-.414 39.327-22.702 40.048 23.122v46.243l-40.048 23.122-26.379-15.227v31.023l21.479 12.405a9.85 9.85 0 0 0 9.8 0z"/><defs><linearGradient id="a" x1="28.073" x2="235.024" y1="200.863" y2="49.961" gradientUnits="userSpaceOnUse"><stop stop-color="#a726c1"/><stop offset=".88" stop-color="#803bdf"/><stop offset="1" stop-color="#7b3fe4"/></linearGradient></defs></svg>