<svg xmlns="http://www.w3.org/2000/svg" width="786" height="121" fill="none" viewBox="0 0 786 121"><path fill="#22143d" d="M167.037 109.455v-75h14.915v9.162h.675q.993-2.202 2.876-4.475 1.918-2.308 4.972-3.835 3.089-1.563 7.67-1.563 5.966 0 11.009 3.125 5.041 3.09 8.061 9.34 3.018 6.215 3.018 15.59 0 9.125-2.947 15.411-2.913 6.25-7.955 9.482-5.007 3.196-11.221 3.196-4.404 0-7.493-1.456-3.054-1.456-5.007-3.658-1.954-2.237-2.983-4.51h-.462v29.191zm14.808-47.728q0 4.866 1.35 8.488 1.349 3.621 3.906 5.646 2.557 1.988 6.215 1.988 3.693 0 6.25-2.024 2.556-2.06 3.87-5.681 1.35-3.658 1.35-8.417 0-4.722-1.314-8.31-1.314-3.585-3.871-5.61t-6.285-2.024q-3.694 0-6.25 1.953-2.522 1.953-3.871 5.54t-1.35 8.451M254.963 90.065q-8.274 0-14.311-3.515-6.001-3.552-9.268-9.872-3.267-6.356-3.267-14.738 0-8.451 3.267-14.772 3.267-6.357 9.268-9.873 6.037-3.55 14.311-3.55t14.276 3.55q6.036 3.516 9.304 9.873 3.267 6.321 3.267 14.772 0 8.381-3.267 14.738-3.267 6.32-9.304 9.872-6.002 3.516-14.276 3.515m.071-11.718q3.765 0 6.286-2.131 2.521-2.167 3.799-5.895 1.314-3.729 1.314-8.487 0-4.76-1.314-8.487-1.278-3.729-3.799-5.895t-6.286-2.166q-3.8 0-6.392 2.166-2.556 2.166-3.871 5.895-1.278 3.727-1.278 8.487 0 4.758 1.278 8.487 1.315 3.728 3.871 5.895 2.592 2.13 6.392 2.13M306.774 16.273V89h-15.128V16.273zM328.232 109.455q-2.877 0-5.398-.462-2.485-.426-4.119-1.101l3.409-11.293q2.664.817 4.794.888 2.166.071 3.729-.994 1.597-1.066 2.592-3.622l.888-2.308-19.567-56.108h15.909l11.293 40.056h.568l11.399-40.056h16.016l-21.2 60.44q-1.527 4.403-4.155 7.67-2.592 3.303-6.57 5.078-3.976 1.812-9.588 1.812M400.302 110.591q-7.35 0-12.606-2.024-5.22-1.989-8.31-5.433-3.089-3.445-4.013-7.742l13.992-1.882q.64 1.633 2.024 3.054 1.385 1.42 3.658 2.273 2.308.887 5.61.887 4.937 0 8.133-2.414 3.231-2.38 3.231-7.99v-9.98h-.639q-.994 2.273-2.983 4.298t-5.114 3.302q-3.125 1.28-7.457 1.279-6.144 0-11.186-2.841-5.008-2.876-7.99-8.772-2.948-5.93-2.948-14.985 0-9.27 3.019-15.483 3.018-6.214 8.025-9.304 5.043-3.09 11.044-3.09 4.581 0 7.671 1.563 3.09 1.527 4.971 3.835 1.918 2.273 2.948 4.474h.568v-9.161h15.021v55.078q0 6.96-3.409 11.647t-9.446 7.032q-6.001 2.379-13.814 2.379m.32-33.736q3.657 0 6.179-1.811 2.558-1.846 3.906-5.256 1.385-3.444 1.385-8.238t-1.349-8.31q-1.35-3.55-3.907-5.504t-6.214-1.953q-3.729 0-6.286 2.024-2.556 1.988-3.87 5.54-1.314 3.55-1.314 8.203 0 4.722 1.314 8.167 1.35 3.41 3.87 5.291 2.557 1.847 6.286 1.847M463.655 90.065q-8.274 0-14.311-3.515-6.002-3.552-9.269-9.872-3.267-6.356-3.267-14.738 0-8.451 3.267-14.772 3.267-6.357 9.269-9.873 6.036-3.55 14.311-3.55 8.274 0 14.275 3.55 6.037 3.516 9.304 9.873 3.267 6.321 3.267 14.772 0 8.381-3.267 14.738-3.267 6.32-9.304 9.872-6.001 3.516-14.275 3.515m.071-11.718q3.764 0 6.285-2.131 2.522-2.167 3.8-5.895 1.314-3.729 1.314-8.487 0-4.76-1.314-8.487-1.278-3.729-3.8-5.895t-6.285-2.166q-3.8 0-6.392 2.166-2.557 2.166-3.871 5.895-1.278 3.727-1.279 8.487 0 4.758 1.279 8.487 1.314 3.728 3.871 5.895 2.592 2.13 6.392 2.13M515.466 57.466V89h-15.128V34.455h14.417v9.623h.64q1.81-4.759 6.072-7.528 4.262-2.805 10.334-2.806 5.682 0 9.908 2.486t6.569 7.102q2.344 4.581 2.344 10.938V89h-15.128V56.969q.036-5.007-2.557-7.813-2.592-2.84-7.137-2.84-3.054 0-5.398 1.313-2.308 1.314-3.622 3.836-1.28 2.485-1.314 6M607.928 50.009l-13.849.852a7.16 7.16 0 0 0-1.527-3.196q-1.172-1.455-3.089-2.309-1.883-.887-4.51-.887-3.516 0-5.931 1.491-2.415 1.456-2.415 3.907 0 1.953 1.563 3.302 1.563 1.35 5.362 2.166l9.872 1.989q7.955 1.633 11.861 5.256 3.906 3.622 3.906 9.517 0 5.361-3.16 9.41-3.125 4.049-8.594 6.321-5.433 2.237-12.535 2.237-10.832 0-17.259-4.51-6.392-4.546-7.493-12.358l14.879-.78q.675 3.301 3.267 5.042 2.593 1.704 6.641 1.704 3.978 0 6.392-1.527 2.45-1.562 2.486-4.012-.036-2.06-1.74-3.374-1.704-1.35-5.256-2.06l-9.446-1.882q-7.99-1.598-11.896-5.54-3.871-3.94-3.871-10.05 0-5.255 2.841-9.055 2.877-3.8 8.061-5.859 5.22-2.06 12.216-2.06 10.334 0 16.264 4.368 5.967 4.368 6.96 11.896M643.342 90.065q-8.38 0-14.417-3.55-6.002-3.588-9.233-9.944-3.196-6.357-3.196-14.63 0-8.382 3.231-14.702 3.267-6.356 9.269-9.908 6.001-3.587 14.275-3.587 7.138 0 12.5 2.593t8.487 7.28 3.445 11.008h-14.276q-.603-4.083-3.196-6.57-2.556-2.52-6.711-2.52-3.516 0-6.144 1.917-2.592 1.882-4.048 5.504t-1.456 8.771q0 5.22 1.42 8.878 1.456 3.658 4.084 5.575t6.144 1.918q2.592 0 4.652-1.065 2.095-1.065 3.444-3.09 1.385-2.06 1.811-4.936h14.276q-.355 6.25-3.409 11.009-3.018 4.722-8.345 7.386t-12.607 2.663M692.943 90.03q-5.22 0-9.304-1.811-4.084-1.847-6.463-5.433-2.344-3.623-2.344-9.02 0-4.546 1.669-7.635 1.67-3.09 4.545-4.972 2.877-1.883 6.534-2.84a50 50 0 0 1 7.742-1.35q4.758-.498 7.67-.924 2.912-.46 4.226-1.349 1.314-.888 1.314-2.628v-.213q0-3.373-2.131-5.22-2.095-1.847-5.965-1.847-4.084 0-6.499 1.811-2.415 1.776-3.196 4.475l-13.992-1.136q1.066-4.973 4.191-8.594 3.124-3.658 8.061-5.611 4.971-1.989 11.506-1.989 4.545 0 8.7 1.066 4.19 1.065 7.422 3.302a16.05 16.05 0 0 1 5.149 5.753q1.882 3.48 1.882 8.345V89h-14.347v-7.564h-.426a15.4 15.4 0 0 1-3.515 4.51q-2.202 1.918-5.292 3.019-3.09 1.065-7.137 1.065m4.332-10.44q3.337 0 5.895-1.314 2.556-1.35 4.013-3.623 1.455-2.272 1.456-5.149v-5.788q-.711.462-1.953.852-1.208.355-2.735.675-1.527.284-3.054.533-1.527.213-2.77.39-2.663.39-4.652 1.243-1.988.852-3.089 2.308-1.101 1.42-1.101 3.552 0 3.09 2.237 4.722 2.273 1.599 5.753 1.599M750.524 57.466V89h-15.128V34.455h14.418v9.623h.639q1.812-4.759 6.073-7.528 4.261-2.805 10.334-2.806 5.681 0 9.907 2.486t6.57 7.102q2.344 4.581 2.344 10.938V89h-15.128V56.969q.035-5.007-2.557-7.813-2.592-2.84-7.138-2.84-3.054 0-5.398 1.313-2.308 1.314-3.622 3.836-1.278 2.485-1.314 6"/><path fill="url(#a)" d="m101.717 85.215 32.495-18.708A5.58 5.58 0 0 0 137 61.69V24.267a5.58 5.58 0 0 0-2.788-4.816L101.717.74a5.61 5.61 0 0 0-5.575 0l-32.495 18.71a5.58 5.58 0 0 0-2.788 4.816V91.14l-22.786 13.116-22.785-13.116V64.897l22.785-13.116 15.032 8.651V42.831L40.86 35.783a5.6 5.6 0 0 0-2.788-.741c-.978 0-1.943.256-2.787.74L2.788 54.495A5.58 5.58 0 0 0 0 59.311v37.42a5.58 5.58 0 0 0 2.788 4.817l32.495 18.711a5.61 5.61 0 0 0 5.575 0l32.495-18.708a5.58 5.58 0 0 0 2.788-4.817V29.862l.41-.235 22.376-12.881 22.785 13.12v26.238L98.927 69.223l-15.008-8.64v17.602l12.22 7.04a5.62 5.62 0 0 0 5.575 0z"/><defs><linearGradient id="a" x1="11.646" x2="129.167" y1="101.841" y2="15.914" gradientUnits="userSpaceOnUse"><stop stop-color="#a726c1"/><stop offset=".88" stop-color="#803bdf"/><stop offset="1" stop-color="#7b3fe4"/></linearGradient></defs></svg>