<svg xmlns="http://www.w3.org/2000/svg" xml:space="preserve" id="CIRCLE_OUTLINE_BLACK" x="0" y="0" viewBox="0 0 512 512"><style>.st1{fill:#fff}.st2{fill:#84a6f2}</style><circle cx="256" cy="256" r="256" style="fill:#2231e2"/><path d="m348 134.8-56.2-2.2-27.7-48.4H320zM332.2 91.7l25.2 44.6 40.7 21.3-23.1-41zM255.2 85.7l28.2 49.1-49.1 27.8-25.4-49.4zM203.6 121l24.1 47.3-27.2 47.2-27.8-47.2zM171.5 183.5l24.4 41.8v46.8l-25-39.3zM211.9 212.2l22.1-39.1 42.2-24.7-21.9 39.6zM291.2 140.2l-27.1 47h55.5l27.6-44.4zM356.1 144.7l-29.3 46.1 48.1 27.1 29.6-47.9zM408.9 177l-26.8 47 25 50.9 30.3-50.3zM437.4 241.5 411 285.7v45.5l26.4-41.9z" class="st1"/><path d="M274.1 196h46.8l39.6 22.9-47.1 1.4zM320 228.3h53.9l25.5 50.9-52.2-2.5zM349.2 284.5v55.7h55.3v-53.9zM345.9 349.7l-28.6 45.1h56.1l28.5-45.1z" class="st2"/><path d="m309.5 403.9-37.3 23.9h49.4l38.1-22.7zM317.3 241.5v47.8l23.1 40.3 1.5-50.4zM311.9 297.2l-29.4 47.9 26.7 47.3 30.9-47.6zM275.9 351.8l26.6 47.3-44.5 28.7-28.2-49.4zM258.9 324.8 235.2 366l40-23.9 24.6-41.2zM193.4 326.6l-28.8 44.3 57 1.3 27.3-45.6zM164.6 378.4l56.4 2.2 27.9 47.2h-55.8zM114.3 356l40.3 19.4 24.6 45.8-39.7-22.4zM136.1 297.2l-26.9 47.6 46 23.6 30.6-44.2z" class="st1"/><path d="M152.2 294.2h48l39.3 23.6h-46.7z" class="st2"/><path d="m74.6 289 29.7-47.5 26.4 47.5-28.1 48.8zM74.6 224.8v50.1l26.4-43.4-2.1-46.7z" class="st1"/><path d="m112.5 235.4 24.8 50.2H194l-29.4-48.7zM107.3 173.9l1.9 54.4h54.2v-54.4zM138.9 117.2l-29.7 48.2h56.3l30.4-48.2zM152.5 108.1l39.7-23.9h47l-36.1 23.9z" class="st2"/></svg>