<svg xmlns="http://www.w3.org/2000/svg" width="24" height="24" fill="none" viewBox="0 0 28 28"><rect width="28" height="28" fill="#0051ff" rx="14"/><path fill="#fff" d="M14.005 23.727c-.998 0-3.031-1.705-4.732-3.968-1.27-1.69-3.435-5.155-3.654-9.373l-.019-.368L14.005 5.6l8.395 4.413-.007.356c-.095 4.264-2.291 7.74-3.592 9.431-1.692 2.203-3.798 3.927-4.795 3.927zM6.762 10.693l.03.279c.366 3.528 2.17 6.45 3.213 7.877 1.582 2.166 3.214 3.468 3.868 3.701l.13.046.133-.045c.673-.231 2.341-1.522 3.94-3.666 1.306-1.75 2.915-4.544 3.164-7.917l.02-.27-7.255-3.813z"/><path fill="#fff" d="m10.908 17.3 1.102-2.645a2.16 2.16 0 0 0 .02-1.615l-.9-2.334h1.205l.74 1.917c.31.803.3 1.682-.032 2.478l-.916 2.2zm5.234 0-.916-2.2a3.3 3.3 0 0 1-.032-2.477l.74-1.917h1.206l-.902 2.334a2.16 2.16 0 0 0 .021 1.615l1.103 2.646z"/></svg>