<svg xmlns="http://www.w3.org/2000/svg" width="346" height="78" fill="none" viewBox="0 0 346 78"><path fill="#010110" fill-rule="evenodd" d="M253.808 41.436h-1.05L239.096 1.818h-16.002v1.638l19.272 55.326h21.252l19.278-55.326V1.818H267.59l-13.788 39.618z" clip-rule="evenodd"/><path fill="#010110" d="M218.834 1.818h-15.912v56.958h15.912z"/><path fill="#010110" fill-rule="evenodd" d="M330.164 1.812h.012l-13.788 39.63h-1.05L301.676 1.818h-16.002v1.65l20.934 60.108h-19.824V76.77h19.374c8.274 0 14.718-2.79 17.844-11.694.42-1.188 21.468-61.62 21.468-61.62v-1.65h-15.306zM121.832.27c-7.236 0-13.998 3.684-18.216 10.608h-.978v-9H87.47v74.874h16.116V51.528h.99c.108.15.216.306.324.432 2.718 3.306 9.066 8.346 16.962 8.346 14.37 0 24.198-12.42 24.198-30.012S135.746.27 121.832.27m-4.812 47.688c-7.5 0-12.678-5.844-12.678-17.658s5.178-17.658 12.678-17.658 12.93 5.97 12.93 17.658-5.304 17.658-12.93 17.658M186.032 1.812c-7.47 0-12.264 1.248-15.066 9.066h-.96v-9.06h-23.07v13.08h5.148c1.698 0 2.532.6 2.748 1.992v10.872h.06v31.02h16.116V28.566c0-7.824 2.124-12.618 9.948-12.618h16.884V1.812h-11.808" clip-rule="evenodd"/><path fill="#010110" d="M30.53 60.288c16.566 0 30-13.434 30-30s-13.434-30-30-30-30 13.434-30 30 13.434 30 30 30M30.53 77.73c11.322 0 20.502-1.932 20.502-4.302s-9.174-4.302-20.502-4.302-20.502 1.932-20.502 4.302 9.174 4.302 20.502 4.302"/></svg>