<svg xmlns="http://www.w3.org/2000/svg" width="1500" height="1500" viewBox="0 0 1500 1500"><path fill="#696969" d="M521.576 213.75h431.04c11.667 0 21.125 9.458 21.125 21.125S964.283 256 952.616 256h-431.04c-11.667 0-21.125-9.458-21.125-21.125s9.458-21.125 21.125-21.125"/><path fill="#009fe3" d="M525.333 171H612v20h-86.667z"/><path fill="#c7d302" d="M638.667 171h86.666v20h-86.666z"/><path fill="#f07e16" d="M750.5 171h86.667v20H750.5z"/><path fill="#df2815" d="M861.861 171h86.667v20h-86.667zM861.861 278h86.667v146.5h-86.667z"/><path fill="#f07e16" d="M750.5 278h86.828v238H750.5z"/><path fill="#c7d302" d="M638.667 278h86.661v356.5h-86.661z"/><path fill="#009fe3" d="M525.333 278H612v434.5h-86.667z"/><path fill="#696969" d="M252.959 1173.846q-12.82 0-23.249-2.825-10.43-2.825-18.796-7.496t-14.775-10.973q-6.41-6.302-11.407-13.255h-2.608q.652 7.388 1.304 14.124.434 5.649.869 11.625.435 5.975.435 9.452v101.906h-39.546V930.921h32.158l5.649 32.158h1.739q4.997-7.605 11.298-14.232t14.667-11.516 18.795-7.822q10.43-2.934 23.467-2.934 20.425 0 37.156 7.822 16.731 7.823 28.573 23.359t18.36 38.568 6.519 53.452q0 30.637-6.519 53.778-6.518 23.141-18.36 38.785-11.842 15.645-28.573 23.576t-37.156 7.931m-7.605-214.461q-16.514 0-27.921 4.998-11.408 4.997-18.469 15.21-7.062 10.212-10.43 25.422t-3.802 35.852v8.909q0 21.946 2.933 39.003t9.995 28.681 18.795 17.6q11.734 5.976 29.334 5.976 29.333 0 43.131-23.684 13.797-23.685 13.797-68.011 0-45.195-13.797-67.575t-43.566-22.381M370.293 930.921h41.067l46.716 133.196q3.042 8.691 6.193 18.252t5.867 19.121 4.671 18.469q1.956 8.909 2.825 16.514h1.304q1.086-5.432 3.476-14.776t5.324-19.881q2.933-10.539 6.084-20.751t5.54-17.383l43.24-132.761h40.85l-94.302 269.651q-6.084 17.6-13.146 31.615-7.061 14.015-16.405 23.792-9.343 9.778-21.946 15.102-12.602 5.323-29.985 5.323-11.299 0-19.556-1.195-8.256-1.195-14.123-2.499v-31.506q4.563 1.087 11.516 1.847 6.953.761 14.558.761 10.43 0 18.035-2.499t13.254-7.279 9.669-11.734 7.279-15.862l12.386-34.765z"/><path fill="#009fe3" d="M695.568 1141.47q3.911 0 8.8-.434 4.889-.435 9.452-1.087t8.366-1.521 5.758-1.521v29.986q-2.825 1.303-7.171 2.607-4.345 1.304-9.56 2.281t-10.864 1.521q-5.65.544-11.082.544-13.472 0-24.988-3.477t-19.881-11.951q-8.366-8.474-13.146-22.923-4.78-14.45-4.78-36.395V960.689h-33.68v-17.6l33.68-16.948 16.948-49.976h22.815v54.756h59.971v29.768h-59.971V1099.1q0 21.076 6.844 31.723t22.489 10.647M868.527 1173.846q-23.901 0-43.674-8.04t-34.005-23.467-22.055-38.242q-7.822-22.815-7.822-52.148 0-29.551 7.171-52.801 7.17-23.249 20.207-39.437t31.18-24.662q18.144-8.474 40.09-8.474 21.511 0 38.676 7.714 17.166 7.713 29.117 21.728 11.95 14.015 18.36 33.68t6.41 43.565v24.553H801.821q1.086 41.936 17.708 61.709 16.623 19.773 49.433 19.773 11.081 0 20.533-1.086t18.252-3.151 17.057-5.215 16.731-7.061v35.2q-8.691 4.128-17.057 7.17t-17.165 4.998-18.252 2.825-20.534.869m-9.778-214.461q-24.77 0-39.22 16.948-14.449 16.949-16.839 49.324h106.904q0-14.775-2.933-27.052-2.934-12.276-9.126-20.968-6.193-8.691-15.753-13.471-9.561-4.781-23.033-4.781M1155.126 1104.097q0 17.383-6.301 30.42t-18.143 21.837-28.573 13.146-37.591 4.346q-23.684 0-40.632-3.803t-29.768-11.19v-36.069q6.736 3.476 14.993 6.844t17.383 5.976q9.126 2.607 18.795 4.237t19.229 1.629q14.124 0 24.01-2.39t16.08-6.844q6.192-4.455 9.017-10.865t2.825-14.232q0-6.736-2.173-12.168t-7.931-10.755-15.753-10.756-25.64-12.168-28.138-13.254q-12.494-6.519-21.186-14.559t-13.363-18.577q-4.671-10.539-4.671-25.097 0-15.21 5.975-27.052t16.84-19.881 26.074-12.168 33.896-4.129q21.077 0 38.568 4.563 17.492 4.563 33.136 11.951l-13.689 31.941q-14.123-6.301-29.007-10.973t-30.311-4.672q-22.164 0-32.811 7.279t-10.646 20.751q0 7.605 2.498 13.254 2.499 5.65 8.583 10.647 6.084 4.998 16.296 10.104t25.423 11.408q15.644 6.518 27.921 13.037 12.277 6.518 20.968 14.666t13.254 18.578 4.563 24.988M1285.28 1141.47q3.911 0 8.8-.434 4.889-.435 9.452-1.087t8.366-1.521 5.758-1.521v29.986q-2.825 1.303-7.171 2.607-4.345 1.304-9.56 2.281t-10.865 1.521q-5.649.544-11.081.544-13.472 0-24.988-3.477t-19.882-11.951-13.145-22.923q-4.781-14.45-4.781-36.395V960.689h-33.679v-17.6l33.679-16.948 16.949-49.976h22.815v54.756h59.97v29.768h-59.97V1099.1q0 21.076 6.844 31.723t22.489 10.647"/></svg>