<svg width="723" height="193" viewBox="0 0 723 193" fill="none" xmlns="http://www.w3.org/2000/svg">
<g style="mix-blend-mode:multiply">
<g clip-path="url(#clip0_144_994)">
<path d="M3.00897 14.294C4.14378 14.294 5.20077 14.294 6.25776 14.294C25.7051 14.294 45.1524 14.281 64.5997 14.3005C76.6416 14.3135 88.5797 15.1046 99.8435 19.9421C118.454 27.9311 127.993 43.961 127.773 65.7428C127.591 83.8673 115.484 97.5498 99.8435 103.756C95.3626 105.532 90.5186 106.375 85.9081 107.86C84.689 108.256 83.7293 109.449 82.6528 110.279C83.8784 110.927 85.0456 111.9 86.349 112.166C91.1866 113.152 96.2056 113.469 100.92 114.844C109.784 117.432 115.115 123.923 118.156 132.379C123.668 147.702 129.076 163.064 134.51 178.406C134.757 179.107 134.873 179.852 135.12 180.857C134.134 180.968 133.336 181.123 132.539 181.13C124.543 181.149 116.548 181.071 108.552 181.188C106.354 181.221 105.368 180.637 104.804 178.335C101.873 166.397 98.7735 154.504 95.6415 142.611C91.9063 128.423 83.1132 120.739 67.9263 119.617C55.3462 118.69 42.6882 118.819 30.0692 118.398C27.4818 118.313 27.4105 119.76 27.4105 121.698C27.4494 140.063 27.4365 158.434 27.4365 176.798C27.4365 179.694 25.9536 181.143 22.988 181.143C16.4126 181.143 9.83725 181.143 3.00897 181.143V14.294H3.00897ZM27.4365 97.6211C28.8501 97.6211 30.0044 97.6211 31.1651 97.6211C41.106 97.6211 51.0469 97.4914 60.9878 97.66C68.5683 97.7897 75.7662 96.2464 82.7631 93.5163C99.8111 86.8631 107.599 69.2121 100.706 52.4234C96.3418 41.7887 87.5552 36.5945 76.6805 35.9526C61.4936 35.0577 46.2418 35.356 31.0224 34.9928C28.1627 34.928 27.3522 35.7969 27.3716 38.6566C27.4883 57.5657 27.43 76.4748 27.43 95.3839C27.43 95.9999 27.43 96.6225 27.43 97.6211H27.4365Z" fill="#080A1C"/>
<path d="M721.307 181.031H698.858V177.504C698.858 154.056 698.89 130.607 698.825 107.159C698.819 103.716 698.566 100.24 698.08 96.829C696.458 85.5004 689.436 79.0417 677.945 78.082C664.749 76.9796 653.368 85.0918 649.679 98.8068C648.349 103.742 647.668 108.994 647.616 114.11C647.389 135.179 647.519 156.247 647.519 177.322C647.519 178.477 647.519 179.637 647.519 180.967H624.907C624.907 179.54 624.907 178.282 624.907 177.024C624.907 154.548 625.031 132.073 624.817 109.597C624.765 104.027 624.149 98.3528 622.891 92.9317C619.564 78.5489 606.154 76.0393 596.667 78.9704C584.975 82.5888 578.795 91.4662 575.813 102.626C574.36 108.073 573.809 113.89 573.737 119.551C573.491 138.784 573.647 158.018 573.647 177.251C573.647 178.412 573.647 179.572 573.647 181.129C566.358 181.129 559.368 181.168 552.384 181.057C551.852 181.051 551.1 180.111 550.873 179.456C550.6 178.684 550.782 177.75 550.782 176.881C550.782 139.277 550.782 101.673 550.782 64.0752C550.782 61.2307 552.18 59.8105 554.977 59.8149C561.021 59.8149 567.065 59.8149 573.394 59.8149C574.049 66.3578 573.53 72.6284 572.123 78.8407C571.792 80.3127 571.202 81.7523 571.046 83.2372C570.917 84.4693 571.26 85.7533 571.396 87.0113C572.428 86.1164 573.763 85.4031 574.418 84.2877C576.169 81.3243 577.421 78.069 579.23 75.1445C587.472 61.8316 603.716 55.2302 618.818 59.1469C629.453 61.9029 636.301 68.9387 640.14 79.0676C640.639 80.3775 640.801 81.8495 641.482 83.0427C642.001 83.9505 643.071 85.0529 643.953 85.0983C644.835 85.1502 646.118 84.2034 646.644 83.341C648.375 80.4878 649.627 77.3362 651.442 74.5479C659.568 62.0845 670.922 56.365 685.895 58.3428C693.482 59.3415 700.492 61.3776 706.685 66.3448C714.732 72.797 718.5 81.3632 720.082 91.0577C721.003 96.6733 721.346 102.438 721.379 108.138C721.521 131.476 721.444 154.814 721.437 178.159C721.437 179.002 721.346 179.845 721.281 181.031H721.307Z" fill="#080A1C"/>
<path d="M394.993 181.137C387.957 181.137 381.265 181.202 374.58 181.04C373.886 181.021 372.667 179.724 372.628 178.978C372.271 171.832 372.518 164.744 374.975 157.877C375.397 156.697 374.885 155.179 374.807 153.818C373.73 154.758 372.103 155.484 371.655 156.664C367.168 168.427 359.03 176.598 347.156 180.366C328.5 186.28 311.426 182.823 296.92 169.497C284.58 158.162 279.347 143.313 278.011 127.03C276.688 110.916 279.742 95.6573 288.322 81.7154C298.567 65.0759 316.569 56.4579 335.899 58.1828C347.377 59.2074 357.246 63.6104 364.749 72.3971C367.499 75.6134 369.223 79.7052 371.389 83.4144C371.824 84.1536 371.953 85.1523 372.537 85.7099C373.205 86.3454 374.223 86.6178 375.086 87.0458C375.306 86.1833 375.896 85.2236 375.695 84.4714C369.243 60.2968 373.815 35.6877 372.745 11.3121C372.745 11.2213 372.835 11.1306 373.023 10.7804H395V181.137H394.993ZM300.234 120.331C300.856 124.916 301.129 129.578 302.186 134.059C304.209 142.658 308.119 150.517 315.382 155.731C330.964 166.91 351.948 163.233 362.894 148.85C374.463 133.644 375.728 116.713 367.739 99.7037C360.21 83.6738 344.679 74.9325 325.608 80.0683C320.835 81.3523 316.646 83.4403 313.093 87.0263C303.917 96.2798 300.565 107.628 300.227 120.338L300.234 120.331Z" fill="#080A1C"/>
<path d="M172.792 97.4986H150.874C151.594 90.8195 153.708 84.8277 157.067 79.264C162.274 70.6459 170.017 65.0757 179.361 61.9047C195.495 56.4317 211.804 56.289 228.022 61.6388C243.818 66.8524 252.754 78.0319 255.257 94.2953C256.158 100.144 256.677 106.104 256.723 112.018C256.891 134.169 256.794 156.32 256.787 178.478C256.787 179.224 256.703 179.97 256.651 180.923H234.15C233.923 172.863 233.612 164.919 236.089 157.157C236.549 155.724 236.964 154.252 237.12 152.767C237.191 152.086 236.568 151.327 236.264 150.608C235.524 151.055 234.461 151.327 234.098 151.982C232.379 155.088 231.141 158.499 229.208 161.45C218.256 178.161 202.284 184.412 182.96 182.603C169.998 181.39 158.954 175.923 151.88 164.562C139.423 144.544 149.487 119.514 172.501 112.459C183.395 109.119 194.665 109.203 205.857 108.49C211.778 108.114 217.711 107.667 223.599 106.94C236.367 105.364 235.674 96.2212 231.322 88.1738C228.456 82.8694 223.171 80.5738 217.562 79.3483C207.835 77.2213 198.05 77.0462 188.375 79.6336C180.237 81.8124 175.276 87.1946 173.46 95.443C173.324 96.072 173.065 96.6751 172.792 97.4922V97.4986ZM233.702 116.129C229.825 120.357 225.266 122.25 220.325 123.152C213.114 124.462 205.825 125.337 198.634 126.725C192.006 128.009 185.113 128.897 178.953 131.446C168.175 135.894 166.34 150.582 175.101 157.961C179.284 161.489 184.322 162.422 189.607 162.533C218.003 163.155 234.824 141.756 233.709 116.129H233.702Z" fill="#080A1C"/>
<path d="M531.579 120.306C531.741 135.604 528.025 149.773 518.435 161.996C509.187 173.785 496.906 180.451 482.166 182.384C469.962 183.979 458.05 182.714 446.812 177.267C432.864 170.504 423.578 159.493 418.565 145.039C412.554 127.699 412.645 110.216 419.661 93.1555C429.051 70.3232 448.991 57.5226 473.801 57.9311C492.743 58.2424 508.455 65.2328 519.829 80.7375C526.962 90.4644 530.483 101.585 531.546 113.517C531.747 115.761 531.572 118.043 531.572 120.306H531.579ZM509.097 118.737C509.162 112.395 507.728 104.815 504.045 97.7725C497.833 85.8927 488.177 79.2071 474.605 78.7661C460.897 78.3187 449.99 83.6555 443.434 95.8271C434.284 112.804 434.446 130.118 444.4 146.712C456.552 166.976 484.494 165.569 496.601 153.294C505.64 144.131 509.162 132.893 509.097 118.737V118.737Z" fill="#080A1C"/>
</g>
</g>
<defs>
<clipPath id="clip0_144_994">
<rect width="718.474" height="172.38" fill="#080A1C" transform="translate(3.00172 10.7747)"/>
</clipPath>
</defs>
</svg>
