<svg xmlns="http://www.w3.org/2000/svg" width="86" height="26" fill="none"><path fill="#F3F5F0" d="M79.034 11.505a5.483 5.483 0 0 0-5.478-5.478H62.051V25.75h-6.025V3.013A3.011 3.011 0 0 1 59.038 0h14.518c6.356 0 11.505 5.15 11.505 11.505V25.75h-6.025V11.505h-.002ZM53.013 0h-6.025v25.747h6.025V0Zm-17.53 25.747a8.491 8.491 0 0 0 8.49-8.49V8.492a8.491 8.491 0 0 0-8.49-8.49H11.806C5.45 0 .301 5.149.301 11.505V25.75h6.025V11.505a5.483 5.483 0 0 1 5.478-5.478h23.677a2.468 2.468 0 0 1 2.465 2.465v8.765a2.468 2.468 0 0 1-2.465 2.465H24.525a2.468 2.468 0 0 1-2.465-2.465 2.468 2.468 0 0 1 2.465-2.466h10.682V8.766H24.525a8.491 8.491 0 0 0 0 16.981h10.958Z"/></svg>