<svg xmlns="http://www.w3.org/2000/svg" width="147" height="35" fill="none"><path fill="#F3F5F0" d="m14.136 0 2.197.329a13.143 13.143 0 0 1 9.608 16.637c-.814 2.72-2.582 5.106-4.844 6.788l6.508 10.652H.301V0h13.835ZM7.328 26.206V12.261c0-.295.3-1.166.426-1.477 1.374-3.4 5.503-4.783 8.7-2.964 3.638 2.07 4.082 7.178.983 9.942l2.15 3.462c1.354-.985 2.469-2.418 3.147-3.95 2.86-6.46-1.495-13.65-8.413-14.349l-11.166.003v28.549h19.252l-3.85-6.29c-3.529 1.573-7.477.862-11.23 1.02h.001Zm2.855-13.505v10.65c2.281-.038 4.667.233 6.81-.697l-2.578-4.23c-1.018-2.061 1.235-2.494 1.906-3.978 1.253-2.769-1.635-5.521-4.358-4.21-.87.418-1.665 1.494-1.78 2.464Zm43.009-6.994c3.495.18 6.703 1.733 7.477 5.407.69 3.28-.347 6.669-3.463 8.202-.34.167-.792.272-1.106.432-.067.034-.12-.02-.094.125l5.344 8.75h-5.636l-4.832-8.345h-4.684v8.345h-4.832V5.71l11.826-.003Zm-6.994 10.69h6.625c.17 0 1.099-.293 1.301-.382a3.06 3.06 0 0 0 1.809-2.51c.252-2.714-1.42-3.843-3.912-3.992-1.9-.114-3.912.09-5.823.002v6.882Zm58.415-10.98v12.737l6.112-6.515h5.161l-6.139 6.758 6.871 10.225h-5.161l-4.722-7.247c-.061-.047-.399.234-.473.295-.549.45-1.043 1.034-1.649 1.388v5.564h-4.465V5.417h4.465Zm-18.447 0v12.737c2.048-2.039 3.952-4.222 5.971-6.294.084-.085.093-.22.105-.22h5.27l-6.277 6.696 6.936 10.286h-5.16l-4.834-7.247-2.01 1.793v5.454H81.7V5.417h4.465Zm47.289 23.205h-4.466c-.363-.56-.374-1.12-.475-1.756-1.452 1.88-4.046 2.292-6.298 2.125-3.594-.266-5.893-3.641-4.574-7.069 1.246-3.237 5.544-3.163 8.36-3.718 1.132-.224 2.714-.488 2.529-1.971-.261-2.095-3.607-2.096-5.025-1.184-.738.474-1.076 1.165-1.443 1.928l-4.094-.652c.516-2.68 2.962-4.396 5.516-4.884 3.538-.677 9.129.072 9.53 4.554.292 3.268-.166 6.989-.003 10.324.039.782.135 1.581.443 2.303Zm-4.905-8.272c-1.954 1.026-6.819.291-6.664 3.554.127 2.683 3.81 2.304 5.347 1.023.6-.5 1.317-1.627 1.317-2.417v-2.16Zm-49.777 8.272h-4.355c-.57-.43-.377-1.182-.586-1.757-1.647 2.27-5.869 2.67-8.262 1.6-2.481-1.111-3.563-3.872-2.644-6.43 1.16-3.227 5.238-3.262 8.03-3.757.973-.172 2.867-.441 2.917-1.696.104-2.64-4.175-2.614-5.639-1.025-.394.428-.56.955-.855 1.417l-4.052-.578c.243-1.736 1.494-3.224 3.001-4.064 3.529-1.966 11.542-1.612 12.005 3.59.324 3.63-.26 7.649.084 11.335.044.476.231.911.356 1.364Zm-4.904-8.345c-1.794 1.165-6.67.334-6.666 3.477.003 2.76 3.679 2.521 5.275 1.245.604-.482 1.39-1.63 1.39-2.416v-2.306Zm72.835-8.931v4.246c-2.519-.404-5.263-.123-6.023 2.725-.054.201-.199.804-.199.972v9.333h-4.465V11.639h4.245v2.526c0 .013.117.13.145.11 1.11-2.412 3.761-3.377 6.297-2.929Z"/></svg>