<?xml version="1.0" encoding="utf-8"?>
<!-- Generator: Adobe Illustrator 26.4.1, SVG Export Plug-In . SVG Version: 6.00 Build 0)  -->
<svg version="1.1" id="Layer_1" xmlns="http://www.w3.org/2000/svg" xmlns:xlink="http://www.w3.org/1999/xlink" x="0px" y="0px"
	 viewBox="0 0 1079.96 500" style="enable-background:new 0 0 1079.96 500;" xml:space="preserve">
<style type="text/css">
	.st0{fill:#FFFFFF;}
	.st1{fill:url(#SVGID_1_);}
	.st2{fill:url(#SVGID_00000046331575777552766000000005712596534640752514_);}
	.st3{fill:url(#SVGID_00000041975954260190796630000009979628649597461925_);}
	.st4{opacity:0.4;fill:#070707;}
	.st5{fill:#181B30;}
</style>
<g>
	<circle class="st0" cx="240.19" cy="250" r="171.17"/>
	<g>
		<g>
			<g>
				<linearGradient id="SVGID_1_" gradientUnits="userSpaceOnUse" x1="209.9151" y1="166.193" x2="377.8069" y2="166.193">
					<stop  offset="0" style="stop-color:#469BF5"/>
					<stop  offset="0.0911" style="stop-color:#3B81F4"/>
					<stop  offset="0.2081" style="stop-color:#3068F3"/>
					<stop  offset="0.3386" style="stop-color:#2754F2"/>
					<stop  offset="0.4881" style="stop-color:#2147F1"/>
					<stop  offset="0.673" style="stop-color:#1D3EF1"/>
					<stop  offset="1" style="stop-color:#1C3CF1"/>
				</linearGradient>
				<path class="st1" d="M216.65,195.37c0,0,7.23,4.01,18.2,10.08l142.96-59.3c-5.16-6.83-10.82-13.25-16.92-19.23
					c-1.01,0.57-1.85,0.89-1.85,0.89l-149.12,62.7C211.6,192.24,213.8,193.88,216.65,195.37z"/>
				
					<linearGradient id="SVGID_00000009587041255553508260000004713375059570025357_" gradientUnits="userSpaceOnUse" x1="103.7313" y1="335.3581" x2="269.0492" y2="335.3581">
					<stop  offset="0.0754" style="stop-color:#469BF5"/>
					<stop  offset="0.2387" style="stop-color:#4292F5"/>
					<stop  offset="0.5078" style="stop-color:#3779F4"/>
					<stop  offset="0.8475" style="stop-color:#2550F2"/>
					<stop  offset="1" style="stop-color:#1C3CF1"/>
				</linearGradient>
				<path style="fill:url(#SVGID_00000009587041255553508260000004713375059570025357_);" d="M124.36,372.16l144.69-60.33
					l-26.91-15.21l-110.45,46.92l-27.96,11.82c5.14,6.64,10.75,12.9,16.79,18.72L124.36,372.16z"/>
				
					<linearGradient id="SVGID_00000159441562621019374020000001183287686751020980_" gradientUnits="userSpaceOnUse" x1="67.7471" y1="250" x2="412.5929" y2="250">
					<stop  offset="0.0754" style="stop-color:#469BF5"/>
					<stop  offset="0.7046" style="stop-color:#2857F2"/>
					<stop  offset="1" style="stop-color:#1C3CF1"/>
				</linearGradient>
				<path style="fill:url(#SVGID_00000159441562621019374020000001183287686751020980_);" d="M392.99,170.16l-26.34,10.2
					c-21.09,7.72-104.05,40.42-104.05,40.42c13.56,7.48,28.21,15.53,41.12,22.58c32.99,18.02,12.11,57.57,7.75,65.08
					c-0.06,0.1-0.12,0.2-0.18,0.3c-0.35,0.6-0.57,0.95-0.57,0.95s3.1-29.56-17.73-40.49c-21-10.9-69.15-36.55-89.38-47.35
					c-9.53-5.09-16.45-14.31-17.75-25.03c-0.98-8.02,1.04-17.25,10.67-25.33c5.19-4.79,10.73-7.56,11.55-7.95
					c0.07-0.03,0.13-0.06,0.2-0.09l107.46-44.09c0,0,0.68-0.27,1.67-0.78l22.37-9.29c-28.14-19.95-62.49-31.72-99.6-31.72
					c-95.38,0-174.15,80.28-172.39,175.65c0.54,29.45,8.5,57.07,22.03,81.13l41.62-18.14l82.84-34.76
					c-14.28-7.83-27.48-15.12-33.74-18.46c-3.13-1.67-7.04-4.3-10.17-5.96c-16.78-8.87-27.78-33.91-2.31-63.63
					c0,0-2.64,28.2,13.13,37.78c15.06,9.16,73.63,39.15,90.78,48.35c3.9,2.09,7.53,4.68,10.53,7.92c7.59,8.2,10.58,18.54,7.6,29.51
					c-0.13,0.52-0.3,1.01-0.46,1.52c-0.1,0.32-0.21,0.65-0.32,0.98c-0.18,0.5-0.35,0.99-0.55,1.47c-0.06,0.15-0.11,0.31-0.17,0.46
					c-5.93,14.34-21.73,18.66-21.73,18.66l-1.91,0.64l-100.68,41.31l-22.2,9.75c28.1,19.49,62.24,30.86,99.07,30.66
					c95.46-0.52,173.77-81.28,171.42-176.72C411.87,218.48,404.86,192.85,392.99,170.16z"/>
			</g>
			<polygon class="st4" points="214.36,281.33 242.23,296.5 228.3,302.42 199.11,287.73 			"/>
			<path class="st4" d="M266.81,339.93c0,0,23.15-16.39,2.2-28.22l-13.16,5.48C255.86,317.19,277.8,323.07,266.81,339.93z"/>
			<polygon class="st4" points="262.69,220.67 234.82,205.5 249.05,199.56 278.47,214.55 			"/>
			<path class="st4" d="M212.17,161.97c0,0-23.39,16.55-2.23,28.51l13.29-5.54C223.23,184.94,201.07,179,212.17,161.97z"/>
		</g>
		<g>
			<path class="st5" d="M540.69,213.29H527.4v40.21h-27.97V131.12h48.95c23.25,0,41.96,18.71,41.96,41.96
				c0,15.04-9.09,28.67-22.55,35.49l26.05,44.93h-30.07L540.69,213.29z M527.4,188.81h20.98c7.69,0,13.99-6.82,13.99-15.73
				c0-8.92-6.29-15.73-13.99-15.73H527.4V188.81z"/>
			<path class="st5" d="M691.38,166.08v87.41h-26.22v-8.22c-5.77,6.64-14.34,10.66-26.05,10.66c-22.9,0-41.78-20.11-41.78-46.15
				c0-26.05,18.88-46.16,41.78-46.16c11.71,0,20.28,4.02,26.05,10.67v-8.22H691.38z M665.16,209.79c0-13.11-8.74-21.33-20.81-21.33
				c-12.06,0-20.8,8.22-20.8,21.33s8.74,21.33,20.8,21.33C656.42,231.12,665.16,222.9,665.16,209.79z"/>
			<path class="st5" d="M794.52,199.82v53.67H768.3v-49.83c0-10.84-6.82-15.91-15.21-15.91c-9.61,0-16.26,5.6-16.26,18.01v47.73
				H710.6v-87.41h26.22v8.22c4.72-6.47,13.46-10.67,25-10.67C779.48,163.63,794.52,176.22,794.52,199.82z"/>
			<path class="st5" d="M902.21,166.08v83.04c0,29.37-22.9,41.78-46.15,41.78c-18.18,0-33.39-6.82-41.43-21.15L837,256.82
				c3.32,6.12,8.39,11.01,19.93,11.01c12.24,0,19.76-6.3,19.76-18.71v-8.04c-5.77,7.17-14.16,11.36-25.53,11.36
				c-24.82,0-43.01-20.28-43.01-44.4s18.18-44.41,43.01-44.41c11.37,0,19.76,4.2,25.53,11.37v-8.92H902.21z M876.68,208.04
				c0-12.06-8.74-20.28-21.15-20.28c-12.41,0-21.15,8.22-21.15,20.28c0,12.06,8.74,20.28,21.15,20.28
				C867.94,228.32,876.68,220.1,876.68,208.04z"/>
			<path class="st5" d="M917.06,209.79c0-26.05,20.63-46.16,46.33-46.16s46.33,20.11,46.33,46.16c0,26.05-20.63,46.15-46.33,46.15
				S917.06,235.84,917.06,209.79z M983.49,209.79c0-12.41-8.74-20.63-20.11-20.63c-11.36,0-20.1,8.22-20.1,20.63
				c0,12.41,8.74,20.63,20.1,20.63C974.75,230.42,983.49,222.2,983.49,209.79z"/>
		</g>
		<g>
			<path class="st5" d="M504.42,367.02h38.01v5.43h-43.77v-76.02h43.22v5.43h-37.47v29.54h34.75v5.43h-34.75V367.02z"/>
			<path class="st5" d="M602.17,372.45h-6.63l-18.35-23.67l-18.35,23.67h-6.63l21.72-27.91l-20.42-26.39h6.63l17.05,22.05
				l17.16-22.05h6.52l-20.31,26.28L602.17,372.45z"/>
			<path class="st5" d="M637.24,373.65c-8.18,0-14.99-2.72-20.42-8.15c-5.43-5.43-8.14-12.16-8.14-20.2c0-8.04,2.72-14.77,8.14-20.2
				c5.43-5.43,12.24-8.15,20.42-8.15c5.29,0,10.06,1.25,14.34,3.75c4.27,2.5,7.39,5.88,9.34,10.15l-4.45,2.61
				c-1.6-3.48-4.11-6.23-7.55-8.26c-3.44-2.02-7.33-3.04-11.68-3.04c-6.52,0-11.98,2.23-16.4,6.68c-4.42,4.45-6.63,9.94-6.63,16.45
				c0,6.52,2.21,12,6.63,16.45c4.42,4.45,9.88,6.68,16.4,6.68c4.35,0,8.24-1.01,11.68-3.04c3.44-2.03,6.06-4.78,7.87-8.25l4.56,2.71
				c-2.17,4.2-5.41,7.55-9.72,10.05C647.32,372.4,642.53,373.65,637.24,373.65z"/>
			<path class="st5" d="M700.77,316.96c6.44,0,11.57,1.98,15.37,5.92c3.8,3.95,5.7,9.21,5.7,15.8v33.78h-5.54v-33.78
				c0-5.07-1.4-9.08-4.18-12.05c-2.79-2.97-6.72-4.45-11.78-4.45c-5.58,0-10.14,1.85-13.68,5.54c-3.55,3.69-5.32,9.05-5.32,16.07
				v28.67h-5.43v-76.02h5.43v32.03C685.24,320.79,691.72,316.96,700.77,316.96z"/>
			<path class="st5" d="M787.54,318.15h5.54v54.3h-5.54v-12.27c-2.32,4.2-5.5,7.49-9.56,9.88c-4.06,2.39-8.65,3.59-13.79,3.59
				c-7.75,0-14.37-2.73-19.87-8.2c-5.5-5.47-8.25-12.18-8.25-20.14c0-7.96,2.75-14.68,8.25-20.14c5.5-5.47,12.13-8.2,19.87-8.2
				c5.14,0,9.74,1.2,13.79,3.59c4.05,2.39,7.24,5.68,9.56,9.88V318.15z M748.28,361.7c4.45,4.49,9.9,6.73,16.34,6.73
				s11.87-2.24,16.29-6.73c4.42-4.49,6.62-9.95,6.62-16.4c0-6.44-2.21-11.91-6.62-16.4c-4.42-4.49-9.85-6.73-16.29-6.73
				s-11.89,2.25-16.34,6.73c-4.45,4.49-6.68,9.96-6.68,16.4C741.6,351.75,743.83,357.21,748.28,361.7z"/>
			<path class="st5" d="M837.28,316.96c6.44,0,11.57,1.98,15.37,5.92c3.8,3.95,5.7,9.21,5.7,15.8v33.78h-5.54v-33.78
				c0-5.07-1.4-9.08-4.18-12.05c-2.79-2.97-6.72-4.45-11.78-4.45c-5.58,0-10.14,1.85-13.68,5.54c-3.55,3.69-5.32,9.05-5.32,16.07
				v28.67h-5.43v-54.3h5.43v10.32C821.75,320.79,828.23,316.96,837.28,316.96z"/>
			<path class="st5" d="M924.48,318.15h5.43v51.69c0,7.89-2.57,14.12-7.71,18.68c-5.14,4.56-11.58,6.84-19.33,6.84
				c-6.23,0-11.55-1.16-15.96-3.48c-4.42-2.32-7.64-5.5-9.67-9.56l4.78-2.72c3.48,7.02,10.43,10.53,20.85,10.53
				c6.73,0,12.02-1.83,15.86-5.48c3.84-3.66,5.76-8.6,5.76-14.82v-9.99c-2.25,4.27-5.41,7.64-9.5,10.1
				c-4.09,2.46-8.71,3.69-13.85,3.69c-7.82,0-14.46-2.73-19.93-8.2c-5.47-5.47-8.2-12.18-8.2-20.14c0-7.96,2.73-14.68,8.2-20.14
				c5.47-5.47,12.11-8.2,19.93-8.2c5.14,0,9.76,1.23,13.85,3.69c4.09,2.46,7.26,5.83,9.5,10.1V318.15z M885.12,361.7
				c4.45,4.49,9.9,6.73,16.34,6.73c6.44,0,11.89-2.24,16.34-6.73c4.45-4.49,6.68-9.95,6.68-16.4c0-6.44-2.22-11.91-6.68-16.4
				c-4.45-4.49-9.9-6.73-16.34-6.73c-6.45,0-11.89,2.25-16.34,6.73c-4.45,4.49-6.68,9.96-6.68,16.4
				C878.44,351.75,880.67,357.21,885.12,361.7z"/>
			<path class="st5" d="M973.68,316.96c7.96,0,14.42,2.83,19.38,8.47c4.96,5.65,7.44,12.35,7.44,20.09c0,0.29-0.02,0.73-0.05,1.3
				c-0.04,0.58-0.06,1.02-0.06,1.3h-49.2c0.65,6.08,3.1,10.99,7.33,14.72c4.24,3.73,9.47,5.59,15.69,5.59
				c4.34,0,8.15-0.91,11.4-2.72c3.26-1.81,5.72-4.2,7.38-7.17l4.78,2.83c-2.24,3.77-5.43,6.75-9.56,8.96
				c-4.13,2.21-8.83,3.31-14.12,3.31c-8.33,0-15.17-2.66-20.52-7.98c-5.36-5.32-8.04-12.11-8.04-20.36c0-8.11,2.62-14.86,7.87-20.25
				C958.67,319.65,965.43,316.96,973.68,316.96z M973.68,322.17c-6.16,0-11.3,1.92-15.42,5.76c-4.13,3.84-6.48,8.8-7.06,14.88h43.66
				c-0.58-6.44-2.88-11.49-6.9-15.15C983.94,324,979.18,322.17,973.68,322.17z"/>
		</g>
	</g>
</g>
</svg>
