<svg xmlns="http://www.w3.org/2000/svg" id="Layer_1" data-name="Layer 1" viewBox="0 0 1350 540"><defs><style>.cls-1{fill:#fff}</style></defs><path d="M487.65 330.14h-43.68v53.63H400.4V232.05h104.43c49.2 0 63.47 25.01 63.47 48.13 0 16.93-8.64 36.77-34.51 44.86l40.65 58.8h-49.51zm-43.69-27.53h57.77c21.13 0 27.38-10.47 27.38-21.14s-6.24-20.53-27.17-20.53h-57.98zM763.42 353.66v30.11H607.18V232.05h154.73v30.11H650.76v30.59h107.45v28.21H650.83v32.7h112.6ZM935.64 353.25h-85.43l-14.2 30.59h-46.79l76.51-151.79h54.41l76.37 151.79h-46.59l-14.27-30.59Zm-72.53-27.6h59.56l-29.98-67.77-29.57 67.77ZM1193.55 282.49c0 32.49-25.46 53.22-64.98 53.22h-59.56v48.13h-43.57V232.05h104.23c39.93 0 63.88 19.03 63.88 50.44m-38.91 1.08c0-14.55-10.36-22.64-28.68-22.64h-56.95v45.95h56.67c18.39 0 28.95-8.56 28.95-23.32ZM306.24 204.01c2.84-5.52 3.38-6.58 6.22-12.1l-24.74-35.74h-34.77c-2.85 5.54-3.39 6.58-6.24 12.11l19.08 27.56-5.54 10.77H211.8c-2.88 5.45-3.45 6.54-6.33 12l27.9 40.29-8.66 16.84h-61.95l-6.3 12.03 66.42 96 74.54-.06c2.93-5.59 3.5-6.69 6.43-12.28l-65.64-94.95 3.35-6.51 48.11-.05c2.85-5.53 3.39-6.57 6.24-12.1l-27.6-39.89 7.09-13.79 30.85-.13Z" class="cls-1"/></svg>