<?xml version="1.0" encoding="UTF-8"?>
<svg id="Layer_1" xmlns="http://www.w3.org/2000/svg" version="1.1" viewBox="0 0 3061.42 3061.42">
  <!-- Generator: Adobe Illustrator 29.0.1, SVG Export Plug-In . SVG Version: 2.1.0 Build 192)  -->
  <defs>
    <style>
      .st0 {
        fill: #fff;
      }
    </style>
  </defs>
  <rect width="3061.42" height="3061.42"/>
  <path class="st0" d="M2214.5,890.47c27.56-53.63,32.83-63.86,60.39-117.49l-240.19-346.94h-337.48c-27.71,53.77-32.89,63.83-60.61,117.6l185.16,267.56-53.74,104.55h-470.28c-27.91,52.94-33.48,63.51-61.4,116.45l270.78,391.12-84.02,163.47h-601.38c-27.86,53.16-33.34,63.6-61.2,116.76l644.78,931.82,723.52-.58,62.44-119.18-637.16-921.69,32.5-63.2,466.95-.46c27.69-53.68,32.92-63.82,60.61-117.49l-267.91-387.18,68.8-133.85,299.45-1.24Z"/>
</svg>