<svg xmlns="http://www.w3.org/2000/svg" width="2500" height="2500" viewBox="3 3 100 100"><path fill="#7cc245" d="M44.501 90.799 38.14 77.582 26.744 95.533a51 51 0 0 0 3.037 1.744 49 49 0 0 0 3.997 1.888 49.8 49.8 0 0 0 13.611 3.515q1.463.162 2.947.242z"/><path fill="#fccb32" d="M101.18 39.637a49 49 0 0 0-1.076-3.361l-35.156 31.05-4.852 4.283.399 3.959 2.665 26.386a50 50 0 0 0 5.146-1.351C88.432 94.139 103 75.273 103 53c0-4.63-.643-9.107-1.82-13.363"/><path fill="#ee3f26" d="m32.055 79.66 7.757 16.117 26.939-23.791-4.881-48.339z"/><path fill="#cf3627" d="m35.46 77.895 25.683-48.248.184 1.835 2.749-5.165-.002-.025-48.368 15.166 19.142 39.771 1.164-2.188z"/><path fill="#f05048" d="m42.142 91.777 5.247 10.9c1.843.208 3.713.323 5.611.323 5.34 0 10.48-.846 15.307-2.396l-2.961-29.317z"/><path fill="#fccb32" d="m65.346 71.285 2.961 29.318C88.432 94.139 103 75.273 103 53c0-4.63-.643-9.107-1.82-13.363z"/><path fill="#2591d4" d="M58.48 3.305A50 50 0 0 0 53 3c-17.834 0-33.477 9.345-42.328 23.397a50 50 0 0 0-5.308 11.454L18.64 42.95l42.5-13.325.016-.005 4.562-24.974a50 50 0 0 0-7.238-1.341"/><path fill="#f47f22" d="M90.823 20.319A50.1 50.1 0 0 0 73.084 7.211a50 50 0 0 0-7.367-2.564l-4.562 24.974-.014.026 4.205 41.638 35.834-31.648a49.86 49.86 0 0 0-10.357-19.318"/><path fill="#4caa4c" d="M35.46 77.895 18.64 42.95 5.365 37.851A49.6 49.6 0 0 0 3 53c0 17.766 9.273 33.355 23.235 42.225a51 51 0 0 0 3.546 2.055l8.537-13.446z"/><path fill="#7cc245" d="m42.142 91.777-3.824-7.945-8.537 13.445a49 49 0 0 0 3.997 1.888 49.8 49.8 0 0 0 13.611 3.515z"/><path fill="#f47f22" d="M90.823 20.319A50.1 50.1 0 0 0 73.084 7.211l-11.93 22.41zm-29.68 9.328 4.203 41.638 35.834-31.648a49.9 49.9 0 0 0-10.355-19.318l-29.668 9.302z"/><path fill="#ee3f26" d="m35.46 77.895 6.682 13.882 23.204-20.492-4.203-41.638z"/><path fill="#1e85ca" d="m61.141 29.625-2.658-26.32A50 50 0 0 0 53 3c-17.834 0-33.477 9.345-42.328 23.397L18.64 42.95z"/><path fill="#cf3627" d="M61.141 29.625 18.64 42.95l16.82 34.945 25.683-48.248z"/><path fill="#35a9e1" d="M61.154 29.621 73.084 7.21A49.7 49.7 0 0 0 58.48 3.305l2.658 26.32z"/><path fill="#f05048" d="m42.142 91.777 5.247 10.9c1.843.208 3.713.323 5.611.323 5.34 0 10.48-.846 15.307-2.396l-2.961-29.317z"/><path fill="#fccb32" d="m65.346 71.285 2.961 29.318C88.432 94.139 103 75.273 103 53c0-4.63-.643-9.107-1.82-13.363z"/><path fill="#7cc245" d="M33.778 99.165a49.8 49.8 0 0 0 13.611 3.515l-5.247-10.9z"/><path fill="#0161ad" d="M10.672 26.397a49.7 49.7 0 0 0-7.399 21.371L18.64 42.95z"/><path fill="#4caa4c" d="M18.64 42.95 3.273 47.768A51 51 0 0 0 3 53c0 17.766 9.273 33.355 23.235 42.225l9.225-17.33z"/><path fill="#51b34b" d="m35.46 77.895-9.225 17.33a49.6 49.6 0 0 0 7.542 3.94l8.364-7.388z"/><path fill="#444344" d="M62.195 13.994 61 17.5c10.416 5.642 20.512 15.676 25.994 24.419l3.589-1.081c-5.866-9.558-16.946-20.65-28.388-26.844"/><path fill="#ee3f26" d="M79.566 5.871c-6.705 0-12.539 3.673-15.635 9.111a18 18 0 0 0-1.072 2.208c-.077.196-.139.398-.207.599-.062.182-.133.36-.189.543 9.379 5.46 18.322 14.28 23.68 22.285.08-.031.162-.054.241-.086a17 17 0 0 0 1.731-.838c.427-.234.848-.477 1.254-.741 4.932-3.21 8.199-8.756 8.199-15.079 0-9.942-8.058-18.002-18.002-18.002"/><path fill="#c03225" d="M62.652 17.789c-.062.182-.133.36-.189.543 9.379 5.46 18.322 14.28 23.68 22.285.08-.031.162-.054.241-.086a17 17 0 0 0 1.731-.838c-5.692-7.963-15.441-16.77-25.463-21.904"/></svg>