<svg xmlns="http://www.w3.org/2000/svg" width="269" height="56" fill="none" viewBox="0 0 269 56"><path fill="#e41b38" d="M13.364 40.407c0 4.488-.02 8.955.02 13.442 0 .878-.202 1.197-1.15 1.177-3.447-.06-6.895-.04-10.343-.02-.766 0-1.029-.2-1.029-.997.02-8.895-.14-17.77.06-26.665.162-8.017 3.368-14.838 9.498-20.223 3.165-2.772 6.815-4.786 10.928-5.803C25.724.24 30.16.06 34.636 1.078c9.376 2.154 15.828 7.738 19.578 16.354 1.795 4.128 2.42 8.536 1.855 13.103-1.108 9.015-5.605 15.815-13.327 20.582-4.154 2.573-8.751 3.79-13.651 3.869-2.057.02-4.113-.02-6.17.02-.726.02-.968-.24-.968-.957.02-3.47.04-6.96 0-10.43 0-.799.282-.998 1.049-.978q2.872.06 5.746 0c6.13-.12 10.586-2.992 13.389-8.297 4.637-8.775-.807-19.126-10.223-21.34-7.582-1.774-15.506 2.773-17.825 10.331-.463 1.496-.665 3.092-.705 4.667-.08 4.128-.02 8.277-.02 12.405"/><path fill="#e41b38" d="M22.176 34.305c0-2.872-.303-5.625.08-8.257.424-2.892 3.489-4.846 5.868-4.826 3.206.04 5.404 1.316 6.553 3.948 1.553 3.55-.444 7.858-4.254 8.736-1.694.399-3.509.299-5.263.379-.988.06-1.996.02-2.984.02"/><path fill="#191616" d="M80.307 34.66c3.809-1.39 6.44-5.293 6.44-9.981 0-3.723-1.792-7.29-4.694-9.308-2.472-1.705-5.08-2.064-8.503-2.064h-9.886V47.85h5.374V18.668h3.65c2.993 0 4.966 0 6.44 1.323 1.338 1.211 1.995 2.76 1.995 4.755 0 3.185-2.38 5.339-5.895 5.339h-5.034l11.042 17.764h6.394l-7.663-12.247a.63.63 0 0 1 .34-.942M102.278 20.44c-8.027 0-13.854 5.787-13.854 13.75 0 7.603 6.144 13.794 13.718 13.794 5.804 0 10.339-3.185 12.765-8.95 0 0 .658-1.099.431-1.345-.159-.18-.658-.135-.658-.135h-4.421s-.363 0-.567.09c-.181.09-.295.538-.295.538-1.405 3.006-4.104 4.71-7.346 4.71-4.195 0-7.324-2.624-8.095-6.639h20.724s.59.068.839-.157c.295-.269.25-1.144.25-1.144-.023-8.545-5.555-14.512-13.491-14.512m-8.14 11.058c.997-3.746 3.877-6.011 7.686-6.011 4.127 0 6.757 1.974 8.027 6.011zM160.12 20.352c-7.415 0-13.446 6.213-13.446 13.884 0 7.58 6.122 13.749 13.672 13.749 7.483 0 13.582-6.303 13.582-14.063 0-7.492-6.19-13.57-13.808-13.57m.226 22.519c-4.693 0-8.253-3.746-8.253-8.703 0-5.473 4.059-8.747 7.981-8.747 4.875 0 8.435 3.656 8.435 8.702 0 5.002-3.515 8.748-8.163 8.748M263.036 21.046l-7.12 17.652-6.802-17.652h-5.895l9.795 25.054-3.719 8.927h5.692l14.012-33.981zM144.7 13.33h-5.238c-.023 0-.023 0-.023.022v10.003c-2.199-1.816-4.988-2.758-8.162-2.758-7.71 0-13.537 5.854-13.537 13.615 0 7.693 5.941 13.749 13.537 13.749 3.038 0 5.918-.987 8.162-2.759v2.108c0 .023 0 .023.023.023h5.238c.022 0 .022 0 .022-.023zm-13.242 29.584c-4.104 0-8.344-3.32-8.344-8.882 0-4.665 3.696-8.478 8.253-8.478 3.605 0 7.437 2.983 8.072 7.558v2.512c-.612 3.948-4.149 7.29-7.981 7.29M241.566 21.135h-5.237c-.023 0-.023 0-.023.022v2.176c-2.154-1.794-4.897-2.737-7.958-2.737-7.868 0-13.809 5.9-13.809 13.75 0 7.76 5.827 13.615 13.536 13.615 3.129 0 6.054-1.01 8.231-2.782v2.131c0 .023 0 .023.023.023h5.237c.023 0 .023 0 .023-.023zq.035 0 0 0m-13.4 21.78c-4.557 0-8.253-3.792-8.253-8.48 0-5.562 4.24-8.882 8.344-8.882 4.059 0 7.777 3.746 8.049 7.985v1.055c-.272 5.001-4.331 8.321-8.14 8.321M209.842 14.788c-2.086-1.212-4.853-1.458-8.322-1.458h-7.006a.963.963 0 0 0-.975.964v32.59c0 .539.431.965.975.965h3.424a.963.963 0 0 0 .975-.964v-12.65h3.174c3.968 0 6.372-.54 8.344-1.818 2.789-1.839 4.444-5.091 4.444-8.725-.045-3.835-1.814-6.998-5.033-8.904m-7.324 14.04h-3.628v-10.16h3.356c5.736 0 6.915 2.063 6.915 5.159-.022 2.467-.793 5.002-6.643 5.002M190.321 42.152h-3.174c-2.086-.898-2.404-3.679-2.426-5.182v-9.465h4.262a.953.953 0 0 0 .953-.942V23.22a.953.953 0 0 0-.953-.942h-4.262v-3.477a.953.953 0 0 0-.953-.942h-3.378a.95.95 0 0 0-.952.942v3.454h-4.15a.953.953 0 0 0-.952.942v3.342c0 .516.431.943.952.943h4.15v12.919c.068 1.368.702 5.832 6.122 6.886.136.022.158.067.294.09h4.467a.95.95 0 0 0 .952-.942v-3.342a.95.95 0 0 0-.952-.943"/></svg>