<svg xmlns="http://www.w3.org/2000/svg" width="112" height="26" fill="none" viewBox="0 0 112 26"><g fill="#fca311" clip-path="url(#a)" style="mix-blend-mode:luminosity"><path d="M107.673 24.561V1.325c0-.241.171-.449.407-.496l3.635-.72V24.56zM97.613 6.282q3.761 0 5.87 2.18 2.11 2.144 2.11 6.081v10.018h-3.218a.37.37 0 0 1-.368-.368v-1.897l-.07.086a8.2 8.2 0 0 1-2.636 1.969q-1.512.738-3.375.737-1.828 0-3.269-.702-1.406-.703-2.215-1.969t-.808-2.883q0-2.496 1.722-3.971 1.722-1.512 4.957-1.758l5.328-.436q-.11-1.442-1.111-2.412-1.125-1.125-2.952-1.125-1.547 0-2.566.773a3.44 3.44 0 0 0-1.159 1.609.4.4 0 0 1-.464.263l-.03-.008-3.08-.754a.355.355 0 0 1-.26-.45q.683-2.142 2.533-3.506 2.038-1.477 5.061-1.477M96.91 17.11q-1.687.141-2.426.702-.738.563-.738 1.512t.844 1.547 2.144.598q1.371 0 2.461-.668a5.46 5.46 0 0 0 1.792-1.793q.652-1.065.666-2.296zM84.016 6.827h4.18v3.62h-4.18v7.663q0 1.405.703 2.11.738.702 2.11.702h.735c.279 0 .505.227.505.506v3.15h-2.401q-2.6 0-4.148-1.617-1.546-1.652-1.546-4.43v-8.084H77.55V7.08c0-.14.113-.253.253-.253h2.17V2.048c0-.14.113-.253.253-.253h3.789zM63.89 9.33q.275-.376.597-.71a7.2 7.2 0 0 1 2.461-1.723q1.406-.633 3.059-.633 1.897 0 3.409.844 1.547.809 2.426 2.426.914 1.581.914 3.971v11.039H73.08a.37.37 0 0 1-.368-.369v-9.44q0-1.686-.457-2.741-.458-1.055-1.335-1.547-.844-.492-1.969-.492-1.055 0-2.18.527-1.089.527-1.863 1.758-.773 1.23-.773 3.34v8.964H60.6a.507.507 0 0 1-.506-.507V6.77c0-.28.226-.506.506-.506h3.29zM29.7 6.282q2.637 0 4.57 1.23 1.968 1.196 3.059 3.375 1.125 2.18 1.124 5.097v.689c0 .28-.227.506-.506.506H24.84q.14.956.606 1.793a5.45 5.45 0 0 0 1.863 1.863 4.86 4.86 0 0 0 2.567.703 4.4 4.4 0 0 0 2.424-.703c.75-.492 1.278-.977 1.7-1.797a.414.414 0 0 1 .547-.209l2.737 1.233c.256.116.37.42.238.668a7.9 7.9 0 0 1-2.901 3.093q-2.04 1.265-4.745 1.265-2.708 0-4.782-1.194a8.5 8.5 0 0 1-3.198-3.305q-1.16-2.109-1.16-4.921 0-2.777 1.125-4.887 1.16-2.144 3.163-3.303 2.04-1.196 4.676-1.196m19.52 0q2.635 0 4.57 1.23 1.967 1.196 3.057 3.375 1.125 2.18 1.125 5.097v.689c0 .28-.226.506-.506.506H44.361q.139.956.605 1.793a5.45 5.45 0 0 0 1.864 1.863 4.86 4.86 0 0 0 2.565.703q1.336 0 2.426-.703c.75-.492 1.277-.977 1.699-1.797l.019-.04a.37.37 0 0 1 .487-.187l2.905 1.31a.357.357 0 0 1 .176.485 7.9 7.9 0 0 1-2.966 3.217q-2.04 1.265-4.746 1.265t-4.78-1.194a8.5 8.5 0 0 1-3.2-3.305q-1.16-2.109-1.159-4.921 0-2.777 1.124-4.887 1.161-2.144 3.164-3.303 2.04-1.196 4.675-1.196M29.77 9.832q-1.406 0-2.566.668a4.4 4.4 0 0 0-1.793 1.793q-.385.684-.535 1.512h9.53a4.5 4.5 0 0 0-.63-1.723 4.23 4.23 0 0 0-1.687-1.652q-1.02-.598-2.319-.598m19.519 0q-1.406 0-2.566.668a4.4 4.4 0 0 0-1.793 1.793 4.8 4.8 0 0 0-.534 1.512h9.53a4.5 4.5 0 0 0-.63-1.723 4.24 4.24 0 0 0-1.687-1.652q-1.02-.598-2.32-.598"/><path fill-rule="evenodd" d="M0 .398C0 .192.167.025.373.025h10.015c.576 0 1.305.026 2.056.217 1.687.43 3.959 1.531 5.302 3.503 1.829 2.963 1.95 6.591-.401 9.88a.363.363 0 0 1-.545.049l-2.158-2.023a.38.38 0 0 1-.07-.465c1.344-2.437.706-3.866.128-5.03-.602-1.21-1.902-2.05-2.999-2.41-1.157-.52-3.286-.433-3.76-.433H4.314a.373.373 0 0 0-.373.373V18.41c0 .125-.062.241-.166.31L.581 20.859a.373.373 0 0 1-.581-.31z" clip-rule="evenodd"/><path fill-rule="evenodd" d="M10.817 14.47a.23.23 0 0 1 .286.022l10.138 9.662a.227.227 0 0 1-.156.39h-4.657a.9.9 0 0 1-.633-.257l-5.184-5.048-1.65-1.649-.883-.884a.227.227 0 0 1 .03-.346z" clip-rule="evenodd"/></g><defs><clipPath id="a"><path fill="#fff" d="M0 .109h111.72v25H0z"/></clipPath></defs></svg>