<svg xmlns="http://www.w3.org/2000/svg" width="64" height="64" fill="none" viewBox="0 0 64 64"><circle cx="32" cy="32" r="32" fill="#000"/><path fill="#a6a6fe" d="M49.804 33.16c.542 0 1.005-.15 1.372-.337a3.2 3.2 0 0 0 1.158-1.012l1.888-2.668h-2.21l-1.48 2.009s-.308.42-.728.42-.73-.42-.73-.42l-1.48-2.009h-2.209l1.888 2.668c.3.424.694.776 1.158 1.012.367.187.83.337 1.373.337M49.804 34.072c-.543 0-1.006.15-1.373.337a3.2 3.2 0 0 0-1.158 1.012l-1.888 2.668h2.21l1.48-2.009s.308-.42.729-.42c.42 0 .728.42.728.42l1.48 2.009h2.21l-1.888-2.668a3.2 3.2 0 0 0-1.158-1.012 3 3 0 0 0-1.372-.337"/><path fill="#fff" d="m16.8 38.19-2.89-4.397h-2.004v4.398H9.778V25.778h4.54q1.063 0 1.846.32.798.3 1.312.85.532.53.78 1.276.25.726.25 1.559 0 1.224-.552 2.199-.55.975-1.738 1.419l3.14 4.787h-2.553zm-4.894-10.284v3.759h2.412q.94 0 1.49-.46.568-.46.566-1.42-.001-.959-.566-1.419-.55-.46-1.49-.46zM23.509 38.365q-.94-.001-1.72-.302a4.1 4.1 0 0 1-1.331-.886 4.2 4.2 0 0 1-.868-1.365 5.2 5.2 0 0 1-.302-1.808v-.427q0-.994.302-1.809a4.3 4.3 0 0 1 .868-1.4c.38-.39.82-.692 1.33-.905a4.5 4.5 0 0 1 1.72-.32q.94 0 1.703.32.781.32 1.331.904.569.586.868 1.401.32.815.32 1.81v.672h-6.454q.07 1.064.64 1.721.569.655 1.596.655.62 0 1.17-.25.567-.249.94-.639l1.4 1.188a2.8 2.8 0 0 1-.672.603q-.39.265-.85.46a5 5 0 0 1-.975.265q-.515.105-1.01.106zm-2.147-5.567h4.291q-.175-.852-.71-1.383-.531-.532-1.437-.533-.903 0-1.437.533-.53.531-.71 1.383zM28.585 29.323q0-1.615.975-2.57.992-.975 2.82-.975v1.915q-.727 0-1.206.427-.46.407-.46 1.206h1.666v1.665h-1.666v7.2h-2.129zM35.922 38.19h-2.128V25.779h2.128zM41.34 38.365q-.94-.001-1.72-.302a4.1 4.1 0 0 1-1.33-.886 4.2 4.2 0 0 1-.869-1.365 5.2 5.2 0 0 1-.301-1.808v-.427a5.2 5.2 0 0 1 .301-1.809 4.3 4.3 0 0 1 .868-1.4q.569-.585 1.33-.905a4.5 4.5 0 0 1 1.721-.32q.94 0 1.703.32.78.32 1.33.904.57.586.869 1.401.32.815.32 1.81v.672h-6.454q.07 1.064.64 1.721.567.655 1.595.655.62 0 1.17-.25.568-.249.94-.639l1.401 1.188a2.8 2.8 0 0 1-.673.603q-.39.265-.85.46a5 5 0 0 1-.974.265q-.515.105-1.011.106zm-2.146-5.567h4.29q-.177-.852-.709-1.383-.531-.532-1.437-.533-.904 0-1.437.533-.533.531-.71 1.383z"/></svg>