<svg width="122" height="24" viewBox="0 0 122 24" fill="none" xmlns="http://www.w3.org/2000/svg">
<path fill-rule="evenodd" clip-rule="evenodd" d="M7.75785 9.46455L2.30024 4.02859V9.46455H7.75785ZM10.0554 11.753H2.29857L2.29771 17.2115H15.5357L10.0554 11.753ZM3.80814 2.29419L6.97819 5.45167C7.03317 4.27017 7.44796 3.18227 8.11592 2.29419H3.80814ZM12.9862 11.4358L19.1213 17.5467C19.845 18.2675 19.3325 19.4999 18.309 19.4999H1.14876C0.514249 19.4999 -9.92997e-05 18.9876 1.43798e-08 18.3556L0.00268592 1.26602C0.00268636 1.26323 0.00269602 1.26046 0.00271487 1.25768V0.0057809H12.4552C12.5416 0.00194061 12.6284 0 12.7157 0C15.888 0 18.4596 2.56139 18.4596 5.72103C18.4596 8.79038 16.0328 11.2952 12.9862 11.4358ZM12.6391 2.29419H12.5141C10.7046 2.3982 9.26946 3.89269 9.26946 5.72103C9.26946 7.61682 10.8124 9.15365 12.7157 9.15365C14.6191 9.15365 16.162 7.61682 16.162 5.72103C16.162 3.82525 14.6191 2.28841 12.7157 2.28841C12.6901 2.28841 12.6646 2.28869 12.6391 2.28924V2.29419Z" fill="#052BBD"/>
<path fill-rule="evenodd" clip-rule="evenodd" d="M34.0768 11.9062V18.3218H31.4355V1.42419H37.7557C41.9796 1.42419 43.4784 4.00519 43.4784 6.63885C43.4784 8.78792 42.3779 10.5788 40.1664 11.3689L43.8872 18.3218H40.9734L37.5775 11.9062H34.0768ZM37.473 9.5253C40.0199 9.5253 40.7955 8.01885 40.7955 6.70201C40.7955 5.41678 40.2296 3.87872 37.473 3.87872H34.0771V9.5253H37.473ZM47.1223 13.3072C47.1852 15.0771 48.7993 16.3202 50.4868 16.3202C51.8703 16.3202 53.0652 15.7724 53.5263 14.3818L55.6854 15.0455C55.0356 17.2577 52.7926 18.5324 50.5182 18.5324C47.1433 18.5324 44.5125 15.962 44.5125 12.5488C44.5125 9.27247 46.9546 6.56506 50.2772 6.56506C53.8512 6.56506 55.8741 9.05124 55.8741 12.5171C55.8741 12.7805 55.8636 13.0439 55.8322 13.3072H47.1223ZM50.2981 8.76691C48.726 8.76691 47.4892 9.7993 47.2586 11.3795H53.2748C53.1909 9.72556 51.8808 8.76691 50.2981 8.76691ZM60.1471 18.3218H57.5897V0.75H60.1471V18.3218ZM71.8088 18.3217H69.3038C69.2409 18.0373 69.199 17.1524 69.199 16.7415C68.3605 18.1427 66.9036 18.5219 65.8345 18.5219C63.5916 18.5219 61.967 17.1208 61.967 15.1297V15.0033C61.967 12.3275 64.734 11.4847 66.7359 11.4847H68.1509C68.9265 11.4847 69.2199 11.0739 69.2199 10.5156C69.2199 9.59905 68.4758 8.75627 66.9665 8.75627C65.5725 8.75627 64.6502 9.55691 64.4615 10.663L62.1451 10.1363C62.2395 9.16712 63.1199 7.71334 64.713 7.00752C65.3734 6.71255 66.2014 6.56506 67.0399 6.56506C68.9684 6.56506 70.572 7.24982 71.3371 8.92483C71.6201 9.53584 71.7249 10.1995 71.7249 10.9791V16.4676C71.7249 17.1735 71.7459 17.7845 71.8088 18.3217ZM69.1994 13.655V13.2863H66.7259C65.7616 13.2863 64.5248 13.813 64.5248 14.8981C64.5248 15.8357 65.269 16.4678 66.3486 16.4678C68.0884 16.4678 69.1994 15.3932 69.1994 13.655ZM72.3402 6.80743H75.254L78.8176 14.3502L82.1192 6.80743H84.8862L77.0253 24H74.2897L77.4446 17.0261L72.3402 6.80743ZM98.2039 6.68099C98.2039 9.59909 96.0658 12.0642 92.0096 12.0642H89.0119V18.3218H86.3707V1.42419H92.324C96.5374 1.42419 98.2039 4.05786 98.2039 6.68099ZM95.5211 6.74415C95.5211 5.46946 94.8503 3.87872 92.0937 3.87872H89.0122V9.63065H92.0937C94.6406 9.63065 95.5211 8.07152 95.5211 6.74415ZM108.514 18.3217H106.009C105.946 18.0373 105.904 17.1524 105.904 16.7415C105.066 18.1427 103.609 18.5219 102.54 18.5219C100.297 18.5219 98.6721 17.1208 98.6721 15.1297V15.0033C98.6721 12.3275 101.439 11.4847 103.441 11.4847H104.856C105.632 11.4847 105.925 11.0739 105.925 10.5156C105.925 9.59905 105.181 8.75627 103.672 8.75627C102.278 8.75627 101.355 9.55691 101.167 10.663L98.8503 10.1363C98.9446 9.16712 99.8251 7.71334 101.418 7.00752C102.079 6.71255 102.907 6.56506 103.745 6.56506C105.674 6.56506 107.277 7.24982 108.042 8.92483C108.325 9.53584 108.43 10.1995 108.43 10.9791V16.4676C108.43 17.1735 108.451 17.7845 108.514 18.3217ZM105.904 13.655V13.2863H103.431C102.466 13.2863 101.23 13.813 101.23 14.8981C101.23 15.8357 101.974 16.4678 103.053 16.4678C104.793 16.4678 105.904 15.3932 105.904 13.655ZM109.454 6.80743H112.368L115.931 14.3502L119.233 6.80743H122L114.139 24H111.403L114.558 17.0261L109.454 6.80743Z" fill="#0D0856"/>
</svg>
