<svg width="130" height="26" viewBox="0 0 130 26" fill="none" xmlns="http://www.w3.org/2000/svg">
<path fill-rule="evenodd" clip-rule="evenodd" d="M8.26657 10.2533L2.45108 4.36431V10.2533H8.26657ZM10.7147 12.7324H2.44929L2.44838 18.6458H16.5544L10.7147 12.7324ZM4.05785 2.48538L7.43577 5.90597C7.49436 4.62601 7.93635 3.44746 8.64811 2.48538H4.05785ZM13.8377 12.3888L20.3752 19.0089C21.1463 19.7898 20.6002 21.1249 19.5096 21.1249H1.22409C0.54797 21.1249 -0.000105811 20.5699 1.53227e-08 19.8852L0.00286205 1.37152C0.00286251 1.3685 0.00287281 1.36549 0.0028929 1.36249V0.00626264H13.2719C13.364 0.00210233 13.4565 0 13.5496 0C16.9298 0 19.67 2.77484 19.67 6.19778C19.67 9.52291 17.0842 12.2364 13.8377 12.3888ZM13.4679 2.48538H13.3346C11.4065 2.59805 9.87729 4.21708 9.87729 6.19778C9.87729 8.25155 11.5214 9.91646 13.5496 9.91646C15.5777 9.91646 17.2218 8.25155 17.2218 6.19778C17.2218 4.14402 15.5777 2.47911 13.5496 2.47911C13.5223 2.47911 13.4951 2.47942 13.4679 2.48002V2.48538Z" fill="white"/>
<path fill-rule="evenodd" clip-rule="evenodd" d="M36.3115 12.8984V19.8486H33.4971V1.54288H40.2317C44.7326 1.54288 46.3296 4.33895 46.3296 7.19209C46.3296 9.52025 45.157 11.4604 42.8004 12.3163L46.7652 19.8486H43.6604L40.0418 12.8984H36.3115ZM39.9304 10.3191C42.6444 10.3191 43.4708 8.68708 43.4708 7.26051C43.4708 5.86818 42.8677 4.20195 39.9304 4.20195H36.3118V10.3191H39.9304ZM50.2125 14.4162C50.2795 16.3335 51.9994 17.6802 53.7976 17.6802C55.2718 17.6802 56.545 17.0867 57.0364 15.5803L59.3371 16.2993C58.6447 18.6959 56.2546 20.0768 53.8311 20.0768C50.2348 20.0768 47.4315 17.2921 47.4315 13.5945C47.4315 10.0452 50.0338 7.11215 53.5742 7.11215C57.3826 7.11215 59.5382 9.80551 59.5382 13.5602C59.5382 13.8456 59.527 14.1309 59.4935 14.4162H50.2125ZM53.5965 9.49748C51.9213 9.49748 50.6034 10.6159 50.3577 12.3278H56.7684C56.679 10.536 55.283 9.49748 53.5965 9.49748ZM64.0914 19.8486H61.3663V0.8125H64.0914V19.8486ZM76.5177 19.8486H73.8485C73.7815 19.5404 73.7368 18.5818 73.7368 18.1367C72.8433 19.6545 71.2909 20.0654 70.1517 20.0654C67.7617 20.0654 66.0306 18.5475 66.0306 16.3906V16.2536C66.0306 13.3548 68.979 12.4418 71.1122 12.4418H72.62C73.4464 12.4418 73.7591 11.9967 73.7591 11.3919C73.7591 10.399 72.9662 9.48596 71.3579 9.48596C69.8725 9.48596 68.8897 10.3533 68.6886 11.5516L66.2204 10.981C66.3209 9.93105 67.2591 8.35612 68.9567 7.59148C69.6603 7.27193 70.5426 7.11215 71.4361 7.11215C73.4911 7.11215 75.1999 7.85397 76.0152 9.66856C76.3167 10.3305 76.4284 11.0495 76.4284 11.894V17.8399C76.4284 18.6046 76.4507 19.2665 76.5177 19.8486ZM73.7373 14.7929V14.3935H71.1015C70.074 14.3935 68.7562 14.9641 68.7562 16.1396C68.7562 17.1553 69.5491 17.8401 70.6995 17.8401C72.5534 17.8401 73.7373 16.676 73.7373 14.7929ZM77.084 7.37472H80.1889L83.9862 15.5461L87.5042 7.37472H90.4527L82.0763 26H79.1614L82.5231 18.4449L77.084 7.37472ZM104.644 7.23774C104.644 10.399 102.365 13.0696 98.0432 13.0696H94.849V19.8486H92.0345V1.54288H98.3782C102.868 1.54288 104.644 4.39601 104.644 7.23774ZM101.785 7.30616C101.785 5.92525 101.07 4.20195 98.1328 4.20195H94.8493V10.4332H98.1328C100.847 10.4332 101.785 8.74415 101.785 7.30616ZM115.63 19.8486H112.961C112.894 19.5404 112.849 18.5818 112.849 18.1367C111.955 19.6545 110.403 20.0654 109.264 20.0654C106.874 20.0654 105.143 18.5475 105.143 16.3906V16.2536C105.143 13.3548 108.091 12.4418 110.224 12.4418H111.732C112.558 12.4418 112.871 11.9967 112.871 11.3919C112.871 10.399 112.078 9.48596 110.47 9.48596C108.985 9.48596 108.002 10.3533 107.801 11.5516L105.332 10.981C105.433 9.93105 106.371 8.35612 108.069 7.59148C108.772 7.27193 109.655 7.11215 110.548 7.11215C112.603 7.11215 114.312 7.85397 115.127 9.66856C115.429 10.3305 115.54 11.0495 115.54 11.894V17.8399C115.54 18.6046 115.563 19.2665 115.63 19.8486ZM112.849 14.7929V14.3935H110.213C109.186 14.3935 107.868 14.9641 107.868 16.1396C107.868 17.1553 108.661 17.8401 109.811 17.8401C111.665 17.8401 112.849 16.676 112.849 14.7929ZM116.631 7.37472H119.736L123.534 15.5461L127.052 7.37472H130L121.624 26H118.709L122.071 18.4449L116.631 7.37472Z" fill="white"/>
</svg>
