<svg xmlns="http://www.w3.org/2000/svg" width="76" height="48" fill="none" viewBox="0 0 76 48"><path fill="#fff" d="M28 14c0-7.732 6.268-14 14-14h20c7.732 0 14 6.268 14 14v20c0 7.732-6.268 14-14 14H42c-7.732 0-14-6.268-14-14z"/><path fill="#202020" fill-rule="evenodd" d="m53.723 13.84-7.136 19.32h2.401l7.136-19.32z" clip-rule="evenodd"/><path fill="#fff" d="M0 13C0 5.82 5.82 0 13 0s13 5.82 13 13v22c0 7.18-5.82 13-13 13S0 42.18 0 35z"/><path fill="#202020" fill-rule="evenodd" d="M11.59 27.34v2.82h2.82v-2.82z" clip-rule="evenodd"/></svg>