<svg xmlns="http://www.w3.org/2000/svg" width="180" height="48" fill="none" viewBox="0 0 180 48"><path fill="#fff" d="M28 14c0-7.732 6.268-14 14-14h20c7.732 0 14 6.268 14 14v20c0 7.732-6.268 14-14 14H42c-7.732 0-14-6.268-14-14z"/><path fill="#202020" fill-rule="evenodd" d="m53.723 13.84-7.136 19.32h2.401l7.136-19.32z" clip-rule="evenodd"/><path fill="#fff" d="M0 13C0 5.82 5.82 0 13 0s13 5.82 13 13v22c0 7.18-5.82 13-13 13S0 42.18 0 35z"/><path fill="#202020" fill-rule="evenodd" d="M11.59 27.34v2.82h2.82v-2.82z" clip-rule="evenodd"/><path fill="#fff" d="M78 24c0-13.255 10.055-24 22.459-24h57.082C169.945 0 180 10.745 180 24s-10.055 24-22.459 24h-57.082C88.055 48 78 37.255 78 24"/><path fill="#202020" d="M150.065 18.506h-2.238v11.368h2.238v-6.542c0-1.886 1.35-3.204 3.006-3.204.773 0 1.41.243 1.854.705.445.463.712 1.161.712 2.103v6.938h2.216v-7.048c0-1.5-.426-2.655-1.175-3.435s-1.806-1.17-3.035-1.17c-1.45 0-2.786.593-3.578 1.633zM133.482 18.506l2.097 11.368h2.418l1.79-5.452 1.769 5.452h2.419l2.097-11.368h-2.135l-1.399 8.624-1.746-5.5h-2.03l-1.766 5.562-1.378-8.686z"/><path fill="#202020" fill-rule="evenodd" d="M111.684 24.836h8.186l.008-.132c.133-2.41-.41-4.037-1.36-5.061s-2.286-1.423-3.686-1.423c-1.667 0-3.031.643-3.977 1.717-.945 1.072-1.465 2.564-1.465 4.253 0 1.7.52 3.193 1.465 4.262.946 1.071 2.311 1.708 3.977 1.708 2.725 0 4.526-1.738 4.846-3.659l.027-.163h-2.203l-.031.098c-.313.98-1.23 1.838-2.639 1.838-1.06 0-1.805-.4-2.307-1.038-.482-.612-.75-1.454-.841-2.4m6.01-1.754h-5.954c.142-.819.44-1.543.916-2.07.503-.558 1.213-.906 2.176-.906.886 0 1.56.25 2.032.751.454.48.739 1.21.83 2.225M100.15 18.506v11.368h2.282v-5.992c0-1.085.306-1.888.809-2.42.502-.53 1.216-.806 2.065-.806h2.956v-2.15h-2.802a3.73 3.73 0 0 0-3.028 1.539v-1.539zM121.617 24.19c0 1.688.503 3.18 1.446 4.253.944 1.075 2.32 1.717 4.04 1.717s3.096-.642 4.04-1.717c.943-1.072 1.446-2.565 1.446-4.253 0-1.677-.503-3.17-1.445-4.245-.944-1.077-2.32-1.725-4.041-1.725s-3.097.648-4.041 1.725c-.942 1.076-1.445 2.568-1.445 4.245m8.69-.022c0 1.061-.228 2.087-.74 2.842-.508.749-1.301 1.242-2.464 1.242s-1.956-.493-2.464-1.242c-.512-.755-.74-1.78-.74-2.842 0-1.05.228-2.064.74-2.81.507-.741 1.3-1.23 2.464-1.23s1.957.489 2.464 1.23c.512.746.74 1.76.74 2.81" clip-rule="evenodd"/></svg>