<svg xmlns="http://www.w3.org/2000/svg" width="180" height="48" fill="none" viewBox="0 0 180 48"><path fill="#202020" d="M28 14c0-7.732 6.268-14 14-14h20c7.732 0 14 6.268 14 14v20c0 7.732-6.268 14-14 14H42c-7.732 0-14-6.268-14-14z"/><path fill="#fff" d="m46.816 33 7.018-19h2.06l-7.017 19z"/><path fill="#202020" d="M0 13C0 5.82 5.82 0 13 0s13 5.82 13 13v22c0 7.18-5.82 13-13 13S0 42.18 0 35z"/><path fill="#fff" d="M11.75 29.999v-2.5h2.5v2.5z"/><path fill="#202020" d="M78 24c0-13.255 10.055-24 22.459-24h57.082C169.945 0 180 10.745 180 24s-10.055 24-22.459 24h-57.082C88.055 48 78 37.255 78 24"/><path fill="#fff" d="M148.106 29.874V18.786h1.958v1.672c.704-1.232 2.134-1.958 3.718-1.958 2.398 0 4.07 1.518 4.07 4.466v6.908h-1.936v-6.798c0-1.936-1.1-2.948-2.706-2.948-1.738 0-3.146 1.386-3.146 3.344v6.402zM135.761 29.874l-2.046-11.088h1.848l1.452 9.152 1.914-6.028h1.826l1.892 5.962 1.474-9.086h1.848l-2.046 11.088h-2.2l-1.87-5.764-1.892 5.764zM127.113 30.16c-3.366 0-5.346-2.508-5.346-5.83 0-3.3 1.98-5.83 5.346-5.83s5.346 2.53 5.346 5.83c0 3.322-1.98 5.83-5.346 5.83m0-1.628c2.42 0 3.344-2.068 3.344-4.224 0-2.134-.924-4.18-3.344-4.18s-3.344 2.046-3.344 4.18c0 2.156.924 4.224 3.344 4.224M114.842 30.16c-3.256 0-5.302-2.486-5.302-5.83 0-3.322 2.046-5.83 5.302-5.83 2.75 0 5.17 1.562 4.906 6.336h-8.206c.154 2.046 1.1 3.718 3.3 3.718 1.474 0 2.442-.902 2.772-1.936h1.936c-.308 1.848-2.046 3.542-4.708 3.542m-3.256-6.798h6.27c-.154-2.222-1.188-3.256-3.014-3.256-2.002 0-2.992 1.452-3.256 3.256M100.148 29.874V18.786h2.002v1.87c.704-1.232 1.914-1.87 3.168-1.87h2.662v1.87h-2.816c-1.76 0-3.014 1.144-3.014 3.366v5.852z"/></svg>