<svg xmlns="http://www.w3.org/2000/svg" width="400" height="400" fill="none" viewBox="0 0 400 400"><path fill="#000" d="M0 0h400v400H0z"/><path fill="#fff" stroke="#fff" stroke-width="1.389" d="M107.372 201.794h-2.894l-2.003-5.771a1.1 1.1 0 0 0-1.106-.72c-.495.027-.909.37-1.012.837l-2.46 11.281-2.657-17.075c-.088-.519-.558-.898-1.104-.89s-1.003.402-1.073.923l-2.229 19.058-2.894-24.457c-.058-.539-.53-.95-1.094-.95s-1.036.411-1.094.95l-2.894 24.457-2.194-19.058c-.06-.53-.522-.935-1.076-.943-.554-.009-1.029.381-1.106.91l-2.594 16.713-2.5-13.226a1.086 1.086 0 0 0-1.041-.871 1.094 1.094 0 0 0-1.107.793l-2.037 7.543h-3.335c-.48 0-.868.374-.868.836s.389.835.868.835h3.827a1.1 1.1 0 0 0 1.065-.796l1.435-5.315 2.675 14.117c.095.511.56.88 1.1.871.539-.008.992-.391 1.07-.904l2.443-15.721 2.315 19.799c.058.539.53.95 1.095.95.563 0 1.036-.411 1.093-.95l2.877-24.491 2.895 24.479c.07.529.537.925 1.091.925s1.022-.396 1.091-.925l2.315-19.799 2.45 15.838c.085.501.528.873 1.055.886s.99-.334 1.103-.83l2.709-12.406 1.459 4.195v-.001c.12.338.451.562.822.558h3.519a.85.85 0 0 0 .746-.828.85.85 0 0 0-.746-.827Z"/><path fill="#fff" d="M139.531 194.428v3.806q0 3.775-4.082 5.071 2.236 3.207 4.52 8.034a51 51 0 0 1-6.771 0q-2.204-4.551-4.115-7.37h-4.438v7.37a47.5 47.5 0 0 1-6.334 0v-22.662h11.469q2.316 0 4.066.308 1.749.307 3.045.988 1.296.665 1.96 1.782.68 1.118.68 2.673m-6.333 2.348v-.826q0-.648-.26-1.069-.258-.421-.793-.615a4 4 0 0 0-1.086-.276 12 12 0 0 0-1.376-.065h-5.038v4.876h5.038q.825 0 1.376-.065a4.5 4.5 0 0 0 1.086-.259q.535-.21.793-.631.26-.422.26-1.07M161.805 211.339h-18.369v-22.662h18.369a23.2 23.2 0 0 1 0 5.054H149.77v3.742h11.711a22.8 22.8 0 0 1 0 5.005H149.77v3.791h12.035a23.4 23.4 0 0 1 0 5.07M184.549 203.774v2.625q0 5.345-10.416 5.345-4.925 0-9.087-.534-.178-1.086-.178-2.592 0-1.523.178-2.624 5.232.534 8.99.534 2.09 0 3.143-.21 1.07-.227 1.069-.924v-.923q0-.681-.373-.891-.372-.21-2.235-.616a82 82 0 0 1-1.442-.324l-4.811-1.085a7.8 7.8 0 0 1-1.733-.599 5.3 5.3 0 0 1-1.377-1.005q-.632-.648-.972-1.652-.34-1.02-.34-2.381v-2.333q0-5.33 10.432-5.329 4.6 0 8.845.761.162 1.07.162 2.527 0 1.442-.162 2.511-4.633-.632-8.651-.632-2.283 0-3.304.211-1.005.194-1.005.923v.729q0 .746.697 1.085.696.34 3.386.972l4.794 1.151q1.103.258 1.815.583a5 5 0 0 1 1.36.907q.632.583.924 1.522.291.924.291 2.268M210.177 194.687v10.578q0 1.782-.794 3.061-.794 1.264-2.317 2.009-1.523.729-3.531 1.069-1.992.34-4.617.34-2.09 0-3.774-.21a16.5 16.5 0 0 1-3.11-.681q-1.41-.47-2.365-1.215a5.2 5.2 0 0 1-1.474-1.846q-.519-1.102-.519-2.527v-10.578q0-1.427.519-2.511a5.1 5.1 0 0 1 1.474-1.831q.955-.744 2.365-1.214 1.425-.47 3.11-.665 1.684-.21 3.774-.21 2.625 0 4.617.34 2.008.324 3.531 1.069 1.523.729 2.317 1.993.794 1.263.794 3.029m-6.35 9.185v-7.857q0-.68-.26-1.15a2 2 0 0 0-.664-.729q-.388-.276-1.069-.421a8 8 0 0 0-1.328-.178 21 21 0 0 0-1.588-.049q-.955 0-1.603.049a8 8 0 0 0-1.312.178q-.681.145-1.086.421a2.04 2.04 0 0 0-.648.729q-.26.47-.259 1.15v7.857q0 .663.259 1.133.26.47.648.746.405.258 1.086.421.68.146 1.328.194.648.033 1.587.033.94 0 1.588-.033a10 10 0 0 0 1.328-.194q.68-.162 1.069-.421.405-.275.664-.746.26-.47.26-1.133M229.664 211.339l-9.314-13.51v13.51a32.7 32.7 0 0 1-6.334 0v-22.662q3.386-.195 6.755 0l9.46 13.866v-13.866q3.29-.195 6.334 0v22.662q-3.45.195-6.901 0M257.673 211.339l-1.458-3.774h-9.217l-1.474 3.774q-3.24.227-6.496 0l9.557-22.662q3.046-.21 6.107 0l9.541 22.662a47.6 47.6 0 0 1-6.56 0m-3.386-8.763-2.689-7.031-2.721 7.031zM282.344 211.339l-9.314-13.51v13.51a32.7 32.7 0 0 1-6.334 0v-22.662q3.386-.195 6.755 0l9.46 13.866v-13.866q3.29-.195 6.334 0v22.662q-3.45.195-6.901 0M293.101 205.427v-10.87q0-1.749.81-2.997t2.365-1.96 3.58-1.02q2.025-.324 4.698-.324 3.676 0 7.921.632a23.2 23.2 0 0 1 0 5.037q-3.693-.437-6.804-.437-1.085 0-1.733.016-.631.016-1.458.097-.827.066-1.296.227a4.3 4.3 0 0 0-.907.421q-.453.26-.648.681-.194.421-.194.988v7.986q0 .518.162.907.178.389.437.664.26.26.745.454.486.178.924.275.437.098 1.166.162.745.049 1.312.065h1.49q2.641 0 6.836-.632.47 2.252.47 5.006-4.844.939-8.423.939-2.673 0-4.698-.324-2.025-.323-3.58-1.037-1.555-.712-2.365-1.96t-.81-2.996M334.862 211.339h-18.369v-22.662h18.369a23.2 23.2 0 0 1 0 5.054h-12.035v3.742h11.711a22.8 22.8 0 0 1 0 5.005h-11.711v3.791h12.035a23.4 23.4 0 0 1 0 5.07"/></svg>