<svg xmlns="http://www.w3.org/2000/svg" id="Layer_2" data-name="Layer 2" viewBox="0 0 1758 910.64"><defs><style>.cls-1{fill:#f3f5f0}</style></defs><g id="Layer_1-2" data-name="Layer 1"><path d="M0 101.64v-1a7.615 7.615 0 0 0 0-6v-16c4.03-17.142 9.603-32.78 21.029-46.47C80.77-39.405 198.682 18.025 177.5 110.65c-16.382 71.636-109.326 93.945-156.472 37.46-11.426-13.688-17-29.327-21.029-46.47Zm1757.913 355c-1.681-1.575-1.667-6.464 0-8v8Zm0-10c-1.654-1.263-1.654-5.736 0-7v7Zm0 23c-1.654-1.263-1.654-5.736 0-7v7Zm-1592.921 240H14.999v-478l150.534.042c31.979-2.379 63.992-6.829 95.961-9.026 49.474-3.4 97.536 1.844 132.381 40.627l-89.39 113.333c-26.956-28.697-81.95-29.47-111.506-4.487-21.503 18.175-26.522 45.046-28.028 71.97l.04 265.541Zm436.978-478v476.5c0 .107-1.394 1.5-1.5 1.5H452.478c-.106 0-1.5-1.393-1.5-1.5v-476.5H601.97Zm475.65 8.827c-71.663-31.357-144.206-14.222-219.121-8.785l-150.54-.047.006 679.005h147.993l.01-234c78.354 61.75 197.398 54.013 272.99-8.485 133.173-110.104 111.433-356.465-51.338-427.688Zm-14.632 241.714c-4.946 75.759-81.475 122.85-151.39 92.317-95.956-41.904-78.52-206.095 30.149-216.564 78.109-7.526 126.176 48.666 121.241 124.247Z" class="cls-1"/><path d="M1757.913 469.64a10.01 10.01 0 0 1 0-7v-6a12.794 12.794 0 0 1 0-8v-2a10.01 10.01 0 0 1 0-7v-3c-13.948-163.17-167.223-249.216-319.749-205.264-212.042 61.102-242.523 355.574-46.905 457.437 101.237 52.716 256.742 41.426 331.583-51.535l-81.56-81.565c-1.648-.292-11.204 10.581-13.348 12.442-34.207 29.678-78.6 40.23-123.366 34.343-46.623-6.132-81.993-37.262-95.637-81.848l341.322-.966c1.327-.312 2.946-10.71 3.345-12.858 1.476-7.935 3.676-19.423 4.315-27.186.27-3.28-.192-6.705 0-10Zm-348.983-53c12.058-39.242 41.102-70.018 82.161-78.335 60.342-12.222 115.74 14.953 125.829 78.335h-207.99Z" class="cls-1"/></g></svg>