<svg xmlns="http://www.w3.org/2000/svg" xmlns:xlink="http://www.w3.org/1999/xlink" width="512" zoomAndPan="magnify" viewBox="0 0 384 383.999986" height="512" preserveAspectRatio="xMidYMid meet" version="1.0"><defs><clipPath id="be9b5487e7"><path d="M 5.707031 5.707031 L 378.292969 5.707031 L 378.292969 378.292969 L 5.707031 378.292969 Z M 5.707031 5.707031 " clip-rule="nonzero"/></clipPath><clipPath id="ae7e881009"><path d="M 192 5.707031 C 89.113281 5.707031 5.707031 89.113281 5.707031 192 C 5.707031 294.886719 89.113281 378.292969 192 378.292969 C 294.886719 378.292969 378.292969 294.886719 378.292969 192 C 378.292969 89.113281 294.886719 5.707031 192 5.707031 Z M 192 5.707031 " clip-rule="nonzero"/></clipPath><clipPath id="168182e4a1"><path d="M 0.707031 0.707031 L 373.292969 0.707031 L 373.292969 373.292969 L 0.707031 373.292969 Z M 0.707031 0.707031 " clip-rule="nonzero"/></clipPath><clipPath id="57c21dfcbe"><path d="M 187 0.707031 C 84.113281 0.707031 0.707031 84.113281 0.707031 187 C 0.707031 289.886719 84.113281 373.292969 187 373.292969 C 289.886719 373.292969 373.292969 289.886719 373.292969 187 C 373.292969 84.113281 289.886719 0.707031 187 0.707031 Z M 187 0.707031 " clip-rule="nonzero"/></clipPath><clipPath id="da3167141c"><rect x="0" width="374" y="0" height="374"/></clipPath><clipPath id="b20d2804e7"><path d="M 52.183594 58.84375 L 296.683594 58.84375 L 296.683594 324 L 52.183594 324 Z M 52.183594 58.84375 " clip-rule="nonzero"/></clipPath></defs><g clip-path="url(#be9b5487e7)"><g clip-path="url(#ae7e881009)"><g transform="matrix(1, 0, 0, 1, 5, 5)"><g clip-path="url(#da3167141c)"><g clip-path="url(#168182e4a1)"><g clip-path="url(#57c21dfcbe)"><path fill="#0069fe" d="M 0.707031 0.707031 L 373.292969 0.707031 L 373.292969 373.292969 L 0.707031 373.292969 Z M 0.707031 0.707031 " fill-opacity="1" fill-rule="nonzero"/></g></g></g></g></g></g><g clip-path="url(#b20d2804e7)"><path fill="#ffffff" d="M 269 220.671875 C 259.632812 215.25 249.070312 213.6875 238.605469 213.34375 C 229.828125 213.050781 216.75 207.433594 216.75 191.359375 C 216.800781 185.570312 219.113281 180.03125 223.199219 175.921875 C 227.28125 171.816406 232.8125 169.46875 238.605469 169.378906 C 249.070312 169.011719 259.632812 167.449219 269 162.050781 C 277.40625 157.1875 284.386719 150.199219 289.234375 141.785156 C 294.085938 133.375 296.632812 123.839844 296.625 114.132812 C 296.621094 104.425781 294.054688 94.890625 289.195312 86.488281 C 284.332031 78.082031 277.34375 71.105469 268.925781 66.253906 C 260.511719 61.402344 250.964844 58.847656 241.25 58.847656 C 231.535156 58.847656 221.988281 61.402344 213.574219 66.25 C 205.15625 71.101562 198.167969 78.078125 193.304688 86.484375 C 188.441406 94.886719 185.875 104.421875 185.867188 114.125 C 185.867188 124.847656 189.683594 134.71875 194.574219 143.878906 C 198.65625 151.570312 200.734375 165.859375 186.675781 173.945312 C 181.59375 176.769531 175.605469 177.492188 170 175.957031 C 164.390625 174.425781 159.605469 170.753906 156.675781 165.738281 C 151.175781 156.945312 144.449219 148.640625 135.234375 143.339844 C 126.8125 138.488281 117.265625 135.9375 107.546875 135.9375 C 97.828125 135.941406 88.277344 138.5 79.863281 143.355469 C 71.445312 148.214844 64.457031 155.195312 59.597656 163.605469 C 54.742188 172.015625 52.183594 181.554688 52.183594 191.261719 C 52.183594 200.972656 54.742188 210.511719 59.597656 218.921875 C 64.457031 227.332031 71.445312 234.3125 79.863281 239.171875 C 88.277344 244.027344 97.828125 246.585938 107.546875 246.589844 C 117.265625 246.589844 126.8125 244.039062 135.234375 239.1875 C 144.523438 233.8125 151.175781 225.582031 156.675781 216.789062 C 161.199219 209.460938 172.46875 200.375 186.675781 208.582031 C 191.664062 211.566406 195.285156 216.386719 196.757812 222.011719 C 198.226562 227.632812 197.433594 233.605469 194.546875 238.648438 C 189.65625 247.808594 185.867188 257.675781 185.867188 268.398438 C 185.867188 278.113281 188.429688 287.65625 193.289062 296.070312 C 198.152344 304.484375 205.144531 311.46875 213.566406 316.328125 C 221.988281 321.183594 231.539062 323.746094 241.265625 323.746094 C 250.988281 323.746094 260.542969 321.191406 268.964844 316.335938 C 277.386719 311.480469 284.378906 304.496094 289.246094 296.085938 C 294.109375 287.671875 296.671875 278.132812 296.675781 268.417969 C 296.679688 258.703125 294.125 249.15625 289.265625 240.742188 C 284.40625 232.328125 277.417969 225.339844 269 220.476562 Z M 269 220.671875 " fill-opacity="1" fill-rule="nonzero"/></g></svg>