<svg xmlns="http://www.w3.org/2000/svg" width="512" height="512" viewBox="0 0 384 384"><defs><clipPath id="a"><path d="M5.707 5.707h372.586v372.586H5.707Zm0 0"/></clipPath><clipPath id="b"><path d="M192 5.707C89.113 5.707 5.707 89.113 5.707 192S89.113 378.293 192 378.293 378.293 294.887 378.293 192 294.887 5.707 192 5.707m0 0"/></clipPath><clipPath id="d"><path d="M.707.707h372.586v372.586H.707Zm0 0"/></clipPath><clipPath id="e"><path d="M187 .707C84.113.707.707 84.113.707 187S84.113 373.293 187 373.293 373.293 289.887 373.293 187 289.887.707 187 .707m0 0"/></clipPath><clipPath id="c"><path d="M0 0h374v374H0z"/></clipPath><clipPath id="f"><path d="M52.184 58.844h244.5V324h-244.5Zm0 0"/></clipPath></defs><g clip-path="url(#a)"><g clip-path="url(#b)"><g clip-path="url(#c)" transform="translate(5 5)"><g clip-path="url(#d)"><g clip-path="url(#e)"><path fill="#0069fe" d="M.707.707h372.586v372.586H.707Zm0 0"/></g></g></g></g></g><g clip-path="url(#f)"><path fill="#fff" d="M269 220.672c-9.367-5.422-19.93-6.984-30.395-7.328-8.777-.293-21.855-5.91-21.855-21.985a22.17 22.17 0 0 1 6.45-15.437 22.21 22.21 0 0 1 15.405-6.543c10.465-.367 21.028-1.93 30.395-7.328a55.3 55.3 0 0 0 20.234-20.266 55.24 55.24 0 0 0 7.391-27.652 55.27 55.27 0 0 0-7.43-27.645 55.33 55.33 0 0 0-20.27-20.234 55.4 55.4 0 0 0-27.675-7.406 55.45 55.45 0 0 0-27.676 7.402 55.33 55.33 0 0 0-27.707 47.875c0 10.723 3.817 20.594 8.707 29.754 4.082 7.691 6.16 21.98-7.898 30.066A22.24 22.24 0 0 1 170 175.957a22.2 22.2 0 0 1-13.324-10.219c-5.5-8.793-12.227-17.097-21.442-22.398a55.46 55.46 0 0 0-27.687-7.403 55.44 55.44 0 0 0-27.684 7.418 55.37 55.37 0 0 0-20.265 20.25 55.3 55.3 0 0 0-7.414 27.657c0 9.71 2.558 19.25 7.414 27.66a55.37 55.37 0 0 0 20.265 20.25 55.44 55.44 0 0 0 27.684 7.418c9.719 0 19.266-2.55 27.687-7.403 9.29-5.375 15.942-13.605 21.442-22.398 4.523-7.328 15.793-16.414 30-8.207a22.2 22.2 0 0 1 10.082 13.43 22.2 22.2 0 0 1-2.211 16.636c-4.89 9.16-8.68 19.028-8.68 29.75a55.33 55.33 0 0 0 27.7 47.93 55.46 55.46 0 0 0 55.398.008 55.326 55.326 0 0 0 27.71-47.918 55.3 55.3 0 0 0-7.41-27.676A55.4 55.4 0 0 0 269 220.477Zm0 0"/></g></svg>