<svg xmlns="http://www.w3.org/2000/svg" data-name="Layer 2" viewBox="0 0 471.825 189.847"><path d="M369.75 168.76c-.364.044-.894-.118-1.199.054-.218.122-2.107 3.58-2.597 4.27-18.467 26.018-71.304 21.575-78.533-12.11-3.199-14.903-.099-31.533 12.846-40.764 15.796-11.263 35.92-9.743 54.045-12.94 4.839-.854 12.473-2.399 13.161-8.329 1.097-9.446-4.554-15.872-13.667-17.258-11.185-1.702-23.45 2.226-26.459 14.179l-36.343-2.133c2.702-14.01 11.052-25.805 23.581-32.63 29.534-16.092 89.83-8.93 92.177 32.863l-.012 93.277h-37V168.76Zm-2-41.95c-2.74 1.278-5.558 2.158-8.497 2.875-12.613 3.077-36.831 1.885-35.514 20.733 1.058 15.143 22.731 14.9 32.741 9.208 5.126-2.914 11.27-10.317 11.27-16.46V126.81ZM192.738 54.908l26.128 93.145c.619.01 1.253.106 1.407-.62l25.594-92.29 41.632-.246-45.784 132.307-44.674-.007-46.045-132.173 41.742-.116ZM0 54.895h38.25L38 78.618l1.78-.146c2.186-8.045 6.672-15.817 13.788-20.388 8.524-5.477 19.324-5.989 28.943-3.511l-.012 34.281c-1.947-.461-3.921-.929-5.909-1.212-19.642-2.796-35.368 3.55-37.35 25.05l.011 74.547H0V54.895Zm138.25.25v132.094H99l-.252-132.09 39.502-.004zm324.91 95.98c11.838 8.552 11.373 25.769-.327 34.324-11.487 8.399-28.379 3.183-32.841-10.313-6.681-20.204 16.113-36.333 33.168-24.011ZM101.096 8.792c8.423-12.154 28.281-11.674 35.697 1.238 7.837 13.646-3.62 28.761-18.38 28.618-15.156-.147-26.547-16.538-17.317-29.856Z" data-name="Layer 1" style="fill:#f3f5f0"/></svg>