<svg xmlns="http://www.w3.org/2000/svg" width="256" height="256" fill="none" viewBox="0 0 256 256"><g clip-path="url(#a)"><mask id="b" width="256" height="256" x="0" y="0" maskUnits="userSpaceOnUse" style="mask-type:luminance"><path fill="#fff" d="M256 0H0v256h256z"/></mask><g fill="#fff" mask="url(#b)"><path d="M31.88 99.018c-9.8-9.246-16.7-21.253-16.7-35.605v-1.518c.829-24.29 20.84-43.886 45.129-44.714H215.15c4.002.138 7.314 3.036 7.314 7.176v130.967c3.588.69 5.244 1.104 8.695 2.346 2.622.966 6.486 3.175 6.486 3.175V24.357C237.37 11.937 227.571 2 215.151 2H60.309C26.91 2.552 0 29.877 0 63.413 0 82.87 8.832 99.57 23.461 111.3c.966.828 1.932 1.794 4.554 1.794 4.554 0 7.728-3.589 7.59-7.591-.137-3.312-1.518-4.554-3.726-6.486"/><path d="M211.286 164.157H89.841c-8.143 0-14.767 6.762-14.767 14.904v17.389c.276 8.004 7.176 15.043 15.18 15.043h8.97V196.45h-8.97v-17.113h4.969c15.318 0 26.635 14.215 26.635 29.534 0 13.524-12.283 30.775-32.845 29.395-18.355-1.242-28.154-17.527-28.154-29.395V60.791c0-6.625-5.382-12.145-12.144-12.145H36.57v15.18h8.97v145.045c-.413 29.533 20.978 44.437 43.335 44.437l122.411.414c24.703 0 44.713-20.01 44.713-44.713 0-24.704-20.01-44.852-44.713-44.852m29.395 45.68c-.552 15.87-13.525 28.567-29.395 28.567l-85.15-.276c6.762-7.867 10.902-18.079 10.902-29.119 0-17.527-10.488-29.534-10.488-29.534h84.736c16.284 0 29.395 13.249 29.395 29.534zM179.546 66.448H87.082V51.406h92.464c3.726 0 6.624 3.036 6.624 6.624v1.794c0 3.726-3.036 6.624-6.624 6.624"/><path d="M179.546 137.798H87.082v-15.043h92.464c3.726 0 6.624 3.036 6.624 6.624v1.794c0 3.589-3.036 6.625-6.624 6.625M195.552 102.192H86.942V87.149h108.61c3.726 0 6.624 3.037 6.624 6.625v1.794c.138 3.588-2.898 6.624-6.624 6.624"/></g></g><defs><clipPath id="a"><path fill="#fff" d="M0 0h256v256H0z"/></clipPath></defs></svg>