<svg xmlns="http://www.w3.org/2000/svg" width="770" height="143" fill="none" viewBox="0 0 770 143"><g fill="#fff" clip-path="url(#a)"><path d="M18.03 54.8C12.51 49.57 8.6 42.79 8.6 34.7v-.86C9.06 20.1 20.37 9.05 34.09 8.61h87.51c2.3.08 4.13 1.72 4.13 4.05v74.03c2.02.37 2.99.61 4.93 1.32 1.51.55 3.67 1.77 3.67 1.77V12.67C134.2 5.65 128.64 0 121.6 0H34.08C15.21.31 0 15.73 0 34.71c0 11.02 5.02 20.41 13.24 27.02.55.44 1.09 1.02 2.57 1.01 2.58 0 4.39-2.03 4.28-4.28-.09-1.85-.87-2.53-2.06-3.66"/><path d="M119.36 91.61H50.72a8.404 8.404 0 0 0-8.33 8.401v9.84c.13 4.56 4.02 8.47 8.61 8.47h5.1v-8.47H51v-9.64h2.78c8.66 0 15.04 8.07 15.04 16.67 0 7.62-6.94 17.39-18.6 16.61-10.35-.69-15.9-9.89-15.9-16.61v-83.65c0-3.78-3.07-6.85-6.85-6.85h-6.84v8.53h5.09v81.97c-.26 16.67 11.88 25.07 24.51 25.07l69.14.2c13.94 0 25.24-11.32 25.24-25.28s-11.3-25.28-25.24-25.28zM136 117.432c-.29 8.95-7.63 16.12-16.64 16.12l-48.11-.19c3.85-4.44 6.16-10.2 6.16-16.48 0-9.88-5.89-16.67-5.89-16.67h47.84c9.19 0 16.64 7.46 16.64 16.67zM49.15 27.92h51.74c2.36 0 4.27 1.91 4.27 4.27s-1.91 4.27-4.27 4.27H49.15z"/><path d="M49.15 68.21h51.74c2.36 0 4.27 1.91 4.27 4.27s-1.91 4.27-4.27 4.27H49.15zm0-20.14H110c2.36 0 4.27 1.91 4.27 4.27s-1.91 4.27-4.27 4.27H49.15zm148.74-8.82c-9.69 0-17.19 5.54-17.19 13.73s6.35 10.73 14.19 12.23l9.92 1.62c13.15 2.19 22.27 8.19 22.27 22.62s-12.35 23.771-28.04 23.771c-14.16 0-27.48-8.35-29.44-24.66-.16-1.36.89-2.57 2.27-2.57h5.92c1.14 0 2.12.84 2.26 1.97 1.4 11.58 10.36 16.14 19.11 16.14 9.58 0 17.19-4.73 17.19-14.31 0-8.54-6.12-11.54-14.19-13.04l-9.81-1.73c-13.73-2.31-22.39-8.88-22.39-21.46 0-14.54 12.69-23.42 27.92-23.42 12.16 0 25.58 6.87 28.18 23.08a2.29 2.29 0 0 1-2.26 2.65h-6.15c-1.1 0-2.06-.79-2.24-1.88-1.79-10.8-9.66-14.74-17.53-14.74zm68.7 8.94c14.68 0 25.12 7.84 28.81 20.61.42 1.45-.69 2.9-2.2 2.9h-6.93c-.98 0-1.83-.63-2.16-1.55-2.57-7.29-8.52-11.45-17.52-11.45-12.26 0-19.13 10-19.13 22.01s6.88 22.009 19.13 22.009c9.01 0 14.95-4.16 17.52-11.45.33-.92 1.18-1.55 2.16-1.55h6.89a2.28 2.28 0 0 1 2.19 2.92c-3.95 13.35-14.05 20.59-28.77 20.59-18.88 0-30.89-14.63-30.89-32.51s12.01-32.51 30.89-32.51zm39.88 54.629h14.8v-41.09h-13.19c-1.26 0-2.28-1.02-2.28-2.28v-5.83c0-1.26 1.02-2.28 2.28-2.28h17.97c3.78 0 6.85 3.07 6.84 6.86v1.67c3.25-7.84 10.28-9.76 21.17-9.76 4.19 0 6.96.68 8.55 1.27.89.33 1.48 1.18 1.48 2.14v6.02c0 1.55-1.51 2.65-2.98 2.17-1.96-.64-4.69-1.21-8.29-1.21-11.63 0-19.93 7.92-19.93 21.66v20.67h19.01c1.26 0 2.28 1.02 2.28 2.28v5.83c0 1.26-1.02 2.28-2.28 2.28h-45.44c-1.26 0-2.28-1.02-2.28-2.28v-5.83c0-1.26 1.02-2.28 2.28-2.28zM372.78 80.7c0-17.88 11.88-32.51 31.14-32.51s31.14 14.63 31.14 32.51-11.88 32.509-31.14 32.509-31.14-14.63-31.14-32.51m31.14 22.009c12.38 0 19.51-10 19.51-22.01s-7.13-22.01-19.51-22.01-19.51 10-19.51 22.01 7.13 22.01 19.51 22.01m56.97.601h17.85c1.26 0 2.28 1.02 2.28 2.28v5.34c0 1.26-1.02 2.28-2.28 2.28H452c-1.26 0-2.28-1.02-2.28-2.28v-70.34h-8.88c-1.26 0-2.28-1.02-2.28-2.28v-5.34c0-1.26 1.02-2.28 2.28-2.28h13.2c3.78 0 6.84 3.06 6.84 6.84v65.78zm39.47 0h17.85c1.26 0 2.28 1.02 2.28 2.28v5.34c0 1.26-1.02 2.28-2.28 2.28h-26.74c-1.26 0-2.28-1.02-2.28-2.28v-70.34h-8.88c-1.26 0-2.28-1.02-2.28-2.28v-5.34c0-1.26 1.02-2.28 2.28-2.28h13.2c3.78 0 6.84 3.06 6.84 6.84v65.78zm36.2 4.471q-5.745-4.635-7.32-12.21c-.29-1.41.82-2.72 2.26-2.72h6.4c1.08 0 1.98.77 2.22 1.83.65 2.85 2.05 4.72 4.2 6.35 2.58 1.96 5.79 2.94 9.62 2.94s6.73-.83 9.19-2.5c2.46-1.66 3.68-4 3.68-7 0-2.58-.93-4.52-2.81-5.81-1.87-1.29-4.44-2.27-7.69-2.94l-7.75-1.37c-5.74-1.08-10.29-3.08-13.62-6-3.34-2.92-5-6.79-5-11.62 0-3.67 1.08-6.89 3.25-9.69 2.17-2.79 5.04-4.96 8.62-6.5s7.42-2.31 11.5-2.31c6.5 0 11.97 1.69 16.43 5.06 3.77 2.85 6.21 6.7 7.33 11.55.33 1.41-.79 2.76-2.25 2.76h-5.88c-1.02 0-1.95-.65-2.22-1.63-.7-2.52-2.11-4.12-4.22-5.68-2.55-1.87-5.52-2.81-8.94-2.81s-6.35.83-8.81 2.5-3.69 3.87-3.69 6.62c0 2.25.87 3.96 2.63 5.12 1.75 1.17 4.25 2.08 7.5 2.75l7.87 1.38c5.83 1 10.54 3.02 14.12 6.06s5.37 7.19 5.37 12.43c0 3.67-1.06 6.93-3.19 9.81-2.13 2.87-5.04 5.11-8.75 6.69s-7.85 2.37-12.43 2.37c-7.25 0-13.12-1.81-17.62-5.44zm125.15.329c-3.98-3.24-5.5-7.55-5.5-13.03 0-10.12 7.16-16.42 22.42-18.82l8.95-1.49c2.99-.5 5.15-1.14 6.47-1.93s1.99-2.18 1.99-4.17c0-3.23-1.27-5.85-3.8-7.84s-5.7-2.98-9.52-2.98c-4.23 0-7.7 1.08-10.39 3.24q-3.345 2.67-4.26 7.29c-.23 1.15-1.25 1.96-2.42 1.87l-6.46-.51c-1.31-.1-2.29-1.3-2.08-2.6.84-5.43 3.34-9.81 7.51-13.14 4.77-3.81 10.76-5.72 17.98-5.72q6.96 0 12.63 2.61c3.77 1.74 6.78 4.31 9.02 7.72 2.24 3.4 3.36 7.51 3.36 12.32v40.01c0 .74-.51 2.36-1.8 2.36h-5.63c-1.18 0-2.16-.88-2.28-2.06-.17-1.72-.25-5.17-.25-7.22-4.07 6.8-10.91 8.96-20.53 8.96-6.3 0-11.45-1.62-15.43-4.85zm9.27-6.47c2.44 1.74 5.54 2.61 9.27 2.61 4.73 0 7.76-1.21 10.66-3.95s5.14-6.11 5.14-11.61v-4.3c0-1.43-1.3-2.53-2.7-2.24-.85.18-1.74.32-2.65.44l-9.71 1.74c-4.23.67-7.57 1.72-10.01 3.17-2.45 1.45-3.67 3.71-3.67 6.78s1.23 5.6 3.67 7.34zM618.14 48.29c14.68 0 25.12 7.84 28.81 20.61.42 1.45-.69 2.9-2.2 2.9h-6.93c-.98 0-1.83-.63-2.16-1.55-2.57-7.29-8.52-11.45-17.52-11.45-12.26 0-19.13 10-19.13 22.01s6.88 22.009 19.13 22.009c9.01 0 14.95-4.16 17.52-11.45.33-.92 1.18-1.55 2.16-1.55h6.89a2.28 2.28 0 0 1 2.19 2.92c-3.95 13.35-14.05 20.59-28.77 20.59-18.88 0-30.89-14.63-30.89-32.51s12.01-32.51 30.89-32.51zm126.19.1c-.37-.01-1.11 0-1.48 0-5.5 0-11.45 2.31-15.28 5.18v-2.9c0-1.26-1.02-2.28-2.28-2.28h-6.08c-1.26 0-2.28 1.02-2.28 2.28v60.181c0 1.26 1.02 2.43 2.28 2.43h6.12c1.26 0 2.28-1.17 2.28-2.44v-35.66c0-8.77 7.08-15.72 15.85-15.72s15.85 6.94 15.85 15.72v35.81c0 1.26 1.02 2.28 2.28 2.28h6.12c1.26 0 2.28-1.02 2.28-2.28v-35.82c0-18.13-12.86-26.38-25.67-26.79z"/></g><defs><clipPath id="a"><path fill="#fff" d="M0 0h770v142.16H0z"/></clipPath></defs></svg>