<svg xmlns="http://www.w3.org/2000/svg" id="Layer_1" viewBox="0 0 765.65 141.36"><defs><style>.cls-1,.cls-4{stroke-width:0}.cls-4{fill:#190602}</style></defs><path d="m133.55 95.97.02-83.38c-.13-6.98-5.66-12.6-12.66-12.6H33.89C15.12.31 0 15.64 0 34.51c0 6.37 1.7 11.8 4.32 16.56 2.19 3.97 5.65 7.71 9.1 10.52.94.77.5.48 3.45 2.29 4.07 2.5 8.74 3.74 8.74 3.74l-.04 49.86c.1 2.36.36 4.62.94 6.73 1.95 7.01 6.8 12.42 13.44 15.04 2.77 1.09 5.91 1.83 9.23 1.85l69.5.25c13.86 0 25.1-11.25 25.1-25.13 0-8.31-4.03-15.68-10.24-20.25Z" style="stroke-width:0;fill:#ffeeda"/><path d="M135.23 116.77c-.29 8.9-7.58 16.03-16.54 16.03l-47.84-.19a24.97 24.97 0 0 0 6.12-16.39c0-9.82-5.85-16.57-5.85-16.57h47.57c9.14 0 16.55 7.42 16.55 16.57v.54Z" style="stroke-width:0;fill:#ebc28e"/><path d="M17.93 54.49c-5.49-5.2-9.38-11.94-9.38-19.98v-.85C9 20 20.25 9.01 33.89 8.57h87.02c2.28.08 4.11 1.71 4.11 4.02V86.2c2.01.37 2.97.61 4.9 1.31 1.5.55 3.65 1.76 3.65 1.76V12.6C133.44 5.62 127.91 0 120.91 0H33.89C15.12.31 0 15.64 0 34.51 0 45.47 4.99 54.8 13.17 61.38c.55.44 1.09 1.01 2.55 1 2.56 0 4.36-2.02 4.26-4.25-.09-1.84-.86-2.51-2.05-3.64" class="cls-4"/><path d="M118.69 91.09H50.43c-4.58.04-8.29 3.77-8.29 8.36v9.79c.13 4.53 3.99 8.42 8.56 8.42h5.07v-8.42H50.7v-9.58h2.77c8.61 0 14.95 8.02 14.95 16.57 0 7.58-6.9 17.29-18.49 16.52-10.29-.69-15.81-9.83-15.81-16.52V33.04c0-3.76-3.05-6.81-6.81-6.81h-6.8v8.49h5.06v81.5c-.26 16.57 11.81 24.93 24.37 24.93l68.75.2c13.86 0 25.1-11.25 25.1-25.13s-11.24-25.13-25.1-25.13m16.54 25.68c-.29 8.9-7.58 16.03-16.54 16.03l-47.84-.19a24.97 24.97 0 0 0 6.12-16.39c0-9.82-5.85-16.57-5.85-16.57h47.57c9.14 0 16.55 7.42 16.55 16.57v.54ZM48.87 27.76h51.45c2.34 0 4.24 1.9 4.24 4.24s-1.9 4.24-4.24 4.24H48.87v-8.49Z" class="cls-4"/><path d="M48.87 67.83h51.45c2.34 0 4.24 1.9 4.24 4.24s-1.9 4.24-4.24 4.24H48.87v-8.49ZM48.87 47.8h60.5c2.34 0 4.24 1.9 4.24 4.24s-1.9 4.24-4.24 4.24h-60.5v-8.49Z" class="cls-4"/><path d="M196.78 39.03c-9.64 0-17.1 5.51-17.1 13.65s6.31 10.67 14.11 12.16l9.87 1.61c13.08 2.18 22.14 8.15 22.14 22.49s-12.28 23.64-27.88 23.64c-14.08 0-27.33-8.31-29.28-24.52-.16-1.36.89-2.55 2.25-2.55h5.89c1.13 0 2.11.84 2.25 1.96 1.39 11.52 10.3 16.05 19 16.05 9.52 0 17.1-4.7 17.1-14.23 0-8.49-6.08-11.47-14.11-12.97l-9.75-1.72c-13.65-2.29-22.26-8.83-22.26-21.34 0-14.46 12.62-23.29 27.77-23.29 12.1 0 25.43 6.83 28.02 22.95.22 1.38-.84 2.64-2.24 2.64h-6.12c-1.1 0-2.05-.79-2.23-1.87-1.78-10.74-9.6-14.65-17.43-14.65ZM265.09 47.92c14.59 0 24.98 7.8 28.65 20.49.42 1.44-.68 2.88-2.19 2.88h-6.89c-.97 0-1.82-.63-2.15-1.54-2.56-7.25-8.47-11.39-17.43-11.39-12.19 0-19.02 9.95-19.02 21.89s6.84 21.88 19.02 21.88c8.96 0 14.87-4.14 17.43-11.39.32-.92 1.17-1.54 2.15-1.54h6.85c1.51 0 2.61 1.46 2.18 2.91-3.92 13.27-13.97 20.47-28.61 20.47-18.78 0-30.71-14.55-30.71-32.33s11.94-32.33 30.71-32.33ZM304.74 102.24h14.71V61.38h-13.11c-1.25 0-2.27-1.02-2.27-2.27v-5.8c0-1.25 1.02-2.27 2.27-2.27h17.86c3.76 0 6.81 3.05 6.81 6.82v1.66c3.23-7.8 10.23-9.7 21.05-9.7 4.17 0 6.92.68 8.5 1.27.89.33 1.47 1.18 1.47 2.13v5.99c0 1.54-1.5 2.64-2.96 2.16-1.95-.64-4.66-1.2-8.24-1.2-11.57 0-19.81 7.88-19.81 21.54v20.55h18.9c1.25 0 2.27 1.02 2.27 2.27v5.8c0 1.25-1.02 2.27-2.27 2.27h-45.18c-1.25 0-2.27-1.02-2.27-2.27v-5.8c0-1.25 1.02-2.27 2.27-2.27ZM370.68 80.25c0-17.78 11.81-32.33 30.96-32.33s30.96 14.55 30.96 32.33-11.81 32.33-30.96 32.33-30.96-14.55-30.96-32.33m30.96 21.88c12.31 0 19.4-9.95 19.4-21.88s-7.09-21.88-19.4-21.88-19.4 9.95-19.4 21.88 7.09 21.88 19.4 21.88M458.29 102.73h17.75c1.25 0 2.27 1.02 2.27 2.27v5.31c0 1.25-1.02 2.27-2.27 2.27h-26.59c-1.25 0-2.27-1.02-2.27-2.27V40.36h-8.83c-1.25 0-2.27-1.02-2.27-2.27v-5.31c0-1.25 1.02-2.27 2.27-2.27h13.13c3.76 0 6.81 3.05 6.81 6.81zM497.54 102.73h17.75c1.25 0 2.27 1.02 2.27 2.27v5.31c0 1.25-1.02 2.27-2.27 2.27H488.7c-1.25 0-2.27-1.02-2.27-2.27V40.36h-8.83c-1.25 0-2.27-1.02-2.27-2.27v-5.31c0-1.25 1.02-2.27 2.27-2.27h13.13c3.76 0 6.81 3.05 6.81 6.81zM533.53 107.17c-3.81-3.07-6.24-7.12-7.28-12.14-.29-1.4.81-2.71 2.24-2.71h6.36c1.08 0 1.97.77 2.21 1.82.64 2.83 2.04 4.7 4.18 6.32 2.57 1.95 5.76 2.92 9.57 2.92s6.69-.83 9.14-2.49c2.44-1.65 3.66-3.98 3.66-6.96 0-2.57-.93-4.49-2.79-5.78-1.86-1.28-4.41-2.26-7.64-2.92l-7.71-1.37c-5.71-1.08-10.23-3.07-13.54-5.96-3.32-2.9-4.97-6.75-4.97-11.56 0-3.65 1.08-6.85 3.23-9.63 2.15-2.77 5.01-4.93 8.58-6.46 3.56-1.53 7.37-2.3 11.43-2.3 6.46 0 11.91 1.68 16.34 5.03 3.74 2.84 6.18 6.67 7.29 11.48.32 1.41-.79 2.74-2.23 2.74h-5.85c-1.01 0-1.94-.64-2.21-1.62-.7-2.5-2.1-4.1-4.2-5.65-2.53-1.86-5.49-2.8-8.89-2.8s-6.32.83-8.76 2.49-3.67 3.85-3.67 6.59q0 3.36 2.61 5.1c1.74 1.16 4.22 2.07 7.46 2.73l7.83 1.37q8.7 1.485 14.04 6.03c3.56 3.02 5.34 7.15 5.34 12.36 0 3.65-1.06 6.9-3.17 9.75-2.12 2.86-5.02 5.08-8.7 6.65-3.69 1.57-7.81 2.36-12.36 2.36-7.21 0-13.05-1.8-17.52-5.41ZM657.97 107.5c-3.96-3.22-5.47-7.51-5.47-12.96 0-10.06 7.12-16.32 22.29-18.72l8.9-1.48c2.97-.49 5.12-1.13 6.43-1.92s1.98-2.17 1.98-4.15c0-3.22-1.26-5.81-3.77-7.79s-5.67-2.97-9.46-2.97c-4.21 0-7.65 1.07-10.33 3.22-2.21 1.77-3.63 4.19-4.24 7.25-.23 1.14-1.24 1.95-2.41 1.86l-6.43-.51c-1.3-.1-2.27-1.29-2.07-2.58.84-5.4 3.32-9.75 7.47-13.07 4.74-3.79 10.7-5.69 17.88-5.69 4.62 0 8.8.87 12.56 2.6 3.75 1.73 6.74 4.29 8.97 7.67 2.22 3.38 3.34 7.47 3.34 12.25v39.79c0 .74-.5 2.34-1.79 2.34h-5.6a2.26 2.26 0 0 1-2.26-2.04c-.16-1.71-.25-5.14-.25-7.18-4.04 6.76-10.85 8.91-20.41 8.91-6.27 0-11.38-1.61-15.34-4.82Zm9.22-6.43c2.43 1.73 5.51 2.6 9.22 2.6 4.7 0 7.71-1.2 10.6-3.93 2.89-2.72 5.11-6.08 5.11-11.54v-4.27c0-1.42-1.3-2.51-2.69-2.23-.85.17-1.73.32-2.63.44l-9.65 1.73c-4.21.66-7.53 1.71-9.96 3.16-2.43 1.44-3.65 3.69-3.65 6.74s1.22 5.57 3.65 7.3M614.65 48.02c14.59 0 24.98 7.8 28.65 20.49.42 1.44-.68 2.88-2.19 2.88h-6.89c-.97 0-1.82-.63-2.15-1.54-2.56-7.25-8.47-11.39-17.43-11.39-12.19 0-19.02 9.95-19.02 21.89s6.84 21.88 19.02 21.88c8.96 0 14.87-4.14 17.43-11.39.32-.92 1.17-1.54 2.15-1.54h6.85c1.51 0 2.61 1.46 2.18 2.91-3.92 13.27-13.97 20.47-28.61 20.47-18.78 0-30.71-14.55-30.71-32.33s11.94-32.33 30.71-32.33ZM740.13 48.11c-.37-.01-1.1 0-1.47 0-5.47 0-11.38 2.3-15.2 5.15v-2.88c0-1.25-1.02-2.27-2.27-2.27h-6.04c-1.25 0-2.27 1.01-2.27 2.26v59.84c0 1.25 1.02 2.42 2.27 2.42h6.08c1.25 0 2.27-1.17 2.27-2.42V74.75c0-8.72 7.04-15.63 15.76-15.63s15.76 6.91 15.76 15.63v35.61c0 1.25 1.02 2.27 2.27 2.27h6.08c1.25 0 2.27-1.02 2.27-2.27V74.75c0-18.02-12.79-26.23-25.52-26.64Z" class="cls-1"/></svg>