<svg xmlns="http://www.w3.org/2000/svg" width="723" height="150" fill="none" viewBox="0 0 723 150"><path fill="#fff" fill-rule="evenodd" d="M74.718 149.562c22.254 0 42.247-9.638 55.999-24.951-6.398-5.536-16.038-5.872-22.848-.4l-1.301 1.045c-12.47 10.019-30.64 8.54-41.309-3.363-5.819-6.493-15.784-7.155-22.419-1.492l-15 12.806c12.847 10.235 29.145 16.355 46.878 16.355m24.35-36.211c11.877-9.544 28.571-9.201 39.994.016 6.828-11.265 10.756-24.469 10.756-38.586 0-15.687-4.85-30.245-13.139-42.27-5.344-1.132-11.136.191-15.532 4.07l-1.252 1.105c-11.992 10.581-30.21 9.938-41.42-1.462-6.113-6.218-16.1-6.422-22.464-.46L38.554 52.119l-9.603-10.164 17.457-16.353c11.923-11.17 30.629-10.787 42.081.86 5.984 6.086 15.71 6.43 22.112.78l1.251-1.104a31.7 31.7 0 0 1 13.089-6.956C111.636 7.257 94.028 0 74.718 0 36.594 0 5.106 28.286.264 64.932c11.58-5.533 25.863-3.404 35.305 6.223 5.96 6.078 15.557 6.72 22.28 1.49l9.76-7.593c12.267-9.543 29.607-9.08 41.344 1.101l19.002 16.486-9.206 10.521-19.003-16.485c-6.673-5.79-16.533-6.052-23.509-.626l-9.76 7.593c-12.351 9.608-29.985 8.43-40.935-2.737-6.368-6.493-16.783-6.72-23.43-.51L0 82.37c1.58 15.619 7.988 29.819 17.715 41.1l16.003-13.662c12.428-10.61 31.097-9.368 41.997 2.793 5.696 6.355 15.395 7.144 22.052 1.796z" clip-rule="evenodd"/><path fill="#fff" d="M206.477 100.28h14.4q0 5.92 4.32 9.44 4.32 3.36 11.68 3.36 8 0 12.32-3.04 4.32-3.2 4.32-8.48 0-3.84-2.4-6.4-2.24-2.56-8.32-4.16l-13.76-3.2q-10.4-2.56-15.52-7.84-4.96-5.28-4.96-13.92 0-7.2 3.68-12.48 3.84-5.28 10.4-8.16 6.72-2.88 15.36-2.88t14.88 3.04q6.4 3.04 9.92 8.48 3.68 5.44 3.84 12.96h-14.4q-.16-6.08-4-9.44t-10.72-3.36q-7.04 0-10.88 3.04t-3.84 8.32q0 7.84 11.52 10.72l13.76 3.36q9.92 2.24 14.88 7.36 4.96 4.96 4.96 13.6 0 7.36-4 12.96-4 5.44-11.04 8.48-6.88 2.88-16.32 2.88-13.76 0-21.92-6.72t-8.16-17.92m111.878 24.64q-11.36 0-20.16-5.12-8.8-5.28-13.76-14.4-4.96-9.28-4.96-21.44 0-12.32 4.8-21.6 4.96-9.28 13.44-14.56 8.64-5.28 20-5.28 11.2 0 19.36 4.8 8.32 4.8 12.8 13.44 4.64 8.64 4.64 20.32v5.6l-67.04.16.32-10.08h51.68q0-9.76-5.92-15.68-5.919-5.92-15.84-5.92-7.52 0-12.96 3.36-5.28 3.2-8.16 9.6-2.72 6.24-2.72 15.04 0 14.08 6.4 21.76 6.4 7.52 18.4 7.52 8.8 0 14.4-3.52t7.52-10.24h14.08q-2.88 12.48-12.32 19.36t-24 6.88m52.959-1.92V44.76h15.04V123zm7.36-96.8q-4 0-7.04-2.88-2.88-3.04-2.88-7.04 0-4.16 2.88-7.04 3.04-2.88 7.04-2.88 4.16 0 7.04 2.88t2.88 7.04q0 4-2.88 7.04-2.88 2.88-7.04 2.88m23.115 74.08h14.4q0 5.92 4.32 9.44 4.32 3.36 11.68 3.36 8 0 12.32-3.04 4.32-3.2 4.32-8.48 0-3.84-2.4-6.4-2.24-2.56-8.32-4.16l-13.76-3.2q-10.4-2.56-15.52-7.84-4.96-5.28-4.96-13.92 0-7.2 3.68-12.48 3.84-5.28 10.4-8.16 6.72-2.88 15.36-2.88t14.88 3.04q6.4 3.04 9.92 8.48 3.68 5.44 3.84 12.96h-14.4q-.16-6.08-4-9.44t-10.72-3.36q-7.04 0-10.88 3.04t-3.84 8.32q0 7.84 11.52 10.72l13.76 3.36q9.92 2.24 14.88 7.36 4.96 4.96 4.96 13.6 0 7.36-4 12.96-4 5.44-11.04 8.48-6.88 2.88-16.32 2.88-13.76 0-21.92-6.72t-8.16-17.92m72.999-16.32q0-12.32 4.8-21.6 4.96-9.28 13.6-14.56t20-5.28q14.72 0 24.48 7.84t11.68 20.8h-15.04q-1.92-7.52-7.52-11.36t-13.12-3.84q-7.041 0-12.48 3.52-5.44 3.36-8.48 9.6t-3.04 14.72 2.88 14.72q2.88 6.08 8.16 9.6 5.28 3.36 12.32 3.36 8 0 13.76-4t7.68-10.88h15.04q-1.44 8.48-6.56 14.88-4.96 6.24-12.8 9.92-7.68 3.52-17.12 3.52-11.52 0-20.16-5.12-8.48-5.12-13.28-14.24-4.8-9.28-4.8-21.6m113.469 40.96q-12.48 0-19.68-6.56-7.04-6.56-7.04-17.12 0-10.72 7.68-17.12 7.68-6.56 21.44-7.68l24.64-1.92v-2.24q0-6.56-2.4-10.4-2.4-4-6.56-5.6-4.16-1.76-9.44-1.76-9.44 0-14.72 4-5.12 3.84-5.12 11.04h-13.12q0-8.16 4.16-14.24t11.68-9.44q7.68-3.36 17.76-3.36 9.76 0 16.96 3.52 7.36 3.36 11.36 10.4 4.16 6.88 4.16 17.44V123h-12.8l-1.6-12.64q-3.04 6.72-10.56 10.72-7.36 3.84-16.8 3.84m4.32-11.68q10.719 0 16.8-6.4 6.08-6.56 6.08-17.6v-4.16l-20 1.6q-9.921.96-14.4 4.64-4.32 3.68-4.32 9.44 0 6.24 4.16 9.44 4.32 3.04 11.68 3.04m73.308 9.76h-15.04V44.76h13.6l1.6 12q3.681-6.72 10.56-10.4 7.041-3.84 15.36-3.84 15.36 0 22.72 8.8t7.36 23.84V123h-15.04V78.52q0-11.84-5.12-16.96-5.12-5.28-13.76-5.28-10.56 0-16.48 6.88-5.76 6.88-5.76 18.4z"/></svg>