<svg xmlns="http://www.w3.org/2000/svg" width="1955" height="445" fill="none" viewBox="0 0 1955 445"><path fill="#104ade" d="M79.002 329.035a77.15 77.15 0 0 0-7.045 32.199c0 10.26 2.05 20.42 6.034 29.899a78.1 78.1 0 0 0 17.186 25.347 79.4 79.4 0 0 0 25.717 16.938 80.3 80.3 0 0 0 30.337 5.948 80.3 80.3 0 0 0 30.336-5.948 79.4 79.4 0 0 0 25.718-16.938l145.877-143.765c15.197-14.98 23.735-35.296 23.735-56.479 0-19.027-5.975-37.36-19.025-51.745-6.439-2.742-13.558-3.583-20.451-2.307-6.165 1.14-11.817 4.748-16.521 8.985L182.319 311.341a34.5 34.5 0 0 1-8.745 6.453 116 116 0 0 0 5.027-3.228l-.423.167.412-.275.424-.285q-.417.282-.836.56c-21.003 13.935-46.069 20.712-71.364 19.28a117.4 117.4 0 0 1-27.812-4.978"/><path fill="#0038c7" d="M178.17 314.732q.419-.278.836-.56a34.9 34.9 0 0 1-16.812 2.269 34.7 34.7 0 0 1-15.868-5.921 34.85 34.85 0 0 1-10.206-11.014 34.3 34.3 0 0 1-4.562-14.222 34.2 34.2 0 0 1 1.925-14.795 34.6 34.6 0 0 1 8.058-12.626l46.128-45.86 67.368-66.397q.143-.118.284-.24c.189-.161.377-.322.576-.472l10.14-10c4.959-1.009 10.203-1.443 15.673-1.443 11.848 0 21.926 1.141 31.972 4.004 14.611 3.11 28.053 10.329 38.68 20.846a85 85 0 0 1 5.645 6.251c-6.477-2.79-13.65-3.653-20.594-2.369-6.166 1.141-11.817 4.749-16.522 8.986l-138.58 140.172a34.5 34.5 0 0 1-8.746 6.453q2.55-1.547 5.028-3.228z"/><path fill="#0f75fc" d="M289.98 48.062a72.3 72.3 0 0 0-15.938-23.49 85.1 85.1 0 0 0-27.598-18.186A86.1 86.1 0 0 0 213.886 0a86.1 86.1 0 0 0-32.559 6.386 85.1 85.1 0 0 0-27.598 18.187L33.624 142.914C12.534 163.7.48 191.759.014 221.151s10.69 57.809 31.108 79.235l1.251 1.199 1.297 1.323a48 48 0 0 0 3.718 3.246c19.37 16.608 43.788 26.407 69.42 27.859 25.632 1.451 51.028-5.528 72.2-19.841a34.9 34.9 0 0 1-16.811 2.269 34.7 34.7 0 0 1-15.869-5.922 34.8 34.8 0 0 1-10.205-11.014 34.3 34.3 0 0 1-4.563-14.222 34.2 34.2 0 0 1 1.926-14.794 34.6 34.6 0 0 1 8.057-12.626l46.129-45.86 67.368-66.397c.286-.238.562-.487.86-.713l18.142-17.891c10.281-10.124 17.283-23.026 20.121-37.075a71.4 71.4 0 0 0-4.183-41.842z"/><path fill="#fff" d="M1380.67 320.867c-11.15 0-21.23-1.91-30.25-5.731q-13.29-5.73-21.09-16.505c-5.19-7.183-7.87-15.665-8.02-25.446h34.38c.46 6.572 2.75 11.768 6.88 15.588 4.28 3.821 10.08 5.731 17.42 5.731 7.48 0 13.37-1.757 17.65-5.272 4.27-3.668 6.41-8.406 6.41-14.213q0-7.107-4.35-11.692c-2.9-3.056-6.57-5.425-11-7.106q-6.42-2.751-17.88-5.96-15.585-4.585-25.44-8.941-9.63-4.584-16.74-13.525-6.87-9.17-6.87-24.3c0-9.475 2.37-17.728 7.1-24.758q7.11-10.545 19.95-16.047c8.55-3.821 18.33-5.731 29.33-5.731q24.765 0 40.11 12.15c10.4 7.947 16.13 19.103 17.2 33.469h-35.3q-.465-8.253-7.11-13.525-6.42-5.502-17.19-5.502c-6.26 0-11.31 1.605-15.13 4.814-3.66 3.21-5.5 7.871-5.5 13.984 0 4.279 1.38 7.871 4.13 10.774 2.9 2.751 6.42 5.044 10.54 6.878q6.42 2.522 17.88 5.96 15.585 4.585 25.44 9.17c6.57 3.056 12.23 7.641 16.96 13.754q7.11 9.17 7.11 24.071c0 8.558-2.22 16.505-6.65 23.841s-10.92 13.22-19.48 17.652c-8.56 4.279-18.72 6.418-30.49 6.418M1641.14 192.262l-37.13 127.001h-34.61l-23.15-88.717-23.15 88.717h-34.84l-37.36-127.001h32.55l22.46 96.741 24.29-96.741h33.93l23.83 96.511 22.47-96.511zM1650.25 255.304q0-19.256 7.56-34.157c5.2-9.934 12.15-17.575 20.86-22.924 8.87-5.349 18.72-8.024 29.57-8.024 9.47 0 17.73 1.91 24.75 5.731 7.19 3.821 12.92 8.635 17.2 14.442v-18.11h32.31v127.001h-32.31v-18.569c-4.13 5.96-9.86 10.927-17.2 14.901-7.18 3.82-15.51 5.731-24.98 5.731-10.7 0-20.47-2.751-29.34-8.253-8.71-5.502-15.66-13.22-20.86-23.153q-7.56-15.13-7.56-34.616m99.94.458q0-11.691-4.59-19.944c-3.06-5.654-7.18-9.933-12.38-12.837-5.19-3.057-10.77-4.585-16.73-4.585q-8.94 0-16.5 4.356c-5.04 2.903-9.17 7.182-12.38 12.837-3.05 5.502-4.58 12.074-4.58 19.715s1.53 14.366 4.58 20.173c3.21 5.655 7.34 10.011 12.38 13.067 5.19 3.057 10.7 4.585 16.5 4.585 5.96 0 11.54-1.452 16.73-4.356 5.2-3.056 9.32-7.335 12.38-12.837q4.59-8.482 4.59-20.174M1845.93 210.602c4.13-5.808 9.78-10.622 16.96-14.443q11.01-5.96 24.99-5.96 16.275 0 29.34 8.024 13.29 8.023 20.85 22.924 7.8 14.672 7.8 34.157t-7.8 34.616q-7.56 14.9-20.85 23.153-13.065 8.253-29.34 8.253c-9.32 0-17.57-1.911-24.76-5.731q-10.545-5.731-17.19-14.443v78.631h-32.09V192.262h32.09zm67.16 44.702c0-7.641-1.6-14.213-4.81-19.715-3.06-5.655-7.18-9.934-12.38-12.837q-7.56-4.356-16.5-4.356c-5.81 0-11.31 1.528-16.51 4.585-5.04 2.904-9.16 7.183-12.37 12.837q-4.59 8.483-4.59 19.944 0 11.463 4.59 19.945c3.21 5.654 7.33 10.01 12.37 13.066 5.2 2.904 10.7 4.356 16.51 4.356q8.94 0 16.5-4.585c5.2-3.056 9.32-7.412 12.38-13.067 3.21-5.654 4.81-12.379 4.81-20.173M569.919 320.867q-16.732 0-30.256-5.731-13.293-5.73-21.087-16.505-7.793-10.774-8.022-25.446h34.381q.688 9.858 6.876 15.588 6.419 5.732 17.42 5.732 11.232 0 17.649-5.273 6.418-5.502 6.418-14.213 0-7.107-4.355-11.691-4.355-4.586-11.002-7.107-6.418-2.751-17.878-5.96-15.586-4.585-25.442-8.941-9.627-4.584-16.732-13.525-6.876-9.17-6.876-24.3 0-14.213 7.105-24.758t19.941-16.047q12.836-5.731 29.339-5.731 24.753 0 40.111 12.15 15.586 11.92 17.19 33.469h-35.298q-.458-8.253-7.105-13.525-6.418-5.502-17.191-5.502-9.397 0-15.127 4.814-5.501 4.815-5.501 13.984 0 6.419 4.126 10.774 4.354 4.127 10.543 6.878 6.418 2.522 17.878 5.96 15.587 4.585 25.442 9.17 9.857 4.584 16.961 13.754 7.106 9.17 7.106 24.071 0 12.837-6.647 23.841t-19.483 17.652q-12.835 6.418-30.484 6.418M670.627 177.132q-8.481 0-14.211-5.272-5.501-5.502-5.501-13.525t5.501-13.297q5.73-5.5 14.211-5.501 8.48 0 13.981 5.501 5.73 5.273 5.73 13.297 0 8.023-5.73 13.525-5.501 5.272-13.981 5.272m15.815 15.13v127.001h-32.089V192.262zM875.84 190.428q23.379 0 37.59 14.443 14.44 14.212 14.44 39.888v74.504h-32.089v-70.148q0-14.901-7.564-22.695-7.563-8.024-20.628-8.024t-20.858 8.024q-7.564 7.794-7.564 22.695v70.148h-32.089v-70.148q0-14.901-7.564-22.695-7.563-8.024-20.628-8.024-13.295 0-21.087 8.024-7.564 7.794-7.564 22.695v70.148h-32.089V192.262h32.089v15.36q6.188-8.024 15.815-12.609 9.856-4.585 21.546-4.585 14.898 0 26.588 6.419 11.689 6.19 18.107 17.881 6.189-11.004 17.878-17.652 11.919-6.648 25.671-6.648M990.41 210.602q6.189-8.712 16.96-14.442c7.34-3.974 15.66-5.961 24.98-5.961q16.275 0 29.34 8.024c8.87 5.349 15.82 12.99 20.86 22.924 5.2 9.781 7.79 21.167 7.79 34.157s-2.59 24.529-7.79 34.616c-5.04 9.933-11.99 17.651-20.86 23.153q-13.065 8.253-29.34 8.253-13.98 0-24.75-5.731-10.544-5.731-17.19-14.442v78.63h-32.089V192.262h32.089zm67.16 44.702c0-7.641-1.61-14.213-4.82-19.715-3.05-5.654-7.18-9.934-12.37-12.837-5.05-2.904-10.55-4.356-16.51-4.356q-8.7 0-16.5 4.585-7.561 4.356-12.376 12.837-4.584 8.482-4.584 19.945 0 11.462 4.584 19.944 4.815 8.481 12.376 13.066 7.8 4.356 16.5 4.356c5.96 0 11.46-1.528 16.51-4.585 5.19-3.056 9.32-7.412 12.37-13.067 3.21-5.654 4.82-12.379 4.82-20.173M1145.75 149.623v169.64h-32.09v-169.64zM1295.5 253.012c0 4.584-.31 8.711-.92 12.379h-92.83q1.14 13.753 9.63 21.549c5.65 5.196 12.6 7.794 20.86 7.794q17.865 0 25.44-15.359h34.61q-5.505 18.339-21.09 30.259-15.585 11.692-38.28 11.692-18.33 0-33-8.024c-9.63-5.501-17.19-13.219-22.69-23.153-5.35-9.934-8.03-21.396-8.03-34.386 0-13.144 2.68-24.682 8.03-34.616 5.34-9.934 12.83-17.575 22.46-22.924 9.62-5.349 20.7-8.024 33.23-8.024 12.07 0 22.85 2.598 32.32 7.794q14.445 7.795 22.23 22.237c5.35 9.475 8.03 20.403 8.03 32.782m-33.24-9.17q-.225-12.379-8.94-19.715c-5.8-5.043-12.91-7.565-21.31-7.565-7.95 0-14.67 2.445-20.17 7.336-5.35 4.738-8.64 11.386-9.86 19.944z"/></svg>