<svg xmlns="http://www.w3.org/2000/svg" fill="none" viewBox="0 0 64 22"><g clip-path="url(#logo_svg__a)"><path fill="#000" fill-rule="evenodd" d="M19.725 19.502V11.97l-.015-.936.038-10.595a24.8 24.8 0 0 1-5.35 1.021v.192c.777.369 1.289.745 1.522 1.12.226.365.225 1.169.225 2.363v12.908s0 .038.008.054v.345h-.008s0 .062.008.085c0 .698 0 1.405.008 2.103 0 .307.248.545.551.545h3.005q.271 0 .546-.005c.368-.005.738-.01 1.1.005l.024-.161-.057-.015q-.066-.022-.137-.031c-1.064-.138-1.406-.453-1.483-1.459zM8.505 6.098c-.117.015-.28.107-.31.207-.024.085.046.284.162.323.225.076.917.138.917.138.163.023.318.03.442.03.21 0 .397.008.571.015.456.019.83.034 1.347-.099 1.77-.453 2.136-2.748 1.507-4.092-.575-1.228-1.74-1.543-2.936-1.597a63 63 0 0 0-5.234 0c-.62.023-1.289.238-1.84.53-1.25.652-1.577 1.827-1.553 3.132.015 1.121.31 1.367 1.444 1.206l.311-.045c.504-.072 1.013-.145 1.522-.17.365-.016.66.153.652.606-.015.43-.264.614-.66.599-.248-.01-.497-.041-.746-.072q-.186-.023-.372-.043-.215-.023-.43-.051c-.315-.04-.63-.08-.945-.08-.59 0-.807.338-.675.914.217.906.87 1.397 1.677 1.712.963.37 1.807.673 2.691.99.471.168.954.34 1.471.53.195.069.668.315.894.438 0 0 .465.307.737.49.28.193.326.653.334.984l.003 1.205c.006 1.688.012 3.38-.088 5.067-.117 1.904-1.313 2.05-2.672 1.827-.497-.077-.768-.4-.924-.814a2.2 2.2 0 0 1-.124-.668l-.109-4.345q-.037-.233-.063-.467c-.04-.346-.08-.687-.209-1-.186-.452-.465-.92-.846-1.212s-.909-.476-1.398-.538c-.97-.115-1.902.062-2.733.653.947.13 1.133.798 1.227 1.52.034.24.035.488.036.736q0 .139.002.277v2.94c.016 2.12 1.39 3.218 3.247 3.333 1.755.1 3.525.1 5.288 0 1.646-.093 3.06-.945 3.223-2.756.133-1.495.095-3.008.058-4.512v-.002l-.012-.492c-.015-.83-.535-1.42-1.312-1.72a32 32 0 0 0-2.376-.798l-1.36-.422q-.305-.135-.618-.26c-.423-.175-.846-.348-1.237-.57-.614-.345-.909-.936-.987-1.635-.046-.376.031-.576.474-.645.769-.123 1.04-.476 1.01-1.159-.024-.607-.264-.898-.924-1.021-.435-.077-.653-.253-.575-.706.037-.23.063-.464.09-.697.058-.505.115-1.009.275-1.476C6.12 1.53 6.905 1.261 8 1.407c.769.107 1.274.545 1.351 1.367.078.783.07 1.581.023 2.364-.03.5-.28.898-.87.967zm53.607 13.41c.07 1.006.396 1.321 1.398 1.46l-.008.015q.059.009.113.027l.065.019-.023.16c-.341-.014-.686-.01-1.032-.004q-.261.004-.521.005h-2.842a.53.53 0 0 1-.52-.545c0-.699 0-1.405-.016-2.104v-2.08c.012-2.613.02-3.338.022-3.606l.001-.156c0-2.203-.753-3.301-2.275-3.301-1.173 0-2.237.668-3.184 2.011v8.108c.078 1.005.42 1.32 1.483 1.458a1 1 0 0 1 .137.03l.057.016-.023.161c-.363-.015-.733-.01-1.1-.005q-.276.005-.546.005h-3.006a.545.545 0 0 1-.551-.545c-.008-.698-.008-1.404-.008-2.102v-.002c-.008-.023-.008-.084-.008-.084h.008v-.345c-.008-.016-.008-.054-.008-.054V5.26c0-1.075 0-1.843-.14-2.28a1 1 0 0 0-.093-.2c-.233-.376-.745-.753-1.522-1.121v-.192q.052-.001.101-.008A24.602 24.602 0 0 0 53.328.446l-.038 10.05c1.32-1.928 2.95-2.887 4.892-2.887 1.048 0 1.973.322 2.75.975.784.652 1.18 1.65 1.18 3.017v7.908M47.385 9.394l-.006-.133a3 3 0 0 0-.018-.266c-.163-1.489-.932-2.464-2.158-2.656a20.6 20.6 0 0 0-6.508.023c-1.017.169-1.872.737-2.058 1.781a13 13 0 0 0-.163 3.14c.077 1.113.885 1.697 1.949 1.896.45.084.905.14 1.386.198q.334.04.688.087c3.308.345 3.183 2.065 3.183 2.065.078 1.527.047 3.055 0 4.583-.023.73-.497 1.105-1.242 1.16l-.206.007q-.102.002-.206.008c-1.53.015-1.933-.346-1.995-1.874a44 44 0 0 1-.02-1.815q.003-.606-.004-1.21c-.008-.806-.28-1.182-.94-1.397a1.3 1.3 0 0 0-1.102.146l-1.942 1.275a9 9 0 0 0-.606.453q-.146.116-.294.23l.046.138q.112.009.225.022c.153.017.308.034.459.024.372-.015.512.138.528.5.012.35.065.697.117 1.042l.038.255c.17 1.19.8 1.98 1.988 2.203 2.174.4 4.372.338 6.562.054 1.188-.154 1.98-.868 2.128-2.058a24 24 0 0 0 .155-3.408c-.023-1.014-.559-1.79-1.576-2.058-.582-.156-1.183-.24-1.782-.324a35 35 0 0 1-.766-.114c-.411-.069-.83-.138-1.358-.222-1.126-.223-1.453-.83-1.453-.83-.178-.253-.35-.583-.35-.875 0-1.35.04-2.71.11-4.06.023-.53.38-.876.916-.93.52-.054 1.048-.092 1.56-.015.692.1.987.468 1.041 1.167.047.637.078 1.274.07 1.911-.007.66.14 1.221.63 1.613.294.23.675.322 1.048.253l2.617-.453v-.146c-.657-.17-.665-.63-.672-1.091-.002-.1-.003-.201-.012-.299zM33.47 17.9c0 .484 0 .975.023 1.466l.016.016c.054 1.12.38 1.466 1.49 1.604a1 1 0 0 1 .138.03q.03.01.057.016l-.023.162a18 18 0 0 0-1.004-.008c-1.45.017-2.896.033-3.974-1.413l-.028.046c-.133.222-.228.38-.33.538-.419.63-.978 1.051-1.762 1.051l-.448.001c-.847.003-1.695.006-2.526-.085-1.678-.184-2.555-1.136-2.633-2.887-.062-1.55-.047-3.109-.015-4.66a2.364 2.364 0 0 1 2.01-2.303c.606-.097 1.228-.096 1.848-.096q.324.001.646-.004l2.857.039V9.14c0-.353 0-.706-.023-1.06-.1-1.573-.8-2.11-2.392-1.85-.87.139-1.227.507-1.273 1.382-.024.246-.024.484-.024.722.008.03.008.054.008.085q.014.123.017.246l.006.122q.009.131.01.267c.005.422.01.841.612 1v.138l-1.755.307c-1.483.336-1.676.307-1.983.262h-.005c-.389-.062-.583-.223-.614-.63a13 13 0 0 1-.019-1.12q.004-.21.004-.416c.007-1.65 1.025-2.196 2.228-2.388a21.3 21.3 0 0 1 6.438-.046c1.243.177 2.066.975 2.237 2.227.1.768.178 1.543.178 2.318.017 1.712.014 3.428.01 5.142zm-6.321 3.255c.38.046.792.054 1.172 0 1.041-.154 1.818-1.244 1.67-2.211-.1-.63-.17-1.267-.186-1.904a93 93 0 0 1-.012-2.732q.003-.585.004-1.168c.054-1.213-.326-1.274-.715-1.297-2.943-.2-2.997.1-2.997 1.005-.01 1.402-.004 2.803.001 4.205q.006 1.26.007 2.52 0 .21.023.407c.1.7.427 1.098 1.033 1.175" clip-rule="evenodd"/></g><defs><clipPath id="logo_svg__a"><path fill="#000" d="M0 0h64v22H0z"/></clipPath></defs></svg>