<svg xmlns="http://www.w3.org/2000/svg" width="178" height="25" fill="none"><path fill="#F3F5F0" d="m172.141 4.587-3.72 5.732-1.231-5.762h-5.072l3.064 10.056-1.264 5.91h5.102l1.236-5.876 7.347-10.03v-.06l-5.462.03Zm-60.651-.03-4.983 9.604-.929-9.604h-5.672l-3.392 15.966h4.502l1.651-7.803.75 7.803h3.571l3.962-7.803-1.591 7.803h4.622l3.361-15.966h-5.852Zm32.951 0-1.89 8.403-3.25-8.395-4.367-.002-3.367 15.96h4.742l1.77-8.464 3.339 8.456 4.346-.05 3.329-15.908h-4.652Zm-70.914 0-1.771 8.404-3.3-8.345-4.345-.05-3.369 15.897h4.652l1.86-8.404 3.33 8.376 4.294-.03 3.33-15.848h-4.681Zm14.081 5.466 5.066-.484c-.247-5.568-6.921-6.463-10.965-4.212-2.449 1.364-3.991 3.722-4.444 6.48-.939 5.73 2.485 9.549 8.295 9.015 1.895-.174 3.789-.783 5.39-1.796l1.663-7.867h-6.782l-.78 3.842h2.1l-.272 1.258c-1.083.56-2.88.57-3.747-.39-1.32-1.46-.827-5.018.417-6.422 1.233-1.39 3.641-1.605 4.06.576Zm-50.407.099c-.761-.235-1.334-.37-1.184-1.33.14-.888 1.855-.862 2.49-.635.575.205.977.79 1.077 1.383l.068.055 4.885-.537c-.135-1.415-.643-2.651-1.774-3.538-2.528-1.983-7.953-1.81-10.292.447C31.085 7.304 30.475 10 31.48 11.7c1.315 2.227 4.248 2.241 6.35 3.074.648.257 1.045.617.795 1.367-.338 1.013-2.414.992-3.212.63-.621-.284-.872-.943-.9-1.591H29.53c-.09 2.897 1.77 4.838 4.512 5.42 4.104.872 9.661-.487 9.655-5.573-.005-3.77-3.82-4.078-6.497-4.906Zm109.251 10.401h11.974l1.111-3.901h-7.263l.52-2.224 6.386-.023.837-3.876h-6.422c.161-.553.181-1.43.371-1.939.018-.047.032-.082.087-.093l6.864-.009.78-3.9h-11.884l-3.361 15.965Zm-97.414-4.442 2.4-11.524h-5.041l-3.271 15.906H54.35l.93-4.382h-6.242Zm9.303-11.524L55.04 20.463h4.952l3.45-15.906h-5.101ZM12.789 0C5.892 0 .3 5.591.3 12.488c0 6.896 5.59 12.487 12.488 12.487 6.896 0 12.487-5.59 12.487-12.487S19.686 0 12.79 0ZM4.504 12.488a4.102 4.102 0 1 1 8.204 0 4.102 4.102 0 0 1-8.204 0Zm8.285 8.305a8.323 8.323 0 0 1-2.092-.266 8.309 8.309 0 0 0 0-16.079 8.305 8.305 0 1 1 2.091 16.345Z"/><path fill="#F3F5F0" d="M125.012 4.155c-10.942.363-12.054 18.043-.325 16.72 4.096-.462 7.045-3.61 7.701-7.604.859-5.223-1.837-9.3-7.376-9.116Zm-.211 12.273c-4.549 1.6-3.815-7.414-.271-7.894 4.17-.564 3.124 6.89.271 7.894Z"/></svg>