<svg xmlns="http://www.w3.org/2000/svg" width="32" height="32" viewBox="0 0 32 32"><g fill="none"><circle cx="16" cy="16" r="16" fill="#fec60d"/><path fill="#fff" d="m26.667 10.147-3.438-1.979c-.118-.07-.227-.131-.344-.198-.114-.065-.225-.135-.341-.202-.689-.394-1.38-.776-2.061-1.184l-3.266-1.886c-.19-.115-1.172-.692-1.214-.692-.017 0-.141.08-.168.097l-4.462 2.57c-.065.037-.11.066-.176.102a4 4 0 0 0-.168.098l-.342.2-.176.103-.336.194c-.118.07-.229.13-.345.197l-.691.395c-.06.031-.11.064-.168.097l-.864.5c-.12.07-.231.128-.348.195l-.683.403c-.343.196-.687.405-1.035.594-.153.082-.956.572-1.035.593v12.714c.064.006.942.529 1.033.583l1.376.796c.115.07.23.133.344.199l.68.392c.058.03.11.064.17.097.066.036.109.067.176.1.175.09.343.197.51.298l.866.499c.06.033.108.062.167.097.338.204.689.387 1.026.59l1.207.7c.797.471 1.61.91 2.403 1.386l.943.546c.15.101.205-.013.441-.142l2.066-1.192c.114-.066.225-.13.345-.197l.337-.193c.057-.031.11-.064.167-.099l1.895-1.097c.566-.339 1.15-.646 1.716-.986l3.773-2.186q.082-.05.168-.098c.06-.032.117-.077.185-.092V10.344c-.107-.072-.218-.127-.333-.197m-6.79 12.444h-3.215v.842q0 .014-.014.013h-1.55v-.855h-2.969v-2.38c0-.025.03-.046.045-.06l.301-.325.025-.026.023-.027.175-.186.002-.003.052-.053.023-.028.056-.059.006-.007.187-.202c.04-.041.08-.08.118-.125l.002-.002.006-.008.126-.134c.018-.02.032-.031.049-.053l.152-.162.025-.025.023-.028.255-.272.002-.002.006-.007.039-.04c.05-.064.14-.144.193-.208l.006-.008c.017-.02.036-.034.052-.053l.099-.107c.07-.07.13-.146.2-.216l.225-.242.025-.025.098-.108c.019-.019.037-.033.052-.053s.034-.034.051-.054l.099-.107q.014-.013.027-.028l.075-.081c.015-.02.034-.034.051-.054.044-.049.17-.178.197-.214.016-.02.035-.032.049-.052a2 2 0 0 0-.127-.138l-.098-.108-.026-.025c-.01-.012-.013-.018-.025-.03-.077-.078-.148-.161-.226-.24l-.125-.135-.024-.027-1.15-1.234-.025-.03-.17-.183-.002-.002-.377-.406q-.012-.013-.025-.025l-.1-.11c-.068-.07-.133-.146-.202-.215l-.022-.024-.002-.002-.074-.081q-.052-.054-.103-.108c-.011-.012-.013-.018-.025-.03-.068-.069-.13-.144-.2-.212q-.012-.013-.024-.025c-.009-.01-.045-.045-.045-.056v-2.389h2.968V9.94c.522 0 1.038.01 1.56.01v.95q-.001.016.014.015h3.206v2.411h-4.423c.026.04.066.073.097.109l.246.27c.015.02.031.034.048.054.042.05.089.093.13.143l.358.393c.07.068.13.145.197.215l.913 1.003.006.008.327.36.025.024c.044.044.08.094.124.138l.588.643q.038.037.07.08c-.009.014-.016.018-.027.03l-.023.027-.123.133-.023.027-.295.323c-.02.019-.03.035-.05.054-.04.04-.1.115-.147.16l-.206.229c-.041.049-.151.158-.184.2l-.293.32c-.063.077-.134.143-.198.219l-.12.13c-.06.061-.112.126-.17.188q-.014.013-.027.028c-.068.077-.142.15-.209.23l-.01.012-.257.279-.006.007-.009.01-.002.003-.118.13-.023.026-.025.026c-.051.05-.095.11-.146.16l-.023.027-.098.108q-.012.013-.025.025l-.292.322h4.3c.041 0 .123-.01.123.013z"/></g></svg>