<svg xmlns="http://www.w3.org/2000/svg" width="1396" height="165" fill="none" viewBox="0 0 1396 165"><path fill="#e7d2f9" d="M167.485 95.957v63.345c0 1.342-.922 2.282-2.238 2.282h-16.855c-1.316 0-2.238-.94-2.238-2.282V98.238c0-1.342.922-2.281 2.238-2.281h19.093m0 0V79.315h33.182c25.676 0 33.972-11.005 33.972-28.854 0-17.85-8.428-28.586-33.972-28.586h-33.182V6.04c0-1.342.922-2.282 2.238-2.282h37.132c35.157 0 50.431 20.668 50.431 45.899 0 25.23-10.007 38.249-32.655 44.154l39.766 64.821c.922 1.611.395 2.684-1.317 2.684h-18.566c-1.053 0-1.975-.671-2.633-1.61L202.51 95.688h-34.893zm-18.961-16.642c-1.317 0-2.239-.94-2.239-2.281V24.157c0-1.342.922-2.282 2.239-2.282h18.961v57.44zM294.813 72.74c-1.317 0-2.238-.94-2.238-2.282V24.157c0-1.342.921-2.282 2.238-2.282h18.961V72.74zm21.2 88.709c-1.317 0-2.239-.939-2.239-2.281v-15.702h78.214c1.317 0 2.239.939 2.239 2.281v13.555c0 1.342-.922 2.282-2.239 2.282h-75.975zm-2.107-71.129v53.146h-18.961c-1.317 0-2.239-.94-2.239-2.282V92.468c0-1.343.922-2.282 2.239-2.282h18.961zm0 0V72.74h64.915c1.317 0 2.239.939 2.239 2.28V88.04c0 1.342-.922 2.281-2.239 2.281zm0-84.281c0-1.342.922-2.282 2.238-2.282h73.869c1.317 0 2.239.94 2.239 2.282v13.555c0 1.342-.922 2.281-2.239 2.281h-75.975V6.04zM489.566 3.892c1.58 0 2.37 1.073 1.712 2.684l-7.242 19.862h18.829c1.053 0 1.975.403 2.37 1.745l48.456 130.582c.658 1.611-.263 2.684-1.712 2.684h-16.591c-1.053 0-1.975-.402-2.37-1.744l-15.406-42.141h-71.103c-1.317 0-2.239-.939-2.239-2.281l13.167-16.642-22.516 61.064c-.395 1.342-1.316 1.744-2.37 1.744H415.96c-1.58 0-2.37-1.073-1.712-2.684L470.737 5.636c.395-1.342 1.316-1.744 2.37-1.744h16.459m-32.26 94.749h53.064l-26.466-72.069-26.467 72.069zM577.784 6.039c0-1.342.922-2.282 2.238-2.282h16.855c1.316 0 2.238.94 2.238 2.282V72.47h-18.961c-1.317 0-2.238-.94-2.238-2.282V6.04zm86.115-.671c.658-.94 1.58-1.61 2.633-1.61h18.566c1.712 0 2.239 1.073 1.317 2.683l-39.766 64.42c-.658.939-1.58 1.61-2.633 1.61h-20.805zm-64.916 87.368v66.432c0 1.342-.921 2.281-2.238 2.281h-16.854c-1.317 0-2.239-.939-2.239-2.281v-64.15c0-1.343.922-2.282 2.239-2.282h19.092m0 0V72.47h24.36v20.265zm46.086 0c1.054 0 1.975.268 2.634 1.342l43.057 64.687c.922 1.342.264 2.684-1.58 2.684h-18.829c-1.054 0-1.975-.268-2.634-1.342L623.08 92.736h21.989M733.81 99.044v60.124c0 1.342-.922 2.281-2.238 2.281h-16.855c-1.316 0-2.238-.939-2.238-2.281v-57.843c0-1.342.922-2.281 2.238-2.281h19.093m0 0V82.402h30.944c25.676 0 33.971-10.334 33.971-30.465 0-20.13-8.427-30.196-33.971-30.196H733.81V6.039c0-1.342.922-2.282 2.239-2.282h34.893c35.157 0 50.431 19.997 50.431 47.51 0 27.511-15.274 47.777-50.431 47.777zm-18.961-16.642c-1.317 0-2.238-.94-2.238-2.281V24.157c0-1.342.921-2.282 2.238-2.282h18.961v60.527zM1233.52 161.449c-1.06 0-1.98-.671-2.64-1.61L1136.47 6.576c-.92-1.61-.39-2.684 1.32-2.684h19.88c1.05 0 1.98.67 2.63 1.61l94.41 153.397c.93 1.611.4 2.685-1.31 2.685h-19.88zm-95.47 0c-1.31 0-2.24-.939-2.24-2.281V42.811c0-1.342.93-2.281 2.24-2.281h18.96v118.638c0 1.342-.92 2.281-2.24 2.281h-16.85zm95.86-154.74c0-1.744.92-2.952 2.24-2.952H1253c1.32 0 2.24 1.208 2.24 2.953v153.129c0 1.745-.92 1.61-2.24 1.61h-18.96V6.709zM1329.5 161.449c-1.31 0-2.23-.939-2.23-2.281V21.875h21.2v137.427c0 1.342-.93 2.282-2.24 2.282h-16.86zm-47.53-139.574c-1.32 0-2.24-.94-2.24-2.281V6.039c0-1.342.92-2.282 2.24-2.282h43.06c1.31 0 2.24.94 2.24 2.282V21.74h-45.3zm66.5-15.836c0-1.342.92-2.282 2.23-2.282h43.06c1.32 0 2.24.94 2.24 2.282v13.555c0 1.342-.92 2.281-2.24 2.281h-45.29zM916.709 164.939c-45.954 0-73.869-33.954-73.869-82.402S870.755 0 916.709 0s73.869 33.954 73.869 82.403c0 48.448-27.783 82.402-73.869 82.402zm0-18.52c32.655 0 51.221-26.305 51.221-64.017s-18.566-64.016-51.221-64.016-51.221 26.305-51.221 64.017 18.566 64.016 51.221 64.016M1063.52 130.314c0 1.342-.92 2.282-2.23 2.282h-16.86c-1.31 0-2.24-.94-2.24-2.282V22.547h21.2v107.902zm30.95-125.885c1.31 0 2.24.94 2.24 2.282v13.555c0 1.342-.93 2.281-2.24 2.281h-30.95V6.711c0-1.342.93-2.282 2.24-2.282zm-54.38 0c1.31 0 2.24.94 2.24 2.282v15.702h-30.95c-1.31 0-2.24-.94-2.24-2.282V6.711c0-1.342.93-2.282 2.24-2.282z"/><path fill="#e7d2f9" d="M1042.33 34.894c0-1.342.92-2.282 2.23-2.282h16.86c1.31 0 2.24.94 2.24 2.282v107.901h-21.2V34.894zm-30.95 125.885c-1.31 0-2.24-.939-2.24-2.281v-13.555c0-1.342.93-2.282 2.24-2.282h30.95v15.702c0 1.342-.93 2.282-2.24 2.282h-28.71zm54.38 0c-1.31 0-2.24-.939-2.24-2.281v-15.703h30.95c1.31 0 2.24.94 2.24 2.282v13.555c0 1.342-.93 2.281-2.24 2.281h-28.71zM23.662 159.955c-1.33 0-2.26-.931-2.26-2.26v-15.554h35.893c31.239 0 36.822-13.426 36.822-26.985s-5.583-27.65-36.823-27.65H21.402V70.49h37.089c21.402 0 27.65-14.09 27.65-24.991S79.893 21.57 58.491 21.57H21.402V6.017c0-1.33.93-2.26 2.26-2.26H61.15c35.493 0 48.653 21.668 48.653 42.14 0 16.892-5.523 24.595-20.338 30.974v.399c22.598 6.248 28.049 22.599 28.049 37.221 0 23.264-13.826 45.331-58.624 45.331H23.662zM2.26 70.49C.93 70.49 0 69.56 0 68.23V23.963c0-1.33.93-2.26 2.26-2.26h19.142v48.92H2.26zm0 71.651c-1.33 0-2.26-.93-2.26-2.259v-50.25c0-1.329.93-2.26 2.26-2.26h19.142v54.637H2.26z"/></svg>