<svg xmlns="http://www.w3.org/2000/svg" width="372" height="61" fill="none" viewBox="0 0 372 61"><path fill="#000" d="M115.85 5.936H95.787v5.016h14.73a5.33 5.33 0 0 1 5.333 5.334v4.38A5.306 5.306 0 0 1 110.517 26H90.771v-5.016h20.064v-5.016h-14.73a5.33 5.33 0 0 1-5.334-5.334v-4.38A5.307 5.307 0 0 1 96.105.921h19.745zM140.172.92c2.967 0 5.369 2.367 5.369 5.334v14.412c0 2.967-2.402 5.334-5.369 5.334h-15.436a5.307 5.307 0 0 1-5.334-5.334V6.254a5.307 5.307 0 0 1 5.334-5.333zm.318 5.016h-16.072v15.048h16.072zM154.472 20.807h19.569v5.405H152.53a3.467 3.467 0 0 1-3.462-3.462V.71h5.404zM199.355.92c2.402 0 4.345 1.908 4.345 4.31V26h-5.051v-8.23h-16.072V26h-5.016V5.23A4.28 4.28 0 0 1 181.87.92zm-.706 5.016h-16.072v6.818h16.072zM228.315.92h5.051v21.83c0 1.802-1.484 3.25-3.285 3.25h-3.886c-1.236.035-2.331-.636-2.896-1.73L213.55 5.935h-1.307V26h-5.016V4.206c0-1.837 1.448-3.285 3.249-3.285h4.098c1.201 0 2.331.635 2.896 1.73l9.75 18.333h1.095zM258.687.92c2.402 0 4.345 1.908 4.345 4.31V26h-5.052v-8.23h-16.072V26h-5.015V5.23a4.28 4.28 0 0 1 4.309-4.31zm-.707 5.016h-16.072v6.818h16.072zM115.356 38.936h-19.57v5.016h19.57v5.016h-19.57V59h-5.015V33.92h24.585zM139.655 33.92c2.967 0 5.369 2.367 5.369 5.334v14.412c0 2.967-2.402 5.334-5.369 5.334h-15.437a5.306 5.306 0 0 1-5.333-5.334V39.254a5.306 5.306 0 0 1 5.333-5.333zm.317 5.016H123.9v15.048h16.072zM169.638 33.92h5.052v16.673c-.036 4.663-3.78 8.407-8.443 8.407h-9.29a8.38 8.38 0 0 1-8.407-8.407V33.921h5.016v15.648a4.417 4.417 0 0 0 4.416 4.415h7.241a4.417 4.417 0 0 0 4.415-4.415zM199.304 33.92h5.051v21.83c0 1.802-1.483 3.25-3.285 3.25h-3.885c-1.237.035-2.332-.636-2.897-1.73l-9.749-18.334h-1.307V59h-5.016V37.206c0-1.837 1.449-3.285 3.25-3.285h4.098c1.2 0 2.331.635 2.896 1.73l9.749 18.333h1.095zM225.579 33.92c4.663 0 8.407 3.78 8.442 8.407v8.266c-.035 4.663-3.779 8.407-8.442 8.407h-17.697V33.92zm3.391 9.467c0-2.473-1.978-4.45-4.415-4.45h-11.657v15.047h11.657a4.417 4.417 0 0 0 4.415-4.415zM259.342 33.92c2.402 0 4.345 1.908 4.345 4.31V59h-5.051v-8.23h-16.072V59h-5.016V38.23a4.28 4.28 0 0 1 4.309-4.31zm-.706 5.016h-16.072v6.818h16.072zM267.214 33.92h25.079v5.016h-10.031V59h-5.016V38.936h-10.032zM300.861 59h-5.016V33.92h5.016zM325.17 33.92c2.967 0 5.369 2.367 5.369 5.334v14.412c0 2.967-2.402 5.334-5.369 5.334h-15.437a5.306 5.306 0 0 1-5.333-5.334V39.254a5.306 5.306 0 0 1 5.333-5.333zm.318 5.016h-16.072v15.048h16.072zM355.153 33.92h5.052v21.83c0 1.802-1.484 3.25-3.285 3.25h-3.886c-1.236.035-2.331-.636-2.896-1.73l-9.75-18.334h-1.307V59h-5.015V37.206c0-1.837 1.448-3.285 3.249-3.285h4.098c1.201 0 2.331.635 2.896 1.73l9.749 18.333h1.095z"/><g clip-path="url(#a)"><path fill="url(#b)" d="M64.515 47.437 53.81 58.939a2.49 2.49 0 0 1-1.819.79H1.243a1.24 1.24 0 0 1-1.225-1.455c.041-.24.15-.461.316-.639l10.713-11.501a2.49 2.49 0 0 1 1.814-.792h50.745a1.242 1.242 0 0 1 1.225 1.457c-.04.239-.15.46-.316.638M53.81 24.276a2.48 2.48 0 0 0-1.819-.791H1.243A1.24 1.24 0 0 0 .018 24.94c.041.239.15.46.316.638l10.713 11.502a2.49 2.49 0 0 0 1.814.791h50.745a1.24 1.24 0 0 0 1.14-.749 1.25 1.25 0 0 0-.23-1.345zM1.243 16.014H51.99a2.48 2.48 0 0 0 1.819-.791L64.515 3.72a1.246 1.246 0 0 0-.909-2.094H12.861a2.48 2.48 0 0 0-1.814.791L.337 13.92a1.246 1.246 0 0 0 .906 2.094"/></g><defs><linearGradient id="b" x1="5.474" x2="58.799" y1="61.115" y2="1.11" gradientUnits="userSpaceOnUse"><stop offset=".08" stop-color="#9945ff"/><stop offset=".3" stop-color="#8752f3"/><stop offset=".5" stop-color="#5497d5"/><stop offset=".6" stop-color="#43b4ca"/><stop offset=".72" stop-color="#28e0b9"/><stop offset=".97" stop-color="#19fb9b"/></linearGradient><clipPath id="a"><path fill="#fff" d="M0 1.627h64.849V59.73H0z"/></clipPath></defs></svg>