<svg width="421" height="72" viewBox="0 0 421 72" fill="none" xmlns="http://www.w3.org/2000/svg"><path d="M81.818 56.767 68.417 71.019A3.112 3.112 0 0 1 66.14 72H2.593c-.303 0-.6-.088-.853-.253a1.53 1.53 0 0 1-.284-2.343l13.4-14.251a3.115 3.115 0 0 1 2.277-.982H80.68c.303 0 .6.088.853.253a1.53 1.53 0 0 1 .285 2.343Zm-13.401-28.7a3.112 3.112 0 0 0-2.277-.981H2.593c-.303 0-.6.088-.853.252-.254.165-.453.4-.574.676a1.53 1.53 0 0 0 .29 1.667l13.4 14.252a3.114 3.114 0 0 0 2.277.981H80.68c.303 0 .599-.088.852-.253s.452-.399.573-.674a1.531 1.531 0 0 0-.287-1.666L68.417 28.067ZM2.597 17.83h63.547a3.136 3.136 0 0 0 2.277-.982L81.822 2.595a1.538 1.538 0 0 0 .29-1.667c-.121-.276-.32-.51-.574-.675A1.566 1.566 0 0 0 80.684 0H17.137a3.136 3.136 0 0 0-2.276.981L1.46 15.233a1.538 1.538 0 0 0-.29 1.666c.12.275.319.51.572.675.252.165.548.254.851.255h.005Z" fill="#fff"/><g clip-path="url(#a)" fill="#fff"><path d="M113.057 16.94h16.307v5.402H107v5.77h22.097a6.044 6.044 0 0 0 6.036-6.035v-4.87a6.042 6.042 0 0 0-6.036-6.037h-16.308V5.77h22.342V0h-22.078a6.042 6.042 0 0 0-6.037 6.036v4.87a6.045 6.045 0 0 0 6.041 6.035ZM163.47 0h-17.186a6.04 6.04 0 0 0-6.036 6.036v16.04a6.042 6.042 0 0 0 6.036 6.036h17.186a6.042 6.042 0 0 0 6.036-6.036V6.036A6.042 6.042 0 0 0 163.47 0Zm.266 5.77v16.572h-17.72V5.77l17.72.002ZM178.447 28.114h23.797v-5.772h-21.769V0h-5.77v24.37a3.75 3.75 0 0 0 3.742 3.744ZM231.725 0h-19.478a4.896 4.896 0 0 0-4.89 4.89v23.224h5.77v-9.166h17.72v9.166h5.771V4.891A4.9 4.9 0 0 0 231.725 0Zm-.88 5.77v7.408h-17.72V5.77h17.72ZM265.218 22.342h-1.072L253.32 1.985A3.737 3.737 0 0 0 250.015 0h-4.54a3.75 3.75 0 0 0-3.745 3.745v24.37h5.77V5.771h1.302l10.821 20.357a3.732 3.732 0 0 0 3.306 1.987h4.317a3.749 3.749 0 0 0 3.745-3.744V0h-5.771l-.002 22.342ZM300.944 0h-19.478a4.896 4.896 0 0 0-4.89 4.89v23.224h5.771v-9.166h17.719v9.166h5.77V4.891A4.895 4.895 0 0 0 300.944 0Zm-.881 5.77v7.408h-17.722V5.77h17.722ZM107 71.998h5.77V60.826h21.771v-5.77H112.77v-5.402h21.771v-5.77H107v28.114ZM162.861 43.884h-17.186a6.043 6.043 0 0 0-6.038 6.038v16.04a6.038 6.038 0 0 0 6.036 6.036h17.187a6.044 6.044 0 0 0 6.035-6.035V49.922a6.042 6.042 0 0 0-6.034-6.038Zm.265 5.77v16.574h-17.72V49.654h17.72ZM197.497 61.38a4.853 4.853 0 0 1-4.849 4.848h-8.024a4.857 4.857 0 0 1-4.847-4.848V43.883h-5.769v18.641a9.482 9.482 0 0 0 9.47 9.473h10.312a9.486 9.486 0 0 0 9.478-9.473V43.884h-5.771v17.495ZM231.871 66.228h-1.073L219.972 45.87a3.732 3.732 0 0 0-3.306-1.986h-4.543a3.748 3.748 0 0 0-3.744 3.745v24.37h5.769V49.655h1.302l10.821 20.357A3.738 3.738 0 0 0 229.578 72h4.315a3.748 3.748 0 0 0 3.746-3.744V43.884h-5.77l.002 22.344ZM262.535 43.884H242.75v28.114h19.785a9.482 9.482 0 0 0 9.478-9.473V53.36a9.482 9.482 0 0 0-9.478-9.475Zm-14.015 5.77h12.871a4.856 4.856 0 0 1 4.849 4.85v6.876a4.857 4.857 0 0 1-4.849 4.848H248.52V49.654ZM301.497 43.884h-19.482a4.893 4.893 0 0 0-4.89 4.89v23.224h5.77v-9.166h17.72v9.166h5.77V48.776a4.894 4.894 0 0 0-4.888-4.892Zm-.88 5.77v7.408h-17.72v-7.408h17.72ZM311.5 49.654h11.172v22.344h5.77V49.654h11.172v-5.77H311.5v5.77ZM350.781 43.884h-5.769v28.114h5.769V43.884ZM379.736 43.884H362.55a6.043 6.043 0 0 0-6.038 6.038v16.04a6.038 6.038 0 0 0 6.036 6.036h17.187a6.044 6.044 0 0 0 6.035-6.035V49.922a6.042 6.042 0 0 0-6.034-6.038Zm.265 5.77v16.574h-17.72V49.654h17.72ZM414.373 43.884v22.342H413.3l-10.826-20.355a3.731 3.731 0 0 0-3.306-1.987h-4.543a3.746 3.746 0 0 0-3.744 3.745v24.37h5.769V49.655h1.303l10.82 20.357A3.742 3.742 0 0 0 412.08 72h4.316a3.75 3.75 0 0 0 3.745-3.744V43.884h-5.768Z"/></g><defs><clipPath id="a"><rect width="314" height="72" fill="#fff" transform="translate(107)"/></clipPath></defs></svg>