<svg xmlns="http://www.w3.org/2000/svg" width="316" height="315" fill="none" viewBox="0 0 316 315"><g clip-path="url(#a)"><path fill="#fff" d="m157.501-.375 2.25.004c41.15.18 78.576 15.968 108.25 44.371l2.406 2.215c29.232 27.798 43.678 68.157 45.594 107.785l.128 2.625c.907 38.674-12.972 75.152-39.128 103.375-4.967-4.116-9.413-8.421-13.75-13.188-4.308-4.681-8.661-9.279-13.188-13.75A190 190 0 0 1 238.001 220c1.493-4.098 3.504-7.642 5.75-11.375 14.298-24.536 17.301-51.331 10.125-78.625-6.84-24.226-22.8-45.474-44.625-58.125-24.226-13.508-51.139-18.3-78.25-10.875-25.238 7.793-47.258 23.513-60.1 47.01-12.72 24.393-16.77 51.233-8.775 77.865C70.287 211.566 87.183 233.11 111 246c25.272 12.52 50.193 13.401 77.124 6.452 2.122-.511 4.068-.656 6.251-.702l2.211-.078c7.183.976 11.623 6.139 16.437 11.058l2.261 2.274a2183 2183 0 0 1 7.091 7.184q2.415 2.437 4.832 4.873 5.908 5.958 11.793 11.939c-1.829 4.096-4.339 5.969-8.063 8.312l-1.863 1.181c-20.514 12.547-43.771 16.949-67.512 16.882l-2.401-.004c-39.504-.163-77.367-14.283-107.161-40.371l-2.575-2.172C43.183 267.436 38.013 261.54 33.001 255l-2.059-2.652C14.905 231.058 4.952 206.294 1.001 180c-.185-1.198-.37-2.395-.559-3.629-5.044-42.041 7.494-84.2 33.348-117.406C59.598 26.653 96.202 6.055 137.122.415c6.791-.726 13.557-.81 20.379-.79"/><path fill="#c74ae3" d="M197.996 108.172C209.455 118.008 217.931 131.94 220 147c1.423 20.213-1.924 37.808-15.375 53.5-11.737 12.119-27.337 19.347-44.223 19.854-17.665.159-33.4-4.782-46.34-17.094-12.451-12.439-18.945-28.175-19.437-45.76.524-16.655 6.342-32.414 18.102-44.395 24.369-22.569 58.384-24.422 85.269-4.933"/></g><defs><clipPath id="a"><path fill="#fff" d="M0 0h316v315H0z"/></clipPath></defs></svg>