<svg xmlns="http://www.w3.org/2000/svg" width="512" height="512" fill="none" viewBox="0 0 512 513"><path fill="url(#a)" d="M255.993 509.145c139.812 0 253.152-113.34 253.152-253.151 0-139.812-113.34-253.152-253.152-253.152S2.842 116.182 2.842 255.994s113.34 253.151 253.151 253.151"/><path fill="url(#b)" d="M308.5 264.5c-25.619 0-49.847 9.996-69.913 22.884 11.311-6.841 24.575-10.778 38.758-10.778 41.422 0 75.001 33.579 75.001 75s-41.992 75.001-85.611 75.001c-65.892 0-130.718-40.248-167.552-100.52C107.603 409.479 145.472 476.332 219.5 508c16.5 4.5 27 3.997 36.495 3.997 65.506 0 125.263-24.606 170.538-65.077C433.284 431.275 440 413.623 440 395.5c0-71.182-60.318-131-131.5-131"/><path fill="url(#c)" d="M511.999 255.986c0-39.205-11.499-86.486-28.999-118.486-41.166-42.87-94.872-62-159-62-19.268 0-37.729 3.777-55.586 8.31 38.454 3.084 74.39 20.076 102.086 43.69 76.579 18.254 131.5 85.832 131.5 168 0 18.845-1.907 36.56-7.448 53.555 11.263-28.846 17.447-60.234 17.447-93.069"/><path fill="url(#d)" d="M324 188c-26.291 0-47.46 7.974-69.585 18.797 15.525-6.856 32.695-10.672 50.758-10.672 51.292 0 95.255 31.344 114.827 75.375 24.708 22.575 36.5 54.395 36.5 90.5 0 32.878-8.996 62.779-29.952 84.904 29.737-26.585 53.225-60.013 67.988-97.811C502.5 264 418.122 188 328.5 188z"/><path fill="url(#e)" d="M308.141 267.009c71.182 0 128.887 57.704 128.887 128.886 0 18.125-3.749 35.372-10.501 51.018 20.963-22.126 33.825-52.006 33.825-84.892 0-68.183-55.274-123.456-123.457-123.456-40.141 0-75.8 19.162-98.348 48.831 20.074-12.902 43.959-20.387 69.594-20.387"/><path fill="url(#f)" d="M327.697 189.896c89.625 0 162.755 70.593 166.839 159.208 5.547-17.006 8.558-35.158 8.558-54.015 0-96.113-77.914-174.027-174.027-174.027-96.114 0-174.028 77.914-174.028 174.027 0 16.153 2.21 31.788 6.328 46.629 7.682-85.119 79.21-151.822 166.33-151.822"/><path fill="url(#g)" d="M98.02 303.088c0-124.934 101.28-226.214 226.215-226.214 64.128 0 122.02 26.687 163.186 69.557C446.365 59.864 358.173 0 255.996 0 114.613 0 0 114.613 0 255.996c0 134.431 103.621 244.657 235.348 255.171-80.746-34.538-137.327-114.699-137.327-208.079"/><defs><radialGradient id="a" cx="0" cy="0" r="1" gradientTransform="rotate(51.782 82.899 -112.648)scale(892.421)" gradientUnits="userSpaceOnUse"><stop offset=".458" stop-color="#4a2207"/><stop offset="1" stop-color="#da6929"/></radialGradient><radialGradient id="b" cx="0" cy="0" r="1" gradientTransform="rotate(36.87 -386.42 476.296)scale(297.24 218.502)" gradientUnits="userSpaceOnUse"><stop offset=".224" stop-color="#4a2207"/><stop offset=".464" stop-color="#da6929"/><stop offset=".771" stop-color="#f6b657"/><stop offset="1" stop-color="#fdee9c"/></radialGradient><radialGradient id="c" cx="0" cy="0" r="1" gradientTransform="rotate(52.877 42.298 258.657)scale(361.015 323.076)" gradientUnits="userSpaceOnUse"><stop stop-color="#4a2207"/><stop offset=".339" stop-color="#da6929"/><stop offset=".698" stop-color="#f6b657"/><stop offset="1" stop-color="#fdee9c"/></radialGradient><radialGradient id="d" cx="0" cy="0" r="1" gradientTransform="rotate(44.109 -148.608 479.498)scale(258.684 241.681)" gradientUnits="userSpaceOnUse"><stop stop-color="#4a2207"/><stop offset=".323" stop-color="#da6929"/><stop offset=".734" stop-color="#f6b657"/><stop offset="1" stop-color="#fdee9c"/></radialGradient><linearGradient id="e" x1="191.993" x2="471.989" y1="247.987" y2="431.984" gradientUnits="userSpaceOnUse"><stop stop-color="#5ed9f8"/><stop offset=".599" stop-color="#e7f4c0"/><stop offset="1" stop-color="#f6b657"/></linearGradient><linearGradient id="f" x1="104.001" x2="527.994" y1="223.997" y2="311.996" gradientUnits="userSpaceOnUse"><stop stop-color="#5ed9f8"/><stop offset=".573" stop-color="#e7f4c0"/><stop offset="1" stop-color="#f6b657"/></linearGradient><linearGradient id="g" x1="58.31" x2="496.632" y1="379.158" y2="89.883" gradientUnits="userSpaceOnUse"><stop stop-color="#5ed9f8"/><stop offset=".469" stop-color="#e7f4c0"/><stop offset="1" stop-color="#f6b657"/></linearGradient></defs></svg>