<svg xmlns="http://www.w3.org/2000/svg" data-name="Layer 3" viewBox="0 0 738 215.99"><path d="M281.32 141.49c-3.92-1.67-7.02-4.08-9.29-7.23-2.28-3.15-3.45-6.86-3.52-11.15h15.07c.2 2.88 1.22 5.16 3.06 6.83 1.84 1.68 4.37 2.51 7.58 2.51s5.86-.79 7.74-2.36c1.87-1.57 2.81-3.63 2.81-6.18 0-2.07-.64-3.78-1.91-5.12-1.27-1.34-2.86-2.39-4.77-3.17-1.91-.77-4.54-1.62-7.89-2.56-4.55-1.34-8.26-2.66-11.1-3.97-2.85-1.31-5.29-3.28-7.33-5.93-2.04-2.64-3.06-6.18-3.06-10.6 0-4.15 1.04-7.77 3.11-10.85 2.08-3.08 4.99-5.44 8.74-7.08 3.75-1.64 8.04-2.46 12.86-2.46 7.23 0 13.11 1.76 17.63 5.28 4.52 3.52 7.02 8.42 7.49 14.72h-15.47c-.14-2.41-1.16-4.4-3.06-5.98-1.91-1.57-4.44-2.36-7.59-2.36-2.75 0-4.94.7-6.58 2.11-1.64 1.41-2.46 3.45-2.46 6.13 0 1.88.62 3.43 1.86 4.67 1.24 1.24 2.78 2.25 4.62 3.01 1.84.77 4.44 1.66 7.79 2.66 4.55 1.34 8.27 2.68 11.15 4.02 2.88 1.34 5.36 3.35 7.43 6.03 1.97 2.55 3.01 5.85 3.11 9.91.05 2-.18 4.02-.71 5.95-1.59 5.71-5.16 9.99-10.73 12.82-3.75 1.91-8.2 2.86-13.36 2.86-4.89 0-9.29-.84-13.21-2.51Zm65.81-2.11c-5.49-3.08-9.85-7.35-13.06-12.81-3.22-5.46-4.82-11.64-4.82-18.54s1.61-12.98 4.82-18.43c3.21-5.46 7.57-9.73 13.06-12.81s11.52-4.62 18.08-4.62 12.67 1.54 18.13 4.62c5.46 3.08 9.78 7.35 12.96 12.81 3.18 5.46 4.77 11.6 4.77 18.43s-1.59 13.08-4.77 18.54c-3.18 5.46-7.52 9.73-13.01 12.81S371.77 144 365.21 144s-12.59-1.54-18.08-4.62Zm29.24-10.8c3.21-1.91 5.73-4.64 7.53-8.19 1.81-3.55 2.71-7.67 2.71-12.36s-.9-8.79-2.71-12.31c-1.81-3.52-4.32-6.21-7.53-8.09-3.22-1.87-6.93-2.81-11.15-2.81s-7.95.94-11.2 2.81c-3.25 1.88-5.78 4.57-7.58 8.09-1.81 3.52-2.71 7.62-2.71 12.31s.9 8.81 2.71 12.36c1.81 3.55 4.34 6.28 7.58 8.19 3.25 1.91 6.98 2.86 11.2 2.86s7.94-.96 11.15-2.86Zm48.69 3.57h23.11v11.15H411V73.17h14.07v58.97Zm45.82 9.34c-3.92-1.67-7.02-4.08-9.29-7.23-2.28-3.15-3.45-6.86-3.52-11.15h15.07c.2 2.88 1.22 5.16 3.06 6.83 1.84 1.68 4.37 2.51 7.59 2.51s5.86-.79 7.74-2.36c1.88-1.57 2.82-3.63 2.82-6.18 0-2.07-.64-3.78-1.91-5.12-1.27-1.34-2.86-2.39-4.77-3.17-1.91-.77-4.54-1.62-7.89-2.56-4.56-1.34-8.26-2.66-11.1-3.97s-5.29-3.28-7.33-5.93c-2.04-2.64-3.06-6.18-3.06-10.6 0-4.15 1.04-7.77 3.11-10.85 2.08-3.08 4.99-5.44 8.74-7.08 3.75-1.64 8.04-2.46 12.86-2.46 7.23 0 13.11 1.76 17.63 5.28 4.52 3.52 7.02 8.42 7.49 14.72h-15.47c-.13-2.41-1.15-4.4-3.06-5.98-1.91-1.57-4.44-2.36-7.58-2.36-2.75 0-4.94.7-6.58 2.11-1.64 1.41-2.46 3.45-2.46 6.13 0 1.88.62 3.43 1.86 4.67 1.24 1.24 2.78 2.25 4.62 3.01 1.84.77 4.44 1.66 7.79 2.66 4.55 1.34 8.27 2.68 11.15 4.02 2.88 1.34 5.36 3.35 7.43 6.03 1.99 2.58 3.03 5.92 3.11 10.04.04 1.99-.2 4-.74 5.92-1.61 5.66-5.17 9.9-10.71 12.72-3.75 1.91-8.2 2.86-13.36 2.86-4.89 0-9.29-.84-13.21-2.51Zm99.37-68.32v11.35h-18.69v58.77h-14.07V84.52H518.8V73.17h51.44Zm51.89 16.43c3.11-5.46 7.37-9.71 12.76-12.76 5.39-3.05 11.44-4.57 18.13-4.57 7.84 0 14.7 2.01 20.6 6.03 5.89 4.02 10.01 9.58 12.36 16.68h-16.17c-1.61-3.35-3.87-5.86-6.78-7.53s-6.28-2.51-10.1-2.51c-4.09 0-7.72.96-10.9 2.86-3.18 1.91-5.66 4.61-7.43 8.09-1.78 3.48-2.66 7.57-2.66 12.26s.89 8.69 2.66 12.21c1.77 3.52 4.25 6.23 7.43 8.14 3.18 1.91 6.81 2.86 10.9 2.86 3.82 0 7.18-.85 10.1-2.56 2.91-1.71 5.17-4.24 6.78-7.59h16.17c-2.35 7.17-6.45 12.74-12.31 16.73s-12.74 5.98-20.65 5.98c-6.7 0-12.74-1.52-18.13-4.57-5.39-3.05-9.65-7.28-12.76-12.71-3.11-5.43-4.67-11.59-4.67-18.49s1.56-13.08 4.67-18.53Zm89.24-5.08v17.58h23.61v11.15h-23.61v18.59H738v11.45h-40.69V73.06H738v11.45h-26.62Zm-127.17 58.53h-13.96l30.43-69.98h13.96l-30.43 69.98zM158.2 12.4 72.01 209.79c52.92 18.77 112.12-6.34 134.93-58.6 22.82-52.26.99-112.74-48.75-138.8Zm-52.17 153.58 42.93-99.09c3.47 3.46 6.46 7.32 8.92 11.48l-37.38 86.27c-4.72 1.04-9.58 1.5-14.47 1.34Zm55.15-34.77c-5.27 12.07-14.16 21.44-24.84 27.41l27.91-64.84c3.05 12.05 2.29 25.16-3.07 37.43ZM54.82 84.78c11.94-27.34 42.4-40.84 70.24-32.23l20.06-45.94C91.91-12.93 32.03 12.16 9.05 64.79c-22.98 52.63-.67 113.61 49.83 139.35l20.06-45.94C53.7 143.63 42.9 112.11 54.83 84.77Z" style="fill:#fff"/></svg>