<svg xmlns="http://www.w3.org/2000/svg" width="717" height="116" fill="none" viewBox="0 0 717 116"><g clip-path="url(#a)"><mask id="b" width="717" height="116" x="0" y="0" maskUnits="userSpaceOnUse" style="mask-type:luminance"><path fill="#fff" d="M717 0H0v116h717z"/></mask><g mask="url(#b)"><path fill="#c74ae3" d="M156.155 35.084c12.755.116 22.822 10.435 22.642 23.199-.181 12.769-10.578 22.841-23.282 22.559-12.561-.278-22.411-10.375-22.378-22.935.033-12.76 10.294-22.94 23.018-22.823"/><path fill="#07e7c7" d="M185.823 106.806c-19.927 16.063-55.533 10.315-73.976-11.302-20.288-23.78-17.918-59.455 5.349-80.58 22.985-20.866 58.544-19.715 80.222 2.598 21.043 21.658 21.975 57.594 2.281 77.875l-14.025-14.709c7.466-10.448 9.78-22.405 5.316-35.244-6.666-19.167-27.778-29.282-47.032-22.749-19.026 6.454-29.441 26.958-23.499 46.26 6.007 19.515 26.383 30.6 45.938 24.586 3.893-1.197 6.053-.497 8.57 2.403 3.328 3.842 7.179 7.229 10.856 10.862M0 35.172c0-4.631.885-8.983 2.651-13.043q2.65-6.091 7.217-10.658c3.045-3.044 6.59-5.452 10.647-7.22Q26.598 1.6 33.544 1.599h51.328v22.41H33.544q-2.342.002-4.371.858a11.2 11.2 0 0 0-3.55 2.38 11 11 0 0 0-2.378 3.555c-.575 1.355-.858 2.812-.858 4.375s.283 3.035.858 4.413a11 11 0 0 0 2.377 3.591 11 11 0 0 0 3.55 2.38c1.354.576 2.81.859 4.372.859H55.93c4.63 0 8.982.872 13.066 2.616 4.083 1.745 7.643 4.14 10.688 7.183s5.432 6.612 7.175 10.7q2.614 6.132 2.614 13.08 0 6.952-2.614 13.042-2.615 6.091-7.175 10.658-4.561 4.565-10.689 7.224c-4.083 1.772-8.44 2.654-13.065 2.654H6.239v-22.41H55.93c1.562 0 3.012-.289 4.37-.86a11.1 11.1 0 0 0 3.55-2.38 11 11 0 0 0 2.379-3.553c.57-1.356.857-2.812.857-4.376q0-2.344-.858-4.375a11.2 11.2 0 0 0-2.377-3.554 11 11 0 0 0-3.55-2.38q-2.03-.858-4.371-.859H33.544q-6.945-.001-13.03-2.654T9.869 58.951c-3.04-3.044-5.45-6.612-7.217-10.695Q.001 42.123 0 35.172m306.734 78.404h-78.322V1.593h22.387v89.572h55.932zm2.81-78.404c0-4.631.886-8.983 2.651-13.043q2.649-6.091 7.217-10.658c3.045-3.044 6.591-5.452 10.647-7.224q6.083-2.653 13.029-2.654h51.326v22.41h-51.326q-2.343.001-4.372.859a11.2 11.2 0 0 0-3.55 2.38 11 11 0 0 0-2.377 3.554c-.575 1.355-.858 2.812-.858 4.376 0 1.563.283 3.034.858 4.412a11 11 0 0 0 2.377 3.591 11 11 0 0 0 3.55 2.38c1.353.576 2.81.859 4.372.859h22.387q6.942 0 13.066 2.617 6.123 2.617 10.687 7.182c3.046 3.044 5.433 6.612 7.176 10.7q2.613 6.133 2.614 13.08 0 6.953-2.614 13.042-2.615 6.091-7.176 10.658-4.56 4.565-10.687 7.224c-4.083 1.773-8.44 2.654-13.066 2.654h-49.692v-22.41h49.692q2.341-.001 4.37-.859a11.1 11.1 0 0 0 3.55-2.38 11 11 0 0 0 2.377-3.554c.57-1.355.859-2.812.859-4.375s-.289-3.021-.859-4.376a11.1 11.1 0 0 0-2.377-3.554 11 11 0 0 0-3.55-2.38q-2.029-.857-4.37-.859h-22.387q-6.946-.001-13.029-2.654c-4.056-1.767-7.608-4.176-10.647-7.224-3.04-3.044-5.451-6.612-7.217-10.7-1.771-4.078-2.651-8.44-2.651-13.074m193.461 66.925a57 57 0 0 1-17.475 10.309 57.1 57.1 0 0 1-20.046 3.592c-5.302 0-10.415-.692-15.327-2.069a58 58 0 0 1-13.809-5.856 58.4 58.4 0 0 1-11.741-9.099 58.4 58.4 0 0 1-9.089-11.753A58.1 58.1 0 0 1 409.67 73.4c-1.377-4.918-2.068-10.036-2.068-15.344s.691-10.44 2.068-15.385c1.375-4.946 3.328-9.568 5.848-13.86a58.3 58.3 0 0 1 9.089-11.752 58.6 58.6 0 0 1 11.741-9.1 58 58 0 0 1 13.809-5.855C455.069.725 460.182.034 465.484.034q10.375-.001 20.046 3.554a55.6 55.6 0 0 1 17.475 10.347L491.149 33.46q-4.917-5.31-11.627-8.162a35.6 35.6 0 0 0-14.038-2.849q-7.413 0-13.886 2.812-6.48 2.811-11.31 7.614c-3.225 3.201-5.771 6.978-7.643 11.321q-2.81 6.523-2.809 13.86 0 7.34 2.809 13.784 2.807 6.442 7.643 11.284c3.226 3.23 6.993 5.777 11.31 7.652q6.473 2.811 13.886 2.811 7.328 0 14.038-2.849a33.5 33.5 0 0 0 11.627-8.161zm101.176 11.479h-22.387v-22.41h-44.777v22.41h-22.314V46.419q-.001-9.292 3.508-17.455 3.511-8.157 9.558-14.254c4.028-4.06 8.766-7.261 14.197-9.605q8.148-3.513 17.437-3.512 9.281 0 17.436 3.512 8.149 3.515 14.239 9.605 6.084 6.09 9.595 14.253 3.51 8.164 3.508 17.456zm-22.387-44.747V46.42q0-4.61-1.756-8.71-1.753-4.097-4.798-7.145-3.043-3.048-7.137-4.802-4.096-1.757-8.7-1.759c-3.068 0-5.971.585-8.699 1.759q-4.096 1.754-7.139 4.802-3.045 3.047-4.798 7.146t-1.756 8.709v22.41zm131.292 44.747h-23.95l-43.137-73.718v73.718h-22.387V1.593h23.948l43.139 73.797V1.593h22.387z"/></g></g><defs><clipPath id="a"><path fill="#fff" d="M0 0h717v116H0z"/></clipPath></defs></svg>