<svg xmlns="http://www.w3.org/2000/svg" width="34" height="34" fill="none" viewBox="0 0 34 34"><path fill="#fff" d="M24.438 1.952 11.124 33.024c8.175 2.955 17.32-.998 20.843-9.225 3.525-8.226.153-17.746-7.53-21.849zm-8.059 24.176 6.632-15.599a9 9 0 0 1 1.378 1.807l-5.775 13.58c-.729.164-1.48.237-2.235.212m8.52-5.474a9.04 9.04 0 0 1-3.838 4.315l4.311-10.207a9.25 9.25 0 0 1-.474 5.892M8.469 13.346c1.844-4.304 6.55-6.43 10.85-5.074l3.098-7.231c-8.22-3.076-17.469.873-21.019 9.158s-.103 17.884 7.698 21.936l3.098-7.232C8.296 22.61 6.627 17.648 8.47 13.344z"/></svg>