<svg xmlns="http://www.w3.org/2000/svg" width="493" height="152" fill="none" viewBox="0 0 493 152"><g clip-path="url(#a)"><mask id="b" width="493" height="152" x="0" y="0" maskUnits="userSpaceOnUse" style="mask-type:luminance"><path fill="#fff" d="M493 0H0v152h493z"/></mask><g fill="#000" mask="url(#b)"><path d="M244.049 73.461c-2.847-1.382-6.486-2.082-10.81-2.082h-12.287c-3.273 0-5.892-.912-7.765-2.675l-.091-.091c-1.827-1.93-2.711-4.104-2.711-6.642s.914-4.88 2.711-6.78c1.811-1.93 4.294-2.903 7.354-2.903h30.237v-6.582h-31.364c-3.411 0-6.334.79-8.953 2.402-2.618 1.535-4.598 3.511-6.044 6.034-1.446 2.524-2.162 5.199-2.162 8.193 0 3.512.746 6.49 2.238 8.862 1.599 2.416 3.715 4.226 6.471 5.548 2.862 1.216 6.257 1.839 10.079 1.839h12.927c2.177 0 4.11.501 5.755 1.49 1.675.897 2.923 2.173 3.745 3.8.807 1.52 1.188 3.07 1.188 4.879s-.442 3.632-1.325 5.29c-.883 1.672-2.238 3.07-4.004 4.164-1.66.988-3.685 1.474-5.984 1.474h-29.095v6.567h30.481c3.654 0 6.729-.821 9.424-2.508 2.802-1.703 4.903-3.83 6.441-6.536 1.553-2.781 2.299-5.67 2.299-8.831 0-3.678-.777-6.825-2.284-9.318-1.416-2.462-3.532-4.302-6.456-5.608zm72.2-24.988c-4.72-2.827-10.262-4.271-16.459-4.271s-11.724 1.444-16.474 4.286c-4.735 2.751-8.542 6.597-11.312 11.43-2.771 4.727-4.172 10.139-4.172 16.067s1.401 11.4 4.172 16.203c2.77 4.743 6.577 8.588 11.312 11.431 4.522 2.644 9.805 4.042 15.682 4.149h.792c6.197.015 11.723-1.368 16.459-4.135 4.826-2.842 8.633-6.688 11.327-11.414 2.772-4.819 4.172-10.276 4.172-16.219s-1.4-11.491-4.172-16.218c-2.694-4.728-6.501-8.528-11.327-11.294zM323.389 76c0 4.681-.989 8.983-2.953 12.799-1.964 3.754-4.735 6.778-8.222 9.013-3.472 2.219-7.78 3.389-12.439 3.389s-8.831-1.14-12.439-3.389c-3.487-2.235-6.258-5.275-8.237-9.029-1.95-3.8-2.954-8.102-2.954-12.783s.99-8.937 2.954-12.661c1.964-3.846 4.75-6.932 8.252-9.166 3.593-2.25 7.78-3.375 12.424-3.375s8.907 1.14 12.439 3.39c3.502 2.25 6.273 5.32 8.237 9.135 1.949 3.74 2.954 7.996 2.954 12.677zm69.319-28.363c-4.171-2.265-9.089-3.42-14.631-3.42-5.543 0-10.399 1.155-14.663 3.45-4.278 2.204-7.551 5.244-10.003 9.257-2.344 3.982-3.532 8.71-3.532 14.06v35.295h8.222V71.105c0-4.134.928-7.766 2.755-10.776 1.889-3.07 4.385-5.457 7.415-7.114 3.076-1.626 6.364-2.447 9.806-2.447 3.44 0 6.698.82 9.683 2.447 3.091 1.642 5.587 4.028 7.43 7.129 1.903 3.01 2.862 6.612 2.862 10.747v34.336l.899.836h7.339V70.969c0-5.336-1.234-10.078-3.655-14.06-2.375-4.028-5.618-7.053-9.912-9.287zm43.546-1.931h-8.344v60.557h8.344zm38.125 9.82c3.669-2.144 7.826-3.238 12.378-3.238H493v-6.582h-5.862c-6.288 0-11.982 1.368-16.885 4.059-4.903 2.675-8.831 6.369-11.693 10.944-2.832 4.468-4.263 9.606-4.263 15.276s1.431 10.838 4.263 15.398c2.847 4.498 6.79 8.132 11.693 10.822 4.294 2.34 9.165 3.694 14.525 3.982l-.045.076H493v-6.582h-6.243c-4.536 0-8.709-1.048-12.393-3.116a25 25 0 0 1-8.618-8.618c-2.055-3.587-3.105-7.615-3.105-11.978s1.05-8.405 3.12-11.992a23.7 23.7 0 0 1 8.618-8.467zM91.232 94.437c-28.639 8.619-52.33 21.19-67.16 35.918l-.654.654c3.943 3.739 8.267 7.083 12.942 9.926l1.004-1.232a191 191 0 0 1 12.912-14.258c12.134-12.114 26.02-22.602 40.971-31.022zM0 81.67a75.5 75.5 0 0 0 15.774 40.918l.41-.411c9.182-9.074 21.134-17.328 35.552-24.517 12.637-6.308 27.147-11.72 42.784-15.99zm58.282-63.156c25.624 25.581 57.872 42.499 93.241 48.913C147.26 29.503 115.043 0 75.898 0a76.1 76.1 0 0 0-29.187 5.791 188 188 0 0 0 11.571 12.723m-34.209 3.131c14.83 14.744 38.52 27.299 67.159 35.933-14.952-8.436-28.837-18.91-40.972-31.024a192 192 0 0 1-12.91-14.257l-1.006-1.231a76 76 0 0 0-12.926 9.925zm34.209 111.842a180 180 0 0 0-11.571 12.722A76.1 76.1 0 0 0 75.898 152c39.145 0 71.362-29.503 75.64-67.443-35.369 6.415-67.616 23.332-93.24 48.914zM51.736 54.34c-14.418-7.19-26.37-15.443-35.551-24.518l-.411-.41A75.5 75.5 0 0 0 0 70.331h94.504c-15.636-4.272-30.13-9.683-42.783-16.006z"/></g></g><defs><clipPath id="a"><path fill="#fff" d="M0 0h493v152H0z"/></clipPath></defs></svg>