<svg xmlns="http://www.w3.org/2000/svg" width="493" height="150" fill="none" viewBox="0 0 493 150"><g clip-path="url(#a)"><mask id="b" width="492" height="150" x="0" y="0" maskUnits="userSpaceOnUse" style="mask-type:luminance"><path fill="#fff" d="M491.951 0H.363v149.589h491.588z"/></mask><g fill="#fff" mask="url(#b)"><path d="M228.785 71.497c-3.1-1.504-7.032-2.271-11.685-2.271h-12.979c-3.283 0-5.894-.905-7.729-2.654l-.083-.084c-1.805-1.918-2.681-4.087-2.681-6.615 0-2.53.9-4.866 2.687-6.753 1.794-1.912 4.243-2.876 7.282-2.876h32.564v-8.311h-33.762c-3.713 0-6.918.868-9.773 2.642-2.853 1.69-5.023 3.87-6.619 6.657-1.592 2.78-2.366 5.734-2.366 9.036 0 3.859.827 7.136 2.473 9.785 1.757 2.678 4.07 4.68 7.127 6.136 3.103 1.336 6.769 2.013 10.898 2.013h13.64c2.187 0 4.105.497 5.768 1.504 1.644.893 2.883 2.157 3.694 3.775.798 1.516 1.168 3.068 1.168 4.883 0 1.816-.446 3.65-1.322 5.321-.877 1.678-2.224 3.08-3.988 4.159-1.656.982-3.67 1.48-5.982 1.48l-31.367-.013v7.491h.816v.814l32.006.012c3.973 0 7.347-.91 10.283-2.768 3.046-1.869 5.346-4.212 7.032-7.184 1.687-3.056 2.509-6.232 2.509-9.713 0-4.039-.846-7.49-2.497-10.234-1.573-2.745-3.896-4.788-7.103-6.232zm76.253-26.533c-5.09-3.068-11.048-4.626-17.699-4.626-6.649 0-12.607 1.564-17.721 4.644-5.106 2.99-9.206 7.16-12.185 12.385-2.979 5.13-4.488 10.99-4.488 17.419s1.509 12.337 4.488 17.55c2.974 5.135 7.067 9.3 12.18 12.386 4.88 2.864 10.559 4.38 16.863 4.5l.858.023c6.65 0 12.609-1.515 17.715-4.505 5.197-3.08 9.297-7.25 12.193-12.38 2.979-5.225 4.486-11.133 4.486-17.568s-1.513-12.446-4.492-17.574c-2.897-5.13-7.002-9.258-12.198-12.26zm6.566 29.822c0 4.865-1.024 9.341-3.033 13.296-2.026 3.889-4.868 7.029-8.456 9.341-3.557 2.295-7.978 3.506-12.776 3.506-4.795 0-9.074-1.18-12.775-3.506-3.587-2.312-6.435-5.458-8.462-9.347-2.013-3.955-3.038-8.425-3.038-13.29 0-4.866 1.018-9.288 3.038-13.159 2.027-3.978 4.881-7.178 8.475-9.49 3.694-2.32 7.984-3.494 12.757-3.494s9.159 1.18 12.77 3.505c3.605 2.325 6.447 5.507 8.461 9.474 2.015 3.876 3.039 8.31 3.039 13.17zm74.125-30.733c-4.492-2.462-9.79-3.715-15.748-3.715-5.96 0-11.198 1.264-15.786 3.74-4.629 2.408-8.164 5.703-10.821 10.096-2.532 4.338-3.819 9.479-3.819 15.285v38.181h9.981V69.59c0-4.271.947-8.01 2.813-11.108 1.936-3.17 4.486-5.633 7.567-7.322a21.14 21.14 0 0 1 10.052-2.523c3.527 0 6.858.845 9.922 2.523 3.157 1.683 5.702 4.14 7.592 7.358 1.936 3.085 2.919 6.807 2.919 11.067v35.856l.023.94 1.312 1.259h8.658V69.46c0-5.795-1.335-10.948-3.951-15.292-2.568-4.386-6.078-7.694-10.72-10.12zm46.321-2.127h-10.112v65.707h10.112zm39.91 11.673h.012c3.765-2.223 8.056-3.35 12.739-3.35h7.247v-8.31h-6.847c-6.758 0-12.859 1.48-18.145 4.391-5.268 2.906-9.504 6.903-12.572 11.87-3.057 4.854-4.601 10.438-4.601 16.592s1.544 11.768 4.601 16.724c3.068 4.871 7.304 8.82 12.578 11.738 4.338 2.391 9.242 3.817 14.599 4.248l-.078.156h10.458v-8.31h-7.245c-4.678 0-8.98-1.091-12.746-3.225a25.8 25.8 0 0 1-8.867-8.922c-2.121-3.715-3.194-7.885-3.194-12.403s1.085-8.706 3.206-12.421c2.198-3.691 5.185-6.64 8.855-8.766zM25.625 23.568C39.672 37.456 62.14 49.302 89.28 57.422c-14.179-7.941-27.326-17.823-38.836-29.24a182 182 0 0 1-12.235-13.43l-2.675-3.257a75 75 0 0 0-12.452 9.555l2.55 2.518zM.094 80.138c1.091 15.215 6.79 29.157 15.732 40.467l2.327-2.291c8.697-8.555 20.033-16.323 33.69-23.104 11.984-5.947 25.731-11.042 40.546-15.072zm89.179 12.031c-27.14 8.125-49.603 19.966-63.65 33.854l-2.549 2.518a75 75 0 0 0 12.458 9.554l2.675-3.25a184 184 0 0 1 12.236-13.436c11.503-11.417 24.657-21.299 38.83-29.24M47.03 8.584a170 170 0 0 0 11.025 12.043c24.303 24.12 54.886 40.069 88.438 46.11l2.734.495C145.408 29.747 113.517.488 74.741.488A75.15 75.15 0 0 0 45.273 6.47l1.752 2.107zm45.359 60.868c-14.815-4.03-28.562-9.125-40.546-15.072C38.18 47.6 26.85 39.825 18.153 31.276l-2.327-2.285C6.883 40.295 1.18 54.237.094 69.452zm54.098 13.4c-33.552 6.042-64.129 21.984-88.438 46.111a172 172 0 0 0-11.024 12.043l-1.752 2.107a75.1 75.1 0 0 0 29.462 5.983c38.776 0 70.66-29.253 74.481-66.738l-2.735.488z"/></g></g><defs><clipPath id="a"><path fill="#fff" d="M0 0h493v149.589H0z"/></clipPath></defs></svg>