<svg width="1253" height="323" viewBox="0 0 1253 323" fill="none" xmlns="http://www.w3.org/2000/svg">
<path d="M161.065 176.059C174.375 167.99 193.358 156.825 208.285 156.825C232.174 156.825 252.147 173.738 252.147 205.866C252.147 257.121 191.213 304.375 105.11 283.792C104.825 283.724 104.546 283.94 104.546 284.231V307.277V310.083V311.938C104.546 312.126 104.66 312.291 104.837 312.359C116.707 316.798 129.243 319.876 142.252 321.401C243.133 333.26 330.295 249.114 321.981 147.88C319.597 118.852 309.775 92.1582 293.944 69.5781C293.825 69.4074 293.614 69.2993 293.318 69.4529L161.144 145.848C146.121 154.418 128.845 165.139 113.947 165.139C90.0583 165.139 70.0845 148.227 70.0845 116.098C70.0845 64.8379 131.024 17.5894 217.128 38.1778C217.412 38.2461 217.685 38.0355 217.685 37.7396V10.4592C217.685 10.2714 217.572 10.1007 217.395 10.0381C199.908 3.55089 181.004 0 161.264 0C72.2014 0 0 72.1958 0 161.258C0 195.043 10.3966 226.398 28.1567 252.307C28.2933 252.5 28.5551 252.563 28.7599 252.443L161.065 176.059Z" fill="#E8FBF7"/>
<path d="M408.998 210.222H445.116C445.349 210.222 445.542 210.404 445.559 210.637C447.978 239.078 470.82 253.123 497.178 253.123C528.129 253.123 545.997 239.721 545.997 218.342C545.997 201.43 536.107 193.133 515.684 187.71L468.782 175.583C439.106 167.605 418.37 150.056 418.37 114.319C418.37 76.0276 451.552 50.8243 497.178 50.8243C541.468 50.8243 579.845 73.7173 579.845 114.467H543.55C543.323 114.467 543.135 114.296 543.107 114.069C540.335 90.7775 520.02 80.1817 497.178 80.1817C472.294 80.1817 454.425 94.2203 454.425 113.363C454.425 129.957 463.041 138.891 483.777 144.314L530.678 156.441C561.948 164.419 582.047 182.606 582.047 215.787C582.047 256.628 550.777 282.474 496.217 282.474C445.662 282.474 410.989 256.349 408.537 210.7C408.525 210.438 408.736 210.222 408.998 210.222Z" fill="#E8FBF7"/>
<path d="M614.688 231.611V143.169H580.305C580.049 143.169 579.844 142.964 579.844 142.708V114.466L597.809 114.688C613.037 114.688 619.189 110.801 619.189 94.9244L618.591 71.5307C618.58 71.0185 618.99 70.5974 619.502 70.5974H649.406C649.906 70.5974 650.316 71.0071 650.316 71.5079V114.335H692.056C692.562 114.335 692.972 114.745 692.972 115.251V142.708C692.972 142.964 692.767 143.169 692.511 143.169H650.322V223.838C650.322 241.655 656.154 251.699 671.701 251.699H692.517C692.773 251.699 692.978 251.903 692.978 252.16V282.029C692.978 282.279 692.779 282.479 692.534 282.479C685.472 282.479 675.047 282.479 664.576 282.479C630.234 282.473 614.688 263.683 614.688 231.611Z" fill="#E8FBF7"/>
<path d="M712.246 238.311C712.246 206.626 735.202 190.328 772.714 183.539L792.761 179.983C810.544 176.75 817.982 174.935 817.982 165.557C817.982 150.033 806.02 140.98 785.973 140.98C767.057 140.98 753.224 149.567 752.677 166.735C752.672 166.98 752.472 167.173 752.228 167.173H718.215C717.959 167.173 717.749 166.957 717.76 166.695C719.285 132.41 746.702 114.468 785.967 114.468C826.387 114.468 853.223 132.25 853.223 173.319V282.156C853.223 282.406 853.018 282.606 852.774 282.606H820.372C820.121 282.606 819.922 282.401 819.922 282.156V265.147C819.922 262.882 818.63 261.591 817.333 261.591C815.717 261.591 815.068 262.239 813.128 264.498C801.166 278.076 784.999 282.469 764.952 282.469C734.559 282.475 712.246 268.704 712.246 238.311ZM817.999 213.437V197.162C813.93 200.918 806.732 202.483 796.09 204.361L780.754 207.178C757.907 211.559 749.143 220.01 749.143 234.094C749.143 246.926 757.907 255.689 773.869 255.689C796.716 255.689 817.999 240.666 817.999 213.437Z" fill="#E8FBF7"/>
<path d="M917.452 265.344C916.201 264.092 915.575 263.153 914.01 263.153C912.445 263.153 911.506 264.405 911.506 266.283V282.108C911.506 282.359 911.301 282.558 911.056 282.558H879.411C879.161 282.558 878.962 282.353 878.962 282.108V40.3575C878.962 40.1071 879.167 39.9079 879.411 39.9079H912.934C913.185 39.9079 913.384 40.1128 913.384 40.3575V130.37C913.384 132.248 914.323 133.5 915.888 133.5C917.452 133.5 918.078 132.561 919.33 131.309C930.598 119.416 943.117 114.465 962.834 114.465C1004.4 114.465 1028.62 146.725 1028.62 202.748C1028.62 258.771 996.943 282.473 962.829 282.473C942.485 282.473 929.033 278.489 917.452 265.344ZM991.72 198.469C991.72 165.293 980.452 142.759 952.91 142.759C925.368 142.759 914.101 165.293 914.101 198.469C914.101 231.332 925.368 254.179 952.91 254.179C980.452 254.179 991.72 231.332 991.72 198.469Z" fill="#E8FBF7"/>
<path d="M1051.03 39.9079H1084.55C1084.8 39.9079 1085 40.1128 1085 40.3575V282.023C1085 282.273 1084.79 282.473 1084.55 282.473H1051.03C1050.78 282.473 1050.58 282.268 1050.58 282.023V40.3575C1050.57 40.1128 1050.78 39.9079 1051.03 39.9079Z" fill="#E8FBF7"/>
<path d="M1181.78 114.468C1134.74 114.468 1106.13 144.98 1106.13 198.699C1106.13 253.049 1136.33 282.611 1181.46 282.611C1214.92 282.611 1241.56 269 1248.59 241.304C1248.64 241.156 1248.62 241.076 1248.54 240.974C1248.49 240.905 1248.35 240.877 1248.17 240.877H1212.72C1212.61 240.877 1212.55 240.905 1212.46 241.008C1212.43 241.042 1212.4 241.07 1212.38 241.105C1207.49 249.441 1197.28 255.593 1181.46 255.593C1155.08 255.593 1142.69 237.235 1142.05 210.222H1252.24C1252.48 210.222 1252.68 210.04 1252.69 209.807C1252.98 205.379 1252.98 199.2 1252.98 194.886C1252.98 142.755 1226.91 114.468 1181.78 114.468ZM1212.42 181.735H1142.63C1145.13 155.445 1158.28 140.735 1181.12 140.735C1202.09 140.735 1216.49 153.567 1216.49 177.354C1216.49 180.483 1214.61 181.735 1212.42 181.735Z" fill="#E8FBF7"/>
</svg>
