<svg xmlns="http://www.w3.org/2000/svg" data-name="Layer 1" viewBox="0 0 1000 1000"><circle cx="500" cy="500" r="465.83" style="stroke-width:0;fill:#ffbf42"/><path d="m659.58 341.06 32.65-86.88h-53.64l-21.54 57.13c-11.8-6.19-24.2-11.18-37-14.88l15.93-42.3h-53.64l-13.01 34.51c-1.7 0-3.43-.09-5.17-.09h-62.32a125 125 0 0 1-24.33-5.57c-2.75-.92-5.43-1.9-8.08-3l-17.7 46.92L274.7 690.55h103.21l-20.86 55.31h53.64l20.87-55.31h42.62l-20.86 55.31h53.64l20.86-55.35c110.93-1.89 199.32-93.35 197.43-204.28a200.85 200.85 0 0 0-65.68-145.17ZM347.25 640.37l113.68-301.55c5.11.48 10.23.69 15.34.69s10.49-.24 15.6-.73h18.66L396.86 640.37zm103.21 0 111.93-296.73c12.91 3.4 25.32 8.5 36.89 15.16L493.06 640.37zm180.45-44.21a149.55 149.55 0 0 1-83.54 42.44l92.61-245.64c50.08 59.85 46.14 148.04-9.07 203.2" style="fill:#162061;stroke-width:0"/></svg>