<?xml version="1.0" encoding="UTF-8"?>
<svg id="Layer_1" xmlns="http://www.w3.org/2000/svg" viewBox="0 0 1080 1080">
  <defs>
    <style>
      .cls-1 {
        fill: #ffc35c;
      }

      .cls-2 {
        fill: #4c77b6;
      }
    </style>
  </defs>
  <circle class="cls-1" cx="540" cy="540" r="463.39"/>
  <g>
    <path class="cls-2" d="M258.01,397.88v375.89h41.7v-459.2c-26.29,19.57-41.7,50.5-41.7,83.31Z"/>
    <path class="cls-2" d="M675.7,314.57v334.38c26.29-19.76,41.8-50.69,41.8-83.59v-209.17h62.79v208.98c0,92.2-74.89,166.9-166.9,166.9v-417.5h-41.8c-115.46,0-208.98,93.52-208.98,208.98h0v250.59h146.19v-334.38c-26.29,19.76-41.8,50.69-41.7,83.59v208.98h-62.79v-208.98h0c0-92.2,74.89-166.9,166.9-166.9v417.88h41.7c115.46,0,208.98-93.52,208.98-208.98v-250.59l-146.19-.19h0Z"/>
  </g>
</svg>