<svg xmlns="http://www.w3.org/2000/svg" xml:space="preserve" viewBox="0 0 1366 199"><path d="M4.5 199c-.8-4.7-1.8-9.4-2.5-14.2-.7-5.4-1.4-10.9-1.7-16.4-.3-6.9 3.3-11.8 9.8-14.1 1.4-.5 2.8-.9 4.3-1.4l48-15.6c10.1-3.3 20.1-6.6 30.2-9.8 6-1.9 7.3-1 8.3 5.2 1 6.5 1.9 13 2.9 19.5.7 4.7.1 9.3-2.5 13.3-1.9 3-4.9 4.6-8.1 5.7-8.1 2.6-16.3 5.2-24.4 7.9-14.9 4.8-29.8 9.6-44.6 14.5-5.4 1.8-10.8 3.6-16.2 5.5-1.2-.1-2.4-.1-3.5-.1M140.1 0c1.2 8.9 2.5 17.8 3.5 26.8.3 3.1.1 6.4-.6 9.4-1.1 4.6-4.6 7.4-8.9 8.9-4.3 1.6-8.6 2.9-12.9 4.4C107.1 54.3 93 59.1 79 64c-8.9 3.1-17.7 6.3-26.6 9.4-1.2.4-2.4.8-3.6 1-2.8.4-4.3-.6-4.8-3.4-.8-4.2-1.3-8.4-1.9-12.6-.5-3.6-1.2-7.3-1.6-10.9-.8-8.2 3.1-15 11.4-17.8 7.3-2.5 14.5-5 21.8-7.5 13.6-4.8 27.4-9.3 40.9-14.4 7.9-3 15.9-5.7 24.2-7.4.2 0 .3-.2.5-.3.3-.1.5-.1.8-.1M1366 163c-1.8-.1-3.6-.2-5.4-.2h-18.8c0-.8-.1-1.5-.1-2.1V18.4c0-1.7.5-2.2 2.2-2.2 7.4.1 14.8 0 22.1-.1zM286.7 54.6c-4.7-3-9.1-6.3-13.9-8.6-12.7-6.1-26.1-7.9-40-4.3-2.7.7-5.3 2-7.6 3.5-6.9 4.2-9.4 13.1-7.5 20.4.7 2.8 2.3 5.2 4.7 6.8s5 3.1 7.7 4.2c8.3 3.5 17.1 5.4 25.8 7.5 8 1.9 15.9 4.1 23 8.3 4.1 2.4 8 5.3 11.4 8.6 5.4 5.2 7.5 12 7.8 19.3.5 11.5-2.8 21.6-11.2 29.9-6 5.9-13.1 9.4-21 11.3-23.8 5.4-46.8 3.5-68.6-8.4-2.4-1.3-4.5-3.2-6.7-5-.3-.2-.5-1-.3-1.4 2.6-5.9 5.2-11.7 7.9-17.6 4.2 2.6 8.2 5.5 12.5 7.7 3.5 1.8 7.3 3.3 11.1 4.3 11.6 3.2 23.4 4.1 35.2 1.4 2.9-.7 5.8-1.8 8.3-3.4 6.3-3.9 9.1-10.2 8-17.6-.4-2.9-1.7-5.5-4.1-7.1-2.6-1.8-5.5-3.5-8.4-4.8-7.4-3.4-15.3-5.1-23.3-6.8-7.8-1.6-15.5-3.6-22.6-7.2-4.5-2.4-8.9-5.3-12.8-8.7-6.2-5.3-8.8-12.7-9.4-20.6-.8-11 1.8-20.9 9-29.5 6.1-7.4 14.1-11.4 23-14.4 12.5-4.1 25.3-4 37.9-1.4 10.9 2.3 21.6 5.8 30.4 13.2 2.1 1.8 2.1 1.7.9 4.3-2.3 5.5-4.8 10.9-7.2 16.1M659.5 162.6V21.1c.5-.1 1-.1 1.5-.1 20.2 0 40.3-.2 60.5.1 7.9.1 15.8 1.6 23.1 4.9 13.1 5.9 19.9 16.3 21.7 30.4 1 8 .1 15.7-2.9 23.2-.8 2-1.8 3.8-3 5.6-6.9 10.1-16.7 15.6-28.6 17.3-4.6.7-9.3 1-14 1-10.3.1-20.5 0-30.8 0h-2.5v59.1zm25-78.8c.6 0 1.2.1 1.7.1 10.1 0 20.3.1 30.4 0 3.2 0 6.4-.3 9.5-.9 7.7-1.4 13.2-5.7 15.4-13.3.9-3.1 1.1-6.6.9-9.8-.7-8.2-4.6-14.3-12.6-16.6-4-1.2-8.3-1.8-12.5-1.9-10.4-.3-20.8-.1-31.1-.1-.5 0-1.1.1-1.7.1zM943.8 112c0 9.6-1.5 18.9-6 27.4-1.9 3.6-4.4 7-7.1 10.1-8.5 9.9-20 13.7-32.6 14.5-9.3.6-18.5-.5-27.1-4.4-4.4-2-8.4-4.5-11.8-7.9-6.7-6.8-11.2-14.9-13.1-24.4-2.7-14-2.3-27.7 3.5-41 4.1-9.4 10.8-16.2 19.9-21.1 9.5-5.1 19.6-5.9 30-5.3 5.5.3 10.9 1.3 15.8 3.6 7.3 3.4 13.9 7.9 18.6 14.6 5.8 8.3 8.8 17.6 9.6 27.6.1 2.2.2 4.2.3 6.3m-24.2.1c-.2 0-.3 0-.5-.1 0-6.2-.7-12.2-2.9-18-2.7-7.1-7.5-11.9-15-13.6-3.4-.8-7-1-10.4-.7-8.8.7-15.5 5-18.9 13.2-4.7 11.5-4.5 23.3-1.3 35.1 1.4 5.1 4 9.7 8.5 12.8 3 2.1 6.3 3.4 9.9 3.8 14.7 1.9 24.5-3.6 28.3-18 1.4-4.6 1.7-9.6 2.3-14.5M1325.5 112c.1 10.7-1.7 20.9-7.3 30.2-7.9 13.1-19.8 19.9-34.8 21.5-10.5 1.1-20.7.2-30.5-4.2-4.4-1.9-8.4-4.5-11.8-7.9-6.7-6.8-11.2-15-13.1-24.4-2.7-14-2.3-27.7 3.5-41 4.1-9.3 10.8-16.1 19.8-21 9.5-5.1 19.6-5.9 29.9-5.4 5.1.3 10.2 1.2 15 3.3 7.8 3.4 14.8 8.1 19.8 15.2 6 8.8 9 18.6 9.5 29.2zm-75.2.1c.4 3.7.5 7.5 1.1 11.2 1.1 6.5 3.5 12.5 8.7 16.8 13.3 11 33.8 4.8 38.9-11.8 3.2-10.5 3.1-21.2.1-31.8-2.4-8.5-7.6-14.2-16.4-16.3-4.2-1-8.5-1-12.7-.1-7.7 1.5-13.2 6-16.2 13.1-2.5 6-3.4 12.3-3.5 18.9M1023 111.9c.2-11.4 2.2-22.4 8.8-32 1.8-2.7 3.8-5.3 6.1-7.5 8.8-8.2 19.3-12.2 31.2-12.6 8.1-.3 16.1.2 23.6 3.4 7.9 3.3 14.9 8.1 19.9 15.3 6.1 8.8 8.9 18.6 9.5 29.2.5 10.2-.4 20.2-4.8 29.5-1.9 4.2-4.7 8.1-7.6 11.7-8.6 10.4-20.3 14.3-33.3 15.1-8.7.5-17.3-.4-25.4-3.8-14.1-5.9-22.4-16.8-26-31.3-1.4-5.5-1.7-11.3-2.5-17zm74.8-2.4c-.2-1.9-.3-4.7-.8-7.4-.9-5.3-2.4-10.4-5.9-14.8-7.5-9.4-21.9-9.1-29.7-5.6-7.3 3.3-11 9.4-12.8 16.8-2 8.3-1.9 16.7-.5 25.1.9 5.4 2.9 10.4 6.6 14.4 6.8 7.3 15.6 8.1 24.8 6.2s13.8-8.5 16.4-17c1.7-5.4 1.9-11.1 1.9-17.7M459.8 134.5c2.3 5.5 4.5 10.8 6.7 16.1.5 1.1 0 1.7-.8 2.3-6.4 4.8-13.5 7.7-21.3 9.4-13.8 3-27.5 2.7-40.6-3.2-4.1-1.9-8.1-4.4-11.4-7.5-6.9-6.5-11.3-14.6-13.2-23.9-2.9-13.7-2.4-27.2 3.2-40.3 4.1-9.7 10.7-17.2 20.1-22.2 13.5-7.3 27.4-7.6 41.1-1.9 9.4 3.9 16.1 11.3 20.2 20.9 4 9.4 5 19.3 4.8 29.6h-67.8c.7 4.1 1 8.1 2 11.8 3.5 13.2 12.4 19.5 27.2 19.4 9.2 0 17.8-2.5 25.6-7.4 1.5-.8 2.8-2 4.2-3.1m-58-34h45.6c-.5-2.4-.9-4.7-1.4-6.9-1.8-7.1-6.1-12.3-12.9-14.7-5.8-2.1-11.8-1.9-17.6.9-8.6 4.1-12 11.7-13.7 20.7M570.1 114h-67.3c.4 7.7 1.6 14.9 6 21.3s10.8 8.9 18 9.6c10.9 1.1 21-1.4 30.3-7.1.7-.4 1.3-1.1 2-1.6s1.4-1 2.3-1.6c.5 1.3.9 2.3 1.3 3.4 1.6 3.9 3.2 7.9 4.9 11.7.7 1.6.5 2.6-1 3.7-7.4 5.3-15.8 8.3-24.7 9.8-12.2 2-24.2 1.3-35.7-3.6-4.5-1.9-8.8-4.4-12.2-7.9-6.7-6.6-11.2-14.5-13.1-23.7-3.1-14.5-2.5-28.7 4-42.3 4.2-8.8 10.6-15.5 19.2-20.4s17.7-5.9 27.3-5.3c2.7.2 5.5.6 8.1 1.4 9.8 2.7 17.5 8.5 22.8 17.1 5 8 7.3 16.9 7.8 26.3.2 2.8 0 5.8 0 9.2m-21.2-13.5c-.8-14.3-9.9-23.6-23-22.9-13.3.6-21.4 11.9-22.1 22.9zM1016.2 142.3v19.9c-3.3.6-6.7 1.4-10.1 1.7-5.7.6-11.4.4-17-1-12.4-3.2-19.3-11.6-22-23.8-.9-3.9-1.1-8.1-1.2-12.1-.1-14.5-.1-28.9-.1-43.4v-2.4h-18.7V62.3h18.5V37.9c8.1-2.8 16.1-5.6 24.4-8.5v32.8h25.9v18.9H990V125c0 3.5.2 7 1.5 10.3 1.9 4.9 5.5 7.2 10.4 8.1 3.8.7 7.6.3 11.4-.6 1.1-.1 2-.3 2.9-.5M370.6 81.2h-25.7c0 .7-.1 1.3-.1 1.9 0 14.3-.1 28.5 0 42.8 0 2.8.4 5.6 1.1 8.3 1.5 5.6 5.5 8.4 11 9.3 3.8.6 7.5.2 11.2-.6.8-.2 1.6-.3 2.4-.5 0 .5.1 1 .1 1.4v16.7c0 1-.2 1.6-1.3 1.9-10.2 2.7-20.4 2.9-30.4-1-10.3-4.1-15.4-12.5-17.5-22.9-.8-3.8-1-7.7-1-11.6-.1-14.4 0-28.8 0-43.2v-2.4h-18.7V62.4h18.6c0-.9.1-1.6.1-2.2V39.7c0-.9-.1-1.7 1.1-2.1 7.4-2.5 14.7-5.1 22-7.7.3-.1.7-.1 1.2-.2v32.6h25.9zM1213.1 90c-5.4-4.3-11.1-7.4-17.5-9-5.8-1.5-11.6-1.8-17.4-.4-9.7 2.4-15.7 8.7-18.3 18.2-2.4 8.7-2.5 17.6-.2 26.3 4 14.7 14.4 20.9 29.6 19.7 7-.5 13.4-3 19.2-6.9 1.6-1.1 3-2.4 4.6-3.8.5 1.4 1 2.7 1.5 4 1.6 4 3.2 8 4.9 12 .6 1.3.4 2.2-.8 3.2-6.5 5.1-14 8-22 9.5-12 2.3-23.9 2.1-35.4-2.4-5.1-2-9.8-4.7-13.7-8.7-6.1-6.3-10.4-13.7-12.3-22.3-3.2-14.1-2.9-28 2.8-41.4 4.3-10.1 11.4-17.7 21.4-22.7 15.6-7.8 31.5-7.1 47.4-1.1 4.3 1.6 8.1 4.8 12.1 7.3.5.3 1.1 1.3.9 1.7-2.3 5.5-4.5 11-6.8 16.8M610.3 162.7h-24.2c-.9-33.4 1.1-66.8-1.4-100.3h22.6c.6 5.6 1.2 11.2 1.9 17.2.4-.9.7-1.4.9-1.9 2-4.2 4.8-7.7 8.4-10.6 8.4-6.8 18-8.4 28.4-6.2 1.6.3 2.1 1 2 2.7-.2 6.2-.2 12.4-.4 18.6 0 .7-.1 1.3-.1 1.9-3-.7-5.8-1.5-8.7-1.9-6.3-.7-12.5-.3-18.2 3.1-6.7 4-9.6 10.4-10.9 17.7-.4 2.3-.4 4.6-.4 6.9v50.5c.1.7.1 1.4.1 2.3M842.4 84.2c-4.9-2-9.9-2.7-15.1-2.4-7.8.5-14.3 3.4-18.5 10.1-2.6 4.2-4.2 8.8-4.3 13.8-.1 15.6-.1 31.3-.1 46.9v9.9h-24.2c-.9-33.3 1.1-66.7-1.4-100.2h22.6c.6 5.5 1.2 11.1 1.8 16.6 2.7-6.6 7.6-11.2 13.3-14.8 5.4-3.5 11.6-4.6 18-4.3 2.4.1 4.8.6 7.2 1.1.5.1 1.2 1 1.2 1.5 0 6.9-.2 13.9-.3 20.8 0 .4-.1.6-.2 1M47.7 129.3v-16.7c.1-6.3.1-12.5.3-18.8.1-4.7 2.6-7.9 6.7-9.8 1.7-.8 3.5-1.3 5.3-1.9 11.9-3.9 23.8-7.7 35.7-11.5.6-.2 1.2-.3 1.8-.5.1.2.2.3.2.4-.1 11.9-.2 23.8-.2 35.6 0 5.1-3 7.7-7.2 9.2-5.8 2.1-11.7 3.9-17.6 5.8-7.6 2.5-15.2 5-22.9 7.5-.6.2-1.3.4-2.1.7"/></svg>