<?xml version="1.0" encoding="utf-8"?>
<!-- Generator: Adobe Illustrator 28.0.0, SVG Export Plug-In . SVG Version: 6.00 Build 0)  -->
<svg version="1.1" id="Layer_1" xmlns="http://www.w3.org/2000/svg" xmlns:xlink="http://www.w3.org/1999/xlink" x="0px" y="0px"
	 viewBox="0 0 1366 199" enable-background="new 0 0 1366 199" xml:space="preserve">
<path d="M4.5,199c-0.8-4.7-1.8-9.4-2.5-14.2c-0.7-5.4-1.4-10.9-1.7-16.4c-0.3-6.9,3.3-11.8,9.8-14.1c1.4-0.5,2.8-0.9,4.3-1.4
	c16-5.2,32-10.4,48-15.6c10.1-3.3,20.1-6.6,30.2-9.8c6-1.9,7.3-1,8.3,5.2c1,6.5,1.9,13,2.9,19.5c0.7,4.7,0.1,9.3-2.5,13.3
	c-1.9,3-4.9,4.6-8.1,5.7c-8.1,2.6-16.3,5.2-24.4,7.9c-14.9,4.8-29.8,9.6-44.6,14.5c-5.4,1.8-10.8,3.6-16.2,5.5
	C6.8,199,5.6,199,4.5,199z"/>
<path d="M140.1,0c1.2,8.9,2.5,17.8,3.5,26.8c0.3,3.1,0.1,6.4-0.6,9.4c-1.1,4.6-4.6,7.4-8.9,8.9c-4.3,1.6-8.6,2.9-12.9,4.4
	C107.1,54.3,93,59.1,79,64c-8.9,3.1-17.7,6.3-26.6,9.4c-1.2,0.4-2.4,0.8-3.6,1C46,74.8,44.5,73.8,44,71c-0.8-4.2-1.3-8.4-1.9-12.6
	c-0.5-3.6-1.2-7.3-1.6-10.9c-0.8-8.2,3.1-15,11.4-17.8c7.3-2.5,14.5-5,21.8-7.5c13.6-4.8,27.4-9.3,40.9-14.4
	c7.9-3,15.9-5.7,24.2-7.4c0.2,0,0.3-0.2,0.5-0.3C139.6,0,139.8,0,140.1,0z"/>
<path d="M1366,163c-1.8-0.1-3.6-0.2-5.4-0.2c-6.2,0-12.4,0-18.8,0c0-0.8-0.1-1.5-0.1-2.1c0-47.4,0-94.8,0-142.3
	c0-1.7,0.5-2.2,2.2-2.2c7.4,0.1,14.8,0,22.1-0.1C1366,65.1,1366,114,1366,163z"/>
<path d="M286.7,54.6c-4.7-3-9.1-6.3-13.9-8.6c-12.7-6.1-26.1-7.9-40-4.3c-2.7,0.7-5.3,2-7.6,3.5c-6.9,4.2-9.4,13.1-7.5,20.4
	c0.7,2.8,2.3,5.2,4.7,6.8c2.4,1.6,5,3.1,7.7,4.2c8.3,3.5,17.1,5.4,25.8,7.5c8,1.9,15.9,4.1,23,8.3c4.1,2.4,8,5.3,11.4,8.6
	c5.4,5.2,7.5,12,7.8,19.3c0.5,11.5-2.8,21.6-11.2,29.9c-6,5.9-13.1,9.4-21,11.3c-23.8,5.4-46.8,3.5-68.6-8.4c-2.4-1.3-4.5-3.2-6.7-5
	c-0.3-0.2-0.5-1-0.3-1.4c2.6-5.9,5.2-11.7,7.9-17.6c4.2,2.6,8.2,5.5,12.5,7.7c3.5,1.8,7.3,3.3,11.1,4.3c11.6,3.2,23.4,4.1,35.2,1.4
	c2.9-0.7,5.8-1.8,8.3-3.4c6.3-3.9,9.1-10.2,8-17.6c-0.4-2.9-1.7-5.5-4.1-7.1c-2.6-1.8-5.5-3.5-8.4-4.8c-7.4-3.4-15.3-5.1-23.3-6.8
	c-7.8-1.6-15.5-3.6-22.6-7.2c-4.5-2.4-8.9-5.3-12.8-8.7c-6.2-5.3-8.8-12.7-9.4-20.6c-0.8-11,1.8-20.9,9-29.5
	c6.1-7.4,14.1-11.4,23-14.4c12.5-4.1,25.3-4,37.9-1.4c10.9,2.3,21.6,5.8,30.4,13.2c2.1,1.8,2.1,1.7,0.9,4.3
	C291.6,44,289.1,49.4,286.7,54.6z"/>
<path d="M659.5,162.6c0-47.2,0-94.3,0-141.5c0.5-0.1,1-0.1,1.5-0.1c20.2,0,40.3-0.2,60.5,0.1c7.9,0.1,15.8,1.6,23.1,4.9
	c13.1,5.9,19.9,16.3,21.7,30.4c1,8,0.1,15.7-2.9,23.2c-0.8,2-1.8,3.8-3,5.6c-6.9,10.1-16.7,15.6-28.6,17.3c-4.6,0.7-9.3,1-14,1
	c-10.3,0.1-20.5,0-30.8,0c-0.7,0-1.5,0-2.5,0c0,19.8,0,39.4,0,59.1C676,162.6,667.8,162.6,659.5,162.6z M684.5,83.8
	c0.6,0,1.2,0.1,1.7,0.1c10.1,0,20.3,0.1,30.4,0c3.2,0,6.4-0.3,9.5-0.9c7.7-1.4,13.2-5.7,15.4-13.3c0.9-3.1,1.1-6.6,0.9-9.8
	c-0.7-8.2-4.6-14.3-12.6-16.6c-4-1.2-8.3-1.8-12.5-1.9c-10.4-0.3-20.8-0.1-31.1-0.1c-0.5,0-1.1,0.1-1.7,0.1
	C684.5,55.6,684.5,69.6,684.5,83.8z"/>
<path d="M943.8,112c0,9.6-1.5,18.9-6,27.4c-1.9,3.6-4.4,7-7.1,10.1c-8.5,9.9-20,13.7-32.6,14.5c-9.3,0.6-18.5-0.5-27.1-4.4
	c-4.4-2-8.4-4.5-11.8-7.9c-6.7-6.8-11.2-14.9-13.1-24.4c-2.7-14-2.3-27.7,3.5-41c4.1-9.4,10.8-16.2,19.9-21.1
	c9.5-5.1,19.6-5.9,30-5.3c5.5,0.3,10.9,1.3,15.8,3.6c7.3,3.4,13.9,7.9,18.6,14.6c5.8,8.3,8.8,17.6,9.6,27.6
	C943.6,107.9,943.7,109.9,943.8,112z M919.6,112.1c-0.2,0-0.3,0-0.5-0.1c0-6.2-0.7-12.2-2.9-18c-2.7-7.1-7.5-11.9-15-13.6
	c-3.4-0.8-7-1-10.4-0.7c-8.8,0.7-15.5,5-18.9,13.2c-4.7,11.5-4.5,23.3-1.3,35.1c1.4,5.1,4,9.7,8.5,12.8c3,2.1,6.3,3.4,9.9,3.8
	c14.7,1.9,24.5-3.6,28.3-18C918.7,122,919,117,919.6,112.1z"/>
<path d="M1325.5,112c0.1,10.7-1.7,20.9-7.3,30.2c-7.9,13.1-19.8,19.9-34.8,21.5c-10.5,1.1-20.7,0.2-30.5-4.2
	c-4.4-1.9-8.4-4.5-11.8-7.9c-6.7-6.8-11.2-15-13.1-24.4c-2.7-14-2.3-27.7,3.5-41c4.1-9.3,10.8-16.1,19.8-21
	c9.5-5.1,19.6-5.9,29.9-5.4c5.1,0.3,10.2,1.2,15,3.3c7.8,3.4,14.8,8.1,19.8,15.2c6,8.8,9,18.6,9.5,29.2
	C1325.5,109,1325.5,110.5,1325.5,112z M1250.3,112.1c0.4,3.7,0.5,7.5,1.1,11.2c1.1,6.5,3.5,12.5,8.7,16.8
	c13.3,11,33.8,4.8,38.9-11.8c3.2-10.5,3.1-21.2,0.1-31.8c-2.4-8.5-7.6-14.2-16.4-16.3c-4.2-1-8.5-1-12.7-0.1
	c-7.7,1.5-13.2,6-16.2,13.1C1251.3,99.2,1250.4,105.5,1250.3,112.1z"/>
<path d="M1023,111.9c0.2-11.4,2.2-22.4,8.8-32c1.8-2.7,3.8-5.3,6.1-7.5c8.8-8.2,19.3-12.2,31.2-12.6c8.1-0.3,16.1,0.2,23.6,3.4
	c7.9,3.3,14.9,8.1,19.9,15.3c6.1,8.8,8.9,18.6,9.5,29.2c0.5,10.2-0.4,20.2-4.8,29.5c-1.9,4.2-4.7,8.1-7.6,11.7
	c-8.6,10.4-20.3,14.3-33.3,15.1c-8.7,0.5-17.3-0.4-25.4-3.8c-14.1-5.9-22.4-16.8-26-31.3c-1.4-5.5-1.7-11.3-2.5-17
	C1022.7,111.9,1022.9,111.9,1023,111.9z M1097.8,109.5c-0.2-1.9-0.3-4.7-0.8-7.4c-0.9-5.3-2.4-10.4-5.9-14.8
	c-7.5-9.4-21.9-9.1-29.7-5.6c-7.3,3.3-11,9.4-12.8,16.8c-2,8.3-1.9,16.7-0.5,25.1c0.9,5.4,2.9,10.4,6.6,14.4
	c6.8,7.3,15.6,8.1,24.8,6.2c9.2-1.9,13.8-8.5,16.4-17C1097.6,121.8,1097.8,116.1,1097.8,109.5z"/>
<path d="M459.8,134.5c2.3,5.5,4.5,10.8,6.7,16.1c0.5,1.1,0,1.7-0.8,2.3c-6.4,4.8-13.5,7.7-21.3,9.4c-13.8,3-27.5,2.7-40.6-3.2
	c-4.1-1.9-8.1-4.4-11.4-7.5c-6.9-6.5-11.3-14.6-13.2-23.9c-2.9-13.7-2.4-27.2,3.2-40.3c4.1-9.7,10.7-17.2,20.1-22.2
	c13.5-7.3,27.4-7.6,41.1-1.9c9.4,3.9,16.1,11.3,20.2,20.9c4,9.4,5,19.3,4.8,29.6c-22.5,0-44.8,0-67.8,0c0.7,4.1,1,8.1,2,11.8
	c3.5,13.2,12.4,19.5,27.2,19.4c9.2,0,17.8-2.5,25.6-7.4C457.1,136.8,458.4,135.6,459.8,134.5z M401.8,100.5c15.3,0,30.3,0,45.6,0
	c-0.5-2.4-0.9-4.7-1.4-6.9c-1.8-7.1-6.1-12.3-12.9-14.7c-5.8-2.1-11.8-1.9-17.6,0.9C406.9,83.9,403.5,91.5,401.8,100.5z"/>
<path d="M570.1,114c-22.4,0-44.7,0-67.3,0c0.4,7.7,1.6,14.9,6,21.3c4.4,6.4,10.8,8.9,18,9.6c10.9,1.1,21-1.4,30.3-7.1
	c0.7-0.4,1.3-1.1,2-1.6c0.7-0.5,1.4-1,2.3-1.6c0.5,1.3,0.9,2.3,1.3,3.4c1.6,3.9,3.2,7.9,4.9,11.7c0.7,1.6,0.5,2.6-1,3.7
	c-7.4,5.3-15.8,8.3-24.7,9.8c-12.2,2-24.2,1.3-35.7-3.6c-4.5-1.9-8.8-4.4-12.2-7.9c-6.7-6.6-11.2-14.5-13.1-23.7
	c-3.1-14.5-2.5-28.7,4-42.3c4.2-8.8,10.6-15.5,19.2-20.4c8.6-4.9,17.7-5.9,27.3-5.3c2.7,0.2,5.5,0.6,8.1,1.4
	c9.8,2.7,17.5,8.5,22.8,17.1c5,8,7.3,16.9,7.8,26.3C570.3,107.6,570.1,110.6,570.1,114z M548.9,100.5c-0.8-14.3-9.9-23.6-23-22.9
	c-13.3,0.6-21.4,11.9-22.1,22.9C518.8,100.5,533.9,100.5,548.9,100.5z"/>
<path d="M1016.2,142.3c0,6.6,0,13,0,19.9c-3.3,0.6-6.7,1.4-10.1,1.7c-5.7,0.6-11.4,0.4-17-1c-12.4-3.2-19.3-11.6-22-23.8
	c-0.9-3.9-1.1-8.1-1.2-12.1c-0.1-14.5-0.1-28.9-0.1-43.4c0-0.7,0-1.5,0-2.4c-6.3,0-12.4,0-18.7,0c0-6.4,0-12.6,0-18.9
	c6.2,0,12.3,0,18.5,0c0-8.1,0-16.1,0-24.4c8.1-2.8,16.1-5.6,24.4-8.5c0,11.2,0,21.9,0,32.8c8.7,0,17.3,0,25.9,0c0,6.4,0,12.5,0,18.9
	c-8.6,0-17.1,0-25.9,0c0,0.9,0,1.6,0,2.2c0,13.9,0,27.8,0,41.7c0,3.5,0.2,7,1.5,10.3c1.9,4.9,5.5,7.2,10.4,8.1
	c3.8,0.7,7.6,0.3,11.4-0.6C1014.4,142.7,1015.3,142.5,1016.2,142.3z"/>
<path d="M370.6,81.2c-8.6,0-17.1,0-25.7,0c0,0.7-0.1,1.3-0.1,1.9c0,14.3-0.1,28.5,0,42.8c0,2.8,0.4,5.6,1.1,8.3
	c1.5,5.6,5.5,8.4,11,9.3c3.8,0.6,7.5,0.2,11.2-0.6c0.8-0.2,1.6-0.3,2.4-0.5c0,0.5,0.1,1,0.1,1.4c0,5.6,0,11.1,0,16.7
	c0,1-0.2,1.6-1.3,1.9c-10.2,2.7-20.4,2.9-30.4-1c-10.3-4.1-15.4-12.5-17.5-22.9c-0.8-3.8-1-7.7-1-11.6c-0.1-14.4,0-28.8,0-43.2
	c0-0.7,0-1.5,0-2.4c-6.3,0-12.4,0-18.7,0c0-6.3,0-12.5,0-18.9c6.1,0,12.2,0,18.6,0c0-0.9,0.1-1.6,0.1-2.2c0-6.8,0-13.6,0-20.5
	c0-0.9-0.1-1.7,1.1-2.1c7.4-2.5,14.7-5.1,22-7.7c0.3-0.1,0.7-0.1,1.2-0.2c0,10.9,0,21.6,0,32.6c8.7,0,17.2,0,25.9,0
	C370.6,68.6,370.6,74.7,370.6,81.2z"/>
<path d="M1213.1,90c-5.4-4.3-11.1-7.4-17.5-9c-5.8-1.5-11.6-1.8-17.4-0.4c-9.7,2.4-15.7,8.7-18.3,18.2c-2.4,8.7-2.5,17.6-0.2,26.3
	c4,14.7,14.4,20.9,29.6,19.7c7-0.5,13.4-3,19.2-6.9c1.6-1.1,3-2.4,4.6-3.8c0.5,1.4,1,2.7,1.5,4c1.6,4,3.2,8,4.9,12
	c0.6,1.3,0.4,2.2-0.8,3.2c-6.5,5.1-14,8-22,9.5c-12,2.3-23.9,2.1-35.4-2.4c-5.1-2-9.8-4.7-13.7-8.7c-6.1-6.3-10.4-13.7-12.3-22.3
	c-3.2-14.1-2.9-28,2.8-41.4c4.3-10.1,11.4-17.7,21.4-22.7c15.6-7.8,31.5-7.1,47.4-1.1c4.3,1.6,8.1,4.8,12.1,7.3
	c0.5,0.3,1.1,1.3,0.9,1.7C1217.6,78.7,1215.4,84.2,1213.1,90z"/>
<path d="M610.3,162.7c-8.1,0-16.1,0-24.2,0c-0.9-33.4,1.1-66.8-1.4-100.3c7.4,0,14.9,0,22.6,0c0.6,5.6,1.2,11.2,1.9,17.2
	c0.4-0.9,0.7-1.4,0.9-1.9c2-4.2,4.8-7.7,8.4-10.6c8.4-6.8,18-8.4,28.4-6.2c1.6,0.3,2.1,1,2,2.7c-0.2,6.2-0.2,12.4-0.4,18.6
	c0,0.7-0.1,1.3-0.1,1.9c-3-0.7-5.8-1.5-8.7-1.9c-6.3-0.7-12.5-0.3-18.2,3.1c-6.7,4-9.6,10.4-10.9,17.7c-0.4,2.3-0.4,4.6-0.4,6.9
	c0,16.8,0,33.7,0,50.5C610.3,161.1,610.3,161.8,610.3,162.7z"/>
<path d="M842.4,84.2c-4.9-2-9.9-2.7-15.1-2.4c-7.8,0.5-14.3,3.4-18.5,10.1c-2.6,4.2-4.2,8.8-4.3,13.8c-0.1,15.6-0.1,31.3-0.1,46.9
	c0,3.2,0,6.5,0,9.9c-8.1,0-16.1,0-24.2,0c-0.9-33.3,1.1-66.7-1.4-100.2c7.3,0,14.9,0,22.6,0c0.6,5.5,1.2,11.1,1.8,16.6
	c2.7-6.6,7.6-11.2,13.3-14.8c5.4-3.5,11.6-4.6,18-4.3c2.4,0.1,4.8,0.6,7.2,1.1c0.5,0.1,1.2,1,1.2,1.5c0,6.9-0.2,13.9-0.3,20.8
	C842.6,83.6,842.5,83.8,842.4,84.2z"/>
<path d="M47.7,129.3c0-5.7,0-11.2,0-16.7c0.1-6.3,0.1-12.5,0.3-18.8c0.1-4.7,2.6-7.9,6.7-9.8c1.7-0.8,3.5-1.3,5.3-1.9
	c11.9-3.9,23.8-7.7,35.7-11.5c0.6-0.2,1.2-0.3,1.8-0.5c0.1,0.2,0.2,0.3,0.2,0.4c-0.1,11.9-0.2,23.8-0.2,35.6c0,5.1-3,7.7-7.2,9.2
	c-5.8,2.1-11.7,3.9-17.6,5.8c-7.6,2.5-15.2,5-22.9,7.5C49.2,128.8,48.5,129,47.7,129.3z"/>
</svg>
