<svg xmlns="http://www.w3.org/2000/svg" id="Layer_1" viewBox="0 0 398.4 91.4"><defs><style>.st0{fill:#fff}</style></defs><path d="M352.2 89.7h18.4V52.8l27.7-50.2h-21.2l-24.9 46.5z" class="st0"/><path d="M357.4 40.9 336.6 2.6h-20.9l20.9 38.3zM286.3 62.6l14.1 27.1h20l-17.6-32c8.1-5.6 12.9-14.6 12.9-24.9 0-16.8-10.5-30.1-33.1-30.1h-36.2v87.1h19.1v-27zm-20.8-43.9h17.2c9.3 0 14.8 4.9 14.8 13.8s-4.9 13.3-14.2 13.3h-17.8zM100.9 89.7h19.3V19.8H148V2.6H73.1v17.2h27.8zM34.9 30.2v13.3c-9.8 0-16.9-4.2-16.9-13s6.2-14 17.4-14 14.8 3.8 16.1 8.8h17C67.3 11.3 54.1 0 35 0S.6 12.5.6 30.9 15.5 60.1 35 60.1V47.6c10.3 0 17.4 4.6 17.4 13.6s-7.3 14-17.3 14-15.4-4-17.3-9.5H0c2.5 14.5 15.8 25.8 35 25.8S69.7 80 69.7 60.8c0-18-13.6-30.6-34.8-30.6M192.9 73.9c-15.4 0-26.6-12.8-26.6-28.1s9.9-27.7 26.6-27.7 27.4 11.8 27.4 27.7h17.3C237.6 21 218.3.1 192.9.1 165.6 0 148 19 148 45.7s19.5 45.7 44.9 45.7z" class="st0"/><path d="M192.4 81c19.4 0 34-15.3 34-35.7h-15.8c0 11-8 19-18.1 19V81Z" class="st0"/></svg>