<?xml version="1.0" encoding="utf-8"?>
<!-- Generator: Adobe Illustrator 26.0.3, SVG Export Plug-In . SVG Version: 6.00 Build 0)  -->
<svg version="1.1" id="Symbol" xmlns="http://www.w3.org/2000/svg" xmlns:xlink="http://www.w3.org/1999/xlink" x="0px" y="0px"
	 viewBox="0 0 338.93 424.32" style="enable-background:new 0 0 338.93 424.32;" xml:space="preserve">
<style type="text/css">
	.st0{fill:#FA660F;}
</style>
<path class="st0" d="M224.99,220.46c-6.33-8.04-15.39-12.17-26.21-14.32c6.18-3.81,10.73-8.46,13.69-13.9
	c8.29-14.74,5.41-42.34-7.24-52.64c-4.33-4.02-9.83-6.92-16.38-8.72v-24.79h-24.21v22.46h-15.38v-22.46h-24.2v22.46h-18.97v166.12
	h18.97v23.57h24.2v-23.57h15.38v23.57h24.21v-24.47c3.65-0.53,7.13-1.22,10.41-2.22C229.86,284.38,242.3,245.68,224.99,220.46z
	 M181.28,176.11c0,12.21-7.67,18.29-23.04,18.29h-9.04v-36.63h9.04c15.38,0,23.04,6.08,23.04,18.29V176.11z M182.02,256.98
	c-5.33,4.04-22.67,4.49-32.82,4.18V225.9c10.17-0.31,27.47,0.13,32.82,4.18C191.42,234.99,191.48,252.07,182.02,256.98z"/>
</svg>
