<svg xmlns="http://www.w3.org/2000/svg" xml:space="preserve" viewBox="0 0 1724.32 774.38"><path d="M322.03 333.2c-12.28-4.71-27.73-6.94-36.62-16.91-6.11-7.01-4.03-19.51 3.54-25 9.59-7.69 24.79-6.78 36.68-1.74 6.29 2.59 12.63 6.61 18.92 12.05l23.04-47.89c-11.05-6.24-22.57-10.99-34.56-14.22-31.43-8.73-67.84-7.05-90.9 16.6-20.59 20.16-26.42 59.24-15.64 85.15 6.65 14.94 18.13 24.73 32.77 30.97 11.72 5.07 27.04 9.77 38.1 14.54 10.58 4.37 18.82 10.69 18.5 22.52-.47 14.37-12.24 22.96-28.06 22.52-8.3 0-16.65-1.96-25.1-5.92-8.46-3.96-17.02-9.99-25.68-18.13l-24.84 49.42c24.05 17.71 50.15 26.59 78.32 26.59 24.28.01 46.95-6.42 63.68-22.09 26.15-23.59 30.43-74.84 9.46-101.75-8.77-11.15-22.62-20.08-41.54-26.74zm957.38 70.14c-14.11-28.91-28.22-57.82-42.38-86.74-34.88.05-69.76.11-104.58.16v21.14c-12.21-14.16-27.27-21.3-45.19-21.3-11.05 0-21.24 2.22-30.6 6.71-9.35 4.49-17.44 10.62-24.26 18.45-6.82 7.82-12.16 17.02-16.12 27.54-.95 2.54-1.8 5.13-2.49 7.77-.69-2.91-1.48-5.71-2.38-8.4-3.75-11.15-9.14-20.61-16.27-28.33-15.44-16.75-36.99-23.74-60.56-23.73-23.65-.05-45.64 7.06-61.46 23.47a71 71 0 0 0-9.73 12.53V316.6h-30.44v-48.2h-53.48v48.2h-79.58v20.98c-12.42-13.95-28.06-20.98-46.98-20.98-11.2 0-21.46 2.22-30.71 6.71s-17.23 10.57-23.94 18.29c-4.17 4.81-7.77 10.15-10.83 15.96v-43.87c-2.17-.42-4.07-.63-5.76-.63h-4.6c-11.05 0-20.66 2.54-28.96 7.66-8.3 5.13-15.27 12.47-20.98 22.04V316.5h-79.32v-48.2h-53.48v48.2h-17.7v47.25h17.7v118.29h53.48V363.75h25.84v118.29h53.48V408.2c0-15.01 3.12-26.43 9.3-34.25q9.27-11.73 27.9-11.73c6.82 0 13.21 1.27 19.23 3.86-.37.85-.69 1.74-1 2.64-3.75 10.31-5.6 21.25-5.6 32.72 0 12.32 1.9 23.68 5.76 34.09 7.34 20 21.21 36.46 40.32 45.19 9.25 4.28 19.4 6.39 30.44 6.39 19.5 0 34.98-7.61 46.4-22.83v17.81h53.8V363.8h25.84v118.29H833V363.8h24.73c-.48 1.22-1 2.38-1.43 3.65-3.97 10.73-5.92 22.78-5.92 36.15s2.06 24.63 6.18 35.04 9.99 19.4 17.6 26.9c7.61 7.51 16.7 13.32 27.32 17.39s22.35 6.08 35.14 6.08c41.75 0 67.86-18.34 78.32-55.08.32.9.58 1.8.9 2.64 3.65 9.88 8.77 18.39 15.38 25.48 13.75 14.73 32.66 22.65 53.38 22.52 13.65.15 25.56-3.12 36.52-11.1 3.65-2.59 7.45-5.87 11.36-9.83v15.33c0 11.89-3.01 21.19-8.98 27.85-6.03 6.66-14.64 9.99-25.84 9.99-13.21 0-21.67-5.34-25.42-15.96h-60.3c1.58 8.77 4.7 16.86 9.46 24.26 37.44 59.51 157.02 46.46 163.14-30.44 1.01-7.08 1.48-15.12 1.48-24.1V338.11l64.21 121.51-51.69 102.01h59.98c41.27-81.66 82.55-163.38 123.82-245.04h-61.73c-13.69 28.91-27.43 57.82-41.11 86.74h-.09zm-580.52 12.79c-5.21 12.91-17.6 22.43-31.76 22.2-19.78.5-35.09-17.59-34.56-36.89-.29-19.05 15.18-36.38 34.56-35.94 24.94-.65 41.56 28.72 31.76 50.63m216.99-55.98c5.23-4.6 11.94-6.87 20.24-6.87s14.59 2.38 20.09 7.19c5.49 4.81 9.14 11.15 10.94 19.08H906c1.37-8.35 4.7-14.8 9.88-19.4m47.4 73.84c-5.92 9.99-14.69 15.01-26.32 15.01-21.67 0-32.5-12.21-32.5-36.63h106.27c.58 7.66 2.01 14.85 4.23 21.57h-51.69v.05zm169.06-18.92c-5.13 13.07-17.54 22.56-31.76 22.36-19.79.5-35.09-17.59-34.56-36.89-.26-18.91 15.59-36.2 34.61-36.26 19.3-.12 34.94 17.55 34.61 36.58 0 5.18-.95 9.78-2.8 14.22h-.1zm371.95-88.53c-6.33-8.04-15.39-12.17-26.21-14.32 6.18-3.81 10.73-8.46 13.69-13.9 8.29-14.74 5.41-42.34-7.24-52.64-4.33-4.02-9.83-6.92-16.38-8.72v-24.79h-24.21v22.46h-15.38v-22.46h-24.2v22.46h-18.97v166.12h18.97v23.57h24.2v-23.57h15.38v23.57h24.21v-24.47c3.65-.53 7.13-1.22 10.41-2.22 30.61-7.17 43.04-45.86 25.73-71.09m-43.7-44.35c0 12.21-7.67 18.29-23.04 18.29h-9.04v-36.63h9.04c15.38 0 23.04 6.08 23.04 18.29zm.74 80.87c-5.33 4.04-22.67 4.49-32.82 4.18v-35.25c10.17-.31 27.47.13 32.82 4.18 9.4 4.91 9.46 21.98 0 26.89" style="fill:#fff"/></svg>