<svg xmlns="http://www.w3.org/2000/svg" xml:space="preserve" viewBox="0 0 338.93 424.32"><path d="M224.99 220.46c-6.33-8.04-15.39-12.17-26.21-14.32 6.18-3.81 10.73-8.46 13.69-13.9 8.29-14.74 5.41-42.34-7.24-52.64-4.33-4.02-9.83-6.92-16.38-8.72v-24.79h-24.21v22.46h-15.38v-22.46h-24.2v22.46h-18.97v166.12h18.97v23.57h24.2v-23.57h15.38v23.57h24.21v-24.47c3.65-.53 7.13-1.22 10.41-2.22 30.6-7.17 43.04-45.87 25.73-71.09m-43.71-44.35c0 12.21-7.67 18.29-23.04 18.29h-9.04v-36.63h9.04c15.38 0 23.04 6.08 23.04 18.29zm.74 80.87c-5.33 4.04-22.67 4.49-32.82 4.18V225.9c10.17-.31 27.47.13 32.82 4.18 9.4 4.91 9.46 21.99 0 26.9" style="fill:#fa660f"/></svg>