<svg xmlns="http://www.w3.org/2000/svg" data-name="Layer 2" viewBox="0 0 904.14 904.14"><path d="M854.78 332.85 646.92 124.99l-39.57-39.57-36.07-36.07c-9.46-9.46-19.9-17.66-31.04-24.47C514.01 8.67 483.71 0 452.07 0c-45.02 0-87.34 17.52-119.17 49.35L49.35 332.85C17.52 364.73 0 407.05 0 452.07s17.52 87.34 49.35 119.22l207.91 207.86 39.57 39.57 32.95-32.95 250.5-250.55c22.04-22.04 30.39-53.22 22.32-83.38-8.11-30.11-30.9-52.9-61.05-61.01l-105.84-28.24-3.82 3.82-38.03 38.03-3.82 3.82 137.07 36.63c9.37 2.52 16.73 9.04 20.27 17.8.47 1.17.89 2.38 1.21 3.64 1.68 6.29 1.35 12.77-.93 18.74-1.44 3.91-3.78 7.46-6.9 10.63L290.21 746.2 82.3 538.29c-23.02-23.02-35.7-53.64-35.7-86.22s12.68-63.2 35.7-86.22L365.85 82.3c23.02-23.02 53.64-35.7 86.22-35.7 1.91 0 3.82.05 5.69.14h.56c1.96.09 3.91.28 5.87.47 1.58.14 3.17.33 4.71.56.28 0 .51.05.75.09.61.05 1.17.14 1.72.23 1.49.23 2.94.51 4.38.79l.79.14c1.44.33 2.84.65 4.29.98 1.35.33 2.7.65 4.05 1.07.7.19 1.44.37 2.14.61 1.07.33 2.14.65 3.22 1.03 2.1.7 4.24 1.44 6.29 2.28 1.07.33 2.1.75 3.12 1.26 1.07.42 2.14.89 3.17 1.4 1.07.47 2.1.98 3.12 1.49L261.5 303.68c-43.81 43.81-61.01 105.84-46.05 165.96s59.23 106.87 118.47 125.04l62.36 19.11 3.73-3.73 41.01-41.01-90.69-27.87c-40.31-12.35-70.47-44.14-80.63-85.05-10.16-40.92 1.54-83.1 31.32-112.92l249.1-249.06-.33-.33 24.61 24.61-250.55 250.55c-22.04 22.04-30.39 53.18-22.32 83.33 8.11 30.15 30.9 52.94 61.05 60.96l105.89 28.34 45.67-45.67-137.11-36.68c-9.32-2.47-16.64-8.99-20.23-17.76-.51-1.17-.93-2.38-1.26-3.64-1.68-6.34-1.35-12.82.93-18.78 1.54-3.91 3.87-7.46 6.94-10.58L613.96 158l207.86 207.86c23.02 23.02 35.7 53.64 35.7 86.22s-12.68 63.2-35.7 86.22L538.27 821.85c-23.02 23.02-53.64 35.7-86.22 35.7-1.91 0-3.82-.05-5.69-.14h-.56c-1.49-.09-2.94-.19-4.38-.33-.51-.05-.98-.09-1.49-.14-1.44-.14-2.84-.28-4.29-.51-.23 0-.47-.05-.7-.09-.61-.05-1.26-.14-1.91-.23-1.63-.28-3.22-.56-4.8-.84-.23-.09-.47-.14-.65-.14-1.44-.33-2.89-.65-4.29-.98-1.35-.33-2.7-.65-4.05-1.07-.93-.23-1.82-.51-2.7-.75-1.58-.47-3.17-.98-4.71-1.54-.47-.19-.93-.33-1.4-.51-.14-.05-.23-.09-.37-.14-1.35-.47-2.66-.98-3.96-1.54-.56-.19-1.12-.47-1.68-.7-1.91-.84-3.82-1.68-5.73-2.61-.19-.09-.37-.19-.56-.28l244.49-244.54c43.81-43.76 61.01-105.79 46.09-165.91-14.96-60.12-59.24-106.87-118.47-125.04l-62.36-19.11-41.01 41.01-3.73 3.73 90.65 27.82c40.31 12.35 70.42 44.13 80.63 85.05 10.21 40.87-1.49 83.1-31.32 112.92L354 810l-32.95 32.95 11.84 11.84c9.46 9.46 19.85 17.66 30.99 24.47 26.24 16.22 56.53 24.89 88.18 24.89 45.02 0 87.34-17.52 119.22-49.35l283.5-283.5c31.83-31.88 49.35-74.2 49.35-119.22s-17.52-87.34-49.35-119.22Z" style="fill:#fff;stroke-width:0"/></svg>