<svg xmlns="http://www.w3.org/2000/svg" width="46" height="46" fill="none" viewBox="0 0 46 46"><circle cx="23" cy="23" r="23" fill="url(#a)"/><path fill="#ececec" d="M14.078 23.582h5.966q.226 0 .226.226V28.5l.742.774h3.902l.774-.774v-4.692q0-.226.226-.226h5.967q.225 0 .225.226v6.82a.4.4 0 0 1-.129.29l-3.354 3.355a.4.4 0 0 1-.29.13H17.626a.4.4 0 0 1-.29-.13l-3.355-3.354a.4.4 0 0 1-.129-.29v-6.821q0-.226.226-.226M25.608 18.9a.47.47 0 0 1 .363-.458l6.583-1.543a.47.47 0 0 1 .578.458v5.05c0 .26-.21.47-.47.47h-6.584a.47.47 0 0 1-.47-.47zM32.191 15.583a.47.47 0 0 1-.348.454L26.2 17.548a.47.47 0 0 1-.592-.454v-5.03c0-.26.21-.47.47-.47h5.643c.26 0 .47.21.47.47zM20.435 18.9a.47.47 0 0 0-.363-.458L13.489 16.9a.47.47 0 0 0-.578.458v5.05c0 .26.21.47.47.47h6.584c.26 0 .47-.21.47-.47zM13.852 15.583c0 .212.143.399.349.454l5.642 1.511a.47.47 0 0 0 .592-.454v-5.03a.47.47 0 0 0-.47-.47h-5.643a.47.47 0 0 0-.47.47z"/><defs><linearGradient id="a" x1="23" x2="23" y1="0" y2="46" gradientUnits="userSpaceOnUse"><stop stop-color="#0e20cc"/><stop offset="1" stop-color="#4687e5"/></linearGradient></defs></svg>