<svg xmlns="http://www.w3.org/2000/svg" width="177" height="61" fill="none" viewBox="0 0 177 61"><g fill="#101728" clip-path="url(#a)"><path d="M74.67 45.835q-3.385 0-6.79-1.252-3.405-1.251-5.765-3.303l3.693-5.498a15.8 15.8 0 0 0 4.246 2.626q2.4.985 4.575.985 1.806 0 3.036-.657 1.251-.656 1.252-1.743 0-.39-.164-.698-.165-.308-.554-.574a6 6 0 0 0-.78-.452q-.39-.204-1.128-.43-.718-.225-1.252-.35a60 60 0 0 0-1.497-.39q-10.258-2.502-10.258-9.457 0-4 3.139-6.4 3.139-2.421 8.288-2.421 3.22 0 5.95.985 2.748.984 4.472 2.585l-3.324 5.518q-1.312-1.19-3.262-1.908a11 11 0 0 0-3.918-.738q-1.724 0-2.81.595-1.088.595-1.088 1.538 0 1.005 1.272 1.662 1.293.657 3.55 1.19.758.165 1.394.349.657.164 1.806.574 1.17.39 2.092.862.945.472 2.01 1.23 1.068.76 1.765 1.642.718.883 1.19 2.133.492 1.252.492 2.667 0 2.668-1.539 4.78-1.538 2.093-4.185 3.221t-5.908 1.128M106.55 43.352q-2.81 2.483-7.446 2.483-4.637 0-7.448-2.483-2.81-2.502-2.81-6.606V23.904h6.811v11.878q0 1.56.944 2.503.963.945 2.503.944 1.538 0 2.482-.944.964-.944.964-2.503V23.904h6.811v12.842q0 4.104-2.811 6.606M121.157 45.835q-5.149 0-9.314-3.2l3.017-4.288q2.973 2.236 6.092 2.236 1.355 0 2.175-.37.82-.39.82-1.066 0-.698-.862-1.067-.84-.37-2.625-.739l-1.518-.328a27 27 0 0 1-1.498-.451 10.6 10.6 0 0 1-1.539-.616q-.573-.328-1.313-.861-.719-.534-1.127-1.15a7 7 0 0 1-.678-1.517 6.5 6.5 0 0 1-.287-1.97q0-2.298 1.252-3.918 1.251-1.62 3.282-2.38t4.595-.759q4.739 0 8.699 2.77l-3.037 4.287q-2.892-1.805-5.415-1.805-1.15 0-1.888.308-.718.308-.718.943 0 .677.82 1.047.821.348 2.626.718.883.164 1.498.307.616.144 1.518.431a9 9 0 0 1 1.518.616q.637.328 1.333.861a4.7 4.7 0 0 1 1.129 1.15q.43.635.698 1.538.287.882.287 1.949 0 3.467-2.688 5.395-2.667 1.928-6.852 1.928M146.678 23.391q3.632 0 5.847 2.195 2.236 2.195 2.236 5.826v13.91h-6.811V33.69q0-1.683-.964-2.688-.965-1.026-2.564-1.026-1.765 0-2.852 1.047-1.067 1.045-1.067 2.749v11.55h-6.791v-30.26h6.791v10.852q2.461-2.523 6.175-2.523M162.29 21.586q-1.764 0-2.955-1.17-1.189-1.19-1.189-2.954 0-1.805 1.189-2.974 1.191-1.19 2.955-1.19 1.805 0 2.975 1.19 1.19 1.169 1.19 2.974 0 1.764-1.19 2.954-1.17 1.17-2.975 1.17m-3.385 23.736V23.904h6.79v21.418z"/><path fill-rule="evenodd" d="M44.089 27.362c.482 1.07.607 2.015.126 2.666-.461.65-1.404.84-2.556.734-2.075-.168-4.799-1.301-7.439-3.19s-4.588-4.114-5.405-6.024c-.461-1.07-.587-2.015-.126-2.666.462-.65 1.404-.84 2.577-.755 2.053.189 4.799 1.301 7.417 3.19 2.64 1.89 4.589 4.135 5.406 6.045" clip-rule="evenodd"/><path fill-rule="evenodd" d="M53.68 30.368q-.17-.499-.394-1.011c-1.717-3.988-5.761-8.71-11.272-12.677-5.53-3.947-11.272-6.276-15.609-6.634-3.142-.252-5.572.525-6.83 2.288l-8.653 12.09c-1.257 1.763-1.215 4.323.042 7.22 1.15 2.635 3.295 5.59 6.215 8.431a43.6 43.6 0 0 0 5.078 4.225c5.51 3.967 11.272 6.276 15.609 6.654 3.121.252 5.573-.525 6.83-2.288l8.633-12.09c1.108-1.555 1.206-3.73.352-6.209zm-1.546 5.327-.063.104c-1.026 1.323-2.975 1.763-5.448 1.575-4.127-.336-9.595-2.582-14.854-6.36-5.26-3.778-9.135-8.248-10.79-12.068-.985-2.267-1.195-4.261-.252-5.667l.043-.084c1.005-1.406 2.996-1.868 5.51-1.658 4.127.335 9.595 2.581 14.855 6.359 5.279 3.778 9.156 8.249 10.81 12.048.986 2.309 1.195 4.365.189 5.75" clip-rule="evenodd"/></g><defs><clipPath id="a"><path fill="#fff" d="M10 10h156.518v41H10z"/></clipPath></defs></svg>