<svg xmlns="http://www.w3.org/2000/svg" width="72" height="72" fill="none" viewBox="0 0 72 72"><path fill="url(#a)" d="M55.619 54.646a2.846 2.846 0 0 0 0 3.997l6.666 6.65a2.843 2.843 0 0 0 3.883-.122 2.83 2.83 0 0 0 .123-3.875l-6.665-6.65a2.86 2.86 0 0 0-4.007 0"/><path fill="url(#b)" d="M49.158 29.191C20.952 44.306 20.238 45.288 18.81 43.842l-.197.125 2.803 2.802c2.874 2.873 2.32 2.087 28.313-11.724 7.141-3.82 11.818 10.582 4.428 17.97a13.087 13.087 0 0 1-18.53 0c-2.786-2.767-2.786-2.784-7.963 0l3.945 3.925a18.82 18.82 0 0 0 26.6 0c11.086-11.135 3.445-28.552-5.48-28.552a7.14 7.14 0 0 0-3.428.893"/><path fill="url(#c)" d="M25.276 5c-2.549.005-5.071.507-7.423 1.476a19.4 19.4 0 0 0-6.284 4.175c-12.707 12.557-1.089 33.222 9.204 27.786C49.511 23.226 50.237 22.293 51.725 23.71l.2-.143-2.85-2.817c-2.923-2.888-2.36-2.08-28.792 11.804-7.261 3.82-12.018-10.656-4.502-18.082a13.3 13.3 0 0 1 4.321-2.86 13.44 13.44 0 0 1 10.201 0 13.3 13.3 0 0 1 4.322 2.86c2.832 2.78 2.832 2.798 8.096 0l-4.012-4a18.8 18.8 0 0 0-6.146-4.011c-2.296-.924-4.79-1.48-7.27-1.46"/><path fill="url(#d)" d="M51.723 23.71c-1.488-1.416-2.214-.483-30.952 14.728l-.49-5.884c26.432-13.884 25.87-14.69 28.792-11.803l2.85 2.816z"/><path fill="url(#e)" d="M18.813 43.662c1.489 1.417 2.215.484 30.952-14.727l.49 5.883C23.823 48.703 24.386 49.51 21.463 46.622l-2.85-2.817z"/><path fill="#9bf7c3" d="M11.586 10.651a19.4 19.4 0 0 1 6.283-4.175A19.6 19.6 0 0 1 25.292 5h.018c2.48-.018 4.974.537 7.27 1.461a18.8 18.8 0 0 1 6.146 4.01l4.012 4c-5.253 2.793-5.265 2.781-8.078.02l-.019-.02a13.3 13.3 0 0 0-4.321-2.858 13.44 13.44 0 0 0-10.201 0 13.3 13.3 0 0 0-4.321 2.859z"/><defs><linearGradient id="a" x1="57.404" x2="65.882" y1="55.811" y2="64.994" gradientUnits="userSpaceOnUse"><stop offset=".094" stop-color="#eba7ac"/><stop offset=".536" stop-color="#f3d285"/></linearGradient><linearGradient id="b" x1="52.886" x2="41.214" y1="26.747" y2="62.46" gradientUnits="userSpaceOnUse"><stop offset=".171" stop-color="#ff7ad9"/><stop offset=".8" stop-color="#f3d583"/></linearGradient><linearGradient id="c" x1="-1.453" x2="24.04" y1="11.762" y2="37.211" gradientUnits="userSpaceOnUse"><stop offset=".385" stop-color="#9bf6c3"/><stop offset=".804" stop-color="#6850dd"/></linearGradient><linearGradient id="d" x1="50.493" x2="26.719" y1="20.571" y2="31.851" gradientUnits="userSpaceOnUse"><stop stop-color="#ff7ad9"/><stop offset=".464" stop-color="#684fdc"/></linearGradient><linearGradient id="e" x1="23.206" x2="43.82" y1="45.412" y2="35.527" gradientUnits="userSpaceOnUse"><stop offset=".246" stop-color="#684fdc"/><stop offset=".969" stop-color="#ff7ad9"/></linearGradient></defs></svg>