<svg xmlns="http://www.w3.org/2000/svg" width="72" height="72" fill="none" viewBox="0 0 72 72"><circle cx="36.5" cy="36" r="32" fill="#a216e3"/><mask id="a" width="44" height="44" x="15" y="15" maskUnits="userSpaceOnUse" style="mask-type:luminance"><path fill="#fff" d="M58.069 15.677H15.402v42.667H58.07z"/></mask><g mask="url(#a)"><path fill="#fff" fill-rule="evenodd" d="M15.402 44.428v-7.417c0-11.783 9.551-21.334 21.334-21.334 5.81 0 11.08 2.324 14.927 6.093l-4.535 2.834a16.12 16.12 0 0 0-10.392-3.777c-8.938 0-16.184 7.245-16.184 16.183h5.15zm10.863 4.923a16.12 16.12 0 0 0 10.47 3.843c8.939 0 16.185-7.245 16.185-16.184h-5.15l10.299-7.54v7.54c0 11.782-9.551 21.334-21.333 21.334a21.27 21.27 0 0 1-15-6.163zm18.654-5.26h-5.885l-2.298-3.105-2.299 3.105h-5.885l5.332-6.958-5.332-7.203h5.517l2.667 3.48 2.667-3.48h5.517l-5.332 7.203z" clip-rule="evenodd"/></g></svg>