<svg xmlns="http://www.w3.org/2000/svg" width="168" height="30" fill="none"><path fill="#f3f5f0" d="M26.062 4.238 18.425 0l-2.402 1.333v11.313l1.312.727V4.758l4.502 2.498.004-.002.872.483.73-.402v-.68L17.335 3.27V2.093l1.09-.605 6.326 3.51v3.126L21.714 9.8l-.102-.05a1.304 1.304 0 0 0-1.879 1.163c0 .716.588 1.3 1.31 1.3a1.3 1.3 0 0 0 1.296-1.166l.013-.113 3.065-1.69 2.842 1.577v6.978l-2.845 1.578-11.566-6.418V1.333L11.446 0 3.81 4.238v3.868L.301 10.05v8.502l3.508 1.945v3.874l7.638 4.239 2.401-1.333V15.938l-1.312-.725v8.64l-5.38-2.98-.728.402v.68l6.108 3.384v1.177l-1.09.605-6.326-3.51v-3.126l3.038-1.676.1.05a1.305 1.305 0 0 0 1.881-1.163c0-.716-.588-1.3-1.312-1.3-.67 0-1.225.503-1.297 1.166l-.01.113-3.065 1.69-2.843-1.577V10.81l2.845-1.578 11.567 6.418v11.625l2.402 1.333 7.637-4.239v-3.868l3.508-1.943v-8.502L26.063 8.11V4.236zM12.536 12.23 5.8 8.49l6.736-3.732zm0-8.96L5.12 7.378v-2.38l6.327-3.51 1.09.604zm4.8 13.11 6.735 3.74-6.736 3.733V16.38Zm7.415 7.232-6.326 3.51-1.09-.604V25.34l7.416-4.109zm24.473-9.975q-1.177-.702-2.565-1.117a111 111 0 0 1-2.567-.797q-1.177-.382-1.962-.862-.785-.477-.785-1.372 0-.828.819-1.531.816-.7 2.288-.701 1.472 0 2.289.765c.37.347.61.785.73 1.307h3.798a6.2 6.2 0 0 0-.443-1.738 5.9 5.9 0 0 0-1.406-2.025 6.5 6.5 0 0 0-2.173-1.34q-1.259-.478-2.795-.478-1.67 0-2.992.477-1.323.48-2.255 1.262a5.45 5.45 0 0 0-1.439 1.835 5 5 0 0 0-.506 2.2q0 1.755.784 2.822a6.2 6.2 0 0 0 1.96 1.738q1.177.67 2.568 1.052a47 47 0 0 1 2.567.782q1.177.4 1.962.908.785.512.785 1.437c0 .617-.285 1.197-.852 1.674q-.85.719-2.582.718-1.603.001-2.519-.845-.913-.844-.913-2.183h-3.923q-.002 1.435.507 2.631a6 6 0 0 0 1.453 2.074c.632.586 1.402 1.035 2.306 1.355q1.355.478 3.09.479c1.156 0 2.162-.165 3.089-.496q1.387-.493 2.37-1.307a6.1 6.1 0 0 0 1.519-1.834q.54-1.02.54-2.105 0-1.817-.785-2.952a6.2 6.2 0 0 0-1.962-1.832Zm18.602 5.103L64.72 9.33h-2.288l-3.107 9.41-2.94-9.41h-3.76l4.904 14.673h3.267l2.78-8.772 2.778 8.772h3.27L74.528 9.33H70.77zm96.95-9.41-.655 1.435a7.3 7.3 0 0 0-1.144-.797 9 9 0 0 0-1.341-.542 5.7 5.7 0 0 0-1.765-.255q-1.408 0-2.663.542a6.7 6.7 0 0 0-2.192 1.5 7.1 7.1 0 0 0-1.471 2.264q-.54 1.309-.54 2.872 0 1.561.54 2.87a7.1 7.1 0 0 0 1.471 2.265 6.7 6.7 0 0 0 2.192 1.498 6.6 6.6 0 0 0 2.663.544q.914 0 1.635-.241a6 6 0 0 0 1.243-.559q.587-.348 1.045-.796v1.117q0 1.338-.916 2.186-.916.845-2.517.845-.85 0-1.406-.224a4.5 4.5 0 0 1-.916-.48 2.6 2.6 0 0 1-.622-.731l-3.003 1.642c.159.26.328.513.521.75q.749.923 2.042 1.658 1.291.735 3.384.735 3.432 0 5.311-1.755 1.88-1.753 1.881-4.626V9.331h-2.778zm-1.113 8.454a3.9 3.9 0 0 1-.785 1.165 3.7 3.7 0 0 1-1.144.78 3.52 3.52 0 0 1-2.778 0 3.6 3.6 0 0 1-1.914-1.945 3.7 3.7 0 0 1-.276-1.435q0-.766.276-1.435a3.59 3.59 0 0 1 1.914-1.946 3.4 3.4 0 0 1 1.406-.289c.501 0 .937.096 1.372.29a3.7 3.7 0 0 1 1.929 1.945q.294.668.295 1.435 0 .766-.295 1.435m-40.312-3.302a6 6 0 0 0-1.644-1.092c.446-.24.856-.542 1.218-.897q.46-.448.853-1.186.396-.738.396-1.766 0-1.154-.461-2.164a5.5 5.5 0 0 0-1.299-1.78 6.3 6.3 0 0 0-1.989-1.22 6.8 6.8 0 0 0-2.498-.448h-8.55v20.21h8.878q1.48 0 2.711-.48a7.3 7.3 0 0 0 2.138-1.268 5.55 5.55 0 0 0 1.397-1.829 5.1 5.1 0 0 0 .494-2.198q0-1.378-.51-2.341t-1.134-1.54Zm-10.026-7.185h4.274q1.116 0 1.872.722.757.72.757 1.684 0 .963-.757 1.684-.755.72-1.872.721h-4.274zm6.853 12.639q-.869.834-2.251.833h-4.602v-5.774h4.602q1.381 0 2.251.835.873.835.873 2.052c0 1.217-.291 1.498-.873 2.055zm19.145-8.564a7.7 7.7 0 0 0-2.387-1.611 7.2 7.2 0 0 0-2.892-.59 7.2 7.2 0 0 0-2.893.59 7.74 7.74 0 0 0-4.021 3.987 7.1 7.1 0 0 0-.605 2.918q0 1.565.605 2.919a7.7 7.7 0 0 0 1.636 2.376 7.7 7.7 0 0 0 2.385 1.611 7.15 7.15 0 0 0 2.893.592 7.1 7.1 0 0 0 2.892-.592 7.7 7.7 0 0 0 2.387-1.611 7.7 7.7 0 0 0 1.636-2.376 7.1 7.1 0 0 0 .605-2.919 7.1 7.1 0 0 0-.605-2.918 7.8 7.8 0 0 0-1.636-2.376m-2.598 8.198q-1.08 1.085-2.682 1.084c-1.602-.001-1.96-.36-2.68-1.084q-1.08-1.084-1.079-2.904 0-1.82 1.079-2.901 1.08-1.086 2.68-1.086t2.682 1.086q1.08 1.084 1.079 2.901 0 1.817-1.079 2.904m14.279-10.368a3 3 0 0 0-.456-.031q-.853 0-1.521.27a4.8 4.8 0 0 0-1.127.623 4.5 4.5 0 0 0-.95.862l-.653-1.597h-2.78v14.673h3.761v-7.815q0-1.433.866-2.312.867-.875 2.239-.876.296 0 .54.031.244.032.41.065.194.031.36.063V9.33q-.166-.03-.329-.063-.163-.032-.36-.065M79.76 9.33h-3.761v14.673h3.761zm-1.88-6.06q-.85 0-1.488.621-.638.623-.638 1.452t.638 1.451q.637.622 1.487.622t1.488-.622q.637-.62.638-1.451-.001-.832-.638-1.452-.638-.622-1.488-.622Zm15.365 14.306a4.7 4.7 0 0 0-1.423-1.324 7.4 7.4 0 0 0-1.847-.782q-.997-.27-1.847-.508a8.3 8.3 0 0 1-1.422-.527q-.572-.29-.572-.797 0-.606.473-1.021.474-.415 1.324-.416.851.001 1.423.479.57.479.703.958l3.07-1.682a5.1 5.1 0 0 0-1.19-1.508q-1.455-1.277-4.169-1.276-1.242 0-2.222.366a5.7 5.7 0 0 0-1.7.973 4.1 4.1 0 0 0-1.096 1.42 4 4 0 0 0-.375 1.707q0 1.277.572 2.057.57.782 1.422 1.276.85.495 1.847.748.996.258 1.847.496.85.24 1.422.525.572.289.572.8 0 .604-.572 1.1-.573.492-1.554.493c-.981.001-1.175-.169-1.569-.51a2.1 2.1 0 0 1-.72-1.242l-3.146 1.72a4.9 4.9 0 0 0 1.3 1.756q1.521 1.305 4.464 1.305 1.274 0 2.303-.366 1.032-.368 1.749-.973a4.25 4.25 0 0 0 1.113-1.418c.262-.544.392-1.11.392-1.707q0-1.31-.572-2.122m13.239 0a4.6 4.6 0 0 0-1.422-1.324 7.4 7.4 0 0 0-1.847-.782q-.998-.27-1.847-.508a8.3 8.3 0 0 1-1.423-.527q-.57-.29-.571-.797a1.3 1.3 0 0 1 .475-1.021q.474-.415 1.324-.416.85.001 1.42.479.571.479.703.958l3.071-1.682a5.1 5.1 0 0 0-1.19-1.508q-1.456-1.277-4.169-1.276-1.244 0-2.222.366a5.7 5.7 0 0 0-1.7.973 4.04 4.04 0 0 0-1.47 3.128q0 1.276.57 2.056.571.782 1.422 1.276.85.495 1.848.748.997.258 1.847.496.848.24 1.422.525.571.289.571.8 0 .604-.571 1.1-.574.492-1.552.493c-.978.001-1.177-.169-1.57-.51a2.1 2.1 0 0 1-.719-1.242l-3.148 1.72a4.9 4.9 0 0 0 1.301 1.756q1.518 1.305 4.462 1.305 1.274 0 2.306-.366 1.028-.368 1.749-.973a4.25 4.25 0 0 0 1.11-1.418c.262-.544.392-1.11.392-1.707q0-1.31-.572-2.122"/></svg>