<svg xmlns="http://www.w3.org/2000/svg" width="168" height="30" fill="none"><path fill="#F3F5F0" d="M26.062 4.238 18.425 0l-2.402 1.333v11.313l1.312.727V4.758l4.502 2.498.004-.002.872.483.73-.402v-.68L17.335 3.27V2.093l1.09-.605 6.326 3.51v3.126L21.714 9.8l-.102-.05a1.304 1.304 0 0 0-1.879 1.163c0 .716.588 1.3 1.31 1.3a1.3 1.3 0 0 0 1.296-1.166l.013-.113 3.065-1.69 2.842 1.577v6.978l-2.845 1.578-11.566-6.418V1.333L11.446 0 3.81 4.238v3.868L.301 10.05v8.502l3.508 1.945v3.874l7.638 4.239 2.401-1.333V15.938l-1.312-.725v8.64l-5.38-2.98-.728.402v.68l6.108 3.384v1.177l-1.09.605-6.326-3.51v-3.126l3.038-1.676.1.05a1.305 1.305 0 0 0 1.881-1.163c0-.716-.588-1.3-1.312-1.3-.67 0-1.225.503-1.297 1.166l-.01.113-3.065 1.69-2.843-1.577V10.81l2.845-1.578 11.567 6.418v11.625l2.402 1.333 7.637-4.239v-3.868l3.508-1.943v-8.502L26.063 8.11V4.236v.002ZM12.536 12.23 5.8 8.49l6.736-3.732v7.473Zm0-8.96L5.12 7.378v-2.38l6.327-3.51 1.09.604v1.177Zm4.8 13.11 6.735 3.74-6.736 3.733V16.38Zm7.415 7.232-6.326 3.51-1.09-.604V25.34l7.416-4.109v2.38Zm24.473-9.975c-.784-.468-1.64-.84-2.565-1.117a110.54 110.54 0 0 1-2.567-.797c-.785-.255-1.439-.542-1.962-.862-.523-.317-.785-.776-.785-1.372 0-.552.272-1.062.819-1.531.543-.466 1.307-.701 2.288-.701.982 0 1.743.255 2.289.765.37.347.61.785.73 1.307h3.798a6.24 6.24 0 0 0-.443-1.738 5.867 5.867 0 0 0-1.406-2.025 6.507 6.507 0 0 0-2.173-1.34c-.84-.318-1.77-.478-2.795-.478-1.114 0-2.11.16-2.992.477-.883.32-1.633.741-2.255 1.262a5.453 5.453 0 0 0-1.439 1.835 4.99 4.99 0 0 0-.506 2.2c0 1.17.261 2.11.784 2.822a6.19 6.19 0 0 0 1.96 1.738c.785.448 1.64.797 2.568 1.052a47.33 47.33 0 0 1 2.567.782c.784.266 1.439.57 1.962.908.523.341.785.82.785 1.437 0 .617-.285 1.197-.852 1.674-.567.48-1.427.718-2.582.718-1.069 0-1.908-.28-2.519-.845-.608-.563-.913-1.29-.913-2.183h-3.923c0 .956.167 1.834.507 2.631a5.963 5.963 0 0 0 1.453 2.074c.632.586 1.402 1.035 2.306 1.355.904.318 1.932.479 3.09.479 1.156 0 2.162-.165 3.089-.496.924-.328 1.715-.765 2.37-1.307a6.059 6.059 0 0 0 1.519-1.834c.36-.68.54-1.381.54-2.105 0-1.211-.262-2.196-.785-2.952a6.238 6.238 0 0 0-1.962-1.832Zm18.602 5.103L64.72 9.33h-2.288l-3.107 9.41-2.94-9.41h-3.76l4.904 14.673h3.267l2.78-8.772 2.778 8.772h3.27L74.528 9.33H70.77l-2.944 9.41Zm96.95-9.41-.655 1.435a7.311 7.311 0 0 0-1.144-.797 9.007 9.007 0 0 0-1.341-.542 5.711 5.711 0 0 0-1.765-.255c-.938 0-1.827.18-2.663.542a6.742 6.742 0 0 0-2.192 1.5 7.12 7.12 0 0 0-1.471 2.264c-.36.872-.54 1.83-.54 2.872 0 1.041.18 1.997.54 2.87a7.11 7.11 0 0 0 1.471 2.265 6.707 6.707 0 0 0 2.192 1.498 6.644 6.644 0 0 0 2.663.544c.61 0 1.154-.08 1.635-.241a6.04 6.04 0 0 0 1.243-.559c.391-.232.74-.497 1.045-.796v1.117c0 .893-.305 1.62-.916 2.186-.611.563-1.45.845-2.517.845-.567 0-1.036-.075-1.406-.224a4.489 4.489 0 0 1-.916-.48 2.556 2.556 0 0 1-.622-.731l-3.003 1.642c.159.26.328.513.521.75.499.616 1.18 1.168 2.042 1.658.861.49 1.989.735 3.384.735 2.289 0 4.058-.586 5.311-1.755 1.253-1.17 1.881-2.71 1.881-4.626V9.331h-2.778l.001-.001Zm-1.113 8.454a3.85 3.85 0 0 1-.785 1.165 3.67 3.67 0 0 1-1.144.78 3.523 3.523 0 0 1-2.778 0 3.604 3.604 0 0 1-1.914-1.945 3.724 3.724 0 0 1-.276-1.435c0-.51.092-.99.276-1.435a3.587 3.587 0 0 1 1.914-1.946 3.433 3.433 0 0 1 1.406-.289c.501 0 .937.096 1.372.29a3.693 3.693 0 0 1 1.929 1.945c.196.445.295.924.295 1.435 0 .51-.099.99-.295 1.435Zm-40.312-3.302a6.058 6.058 0 0 0-1.644-1.092c.446-.24.856-.542 1.218-.897.305-.299.592-.694.853-1.186.264-.492.396-1.08.396-1.766 0-.77-.153-1.49-.461-2.164a5.477 5.477 0 0 0-1.299-1.78 6.309 6.309 0 0 0-1.989-1.22 6.83 6.83 0 0 0-2.498-.448h-8.55v20.21h8.878c.987 0 1.891-.16 2.711-.48a7.292 7.292 0 0 0 2.138-1.268 5.554 5.554 0 0 0 1.397-1.829 5.078 5.078 0 0 0 .494-2.198c0-.919-.169-1.699-.51-2.341-.339-.642-.718-1.155-1.134-1.54Zm-10.026-7.185h4.274c.744 0 1.368.24 1.872.722.505.48.757 1.041.757 1.684 0 .642-.252 1.203-.757 1.684-.504.48-1.127.721-1.872.721h-4.274V7.297Zm6.853 12.639c-.579.556-1.33.833-2.251.833h-4.602v-5.774h4.602c.921 0 1.671.279 2.251.835.582.557.873 1.24.873 2.052s-.291 1.498-.873 2.055v-.001Zm19.145-8.564a7.737 7.737 0 0 0-2.387-1.611 7.162 7.162 0 0 0-2.892-.59 7.174 7.174 0 0 0-2.893.59 7.74 7.74 0 0 0-4.021 3.987 7.084 7.084 0 0 0-.605 2.918c0 1.042.201 2.017.605 2.919a7.694 7.694 0 0 0 1.636 2.376 7.683 7.683 0 0 0 2.385 1.611 7.146 7.146 0 0 0 2.893.592 7.131 7.131 0 0 0 2.892-.592 7.657 7.657 0 0 0 2.387-1.611 7.728 7.728 0 0 0 1.636-2.376 7.093 7.093 0 0 0 .605-2.919 7.1 7.1 0 0 0-.605-2.918 7.794 7.794 0 0 0-1.636-2.376Zm-2.598 8.198c-.72.724-1.613 1.084-2.682 1.084s-1.96-.36-2.68-1.084c-.72-.724-1.079-1.69-1.079-2.904 0-1.213.36-2.18 1.079-2.901.72-.724 1.613-1.086 2.68-1.086 1.067 0 1.962.362 2.682 1.086.72.722 1.079 1.69 1.079 2.901 0 1.211-.36 2.18-1.079 2.904Zm14.279-10.368a2.917 2.917 0 0 0-.456-.031c-.569 0-1.075.09-1.521.27a4.8 4.8 0 0 0-1.127.623 4.516 4.516 0 0 0-.95.862l-.653-1.597h-2.78v14.673h3.761v-7.815c0-.956.289-1.726.866-2.312.578-.583 1.324-.876 2.239-.876.197 0 .377.01.54.031.163.021.299.043.41.065.13.021.249.042.36.063V9.33c-.111-.02-.22-.042-.329-.063-.109-.02-.228-.044-.36-.065ZM79.76 9.33h-3.761v14.673h3.761V9.33Zm-1.88-6.06c-.567 0-1.063.207-1.488.621-.425.414-.638.9-.638 1.452 0 .552.213 1.037.638 1.451.425.415.92.622 1.487.622.567 0 1.063-.207 1.488-.622.424-.414.638-.897.638-1.451 0-.555-.214-1.038-.638-1.452-.425-.414-.921-.622-1.488-.622Zm15.365 14.306a4.664 4.664 0 0 0-1.423-1.324 7.357 7.357 0 0 0-1.847-.782c-.665-.18-1.28-.349-1.847-.508a8.284 8.284 0 0 1-1.422-.527c-.381-.193-.572-.459-.572-.797 0-.404.158-.745.473-1.021.316-.276.758-.416 1.324-.416.567 0 1.042.161 1.423.479.38.32.615.638.703.958l3.07-1.682a5.095 5.095 0 0 0-1.19-1.508c-.97-.852-2.36-1.276-4.169-1.276-.828 0-1.569.123-2.222.366a5.724 5.724 0 0 0-1.7.973 4.12 4.12 0 0 0-1.096 1.42 4.015 4.015 0 0 0-.375 1.707c0 .852.19 1.536.572 2.057.38.521.855.947 1.422 1.276.567.33 1.182.58 1.847.748.663.172 1.28.337 1.847.496.567.16 1.04.335 1.422.525.381.193.572.459.572.8 0 .402-.19.77-.572 1.1-.382.328-.9.493-1.554.493s-1.175-.169-1.569-.51a2.112 2.112 0 0 1-.72-1.242l-3.146 1.72a4.89 4.89 0 0 0 1.3 1.756c1.014.87 2.502 1.305 4.464 1.305.85 0 1.617-.121 2.303-.366.689-.245 1.27-.57 1.749-.973a4.247 4.247 0 0 0 1.113-1.418c.262-.544.392-1.11.392-1.707 0-.873-.191-1.58-.572-2.122Zm13.239 0a4.63 4.63 0 0 0-1.422-1.324 7.363 7.363 0 0 0-1.847-.782c-.665-.18-1.281-.349-1.847-.508a8.336 8.336 0 0 1-1.423-.527c-.38-.193-.571-.459-.571-.797a1.3 1.3 0 0 1 .475-1.021c.316-.276.757-.416 1.324-.416.567 0 1.04.161 1.42.479.381.32.615.638.703.958l3.071-1.682a5.1 5.1 0 0 0-1.19-1.508c-.971-.852-2.36-1.276-4.169-1.276-.829 0-1.57.123-2.222.366a5.725 5.725 0 0 0-1.7.973 4.044 4.044 0 0 0-1.47 3.128c-.001.851.19 1.535.57 2.056.38.521.856.947 1.422 1.276.567.33 1.183.58 1.848.748.665.172 1.28.337 1.847.496.566.16 1.039.335 1.422.525.381.193.571.459.571.8 0 .402-.19.77-.571 1.1-.383.328-.9.493-1.552.493s-1.177-.169-1.57-.51a2.099 2.099 0 0 1-.719-1.242l-3.148 1.72a4.905 4.905 0 0 0 1.301 1.756c1.012.87 2.5 1.305 4.462 1.305.85 0 1.617-.121 2.306-.366.686-.245 1.268-.57 1.749-.973a4.254 4.254 0 0 0 1.11-1.418c.262-.544.392-1.11.392-1.707 0-.873-.191-1.58-.572-2.122Z"/></svg>