<svg xmlns="http://www.w3.org/2000/svg" width="834" height="705" fill="none" viewBox="0 0 834 705"><path fill="#ef9c32" d="M211.949 222c0 104.881 85.022 190 189.903 190s189.904-85.119 189.904-190S506.733 32 401.852 32s-189.903 85.119-189.903 190"/><path fill="#002825" d="m536.744 139.166-17.169-1a5.17 5.17 0 0 1-3.259-1.44 5.13 5.13 0 0 1-1.544-3.201l-1.505-15.816a1.147 1.147 0 0 0-1.866-.675 1.15 1.15 0 0 0-.393.675l-1.541 15.816a5.06 5.06 0 0 1-1.528 3.218 5.1 5.1 0 0 1-3.275 1.423l-17.168 1.072a1.146 1.146 0 0 0-.945 1.124 1.14 1.14 0 0 0 .945 1.125l17.168 1a5.2 5.2 0 0 1 3.251 1.448 5.16 5.16 0 0 1 1.552 3.193l1.506 15.817a1.146 1.146 0 0 0 1.865.675c.206-.173.345-.412.393-.675l1.505-15.817a5.13 5.13 0 0 1 1.544-3.201 5.17 5.17 0 0 1 3.259-1.44l17.205-1.072a1.144 1.144 0 0 0 .945-1.124 1.145 1.145 0 0 0-.945-1.125"/><path fill="#002825" fill-rule="evenodd" d="m500.65 198.434 2.832 1.999a15.5 15.5 0 0 1 5.627 6.819c.565 1.553.785 3.21.645 4.856a33 33 0 0 1-.609 3.82 29.3 29.3 0 0 1-2.688 7.141 24 24 0 0 1-2.187 3.285l-.394.535.502 3.178c.156 1.267.24 2.543.251 3.82a34.6 34.6 0 0 1-3.349 14.632 34.76 34.76 0 0 1-9.232 11.86l-.466.392-.574.179a105.4 105.4 0 0 1-15.376 4.213 67.4 67.4 0 0 1-16.237 1.392h-.788a162.5 162.5 0 0 0-33.119-6.783q-1.076-.093-2.178-.177c-2.167-.168-4.409-.343-6.711-.716a48 48 0 0 1-8.925-2.285 49.5 49.5 0 0 0-15.627-2.713h-.18a20.636 20.636 0 0 0-2.616 16.423 70 70 0 0 0 7.168 19.851 186 186 0 0 1 10.395 20.28 51.5 51.5 0 0 1 3.584 11.532c.776 4.33.455 8.785-.932 12.96l-1.756 4.963-4.265-3.142a12.4 12.4 0 0 0-2.044-1.178 57.5 57.5 0 0 1-1.433 7.141 49.9 49.9 0 0 1-5.126 11.674c-2.921-23.18-19.197-29.822-35.104-36.313-7.123-2.907-14.172-5.783-19.914-10.101-18.567-13.96-20.072-30.276-8.603-58.839a132 132 0 0 0 7.599-27.241 92 92 0 0 1 1.183-6.248q.059-.435.179-.857l.323-1.464c.042.94.068 1.876.095 2.81.064 2.258.128 4.499.407 6.723a32 32 0 0 0 1.792 8.89 10 10 0 0 0 2.043 3.284c.254.296.533.554.859.855.226.209.475.439.754.716q.71.81 1.541 1.5a27.6 27.6 0 0 0 7.527 4.07 73 73 0 0 0 17.706 3.785c5.807.678 11.721.928 17.671.928h.896a57.6 57.6 0 0 1 18.136 3.07 55 55 0 0 0 16.165 2.857 167.8 167.8 0 0 1 34.087 6.89 61.7 61.7 0 0 0 14.086-1.249c3.297-.643 6.559-1.535 9.785-2.499 7.204-3.035 11.971-11.247 2.222-10.176-2.302.159-4.59.481-6.846.964-1.761.321-3.502.961-5.366 1.645-1.664.612-3.426 1.259-5.387 1.747-3.973.93-8.119.832-12.043-.286a34.9 34.9 0 0 0-10.753-2.535 12.96 12.96 0 0 1 5.628-1.678c1.423-.144 2.7-.094 3.93-.046.597.023 1.183.046 1.769.046 3.357.423 6.762.278 10.071-.428 1.671-.476 3.375-1.391 5.216-2.38 1.477-.793 3.042-1.634 4.749-2.333a31.7 31.7 0 0 1 11.792-2.463h2.437c2.832-3.928 5.233-8.284 4.302-11.854a9.2 9.2 0 0 0-4.373-3.178c-.463-.161-1.365-.395-2.534-.698-4.269-1.107-12.106-3.14-15.173-5.942-2.294-2.321-.932-6.998 8.459-8.926a46.4 46.4 0 0 1 13.083-.393 8.66 8.66 0 0 0 4.444-.393l-.537-.464-2.724-1.928-2.76-2.071-10.753-8.176c-1.756-1.321-3.62-2.677-5.341-3.784l-.86-.5-1.684-.714c-1.112-.464-2.223-1-3.334-1.571a45 45 0 0 1-9.462-6.712c-10.502-8.783-22.259-29.991-25.341-36.917a24 24 0 0 0-12.187-11.925 17.404 17.404 0 0 1 14.087 5.926c.902.746 2.587 3.176 4.623 6.111 4.108 5.924 9.644 13.906 13.047 14.24a24.2 24.2 0 0 0 5.412-.821 40 40 0 0 1-4.623-5.284c-1.842-2.42-3.267-4.919-4.644-7.335-.472-.828-.938-1.646-1.414-2.448a46 46 0 0 0-5.699-8.426 18 18 0 0 0-1.613-1.499 11.6 11.6 0 0 0-1.9-1.143c-1.469-.749-2.974-1.392-4.838-2.106s-3.513-1.357-5.448-2.321l-5.018-2.499-10.036-4.856a178 178 0 0 0-20.395-8.247 105.7 105.7 0 0 0-21.219-4.606 46 46 0 0 0-5.161-.393 8.74 8.74 0 0 0-4.014.857c-.658.288-1.338.647-2.068 1.033-.901.476-1.878.993-2.986 1.466l-4.982 2.285a126.5 126.5 0 0 0-18.495 11.354 50.1 50.1 0 0 0-12.259 11.282 40.4 40.4 0 0 1 14.947 2.143 61.6 61.6 0 0 0-19.068 2.713 69 69 0 0 0-8.854 3.285 56.6 56.6 0 0 0-8.279 4.284 36.5 36.5 0 0 0-7.169 5.391 8.8 8.8 0 0 0-2.007 3.106c-.609 1.322-1.183 2.785-1.72 4.249a137.6 137.6 0 0 0-4.947 18.387 146 146 0 0 0-2.867 37.774 72.4 72.4 0 0 0 7.849 29.348 482 482 0 0 0 12.868-17.601c5.305-7.748 10.358-15.745 14.875-23.814 2.358-4.214 4.443-8.622 6.55-13.078 1.928-4.077 3.874-8.193 6.066-12.236a83 83 0 0 1 7.778-12.318 30 30 0 0 1 5.269-5.355 12.07 12.07 0 0 1 6.882-2.749c-8.029 7.176-14.301 26.456-20.502 48.056-5.054 17.531-22.079 57.518-32.832 58.482-4.194.25-5.699-1.749-8.567-5.819l-2.329-3.214a63.9 63.9 0 0 1-9.319-18.851 94 94 0 0 1-3.406-20.279 141 141 0 0 1 .466-20.244 169 169 0 0 1 3.405-19.815 145 145 0 0 1 5.843-19.28c.645-1.571 1.29-3.142 2.079-4.749q.649-1.351 1.469-2.606a19 19 0 0 1 2.008-2.356 37.9 37.9 0 0 1 8.781-6.213 60.2 60.2 0 0 1 16.954-5.748 35.4 35.4 0 0 1 6.738-9.961 68.6 68.6 0 0 1 8.889-7.748 105.7 105.7 0 0 1 19.104-12.175c1.649-.821 3.8-1.785 5.233-2.392.702-.297 1.437-.679 2.241-1.097.839-.436 1.752-.91 2.777-1.366a16 16 0 0 1 6.882-1.5c2.002.025 4.001.168 5.986.428 7.7.865 15.291 2.516 22.652 4.928A180 180 0 0 1 419 113.031l10.18 4.927 5.053 2.5c1.121.603 2.548 1.155 4.066 1.742l.845.328a64 64 0 0 1 5.412 2.393 21.5 21.5 0 0 1 2.903 1.749q1.34 1.07 2.509 2.321a52.7 52.7 0 0 1 7.169 9.711l.241.418c3.707 6.411 7.151 12.368 12.483 15.863l4.265 2.82v.464l-1.182 2.107-3.943 1c-.75.23-1.38.742-1.756 1.428a2.7 2.7 0 0 0-.323 1.107 22 22 0 0 0 0 2.32 11.8 11.8 0 0 1-.538 3.571 20 20 0 0 1-.577 1.65c-.13.336-.243.629-.319.885a2 2 0 0 0 0 1.57 36.7 36.7 0 0 0 9.642 7.141c.896.5 1.828.928 2.796 1.357l1.469.571c.737.333 1.445.727 2.115 1.178 1.91 1.205 3.481 2.382 5.115 3.606l.62.465 10.753 8.211zm-93.298-22.636a14.5 14.5 0 0 1-2.76 0c-6.165-.357-9.176-4.57-8.172-8.89s.394-5.749-.824-5.749a9.2 9.2 0 0 0-4.624 3.571h-.251a.434.434 0 0 1-.476-.271.4.4 0 0 1-.026-.193c1.291-8.962 6.559-9.355 8.889-9.355a113.4 113.4 0 0 1 21.04 3.571 1.01 1.01 0 0 1 .822.776 1 1 0 0 1-.428 1.045 7.64 7.64 0 0 0-2.213 3.33 7.6 7.6 0 0 0-.224 3.989c.43 4.213-4.588 7.497-10.753 8.176" clip-rule="evenodd"/><path fill="#002825" d="M179.535 635.365h83.838v-7.196c-20.767-1.542-26.664-4.883-26.664-14.649V501.982c0-13.107 2.307-15.934 19.485-15.934 18.203 0 23.844 6.168 31.279 26.471h7.435l-4.359-33.924c-.256-2.313-1.794-3.598-4.102-3.341-3.589.257-9.742.514-15.896.514h-97.938c-6.153 0-12.563-.257-16.152-.514-2.308-.257-3.846 1.028-4.102 3.341L148 512.519h7.435c7.435-20.303 13.076-26.471 31.279-26.471 17.178 0 19.485 2.827 19.485 15.934V613.52c0 9.766-5.897 13.107-26.664 14.649z"/><path fill="#002825" d="M312.838 636.907c17.434 0 31.792-8.738 39.996-18.504 2.051-2.827 4.102-2.313 4.102.514.769 10.537 7.692 17.99 20.254 17.99 7.692 0 15.64-2.57 18.716-8.481v-3.855c-7.435 1.799-12.306-.771-12.306-9.766V562.12c0-32.896-12.563-44.975-42.56-44.975-26.664 0-54.353 8.738-54.353 28.527 0 7.453 4.615 13.107 13.076 13.107 7.947 0 14.613-4.626 14.613-14.649 0-11.308 5.128-18.504 19.229-18.504 16.152 0 23.075 10.28 23.075 28.784v4.626c0 6.168-2.051 7.967-7.948 8.738-52.815 6.939-69.48 20.303-69.48 40.863 0 20.046 16.152 28.27 33.586 28.27m14.358-15.163c-13.845 0-19.998-8.738-19.998-18.761 0-10.794 7.178-23.901 39.226-27.242 8.461-.771 10.256 2.313 10.256 8.224v8.481c0 16.962-12.819 29.298-29.484 29.298M524.526 636.907c7.435 0 15.383-2.57 18.716-8.481v-3.855c-7.436 1.799-12.307-.771-12.307-9.766v-54.484c0-33.153-18.46-43.433-37.176-43.433-21.023 0-31.791 11.822-36.662 16.962-3.333 3.855-6.923 1.028-6.923-8.224v-50.115c0-6.425-3.589-9.509-10.255-8.224l-33.074 6.425v6.939c12.563-1.285 16.409 2.57 16.409 14.135v118.22c0 10.794-4.359 14.135-16.409 15.42v6.939h59.738v-6.939c-12.05-1.285-16.409-4.626-16.409-15.42v-46.774c0-19.018 10.512-33.153 27.433-33.153 17.178 0 26.408 14.135 26.408 33.153v48.83c0 15.163 8.717 21.845 20.511 21.845M614.913 636.907c31.535 0 60.506-21.331 60.506-59.881s-28.971-59.881-60.506-59.881-60.507 21.331-60.507 59.881 28.972 59.881 60.507 59.881m5.384-8.738c-21.793 0-36.919-28.527-36.919-61.423 0-28.013 10.768-40.863 26.151-40.863 21.792 0 36.919 28.527 36.919 61.423 0 28.013-11.025 40.863-26.151 40.863"/></svg>