<svg xmlns="http://www.w3.org/2000/svg" width="256" height="256" fill="none" viewBox="0 0 256 256"><mask id="a" width="256" height="256" x="0" y="0" maskUnits="userSpaceOnUse" style="mask-type:alpha"><path fill="#d9d9d9" d="M0 0h256v256H0z"/></mask><path fill="#e81899" d="m248.155 196.475-43.436-59.079a27.57 27.57 0 0 0-19.147-11.113 5.38 5.38 0 0 1-4.053-2.665 5.4 5.4 0 0 1-.272-4.86c2.979-6.874 3.16-14.853-.046-22.151l-29.385-67.194A27.36 27.36 0 0 0 126.74 13a27.38 27.38 0 0 0-25.075 16.413L72.279 96.607a27.66 27.66 0 0 0-.045 22.151 5.45 5.45 0 0 1-.272 4.86 5.4 5.4 0 0 1-4.053 2.665 27.57 27.57 0 0 0-19.147 11.113L5.326 196.475a27.45 27.45 0 0 0-1.663 29.949c5.444 9.417 15.94 14.731 26.739 13.535l72.821-8.115a27.52 27.52 0 0 0 19.177-11.038 5.4 5.4 0 0 1 4.34-2.195c1.709 0 3.312.818 4.341 2.195a27.52 27.52 0 0 0 19.177 11.038l72.821 8.115c10.799 1.212 21.295-4.103 26.739-13.535a27.45 27.45 0 0 0-1.663-29.949M91.275 105.04l29.431-67.27a6.62 6.62 0 0 1 6.049-3.967 6.62 6.62 0 0 1 6.05 3.967l29.431 67.27a6.88 6.88 0 0 1-.544 6.511 6.86 6.86 0 0 1-5.748 3.104H97.551a6.87 6.87 0 0 1-5.747-3.104 6.88 6.88 0 0 1-.544-6.511zm15.108 102.412a6.86 6.86 0 0 1-5.368 3.725l-72.897 8.115a6.62 6.62 0 0 1-6.458-3.255 6.6 6.6 0 0 1 .408-7.222l43.481-59.14c1.377-1.862 3.584-2.922 5.899-2.786a6.84 6.84 0 0 1 5.565 3.422l.046.076 29.113 50.479.045.076a6.85 6.85 0 0 1 .182 6.525zm26.346-22.832a6.93 6.93 0 0 1-5.989 3.467 6.93 6.93 0 0 1-5.989-3.452L98.383 145.86a6.9 6.9 0 0 1 0-6.92 6.93 6.93 0 0 1 5.989-3.467h44.721a6.9 6.9 0 0 1 5.99 3.452 6.9 6.9 0 0 1 0 6.92zm99.107 31.417a6.62 6.62 0 0 1-6.458 3.27l-72.897-8.115a6.86 6.86 0 0 1-5.369-3.725 6.84 6.84 0 0 1 .182-6.525l.045-.076 29.113-50.479.046-.076a6.84 6.84 0 0 1 5.565-3.422 6.88 6.88 0 0 1 5.898 2.786l43.482 59.14a6.63 6.63 0 0 1 .408 7.222z"/></svg>