<svg xmlns="http://www.w3.org/2000/svg" width="539" height="163" fill="none" viewBox="0 0 539 163"><path fill="#fff" d="M302.865 125.657q-3.924 5.586-10.413 8.303-6.49 2.566-14.489 2.566-6.338 0-11.621-1.509-5.131-1.51-9.055-4.529a23 23 0 0 1-6.187-7.699q-2.264-4.68-2.264-10.568 0-6.491 2.566-11.02 2.565-4.68 6.942-7.548 4.527-2.869 10.564-4.227 6.037-1.51 12.678-1.51h20.374q0-8.756-3.925-13.586-3.924-4.832-13.733-4.982-5.735 0-9.96 1.962-4.076 1.963-5.434 6.492H251.25q.906-6.34 4.075-10.719 3.321-4.378 7.848-7.246 4.679-2.868 10.263-4.076a55.5 55.5 0 0 1 11.47-1.208q7.395 0 13.734 1.963 6.338 1.962 11.016 6.642 5.282 5.435 7.094 12.983 1.81 7.548 1.811 16.455v42.873H303.62zm-.905-25.513h-16.601q-4.377 0-8.753.755-4.378.604-7.546 3.17-3.02 2.416-3.019 7.095 0 5.737 4.074 8.756 4.227 2.869 10.264 2.869 4.677 0 8.601-1.208 4.077-1.208 6.943-3.925 2.868-2.868 4.376-7.095 1.66-4.378 1.661-10.417M346.845 22.851q4.68 0 7.698 2.869 3.168 2.867 3.169 7.85 0 4.83-3.169 7.699-3.019 2.868-7.698 2.868-4.98 0-7.998-2.868-3.019-2.869-3.019-7.7 0-4.98 3.019-7.85 3.018-2.868 7.998-2.868m-8.753 112.618V55.912h17.205v79.557zM492.037 54.554q9.506 0 16.751 3.019t12.224 8.453q5.131 5.284 7.698 12.832 2.565 7.549 2.565 16.757 0 9.36-2.565 16.908-2.416 7.398-7.396 12.832t-12.375 8.302q-7.244 2.87-16.902 2.869-9.508 0-16.753-2.869-7.245-3.018-12.224-8.302-4.83-5.435-7.396-12.983-2.414-7.548-2.414-16.757 0-9.208 2.414-16.757 2.566-7.548 7.546-12.832 4.981-5.434 12.226-8.453 7.242-3.02 16.601-3.02m0 67.027q5.885 0 9.96-1.963 4.225-2.113 6.791-5.585 2.717-3.472 3.924-8.152 1.359-4.68 1.359-10.115 0-5.434-1.359-10.114-1.207-4.83-3.924-8.303-2.566-3.473-6.791-5.435-4.075-1.962-9.96-1.962-5.737 0-9.81 1.962-4.077 1.962-6.791 5.435-2.718 3.472-4.076 8.303-1.207 4.68-1.207 10.114t1.207 10.115q1.358 4.68 3.924 8.152 2.717 3.472 6.791 5.585 4.226 1.963 9.962 1.963M404.636 88.37h-12.375V31.894h-17.054V135.47h17.054v-32.155h13.432l20.977 32.155h19.922l-27.166-41.665 25.053-37.892h-19.318zM237.203 55.686h-20.372v-23.79h-5.265l-24.757 33.646v4.35h12.714v39.377q0 13.943 6.28 20.071 6.432 6.13 21.29 6.129h9.497v-15.015h-7.965q-6.893 0-9.344-3.371t-2.45-10.265V69.893h20.372z"/><path fill="#e81899" d="m164.254 127.955-27.422-37.266a17.4 17.4 0 0 0-12.087-7.01 3.404 3.404 0 0 1-2.731-4.747 17.4 17.4 0 0 0-.029-13.973l-18.551-42.386a17.27 17.27 0 0 0-15.83-10.353 17.29 17.29 0 0 0-15.831 10.353L53.22 64.959a17.43 17.43 0 0 0-.028 13.973c.43.993.362 2.13-.172 3.065a3.41 3.41 0 0 1-2.56 1.681 17.4 17.4 0 0 0-12.087 7.01l-27.422 37.267a17.3 17.3 0 0 0-1.05 18.892 17.31 17.31 0 0 0 16.88 8.538l45.974-5.119a17.38 17.38 0 0 0 12.107-6.963 3.41 3.41 0 0 1 2.74-1.385c1.08 0 2.091.516 2.74 1.385a17.38 17.38 0 0 0 12.107 6.963l45.973 5.119a17.28 17.28 0 0 0 16.881-8.538 17.3 17.3 0 0 0-1.05-18.892m-99.04-57.676 18.58-42.434a4.18 4.18 0 0 1 3.819-2.502 4.18 4.18 0 0 1 3.82 2.502l18.579 42.434a4.328 4.328 0 0 1-3.972 6.065H69.176a4.34 4.34 0 0 1-3.629-1.959 4.33 4.33 0 0 1-.334-4.106m9.538 64.601a4.33 4.33 0 0 1-3.39 2.348l-46.02 5.12a4.18 4.18 0 0 1-4.078-2.053 4.16 4.16 0 0 1 .258-4.556l27.45-37.305a4.32 4.32 0 0 1 3.724-1.757 4.32 4.32 0 0 1 3.514 2.158l.028.048 18.38 31.842.029.047a4.32 4.32 0 0 1 .114 4.117zm16.632-14.403a4.37 4.37 0 0 1-3.78 2.187 4.38 4.38 0 0 1-3.782-2.177l-14.121-24.46a4.35 4.35 0 0 1 0-4.364 4.38 4.38 0 0 1 3.78-2.187h28.234c1.557 0 2.998.821 3.781 2.177a4.35 4.35 0 0 1 0 4.365zm62.569 19.818a4.18 4.18 0 0 1-4.078 2.063l-46.021-5.12a4.327 4.327 0 0 1-3.275-6.466l.029-.047 18.379-31.842.029-.048a4.32 4.32 0 0 1 3.514-2.158 4.34 4.34 0 0 1 3.723 1.757l27.451 37.305a4.18 4.18 0 0 1 .249 4.556"/></svg>