<?xml version="1.0" encoding="UTF-8"?>
<svg id="Layer_1" data-name="Layer 1" xmlns="http://www.w3.org/2000/svg" viewBox="0 0 1920 1080">
  <defs>
    <style>
      .cls-1 {
        fill: #fff;
      }
    </style>
  </defs>
  <rect y="1.42" width="1920" height="1080"/>
  <g>
    <path class="cls-1" d="M576.59,636.9h-53.04l49.16-150.06h-62.87l13.71-43.98h175.16l-13.71,43.98h-59.51l-48.9,150.06Z"/>
    <path class="cls-1" d="M773.97,636.9h-125.74l63.13-194.05h125.23l-11.9,37h-72.7l-13.2,41.66h70.38l-11.9,36.48h-70.63l-13.2,41.91h72.19l-11.64,37Z"/>
    <path class="cls-1" d="M830.88,636.9h-42.17l63.39-194.05h70.38l-2.33,104.79,68.56-104.79h77.1l-63.13,194.05h-52.78l41.91-130.4h-.78l-86.16,130.4h-31.31l1.29-131.95h-.52l-43.47,131.95Z"/>
    <path class="cls-1" d="M1125.18,478.81l-20.44,62.61h5.69c12.94,0,23.72-3.02,32.34-9.06,8.62-6.21,14.23-15.01,16.82-26.39,2.24-9.83,1.04-16.82-3.62-20.96-4.66-4.14-12.42-6.21-23.29-6.21h-7.5ZM1073.95,636.9h-53.04l63.13-194.05h64.42c14.83,0,27.6,2.41,38.29,7.24,10.87,4.66,18.8,11.38,23.8,20.18,5.17,8.62,6.9,18.71,5.17,30.27-2.24,15.18-8.11,28.55-17.59,40.1-9.49,11.56-21.82,20.53-37,26.91-15.01,6.21-31.82,9.31-50.45,9.31h-17.34l-19.4,60.03Z"/>
    <path class="cls-1" d="M1342.16,624.48c-17.59,10.35-36.31,15.52-56.15,15.52h-.52c-17.59,0-32.43-3.88-44.5-11.64-11.9-7.93-20.44-18.63-25.61-32.08-5-13.45-6.21-28.2-3.62-44.24,3.28-20.18,10.78-38.81,22.51-55.89,11.73-17.08,26.39-30.7,43.98-40.88,17.59-10.18,36.4-15.27,56.4-15.27h.52c18.28,0,33.38,3.88,45.28,11.64,12.07,7.76,20.44,18.37,25.1,31.82,4.83,13.28,5.86,28.2,3.1,44.76-3.28,19.49-10.78,37.86-22.51,55.11-11.73,17.08-26.39,30.79-43.98,41.14ZM1268.94,591.1c4.66,8.8,12.76,13.19,24.32,13.19h.52c9.49,0,18.28-3.54,26.39-10.61,8.28-7.24,15.27-16.9,20.96-28.98,5.86-12.07,10.18-25.53,12.94-40.36,2.59-14.49,1.55-26.13-3.1-34.93-4.66-8.97-12.68-13.45-24.06-13.45h-.52c-8.8,0-17.34,3.62-25.61,10.87-8.11,7.24-15.18,16.99-21.22,29.24-6.04,12.25-10.44,25.53-13.2,39.84-2.76,14.49-1.9,26.22,2.59,35.19Z"/>
  </g>
</svg>