<svg xmlns="http://www.w3.org/2000/svg" viewBox="0 0 47.27 51.11"><g data-name="Layer 2"><g data-name="Layer 6"><path d="M22.59 7.48a21 21 0 1 1-21 21 21 21 0 0 1 21-21m0-1.49a22.5 22.5 0 1 0 22.47 22.49A22.47 22.47 0 0 0 22.59 6Z"/><path fill-rule="evenodd" d="M47.21 26.27A14 14 0 0 0 33.62 22a14 14 0 0 0-3.69 1.47 14 14 0 0 1-1.76.87 9 9 0 0 1-1.19.39 9.4 9.4 0 0 1-2.31.29 7.55 7.55 0 0 1-6.37-3.28c-2.38-3.59-1.24-7.95 2.35-10.33 2.36-1.45 5-2.37 7.12-4.37 2-1.85 2.75-3.41 2.28-6.83a.27.27 0 0 0-.52-.08c-1.18 2.9-5.75 4-8.45 4.79a49.7 49.7 0 0 0-8.87 3.49A22.69 22.69 0 0 0 1 35.32l.05.1a22.24 22.24 0 0 0 8.57 11.51c10.69 7.49 24 4.3 32.38-4.65.18-.19 0-.51-.24-.4a8.22 8.22 0 0 1-5 .63 8.05 8.05 0 0 1-6.41-6.4 8.18 8.18 0 0 1 4.61-9c.3-.12.61-.25.93-.36 3.14-1 7.25-.86 11.07-.06a.25.25 0 0 0 .25-.42"/></g></g></svg>