<svg xmlns="http://www.w3.org/2000/svg" xmlns:xlink="http://www.w3.org/1999/xlink" viewBox="0 0 180.74 52"><defs><linearGradient id="a" x1="18.7" x2="27.67" y1="31.3" y2="52.43" gradientUnits="userSpaceOnUse"><stop offset="0" stop-color="#f7d45c"/><stop offset="1" stop-color="#de3633"/></linearGradient><linearGradient xlink:href="#a" id="b" x1="8.08" x2="29.01" y1="10.09" y2="33.61"/></defs><g data-name="Layer 2"><g data-name="Layer 6"><path fill="#e04236" d="M119.16 47.88h-8.53V44h-.12a10 10 0 0 1-1.22 1.66 8 8 0 0 1-1.81 1.48 10.8 10.8 0 0 1-2.43 1.07 10.3 10.3 0 0 1-3 .41 12.45 12.45 0 0 1-5.48-1 7.87 7.87 0 0 1-3.26-2.87 11.2 11.2 0 0 1-1.54-4.33 35 35 0 0 1-.35-5.42V19.08h8.89v14.1q0 1.24.09 2.58a8 8 0 0 0 .54 2.46 3.81 3.81 0 0 0 4 2.55 5.4 5.4 0 0 0 2.78-.63 4.24 4.24 0 0 0 1.63-1.65 6.8 6.8 0 0 0 .74-2.35 20 20 0 0 0 .18-2.72V19.08h8.89ZM123.51 19.08H132V23h.12a7 7 0 0 1 1.19-1.66 8.5 8.5 0 0 1 1.83-1.48 10.4 10.4 0 0 1 2.43-1.07 10 10 0 0 1 3-.42 12.25 12.25 0 0 1 5.45 1 7.87 7.87 0 0 1 3.23 2.88 11.6 11.6 0 0 1 1.57 4.32 32.6 32.6 0 0 1 .41 5.4v15.91h-8.89V33.77c0-.83 0-1.69-.08-2.57a8 8 0 0 0-.54-2.46 3.81 3.81 0 0 0-4-2.55 5.53 5.53 0 0 0-2.78.62 4.26 4.26 0 0 0-1.63 1.66 6.5 6.5 0 0 0-.74 2.34 20 20 0 0 0-.18 2.73v14.34h-8.89ZM70.76 9.59h-9.24v38.29h26.37v-8.54H70.76zM153 39.59v-.11c0-6.42 5-9.38 12.15-9.38a21.8 21.8 0 0 1 7.37 1.21v-.5c0-3.45-2.2-5.37-6.47-5.37a22.7 22.7 0 0 0-8.32 1.56l-2.13-6.37a27.2 27.2 0 0 1 11.7-2.35c4.66 0 8 1.2 10.18 3.29s3.26 5.43 3.26 9.43v17h-8.27v-3.14a11.72 11.72 0 0 1-9.11 3.73c-5.68 0-10.36-3.18-10.36-9m19.63-1.92v-.49a1.46 1.46 0 0 0-1-1.38 14 14 0 0 0-4.45-.71c-3.65 0-5.9 1.43-5.9 4.06v.11c0 2.25 1.91 3.57 4.67 3.57 3.99 0 6.69-2.14 6.69-5.16Z"/><ellipse cx="22.98" cy="28.98" fill="#f2e373" rx="22.85" ry="22.88"/><path fill="url(#a)" fill-rule="evenodd" d="M32.27 26.6 1 35.92a22.7 22.7 0 0 0 8.78 11.82c10.88 7.63 24.44 4.38 32.95-4.74.18-.2 0-.53-.25-.41a8.34 8.34 0 0 1-5.13.63 8.17 8.17 0 0 1-6.51-6.5 8.32 8.32 0 0 1 5.82-9.6Z"/><path fill="url(#b)" fill-rule="evenodd" d="M28.66 24.79a13.5 13.5 0 0 0 1.79-.88A14.16 14.16 0 0 1 48 26.73a.25.25 0 0 1-.25.4c-3.89-.82-8.09-1-11.29.07a15.63 15.63 0 0 0-8.63 7.4c-2.87 5-4.05 6.4-8.68 8.21C11.11 46 3.58 43.1 1 35.93A23.07 23.07 0 0 1 12.43 8.59a49.6 49.6 0 0 1 9-3.55c2.74-.78 7.4-1.92 8.6-4.87a.27.27 0 0 1 .52.07c.48 3.49-.32 5.07-2.32 7-2.16 2-4.84 3-7.24 4.44-3.66 2.43-4.82 6.86-2.39 10.52a7.65 7.65 0 0 0 6.48 3.33 9.8 9.8 0 0 0 2.35-.29 9.5 9.5 0 0 0 1.23-.45"/></g></g></svg>