<svg xmlns="http://www.w3.org/2000/svg" viewBox="0 0 179.92 51.11"><g data-name="Layer 2"><g data-name="Layer 6"><path d="M118.34 47h-8.53v-3.92h-.12a9.8 9.8 0 0 1-1.22 1.66 7.7 7.7 0 0 1-1.81 1.48 10.2 10.2 0 0 1-5.39 1.48 12.46 12.46 0 0 1-5.48-1 7.83 7.83 0 0 1-3.26-2.88A11.1 11.1 0 0 1 91 39.47a35 35 0 0 1-.39-5.4V18.19h8.89v14.1q0 1.24.09 2.58a8 8 0 0 0 .54 2.46 4.2 4.2 0 0 0 1.36 1.84 4.26 4.26 0 0 0 2.64.71 5.53 5.53 0 0 0 2.78-.62 4.33 4.33 0 0 0 1.63-1.66 6.7 6.7 0 0 0 .74-2.34 20 20 0 0 0 .18-2.73V18.19h8.89ZM122.69 18.19h8.53v3.91h.12a7.4 7.4 0 0 1 1.19-1.66 8.5 8.5 0 0 1 1.83-1.44 10.8 10.8 0 0 1 2.43-1.07 10.4 10.4 0 0 1 3-.41 12.1 12.1 0 0 1 5.45 1 7.9 7.9 0 0 1 3.23 2.87 11.7 11.7 0 0 1 1.53 4.33 32.4 32.4 0 0 1 .41 5.39V47h-8.89V32.89c0-.83 0-1.69-.08-2.58a8 8 0 0 0-.54-2.46 3.81 3.81 0 0 0-4-2.55 5.53 5.53 0 0 0-2.78.62 4.2 4.2 0 0 0-1.63 1.66 6.6 6.6 0 0 0-.74 2.34 20 20 0 0 0-.18 2.73V47h-8.89ZM69.94 8.7H60.7v38.29h26.37v-8.53H69.94zM152.19 38.71v-.11c0-6.42 5-9.39 12.15-9.39a22 22 0 0 1 7.37 1.21v-.49c0-3.46-2.2-5.38-6.47-5.38a22.7 22.7 0 0 0-8.33 1.59l-2.13-6.36a27.1 27.1 0 0 1 11.7-2.36c4.66 0 8 1.21 10.18 3.29s3.26 5.43 3.26 9.38v17.06h-8.27V44a11.72 11.72 0 0 1-9.11 3.73c-5.68-.03-10.35-3.21-10.35-9.02m19.63-1.92v-.49a1.46 1.46 0 0 0-1-1.39 14.2 14.2 0 0 0-4.45-.7c-3.65 0-5.9 1.42-5.9 4.06v.11c0 2.25 1.91 3.56 4.67 3.56 3.98 0 6.68-2.14 6.68-5.15M22.59 7.48a21 21 0 1 1-21 21 21 21 0 0 1 21-21m0-1.49a22.5 22.5 0 1 0 22.47 22.49A22.47 22.47 0 0 0 22.59 6Z"/><path fill-rule="evenodd" d="M47.21 26.27A14 14 0 0 0 33.62 22a14 14 0 0 0-3.69 1.47 14 14 0 0 1-1.76.87 9 9 0 0 1-1.19.39 9.4 9.4 0 0 1-2.31.29 7.55 7.55 0 0 1-6.37-3.28c-2.38-3.59-1.24-7.95 2.35-10.33 2.36-1.45 5-2.37 7.12-4.37 2-1.85 2.75-3.41 2.28-6.83a.27.27 0 0 0-.52-.08c-1.18 2.9-5.75 4-8.45 4.79a49.7 49.7 0 0 0-8.87 3.49A22.69 22.69 0 0 0 1 35.32l.05.1a22.24 22.24 0 0 0 8.57 11.51c10.69 7.49 24 4.3 32.38-4.65.18-.19 0-.51-.24-.4a8.22 8.22 0 0 1-5 .63 8.05 8.05 0 0 1-6.41-6.4 8.18 8.18 0 0 1 4.61-9c.3-.12.61-.25.93-.36 3.14-1 7.25-.86 11.07-.06a.25.25 0 0 0 .25-.42"/></g></g></svg>