<svg xmlns="http://www.w3.org/2000/svg" xml:space="preserve" id="Layer_1" x="0" y="0" viewBox="0 0 841.9 284"><style>.st1{fill:#fff}</style><path d="M130.1 105.5c25.6 0 46.9-4.3 52.2-10.1-4.5-4.9-20.4-8.8-40.8-9.8v12.2c-3.6.2-7.4.2-11.4.2s-7.7-.1-11.4-.4V85.5c-20.4 1.1-36.4 4.9-40.8 9.8 5.2 5.8 26.6 10.2 52.2 10.2m45.5-57.6v16.8h-34.1v11.6c24 1.2 41.9 6.3 42.1 12.5v12.7c-.1 6.2-18.1 11.3-42.1 12.5v28.6h-22.6v-28.5c-24-1.2-41.9-6.3-42.1-12.5V88.9c.1-6.2 18.1-11.3 42.1-12.5V64.7H84.6V47.9zM71.3 21.2H191c2.8 0 5.4 1.5 6.9 4L232.8 85c1.9 3.1 1.2 7.1-1.4 9.5l-96 93.8c-3.1 3.1-8.2 3.1-11.3 0L28.3 94.7c-2.6-2.6-3.1-6.6-1.2-9.8l37.4-60c1.4-2.2 4-3.7 6.8-3.7" style="fill-rule:evenodd;clip-rule:evenodd;fill:#fff"/><path d="m279.5 53.7 27.7-3.1v26.5h24v23H307v35.8c0 8.4 3.6 12.7 10.8 12.7 4.6 0 8.4-.7 11.5-2.4l6.3 23c-6.3 2.5-13 3.8-20 4.2-11.1.5-20-2.1-26.5-7.9-6.4-5.9-9.7-15.8-9.7-29.8v-35.5h-17V77.1h17V53.7zM365 112.9h45c-.2-4.8-2.6-8.5-6.9-11.1-4.3-2.7-9.7-4.1-15.7-4.1-5.6 0-10.3 1.4-14.2 4.1-4.1 2.7-6.9 6.4-8.2 11.1m69.8 20.3H365c.7 4.8 3.3 8.9 7.9 12.1 4.5 3.1 10.4 4.6 17.9 4.6q15.9 0 24.6-7.5l15.6 17.3c-9.5 9.4-23 14-40.7 14-17 0-30.1-4.6-39.5-13.6-9.3-9.2-13.9-21.4-13.9-36.9 0-14.6 4.6-26.4 13.6-35.4 9.2-9.2 21.4-13.6 36.7-13.6 16.8 0 29.6 5.1 38.5 15.3 9.1 10.3 12 24.7 9.1 43.7M457.9 53.7l27.7-3.1v26.5h24v23h-24.3v35.8c0 8.4 3.6 12.7 10.8 12.7 4.6 0 8.4-.7 11.5-2.4l6.3 23c-6.3 2.5-13 3.8-20 4.2-11.1.5-20-2.1-26.5-7.9-6.4-5.9-9.7-15.8-9.7-29.8v-35.5h-17V77.1h17V53.7zM524.3 37h27.8v51.3c6.8-8.8 16.5-13.2 28.8-13.2 25.2 0 37.9 15.2 37.9 45.5v51h-27.7v-50.7c0-6.6-1.6-11.6-4.9-15.2-3.2-3.6-7.5-5.3-13.1-5.3-6.1 0-11.1 2.1-15.2 6.2-4 4.1-5.9 9.8-5.9 17.1v48.1h-27.7zM657.9 112.9h44.9q-.45-7.2-6.9-11.1c-4.3-2.7-9.7-4.1-15.7-4.1-5.6 0-10.3 1.4-14.2 4.1s-6.8 6.4-8.1 11.1m69.7 20.3h-69.8c.7 4.8 3.3 8.9 7.9 12.1 4.5 3.1 10.4 4.6 17.9 4.6q15.9 0 24.6-7.5l15.6 17.3c-9.5 9.4-23 14-40.7 14-16.9 0-30.1-4.6-39.5-13.6-9.3-9.2-13.9-21.4-13.9-36.9 0-14.6 4.6-26.4 13.6-35.4 9.2-9.2 21.4-13.6 36.7-13.6 16.8 0 29.6 5.1 38.5 15.3 9 10.3 12.1 24.7 9.1 43.7M739.1 76.7h25.7l2.1 10.4c6.1-8.4 14.5-12.7 25.4-12.7 9 0 16.7 2.8 23.3 8.7L804.1 105c-4.5-3.2-9.5-4.8-15.2-4.8-6.3 0-11.5 2-15.7 5.9-4.2 3.8-6.3 9.2-6.3 16v49.4h-27.7V76.7zM523.4 233c0-21.2 11.4-30.2 31.8-30.2 12.2 0 19.9 3.5 25 8.9l-11.4 11.4c-2.6-2.7-5.8-5.2-13.7-5.2-11.6 0-15.3 5.6-15.3 15.3 0 10.9 2.1 16.3 15.1 16.3 9.2 0 12.6-2.2 12.6-7.9v-1h-14.8v-13.2h30.7v10.9c0 17.1-7.8 25-29.3 25-24.9 0-30.7-11.1-30.7-30.3M590 233c0-22.5 13.2-30.2 31.8-30.2s31.9 7.7 31.9 30.2c0 22.6-13.4 30.3-31.9 30.3-18.5.2-31.8-7.6-31.8-30.3m47.2.4c0-9.2-3.1-15.5-15.3-15.5s-15.3 6.4-15.3 15.5c0 9 3.1 15.6 15.3 15.6s15.3-6.5 15.3-15.6M664.4 203.8h16.3v44.5h27.6v14.1h-43.9zM717.4 203.8h22c23.6 0 34 5.6 34 29.3 0 23.3-10.3 29.3-34 29.3h-22zm23 44.4c14.7 0 16.5-4.2 16.5-15.1s-1.5-14.6-17.2-14.6h-5.8v29.7z" class="st1"/></svg>