<?xml version="1.0" encoding="utf-8"?>
<!-- Generator: Adobe Illustrator 27.6.0, SVG Export Plug-In . SVG Version: 6.00 Build 0)  -->
<svg version="1.1" id="Layer_1" xmlns="http://www.w3.org/2000/svg" xmlns:xlink="http://www.w3.org/1999/xlink" x="0px" y="0px"
	 viewBox="0 0 841.9 284" style="enable-background:new 0 0 841.9 284;" xml:space="preserve">
<style type="text/css">
	.st0{fill-rule:evenodd;clip-rule:evenodd;fill:#FFFFFF;}
	.st1{fill:#FFFFFF;}
</style>
<path class="st0" d="M130.1,105.5c25.6,0,46.9-4.3,52.2-10.1c-4.5-4.9-20.4-8.8-40.8-9.8v12.2c-3.6,0.2-7.4,0.2-11.4,0.2
	c-4,0-7.7-0.1-11.4-0.4V85.5c-20.4,1.1-36.4,4.9-40.8,9.8C83.1,101.1,104.5,105.5,130.1,105.5z M175.6,47.9v16.8h-34.1v11.6
	c24,1.2,41.9,6.3,42.1,12.5v12.7c-0.1,6.2-18.1,11.3-42.1,12.5v28.6h-22.6v-28.5c-24-1.2-41.9-6.3-42.1-12.5V88.9
	c0.1-6.2,18.1-11.3,42.1-12.5V64.7H84.6V47.9H175.6z M71.3,21.2H191c2.8,0,5.4,1.5,6.9,4L232.8,85c1.9,3.1,1.2,7.1-1.4,9.5l-96,93.8
	c-3.1,3.1-8.2,3.1-11.3,0L28.3,94.7c-2.6-2.6-3.1-6.6-1.2-9.8l37.4-60C65.9,22.7,68.5,21.2,71.3,21.2z"/>
<path class="st1" d="M279.5,53.7l27.7-3.1v26.5h24v23H307v35.8c0,8.4,3.6,12.7,10.8,12.7c4.6,0,8.4-0.7,11.5-2.4l6.3,23
	c-6.3,2.5-13,3.8-20,4.2c-11.1,0.5-20-2.1-26.5-7.9c-6.4-5.9-9.7-15.8-9.7-29.8v-35.5h-17V77.1h17V53.7H279.5z"/>
<path class="st1" d="M365,112.9h45c-0.2-4.8-2.6-8.5-6.9-11.1c-4.3-2.7-9.7-4.1-15.7-4.1c-5.6,0-10.3,1.4-14.2,4.1
	C369.1,104.5,366.3,108.2,365,112.9z M434.8,133.2H365c0.7,4.8,3.3,8.9,7.9,12.1c4.5,3.1,10.4,4.6,17.9,4.6
	c10.6,0,18.8-2.5,24.6-7.5l15.6,17.3c-9.5,9.4-23,14-40.7,14c-17,0-30.1-4.6-39.5-13.6c-9.3-9.2-13.9-21.4-13.9-36.9
	c0-14.6,4.6-26.4,13.6-35.4c9.2-9.2,21.4-13.6,36.7-13.6c16.8,0,29.6,5.1,38.5,15.3C434.8,99.8,437.7,114.2,434.8,133.2z"/>
<path class="st1" d="M457.9,53.7l27.7-3.1v26.5h24v23h-24.3v35.8c0,8.4,3.6,12.7,10.8,12.7c4.6,0,8.4-0.7,11.5-2.4l6.3,23
	c-6.3,2.5-13,3.8-20,4.2c-11.1,0.5-20-2.1-26.5-7.9c-6.4-5.9-9.7-15.8-9.7-29.8v-35.5h-17V77.1h17V53.7H457.9z"/>
<path class="st1" d="M524.3,37h27.8v51.3c6.8-8.8,16.5-13.2,28.8-13.2c25.2,0,37.9,15.2,37.9,45.5v51h-27.7v-50.7
	c0-6.6-1.6-11.6-4.9-15.2c-3.2-3.6-7.5-5.3-13.1-5.3c-6.1,0-11.1,2.1-15.2,6.2c-4,4.1-5.9,9.8-5.9,17.1v48.1h-27.7V37H524.3z"/>
<path class="st1" d="M657.9,112.9h44.9c-0.3-4.8-2.6-8.5-6.9-11.1c-4.3-2.7-9.7-4.1-15.7-4.1c-5.6,0-10.3,1.4-14.2,4.1
	S659.2,108.2,657.9,112.9z M727.6,133.2h-69.8c0.7,4.8,3.3,8.9,7.9,12.1c4.5,3.1,10.4,4.6,17.9,4.6c10.6,0,18.8-2.5,24.6-7.5
	l15.6,17.3c-9.5,9.4-23,14-40.7,14c-16.9,0-30.1-4.6-39.5-13.6c-9.3-9.2-13.9-21.4-13.9-36.9c0-14.6,4.6-26.4,13.6-35.4
	c9.2-9.2,21.4-13.6,36.7-13.6c16.8,0,29.6,5.1,38.5,15.3C727.5,99.8,730.6,114.2,727.6,133.2z"/>
<path class="st1" d="M739.1,76.7h25.7l2.1,10.4c6.1-8.4,14.5-12.7,25.4-12.7c9,0,16.7,2.8,23.3,8.7L804.1,105
	c-4.5-3.2-9.5-4.8-15.2-4.8c-6.3,0-11.5,2-15.7,5.9c-4.2,3.8-6.3,9.2-6.3,16v49.4h-27.7V76.7z"/>
<path class="st1" d="M523.4,233c0-21.2,11.4-30.2,31.8-30.2c12.2,0,19.9,3.5,25,8.9l-11.4,11.4c-2.6-2.7-5.8-5.2-13.7-5.2
	c-11.6,0-15.3,5.6-15.3,15.3c0,10.9,2.1,16.3,15.1,16.3c9.2,0,12.6-2.2,12.6-7.9v-1h-14.8v-13.2h30.7v10.9c0,17.1-7.8,25-29.3,25
	C529.2,263.3,523.4,252.2,523.4,233z"/>
<path class="st1" d="M590,233c0-22.5,13.2-30.2,31.8-30.2c18.6,0,31.9,7.7,31.9,30.2c0,22.6-13.4,30.3-31.9,30.3
	C603.3,263.5,590,255.7,590,233z M637.2,233.4c0-9.2-3.1-15.5-15.3-15.5c-12.2,0-15.3,6.4-15.3,15.5c0,9,3.1,15.6,15.3,15.6
	C634.1,249,637.2,242.5,637.2,233.4z"/>
<path class="st1" d="M664.4,203.8h16.3v44.5h27.6v14.1h-43.9V203.8z"/>
<path class="st1" d="M717.4,203.8h22c23.6,0,34,5.6,34,29.3c0,23.3-10.3,29.3-34,29.3h-22V203.8z M740.4,248.2
	c14.7,0,16.5-4.2,16.5-15.1c0-10.9-1.5-14.6-17.2-14.6h-5.8v29.7H740.4z"/>
</svg>
