<svg xmlns="http://www.w3.org/2000/svg" width="124" height="27" fill="none" viewBox="0 0 124 27"><path fill="#009393" fill-rule="evenodd" d="M7.833.462h18.682c.446 0 .858.235 1.08.617l5.443 9.345a1.22 1.22 0 0 1-.204 1.49L17.852 26.536a1.257 1.257 0 0 1-1.751 0L1.139 11.933a1.22 1.22 0 0 1-.186-1.52L6.771 1.05A1.25 1.25 0 0 1 7.833.462m16.27 4.172v2.622h-5.322v1.818c3.738.194 6.542.992 6.563 1.949v1.994c-.021.956-2.825 1.754-6.563 1.948v4.462h-3.534v-4.462c-3.737-.194-6.541-.992-6.562-1.948v-1.994c.02-.957 2.825-1.755 6.562-1.949V7.256H9.926V4.634zm-7.089 8.961c3.99 0 7.323-.674 8.139-1.575-.692-.764-3.195-1.366-6.372-1.53v1.902a34 34 0 0 1-3.534 0V10.49c-3.177.165-5.68.766-6.371 1.53.816.902 4.15 1.576 8.138 1.576" clip-rule="evenodd"/><path fill="#009393" d="m40.331 5.533 4.319-.48v4.139h3.749v3.599h-3.78v5.578q0 1.98 1.68 1.98 1.08 0 1.8-.36l.99 3.598q-1.47.57-3.12.66-2.61.12-4.138-1.23-1.5-1.38-1.5-4.648V12.79h-2.64v-3.6h2.64zM64.562 17.92H53.675q.18 1.139 1.23 1.888 1.05.72 2.789.72 2.49 0 3.839-1.17l2.429 2.7q-2.22 2.19-6.358 2.189-3.96 0-6.148-2.13-2.16-2.129-2.16-5.757 0-3.42 2.13-5.519 2.13-2.13 5.728-2.129 3.93 0 5.998 2.4 2.1 2.399 1.41 6.807m-10.887-3.15h7.018q-.06-1.14-1.08-1.74-1.02-.63-2.459-.63-1.29 0-2.22.63-.929.63-1.259 1.74M68.162 5.533l4.319-.48v4.139h3.749v3.599h-3.78v5.578q0 1.98 1.68 1.98 1.08 0 1.8-.36l.99 3.598q-1.47.57-3.12.66-2.61.12-4.138-1.23-1.5-1.38-1.5-4.648V12.79h-2.639v-3.6h2.64zM78.539 2.924h4.348v8.007q1.59-2.07 4.499-2.07 5.908 0 5.908 7.109v7.947h-4.319V16q0-1.53-.78-2.37-.75-.84-2.039-.84-1.41 0-2.369.96-.93.96-.93 2.67v7.497H78.54zM110.231 17.92H99.345q.18 1.139 1.229 1.888 1.05.72 2.79.72 2.489 0 3.838-1.17l2.43 2.7q-2.22 2.19-6.358 2.189-3.96 0-6.148-2.13-2.16-2.129-2.16-5.757 0-3.42 2.13-5.519 2.129-2.13 5.728-2.129 3.928 0 5.998 2.4 2.099 2.399 1.409 6.807m-10.886-3.15h7.018q-.06-1.14-1.08-1.74-1.02-.63-2.459-.63-1.29 0-2.22.63t-1.26 1.74M112.022 9.132h4.019l.33 1.62q1.41-1.98 3.959-1.98 2.099 0 3.629 1.35l-1.8 3.418q-1.05-.75-2.369-.75-1.47 0-2.459.93-.99.9-.99 2.49v7.707h-4.319z"/></svg>