<svg xmlns="http://www.w3.org/2000/svg" width="126" height="39" fill="none" viewBox="0 0 126 39"><path fill="#d3b25b" d="m40.517 5.15 4.388-.489v4.192h3.8v3.643h-3.84v5.66c0 1.332.569 2.018 1.704 2.018.725 0 1.332-.118 1.822-.373l.999 3.643c-.999.392-2.057.608-3.173.666-1.763.079-3.173-.333-4.191-1.253-1.019-.94-1.528-2.507-1.528-4.72v-5.622h-2.683V8.853h2.683V5.15zM54.052 14.513h7.129c-.04-.764-.411-1.351-1.097-1.762-.685-.431-1.528-.647-2.487-.647-.882 0-1.626.216-2.253.647a3.1 3.1 0 0 0-1.293 1.762m11.046 3.213H54.051c.118.763.53 1.41 1.254 1.919.705.49 1.645.725 2.84.725 1.685 0 2.977-.392 3.898-1.195l2.468 2.742c-1.508 1.488-3.643 2.213-6.444 2.213-2.684 0-4.76-.724-6.248-2.154-1.47-1.45-2.194-3.389-2.194-5.837 0-2.311.725-4.172 2.154-5.602 1.45-1.45 3.389-2.154 5.818-2.154 2.663 0 4.68.803 6.091 2.429 1.41 1.625 1.88 3.917 1.41 6.914M68.76 5.15l4.388-.489v4.192h3.8v3.643h-3.84v5.66c0 1.332.569 2.018 1.705 2.018.724 0 1.332-.118 1.821-.373l1 3.643c-1 .392-2.057.608-3.174.666-1.763.079-3.173-.333-4.191-1.253-1.019-.94-1.528-2.507-1.528-4.72v-5.622h-2.683V8.853h2.683V5.15zM79.278 2.507h4.407v8.128c1.078-1.39 2.605-2.096 4.564-2.096 3.996 0 5.993 2.41 5.993 7.208v8.07h-4.387v-8.03c0-1.039-.255-1.842-.784-2.41-.509-.568-1.194-.842-2.076-.842-.96 0-1.762.333-2.409.98q-.94.97-.94 2.702v7.62H79.26V2.506zM100.412 14.513h7.11c-.039-.764-.412-1.351-1.097-1.762-.686-.431-1.528-.647-2.488-.647-.881 0-1.625.216-2.252.647a3.14 3.14 0 0 0-1.273 1.762m11.047 3.213h-11.047c.117.763.529 1.41 1.253 1.919.705.49 1.646.725 2.84.725 1.685 0 2.978-.392 3.898-1.195l2.468 2.742c-1.508 1.488-3.643 2.213-6.444 2.213-2.683 0-4.76-.724-6.248-2.154-1.469-1.45-2.194-3.389-2.194-5.837 0-2.311.725-4.172 2.155-5.602 1.45-1.45 3.388-2.154 5.817-2.154 2.664 0 4.681.803 6.091 2.429 1.391 1.625 1.881 3.917 1.411 6.914M113.28 8.794h4.074l.333 1.645c.96-1.332 2.292-2.017 4.015-2.017 1.43 0 2.645.45 3.683 1.37l-1.822 3.468a4 4 0 0 0-2.409-.764c-.999 0-1.822.313-2.487.94q-.999.911-.999 2.527v7.815h-4.388z"/><path fill="#d3b25b" fill-rule="evenodd" d="M16.877 13.338c4.054 0 7.423-.685 8.265-1.606-.705-.783-3.232-1.39-6.463-1.547v1.939c-.569.04-1.176.04-1.802.04s-1.215-.02-1.802-.06v-1.92c-3.232.177-5.759.784-6.464 1.548.823.92 4.211 1.606 8.266 1.606m7.188-9.107v2.663h-5.406v1.841c3.8.196 6.64 1 6.66 1.979v2.017c-.02.98-2.86 1.783-6.66 1.978v4.525h-3.584v-4.505c-3.8-.196-6.64-.999-6.66-1.978v-2.037c.02-.98 2.86-1.783 6.66-1.979v-1.84H9.669V4.23zM7.554 0h18.96c.45 0 .86.235 1.096.627l5.523 9.48a1.22 1.22 0 0 1-.215 1.508l-15.2 14.846c-.489.49-1.292.49-1.781 0L.757 11.634a1.27 1.27 0 0 1-.196-1.547l5.915-9.5A1.32 1.32 0 0 1 7.554 0" clip-rule="evenodd"/><path fill="#d3b25b" d="M79.122 33.532c0-3.35 1.802-4.78 5.034-4.78 1.939 0 3.153.55 3.956 1.411l-1.802 1.802c-.411-.43-.92-.823-2.174-.823-1.84 0-2.428.882-2.428 2.43 0 1.723.332 2.585 2.389 2.585 1.45 0 1.998-.353 1.998-1.254v-.157h-2.35v-2.095h4.857v1.723c0 2.703-1.234 3.957-4.642 3.957-3.917 0-4.838-1.763-4.838-4.799M89.679 33.532c0-3.565 2.095-4.78 5.033-4.78s5.054 1.215 5.054 4.78c0 3.584-2.116 4.799-5.054 4.799-2.938.02-5.033-1.215-5.033-4.799m7.462.059c0-1.45-.49-2.449-2.429-2.449s-2.428 1.019-2.428 2.449.49 2.468 2.428 2.468c1.94 0 2.43-1.019 2.43-2.468M101.45 28.91h2.586v7.051h4.367v2.233h-6.953zM109.833 28.91h3.486c3.741 0 5.387.881 5.387 4.642 0 3.682-1.626 4.642-5.387 4.642h-3.486zm3.643 7.032c2.331 0 2.605-.666 2.605-2.39s-.235-2.311-2.722-2.311h-.921v4.7z"/></svg>