<svg xmlns="http://www.w3.org/2000/svg" xml:space="preserve" id="Layer_1" x="0" y="0" viewBox="0 0 841.9 214.6"><style>.st1{fill:#fff}</style><path d="M78.4 24.6h117.3c2.8 0 5.4 1.5 6.8 3.9l34.2 58.7c1.8 3 1.2 6.9-1.3 9.4l-94.1 91.8c-3 3-7.9 3-11 0L36.4 96.6c-2.6-2.5-3.1-6.5-1.2-9.5l36.5-58.8c1.4-2.3 4-3.7 6.7-3.7m102.1 26.2v16.5h-33.4v11.4c23.5 1.2 41.1 6.2 41.2 12.2v12.5c-.1 6-17.7 11-41.2 12.2v28h-22.2v-28c-23.5-1.2-41.1-6.2-41.2-12.2V90.9c.1-6 17.7-11 41.2-12.2V67.2H91.5V50.8zM136 107c25 0 46-4.2 51.1-9.9-4.3-4.8-20.1-8.6-40-9.6v12q-5.4.3-11.1.3c-5.7 0-7.5-.1-11.1-.3v-12c-19.9 1-35.7 4.8-40 9.6 5.2 5.7 26.1 9.9 51.1 9.9" style="fill-rule:evenodd;clip-rule:evenodd;fill:#fff"/><path d="m282.4 56.4 27.1-3v26H333V102h-23.7v35c0 8.3 3.5 12.4 10.5 12.4 4.5 0 8.3-.8 11.3-2.3l6.2 22.6c-6.2 2.4-12.7 3.8-19.6 4.1-10.9.5-19.6-2.1-26-7.7-6.3-5.8-9.4-15.5-9.4-29.2v-35h-16.6V79.4h16.6v-23zM434.6 134.2h-68.4c.8 4.8 3.3 8.7 7.7 11.9 4.4 3 10.2 4.5 17.5 4.5 10.4 0 18.5-2.4 24.1-7.3l15.3 16.9c-9.3 9.2-22.6 13.7-39.9 13.7-16.6 0-29.4-4.5-38.6-13.4-9-8.9-13.6-21-13.6-36.2 0-14.3 4.5-25.9 13.4-34.6 8.9-8.9 20.9-13.4 36-13.4 16.4 0 29 5 37.7 15.1s11.7 24.3 8.8 42.8m-68.4-19.8h44.1c-.3-4.8-2.5-8.4-6.8-10.9-4.3-2.6-9.4-4-15.4-4-5.4 0-10 1.3-13.9 4-4 2.6-6.6 6.3-8 10.9M457.2 56.4l27.1-3v26h23.5V102h-23.7v35c0 8.3 3.5 12.4 10.5 12.4 4.5 0 8.3-.8 11.3-2.3l6.2 22.6c-6.2 2.4-12.7 3.8-19.6 4.1-10.9.5-19.6-2.1-26-7.7-6.3-5.8-9.4-15.5-9.4-29.2v-35h-16.6V79.4h16.6v-23zM522.3 40h27.3v50.3c6.7-8.7 16.1-13 28.2-13 24.7 0 37.1 14.9 37.1 44.6v49.9h-27.1v-49.7c0-6.4-1.6-11.4-4.9-14.9-3.1-3.5-7.4-5.3-12.8-5.3-5.9 0-10.9 2-14.9 6-3.9 4-5.8 9.6-5.8 16.8v47.1h-27.1zM721.3 134.2H653c.8 4.8 3.3 8.7 7.7 11.9 4.4 3 10.2 4.5 17.5 4.5 10.4 0 18.5-2.4 24.1-7.3l15.3 16.9c-9.3 9.2-22.6 13.7-39.9 13.7-16.6 0-29.4-4.5-38.6-13.4-9-8.9-13.6-21-13.6-36.2 0-14.3 4.5-25.9 13.4-34.6 8.9-8.9 20.9-13.4 36-13.4 16.4 0 29 5 37.7 15.1s11.6 24.3 8.7 42.8M653 114.4h44.1c-.3-4.8-2.5-8.4-6.8-10.9-4.3-2.6-9.4-4-15.4-4-5.4 0-10 1.3-13.9 4-4 2.6-6.6 6.3-8 10.9M732.6 79h25.2l2.1 10.2c5.9-8.3 14.2-12.4 24.9-12.4 8.8 0 16.4 2.8 22.8 8.5l-11.3 21.5c-4.4-3.1-9.4-4.7-14.9-4.7-6.1 0-11.3 1.9-15.4 5.8-4.1 3.8-6.2 9-6.2 15.6v48.4h-27.1V79z" class="st1"/></svg>