<svg xmlns="http://www.w3.org/2000/svg" width="512" height="512" fill="none" viewBox="0 0 512 512"><rect width="504" height="504" x="4" y="4" fill="#0e1325" rx="252"/><path fill="#7b78ff" d="m333.359 214.209-59.855 96.216c-8.033 12.897-26.576 12.897-34.609 0l-59.855-96.216c-6.963-11.163-10.641-24.086-10.641-37.298v-10.218c0-9.351 7.486-16.942 16.692-16.942h142.217c9.233 0 16.692 7.591 16.692 16.942v10.218c0 13.212-3.677 26.135-10.641 37.298"/><path fill="#9fd2eb" d="m179.04 297.501 59.855-96.189c8.033-12.897 26.576-12.897 34.609 0l59.855 96.189C340.323 308.664 344 321.614 344 334.826v10.218c0 9.351-7.485 16.942-16.692 16.942H185.091c-9.233 0-16.692-7.591-16.692-16.942v-10.218a70.6 70.6 0 0 1 10.641-37.325"/><path fill="#11429f" d="M273.504 201.312c-8.033-12.897-26.576-12.897-34.609 0l-33.931 54.556 33.957 54.556c8.033 12.897 26.576 12.897 34.609 0l33.931-54.556z"/><rect width="504" height="504" x="4" y="4" stroke="#7b78ff" stroke-width="8" rx="252"/></svg>