<svg xmlns="http://www.w3.org/2000/svg" width="46" height="46" fill="none" viewBox="0 0 46 46"><path fill="#2e5df5" d="M45.283 22.999C45.283 10.692 35.307.715 23 .715S.716 10.692.716 22.999 10.693 45.282 23 45.282 45.283 35.306 45.283 23"/><g clip-path="url(#a)"><path stroke="#fff" stroke-miterlimit="10" stroke-width="1.803" d="M7.475 19.465H37.71m-19.66 16.38c-6.027-.466-10.575-4.371-10.575-9.418v-6.47c0-5.048 4.714-9.195 10.74-9.662m-.018.002q.456-.043.922-.043h9.033c5.278 0 9.496 4.505 9.583 9.664m-.6-.456c-1.916 2.11-4.766 3.447-7.948 3.447h-9.775q-.505 0-.997-.044m-.117-12.57v25.898m-2.524-19.6a.513.513 0 0 1-.512.514.513.513 0 0 1-.511-.515c0-.284.229-.514.511-.514s.512.23.512.514Z"/></g><defs><clipPath id="a"><path fill="#fff" d="M7.028 9.582h31.306v26.833H7.028z"/></clipPath></defs></svg>