<svg xmlns="http://www.w3.org/2000/svg" width="212" height="29" fill="none" viewBox="0 0 212 29"><path fill="#202020" d="m172.623 8.791-.059-.059c-1.39-1.483-3.332-2.399-5.485-2.399-4.221 0-7.646 3.543-7.646 7.918 0 4.374 3.425 7.917 7.646 7.917 2.204 0 4.196-.966 5.595-2.518 0 0 .017-.008.009-.008-.382-.492-2.23-2.272-2.23-2.272h-.068c-.822.932-1.992 1.526-3.306 1.526-2.475 0-4.484-2.077-4.484-4.645 0-2.56 2.009-4.646 4.484-4.646 1.314 0 2.493.602 3.306 1.534M150.922 6.333c-4.315 0-7.816 3.577-7.816 7.985s3.501 7.986 7.816 7.986 7.816-3.578 7.816-7.986c.008-4.416-3.493-7.985-7.816-7.985m0 12.664c-2.534 0-4.586-2.093-4.586-4.679 0-2.585 2.052-4.679 4.586-4.679s4.586 2.094 4.586 4.68-2.051 4.678-4.586 4.678M211.515 6.333v3.56h-3.84V22.16h-3.679V9.893h-3.865v-3.56zM177.65 6.333v7.434l4.857-7.434h3.476l-4.569 6.943 5.501 8.883h-4.001l-3.942-5.577-1.33 1.95v3.627h-3.569V6.333zM198.689 9.35h-7.383v3.248h5.807v2.983h-5.807v3.459h7.383v3.128H187.61V6.333h11.079zM136.927 6.333h-7.189v15.835h3.637V18.42h3.552c2.797 0 5.069-2.704 5.069-6.044s-2.272-6.044-5.069-6.044m-1.467 8.808h-2.085V9.444h2.085c1.645 0 3.408.636 3.408 2.848 0 2.103-1.755 2.848-3.408 2.848M73.952 6.333c-4.315 0-7.816 3.577-7.816 7.985s3.5 7.986 7.816 7.986c4.314 0 7.815-3.578 7.815-7.986 0-4.416-3.5-7.985-7.815-7.985m0 12.664c-2.535 0-4.587-2.093-4.587-4.679 0-2.585 2.052-4.679 4.587-4.679s4.585 2.094 4.585 4.68-2.05 4.678-4.586 4.678M65.797 6.4v3.561h-3.84v12.266h-3.688V9.961h-3.865v-3.56zM108.808 9.419h-7.383v3.246h5.807v2.984h-5.807v3.459h7.383v3.128H97.729V6.4h11.079zM122.626 6.4v15.827h-3.103l-6.069-10.69q.012.408.025.535c.034.271.043.5.043.687v9.477h-2.832V6.4h3.917l5.272 9.333a13 13 0 0 1-.067-1.051V6.4zM86.514 6.4l.017 6.452 5.934-6.468 3.34-.009-5.544 6.943 6.129 8.892-3.84.009-4.612-6.434-1.39 1.34.008 5.11-3.424.01-.043-15.836z"/><g fill="#2980fe" clip-path="url(#a)"><path d="M17.44.603H1.807c-.731 0-1.322.591-1.322 1.322v5.367c0 .731.59 1.322 1.322 1.322h5.032v18.573c0 .731.591 1.322 1.322 1.322h5.631c.731 0 1.322-.59 1.322-1.322V8.614h2.303a4.01 4.01 0 0 0 4.005-4.005C21.446 2.399 19.65.603 17.44.603"/><path fill-rule="evenodd" d="M32.654.603c-6.113 0-11.076 4.962-11.076 11.075v15.47c0 .732.592 1.323 1.323 1.323h5.926c.731 0 1.322-.591 1.322-1.323v-4.676l.007.002.027.004a10.5 10.5 0 0 0 2.221.276h.25c.218 0 .428-.008.638-.016 5.817-.334 10.437-5.156 10.437-11.06C43.737 5.565 38.775.604 32.654.604m.638 13.487a2.5 2.5 0 0 1-.81.077 2.493 2.493 0 0 1-2.325-2.422v-.066a2.5 2.5 0 0 1 2.497-2.497 2.5 2.5 0 0 1 2.496 2.496 2.49 2.49 0 0 1-1.858 2.412" clip-rule="evenodd"/></g><defs><clipPath id="a"><path fill="#fff" d="M.485.5H43.72v28H.485z"/></clipPath></defs></svg>