<svg xmlns="http://www.w3.org/2000/svg" width="840" height="544" fill="none" viewBox="0 0 840 544"><g fill="#2980fe" clip-path="url(#a)"><path d="M329.42 1.999H25.689C11.484 1.999 0 13.483 0 27.688v104.266c0 14.204 11.484 25.689 25.689 25.689h97.768v360.851c0 14.204 11.484 25.689 25.689 25.689H258.55c14.204 0 25.688-11.485 25.688-25.689V157.643h44.729c42.915 0 77.822-34.907 77.822-77.822.453-42.915-34.453-77.822-77.369-77.822"/><path fill-rule="evenodd" d="M625.001 2C506.229 2 409.82 98.408 409.82 217.181l.002.849v299.709c0 14.204 11.484 25.689 25.689 25.689h115.146c14.204 0 25.689-11.485 25.689-25.689v-90.851l.132.03.522.082c5.742 1.36 11.114 2.337 17.158 3.244 8.462 1.209 17.227 1.965 25.991 2.116l4.851-.001c4.232 0 8.312-.148 12.392-.299 113.031-6.498 202.79-100.186 202.79-214.879C840.334 98.408 743.925 2 625.001 2m12.392 262.025c-3.929 1.058-8.161 1.659-12.392 1.659-1.164 0-2.188-.015-3.341-.15-24.813-1.634-44.512-21.969-45.165-47.069v-1.284c0-26.746 21.76-48.506 48.507-48.506s48.506 21.76 48.506 48.506c0 22.516-15.262 41.404-36.115 46.844" clip-rule="evenodd"/></g><defs><clipPath id="a"><path fill="#fff" d="M0 0h840v544H0z"/></clipPath></defs></svg>