<svg xmlns="http://www.w3.org/2000/svg" width="163" height="80" fill="none" viewBox="0 0 163 80"><path fill="#fff" d="m122.547 65.493-.061-.061c-1.441-1.538-3.454-2.487-5.686-2.487-4.376 0-7.926 3.673-7.926 8.207s3.55 8.207 7.926 8.207c2.285 0 4.35-1.001 5.8-2.61 0 0 .018-.008.009-.008-.396-.51-2.311-2.355-2.311-2.355h-.071c-.852.967-2.065 1.582-3.427 1.582-2.565 0-4.648-2.153-4.648-4.816 0-2.654 2.083-4.815 4.648-4.815 1.362 0 2.584.624 3.427 1.59M100.052 62.945c-4.473 0-8.102 3.708-8.102 8.277 0 4.57 3.629 8.278 8.102 8.278 4.472 0 8.101-3.708 8.101-8.278.009-4.578-3.62-8.277-8.101-8.277m0 13.128c-2.628 0-4.754-2.17-4.754-4.85s2.126-4.851 4.754-4.851 4.754 2.17 4.754 4.85-2.127 4.851-4.754 4.851M162.863 62.945v3.69h-3.98v12.716h-3.814V66.635h-4.007v-3.69zM127.758 62.945v7.706l5.035-7.706h3.603l-4.736 7.197 5.703 9.209h-4.148l-4.086-5.782-1.38 2.02v3.762h-3.699V62.945zM149.568 66.073h-7.654v3.366h6.019v3.093h-6.019v3.585h7.654v3.242h-11.485V62.945h11.485zM85.544 62.945h-7.452v16.414h3.77v-3.884h3.682c2.9 0 5.255-2.803 5.255-6.265s-2.356-6.265-5.255-6.265m-1.52 9.13h-2.162V66.17h2.162c1.704 0 3.532.659 3.532 2.952 0 2.18-1.819 2.953-3.532 2.953M20.264 62.945c-4.473 0-8.102 3.708-8.102 8.277 0 4.57 3.629 8.278 8.102 8.278 4.472 0 8.101-3.708 8.101-8.278 0-4.578-3.629-8.277-8.101-8.277m0 13.128c-2.628 0-4.754-2.17-4.754-4.85s2.126-4.851 4.754-4.851 4.753 2.17 4.753 4.85-2.126 4.851-4.753 4.851M11.81 63.015v3.69H7.83v12.716H4.006V66.706H0v-3.69zM56.396 66.143h-7.654v3.366h6.02v3.093h-6.02v3.585h7.654v3.243H44.91V63.015h11.485zM70.72 63.015v16.406h-3.216l-6.292-11.08q.014.42.027.553c.035.281.044.518.044.712v9.824h-2.935V63.015h4.06l5.465 9.675c-.044-.483-.07-.844-.07-1.09v-8.585zM33.285 63.015l.018 6.687 6.151-6.704 3.462-.01-5.747 7.198 6.354 9.217-3.981.01-4.78-6.67-1.441 1.388.008 5.299-3.55.009-.044-16.415z"/><g fill="#fff" clip-path="url(#a)"><path d="M72.883.188H44.41A2.406 2.406 0 0 0 42 2.596v9.775a2.406 2.406 0 0 0 2.408 2.408h9.166v33.83a2.406 2.406 0 0 0 2.408 2.408H66.24a2.406 2.406 0 0 0 2.408-2.408v-33.83h4.194c4.023 0 7.296-3.272 7.296-7.296.042-4.023-3.23-7.295-7.254-7.295"/><path fill-rule="evenodd" d="M100.594.188c-11.135 0-20.173 9.038-20.173 20.173v28.177a2.406 2.406 0 0 0 2.408 2.408h10.795a2.406 2.406 0 0 0 2.408-2.408v-8.517l.013.003.049.007c.538.128 1.042.22 1.608.304a20 20 0 0 0 2.437.199h.455c.396 0 .779-.014 1.162-.028 10.596-.61 19.011-9.393 19.011-20.145.014-11.135-9.024-20.173-20.173-20.173m1.162 24.564c-.369.1-.766.156-1.162.156-.109 0-.205-.002-.313-.014a4.54 4.54 0 0 1-4.235-4.413v-.12a4.553 4.553 0 0 1 4.548-4.548 4.553 4.553 0 0 1 4.547 4.548 4.53 4.53 0 0 1-3.385 4.391" clip-rule="evenodd"/></g><defs><clipPath id="a"><path fill="#fff" d="M42 0h78.75v51H42z"/></clipPath></defs></svg>