<svg xmlns="http://www.w3.org/2000/svg" width="32" height="32" viewBox="0 0 32 32"><g fill="none"><circle cx="16" cy="16" r="16" fill="#0899cd"/><path fill="#fff" d="M26.97 16.867q-.28 4.003-3.195 6.908-.735.736-1.54 1.305a1 1 0 0 0-.077-.102l4.69-8.125q.06.01.122.014m-5.237 8.548Q19.197 27 16 27q-3.055 0-5.511-1.448.369.217.751.4a1 1 0 0 0 .064-.13h9.392a1 1 0 0 0 .063.13q.499-.24.974-.537m-11.968-.33a12 12 0 0 1-1.55-1.31Q5.31 20.869 5.03 16.867a1 1 0 0 0 .121-.014l4.691 8.125a1 1 0 0 0-.077.107M5 15.83q.059-4.45 3.214-7.616Q11.44 5.001 16 5c4.56-.001 5.632 1.072 7.775 3.215q3.21 3.21 3.225 7.744a11 11 0 0 0-.03-.807 1 1 0 0 0-.121.015l-4.686-8.14a1 1 0 0 0 .078-.108 10.4 10.4 0 0 0-1.477-.872 1 1 0 0 0-.068.142h-9.392a1 1 0 0 0-.068-.142q-.766.369-1.476.868.034.061.082.116l-4.691 8.136a1 1 0 0 0-.122-.015q-.023.336-.028.679zm21.346-.372a.8.8 0 0 0-.156.258h-3.877a.9.9 0 0 0-.205-.311.9.9 0 0 0-.312-.205V7.572zm-.156.843a.8.8 0 0 0 .156.258l-4.55 7.878v-7.62a.9.9 0 0 0 .312-.204.9.9 0 0 0 .205-.312zm-20.38-.584a.8.8 0 0 0-.156-.258l4.55-7.887v7.629a.9.9 0 0 0-.312.205.9.9 0 0 0-.205.311zm5.485-8.924.01-.02h9.392a.9.9 0 0 0 .156.258l-2.87 4.96a.82.82 0 0 0-.575.097zm.01 8.924a.9.9 0 0 0-.205-.311.9.9 0 0 0-.312-.205V7.572l4.555 7.877a.9.9 0 0 0-.15.268zm7.332-2.577a.9.9 0 0 0 .053-.307.83.83 0 0 0-.2-.55l2.724-4.71V15.2a1 1 0 0 0-.127.059l-2.45-2.12zm-1.603-.613a.8.8 0 0 0-.059.306q0 .315.205.551l-1.028 1.773a.8.8 0 0 0-.302 0L11.616 7.84zm-.22 3.19a.9.9 0 0 0-.155-.267l1.023-1.774a.82.82 0 0 0 .575-.097l2.45 2.119-.01.02h-3.883zm4.088.897a.9.9 0 0 0 .312.205v7.618l-4.555-7.891a.8.8 0 0 0 .146-.244h3.892a.9.9 0 0 0 .205.312m-5.042.234a1 1 0 0 0 .292-.005l4.233 7.331-5.412-4.681a.9.9 0 0 0 .054-.307.83.83 0 0 0-.2-.55zm4.847 8.369-.01.02h-9.392a.9.9 0 0 0-.151-.259l2.864-4.95a.82.82 0 0 0 .575-.097zm-6.387-6.874a.82.82 0 0 0-.575.097l-2.45-2.118.01-.02h3.892q.05.136.151.253zm-.95.536a.8.8 0 0 0-.058.307q0 .315.205.55l-2.729 4.706v-7.624a1 1 0 0 0 .127-.058l2.455 2.12zm-3.478-2.265a.9.9 0 0 0 .312.205v7.618l-4.55-7.877a.8.8 0 0 0 .156-.258h3.877a.9.9 0 0 0 .205.312"/></g></svg>