<svg xmlns="http://www.w3.org/2000/svg" id="Layer_1" data-name="Layer 1" viewBox="0 0 1733.58 522.69"><defs><style>.cls-1{fill-rule:evenodd}</style></defs><path d="M1506.38 276.26c-20.98 0-38.6-19.62-38.6-42.96s17.4-43.21 38.6-43.21 38.86 19.62 38.86 44.22c0 22.85-17.64 41.97-38.86 41.97m-22.4 68.27h18.12l39.8-61.35c15.97-24.6 19.31-33.54 19.31-49.42 0-32.53-24.32-58.61-54.83-58.61s-54.59 26.32-54.59 58.37 23.84 57.87 51.47 57.87c5.96 0 10.74-.99 17.65-3.97l-36.95 57.13zM1179.24 238.5c0-11.93 2.63-24.35 6.2-30.56 6.19-10.43 18.35-17.89 29.31-17.89 10 0 21.21 6.21 27.65 15.16 5.01 6.95 7.87 19.37 7.87 33.28v43.21c0 15.16-1.91 26.08-5.72 32.78-6.67 11.68-17.17 18.14-29.8 18.14-11.69 0-20.98-5.22-28.13-15.4-5.25-7.44-7.4-18.39-7.4-35.52v-43.21l.02.02Zm87-3.73c0-34.53-21.69-59.62-51.49-59.62-15.02 0-29.31 7.2-38.86 19.37-8.83 10.92-12.64 23.34-12.64 40.25v49.67c0 16.88 2.63 28.57 8.35 38.25 9.77 15.9 25.26 24.84 43.15 24.84 16.44 0 30.74-7.45 40.75-21.37 7.64-10.67 10.74-22.85 10.74-41.73v-49.67Zm99.27-59.61-60.85 123.95v14.91h80.56v30.54h15.97v-30.54h14.54v-14.91h-14.54v-58.49h-15.97v58.49h-64.49l60.84-123.95zm-348.16 169.39h101.54v-14.91h-80.09l51.73-51.41c21.69-21.37 29.07-35.02 29.07-52.4 0-28.07-22.16-50.67-49.58-50.67-30.27 0-51.49 22.35-51.49 54.39v2.24h15.73c.24-10.43 1.19-16.88 4.28-22.85 5.73-11.44 17.89-18.88 30.52-18.88 18.82 0 34.55 16.14 34.55 35.27 0 8.95-3.81 18.14-11.21 27.58-4.04 5.22-7.38 8.7-19.06 20.36l-56.01 56.39v14.91z"/><path d="M384.11 172.38c-46.34 0-87.15 39.12-87.15 88.04s39.29 89.89 87.37 89.89 86.94-39.59 86.94-88.97-39.93-88.97-87.15-88.97Zm.22 146.92c-31.04 0-56.07-26.06-56.07-58.41s25.87-57.48 55.83-57.48 55.83 26.28 55.83 58.18-25.48 57.73-55.62 57.73l.02-.02ZM206.62 206.17h-34.24v-31.01h99.8v31.01h-34.24v141.37h-31.32zM543.27 299.39v48.14h-31.32V175.15h31.32v124.23ZM574.44 261.35l66.15-86.19h-40.28l-50.54 66.73v38.91l50.64 66.74h40.28zM677.28 206.17v-31.01h98.05v31.01zM708.6 244.91h64.5v31.01h-64.5v40.6h66.73v31.01h-98.05V244.91zM925.5 284.62V175.15h31.32v172.38h-27.47L852.97 230.1v117.43h-31.32V175.15h32.8z" class="cls-1"/></svg>