<?xml version="1.0" encoding="UTF-8"?>
<svg id="Layer_1" data-name="Layer 1" xmlns="http://www.w3.org/2000/svg" xmlns:xlink="http://www.w3.org/1999/xlink" viewBox="0 0 1734.04 970.74">
  <defs>
    <style>
      .cls-1 {
        fill: none;
      }

      .cls-2 {
        fill-rule: evenodd;
      }

      .cls-3 {
        clip-path: url(#clippath);
      }
    </style>
    <clipPath id="clippath">
      <rect class="cls-1" x="172.42" y="172.42" width="1389.19" height="177.98"/>
    </clipPath>
  </defs>
  <g class="cls-3">
    <g>
      <path d="M1506.78,276.33c-20.97,0-38.61-19.62-38.61-42.97s17.41-43.22,38.61-43.22,38.87,19.62,38.87,44.23c0,22.85-17.65,41.99-38.87,41.99M1484.38,344.64h18.11l39.82-61.36c15.98-24.6,19.31-33.55,19.31-49.43,0-32.54-24.32-58.63-54.85-58.63s-54.6,26.33-54.6,58.38,23.85,57.89,51.49,57.89c5.96,0,10.73-.99,17.65-3.97l-36.96,57.15.03-.02ZM1179.56,238.56c0-11.93,2.62-24.36,6.2-30.57,6.2-10.43,18.36-17.9,29.32-17.9,10.01,0,21.22,6.21,27.66,15.16,5.01,6.95,7.88,19.38,7.88,33.28v43.22c0,15.16-1.92,26.08-5.72,32.79-6.67,11.68-17.18,18.14-29.81,18.14-11.69,0-20.98-5.23-28.13-15.41-5.25-7.45-7.4-18.39-7.4-35.52v-43.22l.02.02ZM1266.57,234.84c0-34.54-21.7-59.63-51.5-59.63-15.02,0-29.32,7.2-38.87,19.38-8.82,10.92-12.63,23.35-12.63,40.26v49.68c0,16.89,2.62,28.57,8.35,38.26,9.77,15.9,25.27,24.85,43.15,24.85,16.44,0,30.76-7.45,40.76-21.37,7.64-10.68,10.74-22.85,10.74-41.74v-49.68ZM1365.87,175.2l-60.86,123.98v14.91h80.58v30.55h15.98v-30.55h14.54v-14.91h-14.54v-58.5h-15.98v58.5h-64.51l60.86-123.98h-16.07ZM1017.62,344.64h101.57v-14.91h-80.11l51.74-51.43c21.7-21.37,29.08-35.03,29.08-52.42,0-28.08-22.17-50.69-49.59-50.69-30.28,0-51.5,22.36-51.5,54.41v2.24h15.73c.24-10.43,1.18-16.89,4.28-22.85,5.72-11.44,17.88-18.88,30.52-18.88,18.83,0,34.57,16.15,34.57,35.28,0,8.95-3.81,18.14-11.21,27.59-4.05,5.23-7.38,8.7-19.07,20.37l-56.02,56.41v14.91l.02-.02Z"/>
      <path class="cls-2" d="M384.2,172.42c-46.35,0-87.18,39.13-87.18,88.06s39.3,89.92,87.39,89.92,86.96-39.6,86.96-88.99-39.94-88.99-87.18-88.99ZM384.42,319.38c-31.05,0-56.08-26.06-56.08-58.42s25.88-57.5,55.85-57.5,55.85,26.29,55.85,58.2-25.49,57.74-55.63,57.74l.02-.02Z"/>
      <path class="cls-2" d="M206.68,206.22h-34.25v-31.02h99.83v31.02h-34.25v141.4h-31.33v-141.4Z"/>
      <path class="cls-2" d="M543.42,299.47v48.16h-31.33v-172.42h31.33v124.27Z"/>
      <path class="cls-2" d="M574.59,261.42l66.17-86.21h-40.29l-50.56,66.75v38.92l50.66,66.75h40.29l-66.27-86.21Z"/>
      <path class="cls-2" d="M677.45,206.22v-31.02h98.07v31.02h-98.07Z"/>
      <path class="cls-2" d="M708.78,244.98h64.51v31.02h-64.51v40.61h66.74v31.02h-98.07v-102.65h31.33Z"/>
      <path class="cls-2" d="M925.74,284.7v-109.5h31.33v172.42h-27.48l-76.4-117.46v117.46h-31.33v-172.42h32.81l71.07,109.5Z"/>
    </g>
  </g>
  <g>
    <path d="M1470.08,792.08v-410.66h91.74v410.66h-91.74Z"/>
    <path d="M830.62,792.08v-410.66h108.13c17.77,0,34.52,1.35,50.22,4.06,16.06,2.7,30.24,7.95,42.53,15.72,12.3,7.43,21.87,18.24,28.7,32.45,7.17,13.86,10.77,32.29,10.77,55.27,0,16.57-2.57,30.59-7.69,42.07-4.79,11.16-11.78,20.12-21.01,26.88-8.89,6.76-19.64,11.32-32.29,13.68,16.06,2.04,29.56,7.27,40.5,15.72,10.93,8.11,19.13,19.09,24.6,32.95,5.81,13.86,8.71,30.59,8.71,50.19,0,21.29-2.9,39.71-8.71,55.27-5.47,15.21-13.51,27.72-24.09,37.51-10.59,9.81-23.74,17.07-39.47,21.79-15.38,4.74-33.15,7.1-53.3,7.1h-127.61.02ZM922.38,728.7h19.48c20.15,0,34-5.07,41.51-15.21,7.86-10.15,11.79-25,11.79-44.62,0-15.56-1.71-27.89-5.12-37.01-3.43-9.12-9.06-15.72-16.91-19.78-7.86-4.4-18.44-6.6-31.79-6.6h-18.97v123.21ZM922.38,545.68h17.93c14.01,0,24.61-2.04,31.78-6.09,7.18-4.4,11.96-10.65,14.34-18.77,2.74-8.11,4.1-17.92,4.1-29.4,0-10.82-2.05-19.78-6.15-26.88-3.76-7.44-9.57-13.02-17.42-16.73-7.51-3.71-17.07-5.57-28.7-5.57h-15.88v103.44h.02Z"/>
    <path d="M621.07,798.18c-31.78,0-56.71-5.07-74.82-15.21-17.77-10.47-30.23-25.53-37.41-45.12-7.18-19.94-10.77-44.27-10.77-73.01v-283.41h90.71v297.1c0,8.45.69,16.89,2.06,25.34,1.37,8.45,4.26,15.38,8.71,20.78,4.79,5.41,11.95,8.11,21.52,8.11s17.09-2.7,21.52-8.11c4.45-5.41,7.18-12.33,8.2-20.78,1.37-8.45,2.06-16.89,2.06-25.34v-297.1h91.22v283.41c0,28.73-3.75,53.07-11.28,73.01-7.18,19.6-19.64,34.65-37.41,45.12-17.77,10.15-42.53,15.21-74.31,15.21Z"/>
    <path d="M172.62,792.08v-410.66h105.07c36.23,0,64.4,4.56,84.57,13.68,20.15,8.78,34.33,22.82,42.53,42.07,8.2,18.93,12.3,43.61,12.3,74.02v149.06c0,30.75-4.1,55.94-12.3,75.55-8.2,19.27-22.38,33.46-42.53,42.6-19.83,9.12-47.67,13.68-83.53,13.68h-106.11ZM264.37,729.23h14.36c14.01,0,24.09-2.04,30.23-6.09,6.14-4.06,9.91-10.15,11.28-18.24,1.71-8.11,2.55-18.26,2.55-30.43v-178.97c0-12.17-1.02-21.97-3.08-29.4-1.71-7.45-5.63-12.84-11.79-16.22-6.16-3.39-16.05-5.07-29.72-5.07h-13.83v284.42Z"/>
    <path d="M1139.12,792.08l78.41-410.66h104.57l77.39,410.66h-84.57l-13.83-86.69h-61l-14.36,86.69h-86.61ZM1248.27,651.13h44.08l-22.03-160.22-22.06,160.22Z"/>
  </g>
</svg>