<svg xmlns="http://www.w3.org/2000/svg" width="106" height="30" fill="none"><path fill="#f3f5f0" d="M98.83.643v16.975q0 1.53-.724 2.756a5.4 5.4 0 0 1-1.912 1.931q-1.186.704-2.713.704-1.448 0-2.615-.704a5.14 5.14 0 0 1-1.851-1.93q-.683-1.229-.683-2.757V.643h-6.92V17.98q0 3.219 1.55 5.713 1.547 2.493 4.284 3.922 2.735 1.428 6.235 1.428c3.5 0 4.37-.476 6.192-1.428q2.737-1.43 4.284-3.922 1.55-2.494 1.55-5.713V.643zM.3 6.677h8.368v22.125h6.839V6.677h8.566V.643H.3zm49.085-2.534a13.9 13.9 0 0 0-4.625-3.057Q42.105 0 38.927 0t-5.833 1.086a13.9 13.9 0 0 0-4.627 3.057 13.9 13.9 0 0 0-3.056 4.626q-1.087 2.655-1.087 5.832c0 3.177.362 4.065 1.087 5.834a13.9 13.9 0 0 0 3.056 4.626 13.9 13.9 0 0 0 4.627 3.057q2.655 1.086 5.874 1.086c2.146 0 4.022-.362 5.79-1.086a13.9 13.9 0 0 0 4.626-3.057 13.6 13.6 0 0 0 3.038-4.646q1.067-2.676 1.066-5.814c0-2.091-.356-4.062-1.066-5.832a13.7 13.7 0 0 0-3.038-4.626zm-3.419 13.718a7.8 7.8 0 0 1-1.588 2.595 7.2 7.2 0 0 1-2.413 1.708q-1.39.603-3.038.604-1.648 0-3.036-.604a7.5 7.5 0 0 1-2.434-1.69 7.2 7.2 0 0 1-1.59-2.594q-.543-1.508-.543-3.279t.543-3.256a7.42 7.42 0 0 1 4.024-4.304q1.387-.604 3.036-.604t3.038.604a7.1 7.1 0 0 1 2.413 1.71 7.8 7.8 0 0 1 1.588 2.594q.564 1.488.564 3.256 0 1.77-.564 3.261zm34-17.218H71.88L61.543 11.129V.643h-6.84v28.159h6.84V18.738l2.045-2.008 9.178 12.072h7.965l-12.746-16.39L79.966.642Z"/></svg>