<svg xmlns="http://www.w3.org/2000/svg" width="106" height="30" fill="none"><path fill="#F3F5F0" d="M98.83.643v16.975c0 1.02-.242 1.938-.724 2.756a5.399 5.399 0 0 1-1.912 1.931c-.79.47-1.696.704-2.713.704-.965 0-1.837-.234-2.615-.704a5.138 5.138 0 0 1-1.851-1.93c-.455-.819-.683-1.738-.683-2.757V.643h-6.92V17.98c0 2.146.517 4.05 1.55 5.713 1.031 1.662 2.46 2.969 4.284 3.922 1.823.952 3.902 1.428 6.235 1.428s4.37-.476 6.192-1.428c1.824-.953 3.253-2.26 4.284-3.922 1.034-1.663 1.55-3.567 1.55-5.713V.643H98.83ZM.3 6.677h8.368v22.125h6.839V6.677h8.566V.643H.3v6.034Zm49.085-2.534a13.916 13.916 0 0 0-4.625-3.057C42.99.362 41.046 0 38.927 0c-2.12 0-4.062.362-5.833 1.086a13.92 13.92 0 0 0-4.627 3.057 13.914 13.914 0 0 0-3.056 4.626c-.725 1.77-1.087 3.714-1.087 5.832s.362 4.065 1.087 5.834a13.914 13.914 0 0 0 3.056 4.626 13.944 13.944 0 0 0 4.627 3.057c1.77.724 3.728 1.086 5.874 1.086 2.146 0 4.022-.362 5.79-1.086a13.915 13.915 0 0 0 4.626-3.057 13.586 13.586 0 0 0 3.038-4.646c.712-1.784 1.066-3.722 1.066-5.814 0-2.091-.356-4.062-1.066-5.832a13.664 13.664 0 0 0-3.038-4.626h.001Zm-3.419 13.718a7.836 7.836 0 0 1-1.588 2.595 7.166 7.166 0 0 1-2.413 1.708c-.926.402-1.939.604-3.038.604-1.1 0-2.11-.202-3.036-.604a7.487 7.487 0 0 1-2.434-1.69 7.206 7.206 0 0 1-1.59-2.594c-.362-1.005-.543-2.098-.543-3.279 0-1.18.181-2.265.543-3.256a7.418 7.418 0 0 1 4.024-4.304c.925-.402 1.937-.604 3.036-.604 1.1 0 2.113.202 3.038.604a7.115 7.115 0 0 1 2.413 1.71 7.83 7.83 0 0 1 1.588 2.594c.376.992.564 2.077.564 3.256 0 1.18-.188 2.268-.564 3.261v-.001Zm34-17.218H71.88L61.543 11.129V.643h-6.84v28.159h6.84V18.738l2.045-2.008 9.178 12.072h7.965l-12.746-16.39L79.966.642Z"/></svg>