<svg xmlns="http://www.w3.org/2000/svg" width="118" height="40" fill="none" viewBox="0 0 118 40"><path fill="#fff" d="m86.677 21.195 3.274-4.385c.547-.734 1.082-1.477 1.64-2.202 1.804-2.352 4.16-2.49 6.822-1.833.592.146.268.431.06.69-2.116 2.639-4.213 5.293-6.356 7.909-.44.536-.445.868-.002 1.41 2.128 2.595 4.209 5.23 6.304 7.852.492.616.483.683-.304.839-3.244.642-5.132.105-6.947-2.455-1.322-1.866-2.721-3.678-4.088-5.513-.134-.18-.286-.347-.433-.525-.27.19-.156.439-.157.645-.01 1.754 0 3.51-.009 5.264-.007 1.517-.912 2.528-2.425 2.73-2.478.334-2.558.265-2.558-2.187 0-6.205.07-12.41-.032-18.614-.044-2.725 1.772-3.653 3.817-3.485 1.408.116 1.193-.158 1.197 1.295.011 3.89.004 7.782.004 11.672v.815zM117.988 21.477c-.001 2.468-.029 4.936.011 7.402.019 1.133-.468 1.806-1.507 2.188-3.193 1.176-6.468 1.63-9.833 1.04-3.543-.62-5.6-2.993-5.688-6.69-.092-3.889-.034-7.783-.026-11.674.002-.814.475-1.274 1.281-1.29.841-.018 1.683 0 2.524-.006a.936.936 0 0 1 .985.547.94.94 0 0 1 .081.392c.035.353.065.709.066 1.063.005 3.333-.005 6.665.008 9.997.006 1.733.566 2.686 1.891 3.025 1.483.38 2.981.223 4.462-.125.524-.124.395-.521.395-.853q.01-6.105.005-12.21c0-1.499.337-1.832 1.841-1.835h1.759c1.533 0 1.745.216 1.745 1.78zM61.253 21.977c.082-1.06-.13-2.506.158-3.95.451-2.27 1.7-3.94 3.804-4.81a11.27 11.27 0 0 1 9.266.117c2.518 1.143 3.588 3.3 3.716 5.93.1 2.054.06 4.118.01 6.176-.086 3.59-2.662 6.274-6.248 6.743-2.08.271-4.097.244-6.097-.437a6.64 6.64 0 0 1-4.604-6.184c-.03-1.067-.005-2.136-.005-3.585m12.088.36c0-.864.018-1.728-.005-2.592-.037-1.412-.719-2.362-1.934-2.693a6 6 0 0 0-3.093-.071c-1.39.347-2.17 1.21-2.195 2.63a153 153 0 0 0 0 5.49c.024 1.29.691 2.135 1.926 2.537a5.6 5.6 0 0 0 3.239.04c1.347-.366 2.008-1.242 2.055-2.672.03-.889.005-1.779.007-2.669M48.83 21.678c0-3.051-.017-6.102.015-9.152.006-.613-.18-.78-.771-.766-1.502.036-3.006.014-4.51.01-1.76-.003-2.72-.879-2.901-2.644-.186-1.803-.16-1.83 1.64-1.83H58.66c2.236.002 3.578 1.623 3.243 3.862-.071.474-.26.63-.74.624-2.217-.023-4.434.009-6.65-.022-.594-.009-.775.154-.772.765.024 5.313.017 10.626.012 15.94-.002 2.333-2.361 3.917-4.599 3.115-.428-.154-.318-.469-.319-.75q-.01-4.577-.004-9.152M17.002 19.702a1.97 1.97 0 0 1-.553 1.466c-2.495 2.504-4.988 5.011-7.509 7.49a2.14 2.14 0 0 1-3.027-.022 2.094 2.094 0 0 1 .03-3.01c1.527-1.565 3.09-3.094 4.632-4.642.92-.923.917-1.543-.003-2.466-1.544-1.548-3.113-3.07-4.631-4.644-1.198-1.242-.71-3.056.922-3.586a1.94 1.94 0 0 1 2.045.497 736 736 0 0 1 7.564 7.542 1.82 1.82 0 0 1 .53 1.374M29.38 32.274a1.98 1.98 0 0 1-1.228 1.75 2.1 2.1 0 0 1-2.458-.431c-1.527-1.496-3.032-3.014-4.548-4.522-1.02-1.014-1.621-1.018-2.633-.012-1.517 1.508-3.013 3.037-4.552 4.522-1.19 1.148-3.024.745-3.55-.763a2.025 2.025 0 0 1 .456-2.197 890 890 0 0 1 7.46-7.438 2.066 2.066 0 0 1 3.021.01c2.509 2.46 4.985 4.953 7.463 7.444a2.13 2.13 0 0 1 .569 1.637M10.295 7.369a2 2 0 0 1 1.232-1.928 2.15 2.15 0 0 1 2.462.47c1.504 1.48 2.992 2.977 4.486 4.467 1.06 1.056 1.68 1.051 2.756-.023 1.494-1.489 2.978-2.988 4.484-4.466a2.13 2.13 0 0 1 2.469-.414 2.04 2.04 0 0 1 1.183 2.112c-.044.51-.272.987-.641 1.342-2.45 2.443-4.887 4.897-7.35 7.326a2.106 2.106 0 0 1-3.083.018c-2.485-2.445-4.944-4.915-7.405-7.384a1.93 1.93 0 0 1-.593-1.52M22.68 19.752a2.05 2.05 0 0 1 .678-1.607c2.412-2.408 4.816-4.824 7.238-7.222.959-.95 2.27-.967 3.137-.09.867.875.84 2.17-.109 3.134-1.5 1.524-3.026 3.02-4.535 4.534-.911.914-.909 1.554.006 2.472 1.472 1.478 2.953 2.947 4.426 4.424 1.045 1.05 1.13 2.32.227 3.238-.885.9-2.235.836-3.254-.176a2799 2799 0 0 1-7.03-7.01 2.2 2.2 0 0 1-.783-1.697"/><path fill="#fff" d="M36.303 17.253c.44.03 1.038-.097 1.604.079a2.61 2.61 0 0 1 1.773 2.34 2.41 2.41 0 0 1-1.722 2.418 6.35 6.35 0 0 1-3.668.002 2.44 2.44 0 0 1-1.684-2.799 2.536 2.536 0 0 1 2.486-2.04c.356-.005.713 0 1.21 0M3.479 22.313c-.558-.014-1.125.079-1.672-.081A2.52 2.52 0 0 1 0 19.776a2.39 2.39 0 0 1 1.932-2.332 8 8 0 0 1 3.182.008 2.425 2.425 0 0 1 1.89 2.522A2.49 2.49 0 0 1 4.7 22.308c-.405.028-.814.005-1.221.005M22.397 3.495a7 7 0 0 1-.112 1.643 2.475 2.475 0 0 1-2.649 1.823 2.44 2.44 0 0 1-2.206-2.168 21 21 0 0 1-.011-2.512A2.427 2.427 0 0 1 19.76.005a2.45 2.45 0 0 1 2.55 1.95q.113.766.086 1.54M22.277 36.024c0 .355.01.711-.002 1.066a2.44 2.44 0 0 1-2.125 2.399c-1.382.146-2.506-.605-2.767-1.929a8 8 0 0 1-.005-3.027c.254-1.332 1.366-2.088 2.75-1.953a2.44 2.44 0 0 1 2.146 2.378c.013.355.002.71.003 1.066"/></svg>