<svg xmlns="http://www.w3.org/2000/svg" width="668" height="237" fill="none" viewBox="0 0 668 237"><path fill="#4db8ff" d="M118.204 0c65.282 0 118.204 52.922 118.204 118.204 0 65.283-52.922 118.204-118.204 118.204S0 183.486 0 118.204 52.922 0 118.204 0M74.101 62.196c-16.421 0-26.833 17.716-18.57 32.039l54.433 94.347c3.655 6.34 12.817 6.34 16.472 0l54.444-94.347c8.252-14.3-2.16-32.038-18.57-32.039zm88.187 16.645c3.743 0 5.946 3.971 4.162 7.066l-28.594 51.184-.005.008-11.345 21.947V78.841zm-52.416.01v80.173l-11.334-21.937-.005-.007L69.93 85.921l-.082-.149c-1.634-3.072.558-6.92 4.243-6.92z"/><path fill="#000" d="M639.524 146.751V62.914H668v125.935h-31.435l-62.869-89.774v89.774h-28.662V62.914h36.243zM456.407 191.686c-41.975 0-72.3-28.605-72.3-64.946 0-36.342 30.325-64.947 72.3-64.947s72.3 28.785 72.3 64.947c0 36.161-30.325 64.946-72.3 64.946m0-24.467c24.593 0 40.865-17.811 40.865-40.479 0-22.669-16.272-40.48-40.865-40.48s-40.865 17.811-40.865 40.48 16.272 40.479 40.865 40.479M384.269 63.598v22.128H342.11v103.807h-29.771V85.726h-42.16V63.598z"/></svg>