<svg xmlns="http://www.w3.org/2000/svg" width="668" height="237" fill="none" viewBox="0 0 668 237"><path fill="#000" d="M118.204 0c65.282 0 118.204 52.922 118.204 118.204s-52.922 118.204-118.204 118.204S0 183.486 0 118.204 52.922 0 118.204 0M74.101 62.196c-16.421 0-26.833 17.716-18.57 32.038l54.433 94.348c3.655 6.34 12.817 6.34 16.472 0l54.444-94.348c8.252-14.3-2.16-32.038-18.57-32.038zm88.187 16.645c3.743 0 5.946 3.97 4.162 7.066l-28.594 51.184-.005.007-11.345 21.948V78.841zm-52.416.01v80.173l-11.334-21.937-.005-.007L69.93 85.921l-.082-.149c-1.634-3.073.558-6.92 4.243-6.92zM639.524 146.751V62.914H668v125.935h-31.435l-62.869-89.774v89.774h-28.662V62.914h36.243zM456.407 191.687c-41.975 0-72.3-28.605-72.3-64.947 0-36.34 30.325-64.946 72.3-64.946s72.3 28.785 72.3 64.946-30.325 64.947-72.3 64.947m0-24.468c24.593 0 40.865-17.81 40.865-40.479 0-22.668-16.272-40.479-40.865-40.479s-40.865 17.811-40.865 40.479c0 22.669 16.272 40.479 40.865 40.479M384.269 63.599v22.128H342.11v103.807h-29.771V85.727h-42.16V63.6z"/></svg>