<svg xmlns="http://www.w3.org/2000/svg" width="237" height="237" fill="none" viewBox="0 0 237 237"><path fill="#4db8ff" d="M118.204 0c65.282 0 118.204 52.922 118.204 118.205 0 65.282-52.922 118.203-118.204 118.203S0 183.487 0 118.205 52.922 0 118.204 0M74.101 62.197c-16.421 0-26.833 17.715-18.57 32.038l54.433 94.347c3.655 6.34 12.817 6.34 16.472 0l54.444-94.347c8.252-14.3-2.16-32.038-18.57-32.038zm88.187 16.644c3.743 0 5.946 3.971 4.162 7.067l-28.594 51.183-.005.008-11.345 21.947V78.841zm-52.416.01v80.173l-11.334-21.936-.005-.008L69.93 85.921l-.082-.149c-1.634-3.072.558-6.92 4.243-6.92z"/></svg>