<svg xmlns="http://www.w3.org/2000/svg" width="1920" height="296" viewBox="0 0 1920 296"><title>Full_Inverted</title><g fill="none" fill-rule="evenodd"><g fill="#f4f4f4"><path d="M1002.317 135.024c.347-28.152-18.149-48.249-44.653-48.521-26.294-.268-44.949 19.566-45.137 48-.192 28.288 18.294 48.38 44.653 48.531 26.467.15 44.784-19.332 45.137-48.01m-44.578 89.414c-50.803.16-87.672-36.804-88.348-88.574-.686-52.314 36.24-90.484 87.794-90.758 50.892-.27 87.536 36.548 88.165 88.575.638 52.53-36.114 90.597-87.611 90.757M1120.135 224.44c-36.635 0-58.544-22.876-59.46-23.853l-2.825-3a.18.18 0 0 1-.02-.215l18.957-32.4a.19.19 0 0 1 .136-.095h.005c.07 0 .112.02.145.057l5.051 5.032c.723.704 17.337 16.618 38.292 16.618 8.6 0 18.637-3.629 18.637-13.848 0-6.967-2.3-14.53-29.819-23.575-27.969-9.352-44.019-28.434-44.019-52.357 0-24.899 18.05-51.699 57.69-51.699 32.08 0 52.858 19.66 53.726 20.496l3.136 3.018c.061.056.075.15.033.225l-19.467 33.035a.16.16 0 0 1-.137.089h-.004c-.061 0-.113-.019-.146-.056l-5.037-5.277c-.15-.155-13.524-13.675-31.274-13.675-11.675 0-16.989 5.868-16.989 11.319 0 4.271 0 12.219 25.312 20.087 31.56 10.271 48.254 29.265 48.254 54.91 0 32.992-24.18 55.164-60.177 55.164M1874.215 109.012c-9.605-23.467-28.795-31.917-48.488-26.396-17.074 4.788-30.298 18.993-30.298 43.456 24.054-5.117 53.413-11.661 78.786-17.06m-74.303 48.911c23.665 33.27 56.248 32.32 108.065-.7 5.882 41.57 4.624 44.362-29.64 59.783-42.752 19.243-93.653 3.249-115.792-34.071-22.974-38.729-14.435-93.728 18.9-119.735 26.588-20.74 56.28-24.11 86.822-11.43 30.288 12.566 43.878 37.906 47.84 69.523 1.226 9.755-1.85 13.515-11.543 15.341-34.311 6.464-68.444 13.844-104.652 21.29M1291.461 49.512l-31.889 96.714-21.143-96.714H1197.3l37.278 170.51h42.958l56.23-170.51z"/><path d="m1332.931 49.512 31.894 96.714 21.143-96.714h41.123l-37.273 170.51h-42.963l-56.23-170.51zM1753.733 49.512c-10.83 1.446-10.426 4.169-27.668 5.173-17.238 1-79.387-5.173-92.381-5.173v170.51h41.048V87.367h66.594l17.458-37.856zM616.36 135.024c.347-28.152-18.149-48.249-44.653-48.521-26.298-.268-44.949 19.566-45.136 48-.193 28.288 18.294 48.38 44.652 48.531 26.467.15 44.78-19.332 45.137-48.01m-44.578 89.414c-50.802.16-87.672-36.804-88.348-88.574-.685-52.314 36.236-90.484 87.794-90.758 50.887-.27 87.536 36.548 88.165 88.575.639 52.53-36.114 90.597-87.61 90.757M469.315 180.773c-26.575 9.314-51.934-2.98-56.108-30.26-3.154-20.608-.614-42.094-.614-64.965h56.722c.328-7.07.558-12.459.934-17.764 1.507-21.237-7.244-20.852-20.848-20.575-12.412.253-16.214.333-39.029.333V5.602q-1.783-.456-3.558-.905c-22.115 26.115-44.23 52.234-68.252 80.607 12.177.55 19.778.896 31.232 1.408 0 24.937-1.784 48.55.37 71.8 4.48 48.226 47.841 77.167 93.578 61.779 1.963-.662 3.817-1.3 5.573-1.934zM763.165 183.035c-26.36-.151-44.846-20.243-44.658-48.532.193-28.434 18.843-48.267 45.141-48 26.505.273 45 20.37 44.653 48.521-.352 28.678-18.67 48.16-45.136 48.01m68.2-112.154c-15.093-17.181-34.312-25.776-57.652-25.776q-29.439 0-52.605 23.166V49.807h-39.193v242.141h39.193v-91.475q23.511 23.866 53.305 23.867 34.483-.002 57.13-25.26 22.815-25.424 22.815-63.577c0-26.011-7.661-47.55-22.993-64.623M1522.122 183.035c-26.354-.151-44.845-20.243-44.657-48.532.192-28.434 18.848-48.267 45.146-48 26.5.273 44.995 20.37 44.648 48.521-.357 28.678-18.67 48.16-45.137 48.01m42.705-133.523v19.993c-15.684-16.266-33.41-24.397-53.159-24.397-22.89 0-41.94 8.478-57.159 25.444q-22.834 25.441-22.833 63.609 0 38.864 22.833 64.829c15.332 16.97 34.739 25.448 58.206 25.448 18.59 0 35.959-7.548 52.112-22.655v18.238h39.381V49.51z"/></g><path fill="#92f19a" d="M139.418 40.625a85 85 0 0 0-2.648-2.244q-.308-.265-.624-.53v.01c-30.542-24.482-75.087-24.867-106.22 1.253C12.064 54.107 2.032 74.964.276 96.507-1.45 117.721 4.84 139.592 19.6 157.182c29.748 35.456 82.611 40.08 118.068 10.327l27.302-22.908 12.22-10.253c16.05-13.468 32.907-20.434 44.573-22.378-19.379-19.21-41.635-36.86-82.344-71.345"/><path fill="#00c890" d="m223.823 201.069-48.268-21.186a194.6 194.6 0 0 0 25.481-40.602 47 47 0 0 1 1.685-3.253c-7.079 3.38-13.34 8.567-18.106 15.083a194.3 194.3 0 0 1-32.823 34.936l43.278 30.09c22.289 15.492 53.398 8.732 67.026-15.52-11.68 5.442-25.547 6.038-38.273.452M142.879 25.809a98 98 0 0 0-2.643-2.244l-.629-.53.005.009C109.065-1.437 64.52-1.822 33.392 24.297 15.525 39.291 5.498 60.148 3.742 81.695 2.01 102.905 8.301 124.78 23.06 142.37c29.753 35.452 82.611 40.076 118.068 10.323l27.302-22.904 12.225-10.257c16.05-13.468 32.903-20.435 44.573-22.378-19.383-19.21-41.64-36.86-82.349-71.345"/><path fill="#025376" d="M202.721 136.028c6.957-3.324 14.707-4.9 22.613-4.267 9.436.756 18.787 4.417 26.678 11.229 16.318 14.078 20.716 38.08 10.436 57.013-.113.211-.24.408-.353.615 11.323-5.281 20.59-15.12 24.735-28.359 6.436-20.561-2.507-43.273-21.228-53.933-9.06-5.164-18.942-6.953-28.344-5.878-14.68 1.676-27.35 10.778-34.537 23.58"/><path fill="#009f9e" d="M252.014 142.992c-7.896-6.812-17.247-10.474-26.678-11.23-7.906-.633-15.656.944-22.613 4.268a48 48 0 0 0-1.69 3.248 194 194 0 0 1-25.481 40.607l48.272 21.185c12.727 5.587 26.594 4.99 38.269-.45.117-.207.24-.404.356-.615 10.276-18.933 5.878-42.935-10.435-57.013"/></g></svg>