<svg xmlns="http://www.w3.org/2000/svg" width="322" height="42" fill="none" viewBox="0 0 322 42"><path fill="#000" d="m53.501 22.935 2.973-5.755h-8.006v-6.6h-6.8v20.455c0 3.382.54 5.535 1.81 7.194 1.732 2.288 4.647 3.497 8.435 3.497a16 16 0 0 0 4.069-.48l.159-.057-1.052-5.756-.203.048q-1.274.222-2.567.235c-1.42 0-2.462-.369-3.103-1.098-.517-.61-.739-1.463-.739-2.878v-8.805zM75.286 16.844a11.7 11.7 0 0 0-1.93-.163c-2.683 0-5.212.959-6.757 2.556V17.17h-6.558v24.076h6.805v-15.04c.762-1.334 2.861-3.271 5.612-3.271a9 9 0 0 1 2.254.23l.231.077.792-6.336zM121.654 32.44a6.73 6.73 0 0 1-2.392 2.213 6.8 6.8 0 0 1-3.157.838c-3.712 0-6.405-2.629-6.405-6.235a6.17 6.17 0 0 1 1.803-4.46 6.2 6.2 0 0 1 2.049-1.366 6.3 6.3 0 0 1 2.422-.467 6.7 6.7 0 0 1 3.012.741 6.7 6.7 0 0 1 2.35 2.012l.13.168 4.826-4.216-.116-.148a12.9 12.9 0 0 0-4.55-3.562 13 13 0 0 0-5.657-1.234c-7.321 0-13.059 5.51-13.059 12.546 0 7.127 5.594 12.499 13.03 12.499 4.648 0 8.248-1.765 10.999-5.4l.116-.159-5.251-3.904zM138.859 16.68c-6.756 0-11.824 5.396-11.824 12.547 0 7.357 5.227 12.498 12.712 12.498 3.885 0 7.722-1.654 9.956-4.316l.121-.139-3.924-3.885-.14.149c-.579.628-2.722 2.671-5.863 2.671-3.277 0-5.791-2.134-6.231-5.218h16.496l.029-.163a10.2 10.2 0 0 0 .149-1.841c0-6.897-5.043-12.302-11.481-12.302m0 5.52a4.6 4.6 0 0 1 2.939 1.067 4.56 4.56 0 0 1 1.569 2.69h-9.397a5 5 0 0 1 1.794-2.716 5.03 5.03 0 0 1 3.095-1.04M169.113 16.632c0-2.139.319-2.978.84-3.63.729-.859 1.887-1.295 3.441-1.295.631.005 1.26.084 1.872.235l.208.057 1.057-5.812-.179-.044a14.7 14.7 0 0 0-3.86-.446c-2.802-.07-5.52.95-7.577 2.84-1.815 1.74-2.626 4.163-2.626 7.85v24.859h6.805V22.934h11.447v18.312h6.8V17.169h-18.228z"/><path fill="#000" d="M183.939 4.719a4.3 4.3 0 0 0-2.345.77 4.233 4.233 0 0 0-.529 6.522 4.3 4.3 0 0 0 4.646.873 4.27 4.27 0 0 0 1.901-1.567 4.24 4.24 0 0 0 .714-2.349 4.25 4.25 0 0 0-1.296-3.04 4.3 4.3 0 0 0-3.091-1.209M204.971 16.68a10.66 10.66 0 0 0-6.549 2.188V17.17h-6.558v24.076h6.804V25.731a7.4 7.4 0 0 1 2.494-2.017 7.5 7.5 0 0 1 3.119-.779 4.84 4.84 0 0 1 3.46 1.257c.965.959 1.371 2.24 1.371 4.316v12.738h6.8V28.983c0-3.784-.777-6.384-2.51-8.422a10.9 10.9 0 0 0-3.781-2.873 11 11 0 0 0-4.65-1.007M260.885 16.68a10.66 10.66 0 0 0-6.554 2.187V17.17h-6.553v24.076h6.799V25.73a7.4 7.4 0 0 1 2.497-2.017 7.46 7.46 0 0 1 3.121-.779 4.84 4.84 0 0 1 3.455 1.257c.966.96 1.371 2.24 1.371 4.316v12.739h6.8V28.982c0-3.784-.772-6.383-2.51-8.422a10.9 10.9 0 0 0-3.778-2.873 11 11 0 0 0-4.648-1.007M292.64 32.44a6.74 6.74 0 0 1-2.392 2.213 6.8 6.8 0 0 1-3.158.838c-3.711 0-6.404-2.629-6.404-6.235a6.183 6.183 0 0 1 1.802-4.46 6.23 6.23 0 0 1 4.472-1.833 6.7 6.7 0 0 1 3.011.74 6.7 6.7 0 0 1 2.351 2.013l.13.168 4.826-4.216-.116-.148a12.94 12.94 0 0 0-4.55-3.562 13 13 0 0 0-5.657-1.234c-7.321 0-13.054 5.51-13.054 12.546 0 7.127 5.588 12.499 13.03 12.499 4.652 0 8.248-1.765 10.998-5.4l.121-.159-5.255-3.904zM309.831 16.68c-6.757 0-11.829 5.396-11.829 12.547 0 7.357 5.232 12.498 12.712 12.498 3.89 0 7.722-1.654 9.956-4.316l.121-.139-3.924-3.885-.14.149c-.579.628-2.722 2.671-5.863 2.671-3.277 0-5.792-2.134-6.231-5.218h16.496l.028-.163q.161-.914.155-1.841c.019-6.897-5.024-12.302-11.481-12.302m-4.87 9.276a4.98 4.98 0 0 1 1.784-2.71 5.03 5.03 0 0 1 3.086-1.045 4.6 4.6 0 0 1 2.935 1.067 4.55 4.55 0 0 1 1.567 2.688zM93.79 18.868a11.2 11.2 0 0 0-6.8-2.187c-6.685 0-11.926 5.51-11.926 12.546a12.8 12.8 0 0 0 3.118 8.427 12.2 12.2 0 0 0 4.144 3.016 12.3 12.3 0 0 0 5.025 1.056 10.6 10.6 0 0 0 4.044-.782l.121-.048V37.17l2.34 2.12 2.134 1.956h4.343V17.17h-6.544zm-5.956 4.067a7.2 7.2 0 0 1 3.188.729 7.1 7.1 0 0 1 2.526 2.067v6.95a6.8 6.8 0 0 1-2.444 2.077 6.85 6.85 0 0 1-3.13.733c-3.48 0-6.105-2.686-6.105-6.235 0-4.115 3.07-6.321 5.965-6.321M237.093 18.868a11.2 11.2 0 0 0-6.8-2.187c-6.684 0-11.925 5.51-11.925 12.546a12.8 12.8 0 0 0 3.103 8.427 12.2 12.2 0 0 0 4.144 3.016 12.3 12.3 0 0 0 5.025 1.056 10.6 10.6 0 0 0 4.045-.782l.12-.048V37.17c.353.311 1.043.959 2.341 2.12l2.148 1.956h4.343V17.17h-6.544zm-5.96 4.067a7.2 7.2 0 0 1 3.188.729 7.1 7.1 0 0 1 2.526 2.067v6.95a6.8 6.8 0 0 1-2.442 2.076 6.85 6.85 0 0 1-3.127.734c-3.48 0-6.105-2.686-6.105-6.235 0-4.115 3.069-6.321 5.96-6.321"/><path fill="#00f2b1" fill-rule="evenodd" d="m18.19 16.604 4.69 4.652 4.628-4.585-4.69-4.652zM23.005 0l-4.667 4.652 10.665 10.58 4.691-4.652z" clip-rule="evenodd"/><path fill="#48e0ff" fill-rule="evenodd" d="M15.477 4.652 10.787 0 6.152 4.585l4.691 4.652zM0 10.681l10.666 10.575 4.69-4.652L4.691 6.053z" clip-rule="evenodd"/></svg>