<svg xmlns="http://www.w3.org/2000/svg" width="174" height="25" fill="none"><path fill="#F3F5F0" d="M27.821 21.216c-1.044 0-1.665-.652-1.665-1.85v-5.71h2.503l1.54-3.13h-4.045V6.21h-3.877v13.207c0 3.337 1.84 5.032 4.997 5.032 1.194 0 2.362-.287 3.157-.886l-1.044-2.868c-.423.34-.995.521-1.567.521h.001Zm12.723-11.211c-2.063 0-3.654.704-4.6 2.06v-1.85h-3.703v14.028h3.877V17.62c0-2.687 1.417-3.912 3.554-3.912.299 0 .548.026.87.052v-3.755h.002Zm61.043-3.903c.487-1.232-.071-2.644-1.245-3.154-1.175-.51-2.521.074-3.007 1.306-.487 1.232.07 2.644 1.245 3.154 1.175.51 2.521-.074 3.007-1.306Zm9.854 3.903c-1.74 0-3.242.652-4.243 1.851v-1.643h-3.551v14.028h3.718v-6.936c0-2.58 1.288-3.781 3.075-3.781 1.644 0 2.597 1.043 2.597 3.31v7.406h3.718v-8.031c0-4.276-2.288-6.207-5.314-6.207v.003Zm43.915 11.338c-1.88 0-3.357-1.434-3.357-3.885 0-2.45 1.477-3.885 3.357-3.885 1.167 0 2.191.6 2.882 1.929l2.882-1.695c-.928-2.294-3.049-3.572-5.739-3.572-4.166 0-7.143 2.998-7.143 7.222s2.977 7.222 7.143 7.222c2.69 0 4.809-1.304 5.739-3.546l-2.882-1.721c-.691 1.356-1.714 1.928-2.882 1.928v.003Z"/><path fill="#F3F5F0" d="M174 17.28c0-4.512-2.772-7.276-6.361-7.276-3.59 0-6.521 3.024-6.521 7.222s2.749 7.222 6.975 7.222c2.204 0 3.908-.782 5.044-2.268l-1.886-2.347c-.84.913-1.772 1.356-3.066 1.356-1.863 0-3.158-1.07-3.5-2.816h9.247c.022-.34.068-.782.068-1.095v.001Zm-9.36-1.278c.25-1.799 1.409-2.92 3.021-2.92 1.612 0 2.748 1.147 2.999 2.92h-6.02Zm-73.23-5.789V8.608c0-1.382.622-2.034 1.765-2.034a2.63 2.63 0 0 1 1.567.495l1.019-2.946c-.721-.52-1.84-.756-2.959-.756-3.331 0-5.17 2.06-5.17 5.215V24.24h3.877V13.654h6.071V24.24h3.455V10.212h-9.626l.001.001Zm36.734.753c-1.005-.726-2.192-1.145-3.465-1.145-3.621 0-6.558 3.398-6.558 7.59 0 4.19 2.937 7.589 6.558 7.589.788 0 1.544-.161 2.242-.457v-2.4l2.535 2.506h2.312V10.213h-3.624v.753Zm0 8.444c-.593 1.09-1.65 1.702-2.885 1.702-1.931 0-3.418-1.46-3.418-3.885s1.486-3.885 3.418-3.885c1.235 0 2.292.612 2.885 1.702v4.366Zm-65.48 1.933c-1.881 0-3.358-1.434-3.358-3.885 0-2.45 1.477-3.885 3.358-3.885 1.166 0 2.19.6 2.881 1.929l2.882-1.695c-.928-2.294-3.049-3.572-5.739-3.572-4.166 0-7.143 2.998-7.143 7.222s2.977 7.222 7.143 7.222c2.69 0 4.81-1.304 5.739-3.546l-2.882-1.721c-.69 1.356-1.714 1.928-2.881 1.928v.003Z"/><path fill="#F3F5F0" d="M74.946 10.005c-3.726 0-6.52 3.024-6.52 7.222s2.748 7.222 6.975 7.222c2.204 0 3.907-.782 5.043-2.268l-1.885-2.347c-.841.913-1.773 1.356-3.067 1.356-1.863 0-3.158-1.069-3.5-2.816h9.247c.023-.339.068-.782.068-1.095 0-4.511-2.772-7.275-6.361-7.275v.001Zm-2.999 5.997c.25-1.799 1.409-2.92 3.021-2.92 1.612 0 2.749 1.147 2.999 2.92h-6.02Zm-21.381-5.036c-1.004-.726-2.192-1.145-3.464-1.145-3.622 0-6.558 3.398-6.558 7.59 0 4.19 2.936 7.589 6.558 7.589.788 0 1.543-.161 2.242-.457v-2.4l2.535 2.506h2.312V10.213h-3.625v.753Zm0 8.444c-.593 1.09-1.65 1.702-2.884 1.702-1.931 0-3.418-1.46-3.418-3.885s1.485-3.885 3.418-3.885c1.234 0 2.291.612 2.884 1.702v4.366Zm91.232-9.405c-1.74 0-3.241.652-4.242 1.851v-1.643h-3.551v14.028h3.718v-6.936c0-2.58 1.287-3.781 3.074-3.781 1.645 0 2.598 1.043 2.598 3.31v7.406h3.718v-8.031c0-4.276-2.289-6.207-5.315-6.207v.003ZM12.345 0 9.728 2.744 15.693 9l2.616-2.745L12.345 0Zm.105 6.913L9.833 9.657l.006.005-.006.006 2.617 2.743 2.616-2.743-.005-.006.005-.005-2.616-2.744ZM2.616 3.41 0 6.155l5.964 6.257L8.58 9.668 2.616 3.41Zm3.242 2.088 2.617-2.745-.005-.004.005-.005L5.858 0 3.243 2.744l.005.005-.005.004 2.615 2.745Z"/></svg>