<svg xmlns="http://www.w3.org/2000/svg" width="1024" height="261.451" viewBox="0 0 1482.08 378.41"><path d="M915.31 115.89h154.82v40.74l-84.2 114.08h84.2v47.98H915.31v-40.74l84.2-114.08h-84.2zM1437.71 243.55c19-7.25 38.93-26.26 38.93-59.76 0-40.74-28.06-67-69.71-67h-95.06v201.9h52.51v-67.9h19.92l37.12 67.9h60.66zm-37.12-39.84h-36.21v-40.74h36.21c13.58 0 22.64 8.15 22.64 19.92 0 12.67-9.06 20.82-22.64 20.82M1184.21 113.17c-61.57 0-105 44.36-105 104.12s44.34 104.12 105 104.12 105.93-44.37 105.93-104.12-44.37-104.12-105.93-104.12m0 161.16c-30.78 0-51.61-23.54-51.61-57 0-34.4 20.83-57 51.61-57s52.51 23.54 52.51 57-21.73 57-52.51 57ZM743.29 115.89h146.67v47.08H795.8v29.87h91.44v46.18H795.8v32.59h94.16v47.08H743.29zM222.7 87.82c0-48-41.65-87.82-92.35-87.82S38 39.84 38 87.82v28.07H0v201.9l130.35 60.62 130.38-60.66v-201h-38zm-137.62 0c0-22.63 19.92-40.74 45.27-40.74s45.27 18.11 45.27 40.74v28.07H85.08zm123.13 197.37-77.86 36.22-77.86-36.22V163.87h155.72zM718.85 183.79c0-40.74-28.07-67-69.72-67h-95.06v201.9h52.51v-67.9h19.92l37.12 67.9h60.68l-44.37-75.14c19-7.25 38.92-26.26 38.92-59.76m-76.06 19.92h-36.21v-40.74h36.21c13.58 0 22.64 8.15 22.64 19.92 0 12.67-9.06 20.82-22.64 20.82M366.66 115.89h163.87v47.98H474.4v154.82h-52.52V163.87h-55.22z" style="fill:#fff;stroke-width:0"/></svg>