<svg xmlns="http://www.w3.org/2000/svg" id="Layer_2" data-name="Layer 2" viewBox="0 0 398.384 106.397"><defs><style>.cls-1{fill:#f3f5f0}</style></defs><g id="Layer_2-2" data-name="Layer 2"><g id="Layer_1-2" data-name="Layer 1-2"><path d="M330.402.313H365.9l32.465 84.94c.101.194-.252.55-.325.55h-17.989c-.42-.341-.67-.784-.888-1.269-1.895-4.216-2.931-9.355-4.872-13.575-.213-.462-.493-1.24-1.002-1.394l-34.855.072c-.548.33-4.019 10.401-4.616 11.915-.557 1.41-1.065 3.087-1.978 4.25h-17.99l-.264-.494L340.35 15.74c.05-.2-.251-.58-.355-.58h-9.354c-.065 0-.509-.458-.542-.627zm13.672 54.12h23.985c.121 0 .395-.401.374-.601l-11.984-32.58-.622-.348-12.343 33.272c.228-.018.463.236.59.257m-202.079-22.63c.42 1.457 2.162-1.419 2.515-1.8 7.015-7.554 15.505-10.497 25.79-7.78 20.578 5.436 25.252 34.012 16.193 50.654-8.56 15.726-29.87 20.794-42.573 6.815-.186-.204-1.12-2.099-1.568-1.314l-.237 28.02h-15.231l.12-83.335h14.99v8.74Zm13.37 4.488c-17.77 2.555-18.458 35.314 2.13 36.788 22.872 1.638 23.094-40.416-2.13-36.788m82.093 22.692c1.456 16.664 25.092 20.644 31.937 5.308l.32-.064 13.887 5.318c.775.461.184 1.541-.122 2.219-4.86 10.765-19.222 16.85-30.55 16.192-24.593-1.43-37.58-25.21-28.608-47.476 10.563-26.215 50.783-25.612 58.3 2.267 1.079 4 1.929 10.59 1.618 14.69-.03.4-.063.79-.225 1.162l-1.105.384zm30.701-10.776c-.566-8.724-7.035-14.083-15.722-13.662-7.899.384-13.036 6.14-14.26 13.662zM70.038.313v14.728c-.386.592-.939.12-1.549.107-8.252-.179-16.604.056-24.832.136-.113.053-.483.433-.483.475v69.685l-.36.359h-15.83l-.36-.36V15.76c0-.042-.37-.422-.483-.475-8.513-.399-17.117.044-25.651.017-.28 0-.31-.016-.49-.26V.313z" class="cls-1"/><path d="M213.952.313c.135 22.389-.176 44.791-.012 67.182.038 5.192.622 10.586.263 15.805-.055.797-.105 1.91-.611 2.503H198.72l-.36-.36V15.52l-.36-.359h-9.594l-.36-.359V.673l.36-.36h25.545ZM70.038 23.063v7.782l.487.255c.953-.603 1.507-1.628 2.388-2.413 5.522-4.927 11.844-6.927 19.313-6.104.763.084 2.114.371 2.05 1.304l-.117 14.038c-.312.447-4.178.167-5.062.214-11.41.615-17.923 4.291-18.59 16.404-.547 9.958.42 20.422.023 30.434l-.372.826h-16.07v-62.74zm32.129 0h15.843v62.74h-15.843zM102.476 0h15.341v15.341h-15.341zm193.788 41.412h17.146v17.146h-17.146z" class="cls-1"/></g></g></svg>