<svg xmlns="http://www.w3.org/2000/svg" width="335" height="87" fill="none" viewBox="0 0 335 87"><mask id="a" width="335" height="87" x="0" y="0" maskUnits="userSpaceOnUse" style="mask-type:luminance"><path fill="#fff" d="M0 0h334.562v87H0z"/></mask><g fill="#4531d7" mask="url(#a)"><path d="M118.163 22.945 112.89 9.021l-5.277 13.924zm-16.183 14.96h-6.253l14.318-36.11h5.842l14.373 36.11h-6.461L120.024 28h-14.27zm39.922-4.953v4.953h-2.999c-4.807 0-7.342-2.94-7.342-7.48V1.795h5.741v28.27c0 1.855.775 2.887 2.583 2.887zm3.711-16.713h-4.911v-4.693h4.911V6.179l5.688-3.301v8.668h6.048v4.693h-6.048V28.98c0 2.58 1.032 3.972 3.258 3.972h2.79v4.953h-3.412c-5.429 0-8.324-3.405-8.324-8.563zm18.659 5.676h13.182c-.725-4.231-3.153-6.19-6.462-6.19-3.568 0-5.995 2.115-6.72 6.19m19.021 4.075h-19.228c.413 5.106 3.203 7.533 7.031 7.533 3.306 0 5.841-1.448 7.342-5.317l4.858 1.86c-2.224 5.93-6.877 8.406-12.097 8.406-7.549 0-12.925-5.517-12.925-13.773 0-8.254 5.323-13.721 12.769-13.721 7.186 0 12.303 5.467 12.303 13.568 0 .464 0 .98-.05 1.442zm17.875-15.012v6.088h-2.69c-3.361 0-5.736 2.63-5.736 6.859v13.98h-5.741v-26.36h5.741v4.127c1.498-3.199 3.979-4.694 6.978-4.694zm25.223 10.163v16.764h-5.738V22.07c0-3.766-2.226-6.035-5.324-6.035-3.57 0-6.103 2.372-6.103 6.294v15.578h-5.739V11.546h5.739v3.713c1.654-3.045 4.497-4.281 7.599-4.281 5.532 0 9.566 4.023 9.566 10.163m21.376 9.13c0-2.58-2.533-3.972-6.099-3.972-3.517 0-6.154 1.34-6.154 3.972 0 2.578 2.637 3.92 6.154 3.92 3.566 0 6.099-1.392 6.099-3.92m5.585-8.874v16.508h-5.379v-2.578c-1.603 2.062-4.394 3.145-8.014 3.145-5.945 0-10.337-2.992-10.337-8.15 0-5.106 4.497-8.201 10.699-8.201 3.258 0 5.792.927 7.343 2.578v-2.734c0-4.125-2.584-5.88-6.152-5.88-3.205 0-5.429 1.755-6.36 4.591l-4.807-1.91c1.604-5.363 6.101-7.788 11.374-7.788 6.098 0 11.633 3.198 11.633 10.42m6.64-5.158h-4.91v-4.693h4.91V6.179l5.688-3.301v8.668h6.049v4.693h-6.049V28.98c0 2.58 1.035 3.972 3.258 3.972h2.791v4.953h-3.412c-5.429 0-8.325-3.405-8.325-8.563zm14.394-4.693h5.738v26.359h-5.738zm-.879-7.43c0-2.218 1.652-3.61 3.825-3.61 2.12 0 3.774 1.392 3.774 3.61 0 2.221-1.654 3.56-3.774 3.56-2.173 0-3.825-1.341-3.825-3.56m14.96 7.43 7.031 18.673 6.98-18.673h6.101l-10.445 26.359h-5.376l-10.546-26.36zm25.827 10.369h13.185c-.723-4.231-3.153-6.19-6.464-6.19-3.566 0-5.996 2.115-6.721 6.19m19.026 4.075h-19.23c.413 5.106 3.203 7.533 7.03 7.533 3.307 0 5.842-1.448 7.341-5.317l4.859 1.86c-2.223 5.93-6.874 8.406-12.096 8.406-7.549 0-12.925-5.517-12.925-13.773 0-8.254 5.325-13.721 12.769-13.721 7.186 0 12.303 5.467 12.303 13.568 0 .464 0 .98-.051 1.442zM118.163 70.928l-5.273-13.925-5.277 13.927h10.548zM101.98 85.89h-6.253l14.321-36.11h5.841l14.373 36.11h-6.461l-3.775-9.905h-14.272zm30.363-26.361h5.737v26.36h-5.737zm-.878-7.427c0-2.221 1.652-3.613 3.825-3.613 2.12 0 3.774 1.394 3.774 3.613 0 2.216-1.654 3.557-3.774 3.557-2.171 0-3.825-1.339-3.825-3.557m25.682 6.859v6.09h-2.687c-3.361 0-5.738 2.628-5.738 6.86V85.89h-5.739V59.526h5.736v4.128c1.501-3.198 3.984-4.693 6.98-4.693zm12.687 21.977v4.952h-2.999c-4.807 0-7.343-2.942-7.343-7.48V49.78h5.741v28.268c0 1.857.776 2.89 2.584 2.89zm2.228-21.41h5.736V85.89h-5.736zm-.879-7.426c0-2.221 1.652-3.613 3.825-3.613 2.12 0 3.774 1.394 3.774 3.613 0 2.216-1.652 3.557-3.774 3.557-2.171 0-3.825-1.339-3.825-3.557m34.42 17.022V85.89h-5.739V70.053c0-3.766-2.223-6.037-5.323-6.037-3.568 0-6.103 2.374-6.103 6.296V85.89h-5.737V59.526h5.737v3.714c1.654-3.043 4.497-4.282 7.599-4.282 5.534 0 9.566 4.025 9.566 10.166m9.348.774h13.179c-.722-4.231-3.15-6.191-6.461-6.191-3.566 0-5.996 2.115-6.718 6.19m19.024 4.075h-19.233c.413 5.105 3.205 7.532 7.03 7.532 3.309 0 5.844-1.444 7.343-5.314l4.86 1.857c-2.224 5.932-6.877 8.41-12.099 8.41-7.547 0-12.925-5.52-12.925-13.774s5.325-13.723 12.771-13.723c7.186 0 12.305 5.47 12.305 13.567 0 .465 0 .98-.052 1.445m2.051 3.87 4.653-1.498c.828 3.716 3.722 5.417 7.134 5.417 3.309 0 5.378-1.237 5.378-3.043 0-1.754-1.604-2.58-5.172-3.404l-2.586-.671c-5.945-1.445-8.425-4.025-8.425-7.995 0-4.54 4.034-7.635 10.238-7.635 5.84 0 10.442 2.992 11.165 8.46l-4.807 1.185c-.622-3.558-3.205-4.9-6.358-4.9-2.845 0-4.706 1.134-4.706 2.785 0 1.962 2.171 2.683 5.326 3.457l2.636.618c5.532 1.394 8.219 3.922 8.219 7.894 0 4.643-4.291 7.944-10.855 7.944-5.532 0-10.392-2.58-11.84-8.615M27.807 40.512c3.355.993 6.91 2.655 10.092 5.41 3.905 3.38 6.647 7.861 8.203 13.393l10.405-28.898zM47.46 72.005l-5.415-.922c-.064-9.458-2.678-16.5-7.767-20.926-7.71-6.704-18.806-5.344-18.916-5.33l-1.297-5.38L60.192 23.22l3.55 3.567-16.284 45.221z"/><path d="M42.554 80.166h.028c9.692 0 18.803-3.762 25.661-10.596a36 36 0 0 0 7.899-11.743 35.9 35.9 0 0 0 2.755-13.874c.014-19.98-16.268-36.249-36.292-36.263h-.028a36.15 36.15 0 0 0-13.892 2.736 36.1 36.1 0 0 0-11.768 7.86 36 36 0 0 0-7.9 11.743 35.9 35.9 0 0 0-2.755 13.874C6.248 63.886 22.53 80.15 42.554 80.166m.028 5.568h-.03a41.7 41.7 0 0 1-16.04-3.173 41.6 41.6 0 0 1-13.578-9.094 41.5 41.5 0 0 1-9.095-13.56A41.5 41.5 0 0 1 .681 43.898a41.5 41.5 0 0 1 3.18-16.004 41.5 41.5 0 0 1 9.112-13.548A41.6 41.6 0 0 1 26.55 5.278a41.7 41.7 0 0 1 16.028-3.156h.032a41.7 41.7 0 0 1 16.04 3.174 41.6 41.6 0 0 1 13.578 9.093 41.5 41.5 0 0 1 9.093 13.56 41.5 41.5 0 0 1 3.157 16.009 41.5 41.5 0 0 1-3.179 16.005 41.5 41.5 0 0 1-9.112 13.547 41.6 41.6 0 0 1-13.577 9.068 41.7 41.7 0 0 1-16.027 3.156"/></g></svg>