<svg xmlns="http://www.w3.org/2000/svg" width="52" height="64" fill="none"><path fill="#F7F8F9" d="M33.263 2.043a3.13 3.13 0 0 0-.178.324 10.151 10.151 0 0 1-1.78 2.368c-.633.6-1.322 1.137-2.059 1.603l-.219.127-.13.424c-.07.235-.213.689-.315 1.003-.213.664-.222.723-.096.684a29.37 29.37 0 0 1 1.515-.415 19.497 19.497 0 0 1 1.614-.214l.303-.03.105-.339c.2-.66.578-2.07.742-2.76.26-1.098.557-2.775.498-2.775Zm5.84 16.567c-.143-.406-.282-.798-.32-.864a3.745 3.745 0 0 0-.574-.534c-.285-.226-.822-.666-1.2-.978-.964-.81-1.379-1.04-1.916-1.08a1.137 1.137 0 0 0-.545.086c-.18.068-.351.154-.513.258-.218.152-.432.356-.432.433.06.162.129.32.206.476.263.602.481 1.222.654 1.856.126.445.327.6 1.297 1.004.97.405 1.12.457 1.45.52.43.07.867.074 1.298.013a2.39 2.39 0 0 0 .733-.344l.114-.092-.252-.754Zm0 0c-.143-.406-.282-.798-.32-.864a3.745 3.745 0 0 0-.574-.534c-.285-.226-.822-.666-1.2-.978-.964-.81-1.379-1.04-1.916-1.08a1.137 1.137 0 0 0-.545.086c-.18.068-.351.154-.513.258-.218.152-.432.356-.432.433.06.162.129.32.206.476.263.602.481 1.222.654 1.856.126.445.327.6 1.297 1.004.97.405 1.12.457 1.45.52.43.07.867.074 1.298.013a2.39 2.39 0 0 0 .733-.344l.114-.092-.252-.754Zm0 0c-.143-.406-.282-.798-.32-.864a3.745 3.745 0 0 0-.574-.534c-.285-.226-.822-.666-1.2-.978-.964-.81-1.379-1.04-1.916-1.08a1.137 1.137 0 0 0-.545.086c-.18.068-.351.154-.513.258-.218.152-.432.356-.432.433.06.162.129.32.206.476.263.602.481 1.222.654 1.856.126.445.327.6 1.297 1.004.97.405 1.12.457 1.45.52.43.07.867.074 1.298.013a2.39 2.39 0 0 0 .733-.344l.114-.092-.252-.754Zm0 0c-.143-.406-.282-.798-.32-.864a3.745 3.745 0 0 0-.574-.534c-.285-.226-.822-.666-1.2-.978-.964-.81-1.379-1.04-1.916-1.08a1.137 1.137 0 0 0-.545.086c-.18.068-.351.154-.513.258-.218.152-.432.356-.432.433.06.162.129.32.206.476.263.602.481 1.222.654 1.856.126.445.327.6 1.297 1.004.97.405 1.12.457 1.45.52.43.07.867.074 1.298.013a2.39 2.39 0 0 0 .733-.344l.114-.092-.252-.754Zm0 0c-.143-.406-.282-.798-.32-.864a3.745 3.745 0 0 0-.574-.534c-.285-.226-.822-.666-1.2-.978-.964-.81-1.379-1.04-1.916-1.08a1.137 1.137 0 0 0-.545.086c-.18.068-.351.154-.513.258-.218.152-.432.356-.432.433.06.162.129.32.206.476.263.602.481 1.222.654 1.856.126.445.327.6 1.297 1.004.97.405 1.12.457 1.45.52.43.07.867.074 1.298.013a2.39 2.39 0 0 0 .733-.344l.114-.092-.252-.754Zm0 0c-.143-.406-.282-.798-.32-.864a3.745 3.745 0 0 0-.574-.534c-.285-.226-.822-.666-1.2-.978-.964-.81-1.379-1.04-1.916-1.08a1.137 1.137 0 0 0-.545.086c-.18.068-.351.154-.513.258-.218.152-.432.356-.432.433.06.162.129.32.206.476.263.602.481 1.222.654 1.856.126.445.327.6 1.297 1.004.97.405 1.12.457 1.45.52.43.07.867.074 1.298.013a2.39 2.39 0 0 0 .733-.344l.114-.092-.252-.754Zm0 0c-.143-.406-.282-.798-.32-.864a3.745 3.745 0 0 0-.574-.534c-.285-.226-.822-.666-1.2-.978-.964-.81-1.379-1.04-1.916-1.08a1.137 1.137 0 0 0-.545.086c-.18.068-.351.154-.513.258-.218.152-.432.356-.432.433.06.162.129.32.206.476.263.602.481 1.222.654 1.856.126.445.327.6 1.297 1.004.97.405 1.12.457 1.45.52.43.07.867.074 1.298.013a2.39 2.39 0 0 0 .733-.344l.114-.092-.252-.754Zm0 0c-.143-.406-.282-.798-.32-.864a3.745 3.745 0 0 0-.574-.534c-.285-.226-.822-.666-1.2-.978-.964-.81-1.379-1.04-1.916-1.08a1.137 1.137 0 0 0-.545.086c-.18.068-.351.154-.513.258-.218.152-.432.356-.432.433.06.162.129.32.206.476.263.602.481 1.222.654 1.856.126.445.327.6 1.297 1.004.97.405 1.12.457 1.45.52.43.07.867.074 1.298.013a2.39 2.39 0 0 0 .733-.344l.114-.092-.252-.754Zm0 0c-.143-.406-.282-.798-.32-.864a3.745 3.745 0 0 0-.574-.534c-.285-.226-.822-.666-1.2-.978-.964-.81-1.379-1.04-1.916-1.08a1.137 1.137 0 0 0-.545.086c-.18.068-.351.154-.513.258-.218.152-.432.356-.432.433.06.162.129.32.206.476.263.602.481 1.222.654 1.856.126.445.327.6 1.297 1.004.97.405 1.12.457 1.45.52.43.07.867.074 1.298.013a2.39 2.39 0 0 0 .733-.344l.114-.092-.252-.754Zm0 0c-.143-.406-.282-.798-.32-.864a3.745 3.745 0 0 0-.574-.534c-.285-.226-.822-.666-1.2-.978-.964-.81-1.379-1.04-1.916-1.08a1.137 1.137 0 0 0-.545.086c-.18.068-.351.154-.513.258-.218.152-.432.356-.432.433.06.162.129.32.206.476.263.602.481 1.222.654 1.856.126.445.327.6 1.297 1.004.97.405 1.12.457 1.45.52.43.07.867.074 1.298.013a2.39 2.39 0 0 0 .733-.344l.114-.092-.252-.754Zm0 0c-.143-.406-.282-.798-.32-.864a3.745 3.745 0 0 0-.574-.534c-.285-.226-.822-.666-1.2-.978-.964-.81-1.379-1.04-1.916-1.08a1.137 1.137 0 0 0-.545.086c-.18.068-.351.154-.513.258-.218.152-.432.356-.432.433.06.162.129.32.206.476.263.602.481 1.222.654 1.856.126.445.327.6 1.297 1.004.97.405 1.12.457 1.45.52.43.07.867.074 1.298.013a2.39 2.39 0 0 0 .733-.344l.114-.092-.252-.754Zm0 0c-.143-.406-.282-.798-.32-.864a3.745 3.745 0 0 0-.574-.534c-.285-.226-.822-.666-1.2-.978-.964-.81-1.379-1.04-1.916-1.08a1.137 1.137 0 0 0-.545.086c-.18.068-.351.154-.513.258-.218.152-.432.356-.432.433.06.162.129.32.206.476.263.602.481 1.222.654 1.856.126.445.327.6 1.297 1.004.97.405 1.12.457 1.45.52.43.07.867.074 1.298.013a2.39 2.39 0 0 0 .733-.344l.114-.092-.252-.754Zm0 0c-.143-.406-.282-.798-.32-.864a3.745 3.745 0 0 0-.574-.534c-.285-.226-.822-.666-1.2-.978-.964-.81-1.379-1.04-1.916-1.08a1.137 1.137 0 0 0-.545.086c-.18.068-.351.154-.513.258-.218.152-.432.356-.432.433.06.162.129.32.206.476.263.602.481 1.222.654 1.856.126.445.327.6 1.297 1.004.97.405 1.12.457 1.45.52.43.07.867.074 1.298.013a2.39 2.39 0 0 0 .733-.344l.114-.092-.252-.754Zm0 0c-.143-.406-.282-.798-.32-.864a3.745 3.745 0 0 0-.574-.534c-.285-.226-.822-.666-1.2-.978-.964-.81-1.379-1.04-1.916-1.08a1.137 1.137 0 0 0-.545.086c-.18.068-.351.154-.513.258-.218.152-.432.356-.432.433.06.162.129.32.206.476.263.602.481 1.222.654 1.856.126.445.327.6 1.297 1.004.97.405 1.12.457 1.45.52.43.07.867.074 1.298.013a2.39 2.39 0 0 0 .733-.344l.114-.092-.252-.754Zm0 0c-.143-.406-.282-.798-.32-.864a3.745 3.745 0 0 0-.574-.534c-.285-.226-.822-.666-1.2-.978-.964-.81-1.379-1.04-1.916-1.08a1.137 1.137 0 0 0-.545.086c-.18.068-.351.154-.513.258-.218.152-.432.356-.432.433.06.162.129.32.206.476.263.602.481 1.222.654 1.856.126.445.327.6 1.297 1.004.97.405 1.12.457 1.45.52.43.07.867.074 1.298.013a2.39 2.39 0 0 0 .733-.344l.114-.092-.252-.754Zm0 0c-.143-.406-.282-.798-.32-.864a3.745 3.745 0 0 0-.574-.534c-.285-.226-.822-.666-1.2-.978-.964-.81-1.379-1.04-1.916-1.08a1.137 1.137 0 0 0-.545.086c-.18.068-.351.154-.513.258-.218.152-.432.356-.432.433.06.162.129.32.206.476.263.602.481 1.222.654 1.856.126.445.327.6 1.297 1.004.97.405 1.12.457 1.45.52.43.07.867.074 1.298.013a2.39 2.39 0 0 0 .733-.344l.114-.092-.252-.754Zm0 0c-.143-.406-.282-.798-.32-.864a3.745 3.745 0 0 0-.574-.534c-.285-.226-.822-.666-1.2-.978-.964-.81-1.379-1.04-1.916-1.08a1.137 1.137 0 0 0-.545.086c-.18.068-.351.154-.513.258-.218.152-.432.356-.432.433.06.162.129.32.206.476.263.602.481 1.222.654 1.856.126.445.327.6 1.297 1.004.97.405 1.12.457 1.45.52.43.07.867.074 1.298.013a2.39 2.39 0 0 0 .733-.344l.114-.092-.252-.754Zm0 0c-.143-.406-.282-.798-.32-.864a3.745 3.745 0 0 0-.574-.534c-.285-.226-.822-.666-1.2-.978-.964-.81-1.379-1.04-1.916-1.08a1.137 1.137 0 0 0-.545.086c-.18.068-.351.154-.513.258-.218.152-.432.356-.432.433.06.162.129.32.206.476.263.602.481 1.222.654 1.856.126.445.327.6 1.297 1.004.97.405 1.12.457 1.45.52.43.07.867.074 1.298.013a2.39 2.39 0 0 0 .733-.344l.114-.092-.252-.754Zm0 0c-.143-.406-.282-.798-.32-.864a3.745 3.745 0 0 0-.574-.534c-.285-.226-.822-.666-1.2-.978-.964-.81-1.379-1.04-1.916-1.08a1.137 1.137 0 0 0-.545.086c-.18.068-.351.154-.513.258-.218.152-.432.356-.432.433.06.162.129.32.206.476.263.602.481 1.222.654 1.856.126.445.327.6 1.297 1.004.97.405 1.12.457 1.45.52.43.07.867.074 1.298.013a2.39 2.39 0 0 0 .733-.344l.114-.092-.252-.754Zm0 0c-.143-.406-.282-.798-.32-.864a3.745 3.745 0 0 0-.574-.534c-.285-.226-.822-.666-1.2-.978-.964-.81-1.379-1.04-1.916-1.08a1.137 1.137 0 0 0-.545.086c-.18.068-.351.154-.513.258-.218.152-.432.356-.432.433.06.162.129.32.206.476.263.602.481 1.222.654 1.856.126.445.327.6 1.297 1.004.97.405 1.12.457 1.45.52.43.07.867.074 1.298.013a2.39 2.39 0 0 0 .733-.344l.114-.092-.252-.754Zm0 0c-.143-.406-.282-.798-.32-.864a3.745 3.745 0 0 0-.574-.534c-.285-.226-.822-.666-1.2-.978-.964-.81-1.379-1.04-1.916-1.08a1.137 1.137 0 0 0-.545.086c-.18.068-.351.154-.513.258-.218.152-.432.356-.432.433.06.162.129.32.206.476.263.602.481 1.222.654 1.856.126.445.327.6 1.297 1.004.97.405 1.12.457 1.45.52.43.07.867.074 1.298.013a2.39 2.39 0 0 0 .733-.344l.114-.092-.252-.754Zm0 0c-.143-.406-.282-.798-.32-.864a3.745 3.745 0 0 0-.574-.534c-.285-.226-.822-.666-1.2-.978-.964-.81-1.379-1.04-1.916-1.08a1.137 1.137 0 0 0-.545.086c-.18.068-.351.154-.513.258-.218.152-.432.356-.432.433.06.162.129.32.206.476.263.602.481 1.222.654 1.856.126.445.327.6 1.297 1.004.97.405 1.12.457 1.45.52.43.07.867.074 1.298.013a2.39 2.39 0 0 0 .733-.344l.114-.092-.252-.754Zm0 0c-.143-.406-.282-.798-.32-.864a3.745 3.745 0 0 0-.574-.534c-.285-.226-.822-.666-1.2-.978-.964-.81-1.379-1.04-1.916-1.08a1.137 1.137 0 0 0-.545.086c-.18.068-.351.154-.513.258-.218.152-.432.356-.432.433.06.162.129.32.206.476.263.602.481 1.222.654 1.856.126.445.327.6 1.297 1.004.97.405 1.12.457 1.45.52.43.07.867.074 1.298.013a2.39 2.39 0 0 0 .733-.344l.114-.092-.252-.754Zm0 0c-.143-.406-.282-.798-.32-.864a3.745 3.745 0 0 0-.574-.534c-.285-.226-.822-.666-1.2-.978-.964-.81-1.379-1.04-1.916-1.08a1.137 1.137 0 0 0-.545.086c-.18.068-.351.154-.513.258-.218.152-.432.356-.432.433.06.162.129.32.206.476.263.602.481 1.222.654 1.856.126.445.327.6 1.297 1.004.97.405 1.12.457 1.45.52.43.07.867.074 1.298.013a2.39 2.39 0 0 0 .733-.344l.114-.092-.252-.754Zm0 0c-.143-.406-.282-.798-.32-.864a3.745 3.745 0 0 0-.574-.534c-.285-.226-.822-.666-1.2-.978-.964-.81-1.379-1.04-1.916-1.08a1.137 1.137 0 0 0-.545.086c-.18.068-.351.154-.513.258-.218.152-.432.356-.432.433.06.162.129.32.206.476.263.602.481 1.222.654 1.856.126.445.327.6 1.297 1.004.97.405 1.12.457 1.45.52.43.07.867.074 1.298.013a2.39 2.39 0 0 0 .733-.344l.114-.092-.252-.754Zm0 0c-.143-.406-.282-.798-.32-.864a3.745 3.745 0 0 0-.574-.534c-.285-.226-.822-.666-1.2-.978-.964-.81-1.379-1.04-1.916-1.08a1.137 1.137 0 0 0-.545.086c-.18.068-.351.154-.513.258-.218.152-.432.356-.432.433.06.162.129.32.206.476.263.602.481 1.222.654 1.856.126.445.327.6 1.297 1.004.97.405 1.12.457 1.45.52.43.07.867.074 1.298.013a2.39 2.39 0 0 0 .733-.344l.114-.092-.252-.754Zm0 0c-.143-.406-.282-.798-.32-.864a3.745 3.745 0 0 0-.574-.534c-.285-.226-.822-.666-1.2-.978-.964-.81-1.379-1.04-1.916-1.08a1.137 1.137 0 0 0-.545.086c-.18.068-.351.154-.513.258-.218.152-.432.356-.432.433.06.162.129.32.206.476.263.602.481 1.222.654 1.856.126.445.327.6 1.297 1.004.97.405 1.12.457 1.45.52.43.07.867.074 1.298.013a2.39 2.39 0 0 0 .733-.344l.114-.092-.252-.754Zm0 0c-.143-.406-.282-.798-.32-.864a3.745 3.745 0 0 0-.574-.534c-.285-.226-.822-.666-1.2-.978-.964-.81-1.379-1.04-1.916-1.08a1.137 1.137 0 0 0-.545.086c-.18.068-.351.154-.513.258-.218.152-.432.356-.432.433.06.162.129.32.206.476.263.602.481 1.222.654 1.856.126.445.327.6 1.297 1.004.97.405 1.12.457 1.45.52.43.07.867.074 1.298.013a2.39 2.39 0 0 0 .733-.344l.114-.092-.252-.754Zm0 0c-.143-.406-.282-.798-.32-.864a3.745 3.745 0 0 0-.574-.534c-.285-.226-.822-.666-1.2-.978-.964-.81-1.379-1.04-1.916-1.08a1.137 1.137 0 0 0-.545.086c-.18.068-.351.154-.513.258-.218.152-.432.356-.432.433.06.162.129.32.206.476.263.602.481 1.222.654 1.856.126.445.327.6 1.297 1.004.97.405 1.12.457 1.45.52.43.07.867.074 1.298.013a2.39 2.39 0 0 0 .733-.344l.114-.092-.252-.754Zm0 0c-.143-.406-.282-.798-.32-.864a3.745 3.745 0 0 0-.574-.534c-.285-.226-.822-.666-1.2-.978-.964-.81-1.379-1.04-1.916-1.08a1.137 1.137 0 0 0-.545.086c-.18.068-.351.154-.513.258-.218.152-.432.356-.432.433.06.162.129.32.206.476.263.602.481 1.222.654 1.856.126.445.327.6 1.297 1.004.97.405 1.12.457 1.45.52.43.07.867.074 1.298.013a2.39 2.39 0 0 0 .733-.344l.114-.092-.252-.754Zm0 0c-.143-.406-.282-.798-.32-.864a3.745 3.745 0 0 0-.574-.534c-.285-.226-.822-.666-1.2-.978-.964-.81-1.379-1.04-1.916-1.08a1.137 1.137 0 0 0-.545.086c-.18.068-.351.154-.513.258-.218.152-.432.356-.432.433.06.162.129.32.206.476.263.602.481 1.222.654 1.856.126.445.327.6 1.297 1.004.97.405 1.12.457 1.45.52.43.07.867.074 1.298.013a2.39 2.39 0 0 0 .733-.344l.114-.092-.252-.754Zm0 0c-.143-.406-.282-.798-.32-.864a3.745 3.745 0 0 0-.574-.534c-.285-.226-.822-.666-1.2-.978-.964-.81-1.379-1.04-1.916-1.08a1.137 1.137 0 0 0-.545.086c-.18.068-.351.154-.513.258-.218.152-.432.356-.432.433.06.162.129.32.206.476.263.602.481 1.222.654 1.856.126.445.327.6 1.297 1.004.97.405 1.12.457 1.45.52.43.07.867.074 1.298.013a2.39 2.39 0 0 0 .733-.344l.114-.092-.252-.754Zm0 0c-.143-.406-.282-.798-.32-.864a3.745 3.745 0 0 0-.574-.534c-.285-.226-.822-.666-1.2-.978-.964-.81-1.379-1.04-1.916-1.08a1.137 1.137 0 0 0-.545.086c-.18.068-.351.154-.513.258-.218.152-.432.356-.432.433.06.162.129.32.206.476.263.602.481 1.222.654 1.856.126.445.327.6 1.297 1.004.97.405 1.12.457 1.45.52.43.07.867.074 1.298.013a2.39 2.39 0 0 0 .733-.344l.114-.092-.252-.754Zm0 0c-.143-.406-.282-.798-.32-.864a3.745 3.745 0 0 0-.574-.534c-.285-.226-.822-.666-1.2-.978-.964-.81-1.379-1.04-1.916-1.08a1.137 1.137 0 0 0-.545.086c-.18.068-.351.154-.513.258-.218.152-.432.356-.432.433.06.162.129.32.206.476.263.602.481 1.222.654 1.856.126.445.327.6 1.297 1.004.97.405 1.12.457 1.45.52.43.07.867.074 1.298.013a2.39 2.39 0 0 0 .733-.344l.114-.092-.252-.754Zm12.352 10.794a13.298 13.298 0 0 0-1.11-1.586c-.343-.436-1.2-1.471-2.122-2.565-.323-.381-.712-.834-.849-1.005-.137-.17-.318-.38-.39-.46l-.432-.502-.767-.903c-1.393-1.642-2.822-3.368-3.273-3.942-.534-.68-.548-.727-1.175-2.754-.128-.43-.263-.85-.297-.932a.62.62 0 0 0-.12-.178c-.236-.276-.8-.746-1.725-1.436a37.495 37.495 0 0 1-1.068-.825c-.5-.406-1.034-.82-1.579-1.218a35.429 35.429 0 0 0-1.12-.786A17.397 17.397 0 0 0 32.76 8.78a4.032 4.032 0 0 0-.23-.093 2.435 2.435 0 0 0-.985-.212h-.071l-.087.013h-.068a9.045 9.045 0 0 0-.388.055c-.13.021-.23.034-.346.055-.115.021-.213.036-.32.057-.068.01-.135.025-.203.04h-.039c-.132.024-.263.053-.393.081l-.208.046-.152.036-.16.04c-.178.042-.338.085-.502.13l-.377.11-.196.06a1.883 1.883 0 0 1-.416.107 7.95 7.95 0 0 1 .228-.83c.838-2.784 1.12-4.204 1.181-6.057.03-1.063-.094-2.37-.231-2.417-.03 0-.121.096-.208.233a67.37 67.37 0 0 0-.522.836 27.974 27.974 0 0 1-1.874 2.533c-.998 1.156-2.627 2.57-3.752 3.255-.784.475-1.341.694-2.847 1.08v.013c-.344.097-.7.198-1.068.305l.013 1.68.035 3.604-1.893-3.064-.814-1.315c-1.028.405-2.03.877-2.997 1.413l.337 1.984.603 3.552-2.36-2.722-1.068-1.23a23.05 23.05 0 0 0-2.63 2.23l.769 1.722 1.466 3.292-2.961-2.049-1.186-.82a23.977 23.977 0 0 0-1.973 2.93l.968 1.247 2.203 2.85-3.362-1.29-1.032-.395a28.232 28.232 0 0 0-1.328 3.673l1.234.89 2.913 2.12-3.59-.295-1.194-.098a34.522 34.522 0 0 0-.491 3.315l1.614.828 3.204 1.645-3.587.276-1.406.101a40.027 40.027 0 0 0 .05 3.237l1.935.671 3.4 1.183-3.52.76-1.55.333c.155 1.246.367 2.493.629 3.69l1.318.075 3.594.203L2.69 46.18l-1.095.586a37.31 37.31 0 0 0 1.707 4.788s17.377-1.674 35.8 12.445a25.214 25.214 0 0 0 1.2-11.504 24.867 24.867 0 0 0-2.206-7.523c-1.922-4.735-3.31-5.968-3.586-6.176l-.05-.035c0 .067 0 1.81-1.958.317a25.103 25.103 0 0 1-7.923-10.632 14.925 14.925 0 0 1-1.018-4.772v-.014l-.01-.043a17.58 17.58 0 0 0 1.86 3.107c.549.685 1.17 1.308 1.853 1.858 1.301.963 2.825 1.603 4.674 1.988.292.057.735.151.996.206a37.97 37.97 0 0 0 2.314.398c.328.046.824.142 1.104.212 1.808.445 4.449 1.59 5.052 2.203.178.178.301.45.712 1.541.356.932.495 1.272.616 1.399a.226.226 0 0 0 .023.022c.178.166 2.798.51 4.191.562a4.103 4.103 0 0 0 2.134-.415 2.38 2.38 0 0 0 .819-.576 2.87 2.87 0 0 0 .475-.597c.193-.493.356-.998.491-1.51.278-.984.449-1.521.712-2.26l.127-.357c.233-.65.195-1.19-.25-1.988v-.005Zm-32.56-13.295c-5.118 6.372-5.725 13.761 3.738 21.957a34.993 34.993 0 0 1-8.281-2.26c.3.367 6.216 7.432 15.692 10.51h.01c.096.034.193.064.285.091 1.27.376 2.105.137 2.155-1 .107.152 3.773 5.436 3.156 10.673a45.705 45.705 0 0 0-9.61-7.986 9.746 9.746 0 0 1 1.564 3.844c-.95-.732-8.476-6.364-17.319-8.342-3.81-19.647 8.61-27.487 8.61-27.487Zm31.409 14.763c-.215.675-.833 2.365-.89 2.428a.18.18 0 0 1-.163.055.216.216 0 0 1-.1-.052.215.215 0 0 1-.06-.094 22.031 22.031 0 0 1-.264-.998l-.22-.88.11-.317c.026-.078.05-.146.067-.205 0-.02.013-.037.018-.055a.534.534 0 0 0 .016-.415.11.11 0 0 0 0-.021c-.072-.168-.15-.26-1.492-1.755-.498-.556-1.423-1.603-2.077-2.33-.653-.727-1.397-1.572-1.676-1.87-.28-.3-.776-.849-1.096-1.205-.83-.92-2.052-2.138-2.34-2.326a1.182 1.182 0 0 0-.476-.236.755.755 0 0 0-.334.068 3.704 3.704 0 0 1-1.49.239 5.324 5.324 0 0 1-1.949-.324c-.973-.326-2.214-.92-2.584-1.233-.239-.207-.413-.61-.712-1.628a12.35 12.35 0 0 0-.427-1.283 6.006 6.006 0 0 1-.192-.504c-.075-.411.842-1.142 1.715-1.366l.285-.073v-.294c0-.747-.242-1.31-.81-1.898-.197-.203-.308-.315-.282-.333.024-.017.273.098.82.37a38.05 38.05 0 0 1 4.627 2.817c.352.244.686.513.999.806.235.224.425.49.562.785l.011.023c.094.196.195.442.323.77l.047.12c.147.412.318.813.51 1.205.183.306.79 1.06 1.82 2.262l.898 1.053.024.029.686.805a216.4 216.4 0 0 0 2.063 2.371c2.191 2.483 3.415 3.901 3.762 4.352.15.178.256.39.306.618a1.07 1.07 0 0 1-.035.519Zm-11.512-13.12a3.729 3.729 0 0 0-.574-.535 99.223 99.223 0 0 1-1.2-.978c-.964-.81-1.38-1.04-1.916-1.08a1.14 1.14 0 0 0-.545.086c-.182.066-.357.15-.522.253-.218.152-.432.356-.432.433.06.162.129.32.206.476.263.602.481 1.222.654 1.856.126.445.327.6 1.297 1.004.97.405 1.12.457 1.45.52.43.07.867.074 1.298.013a2.39 2.39 0 0 0 .733-.344l.114-.092-.252-.748a29.223 29.223 0 0 0-.31-.864Zm.32.864c-.143-.407-.282-.799-.32-.864a3.729 3.729 0 0 0-.574-.535 99.223 99.223 0 0 1-1.2-.978c-.964-.81-1.38-1.04-1.916-1.08a1.14 1.14 0 0 0-.545.086c-.182.066-.357.15-.522.253-.218.152-.432.356-.432.433.06.162.129.32.206.476.263.602.481 1.222.654 1.856.126.445.327.6 1.297 1.004.97.405 1.12.457 1.45.52.43.07.867.074 1.298.013a2.39 2.39 0 0 0 .733-.344l.114-.092-.244-.748Zm0 0c-.143-.407-.282-.799-.32-.864a3.729 3.729 0 0 0-.574-.535 99.223 99.223 0 0 1-1.2-.978c-.964-.81-1.38-1.04-1.916-1.08a1.14 1.14 0 0 0-.545.086c-.182.066-.357.15-.522.253-.218.152-.432.356-.432.433.06.162.129.32.206.476.263.602.481 1.222.654 1.856.126.445.327.6 1.297 1.004.97.405 1.12.457 1.45.52.43.07.867.074 1.298.013a2.39 2.39 0 0 0 .733-.344l.114-.092-.244-.748Zm0 0c-.143-.407-.282-.799-.32-.864a3.729 3.729 0 0 0-.574-.535 99.223 99.223 0 0 1-1.2-.978c-.964-.81-1.38-1.04-1.916-1.08a1.14 1.14 0 0 0-.545.086c-.182.066-.357.15-.522.253-.218.152-.432.356-.432.433.06.162.129.32.206.476.263.602.481 1.222.654 1.856.126.445.327.6 1.297 1.004.97.405 1.12.457 1.45.52.43.07.867.074 1.298.013a2.39 2.39 0 0 0 .733-.344l.114-.092-.244-.748Zm0 0c-.143-.407-.282-.799-.32-.864a3.729 3.729 0 0 0-.574-.535 99.223 99.223 0 0 1-1.2-.978c-.964-.81-1.38-1.04-1.916-1.08a1.14 1.14 0 0 0-.545.086c-.182.066-.357.15-.522.253-.218.152-.432.356-.432.433.06.162.129.32.206.476.263.602.481 1.222.654 1.856.126.445.327.6 1.297 1.004.97.405 1.12.457 1.45.52.43.07.867.074 1.298.013a2.39 2.39 0 0 0 .733-.344l.114-.092-.244-.748Zm-.01 0c-.142-.407-.281-.799-.318-.864a3.745 3.745 0 0 0-.575-.535c-.285-.226-.822-.666-1.2-.978-.964-.81-1.379-1.04-1.916-1.08a1.138 1.138 0 0 0-.545.086c-.179.067-.35.151-.513.253-.218.152-.432.356-.432.433.06.162.129.32.206.476.263.602.481 1.222.654 1.856.126.445.327.6 1.297 1.004.97.405 1.12.457 1.45.52.43.07.867.074 1.298.013a2.39 2.39 0 0 0 .733-.344l.114-.092-.252-.748Zm0 0c-.142-.407-.281-.799-.318-.864a3.745 3.745 0 0 0-.575-.535c-.285-.226-.822-.666-1.2-.978-.964-.81-1.379-1.04-1.916-1.08a1.138 1.138 0 0 0-.545.086c-.179.067-.35.151-.513.253-.218.152-.432.356-.432.433.06.162.129.32.206.476.263.602.481 1.222.654 1.856.126.445.327.6 1.297 1.004.97.405 1.12.457 1.45.52.43.07.867.074 1.298.013a2.39 2.39 0 0 0 .733-.344l.114-.092-.252-.748Zm0 0c-.142-.407-.281-.799-.318-.864a3.745 3.745 0 0 0-.575-.535c-.285-.226-.822-.666-1.2-.978-.964-.81-1.379-1.04-1.916-1.08a1.138 1.138 0 0 0-.545.086c-.179.067-.35.151-.513.253-.218.152-.432.356-.432.433.06.162.129.32.206.476.263.602.481 1.222.654 1.856.126.445.327.6 1.297 1.004.97.405 1.12.457 1.45.52.43.07.867.074 1.298.013a2.39 2.39 0 0 0 .733-.344l.114-.092-.252-.748Zm0 0c-.142-.407-.281-.799-.318-.864a3.745 3.745 0 0 0-.575-.535c-.285-.226-.822-.666-1.2-.978-.964-.81-1.379-1.04-1.916-1.08a1.138 1.138 0 0 0-.545.086c-.179.067-.35.151-.513.253-.218.152-.432.356-.432.433.06.162.129.32.206.476.263.602.481 1.222.654 1.856.126.445.327.6 1.297 1.004.97.405 1.12.457 1.45.52.43.07.867.074 1.298.013a2.39 2.39 0 0 0 .733-.344l.114-.092-.252-.748Zm0 0c-.142-.407-.281-.799-.318-.864a3.745 3.745 0 0 0-.575-.535c-.285-.226-.822-.666-1.2-.978-.964-.81-1.379-1.04-1.916-1.08a1.138 1.138 0 0 0-.545.086c-.179.067-.35.151-.513.253-.218.152-.432.356-.432.433.06.162.129.32.206.476.263.602.481 1.222.654 1.856.126.445.327.6 1.297 1.004.97.405 1.12.457 1.45.52.43.07.867.074 1.298.013a2.39 2.39 0 0 0 .733-.344l.114-.092-.252-.748Zm0 0c-.142-.407-.281-.799-.318-.864a3.745 3.745 0 0 0-.575-.535c-.285-.226-.822-.666-1.2-.978-.964-.81-1.379-1.04-1.916-1.08a1.138 1.138 0 0 0-.545.086c-.179.067-.35.151-.513.253-.218.152-.432.356-.432.433.06.162.129.32.206.476.263.602.481 1.222.654 1.856.126.445.327.6 1.297 1.004.97.405 1.12.457 1.45.52.43.07.867.074 1.298.013a2.39 2.39 0 0 0 .733-.344l.114-.092-.252-.748Zm0 0c-.142-.407-.281-.799-.318-.864a3.745 3.745 0 0 0-.575-.535c-.285-.226-.822-.666-1.2-.978-.964-.81-1.379-1.04-1.916-1.08a1.138 1.138 0 0 0-.545.086c-.179.067-.35.151-.513.253-.218.152-.432.356-.432.433.06.162.129.32.206.476.263.602.481 1.222.654 1.856.126.445.327.6 1.297 1.004.97.405 1.12.457 1.45.52.43.07.867.074 1.298.013a2.39 2.39 0 0 0 .733-.344l.114-.092-.252-.748Zm0 0c-.142-.407-.281-.799-.318-.864a3.745 3.745 0 0 0-.575-.535c-.285-.226-.822-.666-1.2-.978-.964-.81-1.379-1.04-1.916-1.08a1.138 1.138 0 0 0-.545.086c-.179.067-.35.151-.513.253-.218.152-.432.356-.432.433.06.162.129.32.206.476.263.602.481 1.222.654 1.856.126.445.327.6 1.297 1.004.97.405 1.12.457 1.45.52.43.07.867.074 1.298.013a2.39 2.39 0 0 0 .733-.344l.114-.092-.252-.748Zm0 0c-.142-.407-.281-.799-.318-.864a3.745 3.745 0 0 0-.575-.535c-.285-.226-.822-.666-1.2-.978-.964-.81-1.379-1.04-1.916-1.08a1.138 1.138 0 0 0-.545.086c-.179.067-.35.151-.513.253-.218.152-.432.356-.432.433.06.162.129.32.206.476.263.602.481 1.222.654 1.856.126.445.327.6 1.297 1.004.97.405 1.12.457 1.45.52.43.07.867.074 1.298.013a2.39 2.39 0 0 0 .733-.344l.114-.092-.252-.748Zm0 0c-.142-.407-.281-.799-.318-.864a3.745 3.745 0 0 0-.575-.535c-.285-.226-.822-.666-1.2-.978-.964-.81-1.379-1.04-1.916-1.08a1.138 1.138 0 0 0-.545.086c-.179.067-.35.151-.513.253-.218.152-.432.356-.432.433.06.162.129.32.206.476.263.602.481 1.222.654 1.856.126.445.327.6 1.297 1.004.97.405 1.12.457 1.45.52.43.07.867.074 1.298.013a2.39 2.39 0 0 0 .733-.344l.114-.092-.252-.748Zm0 0c-.142-.407-.281-.799-.318-.864a3.745 3.745 0 0 0-.575-.535c-.285-.226-.822-.666-1.2-.978-.964-.81-1.379-1.04-1.916-1.08a1.138 1.138 0 0 0-.545.086c-.179.067-.35.151-.513.253-.218.152-.432.356-.432.433.06.162.129.32.206.476.263.602.481 1.222.654 1.856.126.445.327.6 1.297 1.004.97.405 1.12.457 1.45.52.43.07.867.074 1.298.013a2.39 2.39 0 0 0 .733-.344l.114-.092-.252-.748Zm0 0c-.142-.407-.281-.799-.318-.864a3.745 3.745 0 0 0-.575-.535c-.285-.226-.822-.666-1.2-.978-.964-.81-1.379-1.04-1.916-1.08a1.138 1.138 0 0 0-.545.086c-.179.067-.35.151-.513.253-.218.152-.432.356-.432.433.06.162.129.32.206.476.263.602.481 1.222.654 1.856.126.445.327.6 1.297 1.004.97.405 1.12.457 1.45.52.43.07.867.074 1.298.013a2.39 2.39 0 0 0 .733-.344l.114-.092-.252-.748Zm0 0c-.142-.407-.281-.799-.318-.864a3.745 3.745 0 0 0-.575-.535c-.285-.226-.822-.666-1.2-.978-.964-.81-1.379-1.04-1.916-1.08a1.138 1.138 0 0 0-.545.086c-.179.067-.35.151-.513.253-.218.152-.432.356-.432.433.06.162.129.32.206.476.263.602.481 1.222.654 1.856.126.445.327.6 1.297 1.004.97.405 1.12.457 1.45.52.43.07.867.074 1.298.013a2.39 2.39 0 0 0 .733-.344l.114-.092-.252-.748Zm9.506 12.715.108-.317c.027-.078.05-.146.068-.205l-.176.522Zm-9.505-12.715c-.143-.407-.282-.799-.32-.864a3.745 3.745 0 0 0-.574-.535c-.285-.226-.822-.666-1.2-.978-.964-.81-1.379-1.04-1.916-1.08a1.138 1.138 0 0 0-.545.086c-.179.067-.35.151-.513.253-.218.152-.432.356-.432.433.06.162.129.32.206.476.263.602.481 1.222.654 1.856.126.445.327.6 1.297 1.004.97.405 1.12.457 1.45.52.43.07.867.074 1.298.013a2.39 2.39 0 0 0 .733-.344l.114-.092-.252-.748Zm0 0c-.143-.407-.282-.799-.32-.864a3.745 3.745 0 0 0-.574-.535c-.285-.226-.822-.666-1.2-.978-.964-.81-1.379-1.04-1.916-1.08a1.138 1.138 0 0 0-.545.086c-.179.067-.35.151-.513.253-.218.152-.432.356-.432.433.06.162.129.32.206.476.263.602.481 1.222.654 1.856.126.445.327.6 1.297 1.004.97.405 1.12.457 1.45.52.43.07.867.074 1.298.013a2.39 2.39 0 0 0 .733-.344l.114-.092-.252-.748Zm0 0c-.143-.407-.282-.799-.32-.864a3.745 3.745 0 0 0-.574-.535c-.285-.226-.822-.666-1.2-.978-.964-.81-1.379-1.04-1.916-1.08a1.138 1.138 0 0 0-.545.086c-.179.067-.35.151-.513.253-.218.152-.432.356-.432.433.06.162.129.32.206.476.263.602.481 1.222.654 1.856.126.445.327.6 1.297 1.004.97.405 1.12.457 1.45.52.43.07.867.074 1.298.013a2.39 2.39 0 0 0 .733-.344l.114-.092-.252-.748Zm0 0c-.143-.407-.282-.799-.32-.864a3.745 3.745 0 0 0-.574-.535c-.285-.226-.822-.666-1.2-.978-.964-.81-1.379-1.04-1.916-1.08a1.138 1.138 0 0 0-.545.086c-.179.067-.35.151-.513.253-.218.152-.432.356-.432.433.06.162.129.32.206.476.263.602.481 1.222.654 1.856.126.445.327.6 1.297 1.004.97.405 1.12.457 1.45.52.43.07.867.074 1.298.013a2.39 2.39 0 0 0 .733-.344l.114-.092-.252-.748Zm0 0c-.143-.407-.282-.799-.32-.864a3.745 3.745 0 0 0-.574-.535c-.285-.226-.822-.666-1.2-.978-.964-.81-1.379-1.04-1.916-1.08a1.138 1.138 0 0 0-.545.086c-.179.067-.35.151-.513.253-.218.152-.432.356-.432.433.06.162.129.32.206.476.263.602.481 1.222.654 1.856.126.445.327.6 1.297 1.004.97.405 1.12.457 1.45.52.43.07.867.074 1.298.013a2.39 2.39 0 0 0 .733-.344l.114-.092-.252-.748Zm0 0c-.143-.407-.282-.799-.32-.864a3.745 3.745 0 0 0-.574-.535c-.285-.226-.822-.666-1.2-.978-.964-.81-1.379-1.04-1.916-1.08a1.138 1.138 0 0 0-.545.086c-.179.067-.35.151-.513.253-.218.152-.432.356-.432.433.06.162.129.32.206.476.263.602.481 1.222.654 1.856.126.445.327.6 1.297 1.004.97.405 1.12.457 1.45.52.43.07.867.074 1.298.013a2.39 2.39 0 0 0 .733-.344l.114-.092-.252-.748Zm0 0c-.143-.407-.282-.799-.32-.864a3.745 3.745 0 0 0-.574-.535c-.285-.226-.822-.666-1.2-.978-.964-.81-1.379-1.04-1.916-1.08a1.138 1.138 0 0 0-.545.086c-.179.067-.35.151-.513.253-.218.152-.432.356-.432.433.06.162.129.32.206.476.263.602.481 1.222.654 1.856.126.445.327.6 1.297 1.004.97.405 1.12.457 1.45.52.43.07.867.074 1.298.013a2.39 2.39 0 0 0 .733-.344l.114-.092-.252-.748Zm0 0c-.143-.407-.282-.799-.32-.864a3.745 3.745 0 0 0-.574-.535c-.285-.226-.822-.666-1.2-.978-.964-.81-1.379-1.04-1.916-1.08a1.138 1.138 0 0 0-.545.086c-.179.067-.35.151-.513.253-.218.152-.432.356-.432.433.06.162.129.32.206.476.263.602.481 1.222.654 1.856.126.445.327.6 1.297 1.004.97.405 1.12.457 1.45.52.43.07.867.074 1.298.013a2.39 2.39 0 0 0 .733-.344l.114-.092-.252-.748Zm0 0c-.143-.407-.282-.799-.32-.864a3.745 3.745 0 0 0-.574-.535c-.285-.226-.822-.666-1.2-.978-.964-.81-1.379-1.04-1.916-1.08a1.138 1.138 0 0 0-.545.086c-.179.067-.35.151-.513.253-.218.152-.432.356-.432.433.06.162.129.32.206.476.263.602.481 1.222.654 1.856.126.445.327.6 1.297 1.004.97.405 1.12.457 1.45.52.43.07.867.074 1.298.013a2.39 2.39 0 0 0 .733-.344l.114-.092-.252-.748Zm0 0c-.143-.407-.282-.799-.32-.864a3.745 3.745 0 0 0-.574-.535c-.285-.226-.822-.666-1.2-.978-.964-.81-1.379-1.04-1.916-1.08a1.138 1.138 0 0 0-.545.086c-.179.067-.35.151-.513.253-.218.152-.432.356-.432.433.06.162.129.32.206.476.263.602.481 1.222.654 1.856.126.445.327.6 1.297 1.004.97.405 1.12.457 1.45.52.43.07.867.074 1.298.013a2.39 2.39 0 0 0 .733-.344l.114-.092-.252-.748Zm0 0c-.143-.407-.282-.799-.32-.864a3.745 3.745 0 0 0-.574-.535c-.285-.226-.822-.666-1.2-.978-.964-.81-1.379-1.04-1.916-1.08a1.138 1.138 0 0 0-.545.086c-.179.067-.35.151-.513.253-.218.152-.432.356-.432.433.06.162.129.32.206.476.263.602.481 1.222.654 1.856.126.445.327.6 1.297 1.004.97.405 1.12.457 1.45.52.43.07.867.074 1.298.013a2.39 2.39 0 0 0 .733-.344l.114-.092-.252-.748Zm0 0c-.143-.407-.282-.799-.32-.864a3.745 3.745 0 0 0-.574-.535c-.285-.226-.822-.666-1.2-.978-.964-.81-1.379-1.04-1.916-1.08a1.138 1.138 0 0 0-.545.086c-.179.067-.35.151-.513.253-.218.152-.432.356-.432.433.06.162.129.32.206.476.263.602.481 1.222.654 1.856.126.445.327.6 1.297 1.004.97.405 1.12.457 1.45.52.43.07.867.074 1.298.013a2.39 2.39 0 0 0 .733-.344l.114-.092-.252-.748Zm0 0c-.143-.407-.282-.799-.32-.864a3.745 3.745 0 0 0-.574-.535c-.285-.226-.822-.666-1.2-.978-.964-.81-1.379-1.04-1.916-1.08a1.138 1.138 0 0 0-.545.086c-.179.067-.35.151-.513.253-.218.152-.432.356-.432.433.06.162.129.32.206.476.263.602.481 1.222.654 1.856.126.445.327.6 1.297 1.004.97.405 1.12.457 1.45.52.43.07.867.074 1.298.013a2.39 2.39 0 0 0 .733-.344l.114-.092-.252-.748Zm0 0c-.143-.407-.282-.799-.32-.864a3.745 3.745 0 0 0-.574-.535c-.285-.226-.822-.666-1.2-.978-.964-.81-1.379-1.04-1.916-1.08a1.138 1.138 0 0 0-.545.086c-.179.067-.35.151-.513.253-.218.152-.432.356-.432.433.06.162.129.32.206.476.263.602.481 1.222.654 1.856.126.445.327.6 1.297 1.004.97.405 1.12.457 1.45.52.43.07.867.074 1.298.013a2.39 2.39 0 0 0 .733-.344l.114-.092-.252-.748Zm0 0c-.143-.407-.282-.799-.32-.864a3.745 3.745 0 0 0-.574-.535c-.285-.226-.822-.666-1.2-.978-.964-.81-1.379-1.04-1.916-1.08a1.138 1.138 0 0 0-.545.086c-.179.067-.35.151-.513.253-.218.152-.432.356-.432.433.06.162.129.32.206.476.263.602.481 1.222.654 1.856.126.445.327.6 1.297 1.004.97.405 1.12.457 1.45.52.43.07.867.074 1.298.013a2.39 2.39 0 0 0 .733-.344l.114-.092-.252-.748Z"/></svg>