<svg xmlns="http://www.w3.org/2000/svg" width="146" height="36" fill="none" viewBox="0 0 146 36"><g clip-path="url(#a)"><path fill="#c23631" d="M0 6.984 17.389 0l17.426 6.984-17.445 7.002z"/><path fill="#c23631" d="M1.499 6.993v21.64L0 28.029V6.993zM18.152 13.044v21.734l-.678.273-.81-.33V13.044z"/><path fill="#c23631" d="m19.481 34.24-1.329.538-.678.273-.81-.33-1.198-.48L1.5 28.632 0 28.029v-1.611l1.499.603 15.164 6.088.81.33.68.274zM0 6.984v1.62l18.152 7.286V14.28z"/><path fill="#c23631" d="M43.09 3.657 17.285 14.024l.556 1.386 25.25-10.132zM43.09 10.16 17.285 20.518l.556 1.395 25.25-10.141zM43.09 16.654 17.285 27.02l.556 1.385 25.25-10.131zM43.09 23.157v1.611L19.481 34.24l-1.329.538-.678.273-.811-.33-1.197-.48 1.197-.481.81-.32.68-.274z"/><path fill="#101010" d="M54.58 13.619h-3.827v-1.951H61.12v1.95h-3.817v9.746h-2.724zM70.262 23.383l-2.874-4.533h-1.885v4.524h-2.668V11.668h4.713c2.827 0 5.042.848 5.042 3.497a3.345 3.345 0 0 1-2.554 3.317l3.26 4.901zm-4.712-6.371h1.743c1.716 0 2.658-.622 2.658-1.885s-.942-1.668-2.658-1.668h-1.772zM74.456 17.389c0-3.77 2.45-5.938 6.004-5.938s6.003 2.196 6.003 5.938a6.004 6.004 0 0 1-12.007 0m9.274 0c0-2.479-1.272-3.959-3.27-3.959s-3.261 1.48-3.261 3.959 1.272 4.034 3.26 4.034c1.99 0 3.28-1.574 3.28-4.034zM100.092 21.47l2.346-.943a5 5 0 0 0 2.894.943c1.376 0 2.102-.5 2.102-1.3 0-.802-.801-1.104-1.98-1.528l-1.781-.65c-1.329-.48-2.667-1.395-2.667-3.044 0-1.885 1.885-3.27 4.562-3.27a7.24 7.24 0 0 1 4.929 2.007l-2.14.867a4.56 4.56 0 0 0-2.827-.942c-1.159 0-1.885.442-1.885 1.187 0 .744.942 1.103 2.064 1.49l1.734.678c1.602.565 2.648 1.442 2.648 3.072 0 1.885-1.79 3.43-4.835 3.43a8.68 8.68 0 0 1-5.164-1.997M95.879 11.677v7.484l-5.184-7.54h-2.544v11.743h2.544v-7.54l5.184 7.54h2.535V11.668zM143.455 11.677v7.484l-5.183-7.54h-2.554v11.743h2.535v-7.54l5.183 7.54h2.545V11.668zM118.008 21.47c-1.96 0-3.214-1.546-3.214-3.968s1.254-3.892 3.214-3.892a2.92 2.92 0 0 1 2.564 1.338l2.365-.943a5.65 5.65 0 0 0-4.929-2.337c-3.496 0-5.909 2.149-5.909 5.843a5.55 5.55 0 0 0 1.606 4.309 5.55 5.55 0 0 0 4.303 1.62 5.76 5.76 0 0 0 4.647-2.017l-2.366-.943a2.93 2.93 0 0 1-2.281.99M133.993 23.195l-3.676-11.404v-.114h-2.922v.114l-3.647 11.404-.066.216h2.611v-.122l.763-2.828h3.459l.773 2.828v.122h2.733zm-4.053-4.807h-2.29l.283-1.046c.301-1.075.603-2.177.857-3.252l.255 1c.198.753.396 1.526.612 2.252z"/></g><defs><clipPath id="a"><path fill="#fff" d="M0 0h146v35.051H0z"/></clipPath></defs></svg>