<svg xmlns="http://www.w3.org/2000/svg" width="32" height="32" viewBox="0 0 32 32"><g fill="none"><circle cx="16" cy="16" r="16" fill="#00843d"/><g fill="#fff"><path d="M16.006 5.6c.394 0 .781.103 1.122.3l7.16 4.134a2.25 2.25 0 0 1 1.122 1.945v8.434c0 .802-.427 1.543-1.122 1.944l-7.161 4.135a2.25 2.25 0 0 1-2.245 0L7.72 22.357a2.25 2.25 0 0 1-1.123-1.944v-8.434c0-.802.428-1.543 1.123-1.945L14.88 5.9c.342-.197.73-.301 1.123-.301h.002zm-.002-1.561a3.8 3.8 0 0 0-1.902.51L6.94 8.682a3.82 3.82 0 0 0-1.903 3.296v8.434a3.82 3.82 0 0 0 1.903 3.296l7.16 4.134c1.178.68 2.629.68 3.806 0l7.161-4.134a3.82 3.82 0 0 0 1.903-3.296v-8.434a3.82 3.82 0 0 0-1.903-3.296l-7.16-4.135a3.8 3.8 0 0 0-1.904-.51z"/><path d="M15.127 17.52a.47.47 0 0 1-.406-.234l-.861-1.493a.47.47 0 0 1 0-.468l.861-1.493a.47.47 0 0 1 .406-.234h1.758a.47.47 0 0 1 .405.234l.862 1.493a.47.47 0 0 1 0 .468l-.862 1.493a.47.47 0 0 1-.405.234zm-2.349-2.351a.47.47 0 0 0 .406-.234l.861-1.493a.47.47 0 0 0 0-.468l-1.074-1.861-2.097 1.144a.47.47 0 0 0-.243.421c.017.838.115 1.672.291 2.491zm6.455 0a.47.47 0 0 1-.405-.234l-.862-1.493a.47.47 0 0 1 0-.468l1.074-1.861 2.096 1.144a.47.47 0 0 1 .244.42 13 13 0 0 1-.29 2.492zM16.23 9.578a.47.47 0 0 0-.448 0l-2.126 1.16 1.066 1.846a.47.47 0 0 0 .405.234h1.758a.47.47 0 0 0 .405-.234l1.066-1.845zm-5.114 6.371a13.1 13.1 0 0 0 1.895 3.987l1.035-1.792a.47.47 0 0 0 0-.468l-.862-1.493a.47.47 0 0 0-.405-.234zm9.778 0A13.1 13.1 0 0 1 19 19.936l-1.035-1.792a.47.47 0 0 1 0-.468l.863-1.493a.47.47 0 0 1 .405-.234h1.662zM15.127 18.3a.47.47 0 0 0-.406.234l-1.2 2.08a13.2 13.2 0 0 0 2.199 2.159.47.47 0 0 0 .573 0 13.2 13.2 0 0 0 2.198-2.16l-1.2-2.079a.47.47 0 0 0-.405-.234h-1.76z"/></g></g></svg>