<svg xmlns="http://www.w3.org/2000/svg" width="64" height="64" fill="none" viewBox="0 0 64 64"><circle cx="32" cy="32" r="32" fill="#f9f1df"/><path fill="#ff3465" stroke="#ff3465" stroke-linejoin="round" stroke-width="8.727" d="M13.991 17.05H50.01a3.325 3.325 0 0 1 3.324 3.325c0 16.07-8.866 28.537-21.333 35.463-12.468-6.926-21.333-19.394-21.333-35.463a3.325 3.325 0 0 1 3.324-3.325Z"/><path fill="#f9f1df" stroke="#f9f1df" stroke-linejoin="round" stroke-width="4.364" d="M13.991 17.05H50.01a3.325 3.325 0 0 1 3.324 3.325c0 16.07-8.866 28.537-21.333 35.463-12.468-6.926-21.333-19.394-21.333-35.463a3.325 3.325 0 0 1 3.324-3.325Z"/><path fill="#311d4b" d="M13.991 17.05H50.01a3.325 3.325 0 0 1 3.324 3.325c0 16.07-8.866 28.537-21.333 35.463-12.468-6.926-21.333-19.394-21.333-35.463a3.325 3.325 0 0 1 3.324-3.325"/><path stroke="#f9f1df" stroke-linecap="round" stroke-width="2.026" d="M32 35.613q2.77-6.65 1.662-12.19M32 35.614q6.66-2.743 9.795-7.445"/><path stroke="#f9f1df" stroke-linecap="round" stroke-width="2.026" d="M32 35.613q6.65 2.77 12.19 1.662M32 35.613q2.742 6.661 7.444 9.796M32 35.613q-2.77 6.65-1.662 12.19M32 35.613q-6.66 2.743-9.795 7.445M32 35.613q-6.65-2.77-12.19-1.663"/><path stroke="#f9f1df" stroke-linecap="round" stroke-width="2.026" d="M32 35.614q-2.742-6.66-7.444-9.796"/></svg>