<?xml version="1.0" encoding="utf-8"?>
<svg xmlns="http://www.w3.org/2000/svg" id="Layer_2" data-name="Layer 2" viewBox="0 0 263.72 65.69">
  <defs>
    <style>
      path:not(.cls-1), rect { fill: #fff; } .cls-1 {
        fill: #1a44f5;
      }
    </style>
  </defs>
  <g id="Layer_1-2" data-name="Layer 1">
    <g>
      <path class="cls-1" d="M21.18,0v36.55c0,11.3,8.59,15.16,13.37,15.16,5.33,0,6.53-4.05,6.53-12.82s.05-38.89.05-38.89h18.41v36.05c0,12.77-6.88,19.93-14.94,21.46,0,0-5.48,8.18-17.35,8.18C14.58,65.69,0,57.53,0,32.58V2.46S5.76,0,12,0h9.18Z"/>
      <g>
        <path d="M113.24,38.31c0,4.58-3.72,8.3-8.3,8.3s-8.3-3.72-8.3-8.3V13.97h-7.83v25.73c0,7.81,5.6,14.14,15.89,14.14h.9c9.68,0,15.48-6.33,15.48-14.14V13.97h-7.83v24.34Z"/>
        <path d="M143.27,23.48c-7.37,0-9,6.71-9,6.71v-6.42h-7.53v29.49h8.03v-18.1c0-3.02,2.44-5.46,5.46-5.46s5.46,2.44,5.46,5.46v18.1h7.9v-17.65c0-7.24-2.96-12.13-10.32-12.13Z"/>
        <rect x="158.99" y="23.93" width="7.98" height="29.33"/>
        <rect x="223.19" y="13.97" width="7.98" height="39.28"/>
        <path d="M255.74,13.97v14.99c-1.18-2.03-3.92-5.6-8.59-5.6-6.53,0-12.06,4.28-12.06,15.23s5.53,15.23,12.06,15.23c4.67,0,7.4-3.56,8.59-5.6v5.03h7.98V13.97h-7.98ZM249.45,47.42c-4.29,0-6.24-3.83-6.24-8.82s1.94-8.82,6.24-8.82,6.3,3.58,6.3,8.82-2,8.82-6.3,8.82Z"/>
        <path d="M162.98,11.85c-2.23,0-4.05,1.81-4.05,4.05s1.81,4.05,4.05,4.05,4.05-1.81,4.05-4.05-1.81-4.05-4.05-4.05Z"/>
        <path d="M185.99,18.36c1.7,0,2.49.6,2.49.6l1.56-6.07s-1.97-.75-5.84-.75c-.17,0-.34,0-.52,0-4.96.07-8.97,4.1-8.97,9.06v2.73h-5.32v5.84h5.32v23.49h7.66v-23.49h6.45v-5.84h-6.45v-1.63c0-3.02,1.91-3.95,3.61-3.95Z"/>
        <path d="M204.63,23.37c-7.96,0-14.4,6.82-14.4,15.23s6.45,15.23,14.4,15.23,14.4-6.82,14.4-15.23-6.45-15.23-14.4-15.23ZM204.63,47.42c-4.65,0-6.65-3.95-6.65-8.82s1.78-8.82,6.65-8.82,6.65,3.95,6.65,8.82-1.99,8.82-6.65,8.82Z"/>
      </g>
    </g>
  </g>
</svg>