<?xml version="1.0" encoding="UTF-8"?>
<svg xmlns="http://www.w3.org/2000/svg" width="1225" height="993" viewBox="0 0 1225 993" fill="none">
  <path fill-rule="evenodd" clip-rule="evenodd" d="M1218.28 374.12L1012.82 23.1502C1004.42 8.82096 988.889 0 972.025 0H266.69C250.329 0 235.13 8.35873 226.592 22.0524L6.93702 373.755C-4.4862 392.051 -1.56263 415.683 13.9458 430.802L578.834 979.281C597.15 997.077 626.598 997.077 644.953 979.281L1210.54 430.07C1225.74 415.317 1228.89 392.359 1218.24 374.14L1218.28 374.12Z" fill="#E70505"></path>
  <path fill-rule="evenodd" clip-rule="evenodd" d="M973.297 84.2926C965.852 72.1457 947.98 64.668 933.039 64.668L303.315 64.6681C288.82 64.6681 272.741 71.5608 265.176 83.169L85.0744 371.62C74.9533 387.13 72.6589 398.564 86.3996 411.381L582.646 894.809C598.874 909.894 624.966 909.894 641.228 894.809L1135.2 413.59C1148.66 401.083 1149.05 382.647 1139.61 367.202L973.297 84.2926Z" fill="#132A55"></path>
  <path fill-rule="evenodd" clip-rule="evenodd" d="M622.832 162.775L692.12 292.432L837.353 317.985C846.783 319.643 850.523 331.118 843.884 337.979L741.455 443.65L761.945 589.095C763.269 598.54 753.481 605.632 744.873 601.444L612.292 537.097L479.711 601.444C471.103 605.614 461.297 598.54 462.639 589.095L483.129 443.65L380.7 337.979C374.043 331.118 377.801 319.643 387.231 317.985L532.464 292.432L601.752 162.775C606.244 154.364 618.358 154.364 622.868 162.775H622.832Z" fill="#E5EAEE"></path>
</svg>
