<?xml version="1.0" encoding="UTF-8"?>
<svg xmlns="http://www.w3.org/2000/svg" width="830" height="238" viewBox="0 0 830 238" fill="none">
  <path d="M757.296 176.686C755.943 176.686 754.835 176.255 753.974 175.394C753.113 174.533 752.683 173.425 752.683 172.072V76.4818H719.835C718.482 76.4818 717.374 76.0512 716.513 75.19C715.652 74.2058 715.221 73.0986 715.221 71.8684V52.1228C715.221 50.7696 715.652 49.6623 716.513 48.8012C717.374 47.94 718.482 47.5094 719.835 47.5094H819.116C820.469 47.5094 821.577 47.94 822.438 48.8012C823.299 49.6623 823.729 50.7696 823.729 52.1228V71.8684C823.729 73.0986 823.299 74.2058 822.438 75.19C821.577 76.0512 820.469 76.4818 819.116 76.4818H786.268V172.072C786.268 173.425 785.838 174.533 784.977 175.394C784.115 176.255 783.008 176.686 781.655 176.686H757.296ZM733.491 120.771C732.26 120.894 731.153 120.525 730.169 119.664C729.308 118.679 728.877 117.511 728.877 116.157V107.3C728.877 106.069 729.308 105.024 730.169 104.162C731.153 103.301 732.26 102.809 733.491 102.686L806.383 93.6438C807.613 93.5207 808.659 93.9513 809.52 94.9355C810.504 95.9197 810.996 97.027 810.996 98.2572V107.115C810.996 108.468 810.504 109.575 809.52 110.437C808.659 111.175 807.613 111.605 806.383 111.728L733.491 120.771ZM733.491 148.636C732.26 148.759 731.153 148.328 730.169 147.344C729.308 146.36 728.877 145.191 728.877 143.838V135.165C728.877 133.811 729.308 132.766 730.169 132.028C731.153 131.166 732.26 130.674 733.491 130.551L806.383 121.509C807.613 121.263 808.659 121.632 809.52 122.616C810.504 123.6 810.996 124.769 810.996 126.122V134.98C810.996 136.21 810.504 137.256 809.52 138.117C808.659 138.855 807.613 139.348 806.383 139.594L733.491 148.636Z" fill="#132A55"></path>
  <path d="M585.709 176.686C584.725 176.686 583.802 176.317 582.941 175.578C582.203 174.717 581.834 173.795 581.834 172.81C581.834 172.195 581.895 171.642 582.018 171.149L625.385 52.6765C625.754 51.3232 626.492 50.1544 627.599 49.1702C628.829 48.063 630.49 47.5094 632.582 47.5094H659.893C661.985 47.5094 663.584 48.063 664.691 49.1702C665.921 50.1544 666.721 51.3232 667.09 52.6765L710.272 171.149C710.518 171.642 710.641 172.195 710.641 172.81C710.641 173.795 710.21 174.717 709.349 175.578C708.611 176.317 707.688 176.686 706.581 176.686H683.883C682.038 176.686 680.623 176.255 679.639 175.394C678.777 174.41 678.224 173.548 677.978 172.81L670.781 153.988H621.509L614.497 172.81C614.251 173.548 613.697 174.41 612.836 175.394C611.975 176.255 610.499 176.686 608.407 176.686H585.709ZM629.075 127.414H663.399L646.053 78.6962L629.075 127.414Z" fill="#132A55"></path>
  <path d="M521.975 178.531C509.673 178.531 499.462 176.808 491.342 173.364C483.222 169.796 477.071 165.182 472.888 159.523C468.705 153.864 466.491 147.836 466.245 141.439C466.245 140.454 466.614 139.593 467.352 138.855C468.213 137.994 469.197 137.563 470.305 137.563H493.556C495.279 137.563 496.571 137.871 497.432 138.486C498.416 139.101 499.277 139.901 500.015 140.885C500.999 142.73 502.353 144.514 504.075 146.236C505.92 147.959 508.258 149.374 511.087 150.481C514.04 151.465 517.669 151.957 521.975 151.957C529.111 151.957 534.462 150.85 538.03 148.635C541.721 146.421 543.566 143.407 543.566 139.593C543.566 136.887 542.582 134.672 540.613 132.95C538.645 131.104 535.446 129.505 531.018 128.152C526.712 126.676 520.929 125.199 513.671 123.723C504.321 121.755 496.324 119.233 489.681 116.157C483.161 112.958 478.178 108.837 474.734 103.793C471.289 98.6258 469.567 92.2285 469.567 84.601C469.567 77.0965 471.658 70.3916 475.841 64.4864C480.147 58.5812 486.113 53.9678 493.741 50.6461C501.369 47.3244 510.411 45.6636 520.868 45.6636C529.357 45.6636 536.8 46.7708 543.197 48.9852C549.717 51.1997 555.192 54.1523 559.621 57.843C564.05 61.5338 567.371 65.4706 569.586 69.6534C571.923 73.7133 573.154 77.7116 573.277 81.6484C573.277 82.6326 572.908 83.5553 572.169 84.4164C571.431 85.1546 570.509 85.5237 569.401 85.5237H545.042C543.689 85.5237 542.52 85.2776 541.536 84.7855C540.552 84.2934 539.691 83.4938 538.953 82.3865C538.214 79.68 536.246 77.3425 533.047 75.3741C529.972 73.2827 525.912 72.237 520.868 72.237C515.455 72.237 511.211 73.2212 508.135 75.1896C505.182 77.0349 503.706 79.926 503.706 83.8628C503.706 86.3233 504.506 88.4763 506.105 90.3216C507.827 92.167 510.595 93.7663 514.409 95.1196C518.346 96.4729 523.698 97.8877 530.464 99.364C541.659 101.455 550.702 104.1 557.591 107.299C564.48 110.375 569.524 114.435 572.723 119.479C575.922 124.4 577.521 130.612 577.521 138.117C577.521 146.483 575.122 153.741 570.324 159.892C565.649 165.92 559.129 170.534 550.763 173.733C542.397 176.931 532.801 178.531 521.975 178.531Z" fill="#132A55"></path>
  <path d="M395.087 178.531C384.014 178.531 374.295 176.747 365.93 173.179C357.687 169.489 351.29 163.891 346.738 156.386C342.186 148.759 339.91 139.101 339.91 127.414V52.1228C339.91 50.7696 340.341 49.6623 341.202 48.8012C342.063 47.94 343.17 47.5094 344.523 47.5094H368.329C369.682 47.5094 370.789 47.94 371.65 48.8012C372.512 49.6623 372.942 50.7696 372.942 52.1228V127.23C372.942 135.226 374.849 141.254 378.663 145.314C382.6 149.251 388.074 151.219 395.087 151.219C401.976 151.219 407.328 149.251 411.141 145.314C415.078 141.254 417.047 135.226 417.047 127.23V52.1228C417.047 50.7696 417.477 49.6623 418.338 48.8012C419.323 47.94 420.43 47.5094 421.66 47.5094H445.65C446.88 47.5094 447.926 47.94 448.787 48.8012C449.771 49.6623 450.263 50.7696 450.263 52.1228V127.414C450.263 139.101 447.987 148.759 443.435 156.386C438.883 163.891 432.486 169.489 424.244 173.179C416.001 176.747 406.282 178.531 395.087 178.531Z" fill="#132A55"></path>
  <g clip-path="url(#clip0_353_421)">
    <path fill-rule="evenodd" clip-rule="evenodd" d="M290.438 89.7657L241.455 6.09381C239.452 2.6777 235.75 0.574768 231.73 0.574768H63.5768C59.6764 0.574768 56.053 2.5675 54.0175 5.8321L1.65135 89.6784C-1.07196 94.0404 -0.374976 99.6742 3.32227 103.279L137.992 234.037C142.359 238.279 149.38 238.279 153.755 234.037L288.592 103.104C292.215 99.587 292.968 94.1139 290.429 89.7703L290.438 89.7657Z" fill="#E70505"></path>
    <path fill-rule="evenodd" clip-rule="evenodd" d="M232.033 20.6703C230.258 17.7744 225.997 15.9917 222.435 15.9917L72.3082 15.9917C68.8524 15.9917 65.0192 17.635 63.2157 20.4024L20.2791 89.1695C17.8663 92.8672 17.3193 95.5931 20.5951 98.6485L138.901 213.899C142.77 217.495 148.99 217.495 152.867 213.899L270.63 99.1751C273.84 96.1937 273.933 91.7984 271.683 88.1163L232.033 20.6703Z" fill="#132A55"></path>
    <path fill-rule="evenodd" clip-rule="evenodd" d="M148.482 39.3808L165 70.2911L199.624 76.3831C201.872 76.7782 202.764 79.5141 201.181 81.1497L176.762 106.342L181.647 141.016C181.962 143.268 179.629 144.958 177.577 143.96L145.969 128.62L114.362 143.96C112.31 144.954 109.972 143.268 110.292 141.016L115.176 106.342L90.7572 81.1497C89.1703 79.5141 90.0661 76.7782 92.3144 76.3831L126.938 70.2911L143.456 39.3808C144.527 37.3756 147.415 37.3756 148.49 39.3808H148.482Z" fill="#E5EAEE"></path>
  </g>
  <defs>
    <clipPath id="clip0_353_421">
      <rect width="291.935" height="236.644" fill="white" transform="translate(0 0.574768)"></rect>
    </clipPath>
  </defs>
</svg>
