<?xml version="1.0" encoding="UTF-8"?>
<svg xmlns="http://www.w3.org/2000/svg" width="156" height="45" viewBox="0 0 156 45" fill="none">
  <path d="M142.032 33.0209C141.779 33.0209 141.572 32.9404 141.411 32.7795C141.25 32.6185 141.17 32.4116 141.17 32.1587V14.2937H135.031C134.778 14.2937 134.571 14.2132 134.41 14.0523C134.249 13.8683 134.168 13.6614 134.168 13.4315V9.74124C134.168 9.48832 134.249 9.28139 134.41 9.12045C134.571 8.9595 134.778 8.87903 135.031 8.87903H153.585C153.838 8.87903 154.045 8.9595 154.206 9.12045C154.367 9.28139 154.448 9.48832 154.448 9.74124V13.4315C154.448 13.6614 154.367 13.8683 154.206 14.0523C154.045 14.2132 153.838 14.2937 153.585 14.2937H147.446V32.1587C147.446 32.4116 147.366 32.6185 147.205 32.7795C147.044 32.9404 146.837 33.0209 146.584 33.0209H142.032ZM137.583 22.5709C137.353 22.5939 137.146 22.5249 136.962 22.364C136.801 22.1801 136.721 21.9616 136.721 21.7087V20.0533C136.721 19.8233 136.801 19.6279 136.962 19.467C137.146 19.306 137.353 19.2141 137.583 19.1911L151.206 17.5011C151.436 17.4781 151.631 17.5586 151.792 17.7425C151.976 17.9265 152.068 18.1334 152.068 18.3633V20.0188C152.068 20.2717 151.976 20.4786 151.792 20.6396C151.631 20.7775 151.436 20.858 151.206 20.881L137.583 22.5709ZM137.583 27.7787C137.353 27.8017 137.146 27.7212 136.962 27.5372C136.801 27.3533 136.721 27.1349 136.721 26.882V25.261C136.721 25.0081 136.801 24.8127 136.962 24.6747C137.146 24.5138 137.353 24.4218 137.583 24.3988L151.206 22.7089C151.436 22.6629 151.631 22.7319 151.792 22.9158C151.976 23.0997 152.068 23.3182 152.068 23.5711V25.2265C152.068 25.4564 151.976 25.6519 151.792 25.8128C151.631 25.9508 151.436 26.0428 151.206 26.0887L137.583 27.7787Z" fill="#E5EAEE"></path>
  <path d="M109.964 33.0209C109.78 33.0209 109.607 32.9519 109.446 32.814C109.308 32.653 109.239 32.4806 109.239 32.2966C109.239 32.1817 109.251 32.0782 109.274 31.9862L117.379 9.8447C117.448 9.59179 117.586 9.37336 117.793 9.18942C118.022 8.98249 118.333 8.87903 118.724 8.87903H123.828C124.219 8.87903 124.518 8.98249 124.725 9.18942C124.955 9.37336 125.104 9.59179 125.173 9.8447L133.243 31.9862C133.289 32.0782 133.312 32.1817 133.312 32.2966C133.312 32.4806 133.232 32.653 133.071 32.814C132.933 32.9519 132.761 33.0209 132.554 33.0209H128.312C127.967 33.0209 127.702 32.9404 127.518 32.7795C127.357 32.5955 127.254 32.4346 127.208 32.2966L125.863 28.7788H116.654L115.344 32.2966C115.298 32.4346 115.194 32.5955 115.033 32.7795C114.873 32.9404 114.597 33.0209 114.206 33.0209H109.964ZM118.068 23.8125H124.483L121.241 14.7076L118.068 23.8125Z" fill="#E5EAEE"></path>
  <path d="M98.0525 33.3657C95.7532 33.3657 93.8449 33.0438 92.3274 32.4C90.8099 31.7333 89.6603 30.871 88.8785 29.8134C88.0968 28.7558 87.6829 27.6291 87.637 26.4335C87.637 26.2496 87.7059 26.0886 87.8439 25.9507C88.0048 25.7898 88.1888 25.7093 88.3957 25.7093H92.7412C93.0631 25.7093 93.3046 25.7668 93.4655 25.8817C93.6494 25.9967 93.8104 26.1461 93.9483 26.3301C94.1323 26.675 94.3852 27.0083 94.7071 27.3302C95.052 27.6521 95.4888 27.9165 96.0176 28.1235C96.5695 28.3074 97.2477 28.3994 98.0525 28.3994C99.386 28.3994 100.386 28.1924 101.053 27.7786C101.743 27.3647 102.088 26.8014 102.088 26.0886C102.088 25.5828 101.904 25.169 101.536 24.8471C101.168 24.5022 100.57 24.2033 99.7424 23.9504C98.9377 23.6745 97.857 23.3986 96.5005 23.1226C94.7531 22.7548 93.2586 22.2834 92.017 21.7086C90.7984 21.1108 89.8672 20.3406 89.2234 19.3979C88.5796 18.4322 88.2578 17.2366 88.2578 15.8111C88.2578 14.4086 88.6486 13.1555 89.4304 12.0519C90.2351 10.9482 91.3502 10.086 92.7757 9.46524C94.2013 8.84445 95.8912 8.53406 97.8455 8.53406C99.432 8.53406 100.823 8.74099 102.019 9.15485C103.237 9.56871 104.26 10.1205 105.088 10.8103C105.916 11.5001 106.537 12.2358 106.95 13.0175C107.387 13.7763 107.617 14.5235 107.64 15.2593C107.64 15.4432 107.571 15.6157 107.433 15.7766C107.295 15.9146 107.123 15.9836 106.916 15.9836H102.364C102.111 15.9836 101.892 15.9376 101.708 15.8456C101.524 15.7536 101.363 15.6042 101.225 15.3972C101.087 14.8914 100.72 14.4546 100.122 14.0867C99.547 13.6958 98.7882 13.5004 97.8455 13.5004C96.8339 13.5004 96.0406 13.6843 95.4658 14.0522C94.914 14.3971 94.6381 14.9374 94.6381 15.6732C94.6381 16.133 94.7876 16.5354 95.0865 16.8802C95.4083 17.2251 95.9257 17.524 96.6384 17.7769C97.3742 18.0299 98.3743 18.2943 99.6389 18.5702C101.731 18.9611 103.421 19.4554 104.709 20.0532C105.996 20.628 106.939 21.3867 107.537 22.3294C108.135 23.2491 108.433 24.4102 108.433 25.8127C108.433 27.3762 107.985 28.7328 107.088 29.8824C106.215 31.009 104.996 31.8712 103.433 32.469C101.869 33.0668 100.076 33.3657 98.0525 33.3657Z" fill="#E5EAEE"></path>
  <path d="M74.338 33.3658C72.2687 33.3658 70.4523 33.0324 68.8888 32.3656C67.3483 31.6759 66.1527 30.6297 65.302 29.2272C64.4513 27.8017 64.0259 25.9968 64.0259 23.8125V9.74124C64.0259 9.48832 64.1064 9.28139 64.2674 9.12045C64.4283 8.9595 64.6352 8.87903 64.8881 8.87903H69.3372C69.5901 8.87903 69.797 8.9595 69.9579 9.12045C70.1189 9.28139 70.1994 9.48832 70.1994 9.74124V23.778C70.1994 25.2725 70.5557 26.3991 71.2685 27.1579C72.0043 27.8936 73.0274 28.2615 74.338 28.2615C75.6255 28.2615 76.6257 27.8936 77.3385 27.1579C78.0742 26.3991 78.4421 25.2725 78.4421 23.778V9.74124C78.4421 9.48832 78.5226 9.28139 78.6835 9.12045C78.8674 8.9595 79.0744 8.87903 79.3043 8.87903H83.7878C84.0177 8.87903 84.2131 8.9595 84.3741 9.12045C84.558 9.28139 84.65 9.48832 84.65 9.74124V23.8125C84.65 25.9968 84.2246 27.8017 83.3739 29.2272C82.5232 30.6297 81.3276 31.6759 79.7871 32.3656C78.2467 33.0324 76.4303 33.3658 74.338 33.3658Z" fill="#E5EAEE"></path>
  <g clip-path="url(#clip0_154_418)">
    <path fill-rule="evenodd" clip-rule="evenodd" d="M54.7804 16.7763L45.6259 1.13882C45.2515 0.50038 44.5597 0.107361 43.8083 0.107361H12.382C11.6531 0.107361 10.9759 0.479785 10.5955 1.08991L0.808713 16.76C0.29975 17.5753 0.43001 18.6282 1.12099 19.3018L26.2896 43.7393C27.1057 44.5322 28.4178 44.5322 29.2356 43.7393L54.4353 19.2692C55.1125 18.6119 55.2531 17.589 54.7786 16.7772L54.7804 16.7763Z" fill="#E70505"></path>
    <path fill-rule="evenodd" clip-rule="evenodd" d="M43.865 3.86303C43.5333 3.32182 42.737 2.98865 42.0713 2.98865L14.0139 2.98865C13.3681 2.98865 12.6517 3.29576 12.3146 3.81296L4.29017 16.6649C3.83922 17.356 3.73699 17.8654 4.34921 18.4365L26.4595 39.9757C27.1826 40.6478 28.3451 40.6478 29.0697 39.9757L51.0785 18.5349C51.6785 17.9777 51.6957 17.1562 51.2753 16.4681L43.865 3.86303Z" fill="#132A55"></path>
    <path fill-rule="evenodd" clip-rule="evenodd" d="M28.2501 7.35986L31.3373 13.1367L37.8081 14.2753C38.2283 14.3491 38.3949 14.8604 38.0992 15.1661L33.5354 19.8743L34.4483 26.3546C34.5073 26.7754 34.0712 27.0914 33.6877 26.9048L27.7805 24.0378L21.8734 26.9048C21.4899 27.0906 21.0529 26.7754 21.1127 26.3546L22.0256 19.8743L17.4619 15.1661C17.1653 14.8604 17.3328 14.3491 17.7529 14.2753L24.2238 13.1367L27.3109 7.35986C27.511 6.98511 28.0508 6.98511 28.2517 7.35986H28.2501Z" fill="#E5EAEE"></path>
  </g>
  <defs>
    <clipPath id="clip0_154_418">
      <rect width="54.56" height="44.2266" fill="white" transform="translate(0.500061 0.107361)"></rect>
    </clipPath>
  </defs>
</svg>
