<svg xmlns="http://www.w3.org/2000/svg" width="500" height="500" fill="none" viewBox="0 0 500 500"><path fill="#eaac08" fill-rule="evenodd" d="M250 475c124.264 0 225-100.736 225-225S374.264 25 250 25 25 125.736 25 250s100.736 225 225 225m0 25c138.071 0 250-111.929 250-250S388.071 0 250 0 0 111.929 0 250s111.929 250 250 250" clip-rule="evenodd"/><circle cx="250" cy="250" r="209" fill="url(#a)"/><path fill="#ca8404" d="m46.18 296.452 91.929-52.263-95.732-18.318c5.179-45.049 24.68-85.741 53.837-117.405q34.626 19.07 69.252 38.146a355764 355764 0 0 0 84.691 46.648l120.374 66.279 4.508 2.49c4.903 3.752 7.865 10.131 7.635 17.022 16.651 5.628 23.956 27.63 20.007 46.596-6.812-11.803-17.77-19.956-30.274-22.343-18.988.545-37.909-2.763-55.876-9.722-26.359-3.786-47.419 1.467-66.341 11.768-23.249 12.674-49.017 36.855-72.321 58.724-7.305 6.856-14.368 13.484-21.036 19.46-12.599 10.391-29.174 17.858-46.319 22.112a210 210 0 0 1-19.273-19.711l57.694-49.85c2.699-2.354 3.225-6.72 1.119-9.756-2.073-3.036-5.989-3.616-8.688-1.262l-58.449 50.51A209 209 0 0 1 62.531 342.5l14.634-10.202c2.896-2.046 3.784-6.31 1.974-9.585-1.81-3.241-5.66-4.23-8.555-2.217l-13.706 9.553a207.4 207.4 0 0 1-10.698-33.597M443.591 171.094a207.4 207.4 0 0 1 12.467 43.766l-9.32 1.666-.008.001c-30.964 5.531-61.922 11.061-94.198 17.599L238.41 171.941l137.551-74.943a501 501 0 0 1 10.307-5.47c21.084 18.146 38.506 40.428 51.008 65.586l-20.576 3.741c-3.554.614-5.989 4.434-5.429 8.527.526 4.094 3.85 6.857 7.404 6.243z"/><path fill="#eaac08" fill-rule="evenodd" d="M250 459c115.428 0 209-93.572 209-209S365.428 41 250 41 41 134.572 41 250s93.572 209 209 209m0 16c124.264 0 225-100.736 225-225S374.264 25 250 25 25 125.736 25 250s100.736 225 225 225" clip-rule="evenodd"/><path fill="url(#b)" fill-rule="evenodd" d="M250 459c115.428 0 209-93.572 209-209S365.428 41 250 41 41 134.572 41 250s93.572 209 209 209m0 16c124.264 0 225-100.736 225-225S374.264 25 250 25 25 125.736 25 250s100.736 225 225 225" clip-rule="evenodd"/><path fill="url(#c)" fill-rule="evenodd" d="M250 459c115.428 0 209-93.572 209-209S365.428 41 250 41 41 134.572 41 250s93.572 209 209 209m0 16c124.264 0 225-100.736 225-225S374.264 25 250 25 25 125.736 25 250s100.736 225 225 225" clip-rule="evenodd"/><path fill="#85490e" d="M232.8 149.98v13.79c-8.38 6.19-16.87 11.26-25.45 15.22-9.28 4.02-18.57 6.04-27.85 6.04-.58 0-1.17 0-1.75-.02v-.24c-.08 0-.17 0-.25-.01v-.24c-.08 0-.17 0-.25-.01v-.24c-.08 0-.17 0-.25-.01v-.24c-.08 0-.17 0-.25-.01v-.24c-.08 0-.17 0-.25-.01v-.24c-.08 0-.17 0-.25-.01v-.24c-.08 0-.17 0-.25-.01v-.24c-.08 0-.17 0-.25-.01v-.24c-.08 0-.17 0-.25-.01v-.24c-.08 0-.17 0-.25-.01v-.24c-.08 0-.17 0-.25-.01v-.24c-.08 0-.17 0-.25-.01v-.24c-.08 0-.17 0-.25-.01v-.24c-.08 0-.17 0-.25-.01v-.24c-.08 0-.17 0-.25-.01v-.24c-.08 0-.17 0-.25-.01v-.24c-.08 0-.17 0-.25-.01v-.24c-.08 0-.17 0-.25-.01v-.24c-.08 0-.17 0-.25-.01v-.24c-.08 0-.17 0-.25-.01v-.24c-.08 0-.17 0-.25-.01v-.24c-.08 0-.17 0-.25-.01v-.24c-.08 0-.17 0-.25-.01v-.24c-.08 0-.17 0-.25-.01v-.24c-.08 0-.17 0-.25-.01v-.24c-.08 0-.17 0-.25-.01v-.24c-.08 0-.17 0-.25-.01v-.24c-.08 0-.17 0-.25-.01v-.24c-.08 0-.17 0-.25-.01v-.24c-.08 0-.17 0-.25-.01v-.25c.5.02 1 .02 1.5.02 9.28 0 18.57-2.02 27.85-6.04 9.87-4.55 19.6-10.57 29.2-18.07 1.34-1.05 2.68-2.11 4-3.19M273.75 112.75v281h-33.2v-.25h-.25v-.25h-.25V393h-.25v-.25h-.25v-.25h-.25v-.25h-.25V392h-.25v-.25h-.25v-.25h-.25v-.25h-.25V391h-.25v-.25h-.25v-.25h-.25v-.25h-.25V390h-.25v-.25h-.25v-.25h-.25v-.25h-.25V389h-.25v-.25h-.25v-.25h-.25v-.25h-.25V388h-.25v-.25h-.25v-.25h-.25v-.25h-.25V387h-.25v-.25h-.25v-.25h-.25v-.25h-.25V386H266V105.25h.25v.25h.25v.25h.25v.25h.25v.25h.25v.25h.25v.25h.25v.25h.25v.25h.25v.25h.25v.25h.25v.25h.25v.25h.25v.25h.25v.25h.25v.25h.25v.25h.25v.25h.25v.25h.25v.25h.25v.25h.25v.25h.25v.25h.25v.25h.25v.25h.25v.25h.25v.25h.25v.25h.25v.25h.25v.25h.25v.25z"/><path fill="url(#d)" d="M266 105v281h-33.2V163.77c.08-.06-.08.06 0 0v-13.79c-1.32 1.08-2.66 2.14-4 3.19-9.6 7.5-19.33 13.52-29.2 18.07-9.28 4.02-18.57 6.04-27.85 6.04-.5 0-1 0-1.5-.02-.08.01-.17 0-.25 0v-30.91c.35.03.71.03 1.07.03 5.37 0 11.69-1.89 18.93-5.65q11.61-6.015 24-15.66 12.405-9.63 21.6-20.07z"/><defs><linearGradient id="a" x1="250" x2="250" y1="41" y2="459" gradientUnits="userSpaceOnUse"><stop stop-color="#ca8404"/><stop offset="1" stop-color="#a15d07"/></linearGradient><linearGradient id="b" x1="475" x2="25" y1="25" y2="475" gradientUnits="userSpaceOnUse"><stop stop-color="#44403c"/><stop offset=".4" stop-color="#44403c" stop-opacity="0"/></linearGradient><linearGradient id="c" x1="475" x2="25" y1="25" y2="475" gradientUnits="userSpaceOnUse"><stop offset=".6" stop-color="#f5f5f4" stop-opacity="0"/><stop offset="1" stop-color="#f5f5f4"/></linearGradient><linearGradient id="d" x1="218" x2="218" y1="105" y2="386" gradientUnits="userSpaceOnUse"><stop stop-color="#fef7c3"/><stop offset="1" stop-color="#fdda47"/></linearGradient></defs></svg>