<svg width="1068" height="309" viewBox="0 0 1068 309" fill="none" xmlns="http://www.w3.org/2000/svg">
<path d="M215.798 183.759C215.798 129.611 130.935 151.853 130.935 121.932C130.935 111.209 139.54 104.324 155.957 104.324C175.551 104.324 182.303 113.856 184.421 126.698H211.429C209.019 102.598 195.187 87.3809 172.108 82.8478V61.5619H145.63V82.0878C120.347 85.3076 104.457 100.031 104.457 121.932C104.457 176.345 189.452 155.957 189.452 185.348C189.452 196.469 178.728 203.882 160.59 203.882C136.892 203.882 129.081 193.424 126.169 178.993H99.8228C101.529 205.39 117.807 221.911 145.63 226.034V246.91H172.108V226.312C199.263 222.804 215.798 207.007 215.798 183.759Z" fill="white"/>
<path d="M26.4782 154.236C26.4782 94.2626 66.328 43.6891 120.741 27.2726V0C51.3678 16.9461 0 79.5671 0 154.236C0 228.904 51.3678 291.525 120.741 308.472V281.199C66.328 264.915 26.4782 214.209 26.4782 154.236Z" fill="white"/>
<path d="M196.998 0V27.2726C251.411 43.6891 291.26 94.2626 291.26 154.236C291.26 214.209 251.411 264.782 196.998 281.199V308.472C266.371 291.525 317.739 228.904 317.739 154.236C317.739 79.5671 266.371 16.9461 196.998 0Z" fill="white"/>
<path d="M980.357 224.668C959.704 224.668 946.2 218.71 936.403 204.942C928.46 193.026 924.885 177.669 924.885 154.236C924.885 130.802 928.989 114.254 937.992 101.941C947.127 89.2317 960.234 84.0684 980.754 84.0684C1005.51 84.0684 1023.25 99.5582 1027.75 124.712H1058.73C1054.89 84.9951 1024.44 58.9141 981.284 58.9141C923.826 58.9141 892.846 92.6738 892.846 154.236C892.846 215.798 923.032 249.557 981.151 249.557C1024.05 249.557 1054.89 223.609 1058.73 184.024H1027.75C1023.25 209.31 1005.25 224.668 980.357 224.668Z" fill="white"/>
<path d="M782.3 61.5619H717.958V246.91H782.3C839.493 246.91 872.194 212.488 872.194 154.236C872.194 95.9836 839.493 61.5619 782.3 61.5619ZM828.769 202.559C818.708 215.533 801.497 222.947 781.241 222.947H747.084V85.7895H781.241C802.953 85.7895 819.767 93.2034 828.769 106.178C837.11 118.755 840.155 132.259 840.155 154.236C840.155 177.669 837.11 191.04 828.769 202.559Z" fill="white"/>
<path d="M572.195 109.885C572.195 93.733 584.508 84.0684 609.397 84.0684C635.875 84.0684 649.644 94.6597 653.616 118.358H684.331C680.624 79.8319 654.675 58.9141 610.589 58.9141C566.502 58.9141 541.48 79.3023 541.48 112.003C541.48 184.818 659.176 151.72 659.176 196.204C659.176 213.679 643.024 224.668 616.546 224.668C586.758 224.668 568.885 211.296 564.781 187.069H535.655C536.847 227.051 566.238 249.557 616.281 249.557C663.545 249.557 689.891 229.434 689.891 194.615C689.891 120.873 572.195 154.103 572.195 109.885Z" fill="white"/>
<path d="M480.58 186.672C480.58 210.634 463.899 224.668 435.567 224.668C407.236 224.668 390.554 210.634 390.554 186.672V61.5619H361.428V185.612C361.428 226.654 387.642 249.557 435.567 249.557C483.493 249.557 509.706 226.654 509.706 185.612V61.5619H480.58V186.672Z" fill="white"/>
</svg>
