<svg width="589" height="194" viewBox="0 0 589 194" fill="none" xmlns="http://www.w3.org/2000/svg">
<circle cx="78" cy="94" r="76" stroke="#C7E36C" stroke-width="4"/>
<path fill-rule="evenodd" clip-rule="evenodd" d="M135.989 98.2294C133.744 128.23 108.684 151.873 78.0996 151.873C46.038 151.873 20.0469 125.89 20.0469 93.8382C20.0469 61.7866 46.038 35.8037 78.0996 35.8037C108.633 35.8037 133.661 59.3692 135.977 89.2993H108.223C114.281 75.9114 114.648 63.7476 108.022 58.1897C98.237 49.9819 76.9083 59.2886 60.3827 78.9769C43.857 98.6651 38.3925 121.279 48.1773 129.487C57.962 137.695 79.2908 128.388 95.8164 108.7C98.697 105.268 101.241 101.747 103.428 98.2294H135.989Z" fill="#C7E36C"/>
<path d="M82.46 98.2295H105.675L96.71 109.967L82.46 104.248V98.2295Z" fill="#C7E36C"/>
<path d="M233.62 85.8379V80.9447C231.702 84.1187 227.073 86.5653 220.858 86.5653C208.559 86.5653 199.434 76.6466 199.434 62.2977C199.434 47.8827 208.625 37.6335 221.387 37.6335C231.107 37.6335 237.653 42.8573 240.563 51.255L232.496 53.9661C231.107 48.3456 227.14 45.1055 221.453 45.1055C213.452 45.1055 207.898 51.9163 207.898 62.1655C207.898 72.4147 213.452 79.2916 221.585 79.2916C228.462 79.2916 232.959 74.3984 233.223 67.6538H220.726V60.2479H241.356V85.8379H233.62ZM257.528 38.3608V85.8379H249.593V38.3608H257.528ZM297.142 68.5134C297.142 79.2916 290.199 86.5653 280.413 86.5653C270.626 86.5653 263.683 79.2916 263.683 68.5134C263.683 57.7352 270.626 50.4615 280.413 50.4615C290.199 50.4615 297.142 57.7352 297.142 68.5134ZM271.684 68.5134C271.684 75.5887 275.057 79.8867 280.413 79.8867C285.769 79.8867 289.141 75.5887 289.141 68.5134C289.141 61.4381 285.769 57.1401 280.413 57.1401C275.057 57.1401 271.684 61.4381 271.684 68.5134ZM321.238 86.5653C316.742 86.5653 313.436 84.7799 311.254 82.2011V85.8379H303.319V38.3608H311.254V54.8257C313.436 52.2469 316.742 50.4615 321.238 50.4615C330.958 50.4615 336.513 58.6609 336.513 68.5134C336.513 78.3659 330.958 86.5653 321.238 86.5653ZM311.055 67.5215V69.5714C311.055 75.9854 314.758 79.6222 319.651 79.6222C325.404 79.6222 328.512 75.1258 328.512 68.5134C328.512 61.901 325.404 57.4046 319.651 57.4046C314.758 57.4046 311.055 60.9752 311.055 67.5215ZM351.836 86.433C345.223 86.433 340.132 82.3994 340.132 76.1838C340.132 69.5714 345.091 66.6619 351.769 65.2733L361.357 63.2896V62.6945C361.357 59.3883 359.638 57.3384 355.406 57.3384C351.637 57.3384 349.654 59.0576 348.728 62.43L341.256 60.7108C342.975 54.958 348.067 50.4615 355.737 50.4615C364.069 50.4615 369.094 54.429 369.094 62.43V77.374C369.094 79.3577 369.954 79.9529 372.136 79.6884V85.8379C366.383 86.4991 363.341 85.375 362.151 82.5317C359.969 84.9783 356.332 86.433 351.836 86.433ZM361.357 73.6049V69.373L353.885 70.96C350.513 71.6873 348 72.7453 348 75.8532C348 78.5642 349.984 80.0851 353.026 80.0851C357.258 80.0851 361.357 77.8369 361.357 73.6049ZM385.708 38.3608V85.8379H377.773V38.3608H385.708ZM408.001 85.8379V38.3608H423.871C438.617 38.3608 447.742 47.6182 447.742 62.0994C447.742 76.5805 438.617 85.8379 423.871 85.8379H408.001ZM416.267 78.5642H423.871C433.657 78.5642 439.41 72.0841 439.41 62.0994C439.41 52.0485 433.657 45.6345 423.805 45.6345H416.267V78.5642ZM485.312 68.5134C485.312 79.2916 478.369 86.5653 468.582 86.5653C458.796 86.5653 451.853 79.2916 451.853 68.5134C451.853 57.7352 458.796 50.4615 468.582 50.4615C478.369 50.4615 485.312 57.7352 485.312 68.5134ZM459.854 68.5134C459.854 75.5887 463.226 79.8867 468.582 79.8867C473.938 79.8867 477.311 75.5887 477.311 68.5134C477.311 61.4381 473.938 57.1401 468.582 57.1401C463.226 57.1401 459.854 61.4381 459.854 68.5134ZM499.423 38.3608V85.8379H491.488V38.3608H499.423ZM515.696 38.3608V85.8379H507.761V38.3608H515.696ZM533.225 86.433C526.612 86.433 521.521 82.3994 521.521 76.1838C521.521 69.5714 526.48 66.6619 533.159 65.2733L542.747 63.2896V62.6945C542.747 59.3883 541.027 57.3384 536.795 57.3384C533.026 57.3384 531.043 59.0576 530.117 62.43L522.645 60.7108C524.364 54.958 529.456 50.4615 537.126 50.4615C545.458 50.4615 550.483 54.429 550.483 62.43V77.374C550.483 79.3577 551.343 79.9529 553.525 79.6884V85.8379C547.772 86.4991 544.73 85.375 543.54 82.5317C541.358 84.9783 537.721 86.433 533.225 86.433ZM542.747 73.6049V69.373L535.275 70.96C531.902 71.6873 529.39 72.7453 529.39 75.8532C529.39 78.5642 531.373 80.0851 534.415 80.0851C538.647 80.0851 542.747 77.8369 542.747 73.6049ZM578.867 51.0566V58.9915C577.875 58.8593 577.081 58.7932 575.957 58.7932C570.932 58.7932 567.097 62.0332 567.097 67.5877V85.8379H559.162V51.1228H567.097V56.2804C568.618 53.0404 572.188 50.9244 576.619 50.9244C577.544 50.9244 578.272 50.9905 578.867 51.0566Z" fill="#F3F5F0"/>
<path d="M220.263 149.499C208.955 149.499 201.153 143.085 201.153 129.993V101.361H209.617V129.728C209.617 138.39 213.915 142.027 220.263 142.027C226.677 142.027 230.975 138.39 230.975 129.728V101.361H239.439V129.993C239.439 143.085 231.636 149.499 220.263 149.499ZM242.901 139.581L249.381 134.224C252.687 139.382 257.647 142.358 263.069 142.358C268.425 142.358 272.458 139.911 272.458 135.349C272.458 130.522 267.499 129.86 260.424 128.141C253.282 126.422 245.612 124.306 245.612 115.049C245.612 106.254 253.15 100.633 262.738 100.633C270.871 100.633 277.219 104.469 280.393 109.428L274.178 114.784C271.533 110.684 268.028 107.841 262.474 107.841C257.382 107.841 253.877 110.42 253.877 114.189C253.877 118.355 257.514 119.214 263.928 120.669C271.599 122.388 280.79 124.174 280.79 134.489C280.79 143.812 272.591 149.565 262.804 149.565C254.671 149.565 246.604 145.664 242.901 139.581ZM286.731 148.838V101.361H302.601C317.346 101.361 326.471 110.618 326.471 125.099C326.471 139.581 317.346 148.838 302.601 148.838H286.731ZM294.996 141.564H302.601C312.387 141.564 318.14 135.084 318.14 125.099C318.14 115.049 312.387 108.634 302.534 108.634H294.996V141.564ZM365.158 148.838V143.945C363.24 147.119 358.611 149.565 352.396 149.565C340.097 149.565 330.971 139.647 330.971 125.298C330.971 110.883 340.163 100.633 352.925 100.633C362.645 100.633 369.191 105.857 372.101 114.255L364.033 116.966C362.645 111.346 358.677 108.105 352.991 108.105C344.99 108.105 339.435 114.916 339.435 125.165C339.435 135.415 344.99 142.292 353.123 142.292C360 142.292 364.496 137.398 364.761 130.654H352.263V123.248H372.894V148.838H365.158Z" fill="#979090"/>
</svg>
