<svg xmlns="http://www.w3.org/2000/svg" width="2004" height="543" fill="none" viewBox="0 0 2004 543"><path fill="#0c0c0c" fill-rule="evenodd" d="M541.77 291.659c-10.486 140.147-127.517 250.595-270.346 250.595-149.73 0-271.11-121.38-271.11-271.11S121.693.034 271.423.034c142.595 0 259.478 110.087 270.294 249.908H412.1c28.295-62.544 30.007-119.369-.936-145.333-45.696-38.343-145.302 5.134-222.478 97.108s-102.696 197.618-57 235.961 145.302-5.134 222.478-97.108c13.452-16.031 25.334-32.478 35.544-48.911z" clip-rule="evenodd"/><path fill="#0c0c0c" d="M291.787 291.659h108.414l-41.865 54.833-66.549-26.719zM1436.33 292.114h27.19V385.9l45.76-50.065h33.3l-44.86 46.214 48.48 72.717h-31.49l-35.56-53.689-15.63 15.858v37.831h-27.19zM1412.13 335.154c1.13 0 2.26.227 3.62.227 1.13 0 2.49.226 4.08.226v27.185c-1.81-.227-3.63-.454-4.99-.454-1.58 0-3.17-.226-4.98-.226-9.06 0-16.54 2.945-21.97 8.382-5.67 5.437-8.39 12.686-8.39 21.747v62.524h-27.18V335.834h27.18v17.67c2.72-5.437 6.8-9.968 12.69-13.366 5.89-3.171 12.46-4.984 19.94-4.984M1319.82 351.683c4.99 5.437 8.61 12.007 11.33 19.482 2.49 7.476 3.85 15.631 3.85 24.24 0 8.834-1.36 16.99-3.85 24.465-2.72 7.476-6.34 13.819-11.33 19.256-5.43 5.89-11.55 10.42-18.8 13.592-7.25 3.171-14.95 4.53-23.33 4.53-8.61 0-16.31-1.359-23.56-4.53s-13.37-7.702-18.58-13.592c-4.98-5.437-8.83-11.78-11.32-19.256-2.72-7.475-3.85-15.631-3.85-24.465 0-8.609 1.13-16.764 3.85-24.24 2.49-7.475 6.34-14.045 11.32-19.482 5.21-5.89 11.33-10.194 18.58-13.365 7.25-3.172 14.95-4.757 23.56-4.757 8.38 0 16.08 1.585 23.33 4.757s13.37 7.475 18.8 13.365m-42.13 4.758c-9.29 0-16.54 3.624-21.97 10.42-5.44 7.023-7.93 16.537-7.93 28.544 0 12.232 2.49 21.747 7.93 28.543 5.43 7.022 12.68 10.421 21.97 10.421 9.06 0 16.31-3.399 21.75-10.421 5.43-6.796 8.15-16.311 8.15-28.543 0-12.007-2.72-21.521-8.15-28.544-5.44-6.796-12.69-10.42-21.75-10.42M1103.65 414.67l21.07-78.834h22.42l21.3 78.834 21.07-78.834h26.95l-35.79 118.931h-23.56l-21.74-77.928-21.75 77.928h-23.56l-35.79-118.931h27.86zM1024.16 456.126c-12.69 0-21.52-2.265-26.958-7.249-5.437-4.983-7.929-12.912-7.929-24.012v-65.922h-16.537v-23.106h16.537V300.95H1016v34.887h24.92v23.106H1016v61.618c0 4.304.91 7.249 3.18 9.061 2.03 1.812 6.34 2.718 12.68 2.718h4.99c1.35 0 3.39-.226 6.11-.679v22.88c-2.72.453-5.89.906-9.06 1.132-3.4.454-6.57.453-9.74.453M912.461 457.258c-8.609 0-16.311-1.359-23.56-4.53s-13.592-7.476-18.802-13.366c-4.984-5.437-8.835-12.006-11.554-19.482s-3.851-15.631-3.851-24.466c0-8.155 1.133-16.084 3.851-23.559s6.343-14.045 11.327-19.709c5.21-5.89 11.327-10.647 18.576-13.818 7.023-3.172 14.725-4.758 22.88-4.758 16.084 0 28.996 5.437 38.511 16.311 9.514 10.873 14.272 24.919 14.272 42.362v9.061h-83.365c.906 10.194 4.304 18.123 9.967 24.013q8.496 8.835 21.748 8.835c6.796 0 12.459-1.586 17.443-4.984s8.382-8.155 10.194-14.045l23.333 8.835c-4.304 10.42-10.874 18.576-19.935 24.465-9.061 5.89-19.255 8.835-31.035 8.835m-1.36-100.808c-7.249 0-13.592 2.266-18.575 6.343-4.984 4.304-8.609 10.421-10.421 18.123H936.7c-.227-7.249-2.492-13.139-7.023-17.67-4.53-4.53-10.873-6.796-18.576-6.796M809.372 292.114h27.864v162.652h-25.372l-80.647-119.384v119.384h-27.863V292.114h29.902l76.116 113.947zM1978.11 130.293c1.13 0 2.27.226 3.63.226 1.13 0 2.49.227 4.07.227v27.184c-1.81-.226-3.62-.453-4.98-.453-1.59 0-3.17-.226-4.98-.226-9.07 0-16.54 2.945-21.98 8.381-5.66 5.437-8.38 12.686-8.38 21.748v62.523h-27.18v-118.93h27.18v17.669c2.72-5.437 6.8-9.967 12.69-13.365 5.89-3.172 12.46-4.984 19.93-4.984M1864.79 238.578c-3.85 4.304-8.84 7.703-14.95 9.968-6.12 2.265-12.92 3.398-20.39 3.398-11.78 0-21.3-3.172-28.77-9.741-7.7-6.57-11.33-14.951-11.33-25.372 0-9.741 3.17-17.67 9.74-23.786 6.35-6.117 16.54-10.647 30.13-13.592l32.85-6.796v-2.039c0-5.89-1.81-10.421-5.21-13.592s-8.38-4.757-15.18-4.757c-6.34 0-11.32 1.585-14.95 4.304-3.62 2.718-6.34 7.249-7.93 13.139l-25.6-5.89c3.18-10.647 9.07-19.256 17.9-25.599s19.48-9.514 31.71-9.514c14.73 0 26.06 3.625 33.98 10.647 7.71 7.023 11.78 17.217 11.78 30.356v51.197c0 3.398.68 5.663 2.27 6.796 1.59 1.359 4.3 1.585 8.16 1.132v21.068c-9.75 1.133-17.45.68-22.88-1.133-5.44-1.812-9.29-5.21-11.33-10.194m-31.26-8.381c8.15 0 14.95-2.039 20.39-6.117 5.43-4.078 8.15-9.288 8.15-16.084v-14.498l-25.6 5.437c-7.47 1.812-12.68 3.851-15.63 6.343-3.17 2.718-4.53 6.116-4.53 10.42 0 4.531 1.36 8.156 4.53 10.647 3.17 2.719 7.25 3.852 12.69 3.852M1742.21 87.253h27.18v162.652h-27.18zM1686.46 87.253h27.19v162.652h-27.19zM1650.12 146.832c4.99 5.437 8.61 12.006 11.33 19.482 2.49 7.475 3.85 15.631 3.85 24.239 0 8.835-1.36 16.99-3.85 24.466-2.72 7.475-6.34 13.818-11.33 19.255-5.43 5.89-11.55 10.421-18.8 13.592s-14.95 4.531-23.33 4.531c-8.61 0-16.31-1.359-23.56-4.531s-13.37-7.702-18.58-13.592c-4.98-5.437-8.83-11.78-11.32-19.255-2.72-7.476-3.86-15.631-3.86-24.466 0-8.608 1.14-16.764 3.86-24.239 2.49-7.476 6.34-14.045 11.32-19.482 5.21-5.89 11.33-10.194 18.58-13.366s14.95-4.757 23.56-4.757c8.38 0 16.08 1.586 23.33 4.757 7.25 3.172 13.37 7.476 18.8 13.366m-42.13 4.757c-9.29 0-16.54 3.625-21.98 10.421-5.43 7.022-7.92 16.537-7.92 28.543 0 12.233 2.49 21.747 7.92 28.543 5.44 7.023 12.69 10.421 21.98 10.421 9.06 0 16.31-3.398 21.75-10.421 5.43-6.796 8.15-16.31 8.15-28.543 0-12.006-2.72-21.521-8.15-28.543-5.44-6.796-12.69-10.421-21.75-10.421M1454.81 249.905h-54.37V87.253h54.37c12.23 0 23.56 2.039 33.76 5.663 9.96 3.625 18.57 9.062 25.82 16.311s12.69 15.857 16.54 25.825c3.62 10.194 5.66 21.294 5.66 33.527s-2.04 23.56-5.66 33.527c-3.85 10.194-9.29 18.802-16.54 25.825-7.25 7.249-15.86 12.912-25.82 16.537-10.2 3.625-21.53 5.437-33.76 5.437m-26.05-137.733v112.814h26.05c16.31 0 29.45-4.984 38.97-15.178 9.51-9.967 14.27-23.786 14.27-41.229s-4.76-31.262-14.27-41.229c-9.52-9.968-22.66-15.178-39.19-15.178zM1297.17 87.253h27.19v162.652h-27.19zM1244.04 238.578c-3.85 4.304-8.84 7.703-14.95 9.968-6.12 2.265-12.92 3.398-20.39 3.398-11.78 0-21.3-3.172-28.77-9.741-7.7-6.57-11.33-14.951-11.33-25.372 0-9.741 3.17-17.67 9.74-23.786 6.35-6.117 16.54-10.647 30.13-13.592l32.85-6.796v-2.039c0-5.89-1.81-10.421-5.21-13.592s-8.38-4.757-15.18-4.757c-6.34 0-11.33 1.585-14.95 4.304-3.62 2.718-6.34 7.249-7.93 13.139l-25.6-5.89c3.17-10.647 9.06-19.256 17.9-25.599 8.83-6.343 19.48-9.514 31.71-9.514 14.73 0 26.06 3.625 33.98 10.647 7.71 7.023 11.78 17.217 11.78 30.356v51.197c0 3.398.68 5.663 2.27 6.796 1.58 1.359 4.3 1.585 8.15 1.132v21.068c-9.74 1.133-17.44.68-22.88-1.133-5.43-1.812-9.28-5.21-11.32-10.194m-31.26-8.381c8.15 0 14.95-2.039 20.38-6.117 5.44-4.078 8.16-9.288 8.16-16.084v-14.498l-25.6 5.437c-7.47 1.812-12.69 3.851-15.63 6.343-3.17 2.718-4.53 6.116-4.53 10.42 0 4.531 1.36 8.156 4.53 10.647 3.17 2.719 7.25 3.852 12.69 3.852M1141.73 233.368c-4.76 6.343-10.42 11.1-17.22 14.272-6.79 3.171-14.04 4.757-21.97 4.757-7.25 0-13.59-1.133-19.48-3.851-5.89-2.492-10.65-6.117-14.73-11.101v12.46h-27.18V87.253h27.18v56.407c4.08-4.757 8.84-8.382 14.73-11.1 5.89-2.492 12.23-3.851 19.48-3.851 7.93 0 15.18 1.812 21.97 4.984 6.8 3.171 12.46 7.928 17.22 14.045a68.3 68.3 0 0 1 9.74 19.482c2.26 7.249 3.4 15.178 3.4 23.333 0 8.382-1.14 16.31-3.4 23.559-2.27 7.249-5.66 13.819-9.74 19.256m-44.63-80.873c-9.06 0-16.08 3.171-21.52 9.514s-7.93 14.725-7.93 25.146v7.022q0 15.631 8.16 25.146c5.43 6.343 12.46 9.288 21.29 9.288 9.52 0 16.76-3.398 22.2-10.194q8.16-10.194 8.16-27.864t-8.16-27.864c-5.44-6.796-12.68-10.194-22.2-10.194M1008.41 146.832c4.98 5.437 8.61 12.006 11.33 19.482 2.49 7.475 3.85 15.631 3.85 24.239 0 8.835-1.36 16.99-3.85 24.466-2.72 7.475-6.35 13.818-11.33 19.255-5.44 5.89-11.554 10.421-18.803 13.592s-14.951 4.531-23.333 4.531c-8.608 0-16.31-1.359-23.559-4.531s-13.366-7.702-18.576-13.592c-4.984-5.437-8.835-11.78-11.327-19.255-2.718-7.476-3.851-15.631-3.851-24.466 0-8.608 1.133-16.764 3.851-24.239 2.492-7.476 6.343-14.045 11.327-19.482 5.21-5.89 11.326-10.194 18.576-13.366 7.249-3.171 14.951-4.757 23.559-4.757 8.382 0 16.084 1.586 23.333 4.757 7.249 3.172 13.363 7.476 18.803 13.366m-42.136 4.757c-9.288 0-16.537 3.625-21.974 10.421-5.436 7.022-7.928 16.537-7.928 28.543 0 12.233 2.492 21.747 7.928 28.543 5.437 7.023 12.686 10.421 21.974 10.421 9.062 0 16.311-3.398 21.748-10.421q8.154-10.194 8.155-28.543 0-18.01-8.155-28.543c-5.437-6.796-12.686-10.421-21.748-10.421M862.954 87.253h27.184v162.652h-27.184zM838.595 249.905H812.09v-16.764c-3.624 5.89-9.288 10.647-16.99 14.045-7.929 3.625-16.764 5.21-26.731 5.21-10.874 0-21.068-2.038-30.356-6.569-9.288-4.304-17.216-10.647-24.012-18.802q-9.515-10.875-14.272-25.825-4.757-14.952-4.757-31.942c0-11.327 1.585-22.2 4.983-32.394 3.398-9.968 8.382-19.029 14.725-26.731 6.796-8.156 15.178-14.272 24.692-18.803 9.515-4.304 19.709-6.57 30.809-6.57 15.858 0 29.676 4.078 41.003 12.234s19.482 19.482 24.692 34.433l-27.637 9.288q-3.738-14.272-13.592-22.427c-6.57-5.21-14.725-7.929-24.239-7.929-13.819 0-24.919 5.437-33.527 16.311q-12.913 16.31-12.913 42.135c0 17.67 4.304 31.715 12.913 42.589s19.935 16.084 33.98 16.084c11.327 0 20.841-3.625 28.09-10.874s11.327-16.99 11.78-28.996h-42.815v-25.372h70.679z"/></svg>