<svg width="106" height="106" viewBox="0 0 106 106" fill="none" xmlns="http://www.w3.org/2000/svg">
<g clip-path="url(#clip0_9282_661)">
<path d="M52.9435 105.887C82.1834 105.887 105.887 82.1834 105.887 52.9435C105.887 23.7036 82.1834 0 52.9435 0C23.7036 0 0 23.7036 0 52.9435C0 82.1834 23.7036 105.887 52.9435 105.887Z" fill="#29233B"/>
<path d="M21.3416 73.3085C20.6108 74.0254 19.392 73.8793 18.8711 72.9981C14.7108 65.9593 12.8268 57.7506 13.5869 49.2923C14.2918 41.4472 17.3498 33.956 22.3694 27.886C30.1382 18.4916 41.358 13.3091 53.3179 13.4237L53.5013 13.4258C60.7248 13.528 67.6238 15.5526 73.6182 19.2452C74.5016 19.7894 74.6506 21.0119 73.91 21.7385L71.4676 24.1345C70.9588 24.6337 70.1792 24.7329 69.5637 24.3735C64.7095 21.5394 59.1842 19.9876 53.4106 19.906L53.0345 19.9016C47.313 19.8336 41.6401 21.2232 36.6995 24.1095C24.9867 30.9521 18.7633 43.2984 20.0754 56.3999C20.5199 60.8384 21.8825 65.1457 24.0498 69.0227C24.3976 69.6449 24.2833 70.4226 23.7744 70.9218L21.3416 73.3085ZM84.5438 32.5811L82.113 34.9657C81.6041 35.4649 81.4898 36.2426 81.8377 36.8648C84.0059 40.7434 85.3688 45.0526 85.8127 49.493C87.1225 62.5948 80.8971 74.9402 69.1824 81.7811C64.2408 84.6668 58.5669 86.0553 52.8448 85.9859L52.4767 85.9814C46.7032 85.8999 41.1779 84.3482 36.3237 81.514C35.7082 81.1546 34.9286 81.2538 34.4198 81.753L31.9754 84.151C31.2347 84.8776 31.3837 86.1002 32.2672 86.6444C38.262 90.3369 45.1621 92.3596 52.3854 92.4616L52.5694 92.4637C63.0539 92.5643 72.9717 88.593 80.4922 81.282C88.8524 73.1548 93.1643 61.9692 92.3732 50.1736C91.9633 44.0627 90.1059 38.1326 87.0125 32.8907C86.4925 32.0096 85.2741 31.8646 84.5438 32.5811ZM65.579 37.2712C63.4017 37.2613 61.3928 38.4412 60.3409 40.3475L54.1146 51.6315L48.9735 60.9505L47.2613 64.0538C46.8386 64.82 46.0312 65.2942 45.1561 65.2903L43.7462 65.2838C43.0546 65.2807 42.4165 65.6555 42.0823 66.261L38.3927 72.9471C38.0652 73.5405 38.4925 74.2681 39.1703 74.2712L48.2837 74.3126C50.461 74.3225 52.4699 73.1427 53.5218 71.2363L59.1718 60.9968L71.5186 38.6187C71.8461 38.0253 71.4188 37.2977 70.741 37.2947L65.579 37.2712ZM51.9239 47.5743L47.9912 40.2914C46.9567 38.3756 44.9586 37.1776 42.7813 37.1677L37.6193 37.1442C36.9415 37.1411 36.5076 37.8648 36.8297 38.4611L46.2372 55.8828C46.5728 56.5044 47.4632 56.5084 47.8044 55.8899L51.9201 48.4297C52.0668 48.1638 52.0682 47.8415 51.9239 47.5743Z" fill="white"/>
</g>
<defs>
<clipPath id="clip0_9282_661">
<rect width="105.887" height="105.887" fill="white"/>
</clipPath>
</defs>
</svg>
