<svg width="249" height="83" viewBox="0 0 249 83" fill="none" xmlns="http://www.w3.org/2000/svg">
<path d="M8.28709 62.6649C7.5224 63.4151 6.2471 63.2622 5.70204 62.34C1.34872 54.9747 -0.622707 46.3852 0.172633 37.5345C0.910303 29.3255 4.11012 21.4868 9.36263 15.1352C17.4919 5.30493 29.2322 -0.11804 41.7469 0.00194953L41.9388 0.00413953C49.4975 0.11102 56.7164 2.2296 62.989 6.09351C63.9134 6.66293 64.0693 7.94218 63.2943 8.70249L60.7386 11.2097C60.2062 11.7319 59.3904 11.8358 58.7463 11.4597C53.667 8.4941 47.8853 6.87034 41.8439 6.78497L41.4503 6.78029C35.4634 6.70918 29.5273 8.16326 24.3576 11.1834C12.1014 18.3435 5.58922 31.2625 6.96218 44.9719C7.42729 49.6162 8.8531 54.1234 11.1209 58.1802C11.4849 58.8314 11.3653 59.6451 10.8328 60.1675L8.28709 62.6649ZM74.4214 20.048L71.8778 22.5433C71.3453 23.0657 71.2258 23.8794 71.5897 24.5305C73.8585 28.5891 75.2847 33.0982 75.7492 37.7445C77.1197 51.4541 70.6055 64.3723 58.3474 71.5305C53.1765 74.5501 47.2394 76.0031 41.2518 75.9304L40.8667 75.9257C34.8253 75.8404 29.0437 74.2167 23.9643 71.251C23.3202 70.875 22.5045 70.9788 21.9721 71.5011L19.4142 74.0104C18.6392 74.7708 18.7951 76.05 19.7196 76.6194C25.9925 80.4832 33.2127 82.5998 40.7712 82.7066L40.9636 82.7088H40.9647C51.9356 82.814 62.3124 78.6585 70.1819 71.0082C78.9298 62.5041 83.4419 50.7995 82.614 38.4567C82.1851 32.0623 80.2416 25.8571 77.0047 20.372C76.4606 19.45 75.1856 19.2983 74.4214 20.048ZM54.5768 24.9558C52.2985 24.9454 50.1963 26.18 49.0957 28.1748L42.5806 39.9823L37.2009 49.7336L35.4093 52.9809C34.9669 53.7826 34.1221 54.2788 33.2064 54.2747L31.7312 54.268C31.0074 54.2647 30.3397 54.6568 29.99 55.2905L26.1293 62.2868C25.7866 62.9077 26.2337 63.669 26.9429 63.6723L36.4791 63.7156C38.7574 63.7259 40.8595 62.4914 41.9602 60.4966L47.8723 49.7821L60.792 26.3658C61.1346 25.7448 60.6875 24.9835 59.9783 24.9803L54.5768 24.9558ZM40.2883 35.7368L36.1731 28.116C35.0906 26.1113 32.9998 24.8578 30.7215 24.8474L25.3199 24.8229C24.6107 24.8196 24.1567 25.5768 24.4937 26.2009L34.3377 44.4308C34.6889 45.0812 35.6206 45.0854 35.9776 44.4382L40.2842 36.6319C40.4377 36.3537 40.4393 36.0164 40.2883 35.7368ZM132.866 19.4385H128.708C127.79 19.4385 127.043 20.1859 127.043 21.1041V46.8562C127.043 52.9996 122.956 57.2903 117.105 57.2903C111.327 57.2903 107.291 52.9486 107.291 46.7318V21.1041C107.291 20.1858 106.544 19.4385 105.626 19.4385H101.468C100.58 19.4385 99.802 20.2167 99.802 21.1041V47.1661C99.802 57.0302 107.241 64.469 117.105 64.469C127.04 64.469 134.532 57.0302 134.532 47.1661V21.1041C134.532 20.2167 133.754 19.4385 132.866 19.4385ZM157.128 37.905C151.674 35.6703 149.55 33.6045 149.55 30.5362C149.55 26.5036 153.817 25.4384 156.074 25.4384C157.519 25.4384 160.07 25.9448 164.014 28.3588C164.106 28.4146 164.172 28.4548 164.188 28.4636C164.667 28.7717 165.177 28.8765 165.664 28.7643C166.198 28.6429 166.686 28.2609 167.028 27.7035C167.279 27.3269 167.546 26.9185 167.813 26.5105C168.074 26.1118 168.334 25.7132 168.579 25.3454C168.995 24.7224 168.987 24.1533 168.908 23.785C168.799 23.2772 168.482 22.8168 168.082 22.5675C166.827 21.6879 162.27 18.818 156.322 18.818C150.576 18.818 147.252 21.0341 145.476 22.8937C143.423 25.0417 142.246 27.9176 142.246 30.7846C142.246 35.3113 143.651 40.0927 153.84 44.3893C160.367 47.0917 162.91 49.3838 162.91 52.5647C162.91 55.6266 160.166 57.8486 156.385 57.8486C152.001 57.8486 147.604 54.3763 146.765 53.6774C146.366 53.3512 145.902 53.2136 145.418 53.2827C144.856 53.3615 144.334 53.7136 143.947 54.2739C143.66 54.6882 143.388 55.1354 143.126 55.5673C142.87 55.989 142.605 56.4254 142.333 56.8172L142.313 56.848C141.473 58.2791 142.261 58.9799 142.773 59.4354C143.67 60.2758 148.543 64.469 156.447 64.469C164.613 64.469 170.771 59.2179 170.771 52.2547C170.771 44.1136 163.727 40.5785 157.128 37.905ZM208.702 19.4385H204.047C203.446 19.4385 202.939 19.8274 202.658 20.202L191.823 35.4665L180.981 20.1912C180.606 19.6922 180.141 19.4385 179.599 19.4385H175.007C174.376 19.4385 173.827 19.748 173.538 20.2662C173.242 20.7956 173.266 21.4362 173.616 22.0038L188.048 42.6032V62.1829C188.048 63.1011 188.795 63.8485 189.713 63.8485H193.809C194.696 63.8485 195.475 63.0698 195.475 62.1829V42.5434L210.109 21.9798C210.443 21.4362 210.467 20.7956 210.171 20.2662C209.881 19.748 209.332 19.4385 208.702 19.4385ZM248.44 55.94L245.556 53.1215C244.961 52.6244 244.137 52.646 243.459 53.172C240.769 55.2465 237.649 57.1664 233.083 57.1664C224.729 57.1664 217.932 50.1752 217.932 41.5815C217.932 32.9536 224.701 25.9345 233.021 25.9345C236.644 25.9345 240.537 27.4435 243.412 29.949C243.906 30.4442 244.358 30.5245 244.654 30.5083C244.921 30.4921 245.313 30.377 245.673 29.927L248.382 27.1574C248.722 26.8171 248.902 26.3797 248.889 25.9252C248.875 25.4693 248.666 25.0383 248.295 24.7082C243.599 20.6345 238.87 18.818 232.959 18.818C220.339 18.818 210.071 29.0856 210.071 41.7059C210.071 54.2572 220.339 64.469 232.959 64.469C238.895 64.469 244.226 62.3401 248.382 58.3075C248.726 57.9627 248.922 57.4661 248.907 56.9793C248.893 56.56 248.72 56.1844 248.44 55.94Z" fill="white"/>
</svg>
