<svg xmlns="http://www.w3.org/2000/svg" width="801" height="132" fill="none" viewBox="0 0 801 132"><g clip-path="url(#a)"><path fill="#f1ece2" d="M123.681 102.095c-.085.064-.17.133-.26.194-.085.065-.174.126-.263.191q-.25.176-.511.34a16.956 16.956 0 0 1-.49.304c-.215.13-.426.252-.645.373-1.484.827-3.045 1.492-4.638 2.08a61 61 0 0 1-4.565 1.463 88 88 0 0 1-6.681 1.573c-2.185.438-4.378.807-6.58 1.127-2.2.321-4.41.588-6.624.819-.725.077-1.451.146-2.177.215a178 178 0 0 1-6.55.479q-2.453.138-4.902.214-.443.015-.892.029l-.819.024c.669-.827 1.338-1.65 1.95-2.521q.135-.163.263-.333a114 114 0 0 0 3.97-5.688c.13-.008.259-.012.385-.02q1.203-.069 2.408-.15.912-.061 1.824-.134c4.252-.328 8.489-.798 12.705-1.459q1.842-.288 3.665-.625c2.846-.527 5.667-1.159 8.449-1.954q.917-.26 1.828-.547.456-.144.912-.296c.458.081.876.272 1.305.43q.565.208 1.132.434a31 31 0 0 1 3.125 1.427q.601.316 1.184.669c.515.312 1.017.64 1.488 1.017.138.11.178.154.125.219a.6.6 0 0 1-.129.114z"/><path fill="#5e93ff" d="M84.268 121.679a.3.3 0 0 1-.268.021.3.3 0 0 1 .065-.033c.037-.012.069-.012.105-.012.033 0 .07.008.102.024zM83.907 121.7a.5.5 0 0 1-.337.02c.11-.065.223-.057.337-.02M83.477 121.72a.48.48 0 0 1-.336.02c.11-.069.218-.061.336-.02M83.047 121.74a.43.43 0 0 1-.332.016s.008 0 .012-.004a.4.4 0 0 1 .32-.012M82.39 121.736a.4.4 0 0 1 .228.021.47.47 0 0 1-.337.02.4.4 0 0 1 .11-.041M82.014 121.744q.083.002.174.029a.46.46 0 0 1-.332.016.33.33 0 0 1 .158-.049zM81.677 121.773a.4.4 0 0 1 .077.02.46.46 0 0 1-.332.02.32.32 0 0 1 .239-.04h.016M81.324 121.813a.58.58 0 0 1-.397.016.55.55 0 0 1 .397-.016M80.83 121.83a.44.44 0 0 1-.333.016.37.37 0 0 1 .333-.016M109.273 95.953c.052.008.113.008.17.016a.3.3 0 0 1 .203.089 1 1 0 0 1-.426-.118c.008 0 .02 0 .028.005a.1.1 0 0 1 .029.004z"/><path fill="#3180f4" d="m47.53 131.709.033.069-2.263.008.037-.073h2.189z"/><path fill="#fdbf41" d="M115.455 97.789a60 60 0 0 1-2.74.843c-2.785.795-5.603 1.427-8.449 1.954q-1.826.34-3.665.625c-4.216.66-8.452 1.131-12.705 1.459q-.912.073-1.824.134-1.205.081-2.408.15-.193.01-.385.02a120 120 0 0 0 2.537-4.054 129 129 0 0 0 3.39-6.02c2.05.178 4.098.385 6.145.636.15.017.3.049.454.073.917.065 1.825.203 2.729.337 1.163.17 2.327.357 3.486.551 1.565.264 3.13.556 4.683.892q1.256.276 2.513.551c.134.073.276.102.426.118 1.792.458 3.579.94 5.335 1.52.162.053.349.07.474.207z"/><path fill="#f1ece2" d="M55.845 110.989"/><path fill="#404a5a" d="M32.7 127.144c-.056 0-.105-.016-.141-.061h.036c.008 0 .012.005.02.005q.01-.001.017.004c.008 0 .016.008.024.012 0 0 .008 0 .012.004l.025.024h.004zM32.559 127.083c-.057 0-.11-.012-.142-.064h.044a.14.14 0 0 1 .094.06v.004zM32.417 127.019c-.06 0-.118-.005-.142-.069v-.004h.004c.057 0 .11.012.138.068z"/><path fill="#404a5a" d="M32.275 126.942v.008c-.057 0-.118.008-.138-.069v-.008c.06-.009.114.004.142.069zM31.72 126.589c.04.028.089.049.133.069.033.016.065.028.098.044a.4.4 0 0 1 .146.118q.018.026.036.065a.9.9 0 0 1-.503-.215z"/><path fill="#f1ece2" d="m44.72 120.48-.47.072q-.911.122-1.828.146c-.203.004-.41.009-.612.004q-.309-.002-.616-.016c-.09-.004-.175-.016-.264-.024-.085-.008-.174-.02-.263-.028a.48.48 0 0 1-.284-.13 14 14 0 0 1-.702-.681q2.517.364 5.04.661z"/><path fill="#f1ece2" d="M71.129 92.138c-1.208 0-2.416.016-3.625.036-2.01 3.118-4.18 6.126-6.547 8.984q-.745.9-1.516 1.776a69 69 0 0 1-4.07 4.269 57 57 0 0 1-3.872 3.401 44 44 0 0 1-3.251 2.38c-2.068 1.37-4.237 2.55-6.572 3.409-1.183.434-2.392.787-3.64.993-.07.012-.134.041-.203.061l.016.065a.1.1 0 0 0 .017.036q.132.207.271.402.281.401.58.778.45.566.957 1.091 2.516.363 5.039.661.675-.105 1.337-.264a23 23 0 0 0 3-.94 27 27 0 0 0 2.855-1.31c.202-.105.4-.215.604-.324a39 39 0 0 0 4.013-2.55 51 51 0 0 0 3.714-2.972q.255-.224.51-.454c.126-.113.248-.227.377-.344a67 67 0 0 0 2.254-2.161q.425-.43.844-.872a81 81 0 0 0 2.687-2.959 74 74 0 0 0 1.537-1.841q.091-.11.182-.227.517-.645 1.026-1.301a96 96 0 0 0 3.081-4.22q.802-1.167 1.573-2.352.432-.669.851-1.338c.385-.612.763-1.232 1.135-1.852-1.723-.04-3.441-.061-5.164-.061"/><path fill="#c18b00" d="M25.14 123.771c-.057.012-.102-.004-.122-.065.061-.012.106 0 .122.065"/><path fill="#fdbf41" d="M60.888 92.39q-1.296.06-2.586.141a87 87 0 0 1-2.943 3.94 80 80 0 0 1-3.106 3.71 97 97 0 0 1-1.86 2.023c-.447.47-.9.937-1.367 1.391-1.853 1.812-3.794 3.523-5.882 5.067-.349.255-.697.507-1.054.754a37 37 0 0 1-3.645 2.246c-.912.495-1.852.932-2.805 1.334.008.044 0 .093.02.138.134.369.276.729.43 1.09q.226.54.482 1.062c.34.698.722 1.379 1.135 2.044l.008.008c.029.04.077.077.114.113.069-.02.134-.048.203-.061 1.244-.206 2.452-.559 3.64-.993 2.335-.855 4.504-2.039 6.572-3.409a44 44 0 0 0 3.251-2.38 59 59 0 0 0 3.872-3.401 67 67 0 0 0 4.07-4.269 80 80 0 0 0 1.516-1.776c2.368-2.858 4.537-5.866 6.547-8.984-2.205.041-4.415.106-6.616.215z"/><path fill="#e7aa24" d="M104.489 59.11s-.028-.004-.041-.004a.2.2 0 0 1 .041.004"/><path fill="#e7aa24" d="M104.25 59.203c.069 0 .146 0 .101-.11.033 0 .065.009.102.013a.1.1 0 0 0-.049.012c-.028.02-.028.065-.02.117q-.067-.001-.134-.008a1 1 0 0 1-.077-.008c-.053-.004-.11-.012-.162-.016a4 4 0 0 1-.365-.069c.207-.012.405.06.608.073z"/><path fill="#f1ece2" d="M41.352 100.992c.09.016.174.028.26.044a54 54 0 0 1-5.36 4.569c-.69.511-1.379 1.022-2.124 1.456-.138-.596-.2-1.204-.268-1.812-.235-1.938-.324-3.884-.328-5.83q.704.17 1.415.332c1.382.317 2.768.596 4.159.852q1.125.206 2.25.393z"/><path fill="#f10" d="M49.091 93.317c-.199.025-.401.041-.604.061-1.995 2.538-4.123 4.958-6.434 7.225q-.221.217-.442.429l.203.037c-.069-.012-.134-.025-.203-.033a54 54 0 0 1-5.359 4.569c-.69.511-1.378 1.022-2.124 1.456.008.081.012.166.02.247 0 .024 0 .044.008.069.016.093.037.186.053.279.012.078.024.15.04.228l.11.567c.215 1.07.47 2.128.79 3.17.146.467.264.945.499 1.383a32 32 0 0 0 2.805-1.334 39 39 0 0 0 3.645-2.246c.357-.243.705-.495 1.054-.754 2.088-1.541 4.03-3.255 5.882-5.068.467-.454.916-.92 1.367-1.39a82.12 82.12 0 0 0 4.966-5.732 92 92 0 0 0 2.943-3.94q-4.61.276-9.207.785z"/><path fill="#f1ece2" d="M41.814 101.069c-.069-.012-.134-.025-.203-.033q.105.02.203.033"/><path fill="#f10" d="M41.611 101.032a6 6 0 0 1-.26-.044l.26.04zM39.102 100.599"/><path fill="#fdbf41" d="M47.17 93.569c.433-.093.875-.142 1.317-.187-1.995 2.538-4.123 4.958-6.434 7.225q-.221.218-.442.429l-.26-.04q-1.124-.188-2.249-.393a99 99 0 0 1-4.16-.852c-.47-.11-.944-.219-1.414-.332q-.001-1.102.028-2.21.02-.655.057-1.305c1.601-.381 3.215-.718 4.832-1.026 2.765-.523 5.546-.948 8.335-1.293q.068-.008.134-.016a.7.7 0 0 1 .158-.008q.05.002.097.016z"/><path fill="#007fff" d="M96.487 58.137q2.421.295 4.844.592a.2.2 0 0 1-.036.048c-1.002-.121-2.007-.239-3.009-.369-.291-.036-.583-.06-.875-.093a11 11 0 0 1-.872-.121.3.3 0 0 0-.052-.053z"/><path fill="#f1ece2" d="M88.581 63.152c.061-.227.118-.463.179-.69a35 35 0 0 1-.179.69M134.959 95.58v-6.661c-.142-.62-.336-1.224-.681-1.767-.555-.876-1.216-1.659-2.043-2.3-.864-.668-1.747-1.296-2.7-1.832-1.31-.733-2.672-1.354-4.038-1.966-.243-.11-.495-.162-.738-.26-3.089-1.207-6.267-2.115-9.486-2.898-2.06-.502-4.135-.932-6.219-1.321a148 148 0 0 0-7.046-1.14 198 198 0 0 0-7.058-.839 242 242 0 0 0-6.162-.53q-1.82-.134-3.64-.236-1.546-.086-3.098-.158c-1.626-.073-3.247-.13-4.873-.166-.117 0-.235-.008-.352-.008a244 244 0 0 0-7.703-.05h-.126c-2.643.025-5.286.086-7.925.196-.158.004-.317.016-.475.02a226 226 0 0 0-9.36.592c-4.577.385-9.138.908-13.674 1.621-.11.017-.215.037-.325.053-.174.616-.332 1.24-.551 1.845q-.23.925-.466 1.844a93 93 0 0 0-1.123 4.93q.346-.058.693-.118.457-.076.908-.154l1.35-.219a181 181 0 0 1 9.794-1.236q1.637-.165 3.28-.304 2.482-.205 4.97-.361c1.561-.097 3.122-.174 4.683-.24q.601-.026 1.204-.052c.596-.024 1.196-.04 1.792-.06q.576-.018 1.16-.03a243 243 0 0 1 4.22-.068c.53 0 1.057-.008 1.589-.008.908 0 1.816 0 2.72.008q.493 0 .985.012l1.058.012q1.439.025 2.878.07c.961.028 1.918.064 2.879.1.158.005.316.017.474.02 1.03.045 2.06.098 3.085.15q1.185.069 2.372.143a181.698 181.698 0 0 1 6.831.56c.036 0 .077.007.113.011q1.174.114 2.347.236c1.253.125 2.506.275 3.759.441a239 239 0 0 1 5.298.77q2.33.377 4.642.832 1.361.267 2.716.56 1.355.292 2.704.624c1.366.336 2.724.697 4.066 1.09a60 60 0 0 1 5.307 1.812c.438.17.868.353 1.301.535a42 42 0 0 1 1.942.912q.237.114.475.236l.369.182c.162.081.324.162.482.251q.306.163.588.357c.721.499 1.463.969 2.132 1.536.154.134.304.268.45.41.175.146.341.304.499.462.263.264.507.547.721.843a6 6 0 0 1 .519.856q.104.206.191.43.09.22.162.446c.032.105.069.214.101.32 0 0 0 .008.004.012v-.012c.086-.45.033-.904.037-1.358z"/><path fill="#fdbf41" d="M134.987 88.04q.008-2.523 0-5.044c0-.774-.008-1.553-.012-2.327-.133-.438-.227-.888-.425-1.305-.507-1.05-1.265-1.894-2.141-2.648-.957-.827-2.015-1.512-3.126-2.116a37 37 0 0 0-5.002-2.274 73 73 0 0 0-6.069-1.95 120 120 0 0 0-4.727-1.18c-1.804-.41-3.616-.77-5.436-1.09a168 168 0 0 0-5.688-.908q-1.351-.188-2.708-.357c-2.02-.26-4.042-.487-6.07-.665-.376-.037-.75-.09-1.126-.118a897 897 0 0 0-4.593-.34l-.657-.049a155 155 0 0 0-3.065-.198c-1.33-.065-2.66-.114-3.99-.163h-.036c-1.39-.048-2.777-.101-4.167-.125q-1.835-.03-3.677-.037c-.54 0-1.079-.004-1.622-.004q-3.222 0-6.437.093h-.094c-2.517.073-5.039.175-7.552.337-1.934.121-3.868.23-5.798.393-.782.065-1.56.162-2.339.24-2.72.27-5.432.587-8.136.968l-.093.012a112 112 0 0 0-2.911 8.522l-.061.215c.105-.016.215-.037.324-.053 4.537-.713 9.098-1.24 13.675-1.622a233 233 0 0 1 9.834-.612c2.64-.11 5.283-.17 7.926-.194h.126q3.854-.03 7.702.048c.118 0 .236.008.353.008 1.626.037 3.247.094 4.873.167q1.55.072 3.097.158c1.213.069 2.429.146 3.64.235 2.056.15 4.112.332 6.163.53a198 198 0 0 1 7.058.84c2.355.324 4.707.701 7.046 1.14 2.084.389 4.159.818 6.219 1.32 3.219.783 6.397 1.691 9.486 2.9.243.097.495.15.738.259 1.366.616 2.728 1.232 4.038 1.966.952.535 1.836 1.164 2.7 1.833.827.64 1.488 1.422 2.043 2.298.344.543.535 1.147.681 1.768.057-.292.024-.588.024-.88z"/><path fill="#f1ece2" d="M87.324 24.485c1.12 1.747 1.93 3.636 2.542 5.614q.284.92.515 1.849c.255 1.034.454 2.084.612 3.138q.069.461.13.928.117.93.203 1.86l.073.933c.113 1.695.162 3.39.117 5.088a73 73 0 0 1-.332 5.323 81 81 0 0 1-.714 5.25 88 88 0 0 1-.58 3.121 161 161 0 0 0-5.039-.328c-.806-.036-1.617-.08-2.428-.122a92 92 0 0 0 1.37-7.11c.398-2.648.681-5.303.787-7.975.085-2.27.073-4.544-.11-6.814a42 42 0 0 0-.814-5.623c-.459-2.088-1.103-4.115-2.028-6.049-.364-.766-.794-1.5-1.224-2.23.353-.113.722-.125 1.083-.162q.286-.03.567-.048.244-.013.487-.02.395-.008.79 0a14.833 14.833 0 0 1 1.046.057.6.6 0 0 1 .24.097c.052.032.105.077.153.121q.19.172.365.349.36.354.69.734a16.4 16.4 0 0 1 1.511 2.01z"/><path fill="#fdbf41" d="M83.643 29.617c.406 1.852.661 3.73.815 5.623.187 2.27.199 4.544.11 6.814-.102 2.672-.385 5.328-.787 7.975a91 91 0 0 1-1.37 7.11c-.612-.028-1.228-.06-1.84-.085a242 242 0 0 0-4.205-.113q-.786-.017-1.564-.029a92 92 0 0 0 1.345-5.821c.292-1.464.544-2.935.767-4.41q.219-1.485.389-2.972.176-1.557.276-3.126.101-1.675.137-3.349a49 49 0 0 0-.13-4.48 55 55 0 0 0-.291-2.947 36 36 0 0 0-.734-3.98c-.255-1.05-.547-2.097-.937-3.11.268-.17.576-.256.872-.365a22 22 0 0 1 1.82-.588 20 20 0 0 1 1.87-.413c.044-.008.084-.02.129-.02q.041-.002.077.007c.43.73.86 1.46 1.224 2.23.925 1.934 1.57 3.96 2.027 6.049"/><path fill="#3180f4" d="M101.266 26.18s-.016-.013-.016-.021v-.016l.02.012-.008.02z"/><path fill="#007fff" d="M134.951 104.928c.004-.105.012-.211.012-.316q.002-2.604.004-5.21c0-.75-.012-1.5-.016-2.25 0-.044.02-.093.016-.137-.012-.029-.028-.049-.04-.073v.008q.001-.006-.004-.012c-.033-.11-.069-.215-.102-.325a6 6 0 0 0-.162-.446 6 6 0 0 0-.19-.43 6.6 6.6 0 0 0-.519-.855 6.4 6.4 0 0 0-.722-.843 9 9 0 0 0-.499-.462 7 7 0 0 0-.45-.41c-.669-.567-1.41-1.037-2.132-1.536a7 7 0 0 0-.588-.357 18 18 0 0 0-.482-.251l-.369-.182a23 23 0 0 0-.475-.236 42 42 0 0 0-1.941-.912c-.434-.182-.864-.365-1.302-.535a62 62 0 0 0-5.306-1.812 88 88 0 0 0-4.067-1.09q-1.349-.331-2.704-.625a154 154 0 0 0-2.716-.56 131 131 0 0 0-4.642-.83 232.533 232.533 0 0 0-5.298-.77 116 116 0 0 0-3.758-.443c-.783-.077-1.565-.158-2.348-.235-.036 0-.077-.008-.113-.012q-1.634-.165-3.276-.3c-1.184-.097-2.371-.178-3.555-.26q-1.185-.079-2.372-.141c-1.03-.057-2.06-.11-3.085-.15q-.237-.014-.474-.02-1.44-.06-2.879-.102a228 228 0 0 0-2.878-.069l-1.058-.012-.985-.012q-1.363-.013-2.72-.008-.797.001-1.59.008c-1.406.012-2.813.032-4.22.069-.385.008-.77.02-1.16.028-.595.016-1.195.037-1.791.061q-.602.026-1.204.053-2.341.099-4.682.239a226 226 0 0 0-4.97.36q-1.644.14-3.28.305a181 181 0 0 0-9.795 1.236q-.675.104-1.35.22c-.304.048-.604.1-.908.153q-.347.058-.693.118a93 93 0 0 1 1.123-4.93q.236-.922.466-1.844c.219-.605.377-1.229.551-1.845l.061-.215a112 112 0 0 1 2.911-8.522 115 115 0 0 1 3.803-8.756 111 111 0 0 1 6.137-11.063 94 94 0 0 1 6.929-9.617c.052-.06.093-.133.142-.198.758-.868 1.504-1.743 2.278-2.599 2.521-2.793 5.238-5.38 8.246-7.646.742-.56 1.508-1.086 2.266-1.625a.44.44 0 0 1 .235-.061c.037-.11.138-.158.223-.211 1.553-.993 3.166-1.877 4.865-2.59.06-.025.117-.057.182-.078l.057-.012c.02 0 .04-.008.06-.008.268-.17.577-.255.873-.365a22 22 0 0 1 1.82-.588 19 19 0 0 1 1.869-.413c.044-.008.085-.02.13-.02q.041-.002.076.008c.353-.114.722-.126 1.083-.162q.286-.03.567-.05.244-.012.487-.02.395-.005.79 0c.183.005.37.013.552.02a15 15 0 0 1 .494.037.6.6 0 0 1 .24.098c.052.032.105.077.153.121q.19.172.365.349.36.354.69.734a16.4 16.4 0 0 1 1.512 2.01c1.119 1.748 1.93 3.637 2.542 5.615q.284.92.514 1.849c.256 1.034.454 2.084.613 3.138q.067.461.13.928.115.93.202 1.861l.073.932c.114 1.695.162 3.39.118 5.088a73 73 0 0 1-.333 5.323 81 81 0 0 1-.713 5.25 88 88 0 0 1-.58 3.122q.407.029.815.065c1.95.162 3.896.356 5.842.535a.3.3 0 0 0-.053-.053c1.613.199 3.231.393 4.844.592a.2.2 0 0 1-.036.048q.146.021.292.041c.324-1.597.616-3.195.863-4.804.219-1.443.414-2.89.564-4.342a72 72 0 0 0 .332-4.082q.049-.988.11-1.975c.004-.085-.041-.198.093-.235 0-1.224-.008-2.452-.012-3.677-.065-.028-.069-.085-.077-.146-.016-.247-.045-.49-.053-.738a50 50 0 0 0-.45-5.306 41 41 0 0 0-1.192-5.765c-.134-.474-.247-.953-.458-1.403l-.044-.162s-.017-.012-.017-.02v-.016c-.012-.057-.02-.114-.04-.17-.783-2.259-1.804-4.4-3.211-6.345-1.354-1.877-2.988-3.446-5.003-4.614-.754-.437-1.573-.745-2.347-1.139-.069-.036-.158-.028-.24-.044-.068-.09-.177-.114-.27-.158-1.83-.811-3.653-1.622-5.486-2.425-.235-.105-.45-.26-.713-.292q-.068-.022-.134-.044c-.312-.102-.633-.175-.933-.316a1 1 0 0 1-.08-.029l-.041-.012h-.008c-.033.02-.053.004-.073-.024a16 16 0 0 0-1.772-.345q-.644-.091-1.293-.13a17.144 17.144 0 0 0-1.727-.004q-.857.038-1.707.154c-.989.138-1.97.345-2.943.613-.138.04-.28.077-.418.121-1.828.543-3.571 1.277-5.254 2.145q-.838.432-1.666.912a37 37 0 0 0-1.488.896q-.243.153-.486.312-.244.156-.483.32-.48.321-.948.661-.233.17-.466.34v.033c0 .008-.009.016-.013.024q-.017.018-.052.017h-.004v.02q-.002.023-.017.028c-.008.004-.016.004-.032 0q-.008.002-.016-.008-1.034.724-2.01 1.508-.439.348-.864.71c-.045.036-.09.077-.134.113q-.439.371-.872.754v.02q-.001.029-.02.045s-.008.004-.012.008a.1.1 0 0 1-.033.008.2.2 0 0 1-.032.045c-.016.016-.029.032-.049.044a.2.2 0 0 1-.085.037q0 .053-.024.065c-.025.016-.07.004-.102.008-.109.113-.223.227-.332.336-.008.009-.012.017-.02.02v.017c0 .016-.008.024-.017.036h-.004s-.024.012-.048.012c-.098.082-.203.155-.296.24q-.012.01-.025.02c-.356.336-.717.673-1.07 1.018q-.037.035-.069.064c-.11.11-.223.211-.336.317-.284.263-.576.518-.847.794q-.221.226-.442.446a84 84 0 0 0-2.485 2.61 98 98 0 0 0-3.004 3.483c-.138.17-.28.337-.418.507-.02.024-.045.053-.06.081q-.044.06-.086.126l-.11.166q-.04.058-.089.118-.017.019-.028.032a1 1 0 0 1-.142.13c0 .012-.004.016-.008.024q.002.012-.008.024c0 .005-.008.009-.012.013l-.029.012c-.024.113-.117.17-.194.243-.004 0-.008.008-.012.012-.025.02-.04.045-.057.07a.1.1 0 0 0-.02.04c-.005.016-.013.028-.017.044v.02q0 .028-.024.045s-.008 0-.008.004h-.033q-.269.335-.539.669c-.008.012-.02.024-.028.037a.3.3 0 0 1 0 .077c0 .02-.012.032-.02.048 0 .004-.008.012-.008.016a.2.2 0 0 1-.045.037.4.4 0 0 1-.069.028c-.028.033-.057.061-.085.093l-.028.033c-.025.024-.045.053-.065.077l-1.375 1.853c0 .02-.008.032-.02.044l-.008.008a.05.05 0 0 1-.032.013c-.317.446-.641.887-.953 1.337q-.09.135-.183.268c-.466.685-.904 1.39-1.374 2.072-.235.34-.458.689-.68 1.033-.228.345-.455.69-.702 1.026-.394.54-.73 1.127-1.075 1.699q-.226.37-.445.742c-1.667 2.764-3.284 5.558-4.663 8.48-.08.17-.174.329-.267.491-.093.158-.19.32-.272.482q-.705 1.417-1.374 2.85c-.166.357-.328.714-.495 1.075q-.322.7-.632 1.407-.396.892-.787 1.8-.163.376-.32.762-.201.473-.397.952a144 144 0 0 0-1.342 3.393q-.19.498-.373 1.002-.442 1.214-.872 2.436l-.206.584q-.08.226-.154.458-.2.579-.381 1.164-.224.71-.442 1.423-.158.509-.32 1.017c-.248.758-.536 1.508-.633 2.307-.004.04-.053.077-.077.113-.122.333-.195.673-.276 1.014-.04.162-.089.324-.138.486q-.073.244-.142.487a94 94 0 0 0-.539 2.1 100 100 0 0 0-.92 4.062q-.195.943-.373 1.893c-.093.503-.186 1.002-.271 1.504-.078.442-.146.884-.22 1.326q-.135.843-.25 1.686-.104.759-.2 1.517a96 96 0 0 0-.417 4.18c-.028.4-.057.798-.077 1.2q-.037.599-.06 1.2-.048 1.198-.082 2.4-.004.273-.008.547v.166c-.004 1.025.036 2.047.069 3.065 0 .044.008.093.008.137q.011.274.028.548.057 1.106.175 2.213c.052.499.11 1.002.174 1.5.008.073.02.142.028.215a51 51 0 0 0 .495 3.024c.369 1.873.86 3.714 1.532 5.502q.02.043.037.093c.503 1.321 1.086 2.607 1.804 3.831 1.18 2.015 2.619 3.799 4.455 5.221.22.171.442.333.67.495.218.15.453.288.68.426.04.028.09.048.134.069.032.016.065.028.097.044a.4.4 0 0 1 .146.118q.019.026.037.065v-.008c.06-.009.113.004.142.069h.004c.056 0 .11.016.138.068q.023-.001.04.004h.004a.15.15 0 0 1 .093.061v.004h.037c.008 0 .012.004.024.004.004 0 .012 0 .016.004.009 0 .017.009.025.013 0 0 .008 0 .012.004l.024.024h.004c.077.081.183.101.28.146l6.073 2.688c1.001.442 1.995.908 3.053 1.2s2.132.49 3.23.535h2.19a13 13 0 0 0 1.58-.166c2.13-.321 4.172-.949 6.147-1.796 3.616-1.553 6.88-3.673 9.94-6.126a69 69 0 0 0 1.983-1.658c2.274.041 4.544.053 6.818.028 2.165-.024 4.334-.06 6.499-.146a.37.37 0 0 1 .332-.016h.098a.54.54 0 0 1 .397-.016h.097a.32.32 0 0 1 .24-.041h.012l.077.025h.097a.33.33 0 0 1 .158-.049q.085.002.174.029h.098a.406.406 0 0 1 .337-.021h.092s.008 0 .013-.004a.4.4 0 0 1 .32-.012h.093c.11-.069.219-.061.337-.02h.093c.11-.065.223-.057.336-.02h.094a.3.3 0 0 1 .064-.033c.037-.012.07-.012.106-.012.032 0 .069.008.101.024.495-.024.985-.04 1.48-.069 3.786-.223 7.56-.523 11.33-.94 5.725-.637 11.413-1.492 17.032-2.773 3.827-.872 7.601-1.918 11.25-3.389 1.958-.791 3.859-1.695 5.619-2.879 1.058-.713 2.039-1.516 2.825-2.542.495-.652.896-1.354 1.05-2.172a.34.34 0 0 0 .089-.223c.037-.588.057-1.172.004-1.76zM84.134 92.527a165 165 0 0 0-3.158-.166c1.054.048 2.104.105 3.158.166m-23.38 19.139-.51.454a50 50 0 0 1-3.714 2.972 40 40 0 0 1-4.013 2.55 35 35 0 0 1-2.015 1.021q-.713.328-1.443.612c-.973.381-1.97.698-3 .941q-.669.159-1.338.263l-.47.073a17 17 0 0 1-2.441.15q-.309-.002-.616-.016c-.09-.004-.175-.016-.264-.024q-.129-.014-.263-.029a.47.47 0 0 1-.284-.129 15.3 15.3 0 0 1-2.51-2.952.1.1 0 0 1-.016-.036l-.016-.065c-.036-.036-.085-.073-.113-.113l-.009-.009a21 21 0 0 1-1.135-2.043c-.17-.353-.332-.701-.482-1.062a20 20 0 0 1-.43-1.091c-.016-.044-.012-.089-.02-.137-.235-.438-.353-.917-.499-1.383-.324-1.042-.58-2.1-.79-3.17l-.11-.568c-.016-.077-.024-.15-.04-.227-.016-.093-.037-.186-.053-.279 0-.025 0-.045-.008-.069-.008-.081-.012-.166-.02-.248-.138-.595-.199-1.204-.268-1.812-.235-1.937-.324-3.883-.328-5.83q-.001-1.1.028-2.209.02-.655.057-1.305c1.601-.381 3.215-.718 4.832-1.026 2.765-.523 5.546-.949 8.335-1.293q.068-.008.134-.016a.7.7 0 0 1 .158-.008q.049.002.098.016c.433-.093.875-.142 1.317-.187l.604-.06c3.065-.341 6.134-.6 9.207-.787q1.296-.08 2.586-.142a225 225 0 0 1 10.24-.251q2.587 0 5.165.06a108 108 0 0 1-1.986 3.191q-.772 1.184-1.573 2.352a96 96 0 0 1-4.107 5.521q-.09.116-.182.227a68 68 0 0 1-1.537 1.841 81 81 0 0 1-2.687 2.959q-.419.439-.844.872a60 60 0 0 1-2.254 2.16l-.377.345zm63.057-9.689a.7.7 0 0 1-.13.113c-.085.065-.17.134-.26.195q-.129.096-.263.19a11 11 0 0 1-.511.341q-.03.017-.061.041-.212.135-.43.263c-.214.13-.425.251-.644.373-1.484.827-3.045 1.492-4.638 2.08a61 61 0 0 1-4.565 1.463 89 89 0 0 1-6.681 1.573c-2.185.438-4.378.807-6.58 1.127-2.2.32-4.41.588-6.624.819-.725.077-1.451.146-2.177.215a178 178 0 0 1-6.55.478c-1.635.094-3.269.163-4.902.215-.296.008-.592.021-.892.029l-.819.024c.669-.827 1.338-1.65 1.95-2.522q.135-.163.263-.332 1.964-2.646 3.775-5.388c.065-.101.401-.612.502-.77.767-1.18 1.508-2.372 2.234-3.58a129 129 0 0 0 3.39-6.02c2.05.178 4.098.385 6.145.636.15.017.3.05.454.073.916.065 1.825.203 2.729.337 1.163.17 2.327.357 3.486.551 1.565.264 3.13.556 4.682.892.84.183 1.675.369 2.514.552.008 0 .02 0 .028.004q.011-.001.029.004c.052.008.113.008.17.016a.3.3 0 0 1 .203.089c1.792.458 3.579.94 5.335 1.52.162.053.348.07.474.207.458.081.876.272 1.305.43a37 37 0 0 1 1.128.433 30 30 0 0 1 3.125 1.428q.601.315 1.184.668c.515.313 1.017.641 1.488 1.018.138.109.178.154.125.219z"/><path fill="#f10" d="M134.987 72.76c-.048-.97-.417-1.825-.981-2.603-.794-1.107-1.82-1.97-2.931-2.732-1.893-1.298-3.965-2.25-6.085-3.102a54 54 0 0 0-3.584-1.285 83 83 0 0 0-5.586-1.56 121 121 0 0 0-7.082-1.509 122 122 0 0 0-4.354-.73 1.5 1.5 0 0 1-.211-.016c-.053-.004-.11-.012-.162-.016a4 4 0 0 1-.365-.069q-.65-.103-1.297-.21-.378-.057-.754-.106-.147-.023-.292-.04c-1.002-.122-2.007-.24-3.008-.37-.292-.036-.584-.06-.876-.093a9 9 0 0 1-.872-.121c-1.946-.183-3.892-.377-5.842-.535-.271-.02-.543-.045-.814-.065a161 161 0 0 0-5.04-.329c-.806-.036-1.617-.08-2.428-.121-.612-.029-1.228-.061-1.84-.086a243 243 0 0 0-4.204-.113q-.785-.017-1.565-.028s.96-3.868 1.346-5.822a95 95 0 0 0 .766-4.41q.219-1.484.389-2.972.177-1.557.276-3.126.102-1.675.138-3.349a49 49 0 0 0-.13-4.48 55 55 0 0 0-.292-2.946 36 36 0 0 0-.734-3.982c-.255-1.05-.547-2.095-.936-3.109-.02 0-.04 0-.061.008-.02 0-.04.008-.057.012-.065.02-.122.053-.182.077-1.703.714-3.312 1.602-4.865 2.59-.09.058-.187.102-.223.212.373 2.355.547 4.723.567 7.106.033 3.41-.219 6.799-.685 10.176a91 91 0 0 1-1.386 7.569 101 101 0 0 1-1.69 6.458c-1.529.016-3.062.065-4.59.113-2.035.07-4.07.163-6.101.292a199.49 199.49 0 0 0-12.345 1.099 114.775 114.775 0 0 0-3.803 8.757l.094-.013c2.704-.38 5.42-.697 8.136-.969.779-.077 1.557-.17 2.34-.239 1.93-.162 3.863-.271 5.797-.393a213 213 0 0 1 7.552-.337h.094a243 243 0 0 1 8.06-.089c1.223.004 2.452.017 3.676.037 1.39.024 2.777.077 4.168.126h.036c1.33.048 2.66.097 3.99.162 1.02.048 2.042.121 3.064.198l.657.049c1.532.11 3.06.223 4.593.34.377.029.75.081 1.127.118 2.027.178 4.05.405 6.069.665.904.113 1.804.235 2.708.357 1.901.263 3.799.58 5.688.908a112 112 0 0 1 10.163 2.27 72 72 0 0 1 6.069 1.95 38 38 0 0 1 5.003 2.274c1.11.608 2.164 1.29 3.125 2.117.872.75 1.634 1.593 2.141 2.647.202.417.296.867.425 1.305q.01-1.307.017-2.615V74.18c0-.47.016-.945-.008-1.411z"/><path fill="#404a5a" d="M83.814 10.916c-.312-.102-.633-.175-.933-.317q.001-.06.008-.121.56.167 1.054.482-.067-.022-.133-.044zM82.723 10.535s.028.012.037.024h-.009c-.032.02-.052.004-.073-.024.017-.004.029-.008.045 0M45.033 34.117s-.008.032-.02.044l-.008.009a.05.05 0 0 1-.033.012v-.025s.024-.024.037-.032c.008 0 .016-.008.024-.008M46.703 31.989s-.028.028-.044.036a.3.3 0 0 1-.07.028v-.04q-.001-.019.005-.033.011-.031.028-.056c.012-.017.033-.029.049-.045l.06-.037a.2.2 0 0 1 0 .078c0 .02-.012.032-.02.048 0 .004-.008.012-.008.016z"/><path fill="#215cb5" d="M47.34 31.133s-.009 0-.009.004H47.3c.02-.024.04-.053.06-.077v.02q0 .028-.023.045zM47.668 30.635c0-.02.016-.037.032-.045q.013-.001.025-.008c0 .012-.004.016-.008.024 0 .008 0 .016-.008.024 0 .005-.009.009-.013.013l-.028.012z"/><path fill="#fec35e" d="M76.448 7.668c.077-.032.125 0 .17.061-.07.016-.142.033-.17-.057z"/><path fill="#fdbf41" d="M76.444 7.668h.004l-.004.005z"/><path fill="#404a5a" d="M57.236 20.426q.034-.029.068-.064v.016c0 .016-.008.024-.016.036h-.004s-.024.012-.048.012M57.71 19.948a.14.14 0 0 1 .073-.02q0 .053-.025.065c-.024.016-.069.004-.1.008a.2.2 0 0 1 .052-.053M58.014 19.746s-.008.032-.02.044l-.013.008a.1.1 0 0 1-.032.008l.065-.077v.02zM62.031 16.559l-.012.024q-.017.017-.052.016c.02-.024.044-.044.069-.069v.033zM61.958 16.604v.016c0 .016-.008.024-.016.028s-.016.004-.032 0c-.004 0-.012 0-.016-.008l.069-.037z"/><path fill="#f1ece2" d="M82.861 10.458c-2.003-.892-4.01-1.78-6.012-2.676-.081-.036-.162-.008-.235-.053-.07.017-.142.033-.17-.056-.082.036-.159 0-.236-.029-1.755-.527-3.551-.689-5.38-.596-2.42.126-4.739.718-6.992 1.59a31 31 0 0 0-3.191 1.439 37 37 0 0 0-.787.413 44 44 0 0 0-3.976 2.47q-.403.278-.8.563l-.157.113a54 54 0 0 0-1.861 1.419 65 65 0 0 0-4.403 3.851c-3.928 3.75-7.419 7.89-10.613 12.276-.081.113-.162.231-.243.345 0 0-.008.028-.017.036q-.012.011-.036.016l-.86 1.224a102 102 0 0 0-2.708 4.042q-.509.79-1 1.594c-.293.478-.585.952-.872 1.43q-.609 1.016-1.204 2.048c-.2.344-.394.685-.588 1.034-.02.04-.049.077-.073.117 0 .045-.017.081-.033.118a1 1 0 0 0-.044.077q-.273.488-.54.98a130 130 0 0 0-2.752 5.307 137 137 0 0 0-6.608 16.022 140 140 0 0 0-1.492 4.747q-.293.98-.568 1.966l-.012.05a92 92 0 0 0-.806 3.1q-.35 1.4-.661 2.81c-.179.802-.34 1.61-.503 2.416l-.11.576c-.016.077-.028.154-.044.23q-.008.044-.016.09-.045.229-.09.458a102.691 102.691 0 0 0-1.074 7.484q-.04.413-.08.827c0 .02-.005.04-.005.06-.02.211-.032.361-.049.511a87 87 0 0 0-.146 2.06q-.06 1.033-.093 2.067.002.135-.008.268a65 65 0 0 0-.008 3.969c.04 1.248.11 2.493.227 3.738a46 46 0 0 0 .835 5.513c.43 2.011 1.01 3.981 1.804 5.887.057.133.11.263.17.397l.175.393q.208.462.434.912.376.754.802 1.472a18.8 18.8 0 0 0 2.781 3.636q.427.437.884.831.857.75 1.828 1.367c.122.077.264.121.353.239a.3.3 0 0 1 .033.056c.06-.012.105 0 .121.065.252.061.454.231.685.333l3.694 1.642c.7.312 1.406.616 2.112.924l.089-.081c-.227-.142-.462-.276-.681-.426a14 14 0 0 1-.67-.494c-1.836-1.427-3.275-3.207-4.454-5.222-.718-1.224-1.302-2.509-1.805-3.831l-.036-.093c-.673-1.788-1.163-3.629-1.532-5.502a50 50 0 0 1-.495-3.024c-.008-.073-.02-.142-.028-.215a62 62 0 0 1-.175-1.5 45 45 0 0 1-.174-2.213q-.014-.274-.028-.547c0-.045-.005-.094-.009-.138-.036-1.022-.072-2.044-.069-3.065v-.166c0-.183 0-.365.009-.548.024-.802.048-1.601.08-2.4.017-.401.037-.798.062-1.2q.035-.599.077-1.2a90 90 0 0 1 .616-5.695q.116-.846.251-1.687.104-.663.219-1.326c.085-.502.178-1 .272-1.504A104 104 0 0 1 24 80.543a109 109 0 0 1 .993-4.009q.068-.243.142-.486.075-.244.138-.487c.085-.34.154-.681.275-1.013.029-.037.073-.073.078-.114.097-.803.385-1.553.632-2.307q.164-.506.32-1.017.218-.712.442-1.423.181-.586.381-1.164c.053-.15.101-.304.154-.458q.104-.291.207-.584c.292-.81.576-1.625.872-2.436.121-.332.247-.669.373-1.001a137 137 0 0 1 1.739-4.346c.11-.256.215-.507.32-.762q.39-.9.787-1.8.31-.703.632-1.407c.162-.361.328-.714.495-1.075.445-.956.9-1.905 1.374-2.85.08-.166.178-.324.271-.482a6 6 0 0 0 .268-.49c1.378-2.923 2.996-5.717 4.662-8.481.15-.248.296-.495.446-.742.349-.576.681-1.16 1.074-1.699.248-.336.475-.677.702-1.025.227-.345.45-.694.68-1.034.471-.681.909-1.387 1.375-2.072q.091-.134.182-.267c.313-.45.637-.892.953-1.338v-.025s.024-.024.037-.032c.008 0 .016-.008.024-.008l1.374-1.853c.02-.028.045-.053.065-.077q.017-.019.028-.032c.029-.033.057-.061.086-.093v-.041q-.001-.019.004-.032a.2.2 0 0 1 .028-.057c.012-.017.033-.029.049-.045l.06-.036a.2.2 0 0 0 .029-.037q.268-.335.54-.669.03-.038.06-.077c0-.016.008-.028.016-.044a.2.2 0 0 1 .02-.04.5.5 0 0 1 .057-.07c0-.004.008-.008.012-.012.077-.073.175-.134.195-.243v-.02c0-.02.016-.037.032-.045a.1.1 0 0 0 .025-.008 1 1 0 0 0 .141-.13q.017-.019.029-.032.047-.056.09-.118.054-.08.109-.166c.028-.04.056-.085.085-.126q.03-.043.06-.08c.138-.171.28-.341.418-.508a91 91 0 0 1 3.004-3.482 84 84 0 0 1 2.485-2.61c.146-.15.296-.3.442-.447.276-.275.564-.53.847-.794.114-.106.227-.207.337-.317.024-.02.044-.044.069-.064.352-.34.713-.681 1.07-1.018q.012-.01.024-.02c.094-.085.199-.162.296-.24.025-.02.045-.04.07-.064l.02-.02c.109-.114.223-.223.332-.337a.2.2 0 0 1 .053-.053.14.14 0 0 1 .073-.02.2.2 0 0 0 .085-.037 1 1 0 0 0 .048-.044c.012-.012.02-.028.033-.045l.065-.077a39 39 0 0 1 1.005-.867q.426-.359.864-.71a38 38 0 0 1 2.01-1.508l.07-.036h.003a.4.4 0 0 1 .07-.073 36.304 36.304 0 0 1 1.415-1.001c.157-.106.32-.216.481-.317q.244-.158.487-.312.734-.463 1.488-.896c.547-.316 1.107-.62 1.666-.912 1.687-.868 3.43-1.601 5.254-2.145q.209-.06.418-.121c.973-.272 1.95-.479 2.943-.612a18.4 18.4 0 0 1 3.434-.15q.649.037 1.293.13.892.12 1.771.344c.017-.004.029-.008.045 0 .016 0 .028.012.037.024l.04.012a1 1 0 0 1 .081.029q.001-.06.008-.122a.1.1 0 0 0-.028-.02z"/><path fill="#fdbf41" d="M76.448 7.668c-.029-.125-.15-.137-.24-.178-1.727-.766-3.454-1.536-5.189-2.294-.462-.203-.908-.438-1.386-.6-.053.032-.11.028-.166.008-1.188-.39-2.42-.584-3.661-.661-1.14-.07-2.283 0-3.414.15-.932.125-1.848.32-2.757.563a27.8 27.8 0 0 0-5.091 1.926c-.629.312-1.237.665-1.857.993-.207.11-.422.207-.62.325-1.776 1.058-3.499 2.197-5.133 3.466-.41.316-.827.624-1.208.969-.247.223-.486.45-.754.644a2 2 0 0 1-.162.11q-.068.06-.134.113v.008a.3.3 0 0 1-.073.13.13.13 0 0 1-.065.028h-.048l-.04-.012-.033.025c-.142.1-.22.275-.349.377a1 1 0 0 1-.06.04c-.341.178-.548.499-.852.718-.292.21-.535.49-.803.738-1.325 1.22-2.578 2.513-3.819 3.818-.38.402-.721.831-1.086 1.249-.211.24-.446.45-.653.685-.563.645-1.11 1.306-1.666 1.954q-.62.724-1.172 1.496c-.292.41-.64.774-.952 1.168-.945 1.212-1.84 2.46-2.737 3.705-.884 1.228-1.694 2.505-2.534 3.766-.754 1.131-1.447 2.303-2.164 3.462-.264.43-.5.876-.767 1.306a35 35 0 0 0-1.285 2.266c-.251.3-.401.665-.592 1.001a33 33 0 0 0-1.123 2.153c-.11.235-.267.434-.38.669a98 98 0 0 1-.982 1.954c-.839 1.63-1.577 3.304-2.343 4.97-.831 1.8-1.569 3.645-2.299 5.49-.494 1.252-.993 2.505-1.386 3.794-.065.21-.187.401-.26.608-.38 1.11-.762 2.218-1.123 3.332-.336 1.026-.652 2.06-.956 3.094q-.438 1.494-.84 2.995a104 104 0 0 0-1.41 5.863q-.16.784-.312 1.569a100 100 0 0 0-.908 5.371q-.354 2.566-.584 5.145l-.037.474q-.11 1.41-.166 2.834a96 96 0 0 0-.06 3.247c0 .515.052 1.034.048 1.553-.008.79.06 1.577.105 2.363.016.288.029.58.057.872.004.048.012.101.016.15.093.758.154 1.52.26 2.274.101.734.202 1.468.336 2.193.195 1.014.377 2.027.69 3.012.097.309.15.633.239.949.186.689.409 1.37.652 2.039.353.961.758 1.902 1.196 2.826a20.2 20.2 0 0 0 2.502 3.965 15.7 15.7 0 0 0 3.218 3.048q.075.054.154.102l.268.17q.074.048.154.097a8 8 0 0 1 .653.45c0 .008.008.016.012.025.028.04.085.044.13.064l6.32 2.798c.085.036.166.093.267.069l-.032-.057c-.09-.118-.231-.162-.353-.239a15 15 0 0 1-1.828-1.367c-.304-.263-.6-.543-.884-.831a19 19 0 0 1-2.78-3.636 23 23 0 0 1-.804-1.472 24 24 0 0 1-.608-1.309q-.084-.2-.17-.397c-.794-1.906-1.37-3.876-1.804-5.887a44 44 0 0 1-.349-1.8 50 50 0 0 1-.486-3.713 60 60 0 0 1-.227-3.738 65 65 0 0 1 .008-3.969c.004-.09.004-.178.008-.268q.037-1.033.093-2.067.061-1.03.146-2.06c.012-.15.029-.3.049-.51 0-.02.004-.04.004-.061q.034-.414.081-.827c.126-1.233.284-2.461.458-3.685q.276-1.908.616-3.799.045-.229.09-.458.008-.041.016-.09c.016-.076.028-.153.044-.23l.11-.576q.236-1.211.503-2.416c.206-.94.43-1.877.66-2.81q.383-1.556.807-3.1c0-.017.008-.033.012-.05q.275-.985.568-1.966c.474-1.589.965-3.174 1.492-4.747a135 135 0 0 1 2.708-7.281 135 135 0 0 1 4.69-10.33c.633-1.248 1.29-2.489 1.962-3.717q.27-.493.54-.981a1 1 0 0 0 .044-.077.2.2 0 0 0 .033-.118c.024-.04.052-.08.073-.117q.29-.518.587-1.034c.398-.685.795-1.366 1.204-2.047q.433-.72.872-1.431a127.662 127.662 0 0 1 2.299-3.58c.462-.693.932-1.374 1.41-2.056.284-.409.572-.814.86-1.224v-.024a.03.03 0 0 1 .008-.016q.014-.018.04-.017c.082-.113.159-.23.244-.344 3.194-4.387 6.685-8.522 10.613-12.276a64 64 0 0 1 4.403-3.851 54 54 0 0 1 1.86-1.419l.159-.113q.395-.286.799-.564a44 44 0 0 1 3.977-2.469q.39-.213.786-.413c.199-.102.393-.203.592-.3q.255-.128.51-.248c.686-.32 1.379-.62 2.089-.892 2.254-.867 4.572-1.46 6.993-1.589 1.824-.097 3.62.065 5.38.596.076.024.153.061.234.029z"/><path fill="#c18b00" d="M37.764 31.538s.024-.016.04-.016a.05.05 0 0 1-.016.037q-.012.011-.036.016v-.024a.03.03 0 0 1 .008-.017zM44.486 13.243a.13.13 0 0 1 .093-.049c.024 0 .057 0 .09.008v.008a.3.3 0 0 1-.074.13.13.13 0 0 1-.065.028h-.048l-.041-.012a.2.2 0 0 1 .049-.113z"/><path fill="#f10" d="M69.252 4.43c-1.57-.702-3.142-1.383-4.703-2.092-1.788-.815-3.645-1.318-5.61-1.411-.495 0-.994 0-1.489.004h-.58c-.988.053-1.965.198-2.934.405-2.858.608-5.518 1.727-8.068 3.13-2.566 1.41-4.95 3.097-7.216 4.946-.288.235-.6.45-.851.734a.1.1 0 0 0-.053.044v.024h-.024q-.098.078-.195.155c-2.51 2.148-4.84 4.48-7.046 6.94-2.619 2.927-5.035 6.016-7.293 9.227-3.365 4.784-6.344 9.803-9 15.012a130 130 0 0 0-4.889 10.76c-1.528 3.818-2.931 7.686-4.058 11.646-.126.438-.28.872-.405 1.31a113 113 0 0 0-2.352 9.888 96 96 0 0 0-1.24 8.525c-.207 2.076-.349 4.156-.34 6.243q0 1.424.007 2.846c.012.13.016.26.02.39.005.202 0 .4-.008.603.008 1.156.106 2.303.215 3.454.183 1.878.466 3.734.884 5.571.519 2.302 1.228 4.536 2.238 6.673 1.082 2.286 2.457 4.366 4.313 6.105 1.083 1.014 2.275 1.869 3.617 2.497 1.191.56 2.4 1.083 3.608 1.614.827.365 1.645.758 2.489 1.082-.049-.036-.098-.077-.146-.113q-.001.001-.008-.004a8 8 0 0 0-.499-.333c-.053-.032-.101-.065-.154-.097-.09-.057-.178-.11-.268-.17-.052-.033-.1-.069-.154-.102a16 16 0 0 1-3.218-3.048 20.2 20.2 0 0 1-2.502-3.965 31 31 0 0 1-1.196-2.826 25 25 0 0 1-.652-2.039c-.086-.312-.142-.636-.24-.949-.312-.985-.498-1.998-.689-3.012-.138-.725-.235-1.459-.336-2.193-.106-.754-.17-1.516-.26-2.274-.004-.049-.012-.102-.016-.15-.028-.288-.04-.58-.057-.872-.04-.786-.11-1.573-.105-2.363 0-.515-.053-1.034-.049-1.553.008-1.082.02-2.165.061-3.247a74 74 0 0 1 .203-3.308q.23-2.58.583-5.145c.252-1.8.56-3.592.909-5.371q.151-.784.312-1.57c.405-1.97.888-3.92 1.41-5.862.268-1 .548-2.002.84-2.995.304-1.038.62-2.068.957-3.094.364-1.114.745-2.225 1.122-3.332.07-.21.195-.401.26-.608.397-1.29.892-2.542 1.386-3.795.73-1.844 1.468-3.685 2.299-5.489.766-1.662 1.504-3.34 2.343-4.97q.5-.974.981-1.954c.114-.231.276-.434.381-.669.345-.734.726-1.447 1.123-2.153.19-.336.34-.7.592-1 .402-.771.827-1.53 1.285-2.267.268-.426.503-.876.767-1.306.713-1.159 1.406-2.327 2.164-3.462.84-1.26 1.65-2.537 2.534-3.766.896-1.244 1.792-2.493 2.737-3.705.308-.397.656-.758.952-1.168q.553-.772 1.172-1.496c.555-.652 1.103-1.313 1.666-1.954.207-.235.442-.446.653-.685.365-.413.705-.847 1.086-1.248 1.24-1.306 2.493-2.6 3.819-3.82.268-.247.51-.526.803-.737.304-.22.507-.54.851-.718.02-.012.045-.024.06-.04.13-.102.208-.276.35-.377l.032-.025a.2.2 0 0 1 .049-.113.13.13 0 0 1 .093-.049c.024 0 .057 0 .09.008.044-.036.088-.077.133-.113.06-.04.11-.073.162-.11.268-.194.507-.417.754-.644.381-.349.803-.653 1.208-.97 1.634-1.268 3.357-2.407 5.133-3.465.202-.118.413-.215.62-.325.62-.332 1.228-.685 1.857-.993a28 28 0 0 1 5.091-1.926 23 23 0 0 1 2.757-.563 17.5 17.5 0 0 1 3.414-.15c1.244.077 2.472.272 3.66.66.061.021.114.025.167-.007-.102-.11-.256-.11-.381-.167z"/><path fill="#f10" d="M44.53 12.789s-.02-.016-.028-.02q.017.01.028.02"/><path fill="#fec35e" d="M58.938.922H57.45c-.194.008-.389.008-.58.008-.007-.024-.02-.048-.028-.073.706 0 1.415 0 2.12-.008z"/><path fill="#c18b00" d="M37.736 10.218h-.012v-.024h.028v.028h-.012z"/><path fill="url(#b)" d="M123.75 102.034c.202-.158.202-.175 0-.333a14 14 0 0 0-1.488-1.017c-1.719-1.042-3.555-1.837-5.437-2.526-.429-.158-.847-.349-1.305-.43-.126-.141-.312-.154-.474-.206-1.756-.584-3.543-1.062-5.335-1.52a1 1 0 0 1-.426-.118q-1.26-.276-2.513-.552a102 102 0 0 0-4.679-.891 200 200 0 0 0-3.486-.552c-.908-.133-1.817-.271-2.733-.336-.15-.025-.3-.053-.454-.073-3.206-.393-6.417-.69-9.64-.912a219 219 0 0 0-6.316-.337q-4.13-.156-8.266-.154-5.127 0-10.24.252c-3.941.19-7.874.49-11.794.928-.64.073-1.29.113-1.922.251-.13-.036-.255 0-.385.012-2.793.345-5.574.77-8.339 1.294-1.633.308-3.26.648-4.873 1.033l-.032.053s-.418 6.008.507 11.874q2.39.565 4.8 1.014c1.435.267 2.874.523 4.321.73 2.027.291 4.058.587 6.097.798 1.983.207 3.961.422 5.947.568 1.176.085 2.348.186 3.524.255 1.739.101 3.482.187 5.221.247 1.59.057 3.178.102 4.768.122q3.814.047 7.63-.032 3.673-.078 7.341-.284 4.373-.243 8.732-.693c4.431-.459 8.838-1.075 13.204-1.946 3.815-.762 7.585-1.695 11.242-3.041 1.593-.584 3.154-1.253 4.638-2.08a16.4 16.4 0 0 0 2.165-1.402z" opacity=".48"/></g><path fill="#111827" d="m182.92 47.908 19.316 49.344 19.195-49.344h11.879l-25.969 65.383h-10.954l-26.109-65.383zM258.233 100.648c3.658 2.352 8.1 3.779 12.783 3.779 13.185 0 23.496-10.572 23.496-23.878h11.216c0 19.054-15.396 34.068-34.973 34.068-19.316 0-34.33-14.873-34.33-33.666 0-19.195 15.396-34.33 34.973-34.33 9.668 0 20.622 3.658 27.798 13.185zm-7.055-7.316 32.621-32.762c-3.778-2.472-8.1-3.779-12.783-3.779-13.044 0-23.355 10.573-23.355 23.758 0 4.703 1.306 9.125 3.517 12.783M318.271 18.02h12.26v95.291h-12.26zM344.379 80.549c0-19.316 14.874-33.928 34.592-33.928 19.838 0 34.711 14.612 34.711 33.928 0 19.456-14.873 34.068-34.711 34.068-19.718 0-34.592-14.632-34.592-34.068m34.592 23.094c13.044 0 22.833-9.93 22.833-23.094 0-13.045-9.789-23.095-22.833-23.095-12.924 0-22.713 10.05-22.713 23.095 0 13.185 9.789 23.094 22.713 23.094M458.585 113.311c-21.145 0-35.235-13.044-35.235-32.762 0-19.577 14.09-32.621 35.235-32.621h10.954V18.04H481.8v95.291h-23.215zm0-10.974h10.954V58.741h-10.954c-13.829 0-22.974 8.743-22.974 21.788 0 13.205 9.125 21.808 22.974 21.808M499.829 47.907h12.261V66.84l20.24-20.24 7.698 7.697-27.938 27.798v31.194h-12.261zM540.812 80.549c0-19.316 14.873-33.928 34.591-33.928 19.838 0 34.712 14.612 34.712 33.928 0 19.456-14.874 34.068-34.712 34.068-19.718 0-34.591-14.632-34.591-34.068m34.591 23.094c13.045 0 22.833-9.93 22.833-23.094 0-13.045-9.788-23.095-22.833-23.095-12.924 0-22.712 10.05-22.712 23.095 0 13.185 9.788 23.094 22.712 23.094M623.943 47.907h11.999v7.839c10.573-7.96 15.135-9.146 21.145-9.146 7.839 0 14.612 4.04 17.888 10.573 12-9.266 16.844-10.573 23.095-10.573 11.215 0 20.099 8.1 20.099 20.361v46.329h-12.26V68.268c0-6.01-4.302-10.452-9.789-10.452-4.181 0-7.316.904-18.934 10.572v44.902h-12.26V68.268c0-6.01-4.302-10.452-9.789-10.452-4.18 0-7.316.904-18.933 10.572v44.902h-12.261zM753.163 100.648c3.658 2.352 8.1 3.779 12.783 3.779 13.185 0 23.496-10.572 23.496-23.878h11.216c0 19.054-15.397 34.068-34.973 34.068-19.316 0-34.33-14.873-34.33-33.666 0-19.195 15.396-34.33 34.973-34.33 9.668 0 20.622 3.658 27.797 13.185zm-7.035-7.316 32.621-32.762c-3.778-2.472-8.1-3.779-12.783-3.779-13.045 0-23.356 10.573-23.356 23.758-.02 4.703 1.287 9.125 3.518 12.783"/><defs><linearGradient id="b" x1="78.909" x2="78.346" y1="94.311" y2="108.853" gradientUnits="userSpaceOnUse"><stop offset=".16" stop-color="#191919"/><stop offset=".97" stop-color="#191919" stop-opacity="0"/></linearGradient><clipPath id="a"><path fill="#fff" d="M.658.643H135.25v131.35H.658z"/></clipPath></defs></svg>