<svg xmlns="http://www.w3.org/2000/svg" width="64" height="64" fill="none" viewBox="0 0 64 64"><circle cx="32" cy="32" r="32" fill="url(#a)"/><path fill="#fff" fill-rule="evenodd" d="M15.833 24.918s-4.706-7.546.548-10.18c3.334-1.451 6.71-.41 8.466.49q.294.134.527.242c1.177.547 1.33.618 2.972.275 4.06-.919 8.259-.441 11.278.812 3.79-3.612 12.296-3.781 7.82 5.406 0 0 .84.94 1.369 1.707.14.313-.052.598-.261.907-.24.354-.503.74-.308 1.24.29.745.748 1.474 1.273 2.312.662 1.055 1.432 2.284 2.112 3.933 1.221 2.957-.497 7.532-2.147 10.187-2.826 4.347-7.507 2.615-11.346.742a1.046 1.046 0 0 0-1.428.533l-2.044 4.979c-.324.79-1.161 1.251-1.988 1.017-5.82-1.65-15.711-7.475-20.816-19.936-.376-.918.119-1.954 1.003-2.414.982-.51 2.186-1.275 2.97-2.252m33.128-3.163c.279.335.632.777.918 1.192l.065.095.048.105c.265.589.157 1.134 0 1.507a4 4 0 0 1-.381.657l-.031.045-.08.125c.245.583.616 1.176 1.119 1.979l.204.327c.624 1 1.35 2.211 2.002 3.789.766 1.858.567 4.067.057 6.015-.52 1.984-1.417 3.908-2.3 5.331l-.008.011-.007.011c-.82 1.262-1.818 2.143-2.96 2.677-1.134.532-2.33.683-3.498.61-2.192-.135-4.43-1.07-6.306-1.975l-1.943 4.73c-.543 1.325-2.007 2.2-3.538 1.766-6.146-1.743-16.384-7.808-21.658-20.686-.674-1.644.244-3.326 1.6-4.031.68-.354 1.403-.803 1.983-1.318a18 18 0 0 1-.233-.468c-.383-.798-.847-1.914-1.135-3.143-.285-1.215-.422-2.641-.046-4.005.392-1.419 1.32-2.681 2.966-3.507l.031-.015.032-.014c3.824-1.666 7.62-.472 9.548.509.22.1.388.177.531.244.158.074.287.134.425.194.232.101.338.133.412.147.136.027.337.033 1.292-.166 3.99-.9 8.112-.542 11.294.59.993-.78 2.16-1.37 3.334-1.723 1.42-.429 2.983-.552 4.333-.12 1.43.46 2.561 1.538 2.882 3.262q.4 2.154-.952 5.253" clip-rule="evenodd"/><path fill="#fff" d="M41.005 17.065c.808-.723 3.402-2.028 5.375-1.339-2.508.117-3.137 2.543-5.375 1.339M15.952 29.966c-.394-1.33-1.387-2.683-3.054-1.334 3.406 8.836 9.44 13.546 9.44 13.546-3.213-3.345-5.306-9.033-6.386-12.212M30.052 36.038c1.662 1.447 4.787 1.544 9.491 1.358-2.139 1.182-5.625 1.143-5.625 1.143 1.575 1.058 4.808 2.29 8.139 2.466 3.33.175 5.776-.704 5.77-3.69 0-3.115-5.458-6.575-17.775-1.277M50.844 34.125c-.666.462-1.418 1.635-1.649 3.075-1 5.861 2.124.063 1.648-3.075M38.712 41.601c2.586 1.363 7.74 3.676 9.787-.203l-.154-.158a.265.265 0 0 0-.3-.054c-2.195 1.008-5.509 1.357-9.333.415M40.713 26.297c.606 1.66 1.36 3.576 2.025 4.813.37.69 1.086 1.084 1.868 1.173 3.395.39 4.46.077 5.129-.225.302-.137.466-.475.281-.749 0 0-2.634-4.353-3.937-6.05-.714-1.037-1.561-2.108.719-2.068-6.32-6.489-12.107-7.53-18.834-6.065-1.308.255-2.022.068-3.376-.607-1.445-.725-3.501-1.547-6.157-1.082 1.89 1.225 3.456 3.15 4.55 4.831 1.374 2.11 3.704 3.659 6.228 3.472l6.595-.486c2.058-.152 4.206 1.118 4.909 3.043"/><path fill="#fff" d="m31.79 24.843-5.001.298c-9.637.712-4.812 11.413 6.935 8.215 6.366-1.733 7.387-2.88 6.038-5.964a1.14 1.14 0 0 0-1.043-.562c-3.145.12-4.928-.633-5.617-1.334-.352-.357-.81-.683-1.312-.653"/><defs><linearGradient id="a" x1="32" x2="32" y1="0" y2="64" gradientUnits="userSpaceOnUse"><stop stop-color="#ff9803"/><stop offset="1" stop-color="#ff6d3a"/></linearGradient></defs></svg>