<svg xmlns="http://www.w3.org/2000/svg" width="401" height="401" fill="none" viewBox="0 0 401 401"><path fill="#f10" d="M224.015 306.224c-67.501.859-120.031-8.482-159.014-21.119-7.644-2.596-24.325-10.193-29.903-19.806-3.086-5.32-3.123-18.974-2.05-33.027.302.977.655 1.827 1.062 2.53 5.567 9.616 22.35 17.188 30.046 19.772 39.255 12.572 92.201 21.814 160.317 20.809 75.74-1.119 122.231-10.045 149.536-20.623l-.048.732c-1.133 17.475-2.234 34.434-47.007 42.398-25.909 4.608-59.578 7.782-102.939 8.334"/><path fill="#fdbf41" d="M224.015 330.859c-67.501.859-120.031-8.482-159.014-21.119-7.644-2.597-24.325-10.193-29.903-19.806-3.086-5.32-3.123-18.974-2.05-33.027.302.977.655 1.826 1.062 2.53 5.567 9.615 22.35 17.187 30.046 19.771 39.255 12.572 92.201 21.815 160.317 20.809 75.74-1.118 122.231-10.044 149.536-20.622l-.048.731c-1.133 17.475-2.234 34.435-47.007 42.398-25.909 4.608-59.578 7.783-102.939 8.335"/><path fill="#f1ece2" d="M390.082 305.733c.627 15.806-34.907 47.887-182.068 49.761-67.501.859-120.03-8.483-159.014-21.119-7.644-2.597-24.325-10.193-29.903-19.806-3.086-5.32-3.123-18.974-2.05-33.027.302.977.654 1.826 1.062 2.529 5.566 9.616 22.35 17.188 30.046 19.772 39.255 12.572 92.2 21.815 160.316 20.809 117.285-1.732 164.433-22.184 178.81-38.505z"/><path fill="#f10" d="M213.204 17.234c27.152 9.713 67.346 63.411 10.909 200.502-25.887 62.881-63.067 105.298-100.366 133.062-7.515 5.367-27.2 15.822-45.819 14.712-7.288-.434-21.054-4.994-36.797-11.214 3.65.962 6.757 1.56 9.16 1.705 18.619 1.121 38.304-9.444 45.82-14.867 37.298-28.057 74.478-70.922 100.365-134.467 46.596-114.38 27.323-171.314 3.903-193.217z"/><path fill="#fdbf41" d="M236.478 18.794c27.152 9.993 67.347 65.238 10.909 206.277-25.887 64.693-63.067 108.332-100.365 136.896-7.516 5.521-27.201 16.277-45.82 15.135-7.288-.447-21.055-5.137-36.799-11.537 3.651.99 6.76 1.605 9.162 1.754 18.62 1.154 38.304-9.716 45.82-15.295 37.298-28.865 74.478-72.965 100.365-138.341 46.596-117.673 27.323-176.248 3.904-198.781z"/><path fill="#f1ece2" d="M256.843 31.836c27.152 9.993 67.347 65.238 10.909 206.277-25.887 64.693-63.067 108.332-100.365 136.896-7.516 5.521-27.201 16.277-45.82 15.135-7.288-.447-21.055-5.138-36.799-11.537 3.651.989 6.76 1.605 9.162 1.754 18.619 1.154 38.304-9.716 45.82-15.295 37.298-28.866 74.478-72.965 100.365-138.341 46.596-117.673 27.323-176.248 3.904-198.782z"/><path fill="#007fff" d="M286.421 244.446C342.859 98.184 302.664 40.893 275.512 30.53l-12.824-4.036q.369.367.736.747c-19.694-3.224-46.676 10.149-72.127 35.75-3.637 3.623 12.301-2.343 17.455-7.478 12.364-10.144 30.861-15.221 48.245-7.929 39.227 16.454 40.04 103.112 1.817 193.556S162.17 390.115 122.943 373.661c-5.244-2.2-10.728-6.315-15.284-9.481-10.527-9.399-15.273-21.952-15.273-54.343V349.8c-2.762-4.107-5.092-8.711-6.907-13.878-.367-8.695-6.184-23.186-7.977-7.97 1.353 33.198 15.75 52.494 35.187 64.014l-.09-.006c-.728-.047-1.29-.063-1.775-.077-1.857-.053-2.608-.075-7.381-1.657 15.241 6.684 23.584 9.794 32.728 10.144 21.418.821 46.304-11.664 53.82-17.389 37.298-29.622 70.543-71.447 96.43-138.535"/><path fill="#f10" d="M208.806 170.329c67.5-.859 120.03 8.483 159.014 21.119 7.643 2.597 24.325 10.193 29.902 19.806 3.087 5.32 3.123 18.975 2.051 33.027-.302-.977-.655-1.826-1.062-2.529-5.567-9.616-22.351-17.188-30.047-19.772-39.255-12.572-92.2-21.815-160.316-20.809-75.741 1.118-122.232 10.044-149.536 20.623l.047-.732c1.134-17.475 2.234-34.435 47.008-42.398 25.908-4.608 59.578-7.783 102.939-8.335"/><path fill="#fdbf41" d="M208.806 198.114c67.5-.859 120.03 8.483 159.014 21.119 7.643 2.597 24.325 10.193 29.902 19.806 3.087 5.32 3.123 18.974 2.051 33.027-.302-.977-.655-1.826-1.062-2.529-5.567-9.616-22.351-17.188-30.047-19.772-39.255-12.572-92.2-21.815-160.316-20.809C132.607 230.074 86.116 239 58.812 249.579l.047-.732c1.134-17.475 2.234-34.435 47.008-42.398 25.908-4.608 59.578-7.783 102.939-8.335"/><path fill="url(#a)" d="M389.741 314.927c.662-.53.662-.585 0-1.115-1.536-1.264-3.179-2.365-4.861-3.412-5.615-3.493-11.615-6.157-17.76-8.468-1.404-.53-2.768-1.169-4.265-1.441-.41-.476-1.02-.517-1.549-.693-5.735-1.958-11.576-3.562-17.43-5.098-.49-.04-.967-.149-1.391-.394-2.741-.612-5.483-1.237-8.211-1.848-5.073-1.129-10.172-2.107-15.284-2.991a651 651 0 0 0-11.39-1.849c-2.967-.448-5.934-.91-8.927-1.128-.49-.081-.98-.177-1.483-.245-10.477-1.318-20.966-2.31-31.495-3.058a697 697 0 0 0-20.635-1.128 687 687 0 0 0-27.005-.517c-11.165 0-22.317.286-33.456.843-12.873.639-25.72 1.645-38.528 3.113-2.092.245-4.211.38-6.277.843-.424-.123-.835 0-1.259.04-9.125 1.156-18.211 2.583-27.243 4.337a332 332 0 0 0-15.92 3.466l-.106.177s-1.364 20.144 1.656 39.814a329 329 0 0 0 15.681 3.398c4.689.897 9.39 1.753 14.118 2.447 6.623.978 13.258 1.971 19.92 2.677 6.476.694 12.94 1.414 19.429 1.903 3.841.286 7.669.626 11.51.857 5.682.34 11.377.625 17.059.829 5.191.19 10.383.34 15.575.408 8.304.108 16.622.068 24.926-.109a671 671 0 0 0 23.985-.952 589 589 0 0 0 28.529-2.324c14.476-1.536 28.872-3.602 43.137-6.525 12.462-2.555 24.78-5.682 36.726-10.194 5.205-1.958 10.304-4.201 15.152-6.974 2.463-1.4 4.847-2.922 7.072-4.703z" opacity=".48"/><path fill="#f1ece2" d="M26.739 273.96c-.628-15.807 34.907-47.888 182.068-49.761 67.5-.86 120.03 8.482 159.014 21.119 7.643 2.596 24.325 10.192 29.902 19.805 3.087 5.32 3.123 18.975 2.051 33.027-.302-.977-.655-1.826-1.062-2.529-5.567-9.616-22.351-17.188-30.047-19.772-39.255-12.572-92.2-21.815-160.316-20.809-117.284 1.732-164.432 22.185-178.81 38.505z"/><path fill="#007fff" d="M26.739 302.943c-.628-15.807 34.907-47.888 182.068-49.761 67.5-.86 120.03 8.482 159.014 21.119 7.643 2.596 24.325 10.192 29.902 19.806 2.781 4.792 3.086 16.35 2.335 28.869-5.964-9.293-23.852-15.614-31.389-18.145-39.255-12.572-92.2-21.814-160.316-20.809C91.06 285.754 43.913 306.21 29.54 322.531z"/><path fill="#f10" d="M39.832 361.614c-27.152-10.071-67.346-65.75-10.909-207.896C54.81 88.518 91.99 44.536 129.289 15.748c7.515-5.564 27.2-16.405 45.819-15.254 10.526.65 34.565 10.222 58.555 21.02-2.468.255-4.851.518-7.125.768-8.248.909-15.074 1.66-19.43 1.396-18.618-1.13-38.303 9.515-45.819 14.979-37.298 28.267-74.478 71.452-100.365 135.473-46.885 115.949-27.081 173.305-3.468 195.069z"/><path fill="#fdbf41" d="M63.106 372.781c-27.152-10.18-67.347-66.463-10.91-210.153C78.085 96.719 115.265 52.26 152.563 23.16c7.516-5.625 27.201-16.583 45.819-15.42 8.128.508 24.312 6.392 42.309 14.072-6.72-2.254-12.311-3.687-16.126-3.927-18.619-1.172-38.304 9.865-45.819 15.53-37.299 29.309-74.479 74.086-100.366 140.467C21.942 318.6 63.441 373.453 90.593 383.707l23.273 7.97z"/><path fill="#f1ece2" d="M84.922 382.499c-27.152-10.289-67.346-67.177-10.909-212.41C99.9 103.472 137.08 58.536 174.379 29.123c7.515-5.686 27.2-16.762 45.819-15.586 8.412.531 25.455 6.884 44.206 15.045-6.34-2.024-11.617-3.303-15.265-3.538-18.618-1.201-38.154 8.75-45.669 14.556-37.299 30.038-74.478 75.929-100.365 143.962-48.19 126.644-14.793 188.734 9.304 209.564z"/><path fill="#007fff" d="M97.287 178.109c-56.438 146.262-16.243 203.552 10.909 213.915l12.823 4.036q-.367-.368-.735-.747c19.694 3.224 46.676-10.149 72.127-35.75 3.636-3.623-12.301 2.344-17.455 7.478-12.364 10.144-30.861 15.221-48.246 7.929-39.226-16.454-40.04-103.112-1.817-193.556s96.645-148.975 135.872-132.52c5.243 2.199 10.728 6.314 15.284 9.48 10.527 9.4 15.273 21.952 15.273 54.343V72.754c2.762 4.107 5.092 8.71 6.907 13.878.366 8.695 6.184 23.186 7.976 7.97-1.352-33.198-15.75-52.494-35.186-64.014l.09.006c.728.047 1.29.063 1.775.077 1.856.054 2.608.075 7.38 1.657-15.24-6.684-23.583-9.794-32.728-10.144-21.418-.821-46.304 11.664-53.819 17.39-37.299 29.62-70.543 71.446-96.43 138.535M220.561 345.816c113.827-3.262 161.312-23.248 176.931-39.526l1.487 13.639.712-.709c.467 1.55.634 5.052-.076 8.281-1.988 13.898-43.349 49.927-203.564 49.927-5.85 0-11.423-.067-16.728-.198 11.937-10.631 22.117-21.078 30.845-31.195q5.137-.069 10.393-.219"/><defs><linearGradient id="a" x1="253.508" x2="256.256" y1="274.297" y2="335.168" gradientUnits="userSpaceOnUse"><stop offset=".16" stop-color="#191919"/><stop offset=".97" stop-color="#191919" stop-opacity="0"/></linearGradient></defs></svg>