<svg xmlns="http://www.w3.org/2000/svg" aria-hidden="true" viewBox="0 0 843 248"><path d="M249.651 182.059a14.2 14.2 0 0 0-8.078 2.008 13.96 13.96 0 0 0-5.513 6.177h-.591v-23.241h-9.307v62.561h9.012v-7.308h.738a14.2 14.2 0 0 0 5.598 6.183 14.4 14.4 0 0 0 8.141 2.002c11.523 0 19.796-9.062 19.796-24.264s-8.273-24.118-19.796-24.118m-1.92 40.635c-7.978 0-12.41-6.724-12.41-16.663s4.285-16.372 12.41-16.372c8.42 0 12.557 7.017 12.557 16.372s-4.284 16.663-12.557 16.663M294.854 219.182h-.443l-11.966-36.396h-9.898l17.432 47.505-1.182 3.07c-2.364 6.285-5.614 6.724-10.784 5.408l-2.216 7.455a19.4 19.4 0 0 0 6.352 1.023c7.682 0 12.41-3.947 15.217-11.401l19.5-53.206h-9.898zM385.555 207.488c0 8.478-5.909 14.617-15.511 14.617s-15.512-6.139-15.512-14.617v-40.343h-9.602v41.22c0 13.155 9.898 22.51 25.114 22.51s25.114-9.355 25.114-22.51v-41.22h-9.603zM429.594 203.412l-7.534-1.754c-5.17-1.169-7.534-2.923-7.386-6.139 0-3.654 3.988-6.139 9.159-6.139 5.761 0 8.421 3.216 9.455 6.285l8.42-1.462c-1.92-7.308-7.682-12.132-17.875-12.132-10.784 0-18.319 5.555-18.319 13.887 0 6.723 4.137 11.109 13.001 13.009l7.977 1.754c4.58 1.023 6.648 3.069 6.648 5.993 0 3.654-3.989 6.431-10.046 6.431-5.466 0-9.011-2.338-10.193-7.016l-8.864 1.316c1.477 8.331 8.568 13.009 19.205 13.009 11.523 0 19.353-5.993 19.353-14.471 0-6.578-4.284-10.671-13.001-12.571M470.358 182.071c-13.296 0-21.864 9.94-21.864 24.411s8.568 24.118 22.603 24.118c10.341 0 17.727-5.116 19.795-12.717l-8.716-1.608c-1.625 4.385-5.613 6.724-10.932 6.724-7.977 0-13.295-5.116-13.443-14.178h33.682v-3.216c-.147-16.956-10.341-23.534-21.125-23.534m-12.705 20.026c.444-6.724 5.319-12.425 12.705-12.425s11.818 5.262 11.966 12.425zM508.912 190.117h-.443v-7.454h-8.864v46.92h9.307v-28.649c0-6.139 4.728-10.524 11.376-10.524 1.644-.027 3.284.17 4.875.584v-8.77a34 34 0 0 0-3.989-.146 12.4 12.4 0 0 0-7.48 2.004 12.2 12.2 0 0 0-4.782 6.035M549.091 189.818c2.428-.11 4.817.638 6.739 2.111a10.12 10.12 0 0 1 3.75 5.929h9.012c-1.035-9.501-8.864-15.787-19.649-15.787-13.443 0-22.011 9.94-22.011 24.265 0 14.324 8.273 24.264 22.159 24.264 11.228 0 18.466-6.724 19.501-15.786h-9.012a9.98 9.98 0 0 1-3.724 5.961 10.18 10.18 0 0 1-6.765 2.078c-7.83 0-12.852-6.432-12.852-16.664 0-10.231 5.022-16.371 12.852-16.371M596.077 182.071c-13.148 0-21.864 9.94-21.864 24.411s8.568 24.118 22.603 24.118c10.341 0 17.727-5.116 19.796-12.717l-8.717-1.608c-1.625 4.385-5.613 6.724-10.932 6.724-7.977 0-13.148-5.116-13.443-14.178h33.683v-3.216c-.148-16.956-10.342-23.534-21.126-23.534m-12.705 20.026c.443-6.724 5.318-12.425 12.705-12.425s11.819 5.262 11.966 12.425zM648.673 182.071c-7.091 0-11.819 3.216-14.035 8.186h-.591v-7.601h-8.863v46.921h9.307v-27.919c0-7.454 4.579-11.84 11.079-11.84 6.205 0 10.046 4.093 10.046 10.817v28.796h9.307v-29.819c-.148-11.402-6.648-17.541-16.25-17.541M692.999 222.117c-2.955 0-5.614-1.023-5.614-6.285v-25.873h9.75v-7.308h-9.75v-11.255h-9.307v11.255h-6.943v7.308h6.943v27.773c0 8.478 6.5 12.717 13.887 12.57 2.065.036 4.12-.311 6.056-1.023l-1.625-7.601a14.6 14.6 0 0 1-3.397.439M714.571 190.117h-.444v-7.454h-8.863v46.92h9.307v-28.649c0-6.139 4.727-10.524 11.374-10.524 1.645-.027 3.285.17 4.876.584v-8.77a34 34 0 0 0-3.989-.146 12.4 12.4 0 0 0-7.48 2.004 12.18 12.18 0 0 0-4.781 6.035M741.007 164.516a5.78 5.78 0 0 0-4.072 1.509 5.66 5.66 0 0 0-1.837 3.899c.024.74.197 1.469.508 2.142.312.674.755 1.28 1.305 1.783a5.7 5.7 0 0 0 1.897 1.148 5.7 5.7 0 0 0 2.199.335 5.5 5.5 0 0 0 4.132-1.435 5.4 5.4 0 0 0 1.294-1.806 5.38 5.38 0 0 0-1.294-6.14 5.5 5.5 0 0 0-4.132-1.435M745.739 182.64h-9.307v46.92h9.307zM775.853 189.818a10.3 10.3 0 0 1 6.738 2.111 10.12 10.12 0 0 1 3.75 5.929h9.012c-1.034-9.501-8.864-15.787-19.648-15.787-13.443 0-22.012 9.94-22.012 24.265 0 14.324 8.273 24.264 22.16 24.264 11.227 0 18.466-6.724 19.5-15.786h-9.012a9.98 9.98 0 0 1-3.724 5.961 10.17 10.17 0 0 1-6.764 2.078c-7.83 0-12.853-6.432-12.853-16.664 0-10.231 5.171-16.371 12.853-16.371M826.532 203.412l-7.534-1.754c-5.171-1.169-7.535-2.923-7.387-6.139 0-3.654 3.989-6.139 9.16-6.139 5.761 0 8.42 3.216 9.454 6.285l8.421-1.462c-1.921-7.308-7.682-12.132-17.875-12.132-10.785 0-18.319 5.555-18.319 13.887 0 6.723 4.136 11.109 13 13.009l7.978 1.754c4.579 1.023 6.648 3.069 6.648 5.993 0 3.654-3.989 6.431-10.046 6.431-5.466 0-9.012-2.338-10.194-7.016l-8.863 1.316c1.477 8.331 8.568 13.009 19.205 13.009 11.523 0 19.352-5.993 19.352-14.471 0-6.578-4.284-10.671-13-12.571M428.098 136.595l-39.739-52.33 38.557-43.705H395.45l-36.342 43.12V4.019h-25.557V136.74h25.557v-24.557l11.375-11.986 25.558 36.543h32.057zM444.939 30.922h.443a15.73 15.73 0 0 0 10.785-4.532 15.4 15.4 0 0 0 4.579-10.67 15.4 15.4 0 0 0-4.579-10.67A15.73 15.73 0 0 0 445.382.517a15.34 15.34 0 0 0-10.738 4.267 15.02 15.02 0 0 0-4.625 10.496v.439c-.04 1.97.316 3.928 1.047 5.761a14.9 14.9 0 0 0 3.208 4.919 15.1 15.1 0 0 0 4.875 3.317 15.2 15.2 0 0 0 5.79 1.205M432.086 137.925h24.819v-96.18h-24.819zM794.165 113.808c0 17.687 9.602 26.603 27.477 26.603a36.2 36.2 0 0 0 20.978-5.554l-5.023-19.002a14.6 14.6 0 0 1-8.864 2.485h-.591a9.8 9.8 0 0 1-6.372-3.734 9.6 9.6 0 0 1-1.9-7.083V63.964h19.795V41.892H819.87V15.29h-25.558v26.603h-15.955v22.072h15.955v49.844zM601.247 125.337a37.9 37.9 0 0 0 13.37 10.698 38.35 38.35 0 0 0 16.767 3.773c24.227 0 42.841-18.271 42.841-50.575 0-31.573-18.466-50.575-42.841-50.575a38.56 38.56 0 0 0-16.757 3.794 38.15 38.15 0 0 0-13.38 10.677V3.869h-25.558v132.723h25.558zm0-53.206a27.5 27.5 0 0 1 9.524-8.148 27.8 27.8 0 0 1 12.192-3.107c14.625 0 24.228 11.255 24.228 27.772 0 16.518-9.603 27.773-24.228 27.773a28 28 0 0 1-12.117-2.934 27.7 27.7 0 0 1-9.599-7.883zM533.583 111.188a26.33 26.33 0 0 1-18.715 4.007 26.16 26.16 0 0 1-16.445-9.708l62.047-35.373-2.511-4.97c-15.955-27.042-43.433-36.104-68.399-22.072-.739.439-1.478.877-2.069 1.316a48.9 48.9 0 0 0-14.063 12.97 48.3 48.3 0 0 0-7.947 17.322 48.1 48.1 0 0 0-.613 19.013 48.25 48.25 0 0 0 6.816 17.787c.739 1.316 1.478 2.485 2.069 3.654a48.9 48.9 0 0 0 13.349 13.701 49.5 49.5 0 0 0 17.637 7.591 49.7 49.7 0 0 0 19.231.322 49.5 49.5 0 0 0 17.886-6.997c12.377-6.633 21.961-17.412 27.035-30.403l-17.876-8.77c-3.079 8.741-9.278 16.07-17.432 20.61m-33.83-51.014c.148-.146.296-.146.443-.292a22.3 22.3 0 0 1 8.19-3.123 22.4 22.4 0 0 1 8.773.269 22.3 22.3 0 0 1 7.979 3.617 22 22 0 0 1 5.934 6.4l-40.921 23.533a23.16 23.16 0 0 1-1.239-17.07 23.44 23.44 0 0 1 10.841-13.334M122.747 125.073a52.65 52.65 0 0 1-17.474 12.2 53.1 53.1 0 0 1-20.936 4.317c-14.242-.038-27.885-5.674-37.928-15.665-10.043-9.992-15.663-23.522-15.624-37.614.04-14.092 5.735-27.59 15.833-37.528s23.773-15.498 38.015-15.459c13.998-.015 27.435 5.45 37.376 15.202a64.7 64.7 0 0 1 23.045-19.587c-11.329-12.427-26.218-21.141-42.681-24.98A84 84 0 0 0 52.91 9.453c-15.745 6.114-29.232 16.833-38.662 30.726S-.106 70.481.131 87.215c-.157 21.956 8.497 43.076 24.063 58.725 15.566 15.648 36.772 24.545 58.962 24.738h.59a86 86 0 0 0 33.875-7.222 85.2 85.2 0 0 0 28.172-19.965 73.9 73.9 0 0 1-23.046-18.418"/><path d="M170.624 36.91c-13.536.174-26.449 5.662-35.896 15.256s-14.656 22.51-14.48 35.903c.177 13.394 5.723 26.17 15.42 35.518s22.749 14.501 36.286 14.326c.148 0 .148 0 .148.147 13.431-.139 26.26-5.54 35.674-15.02 9.415-9.48 14.649-22.265 14.554-35.556v-.73a49.9 49.9 0 0 0-4.107-19.296A50.4 50.4 0 0 0 206.946 51.2a51 51 0 0 0-16.72-10.731 51.4 51.4 0 0 0-19.602-3.56m1.33 76.885a27.41 27.41 0 0 1-18.902-7.9 26.84 26.84 0 0 1-7.985-18.703 26.4 26.4 0 0 1 4.531-14.78 26.83 26.83 0 0 1 12.067-9.798 27.15 27.15 0 0 1 15.534-1.514 26.98 26.98 0 0 1 13.767 7.28 26.5 26.5 0 0 1 7.358 13.622 26.34 26.34 0 0 1-1.53 15.37 26.67 26.67 0 0 1-9.902 11.94 27.1 27.1 0 0 1-14.938 4.483M276.685 36.91a51.5 51.5 0 0 0-19.482 4.095 51.1 51.1 0 0 0-16.415 11.161c-9.447 9.595-14.655 22.51-14.479 35.903.176 13.394 5.723 26.17 15.42 35.518s22.749 14.501 36.286 14.326c.147 0 .147 0 .147.147 13.432-.139 26.26-5.54 35.675-15.02s14.648-22.265 14.553-35.556v-.73a49.9 49.9 0 0 0-4.106-19.296A50.4 50.4 0 0 0 313.006 51.2a51 51 0 0 0-16.719-10.731 51.4 51.4 0 0 0-19.602-3.56m1.33 76.885c-7.107-.076-13.902-2.903-18.927-7.876a26.75 26.75 0 0 1-7.96-18.727 26.4 26.4 0 0 1 4.531-14.78 26.83 26.83 0 0 1 12.066-9.798A27.16 27.16 0 0 1 283.26 61.1a26.98 26.98 0 0 1 13.766 7.28 26.5 26.5 0 0 1 7.359 13.622 26.35 26.35 0 0 1-1.53 15.37 26.66 26.66 0 0 1-9.903 11.94 27.1 27.1 0 0 1-14.937 4.483M729.639 137.91a51 51 0 0 0 19.385-3.901 50.6 50.6 0 0 0 16.389-10.96 50 50 0 0 0 10.886-16.343 49.6 49.6 0 0 0 3.716-19.225v-.73a50.14 50.14 0 0 0-8.972-27.943c-5.718-8.232-13.774-14.6-23.15-18.302a51.55 51.55 0 0 0-29.524-2.493A51.2 51.2 0 0 0 692.42 52.17a50.3 50.3 0 0 0-13.627 26.035 50.02 50.02 0 0 0 3.287 29.138c3.984 9.177 10.629 16.979 19.094 22.42a51.44 51.44 0 0 0 28.465 8.147m.738-77.178c7.131 0 13.97 2.803 19.012 7.792a26.46 26.46 0 0 1 7.875 18.81 26.46 26.46 0 0 1-7.875 18.812c-5.042 4.989-11.881 7.792-19.012 7.792-7.13 0-13.969-2.803-19.011-7.792a26.46 26.46 0 0 1-7.875-18.811 26.46 26.46 0 0 1 7.875-18.811c5.042-4.99 11.881-7.792 19.011-7.792"/></svg>