<svg xmlns="http://www.w3.org/2000/svg" width="1080" height="1080" fill="none" viewBox="0 0 1080 1080"><path fill="url(#a)" d="M0 0h1080v1080H0z"/><path fill="#fff" d="m834.167 474.367-73.595 27.952c-3.094 1.126-6.094-1.876-4.782-4.971l82.033-199.14c1.219-3.002-1.688-6.097-4.688-4.971l-155.908 54.592c-3 1.032-5.438 3.377-6.657 6.378L564.913 620.884c-1.313 3.377 1.969 6.754 5.344 5.534l66-24.2c3.657-1.314 7.032 2.626 5.063 6.097l-96.939 164.621c-2.062 3.564-7.312 3.564-9.375 0l-96.939-164.715c-1.969-3.377 1.313-7.41 5.063-6.097l66.001 24.2c3.375 1.22 6.656-2.157 5.344-5.534L408.723 354.207c-1.219-3.001-3.563-5.253-6.656-6.378l-155.721-54.592c-3.094-1.032-5.907 1.969-4.688 4.971l81.939 199.14c1.219 3.002-1.781 6.097-4.782 4.971l-73.126-27.952c-3.75-1.407-7.125 2.626-5.062 6.097l217.69 360.571c2.157 3.565 6.001 5.722 10.219 5.722h142.69c4.125 0 8.062-2.157 10.219-5.722L839.51 480.464c1.782-3.471-1.593-7.504-5.343-6.097"/><defs><linearGradient id="a" x1="435.874" x2="1146.57" y1="0" y2="178.471" gradientUnits="userSpaceOnUse"><stop stop-color="#7735e8"/><stop offset="1" stop-color="#c62cf1"/></linearGradient></defs></svg>