<svg xmlns="http://www.w3.org/2000/svg" width="677" height="265" fill="none" viewBox="0 0 677 265"><path fill="#ede9dd" d="M115.552 124.183c-.563 1.97-23.264 21.018-23.658 20.033-.691-1.728 6.52-13.836 8.878-23.48s1.478-26.099 2.71-28.069 12.634 29.546 12.07 31.516"/><path fill="#fdf9ef" d="M126.171 113.855c-6.975-8.269-21.95-21.926-22.443-21.434-.492.493 6.019 13.801 7.662 18.479 1.644 4.678 3.941 13.05 3.941 13.05s6.537 2.222 12.318 4.924c5.779 2.702 11.33 5.909 11.823 5.663s-6.327-12.413-13.301-20.682"/><path fill="#d5d1c5" d="M128.43 128.807c-4.434-2.216-13.146-4.868-13.146-4.868s-8.326 8.237-9.804 9.714-13.05 10.563-13.543 10.603c-.317.025 5.24.193 11.113-.776a578 578 0 0 0 15.529-2.773c6.613-1.28 17.479-4.464 18.039-4.624s3.015-1.041 3.053-1.22-6.807-3.84-11.241-6.056"/><path fill="#ede9dd" d="M164.742 126.294c.531-1.196-18.132-48.866-18.208-45.911-.043 1.671-.442 15.785-1.133 23.557-.691 7.773-2.333 15.113-3.37 20.64s-10.714 28.239-10.255 28.461c.458.22 32.435-25.552 32.966-26.747"/><path fill="#fdf9ef" d="M164.841 126.307s30.9 20.519 31.363 19.258-18.941-33.862-25.437-41.786-22.987-24.5-23.937-23.755c-.54.423 7.149 17.402 8.914 21.467 1.764 4.066 9.097 24.816 9.097 24.816"/><path fill="#d5d1c5" d="M132.052 153.012c-.136-1.639 31.596-26.946 32.689-27.014 1.094-.068 31.565 19.157 31.36 19.772s-31.238 4.236-31.238 4.236-32.674 4.646-32.811 3.006"/><path fill="#fdf9ef" d="M103.655 148.557c-.459-.358-14.52-.201-15.351-.029s27.146 25.2 27.146 25.2 43.975 5.279 44.508 4.712 6.25-14.798 6.129-15.457-54.503-.094-54.503-.094-7.471-13.974-7.929-14.332"/><path fill="#fdf9ef" d="M166.094 163.022s-6.283 14.803-6.086 15.375c.197.573 17.852-10.296 24.197-14.164 6.346-3.869 15.376-8.698 15.792-9.73.215-.533-10.497.631-14.385 1.008-3.887.376-13.088 1.178-13.872 1.57-1.62.809-5.646 5.941-5.646 5.941"/><path fill="#ede9dd" d="M88.282 165.851s-.625-16.431-.014-17.277c.612-.847 14.101 12.56 14.101 12.56s13.011 11.758 12.974 12.47c-.037.711-27.06-7.753-27.06-7.753M199.948 154.73c-.329-1.572-40.105 23.759-40.105 23.759l20.614 2.875s19.82-25.062 19.491-26.634"/><path fill="#d5d1c5" d="m96.103 181.816 5.259 3.847s21.367.324 35.003.337c13.637.012 34.917-.273 34.917-.273s3.923-1.082 5.473-1.896 3.701-2.528 3.701-2.528l-20.469-2.841-44.59-4.888-27.12-7.723z"/><path fill="#fdf9ef" d="m278.179 110.179-16.604 51.495h-7.971L237 110.179h7.232l13.431 44.423 13.358-44.423zM316.271 138.321h-22.14v17.312h24.575v6.041h-31.438v-51.495h30.11v6.041h-23.247v16.06h22.14zM356.724 110.179h6.347v51.495h-7.675l-20.295-41.182h-.074v41.182h-6.346v-51.495h7.453l20.516 41.55h.074zM408.911 116.22h-15.424v45.454h-6.863V116.22h-15.497v-6.041h37.784zM445.232 145.54v-35.361h6.863v36.319q0 5.967-2.509 9.577-2.436 3.61-6.568 5.304-4.06 1.621-8.93 1.621-5.018 0-9.077-1.694-4.059-1.695-6.42-5.305-2.362-3.683-2.362-9.503v-36.319h6.863v35.361q0 4.494 1.476 6.999 1.55 2.432 4.059 3.462 2.51.958 5.461.958 3.026 0 5.535-1.031 2.51-1.032 4.059-3.463 1.55-2.505 1.55-6.925M491.736 161.674l-4.575-15.397h-17.785l-4.576 15.397h-7.085l16.31-51.495h8.634l16.236 51.495zm-20.663-21.143h14.39l-7.232-24.164zM508.796 110.179h6.863v45.454h24.574v6.041h-31.437zM584.524 125.06h-6.642q-.147-4.42-2.804-7.293-2.657-2.947-8.044-2.947-5.313 0-8.118 2.357-2.73 2.358-2.73 5.82 0 6.189 7.011 7.809l10.553 2.431q6.051 1.4 9.15 5.084t3.1 8.693q0 5.082-2.362 8.693-2.288 3.536-6.42 5.451-4.059 1.842-9.52 1.842-9.594 0-14.686-4.715-5.018-4.788-5.165-13.039h6.641q.075 5.156 3.469 8.398t9.889 3.241q5.83 0 8.486-2.504 2.731-2.505 2.731-6.41 0-3.462-1.919-5.451-1.845-1.99-5.682-2.873l-10.701-2.505q-5.608-1.326-8.56-4.715-2.952-3.463-2.952-8.767 0-4.346 2.214-7.588 2.214-3.315 6.199-5.157 4.059-1.915 9.593-1.915 5.388 0 9.225 1.989 3.911 1.989 5.978 5.452 2.066 3.389 2.066 7.661z"/></svg>