<svg xmlns="http://www.w3.org/2000/svg" width="265" height="265" fill="none" viewBox="0 0 265 265"><path fill="#414141" d="M91.606 120.357c-.81 2.824-33.442 30.138-34.008 28.726-.994-2.477 9.373-19.84 12.762-33.669s2.125-37.425 3.895-40.25c1.77-2.824 18.162 42.368 17.351 45.193"/><path fill="#5b5b5b" d="M106.87 105.547C96.844 93.689 75.317 74.105 74.61 74.812c-.709.706 8.65 19.79 11.013 26.498s5.666 18.712 5.666 18.712 9.396 3.187 17.706 7.061c8.308 3.876 16.288 8.474 16.996 8.121s-9.095-17.799-19.121-29.657"/><path fill="#000" d="M110.118 126.987c-6.374-3.177-18.897-6.98-18.897-6.98s-11.969 11.811-14.093 13.929-18.76 15.147-19.468 15.204c-.456.037 7.532.277 15.975-1.112a831 831 0 0 0 22.322-3.977c9.506-1.835 25.127-6.401 25.931-6.63.805-.228 4.335-1.493 4.388-1.75.054-.257-9.784-5.506-16.158-8.684"/><path fill="#414141" d="M162.317 123.383c.763-1.714-26.065-70.071-26.174-65.834-.061 2.397-.636 22.635-1.629 33.78-.994 11.146-3.354 21.671-4.844 29.597s-15.401 40.494-14.743 40.811c.659.317 46.627-36.639 47.39-38.354"/><path fill="#5b5b5b" d="M162.459 123.403s44.418 29.422 45.084 27.615-27.228-48.557-36.565-59.92c-9.339-11.362-33.045-35.13-34.409-34.063-.776.606 10.276 24.954 12.813 30.783 2.536 5.83 13.077 35.585 13.077 35.585"/><path fill="#000" d="M115.325 161.697c-.196-2.351 45.418-38.64 46.991-38.738 1.572-.097 45.374 27.471 45.079 28.353-.295.881-44.905 6.074-44.905 6.074s-46.968 6.662-47.165 4.311"/><path fill="#5b5b5b" d="M74.504 155.308c-.66-.514-20.872-.288-22.067-.041s39.022 36.135 39.022 36.135 63.215 7.57 63.981 6.758 8.984-21.221 8.81-22.166-78.348-.135-78.348-.135-10.739-20.037-11.398-20.551"/><path fill="#5b5b5b" d="M164.26 176.05s-9.031 21.227-8.748 22.048 25.662-14.764 34.783-20.312c9.122-5.547 22.102-12.471 22.7-13.952.309-.764-15.089.906-20.677 1.446s-18.814 1.688-19.942 2.251c-2.329 1.16-8.116 8.519-8.116 8.519"/><path fill="#414141" d="M52.406 180.107s-.9-23.562-.02-24.775c.878-1.214 20.27 18.011 20.27 18.011s18.702 16.86 18.65 17.881c-.054 1.02-38.9-11.117-38.9-11.117M212.925 164.16c-.473-2.254-57.651 34.069-57.651 34.069l29.633 4.124s28.491-35.939 28.018-38.193"/><path fill="#000" d="m63.648 203 7.56 5.516s30.715.466 50.317.483c19.602.018 50.193-.391 50.193-.391s5.64-1.551 7.868-2.718c2.227-1.166 5.319-3.626 5.319-3.626l-29.424-4.073-64.097-7.01-38.986-11.074z"/></svg>