<svg xmlns="http://www.w3.org/2000/svg" xmlns:xlink="http://www.w3.org/1999/xlink" xml:space="preserve" viewBox="0 0 833.4 833.3"><path d="M0 0h833.3v833.3H0z" style="fill:none"/><defs><path id="a" d="M0 0h833.3v833.3H0z"/></defs><clipPath id="b"><use xlink:href="#a" style="overflow:visible"/></clipPath><g style="clip-path:url(#b)"><ellipse cx="411.4" cy="401" rx="328.1" ry="351" style="fill-rule:evenodd;clip-rule:evenodd;fill:#fff"/><path d="M416.7 0c230 0 416.7 186.7 416.7 416.7S646.7 833.4 416.7 833.4C186.7 833.3 0 646.6 0 416.7 0 186.7 186.7 0 416.7 0M212.4 150.7c15.7-13.5 37.8-24.5 57-16.7 34.5 14 127.3 201 127.3 201S526.4 150.7 573 133.9c15.9-5.7 37.7 4.4 54.3 16.8 58.3 43.6 64.4 104.4 59.3 121.3C680.3 293.2 358 702 358 702c-9.6-3.9-200.6-358.2-210.9-418.9-9.8-57.9 23.8-97.3 65.3-132.4" style="fill-rule:evenodd;clip-rule:evenodd;fill:#3165d4"/></g></svg>