<svg xmlns="http://www.w3.org/2000/svg" fill="none" class="h-full transition-all group-hover:scale-110" viewBox="0 0 285 216"><path fill="#fff" d="M201.133 3.667C197.933 5.133 193.4 8.467 191 11c-2.4 2.4-7.2 5.867-10.8 7.467-8 3.866-16 11.6-19.333 18.933-3.467 7.733-3.334 10.8.533 9.867 6.4-1.6 21.867-2.267 25.6-1.2 2.533.666 4.133 2.133 4.4 3.866.4 2.267-1.333 3.734-8.667 7.6-19.2 10.267-47.333 39.067-68.533 70.4-8.133 12-12.8 17.467-19.867 23.067C69.8 170.6 37 189.133 7.267 200.333 3.8 201.667.6 203.133.333 203.8c-2.666 4.133 47.867 2.133 72-2.8 16.667-3.467 41.467-11.733 56.4-18.667 9.467-4.4 33.734-12 38.667-12 .667 0 1.067 4.667 1.067 10.4-.134 10 0 10.667 5.066 18 2.934 4.134 4.934 7.867 4.667 8-.267.267-12.667 1.067-27.6 1.867-32.667 1.6-37.6 3.6-12.667 5.2 37.734 2.533 147.067.933 147.067-2.133 0-1.6-8.8-3.067-19.6-3.2-19.2-.267-27.2-1.6-27.2-4.534 0-1.466 2-2.666 4.4-2.666s8.667-1.6 13.867-3.6 11.733-5.2 14.4-7.067 5.6-3.4 6.533-3.4 1.733-2.333 1.733-5.2c0-4.733-.933-5.2-7.733-3.8-4 .867-9.2 1.6-11.6 1.6s-6.533-.933-9.2-2.067c-2.667-1.133-6.133-2.066-7.733-2.066s-4.667-1.2-6.8-2.667-5.2-2.667-6.8-2.667-4.667-1.2-6.8-2.666c-2.134-1.467-5.2-2.667-6.8-2.667s-4.667-1.2-6.8-2.667-5.2-2.666-6.8-2.666-4.667-1.2-6.8-2.667-5.2-2.667-6.8-2.667-4.667-1.2-6.8-2.666c-2.134-1.467-5.2-2.667-6.8-2.667s-4.667-1.2-6.8-2.667-5.2-2.666-6.8-2.666-4.667-1.2-6.8-2.667-5.2-2.667-6.8-2.667-4.667-1.2-6.8-2.666c-2.134-1.467-5.2-2.667-6.8-2.667s-4.667-1.2-6.8-2.667-5.2-2.666-6.8-2.666-4.667-1.2-6.8-2.667-5.2-2.667-6.8-2.667-4.667-1.2-6.8-2.666c-2.134-1.467-5.2-2.667-6.8-2.667s-4.667-1.2-6.8-2.667-5.2-2.666-6.8-2.666-4.667-1.2-6.8-2.667-5.2-2.667-6.8-2.667-4.667-1.2-6.8-2.666c-2.134-1.467-5.2-2.667-6.8-2.667s-4.667-1.2-6.8-2.667-5.2-2.666-6.8-2.666-4.667-1.2-6.8-2.667-5.2-2.667-6.8-2.667-4.667-1.2-6.8-2.666C16.333 86.2 13.267 85 11.667 85S7 83.8 4.867 82.333s-5.2-2.666-6.8-2.666-4.667-1.2-6.8-2.667-5.2-2.667-6.8-2.667-4.667-1.2-6.8-2.666c-2.134-1.467-5.2-2.667-6.8-2.667s-4.667-1.2-6.8-2.667-5.2-2.666-6.8-2.666-4.667-1.2-6.8-2.667-5.2-2.667-6.8-2.667-4.667-1.2-6.8-2.666c-2.134-1.467-5.2-2.667-6.8-2.667s-4.667-1.2-6.8-2.667-5.2-2.666-6.8-2.666-4.667-1.2-6.8-2.667-5.2-2.667-6.8-2.667-4.667-1.2-6.8-2.666c-2.134-1.467-5.2-2.667-6.8-2.667s-4.667-1.2-6.8-2.667-5.2-2.666-6.8-2.666-4.667-1.2-6.8-2.667-5.2-2.667-6.8-2.667-4.667-1.2-6.8-2.666c-2.134-1.467-5.2-2.667-6.8-2.667s-4.667-1.2-6.8-2.667-5.2-2.666-6.8-2.666-4.667-1.2-6.8-2.667-5.2-2.667-6.8-2.667-4.667-1.2-6.8-2.666c-2.134-1.467-5.2-2.667-6.8-2.667s-4.667-1.2-6.8-2.667-5.2-2.666-6.8-2.666-4.667-1.2-6.8-2.667-5.2-2.667-6.8-2.667-4.667-1.2-6.8-2.666c-2.134-1.467-5.2-2.667-6.8-2.667s-4.667-1.2-6.8-2.667-5.2-2.666-6.8-2.666-4.667-1.2-6.8-2.667-5.2-2.667-6.8-2.667-4.667-1.2-6.8-2.666c-2.134-1.467-5.2-2.667-6.8-2.667s-4.667-1.2-6.8-2.667-5.2-2.666-6.8-2.666-4.667-1.2-6.8-2.667-5.2-2.667-6.8-2.667-4.667-1.2-6.8-2.666c-2.134-1.467-5.2-2.667-6.8-2.667s-4.667-1.2-6.8-2.667-5.2-2.666-6.8-2.666-4.667-1.2-6.8-2.667-5.2-2.667-6.8-2.667-4.667-1.2-6.8-2.666c-2.134-1.467-5.2-2.667-6.8-2.667s-4.667-1.2-6.8-2.667-5.2-2.666-6.8-2.666-4.667-1.2-6.8-2.667-5.2-2.667-6.8-2.667-4.667-1.2-6.8-2.666c-2.134-1.467-5.2-2.667-6.8-2.667s-4.667-1.2-6.8-2.667-5.2-2.666-6.8-2.666-4.667-1.2-6.8-2.667-5.2-2.667-6.8-2.667-4.667-1.2-6.8-2.666c-2.134-1.467-5.2-2.667-6.8-2.667s-4.667-1.2-6.8-2.667-5.2-2.666-6.8-2.666-4.667-1.2-6.8-2.667-5.2-2.667-6.8-2.667-4.667-1.2-6.8-2.666c-2.134-1.467-5.2-2.667-6.8-2.667s-4.667-1.2-6.8-2.667-5.2-2.666-6.8-2.666-4.667-1.2-6.8-2.667-5.2-2.667-6.8-2.667-4.667-1.2-6.8-2.666c-2.134-1.467-5.2-2.667-6.8-2.667s-4.667-1.2-6.8-2.667-5.2-2.666-6.8-2.666-4.667-1.2-6.8-2.667-5.2-2.667-6.8-2.667-4.667-1.2-6.8-2.666c-2.134-1.467-5.2-2.667-6.8-2.667s-4.667-1.2-6.8-2.667-5.2-2.666-6.8-2.666-4.667-1.2-6.8-2.667-5.2-2.667-6.8-2.667-4.667-1.2-6.8-2.666c-2.134-1.467-5.2-2.667-6.8-2.667s-4.667-1.2-6.8-2.667-5.2-2.666-6.8-2.666-4.667-1.2-6.8-2.667-5.2-2.667-6.8-2.667-4.667-1.2-6.8-2.666c-2.134-1.467-5.2-2.667-6.8-2.667s-4.667-1.2-6.8-2.667-5.2-2.666-6.8-2.666-4.667-1.2-6.8-2.667-5.2-2.667-6.8-2.667-4.667-1.2-6.8-2.666c-2.134-1.467-5.2-2.667-6.8-2.667s-4.667-1.2-6.8-2.667-5.2-2.666-6.8-2.666-4.667-1.2-6.8-2.667-5.2-2.667-6.8-2.667-4.667-1.2-6.8-2.666c-2.134-1.467-5.2-2.667-6.8-2.667s-4.667-1.2-6.8-2.667-5.2-2.666-6.8-2.666-4.667-1.2-6.8-2.667-5.2-2.667-6.8-2.667-4.667-1.2-6.8-2.666c-2.134-1.467-5.2-2.667-6.8-2.667s-4.667-1.2-6.8-2.667-5.2-2.666-6.8-2.666-4.667-1.2-6.8-2.667-5.2-2.667-6.8-2.667-4.667-1.2-6.8-2.666c-2.134-1.467-5.2-2.667-6.8-2.667s-4.667-1.2-6.8-2.667-5.2-2.666-6.8-2.666-4.667-1.2-6.8-2.667-5.2-2.667-6.8-2.667-4.667-1.2-6.8-2.666c-2.134-1.467-5.2-2.667-6.8-2.667s-4.667-1.2-6.8-2.667-5.2-2.666-6.8-2.666-4.667-1.2-6.8-2.667-5.2-2.667-6.8-2.667-4.667-1.2-6.8-2.666c-2.134-1.467-5.2-2.667-6.8-2.667s-4.667-1.2-6.8-2.667-5.2-2.666-6.8-2.666-4.667-1.2-6.8-2.667-5.2-2.667-6.8-2.667-4.667-1.2-6.8-2.666c-2.134-1.467-5.2-2.667-6.8-2.667s-4.667-1.2-6.8-2.667-5.2-2.666-6.8-2.666-4.667-1.2-6.8-2.667-5.2-2.667-6.8-2.667-4.667-1.2-6.8-2.666c-2.134-1.467-5.2-2.667-6.8-2.667s-4.667-1.2-6.8-2.667-5.2-2.666-6.8-2.666-4.667-1.2-6.8-2.667-5.2-2.667-6.8-2.667-4.667-1.2-6.797-2.666c-2.14-1.467-5.2-2.667-6.8-2.667s-4.67-1.2-6.8-2.667c-2.14-1.466-5.2-2.666-6.8-2.666s-4.67-1.2-6.8-2.667c-2.14-1.467-5.2-2.667-6.8-2.667s-4.67-1.2-6.8-2.666c-2.14-1.467-5.2-2.667-6.8-2.667s-4.67-1.2-6.8-2.667c-2.14-1.466-5.2-2.666-6.8-2.666s-4.67-1.2-6.8-2.667c-2.14-1.467-5.2-2.667-6.8-2.667s-4.67-1.2-6.8-2.666c-2.14-1.467-5.2-2.667-6.8-2.667s-4.67-1.2-6.8-2.667c-2.14-1.466-5.2-2.666-6.8-2.666s-4.67-1.2-6.8-2.667c-2.14-1.467-5.2-2.667-6.8-2.667s-4.67-1.2-6.8-2.666c-2.14-1.467-5.2-2.667-6.8-2.667s-4.67-1.2-6.8-2.667c-2.14-1.466-5.2-2.666-6.8-2.666s-4.67-1.2-6.8-2.667c-2.14-1.467-5.2-2.667-6.8-2.667s-4.67-1.2-6.8-2.666c-2.14-1.467-5.2-2.667-6.8-2.667s-4.67-1.2-6.8-2.667c-2.14-1.466-5.2-2.666-6.8-2.666s-4.67-1.2-6.8-2.667c-2.14-1.467-5.2-2.667-6.8-2.667s-4.67-1.2-6.8-2.666c-2.14-1.467-5.2-2.667-6.8-2.667s-4.67-1.2-6.8-2.667c-2.14-1.466-5.2-2.666-6.8-2.666s-4.67-1.2-6.8-2.667c-2.14-1.467-5.2-2.667-6.8-2.667s-4.67-1.2-6.8-2.666c-2.14-1.467-5.2-2.667-6.8-2.667s-4.67-1.2-6.8-2.667c-2.14-1.466-5.2-2.666-6.8-2.666s-4.67-1.2-6.8-2.667c-2.14-1.467-5.2-2.667-6.8-2.667s-4.67-1.2-6.8-2.666c-2.14-1.467-5.2-2.667-6.8-2.667s-4.67-1.2-6.8-2.667c-2.14-1.466-5.2-2.666-6.8-2.666s-4.67-1.2-6.8-2.667c-2.14-1.467-5.2-2.667-6.8-2.667s-4.67-1.2-6.8-2.666c-2.14-1.467-5.2-2.667-6.8-2.667s-4.67-1.2-6.8-2.667c-2.14-1.466-5.2-2.666-6.8-2.666s-4.67-1.2-6.8-2.667c-2.14-1.467-5.2-2.667-6.8-2.667s-4.67-1.2-6.8-2.666c-2.14-1.467-5.2-2.667-6.8-2.667s-4.67-1.2-6.8-2.667c-2.14-1.466-5.2-2.666-6.8-2.666s-4.67-1.2-6.8-2.667c-2.14-1.467-5.2-2.667-6.8-2.667s-4.67-1.2-6.8-2.666c-2.14-1.467-5.2-2.667-6.8-2.667s-4.67-1.2-6.8-2.667c-2.14-1.466-5.2-2.666-6.8-2.666s-4.67-1.2-6.8-2.667c-2.14-1.467-5.2-2.667-6.8-2.667s-4.67-1.2-6.8-2.666c-2.14-1.467-5.2-2.667-6.8-2.667s-4.67-1.2-6.8-2.667c-2.14-1.466-5.2-2.666-6.8-2.666s-4.67-1.2-6.8-2.667c-2.14-1.467-5.2-2.667-6.8-2.667S-1489-1489-1489-1489"/></svg>