<svg xmlns="http://www.w3.org/2000/svg" width="32" height="32" viewBox="0 0 32 32"><g fill="none"><circle cx="16" cy="16" r="16" fill="#338be5"/><path fill="#fff" d="M22.63 16.918c.73.196 1.45.423 2.098.822q.434.267.8.619c.36.4.336.822.008 1.245-.288.368-.68.603-1.097.799-1.056.509-2.176.799-3.32.971-.929.14-1.873.22-2.81.337a.34.34 0 0 0-.216.149c-.656.978-1.304 1.957-1.96 2.936a2 2 0 0 0-.144.204 272 272 0 0 1-2.057-3.133.33.33 0 0 0-.28-.164c-1.873-.133-3.721-.376-5.49-1.01-.56-.196-1.096-.439-1.56-.807-.025-.024-.057-.04-.08-.063-.68-.571-.697-1.182-.04-1.77.52-.47 1.16-.736 1.824-.94s1.336-.352 2.009-.524c.032-.008.064-.008.12-.024-1.449-2.216-2.881-4.409-4.346-6.633.088-.008.152-.016.208-.016.905-.008 1.809 0 2.713-.008a.33.33 0 0 1 .312.18q3.285 5.01 6.563 10.025a1 1 0 0 0 .112.157c.504-.76.992-1.488 1.472-2.217q2.64-3.99 5.282-7.972c.064-.094.112-.165.256-.165q1.429.01 2.857.008.067 0 .136.008a3255 3255 0 0 1-4.466 6.72c.377.093.737.172 1.097.266zm-13.732 1.88c.186.207.405.385.648.524 1 .533 2.105.728 3.25.9-.016-.054-.016-.078-.024-.093-.649-.98-1.289-1.966-1.937-2.945a.23.23 0 0 0-.2-.063q-.57.188-1.113.447a2.2 2.2 0 0 0-.616.501.517.517 0 0 0-.008.728zm12.604.845a2.7 2.7 0 0 0 1.16-.658c.321-.32.321-.681 0-1.01a1.2 1.2 0 0 0-.271-.22c-.344-.172-.704-.336-1.057-.508-.12-.063-.192-.016-.264.094-.376.58-.76 1.15-1.144 1.723-.24.36-.48.728-.728 1.104a.8.8 0 0 0 .192 0c.704-.172 1.416-.329 2.112-.525M21.51 9l-5.481 8.732L10.475 9z"/></g></svg>