<svg xmlns="http://www.w3.org/2000/svg" width="615" height="224" fill="none" viewBox="0 0 615 224"><g clip-path="url(#a)"><path fill="#fff" d="m83.3 220.4 52.36-123.42c7.14-17.34 9.86-19.04 24.48-19.04V70.8H107.1v7.14c13.6 0 20.06.68 20.06 7.82 0 2.72-.68 6.12-2.72 11.22l-30.26 75.48-32.64-76.5c-1.7-4.76-2.72-8.16-2.72-10.54 0-6.8 6.46-7.48 18.02-7.48V70.8H1.02v7.14c13.94 0 15.98 2.72 22.78 17.68L81.26 220.4zm88.615-197.88c0 11.56 9.86 20.74 21.42 20.74s21.08-9.18 21.08-20.74c0-11.9-9.52-20.74-21.08-20.74s-21.42 8.84-21.42 20.74m4.08 73.78v95.2c0 16.66-3.4 18.36-18.7 18.36V217h73.78v-7.14c-15.3 0-18.7-1.7-18.7-18.36V70.8h-55.08v7.14c15.3 0 18.7 1.7 18.7 18.36m122.108-19.72c18.02 0 26.52 17.34 27.54 41.48h-60.86c2.72-27.2 15.64-41.48 33.32-41.48m61.2 111.18-4.42-4.08c-9.18 12.24-20.4 17.68-34.68 17.68-32.98 0-56.1-29.92-56.1-71.06v-3.74h92.82c0-28.22-18.7-59.16-57.8-59.16-35.36 0-69.36 33.66-69.36 78.54 0 43.86 32.98 74.46 73.1 74.46 21.76 0 43.18-11.22 56.44-32.64m74.829 22.1c-15.3 0-18.7-1.7-18.7-18.36v-86.7c5.78-10.88 15.3-18.02 26.86-18.02 17.68 0 26.52 11.56 26.52 36.04v68.68c0 16.66-3.4 18.36-18.7 18.36V217h73.78v-7.14c-15.64 0-19.04-1.7-19.04-18.36v-74.46c0-3.4-.34-7.14-.68-10.2 4.76-10.88 14.96-20.06 27.54-20.06 18.02 0 26.86 11.56 26.86 36.04v68.68c0 16.66-3.4 18.36-18.7 18.36V217h73.78v-7.14c-15.64 0-19.04-1.7-19.04-18.36v-74.46c0-27.2-12.92-49.64-43.86-49.64-24.82 0-41.48 19.04-47.6 32.98-4.76-19.04-17.68-32.98-42.16-32.98-22.78 0-38.76 16.32-45.56 29.92V70.8h-55.08v7.14c15.3 0 18.7 1.7 18.7 18.36v95.2c0 16.66-3.4 18.36-18.7 18.36V217h73.78z"/></g><defs><clipPath id="a"><path fill="#fff" d="M0 0h615v224H0z"/></clipPath></defs></svg>