<svg xmlns="http://www.w3.org/2000/svg" width="32" height="32" viewBox="0 0 32 32"><g fill="none" fill-rule="evenodd"><circle cx="16" cy="16" r="16" fill="#b80000"/><path fill="#fff" fill-rule="nonzero" d="M25.893 11.387c.156.265.135.543-.02.815-.232.37-.446.747-.667 1.12q-.909 1.554-1.82 3.108a6343 6343 0 0 1-3.644 6.182.74.74 0 0 1-.711.387c-.307-.014-.525-.166-.67-.431q-.225-.396-.46-.791-.766-1.308-1.533-2.611c-.114-.197-.231-.39-.362-.608-.128.217-.249.41-.363.608l-1.533 2.61a37 37 0 0 0-.46.792c-.145.265-.362.417-.67.431a.75.75 0 0 1-.711-.387c-.577-.971-1.147-1.942-1.72-2.917a940 940 0 0 1-1.924-3.265q-.908-1.554-1.82-3.108c-.22-.373-.438-.75-.666-1.12-.166-.272-.19-.55-.035-.815.152-.261.397-.387.712-.387 1.968.007 3.937.02 5.905.003.497-.003.794.187 1.026.601.497.887 1.026 1.752 1.537 2.629.214.37.425.743.642 1.113.017.027.045.048.07.071a.3.3 0 0 0 .068-.07c.215-.37.425-.744.643-1.114.514-.877 1.04-1.746 1.537-2.629.231-.414.528-.604 1.025-.6 1.969.016 3.937.003 5.906-.004.321 0 .566.126.718.387M15.05 17.142a.31.31 0 0 0 .003-.261c-.1-.204-.232-.397-.349-.598-.704-1.202-1.409-2.4-2.11-3.605-.072-.123-.155-.167-.3-.167-1.312.007-2.625.007-3.937.01-.062 0-.124.01-.214.017 1.602 2.733 3.19 5.446 4.797 8.186.138-.23.255-.414.366-.604q.879-1.485 1.744-2.978m4.01 3.582c1.605-2.74 3.194-5.453 4.8-8.186-.093-.007-.152-.017-.214-.017-1.313-.003-2.625-.003-3.937-.01-.145 0-.228.044-.3.166l-2.11 3.606c-.118.197-.246.39-.35.598a.31.31 0 0 0 0 .261q.87 1.491 1.745 2.978c.11.19.228.377.366.604"/></g></svg>