<svg xmlns="http://www.w3.org/2000/svg" width="561" height="132" fill="none" viewBox="0 0 561 132"><path fill="#1b1b1b" d="M561 12c0 6.627-5.373 12-12 12s-12-5.373-12-12 5.373-12 12-12 12 5.373 12 12M414 105a9 9 0 0 0 9-9V60a9 9 0 0 1 9-9h18a9 9 0 0 1 9 9v36a9 9 0 0 0 9 9 9 9 0 0 0 9-9V60a9 9 0 0 1 9-9h18a9 9 0 0 1 9 9v36a9 9 0 0 0 9 9h27a9 9 0 0 0 9-9V42a9 9 0 0 0-9-9 9 9 0 0 0-9 9v40.5a4.5 4.5 0 0 1-9 0V42a9 9 0 0 0-9-9H414a9 9 0 0 0-9 9v54a9 9 0 0 0 9 9"/><path fill="#1b1b1b" fill-rule="evenodd" d="M27 87a9 9 0 0 1-9-9V42a9 9 0 1 0-18 0v54a9 9 0 0 0 9 9h108a9 9 0 0 0 9-9V60a9 9 0 0 1 9-9h103.5a4.5 4.5 0 0 1 0 9H144a9 9 0 0 0-9 9v27a9 9 0 0 0 9 9h108a9 9 0 0 0 9-9V42a9 9 0 0 0-9-9H117a9 9 0 0 0-9 9v36a9 9 0 0 1-9 9H81a9 9 0 0 1-9-9V42a9 9 0 1 0-18 0v36a9 9 0 0 1-9 9zm216-4.5a4.5 4.5 0 0 1-4.5 4.5h-81a4.5 4.5 0 0 1 0-9h81a4.5 4.5 0 0 1 4.5 4.5M270 96a9 9 0 0 0 9 9h94.5a4.5 4.5 0 0 1 0 9H279a9 9 0 0 0-9 9 9 9 0 0 0 9 9h108a9 9 0 0 0 9-9V42a9 9 0 0 0-9-9H279a9 9 0 0 0-9 9zm27-45a9 9 0 0 0-9 9v18a9 9 0 0 0 9 9h72a9 9 0 0 0 9-9V60a9 9 0 0 0-9-9z" clip-rule="evenodd"/></svg>