<svg xmlns="http://www.w3.org/2000/svg" width="319" height="61" fill="none" viewBox="0 0 319 61"><path fill="#0364ff" fill-rule="evenodd" d="M33.644 45.125a.608.608 0 0 0 .587.765h3.5c.4 0 .69-.38.587-.765l-1.75-6.53c-.16-.601-1.013-.601-1.174 0z" clip-rule="evenodd"/><path fill="#0364ff" fill-rule="evenodd" d="M30.16 49.304A2.29 2.29 0 0 1 27.95 51h-4.737a2.288 2.288 0 0 1-2.21-2.88l9.718-36.265A2.5 2.5 0 0 1 33.138 10h5.637c1.133 0 2.124.76 2.417 1.855l9.717 36.265A2.287 2.287 0 0 1 48.7 51h-4.736a2.29 2.29 0 0 1-2.21-1.696l-4.726-17.638c-.294-1.095-1.848-1.095-2.14 0zM53.986 42.47c-.303 1.13-1.907 1.13-2.21 0L48.25 29.306a1.5 1.5 0 0 1 0-.777l4.496-16.78A2.36 2.36 0 0 1 55.023 10h4.59a2.36 2.36 0 0 1 2.278 2.97zM23.718 29.284a1.5 1.5 0 0 0 0-.777l-4.49-16.757A2.36 2.36 0 0 0 16.949 10H12.36a2.36 2.36 0 0 0-2.278 2.97l7.898 29.479c.303 1.13 1.907 1.13 2.21 0z" clip-rule="evenodd"/><path fill="#fff" fill-rule="evenodd" d="M160.566 50.118q-2.957 0-5.421-1.233a10.2 10.2 0 0 1-2.415-1.69c-.433-.412-1.308-.133-1.308.458v.882c0 .4-.332.726-.741.726h-3.555a.734.734 0 0 1-.741-.726V11.607c0-.4.332-.725.741-.725h3.538c.41 0 .742.324.742.725v12.997c0 .591.877.873 1.31.462a10.4 10.4 0 0 1 2.429-1.694q2.464-1.233 5.421-1.233 5.31 0 8.978 4.074 3.778 4.127 3.778 9.916 0 5.842-3.778 9.916-3.668 4.073-8.978 4.073m-.822-4.502q3.614 0 6.077-2.68 2.464-2.626 2.464-6.807 0-4.126-2.464-6.807t-6.077-2.68q-3.667 0-6.132 2.68-2.409 2.679-2.409 6.807 0 4.18 2.409 6.86 2.465 2.628 6.132 2.627m-30.667 4.502q-5.913 0-9.746-3.966-3.832-3.966-3.832-10.023 0-6.003 3.723-9.97 3.723-4.02 9.526-4.02 5.968 0 9.472 3.806c2.518 2.654 3.721 6.646 3.564 10.277-.021.465-.422.818-.898.818H121.55c-.495 0-.897.401-.846.884q.346 3.252 2.569 5.334 2.519 2.358 6.023 2.358 4.47 0 7.15-4.06a.88.88 0 0 1 1.109-.32l3.01 1.436c.424.203.594.711.348 1.106a13.1 13.1 0 0 1-4.609 4.464q-3.175 1.876-7.227 1.876m-7.757-18.187c-.178.523.243 1.035.806 1.035h13.336c.513 0 .923-.43.819-.922q-.448-2.12-2.167-3.58-2.026-1.822-5.475-1.822-2.846 0-4.928 1.715-1.648 1.396-2.391 3.574m-7.365-7.927c.164-.497-.215-1.007-.75-1.007h-3.476a.785.785 0 0 0-.755.553l-5.128 17.039c-.205.684-1.189.698-1.415.02l-5.706-17.08a.79.79 0 0 0-.748-.532h-4.061a.79.79 0 0 0-.748.53L85.411 40.62c-.228.675-1.21.66-1.415-.022l-5.13-17.049a.785.785 0 0 0-.756-.553h-3.585c-.535 0-.914.51-.75 1.007l8.143 24.722a.79.79 0 0 0 .75.535h3.944a.79.79 0 0 0 .75-.535l5.746-17.481c.22-.67 1.188-.672 1.41-.002l5.795 17.485a.79.79 0 0 0 .749.533h4.001a.79.79 0 0 0 .749-.535zm156.059 23.702q2.19 1.983 5.475 1.983 2.174 0 3.898-.476a.685.685 0 0 0 .456-.9l-1.075-2.976c-.145-.399-.605-.591-1.017-.463a10 10 0 0 1-.346.099 6 6 0 0 1-1.149.107q-1.314 0-2.355-.911-1.04-.965-1.04-3.591V28.225c0-.4.332-.726.741-.726h5.088a.734.734 0 0 0 .741-.725v-3.052c0-.4-.332-.725-.741-.725h-5.088a.734.734 0 0 1-.741-.726V11.607c0-.4-.332-.725-.741-.725h-3.555a.734.734 0 0 0-.741.725v10.664c0 .401-.332.726-.741.726h-3.226a.733.733 0 0 0-.741.726v3.05c0 .401.331.726.741.726h3.226c.409 0 .741.325.741.726v13.96q.055 3.539 2.19 5.521m-71.935-.804q3.668-3.216 3.668-8.04 0-2.948-1.697-5.306c-.521-.747-1.269-1.698-3.463-2.902-.464-.254-.476-.932-.037-1.226 2.625-1.762 3.938-4.429 3.938-7.557q0-4.448-3.34-7.235-3.394-2.895-8.377-2.895-3.996 0-6.953 2.09-2.634 1.864-3.921 4.747c-.178.399.026.854.435 1.023l3.112 1.29c.441.184.945-.036 1.142-.463q1.84-3.97 6.185-3.97 2.957 0 4.763 1.5t1.807 3.913q0 2.626-1.916 4.288-1.916 1.608-4.927 1.608h-2.014a.825.825 0 0 0-.833.817v2.977c0 .45.373.816.833.816h2.397q3.176 0 5.42 1.876 2.3 1.875 2.3 4.61 0 2.733-2.19 4.663-2.245 1.875-5.311 1.875-2.793 0-4.818-1.607-1.679-1.415-2.562-3.839a.885.885 0 0 0-1.154-.524l-3.045 1.242c-.391.16-.6.581-.463.973q1.276 3.654 4.432 6.007 3.393 2.466 7.61 2.465 5.365 0 8.979-3.216m12.606-5.681q0-2.144 2.026-3.591 2.08-1.448 5.146-1.448 3.933 0 6.246 1.587a.72.72 0 0 1 .314.63q-.152 2.862-2.508 5.02-2.464 2.304-5.64 2.304-2.244 0-3.942-1.286-1.642-1.287-1.642-3.216m15.33-16.134q-3.23-2.948-8.815-2.948-6.733 0-10.378 4.535c-.261.325-.163.796.195 1.016l3.177 1.958a.795.795 0 0 0 1.024-.187q2.392-2.926 6.256-2.926 2.792 0 4.873 1.822c1.395 1.187 1.89 2.613 2.031 4.224.049.554-.569.911-1.093.697q-2.6-1.062-6.249-1.062-5.256 0-8.432 2.412-3.12 2.412-3.121 6.486 0 3.859 2.957 6.432 3.012 2.572 7.446 2.572 5.202 0 8.322-4.502v2.92c0 .4.332.725.741.725h3.555a.734.734 0 0 0 .741-.726V33.074q0-5.092-3.23-7.987m32.454 23.403a.78.78 0 0 1-.788.77h-3.462a.78.78 0 0 1-.787-.77v-.861c0-.556-.859-.822-1.263-.432q-.952.917-2.296 1.635-2.355 1.286-4.928 1.286-4.926 0-7.61-2.733-2.628-2.787-2.628-7.88V23.769a.78.78 0 0 1 .788-.771h3.462c.435 0 .787.345.787.77v15.417q.165 6.432 6.625 6.432 3.011 0 5.037-2.358 2.026-2.412 2.026-5.736V23.768c0-.426.352-.771.787-.771h3.462a.78.78 0 0 1 .788.77zm26.021-36.883c0-.4.332-.725.741-.725h3.555c.409 0 .741.324.741.725V24.63c0 .555.855.82 1.257.427a10.2 10.2 0 0 1 2.247-1.63q2.41-1.287 4.982-1.287 4.928 0 7.554 2.788 2.685 2.733 2.684 7.825v15.783c0 .4-.332.726-.74.726h-3.555a.734.734 0 0 1-.742-.726V33.717q0-7.075-6.406-7.075-3.065 0-5.2 2.519-2.082 2.465-2.081 5.789v13.585c0 .4-.332.726-.741.726h-3.555a.734.734 0 0 1-.741-.726z" clip-rule="evenodd"/></svg>