<svg xmlns="http://www.w3.org/2000/svg" width="240" height="27" fill="none"><path fill="#FAFAFA" fill-rule="evenodd" d="M25.841.27 26.97 0l8.826 17.448-.274.807-17.366 8.316h-.515L.275 18.256 0 17.449 8.827 0l1.128.27v16.025l7.525-7.4h.836l7.525 7.4V.268Zm.839 18.043-5.765 5.615 11.724-5.614H26.68Zm7.615-1.192h-7.261V2.769l7.26 14.352Zm-15.8 7.5 7.09-6.906-7.09-6.973v13.879Zm-1.193-13.879v13.879l-7.09-6.906 7.09-6.973Zm-8.54 6.38h-7.26l7.26-14.353v14.352Zm-5.605 1.192 11.725 5.614-5.766-5.614H3.157Z" clip-rule="evenodd"/><path fill="#FAFAFA" d="m65.825 18.17 2.814-13.19h2.346L67.26 21.453h-2.788L61.575 8.815l-2.898 12.639h-2.814l-3.67-16.475h2.345l2.76 13.191L60.36 4.98h2.428l3.035 13.19Zm14.885 3.284h-2.262V4.979h2.263v16.475Zm18.188-3.725V4.979h2.263v16.475h-2.677L92.027 8.815v12.639h-2.263V4.979h2.704l6.43 12.75ZM109.166 4.98h11.508v2.18h-4.637v14.294h-2.262V7.16h-4.609V4.98Zm29.467 0v2.18h-7.671v4.994h7.147v2.153h-7.147v4.995h7.671v2.152h-9.934V4.979h9.934Zm20.848 16.474h-2.539l-3.283-6.899h-3.836v6.899h-2.263V4.979h7.809c.58 0 1.132.138 1.629.497.358.249 1.131.994 1.379 1.352.332.497.47 1.077.47 1.656v2.566c0 .58-.138 1.16-.47 1.656-.248.359-1.021 1.104-1.379 1.352a2.56 2.56 0 0 1-.939.414l3.422 6.982Zm-4.36-14.294h-5.298v5.215h5.298c.331 0 .552-.11.938-.524.414-.387.525-.607.525-.91V8.593c0-.303-.138-.524-.525-.938-.386-.386-.607-.496-.938-.496Zm19.795 7.202 4.277-9.383h2.87v16.475H179.8V8.622l-3.863 8.5h-2.042l-3.864-8.528v12.86h-2.262V4.979h2.87l4.277 9.383Zm23.693 7.23h-3.56c-.773 0-1.325-.193-1.849-.662a16.522 16.522 0 0 1-1.214-1.16c-.635-.69-.856-1.186-.856-2.097V4.98h2.263v12.777c0 .22.193.497.69.994.497.469.773.69.993.69h3.477c.221 0 .497-.194.994-.69.497-.497.717-.773.717-.994V4.98h2.263v12.694c0 .773-.193 1.325-.662 1.877-.331.359-.911.938-1.187 1.186-.69.663-1.186.856-2.069.856ZM210.533 4.98h11.507v2.18h-4.636v14.294h-2.263V7.16h-4.608V4.98Zm29.467 0v2.18h-7.672v4.994h7.147v2.153h-7.147v4.995H240v2.152h-9.935V4.979H240Z"/></svg>