<svg xmlns="http://www.w3.org/2000/svg" width="158" height="36" fill="none"><path fill="#F3F5F0" d="M40.962 8.01c-5.353 0-9.547 4.383-9.547 10.013s4.194 9.874 9.547 9.874c5.352 0 9.546-4.333 9.546-9.874.05-5.643-4.143-10.013-9.546-10.013Zm0 15.844c-2.846 0-4.988-2.52-4.988-5.819 0-3.3 2.142-5.97 4.988-5.97 2.846 0 5.038 2.557 5.038 5.97s-2.141 5.819-5.038 5.819ZM73.758 0h-3.59a.504.504 0 0 0-.365.151c-.1.1-.151.227-.151.365v26.235c0 .277.227.516.516.516h3.59c.138 0 .264-.05.365-.151a.509.509 0 0 0 .151-.366V.554c.05-.277-.189-.554-.516-.554Zm-7.733 8.476a19.262 19.262 0 0 0-4.333-.466c-3.677 0-7.405 1.159-7.405 6.99v11.839c0 .277.24.516.516.516h3.59c.138 0 .264-.05.365-.151.1-.1.15-.227.15-.365v-11.7c0-.844.14-2.985 3.351-2.985 1.31 0 2.607.226 2.884.277.277.05.516-.05.605-.328l.793-2.884c.088-.416-.088-.655-.516-.743Zm-36.713.1h-3.816c-.24 0-.466.14-.516.379l-3.64 12.808-3.313-11.41a2.421 2.421 0 0 0-.881-1.31 2.47 2.47 0 0 0-1.499-.504h-1.159c-1.12 0-2.103.743-2.38 1.814l-3.312 11.41L5.169 8.942c-.05-.24-.277-.378-.517-.378H.836c-.378 0-.604.328-.516.705l5.214 16.31a2.499 2.499 0 0 0 2.38 1.726h1.537c1.12 0 2.09-.743 2.38-1.776l3.212-10.907 3.211 10.907c.151.516.466.957.894 1.272.429.315.945.491 1.486.491h1.537a2.52 2.52 0 0 0 2.38-1.725l5.215-16.31a.532.532 0 0 0 .037-.24.362.362 0 0 0-.088-.226.72.72 0 0 0-.176-.164.521.521 0 0 0-.24-.063l.013.013Zm127.808 0h-3.64s-.415 0-.554.379l-4.987 13.236-4.988-13.236a.555.555 0 0 0-.214-.24.527.527 0 0 0-.302-.088h-3.64c-.516 0-.655.416-.554.743l7.317 18.35-2.934 7.456c-.139.378 0 .743.516.743h3.59a.577.577 0 0 0 .516-.327l10.479-26.184c.088-.516-.227-.844-.605-.844v.013ZM94.778 0h-3.59a.504.504 0 0 0-.365.151c-.1.1-.151.227-.151.365v7.872c-.705-.139-1.914-.416-3.917-.416-7.128 0-8.614 6.386-8.614 9.874 0 7.733 4.66 10.013 8.992 10.013 3.728 0 6.247-.882 7.456-1.398.743-.328.743-.743.743-1.121V.554C95.282.277 95.055 0 94.778 0Zm-4.106 23.438s-1.398.416-3.023.416c-3.728 0-4.66-2.658-4.66-5.781 0-1.12-.138-6.008 4.471-6.008 1.537 0 3.174.416 3.174.416v10.957h.05-.012ZM128.468 8.01c-3.174 0-4.937.416-6.663.882-.466.138-.655.466-.516.982l.516 2.191c.051.328.378.744.882.605 1.121-.277 2.796-.844 5.315-.844 2.519 0 3.161.932 3.161 3.161h-3.073c-6.574 0-8.388 3.451-8.388 6.298 0 3.589 1.725 6.612 7.922 6.612 4.66 0 6.99-1.16 7.506-1.449.416-.24.655-.378.655-1.12V14.47c-.05-4.9-2.934-6.474-7.317-6.474v.013Zm2.607 15.705s-1.449.466-3.35.466c-2.658 0-3.451-1.347-3.451-2.745 0-1.776 1.171-2.935 3.728-2.935h3.073v5.214ZM107.826 8.01c-3.728 0-6.247.882-7.456 1.398-.743.327-.743.743-.743 1.12v24.787c0 .277.239.516.516.516h3.589c.139 0 .265-.05.366-.151.1-.1.151-.227.151-.365V27.48c.705.138 1.914.416 3.917.416 7.128 0 8.614-6.386 8.614-9.874.051-7.784-4.609-10.013-8.942-10.013h-.012Zm-.328 15.806c-1.536 0-3.174-.416-3.174-.416V12.443s1.398-.415 3.036-.415c3.727 0 4.659 2.657 4.659 5.78-.088 1.121.051 6.008-4.521 6.008Z"/></svg>