<svg xmlns="http://www.w3.org/2000/svg" data-name="Layer 1" viewBox="0 0 304.4 119.6"><title>gnosis_owl</title><g data-name="gnosis logo"><path d="m200.7 29.9-4.4 4.4a21.49 21.49 0 0 1 2.2 19 21.72 21.72 0 0 1-27.7 13.1 20 20 0 0 1-4.4-2.2l-14.1 14.1L140 65.9a22.46 22.46 0 0 1-19.9 2.5A22.15 22.15 0 0 1 106.7 40a20.6 20.6 0 0 1 2.5-4.9l-5.3-5.3-1 1.7a57.9 57.9 0 0 0 49.3 88.1h.1a57.87 57.87 0 0 0 49.5-87.9Z" style="fill:#00a6c4"/><path d="M115.7 41.6a12 12 0 0 0-2.4 7.2 11.82 11.82 0 0 0 11.8 11.8 11.45 11.45 0 0 0 7.2-2.5ZM173.6 57.1a11.44 11.44 0 0 0 6.6 2A11.82 11.82 0 0 0 192 47.3a11.67 11.67 0 0 0-2-6.6ZM152.5 69.5l-47.8-48 1.9-2A61.7 61.7 0 0 1 151.8 0h.1a62.06 62.06 0 0 1 46 20.5l1.8 2Zm-40-48 40 40.1L192 22.3a56.72 56.72 0 0 0-40-16.7h-.1a56 56 0 0 0-39.4 15.9" data-name="Shape" style="fill:#00a6c4"/><g data-name="Shape"><path d="m99.8 100.4-5.6-.4c-23.8-1.5-56.6-7.4-77.8-26.5C3.3 61.8.8 50.7.7 50.2L0 46.8h86.6l-.5 3.2a65 65 0 0 0-.6 8.8 66.1 66.1 0 0 0 11.1 36.9ZM204.6 100.4l3.1-4.7A65.7 65.7 0 0 0 218.8 59a67 67 0 0 0-.6-9l-.4-3.2h86.6l-.7 3.4c-.1.5-2.6 11.6-15.6 23.3-21.2 19.1-54.1 25-77.9 26.5Z" style="fill:#00a6c4"/></g></g></svg>