<svg xmlns="http://www.w3.org/2000/svg" width="732" height="182" fill="none" viewBox="0 0 732 182"><path fill="#fff" d="m299.295 81.035 9.381-18.855h15.745l-15.964 28.142 16.37 28.8h-15.791l-9.522-19.263-9.537 19.263h-15.744l16.37-28.8-15.964-28.142h15.76zm50.141 17.808h-7.458v20.107h-13.649V62.18h22.358c6.832 0 12.008 1.454 15.744 4.565a15.363 15.363 0 0 1 5.801 12.633 18.63 18.63 0 0 1-2.486 9.944 17.65 17.65 0 0 1-7.458 6.426l11.804 22.983v.625H359.38zm-7.254-10.553h8.708a7.1 7.1 0 0 0 5.801-2.08 8.62 8.62 0 0 0 2.064-5.8 7.664 7.664 0 0 0-2.064-5.8 7.38 7.38 0 0 0-5.801-2.065h-8.708zm51.391 11.382v19.278h-13.649V62.18h22.796a25.85 25.85 0 0 1 11.601 2.486 19.53 19.53 0 0 1 7.817 6.832 18.23 18.23 0 0 1 2.689 10.163 16.44 16.44 0 0 1-6.004 13.258c-3.94 3.314-9.38 4.972-16.369 4.972h-8.896zm0-10.554h8.896a7.58 7.58 0 0 0 6.02-2.08 6.95 6.95 0 0 0 2.064-5.596 9.26 9.26 0 0 0-2.064-6.41 7.25 7.25 0 0 0-5.801-2.486h-9.115zm70.357 19.466h23.874v10.569h-37.68V62.18h13.681v46.404zm64.227-13.665h-21.482v13.665h25.485v10.569h-39.087V62.18h39.368v10.569h-25.484v12.007h21.341zm8.693 24.031V62.18h18.434a27.97 27.97 0 0 1 13.821 3.486 23.46 23.46 0 0 1 9.381 9.74 30.75 30.75 0 0 1 3.533 13.884v2.69a29 29 0 0 1-3.314 14.071 25.2 25.2 0 0 1-9.524 9.851 25.2 25.2 0 0 1-13.272 3.407h-18.98zm13.681-46.201v35.835h4.69a10.95 10.95 0 0 0 9.194-4.144q3.126-4.33 3.126-12.43v-2.485q0-8.395-3.126-12.43a11.1 11.1 0 0 0-9.381-4.143h-4.55zm83.974 39.352a22.26 22.26 0 0 1-9.381 5.598 39.8 39.8 0 0 1-13.461 2.079c-7.458 0-13.477-2.283-17.824-6.848-4.346-4.565-6.832-10.944-7.254-19.059V88.9a35.8 35.8 0 0 1 2.908-14.697 22.97 22.97 0 0 1 8.489-9.74 24.24 24.24 0 0 1 12.852-3.315c7.036 0 12.633 1.657 16.573 4.972 3.94 3.314 6.254 8.083 6.832 14.493h-13.258a10.66 10.66 0 0 0-3.127-6.832 9.38 9.38 0 0 0-6.535-2.064 9.27 9.27 0 0 0-8.083 4.346 22.95 22.95 0 0 0-2.893 12.508v3.518c0 5.597 1.032 9.944 2.893 12.852s4.972 4.346 9.115 4.346a11.78 11.78 0 0 0 8.083-2.486v-8.912h-9.522v-9.38h23.202V112.1zm42.48-17.198H655.44v13.665h25.469v10.569h-39.087V62.18h39.369v10.569h-25.485v12.007h21.545V94.92zm30.034 3.925h-7.457v20.122h-13.884V62.18h22.373c6.848 0 12.023 1.454 15.744 4.565a15.32 15.32 0 0 1 5.801 12.633 18.6 18.6 0 0 1-2.486 9.944 17.65 17.65 0 0 1-7.458 6.426l11.82 22.983v.625H716.76zm-7.457-10.554h8.693a7.1 7.1 0 0 0 5.8-2.08 8.62 8.62 0 0 0 2.017-5.784 7.73 7.73 0 0 0-2.064-5.8 7.38 7.38 0 0 0-5.753-2.064h-8.709zM55.347 11.257h4.378V0h-4.378a35.304 35.304 0 0 0-35.334 35.335v25.64A21.263 21.263 0 0 1 0 82.24l.313 5.629L0 93.496a21.265 21.265 0 0 1 20.013 21.263v29.55a36.994 36.994 0 0 0 36.898 37.055v-11.257a25.66 25.66 0 0 1-25.641-25.642v-29.706a32.47 32.47 0 0 0-14.228-26.891A32.67 32.67 0 0 0 31.27 60.976V35.335a24.187 24.187 0 0 1 24.077-24.078M185.429 11.257h-4.377V0h4.377a35.27 35.27 0 0 1 35.179 35.335v25.64A21.26 21.26 0 0 0 240.62 82.24l-.312 5.629.312 5.628a21.264 21.264 0 0 0-20.012 21.263v29.55a36.996 36.996 0 0 1-36.898 37.055v-11.258a25.654 25.654 0 0 0 25.641-25.641v-29.706a32.47 32.47 0 0 1 14.227-26.891 32.69 32.69 0 0 1-14.227-26.892V35.335A23.95 23.95 0 0 0 194.615 13.1a24 24 0 0 0-9.186-1.844M161.352 45.34h16.729l-34.866 32.678a34.02 34.02 0 0 1-45.653 0L62.696 45.34h16.73l26.422 24.703a21.39 21.39 0 0 0 28.925 0zM79.269 136.023h-16.73l35.022-32.834a33.695 33.695 0 0 1 45.654 0l35.022 32.834h-16.729l-26.579-25.016a21.39 21.39 0 0 0-28.925 0z"/></svg>