<svg xmlns="http://www.w3.org/2000/svg" width="732" height="182" fill="none" viewBox="0 0 732 182"><path fill="#000" d="m299.57 81.035 9.381-18.855h15.744l-15.963 28.142 16.369 28.8H309.31l-9.521-19.263-9.537 19.263h-15.745l16.37-28.8-15.963-28.142h15.76zm50.141 17.808h-7.458v20.107h-13.649V62.18h22.357c6.833 0 12.008 1.454 15.745 4.565a15.38 15.38 0 0 1 5.8 12.633 18.6 18.6 0 0 1-2.486 9.944 17.65 17.65 0 0 1-7.458 6.426l11.805 22.983v.625h-14.713zm-7.255-10.553h8.709a7.1 7.1 0 0 0 5.8-2.08 8.62 8.62 0 0 0 2.064-5.8 7.65 7.65 0 0 0-.424-3.117 7.65 7.65 0 0 0-1.64-2.684 7.37 7.37 0 0 0-5.8-2.063h-8.709zm51.392 11.382v19.278h-13.65V62.18h22.796a25.85 25.85 0 0 1 11.601 2.486 19.5 19.5 0 0 1 7.817 6.832 18.23 18.23 0 0 1 2.69 10.163 16.46 16.46 0 0 1-6.004 13.258c-3.94 3.314-9.381 4.972-16.37 4.972h-8.896zm0-10.554h8.896a7.58 7.58 0 0 0 6.019-2.08 6.94 6.94 0 0 0 2.064-5.596 9.26 9.26 0 0 0-2.064-6.41 7.23 7.23 0 0 0-5.8-2.486h-9.115zm70.356 19.466h23.874v10.569h-37.679V62.18h13.68v46.404zm64.228-13.665H506.95v13.665h25.484v10.569h-39.087V62.18h39.369v10.569h-25.485v12.007h21.342zm8.693 24.031V62.18h18.433a27.97 27.97 0 0 1 13.821 3.486 23.45 23.45 0 0 1 9.381 9.74 30.75 30.75 0 0 1 3.534 13.884v2.69a29 29 0 0 1-3.315 14.071 25.19 25.19 0 0 1-22.795 13.258h-18.981zm13.68-46.201v35.835h4.691a10.95 10.95 0 0 0 9.193-4.144q3.127-4.33 3.127-12.43v-2.485q0-8.395-3.127-12.43a11.08 11.08 0 0 0-9.381-4.143h-4.55zM634.78 112.1a22.3 22.3 0 0 1-9.381 5.598 39.8 39.8 0 0 1-13.462 2.079c-7.458 0-13.477-2.283-17.823-6.848-4.347-4.565-6.833-10.944-7.255-19.059V88.9a35.9 35.9 0 0 1 2.908-14.697 22.97 22.97 0 0 1 8.49-9.74 24.24 24.24 0 0 1 12.852-3.315c7.035 0 12.633 1.657 16.572 4.972 3.94 3.314 6.254 8.083 6.833 14.493h-13.258a10.67 10.67 0 0 0-3.127-6.832 9.38 9.38 0 0 0-6.536-2.064 9.27 9.27 0 0 0-8.083 4.346 22.95 22.95 0 0 0-2.892 12.508v3.518c0 5.597 1.032 9.944 2.892 12.852 1.861 2.908 4.972 4.346 9.115 4.346 2.909.201 5.79-.685 8.083-2.486v-8.912h-9.521v-9.38h23.202V112.1zm42.479-17.198h-21.544v13.665h25.469v10.569h-39.087V62.18h39.368v10.569H655.98v12.007h21.545V94.92zm30.035 3.925h-7.458v20.122h-13.884V62.18h22.374c6.848 0 12.023 1.454 15.744 4.565a15.32 15.32 0 0 1 5.8 12.633 18.6 18.6 0 0 1-2.486 9.944 17.65 17.65 0 0 1-7.457 6.426l11.82 22.983v.625h-14.713zm-7.458-10.554h8.693a7.1 7.1 0 0 0 5.8-2.08 8.6 8.6 0 0 0 2.017-5.784 7.73 7.73 0 0 0-2.063-5.8 7.38 7.38 0 0 0-5.754-2.064h-8.709zM55.622 11.257h4.377V0h-4.377a35.304 35.304 0 0 0-35.335 35.335v25.64A21.263 21.263 0 0 1 .274 82.24l.313 5.629-.313 5.628a21.265 21.265 0 0 1 20.013 21.263v29.55a36.994 36.994 0 0 0 36.898 37.055v-11.257a25.66 25.66 0 0 1-25.641-25.642v-29.706a32.47 32.47 0 0 0-14.228-26.891 32.67 32.67 0 0 0 14.228-26.892V35.335a24.187 24.187 0 0 1 24.078-24.078M185.704 11.257h-4.378V0h4.378a35.275 35.275 0 0 1 35.178 35.335v25.64a21.266 21.266 0 0 0 20.013 21.264l-.313 5.629.313 5.628a21.264 21.264 0 0 0-20.013 21.263v29.55a36.99 36.99 0 0 1-36.898 37.055v-11.258a25.65 25.65 0 0 0 25.641-25.641v-29.706a32.47 32.47 0 0 1 14.228-26.891 32.68 32.68 0 0 1-14.228-26.892V35.335a23.95 23.95 0 0 0-23.921-24.078M161.626 45.34h16.729L143.49 78.019a34.023 34.023 0 0 1-45.654 0L62.971 45.34H79.7l26.423 24.703a21.386 21.386 0 0 0 28.924 0zM79.543 136.023H62.814l35.022-32.834a33.696 33.696 0 0 1 45.653 0l35.022 32.834h-16.729l-26.579-25.016a21.388 21.388 0 0 0-28.924 0z"/></svg>