<svg xmlns="http://www.w3.org/2000/svg" xml:space="preserve" viewBox="0 0 37.1 33.3"><linearGradient id="a" x1="41.536" x2="20.625" y1="33.781" y2="12.867" gradientTransform="matrix(1 0 0 -1 0 35.345)" gradientUnits="userSpaceOnUse"><stop offset="0" style="stop-color:#f6a23a"/><stop offset=".92" style="stop-color:#f15729"/><stop offset="1" style="stop-color:#f15729"/></linearGradient><path d="M36.6 6.2 33 0 18.6 25h9.6l8.4-14.5c.7-1.4.7-3 0-4.3" style="fill:url(#a)"/><linearGradient id="b" x1="-7.363" x2="40.015" y1="25.275" y2="31.877" gradientTransform="matrix(1 0 0 -1 0 35.345)" gradientUnits="userSpaceOnUse"><stop offset="0" style="stop-color:#fff"/><stop offset=".04" style="stop-color:#fcfeff"/><stop offset=".06" style="stop-color:#f2fdff"/><stop offset=".08" style="stop-color:#e2fcff"/><stop offset=".1" style="stop-color:#ccf9ff"/><stop offset=".12" style="stop-color:#aef6ff"/><stop offset=".13" style="stop-color:#8bf3ff"/><stop offset=".15" style="stop-color:#60eeff"/><stop offset=".16" style="stop-color:#30e9ff"/><stop offset=".18" style="stop-color:#00e5ff"/><stop offset=".83" style="stop-color:#2a44ff"/></linearGradient><path d="M33 0H6.2C4.9 0 3.8.7 3.1 1.8L.6 6.2c-.8 1.3-.8 3 0 4.3l3.6 6.2L9 8.4h19.2" style="fill:url(#b)"/><linearGradient id="c" x1="-8.652" x2="25.659" y1="-.688" y2="33.62" gradientTransform="matrix(1 0 0 -1 0 35.345)" gradientUnits="userSpaceOnUse"><stop offset="0" style="stop-color:#f6a23a"/><stop offset=".92" style="stop-color:#f15729"/><stop offset="1" style="stop-color:#f15729"/></linearGradient><path d="m.6 27.2 3.6 6.2 14.4-25H8.9L.6 22.9c-.8 1.3-.8 2.9 0 4.3" style="fill:url(#c)"/><linearGradient id="d" x1="43.113" x2="-3.229" y1="9.859" y2="10.765" gradientTransform="matrix(1 0 0 -1 0 35.345)" gradientUnits="userSpaceOnUse"><stop offset="0" style="stop-color:#fff"/><stop offset=".04" style="stop-color:#fcfeff"/><stop offset=".06" style="stop-color:#f2fdff"/><stop offset=".08" style="stop-color:#e2fcff"/><stop offset=".1" style="stop-color:#ccf9ff"/><stop offset=".12" style="stop-color:#aef6ff"/><stop offset=".13" style="stop-color:#8bf3ff"/><stop offset=".15" style="stop-color:#60eeff"/><stop offset=".16" style="stop-color:#30e9ff"/><stop offset=".18" style="stop-color:#00e5ff"/><stop offset=".83" style="stop-color:#2a44ff"/></linearGradient><path d="M4.2 33.3H31c1.3 0 2.5-.7 3.1-1.8l2.5-4.4c.8-1.3.8-3 0-4.3L33 16.7 28.2 25H9" style="fill:url(#d)"/></svg>