<svg xmlns="http://www.w3.org/2000/svg" width="138" height="40" fill="none" viewBox="0 0 138 40"><path fill="#ea9c2f" d="M31.851 23.6H19.4l7.788-10.132c.577-.751.042-1.839-.905-1.839H11.064l-3.318 4.316 11.22-.005c.903 0 .477.73.19 1.104l-6.153 8.003c-.89 1.159-.065 2.837 1.396 2.837h14.194l3.258-4.28z"/><path fill="#ea9c2f" d="M31.406 7.295c1.461 0 2.709.785 3.342 2.1.632 1.316.288 2.78-.624 3.925l-4.964 6.434h5.62l2.884-3.755a7.94 7.94 0 0 0 .957-8.466A7.94 7.94 0 0 0 31.409 3H17.792l-3.3 4.295h16.92zM8.016 32.548c-1.461 0-2.709-.785-3.342-2.1-.632-1.317-.288-2.781.624-3.925l5.222-6.767H4.9l-3.14 4.09a7.94 7.94 0 0 0-.956 8.467 7.94 7.94 0 0 0 7.212 4.533h13.61l3.301-4.296H8.016zM48.896 30.867v-2.782l9.411-11.128.8 1.54H49.102v-3.552h13.732v2.782l-9.411 11.128-.829-1.54h10.507v3.552zM73.173 31.104q-2.723 0-4.794-1.065-2.042-1.066-3.167-2.9-1.125-1.866-1.125-4.233 0-2.397 1.095-4.232a7.83 7.83 0 0 1 3.049-2.9q1.924-1.066 4.35-1.066 2.34 0 4.203 1.006a7.27 7.27 0 0 1 2.99 2.841q1.094 1.836 1.094 4.41 0 .267-.03.622-.029.325-.058.621H67.846v-2.693h10.507l-1.776.799q0-1.243-.503-2.16a3.57 3.57 0 0 0-1.391-1.421q-.888-.533-2.072-.533t-2.101.533a3.52 3.52 0 0 0-1.391 1.45q-.504.918-.504 2.19v.71q0 1.303.563 2.309a4 4 0 0 0 1.628 1.51q1.065.503 2.486.503 1.272 0 2.22-.385a5.4 5.4 0 0 0 1.775-1.154l2.457 2.663q-1.095 1.243-2.753 1.924-1.657.651-3.818.651M92.436 14.708q1.895 0 3.374.77 1.51.739 2.368 2.308.858 1.539.858 3.966v9.115H94.42v-8.405q0-1.924-.858-2.841-.829-.918-2.368-.918-1.094 0-1.983.474-.858.444-1.361 1.39-.474.948-.474 2.428v7.872h-4.617V14.944h4.41v4.41l-.829-1.331a5.9 5.9 0 0 1 2.457-2.457q1.599-.858 3.64-.858M109.641 36.846q-2.25 0-4.351-.563-2.072-.532-3.462-1.627l1.835-3.315q1.005.828 2.545 1.302 1.569.503 3.078.503 2.457 0 3.551-1.095 1.125-1.095 1.125-3.255v-2.398l.296-3.995-.059-4.025v-3.434h4.38v13.26q0 4.44-2.308 6.54-2.308 2.102-6.63 2.102m-.71-6.748q-2.22 0-4.025-.947a7.8 7.8 0 0 1-2.871-2.693q-1.066-1.747-1.066-4.055 0-2.338 1.066-4.055a7.5 7.5 0 0 1 2.871-2.693q1.805-.947 4.025-.947 2.012 0 3.551.829 1.539.798 2.398 2.515.858 1.688.858 4.35 0 2.635-.858 4.351-.86 1.688-2.398 2.516-1.54.83-3.551.829m.917-3.788q1.213 0 2.161-.474a3.74 3.74 0 0 0 1.48-1.391q.532-.888.532-2.042 0-1.184-.532-2.042a3.53 3.53 0 0 0-1.48-1.362q-.948-.503-2.161-.503t-2.16.503a3.7 3.7 0 0 0-1.51 1.362q-.532.858-.532 2.042 0 1.154.532 2.042a3.94 3.94 0 0 0 1.51 1.391q.947.474 2.16.474M129.269 31.104q-2.545 0-4.528-1.065a8.3 8.3 0 0 1-3.108-2.9q-1.124-1.866-1.124-4.233 0-2.397 1.124-4.232a8 8 0 0 1 3.108-2.9q1.983-1.066 4.528-1.066 2.516 0 4.499 1.065 1.983 1.036 3.107 2.871T138 22.906q0 2.368-1.125 4.232-1.124 1.835-3.107 2.9t-4.499 1.066m0-3.788q1.155 0 2.072-.533a3.8 3.8 0 0 0 1.45-1.51q.533-1.006.533-2.367 0-1.391-.533-2.368a3.8 3.8 0 0 0-1.45-1.51q-.917-.532-2.072-.532-1.154 0-2.072.533a4 4 0 0 0-1.479 1.51q-.534.976-.533 2.367 0 1.362.533 2.368a4 4 0 0 0 1.479 1.509q.918.533 2.072.533"/></svg>