<svg xmlns="http://www.w3.org/2000/svg" width="593.484" height="519.087" viewBox="364.373 836.707 385.244 81.961"><path d="M0 0c0-7.773-6.301-14.074-14.074-14.074-7.774 0-14.075 6.301-14.075 14.074s6.301 14.074 14.075 14.074S0 7.773 0 0" style="fill:#fc945e;fill-opacity:1;fill-rule:nonzero;stroke:none" transform="matrix(1.33333 0 0 -1.33333 408.396 835.888)"/><path d="M0 0c-3.191 0-6.334-.118-9.453-.378-3.333-.26-6.642-.662-9.903-1.206a116 116 0 0 1-10.398-2.174h-.024q-3.546-.921-7.019-2.056a117.3 117.3 0 0 1-22.381-9.95 33.3 33.3 0 0 0 7.822-3.166 24 24 0 0 0 2.341-1.418 34 34 0 0 0 4.041-3.073 34 34 0 0 0 4.041-4.23 95 95 0 0 0 10.115 3.9 97 97 0 0 0 8.603 2.363c.803.189 1.63.354 2.433.52a98.6 98.6 0 0 0 14.701 1.82c1.678.094 3.379.141 5.081.141 6.736 0 13.33-.662 19.71-1.938a99.96 99.96 0 0 0 44.171-21.057c22.287-18.434 36.491-46.274 36.491-77.377C100.372-174.628 55.349-219.65 0-219.65c-31.055 0-58.871 14.204-77.305 36.443-10.399 12.549-17.796 27.651-21.105 44.218a100.4 100.4 0 0 0-1.938 19.71c0 1.702.048 3.38.142 5.058.047 1.489.165 2.955.307 4.42a98 98 0 0 0 1.513 10.304c.212 1.111.472 2.221.733 3.332a93 93 0 0 0 2.15 7.728c1.206 3.735 2.624 7.398 4.277 10.919a32.4 32.4 0 0 0-4.253 4.183 30.5 30.5 0 0 0-3.167 4.254 28 28 0 0 0-1.679 2.931 35.4 35.4 0 0 0-2.646 6.972 118 118 0 0 1-10.139-22.287 117 117 0 0 1-2.387-8.035v-.024a118 118 0 0 1-2.174-10.422 113 113 0 0 1-1.205-9.879c-.261-3.12-.379-6.263-.379-9.454 0-65.771 53.507-119.278 119.255-119.278 65.772 0 119.279 53.507 119.279 119.278C119.279-53.506 65.772 0 0 0" style="fill:#4f036d;fill-opacity:1;fill-rule:nonzero;stroke:none" transform="matrix(1.33333 0 0 -1.33333 584.087 721.596)"/><path d="M0 0c-16.826 23.184-43.226 38.972-73.334 41.524-3.333-.26-6.641-.662-9.903-1.205-3.522-.568-6.995-1.3-10.398-2.174h-.024q-3.546-.922-7.019-2.057a45 45 0 0 1-4.751 3.049 100.2 100.2 0 0 1-28.714-11.77c.567.024 1.134.048 1.725.048 3.238 0 6.381-.425 9.359-1.277a33.3 33.3 0 0 0 7.823-3.166 24 24 0 0 0 2.34-1.418 34 34 0 0 0 4.041-3.073 76 76 0 0 0 7.704 2.245 80 80 0 0 0 9.879 1.749c1.229.142 2.458.237 3.687.331a89 89 0 0 0 5.625.189 79 79 0 0 0 8.601-.449 85 85 0 0 0 5.484-.756c14.535-2.505 27.793-8.863 38.664-17.985C-11.154-11.297.331-33.985.331-59.296c0-45.377-36.916-82.292-82.291-82.292-25.312 0-47.977 11.485-63.078 29.541-9.099 10.872-15.456 24.107-17.962 38.618a71 71 0 0 0-.78 5.53 80 80 0 0 0-.449 8.603c0 2.245.095 4.466.26 6.664.072.875.166 1.773.261 2.647a80 80 0 0 0 1.748 9.879 81 81 0 0 0 2.6 8.673 30.6 30.6 0 0 0-3.167 4.254 28 28 0 0 0-1.679 2.931 35.4 35.4 0 0 0-2.646 6.972 34.7 34.7 0 0 0-1.111 11.202 99.7 99.7 0 0 1-12.124-28.549 56 56 0 0 1 3.096-4.94 117 117 0 0 1-2.387-8.035v-.024c-.874-3.426-1.606-6.9-2.174-10.422a113 113 0 0 1-1.205-9.879c2.551-30.133 18.363-56.555 41.571-73.382 16.661-12.077 37.128-19.19 59.226-19.19 55.798 0 101.198 45.4 101.198 101.199C19.238-37.176 12.101-16.662 0 0" style="fill:#cc2d58;fill-opacity:1;fill-rule:nonzero;stroke:none" transform="matrix(1.33333 0 0 -1.33333 669.261 777.466)"/><path d="M0 0c-19.427 0-36.893 8.603-48.78 22.216-6.664 7.61-11.58 16.779-14.085 26.895a40 40 0 0 0-.945 4.442 35 35 0 0 0-.497 3.167 61.5 61.5 0 0 0-.52 8.13c0 2.978.212 5.909.614 8.768a54 54 0 0 0 1.088 5.909 28 28 0 0 0-1.679 2.93 35.4 35.4 0 0 0-2.646 6.972 34.7 34.7 0 0 0-1.111 11.203c1.064 18.079 15.668 32.566 33.819 33.441.568.024 1.135.047 1.725.047 3.239 0 6.382-.425 9.359-1.276a33.3 33.3 0 0 0 7.823-3.167 24 24 0 0 0 2.34-1.418c1.559.354 3.12.638 4.727.827 2.86.402 5.79.615 8.768.615a62 62 0 0 0 8.13-.52 45 45 0 0 0 4.372-.709 38 38 0 0 0 3.237-.733c10.092-2.505 19.261-7.421 26.872-14.062C56.247 101.79 64.85 84.301 64.85 64.85 64.85 29.093 35.757 0 0 0m70.191 110.51a84.8 84.8 0 0 1-14.96 17.253c-10.895 9.571-24.295 16.378-39.066 19.261-3.522-.567-6.995-1.3-10.399-2.174h-.024a120 120 0 0 1-7.018-2.056 45 45 0 0 1-4.751 3.048c-1.347.78-2.718 1.513-4.136 2.151-37.53-4.561-67.498-34.08-72.744-71.397.639-1.56 1.394-3.049 2.222-4.514a56 56 0 0 1 3.096-4.939 117 117 0 0 1-2.388-8.036v-.023a119 119 0 0 1-2.174-10.423c2.884-14.771 9.69-28.147 19.261-39.042a83.5 83.5 0 0 1 17.254-14.96C-32.52-13.92-16.827-18.907 0-18.907c46.18 0 83.757 37.578 83.757 83.757 0 16.828-4.987 32.52-13.566 45.66" style="fill:#ed4e4a;fill-opacity:1;fill-rule:nonzero;stroke:none" transform="matrix(1.33333 0 0 -1.33333 536.726 919.74)"/><path d="M0 0c-13.258 0-25.287 5.365-34.032 14.038a47.8 47.8 0 0 0-9.548 13.306 46 46 0 0 0-2.576 6.428 47 47 0 0 0-1.655 7.019 48 48 0 0 0-.613 7.634c0 .402 0 .803.023 1.205a35.3 35.3 0 0 0-2.646 6.972 34.7 34.7 0 0 0-1.112 11.203c1.064 18.079 15.669 32.566 33.82 33.441.568.024 1.134.047 1.725.047 3.238 0 6.382-.425 9.359-1.276A33.3 33.3 0 0 0 .568 96.85c2.41 0 4.75-.213 7.067-.591a47 47 0 0 0 7.018-1.654 50 50 0 0 0 6.452-2.576A48.5 48.5 0 0 0 35.64 81.181c7.941-8.626 12.786-20.136 12.786-32.756C48.426 21.719 26.707 0 0 0m59.013 80.85a66.8 66.8 0 0 1-11.084 14.818 15 15 0 0 1-1.087 1.064c-6.948 6.759-15.338 12.029-24.673 15.291h-.024a119 119 0 0 1-7.019-2.057 45 45 0 0 1-4.751 3.049c-1.346.78-2.853.827-4.271 1.466.473.047-3.788-.828-3.315-.78-.733.094 1.625 1.211.869 1.258-1.773.166-1.838.822-3.658.822-37.128 0-67.331-30.228-67.331-67.356q0-1.454.07-2.907c.047-1.583-.26 4.467-.07 2.907.117.993.685-5.648.827-4.656.638-1.56 1.394-3.049 2.222-4.514a56 56 0 0 1 3.096-4.939 117 117 0 0 1-2.388-8.036v-.023A66.66 66.66 0 0 1-48.283 1.56c.355-.378.709-.757 1.088-1.111a67.4 67.4 0 0 1 14.818-11.06c9.595-5.295 20.632-8.296 32.377-8.296 37.128 0 67.332 30.204 67.332 67.332a67.1 67.1 0 0 1-8.319 32.425" style="fill:#fc945e;fill-opacity:1;fill-rule:nonzero;stroke:none" transform="matrix(1.33333 0 0 -1.33333 514.856 875.97)"/><path d="M0 0a48.5 48.5 0 0 1-14.534 10.848 95 95 0 0 1-10.115-3.9 35.34 35.34 0 0 0 8.011-22.452c0-19.639-15.976-35.615-35.615-35.615a35.38 35.38 0 0 0-22.689 8.201 93 93 0 0 1-4.278-10.919 47.8 47.8 0 0 1 9.548-13.306c5.484-1.89 11.321-2.883 17.419-2.883 30.062 0 54.522 24.461 54.522 54.522C2.269-10.115 1.489-4.916 0 0m-52.253-51.119a35.38 35.38 0 0 0-22.689 8.201 32.3 32.3 0 0 0-4.253 4.183 30.5 30.5 0 0 0-3.167 4.254 28 28 0 0 0-1.679 2.93 35.4 35.4 0 0 0-2.646 6.972 34.7 34.7 0 0 0-1.111 11.203C-86.734 4.703-72.13 19.19-53.979 20.065a40 40 0 0 0 1.726.047c3.238 0 6.381-.425 9.358-1.276a33.3 33.3 0 0 0 7.823-3.167 24 24 0 0 0 2.341-1.418 34 34 0 0 0 4.041-3.072 34 34 0 0 0 4.041-4.231 35.34 35.34 0 0 0 8.011-22.452c0-19.639-15.976-35.615-35.615-35.615M0 0c-1.371 4.703-3.403 9.146-5.931 13.211-.261.426-.521.851-.804 1.253-.213.354-.45.709-.685 1.04a55 55 0 0 1-13.093 13.281 45 45 0 0 1-4.751 3.049c-1.347.78-2.718 1.513-4.136 2.151-.284.142-.567.26-.85.378-6.736 3.002-14.181 4.656-22.003 4.656-30.063 0-54.522-24.461-54.522-54.523 0-7.113 1.37-13.92 3.875-20.159.213-.591.473-1.182.757-1.749.638-1.56 1.394-3.049 2.221-4.514a56 56 0 0 1 3.096-4.939 54.7 54.7 0 0 1 13.022-13.07c.236-.189.496-.354.757-.52.543-.401 1.11-.756 1.678-1.11a52.7 52.7 0 0 1 11.697-5.578c5.484-1.89 11.321-2.883 17.419-2.883 30.062 0 54.522 24.461 54.522 54.522C2.269-10.115 1.489-4.916 0 0m0 0a48.5 48.5 0 0 1-14.534 10.848 95 95 0 0 1-10.115-3.9 35.34 35.34 0 0 0 8.011-22.452c0-19.639-15.976-35.615-35.615-35.615a35.38 35.38 0 0 0-22.689 8.201 93 93 0 0 1-4.278-10.919 47.8 47.8 0 0 1 9.548-13.306c5.484-1.89 11.321-2.883 17.419-2.883 30.062 0 54.522 24.461 54.522 54.522C2.269-10.115 1.489-4.916 0 0" style="fill:#fcde95;fill-opacity:1;fill-rule:nonzero;stroke:none" transform="matrix(1.33333 0 0 -1.33333 562.375 767.729)"/></svg>