<svg xmlns="http://www.w3.org/2000/svg" width="512" height="512" fill="none" viewBox="0 0 512 512"><path fill="#000" d="M511.812 295.351v73.766c-3.635 3.25-8.152 3.044-12.543 3.047-113.134.059-226.271.084-339.405-.018-15.182-.013-17.995-2.942-18.021-18.563a56320 56320 0 0 1-.003-191.92c.026-15.978 2.811-18.758 18.789-18.776 86.034-.098 172.065-.033 258.099-.046 18.103-.003 18.119-.016 18.116-18.229-.003-11.975-.098-23.953.018-35.926.064-6.747-2.705-9.922-9.542-9.632-3.456.147-6.932-.02-10.398-.02-132.357-.003-264.717.005-397.074-.008C.213 79.023-.01 78.993.278 59.669.563 40.508-.976 21.316 1.13 2.182c167.705 0 335.41.05 503.115-.182 6.477-.008 7.779 1.267 7.754 7.749-.301 69.98-.188 139.964-.188 209.946-4.871 4.056-10.752 3.008-16.32 3.013-84.71.067-169.419.041-254.129.049-19.655.003-19.665.015-19.66 19.652.003 12.911-.17 25.824.069 38.732.178 9.573 1.406 10.69 11.089 11.073 5.979.236 11.965.077 17.949.077 81.561.005 163.121-.021 244.682.049 5.568.002 11.449-1.048 16.32 3.011"/><path fill="#000" d="M511.997 509.898c-167.159 0-334.316-.051-501.473.163-7.753.011-10.552-1.029-10.524-9.836.379-114.456.327-228.913.075-343.369-.016-7.331 1.803-9.35 9.218-9.115 17.992.568 36.026.53 54.023.03 8.218-.226 10.74 2.266 10.714 10.609-.293 91.315-.126 182.631-.317 273.946-.012 6.089.801 8.506 7.915 8.496 142.512-.235 285.024-.179 427.536-.187.946 0 1.891-.104 2.836-.16-.003 23.138-.003 46.282-.003 69.423"/></svg>