<svg xmlns="http://www.w3.org/2000/svg" width="1308" height="256" fill="none" viewBox="0 0 1308 256"><path fill="red" d="M268.907 147.501v37.09c-1.91 1.634-4.283 1.531-6.59 1.532-59.441.03-118.883.043-178.324-.009-7.977-.006-9.455-1.479-9.468-9.333-.06-32.167-.057-64.333-.002-96.5.014-8.034 1.477-9.432 9.872-9.441 45.202-.05 90.403-.017 135.606-.023 9.511-.002 9.519-.008 9.518-9.166-.002-6.021-.052-12.044.009-18.064.034-3.392-1.421-4.99-5.013-4.843-1.816.074-3.642-.01-5.463-.01-69.541-.002-139.083.002-208.624-.004C.112 38.728-.005 38.713.146 28.997.296 19.362-.513 9.712.594.092 88.707.092 176.819.116 264.932 0c3.403-.004 4.087.637 4.074 3.896-.158 35.188-.099 70.376-.099 105.564-2.559 2.04-5.649 1.512-8.575 1.515-44.507.034-89.012.021-133.52.025-10.326.001-10.332.007-10.329 9.881.001 6.492-.089 12.984.037 19.475.093 4.813.738 5.375 5.826 5.567 3.141.119 6.286.039 9.43.039 42.852.003 85.704-.01 128.556.025 2.926.001 6.016-.527 8.575 1.514"/><path fill="red" d="M268.903 255.917c-87.613 0-175.225-.026-262.837.083-4.063.005-5.53-.522-5.515-4.985.198-58.011.171-116.021.039-174.032-.008-3.715.945-4.738 4.831-4.62 9.43.288 18.882.27 28.315.016 4.308-.115 5.63 1.148 5.616 5.377-.154 46.281-.066 92.563-.166 138.845-.007 3.086.42 4.311 4.148 4.306 74.695-.119 149.389-.091 224.084-.095.495 0 .991-.052 1.486-.081z"/><path fill="#000" d="M542.564 179.628v31.341c-1.878 1.689-4.212 1.582-6.48 1.583-58.45.031-109.937.045-168.387-.009-7.843-.007-9.297-1.529-9.31-9.647-.059-33.249-.056-52.503-.001-85.752.013-8.304 1.452-9.749 9.707-9.758 44.448-.051 88.896-.018 133.344-.024 9.353-.002 9.361-.008 9.36-9.474-.002-6.224-.051-12.45.009-18.672.033-3.506-1.398-5.157-4.93-5.006-1.785.076-3.581-.01-5.372-.01-68.381-.002-63.758.002-132.139-.005-10.144 0-10.26-.017-10.111-10.06.147-9.96-.646-12.938.441-22.882 86.643 0 93.317.026 179.96-.094 3.346-.004 4.019.658 4.006 4.027-.155 36.37-.097 58.749-.097 95.12-2.517 2.109-5.555 1.564-8.431 1.566-43.766.035-87.529.022-131.294.026-10.155.001-10.16.008-10.157 10.213.001 6.71-.088 13.422.035 20.13.092 4.975.727 5.556 5.729 5.755 3.089.123 6.182.04 9.274.04 42.137.003 84.275-.01 126.413.026 2.876.002 5.916-.544 8.431 1.566M1190.74 214.602V106.777c0-6.18 1.62-11.79 4.85-16.832 3.22-5.041 7.47-9.107 12.74-12.197 5.44-3.09 11.3-4.635 17.59-4.635H1308v31.957h-80.81c-.85 0-1.61.325-2.29.976-.51.488-.76 1.138-.76 1.951v106.605zM1129 214.599V73.109h33.39V214.6zm0-155.638V26.76h33.39v32.2zM987.191 214.602q-9.686 0-17.843-4.635-7.902-4.635-12.746-12.197-4.587-7.563-4.588-16.833v-53.18h116.746v-19.76q0-1.22-1.02-1.951-.765-.976-2.04-.976H952.014V73.113h114.966c6.45 0 12.32 1.545 17.59 4.635 5.43 3.09 9.68 7.156 12.74 12.197 3.23 5.042 4.84 10.652 4.84 16.832v107.825zm1.275-31.957h80.294v-26.102h-83.353v23.175q0 1.22.765 2.195a3.84 3.84 0 0 0 2.294.732M769.336 214.601V38.959h169.003v32.445H803.238v39.031h108.591v32.689H803.238v71.477zM565.952 214.601V38.959h33.902v71.476h43.079l62.707-71.476h36.707v9.27l-68.825 78.551 69.08 78.551v9.27H705.64l-62.707-71.477h-43.079v71.477z"/></svg>