<svg xmlns="http://www.w3.org/2000/svg" width="125" height="56" fill="none"><path fill="#f3f5f0" d="M52.881 0A3.55 3.55 0 0 0 49.6 2.203L19.486 7.899a3.546 3.546 0 0 0-6.53 1.919c0 1.958 1.456 3.406 3.302 3.532l3.618 9.44-13.78 8.832a3.52 3.52 0 0 0-2.243-.8 3.546 3.546 0 1 0-.007 7.092c1.959 0 1.125-.146 1.608-.39l24.028 14.64c0 .04-.007.085-.007.125a3.546 3.546 0 0 0 7.092 0c0-1.958-1.316-3.255-3.036-3.506L24.11 24.18 51.345 6.74A3.546 3.546 0 1 0 52.881 0M29.594 48.174 7.604 34.778l13.536-8.673 8.454 22.076zm-6.74-27.295L19.4 11.855c.106-.152.198-.304.278-.47l25.51-4.822zM51.28 45.19c.681-.416 1.475-.621 2.368-.621.894 0 1.886.264 2.58.807q1.044.804 1.343 2.263h-.747q-.308-1.14-1.151-1.754-.844-.615-2.064-.615c-.814 0-1.39.179-1.945.543-.556.363-.986.86-1.29 1.508q-.457.965-.457 2.196t.457 2.197a3.6 3.6 0 0 0 1.29 1.508q.833.544 1.945.542c.74 0 1.521-.205 2.07-.608q.825-.614 1.132-1.773h.747c-.211.979-.661 1.74-1.336 2.276-.681.535-1.535.807-2.574.807s-1.687-.205-2.368-.616a4.1 4.1 0 0 1-1.581-1.74q-.556-1.12-.556-2.58c0-.972.185-1.819.556-2.566.37-.748.9-1.33 1.581-1.747v-.026Zm11.18 5.207c0 1.125.225 1.972.682 2.527.45.556 1.157.834 2.11.834s1.674-.278 2.13-.834q.687-.831.688-2.527v-5.742h.748v5.703q-.001 4.088-3.566 4.088c-2.375 0-3.54-1.363-3.54-4.088v-5.703h.748zm12.087 2.713c.516.43 1.19.648 2.011.648.82 0 1.429-.179 1.905-.536q.715-.538.715-1.462c0-.924-.126-.794-.384-1.052a2.3 2.3 0 0 0-.979-.575 11 11 0 0 0-1.528-.338c-.649-.112-1.19-.245-1.621-.41a2.6 2.6 0 0 1-1.078-.748q-.429-.507-.43-1.382c0-.582.132-1.006.403-1.416s.649-.721 1.145-.946q.742-.329 1.713-.33c.96 0 1.747.25 2.349.753q.91.754 1.019 2.005l-.735.013c-.086-.642-.357-1.144-.833-1.528-.477-.384-1.072-.569-1.806-.569-.735 0-1.376.172-1.833.523-.456.35-.681.827-.681 1.449 0 .621.119.773.357 1.025q.358.375.906.542c.364.113.867.219 1.509.331.648.1 1.197.238 1.66.41.456.172.84.43 1.138.78.304.352.45.821.45 1.403s-.14 1.013-.424 1.43a2.8 2.8 0 0 1-1.184.972c-.51.231-1.098.344-1.773.344s-1.323-.126-1.852-.384a3.03 3.03 0 0 1-1.25-1.085c-.305-.47-.464-1.005-.49-1.614h.748q.07 1.094.846 1.74zm15.851-8.455v.694H87.07v9.018h-.747V45.35h-3.328v-.695h7.41zm9.612 9.155c-.688.424-1.475.63-2.348.63-.874 0-1.66-.212-2.349-.63-.688-.416-1.224-1.005-1.607-1.759-.384-.754-.576-1.6-.576-2.547q0-1.417.576-2.547a4.28 4.28 0 0 1 1.607-1.76c.688-.416 1.475-.628 2.349-.628.873 0 1.66.212 2.348.628q1.032.627 1.608 1.76.575 1.13.575 2.547t-.575 2.547q-.576 1.133-1.608 1.76Zm-4.3-.601q.853.544 1.945.542c1.092-.002 1.383-.178 1.958-.542a3.6 3.6 0 0 0 1.337-1.509c.317-.641.476-1.376.476-2.196s-.159-1.555-.476-2.196a3.7 3.7 0 0 0-1.337-1.509c-.575-.364-1.224-.542-1.958-.542s-1.383.178-1.945.542a3.65 3.65 0 0 0-1.33 1.509c-.317.648-.476 1.376-.476 2.196s.159 1.555.476 2.196a3.7 3.7 0 0 0 1.33 1.509m13.277-8.554q1.529 0 2.62.595 1.093.594 1.681 1.694c.39.728.582 1.588.582 2.567s-.192 1.839-.582 2.566a4.07 4.07 0 0 1-1.681 1.694q-1.091.596-2.62.596h-2.606v-9.712zm3.044 7.899c.721-.741 1.078-1.76 1.078-3.043s-.357-2.31-1.072-3.05c-.714-.741-1.733-1.111-3.043-1.111h-1.859v8.322h1.859c1.303 0 2.316-.37 3.037-1.118m5.285-7.912 3.222 5.325 3.248-5.325h.847l-3.718 6.145v3.58h-.747v-3.58l-3.718-6.145h.873z"/><path fill="#f3f5f0" d="M63.023 22.916v-2.044H49.646v2.474h9.751l-10.18 12.292v2.044h14.236v-2.474H52.808zm14.217-1.157c-1.264-.728-2.706-1.085-4.334-1.085q-2.44.001-4.333 1.085a7.6 7.6 0 0 0-2.95 3.03q-1.052 1.946-1.052 4.478t1.052 4.479a7.56 7.56 0 0 0 2.95 3.03c1.264.727 2.706 1.085 4.333 1.085s3.07-.364 4.334-1.085 2.242-1.734 2.95-3.03q1.052-1.947 1.052-4.479t-1.052-4.479a7.56 7.56 0 0 0-2.95-3.03Zm.542 10.71c-.463.946-1.111 1.68-1.958 2.21q-1.27.793-2.918.793c-1.648 0-2.07-.264-2.917-.793a5.2 5.2 0 0 1-1.958-2.21q-.695-1.419-.695-3.195 0-1.777.695-3.196c.463-.946 1.111-1.68 1.958-2.21q1.271-.793 2.917-.793 1.647 0 2.918.794a5.2 5.2 0 0 1 1.958 2.21c.456.945.695 2.01.695 3.195q0 1.776-.695 3.195m19.8-9.03q-.826-1.29-2.275-2.024c-.966-.49-2.13-.741-3.493-.741s-2.924.363-4.155 1.085c-1.23.727-2.19 1.733-2.884 3.03q-1.041 1.946-1.04 4.478c0 1.687.345 3.314 1.04 4.611.694 1.297 1.647 2.282 2.864 2.964q1.826 1.02 4.168 1.019c2.434 0 4.36-.966 5.769-2.898l.364 2.7h2.341v-23.05h-2.699v8.832zm-.655 9.076c-.463.933-1.111 1.66-1.958 2.177q-1.269.774-2.884.774c-1.667 0-3.017-.576-4.036-1.727-1.019-1.15-1.535-2.64-1.535-4.465 0-1.826.51-3.308 1.535-4.466 1.026-1.157 2.369-1.726 4.036-1.726s2.037.264 2.884.793q1.272.794 1.958 2.223.695 1.431.695 3.248c0 1.211-.232 2.25-.695 3.183zm7.052-11.643h2.7v16.803h-2.7zm1.35-6.49q-.754 0-1.25.496-.496.497-.496 1.25c0 .503.165.927.496 1.251a1.72 1.72 0 0 0 1.25.496q.755 0 1.25-.496.497-.496.497-1.25 0-.755-.497-1.25-.495-.497-1.25-.497m17.048 7.859q-1.764-1.567-4.988-1.567c-2.15 0-3.665.463-4.928 1.382-1.264.92-1.992 2.21-2.19 3.857h2.699c.179-.86.642-1.541 1.403-2.057q1.139-.774 2.884-.774c1.745 0 2.342.304 3.083.926s1.105 1.468 1.105 2.573v1.151h-4.942q-3.295 0-5.021 1.35c-1.152.9-1.734 2.196-1.734 3.89s.569 2.712 1.7 3.592q1.699 1.319 4.499 1.317c1.866 0 4.34-.933 5.636-2.799v2.587h2.567V26.747c0-1.952-.589-3.454-1.759-4.499zm-.939 8.58q.002 2.143-1.416 3.44-1.418 1.302-3.89 1.304c-1.647 0-2.011-.251-2.666-.76-.661-.503-.986-1.178-.986-2.012q-.001-2.798 3.758-2.798h5.207v.827z"/></svg>