<svg xmlns="http://www.w3.org/2000/svg" width="125" height="56" fill="none"><path fill="#F3F5F0" d="M52.881 0A3.55 3.55 0 0 0 49.6 2.203L19.486 7.899a3.546 3.546 0 0 0-6.53 1.919c0 1.958 1.456 3.406 3.302 3.532l3.618 9.44-13.78 8.832a3.517 3.517 0 0 0-2.243-.8 3.546 3.546 0 1 0-.007 7.092c1.959 0 1.125-.146 1.608-.39l24.028 14.64c0 .04-.007.085-.007.125a3.546 3.546 0 0 0 7.092 0c0-1.958-1.316-3.255-3.036-3.506L24.11 24.18 51.345 6.74A3.546 3.546 0 1 0 52.881 0ZM29.594 48.174 7.604 34.778l13.536-8.673 8.454 22.076v-.007Zm-6.74-27.295L19.4 11.855c.106-.152.198-.304.278-.47l25.51-4.822-22.335 14.316ZM51.28 45.19c.681-.416 1.475-.621 2.368-.621.894 0 1.886.264 2.58.807.695.536 1.145 1.29 1.343 2.263h-.747c-.205-.761-.589-1.344-1.151-1.754-.563-.41-1.25-.615-2.064-.615-.814 0-1.39.179-1.945.543-.556.363-.986.86-1.29 1.508-.305.642-.457 1.376-.457 2.196 0 .82.152 1.555.457 2.197a3.601 3.601 0 0 0 1.29 1.508c.555.364 1.204.542 1.945.542.74 0 1.521-.205 2.07-.608.55-.41.927-1 1.132-1.773h.747c-.211.979-.661 1.74-1.336 2.276-.681.535-1.535.807-2.574.807-1.038 0-1.687-.205-2.368-.616a4.117 4.117 0 0 1-1.581-1.74c-.37-.747-.556-1.607-.556-2.58 0-.972.185-1.819.556-2.566.37-.748.9-1.33 1.581-1.747v-.026Zm11.18 5.207c0 1.125.225 1.972.682 2.527.45.556 1.157.834 2.11.834.953 0 1.674-.278 2.13-.834.457-.555.688-1.396.688-2.527v-5.742h.748v5.703c0 2.725-1.19 4.088-3.566 4.088-2.375 0-3.54-1.363-3.54-4.088v-5.703h.748v5.742Zm12.087 2.713c.516.43 1.19.648 2.011.648.82 0 1.429-.179 1.905-.536.477-.357.715-.847.715-1.462s-.126-.794-.384-1.052a2.32 2.32 0 0 0-.979-.575 10.874 10.874 0 0 0-1.528-.338c-.649-.112-1.19-.245-1.621-.41a2.6 2.6 0 0 1-1.078-.748c-.285-.337-.43-.8-.43-1.382 0-.582.132-1.006.403-1.416.271-.41.649-.721 1.145-.946.496-.218 1.065-.33 1.713-.33.96 0 1.747.25 2.349.753.608.503.946 1.171 1.019 2.005l-.735.013c-.086-.642-.357-1.144-.833-1.528-.477-.384-1.072-.569-1.806-.569-.735 0-1.376.172-1.833.523-.456.35-.681.827-.681 1.449 0 .621.119.773.357 1.025.238.251.542.43.906.542.364.113.867.219 1.509.331.648.1 1.197.238 1.66.41.456.172.84.43 1.138.78.304.352.45.821.45 1.403 0 .583-.14 1.013-.424 1.43a2.79 2.79 0 0 1-1.184.972c-.51.231-1.098.344-1.773.344-.674 0-1.323-.126-1.852-.384a3.03 3.03 0 0 1-1.25-1.085c-.305-.47-.464-1.005-.49-1.614h.748c.046.728.33 1.31.846 1.74l.007.006Zm15.851-8.455v.694H87.07v9.018h-.747V45.35h-3.328v-.695h7.41-.007Zm9.612 9.155c-.688.424-1.475.63-2.348.63-.874 0-1.66-.212-2.349-.63-.688-.416-1.224-1.005-1.607-1.759-.384-.754-.576-1.6-.576-2.547 0-.946.192-1.793.576-2.547a4.275 4.275 0 0 1 1.607-1.76c.688-.416 1.475-.628 2.349-.628.873 0 1.66.212 2.348.628.688.417 1.224 1.006 1.608 1.76.383.754.575 1.601.575 2.547 0 .946-.192 1.793-.575 2.547-.384.754-.92 1.343-1.608 1.76Zm-4.3-.601c.569.364 1.217.542 1.945.542s1.383-.178 1.958-.542a3.619 3.619 0 0 0 1.337-1.509c.317-.641.476-1.376.476-2.196 0-.82-.159-1.555-.476-2.196a3.709 3.709 0 0 0-1.337-1.509c-.575-.364-1.224-.542-1.958-.542s-1.383.178-1.945.542a3.647 3.647 0 0 0-1.33 1.509c-.317.648-.476 1.376-.476 2.196 0 .82.159 1.555.476 2.196a3.69 3.69 0 0 0 1.33 1.509Zm13.277-8.554c1.019 0 1.893.198 2.62.595.728.397 1.29.96 1.681 1.694.39.728.582 1.588.582 2.567 0 .979-.192 1.839-.582 2.566a4.067 4.067 0 0 1-1.681 1.694c-.727.397-1.601.596-2.62.596h-2.606v-9.712h2.606Zm3.044 7.899c.721-.741 1.078-1.76 1.078-3.043 0-1.284-.357-2.31-1.072-3.05-.714-.741-1.733-1.111-3.043-1.111h-1.859v8.322h1.859c1.303 0 2.316-.37 3.037-1.118Zm5.285-7.912 3.222 5.325 3.248-5.325h.847l-3.718 6.145v3.58h-.747v-3.58l-3.718-6.145h.873-.007Z"/><path fill="#F3F5F0" d="M63.023 22.916v-2.044H49.646v2.474h9.751l-10.18 12.292v2.044h14.236v-2.474H52.808l10.215-12.292Zm14.217-1.157c-1.264-.728-2.706-1.085-4.334-1.085-1.627 0-3.07.363-4.333 1.085a7.605 7.605 0 0 0-2.95 3.03c-.702 1.296-1.052 2.791-1.052 4.478 0 1.687.35 3.182 1.052 4.479a7.563 7.563 0 0 0 2.95 3.03c1.264.727 2.706 1.085 4.333 1.085 1.628 0 3.07-.364 4.334-1.085 1.263-.721 2.242-1.734 2.95-3.03.701-1.297 1.052-2.792 1.052-4.479 0-1.687-.35-3.182-1.052-4.479a7.562 7.562 0 0 0-2.95-3.03Zm.542 10.71c-.463.946-1.111 1.68-1.958 2.21-.847.529-1.82.793-2.918.793s-2.07-.264-2.917-.793a5.216 5.216 0 0 1-1.958-2.21c-.463-.946-.695-2.011-.695-3.195 0-1.184.232-2.25.695-3.196.463-.946 1.111-1.68 1.958-2.21.847-.528 1.82-.793 2.917-.793 1.098 0 2.071.265 2.918.794a5.211 5.211 0 0 1 1.958 2.21c.456.945.695 2.01.695 3.195 0 1.184-.232 2.249-.695 3.195Zm19.8-9.03c-.549-.86-1.31-1.535-2.275-2.024-.966-.49-2.13-.741-3.493-.741s-2.924.363-4.155 1.085c-1.23.727-2.19 1.733-2.884 3.03-.695 1.296-1.04 2.791-1.04 4.478 0 1.687.345 3.314 1.04 4.611.694 1.297 1.647 2.282 2.864 2.964 1.217.681 2.607 1.019 4.168 1.019 2.434 0 4.36-.966 5.769-2.898l.364 2.7h2.341v-23.05h-2.699v8.832-.006Zm-.655 9.076c-.463.933-1.111 1.66-1.958 2.177-.847.516-1.806.774-2.884.774-1.667 0-3.017-.576-4.036-1.727-1.019-1.15-1.535-2.64-1.535-4.465 0-1.826.51-3.308 1.535-4.466 1.026-1.157 2.369-1.726 4.036-1.726 1.667 0 2.037.264 2.884.793.847.53 1.502 1.27 1.958 2.223.463.953.695 2.038.695 3.248 0 1.211-.232 2.25-.695 3.183v-.014Zm7.052-11.643h2.7v16.803h-2.7V20.872Zm1.35-6.49c-.503 0-.919.166-1.25.496-.331.331-.496.748-.496 1.25 0 .503.165.927.496 1.251a1.72 1.72 0 0 0 1.25.496c.503 0 .92-.165 1.25-.496.331-.33.497-.748.497-1.25 0-.503-.166-.92-.497-1.25-.33-.331-.747-.497-1.25-.497Zm17.048 7.859c-1.177-1.045-2.838-1.567-4.988-1.567-2.15 0-3.665.463-4.928 1.382-1.264.92-1.992 2.21-2.19 3.857h2.699c.179-.86.642-1.541 1.403-2.057.76-.516 1.72-.774 2.884-.774s2.342.304 3.083.926c.741.622 1.105 1.468 1.105 2.573v1.151h-4.942c-2.197 0-3.87.45-5.021 1.35-1.152.9-1.734 2.196-1.734 3.89 0 1.693.569 2.712 1.7 3.592 1.132.88 2.633 1.317 4.499 1.317 1.866 0 4.34-.933 5.636-2.799v2.587h2.567V26.747c0-1.952-.589-3.454-1.759-4.499l-.014-.007Zm-.939 8.58c0 1.43-.47 2.574-1.416 3.44-.946.867-2.242 1.304-3.89 1.304-1.647 0-2.011-.251-2.666-.76-.661-.503-.986-1.178-.986-2.012 0-1.865 1.251-2.798 3.758-2.798h5.207v.827h-.007Z"/></svg>