<svg xmlns="http://www.w3.org/2000/svg" viewBox="0 0 1879.26 844.15"><g fill="#fff"><path d="M794.78 0c-22.41 0-41.59 13.76-49.61 33.29l-455.23 86.05c-9.55-14.79-26.14-24.6-45.05-24.6-29.62 0-53.62 24.01-53.62 53.62s22.02 51.51 49.88 53.43l54.66 142.72L87.54 478c-9.24-7.56-21.05-12.11-33.92-12.11C24 465.89 0 489.9 0 519.51s24.01 53.62 53.62 53.62c8.77 0 17.03-2.15 24.33-5.88l363.21 221.33c-.02.64-.1 1.27-.1 1.92 0 29.62 24.01 53.62 53.62 53.62s53.62-24.01 53.62-53.62c0-26.97-19.93-49.22-45.85-53L360.02 365.61l411.53-263.72c7.04 3.39 14.9 5.35 23.24 5.35 29.62 0 53.62-24.01 53.62-53.62S824.4 0 794.78 0M442.75 728.17 110.39 525.63l204.58-131.12 127.78 333.65zM340.89 315.64l-52.22-136.36c1.6-2.26 3.01-4.65 4.25-7.14l385.62-72.89-337.64 216.4zM770.61 683.14c10.34-6.29 22.29-9.44 35.85-9.44 15.51 0 28.51 4.05 39 12.16 10.48 8.11 17.26 19.5 20.33 34.18h-11.32q-4.62-17.19-17.4-26.52c-8.53-6.22-18.94-9.33-31.24-9.33-11.18 0-20.97 2.72-29.36 8.18-8.39 5.45-14.88 13.03-19.5 22.75-4.61 9.72-6.92 20.8-6.92 33.23s2.31 23.52 6.92 33.23c4.61 9.72 11.11 17.3 19.5 22.75s18.17 8.18 29.36 8.18c12.58 0 23.03-3.08 31.34-9.23 8.32-6.15 14.01-15.09 17.09-26.84h11.32c-3.22 14.82-9.96 26.28-20.23 34.38-10.27 8.11-23.24 12.16-38.89 12.16q-20.34 0-35.85-9.33c-10.35-6.22-18.31-14.99-23.9-26.31s-8.39-24.32-8.39-39 2.8-27.46 8.39-38.79c5.59-11.32 13.56-20.13 23.9-26.42zM939.62 761.76c0 17.05 3.42 29.78 10.27 38.16 6.85 8.39 17.47 12.58 31.87 12.58s25.27-4.19 32.18-12.58q10.38-12.585 10.38-38.16v-86.8h11.32v86.17c0 41.23-17.96 61.85-53.88 61.85s-53.46-20.62-53.46-61.85v-86.17h11.32zM1122.26 802.76c7.83 6.5 17.96 9.75 30.41 9.75s21.63-2.69 28.83-8.07 10.8-12.75 10.8-22.12c0-6.71-1.92-12.02-5.76-15.94q-5.76-5.865-14.79-8.7c-6.01-1.89-13.69-3.6-23.06-5.14-9.79-1.67-17.96-3.74-24.53-6.18s-12.02-6.22-16.35-11.32c-4.34-5.1-6.5-12.06-6.5-20.86 0-8.1 2.03-15.24 6.08-21.38 4.05-6.15 9.82-10.9 17.29-14.26 7.48-3.35 16.11-5.03 25.89-5.03 14.54 0 26.38 3.81 35.54 11.43 9.15 7.62 14.29 17.72 15.41 30.3l-11.11.21c-1.26-9.65-5.45-17.33-12.58-23.06s-16.21-8.6-27.26-8.6c-11.6 0-20.83 2.62-27.68 7.86s-10.27 12.54-10.27 21.91c0 6.57 1.81 11.74 5.45 15.52 3.63 3.77 8.21 6.5 13.74 8.18 5.52 1.68 13.1 3.35 22.75 5.03 9.78 1.54 18.14 3.6 25.06 6.18 6.92 2.59 12.65 6.53 17.19 11.85 4.55 5.31 6.81 12.37 6.81 21.17 0 8.11-2.13 15.31-6.39 21.59-4.26 6.29-10.24 11.18-17.92 14.68-7.69 3.49-16.63 5.24-26.84 5.24s-19.96-1.92-27.99-5.76-14.32-9.3-18.87-16.36-7.02-15.2-7.44-24.43h11.32c.7 11.04 4.96 19.81 12.79 26.31zM1361.94 674.97v10.48h-50.32v136.28h-11.32V685.45h-50.32v-10.48zM1507.15 813.44c-10.41 6.36-22.26 9.54-35.54 9.54s-25.12-3.18-35.53-9.54-18.52-15.24-24.32-26.63-8.7-24.22-8.7-38.47 2.9-27.08 8.7-38.47c5.8-11.4 13.91-20.27 24.32-26.63s22.26-9.54 35.53-9.54 25.13 3.18 35.54 9.54 18.52 15.24 24.32 26.63 8.7 24.22 8.7 38.47-2.9 27.08-8.7 38.47-13.91 20.27-24.32 26.63m-64.99-9.11c8.6 5.45 18.42 8.18 29.45 8.18s20.9-2.72 29.57-8.18c8.67-5.45 15.41-13.03 20.23-22.75 4.82-9.71 7.23-20.79 7.23-33.23s-2.41-23.51-7.23-33.23c-4.82-9.71-11.57-17.29-20.23-22.75-8.67-5.45-18.52-8.18-29.57-8.18s-20.86 2.72-29.45 8.18c-8.6 5.45-15.31 13.03-20.13 22.75s-7.23 20.8-7.23 33.23 2.41 23.52 7.23 33.23c4.82 9.72 11.53 17.3 20.13 22.75M1642.95 674.97c15.37 0 28.58 3.01 39.63 9.02 11.04 6.01 19.5 14.53 25.37 25.58 5.87 11.04 8.81 23.97 8.81 38.79s-2.93 27.75-8.81 38.79c-5.87 11.04-14.32 19.57-25.37 25.58-11.04 6.01-24.25 9.02-39.63 9.02h-39.42V674.99h39.42zm45.91 119.4c10.9-11.25 16.35-26.6 16.35-46.02s-5.42-34.94-16.25-46.12-26.17-16.78-46.02-16.78h-28.1v125.8h28.1c19.71 0 35.01-5.63 45.92-16.87zM1768.77 674.76l48.65 80.51 49.06-80.51h12.79l-56.19 92.88v54.09h-11.32v-54.09l-56.19-92.88h13.21z"/></g><path fill="none" d="M1430.95 360.81c-12.78-7.97-27.31-11.95-43.58-11.95-25.23 0-45.57 8.72-61.01 26.15s-23.16 39.92-23.16 67.48 7.72 50.05 23.16 67.49c15.44 17.43 35.78 26.15 61.01 26.15 16.27 0 30.79-3.9 43.58-11.7 12.78-7.8 22.66-18.76 29.63-32.87s10.46-30.13 10.46-48.06-3.49-34.61-10.46-49.06-16.85-25.65-29.63-33.62zM1695.65 495.77c0 12.62 4.98 22.75 14.94 30.38s23.41 11.45 40.34 11.45c24.9 0 44.49-6.56 58.77-19.67s21.42-30.46 21.42-52.04v-12.46h-78.69c-37.85 0-56.78 14.11-56.78 42.33zM1141.59 360.81c-12.78-7.97-27.47-11.95-44.07-11.95s-31.3 3.99-44.08 11.95c-12.78 7.97-22.66 19.09-29.63 33.37s-10.46 30.38-10.46 48.31 3.49 34.03 10.46 48.31c6.97 14.27 16.85 25.4 29.63 33.36 12.78 7.97 27.48 11.95 44.08 11.95s31.29-3.98 44.07-11.95 22.66-19.09 29.63-33.36c6.97-14.28 10.46-30.38 10.46-48.31s-3.49-34.03-10.46-48.31-16.85-25.4-29.63-33.37"/><path fill="#fff" d="M948.1 346.36v-30.87H745.9v37.35h147.42L739.43 538.61v30.88h215.15v-37.36H793.71zM1163 328.93c-19.09-10.96-40.92-16.43-65.49-16.43s-46.4 5.48-65.49 16.43c-19.09 10.96-33.95 26.23-44.57 45.82-10.63 19.59-15.94 42.17-15.94 67.73s5.31 48.14 15.94 67.74c10.62 19.59 25.48 34.86 44.57 45.82s40.93 16.44 65.49 16.44 46.4-5.48 65.49-16.44 33.95-26.23 44.58-45.82c10.62-19.59 15.94-42.17 15.94-67.74s-5.31-48.14-15.94-67.73-25.49-34.86-44.58-45.82m8.22 161.87c-6.97 14.27-16.85 25.4-29.63 33.36-12.78 7.97-27.47 11.95-44.07 11.95s-31.3-3.98-44.08-11.95-22.66-19.09-29.63-33.36c-6.97-14.28-10.46-30.38-10.46-48.31s3.49-34.03 10.46-48.31 16.85-25.4 29.63-33.37 27.48-11.95 44.08-11.95 31.29 3.99 44.07 11.95c12.78 7.97 22.66 19.09 29.63 33.37s10.46 30.38 10.46 48.31-3.49 34.03-10.46 48.31M1470.54 354.33c-8.3-12.95-19.76-23.16-34.37-30.63s-32.2-11.21-52.79-11.21c-23.24 0-44.16 5.48-62.76 16.43-18.59 10.96-33.12 26.23-43.58 45.82s-15.69 42.17-15.69 67.73c0 26.89 5.23 50.14 15.69 69.73s24.9 34.53 43.33 44.82 39.43 15.44 63 15.44c36.85 0 65.9-14.61 87.16-43.83l5.48 40.84h35.36V220.86h-40.84v133.47zm-9.96 137.21c-6.97 14.11-16.85 25.07-29.63 32.87s-27.31 11.7-43.58 11.7c-25.23 0-45.57-8.71-61.01-26.15-15.44-17.43-23.16-39.93-23.16-67.49s7.72-50.05 23.16-67.48 35.78-26.15 61.01-26.15c16.27 0 30.79 3.99 43.58 11.95 12.78 7.97 22.66 19.17 29.63 33.62 6.97 14.44 10.46 30.79 10.46 49.06s-3.49 33.95-10.46 48.06zM1567.16 315.49H1608v254h-40.84zM1587.58 217.37c-7.63 0-13.95 2.49-18.92 7.47s-7.47 11.29-7.47 18.93 2.49 13.95 7.47 18.93 11.29 7.47 18.92 7.47 13.95-2.49 18.93-7.47 7.47-11.29 7.47-18.93-2.49-13.95-7.47-18.93-11.29-7.47-18.93-7.47M1845.31 336.16c-17.76-15.77-42.92-23.66-75.45-23.66-30.55 0-55.37 6.97-74.46 20.92s-30.13 33.37-33.12 58.27h40.84c2.66-12.95 9.71-23.32 21.16-31.13 11.46-7.81 25.98-11.71 43.58-11.71q29.88 0 46.56 13.95c16.68 13.95 16.68 22.25 16.68 38.85v17.43h-74.7c-33.2 0-58.52 6.81-75.95 20.42s-26.15 33.2-26.15 58.77c0 22.91 8.55 41 25.65 54.28 17.1 13.29 39.76 19.93 67.98 19.93 37.19 0 65.58-14.11 85.16-42.33v39.13h38.73v-.05s.08 0 .12.01v-165.1q0-44.325-26.64-67.98zm-14.2 129.74c0 21.58-7.14 38.93-21.42 52.04-14.28 13.12-33.87 19.67-58.77 19.67-16.94 0-30.38-3.82-40.34-11.45-9.96-7.64-14.94-17.76-14.94-30.38 0-28.22 18.92-42.33 56.78-42.33h78.69v12.46z"/></svg>